<?xml version="1.0" encoding="utf-8"?>
<!-- Generator: Adobe Illustrator 24.0.1, SVG Export Plug-In . SVG Version: 6.00 Build 0)  -->
<svg version="1.1" id="Capa_1" xmlns="http://www.w3.org/2000/svg" xmlns:xlink="http://www.w3.org/1999/xlink" x="0px" y="0px"
	 viewBox="0 0 329.6 329.5" style="enable-background:new 0 0 329.6 329.5;" xml:space="preserve">
<style type="text/css">
	.st0{fill:#FFFFFF;}
</style>
<g id="Grupo_467" transform="translate(0)">
	<g id="Grupo_379" transform="translate(0 62.857)">
		<g id="Grupo_357" transform="translate(22.392 159.678)">
			<g id="Grupo_351" transform="translate(27.51)">
				<path id="Trazado_1482" class="st0" d="M6.3,0.7C1.7,19.9,1.6,40,6,59.3l-2.7,0.6C-1.2,40.1-1.1,19.7,3.6,0L6.3,0.7z"/>
			</g>
			<g id="Grupo_352" transform="translate(0 15.171)">
				<path id="Trazado_1483" class="st0" d="M57.3,17.7l-0.2,2.8C37,18.5,17.6,12.3,0,2.4L1.3,0C18.6,9.7,37.6,15.7,57.3,17.7z"/>
			</g>
			<g id="Grupo_353" transform="translate(8.039 36.594)">
				<path id="Trazado_1484" class="st0" d="M1,0.4c1.4-1,3.8,0,5.3,2.1S8,7.2,6.7,8.2s-3.9,0.2-5.5-2S-0.4,1.4,1,0.4z"/>
			</g>
			<g id="Grupo_354" transform="translate(42.564 12.492)">
				<path id="Trazado_1485" class="st0" d="M5.5,6.4c-1.8,1-4,0.3-5-1.4C-0.3,3.5,0,1.6,1.2,0.5c1.8-0.9,4-0.2,4.9,1.6
					C6.9,3.5,6.6,5.2,5.5,6.4z"/>
			</g>
			<g id="Grupo_355" transform="translate(44.182 46.132)">
				<path id="Trazado_1486" class="st0" d="M1.7,6.1c-1.8-1.7-2.2-4.1-1-5.3s3.6-1,5.3,0.7s2.3,3.9,1.1,5.2S3.5,7.8,1.7,6.1z"/>
			</g>
			<g id="Grupo_356" transform="translate(11.364 0.272)">
				<path id="Trazado_1487" class="st0" d="M6.2,2.6c0.9,2,0.5,4.3-1,5.1S1.5,7.4,0.5,5.3S0.1,0.9,1.6,0.2S5.3,0.6,6.2,2.6z"/>
			</g>
		</g>
		<g id="Grupo_364" transform="translate(4.105 106.99)">
			<g id="Grupo_358" transform="translate(13.514 5.995)">
				<path id="Trazado_1488" class="st0" d="M25,1.6C13.8,17.5,6.2,35.5,2.7,54.6L0,54.1C3.6,34.6,11.3,16.2,22.7,0L25,1.6z"/>
			</g>
			<g id="Grupo_359" transform="translate(0.888 9.329)">
				<path id="Trazado_1489" class="st0" d="M47.2,35.6L46,38.1C28.3,29.4,12.6,17,0,1.8L2.1,0C14.5,14.9,29.8,27,47.2,35.6z"/>
			</g>
			<g id="Grupo_360" transform="translate(0 31.928)">
				<path id="Trazado_1490" class="st0" d="M2.2,0.1c1.7-0.4,3.5,1.3,4.2,3.8S6.2,8.6,4.5,9.1S0.9,8,0.2,5.4S0.5,0.4,2.2,0.1z"/>
			</g>
			<g id="Grupo_361" transform="translate(40.918 22.308)">
				<path id="Trazado_1491" class="st0" d="M4.1,6.9c-1.9,0.3-3.7-1-4-2.9c-0.3-1.7,0.7-3.3,2.3-3.9c1.9-0.2,3.7,1.1,4,3.1
					C6.5,4.8,5.6,6.3,4.1,6.9z"/>
			</g>
			<g id="Grupo_362" transform="translate(29.718 53.105)">
				<path id="Trazado_1492" class="st0" d="M0.5,5.3c-1-2.1-0.4-4.4,1.1-5.1s3.6,0.4,4.6,2.4s0.5,4.3-1,5.1S1.5,7.4,0.5,5.3z"/>
			</g>
			<g id="Grupo_363" transform="translate(16.284)">
				<path id="Trazado_1493" class="st0" d="M6.3,3.9C6.4,6.1,5.2,8,3.5,8.2C1.7,8.3,0.2,6.6,0,4.3S1.2,0.1,2.9,0S6.1,1.7,6.3,3.9z"
					/>
			</g>
		</g>
		<g id="Grupo_371" transform="translate(0 52.815)">
			<g id="Grupo_365" transform="translate(4.242 12.003)">
				<path id="Trazado_1494" class="st0" d="M42.2,2.3c-16,10.8-29.6,24.9-39.9,41.4L0,42.2C10.4,25.4,24.3,11,40.7,0L42.2,2.3z"/>
			</g>
			<g id="Grupo_366" transform="translate(10.158 3.067)">
				<path id="Trazado_1495" class="st0" d="M31.8,49.5l-2,1.9C16.3,36.9,6.2,19.7,0,0.9L2.6,0C8.7,18.4,18.6,35.3,31.8,49.5z"/>
			</g>
			<g id="Grupo_367" transform="translate(0 23.989)">
				<path id="Trazado_1496" class="st0" d="M3.8,0c1.7,0.3,2.8,2.5,2.5,5S4.4,9.5,2.7,9.3s-3-2.4-2.6-5S2.1-0.2,3.8,0z"/>
			</g>
			<g id="Grupo_368" transform="translate(41.968 29.901)">
				<path id="Trazado_1497" class="st0" d="M2.8,7C0.9,6.6-0.3,4.7,0.1,2.8C0.4,1.2,1.9,0,3.6,0c1.9,0.5,3.1,2.4,2.6,4.3
					C5.8,5.9,4.4,7,2.8,7z"/>
			</g>
			<g id="Grupo_369" transform="translate(20.398 54.334)">
				<path id="Trazado_1498" class="st0" d="M0,4.3C-0.1,2,1.2,0.1,2.9,0s3.2,1.7,3.4,3.9S5.2,8,3.5,8.2C1.8,8.3,0.2,6.6,0,4.3z"/>
			</g>
			<g id="Grupo_370" transform="translate(26.758)">
				<path id="Trazado_1499" class="st0" d="M6.3,5C5.6,7.1,3.7,8.5,2.1,8s-2.5-2.7-1.8-4.9s2.7-3.6,4.3-3S6.9,2.9,6.3,5z"/>
			</g>
		</g>
		<g id="Grupo_378" transform="translate(13.515)">
			<g id="Grupo_372" transform="translate(0 20.488)">
				<path id="Trazado_1500" class="st0" d="M54.7,2.7c-19.2,4.6-37.3,13.1-53,25.1L0,25.5C16.1,13.4,34.5,4.7,54.1,0L54.7,2.7z"/>
			</g>
			<g id="Grupo_373" transform="translate(24.369)">
				<path id="Trazado_1501" class="st0" d="M11.4,58.2l-2.6,1C1.5,40.4-1.3,20.1,0.5,0l2.8,0.2C1.5,19.9,4.2,39.8,11.4,58.2z"/>
			</g>
			<g id="Grupo_374" transform="translate(5.006 16.796)">
				<path id="Trazado_1502" class="st0" d="M6,0.3C7.5,1.2,7.6,3.7,6.4,6S3,9.6,1.4,8.8S-0.5,5.4,0.8,3S4.5-0.6,6,0.3z"/>
			</g>
			<g id="Grupo_375" transform="translate(42.617 37.579)">
				<path id="Trazado_1503" class="st0" d="M1.6,6.8C0,5.6-0.4,3.3,0.7,1.6c1-1.4,2.7-1.9,4.3-1.3c1.7,1.3,2,3.6,0.7,5.2
					C4.8,6.8,3.1,7.3,1.6,6.8z"/>
			</g>
			<g id="Grupo_376" transform="translate(13.195 52.968)">
				<path id="Trazado_1504" class="st0" d="M0.2,3.1c0.7-2.2,2.7-3.6,4.3-3S6.9,2.9,6.3,5S3.7,8.5,2.1,8S-0.5,5.4,0.2,3.1z"/>
			</g>
			<g id="Grupo_377" transform="translate(39.705 3.431)">
				<path id="Trazado_1505" class="st0" d="M6.1,5.9C4.6,7.8,2.3,8.4,1,7.3s-1.3-3.5,0.3-5.4s4-2.5,5.3-1.3S7.6,4.1,6.1,5.9z"/>
			</g>
		</g>
	</g>
	<g id="Grupo_408" transform="translate(249.941 46.945)">
		<g id="Grupo_386">
			<g id="Grupo_380" transform="translate(23.538)">
				<path id="Trazado_1506" class="st0" d="M6,21c0.9,13-0.2,26.1-3.3,38.9L0,59.2C4.6,39.9,4.7,19.9,0.2,0.6L2.9,0
					C4.5,6.9,5.5,13.9,6,21z"/>
			</g>
			<g id="Grupo_381" transform="translate(0 24.24)">
				<path id="Trazado_1507" class="st0" d="M57.3,18L56,20.4C38.7,10.7,19.7,4.7,0,2.8L0.2,0C20.3,2,39.7,8.1,57.3,18z"/>
			</g>
			<g id="Grupo_382" transform="translate(41.627 14.604)">
				<path id="Trazado_1508" class="st0" d="M6.6,8.3c-1.4,1-3.8,0-5.3-2.1s-1.7-4.7-0.4-5.7s3.8-0.2,5.5,2S8.1,7.3,6.6,8.3z"/>
			</g>
			<g id="Grupo_383" transform="translate(8.096 40.423)">
				<path id="Trazado_1509" class="st0" d="M1.1,0.6c1.8-1,4-0.3,5,1.4c0.8,1.5,0.5,3.3-0.7,4.4c-1.8,0.9-4,0.2-4.9-1.6
					C-0.3,3.4,0,1.7,1.1,0.6z"/>
			</g>
			<g id="Grupo_384" transform="translate(5.401 6.187)">
				<path id="Trazado_1510" class="st0" d="M6,1.5c1.8,1.7,2.2,4.1,1,5.3S3.5,7.7,1.7,6.1s-2.3-3.9-1.1-5.2S4.2-0.2,6,1.5z"/>
			</g>
			<g id="Grupo_385" transform="translate(39.244 51.612)">
				<path id="Trazado_1511" class="st0" d="M0.5,5.3c-0.9-2-0.5-4.3,1-5.1s3.7,0.3,4.7,2.4S6.6,7.1,5,7.8S1.4,7.3,0.5,5.3z"/>
			</g>
		</g>
		<g id="Grupo_393" transform="translate(27.494 51.468)">
			<g id="Grupo_387" transform="translate(9.625 0.468)">
				<path id="Trazado_1512" class="st0" d="M25,0.5C21.4,20,13.6,38.4,2.2,54.6L0,53C11.2,37.1,18.7,19.1,22.2,0L25,0.5z"/>
			</g>
			<g id="Grupo_388" transform="translate(0 13.653)">
				<path id="Trazado_1513" class="st0" d="M47.2,36.3l-2.1,1.8C32.7,23.2,17.4,11,0,2.5L1.2,0C18.9,8.7,34.6,21.1,47.2,36.3z"/>
			</g>
			<g id="Grupo_389" transform="translate(41.568 19.928)">
				<path id="Trazado_1514" class="st0" d="M4.4,9.2C2.7,9.5,0.8,7.9,0.2,5.4S0.4,0.6,2,0.1s3.6,1.2,4.3,3.7S6.1,8.8,4.4,9.2z"/>
			</g>
			<g id="Grupo_390" transform="translate(0.835 31.773)">
				<path id="Trazado_1515" class="st0" d="M2.3,0.1c1.9-0.3,3.7,1,4,2.9C6.5,4.7,5.6,6.4,4,6.9C2.1,7.2,0.3,5.8,0,3.8
					C-0.2,2.2,0.7,0.7,2.3,0.1z"/>
			</g>
			<g id="Grupo_391" transform="translate(11.681)">
				<path id="Trazado_1516" class="st0" d="M6.2,2.7c1,2.1,0.4,4.4-1.2,5.1S1.4,7.4,0.5,5.3s-0.5-4.2,1-5S5.2,0.5,6.2,2.7z"/>
			</g>
			<g id="Grupo_392" transform="translate(25.509 52.907)">
				<path id="Trazado_1517" class="st0" d="M0,4.3C-0.1,2.1,1.1,0.2,2.8,0s3.3,1.6,3.5,3.9S5.1,8.1,3.4,8.2S0.2,6.5,0,4.3z"/>
			</g>
		</g>
		<g id="Grupo_400" transform="translate(31.423 104.217)">
			<g id="Grupo_394" transform="translate(1.804 6.843)">
				<path id="Trazado_1518" class="st0" d="M42.2,1.5C31.8,18.3,17.9,32.6,1.5,43.7L0,41.3C16.1,30.5,29.7,16.4,39.9,0L42.2,1.5z"/>
			</g>
			<g id="Grupo_395" transform="translate(6.317 8.013)">
				<path id="Trazado_1519" class="st0" d="M31.8,50.5l-2.6,0.9C23.1,33,13.2,16.1,0,1.9L2,0C15.5,14.5,25.6,31.7,31.8,50.5z"/>
			</g>
			<g id="Grupo_396" transform="translate(41.926 29.168)">
				<path id="Trazado_1520" class="st0" d="M2.6,9.3C0.8,9.1-0.2,6.8,0,4.3S1.9-0.1,3.7,0s3,2.4,2.6,5S4.3,9.6,2.6,9.3z"/>
			</g>
			<g id="Grupo_397" transform="translate(0 25.573)">
				<path id="Trazado_1521" class="st0" d="M3.5,0c1.9,0.4,3.1,2.3,2.7,4.2C5.9,5.9,4.4,7,2.7,7C0.8,6.5-0.4,4.6,0.1,2.7
					C0.5,1.1,1.9,0,3.5,0z"/>
			</g>
			<g id="Grupo_398" transform="translate(21.57)">
				<path id="Trazado_1522" class="st0" d="M6.3,3.9c0.2,2.3-1.2,4.2-2.9,4.3S0.2,6.5,0,4.3S1.1,0.2,2.8,0S6.1,1.6,6.3,3.9z"/>
			</g>
			<g id="Grupo_399" transform="translate(15.015 54.369)">
				<path id="Trazado_1523" class="st0" d="M0.2,3.1c0.7-2.1,2.5-3.5,4.2-3S7,2.8,6.3,5S3.6,8.6,2,8S-0.4,5.2,0.2,3.1z"/>
			</g>
		</g>
		<g id="Grupo_407" transform="translate(11.459 158.432)">
			<g id="Grupo_401" transform="translate(0 12.862)">
				<path id="Trazado_1524" class="st0" d="M54.7,2.2c-16,12.2-34.5,20.9-54.1,25.5L0,25c19.2-4.5,37.3-13.1,53.1-25L54.7,2.2z"/>
			</g>
			<g id="Grupo_402" transform="translate(18.984 1.832)">
				<path id="Trazado_1525" class="st0" d="M11.1,38.3c0.5,7,0.4,14-0.2,21L8.1,59C9.9,39.3,7.1,19.5,0,1l2.6-1
					C7.4,12.2,10.2,25.2,11.1,38.3z"/>
			</g>
			<g id="Grupo_403" transform="translate(42.52 35.278)">
				<path id="Trazado_1526" class="st0" d="M1.2,8.7C-0.3,7.9-0.4,5.3,0.8,3s3.4-3.6,5-2.8S7.7,3.6,6.4,6S2.7,9.6,1.2,8.7z"/>
			</g>
			<g id="Grupo_404" transform="translate(5.576 16.47)">
				<path id="Trazado_1527" class="st0" d="M4.9,0.3c1.6,1.2,2,3.5,0.8,5.1C4.8,6.8,3,7.3,1.5,6.7c-1.6-1.2-1.9-3.5-0.7-5.2
					C1.8,0.3,3.4-0.2,4.9,0.3z"/>
			</g>
			<g id="Grupo_405" transform="translate(35.028)">
				<path id="Trazado_1528" class="st0" d="M6.3,5C5.6,7.2,3.6,8.6,2,8s-2.4-2.8-1.7-4.9s2.5-3.5,4.2-3S7,2.8,6.3,5z"/>
			</g>
			<g id="Grupo_406" transform="translate(7.624 49.811)">
				<path id="Trazado_1529" class="st0" d="M1.3,1.9C2.8,0.1,5-0.5,6.4,0.5S7.7,4,6.1,5.9s-4,2.5-5.3,1.3S-0.2,3.7,1.3,1.9z"/>
			</g>
		</g>
	</g>
	<g id="Grupo_437" transform="translate(46.819 0)">
		<g id="Grupo_415" transform="translate(0 22.393)">
			<g id="Grupo_409" transform="translate(0 27.508)">
				<path id="Trazado_1530" class="st0" d="M59.9,3.6l-0.7,2.7C39.9,1.7,19.9,1.6,0.6,6L0,3.3C19.7-1.2,40.2-1.1,59.9,3.6z"/>
			</g>
			<g id="Grupo_410" transform="translate(24.24)">
				<path id="Trazado_1531" class="st0" d="M20.4,1.3c-9.7,17.2-15.7,36.3-17.7,56L0,57.1C2,37,8.1,17.6,18,0L20.4,1.3z"/>
			</g>
			<g id="Grupo_411" transform="translate(14.604 8.037)">
				<path id="Trazado_1532" class="st0" d="M8.3,1c1,1.4,0,3.8-2.1,5.3S1.5,8.1,0.5,6.7s-0.2-3.8,2-5.5S7.3-0.4,8.3,1z"/>
			</g>
			<g id="Grupo_412" transform="translate(40.423 42.564)">
				<path id="Trazado_1533" class="st0" d="M0.6,5.5c-1-1.8-0.3-4,1.4-5C3.5-0.3,5.3,0,6.4,1.2c0.9,1.8,0.2,4-1.6,4.9
					C3.4,6.9,1.7,6.6,0.6,5.5z"/>
			</g>
			<g id="Grupo_413" transform="translate(6.188 44.182)">
				<path id="Trazado_1534" class="st0" d="M1.5,1.7c1.7-1.8,4.1-2.2,5.3-1S7.7,4.3,6.1,6s-4,2.3-5.3,1.1S-0.2,3.5,1.5,1.7z"/>
			</g>
			<g id="Grupo_414" transform="translate(51.612 11.364)">
				<path id="Trazado_1535" class="st0" d="M5.3,6.2c-2,0.9-4.3,0.5-5.1-1s0.3-3.7,2.4-4.7S7,0.1,7.7,1.7S7.3,5.3,5.3,6.2z"/>
			</g>
		</g>
		<g id="Grupo_422" transform="translate(51.468 4.106)">
			<g id="Grupo_416" transform="translate(0.468 13.511)">
				<path id="Trazado_1536" class="st0" d="M54.6,22.7L53,25C37.1,13.8,19.1,6.2,0,2.7L0.5,0C20,3.6,38.4,11.3,54.6,22.7z"/>
			</g>
			<g id="Grupo_417" transform="translate(13.653 0.888)">
				<path id="Trazado_1537" class="st0" d="M38.1,2.1C23.2,14.5,11,29.8,2.5,47.2L0,46C8.7,28.3,21.1,12.6,36.3,0L38.1,2.1z"/>
			</g>
			<g id="Grupo_418" transform="translate(19.929)">
				<path id="Trazado_1538" class="st0" d="M9.2,2.2c0.4,1.7-1.3,3.5-3.8,4.2S0.6,6.2,0.1,4.5s1.2-3.6,3.7-4.3S8.8,0.5,9.2,2.2z"/>
			</g>
			<g id="Grupo_419" transform="translate(31.773 40.918)">
				<path id="Trazado_1539" class="st0" d="M0.1,4.1c-0.3-1.9,1-3.7,2.9-4c1.7-0.3,3.3,0.7,3.9,2.3c0.2,1.9-1.1,3.7-3.1,4
					C2.2,6.5,0.7,5.6,0.1,4.1z"/>
			</g>
			<g id="Grupo_420" transform="translate(0 29.718)">
				<path id="Trazado_1540" class="st0" d="M2.7,0.5c2.1-1,4.4-0.5,5.1,1.1S7.4,5.3,5.3,6.2S1,6.7,0.2,5.2S0.5,1.5,2.7,0.5z"/>
			</g>
			<g id="Grupo_421" transform="translate(52.907 16.283)">
				<path id="Trazado_1541" class="st0" d="M4.3,6.3C2.1,6.4,0.2,5.2,0,3.5S1.6,0.2,3.9,0s4.2,1.2,4.3,2.9S6.5,6.1,4.3,6.3z"/>
			</g>
		</g>
		<g id="Grupo_429" transform="translate(104.217)">
			<g id="Grupo_423" transform="translate(6.843 4.243)">
				<path id="Trazado_1542" class="st0" d="M43.7,40.7l-2.3,1.5C30.5,26.2,16.4,12.6,0,2.3L1.5,0C18.3,10.4,32.6,24.3,43.7,40.7z"/>
			</g>
			<g id="Grupo_424" transform="translate(8.013 10.158)">
				<path id="Trazado_1543" class="st0" d="M51.4,2.6c-18.4,6-35.3,16-49.5,29.2l-1.9-2C14.5,16.3,31.7,6.2,50.5,0L51.4,2.6z"/>
			</g>
			<g id="Grupo_425" transform="translate(29.168)">
				<path id="Trazado_1544" class="st0" d="M9.3,3.8C9,5.5,6.8,6.6,4.3,6.3S-0.1,4.4,0,2.7s2.4-3,5-2.6S9.6,2.1,9.3,3.8z"/>
			</g>
			<g id="Grupo_426" transform="translate(25.573 41.966)">
				<path id="Trazado_1545" class="st0" d="M0,2.8c0.4-1.9,2.3-3.1,4.2-2.7C5.9,0.4,7,1.9,7,3.6C6.5,5.5,4.6,6.7,2.7,6.2
					C1.1,5.8,0,4.4,0,2.8z"/>
			</g>
			<g id="Grupo_427" transform="translate(0 20.398)">
				<path id="Trazado_1546" class="st0" d="M3.9,0c2.3-0.2,4.2,1.2,4.3,2.9S6.5,6.1,4.3,6.3S0.2,5.2,0,3.5S1.6,0.2,3.9,0z"/>
			</g>
			<g id="Grupo_428" transform="translate(54.37 26.757)">
				<path id="Trazado_1547" class="st0" d="M3.1,6.3C1,5.6-0.4,3.7,0.1,2.1S2.8-0.5,5,0.2s3.6,2.7,3,4.3S5.2,6.9,3.1,6.3z"/>
			</g>
		</g>
		<g id="Grupo_436" transform="translate(158.433 13.516)">
			<g id="Grupo_430" transform="translate(12.862)">
				<path id="Trazado_1548" class="st0" d="M27.7,54.1L25,54.7c-4.5-19.2-13.1-37.3-25-53L2.2,0C14.4,16.1,23.1,34.5,27.7,54.1z"/>
			</g>
			<g id="Grupo_431" transform="translate(1.832 24.369)">
				<path id="Trazado_1549" class="st0" d="M59.3,0.5L59,3.3c-19.7-1.8-39.6,1-58,8.1L0,8.8C18.9,1.5,39.1-1.3,59.3,0.5z"/>
			</g>
			<g id="Grupo_432" transform="translate(35.279 5.005)">
				<path id="Trazado_1550" class="st0" d="M8.7,6C7.9,7.5,5.3,7.6,3,6.4s-3.6-3.4-2.8-5S3.6-0.5,6,0.8S9.6,4.5,8.7,6z"/>
			</g>
			<g id="Grupo_433" transform="translate(16.47 42.617)">
				<path id="Trazado_1551" class="st0" d="M0.3,1.6c1.2-1.6,3.5-2,5.1-0.8c1.4,1,1.9,2.7,1.3,4.3C5.5,6.7,3.1,7,1.5,5.7
					C0.3,4.8-0.2,3.1,0.3,1.6z"/>
			</g>
			<g id="Grupo_434" transform="translate(0 13.194)">
				<path id="Trazado_1552" class="st0" d="M5,0.2c2.2,0.7,3.6,2.7,3,4.3S5.2,6.9,3.1,6.3s-3.5-2.5-3-4.2S2.8-0.5,5,0.2z"/>
			</g>
			<g id="Grupo_435" transform="translate(49.812 39.704)">
				<path id="Trazado_1553" class="st0" d="M1.9,6.1C0.1,4.6-0.5,2.3,0.5,1S4-0.3,5.9,1.3s2.5,4,1.3,5.3S3.7,7.6,1.9,6.1z"/>
			</g>
		</g>
	</g>
	<g id="Grupo_466" transform="translate(63.086 249.761)">
		<g id="Grupo_444" transform="translate(159.678)">
			<g id="Grupo_438" transform="translate(0 23.538)">
				<path id="Trazado_1554" class="st0" d="M59.9,2.9C40.2,7.5,19.7,7.4,0,2.7L0.7,0C19.9,4.6,40,4.7,59.3,0.2L59.9,2.9z"/>
			</g>
			<g id="Grupo_439" transform="translate(15.171)">
				<path id="Trazado_1555" class="st0" d="M20.4,0.2c-2,20.1-8.1,39.5-18,57.1L0,56C9.7,38.7,15.7,19.7,17.7,0L20.4,0.2z"/>
			</g>
			<g id="Grupo_440" transform="translate(36.594 41.626)">
				<path id="Trazado_1556" class="st0" d="M0.4,6.6c-1-1.4,0-3.8,2.1-5.3s4.7-1.7,5.7-0.4s0.2,3.8-2,5.5S1.4,8.1,0.4,6.6z"/>
			</g>
			<g id="Grupo_441" transform="translate(12.492 8.096)">
				<path id="Trazado_1557" class="st0" d="M6.4,1.1c1,1.8,0.3,4-1.4,5C3.5,6.9,1.6,6.6,0.5,5.4c-0.9-1.8-0.2-4,1.6-4.9
					C3.5-0.3,5.2,0,6.4,1.1z"/>
			</g>
			<g id="Grupo_442" transform="translate(46.132 5.401)">
				<path id="Trazado_1558" class="st0" d="M6.1,6C4.4,7.8,2,8.3,0.7,7s-0.9-3.6,0.7-5.3s3.9-2.3,5.2-1.1S7.8,4.2,6.1,6z"/>
			</g>
			<g id="Grupo_443" transform="translate(0.272 39.244)">
				<path id="Trazado_1559" class="st0" d="M2.6,0.5c2-0.9,4.3-0.5,5.1,1S7.4,5.2,5.3,6.2S0.9,6.6,0.2,5S0.6,1.4,2.6,0.5z"/>
			</g>
		</g>
		<g id="Grupo_451" transform="translate(106.99 27.494)">
			<g id="Grupo_445" transform="translate(5.995 9.623)">
				<path id="Trazado_1560" class="st0" d="M54.6,22.2L54.1,25C34.6,21.4,16.2,13.6,0,2.3L1.6,0C17.5,11.2,35.5,18.8,54.6,22.2z"/>
			</g>
			<g id="Grupo_446" transform="translate(9.329)">
				<path id="Trazado_1561" class="st0" d="M38.1,1.2C29.4,18.9,17,34.6,1.8,47.2L0,45.1C14.9,32.7,27,17.4,35.6,0L38.1,1.2z"/>
			</g>
			<g id="Grupo_447" transform="translate(31.928 41.568)">
				<path id="Trazado_1562" class="st0" d="M0.1,4.4c-0.4-1.7,1.3-3.5,3.8-4.2S8.6,0.4,9.1,2S8,5.7,5.4,6.3S0.4,6.1,0.1,4.4z"/>
			</g>
			<g id="Grupo_448" transform="translate(22.308 0.835)">
				<path id="Trazado_1563" class="st0" d="M6.9,2.3c0.3,1.9-1,3.7-2.9,4C2.3,6.5,0.6,5.6,0.1,4c-0.2-1.9,1.1-3.7,3.1-4
					C4.8-0.2,6.3,0.7,6.9,2.3z"/>
			</g>
			<g id="Grupo_449" transform="translate(53.105 11.681)">
				<path id="Trazado_1564" class="st0" d="M5.3,6.2c-2.1,1-4.4,0.5-5.1-1.1s0.4-3.6,2.4-4.6s4.3-0.5,5.1,1S7.4,5.2,5.3,6.2z"/>
			</g>
			<g id="Grupo_450" transform="translate(0 25.509)">
				<path id="Trazado_1565" class="st0" d="M3.9,0C6.1-0.1,8,1.1,8.2,2.8c0.2,1.7-1.6,3.3-3.9,3.5S0.1,5.1,0,3.4S1.7,0.2,3.9,0z"/>
			</g>
		</g>
		<g id="Grupo_458" transform="translate(52.815 31.423)">
			<g id="Grupo_452" transform="translate(12.003 1.804)">
				<path id="Trazado_1566" class="st0" d="M43.7,39.9l-1.5,2.3C25.4,31.8,11,17.9,0,1.5L2.3,0C13.1,16.1,27.2,29.7,43.7,39.9z"/>
			</g>
			<g id="Grupo_453" transform="translate(3.067 6.317)">
				<path id="Trazado_1567" class="st0" d="M51.4,2C36.9,15.5,19.7,25.6,0.9,31.8L0,29.2c18.4-6,35.3-16,49.5-29.2L51.4,2z"/>
			</g>
			<g id="Grupo_454" transform="translate(23.99 41.926)">
				<path id="Trazado_1568" class="st0" d="M0,2.6C0.3,0.8,2.5-0.2,5,0s4.4,1.9,4.3,3.6s-2.4,3-5,2.6S-0.2,4.3,0,2.6z"/>
			</g>
			<g id="Grupo_455" transform="translate(29.902)">
				<path id="Trazado_1569" class="st0" d="M7,3.5C6.6,5.4,4.7,6.6,2.8,6.2C1.2,5.9,0,4.4,0,2.7c0.5-1.9,2.4-3.1,4.3-2.6
					C5.9,0.5,7,1.9,7,3.5z"/>
			</g>
			<g id="Grupo_456" transform="translate(54.335 21.569)">
				<path id="Trazado_1570" class="st0" d="M4.3,6.3C2,6.5,0.1,5.1,0,3.4S1.7,0.2,3.9,0S8,1.1,8.2,2.8S6.6,6.1,4.3,6.3z"/>
			</g>
			<g id="Grupo_457" transform="translate(0 15.015)">
				<path id="Trazado_1571" class="st0" d="M5,0.2c2.1,0.7,3.5,2.5,3,4.2S5.4,7,3.1,6.2s-3.6-2.7-3-4.3S2.9-0.4,5,0.2z"/>
			</g>
		</g>
		<g id="Grupo_465" transform="translate(0 11.459)">
			<g id="Grupo_459" transform="translate(20.486)">
				<path id="Trazado_1572" class="st0" d="M27.8,53.1l-2.2,1.7C13.4,38.7,4.7,20.2,0,0.6L2.7,0C7.3,19.2,15.8,37.3,27.8,53.1z"/>
			</g>
			<g id="Grupo_460" transform="translate(0 18.984)">
				<path id="Trazado_1573" class="st0" d="M59.3,2.6C40.4,9.9,20.1,12.7,0,10.9l0.2-2.8c19.7,1.8,39.6-1,58-8.1L59.3,2.6z"/>
			</g>
			<g id="Grupo_461" transform="translate(16.796 42.52)">
				<path id="Trazado_1574" class="st0" d="M0.3,1.2C1.2-0.3,3.7-0.4,6,0.8s3.6,3.4,2.8,5S5.4,7.7,3,6.4S-0.6,2.7,0.3,1.2z"/>
			</g>
			<g id="Grupo_462" transform="translate(37.579 5.576)">
				<path id="Trazado_1575" class="st0" d="M6.8,4.9C5.6,6.6,3.3,7,1.7,5.8C0.3,4.8-0.2,3,0.4,1.5c1.2-1.6,3.5-1.9,5.2-0.7
					C6.8,1.8,7.3,3.4,6.8,4.9z"/>
			</g>
			<g id="Grupo_463" transform="translate(52.968 35.028)">
				<path id="Trazado_1576" class="st0" d="M3.1,6.3C0.9,5.6-0.4,3.6,0.1,2S2.9-0.4,5,0.2s3.5,2.5,3,4.2S5.4,7,3.1,6.3z"/>
			</g>
			<g id="Grupo_464" transform="translate(3.431 7.623)">
				<path id="Trazado_1577" class="st0" d="M5.9,1.3C7.8,2.8,8.4,5,7.3,6.4S3.8,7.7,1.9,6.1s-2.5-4-1.3-5.3S4.1-0.2,5.9,1.3z"/>
			</g>
		</g>
	</g>
</g>
</svg>
