<svg xmlns="http://www.w3.org/2000/svg" width="648.111" height="648.101" viewBox="0 0 648.111 648.101">
  <g id="Grupo_611" data-name="Grupo 611" transform="translate(-89.945 -252.949)">
    <path id="Trazado_1055" data-name="Trazado 1055" d="M771.382,440.787l4.111-1.728q-1.107-2.631-2.267-5.251l-4.079,1.8Q770.29,438.194,771.382,440.787Z" transform="translate(-73.282 16.773)" fill="#e5661d"/>
    <path id="Trazado_1056" data-name="Trazado 1056" d="M769.373,447.635l4.142-1.653q-1.041-2.6-2.133-5.2l-4.111,1.728Q768.346,445.071,769.373,447.635Z" transform="translate(-73.282 16.773)" fill="#e5661d"/>
    <path id="Trazado_1057" data-name="Trazado 1057" d="M767.2,454.35l4.172-1.577q-.977-2.574-2-5.138l-4.142,1.653Q766.242,451.815,767.2,454.35Z" transform="translate(-73.282 16.773)" fill="#e5661d"/>
    <path id="Trazado_1058" data-name="Trazado 1058" d="M764.878,460.93l4.2-1.5q-.914-2.544-1.875-5.079l-4.171,1.578Q763.979,458.425,764.878,460.93Z" transform="translate(-73.282 16.773)" fill="#e5661d"/>
    <path id="Trazado_1059" data-name="Trazado 1059" d="M762.4,467.374l4.226-1.426q-.852-2.511-1.751-5.018l-4.2,1.5Q761.564,464.9,762.4,467.374Z" transform="translate(-73.282 16.773)" fill="#e5661d"/>
    <path id="Trazado_1060" data-name="Trazado 1060" d="M784.2,477.5q.741,2.645,1.432,5.3l4.317-1.12q-.7-2.689-1.452-5.373Z" transform="translate(-73.282 16.773)" fill="#e5661d"/>
    <path id="Trazado_1061" data-name="Trazado 1061" d="M778.394,473.486q.779,2.6,1.508,5.209l4.3-1.2q-.739-2.646-1.53-5.285Z" transform="translate(-73.282 16.773)" fill="#e5661d"/>
    <path id="Trazado_1062" data-name="Trazado 1062" d="M772.537,469.639q.816,2.557,1.583,5.121l4.274-1.274q-.778-2.6-1.606-5.2Z" transform="translate(-73.282 16.773)" fill="#e5661d"/>
    <path id="Trazado_1063" data-name="Trazado 1063" d="M766.632,465.957q.85,2.512,1.654,5.032l4.251-1.35q-.816-2.558-1.679-5.108Z" transform="translate(-73.282 16.773)" fill="#e5661d"/>
    <path id="Trazado_1064" data-name="Trazado 1064" d="M794.266,480.554l-4.318,1.12q.7,2.689,1.352,5.383l4.337-1.044Q794.977,483.281,794.266,480.554Z" transform="translate(-73.282 16.773)" fill="#e5661d"/>
    <path id="Trazado_1065" data-name="Trazado 1065" d="M788.2,493.415l4.355-.967q-.6-2.7-1.253-5.391l-4.336,1.043Q787.6,490.755,788.2,493.415Z" transform="translate(-73.282 16.773)" fill="#e5661d"/>
    <path id="Trazado_1066" data-name="Trazado 1066" d="M784.965,499.626l4.371-.889q-.544-2.662-1.138-5.322l-4.354.966Q784.427,497,784.965,499.626Z" transform="translate(-73.282 16.773)" fill="#e5661d"/>
    <path id="Trazado_1067" data-name="Trazado 1067" d="M781.6,505.691l4.386-.813q-.488-2.626-1.024-5.252l-4.372.89Q781.122,503.1,781.6,505.691Z" transform="translate(-73.282 16.773)" fill="#e5661d"/>
    <path id="Trazado_1068" data-name="Trazado 1068" d="M778.119,511.605l4.4-.735q-.434-2.59-.916-5.179l-4.386.812Q777.691,509.053,778.119,511.605Z" transform="translate(-73.282 16.773)" fill="#e5661d"/>
    <path id="Trazado_1069" data-name="Trazado 1069" d="M774.517,517.369l4.412-.658q-.381-2.553-.81-5.106l-4.4.735Q774.141,514.854,774.517,517.369Z" transform="translate(-73.282 16.773)" fill="#e5661d"/>
    <path id="Trazado_1070" data-name="Trazado 1070" d="M794.133,530.772q.257,2.673.465,5.343l4.447-.349q-.211-2.709-.472-5.42Z" transform="translate(-73.282 16.773)" fill="#e5661d"/>
    <path id="Trazado_1071" data-name="Trazado 1071" d="M789.14,525.933q.3,2.633.552,5.266l4.441-.427q-.257-2.67-.56-5.342Z" transform="translate(-73.282 16.773)" fill="#e5661d"/>
    <path id="Trazado_1072" data-name="Trazado 1072" d="M784.072,521.248q.34,2.594.636,5.188l4.432-.5q-.3-2.633-.645-5.265Z" transform="translate(-73.282 16.773)" fill="#e5661d"/>
    <path id="Trazado_1073" data-name="Trazado 1073" d="M778.931,516.72q.381,2.555.718,5.109l4.423-.581q-.342-2.592-.729-5.185Z" transform="translate(-73.282 16.773)" fill="#e5661d"/>
    <path id="Trazado_1074" data-name="Trazado 1074" d="M803.493,535.417l-4.448.349q.213,2.709.377,5.418l4.452-.271Q803.707,538.166,803.493,535.417Z" transform="translate(-73.282 16.773)" fill="#e5661d"/>
    <path id="Trazado_1075" data-name="Trazado 1075" d="M795.246,546.793l4.457-.194q-.117-2.706-.281-5.415l-4.453.272Q795.131,544.126,795.246,546.793Z" transform="translate(-73.282 16.773)" fill="#e5661d"/>
    <path id="Trazado_1076" data-name="Trazado 1076" d="M790.971,552.244l4.459-.117q-.067-2.666-.184-5.334l-4.456.194Q790.9,549.616,790.971,552.244Z" transform="translate(-73.282 16.773)" fill="#e5661d"/>
    <path id="Trazado_1077" data-name="Trazado 1077" d="M786.6,557.535l4.46-.04q-.021-2.624-.089-5.251l-4.459.117Q786.578,554.95,786.6,557.535Z" transform="translate(-73.282 16.773)" fill="#e5661d"/>
    <path id="Trazado_1078" data-name="Trazado 1078" d="M782.137,562.666l4.461.037q.022-2.582,0-5.168l-4.461.04Q782.16,560.122,782.137,562.666Z" transform="translate(-73.282 16.773)" fill="#e5661d"/>
    <path id="Trazado_1079" data-name="Trazado 1079" d="M777.588,567.636q2.23.057,4.46.114.066-2.539.089-5.084l-4.46-.037Q777.654,565.134,777.588,567.636Z" transform="translate(-73.282 16.773)" fill="#e5661d"/>
    <path id="Trazado_1080" data-name="Trazado 1080" d="M794.594,583.989q-.206,2.64-.458,5.273l4.44.42q.257-2.672.465-5.349Z" transform="translate(-73.282 16.773)" fill="#e5661d"/>
    <path id="Trazado_1081" data-name="Trazado 1081" d="M790.51,578.436q-.159,2.607-.363,5.209l4.447.344q.207-2.64.368-5.285Z" transform="translate(-73.282 16.773)" fill="#e5661d"/>
    <path id="Trazado_1082" data-name="Trazado 1082" d="M786.326,573.026q-.113,2.574-.269,5.142l4.453.268q.159-2.607.273-5.219Z" transform="translate(-73.282 16.773)" fill="#e5661d"/>
    <path id="Trazado_1083" data-name="Trazado 1083" d="M782.047,567.759q-.066,2.541-.177,5.076l4.456.191q.113-2.574.181-5.153Z" transform="translate(-73.282 16.773)" fill="#e5661d"/>
    <path id="Trazado_1084" data-name="Trazado 1084" d="M748.857,741.946l4.551,3.155a325.926,325.926,0,0,0,56.475-154.339l-5.512-.527A320.39,320.39,0,0,1,748.857,741.946Z" transform="translate(-73.282 16.773)" fill="#e5661d"/>
    <path id="Trazado_1085" data-name="Trazado 1085" d="M769.031,586.889A284.691,284.691,0,0,1,719.7,721.705l4.551,3.156a290.221,290.221,0,0,0,50.3-137.445Z" transform="translate(-73.282 16.773)" fill="#e5661d"/>
    <path id="Trazado_1086" data-name="Trazado 1086" d="M803.017,590.1l-4.441-.42q-.255,2.672-.556,5.336l4.433.5Q802.758,592.812,803.017,590.1Z" transform="translate(-73.282 16.773)" fill="#e5661d"/>
    <path id="Trazado_1087" data-name="Trazado 1087" d="M792.949,599.767l4.424.572q.345-2.656.647-5.321l-4.433-.5Q793.292,597.147,792.949,599.767Z" transform="translate(-73.282 16.773)" fill="#e5661d"/>
    <path id="Trazado_1088" data-name="Trazado 1088" d="M787.809,604.348l4.413.648q.386-2.61.727-5.229l-4.423-.573Q788.189,601.775,787.809,604.348Z" transform="translate(-73.282 16.773)" fill="#e5661d"/>
    <path id="Trazado_1089" data-name="Trazado 1089" d="M782.6,608.762l4.4.724q.423-2.565.8-5.138L783.4,603.7Q783.021,606.235,782.6,608.762Z" transform="translate(-73.282 16.773)" fill="#e5661d"/>
    <path id="Trazado_1090" data-name="Trazado 1090" d="M777.338,613.008l4.387.8q.461-2.519.879-5.045l-4.4-.723Q777.79,610.527,777.338,613.008Z" transform="translate(-73.282 16.773)" fill="#e5661d"/>
    <path id="Trazado_1091" data-name="Trazado 1091" d="M772.015,617.086l4.373.873q.5-2.47.95-4.951l-4.388-.8Q772.5,614.652,772.015,617.086Z" transform="translate(-73.282 16.773)" fill="#e5661d"/>
    <path id="Trazado_1092" data-name="Trazado 1092" d="M786.007,635.991q-.65,2.55-1.34,5.088l4.3,1.17q.7-2.576,1.36-5.162Z" transform="translate(-73.282 16.773)" fill="#e5661d"/>
    <path id="Trazado_1093" data-name="Trazado 1093" d="M782.919,629.857q-.6,2.523-1.235,5.037l4.323,1.1q.648-2.55,1.253-5.112Z" transform="translate(-73.282 16.773)" fill="#e5661d"/>
    <path id="Trazado_1094" data-name="Trazado 1094" d="M779.711,623.848q-.544,2.5-1.133,4.986l4.341,1.023q.6-2.526,1.15-5.06Z" transform="translate(-73.282 16.773)" fill="#e5661d"/>
    <path id="Trazado_1095" data-name="Trazado 1095" d="M776.387,617.968q-.5,2.47-1.033,4.932l4.357.948q.546-2.5,1.049-5.006Z" transform="translate(-73.282 16.773)" fill="#e5661d"/>
    <path id="Trazado_1096" data-name="Trazado 1096" d="M793.274,643.419l-4.3-1.17q-.7,2.574-1.446,5.137l4.283,1.243Q792.563,646.029,793.274,643.419Z" transform="translate(-73.282 16.773)" fill="#e5661d"/>
    <path id="Trazado_1097" data-name="Trazado 1097" d="M781.73,651.179l4.261,1.316q.787-2.547,1.533-5.109l-4.283-1.244Q782.506,648.667,781.73,651.179Z" transform="translate(-73.282 16.773)" fill="#e5661d"/>
    <path id="Trazado_1098" data-name="Trazado 1098" d="M775.9,654.8l4.238,1.389q.819-2.5,1.6-5.01-2.13-.659-4.261-1.317Q776.7,652.339,775.9,654.8Z" transform="translate(-73.282 16.773)" fill="#e5661d"/>
    <path id="Trazado_1099" data-name="Trazado 1099" d="M770.026,658.249l4.214,1.461q.848-2.448,1.656-4.91l-4.238-1.388Q770.863,655.836,770.026,658.249Z" transform="translate(-73.282 16.773)" fill="#e5661d"/>
    <path id="Trazado_1100" data-name="Trazado 1100" d="M764.124,661.525l4.188,1.533q.877-2.4,1.714-4.809l-4.214-1.461Q764.988,659.164,764.124,661.525Z" transform="translate(-73.282 16.773)" fill="#e5661d"/>
    <path id="Trazado_1101" data-name="Trazado 1101" d="M758.194,664.629l4.162,1.6q.9-2.346,1.768-4.708l-4.188-1.532Q759.086,662.318,758.194,664.629Z" transform="translate(-73.282 16.773)" fill="#e5661d"/>
    <path id="Trazado_1102" data-name="Trazado 1102" d="M768.793,685.622q-1.07,2.4-2.179,4.788l4.042,1.884q1.126-2.419,2.211-4.857Z" transform="translate(-73.282 16.773)" fill="#e5661d"/>
    <path id="Trazado_1103" data-name="Trazado 1103" d="M766.786,679.055q-1.014,2.385-2.067,4.753l4.074,1.814q1.069-2.4,2.1-4.822Z" transform="translate(-73.282 16.773)" fill="#e5661d"/>
    <path id="Trazado_1104" data-name="Trazado 1104" d="M764.638,672.593q-.958,2.367-1.956,4.717l4.1,1.745q1.012-2.385,1.985-4.787Z" transform="translate(-73.282 16.773)" fill="#e5661d"/>
    <path id="Trazado_1105" data-name="Trazado 1105" d="M762.353,666.241q-.9,2.348-1.848,4.678l4.133,1.674q.958-2.366,1.876-4.748Z" transform="translate(-73.282 16.773)" fill="#e5661d"/>
    <path id="Trazado_1106" data-name="Trazado 1106" d="M774.7,694.178l-4.042-1.884q-1.126,2.419-2.293,4.82l4.009,1.953Q773.556,696.631,774.7,694.178Z" transform="translate(-73.282 16.773)" fill="#e5661d"/>
    <path id="Trazado_1107" data-name="Trazado 1107" d="M762.011,699.875l3.976,2.02q1.207-2.381,2.376-4.781l-4.01-1.953Q763.2,697.526,762.011,699.875Z" transform="translate(-73.282 16.773)" fill="#e5661d"/>
    <path id="Trazado_1108" data-name="Trazado 1108" d="M755.648,702.461l3.941,2.088q1.231-2.327,2.422-4.674l-3.975-2.022Q756.861,700.167,755.648,702.461Z" transform="translate(-73.282 16.773)" fill="#e5661d"/>
    <path id="Trazado_1109" data-name="Trazado 1109" d="M749.277,704.873l3.9,2.155q1.254-2.273,2.467-4.567l-3.941-2.089Q750.511,702.633,749.277,704.873Z" transform="translate(-73.282 16.773)" fill="#e5661d"/>
    <path id="Trazado_1110" data-name="Trazado 1110" d="M742.9,707.111l3.867,2.223q1.273-2.22,2.508-4.461l-3.9-2.156Q744.157,704.925,742.9,707.111Z" transform="translate(-73.282 16.773)" fill="#e5661d"/>
    <path id="Trazado_1111" data-name="Trazado 1111" d="M736.527,709.178l3.828,2.288q1.292-2.168,2.547-4.355l-3.867-2.222Q737.8,707.043,736.527,709.178Z" transform="translate(-73.282 16.773)" fill="#e5661d"/>
    <path id="Trazado_1112" data-name="Trazado 1112" d="M743.376,731.728q-1.469,2.2-2.976,4.371l3.663,2.545q1.53-2.2,3.019-4.434Z" transform="translate(-73.282 16.773)" fill="#e5661d"/>
    <path id="Trazado_1113" data-name="Trazado 1113" d="M742.527,724.892q-1.41,2.188-2.857,4.354l3.706,2.482q1.469-2.2,2.9-4.418Z" transform="translate(-73.282 16.773)" fill="#e5661d"/>
    <path id="Trazado_1114" data-name="Trazado 1114" d="M741.517,718.139q-1.35,2.178-2.739,4.335l3.749,2.418q1.409-2.189,2.779-4.4Z" transform="translate(-73.282 16.773)" fill="#e5661d"/>
    <path id="Trazado_1115" data-name="Trazado 1115" d="M740.351,711.473q-1.293,2.166-2.623,4.313l3.789,2.353q1.35-2.178,2.662-4.378Z" transform="translate(-73.282 16.773)" fill="#e5661d"/>
    <path id="Trazado_1116" data-name="Trazado 1116" d="M621.379,849.067l2.332,5.024A323.78,323.78,0,0,0,753.389,745.129l-4.551-3.155A318.231,318.231,0,0,1,621.379,849.067Z" transform="translate(-73.282 16.773)" fill="#e5661d"/>
    <path id="Trazado_1117" data-name="Trazado 1117" d="M747.726,741.19l-3.663-2.546q-1.528,2.205-3.1,4.386l3.618,2.608Q746.176,743.427,747.726,741.19Z" transform="translate(-73.282 16.773)" fill="#e5661d"/>
    <path id="Trazado_1118" data-name="Trazado 1118" d="M734.216,744.7l3.574,2.669q1.607-2.156,3.176-4.336l-3.619-2.607Q735.8,742.573,734.216,744.7Z" transform="translate(-73.282 16.773)" fill="#e5661d"/>
    <path id="Trazado_1119" data-name="Trazado 1119" d="M727.483,746.19l3.527,2.731q1.621-2.1,3.206-4.224l-3.573-2.67Q729.081,744.121,727.483,746.19Z" transform="translate(-73.282 16.773)" fill="#e5661d"/>
    <path id="Trazado_1120" data-name="Trazado 1120" d="M720.768,747.511l3.479,2.791q1.637-2.043,3.236-4.112l-3.528-2.731Q722.38,745.5,720.768,747.511Z" transform="translate(-73.282 16.773)" fill="#e5661d"/>
    <path id="Trazado_1121" data-name="Trazado 1121" d="M714.075,748.661l3.431,2.851q1.65-1.988,3.262-4l-3.48-2.791Q715.7,746.7,714.075,748.661Z" transform="translate(-73.282 16.773)" fill="#e5661d"/>
    <path id="Trazado_1122" data-name="Trazado 1122" d="M707.409,749.641l3.382,2.91q1.659-1.932,3.284-3.89l-3.431-2.851Q709.045,747.739,707.409,749.641Z" transform="translate(-73.282 16.773)" fill="#e5661d"/>
    <path id="Trazado_1123" data-name="Trazado 1123" d="M710.18,773.151q-1.848,1.935-3.731,3.84l3.172,3.137q1.91-1.934,3.784-3.9Z" transform="translate(-73.282 16.773)" fill="#e5661d"/>
    <path id="Trazado_1124" data-name="Trazado 1124" d="M710.558,766.228q-1.783,1.935-3.6,3.842l3.226,3.081q1.847-1.935,3.657-3.9Z" transform="translate(-73.282 16.773)" fill="#e5661d"/>
    <path id="Trazado_1125" data-name="Trazado 1125" d="M710.759,759.362q-1.722,1.935-3.48,3.841l3.279,3.025q1.784-1.935,3.531-3.9Z" transform="translate(-73.282 16.773)" fill="#e5661d"/>
    <path id="Trazado_1126" data-name="Trazado 1126" d="M710.785,752.558q-1.66,1.93-3.357,3.836l3.331,2.968q1.722-1.934,3.407-3.9Z" transform="translate(-73.282 16.773)" fill="#e5661d"/>
    <path id="Trazado_1127" data-name="Trazado 1127" d="M709.621,780.128q-1.911,1.932-3.859,3.834l3.117,3.192q1.975-1.93,3.913-3.89Z" transform="translate(-73.282 16.773)" fill="#e5661d"/>
    <path id="Trazado_1128" data-name="Trazado 1128" d="M698.769,784.49l3.06,3.246q1.984-1.872,3.933-3.774l-3.117-3.191Q700.725,782.645,698.769,784.49Z" transform="translate(-73.282 16.773)" fill="#e5661d"/>
    <path id="Trazado_1129" data-name="Trazado 1129" d="M691.817,784.849l3,3.3q1.992-1.815,3.949-3.658l-3.061-3.245Q693.78,783.063,691.817,784.849Z" transform="translate(-73.282 16.773)" fill="#e5661d"/>
    <path id="Trazado_1130" data-name="Trazado 1130" d="M684.909,785.041l2.945,3.351q2-1.757,3.963-3.543l-3-3.3Q686.879,783.312,684.909,785.041Z" transform="translate(-73.282 16.773)" fill="#e5661d"/>
    <path id="Trazado_1131" data-name="Trazado 1131" d="M678.049,785.068l2.886,3.4q2-1.7,3.974-3.429-1.473-1.674-2.945-3.35Q680.023,783.4,678.049,785.068Z" transform="translate(-73.282 16.773)" fill="#e5661d"/>
    <path id="Trazado_1132" data-name="Trazado 1132" d="M671.241,784.932l2.826,3.451q2.008-1.641,3.982-3.315l-2.886-3.4Q673.219,783.315,671.241,784.932Z" transform="translate(-73.282 16.773)" fill="#e5661d"/>
    <path id="Trazado_1133" data-name="Trazado 1133" d="M669.626,808.736q-2.2,1.614-4.443,3.192l2.574,3.643q2.271-1.6,4.508-3.239Q670.945,810.535,669.626,808.736Z" transform="translate(-73.282 16.773)" fill="#e5661d"/>
    <path id="Trazado_1134" data-name="Trazado 1134" d="M671.3,801.925q-2.137,1.625-4.31,3.215,1.32,1.8,2.639,3.6,2.2-1.614,4.373-3.262Z" transform="translate(-73.282 16.773)" fill="#e5661d"/>
    <path id="Trazado_1135" data-name="Trazado 1135" d="M672.774,795.141q-2.071,1.633-4.179,3.235l2.7,3.549q2.139-1.625,4.242-3.283Q674.157,796.89,672.774,795.141Z" transform="translate(-73.282 16.773)" fill="#e5661d"/>
    <path id="Trazado_1136" data-name="Trazado 1136" d="M674.06,788.389q-2.008,1.641-4.05,3.251l2.764,3.5q2.073-1.633,4.112-3.3Z" transform="translate(-73.282 16.773)" fill="#e5661d"/>
    <path id="Trazado_1137" data-name="Trazado 1137" d="M670.332,819.213l-2.575-3.642q-2.271,1.6-4.576,3.166l2.509,3.688Q668.029,820.838,670.332,819.213Z" transform="translate(-73.282 16.773)" fill="#e5661d"/>
    <path id="Trazado_1138" data-name="Trazado 1138" d="M656.091,818.1l2.443,3.732q2.34-1.528,4.647-3.094l-2.51-3.687Q658.4,816.592,656.091,818.1Z" transform="translate(-73.282 16.773)" fill="#e5661d"/>
    <path id="Trazado_1139" data-name="Trazado 1139" d="M649.067,817.3l2.375,3.775q2.341-1.469,4.649-2.975-1.223-1.866-2.443-3.732Q651.374,815.852,649.067,817.3Z" transform="translate(-73.282 16.773)" fill="#e5661d"/>
    <path id="Trazado_1140" data-name="Trazado 1140" d="M642.111,816.342q1.155,1.908,2.308,3.816,2.341-1.41,4.648-2.859l-2.376-3.774Q644.419,814.952,642.111,816.342Z" transform="translate(-73.282 16.773)" fill="#e5661d"/>
    <path id="Trazado_1141" data-name="Trazado 1141" d="M635.229,815.228l2.238,3.857q2.339-1.353,4.644-2.743l-2.307-3.817Q637.533,813.894,635.229,815.228Z" transform="translate(-73.282 16.773)" fill="#e5661d"/>
    <path id="Trazado_1142" data-name="Trazado 1142" d="M628.421,813.96l2.168,3.9q2.336-1.3,4.64-2.629l-2.239-3.858Q630.722,812.682,628.421,813.96Z" transform="translate(-73.282 16.773)" fill="#e5661d"/>
    <path id="Trazado_1143" data-name="Trazado 1143" d="M625.161,830.842q-2.471,1.257-4.974,2.475.975,2.005,1.951,4.01,2.541-1.236,5.048-2.511Z" transform="translate(-73.282 16.773)" fill="#e5661d"/>
    <path id="Trazado_1144" data-name="Trazado 1144" d="M627.975,824.352q-2.4,1.278-4.838,2.517,1.011,1.986,2.024,3.973,2.472-1.257,4.911-2.554Z" transform="translate(-73.282 16.773)" fill="#e5661d"/>
    <path id="Trazado_1145" data-name="Trazado 1145" d="M630.581,817.861q-2.336,1.3-4.7,2.555l2.1,3.936q2.4-1.278,4.774-2.593Z" transform="translate(-73.282 16.773)" fill="#e5661d"/>
    <path id="Trazado_1146" data-name="Trazado 1146" d="M517.271,243.14l.527-5.513a323.777,323.777,0,0,0-166.927,28.726l2.332,5.024A318.229,318.229,0,0,1,517.271,243.14Z" transform="translate(-73.282 16.773)" fill="#e5661d"/>
    <path id="Trazado_1147" data-name="Trazado 1147" d="M514.469,272.968A288.82,288.82,0,0,0,250.327,395.579l4.551,3.156A283.29,283.29,0,0,1,513.942,278.48Z" transform="translate(-73.282 16.773)" fill="#e5661d"/>
    <path id="Trazado_1148" data-name="Trazado 1148" d="M353.769,272.613l1.878,4.045.007,0q-2.605,1.211-5.179,2.462.977,2,1.952,4.01,2.539-1.236,5.113-2.43l-1.878-4.045q2.6-1.207,5.215-2.364l-1.8-4.079Q356.416,271.384,353.769,272.613Z" transform="translate(-73.282 16.773)" fill="#e5661d"/>
    <path id="Trazado_1149" data-name="Trazado 1149" d="M360.877,274.287l1.8,4.079q2.583-1.143,5.176-2.235l-1.728-4.111Q363.5,273.127,360.877,274.287Z" transform="translate(-73.282 16.773)" fill="#e5661d"/>
    <path id="Trazado_1150" data-name="Trazado 1150" d="M374.7,278.14,373.051,274q-2.6,1.041-5.2,2.133.864,2.057,1.728,4.112Q372.14,279.166,374.7,278.14Z" transform="translate(-73.282 16.773)" fill="#e5661d"/>
    <path id="Trazado_1151" data-name="Trazado 1151" d="M381.42,280.31l-1.578-4.172q-2.574.977-5.138,2l1.653,4.143Q378.884,281.272,381.42,280.31Z" transform="translate(-73.282 16.773)" fill="#e5661d"/>
    <path id="Trazado_1152" data-name="Trazado 1152" d="M388,282.635q-.752-2.1-1.5-4.2-2.544.914-5.078,1.875.787,2.086,1.577,4.172Q385.494,283.534,388,282.635Z" transform="translate(-73.282 16.773)" fill="#e5661d"/>
    <path id="Trazado_1153" data-name="Trazado 1153" d="M394.443,285.11l-1.425-4.225q-2.513.85-5.018,1.75l1.5,4.2Q391.969,285.948,394.443,285.11Z" transform="translate(-73.282 16.773)" fill="#e5661d"/>
    <path id="Trazado_1154" data-name="Trazado 1154" d="M404.567,263.314q2.645-.741,5.3-1.431-.56-2.16-1.12-4.318-2.689.7-5.373,1.452Z" transform="translate(-73.282 16.773)" fill="#e5661d"/>
    <path id="Trazado_1155" data-name="Trazado 1155" d="M400.555,269.119q2.6-.778,5.209-1.508l-1.2-4.3q-2.646.741-5.285,1.53Q399.918,266.982,400.555,269.119Z" transform="translate(-73.282 16.773)" fill="#e5661d"/>
    <path id="Trazado_1156" data-name="Trazado 1156" d="M396.708,274.976q2.557-.814,5.121-1.582-.638-2.138-1.274-4.275-2.6.779-5.2,1.606Z" transform="translate(-73.282 16.773)" fill="#e5661d"/>
    <path id="Trazado_1157" data-name="Trazado 1157" d="M393.026,280.881q2.512-.851,5.032-1.654l-1.35-4.251q-2.558.816-5.107,1.679Z" transform="translate(-73.282 16.773)" fill="#e5661d"/>
    <path id="Trazado_1158" data-name="Trazado 1158" d="M407.623,253.248q.56,2.158,1.12,4.317,2.689-.7,5.383-1.352l-1.044-4.337Q410.35,252.537,407.623,253.248Z" transform="translate(-73.282 16.773)" fill="#e5661d"/>
    <path id="Trazado_1159" data-name="Trazado 1159" d="M414.126,256.213q.522,2.169,1.043,4.337,2.656-.642,5.315-1.235-.483-2.178-.967-4.355Q416.82,255.561,414.126,256.213Z" transform="translate(-73.282 16.773)" fill="#e5661d"/>
    <path id="Trazado_1160" data-name="Trazado 1160" d="M420.484,259.315l.966,4.355q2.622-.585,5.245-1.121-.444-2.186-.889-4.371Q423.144,258.722,420.484,259.315Z" transform="translate(-73.282 16.773)" fill="#e5661d"/>
    <path id="Trazado_1161" data-name="Trazado 1161" d="M432.76,265.91l-.813-4.386q-2.626.488-5.252,1.025.445,2.186.89,4.371Q430.171,266.392,432.76,265.91Z" transform="translate(-73.282 16.773)" fill="#e5661d"/>
    <path id="Trazado_1162" data-name="Trazado 1162" d="M438.674,269.394l-.735-4.4q-2.59.435-5.179.916.406,2.193.812,4.386Q436.122,269.822,438.674,269.394Z" transform="translate(-73.282 16.773)" fill="#e5661d"/>
    <path id="Trazado_1163" data-name="Trazado 1163" d="M444.438,273q-.328-2.207-.658-4.412-2.553.382-5.106.81.367,2.2.736,4.4Q441.922,273.372,444.438,273Z" transform="translate(-73.282 16.773)" fill="#e5661d"/>
    <path id="Trazado_1164" data-name="Trazado 1164" d="M457.842,253.38q2.671-.255,5.342-.465-.174-2.223-.349-4.447-2.709.211-5.42.472Q457.628,251.16,457.842,253.38Z" transform="translate(-73.282 16.773)" fill="#e5661d"/>
    <path id="Trazado_1165" data-name="Trazado 1165" d="M453,258.373q2.632-.3,5.266-.552-.213-2.22-.426-4.441-2.672.258-5.343.561Q452.751,256.157,453,258.373Z" transform="translate(-73.282 16.773)" fill="#e5661d"/>
    <path id="Trazado_1166" data-name="Trazado 1166" d="M448.318,263.442q2.592-.342,5.188-.637-.254-2.215-.5-4.432-2.633.3-5.265.645Q448.026,261.231,448.318,263.442Z" transform="translate(-73.282 16.773)" fill="#e5661d"/>
    <path id="Trazado_1167" data-name="Trazado 1167" d="M443.789,268.583q2.555-.383,5.109-.719-.29-2.211-.58-4.422-2.594.341-5.186.729Z" transform="translate(-73.282 16.773)" fill="#e5661d"/>
    <path id="Trazado_1168" data-name="Trazado 1168" d="M462.487,244.02l.348,4.448q2.711-.212,5.418-.377-.135-2.226-.271-4.452Q465.236,243.805,462.487,244.02Z" transform="translate(-73.282 16.773)" fill="#e5661d"/>
    <path id="Trazado_1169" data-name="Trazado 1169" d="M468.253,248.091q.137,2.228.272,4.453,2.67-.162,5.337-.277-.1-2.229-.194-4.457Q470.962,247.927,468.253,248.091Z" transform="translate(-73.282 16.773)" fill="#e5661d"/>
    <path id="Trazado_1170" data-name="Trazado 1170" d="M473.862,252.267l.2,4.456q2.628-.112,5.256-.181-.059-2.229-.117-4.459Q476.531,252.152,473.862,252.267Z" transform="translate(-73.282 16.773)" fill="#e5661d"/>
    <path id="Trazado_1171" data-name="Trazado 1171" d="M479.313,256.542l.117,4.46q2.589-.068,5.174-.089l-.039-4.46Q481.94,256.474,479.313,256.542Z" transform="translate(-73.282 16.773)" fill="#e5661d"/>
    <path id="Trazado_1172" data-name="Trazado 1172" d="M489.735,265.376q.02-2.23.038-4.461-2.583-.023-5.169,0,.021,2.23.04,4.461Q487.191,265.353,489.735,265.376Z" transform="translate(-73.282 16.773)" fill="#e5661d"/>
    <path id="Trazado_1173" data-name="Trazado 1173" d="M494.7,269.925q.057-2.229.115-4.459-2.541-.068-5.085-.09-.018,2.23-.037,4.46Q492.2,269.86,494.7,269.925Z" transform="translate(-73.282 16.773)" fill="#e5661d"/>
    <path id="Trazado_1174" data-name="Trazado 1174" d="M511.058,252.919q2.64.207,5.273.458l.42-4.44q-2.672-.255-5.349-.465Q511.229,250.695,511.058,252.919Z" transform="translate(-73.282 16.773)" fill="#e5661d"/>
    <path id="Trazado_1175" data-name="Trazado 1175" d="M505.505,257q2.607.158,5.209.362.173-2.223.344-4.447-2.64-.207-5.285-.368Q505.639,254.777,505.505,257Z" transform="translate(-73.282 16.773)" fill="#e5661d"/>
    <path id="Trazado_1176" data-name="Trazado 1176" d="M500.1,261.187q2.574.112,5.142.269.135-2.226.268-4.452-2.607-.159-5.219-.274Q500.19,258.959,500.1,261.187Z" transform="translate(-73.282 16.773)" fill="#e5661d"/>
    <path id="Trazado_1177" data-name="Trazado 1177" d="M494.828,265.466q2.541.067,5.076.177.1-2.228.191-4.456-2.574-.113-5.153-.18Z" transform="translate(-73.282 16.773)" fill="#e5661d"/>
    <path id="Trazado_1178" data-name="Trazado 1178" d="M669.015,298.657l3.155-4.552A325.914,325.914,0,0,0,517.831,237.63l-.527,5.513A320.368,320.368,0,0,1,669.015,298.657Z" transform="translate(-73.282 16.773)" fill="#e5661d"/>
    <path id="Trazado_1179" data-name="Trazado 1179" d="M648.774,327.817l3.155-4.55a290.214,290.214,0,0,0-137.444-50.3l-.527,5.513A284.69,284.69,0,0,1,648.774,327.817Z" transform="translate(-73.282 16.773)" fill="#e5661d"/>
    <path id="Trazado_1180" data-name="Trazado 1180" d="M517.171,244.5q-.209,2.222-.42,4.441,2.672.255,5.336.556.249-2.215.5-4.432Q519.881,244.755,517.171,244.5Z" transform="translate(-73.282 16.773)" fill="#e5661d"/>
    <path id="Trazado_1181" data-name="Trazado 1181" d="M522.087,249.493q-.247,2.217-.5,4.433,2.625.3,5.245.638.286-2.211.572-4.423Q524.752,249.795,522.087,249.493Z" transform="translate(-73.282 16.773)" fill="#e5661d"/>
    <path id="Trazado_1182" data-name="Trazado 1182" d="M526.836,254.564l-.573,4.424q2.582.336,5.154.716.325-2.207.648-4.413Q529.455,254.905,526.836,254.564Z" transform="translate(-73.282 16.773)" fill="#e5661d"/>
    <path id="Trazado_1183" data-name="Trazado 1183" d="M531.417,259.7l-.648,4.413q2.537.375,5.062.792.362-2.2.724-4.4Q533.992,260.085,531.417,259.7Z" transform="translate(-73.282 16.773)" fill="#e5661d"/>
    <path id="Trazado_1184" data-name="Trazado 1184" d="M535.831,264.909l-.723,4.4q2.489.411,4.969.865.4-2.194.8-4.388Q538.358,265.327,535.831,264.909Z" transform="translate(-73.282 16.773)" fill="#e5661d"/>
    <path id="Trazado_1185" data-name="Trazado 1185" d="M544.155,275.5l.873-4.374q-2.471-.495-4.951-.949l-.8,4.388Q541.721,275.009,544.155,275.5Z" transform="translate(-73.282 16.773)" fill="#e5661d"/>
    <path id="Trazado_1186" data-name="Trazado 1186" d="M563.06,261.507q2.55.648,5.088,1.34l1.17-4.3q-2.575-.7-5.162-1.359Q563.609,259.346,563.06,261.507Z" transform="translate(-73.282 16.773)" fill="#e5661d"/>
    <path id="Trazado_1187" data-name="Trazado 1187" d="M556.926,264.594q2.524.6,5.037,1.236.549-2.161,1.1-4.323-2.55-.649-5.112-1.254Q557.436,262.424,556.926,264.594Z" transform="translate(-73.282 16.773)" fill="#e5661d"/>
    <path id="Trazado_1188" data-name="Trazado 1188" d="M550.917,267.8q2.5.546,4.986,1.133l1.023-4.341q-2.526-.6-5.06-1.15Q551.391,265.624,550.917,267.8Z" transform="translate(-73.282 16.773)" fill="#e5661d"/>
    <path id="Trazado_1189" data-name="Trazado 1189" d="M545.037,271.127q2.472.495,4.932,1.033l.948-4.358q-2.5-.546-5.006-1.049Q545.474,268.94,545.037,271.127Z" transform="translate(-73.282 16.773)" fill="#e5661d"/>
    <path id="Trazado_1190" data-name="Trazado 1190" d="M570.488,254.24l-1.17,4.3q2.574.7,5.137,1.446.621-2.141,1.243-4.283Q573.1,254.952,570.488,254.24Z" transform="translate(-73.282 16.773)" fill="#e5661d"/>
    <path id="Trazado_1191" data-name="Trazado 1191" d="M574.455,259.989q-.623,2.142-1.244,4.283,2.526.735,5.037,1.511.659-2.13,1.316-4.261Q577.017,260.735,574.455,259.989Z" transform="translate(-73.282 16.773)" fill="#e5661d"/>
    <path id="Trazado_1192" data-name="Trazado 1192" d="M578.248,265.783q-.658,2.132-1.316,4.261,2.475.766,4.937,1.574l1.389-4.238Q580.761,266.56,578.248,265.783Z" transform="translate(-73.282 16.773)" fill="#e5661d"/>
    <path id="Trazado_1193" data-name="Trazado 1193" d="M581.869,271.618q-.693,2.118-1.388,4.237,2.424.8,4.837,1.632l1.461-4.213Q584.331,272.425,581.869,271.618Z" transform="translate(-73.282 16.773)" fill="#e5661d"/>
    <path id="Trazado_1194" data-name="Trazado 1194" d="M585.318,277.487l-1.461,4.214q2.376.824,4.737,1.688l1.533-4.188Q587.73,278.324,585.318,277.487Z" transform="translate(-73.282 16.773)" fill="#e5661d"/>
    <path id="Trazado_1195" data-name="Trazado 1195" d="M587.062,287.577q2.325.852,4.637,1.742.8-2.08,1.6-4.162-2.346-.9-4.708-1.768Z" transform="translate(-73.282 16.773)" fill="#e5661d"/>
    <path id="Trazado_1196" data-name="Trazado 1196" d="M619.363,276.857q-2.419-1.127-4.857-2.211l-1.815,4.074q2.4,1.07,4.788,2.18Z" transform="translate(-73.282 16.773)" fill="#e5661d"/>
    <path id="Trazado_1197" data-name="Trazado 1197" d="M612.691,278.72q-2.4-1.07-4.822-2.1l-1.745,4.1q2.385,1.014,4.753,2.067Q611.784,280.757,612.691,278.72Z" transform="translate(-73.282 16.773)" fill="#e5661d"/>
    <path id="Trazado_1198" data-name="Trazado 1198" d="M606.124,280.727q-2.385-1.012-4.787-1.985l-1.674,4.133q2.365.959,4.716,1.957Q605.251,282.78,606.124,280.727Z" transform="translate(-73.282 16.773)" fill="#e5661d"/>
    <path id="Trazado_1199" data-name="Trazado 1199" d="M593.31,285.16q2.348.9,4.678,1.848.837-2.065,1.675-4.133-2.367-.959-4.749-1.876Q594.113,283.079,593.31,285.16Z" transform="translate(-73.282 16.773)" fill="#e5661d"/>
    <path id="Trazado_1200" data-name="Trazado 1200" d="M626.136,275.141q-2.436-1.184-4.889-2.326l-1.884,4.042q2.42,1.127,4.82,2.294Z" transform="translate(-73.282 16.773)" fill="#e5661d"/>
    <path id="Trazado_1201" data-name="Trazado 1201" d="M626.944,285.5l2.021-3.976q-2.382-1.207-4.782-2.375l-1.953,4.009Q624.6,284.311,626.944,285.5Z" transform="translate(-73.282 16.773)" fill="#e5661d"/>
    <path id="Trazado_1202" data-name="Trazado 1202" d="M629.53,291.865l2.088-3.94q-2.326-1.231-4.674-2.423l-2.022,3.976Q627.237,290.651,629.53,291.865Z" transform="translate(-73.282 16.773)" fill="#e5661d"/>
    <path id="Trazado_1203" data-name="Trazado 1203" d="M631.942,298.236l2.156-3.9q-2.274-1.252-4.568-2.467l-2.089,3.941Q629.7,297,631.942,298.236Z" transform="translate(-73.282 16.773)" fill="#e5661d"/>
    <path id="Trazado_1204" data-name="Trazado 1204" d="M634.181,304.611q1.11-1.934,2.222-3.867-2.22-1.273-4.461-2.508l-2.156,3.9Q631.994,303.357,634.181,304.611Z" transform="translate(-73.282 16.773)" fill="#e5661d"/>
    <path id="Trazado_1205" data-name="Trazado 1205" d="M636.247,310.987q1.143-1.916,2.288-3.829-2.167-1.291-4.354-2.547l-2.223,3.868Q634.112,309.714,636.247,310.987Z" transform="translate(-73.282 16.773)" fill="#e5661d"/>
    <path id="Trazado_1206" data-name="Trazado 1206" d="M665.713,303.45q-2.205-1.529-4.434-3.019l-2.482,3.706q2.2,1.469,4.371,2.976Z" transform="translate(-73.282 16.773)" fill="#e5661d"/>
    <path id="Trazado_1207" data-name="Trazado 1207" d="M658.8,304.137q-2.2-1.469-4.418-2.9l-2.418,3.748q2.188,1.408,4.354,2.856Z" transform="translate(-73.282 16.773)" fill="#e5661d"/>
    <path id="Trazado_1208" data-name="Trazado 1208" d="M651.961,304.987q-2.188-1.41-4.4-2.779-1.176,1.895-2.354,3.789,2.18,1.35,4.335,2.738Z" transform="translate(-73.282 16.773)" fill="#e5661d"/>
    <path id="Trazado_1209" data-name="Trazado 1209" d="M638.542,307.163q2.166,1.291,4.313,2.622L645.208,306q-2.178-1.352-4.377-2.663Z" transform="translate(-73.282 16.773)" fill="#e5661d"/>
    <path id="Trazado_1210" data-name="Trazado 1210" d="M776.137,426.134A318.234,318.234,0,0,1,804.373,590.2l5.514.527A324.319,324.319,0,0,0,672.2,294.125l-3.156,4.55A318.25,318.25,0,0,1,776.137,426.134Z" transform="translate(-73.282 16.773)" fill="#e5661d"/>
    <path id="Trazado_1211" data-name="Trazado 1211" d="M748.975,438.762l0-.008,0-.009h0a288.309,288.309,0,0,0-97.025-115.469l-3.156,4.55A283.25,283.25,0,0,1,769.032,586.873l5.513.527a288.31,288.31,0,0,0-25.57-148.638Z" transform="translate(-73.282 16.773)" fill="#e5661d"/>
    <path id="Trazado_1212" data-name="Trazado 1212" d="M672.707,302.929q-2.211-1.591-4.448-3.142l-2.546,3.663q2.207,1.53,4.386,3.1Z" transform="translate(-73.282 16.773)" fill="#e5661d"/>
    <path id="Trazado_1213" data-name="Trazado 1213" d="M671.766,313.3q1.335-1.787,2.669-3.574-2.156-1.606-4.336-3.175l-2.607,3.618Q669.641,311.712,671.766,313.3Z" transform="translate(-73.282 16.773)" fill="#e5661d"/>
    <path id="Trazado_1214" data-name="Trazado 1214" d="M673.259,320.031l2.731-3.527q-2.1-1.623-4.224-3.207l-2.67,3.573Q671.19,318.432,673.259,320.031Z" transform="translate(-73.282 16.773)" fill="#e5661d"/>
    <path id="Trazado_1215" data-name="Trazado 1215" d="M674.58,326.746l2.791-3.48q-2.043-1.637-4.112-3.235l-2.731,3.527Q672.568,325.133,674.58,326.746Z" transform="translate(-73.282 16.773)" fill="#e5661d"/>
    <path id="Trazado_1216" data-name="Trazado 1216" d="M675.73,333.438l2.851-3.431q-1.988-1.648-4-3.261l-2.791,3.479Q673.772,331.813,675.73,333.438Z" transform="translate(-73.282 16.773)" fill="#e5661d"/>
    <path id="Trazado_1217" data-name="Trazado 1217" d="M676.71,340.1l2.91-3.381q-1.932-1.66-3.89-3.285l-2.85,3.431Q674.807,338.468,676.71,340.1Z" transform="translate(-73.282 16.773)" fill="#e5661d"/>
    <path id="Trazado_1218" data-name="Trazado 1218" d="M707.2,337.893q-1.934-1.911-3.9-3.785l-3.081,3.226q1.935,1.846,3.84,3.73Z" transform="translate(-73.282 16.773)" fill="#e5661d"/>
    <path id="Trazado_1219" data-name="Trazado 1219" d="M700.22,337.334q-1.935-1.848-3.9-3.657l-3.025,3.278q1.935,1.784,3.842,3.6Z" transform="translate(-73.282 16.773)" fill="#e5661d"/>
    <path id="Trazado_1220" data-name="Trazado 1220" d="M693.3,336.955q-1.935-1.783-3.9-3.531l-2.968,3.33q1.935,1.722,3.841,3.48Z" transform="translate(-73.282 16.773)" fill="#e5661d"/>
    <path id="Trazado_1221" data-name="Trazado 1221" d="M679.627,336.729q1.93,1.659,3.837,3.356l2.967-3.331q-1.934-1.721-3.9-3.407Z" transform="translate(-73.282 16.773)" fill="#e5661d"/>
    <path id="Trazado_1222" data-name="Trazado 1222" d="M714.223,338.635q-1.929-1.976-3.889-3.914l-3.137,3.172q1.932,1.909,3.834,3.858Z" transform="translate(-73.282 16.773)" fill="#e5661d"/>
    <path id="Trazado_1223" data-name="Trazado 1223" d="M711.559,348.745l3.246-3.061q-1.872-1.984-3.774-3.933l-3.191,3.117Q709.715,346.788,711.559,348.745Z" transform="translate(-73.282 16.773)" fill="#e5661d"/>
    <path id="Trazado_1224" data-name="Trazado 1224" d="M711.918,355.7l3.3-3q-1.813-1.992-3.658-3.948l-3.245,3.06Q710.132,353.732,711.918,355.7Z" transform="translate(-73.282 16.773)" fill="#e5661d"/>
    <path id="Trazado_1225" data-name="Trazado 1225" d="M712.111,362.6l3.35-2.945q-1.755-2-3.543-3.963l-3.3,3Q710.381,360.635,712.111,362.6Z" transform="translate(-73.282 16.773)" fill="#e5661d"/>
    <path id="Trazado_1226" data-name="Trazado 1226" d="M712.137,369.464l3.4-2.886q-1.7-2-3.428-3.974l-3.351,2.945Q710.464,367.49,712.137,369.464Z" transform="translate(-73.282 16.773)" fill="#e5661d"/>
    <path id="Trazado_1227" data-name="Trazado 1227" d="M712,376.272l3.451-2.826q-1.641-2.009-3.315-3.982l-3.4,2.886Q710.385,374.294,712,376.272Z" transform="translate(-73.282 16.773)" fill="#e5661d"/>
    <path id="Trazado_1228" data-name="Trazado 1228" d="M742.64,379.756q-1.6-2.271-3.239-4.507l-3.6,2.638q1.614,2.205,3.192,4.443Z" transform="translate(-73.282 16.773)" fill="#e5661d"/>
    <path id="Trazado_1229" data-name="Trazado 1229" d="M735.8,377.887q-1.614-2.2-3.262-4.373l-3.549,2.7q1.625,2.137,3.215,4.31Z" transform="translate(-73.282 16.773)" fill="#e5661d"/>
    <path id="Trazado_1230" data-name="Trazado 1230" d="M728.994,376.216q-1.625-2.139-3.283-4.242l-3.5,2.765q1.633,2.071,3.235,4.179Z" transform="translate(-73.282 16.773)" fill="#e5661d"/>
    <path id="Trazado_1231" data-name="Trazado 1231" d="M715.458,373.453q1.641,2.008,3.251,4.05l3.5-2.764q-1.634-2.073-3.3-4.111Z" transform="translate(-73.282 16.773)" fill="#e5661d"/>
    <path id="Trazado_1232" data-name="Trazado 1232" d="M749.494,381.824q-1.587-2.34-3.212-4.643l-3.642,2.575q1.6,2.271,3.166,4.577Z" transform="translate(-73.282 16.773)" fill="#e5661d"/>
    <path id="Trazado_1233" data-name="Trazado 1233" d="M745.168,391.422l3.732-2.443q-1.529-2.34-3.094-4.646l-3.688,2.509Q743.661,389.116,745.168,391.422Z" transform="translate(-73.282 16.773)" fill="#e5661d"/>
    <path id="Trazado_1234" data-name="Trazado 1234" d="M744.369,398.446l3.774-2.375q-1.469-2.342-2.975-4.649l-3.732,2.443Q742.921,396.139,744.369,398.446Z" transform="translate(-73.282 16.773)" fill="#e5661d"/>
    <path id="Trazado_1235" data-name="Trazado 1235" d="M743.411,405.4l3.817-2.308q-1.412-2.34-2.859-4.648l-3.775,2.376Q742.02,403.1,743.411,405.4Z" transform="translate(-73.282 16.773)" fill="#e5661d"/>
    <path id="Trazado_1236" data-name="Trazado 1236" d="M742.3,412.285l3.858-2.239q-1.355-2.338-2.744-4.644l-3.817,2.307Q740.964,409.981,742.3,412.285Z" transform="translate(-73.282 16.773)" fill="#e5661d"/>
    <path id="Trazado_1237" data-name="Trazado 1237" d="M741.029,419.092l3.9-2.168q-1.3-2.336-2.629-4.639l-3.858,2.238Q739.752,416.791,741.029,419.092Z" transform="translate(-73.282 16.773)" fill="#e5661d"/>
    <path id="Trazado_1238" data-name="Trazado 1238" d="M770.87,428.611q1.2,2.592,2.356,5.2l4.079-1.8q-1.176-2.658-2.4-5.3l-4.046,1.878.008.016q-1.207-2.6-2.457-5.171l-4.01,1.952q1.234,2.541,2.429,5.113Z" transform="translate(-73.282 16.773)" fill="#e5661d"/>
    <path id="Trazado_1239" data-name="Trazado 1239" d="M764.4,425.375q-1.236-2.539-2.511-5.048l-3.974,2.025q1.257,2.471,2.475,4.975Z" transform="translate(-73.282 16.773)" fill="#e5661d"/>
    <path id="Trazado_1240" data-name="Trazado 1240" d="M757.911,422.352q-1.257-2.471-2.554-4.91l-3.936,2.1q1.278,2.4,2.517,4.839Z" transform="translate(-73.282 16.773)" fill="#e5661d"/>
    <path id="Trazado_1241" data-name="Trazado 1241" d="M744.931,416.932q1.3,2.336,2.554,4.7,1.968-1.049,3.936-2.1-1.277-2.4-2.593-4.774Z" transform="translate(-73.282 16.773)" fill="#e5661d"/>
    <path id="Trazado_1303" data-name="Trazado 1303" d="M353.186,271.385l-2.332-5.024A323.78,323.78,0,0,0,221.176,375.323l4.551,3.156A318.233,318.233,0,0,1,353.186,271.385Z" transform="translate(-73.282 16.773)" fill="#e5661d"/>
    <path id="Trazado_1316" data-name="Trazado 1316" d="M282.748,335.6l-3-3.3q-1.994,1.814-3.949,3.657l3.061,3.246Q280.785,337.388,282.748,335.6Z" transform="translate(-73.282 16.773)" fill="#e5661d"/>
    <path id="Trazado_1317" data-name="Trazado 1317" d="M289.656,335.411l-2.945-3.351q-2,1.756-3.963,3.543,1.5,1.648,3,3.3Q287.685,337.14,289.656,335.411Z" transform="translate(-73.282 16.773)" fill="#e5661d"/>
    <path id="Trazado_1318" data-name="Trazado 1318" d="M296.515,335.384l-2.886-3.4q-2,1.7-3.973,3.429,1.473,1.674,2.945,3.35Q294.542,337.057,296.515,335.384Z" transform="translate(-73.282 16.773)" fill="#e5661d"/>
    <path id="Trazado_1319" data-name="Trazado 1319" d="M303.324,335.521l-2.826-3.452q-2.008,1.641-3.983,3.315l2.886,3.4Q301.346,337.138,303.324,335.521Z" transform="translate(-73.282 16.773)" fill="#e5661d"/>
    <path id="Trazado_1320" data-name="Trazado 1320" d="M304.939,311.716q2.2-1.613,4.443-3.192l-2.575-3.643q-2.271,1.6-4.507,3.239Q303.62,309.917,304.939,311.716Z" transform="translate(-73.282 16.773)" fill="#e5661d"/>
    <path id="Trazado_1321" data-name="Trazado 1321" d="M303.268,318.527q2.137-1.623,4.31-3.214l-2.639-3.6q-2.2,1.614-4.373,3.262Z" transform="translate(-73.282 16.773)" fill="#e5661d"/>
    <path id="Trazado_1322" data-name="Trazado 1322" d="M301.79,325.311q2.073-1.634,4.18-3.234l-2.7-3.55q-2.139,1.624-4.242,3.284Z" transform="translate(-73.282 16.773)" fill="#e5661d"/>
    <path id="Trazado_1323" data-name="Trazado 1323" d="M300.505,332.063q2.008-1.641,4.05-3.251l-2.765-3.5q-2.072,1.635-4.111,3.3Z" transform="translate(-73.282 16.773)" fill="#e5661d"/>
    <path id="Trazado_1324" data-name="Trazado 1324" d="M306.807,304.881q2.272-1.6,4.577-3.166-1.254-1.844-2.509-3.688-2.338,1.588-4.642,3.212Z" transform="translate(-73.282 16.773)" fill="#e5661d"/>
    <path id="Trazado_1325" data-name="Trazado 1325" d="M318.474,302.354q-1.221-1.867-2.443-3.732-2.34,1.527-4.647,3.093l2.51,3.688Q316.166,303.859,318.474,302.354Z" transform="translate(-73.282 16.773)" fill="#e5661d"/>
    <path id="Trazado_1326" data-name="Trazado 1326" d="M325.5,303.153l-2.376-3.775q-2.342,1.47-4.648,2.976l2.443,3.731Q323.191,304.6,325.5,303.153Z" transform="translate(-73.282 16.773)" fill="#e5661d"/>
    <path id="Trazado_1327" data-name="Trazado 1327" d="M332.453,304.11l-2.307-3.816q-2.342,1.411-4.648,2.859l2.376,3.774Q330.147,305.5,332.453,304.11Z" transform="translate(-73.282 16.773)" fill="#e5661d"/>
    <path id="Trazado_1328" data-name="Trazado 1328" d="M339.336,305.225q-1.119-1.931-2.238-3.858-2.338,1.353-4.645,2.743l2.308,3.817Q337.032,306.558,339.336,305.225Z" transform="translate(-73.282 16.773)" fill="#e5661d"/>
    <path id="Trazado_1329" data-name="Trazado 1329" d="M346.144,306.492l-2.168-3.9q-2.336,1.3-4.64,2.63l2.239,3.857Q343.843,307.77,346.144,306.492Z" transform="translate(-73.282 16.773)" fill="#e5661d"/>
    <path id="Trazado_1330" data-name="Trazado 1330" d="M349.4,289.61q2.471-1.257,4.974-2.475l-1.951-4.009q-2.541,1.234-5.048,2.51Z" transform="translate(-73.282 16.773)" fill="#e5661d"/>
    <path id="Trazado_1331" data-name="Trazado 1331" d="M346.59,296.1q2.4-1.278,4.838-2.516-1.011-1.988-2.024-3.974-2.472,1.257-4.911,2.554Z" transform="translate(-73.282 16.773)" fill="#e5661d"/>
    <path id="Trazado_1332" data-name="Trazado 1332" d="M343.984,302.591q2.335-1.3,4.7-2.555l-2.1-3.936q-2.4,1.278-4.774,2.593Z" transform="translate(-73.282 16.773)" fill="#e5661d"/>
    <path id="Trazado_1333" data-name="Trazado 1333" d="M457.294,877.313l-.527,5.512A323.773,323.773,0,0,0,623.694,854.1l-2.332-5.024A318.246,318.246,0,0,1,457.294,877.313Z" transform="translate(-73.282 16.773)" fill="#e5661d"/>
    <path id="Trazado_1334" data-name="Trazado 1334" d="M608.751,821.906a288.3,288.3,0,0,0,115.487-97.033l-4.551-3.155A283.292,283.292,0,0,1,460.623,841.972l-.527,5.512A288.3,288.3,0,0,0,608.751,821.906Z" transform="translate(-73.282 16.773)" fill="#e5661d"/>
    <path id="Trazado_1335" data-name="Trazado 1335" d="M620.8,847.84l-1.878-4.046-.008,0q2.607-1.21,5.18-2.461-.977-2.005-1.952-4.01-2.539,1.234-5.113,2.429L618.9,843.8q-2.6,1.209-5.215,2.364l1.8,4.079Q618.149,849.068,620.8,847.84Z" transform="translate(-73.282 16.773)" fill="#e5661d"/>
    <path id="Trazado_1336" data-name="Trazado 1336" d="M613.688,846.165l-1.8-4.079q-2.583,1.143-5.176,2.235.863,2.057,1.728,4.112Q611.068,847.324,613.688,846.165Z" transform="translate(-73.282 16.773)" fill="#e5661d"/>
    <path id="Trazado_1337" data-name="Trazado 1337" d="M599.861,842.312q.826,2.071,1.653,4.142,2.6-1.041,5.2-2.133-.865-2.055-1.729-4.111Q602.425,841.285,599.861,842.312Z" transform="translate(-73.282 16.773)" fill="#e5661d"/>
    <path id="Trazado_1338" data-name="Trazado 1338" d="M593.145,840.142l1.578,4.172q2.572-.977,5.138-2l-1.653-4.142Q595.681,839.18,593.145,840.142Z" transform="translate(-73.282 16.773)" fill="#e5661d"/>
    <path id="Trazado_1339" data-name="Trazado 1339" d="M586.565,837.817q.751,2.1,1.5,4.2,2.543-.914,5.078-1.875l-1.577-4.172Q589.071,836.918,586.565,837.817Z" transform="translate(-73.282 16.773)" fill="#e5661d"/>
    <path id="Trazado_1340" data-name="Trazado 1340" d="M580.121,835.342q.714,2.112,1.426,4.226,2.512-.852,5.018-1.751-.751-2.1-1.5-4.2Q582.6,834.5,580.121,835.342Z" transform="translate(-73.282 16.773)" fill="#e5661d"/>
    <path id="Trazado_1341" data-name="Trazado 1341" d="M570,857.138q-2.646.741-5.3,1.432.559,2.158,1.12,4.317,2.689-.7,5.373-1.452Z" transform="translate(-73.282 16.773)" fill="#e5661d"/>
    <path id="Trazado_1342" data-name="Trazado 1342" d="M574.01,851.333q-2.6.778-5.209,1.508l1.2,4.3q2.646-.739,5.285-1.53Q574.645,853.47,574.01,851.333Z" transform="translate(-73.282 16.773)" fill="#e5661d"/>
    <path id="Trazado_1343" data-name="Trazado 1343" d="M577.857,845.476q-2.558.816-5.121,1.583.636,2.137,1.274,4.274,2.6-.778,5.2-1.606Z" transform="translate(-73.282 16.773)" fill="#e5661d"/>
    <path id="Trazado_1344" data-name="Trazado 1344" d="M581.539,839.571q-2.512.851-5.032,1.654l1.35,4.251q2.558-.816,5.107-1.679Z" transform="translate(-73.282 16.773)" fill="#e5661d"/>
    <path id="Trazado_1345" data-name="Trazado 1345" d="M566.942,867.205l-1.12-4.318q-2.69.7-5.383,1.352l1.044,4.337Q564.215,867.916,566.942,867.205Z" transform="translate(-73.282 16.773)" fill="#e5661d"/>
    <path id="Trazado_1346" data-name="Trazado 1346" d="M560.439,864.239q-.522-2.168-1.043-4.336-2.656.641-5.315,1.234.483,2.178.967,4.355Q557.745,864.891,560.439,864.239Z" transform="translate(-73.282 16.773)" fill="#e5661d"/>
    <path id="Trazado_1347" data-name="Trazado 1347" d="M554.081,861.137q-.483-2.177-.967-4.354-2.621.583-5.245,1.121.445,2.184.89,4.37Q551.422,861.731,554.081,861.137Z" transform="translate(-73.282 16.773)" fill="#e5661d"/>
    <path id="Trazado_1348" data-name="Trazado 1348" d="M541.8,854.542l.813,4.386q2.627-.487,5.251-1.024-.444-2.187-.889-4.372Q544.394,854.06,541.8,854.542Z" transform="translate(-73.282 16.773)" fill="#e5661d"/>
    <path id="Trazado_1349" data-name="Trazado 1349" d="M535.891,851.058l.735,4.4q2.591-.434,5.179-.916-.406-2.193-.812-4.386Q538.443,850.63,535.891,851.058Z" transform="translate(-73.282 16.773)" fill="#e5661d"/>
    <path id="Trazado_1350" data-name="Trazado 1350" d="M530.126,847.456q.33,2.207.658,4.412,2.555-.381,5.107-.81-.369-2.2-.736-4.4Q532.642,847.081,530.126,847.456Z" transform="translate(-73.282 16.773)" fill="#e5661d"/>
    <path id="Trazado_1351" data-name="Trazado 1351" d="M516.723,867.072q-2.672.256-5.342.465.174,2.225.349,4.448,2.709-.213,5.419-.473Z" transform="translate(-73.282 16.773)" fill="#e5661d"/>
    <path id="Trazado_1352" data-name="Trazado 1352" d="M521.563,862.079q-2.633.3-5.266.552l.426,4.441q2.672-.257,5.343-.56Q521.814,864.295,521.563,862.079Z" transform="translate(-73.282 16.773)" fill="#e5661d"/>
    <path id="Trazado_1353" data-name="Trazado 1353" d="M526.247,857.011q-2.594.34-5.188.636l.5,4.432q2.633-.3,5.265-.645Q526.539,859.221,526.247,857.011Z" transform="translate(-73.282 16.773)" fill="#e5661d"/>
    <path id="Trazado_1354" data-name="Trazado 1354" d="M530.775,851.87q-2.553.381-5.108.718.289,2.211.58,4.423,2.594-.342,5.186-.729Q531.1,854.075,530.775,851.87Z" transform="translate(-73.282 16.773)" fill="#e5661d"/>
    <path id="Trazado_1355" data-name="Trazado 1355" d="M512.078,876.431l-.348-4.446q-2.711.211-5.418.376.135,2.226.271,4.452Q509.329,876.647,512.078,876.431Z" transform="translate(-73.282 16.773)" fill="#e5661d"/>
    <path id="Trazado_1356" data-name="Trazado 1356" d="M506.312,872.361q-.137-2.228-.272-4.453-2.67.162-5.337.278.1,2.228.194,4.456Q503.6,872.525,506.312,872.361Z" transform="translate(-73.282 16.773)" fill="#e5661d"/>
    <path id="Trazado_1357" data-name="Trazado 1357" d="M500.7,868.186l-.2-4.457q-2.628.114-5.256.181l.117,4.459Q498.035,868.3,500.7,868.186Z" transform="translate(-73.282 16.773)" fill="#e5661d"/>
    <path id="Trazado_1358" data-name="Trazado 1358" d="M495.252,863.91l-.117-4.459q-2.589.066-5.174.088L490,864Q492.625,863.978,495.252,863.91Z" transform="translate(-73.282 16.773)" fill="#e5661d"/>
    <path id="Trazado_1359" data-name="Trazado 1359" d="M484.829,855.076q-.018,2.23-.037,4.461,2.583.023,5.169,0-.021-2.23-.04-4.461Q487.374,855.1,484.829,855.076Z" transform="translate(-73.282 16.773)" fill="#e5661d"/>
    <path id="Trazado_1360" data-name="Trazado 1360" d="M479.86,850.528q-.058,2.229-.115,4.459,2.541.066,5.084.089.02-2.23.038-4.46Q482.361,850.594,479.86,850.528Z" transform="translate(-73.282 16.773)" fill="#e5661d"/>
    <path id="Trazado_1361" data-name="Trazado 1361" d="M463.507,867.533q-2.64-.207-5.273-.458l-.42,4.44q2.672.256,5.349.465Q463.334,869.757,463.507,867.533Z" transform="translate(-73.282 16.773)" fill="#e5661d"/>
    <path id="Trazado_1362" data-name="Trazado 1362" d="M469.06,863.449q-2.607-.159-5.209-.363-.173,2.223-.344,4.447,2.64.207,5.285.368Q468.926,865.675,469.06,863.449Z" transform="translate(-73.282 16.773)" fill="#e5661d"/>
    <path id="Trazado_1363" data-name="Trazado 1363" d="M474.47,859.265q-2.574-.113-5.143-.269l-.267,4.453q2.607.159,5.219.273Q474.375,861.493,474.47,859.265Z" transform="translate(-73.282 16.773)" fill="#e5661d"/>
    <path id="Trazado_1364" data-name="Trazado 1364" d="M479.737,854.986q-2.541-.068-5.076-.177-.1,2.227-.191,4.456,2.574.113,5.153.181Z" transform="translate(-73.282 16.773)" fill="#e5661d"/>
    <path id="Trazado_1365" data-name="Trazado 1365" d="M305.55,821.795l-3.155,4.552a325.922,325.922,0,0,0,154.339,56.476l.527-5.513A320.366,320.366,0,0,1,305.55,821.795Z" transform="translate(-73.282 16.773)" fill="#e5661d"/>
    <path id="Trazado_1366" data-name="Trazado 1366" d="M325.791,792.635l-3.156,4.551a290.23,290.23,0,0,0,137.445,50.3l.527-5.513A284.68,284.68,0,0,1,325.791,792.635Z" transform="translate(-73.282 16.773)" fill="#e5661d"/>
    <path id="Trazado_1367" data-name="Trazado 1367" d="M457.393,875.956q.21-2.22.421-4.441-2.672-.255-5.336-.556-.249,2.215-.5,4.433Q454.684,875.7,457.393,875.956Z" transform="translate(-73.282 16.773)" fill="#e5661d"/>
    <path id="Trazado_1368" data-name="Trazado 1368" d="M452.478,870.959q.248-2.217.5-4.433-2.625-.3-5.245-.638-.287,2.211-.572,4.423Q449.814,870.658,452.478,870.959Z" transform="translate(-73.282 16.773)" fill="#e5661d"/>
    <path id="Trazado_1369" data-name="Trazado 1369" d="M447.729,865.888q.287-2.211.572-4.423-2.58-.338-5.153-.717-.326,2.207-.649,4.413Q445.11,865.547,447.729,865.888Z" transform="translate(-73.282 16.773)" fill="#e5661d"/>
    <path id="Trazado_1370" data-name="Trazado 1370" d="M443.148,860.748q.322-2.207.648-4.413-2.536-.375-5.062-.792-.363,2.2-.724,4.4Q440.573,860.367,443.148,860.748Z" transform="translate(-73.282 16.773)" fill="#e5661d"/>
    <path id="Trazado_1371" data-name="Trazado 1371" d="M438.734,855.543l.723-4.4q-2.488-.413-4.97-.866l-.8,4.389Q436.206,855.124,438.734,855.543Z" transform="translate(-73.282 16.773)" fill="#e5661d"/>
    <path id="Trazado_1372" data-name="Trazado 1372" d="M430.41,844.954q-.437,2.187-.874,4.373,2.472.495,4.951.949.4-2.193.8-4.387Q432.844,845.442,430.41,844.954Z" transform="translate(-73.282 16.773)" fill="#e5661d"/>
    <path id="Trazado_1373" data-name="Trazado 1373" d="M411.505,858.945q-2.55-.648-5.088-1.339l-1.17,4.3q2.575.7,5.162,1.36Q410.956,861.106,411.505,858.945Z" transform="translate(-73.282 16.773)" fill="#e5661d"/>
    <path id="Trazado_1374" data-name="Trazado 1374" d="M417.639,855.858q-2.525-.6-5.037-1.235-.549,2.162-1.1,4.322,2.55.649,5.112,1.254Q417.129,858.029,417.639,855.858Z" transform="translate(-73.282 16.773)" fill="#e5661d"/>
    <path id="Trazado_1375" data-name="Trazado 1375" d="M423.647,852.65q-2.5-.545-4.985-1.133l-1.023,4.341q2.524.6,5.06,1.15Z" transform="translate(-73.282 16.773)" fill="#e5661d"/>
    <path id="Trazado_1376" data-name="Trazado 1376" d="M429.528,849.325q-2.472-.5-4.932-1.033-.474,2.18-.949,4.358,2.5.546,5.007,1.049Q429.091,851.512,429.528,849.325Z" transform="translate(-73.282 16.773)" fill="#e5661d"/>
    <path id="Trazado_1377" data-name="Trazado 1377" d="M404.077,866.213l1.17-4.3q-2.574-.7-5.137-1.446-.621,2.141-1.243,4.283Q401.465,865.5,404.077,866.213Z" transform="translate(-73.282 16.773)" fill="#e5661d"/>
    <path id="Trazado_1378" data-name="Trazado 1378" d="M400.11,860.463l1.244-4.283q-2.526-.734-5.037-1.511L395,858.93Q397.549,859.718,400.11,860.463Z" transform="translate(-73.282 16.773)" fill="#e5661d"/>
    <path id="Trazado_1379" data-name="Trazado 1379" d="M396.317,854.669q.659-2.132,1.316-4.261-2.475-.767-4.938-1.573-.693,2.118-1.388,4.238Q393.8,853.892,396.317,854.669Z" transform="translate(-73.282 16.773)" fill="#e5661d"/>
    <path id="Trazado_1380" data-name="Trazado 1380" d="M392.7,848.835l1.389-4.238q-2.426-.8-4.837-1.632l-1.461,4.214Q390.234,848.028,392.7,848.835Z" transform="translate(-73.282 16.773)" fill="#e5661d"/>
    <path id="Trazado_1381" data-name="Trazado 1381" d="M389.247,842.965l1.461-4.214q-2.376-.823-4.737-1.688l-1.533,4.188Q386.835,842.129,389.247,842.965Z" transform="translate(-73.282 16.773)" fill="#e5661d"/>
    <path id="Trazado_1382" data-name="Trazado 1382" d="M387.5,832.875q-2.325-.851-4.637-1.742-.8,2.082-1.6,4.162,2.348.9,4.709,1.768Q386.736,834.969,387.5,832.875Z" transform="translate(-73.282 16.773)" fill="#e5661d"/>
    <path id="Trazado_1383" data-name="Trazado 1383" d="M355.2,843.595q2.42,1.127,4.857,2.211l1.814-4.074q-2.4-1.07-4.787-2.179Z" transform="translate(-73.282 16.773)" fill="#e5661d"/>
    <path id="Trazado_1384" data-name="Trazado 1384" d="M361.873,841.732q2.4,1.07,4.823,2.1l1.745-4.1q-2.385-1.014-4.753-2.067Z" transform="translate(-73.282 16.773)" fill="#e5661d"/>
    <path id="Trazado_1385" data-name="Trazado 1385" d="M368.441,839.725q2.385,1.014,4.786,1.985.839-2.066,1.675-4.133-2.365-.959-4.716-1.956Q369.315,837.673,368.441,839.725Z" transform="translate(-73.282 16.773)" fill="#e5661d"/>
    <path id="Trazado_1386" data-name="Trazado 1386" d="M381.255,835.292q-2.348-.9-4.678-1.848-.837,2.066-1.675,4.133,2.367.958,4.749,1.876Q380.452,837.372,381.255,835.292Z" transform="translate(-73.282 16.773)" fill="#e5661d"/>
    <path id="Trazado_1387" data-name="Trazado 1387" d="M348.429,845.311q2.435,1.185,4.889,2.326l1.884-4.042q-2.42-1.126-4.82-2.293Z" transform="translate(-73.282 16.773)" fill="#e5661d"/>
    <path id="Trazado_1388" data-name="Trazado 1388" d="M347.621,834.95l-2.021,3.976q2.382,1.207,4.782,2.376l1.953-4.01Q349.968,836.142,347.621,834.95Z" transform="translate(-73.282 16.773)" fill="#e5661d"/>
    <path id="Trazado_1389" data-name="Trazado 1389" d="M345.035,828.587l-2.088,3.941q2.326,1.23,4.674,2.422,1.011-1.988,2.021-3.975Q347.329,829.8,345.035,828.587Z" transform="translate(-73.282 16.773)" fill="#e5661d"/>
    <path id="Trazado_1390" data-name="Trazado 1390" d="M342.623,822.216l-2.156,3.9q2.274,1.253,4.568,2.467l2.089-3.941Q344.864,823.451,342.623,822.216Z" transform="translate(-73.282 16.773)" fill="#e5661d"/>
    <path id="Trazado_1391" data-name="Trazado 1391" d="M340.384,815.841q-1.11,1.934-2.222,3.867,2.22,1.273,4.461,2.508l2.156-3.905Q342.571,817.1,340.384,815.841Z" transform="translate(-73.282 16.773)" fill="#e5661d"/>
    <path id="Trazado_1392" data-name="Trazado 1392" d="M338.318,809.466q-1.143,1.914-2.288,3.828,2.168,1.292,4.354,2.547,1.111-1.934,2.222-3.867Q340.452,810.738,338.318,809.466Z" transform="translate(-73.282 16.773)" fill="#e5661d"/>
    <path id="Trazado_1393" data-name="Trazado 1393" d="M308.852,817q2.205,1.53,4.434,3.019l2.482-3.706q-2.2-1.469-4.371-2.976Z" transform="translate(-73.282 16.773)" fill="#e5661d"/>
    <path id="Trazado_1394" data-name="Trazado 1394" d="M315.768,816.315q2.2,1.469,4.418,2.9l2.418-3.749q-2.189-1.409-4.354-2.856Q317.008,814.461,315.768,816.315Z" transform="translate(-73.282 16.773)" fill="#e5661d"/>
    <path id="Trazado_1395" data-name="Trazado 1395" d="M322.6,815.465q2.188,1.41,4.4,2.78,1.176-1.9,2.353-3.789-2.178-1.35-4.334-2.739Z" transform="translate(-73.282 16.773)" fill="#e5661d"/>
    <path id="Trazado_1396" data-name="Trazado 1396" d="M336.023,813.29q-2.168-1.293-4.313-2.623l-2.354,3.789q2.18,1.35,4.378,2.662Z" transform="translate(-73.282 16.773)" fill="#e5661d"/>
    <path id="Trazado_1397" data-name="Trazado 1397" d="M198.428,694.318a318.244,318.244,0,0,1-28.237-164.067l-5.513-.527a324.322,324.322,0,0,0,137.689,296.6l3.155-4.551A318.24,318.24,0,0,1,198.428,694.318Z" transform="translate(-73.282 16.773)" fill="#e5661d"/>
    <path id="Trazado_1398" data-name="Trazado 1398" d="M225.59,681.69l0,.009,0,.008h0a288.3,288.3,0,0,0,97.025,115.47l3.156-4.551A283.254,283.254,0,0,1,205.532,533.579l-5.512-.527A288.305,288.305,0,0,0,225.59,681.69Z" transform="translate(-73.282 16.773)" fill="#e5661d"/>
    <path id="Trazado_1399" data-name="Trazado 1399" d="M301.858,817.524q2.211,1.59,4.448,3.141L308.852,817q-2.206-1.529-4.386-3.1Q303.161,815.714,301.858,817.524Z" transform="translate(-73.282 16.773)" fill="#e5661d"/>
    <path id="Trazado_1400" data-name="Trazado 1400" d="M302.8,807.155l-2.67,3.574q2.156,1.608,4.337,3.176l2.607-3.619Q304.924,808.74,302.8,807.155Z" transform="translate(-73.282 16.773)" fill="#e5661d"/>
    <path id="Trazado_1401" data-name="Trazado 1401" d="M301.306,800.422q-1.367,1.762-2.731,3.527,2.1,1.622,4.224,3.206l2.67-3.573Q303.375,802.021,301.306,800.422Z" transform="translate(-73.282 16.773)" fill="#e5661d"/>
    <path id="Trazado_1402" data-name="Trazado 1402" d="M299.985,793.707l-2.791,3.479q2.043,1.637,4.112,3.236l2.73-3.528Q302,795.319,299.985,793.707Z" transform="translate(-73.282 16.773)" fill="#e5661d"/>
    <path id="Trazado_1403" data-name="Trazado 1403" d="M298.835,787.014l-2.851,3.431q1.987,1.65,4,3.262l2.791-3.48Q300.793,788.639,298.835,787.014Z" transform="translate(-73.282 16.773)" fill="#e5661d"/>
    <path id="Trazado_1404" data-name="Trazado 1404" d="M297.855,780.348l-2.91,3.382q1.932,1.659,3.89,3.284l2.85-3.431Q299.757,781.984,297.855,780.348Z" transform="translate(-73.282 16.773)" fill="#e5661d"/>
    <path id="Trazado_1406" data-name="Trazado 1406" d="M274.345,783.118q1.934,1.848,3.9,3.658l3.025-3.279q-1.935-1.784-3.842-3.6Z" transform="translate(-73.282 16.773)" fill="#e5661d"/>
    <path id="Trazado_1407" data-name="Trazado 1407" d="M281.268,783.5q1.935,1.783,3.9,3.531l2.967-3.33q-1.934-1.722-3.84-3.48Z" transform="translate(-73.282 16.773)" fill="#e5661d"/>
    <path id="Trazado_1408" data-name="Trazado 1408" d="M294.938,783.724q-1.93-1.66-3.837-3.357-1.484,1.667-2.968,3.331,1.935,1.722,3.9,3.407Z" transform="translate(-73.282 16.773)" fill="#e5661d"/>
    <path id="Trazado_1242" data-name="Trazado 1242" d="M203.183,679.665l-4.112,1.728q1.108,2.631,2.268,5.251l4.079-1.8Q204.275,682.258,203.183,679.665Z" transform="translate(-73.282 16.773)" fill="#e5661d"/>
    <path id="Trazado_1243" data-name="Trazado 1243" d="M205.192,672.817l-4.142,1.653q1.041,2.6,2.133,5.2l4.111-1.728Q206.218,675.381,205.192,672.817Z" transform="translate(-73.282 16.773)" fill="#e5661d"/>
    <path id="Trazado_1244" data-name="Trazado 1244" d="M207.362,666.1l-4.172,1.577q.977,2.574,2,5.138l4.142-1.653Q208.323,668.637,207.362,666.1Z" transform="translate(-73.282 16.773)" fill="#e5661d"/>
    <path id="Trazado_1245" data-name="Trazado 1245" d="M209.687,659.522l-4.2,1.5q.913,2.543,1.875,5.078l4.171-1.578Q210.586,662.027,209.687,659.522Z" transform="translate(-73.282 16.773)" fill="#e5661d"/>
    <path id="Trazado_1246" data-name="Trazado 1246" d="M212.162,653.078l-4.226,1.426q.852,2.512,1.751,5.018l4.2-1.5Q213,655.552,212.162,653.078Z" transform="translate(-73.282 16.773)" fill="#e5661d"/>
    <path id="Trazado_1247" data-name="Trazado 1247" d="M190.366,642.954q-.741-2.645-1.432-5.3l-4.317,1.12q.7,2.689,1.452,5.373Z" transform="translate(-73.282 16.773)" fill="#e5661d"/>
    <path id="Trazado_1248" data-name="Trazado 1248" d="M196.171,646.966q-.779-2.6-1.508-5.209l-4.3,1.2q.739,2.646,1.53,5.285Z" transform="translate(-73.282 16.773)" fill="#e5661d"/>
    <path id="Trazado_1249" data-name="Trazado 1249" d="M202.028,650.813q-.816-2.556-1.583-5.12l-4.274,1.273q.778,2.6,1.606,5.2Z" transform="translate(-73.282 16.773)" fill="#e5661d"/>
    <path id="Trazado_1250" data-name="Trazado 1250" d="M207.933,654.495q-.851-2.512-1.654-5.031l-4.251,1.349q.816,2.558,1.679,5.108Z" transform="translate(-73.282 16.773)" fill="#e5661d"/>
    <path id="Trazado_1251" data-name="Trazado 1251" d="M180.3,639.9l4.318-1.12q-.7-2.688-1.352-5.382l-4.337,1.043Q179.588,637.172,180.3,639.9Z" transform="translate(-73.282 16.773)" fill="#e5661d"/>
    <path id="Trazado_1252" data-name="Trazado 1252" d="M186.367,627.038l-4.355.966q.6,2.7,1.253,5.392l4.336-1.044Q186.96,629.7,186.367,627.038Z" transform="translate(-73.282 16.773)" fill="#e5661d"/>
    <path id="Trazado_1253" data-name="Trazado 1253" d="M189.6,620.826l-4.371.889q.544,2.662,1.138,5.323l4.354-.967Q190.136,623.45,189.6,620.826Z" transform="translate(-73.282 16.773)" fill="#e5661d"/>
    <path id="Trazado_1254" data-name="Trazado 1254" d="M192.962,614.762l-4.387.812q.489,2.628,1.025,5.252l4.372-.89Q193.443,617.35,192.962,614.762Z" transform="translate(-73.282 16.773)" fill="#e5661d"/>
    <path id="Trazado_1255" data-name="Trazado 1255" d="M196.446,608.847l-4.4.735q.434,2.592.916,5.18l4.386-.813Q196.873,611.4,196.446,608.847Z" transform="translate(-73.282 16.773)" fill="#e5661d"/>
    <path id="Trazado_1256" data-name="Trazado 1256" d="M200.048,603.083l-4.412.658q.381,2.554.81,5.106l4.4-.735Q200.423,605.6,200.048,603.083Z" transform="translate(-73.282 16.773)" fill="#e5661d"/>
    <path id="Trazado_1257" data-name="Trazado 1257" d="M180.432,589.68q-.257-2.672-.465-5.343l-4.448.349q.213,2.709.473,5.42Z" transform="translate(-73.282 16.773)" fill="#e5661d"/>
    <path id="Trazado_1258" data-name="Trazado 1258" d="M185.425,594.519q-.3-2.633-.552-5.265l-4.441.426q.256,2.67.56,5.343Z" transform="translate(-73.282 16.773)" fill="#e5661d"/>
    <path id="Trazado_1259" data-name="Trazado 1259" d="M190.493,599.2q-.34-2.594-.636-5.188l-4.432.5q.3,2.633.645,5.266Z" transform="translate(-73.282 16.773)" fill="#e5661d"/>
    <path id="Trazado_1260" data-name="Trazado 1260" d="M195.634,603.732q-.381-2.555-.718-5.109l-4.423.581q.342,2.594.729,5.186Z" transform="translate(-73.282 16.773)" fill="#e5661d"/>
    <path id="Trazado_1261" data-name="Trazado 1261" d="M171.072,585.035l4.447-.349q-.211-2.709-.376-5.418l-4.453.272Q170.858,582.286,171.072,585.035Z" transform="translate(-73.282 16.773)" fill="#e5661d"/>
    <path id="Trazado_1262" data-name="Trazado 1262" d="M179.318,573.659l-4.456.194q.117,2.706.281,5.415L179.6,579Q179.434,576.327,179.318,573.659Z" transform="translate(-73.282 16.773)" fill="#e5661d"/>
    <path id="Trazado_1263" data-name="Trazado 1263" d="M183.594,568.208l-4.459.117q.067,2.667.183,5.334l4.457-.194Q183.661,570.835,183.594,568.208Z" transform="translate(-73.282 16.773)" fill="#e5661d"/>
    <path id="Trazado_1264" data-name="Trazado 1264" d="M187.965,562.917l-4.461.04q.022,2.624.09,5.251l4.459-.117Q187.987,565.5,187.965,562.917Z" transform="translate(-73.282 16.773)" fill="#e5661d"/>
    <path id="Trazado_1265" data-name="Trazado 1265" d="M192.428,557.786l-4.461-.037q-.024,2.581,0,5.168l4.461-.04Q192.4,560.33,192.428,557.786Z" transform="translate(-73.282 16.773)" fill="#e5661d"/>
    <path id="Trazado_1266" data-name="Trazado 1266" d="M196.976,552.816l-4.459-.114q-.066,2.539-.089,5.084l4.46.037Q196.91,555.318,196.976,552.816Z" transform="translate(-73.282 16.773)" fill="#e5661d"/>
    <path id="Trazado_1267" data-name="Trazado 1267" d="M179.971,536.463q.206-2.639.458-5.272l-4.441-.421q-.255,2.672-.465,5.349Z" transform="translate(-73.282 16.773)" fill="#e5661d"/>
    <path id="Trazado_1268" data-name="Trazado 1268" d="M184.055,542.016q.159-2.607.363-5.209l-4.447-.344q-.207,2.64-.368,5.286Z" transform="translate(-73.282 16.773)" fill="#e5661d"/>
    <path id="Trazado_1269" data-name="Trazado 1269" d="M188.239,547.426q.112-2.573.269-5.142l-4.453-.268q-.159,2.607-.273,5.22Z" transform="translate(-73.282 16.773)" fill="#e5661d"/>
    <path id="Trazado_1270" data-name="Trazado 1270" d="M192.518,552.693q.066-2.539.177-5.075l-4.456-.192q-.112,2.575-.181,5.153Z" transform="translate(-73.282 16.773)" fill="#e5661d"/>
    <path id="Trazado_1271" data-name="Trazado 1271" d="M225.709,378.506l-4.552-3.155A325.926,325.926,0,0,0,164.681,529.69l5.513.527A320.374,320.374,0,0,1,225.709,378.506Z" transform="translate(-73.282 16.773)" fill="#e5661d"/>
    <path id="Trazado_1272" data-name="Trazado 1272" d="M205.533,533.564a284.694,284.694,0,0,1,49.336-134.816l-4.551-3.156a290.216,290.216,0,0,0-50.3,137.445Z" transform="translate(-73.282 16.773)" fill="#e5661d"/>
    <path id="Trazado_1273" data-name="Trazado 1273" d="M171.548,530.35l4.44.42q.256-2.672.557-5.336l-4.433-.5Q171.807,527.64,171.548,530.35Z" transform="translate(-73.282 16.773)" fill="#e5661d"/>
    <path id="Trazado_1274" data-name="Trazado 1274" d="M181.616,520.685l-4.424-.572q-.345,2.656-.647,5.321l4.433.5Q181.274,523.3,181.616,520.685Z" transform="translate(-73.282 16.773)" fill="#e5661d"/>
    <path id="Trazado_1275" data-name="Trazado 1275" d="M186.756,516.1l-4.413-.648q-.386,2.61-.727,5.229l4.423.573Q186.375,518.676,186.756,516.1Z" transform="translate(-73.282 16.773)" fill="#e5661d"/>
    <path id="Trazado_1276" data-name="Trazado 1276" d="M191.961,511.69l-4.4-.724q-.423,2.565-.8,5.138l4.413.648Q191.544,514.217,191.961,511.69Z" transform="translate(-73.282 16.773)" fill="#e5661d"/>
    <path id="Trazado_1277" data-name="Trazado 1277" d="M197.227,507.444l-4.388-.8q-.461,2.519-.878,5.045l4.4.723Q196.774,509.924,197.227,507.444Z" transform="translate(-73.282 16.773)" fill="#e5661d"/>
    <path id="Trazado_1278" data-name="Trazado 1278" d="M202.55,503.366l-4.373-.873q-.5,2.471-.95,4.951l4.388.8Q202.062,505.8,202.55,503.366Z" transform="translate(-73.282 16.773)" fill="#e5661d"/>
    <path id="Trazado_1279" data-name="Trazado 1279" d="M188.558,484.462q.649-2.552,1.34-5.089l-4.3-1.17q-.7,2.576-1.36,5.162Z" transform="translate(-73.282 16.773)" fill="#e5661d"/>
    <path id="Trazado_1280" data-name="Trazado 1280" d="M191.646,490.6q.6-2.525,1.235-5.038l-4.323-1.1q-.648,2.549-1.253,5.111Z" transform="translate(-73.282 16.773)" fill="#e5661d"/>
    <path id="Trazado_1281" data-name="Trazado 1281" d="M194.853,496.6q.546-2.5,1.134-4.986l-4.341-1.022q-.6,2.524-1.151,5.06Z" transform="translate(-73.282 16.773)" fill="#e5661d"/>
    <path id="Trazado_1282" data-name="Trazado 1282" d="M198.178,502.484q.5-2.471,1.033-4.932l-4.358-.948q-.544,2.5-1.048,5.006Z" transform="translate(-73.282 16.773)" fill="#e5661d"/>
    <path id="Trazado_1283" data-name="Trazado 1283" d="M181.291,477.033l4.3,1.17q.7-2.574,1.446-5.136l-4.283-1.244Q182,474.423,181.291,477.033Z" transform="translate(-73.282 16.773)" fill="#e5661d"/>
    <path id="Trazado_1284" data-name="Trazado 1284" d="M192.835,469.273l-4.261-1.316q-.788,2.549-1.533,5.11l4.283,1.243Q192.058,471.786,192.835,469.273Z" transform="translate(-73.282 16.773)" fill="#e5661d"/>
    <path id="Trazado_1285" data-name="Trazado 1285" d="M198.669,465.652l-4.238-1.389q-.819,2.5-1.6,5.01l4.261,1.317Q197.861,468.113,198.669,465.652Z" transform="translate(-73.282 16.773)" fill="#e5661d"/>
    <path id="Trazado_1286" data-name="Trazado 1286" d="M204.539,462.2l-4.214-1.46q-.849,2.446-1.656,4.909l4.238,1.389Q203.7,464.616,204.539,462.2Z" transform="translate(-73.282 16.773)" fill="#e5661d"/>
    <path id="Trazado_1287" data-name="Trazado 1287" d="M210.441,458.927l-4.188-1.533q-.878,2.4-1.714,4.809,2.107.732,4.214,1.461Q209.576,461.288,210.441,458.927Z" transform="translate(-73.282 16.773)" fill="#e5661d"/>
    <path id="Trazado_1288" data-name="Trazado 1288" d="M216.37,455.823l-4.161-1.6q-.9,2.346-1.768,4.708l4.188,1.533Q215.479,458.133,216.37,455.823Z" transform="translate(-73.282 16.773)" fill="#e5661d"/>
    <path id="Trazado_1289" data-name="Trazado 1289" d="M205.772,434.83q1.069-2.4,2.179-4.788-2.021-.94-4.042-1.884-1.126,2.421-2.211,4.857Z" transform="translate(-73.282 16.773)" fill="#e5661d"/>
    <path id="Trazado_1290" data-name="Trazado 1290" d="M207.779,441.4q1.012-2.385,2.067-4.753l-4.074-1.814q-1.069,2.4-2.1,4.823Z" transform="translate(-73.282 16.773)" fill="#e5661d"/>
    <path id="Trazado_1291" data-name="Trazado 1291" d="M209.927,447.859q.958-2.367,1.956-4.716l-4.1-1.746q-1.013,2.387-1.986,4.787Z" transform="translate(-73.282 16.773)" fill="#e5661d"/>
    <path id="Trazado_1292" data-name="Trazado 1292" d="M212.212,454.211q.9-2.348,1.848-4.678l-4.133-1.674q-.959,2.365-1.876,4.748Z" transform="translate(-73.282 16.773)" fill="#e5661d"/>
    <path id="Trazado_1293" data-name="Trazado 1293" d="M199.866,426.274q2.022.942,4.043,1.884,1.125-2.418,2.293-4.82l-4.009-1.952Q201.008,423.821,199.866,426.274Z" transform="translate(-73.282 16.773)" fill="#e5661d"/>
    <path id="Trazado_1294" data-name="Trazado 1294" d="M212.554,420.578l-3.976-2.021q-1.209,2.381-2.376,4.781l4.01,1.953Q211.363,422.925,212.554,420.578Z" transform="translate(-73.282 16.773)" fill="#e5661d"/>
    <path id="Trazado_1295" data-name="Trazado 1295" d="M218.917,417.992l-3.941-2.089q-1.231,2.328-2.422,4.675l3.975,2.021Q217.7,420.286,218.917,417.992Z" transform="translate(-73.282 16.773)" fill="#e5661d"/>
    <path id="Trazado_1296" data-name="Trazado 1296" d="M225.288,415.58l-3.9-2.156q-1.254,2.274-2.467,4.568l3.941,2.088Q224.053,417.82,225.288,415.58Z" transform="translate(-73.282 16.773)" fill="#e5661d"/>
    <path id="Trazado_1297" data-name="Trazado 1297" d="M231.663,413.341l-3.867-2.223q-1.273,2.221-2.508,4.462l3.9,2.155Q230.408,415.529,231.663,413.341Z" transform="translate(-73.282 16.773)" fill="#e5661d"/>
    <path id="Trazado_1298" data-name="Trazado 1298" d="M238.038,411.275l-3.828-2.288q-1.293,2.166-2.547,4.354l3.867,2.222Q236.766,413.409,238.038,411.275Z" transform="translate(-73.282 16.773)" fill="#e5661d"/>
    <path id="Trazado_1299" data-name="Trazado 1299" d="M231.189,388.724q1.469-2.2,2.976-4.371l-3.663-2.545q-1.53,2.205-3.019,4.434Z" transform="translate(-73.282 16.773)" fill="#e5661d"/>
    <path id="Trazado_1300" data-name="Trazado 1300" d="M232.038,395.561q1.41-2.19,2.857-4.355l-3.706-2.482q-1.468,2.2-2.9,4.419Z" transform="translate(-73.282 16.773)" fill="#e5661d"/>
    <path id="Trazado_1301" data-name="Trazado 1301" d="M233.048,402.313q1.35-2.178,2.738-4.335l-3.748-2.417q-1.408,2.188-2.779,4.4Z" transform="translate(-73.282 16.773)" fill="#e5661d"/>
    <path id="Trazado_1302" data-name="Trazado 1302" d="M234.214,408.979q1.293-2.166,2.623-4.312l-3.789-2.354q-1.35,2.178-2.662,4.378Z" transform="translate(-73.282 16.773)" fill="#e5661d"/>
    <path id="Trazado_1304" data-name="Trazado 1304" d="M226.839,379.263l3.663,2.545q1.528-2.205,3.1-4.386l-3.619-2.608Q228.39,377.025,226.839,379.263Z" transform="translate(-73.282 16.773)" fill="#e5661d"/>
    <path id="Trazado_1305" data-name="Trazado 1305" d="M240.348,375.756l-3.573-2.67q-1.608,2.156-3.176,4.336l3.619,2.608Q238.764,377.88,240.348,375.756Z" transform="translate(-73.282 16.773)" fill="#e5661d"/>
    <path id="Trazado_1306" data-name="Trazado 1306" d="M247.082,374.262l-3.527-2.731q-1.623,2.1-3.207,4.225,1.788,1.333,3.574,2.669Q245.483,376.331,247.082,374.262Z" transform="translate(-73.282 16.773)" fill="#e5661d"/>
    <path id="Trazado_1307" data-name="Trazado 1307" d="M253.8,372.941l-3.479-2.791q-1.636,2.043-3.236,4.112l3.527,2.731Q252.186,374.954,253.8,372.941Z" transform="translate(-73.282 16.773)" fill="#e5661d"/>
    <path id="Trazado_1308" data-name="Trazado 1308" d="M260.49,371.791q-1.716-1.425-3.431-2.851-1.65,1.988-3.262,4l3.48,2.791Q258.865,373.749,260.49,371.791Z" transform="translate(-73.282 16.773)" fill="#e5661d"/>
    <path id="Trazado_1309" data-name="Trazado 1309" d="M267.156,370.811l-3.382-2.91q-1.66,1.932-3.284,3.89l3.431,2.851Q265.52,372.713,267.156,370.811Z" transform="translate(-73.282 16.773)" fill="#e5661d"/>
    <path id="Trazado_1310" data-name="Trazado 1310" d="M264.385,347.3q1.848-1.934,3.731-3.839l-3.172-3.137q-1.911,1.932-3.784,3.895Z" transform="translate(-73.282 16.773)" fill="#e5661d"/>
    <path id="Trazado_1311" data-name="Trazado 1311" d="M264.007,354.224q1.784-1.935,3.6-3.841l-3.226-3.082q-1.847,1.935-3.657,3.9Z" transform="translate(-73.282 16.773)" fill="#e5661d"/>
    <path id="Trazado_1312" data-name="Trazado 1312" d="M263.806,361.09q1.722-1.934,3.48-3.841l-3.279-3.025q-1.783,1.935-3.532,3.9Z" transform="translate(-73.282 16.773)" fill="#e5661d"/>
    <path id="Trazado_1313" data-name="Trazado 1313" d="M263.78,367.895q1.66-1.932,3.356-3.837l-3.33-2.968q-1.722,1.934-3.407,3.895Z" transform="translate(-73.282 16.773)" fill="#e5661d"/>
    <path id="Trazado_1314" data-name="Trazado 1314" d="M264.944,340.325q1.911-1.932,3.859-3.835l-3.117-3.192q-1.976,1.93-3.913,3.89Z" transform="translate(-73.282 16.773)" fill="#e5661d"/>
    <path id="Trazado_1315" data-name="Trazado 1315" d="M275.8,335.962l-3.06-3.245q-1.986,1.87-3.933,3.773l3.117,3.192Q273.84,337.807,275.8,335.962Z" transform="translate(-73.282 16.773)" fill="#e5661d"/>
    <path id="Trazado_1405" data-name="Trazado 1405" d="M267.368,782.56q1.934,1.91,3.9,3.784l3.081-3.226q-1.935-1.846-3.84-3.73Z" transform="translate(-73.282 16.773)" fill="#e5661d"/>
    <path id="Trazado_1409" data-name="Trazado 1409" d="M260.342,781.818q1.929,1.976,3.889,3.913l3.137-3.171q-1.932-1.911-3.834-3.859Z" transform="translate(-73.282 16.773)" fill="#e5661d"/>
    <path id="Trazado_1410" data-name="Trazado 1410" d="M263.006,771.708l-3.246,3.06q1.872,1.984,3.774,3.933l3.191-3.117Q264.85,773.664,263.006,771.708Z" transform="translate(-73.282 16.773)" fill="#e5661d"/>
    <path id="Trazado_1411" data-name="Trazado 1411" d="M262.646,764.756l-3.3,3q1.814,1.992,3.658,3.949l3.245-3.061Q264.433,766.72,262.646,764.756Z" transform="translate(-73.282 16.773)" fill="#e5661d"/>
    <path id="Trazado_1412" data-name="Trazado 1412" d="M262.454,757.848l-3.35,2.945q1.755,2,3.542,3.963l3.3-3Q264.184,759.817,262.454,757.848Z" transform="translate(-73.282 16.773)" fill="#e5661d"/>
    <path id="Trazado_1413" data-name="Trazado 1413" d="M262.427,750.988l-3.4,2.886q1.7,2,3.428,3.974L265.8,754.9Q264.1,752.962,262.427,750.988Z" transform="translate(-73.282 16.773)" fill="#e5661d"/>
    <path id="Trazado_1414" data-name="Trazado 1414" d="M262.564,744.18l-3.451,2.826q1.641,2.008,3.314,3.982l3.4-2.886Q264.181,746.158,262.564,744.18Z" transform="translate(-73.282 16.773)" fill="#e5661d"/>
    <path id="Trazado_1415" data-name="Trazado 1415" d="M231.925,740.7q1.6,2.271,3.239,4.508l3.6-2.639q-1.614-2.205-3.193-4.443Z" transform="translate(-73.282 16.773)" fill="#e5661d"/>
    <path id="Trazado_1416" data-name="Trazado 1416" d="M238.76,742.565q1.614,2.2,3.262,4.373l3.549-2.7q-1.624-2.138-3.215-4.31Z" transform="translate(-73.282 16.773)" fill="#e5661d"/>
    <path id="Trazado_1417" data-name="Trazado 1417" d="M245.571,744.236q1.625,2.139,3.283,4.242l3.5-2.764q-1.633-2.073-3.235-4.18Z" transform="translate(-73.282 16.773)" fill="#e5661d"/>
    <path id="Trazado_1418" data-name="Trazado 1418" d="M259.107,747q-1.641-2.009-3.251-4.05l-3.5,2.765q1.634,2.071,3.3,4.111Z" transform="translate(-73.282 16.773)" fill="#e5661d"/>
    <path id="Trazado_1419" data-name="Trazado 1419" d="M225.071,738.629q1.587,2.338,3.212,4.642l3.642-2.575q-1.6-2.271-3.166-4.576Z" transform="translate(-73.282 16.773)" fill="#e5661d"/>
    <path id="Trazado_1420" data-name="Trazado 1420" d="M229.4,729.03l-3.732,2.443q1.529,2.34,3.094,4.647l3.687-2.51Q230.9,731.337,229.4,729.03Z" transform="translate(-73.282 16.773)" fill="#e5661d"/>
    <path id="Trazado_1421" data-name="Trazado 1421" d="M230.2,722.006l-3.774,2.376q1.469,2.34,2.975,4.648l3.732-2.443Q231.644,724.313,230.2,722.006Z" transform="translate(-73.282 16.773)" fill="#e5661d"/>
    <path id="Trazado_1422" data-name="Trazado 1422" d="M231.154,715.05l-3.817,2.308q1.411,2.342,2.859,4.648l3.775-2.376Q232.545,717.357,231.154,715.05Z" transform="translate(-73.282 16.773)" fill="#e5661d"/>
    <path id="Trazado_1423" data-name="Trazado 1423" d="M232.268,708.168l-3.858,2.238q1.353,2.339,2.744,4.644l3.817-2.307Q233.6,710.472,232.268,708.168Z" transform="translate(-73.282 16.773)" fill="#e5661d"/>
    <path id="Trazado_1424" data-name="Trazado 1424" d="M233.536,701.36l-3.9,2.168q1.3,2.336,2.629,4.64l3.858-2.239Q234.814,703.661,233.536,701.36Z" transform="translate(-73.282 16.773)" fill="#e5661d"/>
    <path id="Trazado_1425" data-name="Trazado 1425" d="M203.7,691.842q-1.2-2.594-2.356-5.2l-4.079,1.8q1.175,2.658,2.4,5.3l4.045-1.877-.007-.017q1.208,2.6,2.457,5.171l4.01-1.952q-1.235-2.54-2.43-5.113Z" transform="translate(-73.282 16.773)" fill="#e5661d"/>
    <path id="Trazado_1426" data-name="Trazado 1426" d="M210.169,695.077q1.236,2.541,2.511,5.048l3.974-2.025q-1.257-2.47-2.475-4.974Z" transform="translate(-73.282 16.773)" fill="#e5661d"/>
    <path id="Trazado_1427" data-name="Trazado 1427" d="M216.654,698.1q1.257,2.472,2.553,4.911l3.936-2.1q-1.276-2.4-2.516-4.839Z" transform="translate(-73.282 16.773)" fill="#e5661d"/>
    <path id="Trazado_1428" data-name="Trazado 1428" d="M229.634,703.52q-1.3-2.336-2.554-4.7l-3.937,2.1q1.278,2.4,2.594,4.774Z" transform="translate(-73.282 16.773)" fill="#e5661d"/>
  </g>
</svg>
