<svg xmlns="http://www.w3.org/2000/svg" width="329.641" height="329.459" viewBox="0 0 329.641 329.459">
  <g id="Grupo_467" data-name="Grupo 467" transform="translate(0)">
    <g id="Grupo_379" data-name="Grupo 379" transform="translate(0 62.857)">
      <g id="Grupo_357" data-name="Grupo 357" transform="translate(22.392 159.678)">
        <g id="Grupo_351" data-name="Grupo 351" transform="translate(27.51)">
          <path id="Trazado_1482" data-name="Trazado 1482" d="M1608.379,854a128.5,128.5,0,0,0-.217,58.585l-2.7.6a131.261,131.261,0,0,1,.231-59.855Z" transform="translate(-1602.12 -853.333)" fill="#fff"/>
        </g>
        <g id="Grupo_352" data-name="Grupo 352" transform="translate(0 15.171)">
          <path id="Trazado_1483" data-name="Trazado 1483" d="M1648.251,877.183l-.248,2.759a145.1,145.1,0,0,1-57.059-18.027l1.349-2.42A142.255,142.255,0,0,0,1648.251,877.183Z" transform="translate(-1590.944 -859.496)" fill="#fff"/>
        </g>
        <g id="Grupo_353" data-name="Grupo 353" transform="translate(8.039 36.594)">
          <path id="Trazado_1484" data-name="Trazado 1484" d="M1595.238,868.581c1.442-.975,3.793-.017,5.332,2.1s1.733,4.66.362,5.728-3.852.182-5.457-2.028S1593.8,869.553,1595.238,868.581Z" transform="translate(-1594.21 -868.199)" fill="#fff"/>
        </g>
        <g id="Grupo_354" data-name="Grupo 354" transform="translate(42.564 12.492)">
          <path id="Trazado_1485" data-name="Trazado 1485" d="M1613.742,864.774a3.657,3.657,0,0,1-4.261-5.874,3.674,3.674,0,0,1,4.261,5.874Z" transform="translate(-1608.235 -858.408)" fill="#fff"/>
        </g>
        <g id="Grupo_355" data-name="Grupo 355" transform="translate(44.182 46.132)">
          <path id="Trazado_1486" data-name="Trazado 1486" d="M1610.605,878.141c-1.819-1.686-2.243-4.092-1.014-5.322s3.569-.9,5.3.709,2.26,3.931,1.123,5.248S1612.424,879.83,1610.605,878.141Z" transform="translate(-1608.892 -872.073)" fill="#fff"/>
        </g>
        <g id="Grupo_356" data-name="Grupo 356" transform="translate(11.364 0.272)">
          <path id="Trazado_1487" data-name="Trazado 1487" d="M1601.763,856.086c.945,2.021.51,4.278-1.041,5.068s-3.67-.273-4.663-2.4-.445-4.424,1.152-5.108S1600.818,854.065,1601.763,856.086Z" transform="translate(-1595.561 -853.443)" fill="#fff"/>
        </g>
      </g>
      <g id="Grupo_364" data-name="Grupo 364" transform="translate(4.105 106.99)">
        <g id="Grupo_358" data-name="Grupo 358" transform="translate(13.514 5.995)">
          <path id="Trazado_1488" data-name="Trazado 1488" d="M1613.967,835.98a133.9,133.9,0,0,0-22.242,53l-2.72-.515a136.71,136.71,0,0,1,22.711-54.1Z" transform="translate(-1589.005 -834.365)" fill="#fff"/>
        </g>
        <g id="Grupo_359" data-name="Grupo 359" transform="translate(0.888 9.329)">
          <path id="Trazado_1489" data-name="Trazado 1489" d="M1631.089,871.317l-1.2,2.5a140,140,0,0,1-46.014-36.314l2.122-1.78A137.212,137.212,0,0,0,1631.089,871.317Z" transform="translate(-1583.876 -835.719)" fill="#fff"/>
        </g>
        <g id="Grupo_360" data-name="Grupo 360" transform="translate(0 31.928)">
          <path id="Trazado_1490" data-name="Trazado 1490" d="M1585.676,844.952c1.7-.379,3.52,1.317,4.153,3.769s-.148,4.822-1.817,5.312-3.621-1.174-4.281-3.739S1583.98,845.331,1585.676,844.952Z" transform="translate(-1583.516 -844.899)" fill="#fff"/>
        </g>
        <g id="Grupo_361" data-name="Grupo 361" transform="translate(40.918 22.308)">
          <path id="Trazado_1491" data-name="Trazado 1491" d="M1604.231,847.875a3.532,3.532,0,0,1-1.741-6.814,3.545,3.545,0,0,1,1.741,6.814Z" transform="translate(-1600.138 -840.992)" fill="#fff"/>
        </g>
        <g id="Grupo_362" data-name="Grupo 362" transform="translate(29.718 53.105)">
          <path id="Trazado_1492" data-name="Trazado 1492" d="M1596.088,858.816c-1-2.125-.448-4.424,1.147-5.11s3.609.416,4.557,2.437.512,4.278-1.039,5.068S1597.083,860.943,1596.088,858.816Z" transform="translate(-1595.588 -853.502)" fill="#fff"/>
        </g>
        <g id="Grupo_363" data-name="Grupo 363" transform="translate(16.284)">
          <path id="Trazado_1493" data-name="Trazado 1493" d="M1596.424,835.805c.145,2.193-1.083,4.111-2.814,4.281s-3.316-1.556-3.468-3.865,1.189-4.232,2.927-4.291S1596.279,833.61,1596.424,835.805Z" transform="translate(-1590.13 -831.929)" fill="#fff"/>
        </g>
      </g>
      <g id="Grupo_371" data-name="Grupo 371" transform="translate(0 52.815)">
        <g id="Grupo_365" data-name="Grupo 365" transform="translate(4.242 12.003)">
          <path id="Trazado_1494" data-name="Trazado 1494" d="M1625.8,817.112a137.15,137.15,0,0,0-39.887,41.341l-2.343-1.479a139.985,139.985,0,0,1,40.706-42.176Z" transform="translate(-1583.571 -814.798)" fill="#fff"/>
        </g>
        <g id="Grupo_366" data-name="Grupo 366" transform="translate(10.158 3.067)">
          <path id="Trazado_1495" data-name="Trazado 1495" d="M1617.776,860.687l-2.014,1.9a136.72,136.72,0,0,1-29.789-50.545l2.627-.876A133.915,133.915,0,0,0,1617.776,860.687Z" transform="translate(-1585.974 -811.168)" fill="#fff"/>
        </g>
        <g id="Grupo_367" data-name="Grupo 367" transform="translate(0 23.989)">
          <path id="Trazado_1496" data-name="Trazado 1496" d="M1585.633,819.691c1.72.261,2.811,2.5,2.518,5.019s-1.876,4.438-3.609,4.293-2.954-2.4-2.646-5.032S1583.914,819.43,1585.633,819.691Z" transform="translate(-1581.848 -819.667)" fill="#fff"/>
        </g>
        <g id="Grupo_368" data-name="Grupo 368" transform="translate(41.968 29.901)">
          <path id="Trazado_1497" data-name="Trazado 1497" d="M1601.685,829.085a3.532,3.532,0,0,1,.829-6.984,3.544,3.544,0,0,1-.829,6.984Z" transform="translate(-1598.897 -822.069)" fill="#fff"/>
        </g>
        <g id="Grupo_369" data-name="Grupo 369" transform="translate(20.398 54.334)">
          <path id="Trazado_1498" data-name="Trazado 1498" d="M1590.146,836.287c-.155-2.309,1.186-4.231,2.925-4.291s3.21,1.674,3.358,3.87-1.078,4.111-2.809,4.283S1590.3,838.6,1590.146,836.287Z" transform="translate(-1590.134 -831.994)" fill="#fff"/>
        </g>
        <g id="Grupo_370" data-name="Grupo 370" transform="translate(26.758)">
          <path id="Trazado_1499" data-name="Trazado 1499" d="M1598.974,814.944c-.67,2.127-2.514,3.486-4.19,3.018s-2.523-2.673-1.817-4.911,2.664-3.572,4.3-2.994S1599.641,812.814,1598.974,814.944Z" transform="translate(-1592.718 -809.922)" fill="#fff"/>
        </g>
      </g>
      <g id="Grupo_378" data-name="Grupo 378" transform="translate(13.515)">
        <g id="Grupo_372" data-name="Grupo 372" transform="translate(0 20.488)">
          <path id="Trazado_1500" data-name="Trazado 1500" d="M1642.063,799.488A142.242,142.242,0,0,0,1589,824.54l-1.664-2.215a145.012,145.012,0,0,1,54.107-25.535Z" transform="translate(-1587.338 -796.79)" fill="#fff"/>
        </g>
        <g id="Grupo_373" data-name="Grupo 373" transform="translate(24.369)">
          <path id="Trazado_1501" data-name="Trazado 1501" d="M1608.609,846.715l-2.575,1.021a131.277,131.277,0,0,1-8.3-59.269l2.759.234A128.523,128.523,0,0,0,1608.609,846.715Z" transform="translate(-1597.238 -788.467)" fill="#fff"/>
        </g>
        <g id="Grupo_374" data-name="Grupo 374" transform="translate(5.006 16.796)">
          <path id="Trazado_1502" data-name="Trazado 1502" d="M1595.325,795.573c1.5.876,1.652,3.424.413,5.726s-3.441,3.562-5,2.792-1.844-3.368-.549-5.772S1593.823,794.7,1595.325,795.573Z" transform="translate(-1589.372 -795.29)" fill="#fff"/>
        </g>
        <g id="Grupo_375" data-name="Grupo 375" transform="translate(42.617 37.579)">
          <path id="Trazado_1503" data-name="Trazado 1503" d="M1606.245,810.486a3.658,3.658,0,0,1,3.452-6.385,3.675,3.675,0,0,1-3.452,6.385Z" transform="translate(-1604.65 -803.733)" fill="#fff"/>
        </g>
        <g id="Grupo_376" data-name="Grupo 376" transform="translate(13.195 52.968)">
          <path id="Trazado_1504" data-name="Trazado 1504" d="M1592.947,813.115c.7-2.238,2.661-3.572,4.3-3s2.373,2.757,1.709,4.884-2.511,3.491-4.187,3.025S1592.243,815.355,1592.947,813.115Z" transform="translate(-1592.698 -809.984)" fill="#fff"/>
        </g>
        <g id="Grupo_377" data-name="Grupo 377" transform="translate(39.705 3.431)">
          <path id="Trazado_1505" data-name="Trazado 1505" d="M1609.592,795.8c-1.5,1.819-3.779,2.467-5.16,1.408s-1.28-3.5.3-5.411,3.973-2.5,5.276-1.349S1611.091,793.979,1609.592,795.8Z" transform="translate(-1603.467 -789.861)" fill="#fff"/>
        </g>
      </g>
    </g>
    <g id="Grupo_408" data-name="Grupo 408" transform="translate(249.941 46.945)">
      <g id="Grupo_386" data-name="Grupo 386">
        <g id="Grupo_380" data-name="Grupo 380" transform="translate(23.538)">
          <path id="Trazado_1506" data-name="Trazado 1506" d="M1698.9,803a126.718,126.718,0,0,1-3.272,38.855l-2.688-.667a128.5,128.5,0,0,0,.217-58.585l2.7-.6A139.24,139.24,0,0,1,1698.9,803Z" transform="translate(-1692.943 -782.003)" fill="#fff"/>
        </g>
        <g id="Grupo_381" data-name="Grupo 381" transform="translate(0 24.24)">
          <path id="Trazado_1507" data-name="Trazado 1507" d="M1740.689,809.874l-1.349,2.42a142.273,142.273,0,0,0-55.959-17.687l.248-2.757A145.054,145.054,0,0,1,1740.689,809.874Z" transform="translate(-1683.381 -791.85)" fill="#fff"/>
        </g>
        <g id="Grupo_382" data-name="Grupo 382" transform="translate(41.627 14.604)">
          <path id="Trazado_1508" data-name="Trazado 1508" d="M1706.906,796.21c-1.443.975-3.794.017-5.332-2.095s-1.735-4.66-.362-5.728,3.85-.182,5.457,2.028S1708.346,795.238,1706.906,796.21Z" transform="translate(-1700.291 -787.935)" fill="#fff"/>
        </g>
        <g id="Grupo_383" data-name="Grupo 383" transform="translate(8.096 40.423)">
          <path id="Trazado_1509" data-name="Trazado 1509" d="M1687.811,799a3.657,3.657,0,0,1,4.261,5.874,3.674,3.674,0,0,1-4.261-5.874Z" transform="translate(-1686.67 -798.424)" fill="#fff"/>
        </g>
        <g id="Grupo_384" data-name="Grupo 384" transform="translate(5.401 6.187)">
          <path id="Trazado_1510" data-name="Trazado 1510" d="M1691.586,785.985c1.819,1.686,2.24,4.092,1.014,5.322s-3.569.9-5.3-.709-2.262-3.931-1.123-5.248S1689.767,784.3,1691.586,785.985Z" transform="translate(-1685.575 -784.516)" fill="#fff"/>
        </g>
        <g id="Grupo_385" data-name="Grupo 385" transform="translate(39.244 51.612)">
          <path id="Trazado_1511" data-name="Trazado 1511" d="M1699.818,808.3c-.943-2.021-.507-4.278,1.043-5.068s3.67.273,4.663,2.4.443,4.426-1.155,5.108S1700.763,810.319,1699.818,808.3Z" transform="translate(-1699.323 -802.969)" fill="#fff"/>
        </g>
      </g>
      <g id="Grupo_393" data-name="Grupo 393" transform="translate(27.494 51.468)">
        <g id="Grupo_387" data-name="Grupo 387" transform="translate(9.625 0.468)">
          <path id="Trazado_1512" data-name="Trazado 1512" d="M1723.421,803.615a136.68,136.68,0,0,1-22.713,54.1l-2.248-1.615a133.951,133.951,0,0,0,22.241-53Z" transform="translate(-1698.46 -803.101)" fill="#fff"/>
        </g>
        <g id="Grupo_388" data-name="Grupo 388" transform="translate(0 13.653)">
          <path id="Trazado_1513" data-name="Trazado 1513" d="M1741.76,844.771l-2.122,1.78a137.174,137.174,0,0,0-45.088-35.6l1.2-2.5A140,140,0,0,1,1741.76,844.771Z" transform="translate(-1694.55 -808.457)" fill="#fff"/>
        </g>
        <g id="Grupo_389" data-name="Grupo 389" transform="translate(41.568 19.928)">
          <path id="Trazado_1514" data-name="Trazado 1514" d="M1715.808,820.173c-1.7.379-3.523-1.315-4.156-3.769s.15-4.822,1.819-5.312,3.621,1.176,4.281,3.739S1717.5,819.794,1715.808,820.173Z" transform="translate(-1711.436 -811.006)" fill="#fff"/>
        </g>
        <g id="Grupo_390" data-name="Grupo 390" transform="translate(0.835 31.773)">
          <path id="Trazado_1515" data-name="Trazado 1515" d="M1697.141,815.929a3.533,3.533,0,0,1,1.743,6.814,3.545,3.545,0,0,1-1.743-6.814Z" transform="translate(-1694.889 -815.818)" fill="#fff"/>
        </g>
        <g id="Grupo_391" data-name="Grupo 391" transform="translate(11.681)">
          <path id="Trazado_1516" data-name="Trazado 1516" d="M1705.5,805.568c.994,2.125.448,4.424-1.15,5.11s-3.607-.416-4.554-2.437-.512-4.278,1.039-5.069S1704.5,803.441,1705.5,805.568Z" transform="translate(-1699.295 -802.911)" fill="#fff"/>
        </g>
        <g id="Grupo_392" data-name="Grupo 392" transform="translate(25.509 52.907)">
          <path id="Trazado_1517" data-name="Trazado 1517" d="M1704.924,828.7c-.143-2.193,1.086-4.109,2.816-4.281s3.316,1.556,3.468,3.865-1.192,4.232-2.927,4.291S1705.072,830.892,1704.924,828.7Z" transform="translate(-1704.913 -824.403)" fill="#fff"/>
        </g>
      </g>
      <g id="Grupo_400" data-name="Grupo 400" transform="translate(31.423 104.217)">
        <g id="Grupo_394" data-name="Grupo 394" transform="translate(1.804 6.843)">
          <path id="Trazado_1518" data-name="Trazado 1518" d="M1739.109,828.6a140.02,140.02,0,0,1-40.706,42.176l-1.524-2.314a137.174,137.174,0,0,0,39.887-41.341Z" transform="translate(-1696.879 -827.119)" fill="#fff"/>
        </g>
        <g id="Grupo_395" data-name="Grupo 395" transform="translate(6.317 8.013)">
          <path id="Trazado_1519" data-name="Trazado 1519" d="M1730.514,878.139l-2.627.876a133.983,133.983,0,0,0-29.175-49.519l2.011-1.9A136.706,136.706,0,0,1,1730.514,878.139Z" transform="translate(-1698.712 -827.594)" fill="#fff"/>
        </g>
        <g id="Grupo_396" data-name="Grupo 396" transform="translate(41.926 29.168)">
          <path id="Trazado_1520" data-name="Trazado 1520" d="M1715.741,845.508c-1.721-.261-2.808-2.5-2.516-5.019s1.873-4.438,3.609-4.293,2.954,2.4,2.646,5.031S1717.46,845.769,1715.741,845.508Z" transform="translate(-1713.178 -836.188)" fill="#fff"/>
        </g>
        <g id="Grupo_397" data-name="Grupo 397" transform="translate(0 25.573)">
          <path id="Trazado_1521" data-name="Trazado 1521" d="M1699.666,834.739a3.532,3.532,0,0,1-.829,6.984,3.544,3.544,0,0,1,.829-6.984Z" transform="translate(-1696.146 -834.728)" fill="#fff"/>
        </g>
        <g id="Grupo_398" data-name="Grupo 398" transform="translate(21.57)">
          <path id="Trazado_1522" data-name="Trazado 1522" d="M1711.2,828.214c.158,2.309-1.184,4.232-2.922,4.29s-3.21-1.674-3.36-3.867,1.081-4.113,2.811-4.286S1711.049,825.9,1711.2,828.214Z" transform="translate(-1704.909 -824.339)" fill="#fff"/>
        </g>
        <g id="Grupo_399" data-name="Grupo 399" transform="translate(15.015 54.369)">
          <path id="Trazado_1523" data-name="Trazado 1523" d="M1702.493,849.536c.67-2.127,2.513-3.486,4.19-3.018s2.521,2.673,1.817,4.911-2.664,3.572-4.3,2.993S1701.823,851.665,1702.493,849.536Z" transform="translate(-1702.246 -846.426)" fill="#fff"/>
        </g>
      </g>
      <g id="Grupo_407" data-name="Grupo 407" transform="translate(11.459 158.432)">
        <g id="Grupo_401" data-name="Grupo 401" transform="translate(0 12.862)">
          <path id="Trazado_1524" data-name="Trazado 1524" d="M1742.759,853.8a145.022,145.022,0,0,1-54.1,25.537l-.618-2.7a142.251,142.251,0,0,0,53.061-25.052Z" transform="translate(-1688.036 -851.588)" fill="#fff"/>
        </g>
        <g id="Grupo_402" data-name="Grupo 402" transform="translate(18.984 1.832)">
          <path id="Trazado_1525" data-name="Trazado 1525" d="M1706.814,885.4a139.02,139.02,0,0,1-.2,20.981l-2.759-.234a128.531,128.531,0,0,0-8.111-58.014l2.575-1.022A126.773,126.773,0,0,1,1706.814,885.4Z" transform="translate(-1695.748 -847.107)" fill="#fff"/>
        </g>
        <g id="Grupo_403" data-name="Grupo 403" transform="translate(42.52 35.278)">
          <path id="Trazado_1526" data-name="Trazado 1526" d="M1706.555,869.438c-1.5-.876-1.652-3.424-.416-5.726s3.441-3.562,5-2.792,1.844,3.368.547,5.773S1708.057,870.311,1706.555,869.438Z" transform="translate(-1705.309 -860.694)" fill="#fff"/>
        </g>
        <g id="Grupo_404" data-name="Grupo 404" transform="translate(5.576 16.47)">
          <path id="Trazado_1527" data-name="Trazado 1527" d="M1695.239,853.353a3.658,3.658,0,0,1-3.454,6.385,3.676,3.676,0,0,1,3.454-6.385Z" transform="translate(-1690.301 -853.053)" fill="#fff"/>
        </g>
        <g id="Grupo_405" data-name="Grupo 405" transform="translate(35.028)">
          <path id="Trazado_1528" data-name="Trazado 1528" d="M1708.52,851.365c-.7,2.238-2.661,3.572-4.3,3s-2.375-2.757-1.708-4.884,2.508-3.491,4.184-3.025S1709.221,849.125,1708.52,851.365Z" transform="translate(-1702.266 -846.363)" fill="#fff"/>
        </g>
        <g id="Grupo_406" data-name="Grupo 406" transform="translate(7.624 49.811)">
          <path id="Trazado_1529" data-name="Trazado 1529" d="M1692.406,868.516c1.5-1.819,3.776-2.467,5.157-1.408s1.283,3.5-.3,5.411-3.973,2.5-5.276,1.349S1690.906,870.338,1692.406,868.516Z" transform="translate(-1691.133 -866.598)" fill="#fff"/>
        </g>
      </g>
    </g>
    <g id="Grupo_437" data-name="Grupo 437" transform="translate(46.819 0)">
      <g id="Grupo_415" data-name="Grupo 415" transform="translate(0 22.393)">
        <g id="Grupo_409" data-name="Grupo 409" transform="translate(0 27.508)">
          <path id="Trazado_1530" data-name="Trazado 1530" d="M1660.723,786.774l-.667,2.688a128.52,128.52,0,0,0-58.583-.216l-.605-2.7A131.3,131.3,0,0,1,1660.723,786.774Z" transform="translate(-1600.867 -783.204)" fill="#fff"/>
        </g>
        <g id="Grupo_410" data-name="Grupo 410" transform="translate(24.24)">
          <path id="Trazado_1531" data-name="Trazado 1531" d="M1631.158,773.378a142.25,142.25,0,0,0-17.687,55.956l-2.757-.249a145.053,145.053,0,0,1,18.024-57.056Z" transform="translate(-1610.714 -772.029)" fill="#fff"/>
        </g>
        <g id="Grupo_411" data-name="Grupo 411" transform="translate(14.604 8.037)">
          <path id="Trazado_1532" data-name="Trazado 1532" d="M1615.075,776.321c.975,1.443.017,3.8-2.095,5.335s-4.658,1.733-5.729.359-.182-3.85,2.028-5.455S1614.1,774.881,1615.075,776.321Z" transform="translate(-1606.8 -775.294)" fill="#fff"/>
        </g>
        <g id="Grupo_412" data-name="Grupo 412" transform="translate(40.423 42.564)">
          <path id="Trazado_1533" data-name="Trazado 1533" d="M1617.862,794.827a3.657,3.657,0,0,1,5.874-4.261,3.674,3.674,0,0,1-5.874,4.261Z" transform="translate(-1617.288 -789.32)" fill="#fff"/>
        </g>
        <g id="Grupo_413" data-name="Grupo 413" transform="translate(6.188 44.182)">
          <path id="Trazado_1534" data-name="Trazado 1534" d="M1604.849,791.69c1.686-1.819,4.091-2.242,5.324-1.016s.894,3.572-.712,5.3-3.931,2.262-5.248,1.125S1603.162,793.507,1604.849,791.69Z" transform="translate(-1603.381 -789.977)" fill="#fff"/>
        </g>
        <g id="Grupo_414" data-name="Grupo 414" transform="translate(51.612 11.364)">
          <path id="Trazado_1535" data-name="Trazado 1535" d="M1627.162,782.848c-2.021.943-4.279.507-5.069-1.044s.273-3.668,2.4-4.66,4.426-.446,5.108,1.152S1629.183,781.9,1627.162,782.848Z" transform="translate(-1621.834 -776.645)" fill="#fff"/>
        </g>
      </g>
      <g id="Grupo_422" data-name="Grupo 422" transform="translate(51.468 4.106)">
        <g id="Grupo_416" data-name="Grupo 416" transform="translate(0.468 13.511)">
          <path id="Trazado_1536" data-name="Trazado 1536" d="M1676.577,792.8l-1.615,2.25a133.918,133.918,0,0,0-53-22.241l.515-2.723A136.711,136.711,0,0,1,1676.577,792.8Z" transform="translate(-1621.965 -770.089)" fill="#fff"/>
        </g>
        <g id="Grupo_417" data-name="Grupo 417" transform="translate(13.653 0.888)">
          <path id="Trazado_1537" data-name="Trazado 1537" d="M1665.415,767.083a137.222,137.222,0,0,0-35.6,45.09l-2.5-1.2a139.975,139.975,0,0,1,36.314-46.013Z" transform="translate(-1627.321 -764.961)" fill="#fff"/>
        </g>
        <g id="Grupo_418" data-name="Grupo 418" transform="translate(19.929)">
          <path id="Trazado_1538" data-name="Trazado 1538" d="M1639.037,766.761c.379,1.7-1.314,3.52-3.769,4.153s-4.822-.148-5.312-1.819,1.177-3.621,3.739-4.278S1638.657,765.065,1639.037,766.761Z" transform="translate(-1629.87 -764.6)" fill="#fff"/>
        </g>
        <g id="Grupo_419" data-name="Grupo 419" transform="translate(31.773 40.918)">
          <path id="Trazado_1539" data-name="Trazado 1539" d="M1634.793,785.315a3.532,3.532,0,0,1,6.814-1.74,3.544,3.544,0,0,1-6.814,1.74Z" transform="translate(-1634.682 -781.222)" fill="#fff"/>
        </g>
        <g id="Grupo_420" data-name="Grupo 420" transform="translate(0 29.718)">
          <path id="Trazado_1540" data-name="Trazado 1540" d="M1624.431,777.173c2.125-1,4.424-.45,5.111,1.147s-.416,3.606-2.437,4.554-4.278.512-5.069-1.036S1622.3,778.168,1624.431,777.173Z" transform="translate(-1621.775 -776.673)" fill="#fff"/>
        </g>
        <g id="Grupo_421" data-name="Grupo 421" transform="translate(52.907 16.283)">
          <path id="Trazado_1541" data-name="Trazado 1541" d="M1647.56,777.509c-2.193.145-4.108-1.083-4.281-2.816s1.556-3.313,3.865-3.466,4.232,1.189,4.291,2.927S1649.756,777.362,1647.56,777.509Z" transform="translate(-1643.267 -771.215)" fill="#fff"/>
        </g>
      </g>
      <g id="Grupo_429" data-name="Grupo 429" transform="translate(104.217)">
        <g id="Grupo_423" data-name="Grupo 423" transform="translate(6.843 4.243)">
          <path id="Trazado_1542" data-name="Trazado 1542" d="M1689.638,805.359l-2.312,1.526A137.183,137.183,0,0,0,1645.983,767l1.479-2.341A140.039,140.039,0,0,1,1689.638,805.359Z" transform="translate(-1645.983 -764.656)" fill="#fff"/>
        </g>
        <g id="Grupo_424" data-name="Grupo 424" transform="translate(8.013 10.158)">
          <path id="Trazado_1543" data-name="Trazado 1543" d="M1697.88,769.686a133.935,133.935,0,0,0-49.519,29.173l-1.9-2.011A136.721,136.721,0,0,1,1697,767.059Z" transform="translate(-1646.458 -767.059)" fill="#fff"/>
        </g>
        <g id="Grupo_425" data-name="Grupo 425" transform="translate(29.168)">
          <path id="Trazado_1544" data-name="Trazado 1544" d="M1664.372,766.717c-.261,1.721-2.5,2.811-5.02,2.516s-4.438-1.873-4.292-3.606,2.4-2.956,5.031-2.646S1664.633,765,1664.372,766.717Z" transform="translate(-1655.052 -762.932)" fill="#fff"/>
        </g>
        <g id="Grupo_426" data-name="Grupo 426" transform="translate(25.573 41.966)">
          <path id="Trazado_1545" data-name="Trazado 1545" d="M1653.6,782.771a3.532,3.532,0,0,1,6.984.829,3.544,3.544,0,0,1-6.984-.829Z" transform="translate(-1653.592 -779.98)" fill="#fff"/>
        </g>
        <g id="Grupo_427" data-name="Grupo 427" transform="translate(0 20.398)">
          <path id="Trazado_1546" data-name="Trazado 1546" d="M1647.078,771.232c2.309-.158,4.232,1.186,4.291,2.922s-1.674,3.212-3.867,3.36-4.114-1.078-4.286-2.811S1644.769,771.386,1647.078,771.232Z" transform="translate(-1643.203 -771.219)" fill="#fff"/>
        </g>
        <g id="Grupo_428" data-name="Grupo 428" transform="translate(54.37 26.757)">
          <path id="Trazado_1547" data-name="Trazado 1547" d="M1668.4,780.059c-2.129-.672-3.488-2.513-3.02-4.19s2.673-2.523,4.911-1.819,3.572,2.666,2.993,4.305S1670.529,780.727,1668.4,780.059Z" transform="translate(-1665.29 -773.802)" fill="#fff"/>
        </g>
      </g>
      <g id="Grupo_436" data-name="Grupo 436" transform="translate(158.433 13.516)">
        <g id="Grupo_430" data-name="Grupo 430" transform="translate(12.862)">
          <path id="Trazado_1548" data-name="Trazado 1548" d="M1698.2,822.528l-2.7.618a142.273,142.273,0,0,0-25.052-53.061l2.215-1.662A145.04,145.04,0,0,1,1698.2,822.528Z" transform="translate(-1670.452 -768.423)" fill="#fff"/>
        </g>
        <g id="Grupo_431" data-name="Grupo 431" transform="translate(1.832 24.369)">
          <path id="Trazado_1549" data-name="Trazado 1549" d="M1725.241,778.823l-.234,2.759a128.528,128.528,0,0,0-58.014,8.109l-1.022-2.572A131.289,131.289,0,0,1,1725.241,778.823Z" transform="translate(-1665.971 -778.323)" fill="#fff"/>
        </g>
        <g id="Grupo_432" data-name="Grupo 432" transform="translate(35.279 5.005)">
          <path id="Trazado_1550" data-name="Trazado 1550" d="M1688.3,776.408c-.876,1.507-3.424,1.654-5.726.416s-3.562-3.441-2.792-5,3.37-1.841,5.773-.546S1689.176,774.906,1688.3,776.408Z" transform="translate(-1679.558 -770.456)" fill="#fff"/>
        </g>
        <g id="Grupo_433" data-name="Grupo 433" transform="translate(16.47 42.617)">
          <path id="Trazado_1551" data-name="Trazado 1551" d="M1672.217,787.33a3.658,3.658,0,0,1,6.386,3.451,3.675,3.675,0,0,1-6.386-3.451Z" transform="translate(-1671.917 -785.735)" fill="#fff"/>
        </g>
        <g id="Grupo_434" data-name="Grupo 434" transform="translate(0 13.194)">
          <path id="Trazado_1552" data-name="Trazado 1552" d="M1670.23,774.03c2.24.7,3.572,2.661,3,4.3s-2.757,2.375-4.884,1.711-3.491-2.511-3.025-4.187S1667.989,773.328,1670.23,774.03Z" transform="translate(-1665.227 -773.783)" fill="#fff"/>
        </g>
        <g id="Grupo_435" data-name="Grupo 435" transform="translate(49.812 39.704)">
          <path id="Trazado_1553" data-name="Trazado 1553" d="M1687.38,790.677c-1.819-1.5-2.466-3.779-1.408-5.16s3.5-1.28,5.411.3,2.5,3.976,1.349,5.275S1689.2,792.176,1687.38,790.677Z" transform="translate(-1685.462 -784.552)" fill="#fff"/>
        </g>
      </g>
    </g>
    <g id="Grupo_466" data-name="Grupo 466" transform="translate(63.086 249.761)">
      <g id="Grupo_444" data-name="Grupo 444" transform="translate(159.678)">
        <g id="Grupo_438" data-name="Grupo 438" transform="translate(0 23.538)">
          <path id="Trazado_1554" data-name="Trazado 1554" d="M1732.2,876.875a131.3,131.3,0,0,1-59.856-.231l.668-2.688a128.5,128.5,0,0,0,58.585.217Z" transform="translate(-1672.341 -873.955)" fill="#fff"/>
        </g>
        <g id="Grupo_439" data-name="Grupo 439" transform="translate(15.171)">
          <path id="Trazado_1555" data-name="Trazado 1555" d="M1698.948,864.642a145.063,145.063,0,0,1-18.024,57.059l-2.42-1.351a142.233,142.233,0,0,0,17.687-55.956Z" transform="translate(-1678.504 -864.393)" fill="#fff"/>
        </g>
        <g id="Grupo_440" data-name="Grupo 440" transform="translate(36.594 41.626)">
          <path id="Trazado_1556" data-name="Trazado 1556" d="M1687.589,887.918c-.975-1.443-.017-3.793,2.095-5.332s4.659-1.736,5.728-.362.182,3.85-2.029,5.458S1688.561,889.358,1687.589,887.918Z" transform="translate(-1687.207 -881.303)" fill="#fff"/>
        </g>
        <g id="Grupo_441" data-name="Grupo 441" transform="translate(12.492 8.096)">
          <path id="Trazado_1557" data-name="Trazado 1557" d="M1683.782,868.822a3.656,3.656,0,0,1-5.873,4.259,3.673,3.673,0,0,1,5.873-4.259Z" transform="translate(-1677.416 -867.682)" fill="#fff"/>
        </g>
        <g id="Grupo_442" data-name="Grupo 442" transform="translate(46.132 5.401)">
          <path id="Trazado_1558" data-name="Trazado 1558" d="M1697.149,872.6c-1.686,1.822-4.091,2.243-5.322,1.017s-.9-3.569.709-5.3,3.932-2.262,5.248-1.123S1698.838,870.779,1697.149,872.6Z" transform="translate(-1691.081 -866.587)" fill="#fff"/>
        </g>
        <g id="Grupo_443" data-name="Grupo 443" transform="translate(0.272 39.244)">
          <path id="Trazado_1559" data-name="Trazado 1559" d="M1675.094,880.83c2.021-.943,4.278-.507,5.068,1.044s-.273,3.67-2.4,4.662-4.424.443-5.108-1.155S1673.073,881.775,1675.094,880.83Z" transform="translate(-1672.452 -880.335)" fill="#fff"/>
        </g>
      </g>
      <g id="Grupo_451" data-name="Grupo 451" transform="translate(106.99 27.494)">
        <g id="Grupo_445" data-name="Grupo 445" transform="translate(5.995 9.623)">
          <path id="Trazado_1560" data-name="Trazado 1560" d="M1707.985,901.712l-.514,2.723a136.674,136.674,0,0,1-54.1-22.714l1.615-2.25A133.9,133.9,0,0,0,1707.985,901.712Z" transform="translate(-1653.373 -879.471)" fill="#fff"/>
        </g>
        <g id="Grupo_446" data-name="Grupo 446" transform="translate(9.329)">
          <path id="Trazado_1561" data-name="Trazado 1561" d="M1692.822,876.761a139.99,139.99,0,0,1-36.315,46.011l-1.779-2.122a137.178,137.178,0,0,0,35.6-45.088Z" transform="translate(-1654.727 -875.562)" fill="#fff"/>
        </g>
        <g id="Grupo_447" data-name="Grupo 447" transform="translate(31.928 41.568)">
          <path id="Trazado_1562" data-name="Trazado 1562" d="M1663.961,896.817c-.379-1.7,1.317-3.52,3.769-4.153s4.822.15,5.313,1.819-1.174,3.621-3.739,4.278S1664.34,898.513,1663.961,896.817Z" transform="translate(-1663.908 -892.448)" fill="#fff"/>
        </g>
        <g id="Grupo_448" data-name="Grupo 448" transform="translate(22.308 0.835)">
          <path id="Trazado_1563" data-name="Trazado 1563" d="M1666.883,878.153a3.533,3.533,0,0,1-6.814,1.743,3.545,3.545,0,0,1,6.814-1.743Z" transform="translate(-1660 -875.901)" fill="#fff"/>
        </g>
        <g id="Grupo_449" data-name="Grupo 449" transform="translate(53.105 11.681)">
          <path id="Trazado_1564" data-name="Trazado 1564" d="M1677.824,886.505c-2.124,1-4.424.45-5.11-1.147s.416-3.606,2.437-4.554,4.278-.512,5.068,1.039S1679.951,885.511,1677.824,886.505Z" transform="translate(-1672.51 -880.307)" fill="#fff"/>
        </g>
        <g id="Grupo_450" data-name="Grupo 450" transform="translate(0 25.509)">
          <path id="Trazado_1565" data-name="Trazado 1565" d="M1654.813,885.936c2.193-.143,4.109,1.086,4.281,2.816s-1.556,3.316-3.865,3.469-4.232-1.192-4.291-2.927S1652.618,886.083,1654.813,885.936Z" transform="translate(-1650.938 -885.924)" fill="#fff"/>
        </g>
      </g>
      <g id="Grupo_458" data-name="Grupo 458" transform="translate(52.815 31.423)">
        <g id="Grupo_452" data-name="Grupo 452" transform="translate(12.003 1.804)">
          <path id="Trazado_1566" data-name="Trazado 1566" d="M1677.461,917.777l-1.48,2.341a139.978,139.978,0,0,1-42.176-40.7l2.314-1.524A137.176,137.176,0,0,0,1677.461,917.777Z" transform="translate(-1633.806 -877.891)" fill="#fff"/>
        </g>
        <g id="Grupo_453" data-name="Grupo 453" transform="translate(3.067 6.317)">
          <path id="Trazado_1567" data-name="Trazado 1567" d="M1681.6,881.735a136.727,136.727,0,0,1-50.546,29.791l-.876-2.629a133.937,133.937,0,0,0,49.519-29.173Z" transform="translate(-1630.176 -879.724)" fill="#fff"/>
        </g>
        <g id="Grupo_454" data-name="Grupo 454" transform="translate(23.99 41.926)">
          <path id="Trazado_1568" data-name="Trazado 1568" d="M1638.7,896.753c.261-1.721,2.5-2.809,5.019-2.516s4.438,1.873,4.293,3.609-2.4,2.954-5.032,2.644S1638.438,898.471,1638.7,896.753Z" transform="translate(-1638.676 -894.19)" fill="#fff"/>
        </g>
        <g id="Grupo_455" data-name="Grupo 455" transform="translate(29.902)">
          <path id="Trazado_1569" data-name="Trazado 1569" d="M1648.093,880.678a3.532,3.532,0,0,1-6.984-.832,3.545,3.545,0,0,1,6.984.832Z" transform="translate(-1641.077 -877.158)" fill="#fff"/>
        </g>
        <g id="Grupo_456" data-name="Grupo 456" transform="translate(54.335 21.569)">
          <path id="Trazado_1570" data-name="Trazado 1570" d="M1655.295,892.214c-2.309.158-4.232-1.184-4.291-2.922s1.674-3.21,3.87-3.36,4.111,1.081,4.283,2.811S1657.6,892.059,1655.295,892.214Z" transform="translate(-1651.003 -885.92)" fill="#fff"/>
        </g>
        <g id="Grupo_457" data-name="Grupo 457" transform="translate(0 15.015)">
          <path id="Trazado_1571" data-name="Trazado 1571" d="M1633.952,883.5c2.127.67,3.485,2.513,3.018,4.19s-2.673,2.521-4.911,1.817-3.572-2.664-2.994-4.305S1631.822,882.835,1633.952,883.5Z" transform="translate(-1628.93 -883.258)" fill="#fff"/>
        </g>
      </g>
      <g id="Grupo_465" data-name="Grupo 465" transform="translate(0 11.459)">
        <g id="Grupo_459" data-name="Grupo 459" transform="translate(20.486)">
          <path id="Trazado_1572" data-name="Trazado 1572" d="M1643.55,922.109l-2.216,1.662a145.027,145.027,0,0,1-25.537-54.1l2.7-.618A142.244,142.244,0,0,0,1643.55,922.109Z" transform="translate(-1615.797 -869.048)" fill="#fff"/>
        </g>
        <g id="Grupo_460" data-name="Grupo 460" transform="translate(0 18.984)">
          <path id="Trazado_1573" data-name="Trazado 1573" d="M1666.745,879.333a131.288,131.288,0,0,1-59.27,8.3l.234-2.762a128.524,128.524,0,0,0,58.014-8.109Z" transform="translate(-1607.475 -876.76)" fill="#fff"/>
        </g>
        <g id="Grupo_461" data-name="Grupo 461" transform="translate(16.796 42.52)">
          <path id="Trazado_1574" data-name="Trazado 1574" d="M1614.581,887.567c.877-1.5,3.424-1.652,5.726-.416s3.562,3.442,2.791,5-3.367,1.841-5.772.547S1613.708,889.069,1614.581,887.567Z" transform="translate(-1614.298 -886.321)" fill="#fff"/>
        </g>
        <g id="Grupo_462" data-name="Grupo 462" transform="translate(37.579 5.576)">
          <path id="Trazado_1575" data-name="Trazado 1575" d="M1629.494,876.251a3.658,3.658,0,0,1-6.386-3.454,3.676,3.676,0,0,1,6.386,3.454Z" transform="translate(-1622.741 -871.313)" fill="#fff"/>
        </g>
        <g id="Grupo_463" data-name="Grupo 463" transform="translate(52.968 35.028)">
          <path id="Trazado_1576" data-name="Trazado 1576" d="M1632.124,889.532c-2.238-.7-3.572-2.661-3-4.3s2.757-2.375,4.884-1.708,3.491,2.508,3.026,4.185S1634.363,890.233,1632.124,889.532Z" transform="translate(-1628.992 -883.277)" fill="#fff"/>
        </g>
        <g id="Grupo_464" data-name="Grupo 464" transform="translate(3.431 7.623)">
          <path id="Trazado_1577" data-name="Trazado 1577" d="M1614.81,873.416c1.819,1.5,2.467,3.779,1.408,5.16s-3.5,1.283-5.411-.3-2.5-3.973-1.349-5.276S1612.988,871.919,1614.81,873.416Z" transform="translate(-1608.869 -872.145)" fill="#fff"/>
        </g>
      </g>
    </g>
  </g>
</svg>
