<svg xmlns="http://www.w3.org/2000/svg" width="428.391" height="428.392" viewBox="0 0 428.391 428.392">
  <g id="Grupo_634" data-name="Grupo 634" transform="translate(5027.212 -2876.85)">
    <g id="Grupo_622" data-name="Grupo 622" transform="translate(-5025.902 2878.161)">
      <g id="Grupo_616" data-name="Grupo 616">
        <g id="Grupo_612" data-name="Grupo 612" transform="translate(0 130.181)">
          <path id="Trazado_1678" data-name="Trazado 1678" d="M-5004.4,3071.106l7.32,1.922q1.315-5.023,2.893-9.938,4.277-1.042,8.549-1.892,2.141-6.162,4.7-12.119l6.9,2.958a175.8,175.8,0,0,0-7.616,21.5q-4.216,1.106-8.427,2.415-1.936,7.572-3.239,15.384,3.383,2.547,6.83,4.95a178.626,178.626,0,0,0-1.821,23.643l-7.508-.082q.073-6.875.641-13.623-3.549-2.6-7.026-5.364.573-5.284,1.431-10.479l-7.466-1.238q-.889,5.4-1.487,10.891-4,2.038-7.953,4.279-.634,7.571-.72,15.288l-7.507-.082a216.369,216.369,0,0,1,2.207-28.659q4.042-1.714,8.1-3.256,1.529-9.2,3.852-18.1-3.088-3.04-6.093-6.214a213.156,213.156,0,0,1,9.231-26.061l6.9,2.959q-2.867,6.682-5.273,13.6,2.734,3.57,5.579,6.994Q-5003.029,3065.884-5004.4,3071.106Z" transform="translate(5025.902 -3037.223)" fill="none" stroke="#e5661d" stroke-miterlimit="10" stroke-width="2.593"/>
        </g>
        <g id="Grupo_613" data-name="Grupo 613" transform="translate(17.302 62.911)">
          <path id="Trazado_1679" data-name="Trazado 1679" d="M-4967.481,2987.538l6.068,4.521q3.019-4.046,6.244-7.925,4.326.668,8.577,1.506,4.2-4.817,8.715-9.336l5.31,5.31a178.28,178.28,0,0,0-14.784,16.765q-4.288-.6-8.647-1.015-4.508,6.11-8.516,12.594,2.207,3.57,4.525,7.03a176.71,176.71,0,0,0-10.2,20.125l-6.9-2.958q2.556-5.957,5.511-11.691-2.341-3.654-4.556-7.438,2.432-4.459,5.089-8.772l-6.447-3.962q-2.76,4.481-5.289,9.118-4.424.271-8.883.729-3.313,6.433-6.185,13.12l-6.9-2.959a213.956,213.956,0,0,1,12.37-24.394q4.348.021,8.652.2,4.716-7.63,10.059-14.81-1.758-3.925-3.393-7.944a216.164,216.164,0,0,1,17.919-20.321l5.309,5.309q-5.066,5.068-9.78,10.477,1.238,4.292,2.634,8.487Q-4964.342,2983.332-4967.481,2987.538Z" transform="translate(5004.761 -2955.028)" fill="none" stroke="#e5661d" stroke-miterlimit="10" stroke-width="2.593"/>
        </g>
        <g id="Grupo_614" data-name="Grupo 614" transform="translate(62.909 17.303)">
          <path id="Trazado_1680" data-name="Trazado 1680" d="M-4901.772,2926.562q1.983,3.224,3.963,6.447,4.313-2.655,8.772-5.089,3.782,2.215,7.437,4.557,5.732-2.951,11.689-5.509,1.481,3.45,2.958,6.9a176.661,176.661,0,0,0-20.124,10.205q-3.772-2.134-7.669-4.13-6.46,4.03-12.557,8.566.735,4.132,1.617,8.2a178.068,178.068,0,0,0-16.765,14.782l-5.31-5.31q4.516-4.515,9.337-8.716-.836-4.25-1.506-8.577,3.879-3.223,7.925-6.243-2.26-3.033-4.521-6.068-4.206,3.139-8.237,6.489-4.192-1.394-8.486-2.633-5.407,4.709-10.479,9.782l-5.31-5.309a215.811,215.811,0,0,1,20.321-17.919q4.018,1.633,7.945,3.392,7.173-5.338,14.81-10.059-.177-4.3-.2-8.652a214.065,214.065,0,0,1,24.395-12.37q1.478,3.452,2.958,6.9-6.683,2.867-13.118,6.183-.457,4.459-.73,8.884Q-4897.289,2923.8-4901.772,2926.562Z" transform="translate(4949.036 -2899.302)" fill="none" stroke="#e5661d" stroke-miterlimit="10" stroke-width="2.593"/>
        </g>
        <g id="Grupo_615" data-name="Grupo 615" transform="translate(130.181)">
          <path id="Trazado_1681" data-name="Trazado 1681" d="M-4814.92,2895.829q.618,3.732,1.238,7.465,5.193-.856,10.479-1.431,2.766,3.475,5.364,7.027,6.744-.566,13.62-.642.041,3.754.082,7.507a178.624,178.624,0,0,0-23.643,1.822q-2.776-3.393-5.721-6.7-7.8,1.331-15.359,3.3-.92,4.119-1.669,8.234a175.991,175.991,0,0,0-21.5,7.616q-1.479-3.451-2.958-6.9,5.956-2.556,12.121-4.7.851-4.271,1.894-8.55,4.913-1.575,9.938-2.892-.962-3.661-1.922-7.32-5.224,1.366-10.33,3.006-3.425-2.845-6.994-5.58-6.916,2.4-13.6,5.275-1.479-3.452-2.958-6.9a213.384,213.384,0,0,1,26.06-9.232q3.174,3.005,6.217,6.094,8.9-2.317,18.1-3.852,1.541-4.062,3.254-8.1a216.437,216.437,0,0,1,28.658-2.208q.042,3.754.081,7.509-7.712.082-15.284.72-2.241,3.954-4.279,7.952Q-4809.521,2894.939-4814.92,2895.829Z" transform="translate(4866.84 -2878.161)" fill="none" stroke="#e5661d" stroke-miterlimit="10" stroke-width="2.593"/>
        </g>
      </g>
      <g id="Grupo_621" data-name="Grupo 621" transform="translate(212.884)">
        <g id="Grupo_617" data-name="Grupo 617" transform="translate(161.016 130.181)">
          <path id="Trazado_1682" data-name="Trazado 1682" d="M-4538.687,3071.106l-7.32,1.922q-1.316-5.023-2.893-9.938-4.279-1.042-8.55-1.892-2.142-6.162-4.7-12.119l-6.9,2.958a176.127,176.127,0,0,1,7.616,21.5q4.214,1.106,8.426,2.415,1.937,7.572,3.239,15.384-3.382,2.547-6.83,4.95a178.543,178.543,0,0,1,1.822,23.643l7.507-.082q-.072-6.875-.642-13.623,3.55-2.6,7.027-5.364-.574-5.284-1.43-10.479l7.464-1.238q.89,5.4,1.487,10.891,4,2.038,7.952,4.279.635,7.571.721,15.288l7.508-.082a216.369,216.369,0,0,0-2.208-28.659q-4.042-1.714-8.1-3.256-1.529-9.2-3.852-18.1,3.089-3.04,6.094-6.214a213.158,213.158,0,0,0-9.232-26.061l-6.9,2.959q2.867,6.682,5.274,13.6-2.734,3.57-5.579,6.994Q-4540.056,3065.884-4538.687,3071.106Z" transform="translate(4569.052 -3037.223)" fill="none" stroke="#e5661d" stroke-miterlimit="10" stroke-width="2.593"/>
        </g>
        <g id="Grupo_618" data-name="Grupo 618" transform="translate(123.39 62.911)">
          <path id="Trazado_1683" data-name="Trazado 1683" d="M-4580.114,2987.538l-6.065,4.521q-3.021-4.046-6.245-7.925-4.324.668-8.576,1.506-4.2-4.817-8.715-9.336l-5.31,5.31a178.061,178.061,0,0,1,14.783,16.765q4.288-.6,8.647-1.015,4.509,6.11,8.517,12.594-2.208,3.57-4.526,7.03a176.636,176.636,0,0,1,10.205,20.125l6.9-2.958q-2.556-5.957-5.512-11.691,2.344-3.654,4.558-7.438-2.433-4.459-5.089-8.772l6.446-3.962q2.761,4.481,5.289,9.118,4.424.271,8.884.729,3.313,6.433,6.185,13.12l6.9-2.959a214.119,214.119,0,0,0-12.37-24.394q-4.348.021-8.653.2-4.714-7.63-10.059-14.81,1.759-3.925,3.394-7.944a216.035,216.035,0,0,0-17.92-20.321l-5.309,5.309q5.067,5.068,9.781,10.477-1.239,4.292-2.635,8.487Q-4583.252,2983.332-4580.114,2987.538Z" transform="translate(4615.025 -2955.028)" fill="none" stroke="#e5661d" stroke-miterlimit="10" stroke-width="2.593"/>
        </g>
        <g id="Grupo_619" data-name="Grupo 619" transform="translate(67.891 17.303)">
          <path id="Trazado_1684" data-name="Trazado 1684" d="M-4648.017,2926.562q-1.98,3.224-3.961,6.447-4.313-2.655-8.772-5.089-3.784,2.215-7.438,4.557-5.73-2.951-11.688-5.509l-2.958,6.9a176.472,176.472,0,0,1,20.125,10.205q3.771-2.134,7.668-4.13,6.461,4.03,12.556,8.566-.735,4.132-1.615,8.2a178.246,178.246,0,0,1,16.764,14.782l5.309-5.31q-4.515-4.515-9.337-8.716.836-4.25,1.506-8.577-3.879-3.223-7.925-6.243l4.521-6.068q4.2,3.139,8.236,6.489,4.2-1.394,8.487-2.633,5.406,4.709,10.479,9.782l5.309-5.309a215.916,215.916,0,0,0-20.32-17.919q-4.02,1.633-7.946,3.392-7.174-5.338-14.81-10.059.178-4.3.2-8.652a214.186,214.186,0,0,0-24.395-12.37l-2.958,6.9q6.683,2.867,13.119,6.183.458,4.459.729,8.884Q-4652.5,2923.8-4648.017,2926.562Z" transform="translate(4682.836 -2899.302)" fill="none" stroke="#e5661d" stroke-miterlimit="10" stroke-width="2.593"/>
        </g>
        <g id="Grupo_620" data-name="Grupo 620">
          <path id="Trazado_1685" data-name="Trazado 1685" d="M-4735,2895.829q-.62,3.732-1.239,7.465-5.194-.856-10.479-1.431-2.766,3.475-5.364,7.027-6.745-.566-13.621-.642-.041,3.754-.082,7.507a178.633,178.633,0,0,1,23.644,1.822q2.774-3.393,5.72-6.7,7.8,1.331,15.36,3.3.918,4.119,1.669,8.234a176.056,176.056,0,0,1,21.5,7.616q1.48-3.451,2.958-6.9-5.957-2.556-12.122-4.7-.85-4.271-1.893-8.55-4.912-1.575-9.937-2.892.962-3.661,1.922-7.32,5.221,1.366,10.329,3.006,3.425-2.845,7-5.58,6.916,2.4,13.6,5.275l2.959-6.9a213.45,213.45,0,0,0-26.06-9.232q-3.177,3.005-6.218,6.094-8.9-2.317-18.1-3.852-1.541-4.062-3.254-8.1a216.452,216.452,0,0,0-28.659-2.208q-.04,3.754-.082,7.509,7.713.082,15.286.72,2.24,3.954,4.279,7.952Q-4740.4,2894.939-4735,2895.829Z" transform="translate(4765.789 -2878.161)" fill="none" stroke="#e5661d" stroke-miterlimit="10" stroke-width="2.593"/>
        </g>
      </g>
    </g>
    <g id="Grupo_633" data-name="Grupo 633" transform="translate(-5025.902 3091.046)">
      <g id="Grupo_627" data-name="Grupo 627" transform="translate(212.884)">
        <g id="Grupo_623" data-name="Grupo 623" transform="translate(161.016)">
          <path id="Trazado_1686" data-name="Trazado 1686" d="M-4538.687,3187.1l-7.32-1.921q-1.316,5.023-2.893,9.938-4.279,1.042-8.55,1.892-2.142,6.161-4.7,12.12l-6.9-2.958a176.108,176.108,0,0,0,7.616-21.5q4.214-1.107,8.426-2.415,1.937-7.573,3.239-15.384-3.382-2.547-6.83-4.951a178.549,178.549,0,0,0,1.822-23.643l7.507.082q-.072,6.875-.642,13.623,3.55,2.6,7.027,5.364-.574,5.284-1.43,10.479l7.464,1.239q.89-5.4,1.487-10.891,4-2.038,7.952-4.279.635-7.571.721-15.288l7.508.082a216.376,216.376,0,0,1-2.208,28.659q-4.042,1.714-8.1,3.256-1.529,9.195-3.852,18.1,3.089,3.039,6.094,6.214a213.162,213.162,0,0,1-9.232,26.06l-6.9-2.958q2.867-6.682,5.274-13.6-2.734-3.57-5.579-6.994Q-4540.056,3192.319-4538.687,3187.1Z" transform="translate(4569.052 -3138.275)" fill="none" stroke="#e5661d" stroke-miterlimit="10" stroke-width="2.593"/>
        </g>
        <g id="Grupo_624" data-name="Grupo 624" transform="translate(123.39 67.891)">
          <path id="Trazado_1687" data-name="Trazado 1687" d="M-4580.114,3270.8l-6.065-4.521q-3.021,4.045-6.245,7.925-4.324-.669-8.576-1.506-4.2,4.818-8.715,9.336l-5.31-5.309a178.1,178.1,0,0,0,14.783-16.765q4.288.6,8.647,1.015,4.509-6.109,8.517-12.593-2.208-3.57-4.526-7.03a176.636,176.636,0,0,0,10.205-20.125l6.9,2.958q-2.556,5.956-5.512,11.691,2.344,3.654,4.558,7.438-2.433,4.457-5.089,8.772l6.446,3.962q2.761-4.481,5.289-9.117,4.424-.271,8.884-.729,3.313-6.433,6.185-13.12l6.9,2.959a214.146,214.146,0,0,1-12.37,24.394q-4.348-.021-8.653-.2-4.714,7.631-10.059,14.81,1.759,3.925,3.394,7.944a216.038,216.038,0,0,1-17.92,20.321l-5.309-5.309q5.067-5.068,9.781-10.477-1.239-4.292-2.635-8.487Q-4583.252,3275.009-4580.114,3270.8Z" transform="translate(4615.025 -3221.228)" fill="none" stroke="#e5661d" stroke-miterlimit="10" stroke-width="2.593"/>
        </g>
        <g id="Grupo_625" data-name="Grupo 625" transform="translate(67.891 123.39)">
          <path id="Trazado_1688" data-name="Trazado 1688" d="M-4648.017,3333.973q-1.98-3.224-3.961-6.447-4.313,2.656-8.772,5.088-3.784-2.213-7.438-4.556-5.73,2.951-11.688,5.51l-2.958-6.9a176.549,176.549,0,0,0,20.125-10.2q3.771,2.134,7.668,4.13,6.461-4.029,12.556-8.565-.735-4.132-1.615-8.2a178.318,178.318,0,0,0,16.764-14.782l5.309,5.309q-4.515,4.516-9.337,8.717.836,4.25,1.506,8.577-3.879,3.222-7.925,6.243l4.521,6.068q4.2-3.139,8.236-6.49,4.2,1.395,8.487,2.634,5.406-4.711,10.479-9.782l5.309,5.309a215.98,215.98,0,0,1-20.32,17.918q-4.02-1.633-7.946-3.392-7.174,5.339-14.81,10.06.178,4.3.2,8.652a214.266,214.266,0,0,1-24.395,12.37l-2.958-6.9q6.683-2.868,13.119-6.183.458-4.459.729-8.884Q-4652.5,3336.735-4648.017,3333.973Z" transform="translate(4682.836 -3289.039)" fill="none" stroke="#e5661d" stroke-miterlimit="10" stroke-width="2.593"/>
        </g>
        <g id="Grupo_626" data-name="Grupo 626" transform="translate(0 161.016)">
          <path id="Trazado_1689" data-name="Trazado 1689" d="M-4735,3369.214q-.62-3.732-1.239-7.465-5.194.856-10.479,1.431-2.766-3.476-5.364-7.027-6.745.566-13.621.642-.041-3.754-.082-7.507a178.633,178.633,0,0,0,23.644-1.822q2.774,3.393,5.72,6.7,7.8-1.331,15.36-3.3.918-4.118,1.669-8.234a175.892,175.892,0,0,0,21.5-7.616q1.48,3.451,2.958,6.9-5.957,2.556-12.122,4.7-.85,4.271-1.893,8.55-4.912,1.575-9.937,2.892.962,3.661,1.922,7.32,5.221-1.367,10.329-3.006,3.425,2.845,7,5.579,6.916-2.4,13.6-5.274l2.959,6.9a213.408,213.408,0,0,1-26.06,9.232q-3.177-3.005-6.218-6.094-8.9,2.316-18.1,3.851-1.541,4.063-3.254,8.1a216.452,216.452,0,0,1-28.659,2.208q-.04-3.754-.082-7.508,7.713-.083,15.286-.721,2.24-3.954,4.279-7.953Q-4740.4,3370.1-4735,3369.214Z" transform="translate(4765.789 -3335.012)" fill="none" stroke="#e5661d" stroke-miterlimit="10" stroke-width="2.593"/>
        </g>
      </g>
      <g id="Grupo_632" data-name="Grupo 632">
        <g id="Grupo_628" data-name="Grupo 628">
          <path id="Trazado_1690" data-name="Trazado 1690" d="M-5004.4,3187.1l7.32-1.921q1.315,5.023,2.893,9.938,4.277,1.042,8.549,1.892,2.141,6.161,4.7,12.12l6.9-2.958a175.781,175.781,0,0,1-7.616-21.5q-4.216-1.107-8.427-2.415-1.936-7.573-3.239-15.384,3.383-2.547,6.83-4.951a178.632,178.632,0,0,1-1.821-23.643l-7.508.082q.073,6.875.641,13.623-3.549,2.6-7.026,5.364.573,5.284,1.431,10.479l-7.466,1.239q-.889-5.4-1.487-10.891-4-2.038-7.953-4.279-.634-7.571-.72-15.288l-7.507.082a216.376,216.376,0,0,0,2.207,28.659q4.042,1.714,8.1,3.256,1.529,9.195,3.852,18.1-3.088,3.039-6.093,6.214a213.16,213.16,0,0,0,9.231,26.06l6.9-2.958q-2.867-6.682-5.273-13.6,2.734-3.57,5.579-6.994Q-5003.029,3192.319-5004.4,3187.1Z" transform="translate(5025.902 -3138.275)" fill="none" stroke="#e5661d" stroke-miterlimit="10" stroke-width="2.593"/>
        </g>
        <g id="Grupo_629" data-name="Grupo 629" transform="translate(17.302 67.891)">
          <path id="Trazado_1691" data-name="Trazado 1691" d="M-4967.481,3270.8l6.068-4.521q3.019,4.045,6.244,7.925,4.326-.669,8.577-1.506,4.2,4.818,8.715,9.336l5.31-5.309a178.314,178.314,0,0,1-14.784-16.765q-4.288.6-8.647,1.015-4.508-6.109-8.516-12.593,2.207-3.57,4.525-7.03a176.71,176.71,0,0,1-10.2-20.125l-6.9,2.958q2.556,5.956,5.511,11.691-2.341,3.654-4.556,7.438,2.432,4.457,5.089,8.772l-6.447,3.962q-2.76-4.481-5.289-9.117-4.424-.271-8.883-.729-3.313-6.433-6.185-13.12l-6.9,2.959a213.984,213.984,0,0,0,12.37,24.394q4.348-.021,8.652-.2,4.716,7.631,10.059,14.81-1.758,3.925-3.393,7.944a216.167,216.167,0,0,0,17.919,20.321l5.309-5.309q-5.066-5.068-9.78-10.477,1.238-4.292,2.634-8.487Q-4964.342,3275.009-4967.481,3270.8Z" transform="translate(5004.761 -3221.228)" fill="none" stroke="#e5661d" stroke-miterlimit="10" stroke-width="2.593"/>
        </g>
        <g id="Grupo_630" data-name="Grupo 630" transform="translate(62.909 123.39)">
          <path id="Trazado_1692" data-name="Trazado 1692" d="M-4901.772,3333.973q1.983-3.224,3.963-6.447,4.313,2.656,8.772,5.088,3.782-2.213,7.437-4.556,5.732,2.951,11.689,5.51,1.481-3.451,2.958-6.9a176.737,176.737,0,0,1-20.124-10.2q-3.772,2.134-7.669,4.13-6.46-4.029-12.557-8.565.735-4.132,1.617-8.2a178.14,178.14,0,0,1-16.765-14.782l-5.31,5.309q4.516,4.516,9.337,8.717-.836,4.25-1.506,8.577,3.879,3.222,7.925,6.243-2.26,3.034-4.521,6.068-4.206-3.139-8.237-6.49-4.192,1.395-8.486,2.634-5.407-4.711-10.479-9.782l-5.31,5.309a215.875,215.875,0,0,0,20.321,17.918q4.018-1.633,7.945-3.392,7.173,5.339,14.81,10.06-.177,4.3-.2,8.652a214.144,214.144,0,0,0,24.395,12.37q1.478-3.452,2.958-6.9-6.683-2.868-13.118-6.183-.457-4.459-.73-8.884Q-4897.289,3336.735-4901.772,3333.973Z" transform="translate(4949.036 -3289.039)" fill="none" stroke="#e5661d" stroke-miterlimit="10" stroke-width="2.593"/>
        </g>
        <g id="Grupo_631" data-name="Grupo 631" transform="translate(130.181 161.016)">
          <path id="Trazado_1693" data-name="Trazado 1693" d="M-4814.92,3369.214q.618-3.732,1.238-7.465,5.193.856,10.479,1.431,2.766-3.476,5.364-7.027,6.744.566,13.62.642.041-3.754.082-7.507a178.624,178.624,0,0,1-23.643-1.822q-2.776,3.393-5.721,6.7-7.8-1.331-15.359-3.3-.92-4.118-1.669-8.234a175.826,175.826,0,0,1-21.5-7.616l-2.958,6.9q5.956,2.556,12.121,4.7.851,4.271,1.894,8.55,4.913,1.575,9.938,2.892-.962,3.661-1.922,7.32-5.224-1.367-10.33-3.006-3.425,2.845-6.994,5.579-6.916-2.4-13.6-5.274-1.479,3.452-2.958,6.9a213.342,213.342,0,0,0,26.06,9.232q3.174-3.005,6.217-6.094,8.9,2.316,18.1,3.851,1.541,4.063,3.254,8.1a216.437,216.437,0,0,0,28.658,2.208q.042-3.754.081-7.508-7.712-.083-15.284-.721-2.241-3.954-4.279-7.953Q-4809.521,3370.1-4814.92,3369.214Z" transform="translate(4866.84 -3335.012)" fill="none" stroke="#e5661d" stroke-miterlimit="10" stroke-width="2.593"/>
        </g>
      </g>
    </g>
  </g>
</svg>
