<svg xmlns="http://www.w3.org/2000/svg" width="604.251" height="609.351" viewBox="0 0 604.251 609.351">
  <g id="Grupo_661" data-name="Grupo 661" transform="translate(-250.375 -320.414)">
    <g id="Grupo_225" data-name="Grupo 225" transform="translate(251.381 321.412)">
      <g id="Grupo_224" data-name="Grupo 224">
        <g id="Grupo_214" data-name="Grupo 214" transform="translate(0 207.01)">
          <path id="Trazado_544" data-name="Trazado 544" d="M290.757,551.17c-.246-.014-.5-.023-.741-.053-12.667-1.508-18.933-15.039-17.511-26.726,1.307-10.754,13.279-21.133,24.441-17.984.239.068.477.144.714.219,1.122-4.686,1.732-6.994,3.038-11.539l-.7-.251c-18.4-6.519-35.727,10.915-38.676,27.455-3.158,17.7,7.97,41,27.972,42.036.247.013.494.009.741.014C290.214,559,290.361,556.367,290.757,551.17Z" transform="translate(-248.687 -479.159)" fill="none" stroke="#063916" stroke-linejoin="round" stroke-width="1.994"/>
          <path id="Trazado_545" data-name="Trazado 545" d="M288.743,552.367c-1.123,5.987-5.973,12.076-12.246,11.988-7.453-.1-12.491-9.014-12.061-16.053a18.069,18.069,0,0,1,2.955-9.192" transform="translate(-247.65 -466.078)" fill="none" stroke="#063916" stroke-linejoin="round" stroke-width="1.994"/>
          <path id="Trazado_546" data-name="Trazado 546" d="M281.467,550.015c-.8,3.279-3.314,5.713-6.271,5.633-3.49-.1-6.272-3.791-6.1-8.18a8.954,8.954,0,0,1,1.24-4.285" transform="translate(-246.31 -464.912)" fill="none" stroke="#063916" stroke-linejoin="round" stroke-width="1.994"/>
          <path id="Trazado_547" data-name="Trazado 547" d="M269.861,544.479c-5.057,4.055-12.049,2.509-15.583-2.638-4.452-6.486-3.707-16.967,1.783-22.6a10.934,10.934,0,0,1,7.457-3.444" transform="translate(-251.381 -472.755)" fill="none" stroke="#063916" stroke-linejoin="round" stroke-width="1.994"/>
          <path id="Trazado_548" data-name="Trazado 548" d="M265.141,536.609a5.36,5.36,0,0,1-7.644-1.738,9.6,9.6,0,0,1,.9-11.428,5.839,5.839,0,0,1,3.405-1.81" transform="translate(-250.05 -471.084)" fill="none" stroke="#063916" stroke-linejoin="round" stroke-width="1.994"/>
          <path id="Trazado_549" data-name="Trazado 549" d="M297.386,497.162a13.841,13.841,0,0,0-8.417-14.1c-6.922-2.793-13.912,2.984-15.713,9.127a14.8,14.8,0,0,0,.251,8.9" transform="translate(-245.279 -482.337)" fill="none" stroke="#063916" stroke-linejoin="round" stroke-width="1.994"/>
          <path id="Trazado_550" data-name="Trazado 550" d="M290.076,494.678a6.836,6.836,0,0,0-4.376-6.9c-3.323-1.152-6.955.906-8.019,4.668a7.655,7.655,0,0,0-.031,4.075" transform="translate(-243.933 -480.869)" fill="none" stroke="#063916" stroke-linejoin="round" stroke-width="1.994"/>
          <path id="Trazado_551" data-name="Trazado 551" d="M277.067,498.11a11.21,11.21,0,0,0-15.467-3.248c-6.707,4.4-8.045,14.424-5.028,20.972a11.8,11.8,0,0,0,5.984,5.938" transform="translate(-250.332 -479.272)" fill="none" stroke="#063916" stroke-linejoin="round" stroke-width="1.994"/>
          <path id="Trazado_552" data-name="Trazado 552" d="M270.744,500.763a5.56,5.56,0,0,0-7.722-1.194c-3.127,2.159-4.289,6.994-2.541,10.61a6.373,6.373,0,0,0,2.667,2.893" transform="translate(-249.008 -477.705)" fill="none" stroke="#063916" stroke-linejoin="round" stroke-width="1.994"/>
        </g>
        <g id="Grupo_215" data-name="Grupo 215" transform="translate(26.776 128.667)">
          <path id="Trazado_553" data-name="Trazado 553" d="M305.9,481.047c-.229-.1-.458-.2-.686-.3-10.6-5.026-14.561-18.178-9.032-28.366a19.48,19.48,0,0,1,28.092-6.711c.208.141.41.288.612.436,2.379-3.623,3.6-5.4,6.123-8.88l-.594-.462c-14.211-10.993-36.639-4.307-44.178,9.937-7.48,14.133-2.591,37.9,14.622,44.581l.7.274C303.208,487.279,304.077,485.178,305.9,481.047Z" transform="translate(-269.147 -418.616)" fill="none" stroke="#063916" stroke-linejoin="round" stroke-width="1.994"/>
          <path id="Trazado_554" data-name="Trazado 554" d="M302.034,482.845c-3.1,4.954-9.508,7.465-14.882,5.349-6.325-2.49-9.621-10.784-6.931-17.226a13.7,13.7,0,0,1,5.35-6.468" transform="translate(-270.168 -409.102)" fill="none" stroke="#063916" stroke-linejoin="round" stroke-width="1.994"/>
          <path id="Trazado_555" data-name="Trazado 555" d="M295.419,478.494a6.285,6.285,0,0,1-7.482,2.349,6.909,6.909,0,0,1-1.123-11.837" transform="translate(-268.829 -407.812)" fill="none" stroke="#063916" stroke-linejoin="round" stroke-width="1.994"/>
          <path id="Trazado_556" data-name="Trazado 556" d="M286.776,469.249a11.714,11.714,0,0,1-13.952-7.648c-2.051-6.476,1-15.406,8.033-18.124a11.733,11.733,0,0,1,7.991-.28" transform="translate(-272.196 -415.366)" fill="none" stroke="#063916" stroke-linejoin="round" stroke-width="1.994"/>
          <path id="Trazado_557" data-name="Trazado 557" d="M283.97,461.492a5.968,5.968,0,0,1-6.716-4.119,7.541,7.541,0,0,1,4.061-9.164,5.967,5.967,0,0,1,3.718-.316" transform="translate(-270.853 -413.905)" fill="none" stroke="#063916" stroke-linejoin="round" stroke-width="1.994"/>
          <path id="Trazado_558" data-name="Trazado 558" d="M325.857,439.118a13.219,13.219,0,0,0-3.929-15.174c-5.259-4.408-13.565-2.655-17.385,2.529a12.281,12.281,0,0,0-2.287,7.758" transform="translate(-263.591 -421.435)" fill="none" stroke="#063916" stroke-linejoin="round" stroke-width="1.994"/>
          <path id="Trazado_559" data-name="Trazado 559" d="M319.176,434.854a6.517,6.517,0,0,0-2.166-7.494,6.222,6.222,0,0,0-8.875,1.283,6.329,6.329,0,0,0-1.185,3.509" transform="translate(-262.243 -420.113)" fill="none" stroke="#063916" stroke-linejoin="round" stroke-width="1.994"/>
          <path id="Trazado_560" data-name="Trazado 560" d="M306.583,432.9a12.147,12.147,0,0,0-13.634-8.152c-7.321,1.32-11.673,9.533-10.669,16.107a11.8,11.8,0,0,0,3.954,7.093" transform="translate(-269.349 -420.542)" fill="none" stroke="#063916" stroke-linejoin="round" stroke-width="1.994"/>
          <path id="Trazado_561" data-name="Trazado 561" d="M299.318,433.36a6.074,6.074,0,0,0-6.927-3.7A7.206,7.206,0,0,0,287,437.8a6.306,6.306,0,0,0,1.693,3.38" transform="translate(-267.985 -419.121)" fill="none" stroke="#063916" stroke-linejoin="round" stroke-width="1.994"/>
        </g>
        <g id="Grupo_216" data-name="Grupo 216" transform="translate(79.834 65.384)">
          <path id="Trazado_562" data-name="Trazado 562" d="M340.126,426.616c-.186-.166-.374-.331-.557-.5-7.995-7.568-8.871-20.79-.3-28.5s21.627-5.434,28.406,3.206c.154.2.3.4.45.6,3.294-2.538,4.965-3.77,8.355-6.164-.143-.206-.286-.414-.427-.617-9.955-14.3-32.683-16.354-44.491-5.489-11.607,10.68-12.684,33.631.876,44.8.189.156.385.32.576.481C335.8,431.232,337.22,429.67,340.126,426.616Z" transform="translate(-310.83 -369.375)" fill="none" stroke="#063916" stroke-linejoin="round" stroke-width="1.994"/>
          <path id="Trazado_563" data-name="Trazado 563" d="M334.557,428.087a12.79,12.79,0,0,1-15.538-.45c-4.857-4.05-6.234-12.424-1.559-17.519a12.459,12.459,0,0,1,6.895-3.9" transform="translate(-313.116 -362.51)" fill="none" stroke="#063916" stroke-linejoin="round" stroke-width="1.994"/>
          <path id="Trazado_564" data-name="Trazado 564" d="M329.158,422.234a6.424,6.424,0,0,1-7.713-.511,6.274,6.274,0,0,1-.751-8.931,6.083,6.083,0,0,1,3.1-1.891" transform="translate(-311.802 -361.168)" fill="none" stroke="#063916" stroke-linejoin="round" stroke-width="1.994"/>
          <path id="Trazado_565" data-name="Trazado 565" d="M324.344,410.54c-5.978-.741-10.812-5.673-10.9-11.558-.1-6.542,5.694-13.485,12.8-13.544a12.364,12.364,0,0,1,7.592,2.424" transform="translate(-313.442 -368.461)" fill="none" stroke="#063916" stroke-linejoin="round" stroke-width="1.994"/>
          <path id="Trazado_566" data-name="Trazado 566" d="M323.4,403.057a6.225,6.225,0,0,1-5.121-5.96,6.779,6.779,0,0,1,6.47-6.847,6.242,6.242,0,0,1,3.587.966" transform="translate(-312.056 -367.084)" fill="none" stroke="#063916" stroke-linejoin="round" stroke-width="1.994"/>
          <path id="Trazado_567" data-name="Trazado 567" d="M369.616,396.393c3.821-4.317,3.661-10.7.709-15.313-3.606-5.632-11.839-6.927-17.126-3.271a11.39,11.39,0,0,0-4.41,6.4" transform="translate(-303.319 -371.234)" fill="none" stroke="#063916" stroke-linejoin="round" stroke-width="1.994"/>
          <path id="Trazado_568" data-name="Trazado 568" d="M364.126,390.664a6.436,6.436,0,0,0-8.6-9.315,5.874,5.874,0,0,0-2.137,2.848" transform="translate(-302.003 -369.948)" fill="none" stroke="#063916" stroke-linejoin="round" stroke-width="1.994"/>
          <path id="Trazado_569" data-name="Trazado 569" d="M353.474,384.342a12.548,12.548,0,0,0-10.461-11.954c-6.963-1.162-13.723,4.7-14.716,11.194a11.552,11.552,0,0,0,1.661,7.752" transform="translate(-309.223 -372.24)" fill="none" stroke="#063916" stroke-linejoin="round" stroke-width="1.994"/>
          <path id="Trazado_570" data-name="Trazado 570" d="M345.979,382.759a6.292,6.292,0,0,0-5.444-5.672,6.7,6.7,0,0,0-7.44,5.66,6.145,6.145,0,0,0,.611,3.638" transform="translate(-307.83 -370.868)" fill="none" stroke="#063916" stroke-linejoin="round" stroke-width="1.994"/>
        </g>
        <g id="Grupo_217" data-name="Grupo 217" transform="translate(144.972 21.294)">
          <path id="Trazado_571" data-name="Trazado 571" d="M387.526,388.851c-.129-.214-.258-.427-.382-.646-5.333-9.464-2.449-22.276,7.94-27s22.065,1.3,26,11.562c.09.234.171.47.255.7,3.859-1.442,5.8-2.126,9.712-3.42-.075-.238-.15-.48-.226-.715-5.275-16.433-25.155-24.924-40.6-18.5-16.251,6.766-20.236,28.857-12.093,42.479.125.208.273.421.408.632C382.1,391.841,383.9,390.821,387.526,388.851Z" transform="translate(-361.225 -334.893)" fill="none" stroke="#063916" stroke-linejoin="round" stroke-width="1.994"/>
          <path id="Trazado_572" data-name="Trazado 572" d="M380.543,389.375a12.934,12.934,0,0,1-14.555-5.323c-3.345-5.17-2.384-13.5,3.577-16.845a12.222,12.222,0,0,1,7.64-1.508" transform="translate(-364.078 -330.055)" fill="none" stroke="#063916" stroke-linejoin="round" stroke-width="1.994"/>
          <path id="Trazado_573" data-name="Trazado 573" d="M376.7,382.546a6.517,6.517,0,0,1-7.145-2.9,6.092,6.092,0,0,1,1.867-8.585,5.926,5.926,0,0,1,3.477-.8" transform="translate(-362.8 -328.723)" fill="none" stroke="#063916" stroke-linejoin="round" stroke-width="1.994"/>
          <path id="Trazado_574" data-name="Trazado 574" d="M376.046,369.662c-5.345-2.5-8.6-8.583-6.966-14.256,1.811-6.294,9.411-10.933,16-8.864a12.529,12.529,0,0,1,6.483,4.607" transform="translate(-362.767 -335.652)" fill="none" stroke="#063916" stroke-linejoin="round" stroke-width="1.994"/>
          <path id="Trazado_575" data-name="Trazado 575" d="M376.841,362.7a6.3,6.3,0,0,1-3.121-7.2,6.576,6.576,0,0,1,8.091-4.48,6.3,6.3,0,0,1,3.112,2.009" transform="translate(-361.382 -334.298)" fill="none" stroke="#063916" stroke-linejoin="round" stroke-width="1.994"/>
          <path id="Trazado_576" data-name="Trazado 576" d="M422.619,370.058c4.87-3.005,6.572-9.173,5.093-14.455-1.813-6.469-9.262-10.071-15.317-8.132a11.261,11.261,0,0,0-6.027,4.815" transform="translate(-351.968 -335.393)" fill="none" stroke="#063916" stroke-linejoin="round" stroke-width="1.994"/>
          <path id="Trazado_577" data-name="Trazado 577" d="M418.77,363.273a6.34,6.34,0,0,0,2.33-7.256,6.228,6.228,0,0,0-7.811-4.174,5.8,5.8,0,0,0-2.848,2.094" transform="translate(-350.801 -334.079)" fill="none" stroke="#063916" stroke-linejoin="round" stroke-width="1.994"/>
          <path id="Trazado_578" data-name="Trazado 578" d="M411.16,353.665a12.671,12.671,0,0,0-6.473-14.519c-6.18-3.132-14.3.315-17.152,6.262a11.552,11.552,0,0,0-.664,7.865" transform="translate(-357.665 -337.965)" fill="none" stroke="#063916" stroke-linejoin="round" stroke-width="1.994"/>
          <path id="Trazado_579" data-name="Trazado 579" d="M404.054,350.3a6.35,6.35,0,0,0-3.522-7.03,6.56,6.56,0,0,0-8.675,3.165,6.153,6.153,0,0,0-.471,3.644" transform="translate(-356.285 -336.618)" fill="none" stroke="#063916" stroke-linejoin="round" stroke-width="1.994"/>
        </g>
        <g id="Grupo_218" data-name="Grupo 218" transform="translate(220.3 0.405)">
          <path id="Trazado_580" data-name="Trazado 580" d="M443.475,367.167c-.06-.242-.122-.484-.176-.729-2.381-10.714,4.164-22.128,15.332-23.758s20.653,7.364,21.476,18.393c.019.251.028.5.04.75,4.1-.323,6.154-.448,10.261-.623,0-.251-.006-.5-.01-.753-.279-17.2-16.87-31.013-33.417-29.127-17.448,1.987-27.539,22.046-23.731,37.463.058.235.136.481.2.722C437.445,368.5,439.451,368.027,443.475,367.167Z" transform="translate(-419.827 -319.029)" fill="none" stroke="#063916" stroke-linejoin="round" stroke-width="1.994"/>
          <path id="Trazado_581" data-name="Trazado 581" d="M435.377,366.479a12.814,12.814,0,0,1-12.3-9.308c-1.7-5.961,1.666-13.647,8.251-15.137a12.052,12.052,0,0,1,7.7.738" transform="translate(-422.637 -316.001)" fill="none" stroke="#063916" stroke-linejoin="round" stroke-width="1.994"/>
          <path id="Trazado_582" data-name="Trazado 582" d="M433.259,359.125a6.456,6.456,0,0,1-5.956-4.842,6.134,6.134,0,0,1,4.246-7.707,5.843,5.843,0,0,1,3.538.226" transform="translate(-421.37 -314.66)" fill="none" stroke="#063916" stroke-linejoin="round" stroke-width="1.994"/>
          <path id="Trazado_583" data-name="Trazado 583" d="M436.805,346.163c-4.375-3.94-5.7-10.737-2.53-15.712,3.523-5.529,12.042-7.878,17.757-4.007a12.409,12.409,0,0,1,4.854,6.27" transform="translate(-419.804 -320.923)" fill="none" stroke="#063916" stroke-linejoin="round" stroke-width="1.994"/>
          <path id="Trazado_584" data-name="Trazado 584" d="M439.131,340.049a6.366,6.366,0,0,1-.9-7.821,6.516,6.516,0,0,1,8.981-2.025,6.244,6.244,0,0,1,2.386,2.816" transform="translate(-418.444 -319.588)" fill="none" stroke="#063916" stroke-linejoin="round" stroke-width="1.994"/>
          <path id="Trazado_585" data-name="Trazado 585" d="M480.548,359.793c5.492-1.555,8.906-7,9.016-12.551.136-6.763-6.016-12.271-12.3-12.066a11.342,11.342,0,0,0-7.133,2.982" transform="translate(-409.036 -317.877)" fill="none" stroke="#063916" stroke-linejoin="round" stroke-width="1.994"/>
          <path id="Trazado_586" data-name="Trazado 586" d="M478.632,352.428a6.471,6.471,0,0,0,4.311-6.364,6.131,6.131,0,0,0-6.265-6.18,5.832,5.832,0,0,0-3.32,1.236" transform="translate(-408.112 -316.529)" fill="none" stroke="#063916" stroke-linejoin="round" stroke-width="1.994"/>
          <path id="Trazado_587" data-name="Trazado 587" d="M474.855,340.6a12.751,12.751,0,0,0-2.02-15.817c-5.07-4.8-13.772-3.63-18.141,1.261a11.8,11.8,0,0,0-2.884,7.4" transform="translate(-414.282 -321.727)" fill="none" stroke="#063916" stroke-linejoin="round" stroke-width="1.994"/>
          <path id="Trazado_588" data-name="Trazado 588" d="M468.6,335.742a6.393,6.393,0,0,0-1.347-7.768,6.5,6.5,0,0,0-9.177.635A6.279,6.279,0,0,0,456.588,332" transform="translate(-412.914 -320.396)" fill="none" stroke="#063916" stroke-linejoin="round" stroke-width="1.994"/>
        </g>
        <g id="Grupo_219" data-name="Grupo 219" transform="translate(300.829)">
          <path id="Trazado_589" data-name="Trazado 589" d="M503.228,361.715c.012-.251.022-.5.04-.753.816-11.049,10.314-20.2,21.484-18.731s17.694,12.794,15.321,23.583c-.054.247-.116.491-.176.734,4.024.807,6.029,1.248,10.02,2.206l.2-.727c4.588-16.478-7.3-34.5-23.708-37.2-17.384-2.86-32.675,13.794-33.434,29.659-.012.242-.006.5-.012.752C497.076,361.355,499.129,361.45,503.228,361.715Z" transform="translate(-483.024 -318.808)" fill="none" stroke="#063916" stroke-linejoin="round" stroke-width="1.994"/>
          <path id="Trazado_590" data-name="Trazado 590" d="M494.333,359.713a12.612,12.612,0,0,1-9.093-12.349c.094-6.276,5.506-12.711,12.222-12.352a11.826,11.826,0,0,1,7.152,2.819" transform="translate(-485.238 -317.522)" fill="none" stroke="#063916" stroke-linejoin="round" stroke-width="1.994"/>
          <path id="Trazado_591" data-name="Trazado 591" d="M493.975,352.321a6.352,6.352,0,0,1-4.307-6.3,6.248,6.248,0,0,1,6.268-6.276,5.745,5.745,0,0,1,3.319,1.185" transform="translate(-483.97 -316.164)" fill="none" stroke="#063916" stroke-linejoin="round" stroke-width="1.994"/>
          <path id="Trazado_592" data-name="Trazado 592" d="M501.514,340.413c-3.1-5.086-2.327-11.983,2.063-15.858,4.866-4.3,13.676-4.4,18.135,1a12.279,12.279,0,0,1,2.863,7.375" transform="translate(-481.114 -321.412)" fill="none" stroke="#063916" stroke-linejoin="round" stroke-width="1.994"/>
          <path id="Trazado_593" data-name="Trazado 593" d="M505.066,335.488a6.454,6.454,0,0,1,10.543-7.29,6.187,6.187,0,0,1,1.482,3.37" transform="translate(-479.774 -320.09)" fill="none" stroke="#063916" stroke-linejoin="round" stroke-width="1.994"/>
          <path id="Trazado_594" data-name="Trazado 594" d="M538.834,365.791c5.73,0,10.535-4.272,12.244-9.6,2.061-6.414-2.256-13.466-8.354-15a11.374,11.374,0,0,0-7.691.911" transform="translate(-470.978 -315.834)" fill="none" stroke="#063916" stroke-linejoin="round" stroke-width="1.994"/>
          <path id="Trazado_595" data-name="Trazado 595" d="M538.995,358.377a6.576,6.576,0,0,0,5.956-4.938,6.066,6.066,0,0,0-4.242-7.669,5.856,5.856,0,0,0-3.537.277" transform="translate(-470.366 -314.481)" fill="none" stroke="#063916" stroke-linejoin="round" stroke-width="1.994"/>
          <path id="Trazado_596" data-name="Trazado 596" d="M539.418,345.463a12.811,12.811,0,0,0,2.569-15.785c-3.557-6.133-12.276-7.222-17.745-3.769a12.025,12.025,0,0,0-4.87,6.349" transform="translate(-475.463 -320.681)" fill="none" stroke="#063916" stroke-linejoin="round" stroke-width="1.994"/>
          <path id="Trazado_597" data-name="Trazado 597" d="M534.423,339.4a6.367,6.367,0,1,0-10.447-6.9" transform="translate(-474.144 -319.358)" fill="none" stroke="#063916" stroke-linejoin="round" stroke-width="1.994"/>
        </g>
        <g id="Grupo_220" data-name="Grupo 220" transform="translate(381.16 20.243)">
          <path id="Trazado_598" data-name="Trazado 598" d="M562.424,372.865c.084-.238.166-.475.257-.711,3.972-10.315,15.651-16.507,26.03-11.857s13.212,17.51,7.861,27.071c-.123.221-.253.437-.382.652,3.625,1.951,5.42,2.965,8.967,5.066.135-.214.274-.428.408-.638,9.192-14.49,3.028-35.27-11.968-42.611-15.921-7.8-35.307,3.953-40.647,18.968-.081.23-.152.481-.229.72C556.629,370.785,558.57,371.454,562.424,372.865Z" transform="translate(-546.244 -334.225)" fill="none" stroke="#063916" stroke-linejoin="round" stroke-width="1.994"/>
          <path id="Trazado_599" data-name="Trazado 599" d="M553.421,369.438a12.522,12.522,0,0,1-5.145-14.4c1.91-5.993,8.891-10.686,15.286-8.44a11.678,11.678,0,0,1,6.046,4.724" transform="translate(-547.686 -334.607)" fill="none" stroke="#063916" stroke-linejoin="round" stroke-width="1.994"/>
          <path id="Trazado_600" data-name="Trazado 600" d="M554.77,362.549a6.511,6.511,0,0,1,5.517-11.53,5.693,5.693,0,0,1,2.84,2.074" transform="translate(-546.415 -333.259)" fill="none" stroke="#063916" stroke-linejoin="round" stroke-width="1.994"/>
          <path id="Trazado_601" data-name="Trazado 601" d="M565.876,352.893c-1.512-5.831,1.261-12.182,6.548-14.636,5.831-2.706,14.362-.379,17.116,6.144a12.3,12.3,0,0,1,.623,7.9" transform="translate(-542.594 -337.148)" fill="none" stroke="#063916" stroke-linejoin="round" stroke-width="1.994"/>
          <path id="Trazado_602" data-name="Trazado 602" d="M570.269,349.5a6.472,6.472,0,0,1,12.217-3.987,6.178,6.178,0,0,1,.451,3.658" transform="translate(-541.254 -335.823)" fill="none" stroke="#063916" stroke-linejoin="round" stroke-width="1.994"/>
          <path id="Trazado_603" data-name="Trazado 603" d="M594.2,388.479c5.515,1.7,11.36-.981,14.535-5.564,3.821-5.513,1.78-13.589-3.66-16.893a11.377,11.377,0,0,0-7.645-1.4" transform="translate(-534.365 -329.323)" fill="none" stroke="#063916" stroke-linejoin="round" stroke-width="1.994"/>
          <path id="Trazado_604" data-name="Trazado 604" d="M596.148,381.548a6.552,6.552,0,0,0,7.148-2.972,6.123,6.123,0,0,0-1.843-8.624,5.86,5.86,0,0,0-3.474-.781" transform="translate(-533.808 -327.984)" fill="none" stroke="#063916" stroke-linejoin="round" stroke-width="1.994"/>
          <path id="Trazado_605" data-name="Trazado 605" d="M600.406,368.71a12.782,12.782,0,0,0,7.031-14.384c-1.643-6.954-9.74-10.517-15.947-8.8a12.03,12.03,0,0,0-6.505,4.68" transform="translate(-537.005 -334.871)" fill="none" stroke="#063916" stroke-linejoin="round" stroke-width="1.994"/>
          <path id="Trazado_606" data-name="Trazado 606" d="M597.086,361.745a6.39,6.39,0,1,0-8.033-9.666" transform="translate(-535.84 -333.533)" fill="none" stroke="#063916" stroke-linejoin="round" stroke-width="1.994"/>
        </g>
        <g id="Grupo_221" data-name="Grupo 221" transform="translate(453.265 64.056)">
          <path id="Trazado_607" data-name="Trazado 607" d="M614.869,400.413c.148-.2.3-.406.451-.607,6.793-8.728,19.844-11.109,28.4-3.37s7.669,21.08-.342,28.743c-.183.175-.37.342-.557.511,2.9,3.071,4.322,4.643,7.1,7.86.193-.163.4-.32.578-.488,11.781-10.939,14.087-33.577.942-45.194-12.982-11.473-34.978-7.179-44.486,5.764-.144.2-.284.417-.427.624C609.911,396.644,611.581,397.876,614.869,400.413Z" transform="translate(-602.94 -368.343)" fill="none" stroke="#063916" stroke-linejoin="round" stroke-width="1.994"/>
          <path id="Trazado_608" data-name="Trazado 608" d="M606.748,395.5a12.688,12.688,0,0,1-.785-15.4c3.542-5.172,11.6-7.638,17.105-3.535a12,12,0,0,1,4.444,6.386" transform="translate(-603.738 -370.262)" fill="none" stroke="#063916" stroke-linejoin="round" stroke-width="1.994"/>
          <path id="Trazado_609" data-name="Trazado 609" d="M609.575,389.636a6.392,6.392,0,0,1-.121-7.678A6.263,6.263,0,0,1,618.2,380.2a5.84,5.84,0,0,1,2.129,2.856" transform="translate(-602.451 -368.944)" fill="none" stroke="#063916" stroke-linejoin="round" stroke-width="1.994"/>
          <path id="Trazado_610" data-name="Trazado 610" d="M623.452,383.385c.224-6.03,4.685-11.338,10.506-12.087,6.465-.831,13.921,4.167,14.664,11.234a12.46,12.46,0,0,1-1.688,7.823" transform="translate(-598.093 -371.208)" fill="none" stroke="#063916" stroke-linejoin="round" stroke-width="1.994"/>
          <path id="Trazado_611" data-name="Trazado 611" d="M628.2,381.781a6.376,6.376,0,0,1,5.462-5.736,6.644,6.644,0,0,1,7.416,5.679,6.276,6.276,0,0,1-.624,3.67" transform="translate(-596.734 -369.84)" fill="none" stroke="#063916" stroke-linejoin="round" stroke-width="1.994"/>
          <path id="Trazado_612" data-name="Trazado 612" d="M640.881,427.291c4.688,3.446,11.121,2.865,15.534-.6,5.4-4.235,5.627-12.763,1.446-17.7a11.66,11.66,0,0,0-6.916-3.863" transform="translate(-593.102 -361.494)" fill="none" stroke="#063916" stroke-linejoin="round" stroke-width="1.994"/>
          <path id="Trazado_613" data-name="Trazado 613" d="M644.016,421.31a6.459,6.459,0,0,0,8.471-9.551,6.036,6.036,0,0,0-3.1-1.9" transform="translate(-592.204 -360.139)" fill="none" stroke="#063916" stroke-linejoin="round" stroke-width="1.994"/>
          <path id="Trazado_614" data-name="Trazado 614" d="M651.382,409.748a12.531,12.531,0,0,0,10.933-11.679c.431-7.143-6.137-13.326-12.744-13.649a11.682,11.682,0,0,0-7.6,2.463" transform="translate(-592.789 -367.428)" fill="none" stroke="#063916" stroke-linejoin="round" stroke-width="1.994"/>
          <path id="Trazado_615" data-name="Trazado 615" d="M650.045,402.194a6.3,6.3,0,0,0,5.139-6.023,6.771,6.771,0,0,0-6.446-6.9,6.217,6.217,0,0,0-3.587.981" transform="translate(-591.879 -366.035)" fill="none" stroke="#063916" stroke-linejoin="round" stroke-width="1.994"/>
        </g>
        <g id="Grupo_222" data-name="Grupo 222" transform="translate(511.68 126.748)">
          <path id="Trazado_616" data-name="Trazado 616" d="M656.4,444.745c.2-.149.4-.3.611-.442a19.333,19.333,0,0,1,28.1,6.672c5.557,10.278,1.648,23.577-8.929,28.686-.226.109-.455.21-.683.31,1.836,4.168,2.713,6.289,4.381,10.6.232-.093.473-.175.7-.278,15.54-7.215,23.1-29.437,14.455-45.089-8.476-15.335-30.688-19.743-44.182-9.863-.2.143-.394.313-.592.468C652.777,439.312,654.008,441.1,656.4,444.745Z" transform="translate(-648.834 -417.042)" fill="none" stroke="#063916" stroke-linejoin="round" stroke-width="1.994"/>
          <path id="Trazado_617" data-name="Trazado 617" d="M650.211,437.852a13.163,13.163,0,0,1,3.779-15.357c5-3.965,13.5-3.4,17.4,2.33a13.3,13.3,0,0,1,2.364,7.81" transform="translate(-649.149 -419.943)" fill="none" stroke="#063916" stroke-linejoin="round" stroke-width="1.994"/>
          <path id="Trazado_618" data-name="Trazado 618" d="M654.168,433.468a6.631,6.631,0,0,1,2.146-7.577,6.171,6.171,0,0,1,8.873,1.252,6.42,6.42,0,0,1,1.194,3.536" transform="translate(-647.835 -418.624)" fill="none" stroke="#063916" stroke-linejoin="round" stroke-width="1.994"/>
          <path id="Trazado_619" data-name="Trazado 619" d="M669.571,431.737c1.909-5.714,7.778-9.576,13.619-8.266,6.706,1.5,12.037,9.174,10.681,16.27a12.621,12.621,0,0,1-3.943,7.175" transform="translate(-643.301 -419.006)" fill="none" stroke="#063916" stroke-linejoin="round" stroke-width="1.994"/>
          <path id="Trazado_620" data-name="Trazado 620" d="M674.159,432.175a6.062,6.062,0,0,1,6.919-3.756,7.28,7.28,0,0,1,5.4,8.229,6.4,6.4,0,0,1-1.688,3.419" transform="translate(-641.987 -417.555)" fill="none" stroke="#063916" stroke-linejoin="round" stroke-width="1.994"/>
          <path id="Trazado_621" data-name="Trazado 621" d="M673.728,481.969a12.716,12.716,0,0,0,14.932,5.272c6.928-2.491,9.056-11.352,6.736-17.486a13.034,13.034,0,0,0-5.415-6.486" transform="translate(-642.11 -407.535)" fill="none" stroke="#063916" stroke-linejoin="round" stroke-width="1.994"/>
          <path id="Trazado_622" data-name="Trazado 622" d="M677.793,477.466a6.255,6.255,0,0,0,7.487,2.362,7.025,7.025,0,0,0,1.077-11.968" transform="translate(-640.946 -406.221)" fill="none" stroke="#063916" stroke-linejoin="round" stroke-width="1.994"/>
          <path id="Trazado_623" data-name="Trazado 623" d="M687.7,468.457a11.815,11.815,0,0,0,13.928-7.729c2.459-6.925-1.607-15.509-8.058-18.337a11.054,11.054,0,0,0-7.988-.279" transform="translate(-638.717 -413.77)" fill="none" stroke="#063916" stroke-linejoin="round" stroke-width="1.994"/>
          <path id="Trazado_624" data-name="Trazado 624" d="M688.592,460.605a5.947,5.947,0,0,0,6.7-4.165,7.673,7.673,0,0,0-4.075-9.271,5.9,5.9,0,0,0-3.715-.319" transform="translate(-638.165 -412.285)" fill="none" stroke="#063916" stroke-linejoin="round" stroke-width="1.994"/>
        </g>
        <g id="Grupo_223" data-name="Grupo 223" transform="translate(549.833 205.862)">
          <path id="Trazado_625" data-name="Trazado 625" d="M682.012,505.834c.237-.077.473-.153.713-.221,11.284-3.231,23.179,7.435,24.515,18.191,1.448,11.679-4.624,25.478-17.365,27-.242.03-.494.037-.74.052.424,5.254.585,7.916.8,13.313.247-.005.5-.008.742-.013,20.239-.517,30.034-25.469,27.734-42.458-2.465-18.2-21.18-33.324-38.782-27.775-.229.072-.47.17-.7.253C680.249,498.766,680.869,501.1,682.012,505.834Z" transform="translate(-678.776 -478.205)" fill="none" stroke="#063916" stroke-linejoin="round" stroke-width="1.994"/>
          <path id="Trazado_626" data-name="Trazado 626" d="M678.881,496.389c-.609-6.01,2.652-12.277,8.256-14.328,6.436-2.355,14.068,2.33,15.8,9.087a16.306,16.306,0,0,1-.152,9" transform="translate(-678.809 -481.445)" fill="none" stroke="#063916" stroke-linejoin="round" stroke-width="1.994"/>
          <path id="Trazado_627" data-name="Trazado 627" d="M683.478,493.814a6.885,6.885,0,0,1,4.344-6.975c3.315-1.168,6.955.911,8.033,4.716a7.829,7.829,0,0,1,.05,4.12" transform="translate(-677.475 -479.993)" fill="none" stroke="#063916" stroke-linejoin="round" stroke-width="1.994"/>
          <path id="Trazado_628" data-name="Trazado 628" d="M698.667,497.678c3.428-5.108,10.426-6.886,15.448-3.248,6.119,4.433,8.557,14.281,5.089,21.254a12.272,12.272,0,0,1-5.96,5.991" transform="translate(-673.122 -478.276)" fill="none" stroke="#063916" stroke-linejoin="round" stroke-width="1.994"/>
          <path id="Trazado_629" data-name="Trazado 629" d="M702.561,500.363a5.5,5.5,0,0,1,7.713-1.187c3.133,2.195,4.307,7.1,2.572,10.751a6.354,6.354,0,0,1-2.656,2.92" transform="translate(-672.006 -476.676)" fill="none" stroke="#063916" stroke-linejoin="round" stroke-width="1.994"/>
          <path id="Trazado_630" data-name="Trazado 630" d="M687.683,552.238c1.19,6.038,5.787,11.856,12.376,12.031,8.21.219,12.1-9.762,11.867-16.314a17.229,17.229,0,0,0-3.058-9.271" transform="translate(-676.267 -465.052)" fill="none" stroke="#063916" stroke-linejoin="round" stroke-width="1.994"/>
          <path id="Trazado_631" data-name="Trazado 631" d="M692.288,549.745c.816,3.316,3.343,5.781,6.3,5.705,3.487-.087,6.247-3.815,6.051-8.253a9.183,9.183,0,0,0-1.263-4.335" transform="translate(-674.948 -463.856)" fill="none" stroke="#063916" stroke-linejoin="round" stroke-width="1.994"/>
          <path id="Trazado_632" data-name="Trazado 632" d="M705.22,544.622a10.437,10.437,0,0,0,15.563-2.6c4.266-6.57,3.884-17.137-1.863-22.894a11.219,11.219,0,0,0-7.465-3.516" transform="translate(-671.245 -471.661)" fill="none" stroke="#063916" stroke-linejoin="round" stroke-width="1.994"/>
          <path id="Trazado_633" data-name="Trazado 633" d="M707.835,536.667a5.3,5.3,0,0,0,7.632-1.726,9.848,9.848,0,0,0-.944-11.576,5.859,5.859,0,0,0-3.41-1.846" transform="translate(-670.496 -469.968)" fill="none" stroke="#063916" stroke-linejoin="round" stroke-width="1.994"/>
        </g>
      </g>
    </g>
    <g id="Grupo_237" data-name="Grupo 237" transform="translate(252.086 626.136)">
      <g id="Grupo_236" data-name="Grupo 236" transform="translate(0 0)">
        <g id="Grupo_226" data-name="Grupo 226" transform="translate(548.537)">
          <path id="Trazado_634" data-name="Trazado 634" d="M689.068,581.748c.247.018.5.031.74.063,12.7,1.7,18.672,15.541,17.138,27.22-1.409,10.718-13.412,21.158-24.59,17.793-.238-.072-.475-.152-.71-.23-1.171,4.709-1.8,7.026-3.157,11.588.233.087.468.19.7.262,17.448,5.526,36.482-8.828,38.89-27.13,2.222-16.886-7.19-42.035-27.375-42.834-.243-.009-.494-.015-.741-.023C689.71,573.847,689.531,576.506,689.068,581.748Z" transform="translate(-678.308 -555.388)" fill="none" stroke="#063916" stroke-linejoin="round" stroke-width="1.994"/>
          <path id="Trazado_635" data-name="Trazado 635" d="M687.613,570.253c1.2-6.031,6.126-12.123,12.394-11.952,7.448.2,12.358,9.276,11.833,16.382a18.412,18.412,0,0,1-3.076,9.247" transform="translate(-675.695 -558.297)" fill="none" stroke="#063916" stroke-linejoin="round" stroke-width="1.994"/>
          <path id="Trazado_636" data-name="Trazado 636" d="M692.212,569.833c.84-3.3,3.385-5.728,6.339-5.609,3.485.142,6.214,3.913,5.983,8.346a9.129,9.129,0,0,1-1.3,4.311" transform="translate(-674.378 -556.601)" fill="none" stroke="#063916" stroke-linejoin="round" stroke-width="1.994"/>
          <path id="Trazado_637" data-name="Trazado 637" d="M705.02,579.76c5.1-4.024,12.066-2.362,15.523,2.892,4.357,6.618,3.466,17.2-2.086,22.8a10.833,10.833,0,0,1-7.485,3.365" transform="translate(-670.71 -552.792)" fill="none" stroke="#063916" stroke-linejoin="round" stroke-width="1.994"/>
          <path id="Trazado_638" data-name="Trazado 638" d="M707.587,584.369c2.554-1.652,5.723-1.034,7.607,1.867a9.793,9.793,0,0,1-1.056,11.529,5.8,5.8,0,0,1-3.424,1.778" transform="translate(-669.975 -551.089)" fill="none" stroke="#063916" stroke-linejoin="round" stroke-width="1.994"/>
          <path id="Trazado_639" data-name="Trazado 639" d="M678.421,624.325a14.026,14.026,0,0,0,8.229,14.332c6.864,2.916,13.89-2.8,15.755-8.961a15.11,15.11,0,0,0-.144-8.975" transform="translate(-678.349 -540.421)" fill="none" stroke="#063916" stroke-linejoin="round" stroke-width="1.994"/>
          <path id="Trazado_640" data-name="Trazado 640" d="M683.019,624.759a6.925,6.925,0,0,0,4.284,7.015c3.3,1.21,6.939-.809,8.041-4.586a7.8,7.8,0,0,0,.079-4.107" transform="translate(-677.015 -539.745)" fill="none" stroke="#063916" stroke-linejoin="round" stroke-width="1.994"/>
          <path id="Trazado_641" data-name="Trazado 641" d="M698.094,625.932a11.117,11.117,0,0,0,15.379,3.513c6.739-4.333,8.2-14.429,5.279-21.084a11.866,11.866,0,0,0-5.89-6.086" transform="translate(-672.694 -545.703)" fill="none" stroke="#063916" stroke-linejoin="round" stroke-width="1.994"/>
          <path id="Trazado_642" data-name="Trazado 642" d="M702.009,620.156a5.507,5.507,0,0,0,7.682,1.322c3.145-2.13,4.363-6.993,2.667-10.668a6.422,6.422,0,0,0-2.623-2.961" transform="translate(-671.573 -544.107)" fill="none" stroke="#063916" stroke-linejoin="round" stroke-width="1.994"/>
        </g>
        <g id="Grupo_227" data-name="Grupo 227" transform="translate(510.164 97.389)">
          <path id="Trazado_643" data-name="Trazado 643" d="M674.959,649.8c.227.1.454.2.679.317,10.5,5.217,14.307,18.516,8.719,28.674a19.148,19.148,0,0,1-27.977,6.316c-.207-.145-.405-.3-.6-.446-2.391,3.6-3.623,5.369-6.149,8.827.2.157.387.327.586.472,13.3,9.7,35.71,6.328,43.981-9.3,8.233-15.556,1.42-37.85-14.117-45.085-.219-.1-.462-.189-.692-.286C677.7,643.565,676.811,645.667,674.959,649.8Z" transform="translate(-648.201 -632.492)" fill="none" stroke="#063916" stroke-linejoin="round" stroke-width="1.994"/>
          <path id="Trazado_644" data-name="Trazado 644" d="M673.186,639.995c3.136-4.942,9.546-7.38,14.876-5.169,6.27,2.6,9.46,11.011,6.715,17.457a13.653,13.653,0,0,1-5.391,6.429" transform="translate(-641.454 -634.005)" fill="none" stroke="#063916" stroke-linejoin="round" stroke-width="1.994"/>
          <path id="Trazado_645" data-name="Trazado 645" d="M677.245,641.725a6.2,6.2,0,0,1,7.474-2.255,6.86,6.86,0,0,1,3.378,8.9,6.745,6.745,0,0,1-2.384,3.04" transform="translate(-640.292 -632.576)" fill="none" stroke="#063916" stroke-linejoin="round" stroke-width="1.994"/>
          <path id="Trazado_646" data-name="Trazado 646" d="M686.92,654.475a11.7,11.7,0,0,1,13.8,7.918c1.976,6.553-1.149,15.489-8.167,18.108a11.541,11.541,0,0,1-7.949.152" transform="translate(-638.183 -628.23)" fill="none" stroke="#063916" stroke-linejoin="round" stroke-width="1.994"/>
          <path id="Trazado_647" data-name="Trazado 647" d="M687.75,659.367a5.974,5.974,0,0,1,6.641,4.253,7.572,7.572,0,0,1-4.129,9.156,5.869,5.869,0,0,1-3.7.259" transform="translate(-637.623 -626.763)" fill="none" stroke="#063916" stroke-linejoin="round" stroke-width="1.994"/>
          <path id="Trazado_648" data-name="Trazado 648" d="M649.535,682.136a13.433,13.433,0,0,0,3.793,15.294c5.191,4.5,13.448,2.879,17.28-2.267a12.356,12.356,0,0,0,2.331-7.755" transform="translate(-648.518 -620.222)" fill="none" stroke="#063916" stroke-linejoin="round" stroke-width="1.994"/>
          <path id="Trazado_649" data-name="Trazado 649" d="M653.507,684.495a6.626,6.626,0,0,0,2.1,7.559,6.119,6.119,0,0,0,8.822-1.15,6.356,6.356,0,0,0,1.2-3.505" transform="translate(-647.215 -619.546)" fill="none" stroke="#063916" stroke-linejoin="round" stroke-width="1.994"/>
          <path id="Trazado_650" data-name="Trazado 650" d="M668.605,689.889a12.173,12.173,0,0,0,13.48,8.408c7.283-1.206,11.678-9.387,10.739-16.013a12,12,0,0,0-3.868-7.195" transform="translate(-642.766 -622.24)" fill="none" stroke="#063916" stroke-linejoin="round" stroke-width="1.994"/>
          <path id="Trazado_651" data-name="Trazado 651" d="M673.175,686.911a6.074,6.074,0,0,0,6.853,3.832,7.175,7.175,0,0,0,5.43-8.1,6.418,6.418,0,0,0-1.654-3.426" transform="translate(-641.457 -621.058)" fill="none" stroke="#063916" stroke-linejoin="round" stroke-width="1.994"/>
        </g>
        <g id="Grupo_228" data-name="Grupo 228" transform="translate(451.377 172.256)">
          <path id="Trazado_652" data-name="Trazado 652" d="M641.743,702.128c.184.17.369.338.549.514,7.888,7.709,8.682,20.981.152,28.566s-21.449,5.106-28.132-3.643c-.153-.2-.3-.4-.444-.607-3.274,2.49-4.935,3.7-8.3,6.045.141.208.274.427.421.625,9.384,12.686,31.2,17.945,44.053,6.18,12.7-11.629,11.161-33.936-.629-44.915-.178-.166-.38-.328-.57-.493C646.064,697.566,644.642,699.11,641.743,702.128Z" transform="translate(-602.031 -691.576)" fill="none" stroke="#063916" stroke-linejoin="round" stroke-width="1.994"/>
          <path id="Trazado_653" data-name="Trazado 653" d="M639.787,694.515a12.59,12.59,0,0,1,15.419.69c4.8,4.138,6.1,12.564,1.435,17.6a12.179,12.179,0,0,1-6.863,3.8" transform="translate(-592.232 -692.205)" fill="none" stroke="#063916" stroke-linejoin="round" stroke-width="1.994"/>
          <path id="Trazado_654" data-name="Trazado 654" d="M642.917,697.79a6.44,6.44,0,0,1,8.339,9.6,5.947,5.947,0,0,1-3.088,1.849" transform="translate(-591.336 -690.893)" fill="none" stroke="#063916" stroke-linejoin="round" stroke-width="1.994"/>
          <path id="Trazado_655" data-name="Trazado 655" d="M649.926,712.447c5.925.837,10.691,5.862,10.748,11.761.062,6.559-5.714,13.417-12.757,13.362a12.316,12.316,0,0,1-7.514-2.55" transform="translate(-592.056 -686.408)" fill="none" stroke="#063916" stroke-linejoin="round" stroke-width="1.994"/>
          <path id="Trazado_656" data-name="Trazado 656" d="M648.54,717.2a6.308,6.308,0,0,1,5.047,6.055,6.67,6.67,0,0,1-6.451,6.756,6.178,6.178,0,0,1-3.549-1.025" transform="translate(-591.145 -685.047)" fill="none" stroke="#063916" stroke-linejoin="round" stroke-width="1.994"/>
          <path id="Trazado_657" data-name="Trazado 657" d="M605.715,724.963c-3.8,4.264-3.658,10.654-.75,15.308a12.375,12.375,0,0,0,16.944,3.534,11.2,11.2,0,0,0,4.387-6.333" transform="translate(-602.819 -682.824)" fill="none" stroke="#063916" stroke-linejoin="round" stroke-width="1.994"/>
          <path id="Trazado_658" data-name="Trazado 658" d="M608.571,728.467a6.368,6.368,0,0,0-.158,7.628,6.2,6.2,0,0,0,8.647,1.821,5.761,5.761,0,0,0,2.125-2.817" transform="translate(-601.558 -681.82)" fill="none" stroke="#063916" stroke-linejoin="round" stroke-width="1.994"/>
          <path id="Trazado_659" data-name="Trazado 659" d="M622.006,736.855a12.713,12.713,0,0,0,10.319,12.125c6.891,1.276,13.606-4.479,14.617-10.963a11.747,11.747,0,0,0-1.612-7.788" transform="translate(-597.325 -681.316)" fill="none" stroke="#063916" stroke-linejoin="round" stroke-width="1.994"/>
          <path id="Trazado_660" data-name="Trazado 660" d="M626.7,736.382a6.371,6.371,0,0,0,5.369,5.763,6.55,6.55,0,0,0,7.393-5.546,6.237,6.237,0,0,0-.59-3.651" transform="translate(-595.979 -680.537)" fill="none" stroke="#063916" stroke-linejoin="round" stroke-width="1.994"/>
        </g>
        <g id="Grupo_229" data-name="Grupo 229" transform="translate(379.932 223.58)">
          <path id="Trazado_661" data-name="Trazado 661" d="M595.278,737.674c.127.216.255.431.376.651,5.259,9.54,2.385,22.292-7.889,26.851s-21.807-1.613-25.693-11.908c-.09-.235-.17-.472-.251-.708-3.817,1.387-5.737,2.044-9.6,3.284.075.239.14.485.224.717,5.335,14.685,24.26,27.248,40.111,19.033,14.507-7.519,21.243-27.876,12.025-42.256-.131-.2-.268-.423-.4-.635C600.655,734.764,598.875,735.758,595.278,737.674Z" transform="translate(-545.865 -731.931)" fill="none" stroke="#063916" stroke-linejoin="round" stroke-width="1.994"/>
          <path id="Trazado_662" data-name="Trazado 662" d="M593.268,732.628a12.869,12.869,0,0,1,14.392,5.538c3.3,5.22,2.323,13.534-3.58,16.785a11.912,11.912,0,0,1-7.56,1.391" transform="translate(-534.109 -732.103)" fill="none" stroke="#063916" stroke-linejoin="round" stroke-width="1.994"/>
          <path id="Trazado_663" data-name="Trazado 663" d="M595.228,736.855a6.494,6.494,0,0,1,7.064,3.008,6.088,6.088,0,0,1-1.867,8.553,5.767,5.767,0,0,1-3.442.748" transform="translate(-533.548 -730.798)" fill="none" stroke="#063916" stroke-linejoin="round" stroke-width="1.994"/>
          <path id="Trazado_664" data-name="Trazado 664" d="M599.1,752.212c5.283,2.581,8.489,8.706,6.868,14.346-1.8,6.258-9.316,10.767-15.822,8.6a12.64,12.64,0,0,1-6.4-4.7" transform="translate(-536.839 -726.344)" fill="none" stroke="#063916" stroke-linejoin="round" stroke-width="1.994"/>
          <path id="Trazado_665" data-name="Trazado 665" d="M595.775,756.542a6.333,6.333,0,1,1-8,9.533" transform="translate(-535.682 -725.104)" fill="none" stroke="#063916" stroke-linejoin="round" stroke-width="1.994"/>
          <path id="Trazado_666" data-name="Trazado 666" d="M552.819,751.07c-4.814,2.933-6.492,9.062-5.028,14.349a12.422,12.422,0,0,0,15.132,8.32,10.92,10.92,0,0,0,5.955-4.717" transform="translate(-547.279 -726.671)" fill="none" stroke="#063916" stroke-linejoin="round" stroke-width="1.994"/>
          <path id="Trazado_667" data-name="Trazado 667" d="M554.233,755.34a6.469,6.469,0,0,0,5.416,11.477,5.613,5.613,0,0,0,2.813-2.048" transform="translate(-546.041 -725.448)" fill="none" stroke="#063916" stroke-linejoin="round" stroke-width="1.994"/>
          <path id="Trazado_668" data-name="Trazado 668" d="M564.857,765.961a12.858,12.858,0,0,0,6.4,14.575c6.1,3.215,14.127-.1,16.944-5.989a11.606,11.606,0,0,0,.66-7.838" transform="translate(-542.365 -722.407)" fill="none" stroke="#063916" stroke-linejoin="round" stroke-width="1.994"/>
          <path id="Trazado_669" data-name="Trazado 669" d="M569.188,767.587a6.45,6.45,0,0,0,3.48,7.065,6.385,6.385,0,0,0,8.572-3.029,6.175,6.175,0,0,0,.466-3.629" transform="translate(-541.041 -721.941)" fill="none" stroke="#063916" stroke-linejoin="round" stroke-width="1.994"/>
        </g>
        <g id="Grupo_230" data-name="Grupo 230" transform="translate(301.362 252.806)">
          <path id="Trazado_670" data-name="Trazado 670" d="M540.151,757.029c.059.242.121.484.175.729,2.355,10.71-4.083,21.994-15.1,23.482s-20.408-7.568-21.242-18.564c-.019-.251-.03-.5-.041-.749-4.048.279-6.076.381-10.133.512.006.25,0,.5.014.75.962,15.539,15.63,32.8,33.052,29.383,15.961-3.131,28.119-20.693,23.376-37.027-.068-.234-.135-.481-.2-.723C546.106,755.779,544.125,756.22,540.151,757.029Z" transform="translate(-484.022 -754.823)" fill="none" stroke="#063916" stroke-linejoin="round" stroke-width="1.994"/>
          <path id="Trazado_671" data-name="Trazado 671" d="M539.005,754.83a12.9,12.9,0,0,1,12.159,9.442c1.681,5.968-1.636,13.583-8.136,14.979a11.848,11.848,0,0,1-7.6-.836" transform="translate(-472.103 -754.821)" fill="none" stroke="#063916" stroke-linejoin="round" stroke-width="1.994"/>
          <path id="Trazado_672" data-name="Trazado 672" d="M539.266,759.5a6.5,6.5,0,0,1,5.886,4.9,6.037,6.037,0,0,1-4.187,7.627,5.749,5.749,0,0,1-3.494-.273" transform="translate(-471.518 -753.484)" fill="none" stroke="#063916" stroke-linejoin="round" stroke-width="1.994"/>
          <path id="Trazado_673" data-name="Trazado 673" d="M539.365,774.342c4.324,3.985,5.639,10.775,2.52,15.686-3.468,5.459-11.866,7.684-17.513,3.756a12.594,12.594,0,0,1-4.8-6.3" transform="translate(-476.645 -749.233)" fill="none" stroke="#063916" stroke-linejoin="round" stroke-width="1.994"/>
          <path id="Trazado_674" data-name="Trazado 674" d="M534.431,778.006a6.42,6.42,0,0,1,.9,7.8,6.358,6.358,0,0,1-11.221-.936" transform="translate(-475.344 -748.184)" fill="none" stroke="#063916" stroke-linejoin="round" stroke-width="1.994"/>
          <path id="Trazado_675" data-name="Trazado 675" d="M495.069,760.934c-5.419,1.491-8.774,6.871-8.867,12.4a12.321,12.321,0,0,0,12.176,12.137,10.978,10.978,0,0,0,7.031-2.888" transform="translate(-486.201 -753.073)" fill="none" stroke="#063916" stroke-linejoin="round" stroke-width="1.994"/>
          <path id="Trazado_676" data-name="Trazado 676" d="M494.812,765.6a6.335,6.335,0,0,0-4.237,6.289,6.174,6.174,0,0,0,6.2,6.216,5.655,5.655,0,0,0,3.274-1.193" transform="translate(-484.949 -751.738)" fill="none" stroke="#063916" stroke-linejoin="round" stroke-width="1.994"/>
          <path id="Trazado_677" data-name="Trazado 677" d="M501.942,778.853a12.828,12.828,0,0,0,2.036,15.763c5.013,4.837,13.592,3.781,17.891-1.033a11.639,11.639,0,0,0,2.829-7.335" transform="translate(-482.215 -747.941)" fill="none" stroke="#063916" stroke-linejoin="round" stroke-width="1.994"/>
          <path id="Trazado_678" data-name="Trazado 678" d="M505.454,781.629a6.442,6.442,0,0,0,1.349,7.748,6.36,6.36,0,0,0,9.051-.521,6.2,6.2,0,0,0,1.465-3.354" transform="translate(-480.898 -747.146)" fill="none" stroke="#063916" stroke-linejoin="round" stroke-width="1.994"/>
        </g>
        <g id="Grupo_231" data-name="Grupo 231" transform="translate(221.72 252.431)">
          <path id="Trazado_679" data-name="Trazado 679" d="M481.136,761.9c-.01.248-.019.5-.036.747-.777,10.983-10.107,19.99-21.139,18.441s-17.528-12.852-15.236-23.556c.052-.246.112-.487.171-.729-3.98-.83-5.962-1.281-9.912-2.258-.066.241-.144.482-.2.72-3.435,15.175,5.924,35.711,23.583,37.145,16.244,1.318,32.851-12.128,32.893-29.194,0-.245.005-.5.009-.75C487.214,762.312,485.187,762.2,481.136,761.9Z" transform="translate(-421.484 -754.527)" fill="none" stroke="#063916" stroke-linejoin="round" stroke-width="1.994"/>
          <path id="Trazado_680" data-name="Trazado 680" d="M481.435,760.894a12.742,12.742,0,0,1,9.018,12.378c-.075,6.244-5.4,12.587-12.024,12.164a11.784,11.784,0,0,1-7.069-2.872" transform="translate(-410.809 -752.709)" fill="none" stroke="#063916" stroke-linejoin="round" stroke-width="1.994"/>
          <path id="Trazado_681" data-name="Trazado 681" d="M479.66,765.554a6.421,6.421,0,0,1,4.272,6.312,6.094,6.094,0,0,1-6.166,6.182,5.722,5.722,0,0,1-3.28-1.212" transform="translate(-409.914 -751.374)" fill="none" stroke="#063916" stroke-linejoin="round" stroke-width="1.994"/>
          <path id="Trazado_682" data-name="Trazado 682" d="M475.638,778.743c3.077,5.088,2.341,11.938-1.976,15.749-4.784,4.223-13.474,4.241-17.9-1.16a12.42,12.42,0,0,1-2.857-7.354" transform="translate(-416.093 -747.597)" fill="none" stroke="#063916" stroke-linejoin="round" stroke-width="1.994"/>
          <path id="Trazado_683" data-name="Trazado 683" d="M469.473,781.493a6.335,6.335,0,0,1-10.375,7.151,6.25,6.25,0,0,1-1.475-3.363" transform="translate(-414.743 -746.809)" fill="none" stroke="#063916" stroke-linejoin="round" stroke-width="1.994"/>
          <path id="Trazado_684" data-name="Trazado 684" d="M436.835,754.531c-5.661-.036-10.389,4.183-12.049,9.46-2,6.36,2.3,13.387,8.331,14.95a11.13,11.13,0,0,0,7.591-.854" transform="translate(-424.289 -754.531)" fill="none" stroke="#063916" stroke-linejoin="round" stroke-width="1.994"/>
          <path id="Trazado_685" data-name="Trazado 685" d="M434.827,759.209a6.41,6.41,0,0,0-5.858,4.87,6.1,6.1,0,0,0,4.23,7.646,5.738,5.738,0,0,0,3.492-.252" transform="translate(-423.015 -753.191)" fill="none" stroke="#063916" stroke-linejoin="round" stroke-width="1.994"/>
          <path id="Trazado_686" data-name="Trazado 686" d="M438.054,774a12.726,12.726,0,0,0-2.459,15.665c3.541,6.118,12.15,7.266,17.531,3.88a11.738,11.738,0,0,0,4.779-6.268" transform="translate(-421.529 -748.956)" fill="none" stroke="#063916" stroke-linejoin="round" stroke-width="1.994"/>
          <path id="Trazado_687" data-name="Trazado 687" d="M440.378,777.68a6.343,6.343,0,0,0,8,9.757,6.256,6.256,0,0,0,2.35-2.819" transform="translate(-420.201 -747.902)" fill="none" stroke="#063916" stroke-linejoin="round" stroke-width="1.994"/>
        </g>
        <g id="Grupo_232" data-name="Grupo 232" transform="translate(146.303 222.42)">
          <path id="Trazado_688" data-name="Trazado 688" d="M422.4,752.017c-.081.235-.161.471-.25.705-3.876,10.21-15.374,16.32-25.667,11.675s-13.2-17.4-7.966-26.88c.122-.219.248-.433.376-.647-3.6-1.943-5.387-2.951-8.917-5.039-.132.211-.279.419-.4.632-7.713,13.544-4.456,35.941,12.143,42.3,15.3,5.859,35.125-2.223,40.071-18.67.071-.234.148-.476.222-.714C428.144,754.107,426.22,753.435,422.4,752.017Z" transform="translate(-362.813 -731.022)" fill="none" stroke="#063916" stroke-linejoin="round" stroke-width="1.994"/>
          <path id="Trazado_689" data-name="Trazado 689" d="M423.568,750.5a12.578,12.578,0,0,1,5.165,14.334c-1.855,5.943-8.726,10.563-15.057,8.3a11.736,11.736,0,0,1-6-4.719" transform="translate(-353.63 -725.675)" fill="none" stroke="#063916" stroke-linejoin="round" stroke-width="1.994"/>
          <path id="Trazado_690" data-name="Trazado 690" d="M419.866,754.768a6.335,6.335,0,0,1,2.322,7.222,6.164,6.164,0,0,1-7.708,4.2,5.717,5.717,0,0,1-2.821-2.072" transform="translate(-352.489 -724.453)" fill="none" stroke="#063916" stroke-linejoin="round" stroke-width="1.994"/>
          <path id="Trazado_691" data-name="Trazado 691" d="M412.055,765.17c1.528,5.795-1.173,12.087-6.383,14.5-5.744,2.663-14.19.32-16.954-6.159a12.277,12.277,0,0,1-.668-7.841" transform="translate(-359.353 -721.474)" fill="none" stroke="#063916" stroke-linejoin="round" stroke-width="1.994"/>
          <path id="Trazado_692" data-name="Trazado 692" d="M405.044,766.75a6.372,6.372,0,0,1-3.474,7.025,6.443,6.443,0,0,1-8.578-3.114,6.185,6.185,0,0,1-.47-3.631" transform="translate(-357.995 -721.021)" fill="none" stroke="#063916" stroke-linejoin="round" stroke-width="1.994"/>
          <path id="Trazado_693" data-name="Trazado 693" d="M381.908,731.717c-5.474-1.7-11.244.965-14.352,5.507-3.741,5.466-1.657,13.475,3.754,16.755a11.3,11.3,0,0,0,7.578,1.395" transform="translate(-365.661 -731.202)" fill="none" stroke="#063916" stroke-linejoin="round" stroke-width="1.994"/>
          <path id="Trazado_694" data-name="Trazado 694" d="M378.187,735.957a6.433,6.433,0,0,0-7.056,2.942,6.1,6.1,0,0,0,1.891,8.555,5.825,5.825,0,0,0,3.445.778" transform="translate(-364.378 -729.899)" fill="none" stroke="#063916" stroke-linejoin="round" stroke-width="1.994"/>
          <path id="Trazado_695" data-name="Trazado 695" d="M377.3,751.12a12.575,12.575,0,0,0-6.851,14.26c1.675,6.9,9.71,10.447,15.835,8.756a11.731,11.731,0,0,0,6.4-4.626" transform="translate(-364.392 -725.498)" fill="none" stroke="#063916" stroke-linejoin="round" stroke-width="1.994"/>
          <path id="Trazado_696" data-name="Trazado 696" d="M378.116,755.462a6.323,6.323,0,0,0-3.069,7.2,6.475,6.475,0,0,0,8.01,4.428,6.248,6.248,0,0,0,3.073-2.02" transform="translate(-363.039 -724.254)" fill="none" stroke="#063916" stroke-linejoin="round" stroke-width="1.994"/>
        </g>
        <g id="Grupo_233" data-name="Grupo 233" transform="translate(81.301 170.756)">
          <path id="Trazado_697" data-name="Trazado 697" d="M369.647,726c-.145.2-.291.4-.442.6-6.66,8.674-19.574,11.034-28.133,3.391s-7.819-20.859.064-28.475c.18-.174.365-.34.548-.508-2.91-3.032-4.336-4.583-7.129-7.758-.189.162-.382.324-.569.485-13.218,11.387-12.5,34.271-.493,44.766,11.831,10.344,34.424,8.643,44.053-5.782.135-.2.279-.413.418-.619C374.594,729.729,372.929,728.508,369.647,726Z" transform="translate(-312.51 -690.406)" fill="none" stroke="#063916" stroke-linejoin="round" stroke-width="1.994"/>
          <path id="Trazado_698" data-name="Trazado 698" d="M371.023,723.968a12.6,12.6,0,0,1,.9,15.265c-3.467,5.128-11.431,7.572-16.917,3.508a12.027,12.027,0,0,1-4.456-6.324" transform="translate(-304.987 -681.608)" fill="none" stroke="#063916" stroke-linejoin="round" stroke-width="1.994"/>
          <path id="Trazado_699" data-name="Trazado 699" d="M365.683,727.472a6.346,6.346,0,0,1,.183,7.613,6.183,6.183,0,0,1-8.647,1.743A5.846,5.846,0,0,1,355.086,734" transform="translate(-303.688 -680.605)" fill="none" stroke="#063916" stroke-linejoin="round" stroke-width="1.994"/>
          <path id="Trazado_700" data-name="Trazado 700" d="M354.9,735.57c-.17,5.978-4.546,11.244-10.308,12-6.4.834-13.836-4.1-14.638-11.1a12.284,12.284,0,0,1,1.6-7.753" transform="translate(-310.908 -680.249)" fill="none" stroke="#063916" stroke-linejoin="round" stroke-width="1.994"/>
          <path id="Trazado_701" data-name="Trazado 701" d="M347.488,735.024a6.267,6.267,0,0,1-5.364,5.695,6.642,6.642,0,0,1-7.4-5.611,6.2,6.2,0,0,1,.585-3.638" transform="translate(-309.538 -679.46)" fill="none" stroke="#063916" stroke-linejoin="round" stroke-width="1.994"/>
          <path id="Trazado_702" data-name="Trazado 702" d="M336.021,693.3a12.881,12.881,0,0,0-15.427.665c-5.315,4.219-5.453,12.662-1.249,17.531a11.677,11.677,0,0,0,6.907,3.795" transform="translate(-314.772 -691.039)" fill="none" stroke="#063916" stroke-linejoin="round" stroke-width="1.994"/>
          <path id="Trazado_703" data-name="Trazado 703" d="M330.768,696.6a6.379,6.379,0,0,0-8.314,9.495,6.049,6.049,0,0,0,3.1,1.868" transform="translate(-313.478 -689.741)" fill="none" stroke="#063916" stroke-linejoin="round" stroke-width="1.994"/>
          <path id="Trazado_704" data-name="Trazado 704" d="M325.879,710.9a12.33,12.33,0,0,0-10.735,11.612c-.355,7.076,6.224,13.167,12.781,13.463a11.535,11.535,0,0,0,7.515-2.463" transform="translate(-315.13 -685.351)" fill="none" stroke="#063916" stroke-linejoin="round" stroke-width="1.994"/>
          <path id="Trazado_705" data-name="Trazado 705" d="M324.985,715.643a6.2,6.2,0,0,0-5.04,5.984,6.762,6.762,0,0,0,6.463,6.807,6.15,6.15,0,0,0,3.55-.985" transform="translate(-313.752 -683.993)" fill="none" stroke="#063916" stroke-linejoin="round" stroke-width="1.994"/>
        </g>
        <g id="Grupo_234" data-name="Grupo 234" transform="translate(28.214 96.847)">
          <path id="Trazado_706" data-name="Trazado 706" d="M326.783,683.99c-.2.149-.4.3-.6.443a19.353,19.353,0,0,1-28.03-6.413c-5.655-10.124-1.932-23.309,8.54-28.448.225-.11.45-.21.677-.311-1.878-4.11-2.78-6.2-4.5-10.456-.229.1-.462.188-.688.282-17,7.069-21.886,30.681-13.836,44.718,7.849,13.686,30.11,20.8,44.06,9.461.188-.153.389-.311.583-.467C330.44,689.347,329.2,687.586,326.783,683.99Z" transform="translate(-270.797 -632.089)" fill="none" stroke="#063916" stroke-linejoin="round" stroke-width="1.994"/>
          <path id="Trazado_707" data-name="Trazado 707" d="M327.689,681.44a12.954,12.954,0,0,1-3.59,15.222c-4.923,3.952-13.377,3.44-17.317-2.209a13.168,13.168,0,0,1-2.439-7.712" transform="translate(-265.134 -619.879)" fill="none" stroke="#063916" stroke-linejoin="round" stroke-width="1.994"/>
          <path id="Trazado_708" data-name="Trazado 708" d="M321.14,683.82a6.519,6.519,0,0,1-2.05,7.511,6.162,6.162,0,0,1-8.832-1.189,6.369,6.369,0,0,1-1.226-3.492" transform="translate(-263.79 -619.197)" fill="none" stroke="#063916" stroke-linejoin="round" stroke-width="1.994"/>
          <path id="Trazado_709" data-name="Trazado 709" d="M308.5,688.847c-1.832,5.668-7.622,9.527-13.445,8.275-6.688-1.439-12.083-8.98-10.822-16.009a12.4,12.4,0,0,1,3.836-7.129" transform="translate(-270.946 -622.014)" fill="none" stroke="#063916" stroke-linejoin="round" stroke-width="1.994"/>
          <path id="Trazado_710" data-name="Trazado 710" d="M301.232,685.838A6,6,0,0,1,294.4,689.6a7.238,7.238,0,0,1-5.471-8.1,6.285,6.285,0,0,1,1.638-3.395" transform="translate(-269.572 -620.832)" fill="none" stroke="#063916" stroke-linejoin="round" stroke-width="1.994"/>
          <path id="Trazado_711" data-name="Trazado 711" d="M303.328,639.414a12.753,12.753,0,0,0-14.95-5.08c-6.875,2.526-8.877,11.311-6.485,17.353a12.976,12.976,0,0,0,5.477,6.364" transform="translate(-271.839 -633.584)" fill="none" stroke="#063916" stroke-linejoin="round" stroke-width="1.994"/>
          <path id="Trazado_712" data-name="Trazado 712" d="M296.85,641.211a6.276,6.276,0,0,0-7.492-2.269,6.726,6.726,0,0,0-3.324,8.816,6.81,6.81,0,0,0,2.4,3.029" transform="translate(-270.531 -632.182)" fill="none" stroke="#063916" stroke-linejoin="round" stroke-width="1.994"/>
          <path id="Trazado_713" data-name="Trazado 713" d="M288.3,653.486a11.735,11.735,0,0,0-13.773,7.772c-2.359,6.869,1.8,15.314,8.26,18.054a11.082,11.082,0,0,0,7.954.208" transform="translate(-273.862 -627.975)" fill="none" stroke="#063916" stroke-linejoin="round" stroke-width="1.994"/>
          <path id="Trazado_714" data-name="Trazado 714" d="M285.579,658.338a5.9,5.9,0,0,0-6.625,4.179,7.6,7.6,0,0,0,4.177,9.129,5.931,5.931,0,0,0,3.7.284" transform="translate(-272.499 -626.517)" fill="none" stroke="#063916" stroke-linejoin="round" stroke-width="1.994"/>
        </g>
        <g id="Grupo_235" data-name="Grupo 235" transform="translate(0 0.215)">
          <path id="Trazado_715" data-name="Trazado 715" d="M298.745,626.168c-.235.077-.471.156-.709.227-11.149,3.283-23.207-7.022-24.714-17.725-1.634-11.612,4.335-25.269,16.984-26.9.243-.031.494-.042.74-.059-.494-5.193-.689-7.826-.972-13.165-.247.008-.494.006-.741.022C269.3,569.811,258.5,593.22,262.2,610.887c3.4,16.221,20.762,34.025,39.079,27.043.226-.086.467-.172.7-.257C300.593,633.142,299.946,630.841,298.745,626.168Z" transform="translate(-249.195 -555.578)" fill="none" stroke="#063916" stroke-linejoin="round" stroke-width="1.994"/>
          <path id="Trazado_716" data-name="Trazado 716" d="M298.49,623.845c.684,5.939-2.487,12.167-8.046,14.248-6.387,2.39-14.058-2.165-15.877-8.826a15.98,15.98,0,0,1,.028-8.9" transform="translate(-245.623 -540.738)" fill="none" stroke="#063916" stroke-linejoin="round" stroke-width="1.994"/>
          <path id="Trazado_717" data-name="Trazado 717" d="M291.256,624.359a6.779,6.779,0,0,1-4.24,6.94c-3.292,1.187-6.948-.831-8.076-4.582a7.673,7.673,0,0,1-.1-4.074" transform="translate(-244.288 -540.085)" fill="none" stroke="#063916" stroke-linejoin="round" stroke-width="1.994"/>
          <path id="Trazado_718" data-name="Trazado 718" d="M278.18,625.086c-3.351,5.089-10.306,6.922-15.37,3.386-6.169-4.308-8.746-14.009-5.382-20.941a12.157,12.157,0,0,1,5.865-5.994" transform="translate(-250.78 -546.13)" fill="none" stroke="#063916" stroke-linejoin="round" stroke-width="1.994"/>
          <path id="Trazado_719" data-name="Trazado 719" d="M271.779,619.322a5.514,5.514,0,0,1-7.68,1.263,8.832,8.832,0,0,1-2.721-10.6,6.306,6.306,0,0,1,2.611-2.919" transform="translate(-249.438 -544.545)" fill="none" stroke="#063916" stroke-linejoin="round" stroke-width="1.994"/>
          <path id="Trazado_720" data-name="Trazado 720" d="M288.881,570.219c-1.267-5.962-5.943-11.665-12.537-11.754-8.217-.111-11.968,9.815-11.648,16.292a16.931,16.931,0,0,0,3.188,9.128" transform="translate(-248.278 -558.464)" fill="none" stroke="#063916" stroke-linejoin="round" stroke-width="1.994"/>
          <path id="Trazado_721" data-name="Trazado 721" d="M281.647,569.9c-.861-3.271-3.42-5.679-6.375-5.567-3.486.131-6.2,3.854-5.939,8.242a9.013,9.013,0,0,0,1.322,4.272" transform="translate(-246.95 -556.786)" fill="none" stroke="#063916" stroke-linejoin="round" stroke-width="1.994"/>
          <path id="Trazado_722" data-name="Trazado 722" d="M270.171,579.268a10.493,10.493,0,0,0-15.52,2.776c-4.17,6.549-3.631,16.987,2.191,22.6a11.286,11.286,0,0,0,7.506,3.382" transform="translate(-251.929 -553.164)" fill="none" stroke="#063916" stroke-linejoin="round" stroke-width="1.994"/>
          <path id="Trazado_723" data-name="Trazado 723" d="M265.563,583.806a5.321,5.321,0,0,0-7.6,1.8,9.652,9.652,0,0,0,1.109,11.429,5.893,5.893,0,0,0,3.433,1.782" transform="translate(-250.596 -551.468)" fill="none" stroke="#063916" stroke-linejoin="round" stroke-width="1.994"/>
        </g>
      </g>
    </g>
  </g>
</svg>
