<?xml version="1.0" encoding="utf-8"?>
<!-- Generator: Adobe Illustrator 24.0.1, SVG Export Plug-In . SVG Version: 6.00 Build 0)  -->
<svg version="1.1" id="Capa_1" xmlns="http://www.w3.org/2000/svg" xmlns:xlink="http://www.w3.org/1999/xlink" x="0px" y="0px"
	 viewBox="0 0 497.4 497.2" style="enable-background:new 0 0 497.4 497.2;" xml:space="preserve">
<style type="text/css">
	.st0{opacity:0.3;}
	.st1{fill:#FFFFFF;}
</style>
<g id="nELQ3P_1_" class="st0">
	<g>
		<path class="st1" d="M247.3,0C110.4,0.8-0.6,112.3,0,248.6c0.6,138,111.4,248.8,248.8,248.6C386,497,497.6,385.7,497.4,249.3
			C497.2,110.5,385.6-0.8,247.3,0z M352.3,251.1C298.6,289.3,245,327.7,191.4,366c-0.6,0.5-1.3,0.8-2.4,1.5V129.6
			c12.8,9.1,25.2,18,37.5,26.8c41.7,29.8,83.5,59.6,125.2,89.4C354.2,247.5,356.1,248.4,352.3,251.1z"/>
	</g>
</g>
</svg>
