<svg xmlns="http://www.w3.org/2000/svg" width="463.881" height="459.694" viewBox="0 0 463.881 459.694">
  <g id="svwevew_Mesa_de_trabajo_1" data-name="svwevew_Mesa de trabajo 1" transform="translate(-77.04 -60.154)">
    <g id="_Radial_Repeat_" data-name="&lt;Radial Repeat&gt;" transform="translate(140.019 402.901)">
      <path id="Trazado_1" data-name="Trazado 1" d="M136.94,386.31l5.541,44.842,44.832-5.541,5.6,44.885,44.832-5.53" transform="translate(-136.94 -386.31)" fill="none" stroke="#d1a943" stroke-miterlimit="10" stroke-width="5.64"/>
      <circle id="Elipse_1" data-name="Elipse 1" cx="3.343" cy="3.343" r="3.343" transform="translate(68.688 60.635)" fill="#d1a943"/>
      <circle id="Elipse_2" data-name="Elipse 2" cx="3.343" cy="3.343" r="3.343" transform="translate(77.489 95.478)" fill="#d1a943"/>
      <circle id="Elipse_3" data-name="Elipse 3" cx="3.343" cy="3.343" r="3.343" transform="translate(29.723 58.216)" fill="#d1a943"/>
      <circle id="Elipse_4" data-name="Elipse 4" cx="3.343" cy="3.343" r="3.343" transform="translate(17.884 20.997)" fill="#d1a943"/>
    </g>
    <g id="_Radial_Repeat_2" data-name="&lt;Radial Repeat&gt;" transform="translate(84.053 282.031)">
      <path id="Trazado_2" data-name="Trazado 2" d="M105.59,271.35,83.71,310.872l39.533,21.88-21.859,39.607,39.533,21.869" transform="translate(-83.71 -271.35)" fill="none" stroke="#d1a943" stroke-miterlimit="10" stroke-width="5.64"/>
      <circle id="Elipse_5" data-name="Elipse 5" cx="3.343" cy="3.343" r="3.343" transform="translate(39.196 90.757)" fill="#d1a943"/>
      <circle id="Elipse_6" data-name="Elipse 6" cx="3.343" cy="3.343" r="3.343" transform="translate(25.833 124.119)" fill="#d1a943"/>
      <circle id="Elipse_7" data-name="Elipse 7" cx="3.343" cy="3.343" r="3.343" transform="translate(9.095 65.881)" fill="#d1a943"/>
      <circle id="Elipse_8" data-name="Elipse 8" cx="3.343" cy="3.343" r="3.343" transform="translate(21.396 28.819)" fill="#d1a943"/>
    </g>
    <g id="_Radial_Repeat_3" data-name="&lt;Radial Repeat&gt;" transform="translate(77.04 164.2)">
      <path id="Trazado_3" data-name="Trazado 3" d="M148.93,159.28l-40.942,19.125,19.125,40.931L86.15,238.525l19.125,40.942" transform="translate(-76.572 -159.28)" fill="none" stroke="#d1a943" stroke-miterlimit="10" stroke-width="5.64"/>
      <circle id="Elipse_9" data-name="Elipse 9" cx="3.343" cy="3.343" r="3.343" transform="translate(30.417 84.933)" fill="#d1a943"/>
      <circle id="Elipse_10" data-name="Elipse 10" cx="3.343" cy="3.343" r="3.343" transform="translate(0 104.068)" fill="#d1a943"/>
      <circle id="Elipse_11" data-name="Elipse 11" cx="3.343" cy="3.343" r="3.343" transform="translate(20.681 47.124)" fill="#d1a943"/>
      <circle id="Elipse_12" data-name="Elipse 12" cx="3.343" cy="3.343" r="3.343" transform="translate(52.413 24.361)" fill="#d1a943"/>
    </g>
    <g id="_Radial_Repeat_4" data-name="&lt;Radial Repeat&gt;" transform="translate(131.503 85.839)">
      <path id="Trazado_4" data-name="Trazado 4" d="M250.35,93.34l-44.359-8.59L197.4,129.1,152.99,120.55l-8.59,44.359" transform="translate(-128.04 -84.75)" fill="none" stroke="#d1a943" stroke-miterlimit="10" stroke-width="5.64"/>
      <circle id="Elipse_13" data-name="Elipse 13" cx="3.343" cy="3.343" r="3.343" transform="translate(35.853 53.979)" fill="#d1a943"/>
      <circle id="Elipse_14" data-name="Elipse 14" cx="3.343" cy="3.343" r="3.343" transform="translate(0 51.582)" fill="#d1a943"/>
      <circle id="Elipse_15" data-name="Elipse 15" cx="3.343" cy="3.343" r="3.343" transform="translate(50.205 17.664)" fill="#d1a943"/>
      <circle id="Elipse_16" data-name="Elipse 16" cx="3.343" cy="3.343" r="3.343" transform="translate(89.254 17.905)" fill="#d1a943"/>
    </g>
    <g id="_Radial_Repeat_5" data-name="&lt;Radial Repeat&gt;" transform="translate(251.521 63.57)">
      <path id="Trazado_5" data-name="Trazado 5" d="M370.778,99.322,339.94,66.3,306.916,97.135,276,64.11,242.99,94.948" transform="translate(-242.99 -63.542)" fill="none" stroke="#d1a943" stroke-miterlimit="10" stroke-width="5.64"/>
      <circle id="Elipse_17" data-name="Elipse 17" cx="3.343" cy="3.343" r="3.343" transform="translate(28.556 23.015)" fill="#d1a943"/>
      <circle id="Elipse_18" data-name="Elipse 18" cx="3.343" cy="3.343" r="3.343" transform="translate(0.957)" fill="#d1a943"/>
      <circle id="Elipse_19" data-name="Elipse 19" cx="3.343" cy="3.343" r="3.343" transform="translate(61.507 2.071)" fill="#d1a943"/>
      <circle id="Elipse_20" data-name="Elipse 20" cx="3.343" cy="3.343" r="3.343" transform="translate(92.965 25.213)" fill="#d1a943"/>
    </g>
    <g id="_Radial_Repeat_6" data-name="&lt;Radial Repeat&gt;" transform="translate(377.122 74.925)">
      <path id="Trazado_6" data-name="Trazado 6" d="M463.259,175.666l-5.53-44.843-44.842,5.541L407.293,91.48,362.45,97.01" transform="translate(-362.45 -73.49)" fill="none" stroke="#d1a943" stroke-miterlimit="10" stroke-width="5.64"/>
      <circle id="Elipse_21" data-name="Elipse 21" cx="3.343" cy="3.343" r="3.343" transform="translate(25.444 34.844)" fill="#d1a943"/>
      <circle id="Elipse_22" data-name="Elipse 22" cx="3.343" cy="3.343" r="3.343" transform="translate(16.633)" fill="#d1a943"/>
      <circle id="Elipse_23" data-name="Elipse 23" cx="3.343" cy="3.343" r="3.343" transform="translate(64.409 37.272)" fill="#d1a943"/>
      <circle id="Elipse_24" data-name="Elipse 24" cx="3.343" cy="3.343" r="3.343" transform="translate(76.248 74.492)" fill="#d1a943"/>
    </g>
    <g id="_Radial_Repeat_7" data-name="&lt;Radial Repeat&gt;" transform="translate(476.701 167.165)">
      <path id="Trazado_7" data-name="Trazado 7" d="M492.487,292.518l21.88-39.533-39.533-21.869,21.859-39.606L457.16,169.63" transform="translate(-457.16 -161.713)" fill="none" stroke="#d1a943" stroke-miterlimit="10" stroke-width="5.64"/>
      <circle id="Elipse_25" data-name="Elipse 25" cx="3.343" cy="3.343" r="3.343" transform="translate(11.324 33.361)" fill="#d1a943"/>
      <circle id="Elipse_26" data-name="Elipse 26" cx="3.343" cy="3.343" r="3.343" transform="translate(24.677 0)" fill="#d1a943"/>
      <circle id="Elipse_27" data-name="Elipse 27" cx="3.343" cy="3.343" r="3.343" transform="translate(41.415 58.227)" fill="#d1a943"/>
      <circle id="Elipse_28" data-name="Elipse 28" cx="3.343" cy="3.343" r="3.343" transform="translate(29.124 95.3)" fill="#d1a943"/>
    </g>
    <g id="_Radial_Repeat_8" data-name="&lt;Radial Repeat&gt;" transform="translate(468.563 295.616)">
      <path id="Trazado_8" data-name="Trazado 8" d="M449.42,404.456l40.931-19.125L471.237,344.4l40.952-19.2L493.074,284.27" transform="translate(-449.42 -284.27)" fill="none" stroke="#d1a943" stroke-miterlimit="10" stroke-width="5.64"/>
      <circle id="Elipse_29" data-name="Elipse 29" cx="3.343" cy="3.343" r="3.343" transform="translate(35.254 28.567)" fill="#d1a943"/>
      <circle id="Elipse_30" data-name="Elipse 30" cx="3.343" cy="3.343" r="3.343" transform="translate(65.671 9.421)" fill="#d1a943"/>
      <circle id="Elipse_31" data-name="Elipse 31" cx="3.343" cy="3.343" r="3.343" transform="translate(44.979 66.375)" fill="#d1a943"/>
      <circle id="Elipse_32" data-name="Elipse 32" cx="3.343" cy="3.343" r="3.343" transform="translate(13.248 89.138)" fill="#d1a943"/>
    </g>
    <g id="_Radial_Repeat_9" data-name="&lt;Radial Repeat&gt;" transform="translate(364.148 414.004)">
      <path id="Trazado_9" data-name="Trazado 9" d="M350.11,468.439l44.348,8.59,8.59-44.348,44.422,8.548,8.59-44.359" transform="translate(-350.11 -396.87)" fill="none" stroke="#d1a943" stroke-miterlimit="10" stroke-width="5.64"/>
      <circle id="Elipse_33" data-name="Elipse 33" cx="3.343" cy="3.343" r="3.343" transform="translate(79.76 19.493)" fill="#d1a943"/>
      <circle id="Elipse_34" data-name="Elipse 34" cx="3.343" cy="3.343" r="3.343" transform="translate(115.623 21.89)" fill="#d1a943"/>
      <circle id="Elipse_35" data-name="Elipse 35" cx="3.343" cy="3.343" r="3.343" transform="translate(65.408 55.809)" fill="#d1a943"/>
      <circle id="Elipse_36" data-name="Elipse 36" cx="3.343" cy="3.343" r="3.343" transform="translate(26.359 55.567)" fill="#d1a943"/>
    </g>
    <g id="_Radial_Repeat_10" data-name="&lt;Radial Repeat&gt;" transform="translate(238.652 480.653)">
      <path id="Trazado_10" data-name="Trazado 10" d="M230.75,460.26l30.838,33.014L294.6,462.447l30.911,33.025,33.025-30.838" transform="translate(-230.75 -460.26)" fill="none" stroke="#d1a943" stroke-miterlimit="10" stroke-width="5.64"/>
      <circle id="Elipse_37" data-name="Elipse 37" cx="3.343" cy="3.343" r="3.343" transform="translate(92.534 6.077)" fill="#d1a943"/>
      <circle id="Elipse_38" data-name="Elipse 38" cx="3.343" cy="3.343" r="3.343" transform="translate(120.134 29.092)" fill="#d1a943"/>
      <circle id="Elipse_39" data-name="Elipse 39" cx="3.343" cy="3.343" r="3.343" transform="translate(59.583 27.021)" fill="#d1a943"/>
      <circle id="Elipse_40" data-name="Elipse 40" cx="3.343" cy="3.343" r="3.343" transform="translate(28.136 3.869)" fill="#d1a943"/>
    </g>
  </g>
</svg>
