<svg xmlns="http://www.w3.org/2000/svg" width="179.13" height="59.874" viewBox="0 0 179.13 59.874">
  <g id="Grupo_787" data-name="Grupo 787" transform="translate(-944.928 -299.269)">
    <g id="Grupo_780" data-name="Grupo 780">
      <g id="Grupo_779" data-name="Grupo 779">
        <path id="Trazado_2503" data-name="Trazado 2503" d="M969.361,355.456l-21.425-26.25,21.425-26.25,21.425,26.25Z" fill="none" stroke="#58977f" stroke-miterlimit="10" stroke-width="4.662"/>
        <path id="Trazado_2504" data-name="Trazado 2504" d="M969.361,342.5l-10.853-13.3,10.853-13.3,10.853,13.3Z" fill="none" stroke="#58977f" stroke-miterlimit="10" stroke-width="2.05"/>
        <g id="Trazado_2505" data-name="Trazado 2505" fill="none" stroke-miterlimit="10">
          <path d="M969.361,334.338l-4.189-5.132,4.189-5.132,4.189,5.132Z" stroke="none"/>
          <path d="M 969.3614501953125 334.3384399414062 L 965.1725463867188 329.2061157226562 L 969.3614501953125 324.0737609863281 L 973.55029296875 329.2061157226562 L 969.3614501953125 334.3384399414062 Z" stroke="none" fill="#58977f"/>
        </g>
        <line id="Línea_47" data-name="Línea 47" x2="41.864" transform="translate(947.937 329.206)" fill="none" stroke="#58977f" stroke-miterlimit="10" stroke-width="2.05"/>
      </g>
    </g>
    <g id="Grupo_782" data-name="Grupo 782">
      <g id="Grupo_781" data-name="Grupo 781">
        <path id="Trazado_2506" data-name="Trazado 2506" d="M1013.068,355.456l-21.425-26.25,21.425-26.25,21.425,26.25Z" fill="none" stroke="#58977f" stroke-miterlimit="10" stroke-width="4.662"/>
        <path id="Trazado_2507" data-name="Trazado 2507" d="M1013.068,342.5l-10.853-13.3,10.853-13.3,10.853,13.3Z" fill="none" stroke="#58977f" stroke-miterlimit="10" stroke-width="2.05"/>
        <g id="Trazado_2508" data-name="Trazado 2508" fill="none" stroke-miterlimit="10">
          <path d="M1013.068,334.338l-4.189-5.132,4.189-5.132,4.189,5.132Z" stroke="none"/>
          <path d="M 1013.068176269531 334.3384399414062 L 1008.879333496094 329.2061157226562 L 1013.068176269531 324.0737609863281 L 1017.257080078125 329.2061157226562 L 1013.068176269531 334.3384399414062 Z" stroke="none" fill="#58977f"/>
        </g>
        <line id="Línea_48" data-name="Línea 48" x2="41.864" transform="translate(991.644 329.206)" fill="none" stroke="#58977f" stroke-miterlimit="10" stroke-width="2.05"/>
      </g>
    </g>
    <g id="Grupo_784" data-name="Grupo 784">
      <g id="Grupo_783" data-name="Grupo 783">
        <path id="Trazado_2509" data-name="Trazado 2509" d="M1055.917,355.456l-21.425-26.25,21.425-26.25,21.425,26.25Z" fill="none" stroke="#58977f" stroke-miterlimit="10" stroke-width="4.662"/>
        <path id="Trazado_2510" data-name="Trazado 2510" d="M1055.917,342.5l-10.853-13.3,10.853-13.3,10.853,13.3Z" fill="none" stroke="#58977f" stroke-miterlimit="10" stroke-width="2.05"/>
        <g id="Trazado_2511" data-name="Trazado 2511" fill="none" stroke-miterlimit="10">
          <path d="M1055.917,334.338l-4.189-5.132,4.189-5.132,4.189,5.132Z" stroke="none"/>
          <path d="M 1055.91748046875 334.3384399414062 L 1051.728637695312 329.2061157226562 L 1055.91748046875 324.0737609863281 L 1060.106323242188 329.2061157226562 L 1055.91748046875 334.3384399414062 Z" stroke="none" fill="#58977f"/>
        </g>
        <line id="Línea_49" data-name="Línea 49" x2="41.864" transform="translate(1034.493 329.206)" fill="none" stroke="#58977f" stroke-miterlimit="10" stroke-width="2.05"/>
      </g>
    </g>
    <g id="Grupo_786" data-name="Grupo 786">
      <g id="Grupo_785" data-name="Grupo 785">
        <path id="Trazado_2512" data-name="Trazado 2512" d="M1099.624,355.456l-21.425-26.25,21.425-26.25,21.425,26.25Z" fill="none" stroke="#58977f" stroke-miterlimit="10" stroke-width="4.662"/>
        <path id="Trazado_2513" data-name="Trazado 2513" d="M1099.624,342.5l-10.854-13.3,10.854-13.3,10.853,13.3Z" fill="none" stroke="#58977f" stroke-miterlimit="10" stroke-width="2.05"/>
        <g id="Trazado_2514" data-name="Trazado 2514" fill="none" stroke-miterlimit="10">
          <path d="M1099.624,334.338l-4.189-5.132,4.189-5.132,4.189,5.132Z" stroke="none"/>
          <path d="M 1099.624267578125 334.3384399414062 L 1095.435424804688 329.2061157226562 L 1099.624267578125 324.0737609863281 L 1103.813110351562 329.2061157226562 L 1099.624267578125 334.3384399414062 Z" stroke="none" fill="#58977f"/>
        </g>
        <line id="Línea_50" data-name="Línea 50" x2="41.864" transform="translate(1078.2 329.206)" fill="none" stroke="#58977f" stroke-miterlimit="10" stroke-width="2.05"/>
      </g>
    </g>
  </g>
</svg>
