<svg id="Grupo_1" data-name="Grupo 1" xmlns="http://www.w3.org/2000/svg" width="434.649" height="55.036" viewBox="0 0 434.649 55.036">
  <rect id="Rectángulo_1" data-name="Rectángulo 1" width="184.849" height="7.429" transform="translate(0.007 0)" fill="#e5651d"/>
  <rect id="Rectángulo_2" data-name="Rectángulo 2" width="184.849" height="7.429" transform="translate(0.007 47.607)" fill="#e5651d"/>
  <rect id="Rectángulo_3" data-name="Rectángulo 3" width="5.963" height="5.982" transform="translate(0 9.252)" fill="#e5651d"/>
  <rect id="Rectángulo_4" data-name="Rectángulo 4" width="5.963" height="5.982" transform="translate(5.963 15.234)" fill="#e5651d"/>
  <rect id="Rectángulo_5" data-name="Rectángulo 5" width="5.963" height="5.982" transform="translate(11.927 21.216)" fill="#e5651d"/>
  <rect id="Rectángulo_6" data-name="Rectángulo 6" width="5.963" height="5.982" transform="translate(17.89 27.198)" fill="#e5651d"/>
  <rect id="Rectángulo_7" data-name="Rectángulo 7" width="5.963" height="5.982" transform="translate(23.853 33.18)" fill="#e5651d"/>
  <rect id="Rectángulo_8" data-name="Rectángulo 8" width="5.963" height="5.982" transform="translate(29.817 39.162)" fill="#e5651d"/>
  <rect id="Rectángulo_9" data-name="Rectángulo 9" width="5.963" height="5.982" transform="translate(53.68 15.234)" fill="#e5651d"/>
  <rect id="Rectángulo_10" data-name="Rectángulo 10" width="5.963" height="5.982" transform="translate(47.717 21.216)" fill="#e5651d"/>
  <rect id="Rectángulo_11" data-name="Rectángulo 11" width="5.963" height="5.982" transform="translate(41.753 27.198)" fill="#e5651d"/>
  <rect id="Rectángulo_12" data-name="Rectángulo 12" width="5.963" height="5.982" transform="translate(35.791 33.18)" fill="#e5651d"/>
  <rect id="Rectángulo_13" data-name="Rectángulo 13" width="5.963" height="5.982" transform="translate(59.643 9.252)" fill="#e5651d"/>
  <rect id="Rectángulo_14" data-name="Rectángulo 14" width="5.963" height="5.982" transform="translate(65.607 15.234)" fill="#e5651d"/>
  <rect id="Rectángulo_15" data-name="Rectángulo 15" width="5.963" height="5.982" transform="translate(71.57 21.216)" fill="#e5651d"/>
  <rect id="Rectángulo_16" data-name="Rectángulo 16" width="5.963" height="5.982" transform="translate(77.533 27.198)" fill="#e5651d"/>
  <rect id="Rectángulo_17" data-name="Rectángulo 17" width="5.963" height="5.982" transform="translate(83.497 33.18)" fill="#e5651d"/>
  <rect id="Rectángulo_18" data-name="Rectángulo 18" width="5.963" height="5.982" transform="translate(89.46 39.162)" fill="#e5651d"/>
  <rect id="Rectángulo_19" data-name="Rectángulo 19" width="5.963" height="5.982" transform="translate(113.324 15.234)" fill="#e5651d"/>
  <rect id="Rectángulo_20" data-name="Rectángulo 20" width="5.963" height="5.982" transform="translate(107.361 21.216)" fill="#e5651d"/>
  <rect id="Rectángulo_21" data-name="Rectángulo 21" width="5.963" height="5.982" transform="translate(101.397 27.198)" fill="#e5651d"/>
  <rect id="Rectángulo_22" data-name="Rectángulo 22" width="5.963" height="5.982" transform="translate(95.434 33.18)" fill="#e5651d"/>
  <rect id="Rectángulo_23" data-name="Rectángulo 23" width="5.963" height="5.982" transform="translate(119.288 9.252)" fill="#e5651d"/>
  <rect id="Rectángulo_24" data-name="Rectángulo 24" width="5.963" height="5.982" transform="translate(125.251 15.234)" fill="#e5651d"/>
  <rect id="Rectángulo_25" data-name="Rectángulo 25" width="5.963" height="5.982" transform="translate(131.214 21.216)" fill="#e5651d"/>
  <rect id="Rectángulo_26" data-name="Rectángulo 26" width="5.963" height="5.982" transform="translate(137.177 27.198)" fill="#e5651d"/>
  <rect id="Rectángulo_27" data-name="Rectángulo 27" width="5.963" height="5.982" transform="translate(143.14 33.18)" fill="#e5651d"/>
  <rect id="Rectángulo_28" data-name="Rectángulo 28" width="5.963" height="5.982" transform="translate(149.103 39.162)" fill="#e5651d"/>
  <path id="Trazado_1" data-name="Trazado 1" d="M178.933,15.234h5.925V9.252h-5.963v5.982h-5.926v5.982h5.963Z" fill="#e5651d"/>
  <rect id="Rectángulo_29" data-name="Rectángulo 29" width="5.963" height="5.982" transform="translate(167.004 21.216)" fill="#e5651d"/>
  <rect id="Rectángulo_30" data-name="Rectángulo 30" width="5.963" height="5.982" transform="translate(161.041 27.198)" fill="#e5651d"/>
  <rect id="Rectángulo_31" data-name="Rectángulo 31" width="5.963" height="5.982" transform="translate(155.077 33.18)" fill="#e5651d"/>
  <rect id="Rectángulo_32" data-name="Rectángulo 32" width="184.849" height="7.429" transform="translate(249.799 0)" fill="#e5651d"/>
  <rect id="Rectángulo_33" data-name="Rectángulo 33" width="184.849" height="7.429" transform="translate(249.799 47.607)" fill="#e5651d"/>
  <rect id="Rectángulo_34" data-name="Rectángulo 34" width="5.963" height="5.982" transform="translate(249.792 9.252)" fill="#e5651d"/>
  <rect id="Rectángulo_35" data-name="Rectángulo 35" width="5.963" height="5.982" transform="translate(255.755 15.234)" fill="#e5651d"/>
  <rect id="Rectángulo_36" data-name="Rectángulo 36" width="5.963" height="5.982" transform="translate(261.719 21.216)" fill="#e5651d"/>
  <rect id="Rectángulo_37" data-name="Rectángulo 37" width="5.963" height="5.982" transform="translate(267.682 27.198)" fill="#e5651d"/>
  <rect id="Rectángulo_38" data-name="Rectángulo 38" width="5.963" height="5.982" transform="translate(273.645 33.18)" fill="#e5651d"/>
  <rect id="Rectángulo_39" data-name="Rectángulo 39" width="5.963" height="5.982" transform="translate(279.609 39.162)" fill="#e5651d"/>
  <rect id="Rectángulo_40" data-name="Rectángulo 40" width="5.963" height="5.982" transform="translate(303.472 15.234)" fill="#e5651d"/>
  <rect id="Rectángulo_41" data-name="Rectángulo 41" width="5.963" height="5.982" transform="translate(297.509 21.216)" fill="#e5651d"/>
  <rect id="Rectángulo_42" data-name="Rectángulo 42" width="5.963" height="5.982" transform="translate(291.545 27.198)" fill="#e5651d"/>
  <rect id="Rectángulo_43" data-name="Rectángulo 43" width="5.963" height="5.982" transform="translate(285.583 33.18)" fill="#e5651d"/>
  <rect id="Rectángulo_44" data-name="Rectángulo 44" width="5.963" height="5.982" transform="translate(309.435 9.252)" fill="#e5651d"/>
  <rect id="Rectángulo_45" data-name="Rectángulo 45" width="5.963" height="5.982" transform="translate(315.399 15.234)" fill="#e5651d"/>
  <rect id="Rectángulo_46" data-name="Rectángulo 46" width="5.963" height="5.982" transform="translate(321.362 21.216)" fill="#e5651d"/>
  <rect id="Rectángulo_47" data-name="Rectángulo 47" width="5.963" height="5.982" transform="translate(327.325 27.198)" fill="#e5651d"/>
  <rect id="Rectángulo_48" data-name="Rectángulo 48" width="5.963" height="5.982" transform="translate(333.289 33.18)" fill="#e5651d"/>
  <rect id="Rectángulo_49" data-name="Rectángulo 49" width="5.963" height="5.982" transform="translate(339.252 39.162)" fill="#e5651d"/>
  <rect id="Rectángulo_50" data-name="Rectángulo 50" width="5.963" height="5.982" transform="translate(363.116 15.234)" fill="#e5651d"/>
  <rect id="Rectángulo_51" data-name="Rectángulo 51" width="5.963" height="5.982" transform="translate(357.153 21.216)" fill="#e5651d"/>
  <rect id="Rectángulo_52" data-name="Rectángulo 52" width="5.963" height="5.982" transform="translate(351.189 27.198)" fill="#e5651d"/>
  <rect id="Rectángulo_53" data-name="Rectángulo 53" width="5.963" height="5.982" transform="translate(345.226 33.18)" fill="#e5651d"/>
  <rect id="Rectángulo_54" data-name="Rectángulo 54" width="5.963" height="5.982" transform="translate(369.08 9.252)" fill="#e5651d"/>
  <rect id="Rectángulo_55" data-name="Rectángulo 55" width="5.963" height="5.982" transform="translate(375.043 15.234)" fill="#e5651d"/>
  <rect id="Rectángulo_56" data-name="Rectángulo 56" width="5.963" height="5.982" transform="translate(381.006 21.216)" fill="#e5651d"/>
  <rect id="Rectángulo_57" data-name="Rectángulo 57" width="5.963" height="5.982" transform="translate(386.969 27.198)" fill="#e5651d"/>
  <rect id="Rectángulo_58" data-name="Rectángulo 58" width="5.963" height="5.982" transform="translate(392.932 33.18)" fill="#e5651d"/>
  <rect id="Rectángulo_59" data-name="Rectángulo 59" width="5.963" height="5.982" transform="translate(398.895 39.162)" fill="#e5651d"/>
  <path id="Trazado_2" data-name="Trazado 2" d="M428.687,9.252v5.982H422.76v5.982h5.964V15.234h5.924V9.252Z" fill="#e5651d"/>
  <rect id="Rectángulo_60" data-name="Rectángulo 60" width="5.963" height="5.982" transform="translate(416.796 21.216)" fill="#e5651d"/>
  <rect id="Rectángulo_61" data-name="Rectángulo 61" width="5.963" height="5.982" transform="translate(410.833 27.198)" fill="#e5651d"/>
  <rect id="Rectángulo_62" data-name="Rectángulo 62" width="5.963" height="5.982" transform="translate(404.869 33.18)" fill="#e5651d"/>
</svg>
