<svg xmlns="http://www.w3.org/2000/svg" width="616.178" height="616.779" viewBox="0 0 616.178 616.779">
  <g id="Grupo_553" data-name="Grupo 553" transform="translate(-298.904 -369.129)">
    <g id="Grupo_261" data-name="Grupo 261" transform="translate(299.784 657.686)">
      <g id="Grupo_242" data-name="Grupo 242" transform="translate(550.873 46.618)">
        <g id="Grupo_241" data-name="Grupo 241" transform="translate(0 29.987)">
          <path id="Trazado_733" data-name="Trazado 733" d="M653.266,623.068q2.61-7.976,4.8-16.089c7.553-1.492,15.007-3.4,22.431-5.462a402.393,402.393,0,0,1-12.324,41.314Q660.932,632.767,653.266,623.068Z" transform="translate(-627.24 -587.999)" fill="none" stroke="#d1a943" stroke-miterlimit="10" stroke-width="1.706"/>
          <path id="Trazado_734" data-name="Trazado 734" d="M659.747,626.763q2.575-7.868,4.74-15.875-8.113-9.036-16.616-17.654a351.335,351.335,0,0,1-10.551,35.371C644.813,628.312,652.3,627.659,659.747,626.763Z" transform="translate(-637.319 -593.234)" fill="none" stroke="#d1a943" stroke-miterlimit="10" stroke-width="1.706"/>
          <path id="Trazado_735" data-name="Trazado 735" d="M657.637,605.381l-3.685-1.335" transform="translate(-626.806 -586.4)" fill="none" stroke="#d1a943" stroke-miterlimit="10" stroke-width="1.706"/>
          <path id="Trazado_736" data-name="Trazado 736" d="M654.7,615.222l-3.62-1.549" transform="translate(-628.621 -580.316)" fill="none" stroke="#d1a943" stroke-miterlimit="10" stroke-width="1.706"/>
          <path id="Trazado_737" data-name="Trazado 737" d="M673.927,617.406q-9.567-3.782-19.134-7.563" transform="translate(-626.275 -582.736)" fill="none" stroke="#d1a943" stroke-miterlimit="10" stroke-width="0.829"/>
          <path id="Trazado_738" data-name="Trazado 738" d="M659.957,611.884l-19.115-7.555" transform="translate(-635.092 -586.221)" fill="none" stroke="#d1a943" stroke-miterlimit="10" stroke-width="0.829"/>
        </g>
        <path id="Trazado_739" data-name="Trazado 739" d="M650.841,588.976c5.967-4.387,11.682-9.144,17.2-14.116q6.238,10.458,11.95,21.2c-5.789,4.769-11.762,9.319-17.971,13.489C658.528,602.561,654.771,595.709,650.841,588.976Z" transform="translate(-628.772 -574.86)" fill="none" stroke="#d1a943" stroke-miterlimit="10" stroke-width="1.706"/>
        <path id="Trazado_740" data-name="Trazado 740" d="M638.019,629.557c6.571-2.213,13-4.64,19.41-7.317,2.7,7.3,5.216,14.674,7.444,22.139-6.629,2.466-13.273,4.687-20.048,6.69C642.807,643.817,640.51,636.648,638.019,629.557Z" transform="translate(-636.877 -544.914)" fill="none" stroke="#d1a943" stroke-miterlimit="10" stroke-width="1.706"/>
      </g>
      <g id="Grupo_245" data-name="Grupo 245" transform="translate(472.514 123.944)">
        <g id="Grupo_243" data-name="Grupo 243" transform="translate(48.534 17.197)">
          <path id="Trazado_741" data-name="Trazado 741" d="M634.556,659.922c2.681-4.349,5.267-8.715,7.795-13.161,7.581.814,15.2,1.291,22.816,1.539a350.036,350.036,0,0,1-20,33.793Q640.1,670.874,634.556,659.922Z" transform="translate(-609.24 -623.938)" fill="none" stroke="#d1a943" stroke-miterlimit="10" stroke-width="1.706"/>
          <path id="Trazado_742" data-name="Trazado 742" d="M641.17,666.345c2.646-4.291,5.195-8.6,7.69-12.985q-6.125-10.451-12.692-20.583a305.55,305.55,0,0,1-17.124,28.931C626.359,663.536,633.75,665.051,641.17,666.345Z" transform="translate(-619.044 -632.777)" fill="none" stroke="#d1a943" stroke-miterlimit="10" stroke-width="1.706"/>
          <path id="Trazado_743" data-name="Trazado 743" d="M640.616,647.633l-3.315-2.252" transform="translate(-607.505 -624.811)" fill="none" stroke="#d1a943" stroke-miterlimit="10" stroke-width="1.706"/>
          <path id="Trazado_744" data-name="Trazado 744" d="M635.852,655.683l-3.212-2.428" transform="translate(-610.451 -619.834)" fill="none" stroke="#d1a943" stroke-miterlimit="10" stroke-width="1.706"/>
          <path id="Trazado_745" data-name="Trazado 745" d="M654.081,663.11l-17.092-12.268" transform="translate(-607.702 -621.359)" fill="none" stroke="#d1a943" stroke-miterlimit="10" stroke-width="0.829"/>
          <path id="Trazado_746" data-name="Trazado 746" d="M641.6,654.152,624.528,641.9" transform="translate(-615.578 -627.011)" fill="none" stroke="#d1a943" stroke-miterlimit="10" stroke-width="0.829"/>
        </g>
        <g id="Grupo_244" data-name="Grupo 244" transform="translate(8.201 69.336)">
          <path id="Trazado_747" data-name="Trazado 747" d="M608.562,690.612c3.484-3.3,6.892-6.729,10.181-10.239,7.206,2.789,14.517,5.245,21.869,7.582a341.167,341.167,0,0,1-26.124,26.292Q611.78,702.349,608.562,690.612Z" transform="translate(-585.336 -654.834)" fill="none" stroke="#d1a943" stroke-miterlimit="10" stroke-width="1.706"/>
          <path id="Trazado_748" data-name="Trazado 748" d="M614.932,697.394c3.437-3.258,6.8-6.639,10.044-10.1q-3.892-11.391-8.276-22.568a301.024,301.024,0,0,1-22.369,22.509C601.083,690.86,607.97,694.222,614.932,697.394Z" transform="translate(-594.331 -664.724)" fill="none" stroke="#d1a943" stroke-miterlimit="10" stroke-width="1.706"/>
          <path id="Trazado_749" data-name="Trazado 749" d="M615.876,681.529l-2.778-2.988" transform="translate(-582.469 -655.991)" fill="none" stroke="#d1a943" stroke-miterlimit="10" stroke-width="1.706"/>
          <path id="Trazado_750" data-name="Trazado 750" d="M609.652,687.793c-1.058-1.25-1.586-1.875-2.642-3.125" transform="translate(-586.317 -652.119)" fill="none" stroke="#d1a943" stroke-miterlimit="10" stroke-width="1.706"/>
          <path id="Trazado_751" data-name="Trazado 751" d="M625.908,699.579q-7.1-8.01-14.192-16.02" transform="translate(-583.343 -652.819)" fill="none" stroke="#d1a943" stroke-miterlimit="10" stroke-width="0.829"/>
          <path id="Trazado_752" data-name="Trazado 752" d="M615.545,687.881l-14.176-16" transform="translate(-589.883 -660.202)" fill="none" stroke="#d1a943" stroke-miterlimit="10" stroke-width="0.829"/>
        </g>
        <path id="Trazado_753" data-name="Trazado 753" d="M617.806,661.553c6.789-.248,13.515-.716,20.275-1.405,1.221,7.418,2.238,14.878,2.961,22.366-6.938.478-13.835.739-20.789.78C619.7,676.02,618.854,668.767,617.806,661.553Z" transform="translate(-571.293 -598.28)" fill="none" stroke="#d1a943" stroke-miterlimit="10" stroke-width="1.706"/>
        <path id="Trazado_754" data-name="Trazado 754" d="M638.019,629.557c6.571-2.213,13-4.64,19.41-7.317,2.7,7.3,5.216,14.674,7.444,22.139-6.629,2.466-13.273,4.687-20.048,6.69C642.807,643.817,640.51,636.648,638.019,629.557Z" transform="translate(-558.517 -622.24)" fill="none" stroke="#d1a943" stroke-miterlimit="10" stroke-width="1.706"/>
        <path id="Trazado_755" data-name="Trazado 755" d="M591.33,688.515c6.641,1.532,13.28,2.854,20,3.989-.31,7.313-.829,14.623-1.64,21.9-6.848-1.345-13.615-2.876-20.379-4.614C590.163,702.7,590.837,695.637,591.33,688.515Z" transform="translate(-589.306 -580.351)" fill="none" stroke="#d1a943" stroke-miterlimit="10" stroke-width="1.706"/>
      </g>
      <g id="Grupo_248" data-name="Grupo 248" transform="translate(356.002 232.108)">
        <g id="Grupo_246" data-name="Grupo 246" transform="translate(76.172 1.18)">
          <path id="Trazado_756" data-name="Trazado 756" d="M576.826,713.181c4.049-2.318,8.056-4.764,11.974-7.312q9.753,6.6,19.782,12.7a348.433,348.433,0,0,1-30.731,18.772C577.686,729.273,577.347,721.233,576.826,713.181Z" transform="translate(-556.855 -678.726)" fill="none" stroke="#d1a943" stroke-miterlimit="10" stroke-width="1.706"/>
          <path id="Trazado_757" data-name="Trazado 757" d="M582.626,720.067c4-2.286,7.948-4.7,11.814-7.212-1.005-7.9-2.146-15.774-3.54-23.617a307.455,307.455,0,0,1-26.312,16.073C570.445,710.428,576.482,715.328,582.626,720.067Z" transform="translate(-564.589 -689.238)" fill="none" stroke="#d1a943" stroke-miterlimit="10" stroke-width="1.706"/>
          <path id="Trazado_758" data-name="Trazado 758" d="M584.979,707.243l-2.107-3.546" transform="translate(-553.033 -680.1)" fill="none" stroke="#d1a943" stroke-miterlimit="10" stroke-width="1.706"/>
          <path id="Trazado_759" data-name="Trazado 759" d="M577.658,711.715l-1.947-3.644" transform="translate(-557.559 -677.335)" fill="none" stroke="#d1a943" stroke-miterlimit="10" stroke-width="1.706"/>
          <path id="Trazado_760" data-name="Trazado 760" d="M591.134,727q-5.307-9.42-10.615-18.843" transform="translate(-554.521 -677.28)" fill="none" stroke="#d1a943" stroke-miterlimit="10" stroke-width="0.829"/>
          <path id="Trazado_761" data-name="Trazado 761" d="M583.384,713.243q-5.3-9.411-10.6-18.822" transform="translate(-559.411 -685.962)" fill="none" stroke="#d1a943" stroke-miterlimit="10" stroke-width="0.829"/>
        </g>
        <g id="Grupo_247" data-name="Grupo 247" transform="translate(22.168 28.856)">
          <path id="Trazado_762" data-name="Trazado 762" d="M542.68,727.512c4.418-1.343,8.821-2.81,13.166-4.389q8.2,8.639,16.753,16.867c-11.124,4.322-22.326,8.053-33.795,11.269Q541.007,739.421,542.68,727.512Z" transform="translate(-526.882 -695.497)" fill="none" stroke="#d1a943" stroke-miterlimit="10" stroke-width="1.706"/>
          <path id="Trazado_763" data-name="Trazado 763" d="M546.138,734.249c4.359-1.325,8.7-2.773,12.991-4.33.676-7.891,1.084-15.806,1.3-23.723-9.526,3.685-19.119,6.881-28.933,9.649C536.189,722.136,541.1,728.258,546.138,734.249Z" transform="translate(-531.499 -706.196)" fill="none" stroke="#d1a943" stroke-miterlimit="10" stroke-width="1.706"/>
          <path id="Trazado_764" data-name="Trazado 764" d="M549.766,724.644c-.537-1.572-.8-2.357-1.341-3.927" transform="translate(-520.802 -697.018)" fill="none" stroke="#d1a943" stroke-miterlimit="10" stroke-width="1.706"/>
          <path id="Trazado_765" data-name="Trazado 765" d="M541.716,727.329c-.467-1.594-.7-2.391-1.167-3.984" transform="translate(-525.779 -695.357)" fill="none" stroke="#d1a943" stroke-miterlimit="10" stroke-width="1.706"/>
          <path id="Trazado_766" data-name="Trazado 766" d="M551.793,745.238q-3.283-10.363-6.566-20.722" transform="translate(-522.822 -694.617)" fill="none" stroke="#d1a943" stroke-miterlimit="10" stroke-width="0.829"/>
          <path id="Trazado_767" data-name="Trazado 767" d="M547,730.108q-3.281-10.348-6.558-20.7" transform="translate(-525.847 -704.165)" fill="none" stroke="#d1a943" stroke-miterlimit="10" stroke-width="0.829"/>
        </g>
        <path id="Trazado_768" data-name="Trazado 768" d="M561.843,707.571c6.177,3.026,12.4,5.857,18.725,8.534-1.807,6.987-3.781,13.884-5.939,20.761-6.416-2.885-12.722-5.927-18.982-9.159C557.887,721.039,559.947,714.35,561.843,707.571Z" transform="translate(-494.069 -676.471)" fill="none" stroke="#d1a943" stroke-miterlimit="10" stroke-width="1.706"/>
        <path id="Trazado_769" data-name="Trazado 769" d="M591.33,688.515c6.641,1.532,13.28,2.854,20,3.989-.31,7.313-.829,14.623-1.64,21.9-6.848-1.345-13.615-2.876-20.379-4.614C590.163,702.7,590.837,695.637,591.33,688.515Z" transform="translate(-472.794 -688.515)" fill="none" stroke="#d1a943" stroke-miterlimit="10" stroke-width="1.706"/>
        <path id="Trazado_770" data-name="Trazado 770" d="M528.1,719.369c5.413,4.331,10.907,8.49,16.531,12.521-3.2,6.4-6.543,12.671-10.06,18.888-5.671-4.242-11.207-8.609-16.658-13.146C521.472,731.626,524.859,725.559,528.1,719.369Z" transform="translate(-517.916 -669.014)" fill="none" stroke="#d1a943" stroke-miterlimit="10" stroke-width="1.706"/>
      </g>
      <g id="Grupo_251" data-name="Grupo 251" transform="translate(231.031 276.446)">
        <g id="Grupo_249" data-name="Grupo 249" transform="translate(89.898)">
          <path id="Trazado_771" data-name="Trazado 771" d="M506.446,733.681c4.593-.369,9.2-.857,13.765-1.461q6.262,10.214,12.957,20.1c-11.752,1.808-23.467,3.05-35.329,3.75Q502.392,744.97,506.446,733.681Z" transform="translate(-495.533 -705.229)" fill="none" stroke="#d1a943" stroke-miterlimit="10" stroke-width="1.706"/>
          <path id="Trazado_772" data-name="Trazado 772" d="M507.011,740.013c4.531-.362,9.071-.845,13.58-1.441,2.259-7.56,4.263-15.2,6.083-22.889-10.062,1.532-20.094,2.6-30.248,3.21C499.737,726.046,503.3,733.078,507.011,740.013Z" transform="translate(-496.426 -715.682)" fill="none" stroke="#d1a943" stroke-miterlimit="10" stroke-width="1.706"/>
          <path id="Trazado_773" data-name="Trazado 773" d="M511.747,733.818c-.206-1.65-.31-2.476-.516-4.126" transform="translate(-487.069 -706.827)" fill="none" stroke="#d1a943" stroke-miterlimit="10" stroke-width="1.706"/>
          <path id="Trazado_774" data-name="Trazado 774" d="M503.331,734.712,503,730.568" transform="translate(-492.272 -706.273)" fill="none" stroke="#d1a943" stroke-miterlimit="10" stroke-width="1.706"/>
          <path id="Trazado_775" data-name="Trazado 775" d="M509.551,754.378q-1.109-10.83-2.216-21.662" transform="translate(-489.531 -704.916)" fill="none" stroke="#d1a943" stroke-miterlimit="10" stroke-width="0.829"/>
          <path id="Trazado_776" data-name="Trazado 776" d="M507.934,738.562q-1.107-10.818-2.215-21.638" transform="translate(-490.552 -714.897)" fill="none" stroke="#d1a943" stroke-miterlimit="10" stroke-width="0.829"/>
        </g>
        <g id="Grupo_250" data-name="Grupo 250" transform="translate(24.823)">
          <path id="Trazado_777" data-name="Trazado 777" d="M469.51,732.22c4.57.6,9.17,1.092,13.765,1.461q4.059,11.308,8.607,22.393c-11.862-.7-23.577-1.942-35.329-3.75Q463.258,742.414,469.51,732.22Z" transform="translate(-456.553 -705.229)" fill="none" stroke="#d1a943" stroke-miterlimit="10" stroke-width="1.706"/>
          <path id="Trazado_778" data-name="Trazado 778" d="M467.162,738.571c4.508.6,9.048,1.079,13.58,1.441,3.741-6.922,7.248-13.98,10.586-21.12-10.153-.614-20.185-1.676-30.248-3.21C462.871,723.376,464.929,731,467.162,738.571Z" transform="translate(-453.692 -715.682)" fill="none" stroke="#d1a943" stroke-miterlimit="10" stroke-width="1.706"/>
          <path id="Trazado_779" data-name="Trazado 779" d="M472.926,734.72c.132-1.658.2-2.487.33-4.145" transform="translate(-446.204 -706.269)" fill="none" stroke="#d1a943" stroke-miterlimit="10" stroke-width="1.706"/>
          <path id="Trazado_780" data-name="Trazado 780" d="M464.58,733.829c.206-1.65.309-2.476.513-4.126" transform="translate(-451.48 -706.82)" fill="none" stroke="#d1a943" stroke-miterlimit="10" stroke-width="1.706"/>
          <path id="Trazado_781" data-name="Trazado 781" d="M467.346,754.378q1.107-10.83,2.216-21.662" transform="translate(-449.731 -704.916)" fill="none" stroke="#d1a943" stroke-miterlimit="10" stroke-width="0.829"/>
          <path id="Trazado_782" data-name="Trazado 782" d="M468.963,738.562q1.107-10.818,2.213-21.638" transform="translate(-448.709 -714.897)" fill="none" stroke="#d1a943" stroke-miterlimit="10" stroke-width="0.829"/>
        </g>
        <path id="Trazado_783" data-name="Trazado 783" d="M493.658,723.194c4.436,5.368,8.983,10.584,13.683,15.705-4.41,5.593-8.935,11.036-13.618,16.389-4.7-5.332-9.252-10.757-13.685-16.332C484.72,733.815,489.245,728.58,493.658,723.194Z" transform="translate(-416.885 -710.934)" fill="none" stroke="#d1a943" stroke-miterlimit="10" stroke-width="1.706"/>
        <path id="Trazado_784" data-name="Trazado 784" d="M528.1,719.369c5.413,4.331,10.907,8.49,16.531,12.521-3.2,6.4-6.543,12.671-10.06,18.888-5.671-4.242-11.207-8.609-16.658-13.146C521.472,731.626,524.859,725.559,528.1,719.369Z" transform="translate(-392.945 -713.352)" fill="none" stroke="#d1a943" stroke-miterlimit="10" stroke-width="1.706"/>
        <path id="Trazado_785" data-name="Trazado 785" d="M457.9,719.285c3.231,6.2,6.6,12.271,10.148,18.285-5.463,4.526-11.008,8.878-16.688,13.107-3.5-6.225-6.833-12.506-10.019-18.911C446.977,727.747,452.48,723.6,457.9,719.285Z" transform="translate(-441.343 -713.405)" fill="none" stroke="#d1a943" stroke-miterlimit="10" stroke-width="1.706"/>
      </g>
      <g id="Grupo_254" data-name="Grupo 254" transform="translate(119.352 231.695)">
        <g id="Grupo_252" data-name="Grupo 252" transform="translate(71.182 29.269)">
          <path id="Trazado_786" data-name="Trazado 786" d="M433.28,723.123c4.344,1.578,8.748,3.045,13.166,4.389q1.675,11.929,3.876,23.749c-11.468-3.217-22.671-6.949-33.793-11.271Q425.1,731.748,433.28,723.123Z" transform="translate(-416.529 -695.497)" fill="none" stroke="#d1a943" stroke-miterlimit="10" stroke-width="1.706"/>
          <path id="Trazado_787" data-name="Trazado 787" d="M428.113,729.919c4.287,1.557,8.632,3,12.991,4.33,5.064-5.973,9.929-12.131,14.641-18.4-9.813-2.768-19.405-5.964-28.933-9.649C427,714.113,427.465,722.027,428.113,729.919Z" transform="translate(-410.03 -706.196)" fill="none" stroke="#d1a943" stroke-miterlimit="10" stroke-width="1.706"/>
          <path id="Trazado_788" data-name="Trazado 788" d="M434.86,727.356c.465-1.594.7-2.391,1.164-3.985" transform="translate(-404.943 -695.341)" fill="none" stroke="#d1a943" stroke-miterlimit="10" stroke-width="1.706"/>
          <path id="Trazado_789" data-name="Trazado 789" d="M426.876,724.674c.537-1.572.8-2.357,1.34-3.927" transform="translate(-409.989 -696.999)" fill="none" stroke="#d1a943" stroke-miterlimit="10" stroke-width="1.706"/>
          <path id="Trazado_790" data-name="Trazado 790" d="M426.789,745.238q3.283-10.363,6.564-20.722" transform="translate(-410.044 -694.617)" fill="none" stroke="#d1a943" stroke-miterlimit="10" stroke-width="0.829"/>
          <path id="Trazado_791" data-name="Trazado 791" d="M431.579,730.108q3.278-10.348,6.556-20.7" transform="translate(-407.017 -704.165)" fill="none" stroke="#d1a943" stroke-miterlimit="10" stroke-width="0.829"/>
        </g>
        <g id="Grupo_253" data-name="Grupo 253" transform="translate(11.165 1.593)">
          <path id="Trazado_792" data-name="Trazado 792" d="M399.537,705.87c3.919,2.546,7.925,4.992,11.974,7.31-.521,8.052-.86,16.092-1.025,24.161a348.834,348.834,0,0,1-30.731-18.77Q389.8,712.455,399.537,705.87Z" transform="translate(-379.755 -678.726)" fill="none" stroke="#d1a943" stroke-miterlimit="10" stroke-width="1.706"/>
          <path id="Trazado_793" data-name="Trazado 793" d="M393.159,712.855c3.866,2.513,7.819,4.926,11.813,7.212,6.163-4.717,12.164-9.662,18.037-14.757a307.747,307.747,0,0,1-26.31-16.073C395.277,697.072,394.164,704.955,393.159,712.855Z" transform="translate(-371.283 -689.238)" fill="none" stroke="#d1a943" stroke-miterlimit="10" stroke-width="1.706"/>
          <path id="Trazado_794" data-name="Trazado 794" d="M399.213,711.761c.777-1.459,1.167-2.187,1.945-3.646" transform="translate(-367.457 -677.307)" fill="none" stroke="#d1a943" stroke-miterlimit="10" stroke-width="1.706"/>
          <path id="Trazado_795" data-name="Trazado 795" d="M391.952,707.294c.842-1.42,1.263-2.13,2.1-3.55" transform="translate(-372.046 -680.069)" fill="none" stroke="#d1a943" stroke-miterlimit="10" stroke-width="1.706"/>
          <path id="Trazado_796" data-name="Trazado 796" d="M389.016,727q5.307-9.42,10.613-18.843" transform="translate(-373.902 -677.28)" fill="none" stroke="#d1a943" stroke-miterlimit="10" stroke-width="0.829"/>
          <path id="Trazado_797" data-name="Trazado 797" d="M396.761,713.243l10.6-18.822" transform="translate(-369.006 -685.962)" fill="none" stroke="#d1a943" stroke-miterlimit="10" stroke-width="0.829"/>
        </g>
        <path id="Trazado_798" data-name="Trazado 798" d="M424.5,707.879c1.923,6.771,4.01,13.45,6.277,20.107-6.246,3.259-12.541,6.329-18.945,9.246-2.185-6.869-4.188-13.755-6.024-20.732C412.126,713.794,418.336,710.933,424.5,707.879Z" transform="translate(-352.122 -675.863)" fill="none" stroke="#d1a943" stroke-miterlimit="10" stroke-width="1.706"/>
        <path id="Trazado_799" data-name="Trazado 799" d="M457.9,719.285c3.231,6.2,6.6,12.271,10.148,18.285-5.463,4.526-11.008,8.878-16.688,13.107-3.5-6.225-6.833-12.506-10.019-18.911C446.977,727.747,452.48,723.6,457.9,719.285Z" transform="translate(-329.664 -668.654)" fill="none" stroke="#d1a943" stroke-miterlimit="10" stroke-width="1.706"/>
        <path id="Trazado_800" data-name="Trazado 800" d="M392.918,688.262c.478,7.124,1.136,14.192,1.975,21.28-6.767,1.72-13.538,3.233-20.388,4.56-.765-7.279-1.33-14.589-1.591-21.907C379.631,691.079,386.272,689.775,392.918,688.262Z" transform="translate(-372.914 -688.262)" fill="none" stroke="#d1a943" stroke-miterlimit="10" stroke-width="1.706"/>
      </g>
      <g id="Grupo_257" data-name="Grupo 257" transform="translate(35.215 123.185)">
        <g id="Grupo_255" data-name="Grupo 255" transform="translate(43.213 70.095)">
          <path id="Trazado_801" data-name="Trazado 801" d="M369.71,680.373c3.287,3.509,6.695,6.936,10.179,10.24q-3.227,11.756-5.926,23.634a341.156,341.156,0,0,1-26.124-26.291C355.195,685.617,362.49,683.133,369.71,680.373Z" transform="translate(-347.839 -654.833)" fill="none" stroke="#d1a943" stroke-miterlimit="10" stroke-width="1.706"/>
          <path id="Trazado_802" data-name="Trazado 802" d="M362.931,687.292c3.245,3.463,6.607,6.845,10.044,10.1,6.975-3.145,13.836-6.562,20.6-10.161a301.034,301.034,0,0,1-22.369-22.509Q366.815,675.919,362.931,687.292Z" transform="translate(-338.3 -664.724)" fill="none" stroke="#d1a943" stroke-miterlimit="10" stroke-width="1.706"/>
          <path id="Trazado_803" data-name="Trazado 803" d="M367.477,687.858l2.641-3.127" transform="translate(-335.427 -652.079)" fill="none" stroke="#d1a943" stroke-miterlimit="10" stroke-width="1.706"/>
          <path id="Trazado_804" data-name="Trazado 804" d="M361.3,681.6c1.111-1.2,1.666-1.794,2.776-2.99" transform="translate(-339.329 -655.949)" fill="none" stroke="#d1a943" stroke-miterlimit="10" stroke-width="1.706"/>
          <path id="Trazado_805" data-name="Trazado 805" d="M355.627,699.579q7.095-8.01,14.192-16.02" transform="translate(-342.917 -652.819)" fill="none" stroke="#d1a943" stroke-miterlimit="10" stroke-width="0.829"/>
          <path id="Trazado_806" data-name="Trazado 806" d="M365.984,687.881l14.176-16" transform="translate(-336.37 -660.202)" fill="none" stroke="#d1a943" stroke-miterlimit="10" stroke-width="0.829"/>
        </g>
        <g id="Grupo_256" data-name="Grupo 256" transform="translate(2.229 17.954)">
          <path id="Trazado_807" data-name="Trazado 807" d="M345.543,646.761c2.528,4.447,5.113,8.811,7.795,13.161q-5.552,10.972-10.61,22.171a349.541,349.541,0,0,1-20-33.793C330.347,648.088,337.961,647.539,345.543,646.761Z" transform="translate(-322.727 -623.937)" fill="none" stroke="#d1a943" stroke-miterlimit="10" stroke-width="1.706"/>
          <path id="Trazado_808" data-name="Trazado 808" d="M338.726,653.361c2.5,4.387,5.045,8.694,7.69,12.985,7.426-1.261,14.8-2.841,22.126-4.637a304.984,304.984,0,0,1-17.123-28.933Q344.836,642.926,338.726,653.361Z" transform="translate(-312.615 -632.776)" fill="none" stroke="#d1a943" stroke-miterlimit="10" stroke-width="1.706"/>
          <path id="Trazado_809" data-name="Trazado 809" d="M341.483,655.766l3.21-2.428" transform="translate(-310.872 -619.781)" fill="none" stroke="#d1a943" stroke-miterlimit="10" stroke-width="1.706"/>
          <path id="Trazado_810" data-name="Trazado 810" d="M336.755,647.721l3.315-2.255" transform="translate(-313.861 -624.755)" fill="none" stroke="#d1a943" stroke-miterlimit="10" stroke-width="1.706"/>
          <path id="Trazado_811" data-name="Trazado 811" d="M328.577,663.11l17.092-12.268" transform="translate(-319.03 -621.357)" fill="none" stroke="#d1a943" stroke-miterlimit="10" stroke-width="0.829"/>
          <path id="Trazado_812" data-name="Trazado 812" d="M341.05,654.152,358.123,641.9" transform="translate(-311.146 -627.01)" fill="none" stroke="#d1a943" stroke-miterlimit="10" stroke-width="0.829"/>
        </g>
        <path id="Trazado_813" data-name="Trazado 813" d="M367.677,662.127c-1.051,7.21-1.805,14.47-2.36,21.737-6.952,0-13.851-.225-20.791-.666.723-7.483,1.648-14.951,2.869-22.364C354.16,661.485,360.886,661.916,367.677,662.127Z" transform="translate(-306.72 -597.088)" fill="none" stroke="#d1a943" stroke-miterlimit="10" stroke-width="1.706"/>
        <path id="Trazado_814" data-name="Trazado 814" d="M392.918,688.262c.478,7.124,1.136,14.192,1.975,21.28-6.767,1.72-13.538,3.233-20.388,4.56-.765-7.279-1.33-14.589-1.591-21.907C379.631,691.079,386.272,689.775,392.918,688.262Z" transform="translate(-288.777 -579.752)" fill="none" stroke="#d1a943" stroke-miterlimit="10" stroke-width="1.706"/>
        <path id="Trazado_815" data-name="Trazado 815" d="M348.249,629.16c-2.536,7.08-4.792,14.267-6.855,21.507-6.77-2.025-13.409-4.269-20.033-6.76,2.275-7.454,4.744-14.85,7.494-22.132C335.256,624.474,341.682,626.924,348.249,629.16Z" transform="translate(-321.361 -621.775)" fill="none" stroke="#d1a943" stroke-miterlimit="10" stroke-width="1.706"/>
      </g>
      <g id="Grupo_260" data-name="Grupo 260">
        <g id="Grupo_258" data-name="Grupo 258" transform="translate(10.284 76.605)">
          <path id="Trazado_816" data-name="Trazado 816" d="M328.518,606.98q2.194,8.11,4.8,16.09-7.682,9.711-14.914,19.762a402.542,402.542,0,0,1-12.324-41.315C313.514,603.58,320.966,605.449,328.518,606.98Z" transform="translate(-306.085 -587.999)" fill="none" stroke="#d1a943" stroke-miterlimit="10" stroke-width="1.706"/>
          <path id="Trazado_817" data-name="Trazado 817" d="M322.074,610.888q2.164,8,4.739,15.875c7.445.932,14.935,1.511,22.426,1.843a352.4,352.4,0,0,1-10.551-35.371Q330.171,601.863,322.074,610.888Z" transform="translate(-295.979 -593.234)" fill="none" stroke="#d1a943" stroke-miterlimit="10" stroke-width="1.706"/>
          <path id="Trazado_818" data-name="Trazado 818" d="M322.774,615.324c1.448-.622,2.171-.932,3.62-1.552" transform="translate(-295.537 -580.253)" fill="none" stroke="#d1a943" stroke-miterlimit="10" stroke-width="1.706"/>
          <path id="Trazado_819" data-name="Trazado 819" d="M319.858,605.487c1.474-.534,2.21-.8,3.684-1.337" transform="translate(-297.38 -586.335)" fill="none" stroke="#d1a943" stroke-miterlimit="10" stroke-width="1.706"/>
          <path id="Trazado_820" data-name="Trazado 820" d="M309.521,617.4l19.136-7.563" transform="translate(-303.913 -582.737)" fill="none" stroke="#d1a943" stroke-miterlimit="10" stroke-width="0.829"/>
          <path id="Trazado_821" data-name="Trazado 821" d="M323.485,611.882q9.557-3.777,19.113-7.553" transform="translate(-295.087 -586.221)" fill="none" stroke="#d1a943" stroke-miterlimit="10" stroke-width="0.829"/>
        </g>
        <g id="Grupo_259" data-name="Grupo 259">
          <path id="Trazado_822" data-name="Trazado 822" d="M320.31,560.078q.392,9.518,1.226,19.01-9.508,7.988-18.617,16.422c-1.861-16.239-2.867-32.468-3.135-48.816C306.5,551.4,313.31,555.843,320.31,560.078Z" transform="translate(-299.784 -546.044)" fill="none" stroke="#d1a943" stroke-miterlimit="10" stroke-width="1.706"/>
          <path id="Trazado_823" data-name="Trazado 823" d="M314.7,560.09q.387,9.393,1.209,18.757c7.013,3.326,14.08,6.455,21.311,9.242-1.581-13.91-2.443-27.791-2.683-41.793Q324.442,552.938,314.7,560.09Z" transform="translate(-290.353 -546.296)" fill="none" stroke="#d1a943" stroke-miterlimit="10" stroke-width="1.706"/>
          <path id="Trazado_824" data-name="Trazado 824" d="M313.112,566.735c1.534-.2,2.3-.3,3.832-.5" transform="translate(-291.36 -533.691)" fill="none" stroke="#d1a943" stroke-miterlimit="10" stroke-width="1.706"/>
          <path id="Trazado_825" data-name="Trazado 825" d="M312.366,555.112l3.848-.242" transform="translate(-291.832 -540.877)" fill="none" stroke="#d1a943" stroke-miterlimit="10" stroke-width="1.706"/>
          <path id="Trazado_826" data-name="Trazado 826" d="M300.344,562.7q10.059-.965,20.12-1.932" transform="translate(-299.43 -537.15)" fill="none" stroke="#d1a943" stroke-miterlimit="10" stroke-width="0.829"/>
          <path id="Trazado_827" data-name="Trazado 827" d="M315.025,561.288l20.1-1.929" transform="translate(-290.151 -538.04)" fill="none" stroke="#d1a943" stroke-miterlimit="10" stroke-width="0.829"/>
        </g>
        <path id="Trazado_828" data-name="Trazado 828" d="M336.639,589.845c-3.93,6.729-7.6,13.62-11.1,20.6-6.2-4.162-12.242-8.589-18.024-13.35q5.684-10.776,11.863-21.225C324.893,580.831,330.683,585.471,336.639,589.845Z" transform="translate(-294.896 -527.603)" fill="none" stroke="#d1a943" stroke-miterlimit="10" stroke-width="1.706"/>
        <path id="Trazado_829" data-name="Trazado 829" d="M348.249,629.16c-2.536,7.08-4.792,14.267-6.855,21.507-6.77-2.025-13.409-4.269-20.033-6.76,2.275-7.454,4.744-14.85,7.494-22.132C335.256,624.474,341.682,626.924,348.249,629.16Z" transform="translate(-286.146 -498.59)" fill="none" stroke="#d1a943" stroke-miterlimit="10" stroke-width="1.706"/>
      </g>
    </g>
    <g id="Grupo_282" data-name="Grupo 282" transform="translate(310.068 370.06)">
      <g id="Grupo_263" data-name="Grupo 263" transform="translate(0 174.518)">
        <g id="Grupo_262" data-name="Grupo 262" transform="translate(0 21.336)">
          <path id="Trazado_830" data-name="Trazado 830" d="M333.321,509.828q-2.61,7.976-4.8,16.089c-7.553,1.492-15.007,3.4-22.431,5.463a402.225,402.225,0,0,1,12.324-41.314Q325.655,500.129,333.321,509.828Z" transform="translate(-306.085 -490.065)" fill="none" stroke="#d1a943" stroke-miterlimit="10" stroke-width="1.706"/>
          <path id="Trazado_831" data-name="Trazado 831" d="M326.814,503.831q-2.575,7.871-4.741,15.875,8.115,9.038,16.618,17.654a351.8,351.8,0,0,1,10.55-35.37C341.746,502.284,334.263,502.935,326.814,503.831Z" transform="translate(-295.98 -482.528)" fill="none" stroke="#d1a943" stroke-miterlimit="10" stroke-width="1.706"/>
          <path id="Trazado_832" data-name="Trazado 832" d="M319.829,512.032l3.685,1.335" transform="translate(-297.398 -476.181)" fill="none" stroke="#d1a943" stroke-miterlimit="10" stroke-width="1.706"/>
          <path id="Trazado_833" data-name="Trazado 833" d="M322.74,502.275c1.449.619,2.172.929,3.622,1.549" transform="translate(-295.558 -482.348)" fill="none" stroke="#d1a943" stroke-miterlimit="10" stroke-width="1.706"/>
          <path id="Trazado_834" data-name="Trazado 834" d="M309.521,502.42l19.136,7.563" transform="translate(-303.913 -482.256)" fill="none" stroke="#d1a943" stroke-miterlimit="10" stroke-width="0.829"/>
          <path id="Trazado_835" data-name="Trazado 835" d="M323.485,507.938l19.115,7.555" transform="translate(-295.087 -478.768)" fill="none" stroke="#d1a943" stroke-miterlimit="10" stroke-width="0.829"/>
        </g>
        <path id="Trazado_836" data-name="Trazado 836" d="M336.487,541.356c-5.967,4.385-11.682,9.144-17.2,14.114q-6.235-10.456-11.948-21.2c5.787-4.769,11.762-9.318,17.969-13.489C328.8,527.769,332.555,534.621,336.487,541.356Z" transform="translate(-305.294 -449.315)" fill="none" stroke="#d1a943" stroke-miterlimit="10" stroke-width="1.706"/>
        <path id="Trazado_837" data-name="Trazado 837" d="M348.42,498.506c-6.572,2.211-13,4.64-19.41,7.315-2.7-7.3-5.216-14.672-7.445-22.139,6.629-2.466,13.275-4.686,20.05-6.69C343.63,484.243,345.93,491.414,348.42,498.506Z" transform="translate(-296.301 -476.992)" fill="none" stroke="#d1a943" stroke-miterlimit="10" stroke-width="1.706"/>
      </g>
      <g id="Grupo_266" data-name="Grupo 266" transform="translate(25.264 69.298)">
        <g id="Grupo_264" data-name="Grupo 264" transform="translate(1.896 58.698)">
          <path id="Trazado_838" data-name="Trazado 838" d="M353.338,470.658c-2.681,4.348-5.267,8.714-7.795,13.159-7.581-.813-15.2-1.291-22.816-1.537a349.52,349.52,0,0,1,20-33.793Q347.8,459.7,353.338,470.658Z" transform="translate(-322.727 -448.487)" fill="none" stroke="#d1a943" stroke-miterlimit="10" stroke-width="1.706"/>
          <path id="Trazado_839" data-name="Trazado 839" d="M346.416,463.551c-2.646,4.291-5.2,8.6-7.69,12.985q6.123,10.451,12.692,20.585a305.189,305.189,0,0,1,17.123-28.933C361.225,466.361,353.835,464.847,346.416,463.551Z" transform="translate(-312.615 -438.966)" fill="none" stroke="#d1a943" stroke-miterlimit="10" stroke-width="1.706"/>
          <path id="Trazado_840" data-name="Trazado 840" d="M336.707,470.135l3.315,2.254" transform="translate(-313.891 -434.804)" fill="none" stroke="#d1a943" stroke-miterlimit="10" stroke-width="1.706"/>
          <path id="Trazado_841" data-name="Trazado 841" d="M341.431,462.154l3.212,2.427" transform="translate(-310.905 -439.849)" fill="none" stroke="#d1a943" stroke-miterlimit="10" stroke-width="1.706"/>
          <path id="Trazado_842" data-name="Trazado 842" d="M328.577,458.538,345.669,470.8" transform="translate(-319.03 -442.134)" fill="none" stroke="#d1a943" stroke-miterlimit="10" stroke-width="0.829"/>
          <path id="Trazado_843" data-name="Trazado 843" d="M341.05,467.489q8.536,6.128,17.073,12.253" transform="translate(-311.146 -436.477)" fill="none" stroke="#d1a943" stroke-miterlimit="10" stroke-width="0.829"/>
        </g>
        <g id="Grupo_265" data-name="Grupo 265" transform="translate(42.879 5.299)">
          <path id="Trazado_844" data-name="Trazado 844" d="M379.89,439.4c-3.484,3.3-6.892,6.731-10.181,10.239-7.206-2.789-14.517-5.245-21.871-7.582a341.476,341.476,0,0,1,26.126-26.292Q376.671,427.666,379.89,439.4Z" transform="translate(-347.838 -415.768)" fill="none" stroke="#d1a943" stroke-miterlimit="10" stroke-width="1.706"/>
          <path id="Trazado_845" data-name="Trazado 845" d="M372.975,432.154c-3.437,3.258-6.8,6.641-10.044,10.1q3.892,11.393,8.276,22.57a301.329,301.329,0,0,1,22.367-22.511C386.823,438.689,379.935,435.327,372.975,432.154Z" transform="translate(-338.299 -405.411)" fill="none" stroke="#d1a943" stroke-miterlimit="10" stroke-width="1.706"/>
          <path id="Trazado_846" data-name="Trazado 846" d="M361.239,436.524l2.778,2.99" transform="translate(-339.368 -402.649)" fill="none" stroke="#d1a943" stroke-miterlimit="10" stroke-width="1.706"/>
          <path id="Trazado_847" data-name="Trazado 847" d="M367.41,430.314l2.642,3.124" transform="translate(-335.468 -406.574)" fill="none" stroke="#d1a943" stroke-miterlimit="10" stroke-width="1.706"/>
          <path id="Trazado_848" data-name="Trazado 848" d="M355.626,423.521l14.194,16.022" transform="translate(-342.916 -410.868)" fill="none" stroke="#d1a943" stroke-miterlimit="10" stroke-width="0.829"/>
          <path id="Trazado_849" data-name="Trazado 849" d="M365.984,435.212q7.087,8,14.176,16" transform="translate(-336.369 -403.478)" fill="none" stroke="#d1a943" stroke-miterlimit="10" stroke-width="0.829"/>
        </g>
        <path id="Trazado_850" data-name="Trazado 850" d="M367.232,464.308c-6.789.246-13.515.715-20.275,1.405-1.222-7.418-2.239-14.878-2.96-22.367,6.938-.478,13.835-.739,20.787-.779C365.337,449.839,366.182,457.092,367.232,464.308Z" transform="translate(-307.388 -393.531)" fill="none" stroke="#d1a943" stroke-miterlimit="10" stroke-width="1.706"/>
        <path id="Trazado_851" data-name="Trazado 851" d="M348.42,498.506c-6.572,2.211-13,4.64-19.41,7.315-2.7-7.3-5.216-14.672-7.445-22.139,6.629-2.466,13.275-4.686,20.05-6.69C343.63,484.243,345.93,491.414,348.42,498.506Z" transform="translate(-321.565 -371.772)" fill="none" stroke="#d1a943" stroke-miterlimit="10" stroke-width="1.706"/>
        <path id="Trazado_852" data-name="Trazado 852" d="M393.237,438.405c-6.643-1.531-13.28-2.853-20-3.987.31-7.313.829-14.625,1.64-21.9,6.848,1.345,13.615,2.874,20.378,4.612C394.4,424.218,393.73,431.285,393.237,438.405Z" transform="translate(-288.903 -412.521)" fill="none" stroke="#d1a943" stroke-miterlimit="10" stroke-width="1.706"/>
      </g>
      <g id="Grupo_269" data-name="Grupo 269" transform="translate(109.602 10.564)">
        <g id="Grupo_267" data-name="Grupo 267" transform="translate(10.631 24.823)">
          <path id="Trazado_853" data-name="Trazado 853" d="M411.51,415.905c-4.047,2.318-8.054,4.762-11.973,7.31q-9.753-6.6-19.782-12.7a349.238,349.238,0,0,1,30.731-18.772C410.65,399.812,410.991,407.851,411.51,415.905Z" transform="translate(-379.755 -391.743)" fill="none" stroke="#d1a943" stroke-miterlimit="10" stroke-width="1.706"/>
          <path id="Trazado_854" data-name="Trazado 854" d="M404.973,408.768c-4,2.286-7.948,4.7-11.814,7.214,1.005,7.9,2.146,15.774,3.54,23.616a308.133,308.133,0,0,1,26.31-16.072C417.153,418.407,411.118,413.508,404.973,408.768Z" transform="translate(-371.283 -380.982)" fill="none" stroke="#d1a943" stroke-miterlimit="10" stroke-width="1.706"/>
          <path id="Trazado_855" data-name="Trazado 855" d="M391.876,411.027l2.107,3.548" transform="translate(-372.094 -379.555)" fill="none" stroke="#d1a943" stroke-miterlimit="10" stroke-width="1.706"/>
          <path id="Trazado_856" data-name="Trazado 856" d="M399.135,406.592c.778,1.459,1.169,2.187,1.947,3.646" transform="translate(-367.506 -382.358)" fill="none" stroke="#d1a943" stroke-miterlimit="10" stroke-width="1.706"/>
          <path id="Trazado_857" data-name="Trazado 857" d="M389.016,397.192q5.307,9.423,10.613,18.844" transform="translate(-373.902 -388.299)" fill="none" stroke="#d1a943" stroke-miterlimit="10" stroke-width="0.829"/>
          <path id="Trazado_858" data-name="Trazado 858" d="M396.761,410.943q5.3,9.41,10.6,18.823" transform="translate(-369.006 -379.608)" fill="none" stroke="#d1a943" stroke-miterlimit="10" stroke-width="0.829"/>
        </g>
        <g id="Grupo_268" data-name="Grupo 268" transform="translate(70.646)">
          <path id="Trazado_859" data-name="Trazado 859" d="M446.447,400.283c-4.418,1.342-8.821,2.81-13.167,4.389q-8.194-8.642-16.751-16.867c11.124-4.323,22.326-8.054,33.795-11.271Q448.12,388.372,446.447,400.283Z" transform="translate(-416.528 -376.533)" fill="none" stroke="#d1a943" stroke-miterlimit="10" stroke-width="1.706"/>
          <path id="Trazado_860" data-name="Trazado 860" d="M441.1,393.511c-4.359,1.325-8.7,2.774-12.99,4.331-.676,7.889-1.084,15.806-1.3,23.723,9.526-3.685,19.118-6.882,28.933-9.65C451.054,405.624,446.147,399.5,441.1,393.511Z" transform="translate(-410.028 -365.802)" fill="none" stroke="#d1a943" stroke-miterlimit="10" stroke-width="1.706"/>
          <path id="Trazado_861" data-name="Trazado 861" d="M426.792,393.774c.537,1.57.806,2.355,1.342,3.925" transform="translate(-410.041 -365.636)" fill="none" stroke="#d1a943" stroke-miterlimit="10" stroke-width="1.706"/>
          <path id="Trazado_862" data-name="Trazado 862" d="M434.775,391.111c.467,1.593.7,2.389,1.167,3.984" transform="translate(-404.995 -367.319)" fill="none" stroke="#d1a943" stroke-miterlimit="10" stroke-width="1.706"/>
          <path id="Trazado_863" data-name="Trazado 863" d="M426.789,379.684q3.283,10.36,6.564,20.72" transform="translate(-410.043 -374.541)" fill="none" stroke="#d1a943" stroke-miterlimit="10" stroke-width="0.829"/>
          <path id="Trazado_864" data-name="Trazado 864" d="M431.579,394.8q3.278,10.351,6.557,20.7" transform="translate(-407.015 -364.985)" fill="none" stroke="#d1a943" stroke-miterlimit="10" stroke-width="0.829"/>
        </g>
        <path id="Trazado_865" data-name="Trazado 865" d="M423.848,420.672c-6.177-3.026-12.4-5.859-18.726-8.536,1.807-6.985,3.781-13.882,5.939-20.761,6.417,2.887,12.723,5.928,18.984,9.161C427.8,407.2,425.743,413.891,423.848,420.672Z" transform="translate(-353.091 -367.152)" fill="none" stroke="#d1a943" stroke-miterlimit="10" stroke-width="1.706"/>
        <path id="Trazado_866" data-name="Trazado 866" d="M393.237,438.405c-6.643-1.531-13.28-2.853-20-3.987.31-7.313.829-14.625,1.64-21.9,6.848,1.345,13.615,2.874,20.378,4.612C394.4,424.218,393.73,431.285,393.237,438.405Z" transform="translate(-373.241 -353.787)" fill="none" stroke="#d1a943" stroke-miterlimit="10" stroke-width="1.706"/>
        <path id="Trazado_867" data-name="Trazado 867" d="M458.282,409.691c-5.412-4.331-10.905-8.488-16.531-12.521,3.2-6.4,6.544-12.671,10.062-18.888,5.67,4.243,11.206,8.609,16.658,13.148C464.915,397.436,461.528,403.5,458.282,409.691Z" transform="translate(-329.939 -375.428)" fill="none" stroke="#d1a943" stroke-miterlimit="10" stroke-width="1.706"/>
      </g>
      <g id="Grupo_272" data-name="Grupo 272" transform="translate(221.413)">
        <g id="Grupo_270" data-name="Grupo 270" transform="translate(24.158)">
          <path id="Trazado_868" data-name="Trazado 868" d="M483.273,392.455c-4.593.369-9.193.857-13.763,1.461q-6.262-10.213-12.957-20.1c11.751-1.808,23.467-3.05,35.329-3.752Q487.326,381.167,483.273,392.455Z" transform="translate(-456.553 -370.06)" fill="none" stroke="#d1a943" stroke-miterlimit="10" stroke-width="1.706"/>
          <path id="Trazado_869" data-name="Trazado 869" d="M480.742,386.306c-4.532.364-9.073.845-13.58,1.441-2.26,7.561-4.263,15.2-6.083,22.889,10.062-1.532,20.094-2.6,30.248-3.21C488.016,400.275,484.458,393.242,480.742,386.306Z" transform="translate(-453.692 -359.792)" fill="none" stroke="#d1a943" stroke-miterlimit="10" stroke-width="1.706"/>
          <path id="Trazado_870" data-name="Trazado 870" d="M464.492,384.677c.206,1.65.308,2.474.516,4.124" transform="translate(-451.535 -360.821)" fill="none" stroke="#d1a943" stroke-miterlimit="10" stroke-width="1.706"/>
          <path id="Trazado_871" data-name="Trazado 871" d="M472.837,383.789c.134,1.658.2,2.487.333,4.145" transform="translate(-446.261 -361.383)" fill="none" stroke="#d1a943" stroke-miterlimit="10" stroke-width="1.706"/>
          <path id="Trazado_872" data-name="Trazado 872" d="M467.346,370.907q1.107,10.833,2.216,21.662" transform="translate(-449.731 -369.525)" fill="none" stroke="#d1a943" stroke-miterlimit="10" stroke-width="0.829"/>
          <path id="Trazado_873" data-name="Trazado 873" d="M468.963,386.714l2.213,21.638" transform="translate(-448.709 -359.534)" fill="none" stroke="#d1a943" stroke-miterlimit="10" stroke-width="0.829"/>
        </g>
        <g id="Grupo_271" data-name="Grupo 271" transform="translate(89.232)">
          <path id="Trazado_874" data-name="Trazado 874" d="M520.212,393.916c-4.57-.6-9.172-1.092-13.765-1.461q-4.059-11.31-8.609-22.395c11.863.7,23.578,1.944,35.331,3.75Q526.463,383.72,520.212,393.916Z" transform="translate(-495.533 -370.06)" fill="none" stroke="#d1a943" stroke-miterlimit="10" stroke-width="1.706"/>
          <path id="Trazado_875" data-name="Trazado 875" d="M520.592,387.747c-4.508-.6-9.05-1.077-13.58-1.441-3.741,6.923-7.25,13.982-10.585,21.12,10.153.614,20.185,1.678,30.248,3.21C524.882,402.945,522.824,395.315,520.592,387.747Z" transform="translate(-496.426 -359.792)" fill="none" stroke="#d1a943" stroke-miterlimit="10" stroke-width="1.706"/>
          <path id="Trazado_876" data-name="Trazado 876" d="M503.241,383.782c-.132,1.658-.2,2.487-.33,4.144" transform="translate(-492.327 -361.387)" fill="none" stroke="#d1a943" stroke-miterlimit="10" stroke-width="1.706"/>
          <path id="Trazado_877" data-name="Trazado 877" d="M511.658,384.665l-.514,4.126" transform="translate(-487.124 -360.829)" fill="none" stroke="#d1a943" stroke-miterlimit="10" stroke-width="1.706"/>
          <path id="Trazado_878" data-name="Trazado 878" d="M509.551,370.907q-1.109,10.833-2.216,21.662" transform="translate(-489.531 -369.525)" fill="none" stroke="#d1a943" stroke-miterlimit="10" stroke-width="0.829"/>
          <path id="Trazado_879" data-name="Trazado 879" d="M507.934,386.715q-1.107,10.818-2.215,21.636" transform="translate(-490.552 -359.533)" fill="none" stroke="#d1a943" stroke-miterlimit="10" stroke-width="0.829"/>
        </g>
        <path id="Trazado_880" data-name="Trazado 880" d="M492.954,406.132c-4.436-5.369-8.983-10.584-13.683-15.705,4.408-5.595,8.935-11.038,13.616-16.389,4.705,5.332,9.252,10.755,13.685,16.33C501.893,395.509,497.367,400.745,492.954,406.132Z" transform="translate(-418.037 -367.546)" fill="none" stroke="#d1a943" stroke-miterlimit="10" stroke-width="1.706"/>
        <path id="Trazado_881" data-name="Trazado 881" d="M458.282,409.691c-5.412-4.331-10.905-8.488-16.531-12.521,3.2-6.4,6.544-12.671,10.062-18.888,5.67,4.243,11.206,8.609,16.658,13.148C464.915,397.436,461.528,403.5,458.282,409.691Z" transform="translate(-441.751 -364.863)" fill="none" stroke="#d1a943" stroke-miterlimit="10" stroke-width="1.706"/>
        <path id="Trazado_882" data-name="Trazado 882" d="M528.479,409.77c-3.232-6.2-6.6-12.271-10.147-18.285,5.463-4.526,11.007-8.88,16.688-13.109,3.5,6.225,6.833,12.506,10.019,18.912C539.4,401.306,533.9,405.452,528.479,409.77Z" transform="translate(-393.348 -364.804)" fill="none" stroke="#d1a943" stroke-miterlimit="10" stroke-width="1.706"/>
      </g>
      <g id="Grupo_275" data-name="Grupo 275" transform="translate(346.397 10.564)">
        <g id="Grupo_273" data-name="Grupo 273" transform="translate(21.489)">
          <path id="Trazado_883" data-name="Trazado 883" d="M555.846,404.671c-4.344-1.578-8.748-3.047-13.166-4.389q-1.674-11.932-3.876-23.75c11.468,3.217,22.669,6.948,33.793,11.271Q564.029,396.047,555.846,404.671Z" transform="translate(-526.882 -376.533)" fill="none" stroke="#d1a943" stroke-miterlimit="10" stroke-width="1.706"/>
          <path id="Trazado_884" data-name="Trazado 884" d="M559.13,397.842c-4.286-1.557-8.63-3.006-12.99-4.331-5.066,5.973-9.929,12.131-14.641,18.4,9.812,2.768,19.4,5.964,28.933,9.65C560.241,413.647,559.777,405.733,559.13,397.842Z" transform="translate(-531.499 -365.802)" fill="none" stroke="#d1a943" stroke-miterlimit="10" stroke-width="1.706"/>
          <path id="Trazado_885" data-name="Trazado 885" d="M541.63,391.085l-1.165,3.984" transform="translate(-525.832 -367.335)" fill="none" stroke="#d1a943" stroke-miterlimit="10" stroke-width="1.706"/>
          <path id="Trazado_886" data-name="Trazado 886" d="M549.682,393.744c-.537,1.57-.8,2.355-1.34,3.927" transform="translate(-520.854 -365.655)" fill="none" stroke="#d1a943" stroke-miterlimit="10" stroke-width="1.706"/>
          <path id="Trazado_887" data-name="Trazado 887" d="M551.792,379.684q-3.283,10.36-6.564,20.72" transform="translate(-522.822 -374.541)" fill="none" stroke="#d1a943" stroke-miterlimit="10" stroke-width="0.829"/>
          <path id="Trazado_888" data-name="Trazado 888" d="M547,394.8q-3.278,10.351-6.558,20.7" transform="translate(-525.847 -364.985)" fill="none" stroke="#d1a943" stroke-miterlimit="10" stroke-width="0.829"/>
        </g>
        <g id="Grupo_274" data-name="Grupo 274" transform="translate(75.494 24.823)">
          <path id="Trazado_889" data-name="Trazado 889" d="M588.8,423.215c-3.917-2.548-7.924-4.992-11.973-7.312.521-8.053.86-16.092,1.023-24.161a348.482,348.482,0,0,1,30.731,18.772Q598.536,416.628,588.8,423.215Z" transform="translate(-556.855 -391.743)" fill="none" stroke="#d1a943" stroke-miterlimit="10" stroke-width="1.706"/>
          <path id="Trazado_890" data-name="Trazado 890" d="M594.441,415.98c-3.866-2.512-7.819-4.926-11.814-7.212-6.163,4.717-12.164,9.663-18.037,14.757A307.843,307.843,0,0,1,590.9,439.6C592.321,431.764,593.435,423.882,594.441,415.98Z" transform="translate(-564.589 -380.982)" fill="none" stroke="#d1a943" stroke-miterlimit="10" stroke-width="1.706"/>
          <path id="Trazado_891" data-name="Trazado 891" d="M577.579,406.547l-1.945,3.646" transform="translate(-557.608 -382.386)" fill="none" stroke="#d1a943" stroke-miterlimit="10" stroke-width="1.706"/>
          <path id="Trazado_892" data-name="Trazado 892" d="M584.9,410.978c-.842,1.42-1.263,2.13-2.105,3.548" transform="translate(-553.081 -379.586)" fill="none" stroke="#d1a943" stroke-miterlimit="10" stroke-width="1.706"/>
          <path id="Trazado_893" data-name="Trazado 893" d="M591.134,397.192l-10.615,18.844" transform="translate(-554.521 -388.299)" fill="none" stroke="#d1a943" stroke-miterlimit="10" stroke-width="0.829"/>
          <path id="Trazado_894" data-name="Trazado 894" d="M583.384,410.943q-5.3,9.41-10.6,18.823" transform="translate(-559.411 -379.608)" fill="none" stroke="#d1a943" stroke-miterlimit="10" stroke-width="0.829"/>
        </g>
        <path id="Trazado_895" data-name="Trazado 895" d="M561.207,420.384c-1.923-6.771-4.01-13.45-6.278-20.105,6.247-3.261,12.542-6.331,18.946-9.246,2.185,6.868,4.188,13.755,6.022,20.732C573.582,414.469,567.373,417.33,561.207,420.384Z" transform="translate(-495.201 -367.368)" fill="none" stroke="#d1a943" stroke-miterlimit="10" stroke-width="1.706"/>
        <path id="Trazado_896" data-name="Trazado 896" d="M528.479,409.77c-3.232-6.2-6.6-12.271-10.147-18.285,5.463-4.526,11.007-8.88,16.688-13.109,3.5,6.225,6.833,12.506,10.019,18.912C539.4,401.306,533.9,405.452,528.479,409.77Z" transform="translate(-518.332 -375.368)" fill="none" stroke="#d1a943" stroke-miterlimit="10" stroke-width="1.706"/>
        <path id="Trazado_897" data-name="Trazado 897" d="M591.633,438.641c-.478-7.124-1.136-14.192-1.976-21.28,6.768-1.72,13.539-3.233,20.389-4.56.765,7.281,1.328,14.589,1.591,21.907C604.92,435.824,598.278,437.128,591.633,438.641Z" transform="translate(-473.251 -353.61)" fill="none" stroke="#d1a943" stroke-miterlimit="10" stroke-width="1.706"/>
      </g>
      <g id="Grupo_278" data-name="Grupo 278" transform="translate(462.803 69.755)">
        <g id="Grupo_276" data-name="Grupo 276" transform="translate(7.628 4.842)">
          <path id="Trazado_898" data-name="Trazado 898" d="M618.741,449.643c-3.289-3.511-6.7-6.938-10.179-10.239q3.224-11.758,5.924-23.635a341.208,341.208,0,0,1,26.126,26.292C633.255,444.4,625.961,446.881,618.741,449.643Z" transform="translate(-585.336 -415.768)" fill="none" stroke="#d1a943" stroke-miterlimit="10" stroke-width="1.706"/>
          <path id="Trazado_899" data-name="Trazado 899" d="M624.976,442.256c-3.245-3.462-6.607-6.845-10.044-10.1-6.975,3.145-13.836,6.562-20.6,10.161A300.726,300.726,0,0,1,616.7,464.826Q621.092,453.631,624.976,442.256Z" transform="translate(-594.331 -405.411)" fill="none" stroke="#d1a943" stroke-miterlimit="10" stroke-width="1.706"/>
          <path id="Trazado_900" data-name="Trazado 900" d="M609.585,430.25c-1.056,1.25-1.585,1.875-2.641,3.127" transform="translate(-586.359 -406.615)" fill="none" stroke="#d1a943" stroke-miterlimit="10" stroke-width="1.706"/>
          <path id="Trazado_901" data-name="Trazado 901" d="M615.809,436.456c-1.11,1.2-1.665,1.794-2.774,2.992" transform="translate(-582.509 -402.692)" fill="none" stroke="#d1a943" stroke-miterlimit="10" stroke-width="1.706"/>
          <path id="Trazado_902" data-name="Trazado 902" d="M625.908,423.521q-7.1,8.01-14.192,16.022" transform="translate(-583.343 -410.868)" fill="none" stroke="#d1a943" stroke-miterlimit="10" stroke-width="0.829"/>
          <path id="Trazado_903" data-name="Trazado 903" d="M615.545,435.212q-7.087,8-14.176,16" transform="translate(-589.883 -403.478)" fill="none" stroke="#d1a943" stroke-miterlimit="10" stroke-width="0.829"/>
        </g>
        <g id="Grupo_277" data-name="Grupo 277" transform="translate(47.961 58.24)">
          <path id="Trazado_904" data-name="Trazado 904" d="M642.349,483.818c-2.528-4.446-5.113-8.811-7.793-13.161q5.552-10.97,10.61-22.171a349.785,349.785,0,0,1,20,33.795C657.547,482.491,649.933,483.04,642.349,483.818Z" transform="translate(-609.24 -448.486)" fill="none" stroke="#d1a943" stroke-miterlimit="10" stroke-width="1.706"/>
          <path id="Trazado_905" data-name="Trazado 905" d="M648.86,476.536c-2.5-4.387-5.046-8.694-7.692-12.985-7.424,1.262-14.8,2.843-22.124,4.637a305.78,305.78,0,0,1,17.124,28.933Q642.75,486.971,648.86,476.536Z" transform="translate(-619.044 -438.964)" fill="none" stroke="#d1a943" stroke-miterlimit="10" stroke-width="1.706"/>
          <path id="Trazado_906" data-name="Trazado 906" d="M635.8,462.071l-3.21,2.43" transform="translate(-610.483 -439.9)" fill="none" stroke="#d1a943" stroke-miterlimit="10" stroke-width="1.706"/>
          <path id="Trazado_907" data-name="Trazado 907" d="M640.566,470.049l-3.313,2.254" transform="translate(-607.535 -434.857)" fill="none" stroke="#d1a943" stroke-miterlimit="10" stroke-width="1.706"/>
          <path id="Trazado_908" data-name="Trazado 908" d="M654.081,458.538,636.989,470.8" transform="translate(-607.702 -442.133)" fill="none" stroke="#d1a943" stroke-miterlimit="10" stroke-width="0.829"/>
          <path id="Trazado_909" data-name="Trazado 909" d="M641.6,467.489q-8.536,6.128-17.073,12.253" transform="translate(-615.578 -436.475)" fill="none" stroke="#d1a943" stroke-miterlimit="10" stroke-width="0.829"/>
        </g>
        <path id="Trazado_910" data-name="Trazado 910" d="M617.328,463.69c1.049-7.21,1.805-14.47,2.358-21.739,6.953,0,13.851.227,20.791.667-.721,7.481-1.647,14.95-2.868,22.364C630.845,464.33,624.117,463.9,617.328,463.69Z" transform="translate(-572.168 -394.377)" fill="none" stroke="#d1a943" stroke-miterlimit="10" stroke-width="1.706"/>
        <path id="Trazado_911" data-name="Trazado 911" d="M591.633,438.641c-.478-7.124-1.136-14.192-1.976-21.28,6.768-1.72,13.539-3.233,20.389-4.56.765,7.281,1.328,14.589,1.591,21.907C604.92,435.824,598.278,437.128,591.633,438.641Z" transform="translate(-589.657 -412.801)" fill="none" stroke="#d1a943" stroke-miterlimit="10" stroke-width="1.706"/>
        <path id="Trazado_912" data-name="Trazado 912" d="M638.2,498.925c2.535-7.078,4.792-14.266,6.853-21.507,6.77,2.027,13.411,4.271,20.033,6.76-2.273,7.454-4.744,14.85-7.493,22.132C651.194,503.611,644.769,501.161,638.2,498.925Z" transform="translate(-558.974 -371.96)" fill="none" stroke="#d1a943" stroke-miterlimit="10" stroke-width="1.706"/>
      </g>
      <g id="Grupo_281" data-name="Grupo 281" transform="translate(540.591 175.213)">
        <g id="Grupo_279" data-name="Grupo 279" transform="translate(0 20.641)">
          <path id="Trazado_913" data-name="Trazado 913" d="M658.07,525.916q-2.193-8.108-4.8-16.089,7.682-9.714,14.914-19.763A402.093,402.093,0,0,1,680.5,531.379C673.072,529.316,665.621,527.447,658.07,525.916Z" transform="translate(-627.242 -490.065)" fill="none" stroke="#d1a943" stroke-miterlimit="10" stroke-width="1.706"/>
          <path id="Trazado_914" data-name="Trazado 914" d="M664.485,519.706q-2.167-8-4.741-15.873c-7.444-.934-14.933-1.513-22.424-1.843a351.754,351.754,0,0,1,10.549,35.371Q656.389,528.73,664.485,519.706Z" transform="translate(-637.32 -482.528)" fill="none" stroke="#d1a943" stroke-miterlimit="10" stroke-width="1.706"/>
          <path id="Trazado_915" data-name="Trazado 915" d="M654.667,502.174l-3.62,1.55" transform="translate(-628.644 -482.412)" fill="none" stroke="#d1a943" stroke-miterlimit="10" stroke-width="1.706"/>
          <path id="Trazado_916" data-name="Trazado 916" d="M657.608,511.927l-3.685,1.337" transform="translate(-626.826 -476.247)" fill="none" stroke="#d1a943" stroke-miterlimit="10" stroke-width="1.706"/>
          <path id="Trazado_917" data-name="Trazado 917" d="M673.928,502.42l-19.136,7.563" transform="translate(-626.277 -482.256)" fill="none" stroke="#d1a943" stroke-miterlimit="10" stroke-width="0.829"/>
          <path id="Trazado_918" data-name="Trazado 918" d="M659.957,507.939l-19.115,7.555" transform="translate(-635.094 -478.768)" fill="none" stroke="#d1a943" stroke-miterlimit="10" stroke-width="0.829"/>
        </g>
        <g id="Grupo_280" data-name="Grupo 280" transform="translate(16.671 102.613)">
          <path id="Trazado_919" data-name="Trazado 919" d="M664.153,575.722q-.394-9.518-1.227-19.01,9.508-7.986,18.618-16.42c1.86,16.239,2.867,32.466,3.135,48.815C677.967,584.406,671.152,579.957,664.153,575.722Z" transform="translate(-637.807 -540.292)" fill="none" stroke="#d1a943" stroke-miterlimit="10" stroke-width="1.706"/>
          <path id="Trazado_920" data-name="Trazado 920" d="M670.056,572.991q-.387-9.391-1.209-18.757c-7.013-3.326-14.08-6.453-21.311-9.242,1.582,13.91,2.443,27.791,2.683,41.793Q660.319,580.144,670.056,572.991Z" transform="translate(-647.535 -537.321)" fill="none" stroke="#d1a943" stroke-miterlimit="10" stroke-width="1.706"/>
          <path id="Trazado_921" data-name="Trazado 921" d="M664.41,550.353c-1.533.2-2.3.3-3.832.5" transform="translate(-639.291 -533.933)" fill="none" stroke="#d1a943" stroke-miterlimit="10" stroke-width="1.706"/>
          <path id="Trazado_922" data-name="Trazado 922" d="M665.163,561.878l-3.848.243" transform="translate(-638.825 -526.649)" fill="none" stroke="#d1a943" stroke-miterlimit="10" stroke-width="1.706"/>
          <path id="Trazado_923" data-name="Trazado 923" d="M683.487,554.945l-20.12,1.932" transform="translate(-637.528 -531.031)" fill="none" stroke="#d1a943" stroke-miterlimit="10" stroke-width="0.829"/>
          <path id="Trazado_924" data-name="Trazado 924" d="M668.8,556.355l-20.1,1.929" transform="translate(-646.799 -530.139)" fill="none" stroke="#d1a943" stroke-miterlimit="10" stroke-width="0.829"/>
        </g>
        <path id="Trazado_925" data-name="Trazado 925" d="M650.678,540.441c3.93-6.729,7.6-13.62,11.1-20.6,6.2,4.16,12.24,8.588,18.023,13.349q-5.682,10.776-11.862,21.226C662.424,549.455,656.633,544.815,650.678,540.441Z" transform="translate(-628.877 -450.605)" fill="none" stroke="#d1a943" stroke-miterlimit="10" stroke-width="1.706"/>
        <path id="Trazado_926" data-name="Trazado 926" d="M638.2,498.925c2.535-7.078,4.792-14.266,6.853-21.507,6.77,2.027,13.411,4.271,20.033,6.76-2.273,7.454-4.744,14.85-7.493,22.132C651.194,503.611,644.769,501.161,638.2,498.925Z" transform="translate(-636.762 -477.418)" fill="none" stroke="#d1a943" stroke-miterlimit="10" stroke-width="1.706"/>
      </g>
    </g>
  </g>
</svg>
