<?xml version="1.0" encoding="utf-8"?>
<!-- Generator: Adobe Illustrator 24.0.1, SVG Export Plug-In . SVG Version: 6.00 Build 0)  -->
<svg version="1.1" id="Capa_1" xmlns="http://www.w3.org/2000/svg" xmlns:xlink="http://www.w3.org/1999/xlink" x="0px" y="0px"
	 viewBox="0 0 114.6 55" style="enable-background:new 0 0 114.6 55;" xml:space="preserve">
<style type="text/css">
	.st0{fill:#11391E;}
	.st1{fill:none;stroke:#D1A942;stroke-width:3;stroke-miterlimit:10;}
	.st2{fill:none;stroke:#D1A942;stroke-width:4.66;stroke-miterlimit:10;}
	.st3{fill:none;stroke:#D1A942;stroke-width:3.39;stroke-miterlimit:10;}
	.st4{fill:none;}
	.st5{fill:#D1A942;}
</style>
<g id="Grupo_2039">
	<path id="Trazado_3803" class="st2" d="M39,9.2v36.6H2.3V6.9"/>
	<path id="Trazado_3804" class="st2" d="M39,45.8V9.2h36.6v36.6"/>
	<path id="Trazado_3805" class="st2" d="M112.2,6.9v38.9H75.6V9.2"/>
	<g id="Grupo_2027">
		<line id="Línea_161" class="st2" x1="20.7" y1="6.9" x2="20.7" y2="36.9"/>
		<rect id="Rectángulo_511" x="12.6" y="12.9" class="st5" width="6" height="6"/>
		<rect id="Rectángulo_512" x="12.6" y="24.9" class="st5" width="6" height="6"/>
		<rect id="Rectángulo_513" x="23" y="18.9" class="st5" width="6" height="6"/>
	</g>
	<g id="Grupo_2028">
		<line id="Línea_162" class="st2" x1="57.2" y1="17.6" x2="57.2" y2="47.6"/>
		<rect id="Rectángulo_514" x="49.1" y="23.6" class="st5" width="6" height="6"/>
		<rect id="Rectángulo_515" x="49.1" y="35.6" class="st5" width="6" height="6"/>
		<rect id="Rectángulo_516" x="59.5" y="29.6" class="st5" width="6" height="6"/>
	</g>
	<g id="Grupo_2029">
		<line id="Línea_163" class="st2" x1="93.8" y1="6.9" x2="93.8" y2="36.9"/>
		<rect id="Rectángulo_517" x="85.7" y="12.9" class="st5" width="6" height="6"/>
		<rect id="Rectángulo_518" x="85.7" y="24.9" class="st5" width="6" height="6"/>
		<rect id="Rectángulo_519" x="96.2" y="18.9" class="st5" width="6" height="6"/>
	</g>
</g>
</svg>
