<?xml version="1.0" encoding="utf-8"?>
<!-- Generator: Adobe Illustrator 24.0.1, SVG Export Plug-In . SVG Version: 6.00 Build 0)  -->
<svg version="1.1" id="Capa_1" xmlns="http://www.w3.org/2000/svg" xmlns:xlink="http://www.w3.org/1999/xlink" x="0px" y="0px"
	 viewBox="0 0 232.3 74" style="enable-background:new 0 0 232.3 74;" xml:space="preserve">
<style type="text/css">
	.st0{fill:#11391E;}
	.st1{fill:none;stroke:#D1A942;stroke-width:3;stroke-miterlimit:10;}
	.st2{fill:none;stroke:#D1A942;stroke-width:4.66;stroke-miterlimit:10;}
	.st3{fill:none;stroke:#D1A942;stroke-width:3.39;stroke-miterlimit:10;}
	.st4{fill:none;}
	.st5{fill:#D1A942;}
</style>
<g id="Grupo_2018">
	<g id="Grupo_780">
		<g id="Grupo_779">
			<path id="Trazado_2503" class="st1" d="M30.2,71.6L1.9,37L30.2,2.4L58.5,37L30.2,71.6z"/>
			<path id="Trazado_2504" class="st1" d="M30.2,54.6L15.9,37l14.3-17.6L44.5,37L30.2,54.6z"/>
			<g id="Trazado_2505">
				<path class="st4" d="M30.2,43.8L24.7,37l5.5-6.8l5.5,6.8L30.2,43.8z"/>
				<path class="st5" d="M30.2,39l1.7-2l-1.7-2l-1.7,2L30.2,39 M30.2,43.8L24.7,37l5.5-6.8l5.5,6.8L30.2,43.8z"/>
			</g>
			<line id="Línea_47" class="st1" x1="1.9" y1="37" x2="57.2" y2="37"/>
		</g>
	</g>
	<g id="Grupo_782">
		<g id="Grupo_781">
			<path id="Trazado_2506" class="st1" d="M87.9,71.6L59.6,37L87.9,2.4L116.1,37L87.9,71.6z"/>
			<path id="Trazado_2507" class="st1" d="M87.9,54.6L73.5,37l14.3-17.6L102.2,37L87.9,54.6z"/>
			<g id="Trazado_2508">
				<path class="st4" d="M87.9,43.8L82.3,37l5.5-6.8l5.5,6.8L87.9,43.8z"/>
				<path class="st5" d="M87.9,39l1.7-2l-1.7-2l-1.6,2L87.9,39 M87.9,43.8L82.3,37l5.5-6.8l5.5,6.8L87.9,43.8z"/>
			</g>
			<line id="Línea_48" class="st1" x1="59.6" y1="37" x2="114.8" y2="37"/>
		</g>
	</g>
	<g id="Grupo_784">
		<g id="Grupo_783">
			<path id="Trazado_2509" class="st1" d="M144.4,71.6L116.1,37l28.3-34.6L172.7,37L144.4,71.6z"/>
			<path id="Trazado_2510" class="st1" d="M144.4,54.6L130.1,37l14.3-17.6L158.7,37L144.4,54.6z"/>
			<g id="Trazado_2511">
				<path class="st4" d="M144.4,43.8l-5.5-6.8l5.5-6.8l5.5,6.8L144.4,43.8z"/>
				<path class="st5" d="M144.4,39l1.7-2l-1.7-2l-1.6,2L144.4,39 M144.4,43.8l-5.5-6.8l5.5-6.8l5.5,6.8L144.4,43.8z"/>
			</g>
			<line id="Línea_49" class="st1" x1="116.1" y1="37" x2="171.4" y2="37"/>
		</g>
	</g>
	<g id="Grupo_786">
		<g id="Grupo_785">
			<path id="Trazado_2512" class="st1" d="M202.1,71.6L173.8,37l28.3-34.6L230.3,37L202.1,71.6z"/>
			<path id="Trazado_2513" class="st1" d="M202.1,54.6L187.8,37l14.3-17.6L216.4,37L202.1,54.6z"/>
			<g id="Trazado_2514">
				<path class="st4" d="M202.1,43.8l-5.5-6.8l5.5-6.8l5.5,6.8L202.1,43.8z"/>
				<path class="st5" d="M202.1,39l1.7-2l-1.7-2l-1.6,2L202.1,39 M202.1,43.8l-5.5-6.8l5.5-6.8l5.5,6.8L202.1,43.8z"/>
			</g>
			<line id="Línea_50" class="st1" x1="173.8" y1="37" x2="229" y2="37"/>
		</g>
	</g>
</g>
</svg>
