<?xml version="1.0" encoding="utf-8"?>
<!-- Generator: Adobe Illustrator 24.0.1, SVG Export Plug-In . SVG Version: 6.00 Build 0)  -->
<svg version="1.1" id="Capa_1" xmlns="http://www.w3.org/2000/svg" xmlns:xlink="http://www.w3.org/1999/xlink" x="0px" y="0px"
	 viewBox="0 0 110.5 55" style="enable-background:new 0 0 110.5 55;" xml:space="preserve">
<style type="text/css">
	.st0{fill:#11391E;}
	.st1{fill:none;stroke:#D1A942;stroke-width:3;stroke-miterlimit:10;}
	.st2{fill:none;stroke:#D1A942;stroke-width:4.66;stroke-miterlimit:10;}
	.st3{fill:none;stroke:#D1A942;stroke-width:3.39;stroke-miterlimit:10;}
	.st4{fill:none;}
	.st5{fill:#D1A942;}
</style>
<g id="Grupo_2031_1_">
	<path id="Trazado_3806_1_" class="st2" d="M4.3,51.5L72.7,6.2l5.5,7L35.1,42.6l5,6.5L108,3.5"/>
	<circle id="Elipse_131_1_" class="st3" cx="24.9" cy="49.1" r="2.4"/>
	<circle id="Elipse_132_1_" class="st3" cx="88" cy="5.9" r="2.4"/>
	<line id="Línea_164_1_" class="st3" x1="2.9" y1="23.3" x2="17" y2="42.6"/>
	<line id="Línea_165_1_" class="st3" x1="1.4" y1="6.9" x2="23.7" y2="37.4"/>
	<line id="Línea_166_1_" class="st3" x1="13.7" y1="5.9" x2="32.3" y2="31.4"/>
	<line id="Línea_167_1_" class="st3" x1="26.1" y1="5.9" x2="41" y2="26.3"/>
	<line id="Línea_168_1_" class="st3" x1="38.3" y1="5.1" x2="50" y2="21.2"/>
	<line id="Línea_169_1_" class="st3" x1="50.5" y1="4.8" x2="58.2" y2="15.2"/>
	<line id="Línea_170_1_" class="st3" x1="109.1" y1="18.2" x2="101" y2="7.2"/>
	<line id="Línea_171_1_" class="st3" x1="10.3" y1="47.9" x2="2.2" y2="36.8"/>
	<line id="Línea_172_1_" class="st3" x1="108.1" y1="31.6" x2="94" y2="12.3"/>
	<line id="Línea_173_1_" class="st3" x1="108.6" y1="48.5" x2="86.2" y2="18"/>
	<line id="Línea_174_1_" class="st3" x1="97.3" y1="49" x2="78.7" y2="23.5"/>
	<line id="Línea_175_1_" class="st3" x1="84.9" y1="49" x2="70.6" y2="29.4"/>
	<line id="Línea_176_1_" class="st3" x1="72.7" y1="49.8" x2="61.9" y2="34.9"/>
	<line id="Línea_177_1_" class="st3" x1="60.5" y1="50.1" x2="53.4" y2="40.5"/>
</g>
</svg>
