<svg xmlns="http://www.w3.org/2000/svg" width="672.398" height="672.387" viewBox="0 0 672.398 672.387">
  <g id="Grupo_524" data-name="Grupo 524" transform="translate(-163.227 -236.175)">
    <path id="Trazado_1055" data-name="Trazado 1055" d="M771.466,441.049l4.265-1.793q-1.149-2.73-2.352-5.448l-4.232,1.871Q770.333,438.358,771.466,441.049Z" transform="translate(22.705 7.406)" fill="#e5661d"/>
    <path id="Trazado_1056" data-name="Trazado 1056" d="M769.452,447.892l4.3-1.715q-1.08-2.7-2.213-5.39l-4.265,1.793Q768.387,445.231,769.452,447.892Z" transform="translate(22.635 7.667)" fill="#e5661d"/>
    <path id="Trazado_1057" data-name="Trazado 1057" d="M767.277,454.6l4.328-1.636q-1.013-2.67-2.077-5.33l-4.3,1.715Q766.28,451.972,767.277,454.6Z" transform="translate(22.559 7.924)" fill="#e5661d"/>
    <path id="Trazado_1058" data-name="Trazado 1058" d="M764.947,461.177l4.357-1.557q-.947-2.639-1.945-5.269l-4.327,1.637Q764.014,458.578,764.947,461.177Z" transform="translate(22.476 8.176)" fill="#e5661d"/>
    <path id="Trazado_1059" data-name="Trazado 1059" d="M762.468,467.616l4.384-1.479q-.884-2.6-1.817-5.206l-4.356,1.558Q761.6,465.048,762.468,467.616Z" transform="translate(22.388 8.422)" fill="#e5661d"/>
    <path id="Trazado_1060" data-name="Trazado 1060" d="M784.2,477.543q.769,2.744,1.486,5.495l4.479-1.162q-.727-2.79-1.507-5.574Z" transform="translate(23.269 8.998)" fill="#e5661d"/>
    <path id="Trazado_1061" data-name="Trazado 1061" d="M778.394,473.534q.808,2.7,1.564,5.4l4.458-1.242q-.767-2.745-1.587-5.483Z" transform="translate(23.052 8.845)" fill="#e5661d"/>
    <path id="Trazado_1062" data-name="Trazado 1062" d="M772.537,469.69q.847,2.653,1.642,5.313l4.434-1.322q-.807-2.7-1.666-5.392Z" transform="translate(22.832 8.698)" fill="#e5661d"/>
    <path id="Trazado_1063" data-name="Trazado 1063" d="M766.632,466.01q.882,2.607,1.716,5.221,2.205-.7,4.41-1.4-.846-2.653-1.742-5.3Z" transform="translate(22.611 8.557)" fill="#e5661d"/>
    <path id="Trazado_1064" data-name="Trazado 1064" d="M794.428,480.554l-4.48,1.162q.727,2.79,1.4,5.585l4.5-1.083Q795.166,483.384,794.428,480.554Z" transform="translate(23.485 9.157)" fill="#e5661d"/>
    <path id="Trazado_1065" data-name="Trazado 1065" d="M788.244,493.653l4.518-1q-.624-2.8-1.3-5.593l-4.5,1.082Q787.629,490.894,788.244,493.653Z" transform="translate(23.373 9.401)" fill="#e5661d"/>
    <path id="Trazado_1066" data-name="Trazado 1066" d="M785.007,499.859l4.535-.922q-.565-2.762-1.181-5.521l-4.517,1Q784.449,497.137,785.007,499.859Z" transform="translate(23.256 9.639)" fill="#e5661d"/>
    <path id="Trazado_1067" data-name="Trazado 1067" d="M781.641,505.918l4.55-.844q-.506-2.725-1.062-5.449l-4.536.923Q781.142,503.232,781.641,505.918Z" transform="translate(23.134 9.872)" fill="#e5661d"/>
    <path id="Trazado_1068" data-name="Trazado 1068" d="M778.153,511.827l4.565-.763q-.45-2.688-.95-5.373l-4.55.842Q777.709,509.179,778.153,511.827Z" transform="translate(23.008 10.099)" fill="#e5661d"/>
    <path id="Trazado_1069" data-name="Trazado 1069" d="M774.547,517.585l4.577-.683q-.4-2.649-.84-5.3l-4.564.762Q774.157,514.976,774.547,517.585Z" transform="translate(22.877 10.321)" fill="#e5661d"/>
    <path id="Trazado_1070" data-name="Trazado 1070" d="M794.133,530.788q.266,2.773.482,5.543l4.614-.362q-.22-2.81-.49-5.623Z" transform="translate(23.642 11.023)" fill="#e5661d"/>
    <path id="Trazado_1071" data-name="Trazado 1071" d="M789.14,525.952q.311,2.731.573,5.463l4.607-.443q-.266-2.77-.581-5.542Z" transform="translate(23.455 10.839)" fill="#e5661d"/>
    <path id="Trazado_1072" data-name="Trazado 1072" d="M784.072,521.27q.353,2.691.66,5.382l4.6-.522q-.31-2.731-.669-5.462Z" transform="translate(23.265 10.661)" fill="#e5661d"/>
    <path id="Trazado_1073" data-name="Trazado 1073" d="M778.931,516.745q.4,2.65.745,5.3l4.589-.6q-.355-2.689-.756-5.379Z" transform="translate(23.072 10.488)" fill="#e5661d"/>
    <path id="Trazado_1074" data-name="Trazado 1074" d="M803.66,535.417l-4.615.362q.221,2.811.391,5.621l4.619-.281Q803.883,538.269,803.66,535.417Z" transform="translate(23.826 11.213)" fill="#e5661d"/>
    <path id="Trazado_1075" data-name="Trazado 1075" d="M795.256,547l4.624-.2q-.122-2.807-.292-5.618l-4.62.282Q795.137,544.236,795.256,547Z" transform="translate(23.673 11.429)" fill="#e5661d"/>
    <path id="Trazado_1076" data-name="Trazado 1076" d="M790.978,552.448l4.626-.121q-.07-2.765-.191-5.534l-4.623.2Q790.908,549.723,790.978,552.448Z" transform="translate(23.516 11.64)" fill="#e5661d"/>
    <path id="Trazado_1077" data-name="Trazado 1077" d="M786.6,557.733l4.627-.041q-.022-2.722-.092-5.448l-4.626.121Q786.581,555.051,786.6,557.733Z" transform="translate(23.356 11.844)" fill="#e5661d"/>
    <path id="Trazado_1078" data-name="Trazado 1078" d="M782.137,562.858l4.628.038q.024-2.678,0-5.362l-4.628.042Q782.161,560.219,782.137,562.858Z" transform="translate(23.192 12.042)" fill="#e5661d"/>
    <path id="Trazado_1079" data-name="Trazado 1079" d="M777.588,567.824q2.314.059,4.627.118.069-2.635.092-5.274l-4.627-.039Q777.657,565.228,777.588,567.824Z" transform="translate(23.022 12.233)" fill="#e5661d"/>
    <path id="Trazado_1080" data-name="Trazado 1080" d="M794.611,583.989q-.213,2.739-.475,5.471l4.606.436q.266-2.772.482-5.549Z" transform="translate(23.642 13.034)" fill="#e5661d"/>
    <path id="Trazado_1081" data-name="Trazado 1081" d="M790.523,578.436q-.165,2.7-.376,5.4l4.614.357q.215-2.739.382-5.483Z" transform="translate(23.492 12.825)" fill="#e5661d"/>
    <path id="Trazado_1082" data-name="Trazado 1082" d="M786.336,573.026q-.117,2.67-.279,5.335l4.62.278q.165-2.7.283-5.414Z" transform="translate(23.339 12.623)" fill="#e5661d"/>
    <path id="Trazado_1083" data-name="Trazado 1083" d="M782.054,567.759q-.069,2.636-.184,5.266l4.623.2q.117-2.671.188-5.346Z" transform="translate(23.182 12.425)" fill="#e5661d"/>
    <path id="Trazado_1084" data-name="Trazado 1084" d="M748.857,747.631l4.722,3.273A338.141,338.141,0,0,0,812.17,590.782l-5.719-.547A332.394,332.394,0,0,1,748.857,747.631Z" transform="translate(21.945 13.267)" fill="#e5661d"/>
    <path id="Trazado_1085" data-name="Trazado 1085" d="M770.88,586.889A295.359,295.359,0,0,1,719.7,726.757l4.721,3.274a301.1,301.1,0,0,0,52.182-142.6Z" transform="translate(20.852 13.142)" fill="#e5661d"/>
    <path id="Trazado_1086" data-name="Trazado 1086" d="M803.2,590.118q-2.3-.216-4.607-.436-.265,2.772-.577,5.536l4.6.516Q802.935,592.929,803.2,590.118Z" transform="translate(23.787 13.247)" fill="#e5661d"/>
    <path id="Trazado_1087" data-name="Trazado 1087" d="M792.949,599.964l4.59.593q.358-2.756.671-5.52l-4.6-.515Q793.3,597.245,792.949,599.964Z" transform="translate(23.597 13.428)" fill="#e5661d"/>
    <path id="Trazado_1088" data-name="Trazado 1088" d="M787.809,604.541l4.578.672q.4-2.708.754-5.425l-4.589-.595Q788.2,601.872,787.809,604.541Z" transform="translate(23.405 13.603)" fill="#e5661d"/>
    <path id="Trazado_1089" data-name="Trazado 1089" d="M782.6,608.952l4.566.751q.439-2.661.834-5.331l-4.579-.672Q783.037,606.33,782.6,608.952Z" transform="translate(23.21 13.772)" fill="#e5661d"/>
    <path id="Trazado_1090" data-name="Trazado 1090" d="M777.338,613.194l4.551.829q.478-2.613.912-5.234l-4.566-.75Q777.807,610.621,777.338,613.194Z" transform="translate(23.012 13.935)" fill="#e5661d"/>
    <path id="Trazado_1091" data-name="Trazado 1091" d="M772.015,617.269l4.537.906q.515-2.563.986-5.137l-4.552-.828Q772.522,614.744,772.015,617.269Z" transform="translate(22.813 14.091)" fill="#e5661d"/>
    <path id="Trazado_1092" data-name="Trazado 1092" d="M786.057,635.991q-.674,2.645-1.39,5.278l4.464,1.214q.728-2.672,1.411-5.356Z" transform="translate(23.287 14.982)" fill="#e5661d"/>
    <path id="Trazado_1093" data-name="Trazado 1093" d="M782.965,629.857q-.618,2.617-1.281,5.226l4.485,1.138q.673-2.646,1.3-5.3Z" transform="translate(23.175 14.752)" fill="#e5661d"/>
    <path id="Trazado_1094" data-name="Trazado 1094" d="M779.754,623.848q-.565,2.593-1.176,5.173l4.5,1.061q.619-2.621,1.193-5.25Z" transform="translate(23.059 14.527)" fill="#e5661d"/>
    <path id="Trazado_1095" data-name="Trazado 1095" d="M776.426,617.968q-.515,2.563-1.072,5.117l4.52.983q.567-2.591,1.088-5.194Z" transform="translate(22.938 14.307)" fill="#e5661d"/>
    <path id="Trazado_1096" data-name="Trazado 1096" d="M793.489,643.463l-4.465-1.214q-.726,2.67-1.5,5.329l4.443,1.29Q792.752,646.171,793.489,643.463Z" transform="translate(23.394 15.217)" fill="#e5661d"/>
    <path id="Trazado_1097" data-name="Trazado 1097" d="M781.73,651.368l4.421,1.365q.817-2.642,1.59-5.3l-4.443-1.291Q782.535,648.761,781.73,651.368Z" transform="translate(23.177 15.362)" fill="#e5661d"/>
    <path id="Trazado_1098" data-name="Trazado 1098" d="M775.9,654.985l4.4,1.441q.85-2.591,1.656-5.2-2.21-.683-4.421-1.366Q776.733,652.431,775.9,654.985Z" transform="translate(22.958 15.502)" fill="#e5661d"/>
    <path id="Trazado_1099" data-name="Trazado 1099" d="M770.026,658.43l4.372,1.516q.879-2.54,1.718-5.094l-4.4-1.44Q770.894,655.927,770.026,658.43Z" transform="translate(22.738 15.635)" fill="#e5661d"/>
    <path id="Trazado_1100" data-name="Trazado 1100" d="M764.124,661.7l4.345,1.59q.91-2.487,1.778-4.989l-4.372-1.516Q765.021,659.253,764.124,661.7Z" transform="translate(22.517 15.761)" fill="#e5661d"/>
    <path id="Trazado_1101" data-name="Trazado 1101" d="M758.194,664.8l4.318,1.664q.937-2.434,1.834-4.884L760,659.993Q759.119,662.405,758.194,664.8Z" transform="translate(22.295 15.881)" fill="#e5661d"/>
    <path id="Trazado_1102" data-name="Trazado 1102" d="M768.875,685.622q-1.109,2.493-2.26,4.967l4.193,1.955q1.169-2.51,2.294-5.039Z" transform="translate(22.61 16.842)" fill="#e5661d"/>
    <path id="Trazado_1103" data-name="Trazado 1103" d="M766.864,679.055q-1.052,2.474-2.144,4.931l4.227,1.882q1.11-2.493,2.176-5Z" transform="translate(22.539 16.596)" fill="#e5661d"/>
    <path id="Trazado_1104" data-name="Trazado 1104" d="M764.711,672.593q-.994,2.456-2.029,4.894l4.258,1.81q1.05-2.474,2.059-4.966Z" transform="translate(22.463 16.354)" fill="#e5661d"/>
    <path id="Trazado_1105" data-name="Trazado 1105" d="M762.422,666.241q-.938,2.436-1.917,4.853l4.288,1.737q.994-2.454,1.946-4.926Z" transform="translate(22.382 16.116)" fill="#e5661d"/>
    <path id="Trazado_1106" data-name="Trazado 1106" d="M774.936,694.249l-4.194-1.954q-1.169,2.51-2.379,5l4.159,2.026Q773.75,696.794,774.936,694.249Z" transform="translate(22.676 17.092)" fill="#e5661d"/>
    <path id="Trazado_1107" data-name="Trazado 1107" d="M762.011,700.052l4.125,2.1q1.253-2.47,2.465-4.96l-4.16-2.026Q763.247,697.615,762.011,700.052Z" transform="translate(22.438 17.199)" fill="#e5661d"/>
    <path id="Trazado_1108" data-name="Trazado 1108" d="M755.648,702.634l4.089,2.166q1.278-2.414,2.513-4.849l-4.124-2.1Q756.907,700.254,755.648,702.634Z" transform="translate(22.2 17.3)" fill="#e5661d"/>
    <path id="Trazado_1109" data-name="Trazado 1109" d="M749.277,705.042l4.05,2.236q1.3-2.358,2.559-4.738l-4.089-2.167Q750.558,702.717,749.277,705.042Z" transform="translate(21.961 17.395)" fill="#e5661d"/>
    <path id="Trazado_1110" data-name="Trazado 1110" d="M742.9,707.276l4.012,2.306q1.321-2.3,2.6-4.628l-4.051-2.237Q744.2,705.008,742.9,707.276Z" transform="translate(21.722 17.483)" fill="#e5661d"/>
    <path id="Trazado_1111" data-name="Trazado 1111" d="M736.527,709.339l3.971,2.374q1.34-2.249,2.643-4.518l-4.012-2.305Q737.847,707.124,736.527,709.339Z" transform="translate(21.483 17.564)" fill="#e5661d"/>
    <path id="Trazado_1112" data-name="Trazado 1112" d="M743.488,731.728q-1.524,2.28-3.088,4.535l3.8,2.64q1.587-2.288,3.132-4.6Z" transform="translate(21.628 18.57)" fill="#e5661d"/>
    <path id="Trazado_1113" data-name="Trazado 1113" d="M742.634,724.892q-1.463,2.271-2.964,4.517l3.845,2.575q1.523-2.28,3.008-4.584Z" transform="translate(21.601 18.313)" fill="#e5661d"/>
    <path id="Trazado_1114" data-name="Trazado 1114" d="M741.62,718.139q-1.4,2.26-2.842,4.5l3.889,2.509q1.461-2.271,2.883-4.564Z" transform="translate(21.567 18.06)" fill="#e5661d"/>
    <path id="Trazado_1115" data-name="Trazado 1115" d="M740.449,711.473q-1.341,2.247-2.721,4.475l3.931,2.441q1.4-2.26,2.762-4.542Z" transform="translate(21.528 17.811)" fill="#e5661d"/>
    <path id="Trazado_1116" data-name="Trazado 1116" d="M621.379,853.08l2.419,5.212A335.91,335.91,0,0,0,758.336,745.247l-4.721-3.273A330.157,330.157,0,0,1,621.379,853.08Z" transform="translate(17.168 18.954)" fill="#e5661d"/>
    <path id="Trazado_1117" data-name="Trazado 1117" d="M747.979,741.285l-3.8-2.641q-1.586,2.288-3.213,4.55l3.754,2.706Q746.371,743.606,747.979,741.285Z" transform="translate(21.649 18.829)" fill="#e5661d"/>
    <path id="Trazado_1118" data-name="Trazado 1118" d="M734.216,744.857l3.708,2.769q1.666-2.236,3.3-4.5l-3.755-2.7Q735.86,742.653,734.216,744.857Z" transform="translate(21.396 18.895)" fill="#e5661d"/>
    <path id="Trazado_1119" data-name="Trazado 1119" d="M727.483,746.346l3.659,2.833q1.682-2.179,3.326-4.382l-3.707-2.77Q729.141,744.2,727.483,746.346Z" transform="translate(21.144 18.956)" fill="#e5661d"/>
    <path id="Trazado_1120" data-name="Trazado 1120" d="M720.768,747.663l3.609,2.9q1.7-2.12,3.357-4.266l-3.66-2.833Q722.441,745.576,720.768,747.663Z" transform="translate(20.892 19.009)" fill="#e5661d"/>
    <path id="Trazado_1121" data-name="Trazado 1121" d="M714.075,748.809l3.559,2.958q1.712-2.062,3.384-4.151l-3.61-2.9Q715.76,746.777,714.075,748.809Z" transform="translate(20.642 19.057)" fill="#e5661d"/>
    <path id="Trazado_1122" data-name="Trazado 1122" d="M707.409,749.784l3.509,3.019q1.721-2,3.407-4.036l-3.56-2.958Q709.106,747.811,707.409,749.784Z" transform="translate(20.392 19.097)" fill="#e5661d"/>
    <path id="Trazado_1123" data-name="Trazado 1123" d="M710.32,773.151q-1.917,2.007-3.871,3.984l3.291,3.255q1.981-2.006,3.926-4.042Z" transform="translate(20.356 20.122)" fill="#e5661d"/>
    <path id="Trazado_1124" data-name="Trazado 1124" d="M710.693,766.228q-1.85,2.008-3.739,3.986l3.347,3.2q1.916-2.007,3.794-4.044Z" transform="translate(20.375 19.862)" fill="#e5661d"/>
    <path id="Trazado_1125" data-name="Trazado 1125" d="M710.889,759.362q-1.787,2.007-3.61,3.985l3.4,3.138q1.85-2.008,3.663-4.044Z" transform="translate(20.387 19.605)" fill="#e5661d"/>
    <path id="Trazado_1126" data-name="Trazado 1126" d="M710.911,752.558q-1.723,2-3.483,3.98l3.456,3.079q1.786-2.006,3.535-4.041Z" transform="translate(20.393 19.35)" fill="#e5661d"/>
    <path id="Trazado_1127" data-name="Trazado 1127" d="M709.766,780.128q-1.982,2-4,3.978L709,787.417q2.049-2,4.06-4.036Z" transform="translate(20.33 20.383)" fill="#e5661d"/>
    <path id="Trazado_1128" data-name="Trazado 1128" d="M698.769,784.629,701.944,788q2.059-1.942,4.08-3.915l-3.234-3.311Q700.8,782.715,698.769,784.629Z" transform="translate(20.068 20.407)" fill="#e5661d"/>
    <path id="Trazado_1129" data-name="Trazado 1129" d="M691.817,784.984l3.116,3.423q2.067-1.883,4.1-3.8l-3.176-3.367Q693.854,783.131,691.817,784.984Z" transform="translate(19.808 20.425)" fill="#e5661d"/>
    <path id="Trazado_1130" data-name="Trazado 1130" d="M684.909,785.172l3.055,3.477q2.075-1.822,4.111-3.676l-3.117-3.422Q686.953,783.378,684.909,785.172Z" transform="translate(19.549 20.437)" fill="#e5661d"/>
    <path id="Trazado_1131" data-name="Trazado 1131" d="M678.049,785.195l2.994,3.529q2.079-1.762,4.123-3.557l-3.055-3.475Q680.1,783.459,678.049,785.195Z" transform="translate(19.292 20.442)" fill="#e5661d"/>
    <path id="Trazado_1132" data-name="Trazado 1132" d="M671.241,785.054l2.932,3.58q2.084-1.7,4.131-3.439l-2.994-3.529Q673.293,783.378,671.241,785.054Z" transform="translate(19.037 20.441)" fill="#e5661d"/>
    <path id="Trazado_1133" data-name="Trazado 1133" d="M669.792,808.736q-2.288,1.674-4.609,3.311l2.67,3.779q2.356-1.662,4.677-3.36Q671.161,810.6,669.792,808.736Z" transform="translate(18.809 21.455)" fill="#e5661d"/>
    <path id="Trazado_1134" data-name="Trazado 1134" d="M671.458,801.925q-2.218,1.685-4.471,3.336,1.369,1.864,2.738,3.731,2.286-1.675,4.537-3.384Z" transform="translate(18.877 21.2)" fill="#e5661d"/>
    <path id="Trazado_1135" data-name="Trazado 1135" d="M672.931,795.141q-2.149,1.695-4.336,3.356,1.4,1.841,2.8,3.682,2.219-1.686,4.4-3.406Q674.366,796.956,672.931,795.141Z" transform="translate(18.937 20.946)" fill="#e5661d"/>
    <path id="Trazado_1136" data-name="Trazado 1136" d="M674.212,788.389q-2.084,1.7-4.2,3.373l2.868,3.632q2.151-1.695,4.266-3.424Z" transform="translate(18.99 20.693)" fill="#e5661d"/>
    <path id="Trazado_1137" data-name="Trazado 1137" d="M670.6,819.35l-2.672-3.778q-2.356,1.661-4.747,3.285l2.6,3.826Q668.21,821.036,670.6,819.35Z" transform="translate(18.735 21.711)" fill="#e5661d"/>
    <path id="Trazado_1138" data-name="Trazado 1138" d="M656.091,818.213l2.535,3.872q2.428-1.586,4.821-3.21-1.3-1.913-2.6-3.825Q658.485,816.65,656.091,818.213Z" transform="translate(18.469 21.692)" fill="#e5661d"/>
    <path id="Trazado_1139" data-name="Trazado 1139" d="M649.067,817.409l2.464,3.916q2.429-1.524,4.823-3.087-1.268-1.936-2.534-3.872Q651.461,815.908,649.067,817.409Z" transform="translate(18.206 21.666)" fill="#e5661d"/>
    <path id="Trazado_1140" data-name="Trazado 1140" d="M642.111,816.448q1.2,1.98,2.394,3.959,2.429-1.463,4.822-2.966l-2.465-3.915Q644.505,815.005,642.111,816.448Z" transform="translate(17.945 21.635)" fill="#e5661d"/>
    <path id="Trazado_1141" data-name="Trazado 1141" d="M635.229,815.329l2.322,4q2.426-1.4,4.818-2.846l-2.393-3.96Q637.62,813.946,635.229,815.329Z" transform="translate(17.687 21.597)" fill="#e5661d"/>
    <path id="Trazado_1142" data-name="Trazado 1142" d="M628.421,814.057l2.249,4.043q2.423-1.345,4.814-2.728l-2.323-4Q630.808,812.732,628.421,814.057Z" transform="translate(17.432 21.554)" fill="#e5661d"/>
    <path id="Trazado_1143" data-name="Trazado 1143" d="M625.347,830.842q-2.563,1.3-5.161,2.568,1.012,2.081,2.024,4.16,2.636-1.283,5.237-2.605Z" transform="translate(17.124 22.284)" fill="#e5661d"/>
    <path id="Trazado_1144" data-name="Trazado 1144" d="M628.156,824.352q-2.493,1.326-5.019,2.612,1.049,2.06,2.1,4.122,2.565-1.3,5.1-2.65Z" transform="translate(17.234 22.04)" fill="#e5661d"/>
    <path id="Trazado_1145" data-name="Trazado 1145" d="M630.757,817.861q-2.423,1.346-4.879,2.651l2.176,4.083q2.493-1.326,4.953-2.69Q631.881,819.884,630.757,817.861Z" transform="translate(17.337 21.797)" fill="#e5661d"/>
    <path id="Trazado_1146" data-name="Trazado 1146" d="M523.506,243.4l.547-5.72a335.91,335.91,0,0,0-173.182,29.8l2.419,5.212A330.152,330.152,0,0,1,523.506,243.4Z" transform="translate(7.032 0)" fill="#e5661d"/>
    <path id="Trazado_1147" data-name="Trazado 1147" d="M524.367,273.016a299.643,299.643,0,0,0-274.04,127.206l4.722,3.274A293.905,293.905,0,0,1,523.82,278.735Z" transform="translate(3.264 1.33)" fill="#e5661d"/>
    <path id="Trazado_1148" data-name="Trazado 1148" d="M353.893,272.7l1.948,4.2.007,0q-2.7,1.256-5.373,2.554,1.013,2.079,2.025,4.16,2.635-1.282,5.3-2.521l-1.948-4.2q2.7-1.253,5.41-2.453l-1.87-4.232Q356.639,271.428,353.893,272.7Z" transform="translate(7.017 1.275)" fill="#e5661d"/>
    <path id="Trazado_1149" data-name="Trazado 1149" d="M360.877,274.372l1.87,4.232q2.68-1.186,5.37-2.319l-1.793-4.265Q363.6,273.169,360.877,274.372Z" transform="translate(7.406 1.343)" fill="#e5661d"/>
    <path id="Trazado_1150" data-name="Trazado 1150" d="M374.961,278.3l-1.715-4.3q-2.7,1.08-5.39,2.213.9,2.134,1.793,4.266Q372.3,279.36,374.961,278.3Z" transform="translate(7.668 1.417)" fill="#e5661d"/>
    <path id="Trazado_1151" data-name="Trazado 1151" d="M381.672,280.466l-1.637-4.328q-2.67,1.013-5.33,2.077l1.715,4.3Q379.041,281.464,381.672,280.466Z" transform="translate(7.925 1.497)" fill="#e5661d"/>
    <path id="Trazado_1152" data-name="Trazado 1152" d="M388.247,282.792q-.78-2.179-1.558-4.357-2.639.948-5.268,1.945.817,2.165,1.636,4.328Q385.647,283.725,388.247,282.792Z" transform="translate(8.176 1.584)" fill="#e5661d"/>
    <path id="Trazado_1153" data-name="Trazado 1153" d="M394.684,285.268l-1.478-4.383q-2.607.882-5.206,1.816l1.558,4.357Q392.118,286.138,394.684,285.268Z" transform="translate(8.423 1.675)" fill="#e5661d"/>
    <path id="Trazado_1154" data-name="Trazado 1154" d="M404.612,263.529q2.744-.769,5.495-1.485-.58-2.241-1.162-4.48-2.79.727-5.574,1.506Z" transform="translate(8.999 0.801)" fill="#e5661d"/>
    <path id="Trazado_1155" data-name="Trazado 1155" d="M400.6,269.337q2.7-.808,5.4-1.564l-1.242-4.458q-2.745.769-5.483,1.587Q399.942,267.119,400.6,269.337Z" transform="translate(8.845 1.017)" fill="#e5661d"/>
    <path id="Trazado_1156" data-name="Trazado 1156" d="M396.759,275.2q2.653-.845,5.313-1.641-.661-2.218-1.322-4.435-2.7.808-5.392,1.666Z" transform="translate(8.699 1.234)" fill="#e5661d"/>
    <path id="Trazado_1157" data-name="Trazado 1157" d="M393.079,281.1q2.607-.882,5.221-1.716l-1.4-4.41q-2.653.846-5.3,1.742Z" transform="translate(8.558 1.454)" fill="#e5661d"/>
    <path id="Trazado_1158" data-name="Trazado 1158" d="M407.623,253.3q.581,2.239,1.162,4.479,2.79-.727,5.585-1.4l-1.083-4.5Q410.453,252.562,407.623,253.3Z" transform="translate(9.158 0.588)" fill="#e5661d"/>
    <path id="Trazado_1159" data-name="Trazado 1159" d="M414.126,256.26q.541,2.25,1.082,4.5,2.756-.666,5.514-1.281-.5-2.26-1-4.518Q416.921,255.584,414.126,256.26Z" transform="translate(9.402 0.704)" fill="#e5661d"/>
    <path id="Trazado_1160" data-name="Trazado 1160" d="M420.484,259.358l1,4.518q2.72-.607,5.441-1.163-.461-2.267-.922-4.535Q423.243,258.743,420.484,259.358Z" transform="translate(9.64 0.824)" fill="#e5661d"/>
    <path id="Trazado_1161" data-name="Trazado 1161" d="M432.987,266.074l-.843-4.55q-2.725.506-5.449,1.063.462,2.267.923,4.535Q430.3,266.574,432.987,266.074Z" transform="translate(9.873 0.95)" fill="#e5661d"/>
    <path id="Trazado_1162" data-name="Trazado 1162" d="M438.9,269.559l-.763-4.565q-2.687.451-5.373.95.422,2.275.842,4.55Q436.248,270,438.9,269.559Z" transform="translate(10.1 1.08)" fill="#e5661d"/>
    <path id="Trazado_1163" data-name="Trazado 1163" d="M444.654,273.161q-.341-2.289-.683-4.577-2.649.4-5.3.84.381,2.281.764,4.565Q442.044,273.552,444.654,273.161Z" transform="translate(10.322 1.214)" fill="#e5661d"/>
    <path id="Trazado_1164" data-name="Trazado 1164" d="M457.858,253.564q2.772-.265,5.542-.482-.18-2.306-.362-4.614-2.811.219-5.623.49Q457.636,251.261,457.858,253.564Z" transform="translate(11.024 0.461)" fill="#e5661d"/>
    <path id="Trazado_1165" data-name="Trazado 1165" d="M453.021,258.56q2.731-.311,5.463-.573-.221-2.3-.442-4.607-2.772.268-5.543.582Q452.761,256.261,453.021,258.56Z" transform="translate(10.84 0.645)" fill="#e5661d"/>
    <path id="Trazado_1166" data-name="Trazado 1166" d="M448.34,263.632q2.689-.355,5.382-.661-.263-2.3-.523-4.6-2.731.31-5.462.669Q448.037,261.338,448.34,263.632Z" transform="translate(10.661 0.832)" fill="#e5661d"/>
    <path id="Trazado_1167" data-name="Trazado 1167" d="M443.814,268.776q2.65-.4,5.3-.746-.3-2.294-.6-4.588-2.691.353-5.38.756Q443.473,266.486,443.814,268.776Z" transform="translate(10.489 1.022)" fill="#e5661d"/>
    <path id="Trazado_1168" data-name="Trazado 1168" d="M462.487,244.034l.361,4.615q2.812-.219,5.621-.391-.14-2.309-.281-4.619Q465.339,243.812,462.487,244.034Z" transform="translate(11.214 0.28)" fill="#e5661d"/>
    <path id="Trazado_1169" data-name="Trazado 1169" d="M468.253,248.1q.142,2.311.282,4.62,2.77-.168,5.537-.287-.1-2.313-.2-4.624Q471.064,247.931,468.253,248.1Z" transform="translate(11.43 0.436)" fill="#e5661d"/>
    <path id="Trazado_1170" data-name="Trazado 1170" d="M473.862,252.274l.2,4.623q2.727-.117,5.453-.188-.061-2.313-.121-4.626Q476.63,252.155,473.862,252.274Z" transform="translate(11.64 0.596)" fill="#e5661d"/>
    <path id="Trazado_1171" data-name="Trazado 1171" d="M479.313,256.545q.061,2.314.121,4.627,2.686-.07,5.368-.092-.02-2.314-.04-4.627Q482.038,256.475,479.313,256.545Z" transform="translate(11.845 0.76)" fill="#e5661d"/>
    <path id="Trazado_1172" data-name="Trazado 1172" d="M489.927,265.544q.02-2.314.039-4.628-2.68-.023-5.363,0,.022,2.314.042,4.628Q487.288,265.52,489.927,265.544Z" transform="translate(12.043 0.927)" fill="#e5661d"/>
    <path id="Trazado_1173" data-name="Trazado 1173" d="M494.893,270.1q.059-2.312.119-4.626-2.636-.07-5.276-.093-.019,2.314-.038,4.627Q492.3,270.028,494.893,270.1Z" transform="translate(12.234 1.094)" fill="#e5661d"/>
    <path id="Trazado_1174" data-name="Trazado 1174" d="M511.058,253.086q2.739.215,5.471.475.218-2.3.436-4.606-2.772-.265-5.55-.482Q511.236,250.778,511.058,253.086Z" transform="translate(13.034 0.461)" fill="#e5661d"/>
    <path id="Trazado_1175" data-name="Trazado 1175" d="M505.505,257.171q2.7.163,5.4.376.179-2.306.357-4.614-2.739-.215-5.483-.382Q505.645,254.86,505.505,257.171Z" transform="translate(12.826 0.614)" fill="#e5661d"/>
    <path id="Trazado_1176" data-name="Trazado 1176" d="M500.095,261.354q2.671.117,5.335.279.14-2.309.278-4.619-2.7-.165-5.415-.284Q500.194,259.043,500.095,261.354Z" transform="translate(12.623 0.77)" fill="#e5661d"/>
    <path id="Trazado_1177" data-name="Trazado 1177" d="M494.828,265.633q2.636.07,5.266.184.1-2.311.2-4.623-2.67-.117-5.346-.187Q494.887,263.32,494.828,265.633Z" transform="translate(12.426 0.93)" fill="#e5661d"/>
    <path id="Trazado_1178" data-name="Trazado 1178" d="M674.7,300.944l3.273-4.723A338.127,338.127,0,0,0,517.851,237.63l-.547,5.72A332.374,332.374,0,0,1,674.7,300.944Z" transform="translate(13.268 0.054)" fill="#e5661d"/>
    <path id="Trazado_1179" data-name="Trazado 1179" d="M653.826,329.872l3.273-4.72A301.09,301.09,0,0,0,514.5,272.969l-.547,5.72A295.359,295.359,0,0,1,653.826,329.872Z" transform="translate(13.143 1.379)" fill="#e5661d"/>
    <path id="Trazado_1180" data-name="Trazado 1180" d="M517.187,244.5q-.217,2.3-.436,4.607,2.772.265,5.536.577.259-2.3.516-4.6Q520,244.765,517.187,244.5Z" transform="translate(13.247 0.312)" fill="#e5661d"/>
    <path id="Trazado_1181" data-name="Trazado 1181" d="M522.106,249.493q-.257,2.3-.515,4.6,2.723.308,5.441.662.3-2.294.593-4.589Q524.87,249.806,522.106,249.493Z" transform="translate(13.429 0.499)" fill="#e5661d"/>
    <path id="Trazado_1182" data-name="Trazado 1182" d="M526.858,254.564l-.595,4.59q2.678.349,5.347.743.338-2.289.672-4.578Q529.575,254.918,526.858,254.564Z" transform="translate(13.604 0.689)" fill="#e5661d"/>
    <path id="Trazado_1183" data-name="Trazado 1183" d="M531.441,259.7l-.672,4.578q2.632.389,5.252.822.375-2.283.751-4.566Q534.112,260.1,531.441,259.7Z" transform="translate(13.773 0.882)" fill="#e5661d"/>
    <path id="Trazado_1184" data-name="Trazado 1184" d="M535.858,264.909l-.75,4.567q2.582.426,5.155.9.415-2.277.829-4.552Q538.479,265.343,535.858,264.909Z" transform="translate(13.935 1.077)" fill="#e5661d"/>
    <path id="Trazado_1185" data-name="Trazado 1185" d="M544.338,275.7l.906-4.538q-2.563-.514-5.136-.985-.414,2.275-.828,4.552Q541.813,275.191,544.338,275.7Z" transform="translate(14.092 1.274)" fill="#e5661d"/>
    <path id="Trazado_1186" data-name="Trazado 1186" d="M563.06,261.669q2.646.672,5.279,1.39.607-2.233,1.214-4.465-2.672-.728-5.355-1.41Q563.629,259.427,563.06,261.669Z" transform="translate(14.983 0.787)" fill="#e5661d"/>
    <path id="Trazado_1187" data-name="Trazado 1187" d="M556.926,264.757q2.619.62,5.226,1.282.57-2.243,1.138-4.485-2.646-.674-5.3-1.3Q557.456,262.5,556.926,264.757Z" transform="translate(14.753 0.902)" fill="#e5661d"/>
    <path id="Trazado_1188" data-name="Trazado 1188" d="M550.917,267.965q2.593.566,5.173,1.175l1.061-4.5q-2.621-.619-5.25-1.193Q551.408,265.705,550.917,267.965Z" transform="translate(14.528 1.022)" fill="#e5661d"/>
    <path id="Trazado_1189" data-name="Trazado 1189" d="M545.037,271.291q2.564.514,5.117,1.072.491-2.261.983-4.521-2.591-.566-5.194-1.088Q545.491,269.022,545.037,271.291Z" transform="translate(14.307 1.146)" fill="#e5661d"/>
    <path id="Trazado_1190" data-name="Trazado 1190" d="M570.532,254.24l-1.214,4.464q2.671.728,5.33,1.5.644-2.221,1.29-4.444Q573.242,254.978,570.532,254.24Z" transform="translate(15.217 0.677)" fill="#e5661d"/>
    <path id="Trazado_1191" data-name="Trazado 1191" d="M574.5,259.989q-.646,2.222-1.291,4.443,2.621.763,5.226,1.568.683-2.21,1.365-4.421Q577.16,260.762,574.5,259.989Z" transform="translate(15.363 0.892)" fill="#e5661d"/>
    <path id="Trazado_1192" data-name="Trazado 1192" d="M578.3,265.783q-.683,2.211-1.365,4.421,2.568.8,5.122,1.633l1.441-4.4Q580.9,266.589,578.3,265.783Z" transform="translate(15.503 1.109)" fill="#e5661d"/>
    <path id="Trazado_1193" data-name="Trazado 1193" d="M581.921,271.618q-.719,2.2-1.44,4.4,2.515.826,5.018,1.693l1.516-4.371Q584.475,272.455,581.921,271.618Z" transform="translate(15.636 1.328)" fill="#e5661d"/>
    <path id="Trazado_1194" data-name="Trazado 1194" d="M585.373,277.487l-1.516,4.372q2.465.854,4.914,1.751l1.591-4.345Q587.875,278.355,585.373,277.487Z" transform="translate(15.762 1.548)" fill="#e5661d"/>
    <path id="Trazado_1195" data-name="Trazado 1195" d="M587.062,287.734q2.412.884,4.811,1.807.831-2.158,1.663-4.318-2.434-.937-4.884-1.834Z" transform="translate(15.882 1.769)" fill="#e5661d"/>
    <path id="Trazado_1196" data-name="Trazado 1196" d="M619.613,276.94q-2.51-1.169-5.039-2.294l-1.883,4.227q2.493,1.11,4.967,2.262Z" transform="translate(16.843 1.442)" fill="#e5661d"/>
    <path id="Trazado_1197" data-name="Trazado 1197" d="M612.937,278.8q-2.491-1.11-5-2.176-.906,2.129-1.81,4.258,2.474,1.052,4.931,2.145Q612,280.912,612.937,278.8Z" transform="translate(16.597 1.516)" fill="#e5661d"/>
    <path id="Trazado_1198" data-name="Trazado 1198" d="M606.366,280.8q-2.474-1.05-4.966-2.059l-1.737,4.288q2.454.994,4.893,2.03Q605.46,282.931,606.366,280.8Z" transform="translate(16.354 1.595)" fill="#e5661d"/>
    <path id="Trazado_1199" data-name="Trazado 1199" d="M593.31,285.316q2.436.938,4.853,1.917.869-2.143,1.738-4.288-2.456-.994-4.927-1.946Q594.143,283.158,593.31,285.316Z" transform="translate(16.116 1.68)" fill="#e5661d"/>
    <path id="Trazado_1200" data-name="Trazado 1200" d="M626.39,275.228q-2.527-1.228-5.072-2.413l-1.955,4.194q2.51,1.169,5,2.38Z" transform="translate(17.093 1.373)" fill="#e5661d"/>
    <path id="Trazado_1201" data-name="Trazado 1201" d="M627.121,285.74q1.047-2.062,2.1-4.125-2.471-1.253-4.961-2.464l-2.026,4.159Q624.686,284.5,627.121,285.74Z" transform="translate(17.2 1.61)" fill="#e5661d"/>
    <path id="Trazado_1202" data-name="Trazado 1202" d="M629.7,292.1l2.166-4.088q-2.414-1.278-4.849-2.514l-2.1,4.125Q627.323,290.844,629.7,292.1Z" transform="translate(17.301 1.848)" fill="#e5661d"/>
    <path id="Trazado_1203" data-name="Trazado 1203" d="M632.111,298.475l2.237-4.05q-2.359-1.3-4.739-2.56-1.083,2.045-2.167,4.089Q629.786,297.194,632.111,298.475Z" transform="translate(17.395 2.087)" fill="#e5661d"/>
    <path id="Trazado_1204" data-name="Trazado 1204" d="M634.346,304.85q1.152-2.006,2.305-4.012-2.3-1.321-4.628-2.6l-2.237,4.051Q632.077,303.549,634.346,304.85Z" transform="translate(17.483 2.326)" fill="#e5661d"/>
    <path id="Trazado_1205" data-name="Trazado 1205" d="M636.408,311.226q1.186-1.987,2.374-3.972-2.249-1.34-4.517-2.642l-2.306,4.013Q634.193,309.9,636.408,311.226Z" transform="translate(17.565 2.564)" fill="#e5661d"/>
    <path id="Trazado_1206" data-name="Trazado 1206" d="M665.972,303.563q-2.288-1.586-4.6-3.132l-2.575,3.845q2.28,1.523,4.535,3.087Z" transform="translate(18.57 2.408)" fill="#e5661d"/>
    <path id="Trazado_1207" data-name="Trazado 1207" d="M659.053,304.246q-2.28-1.524-4.584-3.007l-2.508,3.888q2.27,1.461,4.517,2.963Z" transform="translate(18.314 2.438)" fill="#e5661d"/>
    <path id="Trazado_1208" data-name="Trazado 1208" d="M652.214,305.091q-2.271-1.463-4.564-2.883l-2.442,3.931q2.261,1.4,4.5,2.841Z" transform="translate(18.061 2.474)" fill="#e5661d"/>
    <path id="Trazado_1209" data-name="Trazado 1209" d="M638.542,307.307q2.247,1.34,4.475,2.72l2.441-3.93q-2.26-1.4-4.541-2.763Z" transform="translate(17.811 2.517)" fill="#e5661d"/>
    <path id="Trazado_1210" data-name="Trazado 1210" d="M780.15,431.081A330.159,330.159,0,0,1,809.444,601.3l5.721.547A336.472,336.472,0,0,0,672.316,294.125l-3.274,4.72A330.176,330.176,0,0,1,780.15,431.081Z" transform="translate(18.954 2.172)" fill="#e5661d"/>
    <path id="Trazado_1211" data-name="Trazado 1211" d="M752.73,443.09l0-.008,0-.009h0a299.112,299.112,0,0,0-100.661-119.8L648.786,328A293.863,293.863,0,0,1,773.538,596.751l5.72.547A299.114,299.114,0,0,0,752.73,443.09Z" transform="translate(18.195 3.264)" fill="#e5661d"/>
    <path id="Trazado_1212" data-name="Trazado 1212" d="M672.969,303.047q-2.294-1.651-4.615-3.26l-2.641,3.8q2.289,1.587,4.55,3.214Z" transform="translate(18.829 2.384)" fill="#e5661d"/>
    <path id="Trazado_1213" data-name="Trazado 1213" d="M671.926,313.55q1.385-1.853,2.769-3.708-2.236-1.667-4.5-3.294l-2.7,3.754Q669.722,311.906,671.926,313.55Z" transform="translate(18.896 2.637)" fill="#e5661d"/>
    <path id="Trazado_1214" data-name="Trazado 1214" d="M673.415,320.283l2.833-3.659q-2.179-1.684-4.382-3.327L669.1,317Q671.269,318.624,673.415,320.283Z" transform="translate(18.956 2.89)" fill="#e5661d"/>
    <path id="Trazado_1215" data-name="Trazado 1215" d="M674.732,327l2.9-3.61q-2.119-1.7-4.266-3.356l-2.833,3.659Q672.644,325.324,674.732,327Z" transform="translate(19.01 3.142)" fill="#e5661d"/>
    <path id="Trazado_1216" data-name="Trazado 1216" d="M675.878,333.689l2.958-3.56q-2.062-1.71-4.151-3.383l-2.9,3.609Q673.846,332,675.878,333.689Z" transform="translate(19.057 3.394)" fill="#e5661d"/>
    <path id="Trazado_1217" data-name="Trazado 1217" d="M676.854,340.354l3.019-3.508q-2-1.723-4.036-3.408L672.88,337Q674.88,338.657,676.854,340.354Z" transform="translate(19.098 3.645)" fill="#e5661d"/>
    <path id="Trazado_1218" data-name="Trazado 1218" d="M707.459,338.035q-2.006-1.983-4.042-3.927l-3.2,3.347q2.008,1.916,3.984,3.87Z" transform="translate(20.123 3.67)" fill="#e5661d"/>
    <path id="Trazado_1219" data-name="Trazado 1219" d="M700.479,337.471q-2.007-1.917-4.044-3.794l-3.138,3.4q2.007,1.85,3.986,3.739Z" transform="translate(19.863 3.654)" fill="#e5661d"/>
    <path id="Trazado_1220" data-name="Trazado 1220" d="M693.554,337.087q-2.008-1.85-4.044-3.663l-3.079,3.455q2.007,1.787,3.985,3.61Z" transform="translate(19.606 3.644)" fill="#e5661d"/>
    <path id="Trazado_1221" data-name="Trazado 1221" d="M679.627,336.856q2,1.721,3.981,3.482l3.078-3.456q-2.006-1.785-4.041-3.535Z" transform="translate(19.351 3.641)" fill="#e5661d"/>
    <path id="Trazado_1222" data-name="Trazado 1222" d="M714.486,338.782q-2-2.05-4.035-4.061l-3.255,3.291q2,1.981,3.978,4Z" transform="translate(20.384 3.693)" fill="#e5661d"/>
    <path id="Trazado_1223" data-name="Trazado 1223" d="M711.7,349.007l3.368-3.176q-1.942-2.059-3.915-4.08l-3.311,3.234Q709.785,346.977,711.7,349.007Z" transform="translate(20.408 3.956)" fill="#e5661d"/>
    <path id="Trazado_1224" data-name="Trazado 1224" d="M712.053,355.957l3.423-3.116q-1.882-2.067-3.795-4.1l-3.367,3.175Q710.2,353.919,712.053,355.957Z" transform="translate(20.426 4.218)" fill="#e5661d"/>
    <path id="Trazado_1225" data-name="Trazado 1225" d="M712.242,362.863q1.738-1.527,3.476-3.055-1.821-2.074-3.676-4.111l-3.422,3.117Q710.447,360.82,712.242,362.863Z" transform="translate(20.437 4.479)" fill="#e5661d"/>
    <path id="Trazado_1226" data-name="Trazado 1226" d="M712.263,369.721l3.53-2.994q-1.762-2.079-3.556-4.123l-3.477,3.055Q710.528,367.673,712.263,369.721Z" transform="translate(20.443 4.738)" fill="#e5661d"/>
    <path id="Trazado_1227" data-name="Trazado 1227" d="M712.123,376.527l3.58-2.932q-1.7-2.084-3.439-4.131l-3.528,2.994Q710.446,374.475,712.123,376.527Z" transform="translate(20.442 4.995)" fill="#e5661d"/>
    <path id="Trazado_1228" data-name="Trazado 1228" d="M742.9,379.925q-1.662-2.356-3.36-4.676l-3.731,2.737q1.674,2.288,3.312,4.61Z" transform="translate(21.456 5.211)" fill="#e5661d"/>
    <path id="Trazado_1229" data-name="Trazado 1229" d="M736.06,378.051q-1.675-2.286-3.384-4.537l-3.682,2.8q1.685,2.217,3.335,4.471Z" transform="translate(21.201 5.146)" fill="#e5661d"/>
    <path id="Trazado_1230" data-name="Trazado 1230" d="M729.248,376.375q-1.685-2.219-3.406-4.4l-3.632,2.869q1.695,2.149,3.356,4.336Z" transform="translate(20.947 5.089)" fill="#e5661d"/>
    <path id="Trazado_1231" data-name="Trazado 1231" d="M715.458,373.559q1.7,2.084,3.373,4.2l3.632-2.867q-1.695-2.151-3.424-4.265Z" transform="translate(20.694 5.038)" fill="#e5661d"/>
    <path id="Trazado_1232" data-name="Trazado 1232" d="M749.751,382q-1.646-2.428-3.332-4.817l-3.778,2.672q1.66,2.356,3.285,4.748Q747.837,383.3,749.751,382Z" transform="translate(21.712 5.284)" fill="#e5661d"/>
    <path id="Trazado_1233" data-name="Trazado 1233" d="M745.282,391.688l3.872-2.535q-1.586-2.428-3.21-4.82l-3.826,2.6Q743.719,389.3,745.282,391.688Z" transform="translate(21.692 5.552)" fill="#e5661d"/>
    <path id="Trazado_1234" data-name="Trazado 1234" d="M744.479,398.709l3.916-2.464q-1.523-2.429-3.086-4.823l-3.872,2.535Q742.977,396.316,744.479,398.709Z" transform="translate(21.667 5.817)" fill="#e5661d"/>
    <path id="Trazado_1235" data-name="Trazado 1235" d="M743.517,405.663q1.979-1.2,3.96-2.395-1.464-2.428-2.966-4.822l-3.917,2.465Q742.074,403.27,743.517,405.663Z" transform="translate(21.635 6.081)" fill="#e5661d"/>
    <path id="Trazado_1236" data-name="Trazado 1236" d="M742.4,412.543l4-2.323q-1.405-2.426-2.847-4.818l-3.96,2.393Q741.015,410.153,742.4,412.543Z" transform="translate(21.598 6.341)" fill="#e5661d"/>
    <path id="Trazado_1237" data-name="Trazado 1237" d="M741.126,419.347l4.043-2.249q-1.345-2.423-2.727-4.813l-4,2.322Q739.8,416.96,741.126,419.347Z" transform="translate(21.555 6.599)" fill="#e5661d"/>
    <path id="Trazado_1238" data-name="Trazado 1238" d="M771.113,428.805q1.25,2.689,2.444,5.392l4.232-1.871q-1.22-2.757-2.494-5.5l-4.2,1.948.008.017q-1.253-2.7-2.549-5.365l-4.16,2.025q1.281,2.636,2.52,5.3Z" transform="translate(22.527 7.017)" fill="#e5661d"/>
    <path id="Trazado_1239" data-name="Trazado 1239" d="M764.639,425.564q-1.282-2.635-2.6-5.237l-4.123,2.1q1.3,2.563,2.568,5.161Z" transform="translate(22.284 6.901)" fill="#e5661d"/>
    <path id="Trazado_1240" data-name="Trazado 1240" d="M758.154,422.536q-1.3-2.563-2.65-5.094l-4.083,2.175q1.326,2.494,2.611,5.02Z" transform="translate(22.041 6.793)" fill="#e5661d"/>
    <path id="Trazado_1241" data-name="Trazado 1241" d="M744.931,417.013q1.345,2.423,2.65,4.879,2.042-1.088,4.083-2.176-1.324-2.493-2.69-4.953Z" transform="translate(21.798 6.692)" fill="#e5661d"/>
    <path id="Trazado_1242" data-name="Trazado 1242" d="M203.337,679.665l-4.266,1.793q1.15,2.73,2.353,5.448l4.232-1.87Q204.47,682.355,203.337,679.665Z" transform="translate(1.343 16.619)" fill="#e5661d"/>
    <path id="Trazado_1243" data-name="Trazado 1243" d="M205.347,672.817l-4.3,1.715q1.08,2.7,2.213,5.39l4.265-1.793Q206.412,675.477,205.347,672.817Z" transform="translate(1.417 16.362)" fill="#e5661d"/>
    <path id="Trazado_1244" data-name="Trazado 1244" d="M207.518,666.1l-4.328,1.636q1.013,2.67,2.077,5.331l4.3-1.715Q208.515,668.732,207.518,666.1Z" transform="translate(1.497 16.11)" fill="#e5661d"/>
    <path id="Trazado_1245" data-name="Trazado 1245" d="M209.844,659.522l-4.357,1.558q.948,2.638,1.945,5.268l4.327-1.637Q210.778,662.121,209.844,659.522Z" transform="translate(1.584 15.864)" fill="#e5661d"/>
    <path id="Trazado_1246" data-name="Trazado 1246" d="M212.32,653.078l-4.384,1.479q.884,2.607,1.817,5.206l4.356-1.558Q213.191,655.645,212.32,653.078Z" transform="translate(1.675 15.622)" fill="#e5661d"/>
    <path id="Trazado_1247" data-name="Trazado 1247" d="M190.581,643.153q-.769-2.744-1.486-5.494l-4.479,1.162q.727,2.79,1.506,5.574Z" transform="translate(0.802 15.045)" fill="#e5661d"/>
    <path id="Trazado_1248" data-name="Trazado 1248" d="M196.389,647.161q-.808-2.7-1.565-5.4-2.23.622-4.458,1.242.767,2.745,1.587,5.483Z" transform="translate(1.017 15.198)" fill="#e5661d"/>
    <path id="Trazado_1249" data-name="Trazado 1249" d="M202.247,651q-.847-2.652-1.642-5.312l-4.434,1.321q.808,2.7,1.666,5.392Z" transform="translate(1.234 15.346)" fill="#e5661d"/>
    <path id="Trazado_1250" data-name="Trazado 1250" d="M208.154,654.684q-.882-2.607-1.716-5.219l-4.41,1.4q.847,2.653,1.742,5.3Z" transform="translate(1.454 15.487)" fill="#e5661d"/>
    <path id="Trazado_1251" data-name="Trazado 1251" d="M180.35,640.142l4.48-1.162q-.728-2.789-1.4-5.584l-4.5,1.082Q179.613,637.314,180.35,640.142Z" transform="translate(0.588 14.885)" fill="#e5661d"/>
    <path id="Trazado_1252" data-name="Trazado 1252" d="M186.53,627.038l-4.518,1q.624,2.8,1.3,5.594l4.5-1.083Q187.146,629.8,186.53,627.038Z" transform="translate(0.704 14.647)" fill="#e5661d"/>
    <path id="Trazado_1253" data-name="Trazado 1253" d="M189.764,620.826l-4.535.922q.565,2.763,1.181,5.523l4.517-1Q190.32,623.549,189.764,620.826Z" transform="translate(0.824 14.414)" fill="#e5661d"/>
    <path id="Trazado_1254" data-name="Trazado 1254" d="M193.126,614.762l-4.551.842q.507,2.727,1.063,5.449l4.536-.923Q193.625,617.447,193.126,614.762Z" transform="translate(0.95 14.187)" fill="#e5661d"/>
    <path id="Trazado_1255" data-name="Trazado 1255" d="M196.611,608.847l-4.565.763q.45,2.689.95,5.374l4.55-.844Q197.053,611.495,196.611,608.847Z" transform="translate(1.08 13.965)" fill="#e5661d"/>
    <path id="Trazado_1256" data-name="Trazado 1256" d="M200.213,603.083l-4.577.683q.4,2.65.84,5.3l4.564-.762Q200.6,605.692,200.213,603.083Z" transform="translate(1.214 13.749)" fill="#e5661d"/>
    <path id="Trazado_1257" data-name="Trazado 1257" d="M180.616,589.88q-.266-2.772-.482-5.543l-4.615.362q.221,2.81.491,5.623Z" transform="translate(0.461 13.046)" fill="#e5661d"/>
    <path id="Trazado_1258" data-name="Trazado 1258" d="M185.612,594.716q-.311-2.731-.573-5.462l-4.607.442q.266,2.77.581,5.543Z" transform="translate(0.645 13.231)" fill="#e5661d"/>
    <path id="Trazado_1259" data-name="Trazado 1259" d="M190.683,599.4q-.353-2.691-.66-5.383l-4.6.522q.31,2.731.669,5.463Z" transform="translate(0.832 13.409)" fill="#e5661d"/>
    <path id="Trazado_1260" data-name="Trazado 1260" d="M195.827,603.924q-.4-2.65-.745-5.3l-4.589.6q.355,2.691.756,5.38Z" transform="translate(1.022 13.582)" fill="#e5661d"/>
    <path id="Trazado_1261" data-name="Trazado 1261" d="M171.086,585.251l4.614-.362q-.219-2.811-.39-5.621l-4.62.282Q170.864,582.4,171.086,585.251Z" transform="translate(0.28 12.856)" fill="#e5661d"/>
    <path id="Trazado_1262" data-name="Trazado 1262" d="M179.485,573.659l-4.623.2q.121,2.807.292,5.618l4.62-.281Q179.605,576.427,179.485,573.659Z" transform="translate(0.436 12.646)" fill="#e5661d"/>
    <path id="Trazado_1263" data-name="Trazado 1263" d="M183.761,568.208l-4.626.121q.07,2.767.19,5.534l4.624-.2Q183.831,570.934,183.761,568.208Z" transform="translate(0.596 12.442)" fill="#e5661d"/>
    <path id="Trazado_1264" data-name="Trazado 1264" d="M188.132,562.917l-4.628.042q.023,2.722.093,5.448l4.626-.122Q188.155,565.6,188.132,562.917Z" transform="translate(0.76 12.244)" fill="#e5661d"/>
    <path id="Trazado_1265" data-name="Trazado 1265" d="M192.6,557.787l-4.628-.038q-.025,2.678,0,5.362l4.628-.042Q192.57,560.427,192.6,557.787Z" transform="translate(0.927 12.05)" fill="#e5661d"/>
    <path id="Trazado_1266" data-name="Trazado 1266" d="M197.146,552.82l-4.626-.118q-.068,2.635-.092,5.275l4.627.038Q197.079,555.416,197.146,552.82Z" transform="translate(1.094 11.861)" fill="#e5661d"/>
    <path id="Trazado_1267" data-name="Trazado 1267" d="M180.138,536.677q.213-2.738.475-5.47l-4.607-.437q-.265,2.771-.482,5.549Z" transform="translate(0.461 11.039)" fill="#e5661d"/>
    <path id="Trazado_1268" data-name="Trazado 1268" d="M184.222,542.224q.165-2.7.377-5.4l-4.614-.357q-.215,2.739-.382,5.484Z" transform="translate(0.614 11.253)" fill="#e5661d"/>
    <path id="Trazado_1269" data-name="Trazado 1269" d="M188.406,547.629q.117-2.669.279-5.335l-4.62-.278q-.165,2.7-.283,5.416Z" transform="translate(0.77 11.461)" fill="#e5661d"/>
    <path id="Trazado_1270" data-name="Trazado 1270" d="M192.685,552.891q.068-2.635.184-5.265l-4.623-.2q-.117,2.672-.188,5.346Z" transform="translate(0.93 11.663)" fill="#e5661d"/>
    <path id="Trazado_1271" data-name="Trazado 1271" d="M228,378.624l-4.723-3.273a338.139,338.139,0,0,0-58.592,160.122l5.72.547A332.379,332.379,0,0,1,228,378.624Z" transform="translate(0.054 5.215)" fill="#e5661d"/>
    <path id="Trazado_1272" data-name="Trazado 1272" d="M205.74,538.734a295.362,295.362,0,0,1,51.185-139.868l-4.722-3.274a301.092,301.092,0,0,0-52.182,142.6Z" transform="translate(1.379 5.974)" fill="#e5661d"/>
    <path id="Trazado_1273" data-name="Trazado 1273" d="M171.548,530.553l4.606.436q.266-2.771.578-5.536l-4.6-.515Q171.817,527.741,171.548,530.553Z" transform="translate(0.312 10.821)" fill="#e5661d"/>
    <path id="Trazado_1274" data-name="Trazado 1274" d="M181.806,520.707l-4.59-.594q-.358,2.756-.671,5.52l4.6.516Q181.451,523.424,181.806,520.707Z" transform="translate(0.499 10.64)" fill="#e5661d"/>
    <path id="Trazado_1275" data-name="Trazado 1275" d="M186.949,516.128l-4.578-.672q-.4,2.708-.754,5.425l4.589.595Q186.553,518.8,186.949,516.128Z" transform="translate(0.689 10.465)" fill="#e5661d"/>
    <path id="Trazado_1276" data-name="Trazado 1276" d="M192.156,511.717l-4.566-.751q-.439,2.661-.834,5.331l4.578.672Q191.723,514.339,192.156,511.717Z" transform="translate(0.882 10.297)" fill="#e5661d"/>
    <path id="Trazado_1277" data-name="Trazado 1277" d="M197.424,507.474l-4.552-.829q-.478,2.613-.911,5.234l4.566.75Q196.955,510.047,197.424,507.474Z" transform="translate(1.077 10.135)" fill="#e5661d"/>
    <path id="Trazado_1278" data-name="Trazado 1278" d="M202.749,503.4l-4.537-.906q-.515,2.563-.986,5.137l4.552.829Q202.243,505.923,202.749,503.4Z" transform="translate(1.274 9.98)" fill="#e5661d"/>
    <path id="Trazado_1279" data-name="Trazado 1279" d="M188.72,484.7q.674-2.647,1.39-5.28l-4.464-1.214q-.728,2.672-1.411,5.355Z" transform="translate(0.787 9.069)" fill="#e5661d"/>
    <path id="Trazado_1280" data-name="Trazado 1280" d="M191.809,490.826q.618-2.619,1.281-5.227l-4.485-1.137q-.672,2.644-1.3,5.3Z" transform="translate(0.902 9.304)" fill="#e5661d"/>
    <path id="Trazado_1281" data-name="Trazado 1281" d="M195.016,496.829q.566-2.591,1.176-5.173l-4.5-1.06q-.619,2.619-1.194,5.25Z" transform="translate(1.022 9.534)" fill="#e5661d"/>
    <path id="Trazado_1282" data-name="Trazado 1282" d="M198.342,502.7q.515-2.563,1.072-5.117l-4.521-.984q-.565,2.591-1.087,5.194Z" transform="translate(1.146 9.759)" fill="#e5661d"/>
    <path id="Trazado_1283" data-name="Trazado 1283" d="M181.291,477.228l4.465,1.214q.727-2.67,1.5-5.328l-4.443-1.291Q182.029,474.52,181.291,477.228Z" transform="translate(0.677 8.83)" fill="#e5661d"/>
    <path id="Trazado_1284" data-name="Trazado 1284" d="M193.052,469.322l-4.421-1.365q-.817,2.644-1.59,5.3l4.444,1.29Q192.245,471.929,193.052,469.322Z" transform="translate(0.892 8.685)" fill="#e5661d"/>
    <path id="Trazado_1285" data-name="Trazado 1285" d="M198.888,465.7l-4.4-1.441q-.85,2.593-1.656,5.2l4.421,1.366Q198.049,468.258,198.888,465.7Z" transform="translate(1.109 8.547)" fill="#e5661d"/>
    <path id="Trazado_1286" data-name="Trazado 1286" d="M204.759,462.258l-4.372-1.515q-.881,2.538-1.718,5.093l4.4,1.441Q203.891,464.761,204.759,462.258Z" transform="translate(1.328 8.415)" fill="#e5661d"/>
    <path id="Trazado_1287" data-name="Trazado 1287" d="M210.662,458.985l-4.345-1.59q-.91,2.487-1.778,4.989,2.186.759,4.372,1.516Q209.765,461.434,210.662,458.985Z" transform="translate(1.548 8.29)" fill="#e5661d"/>
    <path id="Trazado_1288" data-name="Trazado 1288" d="M216.592,455.883l-4.317-1.664q-.938,2.434-1.834,4.884l4.345,1.59Q215.668,458.28,216.592,455.883Z" transform="translate(1.769 8.171)" fill="#e5661d"/>
    <path id="Trazado_1289" data-name="Trazado 1289" d="M205.925,435.08q1.11-2.493,2.261-4.967-2.1-.976-4.193-1.955-1.169,2.512-2.294,5.039Z" transform="translate(1.442 7.194)" fill="#e5661d"/>
    <path id="Trazado_1290" data-name="Trazado 1290" d="M207.933,441.643q1.05-2.474,2.144-4.931l-4.227-1.882q-1.11,2.493-2.176,5Z" transform="translate(1.516 7.444)" fill="#e5661d"/>
    <path id="Trazado_1291" data-name="Trazado 1291" d="M210.082,448.1q.994-2.456,2.029-4.893l-4.258-1.811q-1.05,2.476-2.06,4.966Z" transform="translate(1.595 7.69)" fill="#e5661d"/>
    <path id="Trazado_1292" data-name="Trazado 1292" d="M212.368,454.449q.938-2.435,1.917-4.853L210,447.859q-.994,2.454-1.946,4.926Z" transform="translate(1.68 7.932)" fill="#e5661d"/>
    <path id="Trazado_1293" data-name="Trazado 1293" d="M199.866,426.457q2.1.977,4.195,1.955,1.167-2.508,2.379-5l-4.159-2.025Q201.051,423.912,199.866,426.457Z" transform="translate(1.373 6.94)" fill="#e5661d"/>
    <path id="Trazado_1294" data-name="Trazado 1294" d="M212.792,420.654l-4.125-2.1q-1.254,2.47-2.465,4.96l4.16,2.026Q211.556,423.089,212.792,420.654Z" transform="translate(1.61 6.834)" fill="#e5661d"/>
    <path id="Trazado_1295" data-name="Trazado 1295" d="M219.155,418.07l-4.089-2.167q-1.278,2.415-2.513,4.85l4.124,2.1Q217.9,420.45,219.155,418.07Z" transform="translate(1.848 6.735)" fill="#e5661d"/>
    <path id="Trazado_1296" data-name="Trazado 1296" d="M225.527,415.661l-4.05-2.237q-1.3,2.359-2.559,4.739l4.089,2.166Q224.246,417.984,225.527,415.661Z" transform="translate(2.087 6.642)" fill="#e5661d"/>
    <path id="Trazado_1297" data-name="Trazado 1297" d="M231.9,413.424l-4.012-2.306q-1.321,2.3-2.6,4.629l4.051,2.236Q230.6,415.694,231.9,413.424Z" transform="translate(2.326 6.556)" fill="#e5661d"/>
    <path id="Trazado_1298" data-name="Trazado 1298" d="M238.277,411.361l-3.971-2.374q-1.341,2.247-2.642,4.517l4.012,2.305Q236.957,413.575,238.277,411.361Z" transform="translate(2.564 6.476)" fill="#e5661d"/>
    <path id="Trazado_1299" data-name="Trazado 1299" d="M231.328,388.983q1.524-2.28,3.088-4.535l-3.8-2.64q-1.587,2.288-3.132,4.6Z" transform="translate(2.408 5.457)" fill="#e5661d"/>
    <path id="Trazado_1300" data-name="Trazado 1300" d="M232.178,395.817q1.463-2.272,2.964-4.518l-3.845-2.575q-1.524,2.28-3.008,4.585Z" transform="translate(2.438 5.716)" fill="#e5661d"/>
    <path id="Trazado_1301" data-name="Trazado 1301" d="M233.19,402.566q1.4-2.26,2.841-4.5l-3.888-2.508q-1.461,2.271-2.883,4.564Z" transform="translate(2.474 5.973)" fill="#e5661d"/>
    <path id="Trazado_1302" data-name="Trazado 1302" d="M234.357,409.229q1.342-2.247,2.721-4.474l-3.931-2.442q-1.4,2.26-2.762,4.542Z" transform="translate(2.517 6.226)" fill="#e5661d"/>
    <path id="Trazado_1303" data-name="Trazado 1303" d="M358.133,271.573l-2.419-5.212A335.913,335.913,0,0,0,221.176,379.406l4.722,3.274A330.158,330.158,0,0,1,358.133,271.573Z" transform="translate(2.172 1.131)" fill="#e5661d"/>
    <path id="Trazado_1304" data-name="Trazado 1304" d="M226.839,379.43l3.8,2.64q1.586-2.288,3.213-4.55l-3.755-2.706Q228.448,377.108,226.839,379.43Z" transform="translate(2.384 5.195)" fill="#e5661d"/>
    <path id="Trazado_1305" data-name="Trazado 1305" d="M240.6,375.856l-3.707-2.77q-1.668,2.236-3.3,4.5l3.755,2.706Q238.958,378.06,240.6,375.856Z" transform="translate(2.637 5.13)" fill="#e5661d"/>
    <path id="Trazado_1306" data-name="Trazado 1306" d="M247.334,374.364l-3.659-2.833q-1.684,2.179-3.327,4.383,1.855,1.383,3.708,2.769Q245.676,376.511,247.334,374.364Z" transform="translate(2.89 5.072)" fill="#e5661d"/>
    <path id="Trazado_1307" data-name="Trazado 1307" d="M254.049,373.046l-3.609-2.9q-1.7,2.12-3.357,4.266l3.659,2.833Q252.377,375.134,254.049,373.046Z" transform="translate(3.142 5.02)" fill="#e5661d"/>
    <path id="Trazado_1308" data-name="Trazado 1308" d="M260.741,371.9q-1.78-1.478-3.56-2.958-1.712,2.062-3.384,4.151l3.61,2.9Q259.055,373.929,260.741,371.9Z" transform="translate(3.394 4.975)" fill="#e5661d"/>
    <path id="Trazado_1309" data-name="Trazado 1309" d="M267.406,370.92,263.9,367.9q-1.723,2-3.407,4.036l3.56,2.958Q265.709,372.893,267.406,370.92Z" transform="translate(3.645 4.936)" fill="#e5661d"/>
    <path id="Trazado_1310" data-name="Trazado 1310" d="M264.506,347.562q1.917-2.006,3.871-3.983l-3.291-3.255q-1.983,2-3.926,4.041Z" transform="translate(3.67 3.903)" fill="#e5661d"/>
    <path id="Trazado_1311" data-name="Trazado 1311" d="M264.13,354.483q1.85-2.008,3.739-3.985l-3.347-3.2q-1.916,2.007-3.794,4.044Z" transform="translate(3.654 4.164)" fill="#e5661d"/>
    <path id="Trazado_1312" data-name="Trazado 1312" d="M263.931,361.347q1.786-2.006,3.61-3.985l-3.4-3.138q-1.85,2.008-3.664,4.044Z" transform="translate(3.644 4.424)" fill="#e5661d"/>
    <path id="Trazado_1313" data-name="Trazado 1313" d="M263.907,368.15q1.723-2,3.482-3.981l-3.455-3.079q-1.787,2.006-3.535,4.041Z" transform="translate(3.641 4.681)" fill="#e5661d"/>
    <path id="Trazado_1314" data-name="Trazado 1314" d="M265.063,340.588q1.983-2,4-3.979l-3.234-3.312q-2.05,2-4.06,4.036Z" transform="translate(3.693 3.639)" fill="#e5661d"/>
    <path id="Trazado_1315" data-name="Trazado 1315" d="M276.058,336.084l-3.175-3.367q-2.06,1.941-4.08,3.914l3.234,3.312Q274.029,338,276.058,336.084Z" transform="translate(3.956 3.618)" fill="#e5661d"/>
    <path id="Trazado_1316" data-name="Trazado 1316" d="M283.009,335.727l-3.116-3.422q-2.068,1.881-4.1,3.794l3.176,3.368Q280.971,337.579,283.009,335.727Z" transform="translate(4.218 3.602)" fill="#e5661d"/>
    <path id="Trazado_1317" data-name="Trazado 1317" d="M289.915,335.537l-3.055-3.477q-2.075,1.822-4.112,3.676,1.558,1.71,3.117,3.422Q287.87,337.33,289.915,335.537Z" transform="translate(4.479 3.593)" fill="#e5661d"/>
    <path id="Trazado_1318" data-name="Trazado 1318" d="M296.772,335.512l-2.994-3.53q-2.079,1.763-4.122,3.557,1.528,1.737,3.055,3.476Q294.725,337.247,296.772,335.512Z" transform="translate(4.738 3.59)" fill="#e5661d"/>
    <path id="Trazado_1319" data-name="Trazado 1319" d="M303.579,335.65l-2.932-3.581q-2.084,1.7-4.132,3.439l2.994,3.528Q301.528,337.328,303.579,335.65Z" transform="translate(4.995 3.593)" fill="#e5661d"/>
    <path id="Trazado_1320" data-name="Trazado 1320" d="M305.038,311.972q2.286-1.673,4.609-3.312l-2.671-3.779q-2.356,1.662-4.676,3.36Q303.669,310.106,305.038,311.972Z" transform="translate(5.211 2.575)" fill="#e5661d"/>
    <path id="Trazado_1321" data-name="Trazado 1321" d="M303.369,318.782q2.218-1.684,4.472-3.334l-2.738-3.732q-2.286,1.674-4.537,3.384Z" transform="translate(5.146 2.831)" fill="#e5661d"/>
    <path id="Trazado_1322" data-name="Trazado 1322" d="M301.894,325.565q2.151-1.695,4.337-3.355l-2.8-3.683q-2.219,1.685-4.4,3.407Z" transform="translate(5.089 3.086)" fill="#e5661d"/>
    <path id="Trazado_1323" data-name="Trazado 1323" d="M300.611,332.316q2.084-1.7,4.2-3.373l-2.869-3.632q-2.149,1.7-4.265,3.425Z" transform="translate(5.038 3.34)" fill="#e5661d"/>
    <path id="Trazado_1324" data-name="Trazado 1324" d="M306.9,305.138q2.358-1.66,4.749-3.285-1.3-1.913-2.6-3.826-2.426,1.648-4.816,3.332Z" transform="translate(5.284 2.318)" fill="#e5661d"/>
    <path id="Trazado_1325" data-name="Trazado 1325" d="M318.74,302.494q-1.267-1.938-2.534-3.872-2.428,1.584-4.821,3.209l2.6,3.826Q316.346,304.056,318.74,302.494Z" transform="translate(5.552 2.34)" fill="#e5661d"/>
    <path id="Trazado_1326" data-name="Trazado 1326" d="M325.761,303.295l-2.465-3.916q-2.429,1.525-4.822,3.087l2.535,3.871Q323.368,304.8,325.761,303.295Z" transform="translate(5.817 2.368)" fill="#e5661d"/>
    <path id="Trazado_1327" data-name="Trazado 1327" d="M332.714,304.253l-2.393-3.959q-2.429,1.464-4.822,2.966l2.465,3.915Q330.321,305.7,332.714,304.253Z" transform="translate(6.081 2.403)" fill="#e5661d"/>
    <path id="Trazado_1328" data-name="Trazado 1328" d="M339.594,305.37l-2.322-4q-2.426,1.4-4.819,2.846l2.394,3.96Q337.2,306.752,339.594,305.37Z" transform="translate(6.341 2.443)" fill="#e5661d"/>
    <path id="Trazado_1329" data-name="Trazado 1329" d="M346.4,306.638,344.15,302.6q-2.423,1.346-4.814,2.729l2.323,4Q344.012,307.963,346.4,306.638Z" transform="translate(6.599 2.489)" fill="#e5661d"/>
    <path id="Trazado_1330" data-name="Trazado 1330" d="M349.48,289.853q2.563-1.3,5.16-2.568l-2.024-4.159q-2.636,1.281-5.237,2.6Z" transform="translate(6.901 1.759)" fill="#e5661d"/>
    <path id="Trazado_1331" data-name="Trazado 1331" d="M346.669,296.343q2.493-1.326,5.019-2.61-1.049-2.062-2.1-4.123-2.564,1.3-5.095,2.65Z" transform="translate(6.792 2.002)" fill="#e5661d"/>
    <path id="Trazado_1332" data-name="Trazado 1332" d="M344.065,302.834q2.423-1.345,4.879-2.651l-2.176-4.083q-2.493,1.326-4.953,2.69Q342.941,300.812,344.065,302.834Z" transform="translate(6.692 2.245)" fill="#e5661d"/>
    <path id="Trazado_1333" data-name="Trazado 1333" d="M457.314,878.371l-.547,5.719a335.905,335.905,0,0,0,173.182-29.8l-2.419-5.212A330.175,330.175,0,0,1,457.314,878.371Z" transform="translate(11 22.967)" fill="#e5661d"/>
    <path id="Trazado_1334" data-name="Trazado 1334" d="M614.321,825.66A299.106,299.106,0,0,0,734.136,724.991l-4.722-3.273a293.907,293.907,0,0,1-268.772,124.76L460.1,852.2A299.108,299.108,0,0,0,614.321,825.66Z" transform="translate(11.124 18.195)" fill="#e5661d"/>
    <path id="Trazado_1335" data-name="Trazado 1335" d="M621.062,848.234l-1.948-4.2-.008,0q2.7-1.256,5.374-2.553-1.013-2.081-2.025-4.16-2.635,1.28-5.3,2.52l1.948,4.2q-2.7,1.254-5.41,2.453l1.871,4.232Q618.316,849.508,621.062,848.234Z" transform="translate(16.88 22.527)" fill="#e5661d"/>
    <path id="Trazado_1336" data-name="Trazado 1336" d="M613.95,846.318l-1.871-4.232q-2.68,1.186-5.37,2.319.895,2.134,1.793,4.266Q611.231,847.521,613.95,846.318Z" transform="translate(16.618 22.705)" fill="#e5661d"/>
    <path id="Trazado_1337" data-name="Trazado 1337" d="M599.861,842.391q.857,2.149,1.715,4.3,2.7-1.08,5.39-2.213-.9-2.132-1.794-4.265Q602.522,841.326,599.861,842.391Z" transform="translate(16.362 22.635)" fill="#e5661d"/>
    <path id="Trazado_1338" data-name="Trazado 1338" d="M593.145,840.216l1.637,4.328q2.669-1.013,5.331-2.077l-1.715-4.3Q595.775,839.217,593.145,840.216Z" transform="translate(16.11 22.558)" fill="#e5661d"/>
    <path id="Trazado_1339" data-name="Trazado 1339" d="M586.565,837.886l1.558,4.357q2.638-.948,5.268-1.945l-1.636-4.328Q589.164,836.954,586.565,837.886Z" transform="translate(15.864 22.476)" fill="#e5661d"/>
    <path id="Trazado_1340" data-name="Trazado 1340" d="M580.121,835.407q.741,2.191,1.48,4.385,2.607-.884,5.206-1.817-.779-2.179-1.558-4.356Q582.688,834.536,580.121,835.407Z" transform="translate(15.622 22.388)" fill="#e5661d"/>
    <path id="Trazado_1341" data-name="Trazado 1341" d="M570.2,857.138q-2.745.769-5.494,1.486.581,2.239,1.162,4.479,2.79-.727,5.574-1.506Z" transform="translate(15.044 23.269)" fill="#e5661d"/>
    <path id="Trazado_1342" data-name="Trazado 1342" d="M574.205,851.333q-2.7.808-5.4,1.565l1.242,4.458q2.745-.768,5.483-1.588Q574.865,853.551,574.205,851.333Z" transform="translate(15.198 23.052)" fill="#e5661d"/>
    <path id="Trazado_1343" data-name="Trazado 1343" d="M578.049,845.476q-2.653.847-5.313,1.642.66,2.218,1.322,4.434,2.7-.808,5.392-1.666Z" transform="translate(15.345 22.832)" fill="#e5661d"/>
    <path id="Trazado_1344" data-name="Trazado 1344" d="M581.728,839.571q-2.607.882-5.221,1.716l1.4,4.41q2.653-.846,5.3-1.742Z" transform="translate(15.487 22.611)" fill="#e5661d"/>
    <path id="Trazado_1345" data-name="Trazado 1345" d="M567.186,867.367q-.581-2.24-1.162-4.48-2.79.727-5.585,1.4l1.083,4.5Q564.356,868.1,567.186,867.367Z" transform="translate(14.885 23.485)" fill="#e5661d"/>
    <path id="Trazado_1346" data-name="Trazado 1346" d="M560.677,864.4q-.542-2.249-1.082-4.5-2.756.664-5.514,1.28.5,2.26,1,4.518Q557.882,865.078,560.677,864.4Z" transform="translate(14.646 23.373)" fill="#e5661d"/>
    <path id="Trazado_1347" data-name="Trazado 1347" d="M554.314,861.3q-.5-2.258-1-4.517-2.719.6-5.442,1.163.462,2.266.923,4.534Q551.555,861.917,554.314,861.3Z" transform="translate(14.414 23.256)" fill="#e5661d"/>
    <path id="Trazado_1348" data-name="Trazado 1348" d="M541.805,854.58q.421,2.275.843,4.55,2.725-.506,5.448-1.062-.461-2.269-.922-4.536Q544.491,854.08,541.805,854.58Z" transform="translate(14.186 23.134)" fill="#e5661d"/>
    <path id="Trazado_1349" data-name="Trazado 1349" d="M535.891,851.092q.381,2.283.763,4.565,2.688-.45,5.373-.95-.422-2.275-.843-4.55Q538.539,850.648,535.891,851.092Z" transform="translate(13.965 23.007)" fill="#e5661d"/>
    <path id="Trazado_1350" data-name="Trazado 1350" d="M530.126,847.486q.342,2.289.683,4.577,2.65-.395,5.3-.84-.383-2.281-.763-4.564Q532.737,847.1,530.126,847.486Z" transform="translate(13.749 22.876)" fill="#e5661d"/>
    <path id="Trazado_1351" data-name="Trazado 1351" d="M516.923,867.072q-2.772.266-5.542.482.18,2.308.362,4.615,2.81-.221,5.622-.491Q517.144,869.375,516.923,867.072Z" transform="translate(13.046 23.641)" fill="#e5661d"/>
    <path id="Trazado_1352" data-name="Trazado 1352" d="M521.76,862.079q-2.731.311-5.463.573l.442,4.608q2.772-.266,5.543-.581Q522.021,864.378,521.76,862.079Z" transform="translate(13.23 23.454)" fill="#e5661d"/>
    <path id="Trazado_1353" data-name="Trazado 1353" d="M526.442,857.011q-2.691.353-5.382.66l.523,4.6q2.731-.31,5.462-.669Q526.744,859.3,526.442,857.011Z" transform="translate(13.409 23.264)" fill="#e5661d"/>
    <path id="Trazado_1354" data-name="Trazado 1354" d="M530.966,851.87q-2.649.4-5.3.745.3,2.294.6,4.589,2.691-.355,5.38-.756Q531.308,854.158,530.966,851.87Z" transform="translate(13.582 23.072)" fill="#e5661d"/>
    <path id="Trazado_1355" data-name="Trazado 1355" d="M512.294,876.6l-.361-4.613q-2.812.219-5.621.39.14,2.309.281,4.619Q509.443,876.821,512.294,876.6Z" transform="translate(12.856 23.825)" fill="#e5661d"/>
    <path id="Trazado_1356" data-name="Trazado 1356" d="M506.522,872.528q-.142-2.311-.282-4.62-2.77.168-5.537.289.1,2.311.2,4.623Q503.712,872.7,506.522,872.528Z" transform="translate(12.646 23.673)" fill="#e5661d"/>
    <path id="Trazado_1357" data-name="Trazado 1357" d="M500.907,868.353l-.2-4.624q-2.727.118-5.453.188.061,2.313.121,4.626Q498.139,868.471,500.907,868.353Z" transform="translate(12.442 23.516)" fill="#e5661d"/>
    <path id="Trazado_1358" data-name="Trazado 1358" d="M495.45,864.077q-.061-2.312-.121-4.626-2.686.068-5.368.091l.04,4.627Q492.725,864.148,495.45,864.077Z" transform="translate(12.244 23.356)" fill="#e5661d"/>
    <path id="Trazado_1359" data-name="Trazado 1359" d="M484.83,855.076q-.019,2.314-.038,4.628,2.68.024,5.363,0-.022-2.314-.042-4.628Q487.471,855.1,484.83,855.076Z" transform="translate(12.05 23.192)" fill="#e5661d"/>
    <path id="Trazado_1360" data-name="Trazado 1360" d="M479.864,850.528q-.061,2.312-.119,4.626,2.636.069,5.274.092.02-2.314.039-4.627Q482.459,850.6,479.864,850.528Z" transform="translate(11.861 23.021)" fill="#e5661d"/>
    <path id="Trazado_1361" data-name="Trazado 1361" d="M463.72,867.55q-2.739-.215-5.471-.475l-.436,4.606q2.772.266,5.549.482Q463.541,869.857,463.72,867.55Z" transform="translate(11.039 23.641)" fill="#e5661d"/>
    <path id="Trazado_1362" data-name="Trazado 1362" d="M469.268,863.463q-2.7-.165-5.4-.376-.179,2.306-.357,4.614,2.739.215,5.483.382Q469.129,865.772,469.268,863.463Z" transform="translate(11.252 23.492)" fill="#e5661d"/>
    <path id="Trazado_1363" data-name="Trazado 1363" d="M474.673,859.275q-2.671-.117-5.336-.279-.139,2.31-.277,4.62,2.7.165,5.415.283Q474.574,861.587,474.673,859.275Z" transform="translate(11.46 23.339)" fill="#e5661d"/>
    <path id="Trazado_1364" data-name="Trazado 1364" d="M479.934,854.993q-2.636-.07-5.266-.184-.1,2.311-.2,4.623,2.67.117,5.346.188Q479.875,857.305,479.934,854.993Z" transform="translate(11.663 23.182)" fill="#e5661d"/>
    <path id="Trazado_1365" data-name="Trazado 1365" d="M305.668,821.795l-3.273,4.723A338.133,338.133,0,0,0,462.518,885.11l.547-5.72A332.371,332.371,0,0,1,305.668,821.795Z" transform="translate(5.215 21.945)" fill="#e5661d"/>
    <path id="Trazado_1366" data-name="Trazado 1366" d="M325.909,792.635l-3.274,4.721a301.106,301.106,0,0,0,142.6,52.182l.547-5.72A295.347,295.347,0,0,1,325.909,792.635Z" transform="translate(5.973 20.852)" fill="#e5661d"/>
    <path id="Trazado_1367" data-name="Trazado 1367" d="M457.6,876.143q.218-2.3.437-4.607-2.772-.265-5.536-.577-.258,2.3-.516,4.6Q454.785,875.874,457.6,876.143Z" transform="translate(10.82 23.787)" fill="#e5661d"/>
    <path id="Trazado_1368" data-name="Trazado 1368" d="M452.677,871.149q.257-2.3.515-4.6-2.723-.308-5.442-.662-.3,2.294-.593,4.589Q449.913,870.836,452.677,871.149Z" transform="translate(10.64 23.597)" fill="#e5661d"/>
    <path id="Trazado_1369" data-name="Trazado 1369" d="M447.925,866.081q.3-2.294.593-4.589-2.677-.35-5.346-.744-.338,2.289-.673,4.578Q445.208,865.726,447.925,866.081Z" transform="translate(10.465 23.404)" fill="#e5661d"/>
    <path id="Trazado_1370" data-name="Trazado 1370" d="M443.341,860.943q.335-2.29.672-4.578-2.632-.389-5.252-.822-.377,2.283-.751,4.566Q440.67,860.548,443.341,860.943Z" transform="translate(10.297 23.209)" fill="#e5661d"/>
    <path id="Trazado_1371" data-name="Trazado 1371" d="M438.923,855.74l.75-4.566q-2.582-.428-5.156-.9l-.828,4.553Q436.3,855.306,438.923,855.74Z" transform="translate(10.135 23.012)" fill="#e5661d"/>
    <path id="Trazado_1372" data-name="Trazado 1372" d="M430.443,844.954q-.453,2.269-.907,4.537,2.565.514,5.136.984.416-2.275.829-4.551Q432.968,845.46,430.443,844.954Z" transform="translate(9.979 22.813)" fill="#e5661d"/>
    <path id="Trazado_1373" data-name="Trazado 1373" d="M411.74,859q-2.646-.672-5.279-1.389l-1.214,4.464q2.672.729,5.355,1.411Q411.17,861.238,411.74,859Z" transform="translate(9.069 23.287)" fill="#e5661d"/>
    <path id="Trazado_1374" data-name="Trazado 1374" d="M417.869,855.9q-2.619-.618-5.226-1.281-.57,2.243-1.138,4.484,2.645.674,5.3,1.3Q417.339,858.156,417.869,855.9Z" transform="translate(9.304 23.175)" fill="#e5661d"/>
    <path id="Trazado_1375" data-name="Trazado 1375" d="M423.872,852.692q-2.591-.565-5.172-1.175l-1.061,4.5q2.619.619,5.25,1.193Z" transform="translate(9.533 23.058)" fill="#e5661d"/>
    <path id="Trazado_1376" data-name="Trazado 1376" d="M429.748,849.364q-2.565-.514-5.117-1.072-.492,2.261-.985,4.521,2.593.567,5.195,1.088Q429.295,851.633,429.748,849.364Z" transform="translate(9.759 22.938)" fill="#e5661d"/>
    <path id="Trazado_1377" data-name="Trazado 1377" d="M404.272,866.429l1.214-4.465q-2.67-.727-5.33-1.5-.644,2.221-1.29,4.443Q401.562,865.691,404.272,866.429Z" transform="translate(8.83 23.393)" fill="#e5661d"/>
    <path id="Trazado_1378" data-name="Trazado 1378" d="M400.3,860.68l1.291-4.444q-2.621-.761-5.226-1.568L395,859.09Q397.644,859.907,400.3,860.68Z" transform="translate(8.685 23.176)" fill="#e5661d"/>
    <path id="Trazado_1379" data-name="Trazado 1379" d="M396.5,854.888q.683-2.211,1.365-4.421-2.568-.8-5.123-1.632-.719,2.2-1.44,4.4Q393.9,854.082,396.5,854.888Z" transform="translate(8.547 22.958)" fill="#e5661d"/>
    <path id="Trazado_1380" data-name="Trazado 1380" d="M392.879,849.055l1.441-4.4q-2.516-.826-5.018-1.693l-1.516,4.372Q390.326,848.218,392.879,849.055Z" transform="translate(8.415 22.738)" fill="#e5661d"/>
    <path id="Trazado_1381" data-name="Trazado 1381" d="M389.427,843.186l1.516-4.372q-2.465-.854-4.914-1.751l-1.591,4.345Q386.925,842.319,389.427,843.186Z" transform="translate(8.289 22.517)" fill="#e5661d"/>
    <path id="Trazado_1382" data-name="Trazado 1382" d="M387.737,832.94q-2.412-.883-4.811-1.807-.831,2.16-1.664,4.318,2.435.937,4.885,1.834Q386.941,835.113,387.737,832.94Z" transform="translate(8.17 22.295)" fill="#e5661d"/>
    <path id="Trazado_1383" data-name="Trazado 1383" d="M355.2,843.746q2.51,1.169,5.039,2.294l1.882-4.227q-2.493-1.11-4.966-2.261Z" transform="translate(7.194 22.61)" fill="#e5661d"/>
    <path id="Trazado_1384" data-name="Trazado 1384" d="M361.873,841.885q2.493,1.11,5,2.176l1.81-4.258q-2.474-1.052-4.931-2.144Z" transform="translate(7.444 22.539)" fill="#e5661d"/>
    <path id="Trazado_1385" data-name="Trazado 1385" d="M368.441,839.879q2.474,1.052,4.965,2.059.87-2.143,1.738-4.288-2.454-.994-4.893-2.029Q369.347,837.75,368.441,839.879Z" transform="translate(7.69 22.463)" fill="#e5661d"/>
    <path id="Trazado_1386" data-name="Trazado 1386" d="M381.493,835.361q-2.435-.939-4.853-1.917-.868,2.143-1.738,4.288,2.456.994,4.927,1.946Q380.66,837.52,381.493,835.361Z" transform="translate(7.932 22.381)" fill="#e5661d"/>
    <path id="Trazado_1387" data-name="Trazado 1387" d="M348.429,845.461q2.526,1.229,5.072,2.413l1.955-4.193q-2.51-1.169-5-2.379Z" transform="translate(6.94 22.676)" fill="#e5661d"/>
    <path id="Trazado_1388" data-name="Trazado 1388" d="M347.7,834.95q-1.047,2.062-2.1,4.125,2.471,1.253,4.961,2.465l2.026-4.16Q350.132,836.186,347.7,834.95Z" transform="translate(6.834 22.438)" fill="#e5661d"/>
    <path id="Trazado_1389" data-name="Trazado 1389" d="M345.113,828.587l-2.166,4.089q2.414,1.276,4.849,2.513,1.049-2.062,2.1-4.124Q347.493,829.846,345.113,828.587Z" transform="translate(6.735 22.199)" fill="#e5661d"/>
    <path id="Trazado_1390" data-name="Trazado 1390" d="M342.7,822.216q-1.119,2.025-2.237,4.05,2.359,1.3,4.739,2.559l2.167-4.089Q345.028,823.5,342.7,822.216Z" transform="translate(6.642 21.96)" fill="#e5661d"/>
    <path id="Trazado_1391" data-name="Trazado 1391" d="M340.467,815.841q-1.152,2.006-2.305,4.012,2.3,1.322,4.628,2.6l2.237-4.051Q342.736,817.143,340.467,815.841Z" transform="translate(6.555 21.722)" fill="#e5661d"/>
    <path id="Trazado_1392" data-name="Trazado 1392" d="M338.4,809.466q-1.186,1.986-2.374,3.972,2.249,1.34,4.517,2.643,1.153-2.006,2.305-4.012Q340.618,810.786,338.4,809.466Z" transform="translate(6.475 21.483)" fill="#e5661d"/>
    <path id="Trazado_1393" data-name="Trazado 1393" d="M308.852,817.14q2.288,1.587,4.6,3.132l2.575-3.845q-2.28-1.523-4.535-3.088Z" transform="translate(5.457 21.628)" fill="#e5661d"/>
    <path id="Trazado_1394" data-name="Trazado 1394" d="M315.768,816.454q2.28,1.524,4.583,3.008l2.509-3.889q-2.271-1.462-4.517-2.963Q317.054,814.531,315.768,816.454Z" transform="translate(5.716 21.6)" fill="#e5661d"/>
    <path id="Trazado_1395" data-name="Trazado 1395" d="M322.6,815.606q2.27,1.463,4.564,2.884,1.22-1.967,2.441-3.931-2.26-1.4-4.5-2.842Z" transform="translate(5.972 21.567)" fill="#e5661d"/>
    <path id="Trazado_1396" data-name="Trazado 1396" d="M336.273,813.388q-2.249-1.341-4.475-2.721l-2.442,3.931q2.261,1.4,4.542,2.762Z" transform="translate(6.225 21.528)" fill="#e5661d"/>
    <path id="Trazado_1397" data-name="Trazado 1397" d="M199.747,700.486a330.17,330.17,0,0,1-29.3-170.215l-5.72-.547A336.475,336.475,0,0,0,307.581,837.443l3.273-4.722A330.164,330.164,0,0,1,199.747,700.486Z" transform="translate(0 11)" fill="#e5661d"/>
    <path id="Trazado_1398" data-name="Trazado 1398" d="M226.6,687.26l0,.009,0,.008h0a299.107,299.107,0,0,0,100.661,119.8l3.274-4.722A293.868,293.868,0,0,1,205.787,533.6l-5.719-.547A299.109,299.109,0,0,0,226.6,687.26Z" transform="translate(1.33 11.125)" fill="#e5661d"/>
    <path id="Trazado_1399" data-name="Trazado 1399" d="M301.858,817.66q2.294,1.65,4.615,3.259l2.642-3.8q-2.289-1.586-4.55-3.213Q303.21,815.782,301.858,817.66Z" transform="translate(5.195 21.649)" fill="#e5661d"/>
    <path id="Trazado_1400" data-name="Trazado 1400" d="M302.9,807.155l-2.77,3.708q2.236,1.668,4.5,3.3l2.7-3.755Q305.1,808.8,302.9,807.155Z" transform="translate(5.13 21.396)" fill="#e5661d"/>
    <path id="Trazado_1401" data-name="Trazado 1401" d="M301.408,800.422q-1.418,1.829-2.833,3.659,2.179,1.682,4.382,3.326l2.77-3.707Q303.555,802.081,301.408,800.422Z" transform="translate(5.072 21.144)" fill="#e5661d"/>
    <path id="Trazado_1402" data-name="Trazado 1402" d="M300.09,793.707l-2.9,3.609q2.12,1.7,4.266,3.357l2.832-3.66Q302.178,795.379,300.09,793.707Z" transform="translate(5.02 20.892)" fill="#e5661d"/>
    <path id="Trazado_1403" data-name="Trazado 1403" d="M298.942,787.014l-2.958,3.559q2.062,1.712,4.151,3.384l2.9-3.611Q300.973,788.7,298.942,787.014Z" transform="translate(4.975 20.641)" fill="#e5661d"/>
    <path id="Trazado_1404" data-name="Trazado 1404" d="M297.964,780.348l-3.019,3.509q2,1.721,4.036,3.407l2.957-3.56Q299.938,782.046,297.964,780.348Z" transform="translate(4.936 20.391)" fill="#e5661d"/>
    <path id="Trazado_1405" data-name="Trazado 1405" d="M267.368,782.679q2.006,1.981,4.042,3.926l3.2-3.347q-2.008-1.915-3.984-3.87Z" transform="translate(3.902 20.356)" fill="#e5661d"/>
    <path id="Trazado_1406" data-name="Trazado 1406" d="M274.345,783.239q2.006,1.917,4.044,3.8l3.138-3.4q-2.008-1.85-3.986-3.739Z" transform="translate(4.164 20.374)" fill="#e5661d"/>
    <path id="Trazado_1407" data-name="Trazado 1407" d="M281.268,783.62q2.008,1.851,4.044,3.663l3.078-3.455q-2.006-1.786-3.984-3.61Z" transform="translate(4.423 20.387)" fill="#e5661d"/>
    <path id="Trazado_1408" data-name="Trazado 1408" d="M295.193,783.85q-2-1.723-3.981-3.483-1.539,1.729-3.079,3.456,2.008,1.786,4.041,3.535Z" transform="translate(4.68 20.392)" fill="#e5661d"/>
    <path id="Trazado_1409" data-name="Trazado 1409" d="M260.342,781.935q2,2.049,4.035,4.06l3.255-3.29q-2-1.983-3.978-4Z" transform="translate(3.639 20.33)" fill="#e5661d"/>
    <path id="Trazado_1410" data-name="Trazado 1410" d="M263.128,771.708l-3.368,3.175q1.942,2.059,3.915,4.08l3.31-3.234Q265.041,773.737,263.128,771.708Z" transform="translate(3.617 20.068)" fill="#e5661d"/>
    <path id="Trazado_1411" data-name="Trazado 1411" d="M262.77,764.756l-3.422,3.116q1.881,2.067,3.8,4.1l3.367-3.176Q264.624,766.793,262.77,764.756Z" transform="translate(3.602 19.807)" fill="#e5661d"/>
    <path id="Trazado_1412" data-name="Trazado 1412" d="M262.58,757.848,259.1,760.9q1.821,2.074,3.675,4.112L266.2,761.9Q264.374,759.891,262.58,757.848Z" transform="translate(3.593 19.548)" fill="#e5661d"/>
    <path id="Trazado_1413" data-name="Trazado 1413" d="M262.554,750.988l-3.528,2.994q1.762,2.079,3.556,4.123l3.477-3.055Q264.29,753.036,262.554,750.988Z" transform="translate(3.59 19.291)" fill="#e5661d"/>
    <path id="Trazado_1414" data-name="Trazado 1414" d="M262.693,744.18l-3.58,2.932q1.7,2.084,3.438,4.131l3.53-2.994Q264.37,746.232,262.693,744.18Z" transform="translate(3.593 19.036)" fill="#e5661d"/>
    <path id="Trazado_1415" data-name="Trazado 1415" d="M231.925,740.793q1.66,2.356,3.36,4.677l3.731-2.738q-1.674-2.288-3.313-4.609Z" transform="translate(2.574 18.809)" fill="#e5661d"/>
    <path id="Trazado_1416" data-name="Trazado 1416" d="M238.76,742.664q1.674,2.286,3.384,4.537l3.682-2.8q-1.685-2.218-3.335-4.472Z" transform="translate(2.83 18.877)" fill="#e5661d"/>
    <path id="Trazado_1417" data-name="Trazado 1417" d="M245.571,744.337q1.685,2.219,3.406,4.4l3.632-2.868q-1.695-2.151-3.356-4.337Z" transform="translate(3.086 18.937)" fill="#e5661d"/>
    <path id="Trazado_1418" data-name="Trazado 1418" d="M259.36,747.151q-1.7-2.084-3.373-4.2l-3.632,2.869q1.695,2.149,3.424,4.265Z" transform="translate(3.34 18.99)" fill="#e5661d"/>
    <path id="Trazado_1419" data-name="Trazado 1419" d="M225.071,738.723q1.647,2.426,3.332,4.816l3.778-2.671q-1.662-2.356-3.285-4.747Z" transform="translate(2.317 18.734)" fill="#e5661d"/>
    <path id="Trazado_1420" data-name="Trazado 1420" d="M229.537,729.03l-3.872,2.534q1.586,2.428,3.21,4.821l3.825-2.6Q231.1,731.424,229.537,729.03Z" transform="translate(2.34 18.468)" fill="#e5661d"/>
    <path id="Trazado_1421" data-name="Trazado 1421" d="M230.337,722.006l-3.915,2.465q1.524,2.427,3.087,4.822l3.872-2.535Q231.84,724.4,230.337,722.006Z" transform="translate(2.368 18.205)" fill="#e5661d"/>
    <path id="Trazado_1422" data-name="Trazado 1422" d="M231.3,715.05l-3.96,2.394q1.464,2.43,2.966,4.822l3.916-2.465Q232.74,717.444,231.3,715.05Z" transform="translate(2.402 17.945)" fill="#e5661d"/>
    <path id="Trazado_1423" data-name="Trazado 1423" d="M232.413,708.168l-4,2.322q1.4,2.426,2.847,4.818l3.96-2.393Q233.8,710.558,232.413,708.168Z" transform="translate(2.443 17.687)" fill="#e5661d"/>
    <path id="Trazado_1424" data-name="Trazado 1424" d="M233.682,701.36l-4.043,2.249q1.345,2.423,2.728,4.814l4-2.323Q235.007,703.747,233.682,701.36Z" transform="translate(2.489 17.432)" fill="#e5661d"/>
    <path id="Trazado_1425" data-name="Trazado 1425" d="M203.936,692.037q-1.25-2.691-2.444-5.393l-4.232,1.871q1.218,2.757,2.494,5.5l4.2-1.947-.007-.018q1.253,2.7,2.549,5.365l4.16-2.025q-1.281-2.635-2.521-5.3Z" transform="translate(1.275 16.88)" fill="#e5661d"/>
    <path id="Trazado_1426" data-name="Trazado 1426" d="M210.169,695.15q1.282,2.636,2.605,5.237l4.123-2.1q-1.3-2.563-2.568-5.16Z" transform="translate(1.759 17.123)" fill="#e5661d"/>
    <path id="Trazado_1427" data-name="Trazado 1427" d="M216.654,698.176q1.3,2.564,2.649,5.1l4.083-2.176q-1.324-2.493-2.61-5.02Z" transform="translate(2.002 17.234)" fill="#e5661d"/>
    <path id="Trazado_1428" data-name="Trazado 1428" d="M229.877,703.7q-1.345-2.423-2.65-4.879l-4.085,2.175q1.326,2.493,2.691,4.953Z" transform="translate(2.245 17.336)" fill="#e5661d"/>
  </g>
</svg>
