<svg xmlns="http://www.w3.org/2000/svg" width="104.609" height="66.246" viewBox="0 0 104.609 66.246">
  <path id="Trazado_1" data-name="Trazado 1" d="M1247.155,670.06l6.126-12.17h19.141V640.415h-37.454l-5.3,12.17h-19.09l-5.307-12.17h-37.454v17.476h19.144l6.126,12.17h12.72v6.958h-12.72l-6.126,12.17h-19.144v17.472h37.454l5.306-12.167h18.158l6.367,12.167h37.323V689.189h-19.141l-6.126-12.17h-12.721V670.06Zm-3.27,12.264,6.126,12.17h17.105v6.861h-28.8l-6.367-12.167H1207.1l-5.306,12.167H1173.12v-6.861h17.107l6.126-12.17h14.758v-17.57h-14.758l-6.126-12.17H1173.12v-6.864h28.674l5.306,12.17h26.041l5.3-12.17h28.673v6.864h-17.105l-6.126,12.17h-14.757v17.57Z" transform="translate(-1167.814 -640.415)" fill="#d1a943"/>
</svg>
