<svg xmlns="http://www.w3.org/2000/svg" width="164.025" height="79.578" viewBox="0 0 164.025 79.578">
  <g id="Grupo_1729" data-name="Grupo 1729" transform="translate(-944.131 -662.295)">
    <g id="Grupo_1727" data-name="Grupo 1727">
      <path id="Trazado_3743" data-name="Trazado 3743" d="M1000.339,698.833H986.057l-9.991-34.264h34.264Z" fill="none" stroke="#d1a943" stroke-miterlimit="10" stroke-width="4.549"/>
      <path id="Trazado_3744" data-name="Trazado 3744" d="M1000.339,705.335H986.058L976.067,739.6h34.264Z" fill="none" stroke="#d1a943" stroke-miterlimit="10" stroke-width="4.549"/>
      <line id="Línea_147" data-name="Línea 147" y2="6.542" transform="translate(986.057 698.833)" fill="none" stroke="#d1a943" stroke-miterlimit="10" stroke-width="4.549"/>
      <line id="Línea_148" data-name="Línea 148" y2="6.542" transform="translate(1000.19 698.833)" fill="none" stroke="#d1a943" stroke-miterlimit="10" stroke-width="4.549"/>
      <line id="Línea_149" data-name="Línea 149" y2="34.264" transform="translate(993.198 664.569)" fill="none" stroke="#d1a943" stroke-miterlimit="10" stroke-width="2.212"/>
      <line id="Línea_150" data-name="Línea 150" y2="34.224" transform="translate(993.198 705.375)" fill="none" stroke="#d1a943" stroke-miterlimit="10" stroke-width="2.212"/>
    </g>
    <g id="Grupo_1728" data-name="Grupo 1728">
      <path id="Trazado_3745" data-name="Trazado 3745" d="M1065.516,698.833h-14.282l-9.991-34.264h34.264Z" fill="none" stroke="#d1a943" stroke-miterlimit="10" stroke-width="4.549"/>
      <path id="Trazado_3746" data-name="Trazado 3746" d="M1065.517,705.335h-14.281l-9.991,34.264h34.264Z" fill="none" stroke="#d1a943" stroke-miterlimit="10" stroke-width="4.549"/>
      <line id="Línea_151" data-name="Línea 151" y2="6.542" transform="translate(1051.235 698.833)" fill="none" stroke="#d1a943" stroke-miterlimit="10" stroke-width="4.549"/>
      <line id="Línea_152" data-name="Línea 152" y2="6.542" transform="translate(1065.367 698.833)" fill="none" stroke="#d1a943" stroke-miterlimit="10" stroke-width="4.549"/>
      <line id="Línea_153" data-name="Línea 153" y2="34.264" transform="translate(1058.376 664.569)" fill="none" stroke="#d1a943" stroke-miterlimit="10" stroke-width="2.212"/>
      <line id="Línea_154" data-name="Línea 154" y2="34.224" transform="translate(1058.376 705.375)" fill="none" stroke="#d1a943" stroke-miterlimit="10" stroke-width="2.212"/>
    </g>
    <path id="Trazado_3747" data-name="Trazado 3747" d="M1025.136,725.9l-14.144-25.246,14.144-25.246,14.145,25.246Z" fill="none" stroke="#d1a943" stroke-miterlimit="10" stroke-width="4.549"/>
    <path id="Trazado_3748" data-name="Trazado 3748" d="M960.883,725.9l-14.144-25.246,14.144-25.246,14.145,25.246Z" fill="none" stroke="#d1a943" stroke-miterlimit="10" stroke-width="4.549"/>
    <path id="Trazado_3749" data-name="Trazado 3749" d="M1091.4,725.9l-14.145-25.246,14.145-25.246,14.145,25.246Z" fill="none" stroke="#d1a943" stroke-miterlimit="10" stroke-width="4.549"/>
  </g>
</svg>
