<svg xmlns="http://www.w3.org/2000/svg" width="146.07" height="76.246" viewBox="0 0 146.07 76.246">
  <g id="Grupo_1423" data-name="Grupo 1423" transform="translate(428.144 -166.111) rotate(90)">
    <path id="Trazado_146" data-name="Trazado 146" d="M274.942,424.955c-.408.015-.815.031-1.227.031a33.753,33.753,0,0,1,0-67.506c.412,0,.819.016,1.227.031V338.8c-.409-.009-.815-.031-1.227-.031a52.459,52.459,0,1,0,0,104.918c.412,0,.818-.022,1.227-.031Z" transform="translate(-35.085 -36.123)" fill="none" stroke="#d1a943" stroke-miterlimit="10" stroke-width="5"/>
    <path id="Trazado_147" data-name="Trazado 147" d="M300.556,625.959a20.348,20.348,0,1,1-36.272-16" transform="translate(-61.053 -216.861)" fill="none" stroke="#d1a943" stroke-miterlimit="10" stroke-width="5"/>
    <path id="Trazado_148" data-name="Trazado 148" d="M310.49,637.61a10.438,10.438,0,1,1-18.838-8.292" transform="translate(-80.854 -229.766)" fill="none" stroke="#d1a943" stroke-miterlimit="10" stroke-width="5"/>
    <path id="Trazado_149" data-name="Trazado 149" d="M201.012,532.486a20.348,20.348,0,1,1-15.663-36.421" transform="translate(0 -140.955)" fill="none" stroke="#d1a943" stroke-miterlimit="10" stroke-width="5"/>
    <path id="Trazado_150" data-name="Trazado 150" d="M214.442,544.6a10.438,10.438,0,1,1-8.148-18.9" transform="translate(-19.802 -160.703)" fill="none" stroke="#d1a943" stroke-miterlimit="10" stroke-width="5"/>
    <path id="Trazado_151" data-name="Trazado 151" d="M300.617,300.974a20.348,20.348,0,1,0-36.154,16.271" transform="translate(-61.113)" fill="none" stroke="#d1a943" stroke-miterlimit="10" stroke-width="5"/>
    <path id="Trazado_152" data-name="Trazado 152" d="M310.49,322.181a10.438,10.438,0,1,0-18.838,8.292" transform="translate(-80.854 -19.805)" fill="none" stroke="#d1a943" stroke-miterlimit="10" stroke-width="5"/>
    <path id="Trazado_153" data-name="Trazado 153" d="M201.012,376.78A20.348,20.348,0,1,0,185.349,413.2" transform="translate(0 -58.822)" fill="none" stroke="#d1a943" stroke-miterlimit="10" stroke-width="5"/>
    <path id="Trazado_154" data-name="Trazado 154" d="M214.442,404.22a10.438,10.438,0,1,0-8.148,18.9" transform="translate(-19.802 -78.624)" fill="none" stroke="#d1a943" stroke-miterlimit="10" stroke-width="5"/>
  </g>
</svg>
