<svg xmlns="http://www.w3.org/2000/svg" width="179.729" height="72.366" viewBox="0 0 179.729 72.366">
  <g id="Grupo_1424" data-name="Grupo 1424" transform="translate(421.009 -242.479) rotate(90)">
    <g id="Grupo_138" data-name="Grupo 138" transform="translate(245.855 243.448)">
      <g id="Grupo_134" data-name="Grupo 134" transform="translate(0 130.013)">
        <line id="Línea_2" data-name="Línea 2" x2="45.47" transform="translate(5.31 22.691)" fill="none" stroke="#d1a943" stroke-miterlimit="10" stroke-width="6.75"/>
        <circle id="Elipse_1" data-name="Elipse 1" cx="2.588" cy="2.588" r="2.588" transform="translate(0 18.876)" fill="none" stroke="#d1a943" stroke-miterlimit="10" stroke-width="6.75"/>
        <path id="Trazado_155" data-name="Trazado 155" d="M247.4,511.624l19.01,22.691L247.4,557" transform="translate(-246.649 -511.624)" fill="none" stroke="#d1a943" stroke-miterlimit="10" stroke-width="6.75"/>
        <path id="Trazado_156" data-name="Trazado 156" d="M362.625,557l-19.01-22.691,19.01-22.691" transform="translate(-296.22 -511.624)" fill="none" stroke="#d1a943" stroke-miterlimit="10" stroke-width="6.75"/>
      </g>
      <g id="Grupo_135" data-name="Grupo 135" transform="translate(0 86.605)">
        <line id="Línea_3" data-name="Línea 3" x2="45.47" transform="translate(5.31 22.691)" fill="none" stroke="#d1a943" stroke-miterlimit="10" stroke-width="6.75"/>
        <circle id="Elipse_2" data-name="Elipse 2" cx="2.588" cy="2.588" r="2.588" transform="translate(0 18.876)" fill="none" stroke="#d1a943" stroke-miterlimit="10" stroke-width="6.75"/>
        <path id="Trazado_157" data-name="Trazado 157" d="M247.4,422.088l19.01,22.691L247.4,467.47" transform="translate(-246.649 -422.088)" fill="none" stroke="#d1a943" stroke-miterlimit="10" stroke-width="6.75"/>
        <path id="Trazado_158" data-name="Trazado 158" d="M362.625,467.47l-19.01-22.691,19.01-22.691" transform="translate(-296.22 -422.088)" fill="none" stroke="#d1a943" stroke-miterlimit="10" stroke-width="6.75"/>
      </g>
      <g id="Grupo_136" data-name="Grupo 136" transform="translate(0 43.407)">
        <line id="Línea_4" data-name="Línea 4" x2="45.47" transform="translate(5.31 22.691)" fill="none" stroke="#d1a943" stroke-miterlimit="10" stroke-width="6.75"/>
        <circle id="Elipse_3" data-name="Elipse 3" cx="2.588" cy="2.588" r="2.588" transform="translate(0 18.876)" fill="none" stroke="#d1a943" stroke-miterlimit="10" stroke-width="6.75"/>
        <path id="Trazado_159" data-name="Trazado 159" d="M247.4,332.983l19.01,22.691L247.4,378.365" transform="translate(-246.649 -332.983)" fill="none" stroke="#d1a943" stroke-miterlimit="10" stroke-width="6.75"/>
        <path id="Trazado_160" data-name="Trazado 160" d="M362.625,378.365l-19.01-22.691,19.01-22.691" transform="translate(-296.22 -332.983)" fill="none" stroke="#d1a943" stroke-miterlimit="10" stroke-width="6.75"/>
      </g>
      <g id="Grupo_137" data-name="Grupo 137">
        <line id="Línea_5" data-name="Línea 5" x2="45.47" transform="translate(5.31 22.691)" fill="none" stroke="#d1a943" stroke-miterlimit="10" stroke-width="6.75"/>
        <circle id="Elipse_4" data-name="Elipse 4" cx="2.588" cy="2.588" r="2.588" transform="translate(0 18.876)" fill="none" stroke="#d1a943" stroke-miterlimit="10" stroke-width="6.75"/>
        <path id="Trazado_161" data-name="Trazado 161" d="M247.4,243.448l19.01,22.691L247.4,288.829" transform="translate(-246.649 -243.448)" fill="none" stroke="#d1a943" stroke-miterlimit="10" stroke-width="6.75"/>
        <path id="Trazado_162" data-name="Trazado 162" d="M362.625,288.829l-19.01-22.691,19.01-22.691" transform="translate(-296.22 -243.448)" fill="none" stroke="#d1a943" stroke-miterlimit="10" stroke-width="6.75"/>
      </g>
    </g>
  </g>
</svg>
