<svg xmlns="http://www.w3.org/2000/svg" width="653.755" height="653.755" viewBox="0 0 653.755 653.755">
  <g id="Grupo_327" data-name="Grupo 327" transform="translate(-159.385 -234.183)">
    <g id="Grupo_326" data-name="Grupo 326">
      <g id="Grupo_304" data-name="Grupo 304">
        <g id="Grupo_288" data-name="Grupo 288">
          <g id="Grupo_284" data-name="Grupo 284">
            <path id="Trazado_927" data-name="Trazado 927" d="M221.076,527.352A288.781,288.781,0,0,0,192.043,559.3c-8.476-12.736-16.4-25.667-23.919-38.992a307.2,307.2,0,0,1,32.45-29.633A397.759,397.759,0,0,0,221.076,527.352Z" fill="none" stroke="#4f722d" stroke-miterlimit="10" stroke-width="2.551"/>
            <path id="Trazado_928" data-name="Trazado 928" d="M208.083,525.614c-5.288,5.079-10.257,10.428-15.149,15.893q-6.054-9.617-11.673-19.461c5.2-5.281,10.514-10.357,16.027-15.3Q202.483,516.313,208.083,525.614Z" fill="none" stroke="#4f722d" stroke-miterlimit="10" stroke-width="1.654"/>
            <path id="Trazado_929" data-name="Trazado 929" d="M194.563,523.812l.156-.156c.045.077.068.115.112.192l-.156.156c-.044-.077-.067-.115-.112-.192m-5.045-.67c1.729,3,2.61,4.492,4.4,7.44,2.363-2.49,3.555-3.7,5.952-6.063-1.736-2.913-2.591-4.383-4.268-7.352-2.449,2.326-3.667,3.521-6.083,5.975Z" fill="none" stroke="#4f722d" stroke-miterlimit="10" stroke-width="1"/>
            <path id="Trazado_930" data-name="Trazado 930" d="M192.043,559.3a471.467,471.467,0,0,1,8.194-67.151" fill="none" stroke="#4f722d" stroke-miterlimit="10" stroke-width="1.654"/>
          </g>
          <g id="Grupo_285" data-name="Grupo 285">
            <path id="Trazado_931" data-name="Trazado 931" d="M234.378,468.963a281.026,281.026,0,0,0-33.8,21.713,408.833,408.833,0,0,1-16.291-40.012,308.689,308.689,0,0,1,36.683-19.448C225.009,444.055,229.412,456.452,234.378,468.963Z" fill="none" stroke="#4f722d" stroke-miterlimit="10" stroke-width="2.551"/>
            <path id="Trazado_932" data-name="Trazado 932" d="M222.081,464.447q-8.956,4.97-17.5,10.716c-2.782-6.609-5.4-13.253-7.876-19.985q8.924-5.451,18.239-10.135Q218.2,454.862,222.081,464.447Z" fill="none" stroke="#4f722d" stroke-miterlimit="10" stroke-width="1.654"/>
            <path id="Trazado_933" data-name="Trazado 933" d="M209.289,459.766l.179-.1.075.2-.179.105-.075-.2m-4.773-1.743c1.145,3.08,1.736,4.609,2.95,7.644,2.732-1.684,4.1-2.5,6.843-4.066-1.17-3-1.739-4.513-2.84-7.558-2.785,1.535-4.176,2.331-6.953,3.98Z" fill="none" stroke="#4f722d" stroke-miterlimit="10" stroke-width="1"/>
            <path id="Trazado_934" data-name="Trazado 934" d="M200.574,490.676a415.693,415.693,0,0,1,19.8-58.2" fill="none" stroke="#4f722d" stroke-miterlimit="10" stroke-width="1.654"/>
          </g>
          <g id="Grupo_286" data-name="Grupo 286">
            <path id="Trazado_935" data-name="Trazado 935" d="M257.524,418.873c-12.517,3.6-24.42,7.623-36.558,12.343a380.745,380.745,0,0,1-8.678-40.336c12.952-3.956,25.65-7.259,38.893-10.092C252.833,393.663,254.911,406.159,257.524,418.873Z" fill="none" stroke="#4f722d" stroke-miterlimit="10" stroke-width="2.551"/>
            <path id="Trazado_936" data-name="Trazado 936" d="M246.411,411.967q-9.5,2.592-18.826,5.972-2.375-10-4.088-20.153,9.633-3.084,19.426-5.393Q244.339,402.243,246.411,411.967Z" fill="none" stroke="#4f722d" stroke-miterlimit="10" stroke-width="1.654"/>
            <path id="Trazado_937" data-name="Trazado 937" d="M234.856,404.806l.192-.057c.015.08.023.119.038.2l-.192.057c-.015-.08-.023-.12-.038-.2m-4.309-2.666c.564,3.1.865,4.643,1.5,7.71,2.941-.947,4.41-1.393,7.339-2.237-.6-3.032-.887-4.557-1.416-7.623-2.964.809-4.45,1.239-7.427,2.15Z" fill="none" stroke="#4f722d" stroke-miterlimit="10" stroke-width="1"/>
            <path id="Trazado_938" data-name="Trazado 938" d="M220.966,431.216a398.726,398.726,0,0,1,29.425-49.37" fill="none" stroke="#4f722d" stroke-miterlimit="10" stroke-width="1.654"/>
          </g>
          <g id="Grupo_287" data-name="Grupo 287">
            <path id="Trazado_939" data-name="Trazado 939" d="M288.734,377.02c-12.7.716-24.959,1.953-37.553,3.768-.929-13.391-1.35-26.5-1.3-39.922,13.227-1.046,26.1-1.546,39.373-1.505C288.607,352.007,288.431,364.361,288.734,377.02Z" fill="none" stroke="#4f722d" stroke-miterlimit="10" stroke-width="2.551"/>
            <path id="Trazado_940" data-name="Trazado 940" d="M279.182,368.1q-9.632.438-19.264,1.627-.541-9.949-.414-19.941,9.871-.894,19.731-1.046Q278.883,358.428,279.182,368.1Z" fill="none" stroke="#4f722d" stroke-miterlimit="10" stroke-width="1.654"/>
            <path id="Trazado_941" data-name="Trazado 941" d="M269.256,358.857l.195-.013c0,.078,0,.118,0,.2l-.2.014c0-.079,0-.119,0-.2m-3.7-3.443c0,3.062.022,4.588.1,7.627,3.011-.269,4.51-.38,7.492-.558-.052-3.006-.059-4.514-.033-7.541-3.01.144-4.522.238-7.561.472Z" fill="none" stroke="#4f722d" stroke-miterlimit="10" stroke-width="1"/>
            <path id="Trazado_942" data-name="Trazado 942" d="M251.181,380.788a319.269,319.269,0,0,1,37.127-40.575" fill="none" stroke="#4f722d" stroke-miterlimit="10" stroke-width="1.654"/>
          </g>
        </g>
        <g id="Grupo_293" data-name="Grupo 293">
          <g id="Grupo_289" data-name="Grupo 289">
            <path id="Trazado_943" data-name="Trazado 943" d="M326.314,343.4c-12.414-1.88-24.53-3.2-37.056-4.042,1.441-13.071,3.317-25.79,5.7-38.723,13,1.621,25.58,3.691,38.41,6.332C330.546,319.12,328.227,331.077,326.314,343.4Z" fill="none" stroke="#4f722d" stroke-miterlimit="10" stroke-width="2.551"/>
            <path id="Trazado_944" data-name="Trazado 944" d="M318.6,332.861q-9.412-1.515-18.954-2.333,1.213-9.708,3.07-19.33,9.717,1.116,19.3,2.92Q320,323.431,318.6,332.861Z" fill="none" stroke="#4f722d" stroke-miterlimit="10" stroke-width="1.654"/>
            <path id="Trazado_945" data-name="Trazado 945" d="M310.587,321.924l.191.026c-.013.077-.019.115-.032.191l-.192-.026c.014-.077.02-.115.033-.191m-2.987-4.073c-.531,2.962-.776,4.441-1.227,7.392,2.963.348,4.435.542,7.357.969.472-2.916.728-4.377,1.28-7.3-2.943-.462-4.425-.674-7.41-1.058Z" fill="none" stroke="#4f722d" stroke-miterlimit="10" stroke-width="1"/>
            <path id="Trazado_946" data-name="Trazado 946" d="M289.258,339.361a325.916,325.916,0,0,1,43.04-31.749" fill="none" stroke="#4f722d" stroke-miterlimit="10" stroke-width="1.654"/>
          </g>
          <g id="Grupo_290" data-name="Grupo 290">
            <path id="Trazado_947" data-name="Trazado 947" d="M368.687,318.059c-11.728-4.2-23.3-7.832-35.32-11.089,3.66-12.465,7.677-24.527,12.206-36.7,12.359,4.045,24.256,8.44,36.271,13.411C377.009,295.063,372.684,306.353,368.687,318.059Z" fill="none" stroke="#4f722d" stroke-miterlimit="10" stroke-width="2.551"/>
            <path id="Trazado_948" data-name="Trazado 948" d="M363,306.281q-8.9-3.27-18.022-5.906,2.861-9.256,6.314-18.3,9.245,2.936,18.267,6.5Q366,297.31,363,306.281Z" fill="none" stroke="#4f722d" stroke-miterlimit="10" stroke-width="1.654"/>
            <path id="Trazado_949" data-name="Trazado 949" d="M357.1,294.06l.181.062c-.026.073-.038.109-.064.181l-.182-.062.065-.181m-2.2-4.551c-1.026,2.8-1.519,4.2-2.467,6.994,2.82.906,4.217,1.377,6.986,2.35.962-2.763,1.463-4.145,2.5-6.9-2.783-1.009-4.188-1.5-7.023-2.439Z" fill="none" stroke="#4f722d" stroke-miterlimit="10" stroke-width="1"/>
            <path id="Trazado_950" data-name="Trazado 950" d="M333.367,306.97a449.177,449.177,0,0,1,47.325-22.859" fill="none" stroke="#4f722d" stroke-miterlimit="10" stroke-width="1.654"/>
          </g>
          <g id="Grupo_291" data-name="Grupo 291">
            <path id="Trazado_951" data-name="Trazado 951" d="M414.406,301.043c-10.718-6.258-21.4-11.948-32.562-17.365,5.705-11.565,11.685-22.689,18.177-33.831,11.38,6.212,22.269,12.681,33.162,19.713C426.5,279.9,420.329,290.246,414.406,301.043Z" fill="none" stroke="#4f722d" stroke-miterlimit="10" stroke-width="2.551"/>
            <path id="Trazado_952" data-name="Trazado 952" d="M410.88,288.429Q402.74,283.6,394.3,279.34q4.384-8.584,9.295-16.846,8.516,4.56,16.735,9.692Q415.353,280.136,410.88,288.429Z" fill="none" stroke="#4f722d" stroke-miterlimit="10" stroke-width="1.654"/>
            <path id="Trazado_953" data-name="Trazado 953" d="M407.209,275.338l.166.094-.093.165-.167-.093.094-.166m-1.371-4.876c-1.481,2.565-2.2,3.851-3.607,6.43,2.6,1.4,3.882,2.121,6.419,3.579,1.414-2.543,2.14-3.812,3.629-6.34-2.545-1.494-3.834-2.229-6.441-3.669Z" fill="none" stroke="#4f722d" stroke-miterlimit="10" stroke-width="1"/>
            <path id="Trazado_954" data-name="Trazado 954" d="M381.844,283.678a448.676,448.676,0,0,1,50.137-13.9" fill="none" stroke="#4f722d" stroke-miterlimit="10" stroke-width="1.654"/>
          </g>
          <g id="Grupo_292" data-name="Grupo 292">
            <path id="Trazado_955" data-name="Trazado 955" d="M462.127,292.413c-9.435-8.043-18.933-15.54-28.944-22.853,7.563-10.376,15.32-20.271,23.585-30.1,10.117,8.114,19.72,16.4,29.227,25.218C477.645,273.7,469.8,282.811,462.127,292.413Z" fill="none" stroke="#4f722d" stroke-miterlimit="10" stroke-width="2.551"/>
            <path id="Trazado_956" data-name="Trazado 956" d="M460.835,279.367q-7.164-6.192-14.707-11.871,5.769-7.686,11.994-14.951,7.576,5.983,14.78,12.479Q466.654,271.98,460.835,279.367Z" fill="none" stroke="#4f722d" stroke-miterlimit="10" stroke-width="1.654"/>
            <path id="Trazado_957" data-name="Trazado 957" d="M459.476,265.828l.147.122-.12.147-.148-.122c.048-.059.072-.089.121-.147m-.512-5.043c-1.891,2.266-2.819,3.406-4.639,5.7,2.308,1.84,3.446,2.771,5.686,4.654,1.825-2.257,2.754-3.38,4.65-5.608-2.245-1.919-3.384-2.868-5.7-4.745Z" fill="none" stroke="#4f722d" stroke-miterlimit="10" stroke-width="1"/>
            <path id="Trazado_958" data-name="Trazado 958" d="M433.183,269.56a451.365,451.365,0,0,1,51.592-4.87" fill="none" stroke="#4f722d" stroke-miterlimit="10" stroke-width="1.654"/>
          </g>
        </g>
        <g id="Grupo_298" data-name="Grupo 298">
          <g id="Grupo_294" data-name="Grupo 294">
            <path id="Trazado_959" data-name="Trazado 959" d="M510.573,292.217c-7.911-9.557-15.979-18.592-24.578-27.535,9.229-8.9,18.562-17.276,28.4-25.5,8.6,9.747,16.667,19.571,24.546,29.91C529.124,276.509,519.813,284.1,510.573,292.217Z" fill="none" stroke="#4f722d" stroke-miterlimit="10" stroke-width="2.551"/>
            <path id="Trazado_960" data-name="Trazado 960" d="M511.553,279.151q-6-7.341-12.456-14.245,7.007-6.56,14.394-12.619,6.451,7.209,12.448,14.854Q518.566,272.892,511.553,279.151Z" fill="none" stroke="#4f722d" stroke-miterlimit="10" stroke-width="1.654"/>
            <path id="Trazado_961" data-name="Trazado 961" d="M512.545,265.591l.125.145-.144.123-.125-.145.144-.123m.362-5.051c-2.255,1.9-3.367,2.859-5.555,4.8,1.96,2.213,2.921,3.328,4.807,5.57,2.189-1.9,3.3-2.845,5.555-4.707-1.886-2.279-2.847-3.411-4.807-5.661Z" fill="none" stroke="#4f722d" stroke-miterlimit="10" stroke-width="1"/>
            <path id="Trazado_962" data-name="Trazado 962" d="M485.995,264.682a451.807,451.807,0,0,1,51.737,4.208" fill="none" stroke="#4f722d" stroke-miterlimit="10" stroke-width="1.654"/>
          </g>
          <g id="Grupo_295" data-name="Grupo 295">
            <path id="Trazado_963" data-name="Trazado 963" d="M558.473,300.5c-6.164-10.8-12.576-21.1-19.532-31.4,10.685-7.134,21.372-13.709,32.554-20.035,6.844,11.108,13.136,22.2,19.15,33.775C579.6,288.355,569.056,294.143,558.473,300.5Z" fill="none" stroke="#4f722d" stroke-miterlimit="10" stroke-width="2.551"/>
            <path id="Trazado_964" data-name="Trazado 964" d="M561.725,287.821q-4.659-8.274-9.858-16.2,8.07-5.211,16.456-9.853,5.149,8.233,9.76,16.813Q569.758,282.912,561.725,287.821Z" fill="none" stroke="#4f722d" stroke-miterlimit="10" stroke-width="1.654"/>
            <path id="Trazado_965" data-name="Trazado 965" d="M565.07,274.668c.04.066.059.1.1.165l-.164.1c-.039-.066-.058-.1-.1-.165l.164-.1m1.239-4.9c-2.567,1.465-3.836,2.211-6.341,3.73,1.557,2.522,2.316,3.787,3.794,6.326,2.5-1.483,3.766-2.211,6.326-3.64-1.472-2.575-2.228-3.858-3.779-6.416Z" fill="none" stroke="#4f722d" stroke-miterlimit="10" stroke-width="1"/>
            <path id="Trazado_966" data-name="Trazado 966" d="M538.941,269.1a448.513,448.513,0,0,1,50.54,13.319" fill="none" stroke="#4f722d" stroke-miterlimit="10" stroke-width="1.654"/>
          </g>
          <g id="Grupo_296" data-name="Grupo 296">
            <path id="Trazado_967" data-name="Trazado 967" d="M604.5,317.273c-4.209-11.753-8.755-23.042-13.854-34.437,11.893-5.079,23.669-9.575,35.918-13.724,4.852,12.2,9.142,24.275,13.061,36.807C627.657,309.265,616.158,312.978,604.5,317.273Z" fill="none" stroke="#4f722d" stroke-miterlimit="10" stroke-width="2.551"/>
            <path id="Trazado_968" data-name="Trazado 968" d="M609.974,305.4q-3.159-8.99-6.931-17.741,8.932-3.645,18.109-6.656,3.674,9.055,6.729,18.35Q618.818,302.061,609.974,305.4Z" fill="none" stroke="#4f722d" stroke-miterlimit="10" stroke-width="1.654"/>
            <path id="Trazado_969" data-name="Trazado 969" d="M615.63,293.087c.028.072.041.108.069.181l-.181.063c-.027-.072-.041-.108-.068-.181l.18-.063m2.1-4.587c-2.814.965-4.207,1.465-6.967,2.5,1.1,2.766,1.633,4.15,2.652,6.92,2.749-1,4.136-1.478,6.937-2.407-1.007-2.805-1.532-4.208-2.622-7.01Z" fill="none" stroke="#4f722d" stroke-miterlimit="10" stroke-width="1"/>
            <path id="Trazado_970" data-name="Trazado 970" d="M590.645,282.836a335.215,335.215,0,0,1,47.9,22.448" fill="none" stroke="#4f722d" stroke-miterlimit="10" stroke-width="1.654"/>
          </g>
          <g id="Grupo_297" data-name="Grupo 297">
            <path id="Trazado_971" data-name="Trazado 971" d="M647.215,342.563c-2.065-12.421-4.556-24.424-7.591-36.644,12.787-2.728,25.322-4.874,38.286-6.57,2.629,13.028,4.7,25.812,6.316,39C671.708,339.248,659.613,340.619,647.215,342.563Z" fill="none" stroke="#4f722d" stroke-miterlimit="10" stroke-width="2.551"/>
            <path id="Trazado_972" data-name="Trazado 972" d="M654.8,331.91q-1.516-9.486-3.7-18.858,9.547-1.865,19.251-3.034,2.023,9.676,3.373,19.465Q664.2,330.346,654.8,331.91Z" fill="none" stroke="#4f722d" stroke-miterlimit="10" stroke-width="1.654"/>
            <path id="Trazado_973" data-name="Trazado 973" d="M662.661,320.858l.035.192-.191.027-.035-.192.191-.027m2.922-4.115c-2.979.4-4.458.619-7.393,1.1.6,2.944.877,4.415,1.391,7.351,2.916-.443,4.385-.646,7.344-1.009-.495-2.972-.763-4.46-1.342-7.44Z" fill="none" stroke="#4f722d" stroke-miterlimit="10" stroke-width="1"/>
            <path id="Trazado_974" data-name="Trazado 974" d="M639.624,305.919A320.729,320.729,0,0,1,683.263,337.5" fill="none" stroke="#4f722d" stroke-miterlimit="10" stroke-width="1.654"/>
          </g>
        </g>
        <g id="Grupo_303" data-name="Grupo 303">
          <g id="Grupo_299" data-name="Grupo 299">
            <path id="Trazado_975" data-name="Trazado 975" d="M685.048,376.366c.234-12.793-.039-25.242-.822-38.013,13.278-.082,26.153.387,39.392,1.414.189,13.58-.136,26.809-1,40.363C710.014,378.3,697.763,377.071,685.048,376.366Z" fill="none" stroke="#4f722d" stroke-miterlimit="10" stroke-width="2.551"/>
            <path id="Trazado_976" data-name="Trazado 976" d="M694.554,367.343q.244-9.768-.205-19.551,9.855.126,19.743,1.01.221,10.086-.263,20.154Q704.2,367.77,694.554,367.343Z" fill="none" stroke="#4f722d" stroke-miterlimit="10" stroke-width="1.654"/>
            <path id="Trazado_977" data-name="Trazado 977" d="M704.417,357.981v.2l-.2-.013v-.2l.2.013m3.673-3.485c-3.04-.231-4.554-.323-7.566-.461.052,3.057.057,4.581.026,7.617,2.984.174,4.484.284,7.5.551.06-3.072.069-4.614.044-7.707Z" fill="none" stroke="#4f722d" stroke-miterlimit="10" stroke-width="1"/>
            <path id="Trazado_978" data-name="Trazado 978" d="M684.226,338.353a311.75,311.75,0,0,1,37.594,40.712" fill="none" stroke="#4f722d" stroke-miterlimit="10" stroke-width="1.654"/>
          </g>
          <g id="Grupo_300" data-name="Grupo 300">
            <path id="Trazado_979" data-name="Trazado 979" d="M716.292,418.677c2.635-12.875,4.705-25.506,6.326-38.547,13.265,2.864,25.96,6.207,38.924,10.221a370.989,370.989,0,0,1-8.731,40.885C740.687,426.426,728.812,422.333,716.292,418.677Z" fill="none" stroke="#4f722d" stroke-miterlimit="10" stroke-width="2.551"/>
            <path id="Trazado_980" data-name="Trazado 980" d="M727.42,411.692q2.086-9.838,3.488-19.82,9.787,2.332,19.433,5.47-1.706,10.282-4.1,20.42Q736.928,414.33,727.42,411.692Z" fill="none" stroke="#4f722d" stroke-miterlimit="10" stroke-width="1.654"/>
            <path id="Trazado_981" data-name="Trazado 981" d="M738.982,404.447c-.015.08-.022.121-.038.2l-.191-.058c.015-.08.023-.12.038-.2l.191.058m4.311-2.7c-2.978-.926-4.464-1.361-7.429-2.182-.527,3.105-.811,4.649-1.417,7.72,2.929.856,4.4,1.31,7.336,2.272.643-3.107.946-4.669,1.51-7.81Z" fill="none" stroke="#4f722d" stroke-miterlimit="10" stroke-width="1"/>
            <path id="Trazado_982" data-name="Trazado 982" d="M722.618,380.13a388.788,388.788,0,0,1,29.606,49.826" fill="none" stroke="#4f722d" stroke-miterlimit="10" stroke-width="1.654"/>
          </g>
          <g id="Grupo_301" data-name="Grupo 301">
            <path id="Trazado_983" data-name="Trazado 983" d="M739.147,469.475a363.055,363.055,0,0,0,13.664-38.239,300.76,300.76,0,0,1,36.577,19.841,406.032,406.032,0,0,1-16.649,40.562A274.343,274.343,0,0,0,739.147,469.475Z" fill="none" stroke="#4f722d" stroke-miterlimit="10" stroke-width="2.551"/>
            <path id="Trazado_984" data-name="Trazado 984" d="M751.484,464.937q3.961-9.7,7.277-19.662,9.277,4.769,18.172,10.342c-2.526,6.827-5.2,13.562-8.044,20.258Q760.41,470.019,751.484,464.937Z" fill="none" stroke="#4f722d" stroke-miterlimit="10" stroke-width="1.654"/>
            <path id="Trazado_985" data-name="Trazado 985" d="M764.315,460.231c-.031.079-.046.12-.077.2-.071-.044-.107-.064-.178-.107l.077-.2.178.107m4.787-1.753c-2.765-1.683-4.151-2.495-6.924-4.062-1.124,3.087-1.7,4.62-2.9,7.66,2.729,1.6,4.092,2.431,6.81,4.15,1.24-3.075,1.843-4.625,3.012-7.748Z" fill="none" stroke="#4f722d" stroke-miterlimit="10" stroke-width="1"/>
            <path id="Trazado_986" data-name="Trazado 986" d="M752.811,431.236a409.2,409.2,0,0,1,19.6,58.911" fill="none" stroke="#4f722d" stroke-miterlimit="10" stroke-width="1.654"/>
          </g>
          <g id="Grupo_302" data-name="Grupo 302">
            <path id="Trazado_987" data-name="Trazado 987" d="M751.785,528.733a398.144,398.144,0,0,0,20.954-37.094A301.886,301.886,0,0,1,804.832,521.9c-7.687,13.474-15.8,26.539-24.468,39.4A285.7,285.7,0,0,0,751.785,528.733Z" fill="none" stroke="#4f722d" stroke-miterlimit="10" stroke-width="2.551"/>
            <path id="Trazado_988" data-name="Trazado 988" d="M764.8,527.047q5.742-9.423,11.038-19.08c5.453,5.044,10.7,10.228,15.833,15.619q-5.765,9.981-11.94,19.672C774.916,537.683,770.022,532.228,764.8,527.047Z" fill="none" stroke="#4f722d" stroke-miterlimit="10" stroke-width="1.654"/>
            <path id="Trazado_989" data-name="Trazado 989" d="M778.346,525.3l-.115.194-.154-.159.115-.194c.062.064.093.095.154.159m5.055-.651c-2.385-2.5-3.586-3.723-6.006-6.1-1.715,3-2.589,4.49-4.365,7.434,2.366,2.41,3.542,3.647,5.871,6.187,1.829-2.979,2.73-4.484,4.5-7.523Z" fill="none" stroke="#4f722d" stroke-miterlimit="10" stroke-width="1"/>
            <path id="Trazado_990" data-name="Trazado 990" d="M772.739,491.639a453.847,453.847,0,0,1,7.6,67.959" fill="none" stroke="#4f722d" stroke-miterlimit="10" stroke-width="1.654"/>
          </g>
        </g>
      </g>
      <g id="Grupo_325" data-name="Grupo 325">
        <g id="Grupo_309" data-name="Grupo 309">
          <g id="Grupo_305" data-name="Grupo 305">
            <path id="Trazado_991" data-name="Trazado 991" d="M751.68,593.508a279.591,279.591,0,0,0,28.456-32.368c8.727,12.921,16.9,26.044,24.662,39.567a295.938,295.938,0,0,1-31.958,30.031A411.042,411.042,0,0,0,751.68,593.508Z" fill="none" stroke="#4f722d" stroke-miterlimit="10" stroke-width="2.551"/>
            <path id="Trazado_992" data-name="Trazado 992" d="M764.716,595.284c5.2-5.144,10.075-10.564,14.867-16.1q6.237,9.756,12.04,19.753c-5.11,5.354-10.334,10.5-15.767,15.5Q770.487,604.724,764.716,595.284Z" fill="none" stroke="#4f722d" stroke-miterlimit="10" stroke-width="1.654"/>
            <path id="Trazado_993" data-name="Trazado 993" d="M778.279,597.126l-.153.158-.116-.2.154-.158.115.195m5.062.685c-1.786-3.05-2.694-4.56-4.538-7.552-2.32,2.524-3.49,3.752-5.847,6.145,1.791,2.956,2.672,4.448,4.405,7.463,2.409-2.358,3.606-3.568,5.98-6.056Z" fill="none" stroke="#4f722d" stroke-miterlimit="10" stroke-width="1"/>
            <path id="Trazado_994" data-name="Trazado 994" d="M780.136,561.14a456.514,456.514,0,0,1-6.983,68.1" fill="none" stroke="#4f722d" stroke-miterlimit="10" stroke-width="1.654"/>
          </g>
          <g id="Grupo_306" data-name="Grupo 306">
            <path id="Trazado_995" data-name="Trazado 995" d="M739.3,652.677a269.924,269.924,0,0,0,33.544-21.939A420.512,420.512,0,0,1,789.8,671.386a296.182,296.182,0,0,1-36.507,19.608A377.523,377.523,0,0,0,739.3,652.677Z" fill="none" stroke="#4f722d" stroke-miterlimit="10" stroke-width="2.551"/>
            <path id="Trazado_996" data-name="Trazado 996" d="M751.7,657.293q8.91-5.015,17.378-10.823c2.894,6.713,5.622,13.462,8.206,20.3q-8.86,5.5-18.139,10.224Q755.739,667.026,751.7,657.293Z" fill="none" stroke="#4f722d" stroke-miterlimit="10" stroke-width="1.654"/>
            <path id="Trazado_997" data-name="Trazado 997" d="M764.6,662.08l-.178.1c-.031-.081-.047-.121-.078-.2l.178-.106c.031.08.047.12.078.2m4.812,1.781c-1.2-3.129-1.81-4.682-3.075-7.764-2.713,1.7-4.073,2.522-6.8,4.106,1.219,3.047,1.812,4.582,2.962,7.675,2.77-1.548,4.153-2.352,6.912-4.017Z" fill="none" stroke="#4f722d" stroke-miterlimit="10" stroke-width="1"/>
            <path id="Trazado_998" data-name="Trazado 998" d="M772.84,630.738a409.538,409.538,0,0,1-18.974,58.975" fill="none" stroke="#4f722d" stroke-miterlimit="10" stroke-width="1.654"/>
          </g>
          <g id="Grupo_307" data-name="Grupo 307">
            <path id="Trazado_999" data-name="Trazado 999" d="M716.705,703.344c12.543-3.582,24.438-7.6,36.589-12.35a387.5,387.5,0,0,1,9.221,40.912c-13,3.956-25.719,7.234-39.013,10.029C721.705,728.884,719.478,716.223,716.705,703.344Z" fill="none" stroke="#4f722d" stroke-miterlimit="10" stroke-width="2.551"/>
            <path id="Trazado_1000" data-name="Trazado 1000" d="M727.966,710.392q9.528-2.582,18.854-5.966,2.512,10.14,4.353,20.436-9.645,3.081-19.476,5.37Q730.164,720.251,727.966,710.392Z" fill="none" stroke="#4f722d" stroke-miterlimit="10" stroke-width="1.654"/>
            <path id="Trazado_1001" data-name="Trazado 1001" d="M739.671,717.7l-.192.057-.04-.2.192-.057.04.2m4.364,2.72c-.6-3.143-.924-4.707-1.6-7.816-2.944.945-4.415,1.391-7.352,2.232.643,3.074.946,4.62,1.512,7.727,2.973-.8,4.462-1.233,7.444-2.143Z" fill="none" stroke="#4f722d" stroke-miterlimit="10" stroke-width="1"/>
            <path id="Trazado_1002" data-name="Trazado 1002" d="M753.294,690.994a384.928,384.928,0,0,1-29.007,49.875" fill="none" stroke="#4f722d" stroke-miterlimit="10" stroke-width="1.654"/>
          </g>
          <g id="Grupo_308" data-name="Grupo 308">
            <path id="Trazado_1003" data-name="Trazado 1003" d="M685.663,745.529c12.8-.646,25.143-1.824,37.839-3.594,1.062,13.543,1.6,26.795,1.654,40.379-13.36.983-26.358,1.4-39.754,1.277C685.979,770.8,686.068,758.324,685.663,745.529Z" fill="none" stroke="#4f722d" stroke-miterlimit="10" stroke-width="2.551"/>
            <path id="Trazado_1004" data-name="Trazado 1004" d="M695.379,754.6q9.72-.384,19.422-1.531.634,10.068.585,20.167-9.953.844-19.914.935Q695.76,764.392,695.379,754.6Z" fill="none" stroke="#4f722d" stroke-miterlimit="10" stroke-width="1.654"/>
            <path id="Trazado_1005" data-name="Trazado 1005" d="M705.473,764.016l-.2.012c0-.079,0-.119,0-.2l.2-.012c0,.079,0,.119,0,.2m3.762,3.5c-.026-3.095-.059-4.638-.166-7.712-3.035.254-4.546.357-7.556.52.078,3.039.1,4.564.093,7.624,3.038-.127,4.564-.213,7.629-.432Z" fill="none" stroke="#4f722d" stroke-miterlimit="10" stroke-width="1"/>
            <path id="Trazado_1006" data-name="Trazado 1006" d="M723.5,741.935a306.375,306.375,0,0,1-37.145,40.8" fill="none" stroke="#4f722d" stroke-miterlimit="10" stroke-width="1.654"/>
          </g>
        </g>
        <g id="Grupo_314" data-name="Grupo 314">
          <g id="Grupo_310" data-name="Grupo 310">
            <path id="Trazado_1007" data-name="Trazado 1007" d="M647.86,779.245c12.573,1.989,24.848,3.406,37.542,4.346-1.383,13.19-3.219,26-5.583,39.053-13.2-1.729-25.972-3.91-38.992-6.67C643.662,803.721,645.972,791.679,647.86,779.245Z" fill="none" stroke="#4f722d" stroke-miterlimit="10" stroke-width="2.551"/>
            <path id="Trazado_1008" data-name="Trazado 1008" d="M655.726,789.95q9.547,1.6,19.212,2.492-1.177,9.795-3.023,19.494-9.852-1.2-19.584-3.089Q654.351,799.462,655.726,789.95Z" fill="none" stroke="#4f722d" stroke-miterlimit="10" stroke-width="1.654"/>
            <path id="Trazado_1009" data-name="Trazado 1009" d="M663.9,801.052l-.194-.028c.013-.076.019-.115.032-.192l.194.028c-.013.076-.019.115-.032.192m3.044,4.133c.526-2.986.768-4.477,1.212-7.453-3-.372-4.5-.58-7.46-1.033-.467,2.941-.72,4.415-1.268,7.364,2.986.488,4.489.713,7.516,1.122Z" fill="none" stroke="#4f722d" stroke-miterlimit="10" stroke-width="1"/>
            <path id="Trazado_1010" data-name="Trazado 1010" d="M685.4,783.591a315.88,315.88,0,0,1-43.49,31.742" fill="none" stroke="#4f722d" stroke-miterlimit="10" stroke-width="1.654"/>
          </g>
          <g id="Grupo_311" data-name="Grupo 311">
            <path id="Trazado_1011" data-name="Trazado 1011" d="M604.9,804.492c11.925,4.339,23.693,8.1,35.923,11.482-3.7,12.555-7.768,24.675-12.382,36.923-12.59-4.177-24.713-8.709-36.953-13.825C596.436,827.623,600.839,816.282,604.9,804.492Z" fill="none" stroke="#4f722d" stroke-miterlimit="10" stroke-width="2.551"/>
            <path id="Trazado_1012" data-name="Trazado 1012" d="M610.7,816.427q9.059,3.376,18.339,6.109-2.9,9.316-6.414,18.413-9.411-3.036-18.6-6.712Q607.653,825.455,610.7,816.427Z" fill="none" stroke="#4f722d" stroke-miterlimit="10" stroke-width="1.654"/>
            <path id="Trazado_1013" data-name="Trazado 1013" d="M616.711,828.808l-.185-.064c.027-.073.04-.109.066-.182l.185.064c-.026.073-.039.109-.066.182m2.243,4.61c1.044-2.813,1.545-4.22,2.508-7.036-2.87-.937-4.293-1.424-7.111-2.429-.978,2.78-1.488,4.17-2.547,6.946,2.833,1.041,4.263,1.545,7.15,2.519Z" fill="none" stroke="#4f722d" stroke-miterlimit="10" stroke-width="1"/>
            <path id="Trazado_1014" data-name="Trazado 1014" d="M640.827,815.974a334.69,334.69,0,0,1-48.159,22.671" fill="none" stroke="#4f722d" stroke-miterlimit="10" stroke-width="1.654"/>
          </g>
          <g id="Grupo_312" data-name="Grupo 312">
            <path id="Trazado_1015" data-name="Trazado 1015" d="M558.318,821.257c10.918,6.414,21.8,12.253,33.174,17.815-5.851,11.634-11.983,22.791-18.659,33.972-11.606-6.364-22.711-12.99-33.819-20.189C545.892,842.481,552.23,832.113,558.318,821.257Z" fill="none" stroke="#4f722d" stroke-miterlimit="10" stroke-width="2.551"/>
            <path id="Trazado_1016" data-name="Trazado 1016" d="M561.879,834.018q8.293,4.951,16.9,9.321-4.5,8.622-9.545,16.914-8.687-4.676-17.064-9.931Q557.287,842.345,561.879,834.018Z" fill="none" stroke="#4f722d" stroke-miterlimit="10" stroke-width="1.654"/>
            <path id="Trazado_1017" data-name="Trazado 1017" d="M565.585,847.261l-.17-.1.1-.166.17.1c-.038.067-.057.1-.1.166m1.383,4.933c1.522-2.575,2.263-3.866,3.7-6.456-2.648-1.44-3.957-2.174-6.543-3.67-1.452,2.554-2.2,3.828-3.729,6.366,2.595,1.53,3.909,2.283,6.567,3.76Z" fill="none" stroke="#4f722d" stroke-miterlimit="10" stroke-width="1"/>
            <path id="Trazado_1018" data-name="Trazado 1018" d="M591.492,839.072a456.866,456.866,0,0,1-51.247,13.571" fill="none" stroke="#4f722d" stroke-miterlimit="10" stroke-width="1.654"/>
          </g>
          <g id="Grupo_313" data-name="Grupo 313">
            <path id="Trazado_1019" data-name="Trazado 1019" d="M509.561,829.515c9.6,8.214,19.265,15.869,29.453,23.34-7.808,10.422-15.809,20.335-24.34,30.174-10.3-8.283-20.06-16.737-29.727-25.746C493.557,848.261,501.64,839.148,509.561,829.515Z" fill="none" stroke="#4f722d" stroke-miterlimit="10" stroke-width="2.551"/>
            <path id="Trazado_1020" data-name="Trazado 1020" d="M510.8,842.694q7.284,6.32,14.966,12.124-5.949,7.7-12.377,14.986-7.716-6.116-15.037-12.742Q504.8,850.1,510.8,842.694Z" fill="none" stroke="#4f722d" stroke-miterlimit="10" stroke-width="1.654"/>
            <path id="Trazado_1021" data-name="Trazado 1021" d="M512.1,856.377l-.15-.125.125-.147.15.125-.125.147m.489,5.1c1.952-2.269,2.909-3.413,4.786-5.71-2.349-1.88-3.507-2.831-5.786-4.752-1.881,2.261-2.841,3.385-4.8,5.618,2.283,1.958,3.443,2.928,5.8,4.844Z" fill="none" stroke="#4f722d" stroke-miterlimit="10" stroke-width="1"/>
            <path id="Trazado_1022" data-name="Trazado 1022" d="M539.014,852.855a467.189,467.189,0,0,1-52.818,4.432" fill="none" stroke="#4f722d" stroke-miterlimit="10" stroke-width="1.654"/>
          </g>
        </g>
        <g id="Grupo_319" data-name="Grupo 319">
          <g id="Grupo_315" data-name="Grupo 315">
            <path id="Trazado_1023" data-name="Trazado 1023" d="M460.063,829.245c8,9.734,16.172,18.931,24.884,28.038-9.543,8.917-19.185,17.3-29.34,25.51-8.694-9.929-16.836-19.932-24.785-30.468C440.931,844.936,450.53,837.363,460.063,829.245Z" fill="none" stroke="#4f722d" stroke-miterlimit="10" stroke-width="2.551"/>
            <path id="Trazado_1024" data-name="Trazado 1024" d="M458.935,842.426Q465,849.9,471.54,856.933q-7.233,6.561-14.864,12.619-6.529-7.348-12.579-15.131Q451.7,848.679,458.935,842.426Z" fill="none" stroke="#4f722d" stroke-miterlimit="10" stroke-width="1.654"/>
            <path id="Trazado_1025" data-name="Trazado 1025" d="M457.784,856.114l-.126-.148.149-.123.126.148-.149.123m-.423,5.1c2.329-1.9,3.476-2.858,5.735-4.8-1.984-2.254-2.956-3.39-4.863-5.672-2.258,1.9-3.4,2.843-5.731,4.7,1.9,2.32,2.876,3.474,4.859,5.766Z" fill="none" stroke="#4f722d" stroke-miterlimit="10" stroke-width="1"/>
            <path id="Trazado_1026" data-name="Trazado 1026" d="M484.947,857.283a468.264,468.264,0,0,1-52.891-4.738" fill="none" stroke="#4f722d" stroke-miterlimit="10" stroke-width="1.654"/>
          </g>
          <g id="Grupo_316" data-name="Grupo 316">
            <path id="Trazado_1027" data-name="Trazado 1027" d="M411.253,820.439c6.166,10.966,12.587,21.421,19.569,31.886C419.8,859.443,408.784,866,397.276,872.3c-6.833-11.292-13.1-22.555-19.074-34.323C389.531,832.5,400.372,826.755,411.253,820.439Z" fill="none" stroke="#4f722d" stroke-miterlimit="10" stroke-width="2.551"/>
            <path id="Trazado_1028" data-name="Trazado 1028" d="M407.776,833.2q4.65,8.4,9.864,16.457-8.315,5.191-16.946,9.813-5.151-8.371-9.737-17.082Q399.514,838.083,407.776,833.2Z" fill="none" stroke="#4f722d" stroke-miterlimit="10" stroke-width="1.654"/>
            <path id="Trazado_1029" data-name="Trazado 1029" d="M404.189,846.455c-.039-.067-.058-.1-.1-.168l.169-.095c.04.067.059.1.1.168l-.169.1m-1.329,4.939c2.641-1.457,3.947-2.2,6.526-3.712-1.558-2.563-2.317-3.849-3.793-6.426-2.572,1.474-3.874,2.2-6.508,3.62,1.469,2.614,2.224,3.918,3.775,6.518Z" fill="none" stroke="#4f722d" stroke-miterlimit="10" stroke-width="1"/>
            <path id="Trazado_1030" data-name="Trazado 1030" d="M430.822,852.325a460.247,460.247,0,0,1-51.439-13.914" fill="none" stroke="#4f722d" stroke-miterlimit="10" stroke-width="1.654"/>
          </g>
          <g id="Grupo_317" data-name="Grupo 317">
            <path id="Trazado_1031" data-name="Trazado 1031" d="M364.6,803.114c4.114,11.9,8.577,23.32,13.6,34.862-12.2,5.027-24.276,9.478-36.816,13.575-4.734-12.366-8.895-24.589-12.672-37.281C340.926,810.993,352.682,807.342,364.6,803.114Z" fill="none" stroke="#4f722d" stroke-miterlimit="10" stroke-width="2.551"/>
            <path id="Trazado_1032" data-name="Trazado 1032" d="M358.849,815.032q3.076,9.093,6.788,17.963-9.156,3.6-18.548,6.573-3.594-9.181-6.549-18.583Q349.8,818.328,358.849,815.032Z" fill="none" stroke="#4f722d" stroke-miterlimit="10" stroke-width="1.654"/>
            <path id="Trazado_1033" data-name="Trazado 1033" d="M352.9,827.411c-.026-.073-.04-.109-.066-.182l.184-.063.067.183-.185.062m-2.209,4.614c2.879-.952,4.306-1.445,7.132-2.463-1.08-2.8-1.6-4.2-2.593-7.006-2.812.981-4.232,1.456-7.1,2.37.98,2.84,1.491,4.26,2.557,7.1Z" fill="none" stroke="#4f722d" stroke-miterlimit="10" stroke-width="1"/>
            <path id="Trazado_1034" data-name="Trazado 1034" d="M378.2,837.976a338.771,338.771,0,0,1-48.4-23.056" fill="none" stroke="#4f722d" stroke-miterlimit="10" stroke-width="1.654"/>
          </g>
          <g id="Grupo_318" data-name="Grupo 318">
            <path id="Trazado_1035" data-name="Trazado 1035" d="M321.63,777.323c1.885,12.519,4.21,24.617,7.084,36.947-13.014,2.651-25.779,4.726-38.961,6.348-2.419-13.146-4.283-26.032-5.671-39.327C296.772,780.476,309.051,779.183,321.63,777.323Z" fill="none" stroke="#4f722d" stroke-miterlimit="10" stroke-width="2.551"/>
            <path id="Trazado_1036" data-name="Trazado 1036" d="M313.757,787.977q1.371,9.555,3.426,19.015-9.72,1.808-19.576,2.917-1.877-9.768-3.063-19.626Q304.2,789.48,313.757,787.977Z" fill="none" stroke="#4f722d" stroke-miterlimit="10" stroke-width="1.654"/>
            <path id="Trazado_1037" data-name="Trazado 1037" d="M305.6,799.043c-.013-.077-.019-.116-.032-.193l.194-.027c.013.078.019.117.032.194l-.194.026m-3.035,4.124c3.026-.381,4.529-.592,7.514-1.053-.555-2.97-.812-4.453-1.281-7.411-2.964.424-4.456.617-7.46.962.448,2.994.693,4.495,1.227,7.5Z" fill="none" stroke="#4f722d" stroke-miterlimit="10" stroke-width="1"/>
            <path id="Trazado_1038" data-name="Trazado 1038" d="M328.714,814.27a319.749,319.749,0,0,1-43.674-32.117" fill="none" stroke="#4f722d" stroke-miterlimit="10" stroke-width="1.654"/>
          </g>
        </g>
        <g id="Grupo_324" data-name="Grupo 324">
          <g id="Grupo_320" data-name="Grupo 320">
            <path id="Trazado_1039" data-name="Trazado 1039" d="M283.958,743.147c-.474,12.829-.429,25.318.124,38.144-13.4,0-26.4-.553-39.754-1.664.08-13.627.671-26.887,1.813-40.466C258.822,741.059,271.159,742.365,283.958,743.147Z" fill="none" stroke="#4f722d" stroke-miterlimit="10" stroke-width="2.551"/>
            <path id="Trazado_1040" data-name="Trazado 1040" d="M274.191,752.128q-.432,9.788-.164,19.614-9.954-.189-19.912-1.135-.024-10.126.661-20.21Q264.464,751.641,274.191,752.128Z" fill="none" stroke="#4f722d" stroke-miterlimit="10" stroke-width="1.654"/>
            <path id="Trazado_1041" data-name="Trazado 1041" d="M264.056,761.453c0-.079,0-.119,0-.2l.2.014c0,.08,0,.12,0,.2l-.2-.014m-3.774,3.475c3.064.25,4.59.351,7.628.509.006-3.068.031-4.6.12-7.641-3.008-.193-4.519-.312-7.553-.6-.12,3.08-.159,4.626-.195,7.73Z" fill="none" stroke="#4f722d" stroke-miterlimit="10" stroke-width="1"/>
            <path id="Trazado_1042" data-name="Trazado 1042" d="M284.082,781.291a307.626,307.626,0,0,1-37.158-41.06" fill="none" stroke="#4f722d" stroke-miterlimit="10" stroke-width="1.654"/>
          </g>
          <g id="Grupo_321" data-name="Grupo 321">
            <path id="Trazado_1043" data-name="Trazado 1043" d="M253.269,700.69c-2.9,12.839-5.237,25.444-7.128,38.471-13.273-2.928-25.976-6.33-38.943-10.408a370.227,370.227,0,0,1,9.618-40.732C228.915,692.866,240.771,696.994,253.269,700.69Z" fill="none" stroke="#4f722d" stroke-miterlimit="10" stroke-width="2.551"/>
            <path id="Trazado_1044" data-name="Trazado 1044" d="M241.936,707.6q-2.295,9.805-3.906,19.771-9.8-2.379-19.433-5.556,1.928-10.258,4.546-20.352Q232.424,704.927,241.936,707.6Z" fill="none" stroke="#4f722d" stroke-miterlimit="10" stroke-width="1.654"/>
            <path id="Trazado_1045" data-name="Trazado 1045" d="M230.162,714.779c.017-.08.025-.12.042-.2l.191.059c-.017.08-.025.12-.042.2l-.191-.059m-4.389,2.673c2.974.937,4.46,1.379,7.426,2.213.593-3.1.91-4.638,1.582-7.7-2.929-.868-4.4-1.327-7.331-2.3-.71,3.1-1.046,4.654-1.677,7.787Z" fill="none" stroke="#4f722d" stroke-miterlimit="10" stroke-width="1"/>
            <path id="Trazado_1046" data-name="Trazado 1046" d="M246.141,739.161A380.741,380.741,0,0,1,217.379,689.3" fill="none" stroke="#4f722d" stroke-miterlimit="10" stroke-width="1.654"/>
          </g>
          <g id="Grupo_322" data-name="Grupo 322">
            <path id="Trazado_1047" data-name="Trazado 1047" d="M231.3,650.06a365.072,365.072,0,0,0-14.487,37.961,297.531,297.531,0,0,1-36.268-19.846A407.494,407.494,0,0,1,198.072,628,270.347,270.347,0,0,0,231.3,650.06Z" fill="none" stroke="#4f722d" stroke-miterlimit="10" stroke-width="2.551"/>
            <path id="Trazado_1048" data-name="Trazado 1048" d="M218.836,654.527q-4.17,9.62-7.7,19.508-9.21-4.771-18.008-10.331c2.674-6.771,5.494-13.446,8.482-20.078Q209.985,649.453,218.836,654.527Z" fill="none" stroke="#4f722d" stroke-miterlimit="10" stroke-width="1.654"/>
            <path id="Trazado_1049" data-name="Trazado 1049" d="M205.87,659.16c.033-.079.049-.119.081-.2l.177.106-.081.2-.177-.106m-4.835,1.725c2.737,1.68,4.109,2.49,6.859,4.055,1.191-3.062,1.8-4.582,3.064-7.6-2.7-1.6-4.054-2.425-6.743-4.139-1.307,3.048-1.944,4.584-3.18,7.681Z" fill="none" stroke="#4f722d" stroke-miterlimit="10" stroke-width="1"/>
            <path id="Trazado_1050" data-name="Trazado 1050" d="M216.816,688.021a399.281,399.281,0,0,1-18.446-58.545" fill="none" stroke="#4f722d" stroke-miterlimit="10" stroke-width="1.654"/>
          </g>
          <g id="Grupo_323" data-name="Grupo 323">
            <path id="Trazado_1051" data-name="Trazado 1051" d="M219.791,591.326A405.339,405.339,0,0,0,198.072,628a294.679,294.679,0,0,1-31.509-29.977c7.966-13.3,16.34-26.2,25.255-38.88A277.428,277.428,0,0,0,219.791,591.326Z" fill="none" stroke="#4f722d" stroke-miterlimit="10" stroke-width="2.551"/>
            <path id="Trazado_1052" data-name="Trazado 1052" d="M206.727,592.979q-5.93,9.308-11.429,18.852c-5.358-5-10.5-10.129-15.533-15.461q5.97-9.855,12.338-19.42C196.811,582.457,201.6,587.851,206.727,592.979Z" fill="none" stroke="#4f722d" stroke-miterlimit="10" stroke-width="1.654"/>
            <path id="Trazado_1053" data-name="Trazado 1053" d="M193.136,594.691l.118-.191.151.157-.118.192c-.061-.063-.091-.094-.151-.158m-5.072.638c2.336,2.477,3.514,3.683,5.889,6.034,1.777-2.966,2.681-4.435,4.517-7.343-2.321-2.384-3.473-3.608-5.754-6.119-1.889,2.941-2.82,4.427-4.652,7.428Z" fill="none" stroke="#4f722d" stroke-miterlimit="10" stroke-width="1"/>
            <path id="Trazado_1054" data-name="Trazado 1054" d="M198.072,628a461.8,461.8,0,0,1-6.264-67.174" fill="none" stroke="#4f722d" stroke-miterlimit="10" stroke-width="1.654"/>
          </g>
        </g>
      </g>
    </g>
    <circle id="Elipse_5" data-name="Elipse 5" cx="324.878" cy="324.878" r="324.878" transform="translate(161.385 236.184)" fill="none" stroke="#4f722d" stroke-miterlimit="10" stroke-width="4"/>
    <circle id="Elipse_6" data-name="Elipse 6" cx="267.604" cy="267.604" r="267.604" transform="translate(218.659 293.457)" fill="none" stroke="#4f722d" stroke-miterlimit="10" stroke-width="3.295"/>
  </g>
</svg>
