<svg xmlns="http://www.w3.org/2000/svg" width="281.787" height="553.053" viewBox="0 0 281.787 553.053">
  <g id="Grupo_515" data-name="Grupo 515" transform="translate(447.893 835.127) rotate(180)">
    <path id="Trazado_146" data-name="Trazado 146" d="M429.827,673.585c-1.586.057-3.168.121-4.768.121a131.129,131.129,0,0,1,0-262.258c1.6,0,3.182.063,4.768.12V338.895c-1.59-.036-3.168-.121-4.768-.121-112.555,0-203.8,91.246-203.8,203.8s91.247,203.8,203.8,203.8c1.6,0,3.178-.084,4.768-.12Z" transform="translate(15.566 16.027)" fill="none" stroke="#e5661d" stroke-miterlimit="10" stroke-width="5"/>
    <path id="Trazado_147" data-name="Trazado 147" d="M416.929,672.129a79.051,79.051,0,1,1-140.917-62.174" transform="translate(27.088 96.216)" fill="none" stroke="#e5661d" stroke-miterlimit="10" stroke-width="5" opacity="0.5"/>
    <path id="Trazado_148" data-name="Trazado 148" d="M369.809,661.533a40.553,40.553,0,1,1-73.187-32.215" transform="translate(35.873 101.942)" fill="none" stroke="#e5661d" stroke-miterlimit="10" stroke-width="5"/>
    <path id="Trazado_149" data-name="Trazado 149" d="M294.479,637.56A79.051,79.051,0,1,1,233.63,496.065" transform="translate(0 62.539)" fill="none" stroke="#e5661d" stroke-miterlimit="10" stroke-width="5"/>
    <path id="Trazado_150" data-name="Trazado 150" d="M260.939,599.125a40.553,40.553,0,1,1-31.655-73.43" transform="translate(8.786 71.3)" fill="none" stroke="#e5661d" stroke-miterlimit="10" stroke-width="5"/>
    <path id="Trazado_151" data-name="Trazado 151" d="M416.908,348.285A79.051,79.051,0,1,0,276.452,411.5" transform="translate(27.114 0)" fill="none" stroke="#e5661d" stroke-miterlimit="10" stroke-width="5"/>
    <path id="Trazado_152" data-name="Trazado 152" d="M369.809,344.946a40.553,40.553,0,1,0-73.187,32.214" transform="translate(35.873 8.787)" fill="none" stroke="#e5661d" stroke-miterlimit="10" stroke-width="5"/>
    <path id="Trazado_153" data-name="Trazado 153" d="M294.479,388.173A79.051,79.051,0,1,0,233.63,529.668" transform="translate(0 26.098)" fill="none" stroke="#e5661d" stroke-miterlimit="10" stroke-width="5" opacity="0.5"/>
    <path id="Trazado_154" data-name="Trazado 154" d="M260.939,409.061a40.553,40.553,0,1,0-31.655,73.43" transform="translate(8.786 34.884)" fill="none" stroke="#e5661d" stroke-miterlimit="10" stroke-width="5"/>
  </g>
</svg>
