<?xml version="1.0" encoding="utf-8"?>
<!-- Generator: Adobe Illustrator 24.0.1, SVG Export Plug-In . SVG Version: 6.00 Build 0)  -->
<svg version="1.1" id="Capa_1" xmlns="http://www.w3.org/2000/svg" xmlns:xlink="http://www.w3.org/1999/xlink" x="0px" y="0px"
	 viewBox="0 0 497.4 497.2" style="enable-background:new 0 0 497.4 497.2;" xml:space="preserve">
<style type="text/css">
	.st0{opacity:0.5;}
	.st1{fill:#FEFEFE;}
</style>
<g id="obPO7Y_1_" class="st0">
	<g>
		<path class="st1" d="M248.8-0.1C111.6-0.2,0,111.4,0,248.6c0,137,111,248.3,248.2,248.7c137.1,0.4,248.8-110.9,249.2-248.4
			C497.7,111.8,386.2,0.1,248.8-0.1z M225.1,248.6c0,37.5-0.1,75.1,0.1,112.6c0,4.5-0.9,5.9-5.6,5.8c-24-0.3-48-0.2-72,0
			c-4.4,0-5.3-1.3-5.3-5.5c0.1-75.3,0.1-150.6,0-225.9c0-4.1,0.9-5.5,5.3-5.5c24,0.2,48,0.2,72,0c4.7,0,5.7,1.3,5.7,5.8
			C225,173.5,225.1,211.1,225.1,248.6z M355.2,361.6c0,4.2-0.9,5.5-5.3,5.5c-24-0.2-48-0.2-72,0c-4.7,0.1-5.7-1.3-5.7-5.8
			c0.2-37.5,0.1-75.1,0.1-112.6s0.1-75.1-0.1-112.6c0-4.5,1-5.9,5.7-5.8c24,0.3,48,0.2,72,0c4.4,0,5.3,1.3,5.3,5.5
			C355.1,211,355.1,286.3,355.2,361.6z"/>
	</g>
</g>
</svg>
