<?xml version="1.0" encoding="utf-8"?>
<!-- Generator: Adobe Illustrator 24.0.1, SVG Export Plug-In . SVG Version: 6.00 Build 0)  -->
<svg version="1.1" id="Capa_1" xmlns="http://www.w3.org/2000/svg" xmlns:xlink="http://www.w3.org/1999/xlink" x="0px" y="0px"
	 viewBox="0 0 2058.6 1634.8" style="enable-background:new 0 0 2058.6 1634.8;" xml:space="preserve">
<style type="text/css">
	.st0{fill:none;stroke:#000000;stroke-miterlimit:10;}
	.st1{fill:none;stroke:#000000;stroke-miterlimit:10;stroke-dasharray:12.16,12.16;}
	.st2{fill:#FCFCFC;}
	.st3{fill:#FFFFFF;}
	.st4{fill:#AA2937;}
	.st5{font-family:'HoeflerText-Black';}
	.st6{font-size:23.7533px;}
	.st7{fill:#EDD246;}
	.st8{font-size:20.9275px;}
</style>
<g id="Capa_15">
	<line class="st0" x1="65" y1="198.1" x2="71" y2="198.1"/>
	<line class="st1" x1="83.2" y1="198.1" x2="904.1" y2="198.1"/>
	<line class="st1" x1="83.2" y1="1525.5" x2="904.1" y2="1525.5"/>
	<line class="st0" x1="910.2" y1="198.1" x2="916.2" y2="198.1"/>
	<line class="st0" x1="65" y1="860.2" x2="71" y2="860.2"/>
	<line class="st0" x1="65" y1="1520.5" x2="71" y2="1520.5"/>
</g>
<g id="Textos">
	<path class="st2" d="M253.7,707.2c1.2,0.2,2.5,1.2,5.6,3.5c1.1,0.8,1.5,1.3,1.4,2.1s-0.8,1.2-1.4,1.7l-3.6,18.3
		c-0.4,0.3-1,0.4-1.5,0.2c-0.9,0-1.5-0.8-1.5-1.7c0-0.1,0-0.2,0.1-0.3l0.4-1.8l-25.2-5l-0.4,1.8c-0.1,0.9-0.9,1.5-1.8,1.4
		c-0.1,0-0.3,0-0.4-0.1c-0.5-0.1-1-0.4-1.2-0.8l3.5-17.7c-0.5-0.6-0.7-1.4-0.6-2.2c0.2-1.2,1.5-1.3,2.8-1.5l3.7-0.6
		c0.8-0.2,1.7-0.2,2.5-0.1c0.7,0.1,1.2,0.8,1,1.5v0.1c-0.2,1.1-1.2,1.2-2.7,1.8c-2.4,0.8-3.5,1.2-3.9,3.1l-1.5,7.3l10.6,2.1l1.4-6.9
		c-0.8-0.5-1.9-0.8-1.7-2c0.1-0.6,0.6-1,1.9-1.2c2.2-0.4,4.3-0.8,5.3-0.6c0.7,0.1,1.1,0.8,1,1.4v0.1c-0.1,0.7-0.6,1-1.6,1.4
		s-1.9,0.7-2.2,2.3l-1.2,6.1l12.2,2.4l1.4-7c0.5-2.5-0.6-3.7-1.9-5.1s-2-2-1.8-3c0.1-0.7,0.8-1.3,1.5-1.2
		C253.6,707.2,253.6,707.2,253.7,707.2z"/>
	<path class="st2" d="M266.3,671.9c0.1-0.9,0.9-1.4,1.8-1.3c0.1,0,0.2,0.1,0.4,0.1c0.5,0.1,0.9,0.4,1.2,0.8l-2.8,10.7
		c-0.4,0.2-0.9,0.3-1.4,0.1c-0.8-0.1-1.5-0.8-1.4-1.7c0-0.1,0-0.2,0.1-0.3l0.4-1.6l-10.1-2.6c-3.4-0.9-5.8-0.4-6.7,2.9
		c-0.8,2.4,0.6,5,3,5.7c0.1,0,0.3,0.1,0.4,0.1l11.1,2.9l0.4-1.5c0.1-0.9,0.9-1.4,1.8-1.3c0.1,0,0.3,0.1,0.4,0.1
		c0.5,0.1,0.9,0.4,1.2,0.8l-2.8,10.7c-0.4,0.2-0.9,0.3-1.4,0.1c-0.8-0.1-1.5-0.9-1.4-1.7c0-0.1,0-0.2,0.1-0.3l0.4-1.6l-15.6-4
		l-0.4,1.6c-0.1,0.8-0.9,1.4-1.8,1.2c-0.1,0-0.2,0-0.3-0.1c-0.5-0.1-0.9-0.4-1.2-0.8l2.1-8l3.5,0.9l0,0c-2.2-1.9-3.1-4.9-2.2-7.7
		c1.3-4.9,5.3-6.7,10.5-5.4l10.5,2.7L266.3,671.9z"/>
	<path class="st2" d="M263.7,652.5c4.9,1.7,8.8,0.5,10.1-3.7c1.2-4-1.5-6-1-7.7c0.2-0.7,0.9-1.1,1.6-0.8c0.1,0,0.1,0,0.2,0.1
		c1.8,0.6,3.9,4.7,2.1,10.2c-2.1,6.6-7.2,10-14.7,7.6c-6.1-1.9-9.9-7.6-7.7-14.8c2-6.3,7.1-8.4,12.3-6.8c0.7,0.2,1.3,0.4,1.9,0.8
		L263.7,652.5z M261.3,651.7l3-9.7c-0.2-0.1-0.5-0.2-0.7-0.3c-2.7-0.8-5.7-0.4-6.7,3C255.9,647.7,258,650.2,261.3,651.7L261.3,651.7
		z"/>
	<path class="st2" d="M269.6,605.8c2.7,1,1.6,3.1,2.2,6.9c0.5,2.8,0.4,4.1,2.2,5.1l8.9,3.3l0.7-1.8c0.3-0.8,1.1-1.3,1.9-1
		c0.1,0,0.2,0.1,0.3,0.1c0.4,0.2,0.8,0.5,1.1,0.9L283,630c-0.5,0.2-1,0.2-1.4,0c-0.8-0.2-1.4-1-1.2-1.8c0-0.1,0.1-0.2,0.1-0.3
		l0.6-1.5l-15.1-5.6l-0.6,1.5c-0.2,0.8-1.1,1.3-1.9,1c-0.1,0-0.2-0.1-0.3-0.1c-0.5-0.2-0.9-0.5-1.1-0.9l2.9-7.8l6.2,2.2l0,0
		c-3.7-3.2-4.9-7.3-4-9.8c0.3-1,1.3-1.5,2.2-1.3C269.4,605.6,269.5,605.7,269.6,605.8z"/>
	<path class="st2" d="M282.6,599.8c-6.4-2.7-9.4-8.7-6.4-15.7c2.6-6.3,8.3-8.9,14.9-6.1c6.3,2.7,9.5,8.8,6.6,15.7
		C295,600,289.2,602.5,282.6,599.8z M288.9,583.5c-4.2-1.8-8.7-1.5-10.2,2s2,7,6.1,8.7c4.4,1.8,8.7,1.5,10.2-2
		S293.1,585.3,288.9,583.5z"/>
	<path class="st2" d="M372.5,420c0.8,0.2,1.6,0.5,2.3,1c0.6,0.4,0.7,1.3,0.2,1.8c0,0,0,0-0.1,0.1c-0.7,0.9-1.7,0.6-3.2,0.4
		c-2.5-0.3-3.7-0.5-4.9,1.1l-4.6,5.9l9.2,7.1l4.3-5.6c-0.5-0.8-1.4-1.6-0.6-2.6c0.4-0.5,0.9-0.7,2.2-0.3c2.2,0.6,4.2,1.2,5,1.8
		c0.5,0.4,0.7,1.2,0.3,1.7l-0.1,0.1c-0.4,0.5-0.9,0.6-2.1,0.6c-1.1-0.1-2-0.2-2.9,1.1l-3.8,4.9l9,6.9l1.4-1.7c0.5-0.7,1.4-1,2.2-0.5
		c0.1,0.1,0.2,0.2,0.3,0.3c0.4,0.3,0.7,0.7,0.8,1.3l-7.6,9.9c-0.5,0.1-1.1-0.1-1.5-0.4c-0.8-0.4-1-1.4-0.6-2.1
		c0.1-0.1,0.1-0.2,0.2-0.3l1.1-1.4l-20.4-15.7l-1.1,1.4c-0.5,0.7-1.4,1-2.2,0.5c-0.1-0.1-0.2-0.2-0.3-0.3c-0.4-0.3-0.7-0.8-0.8-1.3
		l11-14.3c-0.1-0.8,0-1.6,0.4-2.3c0.8-1,1.9-0.5,3.1-0.1L372.5,420z"/>
	<path class="st2" d="M396.4,416.4c3.9,3.4,7.9,3.9,10.7,0.6s0.9-6.2,2-7.5c0.5-0.5,1.3-0.6,1.8-0.1l0.1,0.1c1.5,1.2,1.7,5.8-2,10.2
		c-4.5,5.2-10.5,6.4-16.5,1.3c-4.9-4.1-6.2-10.9-1.3-16.6c4.3-5,9.8-5,14-1.5c0.5,0.4,1,0.9,1.4,1.4L396.4,416.4z M394.5,414.7
		l6.6-7.7c-0.2-0.2-0.4-0.4-0.6-0.5c-2.1-1.8-5.1-2.6-7.4,0.1C391.2,408.9,392,412.1,394.5,414.7L394.5,414.7z"/>
	<path class="st2" d="M430.4,378.4c5.3,5,5.5,11.6,0.4,17c-4.2,4.4-7.6,5.1-9.4,4.9l-19.6-18.5l-1.1,1.2c-0.5,0.7-1.5,0.7-2.2,0.2
		c-0.1-0.1-0.1-0.1-0.2-0.2c-0.4-0.3-0.6-0.8-0.7-1.3l5.7-6l10.3,9.7l0,0c-0.8-2.7,0-5.6,1.9-7.6
		C419.7,373.3,425.8,374.1,430.4,378.4z M426.5,382.9c-3.5-3.3-7.5-4.2-9.9-1.6c-2.2,2.3-1.8,5.2,0.5,7.4l6.8,6.4
		c0.8,0.3,2.9,0.4,4.9-1.8C431.3,390.7,430.4,386.6,426.5,382.9L426.5,382.9z"/>
	<path class="st2" d="M445.5,350.6c2,2,0,3.5-1,7.2c-0.8,2.8-1.4,3.8-0.3,5.6l6.6,6.8l1.4-1.3c0.6-0.6,1.5-0.7,2.2-0.1
		c0.1,0.1,0.2,0.2,0.2,0.2c0.3,0.3,0.5,0.8,0.6,1.3l-8.2,7.9c-0.5,0-0.9-0.2-1.3-0.6c-0.7-0.5-0.8-1.5-0.3-2.2
		c0.1-0.1,0.1-0.2,0.2-0.2l1.2-1.1l-11.2-11.6l-1.2,1.1c-0.6,0.6-1.5,0.7-2.2,0.1c-0.1-0.1-0.1-0.1-0.2-0.2
		c-0.4-0.4-0.6-0.8-0.6-1.3l6-5.7l4.5,4.7l0,0c-2-4.5-1.2-8.7,0.7-10.6c0.7-0.7,1.8-0.8,2.6-0.2
		C445.3,350.4,445.4,350.5,445.5,350.6z"/>
	<path class="st2" d="M464,346.7c3.4,4,7.2,5,10.5,2.1s1.8-6,3.1-7.1c0.5-0.5,1.4-0.4,1.8,0.1l0.1,0.1c1.3,1.4,0.9,6-3.5,9.8
		c-5.2,4.6-11.3,4.8-16.5-1.1c-4.2-4.8-4.6-11.6,1.1-16.6c4.9-4.3,10.4-3.6,14,0.5c0.5,0.5,0.9,1,1.2,1.6L464,346.7z M462.4,344.8
		l7.6-6.7c-0.1-0.2-0.3-0.4-0.5-0.6c-1.9-2.1-4.6-3.3-7.3-1C459.9,338.6,460.3,341.8,462.4,344.8L462.4,344.8z"/>
	<path class="st2" d="M493.3,309.8c1.8,2.2-0.3,3.5-1.7,7.1c-1,2.7-1.8,3.7-0.8,5.5l5.9,7.4l1.5-1.2c0.6-0.6,1.6-0.5,2.2,0.1
		c0.1,0.1,0.1,0.2,0.2,0.3c0.3,0.4,0.5,0.8,0.5,1.3l-8.9,7.1c-0.5-0.1-0.9-0.3-1.2-0.7c-0.6-0.6-0.7-1.6-0.1-2.2
		c0.1-0.1,0.1-0.1,0.2-0.2l1.3-1l-10.1-12.6l-1.3,1c-0.6,0.6-1.6,0.5-2.1-0.1c-0.1-0.1-0.1-0.2-0.2-0.3c-0.3-0.4-0.5-0.9-0.5-1.4
		l6.5-5.2l4.1,5.1l0,0c-1.5-4.7-0.5-8.8,1.6-10.5c0.7-0.7,1.9-0.7,2.6,0C493.1,309.5,493.2,309.7,493.3,309.8z"/>
	<path class="st2" d="M507.5,311.5c-4-5.6-3.5-12.3,2.7-16.8c5.5-4,11.7-3.3,15.9,2.5c4,5.5,3.6,12.4-2.5,16.9
		C517.9,318.1,511.7,317.2,507.5,311.5z M521.3,300.8c-2.7-3.7-6.6-5.8-9.8-3.5c-3.1,2.3-1.9,7,0.7,10.6c2.8,3.9,6.7,5.8,9.8,3.6
		C525.2,309.2,524,304.5,521.3,300.8z"/>
	<path class="st2" d="M1616.8,729.8c-0.3,0.4-0.8,0.8-1.4,0.9c-1.3,0.3-2.2-0.2-2.4-1.5l-0.4-2l-20.3,4.2
		c-8.3,1.7-13.2-2.1-14.8-9.6c-1.5-7.3,2.1-11.3,4.9-11.9c1.7-0.3,2.5,0.3,2.8,1.6s-0.4,2.1-1.6,3.5c-1.8,2.2-2.5,4.5-2,6.7
		c0.8,3.8,4.2,4.2,9.4,3.1l20.2-4.2l-0.5-2.5c-0.3-1,0.2-2,1.1-2.3c0.2-0.1,0.3-0.1,0.5-0.1c0.5-0.1,1.1-0.1,1.6,0.2L1616.8,729.8z"
		/>
	<path class="st2" d="M1589.7,765.6c0.2,0.9-0.4,1.9-1.3,2.1c-0.1,0-0.2,0-0.4,0c-0.5,0.1-1.1,0-1.6-0.2l-1.5-9.2l4-0.7l0,0
		c-3.1-1.1-5.3-3.8-5.7-7c-0.9-5.3,1.7-9,8.4-10.1l12-2l-0.3-1.8c-0.2-0.9,0.4-1.8,1.3-2.1c0.1,0,0.2,0,0.3,0c0.6-0.1,1.1,0,1.6,0.3
		l1.5,9.2l-15.1,2.5c-3.9,0.6-6,2.2-5.4,5.6c0.5,3.3,3,5.1,6.1,4.6l12.6-2.1l-0.3-2.1c-0.2-0.9,0.3-1.9,1.2-2.1
		c0.1,0,0.2-0.1,0.4-0.1c0.5-0.1,1.1,0,1.6,0.2l1.6,9.5l-21.3,3.5L1589.7,765.6z"/>
	<path class="st2" d="M1591.6,780.6c0.2,0.9-0.4,1.9-1.3,2.1c-0.1,0-0.3,0-0.4,0c-0.5,0.1-1.1,0-1.5-0.3l-1.6-12.4
		c0.4-0.4,0.9-0.6,1.4-0.7c0.9-0.3,1.9,0.3,2.1,1.2c0,0.1,0.1,0.3,0.1,0.4l0.2,1.8l30-3.8l-0.2-1.8c-0.2-0.9,0.4-1.8,1.3-2.1
		c0.1,0,0.2,0,0.4,0c0.5-0.1,1.1,0,1.6,0.3l1.2,9.3l-33.4,4.3L1591.6,780.6z"/>
	<path class="st2" d="M1593.3,796.4c0.2,1-0.5,1.9-1.4,2c-0.1,0-0.2,0-0.4,0c-0.5,0.1-1.1,0-1.5-0.3l-1.3-12.5
		c0.4-0.4,0.9-0.6,1.4-0.7c0.9-0.2,1.9,0.3,2.1,1.3c0,0.1,0,0.3,0.1,0.4l0.2,1.8l18-1.9l-0.2-1.8c-0.2-0.9,0.4-1.8,1.3-2
		c0.1,0,0.2,0,0.4,0c0.6-0.1,1.1,0,1.6,0.3l1,9.3l-2.1,0.2v0.1l-19.4,2L1593.3,796.4z M1622,784.5c1.8-0.2,3.5,1,3.8,3.5
		s-0.9,3.9-2.8,4s-3.5-1-3.8-3.6S1620,784.7,1622,784.5L1622,784.5z"/>
	<path class="st2" d="M1602.5,799.7c7.7-0.5,13.8,4,14.4,12.5c0.5,7.6-3.8,13.1-11.8,13.7c-7.7,0.5-14-4-14.6-12.4
		C1590,805.7,1594.5,800.2,1602.5,799.7z M1604.5,819.2c5.2-0.4,9.4-2.9,9.1-7.2c-0.3-4.5-5.6-6-10.5-5.6c-5.3,0.4-9.5,2.9-9.2,7.2
		C1594.2,818.1,1599.4,819.5,1604.5,819.2L1604.5,819.2z"/>
	<path class="st2" d="M969.9,184.7c1,0,1.8,0.7,1.9,1.7c0,0.1,0,0.3,0,0.4c0,0.6-0.2,1.1-0.7,1.6l-14.7-0.9
		c-0.3-0.5-0.5-1.1-0.5-1.6c-0.1-1,0.7-1.9,1.7-1.9c0.2,0,0.3,0,0.5,0l2.5,0.1l-2.1-7.6l-13.3-0.8l-1.3,2.7c-0.7,1.5-1.4,3-1.9,4.5
		l2.4,0.1c1.4,0.1,2.2,0.7,2.1,2.2c0,0.6-0.3,1.2-0.7,1.6l-12-0.7c-0.4-0.4-0.6-1-0.5-1.6c0.1-1.3,0.7-2,2.4-1.9l1.9,0.1
		c0.4-0.9,1.6-3.1,3.1-6l10.7-22l-2.9-0.2c-1,0-1.8-0.8-1.8-1.8c0-0.1,0-0.3,0-0.4c0-0.6,0.3-1.1,0.7-1.5l11,0.7l9.9,33.2
		L969.9,184.7z M953.6,158.4L953.6,158.4l-6.8,14l10.8,0.7L953.6,158.4z"/>
	<path class="st2" d="M1000,178.8c-0.9,8.2-6.7,12.8-15,11.8c-6.8-0.8-9.7-3.4-10.8-5.1l3.3-30.1l-1.8-0.2c-0.9,0-1.7-0.8-1.6-1.8
		c0-0.1,0-0.2,0-0.3c0-0.6,0.3-1.1,0.7-1.5l9.2,1l-1.8,15.8l0,0c1.9-2.5,5-3.8,8.1-3.4C997.3,165.7,1000.8,171.8,1000,178.8z
		 M993.3,178.4c0.6-5.3-1.3-9.6-5.2-10c-3.5-0.4-5.9,1.9-6.3,5.4l-1.2,10.4c0.3,0.9,1.6,2.8,4.9,3.2
		C989.5,187.9,992.7,184.3,993.3,178.4L993.3,178.4z"/>
	<path class="st2" d="M1025,171.9c-0.5,3.2-3.1,2.4-7.1,4c-3,1.2-4.4,1.3-5.2,3.6l-1.6,10.5l2.1,0.3c1,0.1,1.7,0.9,1.6,1.9
		c0,0.1,0,0.2-0.1,0.4c-0.1,0.5-0.3,1-0.7,1.4l-12.6-1.9c-0.3-0.5-0.4-1-0.3-1.6c0-1,0.8-1.7,1.7-1.7c0.1,0,0.2,0,0.4,0l1.8,0.3
		l2.7-17.9l-1.8-0.3c-0.9-0.1-1.6-0.9-1.6-1.9c0-0.1,0-0.2,0.1-0.3c0.1-0.6,0.4-1.1,0.8-1.4l9.2,1.4l-1.1,7.2h0.1
		c2.7-4.8,6.9-7.1,9.9-6.6C1024.5,169.4,1025.2,170.3,1025,171.9z"/>
	<path class="st2" d="M1035.1,194c1,0.1,1.7,1,1.6,1.9c0,0.1,0,0.2-0.1,0.4c-0.1,0.5-0.3,1-0.8,1.4l-12.3-2.3
		c-0.3-0.5-0.4-1-0.2-1.6c0-1,0.9-1.7,1.8-1.7c0.1,0,0.2,0,0.4,0.1l1.8,0.3l3.2-17.8l-1.8-0.3c-0.9-0.1-1.6-0.9-1.6-1.9
		c0-0.1,0-0.2,0.1-0.4c0.1-0.6,0.3-1.1,0.8-1.4l9.2,1.6l-0.4,2.1l0,0l-3.4,19.2L1035.1,194z M1031.6,163.1c0.3-1.8,2-3.1,4.4-2.7
		s3.4,2,3.1,3.8s-2,3.1-4.5,2.7S1031.2,165.1,1031.6,163.1L1031.6,163.1z"/>
	<path class="st2" d="M1050.2,197c1,0.1,1.6,1,1.5,1.9c0,0.1,0,0.3-0.1,0.4c-0.1,0.5-0.4,1-0.8,1.4l-12.3-2.5
		c-0.3-0.5-0.3-1-0.2-1.6c0.1-1,0.9-1.7,1.8-1.6c0.1,0,0.3,0,0.4,0.1l1.8,0.4l6-29.6l-1.8-0.4c-0.9-0.1-1.6-1-1.5-1.9
		c0-0.1,0-0.2,0.1-0.3c0.1-0.6,0.4-1.1,0.8-1.4l9.2,1.9l-6.7,33L1050.2,197z"/>
	<path class="st2" d="M1259.2,274.2c0.9,0.4,1.3,1.4,1,2.3c-0.1,0.1-0.1,0.3-0.2,0.4c-0.2,0.5-0.7,0.9-1.2,1.1l-12-6.4
		c-0.2-0.6-0.1-1.2,0.2-1.7c0.3-0.9,1.4-1.4,2.3-1.1c0.1,0.1,0.3,0.1,0.4,0.2l1.8,0.9l11.1-20.7h-0.1l-18,10l-1.9-20.6h-0.1l-7,13.2
		c-1.9,3.6-3.3,6.5-3.8,7.6l1.9,1c1,0.3,1.5,1.4,1.1,2.3c-0.1,0.2-0.1,0.3-0.2,0.4c-0.3,0.5-0.7,0.9-1.2,1.1l-10-5.3
		c-0.1-0.6,0-1.2,0.3-1.7c0.3-0.9,1.3-1.4,2.3-1.1c0.1,0,0.2,0.1,0.4,0.2l1.8,1c0.6-0.9,2.2-3.8,4.8-8.7l8.9-16.7l-1.9-1.1
		c-1-0.6-1.3-1.5-0.6-2.7c0.3-0.5,0.7-0.9,1.2-1.1l8.1,4.3l2,20.5l0,0l18-9.8l7.2,3.9c0.1,0.6,0,1.1-0.2,1.6
		c-0.3,0.9-1.3,1.5-2.3,1.2c-0.1,0-0.3-0.1-0.4-0.2l-1.9-1l-13.6,25.4L1259.2,274.2z"/>
	<path class="st2" d="M1285.6,290.4c0.8,0.4,1.2,1.4,0.8,2.3c-0.1,0.1-0.1,0.3-0.2,0.4c-0.3,0.4-0.7,0.8-1.1,1l-8-4.8l2-3.2l0,0
		c-3.1,1.5-6.8,1.3-9.6-0.6c-4.5-2.7-6-7.2-3.3-11.6s7.4-4.9,13-1.6c2.1,1.2,3.9,2.8,5.4,4.7l0.7-1.2c2.6-4.3,1.7-6.8-0.9-8.4
		c-2.9-1.7-6.6-0.6-8.2-1.6c-0.7-0.4-0.9-1.2-0.5-1.9c0,0,0-0.1,0.1-0.1c1.1-1.8,5.8-2.2,11,1c3.8,2.3,8.3,6.6,3.6,14.5l-6.1,10.1
		L1285.6,290.4z M1283.1,279.2c-1-1.4-2.3-2.6-3.9-3.4c-3.2-1.9-5.9-1.2-7.2,1c-1.4,2.1-0.9,4.9,1.2,6.4c0.1,0.1,0.3,0.2,0.5,0.3
		c2.7,1.7,6.1,1.1,7.7-1.4L1283.1,279.2z"/>
	<path class="st2" d="M1322.5,289c0,0.6-0.1,1.1-0.4,1.5c-0.4,0.9-1.5,1.2-2.4,0.8c-0.1-0.1-0.3-0.2-0.4-0.3l-1.4-0.9
		c-0.6,0.4-2.5,1.5-6.4,4l-8.4,5.5c-9.2,6-13.7,11.4-19.4,7.6c-3.2-2.2-3.9-5.4-2.7-7.2c0.4-0.8,1.3-1.1,2-0.7
		c0.1,0,0.1,0.1,0.2,0.1c1.6,1,0.9,3,3.4,4.7c2.7,1.8,6.1-1.3,7.4-3.2c1.1-1.7,1.3-2.6,1.7-5.1l2.6-18.6l-1.2-0.8
		c-0.8-0.4-1.2-1.5-0.7-2.3c0.1-0.1,0.1-0.2,0.2-0.3c0.3-0.5,0.7-0.8,1.3-1l10.5,7c0,0.6-0.1,1.1-0.4,1.6c-0.4,0.8-1.4,1.2-2.3,0.8
		c-0.1-0.1-0.2-0.1-0.3-0.2l-1.4-0.9l-2.3,16l0,0l9.5-6.4c1.3-0.9,2.8-2,3.5-2.5l-1.6-1.1c-0.9-0.4-1.2-1.5-0.8-2.3
		c0.1-0.1,0.1-0.3,0.2-0.4c0.3-0.5,0.8-0.8,1.3-1L1322.5,289z"/>
	<path class="st2" d="M1315.8,300c4.6-6.3,11.9-8,18.8-3c6.2,4.5,7.6,11.4,2.9,17.8c-4.5,6.2-12,8.1-18.9,3.1
		C1312.3,313.4,1311,306.4,1315.8,300z M1331.9,311c3-4.2,3.9-9.1,0.4-11.6c-3.5-2.6-8.1,0.4-11.1,4.5c-3.1,4.3-3.9,9.1-0.4,11.7
		C1324.4,318,1328.9,315.1,1331.9,311L1331.9,311z"/>
	<path class="st2" d="M1459.8,402.1c-0.1,0.6-0.4,1.1-0.8,1.4c-0.6,0.8-1.7,0.9-2.5,0.3c-0.1-0.1-0.2-0.2-0.3-0.3l-1.3-1.5
		l-15.5,13.8c-6.3,5.6-12.5,4.8-17.6-1c-4.9-5.5-3.8-10.8-1.7-12.7c1.3-1.1,2.4-1,3.2,0s0.7,2.1,0.4,3.8c-0.4,2.8,0.1,5.2,1.6,6.8
		c2.6,2.9,5.7,1.5,9.7-2l15.4-13.7l-1.7-1.9c-0.8-0.7-0.8-1.8-0.2-2.6c0.1-0.1,0.2-0.2,0.4-0.3c0.4-0.4,1-0.6,1.5-0.6L1459.8,402.1z
		"/>
	<path class="st2" d="M1454.2,446.7c0.6,0.7,0.6,1.8-0.1,2.4c-0.1,0.1-0.2,0.2-0.3,0.2c-0.4,0.4-0.9,0.6-1.5,0.6l-5.9-7.2l3.1-2.5
		l0,0c-3.2,0.6-6.5-0.6-8.4-3.2c-3.4-4.2-3-8.6,2.2-12.9l9.4-7.7l-1.2-1.4c-0.6-0.7-0.6-1.8,0.1-2.4c0.1-0.1,0.2-0.1,0.3-0.2
		c0.4-0.4,1-0.6,1.5-0.5l5.9,7.2l-11.8,9.7c-3.1,2.5-4.1,4.9-1.9,7.6s5.1,3,7.6,1l9.9-8.1l-1.3-1.7c-0.7-0.7-0.7-1.8,0-2.4
		c0.1-0.1,0.2-0.2,0.3-0.2c0.4-0.4,0.9-0.6,1.5-0.6l6.1,7.5l-16.7,13.6L1454.2,446.7z"/>
	<path class="st2" d="M1473.2,472.2c0.7,0.7,0.6,1.8-0.1,2.5c-0.1,0.1-0.2,0.2-0.3,0.2c-0.4,0.3-1,0.5-1.5,0.4l-7.4-10
		c0.1-0.5,0.4-1,0.9-1.3c0.7-0.7,1.8-0.7,2.4,0c0.1,0.1,0.2,0.2,0.2,0.3l1.1,1.5l9.4-7c3.2-2.4,4.4-4.8,2.2-7.9
		c-1.6-2.4-4.8-3-7.1-1.4c-0.1,0.1-0.3,0.2-0.4,0.3l-10.3,7.6l1,1.4c0.7,0.7,0.6,1.8-0.1,2.5c-0.1,0.1-0.2,0.2-0.3,0.2
		c-0.4,0.3-1,0.5-1.5,0.4l-7.4-9.9c0.1-0.5,0.4-1,0.9-1.3c0.7-0.7,1.8-0.7,2.5,0c0.1,0.1,0.2,0.2,0.2,0.3l1.1,1.5l14.5-10.8
		l-1.1-1.5c-0.6-0.7-0.5-1.8,0.2-2.4c0.1-0.1,0.2-0.1,0.3-0.2c0.4-0.3,1-0.5,1.6-0.5l5.5,7.5l-3.3,2.4l0,0c3.2-0.6,6.5,0.8,8.3,3.5
		c3.4,4.6,2.2,9.4-2.7,13l-9.8,7.3L1473.2,472.2z"/>
	<path class="st2" d="M1481.7,484.8c0.6,0.8,0.5,1.9-0.3,2.5c-0.1,0.1-0.2,0.1-0.3,0.2c-0.4,0.3-1,0.5-1.5,0.4l-7.1-10.3
		c0.1-0.5,0.5-1,0.9-1.2c0.7-0.7,1.8-0.6,2.5,0.1c0.1,0.1,0.2,0.2,0.2,0.3l1,1.5l14.9-10.2l-1-1.5c-0.6-0.7-0.5-1.8,0.2-2.4
		c0.1-0.1,0.2-0.1,0.3-0.2c0.4-0.3,1-0.5,1.6-0.5l5.3,7.7l-1.7,1.2l0,0l-16,11L1481.7,484.8z M1501.2,460.6c1.5-1,3.6-0.8,5,1.3
		c1.4,2.1,1,3.8-0.5,4.9s-3.6,0.8-5-1.3C1499.3,463.3,1499.6,461.8,1501.2,460.6L1501.2,460.6z"/>
	<path class="st2" d="M1491.4,483.3c6.5-4.2,14-3.1,18.6,4.1c4.1,6.4,2.9,13.4-3.8,17.7c-6.5,4.1-14.2,3.2-18.7-4
		C1483.3,494.5,1484.6,487.6,1491.4,483.3z M1502.4,499.4c4.4-2.8,6.9-7,4.6-10.7s-7.7-2.6-11.9,0.1c-4.5,2.9-7,7.1-4.6,10.7
		C1492.8,503.2,1498.2,502.2,1502.4,499.4L1502.4,499.4z"/>
	<path d="M129.1,1474.9c6.9,0,11.4,6.6,9.6,17.2h8.5v-2.2c0-1,0.6-1.6,1.7-1.6c0.5,0,1,0.1,1.4,0.5v12c-0.4,0.3-0.9,0.5-1.4,0.5
		c-0.8,0.1-1.6-0.4-1.7-1.3c0-0.1,0-0.2,0-0.4v-1.7h-24.7v1.7c0,1.1-0.6,1.7-1.8,1.7c-0.5,0-1-0.1-1.3-0.5c-0.1-1-0.2-6.5-0.2-12.8
		C119.3,1478,123.7,1474.9,129.1,1474.9z M136.1,1492.1c1.1-7.8-2.1-11.2-7.1-11.2c-3.3,0-8.2,1.4-6.9,11.2H136.1z"/>
	<path d="M130.4,1449.9c2.7,0,2.4,2.3,4.3,5.5c1.4,2.3,1.7,3.5,3.7,3.9h9.1v-1.8c0-1,0.6-1.6,1.7-1.6c0.5,0,0.9,0.1,1.3,0.4v10.9
		c-0.3,0.3-0.8,0.5-1.3,0.5c-1.1,0-1.7-0.6-1.7-1.6v-1.6H132v1.6c0.1,0.8-0.6,1.5-1.4,1.6c-0.1,0-0.2,0-0.3,0c-0.5,0-1-0.2-1.3-0.5
		v-7.9h6.2v-0.1c-4.4-1.6-6.9-4.9-6.9-7.5C128.4,1450.6,129.1,1449.9,130.4,1449.9z"/>
	<path d="M147.4,1423.7c-0.1-0.8,0.5-1.5,1.4-1.6c0.1,0,0.2,0,0.3,0c0.5,0,0.9,0.1,1.3,0.4v7.9h-3.2l0,0c2.5,1.5,4,4.3,3.9,7.3
		c0,4.5-2.6,7.6-7,7.6s-6.9-3.3-6.9-8.8c-0.1-2.1,0.3-4.1,1-6.1H137c-4.3,0-5.7,1.8-5.7,4.4c0,2.9,2.5,5,2.5,6.6
		c0,0.6-0.5,1.2-1.1,1.2c-0.1,0-0.1,0-0.2,0c-1.8,0-4.2-3.2-4.2-8.5c0-3.8,1.1-8.9,9-9l10.1-0.1L147.4,1423.7z M140.4,1430.5
		c-0.6,1.4-0.8,2.8-0.8,4.3c0,3.2,1.8,4.8,4,4.8c2.2,0.1,4-1.6,4.1-3.7c0-0.1,0-0.3,0-0.4c0-2.7-1.9-5-4.4-5L140.4,1430.5z
		 M123.8,1435.8l-7.5-4.4c-1-0.5-1.4-1.7-0.9-2.8c0.1-0.1,0.1-0.3,0.2-0.4c0.6-0.9,1.8-1.2,2.8-0.6c0.1,0.1,0.3,0.2,0.4,0.3l6.5,5.9
		c0.6,0.4,0.7,1.2,0.3,1.8C125.1,1436.3,124.4,1436.1,123.8,1435.8z"/>
	<path d="M139.4,1410.3c5.4,0,8.4-2.4,8.4-6.1s-3.1-4.8-3.1-6.3c0-0.7,0.5-1.3,1.2-1.3c0.1,0,0.2,0,0.2,0c1.8,0,4.9,3,4.9,8.7
		c0,6.2-3.6,10.9-11.1,10.9c-7.2,0-11.5-4.8-11.5-10.7c-0.1-1.8,0.3-3.5,1.2-5.1c-0.6-0.3-0.9-0.8-0.9-1.5c0-1.1,0.8-1.4,2.2-1.7
		l2.2-0.4c0.6-0.1,1.2-0.2,1.8-0.2c0.7-0.1,1.3,0.4,1.4,1.2c0,0.1,0,0.2,0,0.3c0,1-0.8,1.4-1.6,1.7c-2.2,1.1-3.8,2.3-3.8,4.8
		C131.1,1407.9,133.9,1410.3,139.4,1410.3z"/>
	<path d="M147.6,1375.7c1.3,0,3.2,1.8,3.2,5.3c0,4-1.5,6-6.5,6h-12.2v1.9c0.1,0.7-0.5,1.4-1.2,1.5c-0.1,0-0.2,0-0.3,0
		c-1.1,0-1.4-0.8-2-1.8c-2-4.8-6.5-3.9-6.5-6.5c-0.1-0.8,0.5-1.5,1.3-1.5c0.1,0,0.2,0,0.3,0c1.5,0,2.9,1.4,5.3,1.3v-4.7
		c-0.1-0.7,0.4-1.4,1.1-1.5c0.1,0,0.2,0,0.4,0c0.7-0.1,1.4,0.4,1.5,1.1c0,0.1,0,0.3,0,0.4v4.5h11.4c2.5,0,3.9-0.2,3.9-1.7
		c0-2-1.1-1.9-1.1-3.2C146.3,1376.2,146.9,1375.6,147.6,1375.7L147.6,1375.7z"/>
	<path d="M147.4,1358.8c-0.1-0.8,0.5-1.5,1.4-1.6c0.1,0,0.2,0,0.3,0c0.5,0,0.9,0.1,1.3,0.4v10.8c-0.4,0.3-0.8,0.4-1.3,0.4
		c-0.8,0.1-1.6-0.4-1.7-1.3c0-0.1,0-0.2,0-0.3v-1.6H132v1.6c0.1,0.8-0.5,1.5-1.3,1.6c-0.1,0-0.2,0-0.3,0c-0.5,0-1-0.1-1.4-0.4v-8
		h1.8l0,0h16.6L147.4,1358.8z M122,1366.4c-1.6,0-2.9-1.2-2.9-3.3s1.1-3.2,2.7-3.2s2.9,1.2,2.9,3.4S123.8,1366.4,122,1366.4z"/>
	<path d="M139.4,1344.7c5.4,0,8.4-2.4,8.4-6.1s-3.1-4.8-3.1-6.3c0-0.7,0.5-1.3,1.2-1.3c0.1,0,0.2,0,0.2,0c1.8,0,4.9,3,4.9,8.7
		c0,6.2-3.6,10.9-11.1,10.9c-7.2,0-11.5-4.8-11.5-10.7c-0.1-1.8,0.3-3.5,1.2-5.1c-0.6-0.3-0.9-0.8-0.9-1.5c0-1.1,0.8-1.4,2.2-1.6
		l2.2-0.4c0.6-0.1,1.2-0.2,1.8-0.2c0.7-0.1,1.3,0.4,1.4,1.2c0,0.1,0,0.2,0,0.3c0,1-0.8,1.4-1.6,1.7c-2.2,1.1-3.8,2.3-3.8,4.8
		C131.1,1342.3,133.9,1344.7,139.4,1344.7z"/>
	<path d="M147.4,1302.3c0-1,0.6-1.6,1.7-1.6c0.4,0,0.9,0.1,1.3,0.4v8h-3.2l0,0c2.5,1.6,4,4.3,3.9,7.3c0,4.5-2.6,7.6-7,7.6
		s-6.9-3.2-6.9-8.8c-0.1-2,0.3-4.1,1-6H137c-4.3,0-5.7,1.7-5.7,4.4c0,2.9,2.5,5.1,2.5,6.7c0,0.7-0.5,1.2-1.2,1.2h-0.1
		c-1.8,0-4.2-3.2-4.2-8.5c0-3.8,1.1-9,9-9h10.1L147.4,1302.3z M140.4,1309.1c-0.6,1.4-0.8,2.8-0.8,4.3c0,3.2,1.8,4.8,4,4.8
		c2.2,0.1,4-1.6,4.1-3.8c0-0.1,0-0.3,0-0.4c0-2.7-1.9-5-4.4-5L140.4,1309.1z"/>
	<path d="M144.2,1289.7c0-2.3,1.5-4.3,5.2-4.3c5.4,0,7.9,4.9,7.9,6.3c0,0.5-0.3,1-0.8,1c-0.1,0-0.1,0-0.2,0c-1.2,0-1.8-3.6-4.8-3.6
		c-2.4,0-1.2,3.7-4.2,3.7C145.6,1292.8,144.3,1291.4,144.2,1289.7C144.2,1289.8,144.2,1289.7,144.2,1289.7z"/>
	<path d="M147.4,1238.9c0-1,0.6-1.6,1.7-1.6c0.4,0,0.9,0.1,1.3,0.4v8h-3.2l0,0c2.5,1.6,4,4.3,3.9,7.3c0,4.5-2.6,7.6-7,7.6
		s-6.9-3.2-6.9-8.8c-0.1-2,0.3-4.1,1-6H137c-4.3,0-5.7,1.7-5.7,4.4c0,2.9,2.5,5.1,2.5,6.7c0,0.7-0.5,1.2-1.2,1.2h-0.1
		c-1.8,0-4.2-3.2-4.2-8.5c0-3.8,1.1-9,9-9h10.1L147.4,1238.9z M140.4,1245.7c-0.6,1.4-0.8,2.8-0.8,4.3c0,3.2,1.8,4.8,4,4.8
		c2.2,0.1,4-1.6,4.1-3.7c0-0.1,0-0.3,0-0.4c0-2.7-1.9-5-4.4-5L140.4,1245.7z"/>
	<path d="M147.4,1193.3c-0.1-0.8,0.5-1.6,1.4-1.6c0.1,0,0.2,0,0.3,0c0.5,0,0.9,0.2,1.3,0.5v10.6c-0.4,0.3-0.8,0.4-1.3,0.4
		c-1.1,0-1.7-0.6-1.7-1.6v-1.6h-10.2c-3.1,0-5.3,0.9-5.3,4.2c-0.2,2.4,1.7,4.5,4.1,4.6c0.1,0,0.3,0,0.4,0h11v-1.6
		c-0.1-0.8,0.5-1.6,1.4-1.7c0.1,0,0.2,0,0.3,0c0.5,0,0.9,0.2,1.3,0.5v10.6c-0.3,0.3-0.8,0.5-1.3,0.4c-1.1,0-1.7-0.6-1.7-1.6v-1.6
		h-10.2c-3.1,0-5.3,1-5.3,4.2c-0.1,2.4,1.7,4.4,4.1,4.5c0.1,0,0.3,0,0.4,0h11v-1.5c-0.1-0.8,0.5-1.5,1.4-1.6c0.1,0,0.2,0,0.3,0
		c0.5,0,0.9,0.1,1.3,0.4v10.6c-0.3,0.3-0.8,0.5-1.3,0.5c-1.1,0-1.7-0.6-1.7-1.6v-1.6H132v1.6c0.1,0.8-0.6,1.5-1.4,1.6
		c-0.1,0-0.2,0-0.3,0c-0.5,0-1-0.2-1.3-0.5v-7.9h3.5l0,0c-2.5-1.2-4-3.7-4-6.5c-0.2-2.9,1.5-5.6,4.2-6.6c-2.9-1.8-4.2-3.9-4.2-7.2
		c0-5.1,3.2-7.6,8.6-7.6h10.3L147.4,1193.3z"/>
	<path d="M147.4,1163.7c0-1,0.6-1.6,1.7-1.6c0.4,0,0.9,0.1,1.3,0.4v7.9h-3.2v0.1c2.5,1.6,4,4.3,3.9,7.3c0,4.5-2.6,7.6-7,7.6
		s-6.9-3.2-6.9-8.8c-0.1-2,0.3-4.1,1-6H137c-4.3,0-5.7,1.7-5.7,4.4c0,2.9,2.5,5.1,2.5,6.7c0,0.7-0.5,1.2-1.2,1.2h-0.1
		c-1.8,0-4.2-3.2-4.2-8.5c0-3.8,1.1-9,9-9h10.1L147.4,1163.7z M140.4,1170.5c-0.6,1.4-0.8,2.8-0.8,4.3c0,3.2,1.8,4.8,4,4.8
		c2.2,0.1,4-1.6,4.1-3.8c0-0.1,0-0.3,0-0.4c0-2.7-1.9-5-4.4-5L140.4,1170.5z"/>
	<path d="M147.4,1131.9c-0.1-0.8,0.5-1.6,1.3-1.6c0.1,0,0.2,0,0.4,0c0.5,0,0.9,0.2,1.3,0.5v10.6c-0.3,0.3-0.8,0.5-1.3,0.5
		c-1.1,0-1.7-0.6-1.7-1.6v-1.6h-10c-3.4,0-5.5,1-5.5,4.3c-0.1,2.4,1.7,4.5,4.2,4.6c0.1,0,0.3,0,0.4,0h11v-1.5
		c-0.1-0.8,0.5-1.6,1.3-1.6c0.1,0,0.2,0,0.4,0c0.5,0,0.9,0.2,1.3,0.5v10.6c-0.3,0.3-0.8,0.5-1.3,0.5c-1.1,0-1.7-0.6-1.7-1.6v-1.6
		H132v1.6c0.1,0.8-0.6,1.5-1.4,1.6c-0.1,0-0.2,0-0.3,0c-0.5,0-1-0.2-1.3-0.5v-7.9h3.5l0,0c-2.5-1.2-4.1-3.8-4-6.6
		c0-4.9,3.3-7.5,8.5-7.5h10.4V1131.9z"/>
	<path d="M139.6,1118.6c5,0.1,8.2-2.1,8.2-6.2c0-4-3.1-5.1-3.1-6.7c0-0.7,0.6-1.2,1.2-1.2c0.1,0,0.1,0,0.2,0c1.8,0,4.9,3.2,4.9,8.7
		c0,6.6-3.7,11.2-11.2,11.2c-6.1,0-11.3-4.1-11.3-11.3c0-6.3,4-9.8,9.2-9.8c0.6,0,1.3,0,1.9,0.1L139.6,1118.6L139.6,1118.6z
		 M137.2,1118.6v-9.7c-0.2,0-0.5,0-0.8,0c-2.7,0-5.3,1.3-5.3,4.7C131.2,1116.5,133.8,1118.2,137.2,1118.6L137.2,1118.6z"/>
	<path d="M139.4,1090.6c5.4,0,8.4-2.4,8.4-6.1s-3.1-4.8-3.1-6.3c0-0.8,0.5-1.3,1.4-1.3c1.8,0,4.9,3,4.9,8.7
		c0,6.2-3.6,10.9-11.1,10.9c-7.2,0-11.5-4.8-11.5-10.7c-0.1-1.8,0.3-3.5,1.2-5.1c-0.6-0.3-0.9-0.8-0.9-1.4c0-1.1,0.8-1.4,2.2-1.7
		l2.2-0.4c0.6-0.1,1.2-0.2,1.8-0.2c0.7-0.1,1.3,0.4,1.4,1.2c0,0.1,0,0.2,0,0.3c0,1-0.8,1.4-1.6,1.7c-2.2,1.1-3.8,2.3-3.8,4.8
		C131.1,1088.2,133.9,1090.6,139.4,1090.6z"/>
	<path d="M139.6,1064.4c5,0.1,8.2-2.1,8.2-6.2c0-4-3.1-5.1-3.1-6.7c0-0.7,0.6-1.2,1.3-1.2c0.1,0,0.1,0,0.2,0c1.8,0,4.9,3.2,4.9,8.7
		c0,6.6-3.7,11.2-11.2,11.2c-6.1,0-11.3-4.1-11.3-11.3c0-6.3,4-9.8,9.2-9.8c0.6,0,1.3,0,1.9,0.1L139.6,1064.4L139.6,1064.4z
		 M137.2,1064.4v-9.7c-0.2,0-0.5,0-0.8,0c-2.7,0-5.3,1.3-5.3,4.7C131.2,1062.2,133.8,1063.9,137.2,1064.4L137.2,1064.4z"/>
	<path d="M130.4,1024.4c2.7,0,2.4,2.3,4.3,5.5c1.4,2.3,1.7,3.5,3.7,3.9h9.1v-1.8c0-1,0.6-1.5,1.7-1.5c0.5,0,0.9,0.1,1.3,0.4v10.9
		c-0.3,0.3-0.8,0.5-1.3,0.5c-1.1,0-1.7-0.6-1.7-1.5v-1.6H132v1.6c0.1,0.8-0.6,1.5-1.4,1.6c-0.1,0-0.2,0-0.3,0c-0.5,0-1-0.2-1.3-0.5
		v-7.9h6.2l0,0c-4.4-1.6-6.9-4.9-6.9-7.5C128.4,1025.1,129.1,1024.4,130.4,1024.4z"/>
	<path d="M147.4,979.8c-0.1-0.8,0.5-1.5,1.4-1.6c0.1,0,0.2,0,0.3,0c0.5,0,0.9,0.2,1.3,0.5v7.9h-3.1l0,0c2.3,1.4,3.7,3.9,3.7,6.6
		c0,6-5,9.3-10.9,9.3c-7,0-11.4-4.5-11.4-10c-0.1-2.2,0.7-4.3,2.2-5.8l0,0h-9.2v1.8c0.1,0.8-0.5,1.5-1.3,1.6c-0.1,0-0.2,0-0.3,0
		c-0.5,0-1-0.1-1.3-0.5v-8.3h28.8L147.4,979.8z M133.6,986.6c-1.4,1.1-2.1,2.7-2,4.4c0,3.2,2.9,5.8,8,5.8s8.2-2.1,8.2-5.4
		c0-2.8-1.8-4.8-5.4-4.8H133.6z"/>
	<path d="M139.6,965.9c5,0.1,8.2-2.1,8.2-6.2c0-4-3.1-5.1-3.1-6.7c0-0.7,0.6-1.2,1.2-1.2c0.1,0,0.1,0,0.2,0c1.8,0,4.9,3.2,4.9,8.7
		c0,6.6-3.7,11.2-11.2,11.2c-6.1,0-11.3-4.1-11.3-11.3c0-6.3,4-9.8,9.2-9.8c0.6,0,1.3,0,1.9,0.1L139.6,965.9L139.6,965.9z
		 M137.2,965.9v-9.7c-0.2,0-0.5-0.1-0.8,0c-2.7,0-5.3,1.3-5.3,4.7C131.2,963.7,133.8,965.5,137.2,965.9L137.2,965.9z"/>
	<path d="M147.4,917.8c-0.1-0.8,0.5-1.5,1.4-1.6c0.1,0,0.2,0,0.3,0c0.5,0,0.9,0.1,1.3,0.4v10.7c-0.4,0.3-0.8,0.4-1.3,0.4
		c-0.8,0.1-1.6-0.4-1.7-1.3c0-0.1,0-0.2,0-0.3v-1.5h-25.8v1.5c0.1,0.8-0.5,1.5-1.3,1.6c-0.1,0-0.2,0-0.3,0c-0.5,0-0.9-0.1-1.3-0.4
		v-8h28.8L147.4,917.8L147.4,917.8z"/>
	<path d="M147.4,887.8c0-1,0.6-1.5,1.7-1.5c0.4,0,0.9,0.1,1.3,0.4v8h-3.2l0,0c2.5,1.6,4,4.3,3.9,7.3c0,4.5-2.6,7.6-7,7.6
		s-6.9-3.2-6.9-8.8c-0.1-2,0.3-4.1,1-6H137c-4.3,0-5.7,1.7-5.7,4.4c0,2.9,2.5,5.1,2.5,6.7c0,0.7-0.5,1.2-1.2,1.2h-0.1
		c-1.8,0-4.2-3.2-4.2-8.5c0-3.8,1.1-9,9-9h10.1L147.4,887.8z M140.4,894.6c-0.6,1.4-0.8,2.8-0.8,4.3c0,3.2,1.8,4.8,4,4.8
		c2.2,0.1,4-1.6,4.1-3.8c0-0.1,0-0.3,0-0.4c0-2.7-1.9-5-4.4-5L140.4,894.6z"/>
	<path d="M199.4,1478.6c7.2,0,11.4,4.7,11.4,10c0.1,2.2-0.7,4.3-2.2,5.9v0.1h8v-1.8c-0.1-0.8,0.5-1.6,1.3-1.6c0.1,0,0.2,0,0.4,0
		c0.5,0,0.9,0.1,1.3,0.4v11.1c-0.3,0.3-0.8,0.5-1.3,0.5c-0.8,0.1-1.6-0.5-1.7-1.3c0-0.1,0-0.2,0-0.3v-1.6H192v1.6
		c0.1,0.8-0.5,1.5-1.4,1.6c-0.1,0-0.2,0-0.3,0c-0.5,0-1-0.2-1.3-0.5v-7.9h3.3l0,0c-2.4-1.3-3.9-3.9-3.8-6.6
		C188.5,1481.9,193.5,1478.6,199.4,1478.6z M199.9,1484.3c-5,0-8.2,2.1-8.2,5.4c0,2.7,1.8,4.8,5.4,4.8h8.8c1.3-1.1,2-2.7,1.9-4.4
		C207.8,1486.9,205,1484.3,199.9,1484.3L199.9,1484.3z"/>
	<path d="M207.4,1449.8c0-1,0.6-1.6,1.7-1.6c0.4,0,0.9,0.1,1.3,0.4v7.9h-3.2v0.1c2.5,1.6,4,4.3,3.9,7.3c0,4.5-2.6,7.6-7,7.6
		s-6.9-3.2-6.9-8.8c-0.1-2,0.3-4.1,1-6H197c-4.3,0-5.7,1.7-5.7,4.4c0,2.9,2.5,5.1,2.5,6.7c0,0.7-0.5,1.2-1.2,1.2h-0.1
		c-1.8,0-4.2-3.2-4.2-8.5c0-3.8,1.1-9,9-9h10.1L207.4,1449.8z M200.4,1456.6c-0.6,1.4-0.8,2.8-0.8,4.3c0,3.2,1.8,4.8,4,4.8
		c2.2,0.1,4-1.6,4.1-3.7c0-0.1,0-0.3,0-0.4c0-2.7-1.9-5-4.4-5L200.4,1456.6z"/>
	<path d="M207.4,1432.5c-0.1-0.8,0.5-1.5,1.4-1.6c0.1,0,0.2,0,0.3,0c0.5,0,0.9,0.1,1.3,0.4v10.7c-0.4,0.3-0.8,0.4-1.3,0.4
		c-0.8,0.1-1.6-0.4-1.7-1.3c0-0.1,0-0.2,0-0.3v-1.6h-25.8v1.6c0.1,0.8-0.5,1.5-1.3,1.6c-0.1,0-0.2,0-0.3,0c-0.5,0-0.9-0.1-1.3-0.4
		v-8h28.8L207.4,1432.5z"/>
	<path d="M207.4,1402.6c0-1,0.6-1.6,1.7-1.6c0.4,0,0.9,0.1,1.3,0.4v8h-3.2l0,0c2.5,1.6,4,4.3,3.9,7.3c0,4.5-2.6,7.6-7,7.6
		s-6.9-3.2-6.9-8.8c-0.1-2,0.3-4.1,1-6H197c-4.3,0-5.7,1.7-5.7,4.4c0,2.9,2.5,5.1,2.5,6.7c0,0.7-0.5,1.2-1.2,1.2h-0.1
		c-1.8,0-4.2-3.2-4.2-8.5c0-3.8,1.1-9,9-9h10.1L207.4,1402.6z M200.4,1409.4c-0.6,1.4-0.8,2.8-0.8,4.3c0,3.2,1.8,4.8,4,4.8
		c2.2,0.1,4-1.6,4.1-3.8c0-0.1,0-0.3,0-0.4c0-2.7-1.9-5-4.4-5L200.4,1409.4z"/>
	<path d="M199.4,1372.2c7,0,11.5,4.5,11.5,11.6c0,5.8-2,8.6-3.3,9.6h-25.9v1.6c0.1,0.8-0.6,1.5-1.4,1.6c-0.1,0-0.2,0-0.3,0
		c-0.5,0-1-0.1-1.3-0.5v-7.9h13.5l0,0c-2.3-1.4-3.7-3.9-3.7-6.6C188.5,1375.6,193.4,1372.2,199.4,1372.2z M199.7,1377.8
		c-4.6,0-8,2-8,5.4c0,3,2.2,4.8,5.2,4.8h9c0.8-0.3,2.2-1.6,2.2-4.5C208.1,1380.1,204.8,1377.8,199.7,1377.8z"/>
	<path d="M190.4,1347.3c2.7,0,2.4,2.3,4.3,5.5c1.4,2.3,1.7,3.5,3.7,3.9h9.1v-1.8c0-1,0.6-1.6,1.7-1.6c0.5,0,0.9,0.1,1.3,0.4v10.9
		c-0.3,0.3-0.8,0.5-1.3,0.5c-1.1,0-1.7-0.6-1.7-1.6v-1.6H192v1.6c0.1,0.8-0.6,1.5-1.4,1.6c-0.1,0-0.2,0-0.3,0c-0.5,0-1-0.2-1.3-0.5
		v-7.9h6.2l0,0c-4.4-1.7-6.9-4.9-6.9-7.5C188.4,1348,189.1,1347.3,190.4,1347.3z"/>
	<path d="M207.4,1321.1c0-1,0.6-1.6,1.7-1.6c0.4,0,0.9,0.1,1.3,0.4v7.9h-3.2l0,0c2.5,1.6,4,4.3,3.9,7.3c0,4.5-2.6,7.6-7,7.6
		s-6.9-3.2-6.9-8.8c-0.1-2,0.3-4.1,1-6H197c-4.3,0-5.7,1.7-5.7,4.4c0,2.9,2.5,5.1,2.5,6.7c0,0.7-0.5,1.2-1.2,1.2h-0.1
		c-1.8,0-4.2-3.2-4.2-8.5c0-3.8,1.1-9,9-9h10.1L207.4,1321.1z M200.4,1327.9c-0.6,1.4-0.8,2.8-0.8,4.3c0,3.2,1.8,4.8,4,4.8
		c2.2,0.1,4-1.6,4.1-3.8c0-0.1,0-0.3,0-0.4c0-2.7-1.9-5-4.4-5L200.4,1327.9z"/>
	<path d="M143.8,817.4c0-1.1,0.6-1.6,1.7-1.6c0.5,0,1,0.2,1.4,0.5v11.6c-0.4,0.3-0.9,0.5-1.4,0.5c-0.8,0.1-1.6-0.5-1.7-1.3
		c0-0.1,0-0.3,0-0.4V825h-20.1l0,0l14.8,9.6l-14.8,9.7v0.1h12.8c3.4,0,6.2-0.1,7.3-0.2v-1.9c-0.1-0.9,0.4-1.6,1.3-1.8
		c0.1,0,0.3,0,0.4,0c0.5,0,1,0.2,1.4,0.5v9.6c-0.4,0.3-0.9,0.5-1.4,0.5c-1.1,0-1.7-0.6-1.7-1.6v-1.8c-0.9,0-3.7-0.1-8.5-0.1h-16.2
		v1.8c-0.1,1-0.6,1.6-1.8,1.6c-0.5,0-0.9-0.2-1.3-0.5v-7.8l14.7-9.8l0,0l-14.7-9.7v-7c0.4-0.3,0.8-0.5,1.3-0.5
		c0.8-0.1,1.6,0.4,1.8,1.3c0,0.1,0,0.2,0,0.3v1.8h24.6L143.8,817.4z"/>
	<path d="M143.9,785.9c0-1,0.6-1.5,1.7-1.5c0.5,0,0.9,0.1,1.3,0.4v8h-3.2l0,0c2.5,1.6,4,4.3,3.9,7.3c0,4.5-2.6,7.6-6.9,7.6
		s-6.9-3.2-6.9-8.8c-0.1-2,0.3-4.1,1-6h-1.1c-4.3,0-5.7,1.7-5.7,4.4c0,2.9,2.5,5.1,2.5,6.7c0,0.7-0.5,1.2-1.2,1.2h-0.1
		c-1.8,0-4.2-3.2-4.2-8.5c0-3.8,1.1-9,9-9h10.1L143.9,785.9z M136.9,792.7c-0.6,1.4-0.8,2.8-0.8,4.3c0,3.2,1.8,4.8,4,4.8
		c2.2,0.1,4-1.6,4.1-3.7c0-0.1,0-0.3,0-0.4c0-2.7-1.9-5-4.4-5L136.9,792.7z"/>
	<path d="M143.9,754.2c-0.1-0.8,0.5-1.6,1.3-1.7c0.1,0,0.2,0,0.4,0c0.5,0,0.9,0.2,1.3,0.5v10.6c-0.3,0.3-0.8,0.5-1.3,0.5
		c-1.1,0-1.7-0.6-1.7-1.5V761h-10c-3.4,0-5.5,1-5.5,4.3c-0.1,2.4,1.7,4.5,4.2,4.6c0.1,0,0.3,0,0.4,0h11v-1.5
		c-0.1-0.8,0.5-1.6,1.3-1.7c0.1,0,0.2,0,0.4,0c0.5,0,0.9,0.2,1.3,0.5v10.6c-0.3,0.3-0.8,0.5-1.3,0.5c-0.8,0.1-1.6-0.4-1.7-1.3
		c0-0.1,0-0.2,0-0.3v-1.6h-15.5v1.6c0.1,0.8-0.5,1.5-1.4,1.6c-0.1,0-0.2,0-0.3,0c-0.5,0-0.9-0.2-1.3-0.5v-8h3.5l0,0
		c-2.5-1.2-4.1-3.8-4-6.6c0-4.9,3.3-7.5,8.5-7.5h10.4L143.9,754.2z"/>
	<path d="M136.1,740.9c5,0.1,8.2-2.1,8.2-6.2c0-4-3.1-5.1-3.1-6.7c0-0.7,0.6-1.2,1.3-1.2h0.1c1.8,0,4.9,3.2,4.9,8.7
		c0,6.6-3.7,11.2-11.2,11.2c-6.1,0-11.3-4.1-11.3-11.3c0-6.3,4.1-9.8,9.3-9.8c0.6,0,1.3,0,1.9,0.1L136.1,740.9z M133.7,740.9v-9.7
		c-0.2,0-0.5-0.1-0.8,0c-2.7,0-5.3,1.3-5.3,4.7C127.7,738.7,130.3,740.4,133.7,740.9L133.7,740.9z"/>
	<path d="M125.5,718.1v-8h23.1c5.2,0,7.9,2,7.9,7.3c0,4-1.7,6.3-3.4,6.3c-0.6,0.1-1.2-0.4-1.3-1c0-0.1,0-0.2,0-0.2
		c0-1.3,1.4-2.1,1.4-4.5c0-2.6-2.7-2.7-6.1-2.7h-18.7v1.5c0.1,0.8-0.5,1.5-1.3,1.6c-0.1,0-0.2,0-0.4,0
		C126.3,718.5,125.9,718.4,125.5,718.1z M118.5,716.1c-1.6,0-2.9-1.2-2.9-3.3s1.1-3.2,2.7-3.2s2.9,1.2,2.9,3.4
		S120.2,716.1,118.5,716.1L118.5,716.1z"/>
	<path d="M136.5,701c-6.6,0-11.5-4.2-11.5-11.5c0-6.5,4.1-11,10.9-11c6.6,0,11.6,4.2,11.6,11.5C147.5,696.7,143.3,701,136.5,701z
		 M135.9,684.3c-4.4,0-8.2,1.9-8.2,5.6s4.4,5.4,8.6,5.4c4.6,0,8.3-1.9,8.3-5.6S140.3,684.3,135.9,684.3z"/>
	<path d="M136.5,655.2c-6.6,0-11.5-4.2-11.5-11.5c0-6.5,4.1-11,10.9-11c6.6,0,11.6,4.2,11.6,11.5
		C147.5,650.9,143.3,655.2,136.5,655.2z M135.9,638.5c-4.4,0-8.2,1.9-8.2,5.6s4.4,5.4,8.6,5.4c4.6,0,8.3-1.9,8.3-5.6
		S140.3,638.5,135.9,638.5L135.9,638.5z"/>
	<path d="M126.9,608c2.7,0,2.4,2.3,4.3,5.5c1.4,2.3,1.7,3.5,3.7,3.9h9.1v-1.8c-0.1-0.8,0.6-1.5,1.4-1.6c0.1,0,0.2,0,0.3,0
		c0.5,0,0.9,0.1,1.3,0.4v10.9c-0.3,0.3-0.8,0.5-1.3,0.5c-1.1,0-1.7-0.6-1.7-1.5v-1.5h-15.5v1.5c0.1,0.8-0.5,1.5-1.4,1.6
		c-0.1,0-0.2,0-0.3,0c-0.5,0-0.9-0.2-1.3-0.5v-7.9h6.3l0,0c-4.4-1.6-6.9-4.9-6.9-7.5C124.9,608.7,125.6,608,126.9,608z"/>
	<path d="M143.9,581.8c0-1,0.6-1.5,1.7-1.5c0.5,0,0.9,0.1,1.3,0.4v7.9h-3.2l0,0c2.5,1.6,4,4.3,3.9,7.3c0,4.5-2.6,7.6-6.9,7.6
		s-6.9-3.2-6.9-8.8c-0.1-2,0.3-4.1,1-6h-1.1c-4.3,0-5.7,1.7-5.7,4.4c0,2.9,2.5,5.1,2.5,6.7c0,0.7-0.5,1.2-1.2,1.2c0,0,0,0-0.1,0
		c-1.8,0-4.2-3.2-4.2-8.5c0-3.8,1.1-9,9-9h10.1L143.9,581.8z M136.9,588.6c-0.6,1.4-0.8,2.8-0.8,4.3c0,3.2,1.8,4.8,4,4.8
		c2.2,0.1,4-1.6,4.1-3.7c0-0.1,0-0.3,0-0.4c0-2.7-1.9-5-4.4-5L136.9,588.6z"/>
	<path d="M143.9,564.5c-0.1-0.8,0.5-1.5,1.3-1.6c0.1,0,0.2,0,0.3,0c0.5,0,0.9,0.1,1.3,0.4V574c-0.4,0.3-0.8,0.5-1.3,0.4
		c-0.8,0.1-1.6-0.5-1.7-1.3c0-0.1,0-0.2,0-0.3v-1.5H118v1.5c0.1,0.8-0.5,1.5-1.3,1.6c-0.1,0-0.2,0-0.3,0c-0.5,0-1-0.1-1.3-0.4v-8
		h28.8V564.5z"/>
	<path d="M132,544.1c-1.3-0.5-1.7-0.9-1.7-1.9c0-0.7,0.3-1.1,1-1.1c0.5,0,1,0.2,1.5,0.3l4.8,1.6v8.8l1.5,0.6
		c1.1,0.4,1.6,0.8,1.6,1.9c0.1,0.5-0.3,1.1-0.8,1.2c-0.1,0-0.2,0-0.3,0c-0.6-0.1-1.2-0.2-1.8-0.4l-4.6-1.5v-9L132,544.1z"/>
	<path d="M143.9,479c-0.1-0.8,0.5-1.6,1.4-1.7c0.1,0,0.2,0,0.3,0c0.5,0,0.9,0.2,1.3,0.5v10.6c-0.4,0.3-0.8,0.4-1.3,0.4
		c-0.8,0.1-1.6-0.4-1.7-1.3c0-0.1,0-0.2,0-0.3v-1.5h-10.2c-3.1,0-5.3,0.9-5.3,4.2c-0.2,2.4,1.7,4.4,4,4.6c0.1,0,0.3,0,0.4,0h11V493
		c-0.1-0.8,0.5-1.6,1.4-1.6c0.1,0,0.2,0,0.3,0c0.5,0,0.9,0.2,1.3,0.5v10.6c-0.4,0.3-0.8,0.4-1.3,0.4c-1.1,0-1.7-0.6-1.7-1.5v-1.5
		h-10.2c-3.1,0-5.3,1-5.3,4.2c-0.1,2.4,1.7,4.4,4.1,4.6c0.1,0,0.3,0,0.4,0h11V507c-0.1-0.8,0.5-1.5,1.4-1.6c0.1,0,0.2,0,0.3,0
		c0.5,0,0.9,0.1,1.3,0.4v10.6c-0.3,0.3-0.8,0.5-1.3,0.5c-1.1,0-1.7-0.6-1.7-1.5v-1.5h-15.4v1.6c0.1,0.8-0.5,1.5-1.4,1.6
		c-0.1,0-0.2,0-0.3,0c-0.5,0-0.9-0.2-1.3-0.5v-8h3.5l0,0c-2.5-1.2-4-3.7-4-6.5c-0.2-2.9,1.5-5.6,4.2-6.6c-2.9-1.8-4.2-3.9-4.2-7.2
		c0-5.1,3.2-7.6,8.5-7.6h10.3L143.9,479z"/>
	<path d="M143.9,449.4c0-1,0.6-1.5,1.7-1.5c0.5,0,0.9,0.1,1.3,0.4v7.9h-3.2l0,0c2.5,1.6,4,4.3,3.9,7.3c0,4.5-2.6,7.6-6.9,7.6
		s-6.9-3.2-6.9-8.8c-0.1-2,0.3-4.1,1-6h-1.1c-4.3,0-5.7,1.7-5.7,4.4c0,2.9,2.5,5.1,2.5,6.7c0,0.7-0.5,1.2-1.2,1.2h-0.1
		c-1.8,0-4.2-3.2-4.2-8.5c0-3.8,1.1-9,9-9h10.1L143.9,449.4z M136.9,456.2c-0.6,1.4-0.8,2.8-0.8,4.3c0,3.2,1.8,4.8,4,4.8
		c2.2,0.1,4-1.6,4.1-3.7c0-0.1,0-0.3,0-0.4c0-2.7-1.9-5-4.4-5L136.9,456.2z"/>
	<path d="M143.9,403.8c-0.1-0.8,0.5-1.6,1.4-1.6c0.1,0,0.2,0,0.3,0c0.5,0,0.9,0.2,1.3,0.5v10.6c-0.4,0.3-0.8,0.4-1.3,0.4
		c-1.1,0-1.7-0.6-1.7-1.5v-1.5h-10.2c-3.1,0-5.3,0.9-5.3,4.2c-0.2,2.4,1.7,4.5,4.1,4.6c0.1,0,0.3,0,0.4,0h11V418
		c-0.1-0.8,0.5-1.6,1.4-1.7c0.1,0,0.2,0,0.3,0c0.5,0,0.9,0.2,1.3,0.5v10.6c-0.4,0.3-0.8,0.4-1.3,0.4c-1.1,0-1.7-0.6-1.7-1.5v-1.5
		h-10.2c-3.1,0-5.3,1-5.3,4.2c-0.1,2.4,1.7,4.4,4.1,4.6c0.1,0,0.3,0,0.4,0h11v-1.5c-0.1-0.8,0.5-1.5,1.3-1.6c0.1,0,0.2,0,0.3,0
		c0.5,0,0.9,0.1,1.3,0.4v10.6c-0.3,0.3-0.8,0.5-1.3,0.5c-1.1,0-1.7-0.6-1.7-1.5V439h-15.4v1.5c0.1,0.8-0.5,1.5-1.4,1.6
		c-0.1,0-0.2,0-0.3,0c-0.5,0-0.9-0.2-1.3-0.5v-7.9h3.5l0,0c-2.5-1.2-4-3.7-4-6.5c-0.2-2.9,1.5-5.6,4.2-6.6c-2.9-1.8-4.2-3.9-4.2-7.2
		c0-5.1,3.2-7.6,8.5-7.6h10.3L143.9,403.8z"/>
	<path d="M135.9,373.4c7,0,11.5,4.5,11.5,11.6c0,5.8-2,8.5-3.3,9.6h-25.9v1.5c0.1,0.8-0.6,1.5-1.4,1.6c-0.1,0-0.2,0-0.3,0
		c-0.5,0-1-0.1-1.3-0.5v-7.9h13.5l0,0c-2.3-1.4-3.7-3.9-3.7-6.6C125,376.8,129.9,373.4,135.9,373.4z M136.2,379.1c-4.6,0-8,2-8,5.4
		c0,3,2.2,4.8,5.2,4.8h9c0.8-0.3,2.3-1.6,2.3-4.5C144.6,381.4,141.3,379,136.2,379.1L136.2,379.1z"/>
	<path d="M136.1,360.4c5,0.1,8.2-2.1,8.2-6.2c0-4-3.1-5.1-3.1-6.7c0-0.7,0.6-1.2,1.3-1.2h0.1c1.8,0,4.9,3.2,4.9,8.7
		c0,6.6-3.7,11.2-11.2,11.2c-6.1,0-11.3-4.1-11.3-11.3c0-6.3,4.1-9.8,9.3-9.8c0.6,0,1.3,0,1.9,0.1L136.1,360.4z M133.7,360.4v-9.7
		c-0.2,0-0.5-0.1-0.8,0c-2.7,0-5.3,1.3-5.3,4.7C127.7,358.2,130.3,360,133.7,360.4L133.7,360.4z"/>
	<path d="M143.9,316.6c0-1,0.6-1.5,1.7-1.5c0.5,0,0.9,0.1,1.3,0.4v8h-3.2l0,0c2.5,1.6,4,4.3,3.9,7.3c0,4.5-2.6,7.6-6.9,7.6
		s-6.9-3.2-6.9-8.8c-0.1-2,0.3-4.1,1-6h-1.1c-4.3,0-5.7,1.7-5.7,4.4c0,2.9,2.5,5.1,2.5,6.7c0,0.7-0.5,1.2-1.2,1.2h-0.1
		c-1.8,0-4.2-3.2-4.2-8.5c0-3.8,1.1-9,9-9h10.1L143.9,316.6z M136.9,323.4c-0.6,1.4-0.8,2.8-0.8,4.3c0,3.2,1.8,4.8,4,4.8
		c2.2,0.1,4-1.6,4.1-3.7c0-0.1,0-0.3,0-0.4c0-2.7-1.9-5-4.4-5L136.9,323.4z"/>
	<path d="M143.9,286.3c-0.1-0.8,0.5-1.5,1.3-1.6c0.1,0,0.2,0,0.3,0c0.5,0,0.9,0.1,1.3,0.5v7.9h-3.1l0,0c2.3,1.4,3.7,3.9,3.7,6.6
		c0,6-5,9.4-10.9,9.4c-7,0-11.4-4.5-11.4-10.1c-0.1-2.2,0.7-4.3,2.2-5.8l0,0h-9.2v1.8c0.1,0.8-0.5,1.5-1.3,1.6c-0.1,0-0.2,0-0.3,0
		c-0.5,0-1-0.1-1.3-0.5v-8.2H144L143.9,286.3z M130.1,293.1c-1.4,1-2.1,2.7-2,4.4c0,3.2,2.9,5.8,8,5.8s8.2-2.1,8.2-5.4
		c0-2.8-1.8-4.8-5.4-4.8H130.1z"/>
	<path d="M136.1,272.4c5,0.1,8.2-2.1,8.2-6.2c0-4-3.1-5.1-3.1-6.7c0-0.7,0.6-1.2,1.2-1.2c0.1,0,0.1,0,0.2,0c1.8,0,4.9,3.2,4.9,8.7
		c0,6.6-3.7,11.2-11.2,11.2c-6.1,0-11.3-4.1-11.3-11.3c0-6.3,4.1-9.8,9.3-9.8c0.6,0,1.3,0,1.9,0.1L136.1,272.4z M133.7,272.3v-9.7
		c-0.2,0-0.5-0.1-0.8,0c-2.7,0-5.3,1.3-5.3,4.6C127.7,270.2,130.3,272,133.7,272.3L133.7,272.3z"/>
	<path d="M126.9,232.5c2.7,0,2.4,2.3,4.3,5.5c1.4,2.4,1.7,3.5,3.7,3.9h9.1V240c0-1,0.6-1.6,1.7-1.6c0.5,0,0.9,0.1,1.3,0.4v10.9
		c-0.3,0.3-0.8,0.5-1.3,0.5c-1.1,0-1.7-0.6-1.7-1.6V247h-15.5v1.6c0.1,0.8-0.5,1.5-1.4,1.6c-0.1,0-0.2,0-0.3,0
		c-0.5,0-0.9-0.2-1.3-0.5v-7.9h6.3v-0.1c-4.4-1.6-6.9-4.9-6.9-7.5C124.9,233.2,125.6,232.5,126.9,232.5z"/>
	<path d="M136.5,226.9c-6.6,0-11.5-4.2-11.5-11.5c0-6.5,4.1-11,10.9-11c6.6,0,11.6,4.2,11.6,11.5
		C147.5,222.5,143.3,226.9,136.5,226.9z M135.9,210.1c-4.4,0-8.2,1.9-8.2,5.6s4.4,5.4,8.6,5.4c4.6,0,8.3-1.9,8.3-5.6
		S140.3,210.1,135.9,210.1z"/>
	<path class="st2" d="M691.5,220.5c0.9-0.4,1.9-0.1,2.4,0.8c0.1,0.1,0.1,0.3,0.1,0.4c0.2,0.5,0.3,1.1,0.1,1.7l-12.7,4.9
		c-0.5-0.3-0.9-0.7-1.1-1.3c-0.5-0.9-0.2-2,0.6-2.5c0.1-0.1,0.3-0.1,0.5-0.2l1.8-0.7l-8.5-21.9l0,0l-4.2,20.2l-16.9-12l-0.1,0.1
		l5.4,13.9c1.5,3.7,2.8,6.8,3.3,7.9l2-0.8c0.9-0.5,2-0.2,2.5,0.7c0.1,0.1,0.1,0.3,0.2,0.5c0.2,0.5,0.3,1.1,0.1,1.7l-10.5,4.1
		c-0.5-0.3-0.9-0.7-1.1-1.3c-0.5-0.8-0.2-1.9,0.6-2.4c0.1-0.1,0.2-0.1,0.4-0.2l2-0.8c-0.3-1-1.4-4.1-3.4-9.3l-6.9-17.6l-2,0.7
		c-1.2,0.4-2,0-2.5-1.3c-0.2-0.5-0.2-1.1,0-1.6l8.6-3.3l16.9,11.9l0,0l4.3-20.1l7.6-3c0.5,0.3,0.9,0.7,1.1,1.2
		c0.5,0.9,0.2,2-0.7,2.5c-0.1,0.1-0.2,0.1-0.3,0.2l-2,0.8l10.5,26.9L691.5,220.5z"/>
	<path class="st2" d="M721,211c1.2-0.4,1.9,0.1,2.3,1.3c0.2,0.5,0.2,1,0,1.6l-8.8,2.9l-1.2-3.6h-0.1c-0.8,3.3-3.4,6-6.7,6.9
		c-5,1.6-9.4-0.2-10.9-5c-1.5-4.7,1.1-8.9,7.3-10.9c2.3-0.8,4.7-1.1,7.1-1l-0.4-1.3c-1.6-4.8-4-5.8-7-4.8c-3.2,1-4.7,4.6-6.5,5.2
		c-0.7,0.3-1.5-0.1-1.8-0.9v-0.1c-0.7-2,2.1-5.8,7.9-7.7c4.2-1.4,10.4-2,13.3,6.8l3.7,11.2L721,211z M710.8,205.6
		c-1.7-0.1-3.5,0.1-5.1,0.7c-3.6,1.2-4.7,3.8-4,6.1c0.7,2.4,3.2,3.9,5.7,3.2c0.2,0,0.3-0.1,0.5-0.2c3-1,4.9-3.9,3.9-6.7L710.8,205.6
		z"/>
	<path class="st2" d="M738.7,185.2c0.9,3.1-1.8,3.5-4.8,6.6c-2.2,2.3-3.4,3-3.2,5.4l2.9,10.2l2.1-0.6c0.9-0.3,1.9,0.2,2.2,1.1
		c0,0.1,0.1,0.2,0.1,0.3c0.1,0.5,0.1,1.1-0.1,1.6l-12.3,3.5c-0.5-0.3-0.8-0.7-0.9-1.3c-0.4-0.9,0-1.9,0.8-2.3
		c0.1-0.1,0.2-0.1,0.4-0.1l1.8-0.5l-5-17.4l-1.8,0.5c-0.9,0.3-1.9-0.1-2.2-1c0-0.1-0.1-0.2-0.1-0.3c-0.2-0.5-0.1-1.1,0.1-1.6
		l8.9-2.6l2,7l0,0c0.4-5.5,3.3-9.3,6.3-10.1C737.3,183.2,738.3,183.7,738.7,185.2z"/>
	<path class="st2" d="M753.4,201.4c1.5,0.2,3,0.1,4.5-0.4c6.9-1.7,5-7.4,7.4-8c0.7-0.2,1.4,0.2,1.6,0.8c0,0.1,0.1,0.2,0.1,0.3
		c0.2,2.1,0.2,4.2-0.2,6.3c-0.3,1.6-0.7,2.3-1.7,2.5s-1.7-0.6-1.9-0.8c-1.5,1.1-3.2,1.9-5,2.4c-2.5,0.6-5,0.1-6.7,0.6
		c-2.5,0.6-2.8,1.9-4.5,2.4c-0.9,0.2-1.4-0.5-1.5-1.1c-0.2-1,0.2-1.9,0.8-3.2l8.8-20c-1.6,0-3.1,0.2-4.6,0.6
		c-5.5,1.4-4.4,6.1-6.7,6.6c-0.7,0.2-1.4-0.2-1.5-0.9c0-0.1,0-0.1,0-0.2c-0.1-1.6,0-3.2,0.4-4.7c0.3-1.6,0.7-2.4,1.7-2.6
		c0.7-0.1,1.4,0,2,0.4c1.3-0.9,2.8-1.6,4.4-2c2.8-0.7,4.2-0.1,5.9-0.6c1.4-0.4,3-1.6,4.2-1.9c0.7-0.3,1.5,0.1,1.8,0.8
		c0,0.1,0,0.1,0.1,0.2c0.2,0.9-0.2,2-1.2,4L753.4,201.4z"/>
	<path class="st2" d="M768.7,189.3c-1.5-7.6,2.2-14.2,10.5-15.9c7.5-1.5,13.5,2.1,15.1,9.9c1.5,7.5-2.1,14.4-10.4,16
		C776.3,201,770.3,197.2,768.7,189.3z M787.7,184.8c-1-5.1-4.1-9-8.3-8.1c-4.4,0.9-5.2,6.3-4.2,11.2c1.1,5.2,4.1,9,8.3,8.2
		C788,195.2,788.8,189.8,787.7,184.8z"/>
	<path class="st3" d="M1567.7,1118.1c0.3-0.8,1.2-1.2,2-0.9c0.1,0,0.2,0.1,0.3,0.2c0.4,0.2,0.8,0.6,1,1l-5.3,11.4
		c-0.5,0.1-1,0.1-1.4-0.2c-0.8-0.3-1.3-1.2-1-2c0-0.1,0.1-0.3,0.2-0.4l0.9-1.9l-6.7-0.7l-4.8,10.3l1.8,1.9c0.9,1.1,1.9,2,3,2.9
		l0.8-1.8c0.5-1.1,1.3-1.5,2.4-1c0.4,0.2,0.8,0.6,1,1l-4.3,9.3c-0.5,0.2-1,0.1-1.4-0.1c-1-0.5-1.4-1.2-0.8-2.5l0.7-1.4
		c-0.6-0.6-1.9-2.2-3.8-4.3l-14.2-15.4l-1.1,2.3c-0.3,0.8-1.2,1.2-2,0.9c-0.1,0-0.2-0.1-0.3-0.2c-0.5-0.2-0.8-0.5-1-1l4-8.6
		l29.5,2.6L1567.7,1118.1z M1541.7,1122.8L1541.7,1122.8l9.1,9.8l3.9-8.4L1541.7,1122.8z"/>
	<path class="st3" d="M1562.6,1082.3c0.5-0.2,1-0.2,1.4,0.1c0.8,0.2,1.2,1,1,1.8c0,0.1,0,0.1-0.1,0.2l-0.6,1.5l13.9,5.7
		c8.4,3.4,10.9,8.4,8.5,14.4c-1.7,4.2-5.3,6.8-7.3,6c-0.6-0.2-1-0.9-0.7-1.6c0-0.1,0-0.1,0.1-0.1c0.6-1.5,3.5-1.8,4.8-5.2
		c1.5-3.8-1.2-6.3-8-8.9l0,0c1.9,2,2.4,5,1.3,7.5c-2.2,5.4-7.8,6.9-13.1,4.8c-6.5-2.6-8.8-8.2-6.8-13.2c1.4-3.4,3.7-4.2,5.3-4.4l0,0
		l-2.6-1.1L1562.6,1082.3z M1564.8,1091.8c-2,0.1-3.8,1.3-4.6,3.2c-1.2,3.1,1,6.2,5.2,7.9s8,1,9.2-2.1c1-2.6-0.5-5.3-3.5-6.5
		L1564.8,1091.8z"/>
	<path class="st3" d="M1575.1,1080c-6.2-2.2-9.4-7.8-7-14.7c2.2-6.2,7.4-9,13.9-6.7c6.2,2.2,9.6,7.9,7.2,14.7
		C1587,1079.6,1581.6,1082.3,1575.1,1080z M1580.2,1064c-4.2-1.5-8.4-1-9.6,2.5s2.3,6.6,6.3,8c4.3,1.5,8.4,1,9.7-2.5
		S1584.3,1065.5,1580.2,1064L1580.2,1064z"/>
	<path class="st3" d="M1576.4,1039.9c0.4-1.6,1.3-3.1,2.4-4.3c-0.5-0.4-0.6-1.1-0.5-1.7c0.3-1,1.2-1,2.7-0.9c1.1,0,2.1,0.1,3.1,0.4
		c0.6,0.2,1,0.9,0.8,1.5v0.1c-0.2,0.6-0.5,1-1.6,1.3c-2.7,0.7-4.1,2-4.7,4c-0.7,1.7,0.1,3.6,1.8,4.3c0.1,0,0.1,0.1,0.2,0.1
		c5.1,1.6,4.6-12.2,13.3-9.5c4.5,1.4,5.9,6,4.2,11.5c-1.8,6-5.4,7.4-7.5,6.8c-0.8-0.1-1.4-0.9-1.3-1.8c0-0.1,0-0.2,0.1-0.2
		c0.6-2.1,4.5-1.1,6.1-6.4c0.6-2.1-0.1-4.1-2.1-4.7c-5.7-1.7-4.8,12-13,9.5C1576.4,1048.6,1575,1044.4,1576.4,1039.9z"/>
	<path class="st3" d="M1603.4,1015.2c1.3,0.3,2.6,2.5,1.7,6c-1.1,3.9-3,5.4-7.9,4.1l-11.8-3.1l-0.5,1.8c-0.1,0.7-0.8,1.2-1.5,1.1
		c-0.1,0-0.2,0-0.3-0.1c-1.1-0.3-1.2-1.2-1.5-2.2c-0.7-5.2-5.3-5.4-4.6-8c0.2-0.8,0.9-1.2,1.7-1.1c0.1,0,0.2,0,0.3,0.1
		c1.4,0.4,2.4,2.1,4.8,2.6l1.2-4.5c0.1-0.7,0.8-1.2,1.5-1.1c0.1,0,0.2,0.1,0.3,0.1c0.7,0.1,1.3,0.8,1.2,1.5c0,0.1,0,0.2-0.1,0.4
		l-1.2,4.4l11,2.9c2.4,0.6,3.8,0.8,4.2-0.6c0.5-1.9-0.6-2.1-0.2-3.4c0.2-0.6,0.8-1,1.5-0.9
		C1603.3,1015.1,1603.3,1015.2,1603.4,1015.2z"/>
	<path class="st3" d="M1597.7,1006.3c-6.5-1.5-10.3-6.7-8.7-13.8c1.4-6.4,6.3-9.8,13-8.3c6.4,1.4,10.4,6.7,8.8,13.7
		C1609.5,1004.5,1604.4,1007.8,1597.7,1006.3z M1600.9,989.9c-4.3-1-8.4,0-9.2,3.7s3.1,6.2,7.2,7.2c4.4,1,8.5,0,9.3-3.6
		S1605.2,990.8,1600.9,989.9z"/>
	<path class="st3" d="M1270.8,1443.5c1.3,1.3,2.5,2.6,3.6,4.1c0.5,0.6,0.4,1.6-0.3,2.1c-0.1,0.1-0.1,0.1-0.2,0.1
		c-0.8,0.5-1.3,0.2-2.2-0.3c-2.6-1.6-5.6-2.7-8.8-0.8c-2.8,1.7-3.4,4.3-2,6.7c1.8,3,5,1.9,9.2,0.6s9.5-2.6,12.9,3.2
		c3.7,6.2,0.3,11.7-5.1,14.9c-6.8,4-12,2.1-13.7-0.6c-0.7-1.2-0.5-2.2,0.4-2.7c1.2-0.7,2.1-0.2,3.6,0.4c2.7,1.4,5.9,1.4,8.5-0.1
		c2.9-1.7,4.1-4.7,2.4-7.5c-2.1-3.5-5.9-2.2-9.4-1.1c-4.5,1.4-9.7,2.8-12.9-2.6c-2.9-4.9-0.8-10.3,4.4-13.4c1.9-1.2,4-1.8,6.2-1.9
		c0-0.7,0.1-1.5,0.8-1.9C1269.3,1442.1,1270,1442.6,1270.8,1443.5z"/>
	<path class="st3" d="M1294.3,1450.3c2.7,4.2,6.2,5.7,9.7,3.3c3.3-2.2,2.5-5.4,3.9-6.3c0.6-0.4,1.3-0.2,1.7,0.4l0.1,0.1
		c1,1.5,0,5.8-4.5,8.9c-5.5,3.7-11.3,3.1-15.5-3.2c-3.4-5.1-2.8-11.7,3.2-15.6c5.2-3.5,10.4-2,13.3,2.3c0.4,0.5,0.7,1.1,1,1.7
		L1294.3,1450.3z M1293,1448.3l8.1-5.4c-0.1-0.2-0.2-0.4-0.4-0.7c-1.5-2.2-4-3.7-6.8-1.8C1291.4,1442.1,1291.4,1445.2,1293,1448.3
		L1293,1448.3z"/>
	<path class="st3" d="M1331.9,1423.5c4.2,5.8,2.9,11.9-1.3,15.1c-1.7,1.4-3.9,2-6,1.7l0,0l4.8,6.5l1.5-1.1c0.6-0.6,1.5-0.5,2.1,0.1
		c0.1,0.1,0.2,0.2,0.2,0.3c0.3,0.3,0.5,0.8,0.4,1.2l-8.9,6.6c-0.5-0.1-0.9-0.4-1.1-0.8c-0.6-0.6-0.5-1.6,0.1-2.1
		c0.1-0.1,0.1-0.1,0.2-0.2l1.2-0.9l-14.6-19.9l-1.2,0.9c-0.6,0.5-1.6,0.5-2.1-0.2c-0.1-0.1-0.1-0.1-0.1-0.2
		c-0.3-0.4-0.4-0.9-0.4-1.3l6.4-4.7l2,2.7l0,0c-0.3-2.7,0.8-5.4,3.1-7C1322.8,1416.7,1328.5,1418.8,1331.9,1423.5z M1327.6,1427.3
		c-3-4-6.6-5.4-9.3-3.4c-2.2,1.6-2.8,4.3-0.7,7.2l5.2,7.1c1.6,0.4,3.4,0.1,4.7-1C1330.2,1435.2,1330.7,1431.4,1327.6,1427.3
		L1327.6,1427.3z"/>
	<path class="st3" d="M1353.8,1416.7c0.8,1,0.6,3.6-2.2,5.8c-3.2,2.5-5.6,2.6-8.8-1.3l-7.6-9.6l-1.5,1.2c-0.5,0.5-1.4,0.5-1.9-0.1
		c0,0-0.1-0.1-0.1-0.2c-0.7-0.8-0.2-1.6,0.1-2.7c2.5-4.6-1-7.5,1-9.2c0.6-0.5,1.5-0.5,2,0.1c0.1,0.1,0.1,0.1,0.2,0.2
		c0.9,1.2,0.7,3.2,2.3,5l3.7-2.9c0.5-0.5,1.3-0.5,1.9,0c0.1,0.1,0.2,0.2,0.2,0.3c0.6,0.5,0.6,1.4,0.1,1.9c-0.1,0.1-0.2,0.2-0.3,0.2
		l-3.5,2.8l7.1,8.9c1.6,2,2.6,2.9,3.7,2c1.5-1.2,0.8-2,1.8-2.8C1352.6,1415.9,1353.4,1416,1353.8,1416.7
		C1353.8,1416.6,1353.8,1416.6,1353.8,1416.7z"/>
	<path class="st3" d="M1344.8,1390.8c-1-1.2-1-3,0.7-4.4s3.2-1.2,4.2,0s1,3-0.7,4.4S1345.9,1392.2,1344.8,1390.8z M1367,1405.3
		c0.6-0.6,1.5-0.6,2.1,0c0.1,0.1,0.1,0.2,0.2,0.3c0.3,0.3,0.5,0.8,0.5,1.2l-8.2,6.9c-0.5-0.1-0.9-0.3-1.2-0.7
		c-0.6-0.5-0.7-1.5-0.1-2.1c0.1-0.1,0.2-0.2,0.2-0.2l1.2-1l-10-11.8l-1.2,1c-0.6,0.6-1.5,0.6-2.1,0c-0.1-0.1-0.1-0.2-0.2-0.2
		c-0.3-0.3-0.5-0.8-0.5-1.3l6.1-5.2l1.2,1.4l0,0l10.8,12.7L1367,1405.3z"/>
	<path class="st3" d="M1372.6,1390c3.3,3.8,7,4.6,10.1,1.8s1.6-5.8,2.8-6.9c0.5-0.5,1.3-0.4,1.8,0.1l0.1,0.1c1.2,1.3,1,5.8-3.1,9.5
		c-4.9,4.5-10.7,4.8-15.8-0.7c-4.1-4.5-4.6-11.1,0.7-15.9c4.7-4.2,9.9-3.6,13.5,0.2c0.5,0.5,0.9,1,1.2,1.5L1372.6,1390z
		 M1371,1388.2l7.2-6.6c-0.1-0.2-0.3-0.4-0.5-0.6c-1.8-2-4.5-3.1-7-0.8C1368.5,1382.3,1369,1385.4,1371,1388.2L1371,1388.2z"/>
	<path class="st3" d="M1421.4,1353c0.5-0.7,1.5-0.7,2.2-0.2c0.1,0.1,0.1,0.1,0.2,0.2c0.3,0.3,0.6,0.8,0.6,1.2l-7.4,7.6
		c-0.5-0.1-0.9-0.3-1.2-0.6c-0.7-0.5-0.8-1.4-0.3-2.1c0.1-0.1,0.1-0.2,0.2-0.2l1.1-1.1l-7.3-7.2c-2.2-2.2-4.4-3-6.7-0.7
		c-1.8,1.6-1.9,4.4-0.3,6.1c0.1,0.1,0.2,0.2,0.3,0.3l7.9,7.7l1.1-1.1c0.5-0.7,1.5-0.8,2.1-0.2c0.1,0.1,0.2,0.1,0.2,0.2
		c0.3,0.3,0.6,0.8,0.6,1.2l-7.4,7.6c-0.5,0-0.9-0.2-1.2-0.6c-0.7-0.5-0.8-1.4-0.3-2.1c0.1-0.1,0.1-0.2,0.2-0.2l1.1-1.1l-7.3-7.2
		c-2.2-2.2-4.5-2.9-6.7-0.6c-1.8,1.6-1.9,4.3-0.3,6.1c0.1,0.1,0.2,0.2,0.3,0.3l7.9,7.7l1-1.1c0.5-0.6,1.5-0.7,2.1-0.2
		c0.1,0.1,0.2,0.1,0.2,0.2c0.3,0.3,0.5,0.7,0.6,1.2l-7.4,7.6c-0.5,0-0.9-0.2-1.2-0.6c-0.7-0.5-0.8-1.4-0.3-2.1
		c0.1-0.1,0.1-0.2,0.2-0.2l1.1-1.1l-11.1-10.7l-1.1,1.1c-0.5,0.6-1.4,0.7-2.1,0.2c-0.1-0.1-0.1-0.1-0.2-0.2
		c-0.3-0.3-0.6-0.8-0.6-1.2l5.6-5.7l2.5,2.4l0,0c-0.9-2.6-0.2-5.5,1.7-7.4c1.9-2.2,5-2.9,7.7-1.8c-0.8-3.3-0.3-5.7,2-8.1
		c3.5-3.6,7.6-3.2,11.4,0.5l7.4,7.2L1421.4,1353z"/>
	<path class="st3" d="M1435.9,1324c5.3,4.6,5.8,10.9,1.1,16.3c-3.8,4.4-7.1,5.2-8.8,5.1l-19.6-17l-1,1.2c-0.5,0.6-1.4,0.8-2,0.3
		c-0.1-0.1-0.2-0.1-0.2-0.2c-0.4-0.3-0.6-0.7-0.7-1.2l5.2-6l10.2,8.8l0,0c-0.9-2.6-0.3-5.4,1.5-7.4
		C1425.4,1319.5,1431.4,1320,1435.9,1324z M1432.4,1328.4c-3.4-3-7.3-3.7-9.6-1.1c-2,2.3-1.5,5.1,0.7,7l6.8,5.9
		c0.8,0.2,2.8,0.3,4.6-1.9C1437.3,1335.7,1436.3,1331.8,1432.4,1328.4z"/>
	<path class="st3" d="M1444.6,1298.7c2.1,1.7,0.5,3.3-0.1,7c-0.4,2.7-0.9,3.8,0.4,5.3l7.1,5.6l1.1-1.4c0.5-0.7,1.4-0.8,2.1-0.4
		c0.1,0.1,0.2,0.1,0.2,0.2c0.4,0.3,0.6,0.7,0.7,1.1l-6.8,8.5c-0.5,0-0.9-0.1-1.3-0.4c-0.7-0.4-0.9-1.3-0.5-2c0-0.1,0.1-0.2,0.2-0.2
		l1-1.2l-12.1-9.6l-1,1.2c-0.5,0.7-1.4,0.8-2,0.4c-0.1-0.1-0.2-0.1-0.2-0.2c-0.4-0.3-0.6-0.7-0.7-1.2l4.9-6.2l4.9,3.9l0,0
		c-2.4-4-2.3-8.1-0.7-10.2c0.5-0.8,1.6-1.1,2.4-0.6C1444.4,1298.5,1444.5,1298.6,1444.6,1298.7z"/>
	<path class="st3" d="M1458.8,1295.1c4,3,7.8,3.2,10.3-0.2s0.5-6,1.4-7.3c0.4-0.5,1.2-0.7,1.7-0.3l0.1,0.1c1.5,1.1,2.1,5.5-1.2,9.9
		c-3.9,5.3-9.6,6.9-15.7,2.4c-4.9-3.6-6.7-10-2.4-15.8c3.7-5.1,9-5.5,13.2-2.4c0.5,0.4,1,0.8,1.5,1.2L1458.8,1295.1z M1456.9,1293.7
		l5.8-7.8c-0.2-0.2-0.4-0.3-0.6-0.5c-2.2-1.6-5-2.1-7,0.6C1453.3,1288.4,1454.3,1291.3,1456.9,1293.7L1456.9,1293.7z"/>
	<path class="st3" d="M870.7,1545.8c0.5-12,9.3-16,15.8-15.8c6.6,0.3,14.9,4.6,14.4,16.6s-9.1,16.2-15.8,15.8
		S870.2,1557.9,870.7,1545.8z M894.4,1546.6c0.4-9.2-3.4-13.6-8-13.8s-8.7,3.8-9.1,13c-0.4,9.6,3.4,13.3,7.9,13.5
		S894,1555.7,894.4,1546.6z"/>
	<path class="st3" d="M914.5,1551.4c0,5.3,2.5,8.4,6.1,8.4s4.8-3.2,6.3-3.2c0.7,0,1.3,0.5,1.3,1.2c0,0.1,0,0.2,0,0.2
		c0,1.8-2.9,5-8.6,4.9c-6.2,0-10.9-3.5-11-11c-0.1-7.2,4.8-11.5,10.6-11.5c1.8-0.1,3.5,0.3,5.1,1.2c0.2-0.6,0.8-1,1.5-1
		c1.1,0,1.4,0.8,1.7,2.2l0.4,2.2c0.1,0.6,0.2,1.2,0.2,1.8c0.1,0.7-0.4,1.3-1.1,1.4c-0.1,0-0.2,0-0.3,0c-1,0-1.4-0.8-1.8-1.6
		c-1.1-2.2-2.3-3.7-4.8-3.7C916.8,1543,914.4,1545.9,914.5,1551.4z"/>
	<path class="st3" d="M949.8,1558.7c0,1.3-1.7,3.3-5.2,3.4c-4,0.1-6.1-1.2-6.3-6.3l-0.5-12.2l-1.9,0.1c-0.7,0.1-1.4-0.4-1.5-1.1
		c0-0.1,0-0.2,0-0.3c0-1.1,0.8-1.4,1.7-2.1c4.7-2.2,3.6-6.7,6.2-6.8c0.8-0.1,1.5,0.5,1.6,1.2c0,0.1,0,0.2,0,0.3
		c0.1,1.5-1.3,2.9-1.1,5.4l4.7-0.2c1.1,0,1.5,0.6,1.5,1.4c0.1,0.7-0.3,1.4-1.1,1.6c-0.1,0-0.2,0-0.4,0l-4.5,0.2l0.5,11.4
		c0.1,2.5,0.4,3.9,1.8,3.8c2-0.1,1.8-1.2,3.1-1.2c0.7,0,1.2,0.5,1.2,1.2C949.8,1558.6,949.8,1558.6,949.8,1558.7z"/>
	<path class="st3" d="M980.2,1556.1c1-0.1,1.6,0.5,1.7,1.6c0.1,0.5,0,0.9-0.3,1.3l-8,0.7l-0.3-3.4l0,0c-1.1,2.5-3.5,4.3-6.3,4.4
		c-4.6,0.4-7.5-2-8-7.8l-0.9-10.3l-1.5,0.1c-0.8,0.1-1.5-0.4-1.7-1.2c0-0.1,0-0.2,0-0.3c-0.1-0.5,0.1-1,0.4-1.3l7.9-0.7l1.1,13
		c0.3,3.4,1.4,5.3,4.4,5s4.6-2.2,4.3-4.9l-0.9-10.9l-1.8,0.2c-0.8,0.1-1.6-0.4-1.7-1.2c0-0.1,0-0.2,0-0.3c-0.1-0.5,0.1-0.9,0.3-1.3
		l8.2-0.7l1.5,18.4L980.2,1556.1z"/>
	<path class="st3" d="M1010.6,1544.2c0.9,7-2.9,12-10,12.9c-5.8,0.8-8.7-0.8-10-2l-3.4-25.7l-1.5,0.2c-0.8,0.2-1.6-0.3-1.7-1.1
		c0-0.1,0-0.2,0-0.3c-0.1-0.5,0-1,0.3-1.4l7.9-1.1l1.8,13.4l0,0c1-2.5,3.3-4.2,6-4.5C1005.7,1533.9,1009.8,1538.2,1010.6,1544.2z
		 M1005,1545.2c-0.6-4.5-3-7.7-6.4-7.2c-3,0.4-4.5,2.8-4.1,5.8l1.2,8.9c0.4,0.7,1.9,2,4.7,1.6
		C1003.8,1553.9,1005.7,1550.3,1005,1545.2L1005,1545.2z"/>
	<path class="st3" d="M1033.8,1531.1c0.5,2.7-1.8,2.8-4.7,5.2c-2.1,1.8-3.2,2.3-3.2,4.3l1.6,8.9l1.8-0.3c0.8-0.2,1.6,0.3,1.8,1.1
		c0,0.1,0,0.2,0,0.3c0.1,0.4,0,0.9-0.2,1.3l-10.7,1.9c-0.4-0.3-0.6-0.7-0.7-1.2c-0.3-0.8,0.2-1.6,1-1.9c0.1,0,0.2-0.1,0.3-0.1
		l1.5-0.3l-2.7-15.2l-1.5,0.3c-0.8,0.2-1.6-0.3-1.8-1.1c0-0.1,0-0.2,0-0.3c-0.1-0.5,0-1,0.2-1.4l7.8-1.4l1.1,6.2l0,0
		c0.8-4.6,3.7-7.6,6.2-8.1C1032.8,1529.2,1033.6,1529.7,1033.8,1531.1z"/>
	<path class="st3" d="M1046.8,1537.8c1,4.9,3.8,7.5,7.9,6.7c3.9-0.8,4.3-4.2,5.9-4.5c0.7-0.1,1.3,0.3,1.5,1c0,0,0,0.1,0,0.2
		c0.4,1.8-2.1,5.4-7.5,6.6c-6.5,1.4-11.7-1.2-13.3-8.6c-1.3-6,1.6-11.9,8.6-13.4c6.2-1.3,10.4,1.9,11.5,7c0.2,0.6,0.3,1.3,0.3,1.9
		L1046.8,1537.8z M1046.4,1535.4l9.5-2.1c0-0.3,0-0.5-0.1-0.8c-0.6-2.6-2.4-4.9-5.7-4.2C1047.1,1529.1,1046,1532,1046.4,1535.4
		L1046.4,1535.4z"/>
	<path class="st3" d="M491.9,1380.2c0,0.5-0.2,0.9-0.5,1.3c-0.4,0.7-1.4,1-2.1,0.5c-0.1-0.1-0.2-0.1-0.3-0.2l-1.4-1.2
		c-0.6,0.7-2.7,2.9-5.7,6.3l-12.6,14.6l-3.5-3l2.9-27.9l-0.1-0.1l-8.2,9.5c-2.3,2.7-4.1,4.9-4.6,5.7l1.5,1.3
		c0.7,0.5,0.9,1.4,0.5,2.1c-0.1,0.1-0.2,0.2-0.3,0.3c-0.3,0.4-0.8,0.6-1.2,0.7l-7.3-6.3c0-0.5,0.2-1,0.5-1.3
		c0.4-0.7,1.4-0.9,2.1-0.5c0.1,0.1,0.2,0.1,0.3,0.2l1.4,1.2c0.6-0.6,2.5-2.7,5.7-6.3l10.6-12.2l-1.3-1.1c-0.7-0.5-0.8-1.5-0.3-2.2
		c0.1-0.1,0.1-0.1,0.2-0.2c0.3-0.4,0.8-0.6,1.2-0.7l5.9,5.1l-2.8,27.2l0.1,0.1l7.9-9.1c2.3-2.7,4.1-4.9,4.6-5.7l-1.4-1.2
		c-0.7-0.5-1-1.4-0.5-2.2c0.1-0.1,0.2-0.3,0.3-0.4c0.3-0.4,0.8-0.6,1.2-0.7L491.9,1380.2z"/>
	<path class="st3" d="M484.5,1400.5c4.1-5.2,10.4-6.5,16.2-2c5.2,4,6.2,9.9,2,15.3c-4,5.2-10.5,6.6-16.2,2.2
		C481.2,1411.9,480.3,1405.9,484.5,1400.5z M498.1,1410.3c2.7-3.5,3.5-7.7,0.6-9.9s-7,0.2-9.6,3.5c-2.8,3.6-3.6,7.7-0.6,10
		S495.4,1413.8,498.1,1410.3L498.1,1410.3z"/>
	<path class="st3" d="M533.6,1423.1c0,0.5-0.1,0.9-0.4,1.3c-0.4,0.7-1.3,1-2,0.6c-0.1-0.1-0.2-0.2-0.3-0.2l-1.2-0.8
		c-0.6,0.3-2.2,1.2-5.6,3.2l-12,7l-2.7-1.9l3.9-19.9l-1-0.7c-0.7-0.4-1-1.3-0.6-2c0.1-0.1,0.1-0.2,0.2-0.3c0.3-0.4,0.6-0.7,1.1-0.8
		l8.8,6.2c0,0.5-0.1,0.9-0.4,1.3c-0.4,0.7-1.2,1-1.9,0.6c-0.1-0.1-0.2-0.1-0.3-0.2l-1.1-0.8l-2.8,13.5l0.1,0.1l8.5-5.3
		c1.2-0.7,2.5-1.6,3.1-2l-1.3-1c-0.7-0.4-1-1.3-0.6-2c0.1-0.1,0.1-0.2,0.2-0.3c0.3-0.4,0.7-0.7,1.1-0.8L533.6,1423.1z"/>
	<path class="st3" d="M537.1,1447.3c0.7,0.4,1,1.3,0.6,2c-0.1,0.1-0.1,0.2-0.2,0.3c-0.2,0.4-0.6,0.7-1,0.8l-9-5.8
		c-0.1-0.5,0.1-0.9,0.3-1.3c0.3-0.7,1.2-1.1,2-0.7c0.1,0,0.2,0.1,0.3,0.2l1.3,0.8l8.4-13l-1.3-0.8c-0.7-0.4-1-1.3-0.6-2
		c0-0.1,0.1-0.2,0.2-0.3c0.2-0.4,0.6-0.7,1.1-0.9l6.7,4.3l-1,1.5l0,0l-9,14L537.1,1447.3z M544.6,1421.9c0.8-1.3,2.6-1.8,4.4-0.6
		s2.1,2.7,1.2,4s-2.6,1.8-4.4,0.6S543.7,1423.3,544.6,1421.9L544.6,1421.9z"/>
	<path class="st3" d="M553.4,1448.3c-2.6,4.2-2.4,8.1,1.2,10.2c3.4,2,6-0.1,7.4,0.7c0.6,0.4,0.8,1.1,0.4,1.7l-0.1,0.1
		c-0.9,1.6-5.2,2.6-10-0.3c-5.7-3.4-7.7-8.9-3.8-15.4c3.1-5.2,9.3-7.6,15.5-3.9c5.4,3.2,6.3,8.5,3.6,13c-0.3,0.6-0.7,1.1-1.1,1.6
		L553.4,1448.3z M554.7,1446.3l8.3,5c0.2-0.2,0.3-0.4,0.4-0.6c1.4-2.3,1.6-5.2-1.3-7C559.6,1442.1,556.8,1443.4,554.7,1446.3
		L554.7,1446.3z"/>
	<path class="st3" d="M602.9,1484.4c0.8,0.3,1.1,1.2,0.8,2c0,0.1-0.1,0.2-0.1,0.3c-0.2,0.4-0.6,0.8-1,0.9l-9.4-4.9
		c-0.1-0.5,0-0.9,0.2-1.3c0.3-0.8,1.1-1.2,1.9-0.9c0.1,0,0.2,0.1,0.3,0.1l1.4,0.7l4.7-9.1c1.4-2.8,1.6-5.1-1.3-6.6
		c-2-1.2-4.7-0.6-5.9,1.5c-0.1,0.1-0.1,0.2-0.2,0.4l-5.1,9.8l1.4,0.7c0.8,0.3,1.1,1.2,0.8,2c0,0.1-0.1,0.2-0.1,0.3
		c-0.2,0.4-0.6,0.7-1,0.9l-9.4-4.9c-0.1-0.5,0-0.9,0.2-1.3c0.3-0.8,1.1-1.2,1.9-0.9c0.1,0,0.2,0.1,0.3,0.1l1.4,0.7l4.7-9.1
		c1.4-2.8,1.5-5.1-1.3-6.6c-2.1-1.2-4.7-0.5-5.9,1.5c-0.1,0.1-0.1,0.2-0.2,0.3l-5.1,9.8l1.3,0.7c0.8,0.3,1.1,1.2,0.8,2
		c0,0.1-0.1,0.2-0.2,0.3c-0.2,0.4-0.6,0.7-1,0.9l-9.4-4.9c-0.1-0.5-0.1-0.9,0.2-1.3c0.3-0.8,1.1-1.2,1.9-0.9c0.1,0,0.2,0.1,0.3,0.1
		l1.4,0.7l7.2-13.7l-1.4-0.7c-0.7-0.3-1.1-1.2-0.8-1.9c0-0.1,0.1-0.2,0.1-0.3c0.2-0.4,0.6-0.8,1-1l7,3.7l-1.6,3.1l0,0
		c2.2-1.6,5.2-1.8,7.6-0.5c2.7,1.2,4.2,3.9,3.9,6.8c2.9-1.7,5.4-2,8.4-0.4c4.5,2.3,5.3,6.3,2.8,11.1l-4.8,9.2L602.9,1484.4z"/>
	<path class="st3" d="M634.9,1490c-2.9,6.4-8.8,8.6-15.3,5.7c-5.3-2.4-7-5.3-7.4-7l10.6-23.6l-1.4-0.6c-0.8-0.3-1.1-1.1-0.9-1.9
		c0-0.1,0.1-0.2,0.1-0.3c0.2-0.5,0.5-0.8,1-1l7.2,3.2l-5.5,12.3l0,0c2.2-1.6,5.1-1.8,7.5-0.7C636.1,1478.6,637.3,1484.5,634.9,1490z
		 M629.6,1487.9c1.9-4.2,1.5-8.1-1.7-9.5c-2.8-1.2-5.3,0-6.5,2.7l-3.7,8.2c0,0.8,0.5,2.7,3.2,3.9
		C624,1494.6,627.5,1492.6,629.6,1487.9L629.6,1487.9z"/>
	<path class="st3" d="M661.5,1491c-1,2.5-3,1.4-6.7,1.9c-2.7,0.4-3.9,0.3-5,2l-3.3,8.4l1.7,0.7c0.8,0.3,1.2,1.1,0.9,1.9
		c0,0.1-0.1,0.2-0.1,0.3c-0.2,0.4-0.5,0.8-0.9,1l-10.1-4c-0.2-0.4-0.2-0.9,0-1.3c0.2-0.8,1-1.3,1.8-1.1c0.1,0,0.2,0.1,0.3,0.1
		l1.4,0.6l5.7-14.4l-1.4-0.6c-0.8-0.2-1.2-1.1-1-1.8c0-0.1,0.1-0.2,0.1-0.3c0.2-0.4,0.5-0.8,0.9-1l7.4,2.9l-2.3,5.8l0,0
		c3.2-3.5,7.1-4.5,9.5-3.6c0.9,0.3,1.4,1.3,1.1,2.2C661.6,1490.9,661.6,1490.9,661.5,1491z"/>
	<path class="st3" d="M669.1,1503.6c-1.8,4.7-0.8,8.4,3.2,9.8c3.8,1.3,5.8-1.3,7.4-0.7c0.6,0.2,1,0.9,0.7,1.6c0,0.1,0,0.1-0.1,0.2
		c-0.6,1.7-4.6,3.5-9.8,1.7c-6.2-2.2-9.3-7.2-6.8-14.3c2-5.8,7.6-9.3,14.4-6.9c5.9,2.1,7.9,7.1,6.1,12c-0.2,0.6-0.5,1.2-0.8,1.8
		L669.1,1503.6z M669.9,1501.3l9.2,3.2c0.1-0.2,0.2-0.5,0.3-0.7c0.9-2.5,0.6-5.4-2.6-6.6C673.9,1496.4,671.4,1498.2,669.9,1501.3
		L669.9,1501.3z"/>
	<path class="st3" d="M255.4,1045.6c-11.5,3-17.3-2.9-19.7-12.1c-1.8-7-2.8-11.3-3-12.4c0.3-0.4,0.7-0.8,1.2-0.8
		c0.8-0.3,1.7,0,2,0.8c0.1,0.1,0.1,0.2,0.1,0.4l0.4,1.7l23.9-6.2l-0.4-1.7c-0.3-0.8,0.2-1.7,1-1.9c0.1,0,0.2-0.1,0.3-0.1
		c0.5-0.1,1-0.1,1.4,0.2c0.3,0.9,1.8,6.1,3.5,12.6C268.2,1033.6,267.2,1042.5,255.4,1045.6z M253.6,1039.5c9.3-2.4,11.5-7.3,9.7-14
		c-0.3-1.1-0.6-2.1-1-3.2l-24.6,6.4c0.1,0.9,0.3,1.9,0.6,2.8C240,1038.6,244.6,1041.8,253.6,1039.5z"/>
	<path class="st3" d="M248.5,1066.4c0.3,0.8-0.1,1.6-0.9,1.9c-0.1,0-0.2,0.1-0.3,0.1c-0.4,0.2-0.9,0.2-1.3,0l-3.2-10.2
		c0.3-0.4,0.7-0.7,1.1-0.8c0.7-0.4,1.6,0,2,0.7c0,0.1,0.1,0.2,0.1,0.3l0.4,1.5l14.8-4.6l-0.5-1.5c-0.3-0.8,0.1-1.6,0.8-1.9
		c0.1,0,0.2-0.1,0.3-0.1c0.4-0.2,0.9-0.2,1.4,0l2.4,7.6l-1.7,0.5l0,0l-15.9,4.9L248.5,1066.4z M270.5,1051.6
		c1.5-0.5,3.1,0.3,3.8,2.3c0.6,2.1-0.1,3.4-1.6,3.9s-3.1-0.3-3.8-2.4S268.9,1052.1,270.5,1051.6L270.5,1051.6z"/>
	<path class="st3" d="M260.7,1077.7c-5.1,1.8-7.2,5-6,8.5s4.6,3.5,5.1,5c0.3,0.6,0,1.3-0.7,1.6c-0.1,0-0.2,0.1-0.2,0.1
		c-1.7,0.6-5.6-1.2-7.5-6.6c-2.1-5.9-0.2-11.5,6.8-13.9c6.8-2.4,12.4,0.8,14.3,6.3c0.7,1.6,0.9,3.5,0.5,5.2c0.6,0.1,1.2,0.5,1.4,1.1
		c0.4,1-0.3,1.6-1.5,2.3l-2,1.2c-0.5,0.3-1.1,0.5-1.7,0.8s-1.4,0-1.7-0.6c0-0.1-0.1-0.2-0.1-0.2c-0.3-0.9,0.3-1.6,0.9-2.2
		c1.7-1.8,2.8-3.4,2-5.8C269.4,1077.2,265.9,1075.9,260.7,1077.7z"/>
	<path class="st3" d="M264,1109.7c0.4,0.7,0,1.6-0.7,2c-0.1,0-0.2,0.1-0.3,0.1c-0.4,0.2-0.9,0.2-1.3,0.1l-3.9-10
		c0.2-0.4,0.6-0.7,1-0.8c0.7-0.4,1.6-0.2,2,0.6c0.1,0.1,0.1,0.2,0.1,0.3l0.6,1.4l14.4-5.6l-0.6-1.4c-0.4-0.7-0.1-1.6,0.6-2
		c0.1,0,0.2-0.1,0.3-0.1c0.4-0.2,0.9-0.2,1.4-0.1l2.9,7.4l-1.7,0.7l0,0l-15.5,6L264,1109.7z M284.9,1093.5c1.5-0.6,3.1,0,3.9,2
		s0.1,3.4-1.4,4s-3.1,0-3.9-2.1S283.3,1094.1,284.9,1093.5L284.9,1093.5z"/>
	<path class="st3" d="M276.6,1120.1c-4.6,1.9-6.7,5.1-5,9c1.6,3.7,4.9,3.4,5.5,4.9c0.3,0.6,0,1.3-0.6,1.6c-0.1,0-0.1,0-0.2,0.1
		c-1.7,0.7-5.8-1-7.9-6c-2.6-6.1-1.1-11.7,5.9-14.7c5.6-2.4,12-0.7,14.8,5.9c2.5,5.8,0.2,10.6-4.6,12.7c-0.6,0.3-1.2,0.5-1.8,0.6
		L276.6,1120.1z M278.9,1119.2l3.9,8.9c0.2-0.1,0.5-0.2,0.7-0.3c2.5-1.1,4.4-3.3,3-6.4C285.3,1118.7,282.2,1118.1,278.9,1119.2z"/>
	<path class="st3" d="M295.6,1178.3c0.4,0.7,0.2,1.6-0.5,2.1c-0.1,0.1-0.2,0.1-0.3,0.1c-0.4,0.2-0.9,0.3-1.3,0.2l-4.8-9.5
		c0.2-0.4,0.5-0.8,0.9-1c0.7-0.5,1.6-0.3,2.1,0.4c0.1,0.1,0.1,0.2,0.1,0.3l0.7,1.4l9.1-4.6c2.8-1.4,4.3-3.2,2.8-6.1
		c-0.9-2.2-3.5-3.2-5.7-2.3c-0.1,0.1-0.2,0.1-0.4,0.2l-9.9,5l0.7,1.4c0.4,0.7,0.2,1.7-0.5,2.1c-0.1,0.1-0.2,0.1-0.3,0.1
		c-0.4,0.2-0.9,0.3-1.3,0.2l-4.8-9.4c0.2-0.4,0.5-0.8,1-1c0.7-0.5,1.6-0.3,2.1,0.3c0.1,0.1,0.1,0.2,0.2,0.3l0.7,1.4l9.2-4.6
		c2.8-1.4,4.2-3.3,2.8-6.1c-1-2.2-3.5-3.2-5.7-2.2c-0.1,0-0.2,0.1-0.3,0.2l-9.9,5l0.7,1.3c0.4,0.7,0.2,1.6-0.5,2
		c-0.1,0.1-0.2,0.1-0.3,0.1c-0.4,0.2-0.9,0.3-1.3,0.2l-4.8-9.5c0.2-0.4,0.5-0.8,0.9-1c0.7-0.5,1.6-0.3,2.1,0.3
		c0.1,0.1,0.1,0.2,0.2,0.3l0.7,1.4l13.8-6.9l-0.7-1.4c-0.4-0.7-0.2-1.6,0.5-2c0.1-0.1,0.2-0.1,0.3-0.1c0.4-0.2,0.9-0.3,1.4-0.2
		l3.6,7.1l-3.1,1.6l0,0c2.7,0,5.2,1.5,6.4,4c1.5,2.5,1.1,5.7-0.8,7.8c3.4,0.3,5.5,1.5,7,4.6c2.3,4.5,0.6,8.2-4.2,10.6l-9.2,4.6
		L295.6,1178.3z"/>
	<path class="st3" d="M318.3,1201.5c-6.1,3.5-12.2,1.9-15.7-4.3c-2.9-5-2.6-8.4-1.9-10l22.4-13l-0.8-1.3c-0.5-0.7-0.3-1.6,0.4-2
		c0.1-0.1,0.2-0.1,0.3-0.1c0.4-0.3,0.9-0.4,1.4-0.2l4,6.9l-11.7,6.8l0,0c2.7,0,5.2,1.5,6.5,3.9C326,1193,323.5,1198.5,318.3,1201.5z
		 M315.2,1196.7c4-2.3,5.9-5.7,4.2-8.7c-1.5-2.6-4.3-3.1-6.9-1.6l-7.8,4.5c-0.5,0.7-1.1,2.5,0.3,5
		C306.8,1198.9,310.8,1199.3,315.2,1196.7z"/>
	<path class="st3" d="M339.4,1218c-2.3,1.5-3.3-0.6-6.6-2.3c-2.5-1.2-3.3-2.1-5.2-1.3l-7.6,4.9l1,1.6c0.5,0.7,0.3,1.6-0.3,2.1
		c-0.1,0.1-0.2,0.1-0.3,0.2c-0.4,0.2-0.8,0.4-1.3,0.3l-5.9-9.2c0.1-0.5,0.4-0.8,0.8-1.1c0.6-0.5,1.5-0.5,2.1,0.1
		c0.1,0.1,0.1,0.2,0.2,0.3l0.8,1.3l13-8.3l-0.8-1.3c-0.5-0.6-0.3-1.6,0.3-2c0.1-0.1,0.2-0.1,0.3-0.1c0.4-0.3,0.9-0.4,1.4-0.3
		l4.3,6.7l-5.3,3.4l0,0c4.6-1,8.4,0.5,9.8,2.7c0.6,0.8,0.5,1.9-0.3,2.4C339.6,1217.8,339.5,1217.9,339.4,1218z"/>
	<path class="st3" d="M338.1,1232.6c-4.1,2.8-5.5,6.4-3.2,9.8c2.3,3.3,5.5,2.4,6.4,3.7c0.4,0.6,0.2,1.3-0.3,1.7l-0.1,0.1
		c-1.5,1-5.8,0.2-9-4.4c-3.8-5.4-3.4-11.3,2.9-15.6c5-3.5,11.6-3.1,15.7,2.8c3.6,5.2,2.3,10.3-2,13.3c-0.5,0.4-1.1,0.7-1.7,1
		L338.1,1232.6z M340.1,1231.2l5.5,8c0.2-0.1,0.4-0.2,0.6-0.4c2.2-1.5,3.6-4.1,1.7-6.8C346.3,1229.5,343.2,1229.6,340.1,1231.2
		L340.1,1231.2z"/>
</g>
<text transform="matrix(0.597 -0.8022 0.8022 0.597 1485.0953 1378.9122)"><tspan x="0" y="0" class="st4 st5 st6">Aitoma- falso verano</tspan><tspan x="0" y="18.5" class="st4 st5 st6">Tiempo de gusano,</tspan><tspan x="0" y="37" class="st4 st5 st6">rayo, enfermedad</tspan></text>
<text transform="matrix(0.2536 -0.9673 0.9673 0.2536 1659.6255 1130.2996)"><tspan x="0" y="0" class="st7 st5 st8">Nekatoma- adelantado</tspan><tspan x="0" y="16.3" class="st7 st5 st8">Falsa maduracin de</tspan><tspan x="0" y="32.6" class="st7 st5 st8">la fruta</tspan></text>
</svg>
