<svg xmlns="http://www.w3.org/2000/svg" width="562.067" height="79.636" viewBox="0 0 562.067 79.636">
  <g id="Grupo_2054" data-name="Grupo 2054" transform="translate(10185.476 22376.696)">
    <g id="Grupo_8" data-name="Grupo 8" transform="translate(-10183.001 -22371.746)">
      <path id="Trazado_135" data-name="Trazado 135" d="M-2506.179,199.378l-69.739-69.739-69.739,69.739-69.9-69.739-69.739,69.739" transform="translate(2785.296 -129.639)" fill="none" stroke="#e5661d" stroke-miterlimit="10" stroke-width="7"/>
      <circle id="Elipse_71" data-name="Elipse 71" cx="7.293" cy="7.293" r="7.293" transform="translate(61.939 49.045)" fill="#e5661d"/>
      <circle id="Elipse_72" data-name="Elipse 72" cx="7.293" cy="7.293" r="7.293" transform="translate(0 0.896)" fill="#e5661d"/>
      <circle id="Elipse_73" data-name="Elipse 73" cx="7.293" cy="7.293" r="7.293" transform="translate(271.824 0.896)" fill="#de4d12"/>
      <circle id="Elipse_74" data-name="Elipse 74" cx="7.293" cy="7.293" r="7.293" transform="translate(132.266 0.896)" fill="#e5661d"/>
      <circle id="Elipse_75" data-name="Elipse 75" cx="7.293" cy="7.293" r="7.293" transform="translate(202.612 49.045)" fill="#e5661d"/>
    </g>
    <g id="Grupo_9" data-name="Grupo 9" transform="translate(-9909.82 -22371.746)">
      <path id="Trazado_136" data-name="Trazado 136" d="M-2394.691,199.378l-69.739-69.739-69.739,69.739-69.9-69.739-69.739,69.739" transform="translate(2673.809 -129.639)" fill="none" stroke="#e5661d" stroke-miterlimit="10" stroke-width="7"/>
      <circle id="Elipse_76" data-name="Elipse 76" cx="7.293" cy="7.293" r="7.293" transform="translate(61.939 49.045)" fill="#e5661d"/>
      <circle id="Elipse_77" data-name="Elipse 77" cx="7.293" cy="7.293" r="7.293" transform="translate(0 0.896)" fill="#e5661d"/>
      <circle id="Elipse_78" data-name="Elipse 78" cx="7.293" cy="7.293" r="7.293" transform="translate(271.825 0.896)" fill="#e5661d"/>
      <circle id="Elipse_79" data-name="Elipse 79" cx="7.293" cy="7.293" r="7.293" transform="translate(132.266 0.896)" fill="#e5661d"/>
      <circle id="Elipse_80" data-name="Elipse 80" cx="7.293" cy="7.293" r="7.293" transform="translate(202.613 49.045)" fill="#e5661d"/>
    </g>
  </g>
</svg>
