<svg xmlns="http://www.w3.org/2000/svg" width="156.428" height="74.786" viewBox="0 0 156.428 74.786">
  <g id="Grupo_2050" data-name="Grupo 2050" transform="translate(2.5 2.5)">
    <line id="Línea_89" data-name="Línea 89" x1="38.137" y2="38.137" transform="translate(39.113 15.824)" fill="none" stroke="#e5641f" stroke-miterlimit="10" stroke-width="6"/>
    <line id="Línea_90" data-name="Línea 90" x1="38.181" y2="38.137" transform="translate(109.068 15.824)" fill="none" stroke="#e5641f" stroke-miterlimit="10" stroke-width="6"/>
    <path id="Trazado_133" data-name="Trazado 133" d="M28.72,14.61" transform="translate(86.754 39.351)" fill="none" stroke="#e5641f" stroke-miterlimit="10" stroke-width="6"/>
    <line id="Línea_91" data-name="Línea 91" x1="37.358" y1="37.358" transform="translate(75.519 17.253)" fill="none" stroke="#e5641f" stroke-miterlimit="10" stroke-width="6"/>
    <line id="Línea_92" data-name="Línea 92" x1="38.57" y1="38.527" transform="translate(4.742 16.084)" fill="none" stroke="#e5641f" stroke-miterlimit="10" stroke-width="6"/>
    <circle id="Elipse_56" data-name="Elipse 56" cx="3.983" cy="3.983" r="3.983" transform="translate(73.008 42.663)" fill="#e5641f"/>
    <circle id="Elipse_57" data-name="Elipse 57" cx="3.983" cy="3.983" r="3.983" transform="translate(141.448 42.663)" fill="#e5641f"/>
    <circle id="Elipse_58" data-name="Elipse 58" cx="3.983" cy="3.983" r="3.983" transform="translate(39.113 16.3)" fill="#e5641f"/>
    <circle id="Elipse_59" data-name="Elipse 59" cx="3.983" cy="3.983" r="3.983" transform="translate(111.449 16.3)" fill="#e5641f"/>
    <ellipse id="Elipse_60" data-name="Elipse 60" cx="5.498" cy="7.792" rx="5.498" ry="7.792" transform="translate(69.978 0.5)" fill="none" stroke="#e5641f" stroke-miterlimit="10" stroke-width="6"/>
    <ellipse id="Elipse_61" data-name="Elipse 61" cx="5.498" cy="7.792" rx="5.498" ry="7.792" transform="translate(139.932 0.5)" fill="none" stroke="#e5641f" stroke-miterlimit="10" stroke-width="6"/>
    <circle id="Elipse_62" data-name="Elipse 62" cx="3.983" cy="3.983" r="3.983" transform="translate(2.015 42.663)" fill="#e5641f"/>
    <ellipse id="Elipse_63" data-name="Elipse 63" cx="5.498" cy="7.792" rx="5.498" ry="7.792" transform="translate(0.5 0.5)" fill="none" stroke="#e5641f" stroke-miterlimit="10" stroke-width="6"/>
    <ellipse id="Elipse_64" data-name="Elipse 64" cx="5.498" cy="7.792" rx="5.498" ry="7.792" transform="translate(35.174 53.702)" fill="none" stroke="#e5641f" stroke-miterlimit="10" stroke-width="6"/>
    <ellipse id="Elipse_65" data-name="Elipse 65" cx="5.498" cy="7.792" rx="5.498" ry="7.792" transform="translate(104.912 53.702)" fill="none" stroke="#e5641f" stroke-miterlimit="10" stroke-width="6"/>
  </g>
</svg>
