<svg id="Capa_1" data-name="Capa 1" xmlns="http://www.w3.org/2000/svg" viewBox="0 0 628.7 636.19"><defs><style>.cls-1{fill:#e5641f;}</style></defs><g id="_Radial_Repeat_" data-name="&lt;Radial Repeat&gt;"><polygon class="cls-1" points="172.99 511.13 146.76 557.81 144.98 560.98 201.18 592.56 202.96 589.39 229.19 542.7 272.7 567.15 244.72 616.95 251.07 620.51 282.61 564.37 226.41 532.79 224.63 535.97 198.4 582.65 154.88 558.2 181.12 511.52 182.9 508.35 129.87 478.55 126.3 484.9 172.99 511.13"/><polygon class="cls-1" points="220.8 582.03 225.39 573.87 233.54 578.45 242.71 562.12 249.06 565.68 244.47 573.85 252.33 578.27 247.75 586.43 239.88 582.01 235.29 590.18 243.16 594.6 238.58 602.75 230.71 598.33 226.13 606.49 219.78 602.93 228.95 586.61 220.8 582.03"/><polygon class="cls-1" points="179.33 539.5 183.91 531.34 192.06 535.92 201.24 519.59 207.58 523.15 202.99 531.32 210.86 535.74 206.27 543.9 198.41 539.48 193.82 547.65 201.69 552.07 197.1 560.23 189.23 555.81 184.64 563.98 178.3 560.41 187.48 544.08 179.33 539.5"/><polygon class="cls-1" points="121.27 526.11 125.86 517.95 133.99 522.52 143.17 506.19 149.52 509.76 144.94 517.93 152.8 522.35 148.21 530.51 140.35 526.09 135.76 534.26 143.63 538.67 139.05 546.83 131.18 542.41 126.59 550.57 120.24 547 129.41 530.68 121.27 526.11"/></g><g id="_Radial_Repeat_2" data-name="&lt;Radial Repeat&gt;"><polygon class="cls-1" points="82.71 372.2 32.61 391.11 29.2 392.39 51.96 452.7 55.36 451.42 105.47 432.52 123.08 479.21 69.64 499.38 72.21 506.19 132.46 483.45 109.7 423.14 106.3 424.42 56.2 443.33 38.58 396.63 88.68 377.73 92.09 376.44 70.61 319.53 63.81 322.1 82.71 372.2"/><polygon class="cls-1" points="73.75 457.25 82.52 453.95 85.82 462.7 103.34 456.08 105.91 462.89 97.15 466.2 100.33 474.64 91.57 477.94 88.39 469.5 79.62 472.81 82.81 481.25 74.06 484.55 70.88 476.11 62.11 479.42 59.54 472.61 77.06 466 73.75 457.25"/><polygon class="cls-1" points="69.32 398.01 78.08 394.71 81.39 403.46 98.91 396.85 101.48 403.65 92.72 406.96 95.9 415.4 87.14 418.7 83.95 410.26 75.19 413.57 78.38 422.01 69.61 425.32 66.43 416.88 57.66 420.18 55.1 413.38 72.62 406.76 69.32 398.01"/><polygon class="cls-1" points="33.45 350.44 42.22 347.13 45.51 355.87 63.04 349.25 65.61 356.07 56.85 359.38 60.03 367.82 51.27 371.13 48.09 362.69 39.32 365.99 42.51 374.43 33.76 377.74 30.57 369.29 21.81 372.6 19.24 365.78 36.75 359.17 33.45 350.44"/></g><g id="_Radial_Repeat_3" data-name="&lt;Radial Repeat&gt;"><polygon class="cls-1" points="102.85 207.75 52.32 190.03 48.88 188.82 27.55 249.65 30.98 250.86 81.51 268.58 64.99 315.68 11.09 296.77 8.68 303.64 69.45 324.96 90.78 264.13 87.35 262.92 36.82 245.2 53.34 198.1 103.87 215.82 107.31 217.03 127.44 159.63 120.57 157.22 102.85 207.75"/><polygon class="cls-1" points="41.32 267.15 50.16 270.25 47.06 279.07 64.74 285.27 62.33 292.14 53.49 289.04 50.51 297.55 41.67 294.45 44.65 285.94 35.82 282.84 32.83 291.35 24.01 288.26 26.99 279.74 18.16 276.64 20.56 269.78 38.22 275.97 41.32 267.15"/><polygon class="cls-1" points="76 218.92 84.84 222.02 81.74 230.84 99.42 237.04 97.01 243.91 88.17 240.81 85.19 249.32 76.35 246.22 79.34 237.71 70.5 234.61 67.51 243.12 58.67 240.02 61.66 231.51 52.82 228.41 55.23 221.54 72.91 227.74 76 218.92"/><polygon class="cls-1" points="79.11 159.42 87.94 162.52 84.85 171.33 102.53 177.53 100.12 184.41 91.28 181.31 88.29 189.82 79.45 186.72 82.44 178.21 73.6 175.11 70.62 183.62 61.79 180.53 64.78 172.01 55.94 168.91 58.36 162.03 76.02 168.23 79.11 159.42"/></g><g id="_Radial_Repeat_4" data-name="&lt;Radial Repeat&gt;"><polygon class="cls-1" points="223.98 94.72 196.67 48.66 194.81 45.53 139.36 78.41 141.22 81.54 168.53 127.6 125.61 153.06 96.47 103.93 90.21 107.64 123.06 163.03 178.51 130.15 176.65 127.02 149.34 80.96 192.26 55.5 219.58 101.56 221.43 104.69 273.75 73.66 270.04 67.4 223.98 94.72"/><polygon class="cls-1" points="138.67 100.67 143.44 108.72 135.4 113.49 144.96 129.6 138.7 133.32 133.92 125.26 126.16 129.86 121.39 121.81 129.15 117.2 124.37 109.15 116.61 113.75 111.84 105.71 119.6 101.11 114.82 93.05 121.08 89.34 130.63 105.44 138.67 100.67"/><polygon class="cls-1" points="196.24 86.02 201.01 94.07 192.97 98.84 202.53 114.95 196.27 118.66 191.49 110.61 183.73 115.21 178.96 107.16 186.72 102.55 181.94 94.5 174.18 99.1 169.4 91.05 177.16 86.44 172.38 78.39 178.64 74.68 188.19 90.79 196.24 86.02"/><polygon class="cls-1" points="236.86 42.43 241.64 50.49 233.61 55.25 243.17 71.36 236.9 75.08 232.12 67.02 224.36 71.63 219.58 63.57 227.34 58.97 222.56 50.91 214.8 55.52 210.03 47.47 217.79 42.87 213.02 34.82 219.29 31.1 228.83 47.2 236.86 42.43"/></g><g id="_Radial_Repeat_5" data-name="&lt;Radial Repeat&gt;"><polygon class="cls-1" points="389.43 86 398.11 33.15 398.7 29.56 335.09 19.11 334.5 22.7 325.82 75.55 276.57 67.45 285.83 11.09 278.65 9.91 268.21 73.45 331.82 83.91 332.41 80.31 341.09 27.47 390.34 35.56 381.66 88.41 381.07 92 441.09 101.86 442.27 94.68 389.43 86"/><polygon class="cls-1" points="320.25 35.72 318.73 44.96 309.51 43.44 306.47 61.92 299.29 60.75 300.81 51.5 291.91 50.04 293.43 40.8 302.33 42.26 303.85 33.02 294.94 31.56 296.46 22.33 305.36 23.79 306.88 14.55 314.06 15.73 311.03 34.2 320.25 35.72"/><polygon class="cls-1" points="373.77 61.5 372.25 70.74 363.03 69.22 359.99 87.71 352.81 86.53 354.33 77.28 345.43 75.82 346.95 66.58 355.85 68.04 357.37 58.8 348.46 57.34 349.98 48.1 358.88 49.56 360.4 40.32 367.58 41.5 364.55 59.98 373.77 61.5"/><polygon class="cls-1" points="432.91 54.22 431.39 63.46 422.18 61.95 419.14 80.43 411.95 79.25 413.47 70.01 404.56 68.55 406.08 59.31 414.99 60.77 416.5 51.53 407.6 50.06 409.12 40.84 418.02 42.3 419.54 33.06 426.73 34.24 423.7 52.71 432.91 54.22"/></g><g id="_Radial_Repeat_6" data-name="&lt;Radial Repeat&gt;"><polygon class="cls-1" points="521.78 185.66 562.4 150.76 565.16 148.39 523.14 99.5 520.38 101.87 479.77 136.77 447.24 98.91 490.57 61.69 485.82 56.16 436.98 98.14 478.99 147.03 481.75 144.66 522.37 109.76 554.89 147.61 514.28 182.51 511.52 184.88 551.16 231.02 556.68 226.28 521.78 185.66"/><polygon class="cls-1" points="501.11 102.68 494 108.78 487.91 101.69 473.7 113.9 468.96 108.38 476.06 102.28 470.19 95.43 477.29 89.33 483.17 96.17 490.27 90.07 484.39 83.22 491.48 77.13 497.36 83.97 504.47 77.87 509.21 83.39 495.01 95.58 501.11 102.68"/><polygon class="cls-1" points="525.53 156.83 518.43 162.93 512.34 155.84 498.13 168.05 493.39 162.53 500.49 156.43 494.61 149.58 501.71 143.48 507.6 150.32 514.7 144.22 508.82 137.38 515.92 131.27 521.8 138.12 528.9 132.01 533.65 137.53 519.44 149.74 525.53 156.83"/><polygon class="cls-1" points="575.51 189.27 568.4 195.37 562.32 188.29 548.12 200.5 543.36 194.97 550.47 188.87 544.59 182.02 551.69 175.92 557.57 182.76 564.67 176.66 558.79 169.81 565.89 163.72 571.77 170.56 578.87 164.46 583.62 169.99 569.43 182.19 575.51 189.27"/></g><g id="_Radial_Repeat_7" data-name="&lt;Radial Repeat&gt;"><polygon class="cls-1" points="559.1 347.08 612.65 346.45 616.29 346.41 615.53 281.95 611.89 282 558.35 282.62 557.76 232.72 614.88 232.05 614.8 224.77 550.4 225.52 551.16 289.98 554.8 289.94 608.34 289.31 608.93 339.22 555.38 339.85 551.74 339.89 552.45 400.71 559.73 400.63 559.1 347.08"/><polygon class="cls-1" points="596.61 270.22 587.24 270.33 587.13 260.98 568.4 261.2 568.32 253.93 577.68 253.82 577.58 244.8 586.94 244.69 587.05 253.71 596.41 253.6 596.31 244.58 605.66 244.47 605.76 253.49 615.13 253.38 615.21 260.65 596.5 260.87 596.61 270.22"/><polygon class="cls-1" points="580.51 327.4 571.15 327.51 571.04 318.17 552.31 318.38 552.22 311.11 561.59 311 561.48 301.98 570.85 301.87 570.95 310.89 580.32 310.78 580.21 301.76 589.58 301.65 589.68 310.67 599.05 310.56 599.13 317.84 580.4 318.06 580.51 327.4"/><polygon class="cls-1" points="597.94 384.38 588.58 384.49 588.47 375.15 569.74 375.38 569.65 368.09 579.02 367.98 578.91 358.95 588.28 358.85 588.38 367.87 597.75 367.76 597.64 358.74 606.99 358.63 607.1 367.65 616.46 367.54 616.55 374.83 597.83 375.05 597.94 384.38"/></g><g id="_Radial_Repeat_8" data-name="&lt;Radial Repeat&gt;"><polygon class="cls-1" points="483.93 494.73 525.35 528.67 528.17 530.97 569.02 481.11 566.21 478.8 524.79 444.87 556.42 406.26 600.61 442.46 605.22 436.83 555.4 396.02 514.55 445.88 517.36 448.19 558.78 482.13 527.15 520.73 485.73 486.79 482.92 484.49 444.37 531.54 450 536.15 483.93 494.73"/><polygon class="cls-1" points="562.07 459.96 554.82 454.02 560.75 446.79 546.26 434.92 550.87 429.29 558.11 435.23 563.83 428.25 571.08 434.19 565.36 441.16 572.6 447.1 578.32 440.12 585.55 446.05 579.84 453.02 587.08 458.96 582.47 464.59 567.99 452.73 562.07 459.96"/><polygon class="cls-1" points="512.98 493.42 505.74 487.48 511.66 480.25 497.17 468.38 501.78 462.75 509.03 468.69 514.75 461.71 521.99 467.64 516.27 474.62 523.52 480.56 529.23 473.58 536.48 479.51 530.76 486.49 538 492.43 533.39 498.06 518.91 486.18 512.98 493.42"/><polygon class="cls-1" points="489.71 548.27 482.47 542.33 488.38 535.11 473.89 523.24 478.51 517.6 485.76 523.54 491.48 516.56 498.72 522.49 493 529.47 500.25 535.41 505.97 528.43 513.2 534.35 507.48 541.33 514.72 547.27 510.1 552.91 495.63 541.05 489.71 548.27"/></g><g id="_Radial_Repeat_9" data-name="&lt;Radial Repeat&gt;"><polygon class="cls-1" points="331.44 559.51 341.36 612.14 342.03 615.71 405.38 603.78 404.71 600.2 394.8 547.58 443.84 538.34 454.42 594.47 461.57 593.12 449.65 529.84 386.3 541.77 386.97 545.35 396.88 597.97 347.84 607.21 337.92 554.59 337.25 551.01 277.48 562.28 278.82 569.43 331.44 559.51"/><polygon class="cls-1" points="413.65 583.1 411.92 573.9 421.1 572.17 417.63 553.76 424.78 552.41 426.52 561.62 435.38 559.95 437.12 569.15 428.25 570.82 429.99 580.02 438.85 578.35 440.58 587.54 431.72 589.21 433.45 598.41 426.3 599.76 422.84 581.37 413.65 583.1"/><polygon class="cls-1" points="354.54 577.18 352.81 567.98 362 566.24 358.53 547.84 365.67 546.49 367.41 555.69 376.27 554.02 378.01 563.23 369.14 564.9 370.88 574.1 379.74 572.43 381.48 581.63 372.61 583.3 374.35 592.51 367.2 593.86 363.73 575.45 354.54 577.18"/><polygon class="cls-1" points="301.46 604.24 299.72 595.04 308.9 593.31 305.43 574.9 312.59 573.55 314.33 582.75 323.19 581.09 324.93 590.29 316.06 591.96 317.8 601.16 326.66 599.49 328.39 608.68 319.53 610.35 321.26 619.55 314.1 620.9 310.63 602.51 301.46 604.24"/></g></svg>