<svg id="Capa_1" data-name="Capa 1" xmlns="http://www.w3.org/2000/svg" viewBox="0 0 632.87 636.19"><defs><style>.cls-1{fill:#e5641f;}</style></defs><g id="_Radial_Repeat_" data-name="&lt;Radial Repeat&gt;"><path class="cls-1" d="M266,584.36a3.15,3.15,0,1,0-2.46-3.72A3.16,3.16,0,0,0,266,584.36Z"/><path class="cls-1" d="M213,573.55a3.15,3.15,0,1,0-2.46-3.72A3.16,3.16,0,0,0,213,573.55Z"/><path class="cls-1" d="M289.36,603.93a3.15,3.15,0,1,0,2.46,3.72A3.15,3.15,0,0,0,289.36,603.93Z"/><path class="cls-1" d="M233.32,592.5a3.15,3.15,0,1,0,2.46,3.72A3.16,3.16,0,0,0,233.32,592.5Z"/><path class="cls-1" d="M200.91,598.8c-1,4.74,1.21,9.05,5,9.81s7.43-2.35,8.39-7.08a9.2,9.2,0,0,0-1.74-7.92l28.27-18.69,18.8,28.43a9.27,9.27,0,0,0-4.5,6.5c-1,4.74,1.21,9,4.95,9.81s7.43-2.35,8.4-7.09a9.19,9.19,0,0,0-1.74-7.9l28.1-18.58L315,616.6l4.12-2.73L299,583.49a9.15,9.15,0,0,0,4.78-6.64c1-4.74-1.2-9.05-4.94-9.81s-7.43,2.35-8.4,7.09a9.31,9.31,0,0,0,1.51,7.64l.13.2-28.33,18.72-18.68-28.26a9.14,9.14,0,0,0,4.7-6.6c1-4.73-1.2-9-4.95-9.81s-7.42,2.35-8.39,7.09a9.29,9.29,0,0,0,1.57,7.72L206,592l0,0A9,9,0,0,0,200.91,598.8Zm96.93-26.92c.73.15,1.54,1.81,1.09,4s-1.83,3.39-2.56,3.24-1.54-1.82-1.1-4S297.11,571.73,297.84,571.88Zm-91,31.89c-.73-.15-1.53-1.81-1.09-4s1.84-3.38,2.56-3.23,1.54,1.81,1.1,4S207.57,603.92,206.84,603.77ZM261,614.82c-.73-.15-1.54-1.81-1.1-4s1.84-3.39,2.57-3.24,1.54,1.81,1.1,4S261.75,615,261,614.82Zm-17.19-54c.73.15,1.54,1.82,1.09,4s-1.83,3.38-2.56,3.23-1.54-1.81-1.1-4S243.1,560.72,243.83,560.86Z"/></g><g id="_Radial_Repeat_2" data-name="&lt;Radial Repeat&gt;"><path class="cls-1" d="M173.14,547.81a3.16,3.16,0,1,0-.95-4.36A3.15,3.15,0,0,0,173.14,547.81Z"/><path class="cls-1" d="M127.61,518.58a3.16,3.16,0,1,0-1-4.36A3.16,3.16,0,0,0,127.61,518.58Z"/><path class="cls-1" d="M187.84,574.49a3.16,3.16,0,1,0,.95,4.36A3.15,3.15,0,0,0,187.84,574.49Z"/><path class="cls-1" d="M139.7,543.59a3.15,3.15,0,1,0,1,4.36A3.14,3.14,0,0,0,139.7,543.59Z"/><path class="cls-1" d="M107.2,537.76c-2.61,4.06-2.14,8.87,1.07,10.93s7.78.49,10.39-3.58a9.17,9.17,0,0,0,1.24-8L153,529.88l7.26,33.31a9.25,9.25,0,0,0-6.54,4.44c-2.61,4.06-2.14,8.87,1.07,10.93s7.78.49,10.39-3.58a9.2,9.2,0,0,0,1.24-8l32.91-7.18,7.79,35.74,4.83-1-7.76-35.59a9.19,9.19,0,0,0,6.86-4.47c2.61-4.07,2.14-8.87-1.08-10.93s-7.77-.49-10.38,3.58a9.28,9.28,0,0,0-1.36,7.67l0,.22-33.17,7.24-7.22-33.11a9.18,9.18,0,0,0,6.77-4.45c2.61-4.07,2.14-8.87-1.07-10.94s-7.78-.49-10.39,3.58a9.3,9.3,0,0,0-1.32,7.77l-37.47,8.17v0A9,9,0,0,0,107.2,537.76Zm100.12,9.91c.62.4.77,2.24-.42,4.1s-2.94,2.5-3.56,2.09-.78-2.24.41-4.11S206.69,547.26,207.32,547.67Zm-96.38-3.14c-.62-.4-.78-2.24.42-4.11s2.94-2.49,3.56-2.08.78,2.24-.41,4.1S111.57,544.94,110.94,544.53Zm46.53,29.87c-.63-.4-.78-2.24.42-4.11s2.93-2.49,3.56-2.08.78,2.24-.42,4.1S158.1,574.81,157.47,574.4Zm3.46-56.52c.63.4.78,2.25-.42,4.11s-2.93,2.49-3.56,2.09-.78-2.25.42-4.11S160.3,517.48,160.93,517.88Z"/></g><g id="_Radial_Repeat_3" data-name="&lt;Radial Repeat&gt;"><path class="cls-1" d="M99.73,480.17a3.16,3.16,0,1,0,.69-4.41A3.16,3.16,0,0,0,99.73,480.17Z"/><path class="cls-1" d="M67.84,436.46a3.15,3.15,0,1,0,.69-4.4A3.14,3.14,0,0,0,67.84,436.46Z"/><path class="cls-1" d="M103.8,510.36a3.16,3.16,0,1,0-.69,4.4A3.15,3.15,0,0,0,103.8,510.36Z"/><path class="cls-1" d="M70.08,464.16a3.16,3.16,0,1,0-.69,4.4A3.15,3.15,0,0,0,70.08,464.16Z"/><path class="cls-1" d="M41.88,447c-3.9,2.85-5.2,7.5-3,10.58s7.07,3.27,11,.42a9.15,9.15,0,0,0,4-7l33.49,5.23-5.26,33.68a9.28,9.28,0,0,0-7.71,1.78c-3.9,2.85-5.2,7.5-3,10.58s7.08,3.27,11,.42a9.22,9.22,0,0,0,4-7l33.28,5.2L114.18,537l4.89.76,5.62-36a9.12,9.12,0,0,0,8-1.69c3.91-2.85,5.2-7.49,2.95-10.58s-7.07-3.27-11-.42a9.33,9.33,0,0,0-4,6.67l0,.23-33.54-5.24,5.22-33.48a9.17,9.17,0,0,0,7.93-1.7c3.9-2.85,5.2-7.5,3-10.59s-7.07-3.26-11-.41a9.28,9.28,0,0,0-4,6.76l-37.88-5.92v.05A9,9,0,0,0,41.88,447Zm89.77,45.4c.44.6-.08,2.38-1.87,3.68s-3.64,1.27-4.08.66.09-2.37,1.88-3.68S131.21,491.78,131.65,492.38ZM42.92,454.65c-.44-.6.08-2.38,1.87-3.68s3.64-1.26,4.08-.66S48.79,452.68,47,454,43.36,455.25,42.92,454.65Zm32.59,44.66c-.43-.6.09-2.38,1.88-3.68s3.63-1.26,4.07-.66-.08,2.37-1.87,3.68S76,499.91,75.51,499.31Zm23.65-51.46c.44.61-.08,2.38-1.87,3.69s-3.64,1.26-4.08.66.09-2.38,1.87-3.68S98.72,447.25,99.16,447.85Z"/></g><g id="_Radial_Repeat_4" data-name="&lt;Radial Repeat&gt;"><path class="cls-1" d="M55.72,390.58A3.15,3.15,0,1,0,58,386.72,3.15,3.15,0,0,0,55.72,390.58Z"/><path class="cls-1" d="M41.76,338.31A3.16,3.16,0,1,0,44,334.45,3.15,3.15,0,0,0,41.76,338.31Z"/><path class="cls-1" d="M48.6,420.2a3.15,3.15,0,1,0-2.23,3.86A3.15,3.15,0,0,0,48.6,420.2Z"/><path class="cls-1" d="M33.85,364.94a3.16,3.16,0,1,0-2.23,3.86A3.15,3.15,0,0,0,33.85,364.94Z"/><path class="cls-1" d="M13.76,338.73c-4.67,1.25-7.56,5.12-6.57,8.81s5.41,5.6,10.08,4.35a9.17,9.17,0,0,0,6.31-5.09l29.34,17-17.08,29.5A9.24,9.24,0,0,0,28,392.15c-4.67,1.25-7.56,5.12-6.57,8.81s5.41,5.6,10.08,4.35a9.21,9.21,0,0,0,6.31-5.07L67,417.11,48.67,448.77,53,451.24l18.24-31.53A9.18,9.18,0,0,0,79.27,421c4.67-1.25,7.56-5.11,6.57-8.8s-5.42-5.6-10.09-4.36a9.35,9.35,0,0,0-6.17,4.76l-.11.2-29.39-17,17-29.33a9.12,9.12,0,0,0,8,1.27c4.67-1.24,7.56-5.11,6.58-8.8s-5.42-5.6-10.09-4.36a9.3,9.3,0,0,0-6.21,4.86L22.14,340.26l0,0A9,9,0,0,0,13.76,338.73ZM81.07,413.5c.19.72-.94,2.19-3.08,2.76s-3.85-.14-4-.86.94-2.18,3.08-2.75S80.88,412.78,81.07,413.5ZM12,346.26c-.19-.72.94-2.18,3.07-2.75s3.85.13,4,.85-.93,2.19-3.07,2.76S12.15,347,12,346.26Zm14.26,53.42c-.19-.72.94-2.18,3.07-2.75s3.85.13,4,.85-.93,2.19-3.07,2.76S26.41,400.4,26.22,399.68Zm40.63-39.44c.2.72-.93,2.19-3.07,2.76s-3.85-.14-4-.86.94-2.18,3.07-2.75S66.66,359.52,66.85,360.24Z"/></g><g id="_Radial_Repeat_5" data-name="&lt;Radial Repeat&gt;"><path class="cls-1" d="M47,291.14a3.16,3.16,0,1,0,3.48-2.79A3.16,3.16,0,0,0,47,291.14Z"/><path class="cls-1" d="M52.91,237.36a3.15,3.15,0,1,0,3.47-2.79A3.16,3.16,0,0,0,52.91,237.36Z"/><path class="cls-1" d="M29.7,316.2A3.15,3.15,0,1,0,26.22,319,3.15,3.15,0,0,0,29.7,316.2Z"/><path class="cls-1" d="M35.91,259.34a3.15,3.15,0,1,0-3.48,2.79A3.15,3.15,0,0,0,35.91,259.34Z"/><path class="cls-1" d="M26.64,227.64c-4.81-.52-8.9,2-9.31,5.84s3,7.18,7.83,7.7a9.16,9.16,0,0,0,7.72-2.47l21.23,26.43L27.53,286.48a9.27,9.27,0,0,0-6.89-3.87c-4.81-.53-8.89,2-9.31,5.83s3,7.18,7.83,7.7a9.17,9.17,0,0,0,7.71-2.45L48,320,19.45,342.86l3.09,3.85,28.4-22.81A9.16,9.16,0,0,0,58,328.05c4.81.52,8.9-2,9.31-5.84s-3-7.18-7.83-7.7a9.34,9.34,0,0,0-7.47,2.2l-.18.15L30.56,290.39,57,269.17a9.19,9.19,0,0,0,7,4.08c4.81.52,8.9-2,9.31-5.83s-3-7.18-7.83-7.71A9.3,9.3,0,0,0,57.92,262l-24-29.9,0,0A9,9,0,0,0,26.64,227.64Zm35.75,94c-.08.74-1.66,1.7-3.86,1.46s-3.54-1.52-3.46-2.26,1.67-1.7,3.87-1.46S62.47,320.94,62.39,321.68ZM22.24,234c.08-.74,1.66-1.7,3.87-1.46s3.53,1.52,3.45,2.26-1.66,1.7-3.86,1.46S22.16,234.75,22.24,234Zm-6,55c.08-.74,1.66-1.7,3.87-1.46s3.53,1.51,3.45,2.25-1.66,1.7-3.86,1.46S16.16,289.71,16.24,289Zm52.14-22.1c-.08.74-1.66,1.7-3.86,1.46s-3.54-1.52-3.46-2.26,1.66-1.7,3.86-1.46S68.46,266.14,68.38,266.88Z"/></g><g id="_Radial_Repeat_6" data-name="&lt;Radial Repeat&gt;"><path class="cls-1" d="M74.86,195.29a3.15,3.15,0,1,0,4.25-1.35A3.16,3.16,0,0,0,74.86,195.29Z"/><path class="cls-1" d="M99.76,147.25a3.16,3.16,0,1,0,4.26-1.34A3.17,3.17,0,0,0,99.76,147.25Z"/><path class="cls-1" d="M49.65,212.38a3.15,3.15,0,1,0-4.25,1.35A3.15,3.15,0,0,0,49.65,212.38Z"/><path class="cls-1" d="M76,161.61A3.16,3.16,0,1,0,71.72,163,3.16,3.16,0,0,0,76,161.61Z"/><path class="cls-1" d="M78.78,128.71c-4.29-2.23-9-1.32-10.79,2.07s.23,7.79,4.52,10a9.21,9.21,0,0,0,8.1.48l10.24,32.31-32.49,10.3a9.28,9.28,0,0,0-5-6.1c-4.29-2.23-9-1.31-10.79,2.07s.23,7.79,4.53,10a9.18,9.18,0,0,0,8.07.49l10.18,32.11L30.46,233.54,32,238.25l34.72-11a9.16,9.16,0,0,0,5.08,6.41c4.29,2.23,9,1.32,10.79-2.07s-.23-7.79-4.52-10a9.39,9.39,0,0,0-7.77-.64L70,221,59.77,188.63l32.3-10.24a9.15,9.15,0,0,0,5.06,6.33c4.29,2.23,9,1.31,10.79-2.08s-.23-7.78-4.52-10a9.28,9.28,0,0,0-7.86-.6L84,135.48h0A9,9,0,0,0,78.78,128.71ZM78.15,229.3c-.34.66-2.16,1-4.13,0s-2.75-2.69-2.41-3.36,2.17-1,4.13,0S78.5,228.64,78.15,229.3Zm-5.77-96.24c.34-.67,2.16-1,4.13,0s2.75,2.69,2.41,3.35-2.17,1-4.13,0S72,133.72,72.38,133.06ZM46.93,182.14c.34-.66,2.16-1,4.13,0s2.75,2.7,2.41,3.36-2.17,1-4.13,0S46.59,182.8,46.93,182.14Zm56.6-1.77c-.34.66-2.16,1-4.13,0S96.65,177.64,97,177s2.17-1,4.13,0S103.87,179.71,103.53,180.37Z"/></g><g id="_Radial_Repeat_7" data-name="&lt;Radial Repeat&gt;"><path class="cls-1" d="M135.44,116a3.15,3.15,0,1,0,4.45.28A3.15,3.15,0,0,0,135.44,116Z"/><path class="cls-1" d="M176,80.16a3.15,3.15,0,1,0,4.45.28A3.15,3.15,0,0,0,176,80.16Z"/><path class="cls-1" d="M105.75,122.79a3.15,3.15,0,1,0-4.45-.28A3.17,3.17,0,0,0,105.75,122.79Z"/><path class="cls-1" d="M148.64,85a3.15,3.15,0,1,0-4.45-.28A3.15,3.15,0,0,0,148.64,85Z"/><path class="cls-1" d="M163.15,55.28c-3.2-3.62-8-4.48-10.81-2s-2.61,7.35.59,11a9.15,9.15,0,0,0,7.37,3.38l-2.12,33.83-34-2.13a9.25,9.25,0,0,0-2.48-7.51c-3.19-3.63-7.94-4.49-10.81-2s-2.6,7.34.6,11a9.18,9.18,0,0,0,7.35,3.38l-2.1,33.62-36.51-2.29-.31,4.93,36.36,2.28a9.16,9.16,0,0,0,2.41,7.82c3.2,3.62,8,4.48,10.81,2s2.61-7.35-.59-11a9.33,9.33,0,0,0-7-3.41h-.23l2.12-33.89,33.81,2.12a9.16,9.16,0,0,0,2.44,7.73c3.19,3.63,7.94,4.49,10.81,2s2.6-7.34-.6-11a9.26,9.26,0,0,0-7.11-3.39l2.39-38.27h0A9,9,0,0,0,163.15,55.28Zm-36.93,93.58c-.56.49-2.38.14-3.84-1.52s-1.59-3.51-1-4,2.37-.14,3.83,1.52S126.77,148.37,126.22,148.86ZM155.6,57c.56-.49,2.38-.14,3.84,1.52s1.59,3.51,1,4-2.38.14-3.84-1.52S155.05,57.52,155.6,57ZM114.14,93.6c.56-.49,2.37-.13,3.84,1.53s1.59,3.5,1,4-2.37.13-3.83-1.53S113.58,94.1,114.14,93.6Zm53.42,18.8c-.56.49-2.38.14-3.84-1.52s-1.59-3.51-1-4,2.37-.14,3.83,1.52S168.12,111.91,167.56,112.4Z"/></g><g id="_Radial_Repeat_8" data-name="&lt;Radial Repeat&gt;"><path class="cls-1" d="M220.58,63.86a3.15,3.15,0,1,0,4,1.86A3.15,3.15,0,0,0,220.58,63.86Z"/><path class="cls-1" d="M271.34,45.14A3.15,3.15,0,1,0,275.39,47,3.16,3.16,0,0,0,271.34,45.14Z"/><path class="cls-1" d="M190.43,59.51a3.16,3.16,0,1,0-4.05-1.87A3.16,3.16,0,0,0,190.43,59.51Z"/><path class="cls-1" d="M244.09,39.72A3.15,3.15,0,1,0,240,37.85,3.16,3.16,0,0,0,244.09,39.72Z"/><path class="cls-1" d="M268.33,17.3c-1.67-4.54-5.79-7.06-9.37-5.74s-5.08,5.91-3.41,10.45a9.21,9.21,0,0,0,5.65,5.81L247,58.59,216.06,44.32a9.28,9.28,0,0,0,.4-7.9c-1.67-4.53-5.79-7-9.37-5.73S202,36.6,203.68,41.14a9.18,9.18,0,0,0,5.64,5.8L195.21,77.53,162,62.21l-2.07,4.49L193,82a9.15,9.15,0,0,0-.57,8.16c1.67,4.53,5.79,7,9.37,5.73s5.08-5.91,3.41-10.45a9.31,9.31,0,0,0-5.31-5.7l-.21-.1,14.22-30.83L244.68,63a9.18,9.18,0,0,0-.53,8.09c1.67,4.54,5.79,7,9.37,5.73s5.08-5.91,3.41-10.44a9.3,9.3,0,0,0-5.4-5.74l16.06-34.82,0,0A9,9,0,0,0,268.33,17.3ZM200.09,91.22c-.69.25-2.26-.74-3-2.81s-.22-3.85.48-4.1,2.26.73,3,2.8S200.79,91,200.09,91.22Zm60.58-75c.7-.26,2.26.73,3,2.81s.22,3.84-.48,4.1-2.26-.73-3-2.81S260,16.45,260.67,16.2ZM208.79,35.33c.7-.26,2.27.73,3,2.8s.22,3.85-.48,4.1-2.26-.73-3-2.8S208.1,35.58,208.79,35.33Zm43,36.82c-.69.26-2.26-.73-3-2.81s-.22-3.84.48-4.1,2.26.73,3,2.81S252.51,71.89,251.81,72.15Z"/></g><g id="_Radial_Repeat_9" data-name="&lt;Radial Repeat&gt;"><path class="cls-1" d="M318.79,46a3.15,3.15,0,1,0,3.1,3.2A3.15,3.15,0,0,0,318.79,46Z"/><path class="cls-1" d="M372.89,46.92a3.16,3.16,0,1,0,3.1,3.21A3.16,3.16,0,0,0,372.89,46.92Z"/><path class="cls-1" d="M292.25,31.09a3.16,3.16,0,1,0-3.1-3.21A3.15,3.15,0,0,0,292.25,31.09Z"/><path class="cls-1" d="M349.44,32a3.15,3.15,0,1,0-3.1-3.2A3.15,3.15,0,0,0,349.44,32Z"/><path class="cls-1" d="M380.14,19.87c.08-4.83-2.85-8.67-6.67-8.73s-6.87,3.68-7,8.51a9.18,9.18,0,0,0,3.17,7.46L345.34,50.68,321.63,26.19A9.27,9.27,0,0,0,324.86,19c.08-4.84-2.85-8.67-6.67-8.73s-6.87,3.67-6.95,8.51a9.21,9.21,0,0,0,3.16,7.45L290.19,49.62,264.76,23.34l-3.55,3.44L286.54,53a9.15,9.15,0,0,0-3.48,7.41c-.08,4.83,2.85,8.67,6.67,8.73s6.87-3.68,6.95-8.51a9.33,9.33,0,0,0-2.89-7.24l-.16-.17L318,29.56l23.56,24.35a9.19,9.19,0,0,0-3.42,7.35c-.08,4.83,2.85,8.67,6.67,8.73s6.87-3.67,7-8.51a9.26,9.26,0,0,0-3-7.3l27.56-26.67,0,0A9,9,0,0,0,380.14,19.87ZM289.81,64.15c-.75,0-1.85-1.5-1.81-3.71s1.18-3.67,1.93-3.65,1.84,1.49,1.81,3.71S290.55,64.16,289.81,64.15Zm83.58-48.07c.75,0,1.85,1.5,1.81,3.71s-1.18,3.66-1.93,3.65-1.84-1.5-1.81-3.71S372.65,16.07,373.39,16.08Zm-55.28-.9c.74,0,1.85,1.49,1.81,3.71s-1.19,3.66-1.93,3.65-1.84-1.5-1.81-3.71S317.37,15.16,318.11,15.18Zm26.81,49.87c-.74,0-1.84-1.5-1.81-3.71s1.19-3.66,1.93-3.65,1.85,1.5,1.81,3.71S345.67,65.07,344.92,65.05Z"/></g><g id="_Radial_Repeat_10" data-name="&lt;Radial Repeat&gt;"><path class="cls-1" d="M416.81,64.9A3.15,3.15,0,1,0,418.54,69,3.15,3.15,0,0,0,416.81,64.9Z"/><path class="cls-1" d="M466.93,85.27a3.15,3.15,0,1,0,1.74,4.11A3.15,3.15,0,0,0,466.93,85.27Z"/><path class="cls-1" d="M397.46,41.37a3.15,3.15,0,1,0-1.74-4.11A3.15,3.15,0,0,0,397.46,41.37Z"/><path class="cls-1" d="M450.45,62.9a3.15,3.15,0,1,0-1.74-4.11A3.15,3.15,0,0,0,450.45,62.9Z"/><path class="cls-1" d="M483.47,62.66c1.82-4.48.47-9.11-3.07-10.55s-7.73,1-9.55,5.43a9.17,9.17,0,0,0,.26,8.1L439.89,78.82l-13.26-31.4a9.31,9.31,0,0,0,5.62-5.57c1.82-4.48.47-9.11-3.07-10.55s-7.73.95-9.55,5.43a9.16,9.16,0,0,0,.25,8.08l-31,13.1L374.62,24.22l-4.55,1.92L384.24,59.7a9.13,9.13,0,0,0-5.92,5.64c-1.82,4.48-.48,9.12,3.06,10.55s7.73-.94,9.55-5.42a9.32,9.32,0,0,0-.07-7.79l-.09-.21,31.28-13.21,13.17,31.21a9.19,9.19,0,0,0-5.84,5.63c-1.82,4.48-.47,9.11,3.07,10.55s7.73-1,9.55-5.43a9.28,9.28,0,0,0-.13-7.88L477.2,68.43l0,0A9,9,0,0,0,483.47,62.66ZM383.24,71.32c-.69-.28-1.18-2.07-.35-4.12s2.43-3,3.12-2.71,1.18,2.07.35,4.12S383.93,71.6,383.24,71.32Zm95.31-14.63c.68.28,1.17,2.06.34,4.11s-2.43,3-3.12,2.71-1.18-2.06-.34-4.11S477.86,56.41,478.55,56.69ZM427.32,35.88c.69.28,1.18,2.06.35,4.11s-2.43,3-3.12,2.71-1.18-2.06-.35-4.12S426.63,35.6,427.32,35.88Zm7,56.19c-.69-.28-1.18-2.06-.35-4.11s2.43-3,3.12-2.71,1.18,2.06.34,4.11S435,92.35,434.31,92.07Z"/></g><g id="_Radial_Repeat_11" data-name="&lt;Radial Repeat&gt;"><path class="cls-1" d="M501.39,117.9a3.15,3.15,0,1,0,.14,4.46A3.15,3.15,0,0,0,501.39,117.9Z"/><path class="cls-1" d="M540.77,155a3.16,3.16,0,1,0,.14,4.46A3.15,3.15,0,0,0,540.77,155Z"/><path class="cls-1" d="M491.85,89a3.15,3.15,0,1,0-.14-4.46A3.16,3.16,0,0,0,491.85,89Z"/><path class="cls-1" d="M533.48,128.19a3.16,3.16,0,1,0-.13-4.46A3.16,3.16,0,0,0,533.48,128.19Z"/><path class="cls-1" d="M564.36,139.89c3.31-3.52,3.73-8.33.95-10.94s-7.55-1.92-10.87,1.6a9.21,9.21,0,0,0-2.68,7.65l-33.88,1-1-34.07a9.28,9.28,0,0,0,7.24-3.16c3.32-3.52,3.74-8.33,1-11s-7.56-1.91-10.87,1.61a9.23,9.23,0,0,0-2.69,7.64l-33.67,1-1.09-36.56-4.94.15,1.09,36.41a9.16,9.16,0,0,0-7.56,3.12c-3.32,3.52-3.74,8.33-1,10.95s7.56,1.91,10.87-1.61a9.34,9.34,0,0,0,2.75-7.29v-.23l33.94-1,1,33.86a9.18,9.18,0,0,0-7.48,3.13c-3.31,3.52-3.73,8.33-.95,11s7.55,1.91,10.86-1.61a9.24,9.24,0,0,0,2.73-7.39L556.43,143v0A9,9,0,0,0,564.36,139.89Zm-96.59-28.14c-.54-.51-.35-2.35,1.17-4s3.34-1.91,3.88-1.4.35,2.35-1.16,4S468.31,112.26,467.77,111.75Zm94.16,20.79c.54.51.35,2.35-1.17,4s-3.34,1.91-3.88,1.4-.36-2.35,1.16-4S561.38,132,561.93,132.54ZM521.68,94.63c.54.51.35,2.35-1.16,4s-3.35,1.91-3.89,1.4-.35-2.35,1.16-4S521.14,94.12,521.68,94.63Zm-13.79,54.92c-.54-.51-.35-2.35,1.17-4s3.34-1.91,3.88-1.4.36,2.35-1.16,4S508.43,150.06,507.89,149.55Z"/></g><g id="_Radial_Repeat_12" data-name="&lt;Radial Repeat&gt;"><path class="cls-1" d="M561.12,197.87a3.15,3.15,0,1,0-1.48,4.21A3.15,3.15,0,0,0,561.12,197.87Z"/><path class="cls-1" d="M584.44,246.69a3.15,3.15,0,1,0-1.48,4.2A3.15,3.15,0,0,0,584.44,246.69Z"/><path class="cls-1" d="M562.67,167.45a3.15,3.15,0,1,0,1.49-4.21A3.16,3.16,0,0,0,562.67,167.45Z"/><path class="cls-1" d="M587.33,219.06a3.15,3.15,0,1,0,1.48-4.21A3.15,3.15,0,0,0,587.33,219.06Z"/><path class="cls-1" d="M611.89,241.12c4.36-2.08,6.49-6.41,4.84-9.86s-6.35-4.51-10.71-2.42a9.18,9.18,0,0,0-5.27,6.16l-32-11.3,11.36-32.13a9.3,9.3,0,0,0,7.9-.33c4.36-2.09,6.49-6.42,4.84-9.86s-6.35-4.52-10.71-2.43a9.19,9.19,0,0,0-5.27,6.14l-31.76-11.22,12.19-34.49-4.66-1.64-12.13,34.34a9.12,9.12,0,0,0-8.18.19c-4.37,2.08-6.49,6.41-4.85,9.86s6.35,4.51,10.72,2.42a9.31,9.31,0,0,0,5.19-5.81l.08-.21,32,11.31-11.29,31.94a9.21,9.21,0,0,0-8.11.23c-4.36,2.08-6.49,6.41-4.84,9.86s6.35,4.51,10.71,2.42a9.28,9.28,0,0,0,5.22-5.9l36.15,12.77,0,0A9,9,0,0,0,611.89,241.12ZM532,180c-.32-.67.52-2.32,2.52-3.28s3.8-.57,4.12.1-.51,2.32-2.51,3.28S532.31,180.67,532,180Zm80.29,53.39c.32.67-.52,2.32-2.52,3.28s-3.81.57-4.13-.1.52-2.32,2.52-3.28S612,232.72,612.28,233.39ZM588.44,183.5c.32.68-.51,2.32-2.51,3.28s-3.81.57-4.13-.1.52-2.32,2.52-3.27S588.12,182.83,588.44,183.5Zm-32.69,46.24c-.32-.67.52-2.32,2.51-3.28s3.81-.57,4.13.1-.52,2.32-2.51,3.28S556.07,230.41,555.75,229.74Z"/></g><g id="_Radial_Repeat_13" data-name="&lt;Radial Repeat&gt;"><path class="cls-1" d="M587.93,294A3.15,3.15,0,1,0,585,297.4,3.15,3.15,0,0,0,587.93,294Z"/><path class="cls-1" d="M592,348a3.15,3.15,0,1,0-2.91,3.38A3.16,3.16,0,0,0,592,348Z"/><path class="cls-1" d="M600.36,266.21a3.15,3.15,0,1,0,2.91-3.38A3.15,3.15,0,0,0,600.36,266.21Z"/><path class="cls-1" d="M604.71,323.24a3.15,3.15,0,1,0,2.9-3.38A3.16,3.16,0,0,0,604.71,323.24Z"/><path class="cls-1" d="M619.64,352.69c4.82-.37,8.37-3.63,8.08-7.44s-4.29-6.5-9.11-6.14a9.21,9.21,0,0,0-7.14,3.85l-25.72-22.08L608,295a9.24,9.24,0,0,0,7.48,2.54c4.82-.36,8.37-3.63,8.08-7.44s-4.29-6.5-9.12-6.14a9.22,9.22,0,0,0-7.12,3.83l-25.56-21.94,23.82-27.75-3.75-3.22-23.72,27.64a9.16,9.16,0,0,0-7.7-2.78c-4.82.37-8.37,3.64-8.08,7.44s4.3,6.51,9.12,6.14a9.34,9.34,0,0,0,6.94-3.54l.15-.18,25.76,22.12-22.07,25.7a9.18,9.18,0,0,0-7.63-2.72c-4.82.37-8.37,3.64-8.08,7.45s4.29,6.5,9.11,6.13a9.32,9.32,0,0,0,7-3.62l29.09,25,0,0A9,9,0,0,0,619.64,352.69Zm-52.42-85.86c-.06-.74,1.32-2,3.53-2.14s3.76.84,3.81,1.58-1.32,2-3.53,2.14S567.28,267.57,567.22,266.83Zm55.58,78.79c.05.75-1.33,2-3.53,2.15s-3.76-.85-3.82-1.59,1.32-2,3.53-2.14S622.74,344.88,622.8,345.62Zm-4.21-55.13c.06.75-1.32,2-3.53,2.15s-3.75-.84-3.81-1.59,1.32-2,3.53-2.14S618.54,289.75,618.59,290.49Zm-47.19,31.3c0-.74,1.33-2,3.53-2.14s3.76.84,3.82,1.58-1.33,2-3.53,2.15S571.46,322.54,571.4,321.79Z"/></g><g id="_Radial_Repeat_14" data-name="&lt;Radial Repeat&gt;"><path class="cls-1" d="M578.19,393.36a3.16,3.16,0,1,0-3.93,2.11A3.15,3.15,0,0,0,578.19,393.36Z"/><path class="cls-1" d="M562.53,445.15a3.15,3.15,0,1,0-3.93,2.11A3.14,3.14,0,0,0,562.53,445.15Z"/><path class="cls-1" d="M599.83,371.92a3.16,3.16,0,1,0,3.93-2.11A3.15,3.15,0,0,0,599.83,371.92Z"/><path class="cls-1" d="M583.28,426.67a3.16,3.16,0,1,0,3.93-2.11A3.15,3.15,0,0,0,583.28,426.67Z"/><path class="cls-1" d="M586.57,459.53c4.62,1.4,9.12-.37,10.22-4s-1.65-7.61-6.28-9a9.2,9.2,0,0,0-8,1l-16-29.88,30-16.09a9.26,9.26,0,0,0,6.06,5.07c4.63,1.4,9.12-.37,10.23-4s-1.66-7.61-6.29-9a9.2,9.2,0,0,0-8,1l-15.91-29.69,32.25-17.27-2.34-4.36-32.11,17.21a9.14,9.14,0,0,0-6.16-5.38c-4.63-1.4-9.12.37-10.23,4s1.66,7.61,6.29,9a9.3,9.3,0,0,0,7.75-.8l.2-.11,16,29.93-29.86,16a9.15,9.15,0,0,0-6.14-5.29c-4.63-1.4-9.12.37-10.22,4s1.65,7.61,6.28,9a9.3,9.3,0,0,0,7.84-.85l18.11,33.8,0,0A9,9,0,0,0,586.57,459.53Zm-17.87-99c.22-.71,1.95-1.36,4.07-.72s3.2,2.14,3,2.86-2,1.36-4.06.72S568.49,361.24,568.7,360.52Zm23.36,93.55c-.21.72-1.94,1.37-4.06.73s-3.2-2.14-3-2.86,2-1.36,4.07-.72S592.28,453.36,592.06,454.07Zm16-52.92c-.22.71-1.95,1.37-4.07.72s-3.2-2.14-3-2.85,2-1.36,4.06-.72S608.27,400.44,608.06,401.15Zm-55.31,12.14c.21-.71,1.94-1.37,4.06-.73s3.2,2.15,3,2.86-1.95,1.36-4.07.72S552.53,414,552.75,413.29Z"/></g><g id="_Radial_Repeat_15" data-name="&lt;Radial Repeat&gt;"><path class="cls-1" d="M533.22,482.47a3.15,3.15,0,1,0-4.43.55A3.15,3.15,0,0,0,533.22,482.47Z"/><path class="cls-1" d="M499.92,525.11a3.15,3.15,0,1,0-4.43.54A3.16,3.16,0,0,0,499.92,525.11Z"/><path class="cls-1" d="M561.15,470.3a3.15,3.15,0,1,0,4.42-.54A3.16,3.16,0,0,0,561.15,470.3Z"/><path class="cls-1" d="M525.94,515.37a3.16,3.16,0,1,0,4.43-.54A3.16,3.16,0,0,0,525.94,515.37Z"/><path class="cls-1" d="M517.13,547.2c3.81,3,8.64,2.95,11-.06s1.21-7.7-2.6-10.67a9.17,9.17,0,0,0-7.87-2l-4.13-33.64,33.83-4.16a9.29,9.29,0,0,0,3.82,6.93c3.81,3,8.63,2.95,11-.06s1.21-7.7-2.6-10.68a9.22,9.22,0,0,0-7.85-2l-4.11-33.43L583.9,453l-.6-4.9-36.16,4.44a9.16,9.16,0,0,0-3.81-7.24c-3.81-3-8.64-2.95-11,.06s-1.2,7.7,2.61,10.67a9.33,9.33,0,0,0,7.51,2.06l.23,0,4.14,33.7-33.62,4.13a9.18,9.18,0,0,0-3.82-7.15c-3.81-3-8.63-2.95-11,.06s-1.21,7.69,2.6,10.67a9.25,9.25,0,0,0,7.61,2l4.68,38.06h0A9,9,0,0,0,517.13,547.2Zm19.11-98.77c.45-.59,2.3-.57,4,.79s2.21,3.16,1.75,3.74-2.31.57-4-.79S535.78,449,536.24,448.43Zm-12,95.67c-.46.59-2.31.57-4.06-.79s-2.21-3.16-1.75-3.74,2.31-.57,4.05.79S524.68,543.51,524.23,544.1Zm34-43.57c-.46.58-2.31.57-4-.8s-2.21-3.15-1.75-3.74,2.3-.56,4,.8S558.72,499.94,558.26,500.53Zm-56-8.66c.46-.59,2.31-.57,4.05.79s2.21,3.15,1.75,3.74-2.3.57-4.05-.79S501.84,492.45,502.3,491.87Z"/></g><g id="_Radial_Repeat_16" data-name="&lt;Radial Repeat&gt;"><path class="cls-1" d="M459.1,549.33a3.15,3.15,0,1,0-4.32-1.1A3.16,3.16,0,0,0,459.1,549.33Z"/><path class="cls-1" d="M412.64,577.05a3.15,3.15,0,1,0-4.32-1.09A3.14,3.14,0,0,0,412.64,577.05Z"/><path class="cls-1" d="M489.54,548.06a3.15,3.15,0,1,0,4.32,1.09A3.15,3.15,0,0,0,489.54,548.06Z"/><path class="cls-1" d="M440.42,577.37a3.16,3.16,0,1,0,4.33,1.1A3.17,3.17,0,0,0,440.42,577.37Z"/><path class="cls-1" d="M420.71,603.87c2.48,4.15,7,5.87,10.27,3.91s3.91-6.74,1.43-10.89a9.21,9.21,0,0,0-6.62-4.68l8.29-32.86,33.06,8.35a9.27,9.27,0,0,0,1.05,7.83c2.48,4.16,7,5.87,10.27,3.92s3.9-6.74,1.43-10.9a9.22,9.22,0,0,0-6.61-4.67l8.25-32.66,35.46,9,1.21-4.79-35.32-8.92a9.13,9.13,0,0,0-.94-8.13c-2.47-4.15-7-5.87-10.26-3.91s-3.91,6.74-1.43,10.89a9.32,9.32,0,0,0,6.26,4.63l.23.06-8.32,32.92-32.84-8.29a9.2,9.2,0,0,0-1-8c-2.48-4.16-7-5.87-10.27-3.92s-3.9,6.74-1.43,10.9a9.29,9.29,0,0,0,6.37,4.64l-9.39,37.18h0A9,9,0,0,0,420.71,603.87Zm53.5-85.2c.64-.38,2.36.3,3.49,2.2s.92,3.74.28,4.12-2.35-.3-3.49-2.2S473.57,519.05,474.21,518.67Zm-45.76,84.87c-.64.38-2.36-.3-3.49-2.2s-.92-3.74-.29-4.12,2.36.3,3.5,2.2S429.09,603.16,428.45,603.54Zm47.48-28.33c-.64.38-2.36-.31-3.5-2.21s-.92-3.74-.28-4.12,2.36.31,3.49,2.21S476.56,574.82,475.93,575.21Zm-49.06-28.3c.64-.38,2.36.31,3.5,2.21s.92,3.74.28,4.12-2.36-.31-3.5-2.21S426.23,547.3,426.87,546.91Z"/></g><g id="_Radial_Repeat_17" data-name="&lt;Radial Repeat&gt;"><path class="cls-1" d="M365.83,584.89a3.15,3.15,0,1,0-3.63-2.58A3.15,3.15,0,0,0,365.83,584.89Z"/><path class="cls-1" d="M312.5,594a3.15,3.15,0,1,0-3.64-2.58A3.16,3.16,0,0,0,312.5,594Z"/><path class="cls-1" d="M394.67,594.7a3.15,3.15,0,1,0,3.64,2.59A3.17,3.17,0,0,0,394.67,594.7Z"/><path class="cls-1" d="M338.29,604.3a3.15,3.15,0,1,0,3.63,2.58A3.14,3.14,0,0,0,338.29,604.3Z"/><path class="cls-1" d="M310.34,621.88c.81,4.77,4.39,8,8.16,7.36s6.07-4.88,5.26-9.64a9.15,9.15,0,0,0-4.48-6.75l19.61-27.65,27.8,19.72a9.32,9.32,0,0,0-1.85,7.69c.81,4.77,4.4,8,8.16,7.36s6.08-4.88,5.27-9.64a9.18,9.18,0,0,0-4.47-6.75l19.49-27.47,29.83,21.16,2.86-4-29.71-21.08a9.15,9.15,0,0,0,2.06-7.91c-.81-4.77-4.4-8-8.16-7.36s-6.08,4.87-5.27,9.64a9.36,9.36,0,0,0,4.17,6.59l.19.13-19.65,27.69L342,581.34a9.14,9.14,0,0,0,2-7.85c-.81-4.77-4.39-8-8.15-7.36s-6.08,4.87-5.27,9.64a9.29,9.29,0,0,0,4.26,6.63l-22.19,31.28,0,0A9,9,0,0,0,310.34,621.88ZM391,561.76c.73-.13,2.09,1.13,2.46,3.32s-.49,3.81-1.23,3.94-2.09-1.13-2.46-3.32S390.26,561.88,391,561.76Zm-73.33,62.61c-.74.12-2.09-1.14-2.46-3.32s.49-3.82,1.22-3.94,2.09,1.13,2.46,3.31S318.4,624.24,317.67,624.37Zm54.5-9.27c-.73.12-2.08-1.14-2.46-3.32s.5-3.82,1.23-3.94,2.09,1.13,2.46,3.31S372.91,615,372.17,615.1ZM336.65,571c.74-.13,2.09,1.13,2.46,3.31s-.49,3.82-1.22,4-2.09-1.14-2.46-3.32S335.92,571.12,336.65,571Z"/></g></svg>