<svg id="Capa_1" data-name="Capa 1" xmlns="http://www.w3.org/2000/svg" viewBox="0 0 674.01 663.96"><defs><style>.cls-1,.cls-2,.cls-3{fill:none;stroke:#e5651e;stroke-miterlimit:10;}.cls-1{stroke-width:5.16px;}.cls-2{stroke-width:2.27px;}</style></defs><g id="_Radial_Repeat_" data-name="&lt;Radial Repeat&gt;"><path class="cls-1" d="M325.8,602.11c-7.09,25-28.27,42-54,38.4-30.4-4.23-46.74-32.35-40.65-62,1.6-7.75,1.1-15.53,5.53-21.5a52.69,52.69,0,0,1,17.06-14.81A50.83,50.83,0,0,1,258.4,540l.93-35.41a2.36,2.36,0,0,1,2.79-2.77l67.45,13.88a2.36,2.36,0,0,1,1.48,3.62l-13.32,33.54c.92,1,1.8,2,2.63,3.08a52.86,52.86,0,0,1,9.81,20.38C332.15,584.75,328.37,593.05,325.8,602.11Z"/><ellipse class="cls-2" cx="279.87" cy="587.8" rx="7.75" ry="5" transform="translate(-352.28 743.41) rotate(-78.37)"/><path class="cls-1" d="M230,590.53,214,570.1a3.1,3.1,0,0,1,.91-5.53l22.95-8.89"/><path class="cls-2" d="M254.25,537.76s10.13,7.68,32.6,12.31S323.16,552,323.16,552"/><path class="cls-2" d="M259.72,522.08c.84-4.08,8.59-5.94,17.3-4.14,10.63,2.18,14.67,8.63,14.67,8.63s6.79-4.22,16.88-2.14c8.71,1.79,15.09,6.55,14.25,10.64"/><ellipse class="cls-3" cx="279.02" cy="527.39" rx="1.85" ry="5.37" transform="translate(-293.79 694.36) rotate(-78.37)"/><ellipse class="cls-3" cx="302.98" cy="532.41" rx="1.85" ry="5.37" transform="translate(-279.57 721.83) rotate(-78.37)"/><ellipse class="cls-3" cx="288.46" cy="542.22" rx="1.32" ry="3.83" transform="translate(-300.78 715.45) rotate(-78.37)"/><ellipse class="cls-3" cx="302.98" cy="532.41" rx="1.32" ry="3.83" transform="translate(-279.57 721.83) rotate(-78.37)"/><line class="cls-2" x1="291.69" y1="526.57" x2="289.83" y2="535.59"/><path class="cls-2" d="M314.31,552.1c-2.57,12.51-16.3,20.25-30.65,17.29s-23.91-15.49-21.34-28"/><path class="cls-2" d="M319.9,556.87c-3.19,15.54-20.25,25.16-38.09,21.48s-29.71-19.24-26.51-34.78"/><line class="cls-2" x1="283.66" y1="569.39" x2="281.84" y2="578.24"/><line class="cls-2" x1="274.66" y1="567.54" x2="269.01" y2="574.59"/><line class="cls-2" x1="268.47" y1="559.67" x2="260.97" y2="564.72"/><line class="cls-2" x1="263.46" y1="551.97" x2="255.11" y2="555.4"/><line class="cls-2" x1="291.91" y1="571.09" x2="294.32" y2="579.8"/><line class="cls-2" x1="300.71" y1="566.31" x2="305.6" y2="573.91"/><line class="cls-2" x1="308.35" y1="561.21" x2="314.67" y2="567.66"/><path class="cls-2" d="M254.17,532.2a7.47,7.47,0,1,1-.36-14.94"/><path class="cls-2" d="M325.57,546.9a7.47,7.47,0,1,0,6.23-13.58"/><path class="cls-2" d="M238.2,577.21c4.86,1,7.91,5.48,6.9,9.61s-5.62,5.88-10.55,5.36c-4-.43-3.31-4.53-2.3-8.67S232,575.93,238.2,577.21Z"/><path class="cls-2" d="M320.84,595.51c-4.86-1-9.43,1.9-10.14,6.1s2.84,7.62,7.58,9.08c3.84,1.19,4.83-2.85,5.53-7.05S327.06,596.78,320.84,595.51Z"/><path class="cls-1" d="M289.62,639.56a5.08,5.08,0,0,1,3.44,2.58l5.3,10a5,5,0,0,1-5.47,7.3l-54.41-11.2a5,5,0,0,1-2.15-8.86l8.83-7.12a5.06,5.06,0,0,1,4.18-1"/><path class="cls-1" d="M321.11,611.39l27.83-16.54a3.09,3.09,0,0,0,1.19-5.47l-21.07-17"/></g><g id="_Radial_Repeat_2" data-name="&lt;Radial Repeat&gt;"><path class="cls-1" d="M181.66,557.58c-19.46,17.17-46.47,20-66.17,3.12-23.29-20-21.83-52.49-.71-74.09,5.54-5.66,9.32-12.48,16.28-15.1a52.6,52.6,0,0,1,22.36-3.23,48.65,48.65,0,0,1,5.12.61l19.92-29.29a2.36,2.36,0,0,1,3.85-.82l49.24,48.14a2.36,2.36,0,0,1-.71,3.85l-29.34,21c.23,1.34.41,2.69.54,4a52.89,52.89,0,0,1-2.76,22.45C196.39,546.41,188.72,551.35,181.66,557.58Z"/><ellipse class="cls-2" cx="150.76" cy="520.7" rx="7.75" ry="5" transform="translate(-326.94 264.45) rotate(-45.64)"/><path class="cls-1" d="M107.33,496l-2.46-25.86a3.1,3.1,0,0,1,3.76-4.16L132.74,471"/><path class="cls-2" d="M156.26,464.77s4.37,11.93,20.77,28S206.56,514,206.56,514"/><path class="cls-2" d="M169.34,454.53c2.91-3,10.43-.35,16.79,5.86,7.76,7.59,7.67,15.2,7.67,15.2s8,.12,15.36,7.32c6.36,6.22,9.16,13.68,6.24,16.66"/><ellipse class="cls-3" cx="182.71" cy="469.43" rx="1.85" ry="5.37" transform="translate(-280.67 271.86) rotate(-45.64)"/><ellipse class="cls-3" cx="200.15" cy="486.6" rx="1.85" ry="5.37" transform="translate(-287.7 289.5) rotate(-45.64)"/><ellipse class="cls-3" cx="182.63" cy="487.01" rx="1.32" ry="3.83" transform="translate(-293.26 277.1) rotate(-45.64)"/><ellipse class="cls-3" cx="200.15" cy="486.6" rx="1.32" ry="3.83" transform="translate(-287.7 289.5) rotate(-45.64)"/><line class="cls-2" x1="193.8" y1="475.59" x2="187.36" y2="482.17"/><path class="cls-2" d="M199,509.3c-8.92,9.13-24.65,8.22-35.13-2s-11.75-26-2.82-35.08"/><path class="cls-2" d="M201.16,516.33c-11.09,11.35-30.64,10.22-43.66-2.52s-14.59-32.25-3.5-43.59"/><line class="cls-2" x1="163.9" y1="507.27" x2="157.58" y2="513.73"/><line class="cls-2" x1="157.33" y1="500.85" x2="148.77" y2="503.73"/><line class="cls-2" x1="156.37" y1="490.88" x2="147.34" y2="491.08"/><line class="cls-2" x1="156.33" y1="481.7" x2="147.44" y2="480.06"/><line class="cls-2" x1="169.92" y1="513.16" x2="167.24" y2="521.79"/><line class="cls-2" x1="179.91" y1="513.9" x2="179.92" y2="522.93"/><line class="cls-2" x1="189.09" y1="513.74" x2="190.93" y2="522.58"/><path class="cls-2" d="M159.2,460A7.47,7.47,0,1,1,167,447.28"/><path class="cls-2" d="M211.32,511A7.47,7.47,0,1,0,223.9,503"/><path class="cls-2" d="M121.42,489.27c3.55,3.47,3.7,8.89.62,11.82s-7.91,1.91-11.77-1.2c-3.13-2.52-.34-5.6,2.75-8.53S116.89,484.83,121.42,489.27Z"/><path class="cls-2" d="M181.06,549.34c-3.56-3.46-9-3.49-11.83-.35s-1.73,8,1.46,11.74c2.59,3.08,5.61.21,8.47-2.94S185.6,553.77,181.06,549.34Z"/><path class="cls-1" d="M131,569.52a5,5,0,0,1,1.5,4l-1,11.3A5,5,0,0,1,123,588L83.25,549.19a5,5,0,0,1,3-8.62l11.28-1.21a5.06,5.06,0,0,1,4.06,1.41"/><path class="cls-1" d="M172.7,562.84,205.05,564a3.09,3.09,0,0,0,4-4l-8.52-25.73"/></g><g id="_Radial_Repeat_3" data-name="&lt;Radial Repeat&gt;"><path class="cls-1" d="M84.48,442.19c-25.66,3.92-49.93-8.28-57.36-33.15-8.78-29.41,10-56,39.47-62.71,7.72-1.77,14.58-5.46,21.85-3.9A52.52,52.52,0,0,1,109,351.79a48.45,48.45,0,0,1,4,3.29l32.6-13.87a2.36,2.36,0,0,1,3.68,1.38l15.39,67.13a2.35,2.35,0,0,1-2.67,2.85l-36,1.82c-.53,1.25-1.11,2.48-1.72,3.67a52.77,52.77,0,0,1-14.46,17.39C102.91,440.76,93.78,440.76,84.48,442.19Z"/><ellipse class="cls-2" cx="78.42" cy="394.46" rx="7.75" ry="5" transform="translate(-86.18 27.5) rotate(-12.91)"/><path class="cls-1" d="M55.22,350.24l11.91-23.09a3.1,3.1,0,0,1,5.41-1.47l17.62,17.18"/><path class="cls-2" d="M113.29,350.38s-2.78,12.4,2.35,34.76S129,419,129,419"/><path class="cls-2" d="M129.83,348.84c4.06-.94,9,5.34,10.95,14,2.43,10.57-1.76,16.93-1.76,16.93s6.66,4.42,9,14.46c2,8.67.31,16.46-3.75,17.39"/><ellipse class="cls-3" cx="133.02" cy="368.6" rx="1.85" ry="5.37" transform="translate(-79.02 39.05) rotate(-12.91)"/><ellipse class="cls-3" cx="138.4" cy="392.48" rx="1.85" ry="5.37" transform="translate(-84.22 40.86) rotate(-12.91)"/><ellipse class="cls-3" cx="123.45" cy="383.35" rx="1.32" ry="3.83" transform="translate(-82.55 37.29) rotate(-12.91)"/><ellipse class="cls-3" cx="138.4" cy="392.48" rx="1.32" ry="3.83" transform="translate(-84.22 40.86) rotate(-12.91)"/><line class="cls-2" x1="139.02" y1="379.78" x2="130.04" y2="381.83"/><path class="cls-2" d="M125.19,411c-12.44,2.86-25.18-6.41-28.46-20.7s4.16-28.18,16.6-31"/><path class="cls-2" d="M123.18,418c-15.46,3.55-31.3-8-35.37-25.73s5.17-35,20.63-38.56"/><line class="cls-2" x1="96.73" y1="390.26" x2="87.93" y2="392.28"/><line class="cls-2" x1="94.68" y1="381.31" x2="85.92" y2="379.1"/><line class="cls-2" x1="99.26" y1="372.41" x2="91.56" y2="367.69"/><line class="cls-2" x1="104.19" y1="364.65" x2="97.6" y2="358.48"/><line class="cls-2" x1="98.62" y1="398.47" x2="91.69" y2="404.28"/><line class="cls-2" x1="106.62" y1="404.49" x2="101.74" y2="412.1"/><line class="cls-2" x1="114.43" y1="409.32" x2="111.19" y2="417.76"/><path class="cls-2" d="M118.31,348a7.47,7.47,0,1,1,13.44-6.53"/><path class="cls-2" d="M134.61,419a7.47,7.47,0,1,0,14.94,0"/><path class="cls-2" d="M70.73,352.16c1.11,4.84-1.69,9.47-5.87,10.27s-7.68-2.67-9.25-7.37c-1.28-3.81,2.74-4.89,6.92-5.69S69.32,346,70.73,352.16Z"/><path class="cls-2" d="M88.42,434.93c-1.11-4.83-5.65-7.79-9.76-6.69s-5.75,5.75-5.12,10.67c.52,4,4.61,3.21,8.72,2.11S89.85,441.11,88.42,434.93Z"/><path class="cls-1" d="M35.38,424.83a5.05,5.05,0,0,1-.92,4.2l-6.91,9a5,5,0,0,1-8.91-1.95L6.22,381.92a5,5,0,0,1,7.17-5.63l10.14,5.08a5,5,0,0,1,2.66,3.38"/><path class="cls-1" d="M74.09,441.77l26.6,18.45a3.1,3.1,0,0,0,5.48-1.19l6.74-26.25"/></g><g id="_Radial_Repeat_4" data-name="&lt;Radial Repeat&gt;"><path class="cls-1" d="M65.11,292.58c-23.71-10.57-37.53-34-30.33-58.9,8.51-29.49,38.67-41.66,67.11-31.42,7.44,2.68,15.21,3.3,20.49,8.53a52.68,52.68,0,0,1,12.23,19,48.38,48.38,0,0,1,1.56,4.92l34.93,6a2.36,2.36,0,0,1,2.34,3.16L150.1,308.6a2.36,2.36,0,0,1-3.8,1L115,291.6c-1.13.76-2.28,1.48-3.43,2.16A52.89,52.89,0,0,1,90,300.57C81.38,301.33,73.71,296.41,65.11,292.58Z"/><ellipse class="cls-2" cx="85.81" cy="249.15" rx="5" ry="7.75" transform="translate(-177.67 245.43) rotate(-70.19)"/><path class="cls-1" d="M90.2,199.4l22.51-13a3.09,3.09,0,0,1,5.34,1.69l5.54,24"/><path class="cls-2" d="M139,230.91s-9,8.94-16.82,30.52-7,35.67-7,35.67"/><path class="cls-2" d="M153.73,238.56c3.92,1.41,4.65,9.34,1.64,17.71-3.68,10.21-10.64,13.29-10.64,13.29s3.21,7.32-.28,17c-3,8.37-8.64,14-12.56,12.6"/><ellipse class="cls-3" cx="145.72" cy="256.91" rx="5.37" ry="1.85" transform="translate(-145.37 306.93) rotate(-70.19)"/><ellipse class="cls-3" cx="137.35" cy="279.91" rx="5.37" ry="1.85" transform="translate(-172.55 314.25) rotate(-70.19)"/><ellipse class="cls-3" cx="129.7" cy="264.14" rx="3.83" ry="1.32" transform="translate(-162.77 296.64) rotate(-70.19)"/><ellipse class="cls-3" cx="137.35" cy="279.91" rx="3.83" ry="1.32" transform="translate(-172.55 314.25) rotate(-70.19)"/><line class="cls-2" x1="144.73" y1="269.56" x2="136.07" y2="266.43"/><path class="cls-2" d="M116.24,288.32c-12-4.33-17.72-19-12.75-32.8s18.73-21.47,30.74-17.14"/><path class="cls-2" d="M110.72,293.18c-14.92-5.38-22-23.63-15.84-40.77s23.28-26.67,38.2-21.29"/><line class="cls-2" x1="103.49" y1="255.52" x2="94.99" y2="252.45"/><line class="cls-2" x1="106.6" y1="246.88" x2="100.43" y2="240.28"/><line class="cls-2" x1="115.27" y1="241.86" x2="111.34" y2="233.73"/><line class="cls-2" x1="123.61" y1="238.01" x2="121.41" y2="229.25"/><line class="cls-2" x1="100.63" y1="263.45" x2="91.67" y2="264.59"/><line class="cls-2" x1="104.11" y1="272.84" x2="95.9" y2="276.59"/><line class="cls-2" x1="108.08" y1="281.12" x2="100.79" y2="286.46"/><path class="cls-2" d="M144.5,231.62a7.47,7.47,0,0,1,14.83,1.77"/><path class="cls-2" d="M119.79,300.21a7.47,7.47,0,0,0,12.55,8.1"/><path class="cls-2" d="M102.22,209.41c-1.69,4.66-6.55,7.05-10.5,5.46s-5-6.4-3.79-11.2c1-3.9,4.95-2.63,8.9-1S104.38,203.44,102.22,209.41Z"/><path class="cls-2" d="M72.35,288.6c1.68-4.67-.55-9.6-4.6-10.9s-7.94,1.73-10.07,6.21c-1.72,3.63,2.14,5.18,6.19,6.48S70.21,294.57,72.35,288.6Z"/><path class="cls-1" d="M33.18,251.43a5.05,5.05,0,0,1-3,3l-10.67,3.82A5,5,0,0,1,13,251.83l18.83-52.26a5,5,0,0,1,9.07-.86l5.79,9.75a5.06,5.06,0,0,1,.4,4.28"/><path class="cls-1" d="M56.59,286.61,69,316.51a3.1,3.1,0,0,0,5.25,2L94.11,300"/></g><g id="_Radial_Repeat_5" data-name="&lt;Radial Repeat&gt;"><path class="cls-1" d="M129.7,156.24c-14.23-21.71-13.21-48.85,6.33-65.94,23.1-20.21,55.06-14.14,73.44,9.84,4.81,6.29,11,11,12.62,18.26a52.48,52.48,0,0,1,0,22.59,49.35,49.35,0,0,1-1.34,5l26.16,23.9a2.36,2.36,0,0,1,.27,3.92l-54.66,41.88a2.37,2.37,0,0,1-3.72-1.25l-16.61-32c-1.36,0-2.72,0-4.06,0a52.91,52.91,0,0,1-21.82-5.93C138.66,172.41,134.86,164.11,129.7,156.24Z"/><ellipse class="cls-2" cx="170.6" cy="130.9" rx="5" ry="7.75" transform="translate(-44.43 130.75) rotate(-37.46)"/><path class="cls-1" d="M201.18,91.43l26,1.24A3.1,3.1,0,0,1,230.72,97l-8.31,23.17"/><path class="cls-2" d="M225.18,144.31s-12.44,2.62-30.64,16.57-25.2,26.21-25.2,26.21"/><path class="cls-2" d="M233.45,158.71c2.54,3.31-1.13,10.38-8.19,15.79-8.61,6.59-16.13,5.42-16.13,5.42s-1.26,7.9-9.44,14.17c-7.06,5.41-14.84,7.11-17.37,3.8"/><ellipse class="cls-3" cx="216.8" cy="169.82" rx="5.37" ry="1.85" transform="translate(-58.58 166.88) rotate(-37.46)"/><ellipse class="cls-3" cx="197.32" cy="184.64" rx="5.37" ry="1.85" transform="translate(-71.61 158.09) rotate(-37.46)"/><ellipse class="cls-3" cx="199.41" cy="167.24" rx="3.83" ry="1.32" transform="translate(-60.6 155.77) rotate(-37.46)"/><ellipse class="cls-3" cx="197.32" cy="184.64" rx="3.83" ry="1.32" transform="translate(-71.61 158.09) rotate(-37.46)"/><line class="cls-2" x1="209.13" y1="179.92" x2="203.53" y2="172.61"/><path class="cls-2" d="M175,180.3c-7.76-10.13-4.62-25.57,7-34.48s27.36-7.93,35.12,2.2"/><path class="cls-2" d="M167.75,181.41c-9.65-12.59-5.75-31.78,8.71-42.86s34-9.85,43.65,2.74"/><line class="cls-2" x1="182.03" y1="145.82" x2="176.53" y2="138.64"/><line class="cls-2" x1="189.31" y1="140.23" x2="187.68" y2="131.34"/><line class="cls-2" x1="199.32" y1="140.7" x2="200.41" y2="131.73"/><line class="cls-2" x1="208.41" y1="141.96" x2="211.3" y2="133.4"/><line class="cls-2" x1="175.33" y1="150.94" x2="167.18" y2="147.06"/><line class="cls-2" x1="173.18" y1="160.72" x2="164.24" y2="159.44"/><line class="cls-2" x1="172.04" y1="169.84" x2="163.02" y2="170.39"/><path class="cls-2" d="M229.44,147.88A7.47,7.47,0,0,1,241,157.39"/><path class="cls-2" d="M171.57,192.22a7.47,7.47,0,1,0,6.19,13.6"/><path class="cls-2" d="M205.88,106.34c-3.94,3-9.32,2.39-11.78-1.08s-.76-8.09,2.86-11.48c2.94-2.74,5.59.47,8,3.94S210.92,102.48,205.88,106.34Z"/><path class="cls-2" d="M137.94,156.81c3.93-3,4.73-8.37,2-11.65s-7.62-2.85-11.83-.23c-3.41,2.12-1,5.52,1.7,8.8S132.91,160.68,137.94,156.81Z"/><path class="cls-1" d="M125.09,104.37a5.06,5.06,0,0,1-4.2.91l-11-2.56a5,5,0,0,1-1.93-8.91L152,60a5,5,0,0,1,8.1,4.18l-.41,11.33a5,5,0,0,1-2,3.82"/><path class="cls-1" d="M125.76,146.62,120,178.48a3.1,3.1,0,0,0,3.36,4.49l26.68-4.77"/></g><g id="_Radial_Repeat_6" data-name="&lt;Radial Repeat&gt;"><path class="cls-1" d="M257.74,76.47c-.23-26,15.3-48.24,41-52.06,30.36-4.51,54,17.87,56.46,48,.65,7.89,3.32,15.21.75,22.19a52.77,52.77,0,0,1-12.2,19,46.34,46.34,0,0,1-3.82,3.47L349,151.31a2.36,2.36,0,0,1-1.89,3.45l-68.63,5.68a2.36,2.36,0,0,1-2.45-3.06l3.34-35.93c-1.17-.7-2.3-1.45-3.4-2.22a52.92,52.92,0,0,1-15.15-16.79C256.54,94.91,257.83,85.88,257.74,76.47Z"/><ellipse class="cls-2" cx="305.85" cy="77.26" rx="5" ry="7.75" transform="translate(-5.33 25.5) rotate(-4.73)"/><path class="cls-1" d="M352.92,60.59l21.16,15.08a3.09,3.09,0,0,1,.68,5.56l-19.51,15"/><path class="cls-2" d="M344.52,118.05s-11.88-4.52-34.74-2.62-35.37,8.42-35.37,8.42"/><path class="cls-2" d="M343.69,134.64c.35,4.15-6.56,8.11-15.43,8.85-10.81.89-16.5-4.16-16.5-4.16s-5.33,6-15.6,6.82c-8.86.73-16.33-2-16.67-6.19"/><ellipse class="cls-3" cx="323.68" cy="134.98" rx="5.37" ry="1.85" transform="translate(-10.03 27.17) rotate(-4.73)"/><ellipse class="cls-3" cx="299.28" cy="136.92" rx="5.37" ry="1.85" transform="translate(-10.28 25.16) rotate(-4.73)"/><ellipse class="cls-3" cx="310.44" cy="123.41" rx="3.83" ry="1.32" transform="translate(-9.12 26.03) rotate(-4.73)"/><ellipse class="cls-3" cx="299.28" cy="136.92" rx="3.83" ry="1.32" transform="translate(-10.28 25.16) rotate(-4.73)"/><line class="cls-2" x1="311.76" y1="139.33" x2="311" y2="130.15"/><path class="cls-2" d="M282.86,121.21c-1.06-12.72,9.93-24,24.54-25.22s27.3,8.12,28.36,20.84"/><path class="cls-2" d="M276.15,118.21c-1.31-15.81,12.34-29.84,30.5-31.34s33.92,10.09,35.23,25.9"/><line class="cls-2" x1="307.4" y1="95.99" x2="306.66" y2="86.98"/><line class="cls-2" x1="316.55" y1="95.23" x2="319.98" y2="86.87"/><line class="cls-2" x1="324.71" y1="101.03" x2="330.48" y2="94.08"/><line class="cls-2" x1="331.68" y1="107.01" x2="338.74" y2="101.37"/><line class="cls-2" x1="299" y1="96.68" x2="294.24" y2="89.01"/><line class="cls-2" x1="291.9" y1="103.75" x2="285.07" y2="97.84"/><line class="cls-2" x1="286.01" y1="110.8" x2="278.13" y2="106.39"/><path class="cls-2" d="M346.17,123.36a7.47,7.47,0,1,1,4.55,14.23"/><path class="cls-2" d="M273.52,129.38a7.47,7.47,0,1,0-2.15,14.78"/><path class="cls-2" d="M348.81,75.68c-4.94.4-9.13-3-9.33-7.28s3.74-7.22,8.62-8.11c3.95-.72,4.45,3.41,4.64,7.66S355.14,75.16,348.81,75.68Z"/><path class="cls-2" d="M264.37,81.4c4.94-.41,8.51-4.48,8-8.71s-4.87-6.51-9.83-6.58c-4-.06-3.82,4.1-3.32,8.32S258,81.94,264.37,81.4Z"/><path class="cls-1" d="M281.91,30.34a5.06,5.06,0,0,1-4-1.51L270,20.71a5,5,0,0,1,3.2-8.54l55.36-4.58a5,5,0,0,1,4.56,7.89l-6.47,9.31a5,5,0,0,1-3.72,2.15"/><path class="cls-1" d="M259.64,66.24,237.59,90a3.1,3.1,0,0,0,.4,5.59L263,106"/></g><g id="_Radial_Repeat_7" data-name="&lt;Radial Repeat&gt;"><path class="cls-1" d="M408.59,78.59c13.84-22,39-32.31,62.62-21.64,28,12.62,35.73,44.21,21.55,70.89-3.72,7-5.43,14.59-11.37,19.07a52.5,52.5,0,0,1-20.54,9.4,49,49,0,0,1-5.08.86L444.9,190.89a2.36,2.36,0,0,1-3.46,1.87l-60.81-32.33a2.35,2.35,0,0,1-.4-3.89l22.23-28.42c-.6-1.23-1.15-2.47-1.65-3.7a53,53,0,0,1-3.68-22.32C397.61,93.45,403.57,86.55,408.59,78.59Z"/><ellipse class="cls-2" cx="448.63" cy="105.26" rx="7.75" ry="5" transform="translate(145.11 451.99) rotate(-62.01)"/><path class="cls-1" d="M497.25,116.69l9.65,24.12a3.1,3.1,0,0,1-2.44,5.05l-24.52,2.07"/><path class="cls-2" d="M459.11,160.48s-7.55-10.22-27.81-21-34.31-12-34.31-12"/><path class="cls-2" d="M449.45,174c-2,3.68-9.91,3.28-17.77-.9C422.1,168,420,160.67,420,160.67s-7.7,2.14-16.8-2.7c-7.85-4.17-12.64-10.54-10.68-14.22"/><ellipse class="cls-3" cx="432.42" cy="163.46" rx="1.85" ry="5.37" transform="translate(85.12 468.56) rotate(-62.01)"/><ellipse class="cls-3" cx="410.85" cy="151.89" rx="1.85" ry="5.37" transform="translate(83.88 443.37) rotate(-62.01)"/><ellipse class="cls-3" cx="427.54" cy="146.57" rx="1.32" ry="3.83" transform="translate(97.44 455.29) rotate(-62.01)"/><ellipse class="cls-3" cx="410.85" cy="151.89" rx="1.32" ry="3.83" transform="translate(83.88 443.37) rotate(-62.01)"/><line class="cls-2" x1="420.04" y1="160.67" x2="424.37" y2="152.54"/><path class="cls-2" d="M405.53,129.8c6-11.27,21.34-14.83,34.28-8s18.58,21.6,12.59,32.87"/><path class="cls-2" d="M401.51,123.65c7.44-14,26.51-18.43,42.6-9.88s23.08,26.84,15.64,40.84"/><line class="cls-2" x1="439.81" y1="121.85" x2="444.05" y2="113.88"/><line class="cls-2" x1="447.92" y1="126.16" x2="455.33" y2="120.99"/><line class="cls-2" x1="451.65" y1="135.46" x2="460.26" y2="132.72"/><line class="cls-2" x1="454.28" y1="144.26" x2="463.26" y2="143.32"/><line class="cls-2" x1="432.37" y1="117.9" x2="432.52" y2="108.86"/><line class="cls-2" x1="422.58" y1="120" x2="420.03" y2="111.34"/><line class="cls-2" x1="413.81" y1="122.75" x2="409.56" y2="114.78"/><path class="cls-2" d="M457.63,165.84a7.47,7.47,0,0,1-3.86,14.44"/><path class="cls-2" d="M393.26,131.63a7.47,7.47,0,1,0-9.81,11.27"/><path class="cls-2" d="M485.63,127.16c-4.38-2.34-6-7.49-3.91-11.17s7-4.06,11.63-2.16c3.71,1.53,1.89,5.27-.24,9S491.23,130.14,485.63,127.16Z"/><path class="cls-2" d="M411.49,86.32c4.39,2.32,9.59.83,11.45-3s-.58-8.11-4.71-10.85c-3.35-2.22-5.44,1.38-7.3,5.2S405.89,83.35,411.49,86.32Z"/><path class="cls-1" d="M453.86,52.84a5,5,0,0,1-2.57-3.44L449,38.29a5,5,0,0,1,7.3-5.46l49.05,26.08a5,5,0,0,1-.44,9.11l-10.47,4.33a5,5,0,0,1-4.29-.2"/><path class="cls-1" d="M415.71,71l-31.36,8A3.1,3.1,0,0,0,381.66,84l15.42,22.28"/></g><g id="_Radial_Repeat_8" data-name="&lt;Radial Repeat&gt;"><path class="cls-1" d="M534.34,161.92c23.52-11,50.24-6.12,64.38,15.65,16.71,25.74,6.16,56.51-20.2,71.29-6.91,3.87-12.46,9.34-19.87,9.9a52.69,52.69,0,0,1-22.36-3.19,48.66,48.66,0,0,1-4.74-2L504.18,276a2.36,2.36,0,0,1-3.92-.3l-33.68-60.07a2.35,2.35,0,0,1,1.76-3.49l34.07-11.89c.16-1.36.37-2.7.61-4a52.76,52.76,0,0,1,9-20.76C517.07,168.49,525.82,165.91,534.34,161.92Z"/><ellipse class="cls-2" cx="553.61" cy="206.01" rx="7.75" ry="5" transform="translate(-30.03 297.06) rotate(-29.28)"/><path class="cls-1" d="M588.33,241.9l-4.93,25.52a3.1,3.1,0,0,1-4.78,2.93l-21.74-11.52"/><path class="cls-2" d="M532.57,258.13s-.83-12.68-12-32.69-22.36-28.67-22.36-28.67"/><path class="cls-2" d="M517.13,264.27c-3.63,2-10.1-2.6-14.45-10.36-5.31-9.46-3.08-16.74-3.08-16.74s-7.64-2.37-12.67-11.36c-4.35-7.75-4.94-15.7-1.3-17.73"/><ellipse class="cls-3" cx="508.51" cy="246.21" rx="1.85" ry="5.37" transform="translate(-55.45 280.14) rotate(-29.28)"/><ellipse class="cls-3" cx="496.61" cy="224.81" rx="1.85" ry="5.37" transform="translate(-46.51 271.59) rotate(-29.28)"/><ellipse class="cls-3" cx="513.54" cy="229.36" rx="1.32" ry="3.83" transform="matrix(0.87, -0.49, 0.49, 0.87, -46.57, 280.44)"/><ellipse class="cls-3" cx="496.61" cy="224.81" rx="1.32" ry="3.83" transform="translate(-46.51 271.59) rotate(-29.28)"/><line class="cls-2" x1="499.6" y1="237.17" x2="507.64" y2="232.67"/><path class="cls-2" d="M504.08,203.35c11.13-6.24,26-.94,33.14,11.85s3.95,28.21-7.18,34.45"/><path class="cls-2" d="M504,196c13.84-7.75,32.27-1.16,41.18,14.72s4.91,35.06-8.92,42.82"/><line class="cls-2" x1="537.22" y1="215.2" x2="545.1" y2="210.78"/><line class="cls-2" x1="541.71" y1="223.21" x2="550.74" y2="222.86"/><line class="cls-2" x1="539.82" y1="233.04" x2="548.55" y2="235.4"/><line class="cls-2" x1="537.28" y1="241.87" x2="545.34" y2="245.94"/><line class="cls-2" x1="533.1" y1="207.85" x2="538.1" y2="200.33"/><line class="cls-2" x1="523.72" y1="204.33" x2="526.26" y2="195.66"/><line class="cls-2" x1="514.86" y1="201.9" x2="515.6" y2="192.89"/><path class="cls-2" d="M528.42,261.84a7.47,7.47,0,0,1-11,10.05"/><path class="cls-2" d="M492.77,198.25a7.47,7.47,0,0,0-14.34,4.18"/><path class="cls-2" d="M572.9,244.43c-2.42-4.33-1-9.56,2.74-11.51s8.12.4,11,4.47c2.29,3.3-1.26,5.46-5,7.41S576,250,572.9,244.43Z"/><path class="cls-2" d="M532.61,170c2.43,4.32,7.62,5.88,11.25,3.66s3.9-7.13,1.9-11.68c-1.61-3.67-5.32-1.77-9,.44S529.5,164.47,532.61,170Z"/><path class="cls-1" d="M586.35,164.74a5,5,0,0,1-.3-4.29l4.1-10.57a5,5,0,0,1,9.09-.64l27.17,48.46a5,5,0,0,1-5.29,7.42l-11.16-2a5,5,0,0,1-3.5-2.5"/><path class="cls-1" d="M544.43,159.4l-30.72-10.21a3.1,3.1,0,0,0-4.92,2.68l.93,27.09"/></g><g id="_Radial_Repeat_9" data-name="&lt;Radial Repeat&gt;"><path class="cls-1" d="M595.08,300c25.73,3.46,45.58,22,45.7,48,.14,30.69-25.37,50.87-55.54,49.05-7.9-.48-15.53,1.12-22.06-2.42a52.65,52.65,0,0,1-17.09-14.77,50.93,50.93,0,0,1-2.89-4.28L508,379.7a2.36,2.36,0,0,1-3.14-2.37L509,308.59a2.36,2.36,0,0,1,3.37-2L547.48,315c.87-1.06,1.77-2.07,2.68-3a53.08,53.08,0,0,1,18.78-12.61C577,296.2,585.76,298.76,595.08,300Z"/><ellipse class="cls-2" cx="587.46" cy="347.52" rx="5" ry="7.75" transform="translate(205.22 913) rotate(-86.55)"/><path class="cls-1" d="M597.26,396.49l-17.94,18.8a3.11,3.11,0,0,1-5.61-.12l-12.06-21.45"/><path class="cls-2" d="M541.58,380s6.16-11.11,7.54-34-3.31-36.21-3.31-36.21"/><path class="cls-2" d="M525.27,376.81c-4.16-.25-7.09-7.65-6.56-16.53.65-10.83,6.46-15.74,6.46-15.74s-5.14-6.13-4.52-16.41c.53-8.88,4.34-15.88,8.5-15.62"/><ellipse class="cls-3" cx="527.78" cy="356.95" rx="5.37" ry="1.85" transform="translate(139.72 862.3) rotate(-86.55)"/><ellipse class="cls-3" cx="529.34" cy="332.52" rx="5.37" ry="1.85" transform="translate(165.57 840.9) rotate(-86.55)"/><ellipse class="cls-3" cx="541.12" cy="345.5" rx="3.83" ry="1.32" transform="translate(163.69 864.85) rotate(-86.55)"/><ellipse class="cls-3" cx="529.34" cy="332.52" rx="3.83" ry="1.32" transform="translate(165.57 840.9) rotate(-86.55)"/><line class="cls-2" x1="525.17" y1="344.54" x2="534.37" y2="345.09"/><path class="cls-2" d="M547.22,318.51c12.74.76,22.36,13.25,21.48,27.88s-11.93,25.87-24.67,25.1"/><path class="cls-2" d="M551.15,312.29c15.83,1,27.78,16.47,26.68,34.65S563,379.09,547.18,378.13"/><line class="cls-2" x1="568.7" y1="346.39" x2="577.71" y2="346.93"/><line class="cls-2" x1="568.14" y1="355.56" x2="575.93" y2="360.14"/><line class="cls-2" x1="561.24" y1="362.81" x2="567.3" y2="369.51"/><line class="cls-2" x1="554.33" y1="368.86" x2="558.91" y2="376.64"/><line class="cls-2" x1="569.2" y1="337.98" x2="577.48" y2="334.36"/><line class="cls-2" x1="563.22" y1="329.95" x2="570.04" y2="324.03"/><line class="cls-2" x1="557.08" y1="323.11" x2="562.57" y2="315.93"/><path class="cls-2" d="M536.08,380.87a7.47,7.47,0,1,1-14.73,2.48"/><path class="cls-2" d="M540.47,308.1a7.47,7.47,0,1,0-14.33-4.23"/><path class="cls-2" d="M582.91,390.27c.3-4.95,4.29-8.61,8.53-8.2s6.62,4.73,6.8,9.68c.15,4-4,3.92-8.25,3.51S582.52,396.61,582.91,390.27Z"/><path class="cls-2" d="M589.26,305.87c-.3,4.95,3.23,9.06,7.48,9.17s7.14-3.9,7.91-8.8c.63-4-3.51-4.37-7.76-4.47S589.63,299.54,589.26,305.87Z"/><path class="cls-1" d="M637.31,330.5a5.06,5.06,0,0,1,2.06-3.77l9.17-6.67a5,5,0,0,1,8,4.38l-3.34,55.45a5,5,0,0,1-8.46,3.38l-8.3-7.72a5.06,5.06,0,0,1-1.6-4"/><path class="cls-1" d="M604.94,303.34l-20.33-25.19a3.1,3.1,0,0,0-5.59-.4L565.15,301"/></g><g id="_Radial_Repeat_10" data-name="&lt;Radial Repeat&gt;"><path class="cls-1" d="M571.52,449c19.77,16.82,26.44,43.15,12.5,65.05-16.47,25.9-48.84,29.08-73.23,11.24-6.39-4.67-13.67-7.45-17.26-14a52.62,52.62,0,0,1-6.39-21.67,49.24,49.24,0,0,1-.11-5.15L455.19,469a2.36,2.36,0,0,1-1.36-3.69l40.65-55.58a2.36,2.36,0,0,1,3.92.15l25,26.05c1.3-.42,2.61-.79,3.9-1.11a52.91,52.91,0,0,1,22.62-.46C558.37,436,564.35,442.93,571.52,449Z"/><ellipse class="cls-2" cx="539.42" cy="484.86" rx="5" ry="7.75" transform="translate(-170.37 634.08) rotate(-53.82)"/><path class="cls-1" d="M521.19,531.36l-25.25,6.11a3.1,3.1,0,0,1-4.65-3.13l1.44-24.56"/><path class="cls-2" d="M483.27,487.38s11.19-6,24.73-24.54,16.79-32.25,16.79-32.25"/><path class="cls-2" d="M471.27,475.89c-3.36-2.46-1.83-10.28,3.42-17.46,6.4-8.75,13.95-9.75,13.95-9.75s-1-7.93,5.06-16.25c5.25-7.18,12.23-11,15.6-8.55"/><ellipse class="cls-3" cx="484.12" cy="460.54" rx="5.37" ry="1.85" transform="translate(-173.39 579.48) rotate(-53.82)"/><ellipse class="cls-3" cx="498.64" cy="440.83" rx="5.37" ry="1.85" transform="translate(-151.53 583.12) rotate(-53.82)"/><ellipse class="cls-3" cx="501.53" cy="458.11" rx="3.83" ry="1.32" transform="translate(-164.3 592.54) rotate(-53.82)"/><ellipse class="cls-3" cx="498.64" cy="440.83" rx="3.83" ry="1.32" transform="translate(-151.53 583.12) rotate(-53.82)"/><line class="cls-2" x1="488.64" y1="448.68" x2="496.07" y2="454.12"/><path class="cls-2" d="M521.26,438.71c10.3,7.53,11.64,23.23,3,35.06s-24,15.32-34.32,7.78"/><path class="cls-2" d="M527.92,435.6c12.8,9.36,14.47,28.87,3.72,43.57s-29.85,19-42.65,9.67"/><line class="cls-2" x1="524.25" y1="473.77" x2="531.54" y2="479.1"/><line class="cls-2" x1="518.83" y1="481.18" x2="522.9" y2="489.25"/><line class="cls-2" x1="509.1" y1="483.55" x2="510.58" y2="492.47"/><line class="cls-2" x1="500.01" y1="484.9" x2="499.66" y2="493.93"/><line class="cls-2" x1="529.22" y1="466.97" x2="538.14" y2="468.4"/><line class="cls-2" x1="528.53" y1="456.98" x2="537.47" y2="455.69"/><line class="cls-2" x1="527.07" y1="447.91" x2="535.56" y2="444.84"/><path class="cls-2" d="M478.17,485.14a7.47,7.47,0,1,1-13.73-5.87"/><path class="cls-2" d="M521.2,426.3A7.47,7.47,0,1,0,511.44,415"/><path class="cls-2" d="M512.48,518.37c2.93-4,8.27-4.92,11.61-2.29s3,7.56.49,11.83c-2.05,3.45-5.5,1.12-8.84-1.51S508.73,523.49,512.48,518.37Z"/><path class="cls-2" d="M563.45,450.8c-2.92,4-2.18,9.37,1.34,11.76s8.11.58,11.41-3.12c2.68-3-.59-5.58-4.11-8S567.19,445.67,563.45,450.8Z"/><path class="cls-1" d="M590.56,497.5a5.06,5.06,0,0,1,3.77-2.06l11.32-.66a5,5,0,0,1,4.36,8l-32.79,44.84a5,5,0,0,1-9-1.73l-2.8-11a5,5,0,0,1,.81-4.22"/><path class="cls-1" d="M578,457.15,574.53,425a3.09,3.09,0,0,0-4.48-3.36L545.79,433.7"/></g><g id="_Radial_Repeat_11" data-name="&lt;Radial Repeat&gt;"><path class="cls-1" d="M471.13,561.64c7.54,24.84-1.09,50.6-24.65,61.49C418.62,636,389.67,621.19,378.79,593c-2.85-7.38-7.47-13.66-7-21.07a52.35,52.35,0,0,1,6.34-21.68,50.08,50.08,0,0,1,2.68-4.4l-18.36-30.3a2.36,2.36,0,0,1,.85-3.84l64.25-24.79a2.35,2.35,0,0,1,3.2,2.25l6.93,35.41c1.31.35,2.61.75,3.88,1.18a52.87,52.87,0,0,1,19.27,11.84C467.09,543.61,468.4,552.63,471.13,561.64Z"/><ellipse class="cls-2" cx="424.75" cy="574.44" rx="5" ry="7.75" transform="matrix(0.93, -0.36, 0.36, 0.93, -178.29, 191.39)"/><path class="cls-1" d="M384.28,603.69l-24.55-8.5a3.1,3.1,0,0,1-2.22-5.15L372,570.15"/><path class="cls-2" d="M376.16,546.19s12.67,1,34.07-7.27,31.56-18,31.56-18"/><path class="cls-2" d="M372.28,530c-1.5-3.89,4-9.63,12.31-12.83,10.12-3.91,17-.67,17-.67s3.43-7.22,13-10.93c8.3-3.2,16.24-2.65,17.74,1.24"/><ellipse class="cls-3" cx="391.39" cy="524.07" rx="5.37" ry="1.85" transform="translate(-162.4 176) rotate(-21.1)"/><ellipse class="cls-3" cx="414.25" cy="515.34" rx="5.37" ry="1.85" transform="translate(-157.73 183.65) rotate(-21.1)"/><ellipse class="cls-3" cx="407.35" cy="531.45" rx="3.83" ry="1.32" transform="translate(-163.99 182.24) rotate(-21.1)"/><ellipse class="cls-3" cx="414.25" cy="515.34" rx="3.83" ry="1.32" transform="translate(-157.73 183.65) rotate(-21.1)"/><line class="cls-2" x1="401.6" y1="516.54" x2="404.91" y2="525.13"/><path class="cls-2" d="M434.43,525.79c4.6,11.91-2.76,25.84-16.44,31.11s-28.49-.1-33.08-12"/><path class="cls-2" d="M441.72,526.78c5.71,14.79-3.44,32.11-20.44,38.66s-35.39-.12-41.1-14.92"/><line class="cls-2" x1="417.99" y1="556.9" x2="421.24" y2="565.33"/><line class="cls-2" x1="409.42" y1="560.21" x2="408.48" y2="569.19"/><line class="cls-2" x1="399.96" y1="556.94" x2="396.38" y2="565.24"/><line class="cls-2" x1="391.58" y1="553.17" x2="386.41" y2="560.57"/><line class="cls-2" x1="425.85" y1="553.87" x2="432.58" y2="559.9"/><line class="cls-2" x1="430.67" y1="545.09" x2="438.89" y2="548.84"/><line class="cls-2" x1="434.34" y1="536.67" x2="443.15" y2="538.68"/><path class="cls-2" d="M373.08,541.56a7.47,7.47,0,1,1-8.38-12.37"/><path class="cls-2" d="M441.09,515.32a7.47,7.47,0,1,0-2.1-14.79"/><path class="cls-2" d="M384,588.06c4.63-1.78,9.61.33,11,4.35s-1.55,8-6,10.21c-3.59,1.8-5.23-2-6.62-6S378.05,590.34,384,588.06Z"/><path class="cls-2" d="M463.39,558.77c-4.63,1.79-6.9,6.71-5.23,10.62s6.51,4.87,11.29,3.54c3.87-1.07,2.51-5,.84-8.92S469.31,556.48,463.39,558.77Z"/><path class="cls-1" d="M460.94,612.71a5,5,0,0,1,4.29.32l9.88,5.56a5,5,0,0,1-.66,9.09l-51.83,20a5,5,0,0,1-6.6-6.3l3.59-10.75a5,5,0,0,1,3-3.11"/><path class="cls-1" d="M472.2,572l14.47-29a3.1,3.1,0,0,0-1.95-5.25l-26.94-2.94"/></g></svg>