<svg id="Capa_1" data-name="Capa 1" xmlns="http://www.w3.org/2000/svg" viewBox="0 0 131.52 64.92"><defs><style>.cls-1{fill:none;stroke:#e5651e;stroke-miterlimit:10;stroke-width:2px;}</style></defs><path class="cls-1" d="M59.05,39.19c-.72,9.68-7.19,17.51-16.88,18.14C30.71,58.07,22.61,49,22.61,37.7c0-3-.77-5.77.4-8.29a19.72,19.72,0,0,1,5.13-6.72c.5-.41,1-.81,1.53-1.17l-2.33-13a.89.89,0,0,1,.82-1.23H53.91a.88.88,0,0,1,.82,1.22L52.38,21.76c.41.29.81.61,1.19.93a19.72,19.72,0,0,1,5.13,6.72C60.07,32.35,59.31,35.68,59.05,39.19Z"/><ellipse class="cls-1" cx="41.14" cy="37.41" rx="1.87" ry="2.9"/><path class="cls-1" d="M23.08,42.17,15.66,35.9a1.16,1.16,0,0,1-.08-2.1l7.74-5"/><path class="cls-1" d="M28,21s4.29,2,12.87,2S54.3,21,54.3,21"/><path class="cls-1" d="M28.81,14.85c0-1.55,2.7-2.82,6-2.82a8.57,8.57,0,0,1,6,2.06,9.17,9.17,0,0,1,6-2.06c3.33,0,6,1.27,6,2.82"/><ellipse class="cls-1" cx="36.28" cy="15.34" rx="2.01" ry="0.69"/><ellipse class="cls-1" cx="45.43" cy="15.38" rx="2.01" ry="0.69"/><ellipse class="cls-1" cx="40.86" cy="20.07" rx="1.43" ry="0.49"/><ellipse class="cls-1" cx="45.43" cy="15.38" rx="1.43" ry="0.49"/><line class="cls-1" x1="40.86" y1="14.09" x2="40.86" y2="17.54"/><path class="cls-1" d="M51.07,21.74c0,4.77-4.45,8.64-9.93,8.64s-9.92-3.87-9.92-8.64"/><path class="cls-1" d="M53.48,23.06C53.48,29,48,33.8,41.14,33.8S28.81,29,28.81,23.06"/><line class="cls-1" x1="41.14" y1="30.38" x2="41.14" y2="33.76"/><line class="cls-1" x1="37.71" y1="30.38" x2="36.17" y2="33.39"/><line class="cls-1" x1="34.85" y1="27.97" x2="32.48" y2="30.38"/><line class="cls-1" x1="32.43" y1="25.52" x2="29.63" y2="27.41"/><line class="cls-1" x1="44.29" y1="30.38" x2="45.83" y2="33.39"/><line class="cls-1" x1="47.16" y1="27.97" x2="49.52" y2="30.38"/><line class="cls-1" x1="49.57" y1="25.52" x2="52.37" y2="27.41"/><path class="cls-1" d="M27.54,19a2.79,2.79,0,0,1-1.26-5.44"/><path class="cls-1" d="M54.8,19a2.79,2.79,0,0,0,1.26-5.44"/><path class="cls-1" d="M25.08,36.67a3.1,3.1,0,0,1,3.25,3c0,1.59-1.61,2.58-3.46,2.76-1.49.15-1.55-1.41-1.49-3S22.71,36.67,25.08,36.67Z"/><path class="cls-1" d="M56.73,37.14a3.11,3.11,0,0,0-3.25,3c.06,1.59,1.61,2.58,3.46,2.76,1.49.15,1.55-1.41,1.49-3S59.11,37.14,56.73,37.14Z"/><path class="cls-1" d="M48.62,55.64a1.89,1.89,0,0,1,1.45.68l2.7,3.27a1.89,1.89,0,0,1-1.45,3.09H30.54a1.89,1.89,0,0,1-1.46-3.09l2.7-3.27a1.9,1.9,0,0,1,1.46-.68"/><path class="cls-1" d="M58,42.94l9-8.15a1.16,1.16,0,0,0,0-2.1L58,28"/><path class="cls-1" d="M114.07,39.19c-.72,9.68-7.2,17.51-16.88,18.14C85.73,58.07,77.62,49,77.62,37.7c0-3-.76-5.77.41-8.29a19.72,19.72,0,0,1,5.13-6.72c.49-.41,1-.81,1.53-1.17l-2.33-13a.89.89,0,0,1,.81-1.23h25.76a.89.89,0,0,1,.82,1.22L107.4,21.76c.41.29.81.61,1.19.93a19.72,19.72,0,0,1,5.13,6.72C115.08,32.35,114.32,35.68,114.07,39.19Z"/><ellipse class="cls-1" cx="96.16" cy="37.41" rx="1.87" ry="2.9"/><path class="cls-1" d="M78.1,42.17,70.68,35.9a1.16,1.16,0,0,1-.08-2.1l7.73-5"/><path class="cls-1" d="M83,21s4.29,2,12.87,2,13.45-2,13.45-2"/><path class="cls-1" d="M83.83,14.85c0-1.55,2.69-2.82,6-2.82a8.53,8.53,0,0,1,6,2.06,9.18,9.18,0,0,1,6-2.06c3.32,0,6,1.27,6,2.82"/><ellipse class="cls-1" cx="91.3" cy="15.34" rx="2.01" ry="0.69"/><ellipse class="cls-1" cx="100.45" cy="15.38" rx="2.01" ry="0.69"/><ellipse class="cls-1" cx="95.87" cy="20.07" rx="1.43" ry="0.49"/><ellipse class="cls-1" cx="100.45" cy="15.38" rx="1.43" ry="0.49"/><line class="cls-1" x1="95.87" y1="14.09" x2="95.87" y2="17.54"/><path class="cls-1" d="M106.09,21.74c0,4.77-4.45,8.64-9.93,8.64s-9.93-3.87-9.93-8.64"/><path class="cls-1" d="M108.49,23.06C108.49,29,103,33.8,96.16,33.8S83.83,29,83.83,23.06"/><line class="cls-1" x1="96.16" y1="30.38" x2="96.16" y2="33.76"/><line class="cls-1" x1="92.73" y1="30.38" x2="91.19" y2="33.39"/><line class="cls-1" x1="89.86" y1="27.97" x2="87.5" y2="30.38"/><line class="cls-1" x1="87.45" y1="25.52" x2="84.65" y2="27.41"/><line class="cls-1" x1="99.31" y1="30.38" x2="100.85" y2="33.39"/><line class="cls-1" x1="102.18" y1="27.97" x2="104.54" y2="30.38"/><line class="cls-1" x1="104.59" y1="25.52" x2="107.39" y2="27.41"/><path class="cls-1" d="M82.55,19a2.79,2.79,0,1,1-1.25-5.44"/><path class="cls-1" d="M109.82,19a2.79,2.79,0,0,0,1.26-5.44"/><path class="cls-1" d="M80.1,36.67a3.11,3.11,0,0,1,3.25,3c-.06,1.59-1.61,2.58-3.46,2.76-1.5.15-1.55-1.41-1.5-3S77.72,36.67,80.1,36.67Z"/><path class="cls-1" d="M111.75,37.14a3.1,3.1,0,0,0-3.25,3c0,1.59,1.61,2.58,3.46,2.76,1.49.15,1.55-1.41,1.49-3S114.12,37.14,111.75,37.14Z"/><path class="cls-1" d="M103.63,55.64a1.9,1.9,0,0,1,1.46.68l2.7,3.27a1.89,1.89,0,0,1-1.46,3.09H85.56a1.89,1.89,0,0,1-1.46-3.09l2.7-3.27a1.89,1.89,0,0,1,1.45-.68"/><path class="cls-1" d="M113.05,42.94,122,34.79a1.16,1.16,0,0,0,0-2.1L113,28"/></svg>