<svg id="Capa_1" data-name="Capa 1" xmlns="http://www.w3.org/2000/svg" viewBox="0 0 653.41 668.67"><defs><style>.cls-1{fill:none;stroke:#e5641f;stroke-miterlimit:10;stroke-width:4.72px;}</style></defs><g id="_Radial_Repeat_" data-name="&lt;Radial Repeat&gt;"><rect class="cls-1" x="74.95" y="512.43" width="26.48" height="26.48" transform="translate(45.84 1057) rotate(-165.92)"/><rect class="cls-1" x="55.77" y="480.4" width="26.48" height="26.48" transform="translate(15.84 989.24) rotate(-165.92)"/><rect class="cls-1" x="36.59" y="448.38" width="26.48" height="26.48" transform="translate(-14.15 921.48) rotate(-165.92)"/></g><g id="_Radial_Repeat_2" data-name="&lt;Radial Repeat&gt;"><rect class="cls-1" x="23.59" y="413.29" width="26.48" height="26.48" transform="translate(-179.32 796.08) rotate(-144.74)"/><rect class="cls-1" x="17.27" y="376.5" width="26.48" height="26.48" transform="translate(-169.55 725.59) rotate(-144.74)"/><rect class="cls-1" x="10.96" y="339.7" width="26.48" height="26.48" transform="translate(-159.79 655.1) rotate(-144.74)"/></g><g id="_Radial_Repeat_3" data-name="&lt;Radial Repeat&gt;"><rect class="cls-1" x="11.51" y="302.29" width="26.48" height="26.48" transform="translate(-224.49 510.6) rotate(-123.57)"/><rect class="cls-1" x="18.91" y="265.7" width="26.48" height="26.48" transform="translate(-182.5 459.95) rotate(-123.57)"/><rect class="cls-1" x="26.31" y="229.11" width="26.48" height="26.48" transform="translate(-140.52 409.29) rotate(-123.57)"/></g><g id="_Radial_Repeat_4" data-name="&lt;Radial Repeat&gt;"><rect class="cls-1" x="40.34" y="194.42" width="26.48" height="26.48" transform="translate(-137.75 304.54) rotate(-102.39)"/><rect class="cls-1" x="60.46" y="162.97" width="26.48" height="26.48" transform="translate(-82.6 286) rotate(-102.39)"/><rect class="cls-1" x="80.58" y="131.53" width="26.48" height="26.48" transform="translate(-27.44 267.46) rotate(-102.39)"/></g><g id="_Radial_Repeat_5" data-name="&lt;Radial Repeat&gt;"><rect class="cls-1" x="106.2" y="104.25" width="26.48" height="26.48" transform="translate(-14.92 217.57) rotate(-81.21)"/><rect class="cls-1" x="136.32" y="82.2" width="26.48" height="26.48" transform="translate(32.39 228.65) rotate(-81.21)"/><rect class="cls-1" x="166.44" y="60.14" width="26.48" height="26.48" transform="matrix(0.15, -0.99, 0.99, 0.15, 79.71, 239.74)"/></g><g id="_Radial_Repeat_6" data-name="&lt;Radial Repeat&gt;"><rect class="cls-1" x="200.17" y="43.96" width="26.48" height="26.48" transform="translate(57.27 213.52) rotate(-60.04)"/><rect class="cls-1" x="236.23" y="34.27" width="26.48" height="26.48" transform="translate(83.71 239.9) rotate(-60.04)"/><rect class="cls-1" x="272.28" y="24.59" width="26.48" height="26.48" transform="translate(110.14 266.29) rotate(-60.04)"/></g><g id="_Radial_Repeat_7" data-name="&lt;Radial Repeat&gt;"><rect class="cls-1" x="309.59" y="21.69" width="26.48" height="26.48" transform="translate(49.53 210.27) rotate(-38.86)"/><rect class="cls-1" x="346.71" y="25.68" width="26.48" height="26.48" transform="translate(55.24 234.45) rotate(-38.86)"/><rect class="cls-1" x="383.82" y="29.67" width="26.48" height="26.48" transform="translate(60.95 258.62) rotate(-38.86)"/></g><g id="_Radial_Repeat_8" data-name="&lt;Radial Repeat&gt;"><rect class="cls-1" x="419.66" y="40.44" width="26.48" height="26.48" transform="translate(4.15 134.03) rotate(-17.68)"/><rect class="cls-1" x="452.83" y="57.58" width="26.48" height="26.48" transform="translate(0.51 144.91) rotate(-17.68)"/><rect class="cls-1" x="486" y="74.71" width="26.48" height="26.48" transform="translate(-3.13 155.8) rotate(-17.68)"/></g><g id="_Radial_Repeat_9" data-name="&lt;Radial Repeat&gt;"><rect class="cls-1" x="515.52" y="97.7" width="26.48" height="26.48" transform="translate(7.74 -32.01) rotate(3.49)"/><rect class="cls-1" x="540.26" y="125.65" width="26.48" height="26.48" transform="translate(9.49 -33.47) rotate(3.49)"/><rect class="cls-1" x="565" y="153.61" width="26.48" height="26.48" transform="translate(11.24 -34.93) rotate(3.49)"/></g><g id="_Radial_Repeat_10" data-name="&lt;Radial Repeat&gt;"><rect class="cls-1" x="584.22" y="185.71" width="26.48" height="26.48" transform="translate(137.57 -231.22) rotate(24.67)"/><rect class="cls-1" x="597.19" y="220.72" width="26.48" height="26.48" transform="translate(153.37 -233.44) rotate(24.67)"/><rect class="cls-1" x="610.17" y="255.73" width="26.48" height="26.48" transform="translate(169.16 -235.65) rotate(24.67)"/></g><g id="_Radial_Repeat_11" data-name="&lt;Radial Repeat&gt;"><rect class="cls-1" x="616.5" y="292.6" width="26.48" height="26.48" transform="translate(410.51 -359.02) rotate(45.85)"/><rect class="cls-1" x="615.95" y="329.93" width="26.48" height="26.48" transform="translate(437.12 -347.3) rotate(45.85)"/><rect class="cls-1" x="615.39" y="367.26" width="26.48" height="26.48" transform="translate(463.74 -335.58) rotate(45.85)"/></g><g id="_Radial_Repeat_12" data-name="&lt;Radial Repeat&gt;"><rect class="cls-1" x="607.98" y="403.93" width="26.48" height="26.48" transform="translate(762.79 -317.61) rotate(67.02)"/><rect class="cls-1" x="593.98" y="438.54" width="26.48" height="26.48" transform="translate(786.12 -283.62) rotate(67.02)"/><rect class="cls-1" x="579.98" y="473.15" width="26.48" height="26.48" transform="translate(809.45 -249.63) rotate(67.02)"/></g><g id="_Radial_Repeat_13" data-name="&lt;Radial Repeat&gt;"><rect class="cls-1" x="559.81" y="504.67" width="26.48" height="26.48" transform="translate(1072.69 -71.13) rotate(88.2)"/><rect class="cls-1" x="534.26" y="531.88" width="26.48" height="26.48" transform="translate(1075.14 -19.23) rotate(88.2)"/><rect class="cls-1" x="508.7" y="559.1" width="26.48" height="26.48" transform="translate(1077.59 32.67) rotate(88.2)"/></g><g id="_Radial_Repeat_14" data-name="&lt;Radial Repeat&gt;"><rect class="cls-1" x="478.51" y="581.2" width="26.48" height="26.48" transform="translate(1215.67 327.75) rotate(109.38)"/><rect class="cls-1" x="444.85" y="597.35" width="26.48" height="26.48" transform="translate(1186.07 381.01) rotate(109.38)"/><rect class="cls-1" x="411.19" y="613.49" width="26.48" height="26.48" transform="translate(1156.47 434.27) rotate(109.38)"/></g><g id="_Radial_Repeat_15" data-name="&lt;Radial Repeat&gt;"><rect class="cls-1" x="375.06" y="623.2" width="26.48" height="26.48" transform="translate(1124.31 755.18) rotate(130.55)"/><rect class="cls-1" x="337.83" y="626.09" width="26.48" height="26.48" transform="translate(1065.09 788.24) rotate(130.55)"/><rect class="cls-1" x="300.61" y="628.99" width="26.48" height="26.48" transform="translate(1005.87 821.3) rotate(130.55)"/></g><g id="_Radial_Repeat_16" data-name="&lt;Radial Repeat&gt;"><rect class="cls-1" x="263.41" y="624.99" width="26.48" height="26.48" transform="translate(822.59 1069.28) rotate(151.73)"/><rect class="cls-1" x="227.66" y="614.24" width="26.48" height="26.48" transform="translate(750.26 1066.01) rotate(151.73)"/><rect class="cls-1" x="191.91" y="603.49" width="26.48" height="26.48" transform="translate(677.93 1062.73) rotate(151.73)"/></g><g id="_Radial_Repeat_17" data-name="&lt;Radial Repeat&gt;"><rect class="cls-1" x="158.66" y="586.32" width="26.48" height="26.48" transform="translate(416.54 1173.3) rotate(172.91)"/><rect class="cls-1" x="129.21" y="563.39" width="26.48" height="26.48" transform="translate(355.02 1131.24) rotate(172.91)"/><rect class="cls-1" x="99.75" y="540.45" width="26.48" height="26.48" transform="translate(293.5 1089.18) rotate(172.91)"/></g></svg>