<svg id="Capa_1" data-name="Capa 1" xmlns="http://www.w3.org/2000/svg" viewBox="0 0 627.36 622.03"><defs><style>.cls-1{fill:none;stroke:#e5651e;stroke-miterlimit:10;stroke-width:5.64px;}.cls-2{fill:#e5651e;}</style></defs><g id="_Repetición_radial_" data-name="&lt;Repetición radial&gt;"><polyline class="cls-1" points="91.8 456.07 99.08 514.97 157.97 507.7 165.32 566.65 224.22 559.38"/><circle class="cls-2" cx="186.41" cy="540.11" r="4.39"/><circle class="cls-2" cx="197.97" cy="585.88" r="4.39"/><circle class="cls-2" cx="135.23" cy="536.93" r="4.39"/><circle class="cls-2" cx="119.68" cy="488.05" r="4.39"/></g><g id="_Repetición_radial_2" data-name="&lt;Repetición radial&gt;"><polyline class="cls-1" points="47.02 297.31 18.29 349.23 70.21 377.97 41.5 429.98 93.42 458.72"/><circle class="cls-2" cx="74.17" cy="420.91" r="4.39"/><circle class="cls-2" cx="56.62" cy="464.73" r="4.39"/><circle class="cls-2" cx="34.63" cy="388.25" r="4.39"/><circle class="cls-2" cx="50.78" cy="339.56" r="4.39"/></g><g id="_Repetición_radial_3" data-name="&lt;Repetición radial&gt;"><polyline class="cls-1" points="104.11 142.55 50.35 167.66 75.46 221.43 21.66 246.64 46.78 300.4"/><circle class="cls-2" cx="53.42" cy="258.5" r="4.39"/><circle class="cls-2" cx="13.47" cy="283.64" r="4.39"/><circle class="cls-2" cx="40.64" cy="208.83" r="4.39"/><circle class="cls-2" cx="82.32" cy="178.94" r="4.39"/></g><g id="_Repetición_radial_4" data-name="&lt;Repetición radial&gt;"><polyline class="cls-1" points="241.27 50.9 183.01 39.62 171.72 97.88 113.38 86.65 102.1 144.91"/><circle class="cls-2" cx="132.1" cy="114.91" r="4.39"/><circle class="cls-2" cx="85" cy="111.76" r="4.39"/><circle class="cls-2" cx="150.95" cy="67.21" r="4.39"/><circle class="cls-2" cx="202.24" cy="67.53" r="4.39"/></g><g id="_Repetición_radial_5" data-name="&lt;Repetición radial&gt;"><polyline class="cls-1" points="406.1 57.37 365.6 14 322.22 54.5 281.62 11.12 238.25 51.62"/><circle class="cls-2" cx="280.16" cy="44.99" r="4.39"/><circle class="cls-2" cx="243.9" cy="14.76" r="4.39"/><circle class="cls-2" cx="323.44" cy="17.48" r="4.39"/><circle class="cls-2" cx="364.75" cy="47.89" r="4.39"/></g><g id="_Repetición_radial_6" data-name="&lt;Repetición radial&gt;"><polyline class="cls-1" points="535.64 159.49 528.37 100.6 469.48 107.87 462.13 48.91 403.23 56.18"/><circle class="cls-2" cx="441.03" cy="75.45" r="4.39"/><circle class="cls-2" cx="429.47" cy="29.68" r="4.39"/><circle class="cls-2" cx="492.22" cy="78.64" r="4.39"/><circle class="cls-2" cx="507.77" cy="127.52" r="4.39"/></g><g id="_Repetición_radial_7" data-name="&lt;Repetición radial&gt;"><polyline class="cls-1" points="580.42 318.25 609.16 266.33 557.24 237.6 585.94 185.58 534.02 156.85"/><circle class="cls-2" cx="553.28" cy="194.65" r="4.39"/><circle class="cls-2" cx="570.83" cy="150.83" r="4.39"/><circle class="cls-2" cx="592.81" cy="227.32" r="4.39"/><circle class="cls-2" cx="576.67" cy="276" r="4.39"/></g><g id="_Repetición_radial_8" data-name="&lt;Repetición radial&gt;"><polyline class="cls-1" points="523.33 473.01 577.1 447.9 551.98 394.13 605.78 368.93 580.67 315.16"/><circle class="cls-2" cx="574.02" cy="357.07" r="4.39"/><circle class="cls-2" cx="613.98" cy="331.93" r="4.39"/><circle class="cls-2" cx="586.81" cy="406.73" r="4.39"/><circle class="cls-2" cx="545.13" cy="436.62" r="4.39"/></g><g id="_Repetición_radial_9" data-name="&lt;Repetición radial&gt;"><polyline class="cls-1" points="386.18 564.66 444.44 575.95 455.72 517.69 514.06 528.92 525.35 470.66"/><circle class="cls-2" cx="495.34" cy="500.66" r="4.39"/><circle class="cls-2" cx="542.44" cy="503.8" r="4.39"/><circle class="cls-2" cx="476.49" cy="548.35" r="4.39"/><circle class="cls-2" cx="425.2" cy="548.03" r="4.39"/></g><g id="_Repetición_radial_10" data-name="&lt;Repetición radial&gt;"><polyline class="cls-1" points="221.35 558.19 261.85 601.56 305.22 561.06 345.82 604.44 389.19 563.94"/><circle class="cls-2" cx="347.29" cy="570.57" r="4.39"/><circle class="cls-2" cx="383.54" cy="600.8" r="4.39"/><circle class="cls-2" cx="304" cy="598.08" r="4.39"/><circle class="cls-2" cx="262.69" cy="567.68" r="4.39"/></g></svg>