<svg id="Capa_1" data-name="Capa 1" xmlns="http://www.w3.org/2000/svg" viewBox="0 0 232.3 64.92"><defs><style>.cls-1{fill:none;stroke:#e5651e;stroke-miterlimit:10;stroke-width:2px;}</style></defs><path class="cls-1" d="M54.09,38.47C53.38,48.15,46.9,56,37.21,56.6,25.76,57.35,17.65,48.28,17.65,37c0-3-.77-5.78.4-8.3A19.68,19.68,0,0,1,23.19,22a17.2,17.2,0,0,1,1.53-1.17l-2.33-13a.88.88,0,0,1,.81-1.22H49a.88.88,0,0,1,.82,1.22L47.42,21c.41.3.81.62,1.2.94a19.85,19.85,0,0,1,5.13,6.72C55.11,31.63,54.35,35,54.09,38.47Z"/><ellipse class="cls-1" cx="36.18" cy="36.69" rx="1.87" ry="2.9"/><path class="cls-1" d="M18.12,41.45,10.7,35.17a1.16,1.16,0,0,1-.08-2.09l7.74-5"/><path class="cls-1" d="M23,20.29s4.29,2.05,12.87,2.05,13.44-2.05,13.44-2.05"/><path class="cls-1" d="M23.85,14.13c0-1.56,2.7-2.82,6-2.82a8.57,8.57,0,0,1,6,2.06,9.17,9.17,0,0,1,6-2.06c3.33,0,6,1.26,6,2.82"/><ellipse class="cls-1" cx="31.32" cy="14.62" rx="2.01" ry="0.69"/><ellipse class="cls-1" cx="40.48" cy="14.65" rx="2.01" ry="0.69"/><ellipse class="cls-1" cx="35.9" cy="19.34" rx="1.43" ry="0.49"/><ellipse class="cls-1" cx="40.48" cy="14.65" rx="1.43" ry="0.49"/><line class="cls-1" x1="35.9" y1="13.37" x2="35.9" y2="16.81"/><path class="cls-1" d="M46.11,21c0,4.77-4.44,8.64-9.93,8.64S26.26,25.79,26.26,21"/><path class="cls-1" d="M48.52,22.34c0,5.93-5.52,10.74-12.34,10.74S23.85,28.27,23.85,22.34"/><line class="cls-1" x1="36.18" y1="29.66" x2="36.18" y2="33.04"/><line class="cls-1" x1="32.75" y1="29.66" x2="31.21" y2="32.67"/><line class="cls-1" x1="29.89" y1="27.25" x2="27.52" y2="29.66"/><line class="cls-1" x1="27.47" y1="24.8" x2="24.67" y2="26.69"/><line class="cls-1" x1="39.34" y1="29.66" x2="40.87" y2="32.67"/><line class="cls-1" x1="42.2" y1="27.25" x2="44.56" y2="29.66"/><line class="cls-1" x1="44.61" y1="24.8" x2="47.42" y2="26.69"/><path class="cls-1" d="M22.58,18.26a2.79,2.79,0,0,1-1.26-5.44"/><path class="cls-1" d="M49.84,18.26a2.79,2.79,0,1,0,1.26-5.44"/><path class="cls-1" d="M20.12,36a3.11,3.11,0,0,1,3.26,3c-.06,1.59-1.62,2.58-3.47,2.76-1.49.14-1.55-1.41-1.49-3S17.75,36,20.12,36Z"/><path class="cls-1" d="M51.77,36.42a3.1,3.1,0,0,0-3.25,3C48.58,41,50.14,42,52,42.18c1.5.15,1.55-1.41,1.5-3S54.15,36.42,51.77,36.42Z"/><path class="cls-1" d="M43.66,54.92a1.88,1.88,0,0,1,1.45.68l2.7,3.27A1.89,1.89,0,0,1,46.36,62H25.58a1.89,1.89,0,0,1-1.45-3.09l2.69-3.27a1.91,1.91,0,0,1,1.46-.68"/><path class="cls-1" d="M53.07,42.22l9-8.16A1.15,1.15,0,0,0,62,32l-9-4.65"/><path class="cls-1" d="M109.11,38.47c-.72,9.68-7.19,17.5-16.88,18.13C80.77,57.35,72.67,48.28,72.67,37c0-3-.77-5.78.4-8.3A19.78,19.78,0,0,1,78.2,22a18.78,18.78,0,0,1,1.53-1.17l-2.33-13a.88.88,0,0,1,.82-1.22H104a.88.88,0,0,1,.82,1.22L102.44,21c.41.3.81.62,1.19.94a19.72,19.72,0,0,1,5.13,6.72C110.13,31.63,109.37,35,109.11,38.47Z"/><ellipse class="cls-1" cx="91.2" cy="36.69" rx="1.87" ry="2.9"/><path class="cls-1" d="M73.14,41.45l-7.42-6.28a1.16,1.16,0,0,1-.08-2.09l7.73-5"/><path class="cls-1" d="M78.05,20.29s4.29,2.05,12.86,2.05,13.45-2.05,13.45-2.05"/><path class="cls-1" d="M78.87,14.13c0-1.56,2.69-2.82,6-2.82a8.53,8.53,0,0,1,6,2.06,9.21,9.21,0,0,1,6-2.06c3.33,0,6,1.26,6,2.82"/><ellipse class="cls-1" cx="86.34" cy="14.62" rx="2.01" ry="0.69"/><ellipse class="cls-1" cx="95.49" cy="14.65" rx="2.01" ry="0.69"/><ellipse class="cls-1" cx="90.91" cy="19.34" rx="1.43" ry="0.49"/><ellipse class="cls-1" cx="95.49" cy="14.65" rx="1.43" ry="0.49"/><line class="cls-1" x1="90.91" y1="13.37" x2="90.91" y2="16.81"/><path class="cls-1" d="M101.13,21c0,4.77-4.45,8.64-9.93,8.64S81.28,25.79,81.28,21"/><path class="cls-1" d="M103.54,22.34c0,5.93-5.53,10.74-12.34,10.74S78.87,28.27,78.87,22.34"/><line class="cls-1" x1="91.2" y1="29.66" x2="91.2" y2="33.04"/><line class="cls-1" x1="87.77" y1="29.66" x2="86.23" y2="32.67"/><line class="cls-1" x1="84.9" y1="27.25" x2="82.54" y2="29.66"/><line class="cls-1" x1="82.49" y1="24.8" x2="79.69" y2="26.69"/><line class="cls-1" x1="94.35" y1="29.66" x2="95.89" y2="32.67"/><line class="cls-1" x1="97.22" y1="27.25" x2="99.58" y2="29.66"/><line class="cls-1" x1="99.63" y1="24.8" x2="102.43" y2="26.69"/><path class="cls-1" d="M77.6,18.26a2.79,2.79,0,0,1-1.26-5.44"/><path class="cls-1" d="M104.86,18.26a2.79,2.79,0,1,0,1.26-5.44"/><path class="cls-1" d="M75.14,36a3.1,3.1,0,0,1,3.25,3c0,1.59-1.61,2.58-3.46,2.76-1.49.14-1.55-1.41-1.49-3S72.77,36,75.14,36Z"/><path class="cls-1" d="M106.79,36.42a3.1,3.1,0,0,0-3.25,3C103.6,41,105.15,42,107,42.18c1.49.15,1.55-1.41,1.49-3S109.16,36.42,106.79,36.42Z"/><path class="cls-1" d="M98.68,54.92a1.89,1.89,0,0,1,1.45.68l2.7,3.27A1.89,1.89,0,0,1,101.37,62H80.6a1.89,1.89,0,0,1-1.46-3.09l2.7-3.27a1.9,1.9,0,0,1,1.46-.68"/><path class="cls-1" d="M108.09,42.22,117,34.06a1.15,1.15,0,0,0,0-2.09l-9-4.65"/><path class="cls-1" d="M164.34,37.3c-.72,9.69-7.2,17.51-16.88,18.14-11.46.75-19.56-8.32-19.56-19.63,0-3-.77-5.77.4-8.29a19.78,19.78,0,0,1,5.13-6.71A18.78,18.78,0,0,1,135,19.64l-2.33-13a.88.88,0,0,1,.81-1.22H159.2A.88.88,0,0,1,160,6.58l-2.35,13.29c.41.3.81.61,1.19.93A19.85,19.85,0,0,1,164,27.53C165.35,30.47,164.59,33.79,164.34,37.3Z"/><ellipse class="cls-1" cx="146.43" cy="35.53" rx="1.87" ry="2.9"/><path class="cls-1" d="M128.37,40.29,121,34a1.16,1.16,0,0,1-.08-2.09l7.73-5"/><path class="cls-1" d="M133.28,19.13s4.28,2.05,12.86,2.05,13.45-2.05,13.45-2.05"/><path class="cls-1" d="M134.1,13c0-1.56,2.69-2.82,6-2.82a8.53,8.53,0,0,1,6,2.06,9.18,9.18,0,0,1,6-2.06c3.32,0,6,1.26,6,2.82"/><ellipse class="cls-1" cx="141.57" cy="13.46" rx="2.01" ry="0.69"/><ellipse class="cls-1" cx="150.72" cy="13.49" rx="2.01" ry="0.69"/><ellipse class="cls-1" cx="146.14" cy="18.18" rx="1.43" ry="0.49"/><ellipse class="cls-1" cx="150.72" cy="13.49" rx="1.43" ry="0.49"/><line class="cls-1" x1="146.14" y1="12.21" x2="146.14" y2="15.65"/><path class="cls-1" d="M156.36,19.85c0,4.78-4.45,8.65-9.93,8.65s-9.93-3.87-9.93-8.65"/><path class="cls-1" d="M158.76,21.18c0,5.93-5.52,10.74-12.33,10.74S134.1,27.11,134.1,21.18"/><line class="cls-1" x1="146.43" y1="28.5" x2="146.43" y2="31.88"/><line class="cls-1" x1="143" y1="28.5" x2="141.46" y2="31.51"/><line class="cls-1" x1="140.13" y1="26.08" x2="137.77" y2="28.5"/><line class="cls-1" x1="137.72" y1="23.64" x2="134.92" y2="25.52"/><line class="cls-1" x1="149.58" y1="28.5" x2="151.12" y2="31.51"/><line class="cls-1" x1="152.45" y1="26.08" x2="154.81" y2="28.5"/><line class="cls-1" x1="154.86" y1="23.64" x2="157.66" y2="25.52"/><path class="cls-1" d="M132.82,17.1a2.8,2.8,0,1,1-1.25-5.45"/><path class="cls-1" d="M160.09,17.1a2.8,2.8,0,0,0,1.26-5.45"/><path class="cls-1" d="M130.37,34.79a3.1,3.1,0,0,1,3.25,3c-.06,1.59-1.61,2.58-3.46,2.76-1.5.14-1.55-1.41-1.5-3S128,34.79,130.37,34.79Z"/><path class="cls-1" d="M162,35.26a3.1,3.1,0,0,0-3.25,3c0,1.59,1.61,2.58,3.46,2.76,1.49.14,1.55-1.41,1.49-3S164.39,35.26,162,35.26Z"/><path class="cls-1" d="M153.91,53.75a1.9,1.9,0,0,1,1.45.69l2.7,3.27a1.89,1.89,0,0,1-1.46,3.09H135.83a1.89,1.89,0,0,1-1.46-3.09l2.7-3.27a1.9,1.9,0,0,1,1.45-.69"/><path class="cls-1" d="M163.32,41.06l8.94-8.16a1.15,1.15,0,0,0,0-2.09l-9-4.66"/><path class="cls-1" d="M219.35,37.3c-.71,9.69-7.19,17.51-16.88,18.14-11.45.75-19.56-8.32-19.56-19.63,0-3-.77-5.77.41-8.29a19.78,19.78,0,0,1,5.13-6.71A17.2,17.2,0,0,1,190,19.64l-2.33-13a.88.88,0,0,1,.81-1.22h25.76A.89.89,0,0,1,215,6.58l-2.36,13.29c.42.3.81.61,1.2.93A20,20,0,0,1,219,27.53C220.37,30.47,219.61,33.79,219.35,37.3Z"/><ellipse class="cls-1" cx="201.45" cy="35.53" rx="1.87" ry="2.9"/><path class="cls-1" d="M183.39,40.29,176,34a1.16,1.16,0,0,1-.09-2.09l7.74-5"/><path class="cls-1" d="M188.29,19.13s4.29,2.05,12.87,2.05,13.44-2.05,13.44-2.05"/><path class="cls-1" d="M189.11,13c0-1.56,2.7-2.82,6-2.82a8.53,8.53,0,0,1,6,2.06,9.17,9.17,0,0,1,6-2.06c3.33,0,6,1.26,6,2.82"/><ellipse class="cls-1" cx="196.58" cy="13.46" rx="2.01" ry="0.69"/><ellipse class="cls-1" cx="205.74" cy="13.49" rx="2.01" ry="0.69"/><ellipse class="cls-1" cx="201.16" cy="18.18" rx="1.43" ry="0.49"/><ellipse class="cls-1" cx="205.74" cy="13.49" rx="1.43" ry="0.49"/><line class="cls-1" x1="201.16" y1="12.21" x2="201.16" y2="15.65"/><path class="cls-1" d="M211.37,19.85c0,4.78-4.44,8.65-9.92,8.65s-9.93-3.87-9.93-8.65"/><path class="cls-1" d="M213.78,21.18c0,5.93-5.52,10.74-12.33,10.74s-12.34-4.81-12.34-10.74"/><line class="cls-1" x1="201.45" y1="28.5" x2="201.45" y2="31.88"/><line class="cls-1" x1="198.01" y1="28.5" x2="196.48" y2="31.51"/><line class="cls-1" x1="195.15" y1="26.08" x2="192.79" y2="28.5"/><line class="cls-1" x1="192.74" y1="23.64" x2="189.93" y2="25.52"/><line class="cls-1" x1="204.6" y1="28.5" x2="206.14" y2="31.51"/><line class="cls-1" x1="207.46" y1="26.08" x2="209.83" y2="28.5"/><line class="cls-1" x1="209.88" y1="23.64" x2="212.68" y2="25.52"/><path class="cls-1" d="M187.84,17.1a2.8,2.8,0,0,1-1.26-5.45"/><path class="cls-1" d="M215.11,17.1a2.8,2.8,0,0,0,1.26-5.45"/><path class="cls-1" d="M185.39,34.79a3.1,3.1,0,0,1,3.25,3c-.06,1.59-1.62,2.58-3.46,2.76-1.5.14-1.55-1.41-1.5-3S183,34.79,185.39,34.79Z"/><path class="cls-1" d="M217,35.26a3.11,3.11,0,0,0-3.26,3c.06,1.59,1.62,2.58,3.47,2.76,1.49.14,1.55-1.41,1.49-3S219.41,35.26,217,35.26Z"/><path class="cls-1" d="M208.92,53.75a1.91,1.91,0,0,1,1.46.69l2.69,3.27a1.89,1.89,0,0,1-1.45,3.09H190.84a1.89,1.89,0,0,1-1.45-3.09l2.7-3.27a1.9,1.9,0,0,1,1.45-.69"/><path class="cls-1" d="M218.33,41.06l8.95-8.16a1.15,1.15,0,0,0,0-2.09l-9-4.66"/></svg>