<svg id="Capa_1" data-name="Capa 1" xmlns="http://www.w3.org/2000/svg" viewBox="0 0 142.48 74.86"><defs><style>.cls-1{fill:none;}.cls-1,.cls-2,.cls-3{stroke:#e5641f;stroke-miterlimit:10;}.cls-1,.cls-2{stroke-width:4.66px;}.cls-2,.cls-3{fill:#e5641f;}</style></defs><polyline class="cls-1" points="52.92 19.35 52.92 55.99 16.28 55.99 16.28 17.07"/><polyline class="cls-1" points="52.92 55.99 52.92 19.35 89.56 19.35 89.56 55.99"/><polyline class="cls-1" points="126.19 17.07 126.19 55.99 89.56 55.99 89.56 19.35"/><line class="cls-2" x1="34.61" y1="17.07" x2="34.61" y2="47.06"/><rect class="cls-3" x="26.5" y="23.06" width="6" height="6"/><rect class="cls-3" x="26.5" y="35.06" width="6" height="6"/><rect class="cls-3" x="36.96" y="29.06" width="6" height="6"/><line class="cls-2" x1="71.12" y1="27.8" x2="71.12" y2="57.79"/><rect class="cls-3" x="63.01" y="33.8" width="6" height="6"/><rect class="cls-3" x="63.01" y="45.8" width="6" height="6"/><rect class="cls-3" x="73.47" y="39.8" width="6" height="6"/><line class="cls-2" x1="107.76" y1="17.07" x2="107.76" y2="47.06"/><rect class="cls-3" x="99.64" y="23.06" width="6" height="6"/><rect class="cls-3" x="99.64" y="35.06" width="6" height="6"/><rect class="cls-3" x="110.11" y="29.06" width="6" height="6"/></svg>