<svg id="Capa_1" data-name="Capa 1" xmlns="http://www.w3.org/2000/svg" viewBox="0 0 634.72 650.04"><defs><style>.cls-1{fill:#e5651e;}.cls-2,.cls-3{fill:none;stroke:#e5651e;stroke-miterlimit:10;}.cls-2{stroke-width:4.89px;}.cls-3{stroke-width:2.15px;}</style></defs><g id="_Repetición_radial_" data-name="&lt;Repetición radial&gt;"><circle class="cls-1" cx="141.87" cy="525.85" r="4.4"/><path class="cls-2" d="M113.8,490a47.62,47.62,0,1,0,72.43,59,33.64,33.64,0,0,0,3.13-17.74,37.45,37.45,0,0,0-14.29-26.51,41.14,41.14,0,0,0-27.93-8.76c-13.73.94-27.52,10.32-31.08,24a28.86,28.86,0,0,0,46.09,29.72c9.25-7.48,12.17-20.42,3.95-30.57-9.22-11.41-25.93-9.86-33,1a13.13,13.13,0,0,0,.8,15.26c4.18,5.16,12.56,6,18,2.31,5.66-3.85,6.32-13.8-1.56-15.41a9.19,9.19,0,0,0-8.43,2.9"/><line class="cls-3" x1="121.55" y1="545.51" x2="128.23" y2="540.11"/><line class="cls-3" x1="126" y1="505.34" x2="131.4" y2="512.01"/><line class="cls-3" x1="179.5" y1="510.51" x2="172.82" y2="515.91"/><line class="cls-3" x1="173.59" y1="564.16" x2="168.19" y2="557.48"/><line class="cls-3" x1="97.11" y1="518.12" x2="105.64" y2="519.02"/><circle class="cls-1" cx="159.63" cy="521.46" r="1.61"/><circle class="cls-1" cx="149.78" cy="548.05" r="1.61"/><circle class="cls-1" cx="123.3" cy="522.44" r="1.61"/><circle class="cls-1" cx="153.61" cy="502.04" r="1.61"/><circle class="cls-1" cx="182.32" cy="537.52" r="1.61"/><circle class="cls-1" cx="140.27" cy="566.09" r="1.61"/><circle class="cls-1" cx="108.35" cy="545.64" r="1.61"/><circle class="cls-1" cx="81.97" cy="451.81" r="4.4"/><path class="cls-2" d="M53.9,416a47.62,47.62,0,1,0,72.43,59,33.56,33.56,0,0,0,3.13-17.74,37.43,37.43,0,0,0-14.29-26.51A41.14,41.14,0,0,0,87.24,422c-13.73.94-27.52,10.31-31.08,24a28.87,28.87,0,0,0,46.09,29.73c9.25-7.49,12.17-20.42,4-30.57-9.23-11.41-25.94-9.87-33,1.05A13.11,13.11,0,0,0,74,461.49c4.18,5.16,12.57,6,18,2.31,5.67-3.84,6.32-13.79-1.56-15.41a9.22,9.22,0,0,0-8.43,2.9"/><line class="cls-3" x1="61.65" y1="471.47" x2="68.33" y2="466.07"/><line class="cls-3" x1="66.1" y1="431.3" x2="71.5" y2="437.98"/><line class="cls-3" x1="119.6" y1="436.48" x2="112.92" y2="441.87"/><line class="cls-3" x1="113.69" y1="490.12" x2="108.29" y2="483.45"/><line class="cls-3" x1="37.21" y1="444.08" x2="45.74" y2="444.98"/><circle class="cls-1" cx="99.73" cy="447.42" r="1.61"/><circle class="cls-1" cx="89.88" cy="474.02" r="1.61"/><circle class="cls-1" cx="63.4" cy="448.4" r="1.61"/><circle class="cls-1" cx="93.72" cy="428.01" r="1.61"/><circle class="cls-1" cx="122.42" cy="463.49" r="1.61"/><circle class="cls-1" cx="80.37" cy="492.06" r="1.61"/><circle class="cls-1" cx="48.45" cy="471.6" r="1.61"/></g><g id="_Repetición_radial_2" data-name="&lt;Repetición radial&gt;"><circle class="cls-1" cx="53.06" cy="365.77" r="4.4"/><path class="cls-2" d="M54.57,320.29a47.62,47.62,0,1,0-1.7,95.22,47.24,47.24,0,0,0,19.24-3.43,33.58,33.58,0,0,0,13.8-11.58A37.45,37.45,0,0,0,92,371a41.12,41.12,0,0,0-15.76-24.66c-11.13-8.11-27.71-9.79-39.24-1.59a28.86,28.86,0,0,0,16.2,52.39c11.9.21,22.45-7.82,22.68-20.88.26-14.66-13.53-24.22-26-20.41a13.11,13.11,0,0,0-9.2,12.2C40.6,374.7,46.5,380.71,53,381.37c6.8.7,13.7-6.5,8.7-12.8a9.18,9.18,0,0,0-8.32-3.2"/><line class="cls-3" x1="24.85" y1="367.77" x2="33.44" y2="367.93"/><line class="cls-3" x1="54.08" y1="339.86" x2="53.93" y2="348.44"/><line class="cls-3" x1="91.74" y1="378.21" x2="83.15" y2="378.06"/><line class="cls-3" x1="52.72" y1="415.51" x2="52.88" y2="406.93"/><line class="cls-3" x1="23.73" y1="331.08" x2="29.69" y2="337.26"/><circle class="cls-1" cx="69.48" cy="373.82" r="1.61"/><circle class="cls-1" cx="44.84" cy="387.87" r="1.61"/><circle class="cls-1" cx="41.02" cy="351.22" r="1.61"/><circle class="cls-1" cx="77.35" cy="355.08" r="1.61"/><circle class="cls-1" cx="76.54" cy="400.72" r="1.61"/><circle class="cls-1" cx="25.96" cy="395.57" r="1.61"/><circle class="cls-1" cx="14.65" cy="359.39" r="1.61"/><circle class="cls-1" cx="54.76" cy="270.56" r="4.4"/><path class="cls-2" d="M56.28,225.08a47.61,47.61,0,0,0-1.71,95.21,47.21,47.21,0,0,0,19.24-3.43,33.63,33.63,0,0,0,13.8-11.57,37.43,37.43,0,0,0,6.09-29.5,41.14,41.14,0,0,0-15.76-24.66c-11.13-8.11-27.71-9.79-39.24-1.59a28.87,28.87,0,0,0,16.2,52.39c11.9.22,22.45-7.81,22.68-20.87.27-14.67-13.53-24.23-26-20.42a13.14,13.14,0,0,0-9.2,12.2c-.12,6.64,5.79,12.66,12.28,13.32,6.81.69,13.71-6.51,8.71-12.81a9.19,9.19,0,0,0-8.32-3.2"/><line class="cls-3" x1="26.56" y1="272.56" x2="35.14" y2="272.71"/><line class="cls-3" x1="55.78" y1="244.64" x2="55.63" y2="253.23"/><line class="cls-3" x1="93.44" y1="283" x2="84.86" y2="282.84"/><line class="cls-3" x1="54.43" y1="320.29" x2="54.58" y2="311.71"/><line class="cls-3" x1="25.44" y1="235.86" x2="31.4" y2="242.04"/><circle class="cls-1" cx="71.18" cy="278.61" r="1.61"/><circle class="cls-1" cx="46.55" cy="292.65" r="1.61"/><circle class="cls-1" cx="42.73" cy="256.01" r="1.61"/><circle class="cls-1" cx="79.06" cy="259.87" r="1.61"/><circle class="cls-1" cx="78.24" cy="305.5" r="1.61"/><circle class="cls-1" cx="27.67" cy="300.36" r="1.61"/><circle class="cls-1" cx="16.36" cy="264.17" r="1.61"/></g><g id="_Repetición_radial_3" data-name="&lt;Repetición radial&gt;"><circle class="cls-1" cx="87.91" cy="186.06" r="4.4"/><path class="cls-2" d="M118.31,152.2a47.62,47.62,0,1,0-45.57,81.58,33.62,33.62,0,0,0,18,0,37.43,37.43,0,0,0,23.62-18.68,41.11,41.11,0,0,0,3.78-29c-3.31-13.36-14.93-25.31-29-26.44a28.87,28.87,0,0,0-21.27,50.55c9,7.81,22.23,8.44,30.8-1.41,9.63-11.07,5.21-27.26-6.77-32.33A13.11,13.11,0,0,0,77,179.88c-4.36,5-3.71,13.41.84,18.09,4.77,4.91,14.68,3.83,14.9-4.21a9.19,9.19,0,0,0-4.32-7.8"/><line class="cls-3" x1="65.02" y1="169.47" x2="71.5" y2="175.1"/><line class="cls-3" x1="105.35" y1="166.87" x2="99.72" y2="173.34"/><line class="cls-3" x1="109.55" y1="220.45" x2="103.07" y2="214.82"/><line class="cls-3" x1="55.69" y1="223.95" x2="61.33" y2="217.47"/><line class="cls-3" x1="87.75" y1="140.64" x2="88.35" y2="149.2"/><circle class="cls-1" cx="95.32" cy="202.78" r="1.61"/><circle class="cls-1" cx="67.42" cy="197.71" r="1.61"/><circle class="cls-1" cx="88.05" cy="167.18" r="1.61"/><circle class="cls-1" cx="113.4" cy="193.49" r="1.61"/><circle class="cls-1" cx="83.44" cy="227.92" r="1.61"/><circle class="cls-1" cx="48" cy="191.47" r="1.61"/><circle class="cls-1" cx="62.6" cy="156.48" r="1.61"/><circle class="cls-1" cx="150.42" cy="114.21" r="4.4"/><path class="cls-2" d="M180.82,80.35a47.62,47.62,0,1,0-45.57,81.58,33.61,33.61,0,0,0,18,0,37.46,37.46,0,0,0,23.62-18.68,41.14,41.14,0,0,0,3.78-29c-3.31-13.36-14.94-25.31-29-26.43a28.86,28.86,0,0,0-21.27,50.54c9,7.81,22.22,8.44,30.8-1.41,9.63-11.07,5.2-27.25-6.77-32.33A13.13,13.13,0,0,0,139.5,108c-4.36,5-3.7,13.41.85,18.09,4.77,4.91,14.68,3.83,14.9-4.21a9.17,9.17,0,0,0-4.32-7.8"/><line class="cls-3" x1="127.53" y1="97.62" x2="134.01" y2="103.26"/><line class="cls-3" x1="167.86" y1="95.02" x2="162.23" y2="101.5"/><line class="cls-3" x1="172.06" y1="148.61" x2="165.58" y2="142.97"/><line class="cls-3" x1="118.2" y1="152.1" x2="123.84" y2="145.63"/><line class="cls-3" x1="150.26" y1="68.79" x2="150.85" y2="77.35"/><circle class="cls-1" cx="157.83" cy="130.94" r="1.61"/><circle class="cls-1" cx="129.93" cy="125.86" r="1.61"/><circle class="cls-1" cx="150.56" cy="95.34" r="1.61"/><circle class="cls-1" cx="175.91" cy="121.65" r="1.61"/><circle class="cls-1" cx="145.95" cy="156.08" r="1.61"/><circle class="cls-1" cx="110.51" cy="119.63" r="1.61"/><circle class="cls-1" cx="125.11" cy="84.64" r="1.61"/></g><g id="_Repetición_radial_4" data-name="&lt;Repetición radial&gt;"><circle class="cls-1" cx="230.13" cy="70.8" r="4.4"/><path class="cls-2" d="M275.18,64.39a47.61,47.61,0,0,0-94.06,14.86,47.13,47.13,0,0,0,6.72,18.35,33.55,33.55,0,0,0,13.8,11.58,37.42,37.42,0,0,0,30.1.88,41.11,41.11,0,0,0,21.55-19.81c6-12.36,4.83-29-5.25-38.91a28.86,28.86,0,0,0-48.78,25c1.85,11.75,11.6,20.75,24.49,18.71,14.5-2.29,21.51-17.53,15.6-29.11a13.12,13.12,0,0,0-13.61-6.94c-6.56,1-11.46,7.89-11,14.4.5,6.82,8.78,12.37,14.12,6.35a9.19,9.19,0,0,0,1.71-8.75"/><line class="cls-3" x1="223.26" y1="43.37" x2="224.6" y2="51.85"/><line class="cls-3" x1="255.83" y1="67.31" x2="247.35" y2="68.65"/><line class="cls-3" x1="224.6" y1="111.05" x2="223.26" y2="102.57"/><line class="cls-3" x1="181.1" y1="79.11" x2="189.57" y2="77.77"/><line class="cls-3" x1="259.21" y1="35.9" x2="254.16" y2="42.84"/><circle class="cls-1" cx="225.06" cy="88.37" r="1.61"/><circle class="cls-1" cx="206.94" cy="66.55" r="1.61"/><circle class="cls-1" cx="242.37" cy="56.42" r="1.61"/><circle class="cls-1" cx="244.88" cy="92.87" r="1.61"/><circle class="cls-1" cx="199.8" cy="99.99" r="1.61"/><circle class="cls-1" cx="196.08" cy="49.29" r="1.61"/><circle class="cls-1" cx="229.75" cy="31.87" r="1.61"/><circle class="cls-1" cx="324.2" cy="55.94" r="4.4"/><path class="cls-2" d="M369.25,49.54a47.62,47.62,0,1,0-94.07,14.85,47.35,47.35,0,0,0,6.73,18.36A33.68,33.68,0,0,0,295.7,94.33a37.42,37.42,0,0,0,30.1.87,41.09,41.09,0,0,0,21.55-19.8c6.06-12.37,4.83-29-5.24-38.92a28.87,28.87,0,0,0-48.79,25.05c1.86,11.76,11.6,20.75,24.5,18.71,14.49-2.28,21.51-17.53,15.6-29.11a13.12,13.12,0,0,0-13.61-6.94c-6.56,1-11.46,7.9-11,14.4C309.32,65.42,317.61,71,323,65a9.2,9.2,0,0,0,1.7-8.75"/><line class="cls-3" x1="317.33" y1="28.52" x2="318.67" y2="37"/><line class="cls-3" x1="349.89" y1="52.45" x2="341.42" y2="53.79"/><line class="cls-3" x1="318.66" y1="96.2" x2="317.33" y2="87.72"/><line class="cls-3" x1="275.16" y1="64.25" x2="283.64" y2="62.92"/><line class="cls-3" x1="353.27" y1="21.04" x2="348.22" y2="27.98"/><circle class="cls-1" cx="319.12" cy="73.51" r="1.61"/><circle class="cls-1" cx="301.01" cy="51.69" r="1.61"/><circle class="cls-1" cx="336.44" cy="41.57" r="1.61"/><circle class="cls-1" cx="338.94" cy="78.02" r="1.61"/><circle class="cls-1" cx="293.86" cy="85.14" r="1.61"/><circle class="cls-1" cx="290.14" cy="34.44" r="1.61"/><circle class="cls-1" cx="323.82" cy="17.02" r="1.61"/></g><g id="_Repetición_radial_5" data-name="&lt;Repetición radial&gt;"><circle class="cls-1" cx="413.17" cy="73.92" r="4.4"/><path class="cls-2" d="M451.79,98a47.62,47.62,0,1,0-88.25-30.7A33.64,33.64,0,0,0,366.66,85a37.45,37.45,0,0,0,22.5,20,41.13,41.13,0,0,0,29.24-1.32c12.59-5.58,22.33-19.1,21-33.19a28.87,28.87,0,0,0-53.47-12.17c-6.14,10.2-4.46,23.36,6.73,30.09,12.57,7.56,27.75.39,30.66-12.28a13.11,13.11,0,0,0-6-14.06c-5.69-3.43-13.85-1.32-17.67,4-4,5.55-1.22,15.12,6.73,13.94a9.17,9.17,0,0,0,6.93-5.6"/><line class="cls-3" x1="425.54" y1="48.5" x2="421.11" y2="55.85"/><line class="cls-3" x1="435.1" y1="87.76" x2="427.74" y2="83.34"/><line class="cls-3" x1="383.06" y1="101.2" x2="387.48" y2="93.84"/><line class="cls-3" x1="370.26" y1="48.77" x2="377.62" y2="53.19"/><line class="cls-3" x1="457.87" y1="65.88" x2="449.54" y2="67.95"/><circle class="cls-1" cx="397.98" cy="84.12" r="1.61"/><circle class="cls-1" cx="398.14" cy="55.76" r="1.61"/><circle class="cls-1" cx="431.79" cy="70.77" r="1.61"/><circle class="cls-1" cx="410.27" cy="100.31" r="1.61"/><circle class="cls-1" cx="371.16" cy="76.78" r="1.61"/><circle class="cls-1" cx="400.9" cy="35.56" r="1.61"/><circle class="cls-1" cx="437.9" cy="43.86" r="1.61"/><circle class="cls-1" cx="494.78" cy="123" r="4.4"/><path class="cls-2" d="M533.4,147.06a47.62,47.62,0,1,0-88.25-30.71,33.62,33.62,0,0,0,3.12,17.74,37.43,37.43,0,0,0,22.5,20A41.13,41.13,0,0,0,500,152.79c12.58-5.58,22.33-19.1,21-33.18a28.86,28.86,0,0,0-53.47-12.17c-6.13,10.2-4.45,23.35,6.74,30.08,12.57,7.56,27.74.4,30.66-12.28a13.11,13.11,0,0,0-6-14.06c-5.69-3.42-13.85-1.32-17.67,4-4,5.55-1.22,15.12,6.74,13.95a9.21,9.21,0,0,0,6.93-5.61"/><line class="cls-3" x1="507.14" y1="97.58" x2="502.72" y2="104.94"/><line class="cls-3" x1="516.7" y1="136.85" x2="509.35" y2="132.42"/><line class="cls-3" x1="464.66" y1="150.28" x2="469.09" y2="142.93"/><line class="cls-3" x1="451.87" y1="97.85" x2="459.22" y2="102.28"/><line class="cls-3" x1="539.48" y1="114.96" x2="531.15" y2="117.03"/><circle class="cls-1" cx="479.59" cy="133.2" r="1.61"/><circle class="cls-1" cx="479.74" cy="104.84" r="1.61"/><circle class="cls-1" cx="513.39" cy="119.86" r="1.61"/><circle class="cls-1" cx="491.88" cy="149.39" r="1.61"/><circle class="cls-1" cx="452.77" cy="125.87" r="1.61"/><circle class="cls-1" cx="482.51" cy="84.64" r="1.61"/><circle class="cls-1" cx="519.51" cy="92.94" r="1.61"/></g><g id="_Repetición_radial_6" data-name="&lt;Repetición radial&gt;"><circle class="cls-1" cx="551.37" cy="193.97" r="4.4"/><path class="cls-2" d="M565.5,237.22A47.62,47.62,0,1,0,517.63,157a33.62,33.62,0,0,0-9,15.6A37.44,37.44,0,0,0,513,202.36a41.14,41.14,0,0,0,23.25,17.79c13.22,3.81,29.38-.28,37.41-11.93a28.86,28.86,0,0,0-33.14-43.69c-11.25,3.87-18.42,15-14.18,27.37,4.77,13.88,21,18.14,31.38,10.31a13.12,13.12,0,0,0,4.47-14.61c-2.16-6.28-9.76-9.91-16.09-8.32-6.63,1.68-10.65,10.8-3.8,15a9.2,9.2,0,0,0,8.91.16"/><line class="cls-3" x1="577.19" y1="182.44" x2="569.07" y2="185.23"/><line class="cls-3" x1="559.27" y1="218.66" x2="556.48" y2="210.55"/><line class="cls-3" x1="510.77" y1="195.5" x2="518.89" y2="192.72"/><line class="cls-3" x1="534.67" y1="147.12" x2="537.46" y2="155.23"/><line class="cls-3" x1="590.79" y1="216.54" x2="583.08" y2="212.77"/><circle class="cls-1" cx="533.19" cy="192.02" r="1.61"/><circle class="cls-1" cx="551.53" cy="170.39" r="1.61"/><circle class="cls-1" cx="567.66" cy="203.52" r="1.61"/><circle class="cls-1" cx="532.2" cy="212.32" r="1.61"/><circle class="cls-1" cx="517.36" cy="169.16" r="1.61"/><circle class="cls-1" cx="566.64" cy="156.69" r="1.61"/><circle class="cls-1" cx="589.64" cy="186.83" r="1.61"/><circle class="cls-1" cx="582.34" cy="284.02" r="4.4"/><path class="cls-2" d="M596.47,327.27A47.62,47.62,0,1,0,548.6,247a33.59,33.59,0,0,0-9,15.6,37.46,37.46,0,0,0,4.36,29.8A41.13,41.13,0,0,0,567.2,310.2c13.23,3.82,29.39-.27,37.41-11.92a28.87,28.87,0,0,0-33.13-43.7c-11.26,3.87-18.43,15-14.18,27.38,4.77,13.87,21,18.14,31.38,10.3a13.13,13.13,0,0,0,4.47-14.61c-2.16-6.28-9.77-9.91-16.09-8.31-6.64,1.67-10.66,10.8-3.81,15a9.22,9.22,0,0,0,8.92.16"/><line class="cls-3" x1="608.15" y1="272.49" x2="600.04" y2="275.28"/><line class="cls-3" x1="590.24" y1="308.72" x2="587.45" y2="300.6"/><line class="cls-3" x1="541.74" y1="285.56" x2="549.85" y2="282.77"/><line class="cls-3" x1="565.64" y1="237.17" x2="568.43" y2="245.29"/><line class="cls-3" x1="621.76" y1="306.59" x2="614.05" y2="302.83"/><circle class="cls-1" cx="564.15" cy="282.07" r="1.61"/><circle class="cls-1" cx="582.5" cy="260.45" r="1.61"/><circle class="cls-1" cx="598.62" cy="293.58" r="1.61"/><circle class="cls-1" cx="563.16" cy="302.37" r="1.61"/><circle class="cls-1" cx="548.32" cy="259.21" r="1.61"/><circle class="cls-1" cx="597.6" cy="246.75" r="1.61"/><circle class="cls-1" cx="620.61" cy="276.89" r="1.61"/></g><g id="_Repetición_radial_7" data-name="&lt;Repetición radial&gt;"><circle class="cls-1" cx="580.08" cy="374.76" r="4.4"/><path class="cls-2" d="M563.1,417A47.62,47.62,0,1,0,578,324.73a33.6,33.6,0,0,0-16.93,6.16,37.45,37.45,0,0,0-15.81,25.63,41.1,41.1,0,0,0,6.38,28.57c7.68,11.42,22.69,18.67,36.32,14.91a28.86,28.86,0,0,0,2.7-54.77c-11.11-4.27-23.77-.33-28.45,11.86-5.27,13.69,4.42,27.39,17.41,28.06a13.13,13.13,0,0,0,12.82-8.32c2.38-6.2-1.11-13.87-7-16.71-6.15-3-15.1,1.42-12.56,9.06a9.22,9.22,0,0,0,6.73,5.85"/><line class="cls-3" x1="607.27" y1="382.53" x2="599.26" y2="379.45"/><line class="cls-3" x1="570.26" y1="398.76" x2="573.34" y2="390.75"/><line class="cls-3" x1="547.99" y1="349.84" x2="556" y2="352.92"/><line class="cls-3" x1="597.4" y1="328.14" x2="594.32" y2="336.15"/><line class="cls-3" x1="595.77" y1="417.39" x2="592.28" y2="409.55"/><circle class="cls-1" cx="567.4" cy="361.58" r="1.61"/><circle class="cls-1" cx="595.36" cy="356.81" r="1.61"/><circle class="cls-1" cx="586.42" cy="392.55" r="1.61"/><circle class="cls-1" cx="553.59" cy="376.49" r="1.61"/><circle class="cls-1" cx="569.97" cy="333.89" r="1.61"/><circle class="cls-1" cx="615.74" cy="356.02" r="1.61"/><circle class="cls-1" cx="613.98" cy="393.9" r="1.61"/><circle class="cls-1" cx="545.92" cy="463.65" r="4.4"/><path class="cls-2" d="M528.94,505.87A47.61,47.61,0,1,0,563.1,417a47.15,47.15,0,0,0-19.25-3.36,33.63,33.63,0,0,0-16.93,6.16,37.48,37.48,0,0,0-15.81,25.63A41.15,41.15,0,0,0,517.49,474c7.68,11.42,22.69,18.67,36.33,14.91a28.86,28.86,0,0,0,2.7-54.77c-11.11-4.27-23.78-.33-28.46,11.86-5.26,13.69,4.43,27.39,17.41,28.06a13.12,13.12,0,0,0,12.82-8.32c2.38-6.2-1.11-13.87-7-16.71-6.16-3-15.1,1.42-12.56,9.06a9.19,9.19,0,0,0,6.72,5.85"/><line class="cls-3" x1="573.1" y1="471.42" x2="565.09" y2="468.34"/><line class="cls-3" x1="536.09" y1="487.65" x2="539.17" y2="479.64"/><line class="cls-3" x1="513.82" y1="438.73" x2="521.83" y2="441.81"/><line class="cls-3" x1="563.24" y1="417.03" x2="560.16" y2="425.04"/><line class="cls-3" x1="561.6" y1="506.28" x2="558.12" y2="498.44"/><circle class="cls-1" cx="533.24" cy="450.47" r="1.61"/><circle class="cls-1" cx="561.19" cy="445.7" r="1.61"/><circle class="cls-1" cx="552.25" cy="481.44" r="1.61"/><circle class="cls-1" cx="519.43" cy="465.38" r="1.61"/><circle class="cls-1" cx="535.8" cy="422.78" r="1.61"/><circle class="cls-1" cx="581.57" cy="444.91" r="1.61"/><circle class="cls-1" cx="579.82" cy="482.79" r="1.61"/></g><g id="_Repetición_radial_8" data-name="&lt;Repetición radial&gt;"><circle class="cls-1" cx="485.86" cy="531.71" r="4.4"/><path class="cls-2" d="M445.72,553.14a47.62,47.62,0,1,0,70.72-61.08,33.62,33.62,0,0,0-16.93-6.16,37.41,37.41,0,0,0-28.58,9.47,41.13,41.13,0,0,0-13.48,26c-1.46,13.69,5.38,28.89,18.24,34.78A28.87,28.87,0,0,0,513,515.9c-5.77-10.41-18-15.53-29.42-9.2-12.84,7.1-14.22,23.83-4.7,32.69A13.12,13.12,0,0,0,494,541.25c5.81-3.21,8.07-11.33,5.39-17.29-2.8-6.24-12.48-8.61-15.44-1.13a9.19,9.19,0,0,0,1.39,8.8"/><line class="cls-3" x1="501.7" y1="555.14" x2="497.54" y2="547.63"/><line class="cls-3" x1="462.91" y1="543.78" x2="470.42" y2="539.62"/><line class="cls-3" x1="477.3" y1="492" x2="481.45" y2="499.51"/><line class="cls-3" x1="529.1" y1="507.13" x2="521.59" y2="511.29"/><line class="cls-3" x1="470.48" y1="574.45" x2="472.85" y2="566.2"/><circle class="cls-1" cx="484.62" cy="513.46" r="1.61"/><circle class="cls-1" cx="509.11" cy="527.78" r="1.61"/><circle class="cls-1" cx="479.28" cy="549.41" r="1.61"/><circle class="cls-1" cx="464.46" cy="516.01" r="1.61"/><circle class="cls-1" cx="504.39" cy="493.9" r="1.61"/><circle class="cls-1" cx="525.22" cy="540.27" r="1.61"/><circle class="cls-1" cx="499.53" cy="568.16" r="1.61"/><circle class="cls-1" cx="402.55" cy="577.85" r="4.4"/><path class="cls-2" d="M362.41,599.27a47.62,47.62,0,1,0,70.72-61.08A33.65,33.65,0,0,0,416.2,532a37.41,37.41,0,0,0-28.58,9.47,41.13,41.13,0,0,0-13.48,26c-1.46,13.69,5.37,28.89,18.24,34.78A28.87,28.87,0,0,0,429.66,562c-5.77-10.42-18-15.54-29.42-9.21-12.84,7.1-14.22,23.83-4.7,32.69a13.12,13.12,0,0,0,15.16,1.86c5.81-3.21,8.07-11.33,5.39-17.28-2.8-6.25-12.48-8.62-15.44-1.14a9.19,9.19,0,0,0,1.39,8.8"/><line class="cls-3" x1="418.39" y1="601.27" x2="414.23" y2="593.76"/><line class="cls-3" x1="379.6" y1="589.91" x2="387.11" y2="585.76"/><line class="cls-3" x1="393.99" y1="538.13" x2="398.14" y2="545.64"/><line class="cls-3" x1="445.79" y1="553.26" x2="438.28" y2="557.42"/><line class="cls-3" x1="387.17" y1="620.58" x2="389.54" y2="612.34"/><circle class="cls-1" cx="401.31" cy="559.6" r="1.61"/><circle class="cls-1" cx="425.8" cy="573.91" r="1.61"/><circle class="cls-1" cx="395.97" cy="595.54" r="1.61"/><circle class="cls-1" cx="381.15" cy="562.15" r="1.61"/><circle class="cls-1" cx="421.08" cy="540.04" r="1.61"/><circle class="cls-1" cx="441.91" cy="586.41" r="1.61"/><circle class="cls-1" cx="416.22" cy="614.29" r="1.61"/></g><g id="_Repetición_radial_9" data-name="&lt;Repetición radial&gt;"><circle class="cls-1" cx="312.8" cy="591.38" r="4.4"/><path class="cls-2" d="M268.28,582a47.62,47.62,0,1,0,93.43-1.33,33.68,33.68,0,0,0-9-15.6,37.45,37.45,0,0,0-28-11.12,41.1,41.1,0,0,0-27,11.24c-9.91,9.55-14.45,25.59-8.38,38.37a28.87,28.87,0,0,0,54.41-6.86c2.28-11.68-3.8-23.47-16.62-26-14.4-2.81-26.2,9.12-24.61,22a13.12,13.12,0,0,0,10.42,11.18c6.51,1.27,13.46-3.5,15.24-9.78,1.87-6.58-4-14.63-11.1-10.8a9.19,9.19,0,0,0-4.59,7.64"/><line class="cls-3" x1="309.87" y1="619.5" x2="311.51" y2="611.08"/><line class="cls-3" x1="287.46" y1="585.87" x2="295.88" y2="587.51"/><line class="cls-3" x1="331.77" y1="555.45" x2="330.12" y2="563.87"/><line class="cls-3" x1="361.72" y1="600.34" x2="353.3" y2="598.7"/><line class="cls-3" x1="273.54" y1="614.23" x2="280.66" y2="609.44"/><circle class="cls-1" cx="323.58" cy="576.61" r="1.61"/><circle class="cls-1" cx="333.13" cy="603.31" r="1.61"/><circle class="cls-1" cx="296.38" cy="600.71" r="1.61"/><circle class="cls-1" cx="306.49" cy="565.6" r="1.61"/><circle class="cls-1" cx="351.29" cy="574.32" r="1.61"/><circle class="cls-1" cx="337.44" cy="623.24" r="1.61"/><circle class="cls-1" cx="299.84" cy="628.09" r="1.61"/><circle class="cls-1" cx="219.32" cy="573.17" r="4.4"/><path class="cls-2" d="M174.8,563.78a47.62,47.62,0,1,0,93.43-1.33,33.51,33.51,0,0,0-9-15.6,37.4,37.4,0,0,0-28-11.12,41.1,41.1,0,0,0-27,11.24c-9.92,9.55-14.45,25.59-8.38,38.36a28.86,28.86,0,0,0,54.41-6.85c2.28-11.68-3.8-23.47-16.62-26-14.4-2.8-26.21,9.12-24.61,22a13.1,13.1,0,0,0,10.41,11.17c6.52,1.27,13.47-3.5,15.25-9.77,1.87-6.59-4-14.63-11.1-10.8a9.17,9.17,0,0,0-4.59,7.64"/><line class="cls-3" x1="216.4" y1="601.29" x2="218.04" y2="592.87"/><line class="cls-3" x1="193.99" y1="567.66" x2="202.41" y2="569.3"/><line class="cls-3" x1="238.29" y1="537.24" x2="236.65" y2="545.66"/><line class="cls-3" x1="268.25" y1="582.13" x2="259.82" y2="580.49"/><line class="cls-3" x1="180.07" y1="596.02" x2="187.19" y2="591.23"/><circle class="cls-1" cx="230.11" cy="558.39" r="1.61"/><circle class="cls-1" cx="239.66" cy="585.1" r="1.61"/><circle class="cls-1" cx="202.91" cy="582.49" r="1.61"/><circle class="cls-1" cx="213.02" cy="547.38" r="1.61"/><circle class="cls-1" cx="257.82" cy="556.11" r="1.61"/><circle class="cls-1" cx="243.97" cy="605.03" r="1.61"/><circle class="cls-1" cx="206.37" cy="609.88" r="1.61"/></g></svg>