<svg id="Capa_1" data-name="Capa 1" xmlns="http://www.w3.org/2000/svg" viewBox="0 0 238.25 64.92"><defs><style>.cls-1{fill:#e5651e;}.cls-2{fill:none;stroke:#e5651e;stroke-miterlimit:10;stroke-width:2px;}</style></defs><circle class="cls-1" cx="40.3" cy="34.46" r="2.54"/><path class="cls-2" d="M66.51,34.86a27.43,27.43,0,0,0-54.86,0,27.21,27.21,0,0,0,2.18,11,19.37,19.37,0,0,0,6.81,7.83,21.6,21.6,0,0,0,17,3.2,23.7,23.7,0,0,0,14-9.33c4.55-6.49,5.35-16.06.51-22.62a16.63,16.63,0,0,0-30,9.87c0,6.86,4.74,12.85,12.26,12.85A11.77,11.77,0,0,0,46,32.55a7.56,7.56,0,0,0-7.12-5.17c-3.83,0-7.23,3.46-7.54,7.2-.33,3.93,3.88,7.83,7.46,4.89a5.3,5.3,0,0,0,1.76-4.83"/><line class="cls-2" x1="38.86" y1="18.24" x2="38.86" y2="23.18"/><line class="cls-2" x1="55.24" y1="34.78" x2="50.29" y2="34.78"/><line class="cls-2" x1="33.54" y1="56.86" x2="33.54" y2="51.92"/><line class="cls-2" x1="11.65" y1="34.78" x2="16.6" y2="34.78"/><line class="cls-2" x1="59.98" y1="17.21" x2="56.48" y2="20.71"/><circle class="cls-2" cx="35.83" cy="44" r="0.92"/><circle class="cls-2" cx="27.49" cy="29.95" r="0.92"/><circle class="cls-2" cx="48.56" cy="27.38" r="0.92"/><circle class="cls-2" cx="46.71" cy="48.34" r="0.92"/><circle class="cls-2" cx="20.42" cy="48.34" r="0.92"/><circle class="cls-2" cx="22.86" cy="19.16" r="0.92"/><circle class="cls-2" cx="43.58" cy="12.27" r="0.92"/><circle class="cls-1" cx="95.16" cy="34.46" r="2.54"/><path class="cls-2" d="M121.36,34.86a27.43,27.43,0,1,0-54.85,0,27.37,27.37,0,0,0,2.17,11,19.45,19.45,0,0,0,6.81,7.83,21.62,21.62,0,0,0,17.05,3.2,23.67,23.67,0,0,0,14-9.33c4.56-6.49,5.36-16.06.51-22.62a16.63,16.63,0,0,0-30,9.87c0,6.86,4.73,12.85,12.25,12.85a11.77,11.77,0,0,0,11.49-15.16,7.55,7.55,0,0,0-7.12-5.17c-3.82,0-7.22,3.46-7.54,7.2-.33,3.93,3.89,7.83,7.47,4.89a5.32,5.32,0,0,0,1.75-4.83"/><line class="cls-2" x1="93.71" y1="18.24" x2="93.71" y2="23.18"/><line class="cls-2" x1="110.09" y1="34.78" x2="105.15" y2="34.78"/><line class="cls-2" x1="88.39" y1="56.86" x2="88.39" y2="51.92"/><line class="cls-2" x1="66.51" y1="34.78" x2="71.45" y2="34.78"/><line class="cls-2" x1="114.84" y1="17.21" x2="111.34" y2="20.71"/><circle class="cls-2" cx="90.69" cy="44" r="0.92"/><circle class="cls-2" cx="82.34" cy="29.95" r="0.92"/><circle class="cls-2" cx="103.41" cy="27.38" r="0.92"/><circle class="cls-2" cx="101.56" cy="48.34" r="0.92"/><circle class="cls-2" cx="75.27" cy="48.34" r="0.92"/><circle class="cls-2" cx="77.71" cy="19.16" r="0.92"/><circle class="cls-2" cx="98.44" cy="12.27" r="0.92"/><circle class="cls-1" cx="150.01" cy="34.46" r="2.54"/><path class="cls-2" d="M176.22,34.86a27.43,27.43,0,0,0-54.86,0,27.21,27.21,0,0,0,2.18,11,19.37,19.37,0,0,0,6.81,7.83,21.6,21.6,0,0,0,17.05,3.2,23.7,23.7,0,0,0,14-9.33C166,41.12,166.79,31.55,162,25a16.63,16.63,0,0,0-30,9.87c0,6.86,4.74,12.85,12.26,12.85a11.77,11.77,0,0,0,11.49-15.16,7.56,7.56,0,0,0-7.12-5.17c-3.83,0-7.23,3.46-7.54,7.2-.33,3.93,3.88,7.83,7.46,4.89a5.3,5.3,0,0,0,1.76-4.83"/><line class="cls-2" x1="148.57" y1="18.24" x2="148.57" y2="23.18"/><line class="cls-2" x1="164.95" y1="34.78" x2="160" y2="34.78"/><line class="cls-2" x1="143.25" y1="56.86" x2="143.25" y2="51.92"/><line class="cls-2" x1="121.36" y1="34.78" x2="126.31" y2="34.78"/><line class="cls-2" x1="169.69" y1="17.21" x2="166.19" y2="20.71"/><circle class="cls-2" cx="145.54" cy="44" r="0.92"/><circle class="cls-2" cx="137.2" cy="29.95" r="0.92"/><circle class="cls-2" cx="158.27" cy="27.38" r="0.92"/><circle class="cls-2" cx="156.42" cy="48.34" r="0.92"/><circle class="cls-2" cx="130.13" cy="48.34" r="0.92"/><circle class="cls-2" cx="132.57" cy="19.16" r="0.92"/><circle class="cls-2" cx="153.29" cy="12.27" r="0.92"/><circle class="cls-1" cx="204.87" cy="34.46" r="2.54"/><path class="cls-2" d="M231.07,34.86a27.43,27.43,0,1,0-54.85,0,27.37,27.37,0,0,0,2.17,11,19.45,19.45,0,0,0,6.81,7.83,21.62,21.62,0,0,0,17.05,3.2,23.67,23.67,0,0,0,14-9.33c4.56-6.49,5.36-16.06.51-22.62a16.63,16.63,0,0,0-30,9.87c0,6.86,4.73,12.85,12.25,12.85a11.77,11.77,0,0,0,11.49-15.16,7.55,7.55,0,0,0-7.12-5.17c-3.82,0-7.22,3.46-7.54,7.2-.33,3.93,3.89,7.83,7.47,4.89a5.32,5.32,0,0,0,1.75-4.83"/><line class="cls-2" x1="203.42" y1="18.24" x2="203.42" y2="23.18"/><line class="cls-2" x1="219.8" y1="34.78" x2="214.86" y2="34.78"/><line class="cls-2" x1="198.1" y1="56.86" x2="198.1" y2="51.92"/><line class="cls-2" x1="176.22" y1="34.78" x2="181.16" y2="34.78"/><line class="cls-2" x1="224.55" y1="17.21" x2="221.05" y2="20.71"/><circle class="cls-2" cx="200.4" cy="44" r="0.92"/><circle class="cls-2" cx="192.05" cy="29.95" r="0.92"/><circle class="cls-2" cx="213.12" cy="27.38" r="0.92"/><circle class="cls-2" cx="211.27" cy="48.34" r="0.92"/><circle class="cls-2" cx="184.98" cy="48.34" r="0.92"/><circle class="cls-2" cx="187.42" cy="19.16" r="0.92"/><circle class="cls-2" cx="208.15" cy="12.27" r="0.92"/></svg>