<svg xmlns="http://www.w3.org/2000/svg" width="278.705" height="61.456" viewBox="0 0 278.705 61.456">
  <g id="Grupo_1849" data-name="Grupo 1849" transform="translate(-531.295 -2665.444)">
    <g id="Grupo_523" data-name="Grupo 523" transform="translate(665.274 2724.4) rotate(180)">
      <line id="Línea_6" data-name="Línea 6" x2="131.274" transform="translate(0 0)" fill="none" stroke="#063916" stroke-miterlimit="10" stroke-width="5"/>
      <line id="Línea_7" data-name="Línea 7" x2="131.274" transform="translate(0 56.456)" fill="none" stroke="#063916" stroke-miterlimit="10" stroke-width="5"/>
      <path id="Trazado_163" data-name="Trazado 163" d="M44.383,32.644H15.03L0,17.614,17.177.436h28.8L76.989,31.45h35.16l13.97-13.97L107.932,0H79.753" transform="translate(4.29 11.856)" fill="none" stroke="#063916" stroke-miterlimit="10" stroke-width="5"/>
      <line id="Línea_8" data-name="Línea 8" x2="23.369" transform="translate(25.304 28.611)" fill="none" stroke="#063916" stroke-miterlimit="10" stroke-width="5"/>
      <line id="Línea_9" data-name="Línea 9" x2="27.324" transform="translate(84.538 27.197)" fill="none" stroke="#063916" stroke-miterlimit="10" stroke-width="5"/>
    </g>
    <g id="Grupo_1758" data-name="Grupo 1758" transform="translate(810 2724.4) rotate(180)">
      <line id="Línea_6-2" data-name="Línea 6" x2="131.274" transform="translate(0 0)" fill="none" stroke="#063916" stroke-miterlimit="10" stroke-width="5"/>
      <line id="Línea_7-2" data-name="Línea 7" x2="131.274" transform="translate(0 56.456)" fill="none" stroke="#063916" stroke-miterlimit="10" stroke-width="5"/>
      <path id="Trazado_163-2" data-name="Trazado 163" d="M44.383,32.644H15.03L0,17.614,17.177.436h28.8L76.989,31.45h35.16l13.97-13.97L107.932,0H79.753" transform="translate(4.29 11.856)" fill="none" stroke="#063916" stroke-miterlimit="10" stroke-width="5"/>
      <line id="Línea_8-2" data-name="Línea 8" x2="23.369" transform="translate(25.304 28.611)" fill="none" stroke="#063916" stroke-miterlimit="10" stroke-width="5"/>
      <line id="Línea_9-2" data-name="Línea 9" x2="27.324" transform="translate(84.538 27.197)" fill="none" stroke="#063916" stroke-miterlimit="10" stroke-width="5"/>
    </g>
  </g>
</svg>
