<svg xmlns="http://www.w3.org/2000/svg" width="401.209" height="185.271" viewBox="0 0 401.209 185.271">
  <g id="Grupo_133" data-name="Grupo 133" transform="translate(398.209 3.005) rotate(90)">
    <path id="Trazado_146" data-name="Trazado 146" d="M135.088,241.437c-1.027.041-2.052.087-3.088.087-46.905,0-84.93-42.335-84.93-94.559S85.095,52.406,132,52.406c1.036,0,2.061.046,3.088.087V.087C134.058.061,133.036,0,132,0,59.1,0,0,65.8,0,146.965S59.1,293.93,132,293.93c1.036,0,2.059-.061,3.088-.087Z" transform="translate(44.178 50.642)" fill="none" stroke="#e5661d" stroke-miterlimit="10" stroke-width="6"/>
    <path id="Trazado_147" data-name="Trazado 147" d="M101.5,44.835C97.021,71.228,76.2,91.189,51.2,91.189,22.92,91.189,0,65.67,0,34.19A61.075,61.075,0,0,1,10.229,0" transform="translate(76.876 304.02)" fill="none" stroke="#e5661d" stroke-miterlimit="10" stroke-width="6"/>
    <path id="Trazado_148" data-name="Trazado 148" d="M51.737,23.231c-2.86,12.7-13.181,22.107-25.475,22.107C11.758,45.337,0,32.246,0,16.1A31.508,31.508,0,0,1,4.335,0" transform="translate(101.809 322.112)" fill="none" stroke="#e5661d" stroke-miterlimit="10" stroke-width="6"/>
    <path id="Trazado_149" data-name="Trazado 149" d="M81.521,102.034c-19.423,15.932-46.877,14.764-65.19-4.2-20.7-21.438-21.88-57.5-2.625-80.556A49.728,49.728,0,0,1,42.11,0" transform="translate(0 197.607)" fill="none" stroke="#e5661d" stroke-miterlimit="10" stroke-width="6"/>
    <path id="Trazado_150" data-name="Trazado 150" d="M40.554,52.952c-9.863,7.132-23.174,6.195-32.177-3.127-10.621-11-11.224-29.5-1.346-41.324A25.711,25.711,0,0,1,20.052,0" transform="translate(24.933 225.292)" fill="none" stroke="#e5661d" stroke-miterlimit="10" stroke-width="6"/>
    <path id="Trazado_151" data-name="Trazado 151" d="M101.427,45.943C96.775,19.587,75.825-.2,50.819,0,22.545.233-.207,25.94,0,57.419A61.007,61.007,0,0,0,10.456,91.525" transform="translate(76.951 0)" fill="none" stroke="#e5661d" stroke-miterlimit="10" stroke-width="6"/>
    <path id="Trazado_152" data-name="Trazado 152" d="M51.737,22.107C48.877,9.405,38.557,0,26.262,0,11.758,0,0,13.09,0,29.239a31.506,31.506,0,0,0,4.335,16.1" transform="translate(101.809 27.765)" fill="none" stroke="#e5661d" stroke-miterlimit="10" stroke-width="6"/>
    <path id="Trazado_153" data-name="Trazado 153" d="M81.521,11.063C62.1-4.868,34.643-3.7,16.331,15.261c-20.7,21.438-21.88,57.5-2.625,80.556A49.724,49.724,0,0,0,42.11,113.1" transform="translate(0 82.463)" fill="none" stroke="#e5661d" stroke-miterlimit="10" stroke-width="6"/>
    <path id="Trazado_154" data-name="Trazado 154" d="M40.554,4.7C30.691-2.431,17.38-1.493,8.377,7.828c-10.621,11-11.224,29.5-1.346,41.324a25.71,25.71,0,0,0,13.02,8.5" transform="translate(24.933 110.224)" fill="none" stroke="#e5661d" stroke-miterlimit="10" stroke-width="6"/>
  </g>
</svg>
