<svg xmlns="http://www.w3.org/2000/svg" width="281.214" height="134.946" viewBox="0 0 281.214 134.946">
  <g id="Grupo_1828" data-name="Grupo 1828" transform="translate(-944.131 -662.294)">
    <g id="Grupo_1727" data-name="Grupo 1727" transform="translate(997.708 664.569)">
      <path id="Trazado_3743" data-name="Trazado 3743" d="M1018.25,724.117H993.43l-17.364-59.548h59.548Z" transform="translate(-976.066 -664.569)" fill="none" stroke="#e5661d" stroke-miterlimit="10" stroke-width="4.549"/>
      <path id="Trazado_3744" data-name="Trazado 3744" d="M1018.251,705.335H993.43l-17.364,59.548h59.548Z" transform="translate(-976.066 -634.486)" fill="none" stroke="#e5661d" stroke-miterlimit="10" stroke-width="4.549"/>
      <line id="Línea_147" data-name="Línea 147" y2="11.37" transform="translate(17.364 59.548)" fill="none" stroke="#e5661d" stroke-miterlimit="10" stroke-width="4.549"/>
      <line id="Línea_148" data-name="Línea 148" y2="11.37" transform="translate(41.925 59.548)" fill="none" stroke="#e5661d" stroke-miterlimit="10" stroke-width="4.549"/>
      <line id="Línea_149" data-name="Línea 149" y2="59.548" transform="translate(29.774)" fill="none" stroke="#e5661d" stroke-miterlimit="10" stroke-width="2.212"/>
      <line id="Línea_150" data-name="Línea 150" y2="59.479" transform="translate(29.774 70.917)" fill="none" stroke="#e5661d" stroke-miterlimit="10" stroke-width="2.212"/>
    </g>
    <g id="Grupo_1728" data-name="Grupo 1728" transform="translate(1110.982 664.569)">
      <path id="Trazado_3745" data-name="Trazado 3745" d="M1083.427,724.117h-24.82l-17.364-59.548h59.547Z" transform="translate(-1041.244 -664.569)" fill="none" stroke="#e5661d" stroke-miterlimit="10" stroke-width="4.549"/>
      <path id="Trazado_3746" data-name="Trazado 3746" d="M1083.428,705.335h-24.82l-17.364,59.548h59.548Z" transform="translate(-1041.244 -634.486)" fill="none" stroke="#e5661d" stroke-miterlimit="10" stroke-width="4.549"/>
      <line id="Línea_151" data-name="Línea 151" y2="11.37" transform="translate(17.364 59.548)" fill="none" stroke="#e5661d" stroke-miterlimit="10" stroke-width="4.549"/>
      <line id="Línea_152" data-name="Línea 152" y2="11.37" transform="translate(41.925 59.548)" fill="none" stroke="#e5661d" stroke-miterlimit="10" stroke-width="4.549"/>
      <line id="Línea_153" data-name="Línea 153" y2="59.548" transform="translate(29.774)" fill="none" stroke="#e5661d" stroke-miterlimit="10" stroke-width="2.212"/>
      <line id="Línea_154" data-name="Línea 154" y2="59.479" transform="translate(29.774 70.917)" fill="none" stroke="#e5661d" stroke-miterlimit="10" stroke-width="2.212"/>
    </g>
    <path id="Trazado_3747" data-name="Trazado 3747" d="M1035.574,763.162l-24.582-43.875,24.582-43.875,24.582,43.875Z" transform="translate(47.414 8.001)" fill="none" stroke="#e5661d" stroke-miterlimit="10" stroke-width="4.549"/>
    <path id="Trazado_3748" data-name="Trazado 3748" d="M971.32,763.162l-24.582-43.875,24.582-43.875L995.9,719.286Z" transform="translate(0 8.001)" fill="none" stroke="#e5661d" stroke-miterlimit="10" stroke-width="4.549"/>
    <path id="Trazado_3749" data-name="Trazado 3749" d="M1101.841,763.162l-24.582-43.875,24.582-43.875,24.582,43.875Z" transform="translate(96.315 8.001)" fill="none" stroke="#e5661d" stroke-miterlimit="10" stroke-width="4.549"/>
  </g>
</svg>
