<svg xmlns="http://www.w3.org/2000/svg" width="615.773" height="615.773" viewBox="0 0 615.773 615.773">
  <g id="Grupo_1822" data-name="Grupo 1822" transform="translate(-159.385 -234.184)">
    <g id="Grupo_326" data-name="Grupo 326" transform="translate(166.26 239.01)">
      <g id="Grupo_304" data-name="Grupo 304" transform="translate(1.47)">
        <g id="Grupo_288" data-name="Grupo 288" transform="translate(0 94.317)">
          <g id="Grupo_284" data-name="Grupo 284" transform="translate(0 142.472)">
            <path id="Trazado_927" data-name="Trazado 927" d="M217.981,525.208a271.9,271.9,0,0,0-27.336,30.081c-7.981-11.992-15.446-24.167-22.521-36.713a289.247,289.247,0,0,1,30.553-27.9A374.508,374.508,0,0,0,217.981,525.208Z" transform="translate(-168.124 -490.676)" fill="none" stroke="#e5661d" stroke-miterlimit="10" stroke-width="2.551"/>
            <path id="Trazado_928" data-name="Trazado 928" d="M206.515,524.511c-4.979,4.782-9.657,9.818-14.263,14.964q-5.7-9.054-10.991-18.323c4.9-4.972,9.9-9.752,15.09-14.4Q201.242,515.753,206.515,524.511Z" transform="translate(-168.892 -491.615)" fill="none" stroke="#e5661d" stroke-miterlimit="10" stroke-width="1.654"/>
            <path id="Trazado_929" data-name="Trazado 929" d="M194.268,523.424l.147-.147c.042.072.064.108.105.181l-.147.147c-.041-.073-.063-.108-.105-.181m-4.75-.631c1.628,2.828,2.457,4.229,4.142,7.005,2.225-2.344,3.347-3.486,5.6-5.709-1.635-2.743-2.44-4.127-4.018-6.922-2.306,2.19-3.453,3.315-5.727,5.626Z" transform="translate(-169.375 -492.225)" fill="none" stroke="#e5661d" stroke-miterlimit="10" stroke-width="1"/>
            <path id="Trazado_930" data-name="Trazado 930" d="M192.043,555.376a443.909,443.909,0,0,1,7.715-63.226" transform="translate(-169.522 -490.762)" fill="none" stroke="#e5661d" stroke-miterlimit="10" stroke-width="1.654"/>
          </g>
          <g id="Grupo_285" data-name="Grupo 285" transform="translate(15.214 86.488)">
            <path id="Trazado_931" data-name="Trazado 931" d="M231.45,466.756A264.6,264.6,0,0,0,199.622,487.2a384.933,384.933,0,0,1-15.339-37.673,290.639,290.639,0,0,1,34.539-18.311C222.628,443.3,226.774,454.977,231.45,466.756Z" transform="translate(-184.283 -431.216)" fill="none" stroke="#e5661d" stroke-miterlimit="10" stroke-width="2.551"/>
            <path id="Trazado_932" data-name="Trazado 932" d="M220.6,463.313q-8.433,4.679-16.476,10.09c-2.619-6.223-5.084-12.478-7.416-18.817q8.4-5.132,17.173-9.543Q216.942,454.288,220.6,463.313Z" transform="translate(-185.009 -432.024)" fill="none" stroke="#e5661d" stroke-miterlimit="10" stroke-width="1.654"/>
            <path id="Trazado_933" data-name="Trazado 933" d="M209.01,459.431l.169-.1.071.185-.169.1-.071-.185m-4.494-1.641c1.078,2.9,1.635,4.34,2.778,7.2,2.572-1.586,3.861-2.351,6.443-3.828-1.1-2.826-1.637-4.249-2.674-7.116-2.622,1.445-3.932,2.195-6.547,3.747Z" transform="translate(-185.466 -432.55)" fill="none" stroke="#e5661d" stroke-miterlimit="10" stroke-width="1"/>
            <path id="Trazado_934" data-name="Trazado 934" d="M200.574,487.274a391.389,391.389,0,0,1,18.647-54.793" transform="translate(-185.235 -431.29)" fill="none" stroke="#e5661d" stroke-miterlimit="10" stroke-width="1.654"/>
          </g>
          <g id="Grupo_286" data-name="Grupo 286" transform="translate(41.582 39.008)">
            <path id="Trazado_935" data-name="Trazado 935" d="M254.88,416.647c-11.785,3.385-22.992,7.177-34.421,11.621a358.483,358.483,0,0,1-8.171-37.978c12.195-3.725,24.151-6.835,36.619-9.5C250.463,392.91,252.419,404.676,254.88,416.647Z" transform="translate(-212.288 -380.788)" fill="none" stroke="#e5661d" stroke-miterlimit="10" stroke-width="2.551"/>
            <path id="Trazado_936" data-name="Trazado 936" d="M245.072,410.823q-8.946,2.441-17.726,5.623-2.236-9.413-3.849-18.975,9.07-2.9,18.29-5.078Q243.121,401.668,245.072,410.823Z" transform="translate(-212.943 -381.466)" fill="none" stroke="#e5661d" stroke-miterlimit="10" stroke-width="1.654"/>
            <path id="Trazado_937" data-name="Trazado 937" d="M234.6,404.524l.181-.054c.014.075.022.112.036.187l-.181.054c-.014-.075-.022-.113-.036-.187m-4.057-2.51c.531,2.92.814,4.372,1.416,7.259,2.769-.892,4.152-1.312,6.91-2.106-.569-2.855-.835-4.291-1.333-7.177-2.791.762-4.19,1.167-6.993,2.024Z" transform="translate(-213.355 -381.91)" fill="none" stroke="#e5661d" stroke-miterlimit="10" stroke-width="1"/>
            <path id="Trazado_938" data-name="Trazado 938" d="M220.966,428.33a375.414,375.414,0,0,1,27.7-46.484" transform="translate(-212.795 -380.85)" fill="none" stroke="#e5661d" stroke-miterlimit="10" stroke-width="1.654"/>
          </g>
          <g id="Grupo_287" data-name="Grupo 287" transform="translate(76.977)">
            <path id="Trazado_939" data-name="Trazado 939" d="M286.463,374.818c-11.961.674-23.5,1.839-35.358,3.548-.875-12.608-1.271-24.95-1.22-37.588,12.454-.985,24.579-1.456,37.071-1.417C286.343,351.268,286.177,362.9,286.463,374.818Z" transform="translate(-249.88 -339.359)" fill="none" stroke="#e5661d" stroke-miterlimit="10" stroke-width="2.551"/>
            <path id="Trazado_940" data-name="Trazado 940" d="M278.03,366.972q-9.068.412-18.138,1.532-.51-9.368-.39-18.775,9.294-.842,18.578-.985Q277.748,357.862,278.03,366.972Z" transform="translate(-250.442 -339.907)" fill="none" stroke="#e5661d" stroke-miterlimit="10" stroke-width="1.654"/>
            <path id="Trazado_941" data-name="Trazado 941" d="M269.04,358.628l.184-.012c0,.073,0,.111,0,.185l-.184.013c0-.074,0-.112,0-.185m-3.484-3.242c0,2.883.021,4.32.1,7.181,2.835-.253,4.246-.358,7.054-.525-.049-2.83-.056-4.25-.031-7.1-2.834.136-4.258.224-7.119.444Z" transform="translate(-250.797 -340.27)" fill="none" stroke="#e5661d" stroke-miterlimit="10" stroke-width="1"/>
            <path id="Trazado_942" data-name="Trazado 942" d="M251.181,378.416a300.607,300.607,0,0,1,34.957-38.2" transform="translate(-249.956 -339.409)" fill="none" stroke="#e5661d" stroke-miterlimit="10" stroke-width="1.654"/>
          </g>
        </g>
        <g id="Grupo_293" data-name="Grupo 293" transform="translate(114.053 0.262)">
          <g id="Grupo_289" data-name="Grupo 289" transform="translate(0 57.598)">
            <path id="Trazado_943" data-name="Trazado 943" d="M324.148,340.9c-11.688-1.77-23.1-3.009-34.89-3.806,1.357-12.307,3.123-24.282,5.366-36.459,12.238,1.526,24.085,3.475,36.165,5.962C328.132,318.04,325.949,329.3,324.148,340.9Z" transform="translate(-289.258 -300.638)" fill="none" stroke="#e5661d" stroke-miterlimit="10" stroke-width="2.551"/>
            <path id="Trazado_944" data-name="Trazado 944" d="M317.492,331.595q-8.862-1.426-17.846-2.2,1.143-9.141,2.891-18.2,9.149,1.051,18.174,2.749Q318.808,322.716,317.492,331.595Z" transform="translate(-289.865 -301.255)" fill="none" stroke="#e5661d" stroke-miterlimit="10" stroke-width="1.654"/>
            <path id="Trazado_945" data-name="Trazado 945" d="M310.341,321.686l.18.025c-.012.072-.018.108-.03.18l-.181-.024c.013-.073.019-.108.031-.18m-2.812-3.835c-.5,2.789-.731,4.181-1.155,6.96,2.79.328,4.176.51,6.927.912.444-2.746.685-4.121,1.205-6.876-2.771-.435-4.166-.635-6.977-1Z" transform="translate(-290.258 -301.644)" fill="none" stroke="#e5661d" stroke-miterlimit="10" stroke-width="1"/>
            <path id="Trazado_946" data-name="Trazado 946" d="M289.258,337.505a306.865,306.865,0,0,1,40.524-29.893" transform="translate(-289.258 -301.046)" fill="none" stroke="#e5661d" stroke-miterlimit="10" stroke-width="1.654"/>
          </g>
          <g id="Grupo_290" data-name="Grupo 290" transform="translate(41.531 29.002)">
            <path id="Trazado_947" data-name="Trazado 947" d="M366.622,315.265c-11.042-3.958-21.933-7.374-33.255-10.441,3.446-11.736,7.228-23.093,11.492-34.557,11.637,3.809,22.838,7.947,34.151,12.627C374.458,293.614,370.386,304.244,366.622,315.265Z" transform="translate(-333.367 -270.267)" fill="none" stroke="#e5661d" stroke-miterlimit="10" stroke-width="2.551"/>
            <path id="Trazado_948" data-name="Trazado 948" d="M361.951,304.866q-8.379-3.079-16.969-5.561,2.693-8.715,5.945-17.233,8.7,2.764,17.2,6.122Q364.77,296.419,361.951,304.866Z" transform="translate(-334.046 -270.957)" fill="none" stroke="#e5661d" stroke-miterlimit="10" stroke-width="1.654"/>
            <path id="Trazado_949" data-name="Trazado 949" d="M356.826,293.794l.17.058c-.025.069-.036.1-.06.17l-.171-.058.061-.17m-2.073-4.285c-.966,2.633-1.43,3.951-2.323,6.585,2.655.853,3.97,1.3,6.578,2.213.906-2.6,1.377-3.9,2.358-6.5-2.62-.95-3.943-1.409-6.612-2.3Z" transform="translate(-334.481 -271.392)" fill="none" stroke="#e5661d" stroke-miterlimit="10" stroke-width="1"/>
            <path id="Trazado_950" data-name="Trazado 950" d="M333.367,305.634a422.922,422.922,0,0,1,44.559-21.523" transform="translate(-333.367 -271.076)" fill="none" stroke="#e5661d" stroke-miterlimit="10" stroke-width="1.654"/>
          </g>
          <g id="Grupo_291" data-name="Grupo 291" transform="translate(87.174 9.776)">
            <path id="Trazado_951" data-name="Trazado 951" d="M412.5,298.05c-10.091-5.892-20.144-11.25-30.659-16.35,5.372-10.889,11-21.363,17.114-31.853,10.715,5.849,20.967,11.94,31.223,18.561C423.891,278.147,418.079,287.884,412.5,298.05Z" transform="translate(-381.844 -249.847)" fill="none" stroke="#e5661d" stroke-miterlimit="10" stroke-width="2.551"/>
            <path id="Trazado_952" data-name="Trazado 952" d="M409.911,286.913q-7.665-4.55-15.612-8.558,4.128-8.083,8.752-15.861,8.018,4.293,15.757,9.125Q414.123,279.1,409.911,286.913Z" transform="translate(-382.572 -250.586)" fill="none" stroke="#e5661d" stroke-miterlimit="10" stroke-width="1.654"/>
            <path id="Trazado_953" data-name="Trazado 953" d="M406.918,275.053l.156.089-.088.155-.157-.088.089-.156m-1.291-4.591c-1.394,2.415-2.073,3.626-3.4,6.054,2.446,1.322,3.655,2,6.044,3.37,1.331-2.394,2.015-3.589,3.417-5.969-2.4-1.407-3.61-2.1-6.064-3.455Z" transform="translate(-383.036 -251.052)" fill="none" stroke="#e5661d" stroke-miterlimit="10" stroke-width="1"/>
            <path id="Trazado_954" data-name="Trazado 954" d="M381.844,282.866a422.442,422.442,0,0,1,47.206-13.085" transform="translate(-381.844 -251.012)" fill="none" stroke="#e5661d" stroke-miterlimit="10" stroke-width="1.654"/>
          </g>
          <g id="Grupo_292" data-name="Grupo 292" transform="translate(135.512)">
            <path id="Trazado_955" data-name="Trazado 955" d="M460.435,289.318c-8.883-7.573-17.826-14.632-27.252-21.517,7.121-9.769,14.424-19.086,22.206-28.337,9.526,7.64,18.567,15.438,27.518,23.744C475.046,271.7,467.662,280.277,460.435,289.318Z" transform="translate(-433.183 -239.464)" fill="none" stroke="#e5661d" stroke-miterlimit="10" stroke-width="2.551"/>
            <path id="Trazado_956" data-name="Trazado 956" d="M459.975,277.8q-6.745-5.83-13.847-11.177,5.432-7.237,11.293-14.077,7.134,5.634,13.916,11.749Q465.455,270.843,459.975,277.8Z" transform="translate(-433.94 -240.229)" fill="none" stroke="#e5661d" stroke-miterlimit="10" stroke-width="1.654"/>
            <path id="Trazado_957" data-name="Trazado 957" d="M459.175,265.533l.138.115-.113.138-.139-.115c.045-.056.068-.084.114-.138m-.482-4.748c-1.78,2.134-2.654,3.207-4.368,5.366,2.173,1.732,3.245,2.609,5.354,4.382,1.718-2.125,2.593-3.182,4.378-5.28-2.114-1.807-3.186-2.7-5.364-4.468Z" transform="translate(-434.419 -240.71)" fill="none" stroke="#e5661d" stroke-miterlimit="10" stroke-width="1"/>
            <path id="Trazado_958" data-name="Trazado 958" d="M433.183,269.275a424.979,424.979,0,0,1,48.576-4.585" transform="translate(-433.183 -240.939)" fill="none" stroke="#e5661d" stroke-miterlimit="10" stroke-width="1.654"/>
          </g>
        </g>
        <g id="Grupo_298" data-name="Grupo 298" transform="translate(299.289)">
          <g id="Grupo_294" data-name="Grupo 294">
            <path id="Trazado_959" data-name="Trazado 959" d="M509.136,289.117c-7.449-9-15.045-17.505-23.141-25.925,8.69-8.379,17.477-16.266,26.74-24.006,8.1,9.177,15.693,18.427,23.111,28.162C526.6,274.327,517.836,281.472,509.136,289.117Z" transform="translate(-485.995 -239.186)" fill="none" stroke="#e5661d" stroke-miterlimit="10" stroke-width="2.551"/>
            <path id="Trazado_960" data-name="Trazado 960" d="M510.825,277.581q-5.648-6.912-11.728-13.412,6.6-6.176,13.553-11.881,6.074,6.788,11.72,13.986Q517.428,271.688,510.825,277.581Z" transform="translate(-486.761 -239.952)" fill="none" stroke="#e5661d" stroke-miterlimit="10" stroke-width="1.654"/>
            <path id="Trazado_961" data-name="Trazado 961" d="M512.241,265.3l.118.137-.136.116-.118-.137.135-.116m.341-4.756c-2.123,1.788-3.17,2.692-5.23,4.518,1.845,2.084,2.75,3.133,4.526,5.244,2.061-1.792,3.107-2.679,5.23-4.432-1.776-2.146-2.681-3.212-4.526-5.33Z" transform="translate(-487.243 -240.434)" fill="none" stroke="#e5661d" stroke-miterlimit="10" stroke-width="1"/>
            <path id="Trazado_962" data-name="Trazado 962" d="M485.995,264.682a425.386,425.386,0,0,1,48.713,3.962" transform="translate(-485.995 -240.676)" fill="none" stroke="#e5661d" stroke-miterlimit="10" stroke-width="1.654"/>
          </g>
          <g id="Grupo_295" data-name="Grupo 295" transform="translate(49.851 9.298)">
            <path id="Trazado_963" data-name="Trazado 963" d="M557.331,297.489c-5.8-10.165-11.841-19.864-18.39-29.564,10.06-6.717,20.123-12.908,30.651-18.864,6.444,10.459,12.368,20.9,18.031,31.8C577.227,286.058,567.3,291.508,557.331,297.489Z" transform="translate(-538.941 -249.061)" fill="none" stroke="#e5661d" stroke-miterlimit="10" stroke-width="2.551"/>
            <path id="Trazado_964" data-name="Trazado 964" d="M561.149,286.3q-4.386-7.79-9.282-15.256,7.6-4.906,15.494-9.277,4.848,7.752,9.189,15.83Q568.712,281.675,561.149,286.3Z" transform="translate(-539.697 -249.804)" fill="none" stroke="#e5661d" stroke-miterlimit="10" stroke-width="1.654"/>
            <path id="Trazado_965" data-name="Trazado 965" d="M564.772,274.382c.038.062.056.093.092.155l-.154.09c-.037-.062-.055-.093-.092-.155l.154-.09m1.167-4.612c-2.417,1.379-3.612,2.082-5.97,3.512,1.466,2.375,2.181,3.566,3.572,5.956,2.354-1.4,3.546-2.082,5.956-3.427-1.386-2.424-2.1-3.632-3.558-6.041Z" transform="translate(-540.17 -250.272)" fill="none" stroke="#e5661d" stroke-miterlimit="10" stroke-width="1"/>
            <path id="Trazado_966" data-name="Trazado 966" d="M538.941,269.1a422.3,422.3,0,0,1,47.586,12.54" transform="translate(-538.941 -250.232)" fill="none" stroke="#e5661d" stroke-miterlimit="10" stroke-width="1.654"/>
          </g>
          <g id="Grupo_296" data-name="Grupo 296" transform="translate(98.533 28.177)">
            <path id="Trazado_967" data-name="Trazado 967" d="M603.689,314.458c-3.963-11.066-8.243-21.7-13.044-32.424,11.2-4.782,22.285-9.015,33.818-12.922,4.568,11.489,8.608,22.856,12.3,34.655C625.493,306.918,614.667,310.414,603.689,314.458Z" transform="translate(-590.645 -269.112)" fill="none" stroke="#e5661d" stroke-miterlimit="10" stroke-width="2.551"/>
            <path id="Trazado_968" data-name="Trazado 968" d="M609.569,303.977q-2.974-8.464-6.526-16.7,8.41-3.432,17.05-6.267,3.459,8.526,6.336,17.277Q617.9,300.83,609.569,303.977Z" transform="translate(-591.37 -269.807)" fill="none" stroke="#e5661d" stroke-miterlimit="10" stroke-width="1.654"/>
            <path id="Trazado_969" data-name="Trazado 969" d="M615.346,292.819c.026.068.039.1.065.17l-.17.059-.064-.17.169-.059m1.977-4.319c-2.649.909-3.961,1.379-6.56,2.351,1.038,2.6,1.538,3.907,2.5,6.515,2.588-.938,3.894-1.392,6.531-2.266-.948-2.641-1.442-3.962-2.469-6.6Z" transform="translate(-591.821 -270.245)" fill="none" stroke="#e5661d" stroke-miterlimit="10" stroke-width="1"/>
            <path id="Trazado_970" data-name="Trazado 970" d="M590.645,282.836a315.623,315.623,0,0,1,45.1,21.136" transform="translate(-590.645 -269.914)" fill="none" stroke="#e5661d" stroke-miterlimit="10" stroke-width="1.654"/>
          </g>
          <g id="Grupo_297" data-name="Grupo 297" transform="translate(144.648 56.646)">
            <path id="Trazado_971" data-name="Trazado 971" d="M646.771,340.037c-1.944-11.695-4.29-23-7.147-34.5,12.04-2.569,23.842-4.589,36.048-6.186,2.475,12.266,4.428,24.3,5.947,36.724C669.833,336.916,658.445,338.207,646.771,340.037Z" transform="translate(-639.624 -299.349)" fill="none" stroke="#e5661d" stroke-miterlimit="10" stroke-width="2.551"/>
            <path id="Trazado_972" data-name="Trazado 972" d="M654.587,330.63q-1.428-8.932-3.485-17.756,8.989-1.756,18.126-2.857,1.905,9.111,3.176,18.327Q663.437,329.157,654.587,330.63Z" transform="translate(-640.295 -299.973)" fill="none" stroke="#e5661d" stroke-miterlimit="10" stroke-width="1.654"/>
            <path id="Trazado_973" data-name="Trazado 973" d="M662.4,320.617l.033.181-.18.025-.033-.181.18-.025m2.751-3.874c-2.8.376-4.2.583-6.961,1.034.564,2.772.826,4.157,1.31,6.921,2.746-.417,4.129-.608,6.915-.95-.466-2.8-.718-4.2-1.264-7.005Z" transform="translate(-640.709 -300.366)" fill="none" stroke="#e5661d" stroke-miterlimit="10" stroke-width="1"/>
            <path id="Trazado_974" data-name="Trazado 974" d="M639.624,305.919a301.982,301.982,0,0,1,41.088,29.737" transform="translate(-639.624 -299.733)" fill="none" stroke="#e5661d" stroke-miterlimit="10" stroke-width="1.654"/>
          </g>
        </g>
        <g id="Grupo_303" data-name="Grupo 303" transform="translate(485.933 93.361)">
          <g id="Grupo_299" data-name="Grupo 299">
            <path id="Trazado_975" data-name="Trazado 975" d="M685,374.143c.22-12.045-.037-23.766-.774-35.791,12.5-.077,24.624.364,37.089,1.331.178,12.786-.128,25.242-.942,38C708.507,375.969,696.972,374.807,685,374.143Z" transform="translate(-684.226 -338.344)" fill="none" stroke="#e5661d" stroke-miterlimit="10" stroke-width="2.551"/>
            <path id="Trazado_976" data-name="Trazado 976" d="M694.542,366.2q.23-9.2-.193-18.408,9.279.119,18.589.951.208,9.5-.248,18.976Q703.622,366.6,694.542,366.2Z" transform="translate(-684.818 -338.896)" fill="none" stroke="#e5661d" stroke-miterlimit="10" stroke-width="1.654"/>
            <path id="Trazado_977" data-name="Trazado 977" d="M704.189,357.75v.187l-.184-.012v-.187l.184.012m3.458-3.281c-2.862-.217-4.288-.3-7.124-.434.049,2.878.054,4.313.025,7.172,2.81.164,4.222.267,7.058.519.056-2.892.065-4.344.041-7.256Z" transform="translate(-685.179 -339.261)" fill="none" stroke="#e5661d" stroke-miterlimit="10" stroke-width="1"/>
            <path id="Trazado_978" data-name="Trazado 978" d="M684.226,338.353a293.526,293.526,0,0,1,35.4,38.332" transform="translate(-684.226 -338.344)" fill="none" stroke="#e5661d" stroke-miterlimit="10" stroke-width="1.654"/>
          </g>
          <g id="Grupo_300" data-name="Grupo 300" transform="translate(30.192 39.343)">
            <path id="Trazado_979" data-name="Trazado 979" d="M716.292,416.424c2.481-12.122,4.43-24.015,5.956-36.294,12.49,2.7,24.442,5.844,36.649,9.624a349.3,349.3,0,0,1-8.221,38.495C739.261,423.72,728.08,419.866,716.292,416.424Z" transform="translate(-716.292 -380.13)" fill="none" stroke="#e5661d" stroke-miterlimit="10" stroke-width="2.551"/>
            <path id="Trazado_980" data-name="Trazado 980" d="M727.42,410.533q1.964-9.263,3.284-18.661,9.215,2.2,18.3,5.15-1.606,9.681-3.865,19.226Q736.373,413.017,727.42,410.533Z" transform="translate(-716.943 -380.816)" fill="none" stroke="#e5661d" stroke-miterlimit="10" stroke-width="1.654"/>
            <path id="Trazado_981" data-name="Trazado 981" d="M738.717,404.162c-.014.075-.021.114-.036.189l-.18-.055c.014-.075.022-.113.036-.189l.18.055m4.059-2.54c-2.8-.872-4.2-1.281-6.995-2.054-.5,2.924-.764,4.377-1.334,7.269,2.758.806,4.14,1.233,6.907,2.139.605-2.925.891-4.4,1.422-7.353Z" transform="translate(-717.353 -381.266)" fill="none" stroke="#e5661d" stroke-miterlimit="10" stroke-width="1"/>
            <path id="Trazado_982" data-name="Trazado 982" d="M722.618,380.13a366.077,366.077,0,0,1,27.875,46.913" transform="translate(-716.662 -380.13)" fill="none" stroke="#e5661d" stroke-miterlimit="10" stroke-width="1.654"/>
          </g>
          <g id="Grupo_301" data-name="Grupo 301" transform="translate(51.71 87.462)">
            <path id="Trazado_983" data-name="Trazado 983" d="M739.147,467.24a341.807,341.807,0,0,0,12.865-36,283.177,283.177,0,0,1,34.439,18.681,382.3,382.3,0,0,1-15.676,38.191A258.306,258.306,0,0,0,739.147,467.24Z" transform="translate(-739.147 -431.236)" fill="none" stroke="#e5661d" stroke-miterlimit="10" stroke-width="2.551"/>
            <path id="Trazado_984" data-name="Trazado 984" d="M751.484,463.788q3.73-9.136,6.852-18.513,8.735,4.49,17.11,9.737c-2.378,6.428-4.9,12.769-7.574,19.074Q759.888,468.573,751.484,463.788Z" transform="translate(-739.868 -432.057)" fill="none" stroke="#e5661d" stroke-miterlimit="10" stroke-width="1.654"/>
            <path id="Trazado_985" data-name="Trazado 985" d="M764.021,459.891c-.029.074-.043.113-.073.188-.067-.042-.1-.06-.168-.1l.073-.188.168.1m4.507-1.651c-2.6-1.585-3.908-2.349-6.519-3.825-1.058,2.907-1.6,4.35-2.729,7.212,2.569,1.507,3.853,2.289,6.412,3.907,1.167-2.9,1.735-4.355,2.836-7.3Z" transform="translate(-740.324 -432.591)" fill="none" stroke="#e5661d" stroke-miterlimit="10" stroke-width="1"/>
            <path id="Trazado_986" data-name="Trazado 986" d="M752.811,431.236A385.276,385.276,0,0,1,771.265,486.7" transform="translate(-739.946 -431.236)" fill="none" stroke="#e5661d" stroke-miterlimit="10" stroke-width="1.654"/>
          </g>
          <g id="Grupo_302" data-name="Grupo 302" transform="translate(63.61 144.334)">
            <path id="Trazado_987" data-name="Trazado 987" d="M751.785,526.565a374.878,374.878,0,0,0,19.729-34.926,284.239,284.239,0,0,1,30.217,28.493c-7.238,12.686-14.874,24.988-23.038,37.1A269,269,0,0,0,751.785,526.565Z" transform="translate(-751.785 -491.639)" fill="none" stroke="#e5661d" stroke-miterlimit="10" stroke-width="2.551"/>
            <path id="Trazado_988" data-name="Trazado 988" d="M764.8,525.932q5.406-8.872,10.393-17.965c5.134,4.749,10.074,9.63,14.907,14.706q-5.427,9.4-11.242,18.522C774.325,535.946,769.717,530.81,764.8,525.932Z" transform="translate(-752.546 -492.594)" fill="none" stroke="#e5661d" stroke-miterlimit="10" stroke-width="1.654"/>
            <path id="Trazado_989" data-name="Trazado 989" d="M778.035,524.9l-.108.183c-.057-.06-.087-.09-.145-.15l.108-.183.145.15m4.76-.613c-2.246-2.358-3.376-3.505-5.655-5.742-1.615,2.827-2.438,4.228-4.11,7,2.228,2.269,3.335,3.434,5.528,5.825,1.722-2.8,2.57-4.222,4.237-7.083Z" transform="translate(-753.027 -493.212)" fill="none" stroke="#e5661d" stroke-miterlimit="10" stroke-width="1"/>
            <path id="Trazado_990" data-name="Trazado 990" d="M772.739,491.639a427.319,427.319,0,0,1,7.158,63.986" transform="translate(-753.01 -491.639)" fill="none" stroke="#e5661d" stroke-miterlimit="10" stroke-width="1.654"/>
          </g>
        </g>
      </g>
      <g id="Grupo_325" data-name="Grupo 325" transform="translate(0 301.251)">
        <g id="Grupo_309" data-name="Grupo 309" transform="translate(488.51 1.883)">
          <g id="Grupo_305" data-name="Grupo 305" transform="translate(62.404)">
            <path id="Trazado_991" data-name="Trazado 991" d="M751.68,591.616a263.249,263.249,0,0,0,26.793-30.476c8.217,12.166,15.915,24.522,23.22,37.254A278.653,278.653,0,0,1,771.6,626.67,387.017,387.017,0,0,0,751.68,591.616Z" transform="translate(-751.68 -561.14)" fill="none" stroke="#e5661d" stroke-miterlimit="10" stroke-width="2.551"/>
            <path id="Trazado_992" data-name="Trazado 992" d="M764.716,594.343c4.9-4.843,9.486-9.946,14-15.164q5.872,9.186,11.336,18.6c-4.811,5.041-9.73,9.885-14.845,14.6Q770.15,603.23,764.716,594.343Z" transform="translate(-752.442 -562.194)" fill="none" stroke="#e5661d" stroke-miterlimit="10" stroke-width="1.654"/>
            <path id="Trazado_993" data-name="Trazado 993" d="M777.968,596.725l-.144.149-.109-.184.145-.149.108.184m4.766.645c-1.682-2.872-2.537-4.293-4.273-7.111-2.184,2.377-3.286,3.533-5.505,5.786,1.686,2.783,2.516,4.188,4.148,7.027,2.268-2.22,3.4-3.359,5.63-5.7Z" transform="translate(-752.924 -562.842)" fill="none" stroke="#e5661d" stroke-miterlimit="10" stroke-width="1"/>
            <path id="Trazado_994" data-name="Trazado 994" d="M779.728,561.14a429.828,429.828,0,0,1-6.575,64.122" transform="translate(-752.935 -561.14)" fill="none" stroke="#e5661d" stroke-miterlimit="10" stroke-width="1.654"/>
          </g>
          <g id="Grupo_306" data-name="Grupo 306" transform="translate(50.744 65.53)">
            <path id="Trazado_995" data-name="Trazado 995" d="M739.3,651.395a254.159,254.159,0,0,0,31.583-20.657,395.958,395.958,0,0,1,15.969,38.272,278.85,278.85,0,0,1-34.373,18.462A355.445,355.445,0,0,0,739.3,651.395Z" transform="translate(-739.296 -630.738)" fill="none" stroke="#e5661d" stroke-miterlimit="10" stroke-width="2.551"/>
            <path id="Trazado_996" data-name="Trazado 996" d="M751.7,656.66q8.389-4.721,16.362-10.19c2.725,6.321,5.293,12.675,7.726,19.114q-8.343,5.183-17.079,9.626Q755.5,665.824,751.7,656.66Z" transform="translate(-740.021 -631.658)" fill="none" stroke="#e5661d" stroke-miterlimit="10" stroke-width="1.654"/>
            <path id="Trazado_997" data-name="Trazado 997" d="M764.3,661.73l-.168.1c-.029-.076-.044-.114-.073-.188l.168-.1c.029.075.044.113.073.189m4.531,1.677c-1.125-2.946-1.7-4.408-2.9-7.31-2.554,1.6-3.835,2.375-6.4,3.866,1.148,2.869,1.706,4.314,2.789,7.226,2.608-1.457,3.91-2.214,6.508-3.782Z" transform="translate(-740.479 -632.22)" fill="none" stroke="#e5661d" stroke-miterlimit="10" stroke-width="1"/>
            <path id="Trazado_998" data-name="Trazado 998" d="M771.731,630.738a385.614,385.614,0,0,1-17.865,55.528" transform="translate(-740.148 -630.738)" fill="none" stroke="#e5661d" stroke-miterlimit="10" stroke-width="1.654"/>
          </g>
          <g id="Grupo_307" data-name="Grupo 307" transform="translate(29.473 122.263)">
            <path id="Trazado_999" data-name="Trazado 999" d="M716.705,702.622c11.81-3.373,23.009-7.16,34.45-11.628a364.856,364.856,0,0,1,8.682,38.52c-12.237,3.725-24.216,6.811-36.732,9.443C721.413,726.669,719.316,714.748,716.705,702.622Z" transform="translate(-716.705 -690.994)" fill="none" stroke="#e5661d" stroke-miterlimit="10" stroke-width="2.551"/>
            <path id="Trazado_1000" data-name="Trazado 1000" d="M727.966,710.043q8.971-2.431,17.752-5.617,2.366,9.547,4.1,19.241-9.081,2.9-18.337,5.056Q730.036,719.326,727.966,710.043Z" transform="translate(-717.363 -691.779)" fill="none" stroke="#e5661d" stroke-miterlimit="10" stroke-width="1.654"/>
            <path id="Trazado_1001" data-name="Trazado 1001" d="M739.4,717.4l-.181.054-.038-.189.181-.054.038.189m4.109,2.561c-.568-2.959-.87-4.432-1.51-7.359-2.772.89-4.157,1.31-6.922,2.1.605,2.894.891,4.35,1.424,7.275,2.8-.758,4.2-1.161,7.009-2.018Z" transform="translate(-717.779 -692.257)" fill="none" stroke="#e5661d" stroke-miterlimit="10" stroke-width="1"/>
            <path id="Trazado_1002" data-name="Trazado 1002" d="M751.6,690.994a362.429,362.429,0,0,1-27.311,46.96" transform="translate(-717.148 -690.994)" fill="none" stroke="#e5661d" stroke-miterlimit="10" stroke-width="1.654"/>
          </g>
          <g id="Grupo_308" data-name="Grupo 308" transform="translate(0 170.226)">
            <path id="Trazado_1003" data-name="Trazado 1003" d="M685.648,745.319c12.054-.608,23.673-1.717,35.627-3.384,1,12.751,1.508,25.229,1.557,38.019-12.579.926-24.817,1.323-37.43,1.2C685.945,769.115,686.029,757.366,685.648,745.319Z" transform="translate(-685.402 -741.935)" fill="none" stroke="#e5661d" stroke-miterlimit="10" stroke-width="2.551"/>
            <path id="Trazado_1004" data-name="Trazado 1004" d="M695.379,754.516q9.152-.362,18.287-1.442.6,9.479.551,18.988-9.371.8-18.75.88Q695.738,763.73,695.379,754.516Z" transform="translate(-685.985 -742.586)" fill="none" stroke="#e5661d" stroke-miterlimit="10" stroke-width="1.654"/>
            <path id="Trazado_1005" data-name="Trazado 1005" d="M705.242,763.77l-.186.011c0-.074,0-.112,0-.186l.185-.011c0,.074,0,.112,0,.186m3.542,3.3c-.025-2.914-.056-4.367-.156-7.261-2.858.239-4.28.336-7.114.49.073,2.861.09,4.3.088,7.178,2.86-.12,4.3-.2,7.183-.407Z" transform="translate(-686.344 -742.98)" fill="none" stroke="#e5661d" stroke-miterlimit="10" stroke-width="1"/>
            <path id="Trazado_1006" data-name="Trazado 1006" d="M721.331,741.935a288.464,288.464,0,0,1-34.974,38.418" transform="translate(-685.458 -741.935)" fill="none" stroke="#e5661d" stroke-miterlimit="10" stroke-width="1.654"/>
          </g>
        </g>
        <g id="Grupo_314" data-name="Grupo 314" transform="translate(299.772 207.238)">
          <g id="Grupo_310" data-name="Grupo 310" transform="translate(146.768)">
            <path id="Trazado_1007" data-name="Trazado 1007" d="M647.449,779.245c11.838,1.873,23.4,3.207,35.347,4.092-1.3,12.419-3.031,24.484-5.257,36.77-12.426-1.628-24.454-3.681-36.713-6.28C643.5,802.29,645.671,790.952,647.449,779.245Z" transform="translate(-640.827 -779.245)" fill="none" stroke="#e5661d" stroke-miterlimit="10" stroke-width="2.551"/>
            <path id="Trazado_1008" data-name="Trazado 1008" d="M655.528,789.95q8.989,1.506,18.089,2.346-1.109,9.222-2.846,18.354-9.276-1.126-18.439-2.908Q654.233,798.906,655.528,789.95Z" transform="translate(-641.5 -779.871)" fill="none" stroke="#e5661d" stroke-miterlimit="10" stroke-width="1.654"/>
            <path id="Trazado_1009" data-name="Trazado 1009" d="M663.634,800.8l-.183-.026c.012-.072.018-.108.03-.181l.183.026c-.012.072-.018.108-.03.181m2.866,3.891c.5-2.811.723-4.215,1.141-7.017-2.828-.35-4.233-.546-7.024-.973-.44,2.769-.678,4.157-1.194,6.934,2.811.459,4.227.671,7.077,1.056Z" transform="translate(-641.914 -780.265)" fill="none" stroke="#e5661d" stroke-miterlimit="10" stroke-width="1"/>
            <path id="Trazado_1010" data-name="Trazado 1010" d="M682.86,783.591a297.423,297.423,0,0,1-40.948,29.887" transform="translate(-640.89 -779.499)" fill="none" stroke="#e5661d" stroke-miterlimit="10" stroke-width="1.654"/>
          </g>
          <g id="Grupo_311" data-name="Grupo 311" transform="translate(100.317 23.771)">
            <path id="Trazado_1011" data-name="Trazado 1011" d="M604.12,804.492c11.228,4.085,22.308,7.624,33.823,10.811-3.484,11.821-7.314,23.233-11.658,34.765-11.854-3.933-23.268-8.2-34.793-13.017C596.147,826.271,600.293,815.593,604.12,804.492Z" transform="translate(-591.492 -804.492)" fill="none" stroke="#e5661d" stroke-miterlimit="10" stroke-width="2.551"/>
            <path id="Trazado_1012" data-name="Trazado 1012" d="M610.3,816.427q8.529,3.179,17.267,5.752-2.727,8.772-6.039,17.337-8.861-2.858-17.516-6.32Q607.44,824.927,610.3,816.427Z" transform="translate(-592.224 -805.19)" fill="none" stroke="#e5661d" stroke-miterlimit="10" stroke-width="1.654"/>
            <path id="Trazado_1013" data-name="Trazado 1013" d="M616.424,828.524l-.174-.06c.025-.069.038-.1.062-.171l.174.06c-.025.069-.037.1-.062.171m2.112,4.341c.983-2.649,1.455-3.973,2.361-6.625-2.7-.882-4.042-1.341-6.7-2.287-.921,2.617-1.4,3.926-2.4,6.54,2.667.98,4.014,1.455,6.732,2.372Z" transform="translate(-592.679 -805.63)" fill="none" stroke="#e5661d" stroke-miterlimit="10" stroke-width="1"/>
            <path id="Trazado_1014" data-name="Trazado 1014" d="M638.012,815.974a315.115,315.115,0,0,1-45.344,21.346" transform="translate(-591.561 -805.163)" fill="none" stroke="#e5661d" stroke-miterlimit="10" stroke-width="1.654"/>
          </g>
          <g id="Grupo_312" data-name="Grupo 312" transform="translate(50.906 39.556)">
            <path id="Trazado_1015" data-name="Trazado 1015" d="M557.19,821.257c10.28,6.039,20.524,11.537,31.235,16.774-5.509,10.954-11.283,21.459-17.568,31.986-10.928-5.992-21.383-12.231-31.842-19.009C545.49,841.24,551.457,831.478,557.19,821.257Z" transform="translate(-539.014 -821.257)" fill="none" stroke="#e5661d" stroke-miterlimit="10" stroke-width="2.551"/>
            <path id="Trazado_1016" data-name="Trazado 1016" d="M561.311,834.018q7.809,4.662,15.91,8.776-4.233,8.118-8.987,15.925-8.179-4.4-16.066-9.35Q556.988,841.858,561.311,834.018Z" transform="translate(-539.783 -822.003)" fill="none" stroke="#e5661d" stroke-miterlimit="10" stroke-width="1.654"/>
            <path id="Trazado_1017" data-name="Trazado 1017" d="M565.282,846.957l-.16-.09.09-.156.16.09c-.036.063-.054.094-.09.156m1.3,4.645c1.433-2.424,2.131-3.64,3.488-6.079-2.493-1.356-3.726-2.047-6.161-3.455-1.367,2.4-2.07,3.6-3.511,5.994,2.443,1.44,3.68,2.149,6.183,3.54Z" transform="translate(-540.264 -822.474)" fill="none" stroke="#e5661d" stroke-miterlimit="10" stroke-width="1"/>
            <path id="Trazado_1018" data-name="Trazado 1018" d="M588.5,839.072a430.145,430.145,0,0,1-48.251,12.778" transform="translate(-539.086 -822.298)" fill="none" stroke="#e5661d" stroke-miterlimit="10" stroke-width="1.654"/>
          </g>
          <g id="Grupo_313" data-name="Grupo 313" transform="translate(0 47.331)">
            <path id="Trazado_1019" data-name="Trazado 1019" d="M508.122,829.515c9.038,7.734,18.139,14.941,27.731,21.976-7.352,9.813-14.885,19.146-22.917,28.41-9.693-7.8-18.887-15.759-27.989-24.241C493.054,847.165,500.664,838.585,508.122,829.515Z" transform="translate(-484.947 -829.515)" fill="none" stroke="#e5661d" stroke-miterlimit="10" stroke-width="2.551"/>
            <path id="Trazado_1020" data-name="Trazado 1020" d="M510.07,842.694q6.858,5.95,14.091,11.415-5.6,7.254-11.653,14.11-7.265-5.758-14.158-12Q504.422,849.663,510.07,842.694Z" transform="translate(-485.73 -830.285)" fill="none" stroke="#e5661d" stroke-miterlimit="10" stroke-width="1.654"/>
            <path id="Trazado_1021" data-name="Trazado 1021" d="M511.786,856.063l-.141-.118.118-.139.141.118-.118.138m.46,4.8c1.838-2.136,2.739-3.214,4.506-5.376-2.212-1.77-3.3-2.666-5.448-4.474-1.771,2.129-2.675,3.187-4.517,5.29,2.15,1.844,3.242,2.757,5.458,4.561Z" transform="translate(-486.224 -830.772)" fill="none" stroke="#e5661d" stroke-miterlimit="10" stroke-width="1"/>
            <path id="Trazado_1022" data-name="Trazado 1022" d="M535.926,852.855a439.9,439.9,0,0,1-49.73,4.173" transform="translate(-485.02 -830.879)" fill="none" stroke="#e5661d" stroke-miterlimit="10" stroke-width="1.654"/>
          </g>
        </g>
        <g id="Grupo_319" data-name="Grupo 319" transform="translate(110.649 205.429)">
          <g id="Grupo_315" data-name="Grupo 315" transform="translate(138.162 48.887)">
            <path id="Trazado_1023" data-name="Trazado 1023" d="M458.354,829.245c7.536,9.165,15.227,17.824,23.429,26.4-8.985,8.4-18.064,16.286-27.625,24.019-8.186-9.349-15.852-18.767-23.336-28.687C440.34,844.019,449.378,836.888,458.354,829.245Z" transform="translate(-430.822 -829.245)" fill="none" stroke="#e5661d" stroke-miterlimit="10" stroke-width="2.551"/>
            <path id="Trazado_1024" data-name="Trazado 1024" d="M458.068,842.426q5.707,7.033,11.868,13.659-6.81,6.178-14,11.881-6.148-6.919-11.844-14.247Q451.257,848.313,458.068,842.426Z" transform="translate(-431.598 -830.015)" fill="none" stroke="#e5661d" stroke-miterlimit="10" stroke-width="1.654"/>
            <path id="Trazado_1025" data-name="Trazado 1025" d="M457.475,855.8l-.119-.139.14-.116.119.139-.14.116m-.4,4.8c2.193-1.787,3.273-2.691,5.4-4.517-1.868-2.122-2.783-3.192-4.579-5.341-2.126,1.79-3.205,2.677-5.4,4.428,1.794,2.184,2.708,3.271,4.575,5.429Z" transform="translate(-432.089 -830.502)" fill="none" stroke="#e5661d" stroke-miterlimit="10" stroke-width="1"/>
            <path id="Trazado_1026" data-name="Trazado 1026" d="M481.855,857.006a440.913,440.913,0,0,1-49.8-4.461" transform="translate(-430.894 -830.607)" fill="none" stroke="#e5661d" stroke-miterlimit="10" stroke-width="1.654"/>
          </g>
          <g id="Grupo_316" data-name="Grupo 316" transform="translate(88.618 40.596)">
            <path id="Trazado_1027" data-name="Trazado 1027" d="M409.321,820.439c5.806,10.325,11.851,20.169,18.425,30.022-10.375,6.7-20.75,12.876-31.585,18.806-6.434-10.632-12.332-21.236-17.959-32.317C388.869,831.8,399.076,826.386,409.321,820.439Z" transform="translate(-378.202 -820.439)" fill="none" stroke="#e5661d" stroke-miterlimit="10" stroke-width="2.551"/>
            <path id="Trazado_1028" data-name="Trazado 1028" d="M406.793,833.2q4.378,7.908,9.287,15.495-7.829,4.888-15.955,9.239-4.85-7.882-9.168-16.083Q399.014,837.8,406.793,833.2Z" transform="translate(-378.948 -821.185)" fill="none" stroke="#e5661d" stroke-miterlimit="10" stroke-width="1.654"/>
            <path id="Trazado_1029" data-name="Trazado 1029" d="M403.891,846.151c-.037-.063-.055-.1-.092-.158l.159-.089c.038.063.056.095.092.158l-.159.089m-1.251,4.65c2.487-1.372,3.716-2.072,6.145-3.495-1.467-2.413-2.182-3.624-3.571-6.05-2.422,1.388-3.648,2.07-6.128,3.408,1.383,2.461,2.094,3.689,3.554,6.137Z" transform="translate(-379.423 -821.656)" fill="none" stroke="#e5661d" stroke-miterlimit="10" stroke-width="1"/>
            <path id="Trazado_1030" data-name="Trazado 1030" d="M427.815,851.512a433.344,433.344,0,0,1-48.432-13.1" transform="translate(-378.271 -821.49)" fill="none" stroke="#e5661d" stroke-miterlimit="10" stroke-width="1.654"/>
          </g>
          <g id="Grupo_317" data-name="Grupo 317" transform="translate(42.023 24.283)">
            <path id="Trazado_1031" data-name="Trazado 1031" d="M362.5,803.114c3.874,11.2,8.076,21.957,12.809,32.824-11.483,4.733-22.857,8.924-34.664,12.781-4.457-11.643-8.375-23.152-11.931-35.1C340.212,810.532,351.281,807.095,362.5,803.114Z" transform="translate(-328.714 -803.114)" fill="none" stroke="#e5661d" stroke-miterlimit="10" stroke-width="2.551"/>
            <path id="Trazado_1032" data-name="Trazado 1032" d="M357.779,815.032q2.9,8.561,6.391,16.913-8.621,3.392-17.464,6.189-3.384-8.645-6.166-17.5Q349.257,818.136,357.779,815.032Z" transform="translate(-329.405 -803.811)" fill="none" stroke="#e5661d" stroke-miterlimit="10" stroke-width="1.654"/>
            <path id="Trazado_1033" data-name="Trazado 1033" d="M352.623,827.127c-.024-.069-.038-.1-.062-.171l.173-.059.063.172-.174.058m-2.08,4.344c2.711-.9,4.054-1.361,6.715-2.319-1.017-2.637-1.5-3.957-2.441-6.6-2.648.924-3.985,1.371-6.681,2.231.923,2.674,1.4,4.011,2.408,6.684Z" transform="translate(-329.849 -804.251)" fill="none" stroke="#e5661d" stroke-miterlimit="10" stroke-width="1"/>
            <path id="Trazado_1034" data-name="Trazado 1034" d="M375.373,836.628A318.975,318.975,0,0,1,329.8,814.92" transform="translate(-328.778 -803.804)" fill="none" stroke="#e5661d" stroke-miterlimit="10" stroke-width="1.654"/>
          </g>
          <g id="Grupo_318" data-name="Grupo 318">
            <path id="Trazado_1035" data-name="Trazado 1035" d="M319.435,777.323c1.775,11.787,3.964,23.178,6.67,34.787-12.253,2.5-24.272,4.45-36.683,5.977-2.278-12.378-4.033-24.51-5.34-37.028C296.03,780.292,307.591,779.074,319.435,777.323Z" transform="translate(-284.082 -777.323)" fill="none" stroke="#e5661d" stroke-miterlimit="10" stroke-width="2.551"/>
            <path id="Trazado_1036" data-name="Trazado 1036" d="M312.634,787.977q1.291,9,3.226,17.9-9.152,1.7-18.432,2.747-1.767-9.2-2.884-18.479Q303.636,789.393,312.634,787.977Z" transform="translate(-284.694 -777.946)" fill="none" stroke="#e5661d" stroke-miterlimit="10" stroke-width="1.654"/>
            <path id="Trazado_1037" data-name="Trazado 1037" d="M305.349,798.789c-.012-.073-.018-.109-.03-.182l.183-.025c.012.073.018.11.03.183l-.183.024m-2.858,3.883c2.849-.359,4.264-.557,7.075-.991-.523-2.8-.764-4.193-1.206-6.978-2.791.4-4.2.581-7.024.906.422,2.819.652,4.232,1.155,7.063Z" transform="translate(-285.091 -778.339)" fill="none" stroke="#e5661d" stroke-miterlimit="10" stroke-width="1"/>
            <path id="Trazado_1038" data-name="Trazado 1038" d="M326.161,812.393a301.061,301.061,0,0,1-41.121-30.24" transform="translate(-284.138 -777.605)" fill="none" stroke="#e5661d" stroke-miterlimit="10" stroke-width="1.654"/>
          </g>
        </g>
        <g id="Grupo_324" data-name="Grupo 324">
          <g id="Grupo_320" data-name="Grupo 320" transform="translate(73.219 169.498)">
            <path id="Trazado_1039" data-name="Trazado 1039" d="M281.641,742.914c-.446,12.079-.4,23.838.117,35.914-12.617,0-24.857-.521-37.43-1.567.075-12.83.632-25.315,1.707-38.1C257.975,740.948,269.591,742.178,281.641,742.914Z" transform="translate(-244.328 -739.161)" fill="none" stroke="#e5661d" stroke-miterlimit="10" stroke-width="2.551"/>
            <path id="Trazado_1040" data-name="Trazado 1040" d="M273.017,752.027q-.407,9.215-.154,18.467-9.372-.178-18.748-1.069-.023-9.534.622-19.029Q263.859,751.568,273.017,752.027Z" transform="translate(-244.9 -739.818)" fill="none" stroke="#e5661d" stroke-miterlimit="10" stroke-width="1.654"/>
            <path id="Trazado_1041" data-name="Trazado 1041" d="M263.835,761.2c0-.074,0-.112,0-.187l.185.013c0,.075,0,.113,0,.187l-.185-.013m-3.553,3.272c2.885.235,4.322.331,7.182.479.006-2.889.029-4.328.113-7.194-2.832-.182-4.255-.294-7.112-.563-.113,2.9-.15,4.356-.184,7.278Z" transform="translate(-245.261 -740.215)" fill="none" stroke="#e5661d" stroke-miterlimit="10" stroke-width="1"/>
            <path id="Trazado_1042" data-name="Trazado 1042" d="M281.91,778.891a289.641,289.641,0,0,1-34.986-38.66" transform="translate(-244.48 -739.224)" fill="none" stroke="#e5661d" stroke-miterlimit="10" stroke-width="1.654"/>
          </g>
          <g id="Grupo_321" data-name="Grupo 321" transform="translate(38.26 121.347)">
            <path id="Trazado_1043" data-name="Trazado 1043" d="M250.576,699.949c-2.734,12.089-4.931,23.957-6.711,36.222-12.5-2.757-24.458-5.96-36.667-9.8a348.573,348.573,0,0,1,9.056-38.351C227.645,692.583,238.808,696.469,250.576,699.949Z" transform="translate(-207.198 -688.021)" fill="none" stroke="#e5661d" stroke-miterlimit="10" stroke-width="2.551"/>
            <path id="Trazado_1044" data-name="Trazado 1044" d="M240.572,707.245q-2.161,9.232-3.678,18.615-9.231-2.24-18.3-5.231,1.815-9.659,4.28-19.162Q231.615,704.725,240.572,707.245Z" transform="translate(-207.864 -688.807)" fill="none" stroke="#e5661d" stroke-miterlimit="10" stroke-width="1.654"/>
            <path id="Trazado_1045" data-name="Trazado 1045" d="M229.905,714.48c.016-.075.024-.113.04-.189l.18.056c-.016.075-.024.113-.04.189l-.18-.056M225.773,717c2.8.882,4.2,1.3,6.992,2.084.558-2.916.857-4.367,1.49-7.25-2.758-.817-4.139-1.249-6.9-2.166-.669,2.916-.985,4.382-1.579,7.332Z" transform="translate(-208.284 -689.286)" fill="none" stroke="#e5661d" stroke-miterlimit="10" stroke-width="1"/>
            <path id="Trazado_1046" data-name="Trazado 1046" d="M244.46,736.246A358.479,358.479,0,0,1,217.379,689.3" transform="translate(-207.793 -688.096)" fill="none" stroke="#e5661d" stroke-miterlimit="10" stroke-width="1.654"/>
          </g>
          <g id="Grupo_322" data-name="Grupo 322" transform="translate(13.167 64.832)">
            <path id="Trazado_1047" data-name="Trazado 1047" d="M228.336,648.77a343.749,343.749,0,0,0-13.64,35.742,280.139,280.139,0,0,1-34.148-18.686A383.682,383.682,0,0,1,197.048,628,254.54,254.54,0,0,0,228.336,648.77Z" transform="translate(-180.548 -627.997)" fill="none" stroke="#e5661d" stroke-miterlimit="10" stroke-width="2.551"/>
            <path id="Trazado_1048" data-name="Trazado 1048" d="M217.333,653.89q-3.926,9.057-7.253,18.368-8.672-4.492-16.955-9.727c2.518-6.375,5.173-12.66,7.986-18.9Q209,649.113,217.333,653.89Z" transform="translate(-181.283 -628.911)" fill="none" stroke="#e5661d" stroke-miterlimit="10" stroke-width="1.654"/>
            <path id="Trazado_1049" data-name="Trazado 1049" d="M205.587,658.812c.031-.074.046-.112.076-.186l.167.1-.076.186-.167-.1m-4.552,1.624c2.577,1.582,3.869,2.344,6.458,3.818,1.121-2.883,1.7-4.314,2.885-7.153-2.547-1.5-3.817-2.283-6.349-3.9-1.231,2.87-1.83,4.316-2.994,7.232Z" transform="translate(-181.746 -629.471)" fill="none" stroke="#e5661d" stroke-miterlimit="10" stroke-width="1"/>
            <path id="Trazado_1050" data-name="Trazado 1050" d="M215.738,684.6a375.937,375.937,0,0,1-17.368-55.123" transform="translate(-181.59 -628.083)" fill="none" stroke="#e5661d" stroke-miterlimit="10" stroke-width="1.654"/>
          </g>
          <g id="Grupo_323" data-name="Grupo 323">
            <path id="Trazado_1051" data-name="Trazado 1051" d="M216.679,589.445a381.649,381.649,0,0,0-20.449,34.527,277.444,277.444,0,0,1-29.667-28.225c7.5-12.524,15.385-24.664,23.779-36.607A261.216,261.216,0,0,0,216.679,589.445Z" transform="translate(-166.563 -559.14)" fill="none" stroke="#e5661d" stroke-miterlimit="10" stroke-width="2.551"/>
            <path id="Trazado_1052" data-name="Trazado 1052" d="M205.151,592.042q-5.583,8.763-10.761,17.75c-5.045-4.707-9.89-9.537-14.625-14.557q5.621-9.279,11.617-18.285C195.815,582.135,200.326,587.214,205.151,592.042Z" transform="translate(-167.335 -560.181)" fill="none" stroke="#e5661d" stroke-miterlimit="10" stroke-width="1.654"/>
            <path id="Trazado_1053" data-name="Trazado 1053" d="M192.84,594.294l.111-.18.142.148-.111.181c-.057-.059-.086-.089-.142-.149m-4.776.6c2.2,2.332,3.309,3.468,5.545,5.681,1.673-2.793,2.524-4.176,4.253-6.914-2.185-2.245-3.27-3.4-5.418-5.761-1.779,2.769-2.655,4.168-4.38,6.994Z" transform="translate(-167.82 -560.821)" fill="none" stroke="#e5661d" stroke-miterlimit="10" stroke-width="1"/>
            <path id="Trazado_1054" data-name="Trazado 1054" d="M197.706,624.07a434.808,434.808,0,0,1-5.9-63.247" transform="translate(-168.039 -559.238)" fill="none" stroke="#e5661d" stroke-miterlimit="10" stroke-width="1.654"/>
          </g>
        </g>
      </g>
    </g>
    <circle id="Elipse_5" data-name="Elipse 5" cx="305.886" cy="305.886" r="305.886" transform="translate(161.385 236.184)" fill="none" stroke="#e5661d" stroke-miterlimit="10" stroke-width="4"/>
    <circle id="Elipse_6" data-name="Elipse 6" cx="251.961" cy="251.961" r="251.961" transform="translate(215.31 290.109)" fill="none" stroke="#e5661d" stroke-miterlimit="10" stroke-width="3.295"/>
  </g>
</svg>
