<svg xmlns="http://www.w3.org/2000/svg" width="426.222" height="134.811" viewBox="0 0 426.222 134.811">
  <g id="Grupo_1824" data-name="Grupo 1824" transform="translate(-944.928 -299.27)">
    <g id="Grupo_780" data-name="Grupo 780" transform="translate(947.937 302.956)">
      <g id="Grupo_779" data-name="Grupo 779">
        <path id="Trazado_2503" data-name="Trazado 2503" d="M999.942,430.393l-52.005-63.719,52.005-63.719,52.005,63.719Z" transform="translate(-947.937 -302.956)" fill="none" stroke="#063916" stroke-miterlimit="10" stroke-width="4.662"/>
        <path id="Trazado_2504" data-name="Trazado 2504" d="M984.853,380.466l-26.345-32.279,26.345-32.279,26.345,32.279Z" transform="translate(-932.848 -284.468)" fill="none" stroke="#063916" stroke-miterlimit="10" stroke-width="2.05"/>
        <g id="Trazado_2505" data-name="Trazado 2505" transform="translate(-923.335 -272.813)" fill="none" stroke-miterlimit="10">
          <path d="M975.341,348.99l-10.168-12.458,10.168-12.458,10.168,12.458Z" stroke="none"/>
          <path d="M 975.340576171875 343.990478515625 L 981.4281616210938 336.5317687988281 L 975.340576171875 329.0730590820312 L 969.2529296875 336.5317687988281 L 975.340576171875 343.990478515625 M 975.340576171875 348.98974609375 L 965.172607421875 336.5317687988281 L 975.340576171875 324.0737915039062 L 985.5084228515625 336.5317687988281 L 975.340576171875 348.98974609375 Z" stroke="none" fill="#063916"/>
        </g>
        <line id="Línea_47" data-name="Línea 47" x2="101.619" transform="translate(0 63.719)" fill="none" stroke="#063916" stroke-miterlimit="10" stroke-width="2.05"/>
      </g>
    </g>
    <g id="Grupo_782" data-name="Grupo 782" transform="translate(1054.028 302.956)">
      <g id="Grupo_781" data-name="Grupo 781">
        <path id="Trazado_2506" data-name="Trazado 2506" d="M1043.649,430.393l-52.005-63.719,52.005-63.719,52.005,63.719Z" transform="translate(-991.643 -302.956)" fill="none" stroke="#063916" stroke-miterlimit="10" stroke-width="4.662"/>
        <path id="Trazado_2507" data-name="Trazado 2507" d="M1028.56,380.466l-26.345-32.279,26.345-32.279,26.345,32.279Z" transform="translate(-976.555 -284.468)" fill="none" stroke="#063916" stroke-miterlimit="10" stroke-width="2.05"/>
        <g id="Trazado_2508" data-name="Trazado 2508" transform="translate(-967.042 -272.813)" fill="none" stroke-miterlimit="10">
          <path d="M1019.047,348.99l-10.168-12.458,10.168-12.458,10.168,12.458Z" stroke="none"/>
          <path d="M 1019.047119140625 343.9904479980469 L 1025.134765625 336.5317687988281 L 1019.047119140625 329.0730895996094 L 1012.959594726562 336.5317687988281 L 1019.047119140625 343.9904479980469 M 1019.047058105469 348.98974609375 L 1008.879333496094 336.5317687988281 L 1019.047058105469 324.0737915039062 L 1029.215087890625 336.5317687988281 L 1019.047058105469 348.98974609375 Z" stroke="none" fill="#063916"/>
        </g>
        <line id="Línea_48" data-name="Línea 48" x2="101.619" transform="translate(0 63.719)" fill="none" stroke="#063916" stroke-miterlimit="10" stroke-width="2.05"/>
      </g>
    </g>
    <g id="Grupo_784" data-name="Grupo 784" transform="translate(1158.039 302.956)">
      <g id="Grupo_783" data-name="Grupo 783">
        <path id="Trazado_2509" data-name="Trazado 2509" d="M1086.5,430.393l-52.005-63.719,52.005-63.719,52.005,63.719Z" transform="translate(-1034.493 -302.956)" fill="none" stroke="#063916" stroke-miterlimit="10" stroke-width="4.662"/>
        <path id="Trazado_2510" data-name="Trazado 2510" d="M1071.409,380.466l-26.345-32.279,26.345-32.279,26.345,32.279Z" transform="translate(-1019.404 -284.468)" fill="none" stroke="#063916" stroke-miterlimit="10" stroke-width="2.05"/>
        <g id="Trazado_2511" data-name="Trazado 2511" transform="translate(-1009.891 -272.813)" fill="none" stroke-miterlimit="10">
          <path d="M1061.9,348.99l-10.168-12.458,10.168-12.458,10.168,12.458Z" stroke="none"/>
          <path d="M 1061.896362304688 343.990478515625 L 1067.984008789062 336.5317687988281 L 1061.896362304688 329.0730590820312 L 1055.808837890625 336.5317687988281 L 1061.896362304688 343.990478515625 M 1061.896362304688 348.98974609375 L 1051.728515625 336.5317687988281 L 1061.896362304688 324.0737915039062 L 1072.064331054688 336.5317687988281 L 1061.896362304688 348.98974609375 Z" stroke="none" fill="#063916"/>
        </g>
        <line id="Línea_49" data-name="Línea 49" x2="101.619" transform="translate(0 63.719)" fill="none" stroke="#063916" stroke-miterlimit="10" stroke-width="2.05"/>
      </g>
    </g>
    <g id="Grupo_786" data-name="Grupo 786" transform="translate(1264.131 302.956)">
      <g id="Grupo_785" data-name="Grupo 785">
        <path id="Trazado_2512" data-name="Trazado 2512" d="M1130.2,430.393,1078.2,366.674l52.005-63.719,52,63.719Z" transform="translate(-1078.199 -302.956)" fill="none" stroke="#063916" stroke-miterlimit="10" stroke-width="4.662"/>
        <path id="Trazado_2513" data-name="Trazado 2513" d="M1115.116,380.466l-26.345-32.279,26.345-32.279,26.345,32.279Z" transform="translate(-1063.111 -284.468)" fill="none" stroke="#063916" stroke-miterlimit="10" stroke-width="2.05"/>
        <g id="Trazado_2514" data-name="Trazado 2514" transform="translate(-1053.598 -272.813)" fill="none" stroke-miterlimit="10">
          <path d="M1105.6,348.99l-10.168-12.458,10.168-12.458,10.168,12.458Z" stroke="none"/>
          <path d="M 1105.603271484375 343.9904174804688 L 1111.690673828125 336.5317687988281 L 1105.603271484375 329.0731201171875 L 1099.515747070312 336.5317687988281 L 1105.603271484375 343.9904174804688 M 1105.603271484375 348.98974609375 L 1095.435424804688 336.5317687988281 L 1105.603271484375 324.0737915039062 L 1115.77099609375 336.5317687988281 L 1105.603271484375 348.98974609375 Z" stroke="none" fill="#063916"/>
        </g>
        <line id="Línea_50" data-name="Línea 50" x2="101.619" transform="translate(0 63.719)" fill="none" stroke="#063916" stroke-miterlimit="10" stroke-width="2.05"/>
      </g>
    </g>
  </g>
</svg>
