<svg xmlns="http://www.w3.org/2000/svg" xmlns:xlink="http://www.w3.org/1999/xlink" width="1247" height="1046" viewBox="0 0 1247 1046">
  <defs>
    <clipPath id="clip-Victimas_por_etnia">
      <rect width="1247" height="1046"/>
    </clipPath>
  </defs>
  <g id="Victimas_por_etnia" data-name="Victimas por etnia" clip-path="url(#clip-Victimas_por_etnia)">
    <rect width="1247" height="1046" fill="#4f722d"/>
    <g id="Grupo_1966" data-name="Grupo 1966" transform="translate(3272.815 -4881.297)">
      <text id="Elemento_interactivo" data-name="Elemento interactivo" transform="translate(-3010.095 5037.437)" fill="#fff" font-size="21" font-family="ObjektivMk1-Bold, Objektiv Mk1" font-weight="700" letter-spacing="-0.06em"><tspan x="0" y="0">Elemento interactivo</tspan></text>
      <circle id="Elipse_79" data-name="Elipse 79" cx="7.927" cy="7.927" r="7.927" transform="translate(-3034.819 5021.258)" fill="#e5661d"/>
      <g id="Grupo_1402" data-name="Grupo 1402" transform="translate(-3036.053 5028.425)">
        <path id="path4109" d="M919.46,486.484c-.007.442-.009.885-.013,1.328l0,.185-.186.007c-.442.015-.886.02-1.33.022-.024,4.5-.011,8.993-.013,13.49v.193l-.193,0c-.374,0-.75.007-1.125.017l-.2.005,0-.2c.008-.44,0-.878,0-1.315-1.526-.013-3.053-.021-4.578,0,0,1.52,0,3.039,0,4.559.441.008.889.028,1.338,0l.244-.017-.037.242a8.814,8.814,0,0,0-.019,1.323c.421.022.847.026,1.273.027h.181l.015.181c.071.939.036,1.883.052,2.827.438.018.879.025,1.321.029l.191,0,0,.192c.007.943.005,1.884.02,2.827.442.006.888.029,1.334,0l.225-.013-.017.223c-.074.943-.01,1.891-.017,2.836q.646.013,1.293.018h.194l0,.193c.019,1.456.01,2.912.029,4.367,2.512.037,5.027.04,7.539.037,2.573,0,5.145.018,7.719-.044-.042-1.451.089-2.9.028-4.353l-.007-.207.209,0c.432.013.865,0,1.293-.01.016-1.444.018-2.889.02-4.333v-.179l.176-.017a12.921,12.921,0,0,1,1.326-.042c.01-1.617-.02-3.233.028-4.85v-.009c-.053-1.943-.015-3.887-.039-5.83-.436,0-.87,0-1.3-.007l-.189,0-.005-.189c-.008-.429-.014-.86-.007-1.291-.446-.013-.891,0-1.334-.024l-.172-.011-.013-.171c-.032-.447-.016-.9-.022-1.348-.948,0-1.895,0-2.841-.009l-.191,0,0-.192c-.007-.428-.013-.855-.007-1.286-1.454-.077-2.913-.027-4.367-.044l-.186,0-.007-.183c-.02-.441-.028-.883-.027-1.328-.946,0-1.891,0-2.836-.017l-.188-.005,0-.189c-.019-1.958-.008-3.916-.015-5.873q-.379,0-.757-.005c-.189,0-.376,0-.563,0l-.2,0,0-.2a12.457,12.457,0,0,0-.037-1.345c-1,0-2,.006-3,0Z" transform="translate(-911.813 -486.484)" fill="#fff"/>
        <path id="path3016" d="M919.074,486.484c1,.005,2,0,3,0a13.092,13.092,0,0,1,.037,1.508c-1.017.011-2.034,0-3.051.011C919.064,487.5,919.065,486.991,919.074,486.484Z" transform="translate(-911.428 -486.484)" fill="#222"/>
        <path id="path3018" d="M917.7,487.95c.506,0,1.012,0,1.518-.023q0,8.39,0,16.78-.765.019-1.528,0c-.009-.5-.009-1,0-1.5-.507-.019-1.013-.017-1.52-.015-.017-.511-.02-1.024,0-1.535.505-.018,1.012-.013,1.519-.02,0-4.561-.013-9.121.012-13.683Z" transform="translate(-911.583 -486.407)" fill="#222"/>
        <path id="path3020" d="M921.963,487.951c.5-.007,1.009,0,1.515,0,.006,2.022-.007,4.045.015,6.067,1.009.026,2.018.012,3.027.017,0,.5,0,1.009.029,1.513,1.519.025,3.041-.036,4.558.044q-.008.739.008,1.479c1.011.019,2.023.007,3.035.011.006.507-.025,1.016.028,1.521.5.044,1.007.018,1.51.033-.007.494,0,.988.01,1.482.5.008,1,.013,1.5.008.024,1.945-.015,3.889.039,5.833-.049,1.619-.019,3.237-.03,4.856a11.34,11.34,0,0,0-1.5.056c0,1.5,0,3.009-.019,4.513-.5.016-1,.033-1.5.008-.057-1.531-.029-3.064-.016-4.595q.755.008,1.51,0,0-5.335.006-10.668c-.5-.007-1.006-.006-1.508,0-.028-.5,0-.993-.037-1.487a8.137,8.137,0,0,0-1.511-.039c-.01,1.526.018,3.051-.013,4.578l-1.494,0c-.034-2.036,0-4.07-.012-6.105-1.021-.006-2.04,0-3.059,0,0,1.524.016,3.049,0,4.573q-.758.016-1.515,0c-.01-2.033-.012-4.066.013-6.1-1.02,0-2.041-.005-3.061.006-.011,2.03.008,4.062,0,6.094-.511.014-1.022.015-1.532,0q0-6.85.011-13.7Z" transform="translate(-911.275 -486.406)" fill="#222"/>
        <path id="path3026" d="M911.815,499.528c1.526-.025,3.052-.018,4.578-.005.011.505.019,1.01,0,1.515-1.012.024-2.024.006-3.035.014-.037,1.008.054,2.018-.015,3.024a11.478,11.478,0,0,1-1.533.011C911.811,502.566,911.817,501.048,911.815,499.528Z" transform="translate(-911.813 -485.792)" fill="#222"/>
        <path id="path3030" d="M913.313,503.881a8.188,8.188,0,0,1,1.482-.034c.01.509.012,1.018.006,1.528.51,0,1.018,0,1.528.008.012,1.014,0,2.028.005,3.043q.755,0,1.51.005c-.007,1.016.065,2.041-.038,3.053a13.752,13.752,0,0,1-1.488,0c-.015-1-.014-2.01-.022-3.015-.5,0-1.007-.012-1.511-.033-.016-1,.033-2-.058-3-.488,0-.975-.007-1.461-.033a6.571,6.571,0,0,1,.046-1.523Z" transform="translate(-911.737 -485.562)" fill="#222"/>
        <path id="path3038" d="M917.645,511.106c.5-.039,1-.016,1.5-.013.014,1.012,0,2.024,0,3.035.508,0,1.017,0,1.525.016.011,1.012-.008,2.025.006,3.037q6.087.014,12.172.005c.015-1.012,0-2.025.006-3.039.519-.007,1.038-.014,1.558.016.082,1.519-.066,3.038-.023,4.558-2.573.062-5.146.04-7.719.043-2.513,0-5.027,0-7.538-.036-.021-1.52-.01-3.039-.033-4.558-.5,0-.991-.008-1.487-.019.007-1.015-.074-2.037.031-3.046Z" transform="translate(-911.506 -485.177)" fill="#222"/>
      </g>
    </g>
    <g id="Grupo_1965" data-name="Grupo 1965" transform="translate(-52 -1759)">
      <g id="Grupo_1400" data-name="Grupo 1400" transform="translate(2349 -1010)">
        <rect id="Rectángulo_258" data-name="Rectángulo 258" width="18.731" height="674" transform="translate(-2248 2969)" fill="#e5661d"/>
        <rect id="Rectángulo_260" data-name="Rectángulo 260" width="18.731" height="345" transform="translate(-2211.43 3298)" fill="#e5661d"/>
        <rect id="Rectángulo_262" data-name="Rectángulo 262" width="18.731" height="260" transform="translate(-2173.968 3383)" fill="#e5661d"/>
        <rect id="Rectángulo_263" data-name="Rectángulo 263" width="18.731" height="226" transform="translate(-2137.398 3417)" fill="#e5661d"/>
        <rect id="Rectángulo_266" data-name="Rectángulo 266" width="18.731" height="109" transform="translate(-2099.936 3534)" fill="#e5661d"/>
        <rect id="Rectángulo_267" data-name="Rectángulo 267" width="18.731" height="271" transform="translate(-2063.365 3372)" fill="#e5661d"/>
        <rect id="Rectángulo_269" data-name="Rectángulo 269" width="18.731" height="226" transform="translate(-2028.579 3417)" fill="#e5661d"/>
        <rect id="Rectángulo_271" data-name="Rectángulo 271" width="18.731" height="209" transform="translate(-1990.225 3434)" fill="#e5661d"/>
        <rect id="Rectángulo_273" data-name="Rectángulo 273" width="17.839" height="148" transform="translate(-1952.763 3495)" fill="#e5661d"/>
        <rect id="Rectángulo_275" data-name="Rectángulo 275" width="18.731" height="115" transform="translate(-1916.193 3528)" fill="#e5661d"/>
        <rect id="Rectángulo_277" data-name="Rectángulo 277" width="18.731" height="87" transform="translate(-1879.623 3556)" fill="#e5661d"/>
        <rect id="Rectángulo_279" data-name="Rectángulo 279" width="18.731" height="9" transform="translate(-1842.161 3634)" fill="#e5661d"/>
        <rect id="Rectángulo_280" data-name="Rectángulo 280" width="18.731" height="103" transform="translate(-1842.161 3531)" fill="#d1a943"/>
        <rect id="Rectángulo_281" data-name="Rectángulo 281" width="18.731" height="99" transform="translate(-1805.591 3544)" fill="#e5661d"/>
        <rect id="Rectángulo_282" data-name="Rectángulo 282" width="18.731" height="75" transform="translate(-1768.129 3568)" fill="#e5661d"/>
        <rect id="Rectángulo_284" data-name="Rectángulo 284" width="18.731" height="68" transform="translate(-1731.559 3575)" fill="#e5661d"/>
        <rect id="Rectángulo_286" data-name="Rectángulo 286" width="18.731" height="40" transform="translate(-1694.097 3603)" fill="#e5661d"/>
        <rect id="Rectángulo_288" data-name="Rectángulo 288" width="18.731" height="66" transform="translate(-1657.526 3577)" fill="#e5661d"/>
        <rect id="Rectángulo_289" data-name="Rectángulo 289" width="17.839" height="60" transform="translate(-1620.064 3583)" fill="#e5661d"/>
        <rect id="Rectángulo_292" data-name="Rectángulo 292" width="18.731" height="23" transform="translate(-1583.494 3620)" fill="#e5661d"/>
        <rect id="Rectángulo_294" data-name="Rectángulo 294" width="17.839" height="23" transform="translate(-1546.032 3620)" fill="#e5661d"/>
        <rect id="Rectángulo_296" data-name="Rectángulo 296" width="18.731" height="45" transform="translate(-1509.462 3598)" fill="#e5661d"/>
        <rect id="Rectángulo_298" data-name="Rectángulo 298" width="17.839" height="17" transform="translate(-1472 3626)" fill="#e5661d"/>
        <rect id="Rectángulo_300" data-name="Rectángulo 300" width="18.731" height="10" transform="translate(-1436.322 3633)" fill="#e5661d"/>
        <rect id="Rectángulo_302" data-name="Rectángulo 302" width="18.731" height="8" transform="translate(-1398.86 3635)" fill="#e5661d"/>
        <rect id="Rectángulo_304" data-name="Rectángulo 304" width="18.731" height="16" transform="translate(-1361.398 3627)" fill="#e5661d"/>
        <rect id="Rectángulo_306" data-name="Rectángulo 306" width="18.731" height="12" transform="translate(-1324.828 3631)" fill="#e5661d"/>
        <rect id="Rectángulo_308" data-name="Rectángulo 308" width="18.731" height="11" transform="translate(-1287.366 3632)" fill="#e5661d"/>
        <rect id="Rectángulo_310" data-name="Rectángulo 310" width="18.731" height="13" transform="translate(-1250.796 3630)" fill="#e5661d"/>
        <rect id="Rectángulo_312" data-name="Rectángulo 312" width="18.731" height="3" transform="translate(-1213.333 3640)" fill="#e5661d"/>
        <rect id="Rectángulo_314" data-name="Rectángulo 314" width="18.731" height="2" transform="translate(-1176.763 3641)" fill="#e5661d"/>
        <rect id="Rectángulo_316" data-name="Rectángulo 316" width="17.839" height="1" transform="translate(-1139.301 3642)" fill="#e5661d"/>
        <rect id="Rectángulo_318" data-name="Rectángulo 318" width="19.623" height="4" transform="translate(-1103.623 3639)" fill="#e5661d"/>
      </g>
      <rect id="Rectángulo_259" data-name="Rectángulo 259" width="18.731" height="160" transform="translate(101 1800)" fill="#d1a943"/>
      <rect id="Rectángulo_261" data-name="Rectángulo 261" width="18.731" height="489" transform="translate(137.57 1800)" fill="#d1a943"/>
      <rect id="Rectángulo_264" data-name="Rectángulo 264" width="18.731" height="443" transform="translate(175.032 1931)" fill="#d1a943"/>
      <rect id="Rectángulo_265" data-name="Rectángulo 265" width="18.731" height="304" transform="translate(211.603 2104)" fill="#d1a943"/>
      <rect id="Rectángulo_268" data-name="Rectángulo 268" width="18.731" height="22" transform="translate(285.635 2341)" fill="#d1a943"/>
      <rect id="Rectángulo_270" data-name="Rectángulo 270" width="18.731" height="67" transform="translate(320.421 2341)" fill="#d1a943"/>
      <rect id="Rectángulo_272" data-name="Rectángulo 272" width="18.731" height="40" transform="translate(358.775 2385)" fill="#d1a943"/>
      <rect id="Rectángulo_274" data-name="Rectángulo 274" width="17.839" height="43" transform="translate(396.237 2443)" fill="#d1a943"/>
      <rect id="Rectángulo_276" data-name="Rectángulo 276" width="18.731" height="15" transform="translate(432.807 2504)" fill="#d1a943"/>
      <rect id="Rectángulo_278" data-name="Rectángulo 278" width="18.731" height="40" transform="translate(469.377 2507)" fill="#d1a943"/>
      <rect id="Rectángulo_283" data-name="Rectángulo 283" width="18.731" height="18" transform="translate(580.871 2541)" fill="#d1a943"/>
      <rect id="Rectángulo_285" data-name="Rectángulo 285" width="18.731" height="22" transform="translate(617.441 2544)" fill="#d1a943"/>
      <rect id="Rectángulo_287" data-name="Rectángulo 287" width="18.731" height="50" transform="translate(654.903 2544)" fill="#d1a943"/>
      <rect id="Rectángulo_290" data-name="Rectángulo 290" width="18.731" height="20" transform="translate(691.474 2548)" fill="#d1a943"/>
      <rect id="Rectángulo_291" data-name="Rectángulo 291" width="17.839" height="16" transform="translate(728.936 2558)" fill="#d1a943"/>
      <rect id="Rectángulo_293" data-name="Rectángulo 293" width="18.731" height="38" transform="translate(765.506 2573)" fill="#d1a943"/>
      <rect id="Rectángulo_295" data-name="Rectángulo 295" width="17.839" height="38" transform="translate(802.968 2573)" fill="#d1a943"/>
      <rect id="Rectángulo_297" data-name="Rectángulo 297" width="18.731" height="1" transform="translate(839.538 2588)" fill="#d1a943"/>
      <rect id="Rectángulo_299" data-name="Rectángulo 299" width="17.839" height="19" transform="translate(877 2598)" fill="#d1a943"/>
      <rect id="Rectángulo_301" data-name="Rectángulo 301" width="18.731" height="18" transform="translate(912.678 2606)" fill="#d1a943"/>
      <rect id="Rectángulo_303" data-name="Rectángulo 303" width="18.731" height="9" transform="translate(950.14 2617)" fill="#d1a943"/>
      <rect id="Rectángulo_305" data-name="Rectángulo 305" width="18.731" height="1" transform="translate(987.602 2617)" fill="#d1a943"/>
      <rect id="Rectángulo_307" data-name="Rectángulo 307" width="18.731" height="5" transform="translate(1024.172 2617)" fill="#d1a943"/>
      <rect id="Rectángulo_309" data-name="Rectángulo 309" width="18.731" height="4" transform="translate(1061.634 2619)" fill="#d1a943"/>
      <rect id="Rectángulo_311" data-name="Rectángulo 311" width="18.731" height="2" transform="translate(1098.205 2619)" fill="#d1a943"/>
      <rect id="Rectángulo_313" data-name="Rectángulo 313" width="18.731" height="8" transform="translate(1135.667 2623)" fill="#d1a943"/>
      <rect id="Rectángulo_315" data-name="Rectángulo 315" width="18.731" height="7" transform="translate(1172.237 2625)" fill="#d1a943"/>
      <rect id="Rectángulo_317" data-name="Rectángulo 317" width="17.839" height="7" transform="translate(1209.699 2626)" fill="#d1a943"/>
      <rect id="Rectángulo_319" data-name="Rectángulo 319" width="19.623" height="2" transform="translate(1245.377 2628)" fill="#d1a943"/>
      <rect id="Rectángulo_320" data-name="Rectángulo 320" width="18.731" height="7" transform="translate(543.409 2528)" fill="#d1a943"/>
      <rect id="Rectángulo_321" data-name="Rectángulo 321" width="18.731" height="274" transform="translate(249.064 2251)" fill="#d1a943"/>
    </g>
    <text id="Nariño" transform="translate(89.218 940.598) rotate(-90)" fill="#063916" font-size="10" font-family="Henriette-Bold, Henriette" font-weight="700"><tspan x="15.327" y="9">NARIÑO</tspan></text>
    <text id="choco" transform="translate(126.914 932.362) rotate(-90)" fill="#063916" font-size="10" font-family="Henriette-Bold, Henriette" font-weight="700"><tspan x="12.001" y="9">CHOCO</tspan></text>
    <text id="antioquia" transform="translate(161.478 947.65) rotate(-90)" fill="#063916" font-size="10" font-family="Henriette-Bold, Henriette" font-weight="700"><tspan x="5.759" y="9">ANTIOQUIA</tspan></text>
    <text id="Valle_del_cauca" data-name="Valle del cauca" transform="translate(200.871 975.848) rotate(-90)" fill="#063916" font-size="10" font-family="Henriette-Bold, Henriette" font-weight="700"><tspan x="3.397" y="9">VALLE DEL CAUCA</tspan></text>
    <text id="la_Guajira" data-name="la Guajira" transform="translate(235.088 959.661) rotate(-90)" fill="#063916" font-size="10" font-family="Henriette-Bold, Henriette" font-weight="700"><tspan x="14.74" y="9">LA GUAJIRA</tspan></text>
    <text id="cesar" transform="translate(271.522 959.661) rotate(-90)" fill="#063916" font-size="10" font-family="Henriette-Bold, Henriette" font-weight="700"><tspan x="41.59" y="9">CESAR</tspan></text>
    <text id="cordoba" transform="translate(311.492 959.661) rotate(-90)" fill="#063916" font-size="10" font-family="Henriette-Bold, Henriette" font-weight="700"><tspan x="25.29" y="9">CORDOBA</tspan></text>
    <text id="putumayo" transform="translate(346.742 959.661) rotate(-90)" fill="#063916" font-size="10" font-family="Henriette-Bold, Henriette" font-weight="700"><tspan x="19.03" y="9">PUTUMAYO</tspan></text>
    <text id="tolima" transform="translate(383.959 959.661) rotate(-90)" fill="#063916" font-size="10" font-family="Henriette-Bold, Henriette" font-weight="700"><tspan x="36.05" y="9">TOLIMA</tspan></text>
    <text id="meta" transform="translate(421.177 959.661) rotate(-90)" fill="#063916" font-size="10" font-family="Henriette-Bold, Henriette" font-weight="700"><tspan x="46.97" y="9">META</tspan></text>
    <text id="bolivar" transform="translate(458.395 959.661) rotate(-90)" fill="#063916" font-size="10" font-family="Henriette-Bold, Henriette" font-weight="700"><tspan x="30.42" y="9">BOLIVAR</tspan></text>
    <text id="caldas" transform="translate(492.496 947.661) rotate(-90)" fill="#063916" font-size="10" font-family="Henriette-Bold, Henriette" font-weight="700"><tspan x="23.23" y="9">CALDAS</tspan></text>
    <text id="risaralda" transform="translate(532.656 947.661) rotate(-90)" fill="#063916" font-size="10" font-family="Henriette-Bold, Henriette" font-weight="700"><tspan x="4.57" y="9">RISARALDA</tspan></text>
    <text id="guaviare" transform="translate(567.342 947.661) rotate(-90)" fill="#063916" font-size="10" font-family="Henriette-Bold, Henriette" font-weight="700"><tspan x="11.3" y="9">GUAVIARE</tspan></text>
    <text id="magdalena" transform="translate(607.266 951.661) rotate(-90)" fill="#063916" font-size="10" font-family="Henriette-Bold, Henriette" font-weight="700"><tspan x="4.36" y="9">MAGDALENA</tspan></text>
    <text id="caqueta" transform="translate(644.483 947.661) rotate(-90)" fill="#063916" font-size="10" font-family="Henriette-Bold, Henriette" font-weight="700"><tspan x="16.19" y="9">CAQUETA</tspan></text>
    <text id="arauca" transform="translate(679.446 947.661) rotate(-90)" fill="#063916" font-size="10" font-family="Henriette-Bold, Henriette" font-weight="700"><tspan x="20.88" y="9">ARAUCA</tspan></text>
    <text id="sin_Información" data-name="sin Información" transform="translate(716.471 976.775) rotate(-90)" fill="#063916" font-size="10" font-family="Henriette-Bold, Henriette" font-weight="700"><tspan x="0.845" y="9">SIN INFORMACIÓN</tspan></text>
    <text id="sucre" transform="translate(756.136 947.661) rotate(-90)" fill="#063916" font-size="10" font-family="Henriette-Bold, Henriette" font-weight="700"><tspan x="29.24" y="9">SUCRE</tspan></text>
    <text id="vaupes" transform="translate(791.341 947.661) rotate(-90)" fill="#063916" font-size="10" font-family="Henriette-Bold, Henriette" font-weight="700"><tspan x="23.36" y="9">VAUPES</tspan></text>
    <text id="norte_de_Santander" data-name="norte de Santander" transform="translate(830.572 1000.207) rotate(-90)" fill="#063916" font-size="10" font-family="Henriette-Bold, Henriette" font-weight="700"><tspan x="0" y="9">NORTE DE SANTANDER</tspan></text>
    <text id="Santander" transform="translate(866.945 992.207) rotate(-90)" fill="#063916" font-size="10" font-family="Henriette-Bold, Henriette" font-weight="700"><tspan x="46.167" y="9">SANTANDER</tspan></text>
    <text id="boyaca" transform="translate(905.007 992.207) rotate(-90)" fill="#063916" font-size="10" font-family="Henriette-Bold, Henriette" font-weight="700"><tspan x="66.937" y="9">BOYACA</tspan></text>
    <text id="guainia" transform="translate(942.225 992.207) rotate(-90)" fill="#063916" font-size="10" font-family="Henriette-Bold, Henriette" font-weight="700"><tspan x="64.267" y="9">GUAINIA</tspan></text>
    <text id="huila" transform="translate(979.442 992.207) rotate(-90)" fill="#063916" font-size="10" font-family="Henriette-Bold, Henriette" font-weight="700"><tspan x="75.497" y="9">HUILA</tspan></text>
    <text id="casanare" transform="translate(1016.66 992.207) rotate(-90)" fill="#063916" font-size="10" font-family="Henriette-Bold, Henriette" font-weight="700"><tspan x="53.367" y="9">CASANARE</tspan></text>
    <text id="amazonas" transform="translate(1053.878 992.207) rotate(-90)" fill="#063916" font-size="10" font-family="Henriette-Bold, Henriette" font-weight="700"><tspan x="50.817" y="9">AMAZONAS</tspan></text>
    <text id="Bogotá_" data-name="Bogotá " transform="translate(1091.096 992.207) rotate(-90)" fill="#063916" font-size="10" font-family="Henriette-Bold, Henriette" font-weight="700"><tspan x="65.827" y="9">BOGOTÁ </tspan></text>
    <text id="cundinamarca" transform="translate(1128.313 992.207) rotate(-90)" fill="#063916" font-size="10" font-family="Henriette-Bold, Henriette" font-weight="700"><tspan x="25.567" y="9">CUNDINAMARCA</tspan></text>
    <g id="Grupo_1967" data-name="Grupo 1967" transform="translate(128 -1816)">
      <text id="Víctimas_Indígenas" data-name="Víctimas Indígenas" transform="translate(835 1892)" fill="#fff" font-size="15" font-family="BasicGothicPro-Book, Basic Gothic Pro"><tspan x="0" y="12">Víctimas Indígenas</tspan></text>
      <text id="convenciones_" data-name="convenciones " transform="translate(808 1857)" fill="#fff" font-size="15" font-family="BasicGothicPro-Book, Basic Gothic Pro"><tspan x="0" y="12">CONVENCIONES </tspan></text>
      <text id="Víctimas_Afro" data-name="Víctimas Afro" transform="translate(835 1927)" fill="#fff" font-size="15" font-family="BasicGothicPro-Book, Basic Gothic Pro"><tspan x="0" y="12">Víctimas Afro</tspan></text>
      <rect id="Rectángulo_326" data-name="Rectángulo 326" width="19" height="17" transform="translate(808 1892)" fill="#e5661d"/>
      <rect id="Rectángulo_327" data-name="Rectángulo 327" width="19" height="17" transform="translate(808 1923)" fill="#decd66"/>
    </g>
    <g id="Tag_1" data-name="Tag 1" transform="translate(326.757 621)">
      <g id="Grupo_1525" data-name="Grupo 1525" transform="translate(-384.757 -2247)">
        <rect id="Rectángulo_376" data-name="Rectángulo 376" width="135" height="29" rx="14" transform="translate(389 2247)" fill="#063916"/>
        <rect id="Rectángulo_377" data-name="Rectángulo 377" width="7" height="7" transform="translate(384.757 2261.5) rotate(-45)" fill="#063916"/>
      </g>
      <text id="_63_víctimas_Afro" data-name="63 víctimas Afro" transform="translate(21.743 6.354)" fill="#fff" font-size="12" font-family="Henriette-Bold, Henriette" font-weight="700"><tspan x="0" y="11">63 víctimas Afro</tspan></text>
    </g>
    <text id="atlantico" transform="translate(1165.531 992.207) rotate(-90)" fill="#063916" font-size="10" font-family="Henriette-Bold, Henriette" font-weight="700"><tspan x="51.127" y="9">ATLANTICO</tspan></text>
    <text id="quindio" transform="translate(1202.749 992.207) rotate(-90)" fill="#063916" font-size="10" font-family="Henriette-Bold, Henriette" font-weight="700"><tspan x="62.897" y="9">QUINDIO</tspan></text>
  </g>
</svg>
