<svg xmlns="http://www.w3.org/2000/svg" xmlns:xlink="http://www.w3.org/1999/xlink" width="1166" height="706" viewBox="0 0 1166 706">
  <defs>
    <clipPath id="clip-path">
      <path id="Trazado_3256" data-name="Trazado 3256" d="M2324.4,316.782H3560.941V-425.144H2324.4V316.782Z" fill="none" clip-rule="evenodd"/>
    </clipPath>
    <clipPath id="clip-path-2">
      <path id="Trazado_3258" data-name="Trazado 3258" d="M2448.052,57.932H3551.461V-277.584H2448.052V57.932Z" fill="none" clip-rule="evenodd"/>
    </clipPath>
    <clipPath id="clip-Depto_lideres_afectados">
      <rect width="1166" height="706"/>
    </clipPath>
  </defs>
  <g id="Depto_lideres_afectados" data-name="Depto lideres afectados" clip-path="url(#clip-Depto_lideres_afectados)">
    <rect width="1166" height="706" fill="#909f61"/>
    <g id="Capa_6" data-name="Capa 6" transform="translate(-2399.363 501.367)">
      <path id="Trazado_3254" data-name="Trazado 3254" d="M2401.947-499.3H3561.363V196.123H2401.947V-499.3Z" fill="none" stroke="#e5661d" stroke-miterlimit="10" stroke-width="3"/>
    </g>
    <g id="Capa_5" data-name="Capa 5" transform="translate(-2399.363 431.367)">
      <path id="Trazado_3255" data-name="Trazado 3255" d="M2448.464,13.829H3549.4M2448.464-27.8H3549.4M2448.464-69.432H3549.4m-1100.936-41.63H3549.4m-1100.936-41.63H3549.4M2448.464-194.323H3549.4M2448.464-235.541H3549.4m-1100.936-41.63H3549.4" fill="none" stroke="#fff" stroke-miterlimit="10" stroke-width="1" stroke-dasharray="4"/>
      <g id="Grupo_1542" data-name="Grupo 1542">
        <g id="Grupo_1541" data-name="Grupo 1541" clip-path="url(#clip-path)">
          <line id="Línea_105" data-name="Línea 105" x2="1100.936" transform="translate(2448.464 55.459)" fill="none" stroke="#fff" stroke-linejoin="round" stroke-width="1"/>
        </g>
      </g>
      <g id="Grupo_1544" data-name="Grupo 1544">
        <g id="Grupo_1543" data-name="Grupo 1543" clip-path="url(#clip-path-2)">
          <path id="Trazado_3257" data-name="Trazado 3257" d="M2494.216,22.485l91.917-2.473,91.5-6.182,91.917-2.061,91.5-16.487,91.917,2.061,91.916,16.487,91.5-43.692,91.917,8.656,91.5-37.508,91.917,8.243,91.5-201.969" fill="none" stroke="#fff" stroke-linecap="round" stroke-linejoin="round" stroke-width="2.16"/>
        </g>
      </g>
      <g id="Grupo_1546" data-name="Grupo 1546">
        <g id="Grupo_1545" data-name="Grupo 1545" clip-path="url(#clip-path)">
          <path id="Trazado_3259" data-name="Trazado 3259" d="M2502.872,22.278a8.656,8.656,0,1,1-8.656-8.655,8.655,8.655,0,0,1,8.656,8.655Z" fill="#7199d1"/>
          <path id="Trazado_3260" data-name="Trazado 3260" d="M2502.872,22.278a8.656,8.656,0,1,1-8.656-8.655,8.655,8.655,0,0,1,8.656,8.655Z" fill="#fff" stroke="#fff" stroke-linejoin="round" stroke-width="0.75"/>
          <path id="Trazado_3261" data-name="Trazado 3261" d="M2594.788,19.805a8.656,8.656,0,1,1-8.655-8.655,8.655,8.655,0,0,1,8.655,8.655Z" fill="#fff" stroke="#fff" stroke-miterlimit="10" stroke-width="0.75"/>
          <path id="Trazado_3262" data-name="Trazado 3262" d="M2594.788,19.805a8.656,8.656,0,1,1-8.655-8.655,8.655,8.655,0,0,1,8.655,8.655Z" fill="#fff" stroke="#fff" stroke-linejoin="round" stroke-width="0.75"/>
          <path id="Trazado_3263" data-name="Trazado 3263" d="M2686.293,13.623a8.656,8.656,0,1,1-8.656-8.656,8.656,8.656,0,0,1,8.656,8.656Z" fill="#7199d1"/>
          <path id="Trazado_3264" data-name="Trazado 3264" d="M2686.293,13.623a8.656,8.656,0,1,1-8.656-8.656,8.656,8.656,0,0,1,8.656,8.656Z" fill="#fff" stroke="#fff" stroke-linejoin="round" stroke-width="0.75"/>
          <path id="Trazado_3265" data-name="Trazado 3265" d="M2778.209,11.562a8.656,8.656,0,1,1-8.656-8.656,8.656,8.656,0,0,1,8.656,8.656Z" fill="#7199d1"/>
          <path id="Trazado_3266" data-name="Trazado 3266" d="M2778.209,11.562a8.656,8.656,0,1,1-8.656-8.656,8.656,8.656,0,0,1,8.656,8.656Z" fill="#fff" stroke="#fff" stroke-linejoin="round" stroke-width="0.75"/>
          <path id="Trazado_3267" data-name="Trazado 3267" d="M2869.713-4.925a8.656,8.656,0,0,1-8.656,8.656,8.656,8.656,0,0,1-8.655-8.656,8.655,8.655,0,0,1,8.655-8.656,8.655,8.655,0,0,1,8.656,8.656Z" fill="#7199d1"/>
          <path id="Trazado_3268" data-name="Trazado 3268" d="M2869.713-4.925a8.656,8.656,0,0,1-8.656,8.656,8.656,8.656,0,0,1-8.655-8.656,8.655,8.655,0,0,1,8.655-8.656,8.655,8.655,0,0,1,8.656,8.656Z" fill="#fff" stroke="#fff" stroke-linejoin="round" stroke-width="0.75"/>
          <path id="Trazado_3269" data-name="Trazado 3269" d="M2961.63-2.864a8.656,8.656,0,0,1-8.656,8.655,8.655,8.655,0,0,1-8.656-8.655,8.655,8.655,0,0,1,8.656-8.656,8.656,8.656,0,0,1,8.656,8.656Z" fill="#7199d1"/>
          <path id="Trazado_3270" data-name="Trazado 3270" d="M2961.63-2.864a8.656,8.656,0,0,1-8.656,8.655,8.655,8.655,0,0,1-8.656-8.655,8.655,8.655,0,0,1,8.656-8.656,8.656,8.656,0,0,1,8.656,8.656Z" fill="#fff" stroke="#fff" stroke-linejoin="round" stroke-width="0.75"/>
          <path id="Trazado_3271" data-name="Trazado 3271" d="M3053.546,13.623a8.656,8.656,0,1,1-8.656-8.656,8.655,8.655,0,0,1,8.656,8.656Z" fill="#7199d1"/>
          <path id="Trazado_3272" data-name="Trazado 3272" d="M3053.546,13.623a8.656,8.656,0,1,1-8.656-8.656,8.655,8.655,0,0,1,8.656,8.656Z" fill="#fff" stroke="#fff" stroke-linejoin="round" stroke-width="0.75"/>
          <path id="Trazado_3273" data-name="Trazado 3273" d="M3145.05-30.069a8.655,8.655,0,0,1-8.656,8.656,8.655,8.655,0,0,1-8.655-8.656,8.655,8.655,0,0,1,8.655-8.655,8.655,8.655,0,0,1,8.656,8.655Z" fill="#7199d1"/>
          <path id="Trazado_3274" data-name="Trazado 3274" d="M3145.05-30.069a8.655,8.655,0,0,1-8.656,8.656,8.655,8.655,0,0,1-8.655-8.656,8.655,8.655,0,0,1,8.655-8.655,8.655,8.655,0,0,1,8.656,8.655Z" fill="#fff" stroke="#fff" stroke-linejoin="round" stroke-width="0.75"/>
          <path id="Trazado_3275" data-name="Trazado 3275" d="M3236.967-21.413a8.656,8.656,0,0,1-8.656,8.656,8.655,8.655,0,0,1-8.656-8.656,8.656,8.656,0,0,1,8.656-8.656,8.657,8.657,0,0,1,8.656,8.656Z" fill="#7199d1"/>
          <path id="Trazado_3276" data-name="Trazado 3276" d="M3236.967-21.413a8.656,8.656,0,0,1-8.656,8.656,8.655,8.655,0,0,1-8.656-8.656,8.656,8.656,0,0,1,8.656-8.656,8.657,8.657,0,0,1,8.656,8.656Z" fill="#fff" stroke="#fff" stroke-linejoin="round" stroke-width="0.75"/>
          <path id="Trazado_3277" data-name="Trazado 3277" d="M3328.471-58.921a8.657,8.657,0,0,1-8.656,8.656,8.656,8.656,0,0,1-8.656-8.656,8.655,8.655,0,0,1,8.656-8.656,8.656,8.656,0,0,1,8.656,8.656Z" fill="#fff" stroke="#fff" stroke-miterlimit="10" stroke-width="0.75"/>
          <path id="Trazado_3278" data-name="Trazado 3278" d="M3328.471-58.921a8.657,8.657,0,0,1-8.656,8.656,8.656,8.656,0,0,1-8.656-8.656,8.655,8.655,0,0,1,8.656-8.656,8.656,8.656,0,0,1,8.656,8.656Z" fill="none" stroke="#7199d1" stroke-linejoin="round" stroke-width="0.72"/>
          <path id="Trazado_3279" data-name="Trazado 3279" d="M3420.387-50.678a8.655,8.655,0,0,1-8.656,8.656,8.655,8.655,0,0,1-8.655-8.656,8.656,8.656,0,0,1,8.655-8.656,8.656,8.656,0,0,1,8.656,8.656Z" fill="#7199d1"/>
          <path id="Trazado_3280" data-name="Trazado 3280" d="M3420.387-50.678a8.655,8.655,0,0,1-8.656,8.656,8.655,8.655,0,0,1-8.655-8.656,8.656,8.656,0,0,1,8.655-8.656,8.656,8.656,0,0,1,8.656,8.656Z" fill="#fff" stroke="#fff" stroke-linejoin="round" stroke-width="0.75"/>
          <path id="Trazado_3281" data-name="Trazado 3281" d="M3511.891-252.647a8.655,8.655,0,0,1-8.655,8.656,8.655,8.655,0,0,1-8.656-8.656,8.655,8.655,0,0,1,8.656-8.655,8.655,8.655,0,0,1,8.655,8.655Z" fill="#7199d1"/>
          <path id="Trazado_3282" data-name="Trazado 3282" d="M3511.891-252.647a8.655,8.655,0,0,1-8.655,8.656,8.655,8.655,0,0,1-8.656-8.656,8.655,8.655,0,0,1,8.656-8.655,8.655,8.655,0,0,1,8.655,8.655Z" fill="#fff" stroke="#fff" stroke-linejoin="round" stroke-width="0.75"/>
        </g>
      </g>
      <g id="Grupo_1548" data-name="Grupo 1548">
        <g id="Grupo_1547" data-name="Grupo 1547" clip-path="url(#clip-path-2)">
          <path id="Trazado_3284" data-name="Trazado 3284" d="M2494.216,53.4l91.917,2.061,91.5-2.061,91.917-4.122,91.5,2.061,91.917-8.243,91.916-12.366,91.5,22.67,91.917-20.609,91.5,12.365,91.917-47.813,91.5,33.387" fill="none" stroke="#003520" stroke-miterlimit="10" stroke-width="2"/>
        </g>
      </g>
      <g id="Grupo_1550" data-name="Grupo 1550">
        <g id="Grupo_1549" data-name="Grupo 1549" clip-path="url(#clip-path)">
          <path id="Trazado_3286" data-name="Trazado 3286" d="M2502.872,53.192a8.656,8.656,0,1,1-8.656-8.656,8.656,8.656,0,0,1,8.656,8.656Z" fill="#003520" stroke="#003520" stroke-miterlimit="10" stroke-width="2"/>
          <path id="Trazado_3287" data-name="Trazado 3287" d="M2502.872,53.192a8.656,8.656,0,1,1-8.656-8.656,8.656,8.656,0,0,1,8.656,8.656Z" fill="#003520" stroke="#003520" stroke-miterlimit="10" stroke-width="2"/>
          <path id="Trazado_3288" data-name="Trazado 3288" d="M2594.788,55.253a8.656,8.656,0,1,1-8.655-8.656,8.656,8.656,0,0,1,8.655,8.656Z" fill="#003520" stroke="#003520" stroke-miterlimit="10" stroke-width="2"/>
          <path id="Trazado_3289" data-name="Trazado 3289" d="M2594.788,55.253a8.656,8.656,0,1,1-8.655-8.656,8.656,8.656,0,0,1,8.655,8.656Z" fill="#003520" stroke="#003520" stroke-miterlimit="10" stroke-width="2"/>
          <path id="Trazado_3290" data-name="Trazado 3290" d="M2686.293,53.192a8.656,8.656,0,1,1-8.656-8.656,8.657,8.657,0,0,1,8.656,8.656Z" fill="#003520" stroke="#003520" stroke-miterlimit="10" stroke-width="2"/>
          <path id="Trazado_3291" data-name="Trazado 3291" d="M2686.293,53.192a8.656,8.656,0,1,1-8.656-8.656,8.657,8.657,0,0,1,8.656,8.656Z" fill="#003520" stroke="#003520" stroke-miterlimit="10" stroke-width="2"/>
          <path id="Trazado_3292" data-name="Trazado 3292" d="M2778.209,49.07a8.656,8.656,0,1,1-8.656-8.656,8.655,8.655,0,0,1,8.656,8.656Z" fill="#003520" stroke="#003520" stroke-miterlimit="10" stroke-width="2"/>
          <path id="Trazado_3293" data-name="Trazado 3293" d="M2778.209,49.07a8.656,8.656,0,1,1-8.656-8.656,8.655,8.655,0,0,1,8.656,8.656Z" fill="#003520" stroke="#003520" stroke-miterlimit="10" stroke-width="2"/>
          <path id="Trazado_3294" data-name="Trazado 3294" d="M2869.713,51.131a8.655,8.655,0,1,1-8.656-8.656,8.655,8.655,0,0,1,8.656,8.656Z" fill="#003520" stroke="#003520" stroke-miterlimit="10" stroke-width="2"/>
          <path id="Trazado_3295" data-name="Trazado 3295" d="M2869.713,51.131a8.655,8.655,0,1,1-8.656-8.656,8.655,8.655,0,0,1,8.656,8.656Z" fill="#003520" stroke="#003520" stroke-miterlimit="10" stroke-width="2"/>
          <path id="Trazado_3296" data-name="Trazado 3296" d="M2961.63,42.887a8.656,8.656,0,1,1-8.656-8.655,8.656,8.656,0,0,1,8.656,8.655Z" fill="#003520" stroke="#003520" stroke-miterlimit="10" stroke-width="2"/>
          <path id="Trazado_3297" data-name="Trazado 3297" d="M2961.63,42.887a8.656,8.656,0,1,1-8.656-8.655,8.656,8.656,0,0,1,8.656,8.655Z" fill="#003520" stroke="#003520" stroke-miterlimit="10" stroke-width="2"/>
          <path id="Trazado_3298" data-name="Trazado 3298" d="M3053.546,30.522a8.656,8.656,0,1,1-8.656-8.656,8.656,8.656,0,0,1,8.656,8.656Z" fill="#003520" stroke="#003520" stroke-miterlimit="10" stroke-width="2"/>
          <path id="Trazado_3299" data-name="Trazado 3299" d="M3053.546,30.522a8.656,8.656,0,1,1-8.656-8.656,8.656,8.656,0,0,1,8.656,8.656Z" fill="#003520" stroke="#003520" stroke-miterlimit="10" stroke-width="2"/>
          <path id="Trazado_3300" data-name="Trazado 3300" d="M3145.05,53.192a8.656,8.656,0,1,1-8.656-8.656,8.656,8.656,0,0,1,8.656,8.656Z" fill="#003520" stroke="#003520" stroke-miterlimit="10" stroke-width="2"/>
          <path id="Trazado_3301" data-name="Trazado 3301" d="M3145.05,53.192a8.656,8.656,0,1,1-8.656-8.656,8.656,8.656,0,0,1,8.656,8.656Z" fill="#003520" stroke="#003520" stroke-miterlimit="10" stroke-width="2"/>
          <path id="Trazado_3302" data-name="Trazado 3302" d="M3236.967,32.583a8.656,8.656,0,1,1-8.656-8.656,8.657,8.657,0,0,1,8.656,8.656Z" fill="#003520" stroke="#003520" stroke-miterlimit="10" stroke-width="2"/>
          <path id="Trazado_3303" data-name="Trazado 3303" d="M3236.967,32.583a8.656,8.656,0,1,1-8.656-8.656,8.657,8.657,0,0,1,8.656,8.656Z" fill="#003520" stroke="#003520" stroke-miterlimit="10" stroke-width="2"/>
          <path id="Trazado_3304" data-name="Trazado 3304" d="M3328.471,44.948a8.656,8.656,0,1,1-8.656-8.656,8.656,8.656,0,0,1,8.656,8.656Z" fill="#003520" stroke="#003520" stroke-miterlimit="10" stroke-width="2"/>
          <path id="Trazado_3305" data-name="Trazado 3305" d="M3328.471,44.948a8.656,8.656,0,1,1-8.656-8.656,8.656,8.656,0,0,1,8.656,8.656Z" fill="#003520" stroke="#003520" stroke-miterlimit="10" stroke-width="2"/>
          <path id="Trazado_3306" data-name="Trazado 3306" d="M3420.387-2.864a8.655,8.655,0,0,1-8.656,8.655,8.655,8.655,0,0,1-8.655-8.655,8.655,8.655,0,0,1,8.655-8.656,8.655,8.655,0,0,1,8.656,8.656Z" fill="#003520" stroke="#003520" stroke-miterlimit="10" stroke-width="2"/>
          <path id="Trazado_3307" data-name="Trazado 3307" d="M3420.387-2.864a8.655,8.655,0,0,1-8.656,8.655,8.655,8.655,0,0,1-8.655-8.655,8.655,8.655,0,0,1,8.655-8.656,8.655,8.655,0,0,1,8.656,8.656Z" fill="#003520" stroke="#003520" stroke-miterlimit="10" stroke-width="2"/>
          <path id="Trazado_3308" data-name="Trazado 3308" d="M3511.891,30.522a8.656,8.656,0,1,1-8.655-8.656,8.656,8.656,0,0,1,8.655,8.656Z" fill="#003520" stroke="#003520" stroke-miterlimit="10" stroke-width="2"/>
          <path id="Trazado_3309" data-name="Trazado 3309" d="M3511.891,30.522a8.656,8.656,0,1,1-8.655-8.656,8.656,8.656,0,0,1,8.655,8.656Z" fill="#003520" stroke="#003520" stroke-miterlimit="10" stroke-width="2"/>
        </g>
      </g>
      <g id="Grupo_1552" data-name="Grupo 1552">
        <g id="Grupo_1551" data-name="Grupo 1551" clip-path="url(#clip-path-2)">
          <path id="Trazado_3311" data-name="Trazado 3311" d="M2494.216,53.4h91.917l91.5,2.061h91.917l91.5-4.122,91.917,2.061,91.916-10.3,91.5,6.182,91.917,6.183,91.5-4.122,91.917,2.061,91.5-33.387" fill="none" stroke="#e5661d" stroke-miterlimit="10" stroke-width="2"/>
        </g>
      </g>
      <text id="_0" data-name="0" transform="translate(2429.721 58.921)" fill="#003520" font-size="12.808" font-family="Henriette-Bold, Henriette" font-weight="700"><tspan x="0" y="0">0</tspan></text>
      <text id="_20" data-name="20" transform="translate(2422.382 17.325)" fill="#003520" font-size="12.808" font-family="Henriette-Bold, Henriette" font-weight="700"><tspan x="0" y="0">20</tspan></text>
      <text id="_40" data-name="40" transform="translate(2422.062 -24.295)" fill="#003520" font-size="12.808" font-family="Henriette-Bold, Henriette" font-weight="700"><tspan x="0" y="0">40</tspan></text>
      <text id="_60" data-name="60" transform="translate(2421.997 -65.915)" fill="#003520" font-size="12.808" font-family="Henriette-Bold, Henriette" font-weight="700"><tspan x="0" y="0">60</tspan></text>
      <text id="_80" data-name="80" transform="translate(2421.947 -107.536)" fill="#003520" font-size="12.808" font-family="Henriette-Bold, Henriette" font-weight="700"><tspan x="0" y="0">80</tspan></text>
      <text id="_100" data-name="100" transform="translate(2415.747 -149.129)" fill="#003520" font-size="12.808" font-family="Henriette-Bold, Henriette" font-weight="700"><tspan x="0" y="0">100</tspan></text>
      <text id="_120" data-name="120" transform="translate(2416.695 -190.75)" fill="#003520" font-size="12.808" font-family="Henriette-Bold, Henriette" font-weight="700"><tspan x="0" y="0">120</tspan></text>
      <text id="_140" data-name="140" transform="translate(2416.374 -232.397)" fill="#003520" font-size="12.808" font-family="Henriette-Bold, Henriette" font-weight="700"><tspan x="0" y="0">140</tspan></text>
      <text id="_160" data-name="160" transform="translate(2416.31 -274.019)" fill="#003520" font-size="12.808" font-family="Henriette-Bold, Henriette" font-weight="700"><tspan x="0" y="0">160</tspan></text>
      <path id="Trazado_3313" data-name="Trazado 3313" d="M2324.4,316.782H3560.941V-425.144H2324.4V316.782Z" fill="none" fill-rule="evenodd"/>
      <text id="Asesinato_selectivo" data-name="Asesinato selectivo" transform="translate(2530.107 216.988)" fill="#003520" font-size="15" font-family="Henriette-Bold, Henriette" font-weight="700"><tspan x="0" y="0">Asesinato selectivo</tspan></text>
      <text id="Desaparición_forzada" data-name="Desaparición forzada" transform="translate(2856.786 218.605)" fill="#003520" font-size="15" font-family="Henriette-Bold, Henriette" font-weight="700"><tspan x="0" y="0">Desaparición forzada</tspan></text>
      <text id="Masacre" transform="translate(3147.708 218.783)" fill="#003520" font-size="15" font-family="Henriette-Bold, Henriette" font-weight="700"><tspan x="0" y="0">Masacre</tspan></text>
      <path id="Trazado_3314" data-name="Trazado 3314" d="M2592.894,53.051a6.876,6.876,0,1,1-6.876-6.876,6.877,6.877,0,0,1,6.876,6.876Z" fill="#e5661d" stroke="#e5661d" stroke-miterlimit="10" stroke-width="1"/>
      <path id="Trazado_3315" data-name="Trazado 3315" d="M2592.894,53.051a6.876,6.876,0,1,1-6.876-6.876,6.877,6.877,0,0,1,6.876,6.876Z" fill="#e5661d" stroke="#e5661d" stroke-miterlimit="10" stroke-width="1"/>
      <path id="Trazado_3316" data-name="Trazado 3316" d="M2684.5,55.918a6.876,6.876,0,1,1-6.876-6.876,6.876,6.876,0,0,1,6.876,6.876Z" fill="#e5661d" stroke="#e5661d" stroke-miterlimit="10" stroke-width="1"/>
      <path id="Trazado_3317" data-name="Trazado 3317" d="M2684.5,55.918a6.876,6.876,0,1,1-6.876-6.876,6.876,6.876,0,0,1,6.876,6.876Z" fill="#e5661d" stroke="#e5661d" stroke-miterlimit="10" stroke-width="1"/>
      <path id="Trazado_3318" data-name="Trazado 3318" d="M2776.8,54.874A6.876,6.876,0,1,1,2769.924,48a6.876,6.876,0,0,1,6.877,6.876Z" fill="#e5661d" stroke="#e5661d" stroke-miterlimit="10" stroke-width="1"/>
      <path id="Trazado_3319" data-name="Trazado 3319" d="M2776.8,54.874A6.876,6.876,0,1,1,2769.924,48a6.876,6.876,0,0,1,6.877,6.876Z" fill="#e5661d" stroke="#e5661d" stroke-miterlimit="10" stroke-width="1"/>
      <path id="Trazado_3320" data-name="Trazado 3320" d="M2868.3,50.752a6.876,6.876,0,1,1-6.876-6.876,6.877,6.877,0,0,1,6.876,6.876Z" fill="#e5661d" stroke="#e5661d" stroke-miterlimit="10" stroke-width="1"/>
      <path id="Trazado_3321" data-name="Trazado 3321" d="M2868.3,50.752a6.876,6.876,0,1,1-6.876-6.876,6.877,6.877,0,0,1,6.876,6.876Z" fill="#e5661d" stroke="#e5661d" stroke-miterlimit="10" stroke-width="1"/>
      <path id="Trazado_3322" data-name="Trazado 3322" d="M2959.872,53.656A6.877,6.877,0,1,1,2953,46.78a6.877,6.877,0,0,1,6.876,6.876Z" fill="#e5661d" stroke="#e5661d" stroke-miterlimit="10" stroke-width="1"/>
      <path id="Trazado_3323" data-name="Trazado 3323" d="M2959.872,53.656A6.877,6.877,0,1,1,2953,46.78a6.877,6.877,0,0,1,6.876,6.876Z" fill="#e5661d" stroke="#e5661d" stroke-miterlimit="10" stroke-width="1"/>
      <path id="Trazado_3324" data-name="Trazado 3324" d="M3051.662,43.109a6.876,6.876,0,1,1-6.876-6.876,6.876,6.876,0,0,1,6.876,6.876Z" fill="#e5661d" stroke="#e5661d" stroke-miterlimit="10" stroke-width="1"/>
      <path id="Trazado_3325" data-name="Trazado 3325" d="M3051.662,43.109a6.876,6.876,0,1,1-6.876-6.876,6.876,6.876,0,0,1,6.876,6.876Z" fill="#e5661d" stroke="#e5661d" stroke-miterlimit="10" stroke-width="1"/>
      <path id="Trazado_3326" data-name="Trazado 3326" d="M3143.053,49.07a6.876,6.876,0,1,1-6.876-6.876,6.877,6.877,0,0,1,6.876,6.876Z" fill="#e5661d" stroke="#e5661d" stroke-miterlimit="10" stroke-width="1"/>
      <path id="Trazado_3327" data-name="Trazado 3327" d="M3143.053,49.07a6.876,6.876,0,1,1-6.876-6.876,6.877,6.877,0,0,1,6.876,6.876Z" fill="#e5661d" stroke="#e5661d" stroke-miterlimit="10" stroke-width="1"/>
      <path id="Trazado_3328" data-name="Trazado 3328" d="M3235.46,55.259a6.876,6.876,0,1,1-6.876-6.876,6.876,6.876,0,0,1,6.876,6.876Z" fill="#e5661d" stroke="#e5661d" stroke-miterlimit="10" stroke-width="1"/>
      <path id="Trazado_3329" data-name="Trazado 3329" d="M3235.46,55.259a6.876,6.876,0,1,1-6.876-6.876,6.876,6.876,0,0,1,6.876,6.876Z" fill="#e5661d" stroke="#e5661d" stroke-miterlimit="10" stroke-width="1"/>
      <path id="Trazado_3330" data-name="Trazado 3330" d="M3326.963,51.055a6.876,6.876,0,1,1-6.876-6.876,6.876,6.876,0,0,1,6.876,6.876Z" fill="#e5661d" stroke="#e5661d" stroke-miterlimit="10" stroke-width="1"/>
      <path id="Trazado_3331" data-name="Trazado 3331" d="M3326.963,51.055a6.876,6.876,0,1,1-6.876-6.876,6.876,6.876,0,0,1,6.876,6.876Z" fill="#e5661d" stroke="#e5661d" stroke-miterlimit="10" stroke-width="1"/>
      <path id="Trazado_3332" data-name="Trazado 3332" d="M3418.671,53.348a6.876,6.876,0,1,1-6.876-6.876,6.877,6.877,0,0,1,6.876,6.876Z" fill="#e5661d" stroke="#e5661d" stroke-miterlimit="10" stroke-width="1"/>
      <path id="Trazado_3333" data-name="Trazado 3333" d="M3418.671,53.348a6.876,6.876,0,1,1-6.876-6.876,6.877,6.877,0,0,1,6.876,6.876Z" fill="#e5661d" stroke="#e5661d" stroke-miterlimit="10" stroke-width="1"/>
      <path id="Trazado_3334" data-name="Trazado 3334" d="M3510.329,19.985a6.877,6.877,0,1,1-6.877-6.876,6.877,6.877,0,0,1,6.877,6.876Z" fill="#e5661d" stroke="#e5661d" stroke-miterlimit="10" stroke-width="1"/>
      <path id="Trazado_3335" data-name="Trazado 3335" d="M3510.329,19.985a6.877,6.877,0,1,1-6.877-6.876,6.877,6.877,0,0,1,6.877,6.876Z" fill="#e5661d" stroke="#e5661d" stroke-miterlimit="10" stroke-width="1"/>
      <path id="Trazado_3336" data-name="Trazado 3336" d="M2500.612,53.051a6.876,6.876,0,1,1-6.876-6.876,6.877,6.877,0,0,1,6.876,6.876Z" fill="#e5661d" stroke="#e5661d" stroke-miterlimit="10" stroke-width="1"/>
      <path id="Trazado_3337" data-name="Trazado 3337" d="M2500.612,53.051a6.876,6.876,0,1,1-6.876-6.876,6.877,6.877,0,0,1,6.876,6.876Z" fill="#e5661d" stroke="#e5661d" stroke-miterlimit="10" stroke-width="1"/>
      <ellipse id="Elipse_80" data-name="Elipse 80" cx="10.835" cy="10.835" rx="10.835" ry="10.835" transform="translate(2500.612 202.052)" fill="#fff" stroke="#fff" stroke-linejoin="round" stroke-width="0.75"/>
      <ellipse id="Elipse_81" data-name="Elipse 81" cx="10.835" cy="10.835" rx="10.835" ry="10.835" transform="translate(2828.293 202.053)" fill="#003520" stroke="#003520" stroke-miterlimit="10" stroke-width="2"/>
      <ellipse id="Elipse_82" data-name="Elipse 82" cx="10.835" cy="10.835" rx="10.835" ry="10.835" transform="translate(3121.383 202.489)" fill="#e5661d" stroke="#e5661d" stroke-miterlimit="10" stroke-width="1"/>
    </g>
    <g id="Capa_3" data-name="Capa 3" transform="translate(-2399.363 431.367)">
      <text id="Cesar" transform="translate(2496.945 102.55) rotate(-90)" fill="#003520" font-size="12.808" font-family="Henriette-Bold, Henriette" font-weight="700"><tspan x="0" y="0">Cesar</tspan></text>
      <text id="Caldas" transform="translate(2590.563 108.826) rotate(-90)" fill="#003520" font-size="12.808" font-family="Henriette-Bold, Henriette" font-weight="700"><tspan x="0" y="0">Caldas</tspan></text>
      <text id="Risaralda" transform="translate(2679.952 125.975) rotate(-90)" fill="#003520" font-size="12.808" font-family="Henriette-Bold, Henriette" font-weight="700"><tspan x="0" y="0">Risaralda</tspan></text>
      <text id="Putumayo" transform="translate(2773.933 129.344) rotate(-90)" fill="#003520" font-size="12.808" font-family="Henriette-Bold, Henriette" font-weight="700"><tspan x="0" y="0">Putumayo</tspan></text>
      <text id="Chocó" transform="translate(2864.081 105.278) rotate(-90)" fill="#003520" font-size="12.808" font-family="Henriette-Bold, Henriette" font-weight="700"><tspan x="0" y="0">Chocó</tspan></text>
      <text id="Calle_del_Cauca" data-name="Calle del Cauca" transform="translate(2957.759 158.956) rotate(-90)" fill="#003520" font-size="12.808" font-family="Henriette-Bold, Henriette" font-weight="700"><tspan x="0" y="0">Calle del Cauca</tspan></text>
      <text id="La_Guajira" data-name="La Guajira" transform="translate(3046.544 130.01) rotate(-90)" fill="#003520" font-size="12.808" font-family="Henriette-Bold, Henriette" font-weight="700"><tspan x="0" y="0">La Guajira</tspan></text>
      <text id="Nariño" transform="translate(3142.901 109.709) rotate(-90)" fill="#003520" font-size="12.808" font-family="Henriette-Bold, Henriette" font-weight="700"><tspan x="0" y="0">Nariño</tspan></text>
      <text id="Tolima" transform="translate(3240.335 109.71) rotate(-90)" fill="#003520" font-size="12.808" font-family="Henriette-Bold, Henriette" font-weight="700"><tspan x="0" y="0">Tolima</tspan></text>
      <text id="Córdoba" transform="translate(3324.942 118.445) rotate(-90)" fill="#003520" font-size="12.808" font-family="Henriette-Bold, Henriette" font-weight="700"><tspan x="0" y="0">Córdoba</tspan></text>
      <text id="Antioquía" transform="translate(3416.175 127.154) rotate(-90)" fill="#003520" font-size="12.808" font-family="Henriette-Bold, Henriette" font-weight="700"><tspan x="0" y="0">Antioquía</tspan></text>
      <text id="Cauca" transform="translate(3509.791 105.086) rotate(-90)" fill="#003520" font-size="12.808" font-family="Henriette-Bold, Henriette" font-weight="700"><tspan x="0" y="0">Cauca</tspan></text>
    </g>
    <g id="Tag_1" data-name="Tag 1" transform="translate(309 373.555)">
      <g id="Grupo_1525" data-name="Grupo 1525" transform="translate(-389 -2247.275)">
        <rect id="Rectángulo_376" data-name="Rectángulo 376" width="125.944" height="49" rx="14" transform="translate(389 2247.275)" fill="#4f722d"/>
        <rect id="Rectángulo_377" data-name="Rectángulo 377" width="7" height="7" transform="translate(444.757 2296.276) rotate(-45)" fill="#4f722d"/>
      </g>
      <text id="Asesinato_Colectivo" data-name="Asesinato Colectivo" transform="translate(11.379 4.354)" fill="#fff" font-size="12" font-family="Henriette-Bold, Henriette" font-weight="700"><tspan x="0" y="11">Asesinato Colectivo</tspan></text>
      <text id="Casos" transform="translate(46 24.5)" fill="#fff" font-size="12" font-family="Henriette-Bold, Henriette" font-weight="700"><tspan x="0" y="11">Casos</tspan></text>
      <text id="_88" data-name="88" transform="translate(13.379 18.354)" fill="#fff" font-size="20" font-family="Henriette-Bold, Henriette" font-weight="700"><tspan x="0" y="19">88</tspan></text>
    </g>
  </g>
</svg>
