<svg xmlns="http://www.w3.org/2000/svg" xmlns:xlink="http://www.w3.org/1999/xlink" width="1182" height="706" viewBox="0 0 1182 706">
  <defs>
    <clipPath id="clip-path">
      <path id="Trazado_3341" data-name="Trazado 3341" d="M2578.86-669.2H3524.3v-500.546H2578.86V-669.2Z" transform="translate(-2578.86 1169.746)" fill="none" clip-rule="evenodd"/>
    </clipPath>
    <clipPath id="clip-path-4">
      <path id="Trazado_3346" data-name="Trazado 3346" d="M2401.947-559.86h1164V-1258.49h-1164V-559.86Z" transform="translate(-2401.947 1258.49)" fill="none" clip-rule="evenodd"/>
    </clipPath>
    <clipPath id="clip-Mala_Muerte">
      <rect width="1182" height="706"/>
    </clipPath>
  </defs>
  <g id="Mala_Muerte" data-name="Mala Muerte" clip-path="url(#clip-Mala_Muerte)">
    <rect width="1182" height="706" fill="#909f61"/>
    <g id="Grupo_1970" data-name="Grupo 1970" transform="translate(-2395.947 1242.592)">
      <g id="Capa_6" data-name="Capa 6" transform="translate(2401.947 -1238.024)">
        <path id="Trazado_3338" data-name="Trazado 3338" d="M2401.947-1238.1h1164v698.174h-1164V-1238.1Z" transform="translate(-2401.947 1238.104)" fill="none" stroke="#e5661d" stroke-miterlimit="10" stroke-width="3"/>
      </g>
      <g id="Capa_3" data-name="Capa 3" transform="translate(2401.947 -1258.49)">
        <g id="Grupo_1568" data-name="Grupo 1568">
          <path id="Trazado_3339" data-name="Trazado 3339" d="M2735.67-1169.46v498.528m157.142-498.528v498.528m157.142-498.528v498.528m157.429-498.528v498.528m157.142-498.528v498.528m157.43-498.528v498.528" transform="translate(-2400.627 1258.842)" fill="none" stroke="#fff" stroke-miterlimit="10" stroke-width="1" stroke-dasharray="4"/>
          <g id="Grupo_1555" data-name="Grupo 1555" transform="translate(177.613 89.095)">
            <g id="Grupo_1554" data-name="Grupo 1554" clip-path="url(#clip-path)">
              <path id="Trazado_3340" data-name="Trazado 3340" d="M2578.86-701.552h85.059v15.858H2578.86v-15.858Zm0-45.556h14.129v16.147H2578.86v-16.147Zm0-45.268h108.7v16.147h-108.7v-16.147Zm0-45.268h14.129V-821.5H2578.86v-16.147Zm0-45.268h355.515v15.858H2578.86v-15.858Zm0-45.556h7.786v16.147h-7.786V-928.47Zm0-45.269h22.2v16.147h-22.2v-16.147Zm0-90.535H2671.7v16.147H2578.86v-16.147Zm0-45.269h12.687v15.858H2578.86v-15.858Zm0-45.556h51.9v16.147h-51.9V-1155.1Z" transform="translate(-2578.86 1169.804)" fill="#003520"/>
            </g>
          </g>
          <g id="Grupo_1557" data-name="Grupo 1557" transform="translate(177.613 89.095)">
            <g id="Grupo_1556" data-name="Grupo 1556" clip-path="url(#clip-path)">
              <path id="Trazado_3342" data-name="Trazado 3342" d="M2663.869-701.552h36.041v15.858h-36.041v-15.858Zm-70.93-45.556h61.415v16.147h-61.415v-16.147Zm94.573-45.268H2747.2v16.147h-59.685v-16.147Zm-94.573-45.268h22.2V-821.5h-22.2v-16.147Zm341.386-45.268H3024v15.858h-89.671v-15.858Zm-333.312-90.826h15.569v16.147h-15.569v-16.147Zm70.641-90.535h31.429v16.147h-31.429v-16.147Zm-80.156-45.269h26.814v15.858H2591.5v-15.858Zm39.213-45.556h7.785v16.147h-7.785V-1155.1Z" transform="translate(-2578.811 1169.804)" fill="#e5661d" stroke="#e5661d" stroke-miterlimit="10" stroke-width="1"/>
            </g>
          </g>
          <g id="Grupo_1559" data-name="Grupo 1559" transform="translate(177.613 89.095)">
            <g id="Grupo_1558" data-name="Grupo 1558" clip-path="url(#clip-path)">
              <path id="Trazado_3344" data-name="Trazado 3344" d="M2699.96-701.552H2879.3v15.858H2699.96v-15.858ZM2654.4-747.109h138.4v16.147H2654.4v-16.147Zm92.844-45.268h182.515v16.147H2747.247v-16.147ZM2615.19-837.645h153.97V-821.5H2615.19v-16.147Zm408.856-45.268H3432.9v15.858H3024.046v-15.858Zm-437.4-45.556h36.33v16.147h-36.33V-928.47Zm29.986-45.269h40.943v16.147h-40.943v-16.147Zm-37.771-45.267h15.858v16.147H2578.86v-16.147Zm124.272-45.268h138.4v16.147h-138.4v-16.147Zm-84.771-45.269H2671.7v15.858h-53.342v-15.858Zm20.184-45.556h100.917v16.147H2638.545V-1155.1Z" transform="translate(-2578.86 1169.804)" fill="#fff"/>
            </g>
          </g>
          <g id="Grupo_1561" data-name="Grupo 1561">
            <g id="Grupo_1560" data-name="Grupo 1560" clip-path="url(#clip-path-4)">
              <line id="Línea_106" data-name="Línea 106" y1="498.528" transform="translate(177.613 89.382)" fill="none" stroke="#fff" stroke-linejoin="round" stroke-width="0.72"/>
            </g>
          </g>
          <text id="_0" data-name="0" transform="translate(172.155 621.058)" fill="#003520" font-size="12" font-family="Henriette-Bold, Henriette" font-weight="700"><tspan x="0" y="0">0</tspan></text>
          <text id="_100" data-name="100" transform="translate(318.5 621.058)" fill="#003520" font-size="12" font-family="Henriette-Bold, Henriette" font-weight="700"><tspan x="0" y="0">100</tspan></text>
          <text id="_200" data-name="200" transform="translate(475.75 621.058)" fill="#003520" font-size="12" font-family="Henriette-Bold, Henriette" font-weight="700"><tspan x="0" y="0">200</tspan></text>
          <text id="_300" data-name="300" transform="translate(633.02 621.058)" fill="#003520" font-size="12" font-family="Henriette-Bold, Henriette" font-weight="700"><tspan x="0" y="0">300</tspan></text>
          <text id="_400" data-name="400" transform="translate(790.287 621.058)" fill="#003520" font-size="12" font-family="Henriette-Bold, Henriette" font-weight="700"><tspan x="0" y="0">400</tspan></text>
          <text id="_500" data-name="500" transform="translate(947.557 621.058)" fill="#003520" font-size="12" font-family="Henriette-Bold, Henriette" font-weight="700"><tspan x="0" y="0">500</tspan></text>
          <text id="_600" data-name="600" transform="translate(1104.845 621.058)" fill="#003520" font-size="12" font-family="Henriette-Bold, Henriette" font-weight="700"><tspan x="0" y="0">600</tspan></text>
          <text id="AWÁ" transform="translate(115.287 570.281)" fill="#003520" font-size="12" font-family="Henriette-Bold, Henriette" font-weight="700"><tspan x="0" y="0">AWÁ</tspan></text>
          <text id="EMBERA_CHAMÍ" data-name="EMBERA CHAMÍ" transform="translate(47.097 524.947)" fill="#003520" font-size="12" font-family="Henriette-Bold, Henriette" font-weight="700"><tspan x="0" y="0">EMBERA CHAMÍ</tspan></text>
          <text id="EMBERA_KATÍO" data-name="EMBERA KATÍO" transform="translate(48.962 479.614)" fill="#003520" font-size="12" font-family="Henriette-Bold, Henriette" font-weight="700"><tspan x="0" y="0">EMBERA KATÍO</tspan></text>
          <text id="KANKUAMO" transform="translate(70.205 434.28)" fill="#003520" font-size="12" font-family="Henriette-Bold, Henriette" font-weight="700"><tspan x="0" y="0">KANKUAMO</tspan></text>
          <text id="NASA" transform="translate(110.336 388.947)" fill="#003520" font-size="12" font-family="Henriette-Bold, Henriette" font-weight="700"><tspan x="0" y="0">NASA</tspan></text>
          <text id="PASTOS" transform="translate(95.292 343.613)" fill="#003520" font-size="12" font-family="Henriette-Bold, Henriette" font-weight="700"><tspan x="0" y="0">PASTOS</tspan></text>
          <text id="PIJAO" transform="translate(107.225 298.28)" fill="#003520" font-size="12" font-family="Henriette-Bold, Henriette" font-weight="700"><tspan x="0" y="0">PIJAO</tspan></text>
          <text id="U_WA" data-name="U&apos;WA" transform="translate(111.712 252.946)" fill="#003520" font-size="12" font-family="Henriette-Bold, Henriette" font-weight="700"><tspan x="0" y="0">U&apos;WA</tspan></text>
          <text id="WAYU" transform="translate(106.851 207.613)" fill="#003520" font-size="12" font-family="Henriette-Bold, Henriette" font-weight="700"><tspan x="0" y="0">WAYU</tspan></text>
          <text id="WIWA" transform="translate(107.095 162.279)" fill="#003520" font-size="12" font-family="Henriette-Bold, Henriette" font-weight="700"><tspan x="0" y="0">WIWA</tspan></text>
          <text id="ZENÚ" transform="translate(111.365 116.946)" fill="#003520" font-size="12" font-family="Henriette-Bold, Henriette" font-weight="700"><tspan x="0" y="0">ZENÚ</tspan></text>
          <g id="Grupo_1563" data-name="Grupo 1563">
            <g id="Grupo_1562" data-name="Grupo 1562" clip-path="url(#clip-path-4)">
              <path id="Trazado_3347" data-name="Trazado 3347" d="M2715.854-603.106h11.822v11.821h-11.822v-11.821Z" transform="translate(-2400.706 1261.081)" fill="#003520" fill-rule="evenodd"/>
            </g>
          </g>
          <text id="Masacre" transform="translate(332.11 668.981)" fill="#003520" font-size="15" font-family="Henriette-Bold, Henriette" font-weight="700"><tspan x="0" y="0">Masacre</tspan></text>
          <g id="Grupo_1565" data-name="Grupo 1565">
            <g id="Grupo_1564" data-name="Grupo 1564" clip-path="url(#clip-path-4)">
              <path id="Trazado_3349" data-name="Trazado 3349" d="M2839.349-603.106h11.822v11.821h-11.822v-11.821Z" transform="translate(-2400.218 1261.081)" fill="#d37c3a" fill-rule="evenodd"/>
            </g>
          </g>
          <text id="Desaparición_forzada" data-name="Desaparición forzada" transform="translate(455.946 668.981)" fill="#003520" font-size="15" font-family="Henriette-Bold, Henriette" font-weight="700"><tspan x="0" y="0">Desaparición forzada</tspan></text>
          <g id="Grupo_1567" data-name="Grupo 1567">
            <g id="Grupo_1566" data-name="Grupo 1566" clip-path="url(#clip-path-4)">
              <path id="Trazado_3351" data-name="Trazado 3351" d="M3071.979-603.106h12.11v11.821h-12.11v-11.821Z" transform="translate(-2399.298 1261.081)" fill="#fff" fill-rule="evenodd"/>
            </g>
          </g>
          <text id="Asesinato_selectivo" data-name="Asesinato selectivo" transform="translate(689.69 668.981)" fill="#003520" font-size="15" font-family="Henriette-Bold, Henriette" font-weight="700"><tspan x="0" y="0">Asesinato selectivo</tspan></text>
        </g>
      </g>
    </g>
    <g id="Tag_1" data-name="Tag 1" transform="translate(456.758 163.422)">
      <g id="Grupo_1525" data-name="Grupo 1525" transform="translate(-384.757 -2247.275)">
        <rect id="Rectángulo_376" data-name="Rectángulo 376" width="125.944" height="49" rx="14" transform="translate(389 2247.275)" fill="#4f722d"/>
        <rect id="Rectángulo_377" data-name="Rectángulo 377" width="7" height="7" transform="translate(384.757 2271.638) rotate(-45)" fill="#4f722d"/>
      </g>
      <text id="Asesinato_Colectivo" data-name="Asesinato Colectivo" transform="translate(15.621 4.354)" fill="#fff" font-size="12" font-family="Henriette-Bold, Henriette" font-weight="700"><tspan x="0" y="11">Asesinato Colectivo</tspan></text>
      <text id="Casos" transform="translate(50.242 24.5)" fill="#fff" font-size="12" font-family="Henriette-Bold, Henriette" font-weight="700"><tspan x="0" y="11">Casos</tspan></text>
      <text id="_88" data-name="88" transform="translate(17.621 18.354)" fill="#fff" font-size="20" font-family="Henriette-Bold, Henriette" font-weight="700"><tspan x="0" y="19">88</tspan></text>
    </g>
  </g>
</svg>
