<?xml version="1.0" encoding="utf-8"?>
<!-- Generator: Adobe Illustrator 24.0.1, SVG Export Plug-In . SVG Version: 6.00 Build 0)  -->
<svg version="1.1" id="Capa_1" xmlns="http://www.w3.org/2000/svg" xmlns:xlink="http://www.w3.org/1999/xlink" x="0px" y="0px"
	 viewBox="0 0 14 14" style="enable-background:new 0 0 14 14;" xml:space="preserve">
<style type="text/css">
	.st0{fill:none;}
	.st1{fill:#063916;}
	.st2{fill:#909F61;}
	.st3{fill:#D1A943;}
	.st4{fill:none;stroke:#063916;stroke-width:2.537;stroke-miterlimit:10;}
	.st5{fill:#93CBCC;}
	.st6{fill:none;stroke:#93CBCC;stroke-width:1.269;stroke-linecap:round;stroke-linejoin:round;}
	.st7{fill:#231F20;}
	.st8{fill:#D0309B;stroke:#FFFFFF;stroke-width:0.63;stroke-miterlimit:10;}
	.st9{fill:none;stroke:#5C977D;stroke-width:1.269;stroke-linecap:round;stroke-linejoin:round;}
	.st10{fill:none;stroke:#231F20;stroke-width:1.269;stroke-linecap:round;stroke-linejoin:round;}
	.st11{fill:none;stroke:#305BD0;stroke-width:1.269;stroke-linecap:round;stroke-linejoin:round;}
	.st12{fill:none;stroke:#D0309B;stroke-width:1.269;stroke-linecap:round;stroke-linejoin:round;}
	.st13{fill:none;stroke:#E5661D;stroke-width:1.269;stroke-linecap:round;stroke-linejoin:round;}
	.st14{fill:#305BD0;}
	.st15{fill:#D0309B;}
	.st16{fill:#5C977D;}
	.st17{fill:#E5661D;}
	.st18{fill:#B2A54E;}
	.st19{fill:none;stroke:#16160A;stroke-width:0.476;stroke-linecap:round;stroke-miterlimit:10;}
	.st20{fill:none;stroke:#5C977D;stroke-width:1.16;stroke-linecap:round;stroke-linejoin:round;}
	.st21{fill:none;stroke:#231F20;stroke-width:1.16;stroke-linecap:round;stroke-linejoin:round;}
	.st22{fill:none;stroke:#305BD0;stroke-width:1.16;stroke-linecap:round;stroke-linejoin:round;}
	.st23{fill:none;stroke:#D0309B;stroke-width:1.16;stroke-linecap:round;stroke-linejoin:round;}
	.st24{fill:none;stroke:#E5661D;stroke-width:1.16;stroke-linecap:round;stroke-linejoin:round;}
	.st25{fill:none;stroke:#063916;stroke-width:0.145;stroke-miterlimit:10;}
	.st26{fill:none;stroke:#16160A;stroke-width:0.58;stroke-linecap:round;stroke-linejoin:round;}
	.st27{fill:#16160A;}
	.st28{fill:none;stroke:#063916;stroke-width:0.159;stroke-miterlimit:10;stroke-dasharray:7.612;}
</style>
<g id="Trazado_1666_1_">
	<path class="st1" d="M7,10.5L7,10.5C6.2,10,5.5,9.4,4.8,8.8C3.7,7.9,2.5,6.4,2.4,5.2C2.4,4.5,2.6,4,3,3.7c0.4-0.3,1-0.3,1.8-0.1
		C5.7,3.9,6.4,4.4,7,5.1c0.6-0.7,1.4-1.2,2.2-1.5C10,3.4,10.6,3.4,11,3.7c0.4,0.3,0.6,0.8,0.5,1.4c0,1.3-1.2,2.8-2.3,3.6
		C8.5,9.4,7.8,10,7,10.5L7,10.5z M3.9,3.6c-0.3,0-0.6,0.1-0.8,0.2C2.7,4.1,2.6,4.6,2.6,5.2C2.6,6.5,4,8,4.9,8.7
		C5.6,9.3,6.3,9.8,7,10.3c0.7-0.5,1.4-1.1,2.1-1.6c1.1-0.8,2.2-2.3,2.3-3.5c0-0.6-0.1-1.1-0.5-1.3c-0.4-0.3-1-0.3-1.6-0.1l0,0
		C8.4,4.1,7.6,4.6,7.1,5.3L7,5.4L6.9,5.3C6.4,4.6,5.6,4,4.7,3.8C4.4,3.7,4.1,3.6,3.9,3.6z"/>
</g>
</svg>
