<?xml version="1.0" encoding="utf-8"?>
<!-- Generator: Adobe Illustrator 24.0.1, SVG Export Plug-In . SVG Version: 6.00 Build 0)  -->
<svg version="1.1" id="Capa_1" xmlns="http://www.w3.org/2000/svg" xmlns:xlink="http://www.w3.org/1999/xlink" x="0px" y="0px"
	 viewBox="0 0 14 14" style="enable-background:new 0 0 14 14;" xml:space="preserve">
<style type="text/css">
	.st0{fill:none;}
	.st1{fill:#063916;}
	.st2{fill:#909F61;}
	.st3{fill:#D1A943;}
	.st4{fill:none;stroke:#063916;stroke-width:2.537;stroke-miterlimit:10;}
	.st5{fill:#93CBCC;}
	.st6{fill:none;stroke:#93CBCC;stroke-width:1.269;stroke-linecap:round;stroke-linejoin:round;}
	.st7{fill:#231F20;}
	.st8{fill:#D0309B;stroke:#FFFFFF;stroke-width:0.63;stroke-miterlimit:10;}
	.st9{fill:none;stroke:#5C977D;stroke-width:1.269;stroke-linecap:round;stroke-linejoin:round;}
	.st10{fill:none;stroke:#231F20;stroke-width:1.269;stroke-linecap:round;stroke-linejoin:round;}
	.st11{fill:none;stroke:#305BD0;stroke-width:1.269;stroke-linecap:round;stroke-linejoin:round;}
	.st12{fill:none;stroke:#D0309B;stroke-width:1.269;stroke-linecap:round;stroke-linejoin:round;}
	.st13{fill:none;stroke:#E5661D;stroke-width:1.269;stroke-linecap:round;stroke-linejoin:round;}
	.st14{fill:#305BD0;}
	.st15{fill:#D0309B;}
	.st16{fill:#5C977D;}
	.st17{fill:#E5661D;}
	.st18{fill:#B2A54E;}
	.st19{fill:none;stroke:#16160A;stroke-width:0.476;stroke-linecap:round;stroke-miterlimit:10;}
	.st20{fill:none;stroke:#5C977D;stroke-width:1.16;stroke-linecap:round;stroke-linejoin:round;}
	.st21{fill:none;stroke:#231F20;stroke-width:1.16;stroke-linecap:round;stroke-linejoin:round;}
	.st22{fill:none;stroke:#305BD0;stroke-width:1.16;stroke-linecap:round;stroke-linejoin:round;}
	.st23{fill:none;stroke:#D0309B;stroke-width:1.16;stroke-linecap:round;stroke-linejoin:round;}
	.st24{fill:none;stroke:#E5661D;stroke-width:1.16;stroke-linecap:round;stroke-linejoin:round;}
	.st25{fill:none;stroke:#063916;stroke-width:0.145;stroke-miterlimit:10;}
	.st26{fill:none;stroke:#16160A;stroke-width:0.58;stroke-linecap:round;stroke-linejoin:round;}
	.st27{fill:#16160A;}
	.st28{fill:none;stroke:#063916;stroke-width:0.159;stroke-miterlimit:10;stroke-dasharray:7.612;}
</style>
<g id="Grupo_587_1_">
	<g id="Trazado_1668_1_">
		<path class="st27" d="M11.3,11.7H2.5c-0.2,0-0.3-0.1-0.3-0.3V7.1c0-0.2,0.1-0.3,0.3-0.3s0.3,0.1,0.3,0.3v4.1H11V7
			c0-0.2,0.1-0.3,0.3-0.3s0.3,0.1,0.3,0.3v4.4C11.6,11.6,11.5,11.7,11.3,11.7z"/>
	</g>
	<g id="Trazado_1669_1_">
		<path class="st27" d="M4.9,7.8c0,0-0.1,0-0.1,0C4.7,7.8,4.6,7.6,4.6,7.4L6,3.7L2.3,7.5C2.2,7.6,2,7.6,1.9,7.5
			c-0.1-0.1-0.1-0.3,0-0.4l4.7-4.7c0.1-0.1,0.2-0.1,0.4,0c0.1,0.1,0.2,0.2,0.1,0.3l-1.9,5C5.1,7.8,5,7.8,4.9,7.8z"/>
	</g>
	<g id="Trazado_1670_1_">
		<path class="st27" d="M9.1,7.8C9,7.8,8.9,7.8,8.8,7.6l-1.9-5c0-0.1,0-0.3,0.1-0.3c0.1-0.1,0.3-0.1,0.4,0l4.7,4.7
			c0.1,0.1,0.1,0.3,0,0.4s-0.3,0.1-0.4,0L8,3.7l1.4,3.7c0.1,0.1,0,0.3-0.2,0.4C9.2,7.8,9.1,7.8,9.1,7.8z"/>
	</g>
	<g id="Línea_42_1_">
		<path class="st27" d="M6.9,7.6c-0.2,0-0.3-0.1-0.3-0.3V2.6c0-0.2,0.1-0.3,0.3-0.3s0.3,0.1,0.3,0.3v4.7C7.2,7.4,7.1,7.6,6.9,7.6z"
			/>
	</g>
</g>
</svg>
