<?xml version="1.0" encoding="utf-8"?>
<!-- Generator: Adobe Illustrator 24.0.1, SVG Export Plug-In . SVG Version: 6.00 Build 0)  -->
<svg version="1.1" id="Capa_1" xmlns="http://www.w3.org/2000/svg" xmlns:xlink="http://www.w3.org/1999/xlink" x="0px" y="0px"
	 viewBox="0 0 84 119.2" style="enable-background:new 0 0 84 119.2;" xml:space="preserve">
<style type="text/css">
	.st0{fill:none;}
	.st1{fill:#063916;}
	.st2{fill:#909F61;}
	.st3{fill:#D1A943;}
	.st4{fill:none;stroke:#063916;stroke-width:2.537;stroke-miterlimit:10;}
	.st5{fill:#93CBCC;}
	.st6{fill:none;stroke:#93CBCC;stroke-width:1.269;stroke-linecap:round;stroke-linejoin:round;}
	.st7{fill:#231F20;}
	.st8{fill:#D0309B;stroke:#FFFFFF;stroke-width:0.63;stroke-miterlimit:10;}
	.st9{fill:none;stroke:#5C977D;stroke-width:1.269;stroke-linecap:round;stroke-linejoin:round;}
	.st10{fill:none;stroke:#231F20;stroke-width:1.269;stroke-linecap:round;stroke-linejoin:round;}
	.st11{fill:none;stroke:#305BD0;stroke-width:1.269;stroke-linecap:round;stroke-linejoin:round;}
	.st12{fill:none;stroke:#D0309B;stroke-width:1.269;stroke-linecap:round;stroke-linejoin:round;}
	.st13{fill:none;stroke:#E5661D;stroke-width:1.269;stroke-linecap:round;stroke-linejoin:round;}
	.st14{fill:#305BD0;}
	.st15{fill:#D0309B;}
	.st16{fill:#5C977D;}
	.st17{fill:#E5661D;}
	.st18{fill:#B2A54E;}
	.st19{fill:none;stroke:#16160A;stroke-width:0.476;stroke-linecap:round;stroke-miterlimit:10;}
	.st20{fill:none;stroke:#5C977D;stroke-width:1.16;stroke-linecap:round;stroke-linejoin:round;}
	.st21{fill:none;stroke:#231F20;stroke-width:1.16;stroke-linecap:round;stroke-linejoin:round;}
	.st22{fill:none;stroke:#305BD0;stroke-width:1.16;stroke-linecap:round;stroke-linejoin:round;}
	.st23{fill:none;stroke:#D0309B;stroke-width:1.16;stroke-linecap:round;stroke-linejoin:round;}
	.st24{fill:none;stroke:#E5661D;stroke-width:1.16;stroke-linecap:round;stroke-linejoin:round;}
	.st25{fill:none;stroke:#063916;stroke-width:0.145;stroke-miterlimit:10;}
	.st26{fill:none;stroke:#16160A;stroke-width:0.58;stroke-linecap:round;stroke-linejoin:round;}
	.st27{fill:none;stroke:#063916;stroke-width:0.159;stroke-miterlimit:10;stroke-dasharray:7.612;}
</style>
<g id="Grupo_566_1_" transform="translate(750.687 440.047)">
	<g id="Grupo_565_1_">
		<path id="Trazado_1629_1_" class="st1" d="M-666.7-359.3l-0.5,0.2l-0.5,0l-0.4,0.2l-0.2-0.3v-0.4l0-0.7v-0.6l-0.3-0.7l-0.1-0.5
			l-0.1-0.6l-0.4-0.4l-0.6-0.5l-0.3-0.6v-0.9l0.1-0.4l-0.4-0.3l-0.5,0l-0.4,0.2l-0.1,0.3l-0.6,0.5l-0.4,0.3l-0.4,0.2h-0.4l-0.1,0.3
			l-0.4,0.1v0.5l0,0.4h-0.4l-0.6-0.5l-0.5-0.7l-0.5-0.2l-0.1-0.2l-0.3,0.1l0,0.5l-0.3,0.4l0.2,0.1v0.3l0.1,0.1l0.2-0.1l0.1,0.3
			l0.3,0.2l-8.5-0.1l-0.3-0.2l-0.3,0l-0.3-0.1l-0.3-0.1l-0.3,0.1l-0.1,0.2l-0.9,0l-0.1,0.1l-0.1,0.1l0,0l0,0l-0.3-0.1v4.6l0.2-0.1
			l0.2-0.2l0.2-0.2l0.3,0.2l0,0.2h0.2l0.1-0.1l0.1-0.1h0.2l0.1,0.1l0.1,0.1l1,0l0.1,0.2l0.2,0l0.1-0.2l0.1-0.2h0.3l0.1,0.1l0.1,0.1
			l0.3,0l0.1,0.2l0.1,0.3l-0.1,0.2h0.2l0.2,0.1l0,0.1l-0.1,0v0.3h0.1l0.1,0.1l0,0.2l-0.1,0.1l-0.1,0l0,0.2h0.1l0,0.1l0,0.3l0,0.1
			h-0.1v0.2l0.3,0.1l0.2,0.2l0,0.1l-0.2,0.1l-0.3,0h-0.1l-0.1,0.3l-0.2,0l-0.2-0.1l-0.1-0.2l-0.1-0.1l-0.1,0.1l-0.2,0.2h-0.2
			l-0.2-0.3l-0.4-0.4l-0.3-0.2l-0.2,0.1l-0.6,0.5l-0.3,0.1l-0.1-0.1l-0.4-0.1l-0.1,0.2l-0.3,0.3l-0.2,0.1l-0.9,0l-0.1,0.2l-0.2,0
			l-0.1-0.1l-0.1,0l-0.1,0.2l-0.1,0.1l-0.1,0.1l0,4.5l0.2,0.2l0,0.6l0.2,0.1l0.1,0.2l0.2,0.2l0.2,0.2l0.2,0.1l0.3,0l0.1,0.1l0.2,0.2
			l0.3,0.2l0.2,0.3l0.4,0.1l0.2,0.1l0.1,0.2v0.4l0.1,0.2l0.1,0.1l-0.1,0.2l-0.2,0.3l-0.1,0.2l0,0.2l0.2,0.1l0.2,0.3l0.2,0.3l0.1,0.4
			l0.1,0.1l0.2,0.2l0.4,0.5v0.2l0,0.2l0,0l0.2,0.1l-0.1,0.4l-0.2,0.3l0.1,0.7l0.1,0.4l-0.2,0.2l-0.2,0.2l0.1,0.2l-1.8,10.5l-0.6,3.3
			l-0.5,2.8l-0.6,3.3l-0.8-1l-0.5-0.4l-0.2-0.4l-0.2-0.6l-0.7-0.5l-0.5,0.1l-0.4,0.4l-0.4,0l-0.4-0.2l-0.4,0l-0.3,0l-0.2-0.3
			l-0.4,0.2l4.6-7.5v-0.5l-0.1-0.3l-0.2,0.1l-0.2,0.2l-0.3,0l0-0.2l-0.3-0.2c0,0-0.2-0.2-0.2-0.3v-0.3l-0.4,0l-0.3,0.2l-0.1-0.3
			l0.3-0.3l-0.3-0.2l-0.3,0l-0.1,0.2l-0.2-0.1l0-0.2l-0.4-0.1l-0.4-0.2l-0.1,0.2l0,0.3l-0.2,0l-0.2-0.2l-0.1-0.3l-0.2-0.1v-0.2
			l-0.2-0.2l-0.4-0.2l-0.3-0.1l-0.3-0.1l-0.1-0.2l-0.3-0.1h-0.3l-0.3,0l-0.1-0.1l-0.1,0.3l0,0.2h-0.1l-0.3-0.1l-0.3,0.2l-0.1,0.3
			l0,0.2l-0.3,0.1l-0.3-0.2l-0.3-0.1l-0.2,0.1l-0.1,0.2l-0.3,0.1l-0.2,0l-0.1-0.4l-0.1-0.2l-0.2-0.1l-0.2,0.1l0,0.2l-0.1,0.1
			l-0.2-0.1l0-0.2c0,0,0.1-0.1,0-0.2c-0.1-0.1-0.1-0.1-0.2-0.1c0,0-0.3,0-0.3,0l-0.4-0.1l-0.2-0.1l-0.2,0.1l-0.1-0.2l0-0.2l-0.2,0
			c0,0.1-0.1,0.1-0.2,0.1c-0.1,0-0.1,0.2-0.1,0.2l-0.2,0l-0.2,0.3l-0.1,0.3l-0.3,0.4l-0.2,0.1l-0.3,0.1l-0.3-0.1l-0.3-0.1l-0.2,0.3
			l-0.2,0.3l0,0.2l-0.1,0.1l-0.3-0.2l-0.2-0.1l-0.1,0l-0.4,0.2l-0.4,0.1l-0.2-0.1l-0.1-0.2l-0.3,0l-0.8-0.1l-0.2,0l-0.2-0.2
			l-0.2,0.1l-0.1,0.3l-0.2,0.1l-0.1,0.2l-0.1-0.3l-0.1-0.2l-0.1,0.1l-0.1,0.1l-0.1-0.2l-0.3,0.1l-0.2,0.2l-0.2,0.1l-0.4,0v-0.2
			l-0.1-0.2l-0.1-0.3l-0.3-0.1l-0.3,0c0,0-0.2-0.1-0.2-0.2s-0.3-0.2-0.3-0.2l-0.2-0.4l-0.1-0.3l0.4,0l0-0.4l0.2-0.1l0.1-0.1
			l-0.1-0.2l-0.2-0.1l0-0.4l0-1l-0.2-0.1l-0.1-0.4l-0.3-0.2l-0.3-0.1l-0.1,0.2l-0.4,0l-0.2,0.1l-0.3-0.2l-0.4,0.1l0-0.2l-0.2-0.1
			l-0.2,0l-0.1-0.2l0-0.3l0.2-0.2l0.1-0.2l0.2,0l0-0.2l-0.2-0.1v-0.2l-0.1-0.3l-0.2-0.2l-0.1-0.2l-0.1-0.5l-0.2-0.3l-0.2-0.2
			l-0.2-0.2l-0.2-0.1l-0.3-0.1l-0.1,0l-0.1-0.1l0,0.2l-0.1,0l-0.3,0l-0.3-0.2l-0.1-0.2l-0.2-0.4l0-0.2l-0.3,0l-0.1,0.1l0-0.2
			l-0.2-0.1h-0.1c0-0.1,0-0.1,0-0.2c0-0.1-0.1-0.2-0.1-0.3l-0.2,0.1l0,0.3l-0.1,0l-0.2-0.2l-0.3-0.2l-0.6-0.1l-0.1-0.1l-0.1-0.2
			l0-0.3l-0.4-0.2l0.3-0.1l0.1-0.3c-0.1,0-0.1,0-0.2,0c-0.1-0.1-0.2-0.2-0.3-0.3l-0.3-0.2l0.1-0.4l0.1-0.2l-0.2-0.3l0.1-0.3
			l-0.3-0.1l0.1-0.1l-0.3-0.1l-0.1-0.2l-0.5-0.3c0,0-0.1,0.1-0.2,0c-0.1-0.2-0.2-0.3-0.3-0.5l-0.3-0.3h-0.5l-0.2-0.1
			c0,0-0.1-0.4-0.1-0.4c-0.1-0.1-0.2-0.3-0.2-0.4l-0.1-0.2h-0.2l-0.2,0.1l-0.2,0.1l-0.3-0.2l-0.4-0.4l-0.3-0.1
			c-0.1-0.1-0.3-0.2-0.4-0.4c0-0.1-0.3-0.1-0.3-0.1h-0.3l-0.3-0.1l-0.2,0.1l-0.2,0.3h-0.3l-0.4-0.1l-0.3-0.1
			c-0.1-0.1-0.3-0.1-0.4-0.2c-0.1-0.1-0.2-0.2-0.4-0.2c-0.1,0-0.3-0.1-0.3-0.1l-0.3-0.2l-0.2-0.1l-0.2-0.1h-0.2l-0.4,0l-0.3-0.2
			l-0.2-0.2l-0.2-0.2h-0.3l-0.2-0.4l-0.3-0.3l-0.2-0.3l-0.1-0.3l-0.4-0.3l-0.3,0.1c0,0-0.3,0.1-0.3,0.1c0-0.1,0.1-0.2,0.1-0.3
			l-0.2-0.1l-0.4,0l-0.2-0.1l-0.2-0.1l-0.2-0.2l-0.2,0.1l0,0.3l-0.3-0.1l-0.1,0.1l-0.1,1.1l-0.7-0.1l-0.2,0l-0.2,0.1l-0.1-0.2
			l-0.2-0.2h-0.6l-0.2-0.1l-0.1,0.1l-0.1,0.3l-0.3-0.1l-0.3,0l-0.1,0.2l-0.2-0.1l-0.2-0.2c-0.1-0.1-0.3-0.2-0.4-0.3
			c-0.1,0-0.3,0-0.4,0l-0.2-0.1l0-0.1h-0.4l-0.2,0.1l-0.3,0.1l-0.4-0.1l-0.2-0.2h-0.5l-0.1,0.2l-0.2-0.5h-0.2l-0.2-0.4l-0.2-0.4
			l0.1-0.3l0.1-0.2l-0.3-0.1l-0.4-0.1l-0.3-0.3l-0.2-0.3l0.2-0.5l-0.3-0.4l-0.8,0.2l-1,0.2l-0.6-0.5l-0.6-0.4l-0.8-0.5l-0.2-0.4
			h-0.6l-0.6-0.5l0-0.4l-0.4-0.1l-0.7,0c0,0,0.2-0.2-0.3-0.5c-0.3-0.2-0.5-0.4-0.7-0.7c0,0-0.2-0.1-0.4-0.3s-0.6-0.5-0.6-0.5v-0.4
			l-0.5-0.3l-0.4-0.3l-0.1-0.4l0.5-0.5l0.6-0.8l0.6,0.1h1.2l0.1,0.1l0.4-0.4l-0.1-0.6h-0.3v-0.4l-0.2-0.3l-0.1-0.5l0.4,0.2l0.2-0.4
			l0.1-0.6v-0.4l-0.3,0v-0.4l-0.2-0.1h-0.2l0.1-0.4l0.3-0.2l0-0.5l0.2-0.2h0.5l0.5-0.3l0-0.3l0.2,0.3l0.2,0.2l0.1-0.3l0.1-0.2
			l0.3,0.3l0-0.2l0.2,0.1l0.2-0.2l0.2-0.3v-0.2l0.4,0l0.2,0.4l0.1,0.4l0.3-0.1v-0.2l0.3-0.2v-0.3l0-0.2h0.1l0.1,0.2l0.1,0.1h0.1
			l0-0.3l0.2-0.3l0.2-0.1l0.2,0.3l0.2,0.2l0.1-0.3l0-0.1l-0.2-0.3l0.5,0h0.2l0.1,0.3v-0.4l-0.4-0.1l0-0.1h0.3l0.2-0.3l0-0.2l0-0.2
			l0.1-0.1h0.2l0-0.3l0.2-0.1l-0.4,0l0.1,0.1l-0.2-0.3l0.3-0.5l0.6-0.4l0.1-0.2v-0.2h0.5l0-0.2l-0.2-0.1h-0.4l0.5-0.4l0.1-0.2l0,0
			l0.4-0.3l0.1-0.2l0.2-0.1h0.2l0.1-0.2l0.1-0.2l-0.2-0.2l0.1-0.3l0.2-0.2l0.1-0.3l0.4,0l0.4-0.1l0.1-0.3h0.2l-0.1-0.2l-0.2-0.1
			l-0.1-0.4l0.2-0.3l0.2-0.1l-0.2,0l0.1-0.1l0.2,0.1v0l-0.3-0.2l-0.3,0l-0.3-0.1l-0.2-0.2l-0.2-0.1l0-0.3h0.3l0-0.2l-0.4-0.2l0,0.1
			l-0.1,0.2l0,0.2l-0.3-0.1v-0.3l-0.3-0.2l-0.2-0.2l-0.1,0l-0.3-0.5l-0.2-0.3v-0.7l0.2-0.4l0,0.3l0.2,0.1l0.1-0.3l0.3-0.5l0.5-0.4
			l0.3-0.1l-0.3-0.1l0-0.7l0.1-0.4l0-1h0.2l0,0.3l0.2-0.1l-0.3-0.5l-0.4-0.3l-0.2-0.3v-0.7l-0.1-0.5l0-0.8l0.4-0.1l0-0.2h-0.5v-0.7
			l0.2,0l-0.1-0.2l-0.3-0.1l0-0.5l0.3-0.1l-0.1-0.2h-0.2l-0.1-0.3l-0.3,0.1l-0.1,0.1l-0.2-0.2l0.2-0.2l-0.1-0.2l0-0.2h0.2l0.2-0.1
			l0.3-0.2l0.3,0.2l0.1-0.1l0.1-0.4l0.4-0.4l0.3-0.4l-0.1-0.3l-0.4-0.5l-0.2-0.6l-0.2-0.6l-0.2-0.1l-0.6-0.6l-0.1-0.3h0.1v-0.6
			l0.1-0.1l0.1,0.2l0.2,0.2l0,0.3l0.2,0.1v-0.3l0-0.3l-0.1-0.3l-0.2-0.3l0.4,0.1v-0.3l0.1-0.4v-0.6l-0.3-0.3l-0.1-0.3l-0.2-0.2h-0.3
			l-0.1,0.1v0.3l-0.3-0.1l0-0.5l-0.2-0.5l-0.4-0.3l-0.2,0l-0.2,0.2l-0.1-0.3l0.1-0.4l0.3,0v-0.3l-0.3-0.5l-0.7-0.7l-0.6-0.5l0.2-0.6
			l0.1-0.7l0.1-0.4l0.3,0l0.3-0.1l0.1-0.2l0-0.5l-0.1-0.4l0.2-0.3l0.2-0.1l0.4,0.5l0.2,0.5l0.3,0.1l0.3-0.2l0.3-0.5l0.6-0.7l0.3-0.6
			l0.4-0.3l0.7-0.2l0-0.6l0.2-0.4l-0.2-0.1l0-0.5l-0.3-0.6l-0.4-0.6l-0.1-0.5l-0.2-0.4l-0.3-0.5l-0.2-0.4l0.1-0.3l0.2-0.3l0.1-0.1
			v-0.3l0.5,0.6l0.3,0.2l0,0.3l0.2,0.2l0.2,0.2l0.3,0l0.4,0.4l0.4,0.7l0.5,0.1l0.9,1.2l0.2-2.7l-0.3-0.5l-0.2,0.1l-0.2,0.1l-0.1-0.4
			l0.4-0.1l-0.1-0.2l0.3-0.1h0.4l0.5,0l0.3-0.2l0.1-0.3l0.3-0.2l0.4-0.2l0.4-0.4l0.2-0.1l0.3-0.2l0-0.2h0.2l0,0.1v-0.1h0.2l0.1-0.3
			l0.3-0.3l0.2-0.1l0.1-0.3v-0.3l0.6-0.5l-0.1-0.8l0.2-0.2l0.3-0.2l0-0.4h0.1l0.1-0.2h0.5l0.5-0.5l0.2-0.1l0.2,0.1l0.2-0.1h0.3
			l-0.2,0.1v0.2h0.3l0.3-0.2l0.3,0l0,0l0.2,0l0.3-0.4l0.2-0.5l0.1-0.4l-0.3-0.5l-0.3-0.3l-0.3,0l0.4-0.5l0.1-0.4l0.1-0.4l0.1-0.3
			l0.1-0.1l0.1-0.2l0.2-0.2l0-0.2l-0.2-0.2l-0.1-0.1l0-0.3l0.3,0.1l0.1,0l-0.1,0l0-0.2l0.2,0l0.1-0.2c-0.1-0.2-0.2-0.3-0.3-0.4
			l-0.1,0.1l-0.2,0.2l-0.3,0.2l-0.1,0.2h-0.2l-0.1-0.3l0.1,0.1l0.1-0.1l0.2-0.2l0.2-0.2l-0.1-0.1l0-0.2l0.2,0v-0.4l0-0.2l0.2-0.3
			h0.2l0.1,0.2l-0.2,0.2l-0.1,0.1l0.1,0.1l0.2-0.1l0.1-0.3v-0.3l-0.2-0.2l0-0.2l0.2-0.2l0.1-0.2l0.1,0.3l0,0.2l0.1-0.3l0-0.3
			l-0.2-0.3l0.1-0.2l0.3-0.2l0.1-0.2l0.2-0.2l0.1-0.1h0.4l0.2-0.1l0.3-0.5v0l0,0l0.5-0.2l0.3-0.2l0.5-0.4l0.2,0v-0.3l0.3-0.2
			l0.3-0.1l0.3-0.4l0.3-0.3l0.3,0.2l0.2,0.2l-0.3-0.4l0.3,0.1l1.2,0.6l1,0.3l1-0.1l0.4-0.3l0.3-0.3l-0.1-0.3v-0.4l-0.2-0.2l0.2-0.2
			l0.1-0.3l0-0.2h0.3l0.1-0.3h0.4v0.1l0.2-0.1l0.2-0.2l1,0.5l0.8,0.3l0.8,0h0.5l0,0.2l0.1-0.2l1-0.1l0.7,0l0.3-0.2l0.4-0.2l0.2-0.3
			l0.2-0.2l0.3-0.1l0.4-0.4l0.3-0.3l0.2-0.2l0.3-0.2l0.3-0.2l0.7-0.7l0.4-0.2l0.8-0.2l0.7-0.1l0.6-0.2l0.6-0.3l0.6-0.4l0.4-0.3
			l0.3-0.6l0.1-0.5l0.1-0.2l0-0.6l-0.1-0.2h-0.2l0-0.1l0.1-0.1h0.2l0.1,0.1h0.2l0-0.1h0.4l0.1,0l0.2-0.1h0.2l0.1,0.1v0.2l-0.1,0
			l-0.1,0.1l0,0.1l-0.1,0.2l0.2,0.1l0.3,0l0.1-0.2l0.2-0.1l0.2-0.1v-0.2l-0.1-0.1l0-0.2l-0.2,0l-0.2,0.1l0.1-0.2l0.2-0.2l0.5-0.5
			l0,0.4l0.2,0.1l0.3-0.2l0.1-0.1l0-0.2l0.1-0.1l0.1,0.1l0,0.1l0.1,0l0.1-0.2l0.1,0h0.2l0-0.2l-0.1,0l0,0l-0.1,0l-0.2,0l-0.1,0
			l0-0.1l0.3-0.1h0.3l0.3,0.1h0.5l0.1,0.1l0.1,0l0.1,0.2l0.1,0.1h0.3l0.2,0.1l0.2,0.1l0.3,0l0.4,0.2l0.1,0.5l0.2,0.4l0.3,0.5
			l0.2,0.4v0.2l-0.1,0.1l-0.2,0.2l-0.2,0.1l-0.3,0.2l-0.2,0.2l-0.1,0.1l-0.1-0.1h-0.3v0.2l0.1,0.1v0.2l-0.2,0.3l-1.2,0.5l-1.2,0.4
			l-1.7,0.5l-0.7,1.5l-1.1,2l-0.4,0l-0.7,0.3l-0.6,0.5l-0.3,0.5l-0.3,0.8l-0.3,1l-0.4,0.7l-0.3,0.8l-0.5,0.7l-0.6,0l0,0l0.6,0
			l-0.7,0.9l0,1.3l-0.5,1.1l0,0.6l0.3,0.4l-0.6,0.5l0,0.3l-0.5,1.2l-0.7,0.5l0.2,0.3l-0.5,0.4l-0.3,0.4l-0.1,0.6l-0.1,0.3l-0.1,0.2
			v0.1l0.1-0.1l0.3,0l1.1-0.5l0.3-0.4l0.3-0.1l0.4,0.3l0.1,0.3v0.7l0.3,0.2l0.2-0.3h0.3l0.4,0.1l-0.1,0.4l0.2,0.4l0.2,0.6l0.3,1
			l0.2,0.6l0,0.4h0.3l0.2,0.3l0.7,0.9l0.7,0.6l0.1,0.7l-0.1,0.7v0.6l0.1,0.3l-0.3,0.3l-0.5,0.2l0,0.5l0.1,0.4l-0.3,0.7l0,0.4
			l0.1,0.7v0.7l0.2,0.3l0.1,0.4v0.1l0.3-0.1l0.5,0.3l0.1-0.2l0.4-0.1l0.5,0.5l-0.1,0.6l0.7,1.4l0,0l0.6,0.3h0.2v0l0.4-0.1l0.8-0.4
			l0.4,0.3l0.7-0.2l0.4,0.2h1.1l0.4,0.2l0.5-0.1l0.5,0.1l0.7-0.1l0.2,0.3h0.7l0.9-0.5l1.2-0.3l0.6,0.2l0.4,0l0.3,0.4v0.1h0.5
			l0.3,0.4l0.3,0l0.6,0.3l0.2,0l0.2-0.3l0.9,0.1l4.7,6.1l-0.1,0.2l0.1-0.2l0.5-0.2l0.4,0.4h0.4l0.3-0.4l0.3-0.2l0.1-0.4h1l0.4,0.3
			l1.9,0.3l0.5-0.2l0.4,0.1l0.4-0.3l1.3,0.1l0.5-0.3l0.7-0.2l0.9,0.4l0.6-0.6l0.5-0.2l1.1,0.1h0.6l0.5,0.5l0.2,0.4l-0.2,0.3l0.4,0.4
			l0.2,0.5l-0.1,0.2l-0.3-0.1l-0.5,0.6l-0.4,0.7l-0.2,0.9v0.3l0.2,0.6l-0.1,0.4l-0.2,0.4l-0.8,0.3l-0.5,0.5l0.2,0.9l-0.2,0.4
			l0.2,0.7l-0.2,0.9l-0.1,0.3l0.3,0.9l-0.3,0.8l-0.2,0.8l0.4,0.2l0.6,1.1l-0.2,0.7l-0.2,0.4l0.4,0.4l0.2,0.5l-0.1,0.3c0,0,0,0,0,0
			c0,0,0,0,0,0l0,0l0.2,0.6v0.3l0.3,0.4l0.1,0.8h0.2l0.5-0.1l0.3,0.3l0.7,1.9l0.5,0.3l-0.1,0.3l-0.1,0.3l-0.3,0.2v0.4h-0.2l-0.2,0.3
			l-2.7,2.4l-0.1,0.6l0.3-0.3l0.4,0l0-0.1l0.7,0.4l0.2-0.2l0.5,1.1l0.4,0l1.3,1.6l0.6,0.5l0.1,0.4l-0.3,0.4l0.3,0.8l0.5,0.2l0.2,0.6
			l-0.3,0.4l0.3,0.4l0.2,1.1l0.7,1.3l0,0.4l0.1,0.6l0.4,0.6l-0.1,0.6L-666.7-359.3z"/>
	</g>
	<circle id="Elipse_20_1_" class="st8" cx="-710.3" cy="-429.9" r="3.5"/>
</g>
</svg>
