<?xml version="1.0" encoding="utf-8"?>
<!-- Generator: Adobe Illustrator 24.0.1, SVG Export Plug-In . SVG Version: 6.00 Build 0)  -->
<svg version="1.1" id="Capa_1" xmlns="http://www.w3.org/2000/svg" xmlns:xlink="http://www.w3.org/1999/xlink" x="0px" y="0px"
	 viewBox="0 0 668.1 516.3" style="enable-background:new 0 0 668.1 516.3;" xml:space="preserve">
<style type="text/css">
	.st0{fill:none;}
	.st1{fill:#063916;}
	.st2{fill:#909F61;}
	.st3{fill:#D1A943;}
	.st4{fill:none;stroke:#063916;stroke-width:2.537;stroke-miterlimit:10;}
	.st5{fill:#93CBCC;}
	.st6{fill:none;stroke:#93CBCC;stroke-width:1.269;stroke-linecap:round;stroke-linejoin:round;}
	.st7{fill:#231F20;}
	.st8{fill:#D0309B;stroke:#FFFFFF;stroke-width:0.63;stroke-miterlimit:10;}
	.st9{fill:none;stroke:#5C977D;stroke-width:1.269;stroke-linecap:round;stroke-linejoin:round;}
	.st10{fill:none;stroke:#231F20;stroke-width:1.269;stroke-linecap:round;stroke-linejoin:round;}
	.st11{fill:none;stroke:#305BD0;stroke-width:1.269;stroke-linecap:round;stroke-linejoin:round;}
	.st12{fill:none;stroke:#D0309B;stroke-width:1.269;stroke-linecap:round;stroke-linejoin:round;}
	.st13{fill:none;stroke:#E5661D;stroke-width:1.269;stroke-linecap:round;stroke-linejoin:round;}
	.st14{fill:#305BD0;}
	.st15{fill:#D0309B;}
	.st16{fill:#5C977D;}
	.st17{fill:#E5661D;}
	.st18{fill:#B2A54E;}
	.st19{fill:none;stroke:#16160A;stroke-width:0.476;stroke-linecap:round;stroke-miterlimit:10;}
	.st20{fill:none;stroke:#5C977D;stroke-width:1.16;stroke-linecap:round;stroke-linejoin:round;}
	.st21{fill:none;stroke:#231F20;stroke-width:1.16;stroke-linecap:round;stroke-linejoin:round;}
	.st22{fill:none;stroke:#305BD0;stroke-width:1.16;stroke-linecap:round;stroke-linejoin:round;}
	.st23{fill:none;stroke:#D0309B;stroke-width:1.16;stroke-linecap:round;stroke-linejoin:round;}
	.st24{fill:none;stroke:#E5661D;stroke-width:1.16;stroke-linecap:round;stroke-linejoin:round;}
	.st25{fill:none;stroke:#063916;stroke-width:0.145;stroke-miterlimit:10;}
	.st26{fill:none;stroke:#16160A;stroke-width:0.58;stroke-linecap:round;stroke-linejoin:round;}
	.st27{fill:none;stroke:#063916;stroke-width:0.159;stroke-miterlimit:10;stroke-dasharray:7.612;}
	.st28{font-family:'Arial-BoldMT';}
	.st29{font-size:17px;}
	.st30{letter-spacing:3;}
	.st31{font-family:'ArialMT';}
	.st32{font-size:6px;}
	.st33{font-family:'SegoeUI-Light';}
	.st34{font-size:8px;}
	.st35{fill:#FFFFFF;}
	.st36{font-size:5px;}
	.st37{font-size:4px;}
	.st38{fill:#16160A;}
</style>
<g>
	<path id="Trazado_1608_1_" class="st2" d="M-0.2,372.3l9.7-0.9l19.4,0.9l19.4-1.8h30.9l22.1-1.8l19.4-0.9l17.7-3.6L165,359
		l19.4-2.7h21.2l28.3,1.8h22.1l21.2-1.8l20.3-2.7l11.5-3.6l12.4-15.1l3.5-14.2l-0.9-23.1l2.7-24.9v-39.1l-1.8-37.4l1.8-48l2.6-29.4
		l5.3-16.9l3.5-13.3l5.3-18.7l8-14.2l5.3-12.5L363,36l10.6-4.4l11.5-7.1c0,0,14.1-1.8,16.8-1.8s17.7-1.8,17.7-1.8l17.7-0.9l57.4-2.7
		l65.4,3.6l20.3,2.7l14.1-0.9l23-0.9l11.5,1.8l19.4,1.8l19.4,0.9v490.9H-0.2V372.3z"/>
	<path id="Trazado_1609_1_" class="st5" d="M667.8-1.3v27.6l-19.4-0.9L629,23.6l-11.5-1.8l-23,0.9l-14.1,0.9L560,20.9l-65.4-3.6
		L437.2,20l-17.7,0.9c0,0-15,1.8-17.7,1.8s-16.8,1.8-16.8,1.8l-11.5,7.1L363,36.1l-6.2,7.1l-5.3,12.5l-8,14.2l-5.3,18.7l-3.5,13.3
		l-5.3,16.9l-2.7,29.4l-1.8,48l1.8,37.4v39.1l-2.6,24.9l0.9,23.1l-3.5,14.2l-12.4,15.1l-11.5,3.6l-20.3,2.7l-21.2,1.8H234l-28.3-1.8
		h-21.2L165,359l-26.5,5.3l-17.7,3.6l-19.4,0.9l-22.1,1.8H48.4l-19.4,1.8l-19.4-0.9l-9.7,0.9V-1.3H667.8z"/>
	<text transform="matrix(1 0 0 1 116.7239 223.4615)" class="st1 st28 st29 st30">Mar Caribe</text>
	<path id="Trazado_1610_1_" class="st6" d="M594.1,495.4l0.8-2.9l1.1-4.4l1.1-3.9l1.6-4.2l5.7-2.9l1.5-3.4l-0.8-4.9l-1.9-3.4
		l0.4-1.9l3.4-4.4l3.4-4.4l1.9-3.9l1.5-4.4l2.3-5.3l2.7-6.8l2.3-7.8l0.4-7.8l1.5-4.4l1.9-3.4l1.1-5.8l-1.1-4.9l-1.9-4.4l-1.5-5.3
		l-0.8-7.8l0.8-5.8l2.3-6.8l3.8-3.9l3.8-10.2v-8.8l-2.3-4.9l2.7-6.3l5.3-6.3l4.2-7.8l-0.8-5.8l2.3-9.2l4.9-8.3L647,288l-4.6-6.8
		l-3-4.9v-5.8l2.3-6.8l3-9.7l-0.8-13.1v-6.8l0.8-7.3l-1.1-6.8l-1.5-5.3l0.4-4.9l2.7-5.8l0.8-7.3l-0.8-5.3l-0.4-5.3l1.5-9.7l-3-5.8
		l-3.8-11.2l-2.3-8.7l-2.3-5.8l-2.3-4.4l-8,0.5l-3-4.4l0.8-7.8l2.7-3.4l6.8-5.8l2.7-5.3l-1.9-5.3l-8-1l-5.7-3.4l-3.8-2.9l-1.4-5"/>
	<path id="Trazado_1611_1_" class="st6" d="M582.2,269l-6.5-5.6l-4.2-10.4l-0.4-9.5l-0.8-5.2l-1.1-6.9l0.4-4.7l1.9-3.5l1.5-6.9V212
		l-0.4-5.2l-2.3-5.2l-2.3-4.3l0.4-5.2v-5.6l-0.8-4.3l-4.2-6l-4.6-7.3l-4.6-6.9l-4.6-6.5l-4.2-6.5l-7.6-9.1l-6.1-10.4l-6.5-11.6
		l-8.4-9.9l-6.5-7.3l-6.8-9.1l-6.1-8.2l-3.4-9.1l-4.6-5.6l-9.9-3.5l-11.4-0.4l-9.1-1.7l-11.4-3l-7.2-2.6l-17.9-7.7"/>
	<path id="Trazado_1612_1_" class="st6" d="M442.1,480.4l8-3.5l8.3-5.2l12.1-8.2l8-6.5l8.3-7.8l8.3-8.2l3.8-9.1l2.7-9.5l0.8-6.9
		l-3-6.5l-4.9-5.6l-5.3-3l-3.8-4.5l-3.1-7.4l-3.7-8l-5.1-8.6l-1.9-8.2l-0.8-9.5l-3.9-10.5l0.1-7.2l-1.3-11.3l2.5-9l-3-6.5l-3.4-4.7
		l-3.8-4.7V294l3.8-10.4l3-4.7l3-10.4l-0.4-9.9l-2.7-8.6l-3.8-12.9l-4.2-7.8l-5.7-9.9l-6.5-12.5l-4.6-9.5l-6.1-11.2l-4.2-8.2
		l-3.8-12.1l1.1-10.4l3.4-12.9l0.8-9.9l-1.1-10.4l-1.1-10.4V102L428,87.3l-1.1-15.1l-1.1-13.8l-4.9-13.8l-3.8-3l-12.9-4.3l-12.5,1.3
		l-9.9,2.2l-14.5-7"/>
	<path id="Trazado_1613_1_" class="st6" d="M447.8,421.7l-1.1-9.5V404l-0.4-4.7l-1.1-5.2v-12.9l-0.4-10.8v-25l1.5-6.9v-9.5l-0.4-3.9
		l1.1-7.3l0.4-6.5l-0.4-6.5l1.9-8.6l3.8-6.5l6.1-5.6l6.1-5.2l2.3-8.2l0.8-6.9"/>
	<path id="Trazado_1614_1_" class="st6" d="M408.3,419.1l-1.5-4.3l-2.3-5.6v-4.7L403,401l-1.1-3l0.8-5.2l3-3.5l5.3-6.5l3.4-6.5
		l0.4-7.8V363l-1.1-5.2v-6l-3.4-6l-2.3-7.8l-2.7-7.8l-2.3-9.1l-1.5-4.7l-1.9-10.8l2.3-9.1l3.4-8.2l5.7-9.5l7.2-8.2l6.1-9.9l4.6-8.2
		l2.3-9.1V234l-2.7-7.3l-3.4-10.4l-3.8-6.9l-6.1-9.5l-5.3-5.6l-5.3-9.1l-3.4-5.6l-1.9-7.8v-6l2.3-6.9l3-5.6l4.6-7.3l3-6.9l3-8.6
		l3-5.6l1.1-11.2l-0.8-9.5l-2.3-7.8l-1.9-7.3l-0.8-7.3l0.4-10.4l1.5-6.5L414,61l-2.3-3l-3-3.5l-6.1-3.5l-4.9-3l-2.3-0.9l-5.3-3.5
		l-8.4-3"/>
	<path id="Trazado_1615_1_" class="st6" d="M343.8,421.3l-0.8-13.4v-8.6l0.4-8.6v-38.8l0.4-11.2l1.5-13.4l0.8-8.6l1.9-10.4l4.9-15.1
		l1.9-9.1l2.7-7.3l2.7-15.1l3-16l1.9-16.8l-0.4-12.5l0.8-8.6l3.4-13.8l3.4-12.9l1.9-6.9l0.8-9.5l1.1-7.8l1.5-11.6l2.7-7.8l4.6-6.9
		l8.7-2.2l11.4-2.6l6.8-3.5l3.8-2.2l3.1-0.7"/>
	<path id="Trazado_1616_1_" class="st6" d="M303.3,439.6v-4.3l1.6-5v-3.6l-2-2.3l-2.6-2.7l-3-3.3l-3-3l-4.3-4l-3.6-1.7l-4.9-3l-3-2
		l-2-3.3l-0.3-4l-1.6-2.7l-3-1l-1.6-1.3l-1.6-3l-0.2-3.1"/>
	<path id="Trazado_1617_1_" class="st6" d="M251.8,399.5l1.1,6l2.3,6.3l2.3,4.6l2.3,5.3l3,5.3l3.6,7l3.3,6v13.6l1.6,6l1.3,4l1.6,4
		l2,5l4.3,4.3l4.9,1.7l4.6,3.3l2.3,5.6l1.3,2.7l3.3,5l2.3,3l4.3,3.6l1.6,1.3l3,3.3l1,2.3l1.6,2.7l3.3,2l3.6,3"/>
	<path id="Trazado_1618_1_" class="st6" d="M290.6,516.2l-2.6-3.6l-3.6-4.3l-6.3-2l-3-2.3l-2-2l-2-3.6l-3.3-2l-5.3-1l-6.9-0.3
		l-5.6-2l-5.6-1.7l-4.6-2.7l-3-4l-2.3-4.3l-1-3.6l-2.3-5.3l-4-4l-1.6-4.3l-0.7-4.6l-1.3-4l-1.3-6.3l-2-4l-0.3-3.6l2-3l2.3-3.3l3-3
		l-1-3l-1.3-3.3l-0.7-2.7l1.3-2.7v-2.6l-2-2.3l-0.7-3l0.7-2.3l1-1.3l1-2.3"/>
	<path id="Trazado_1619_1_" class="st6" d="M226.9,515.5l-3-4l-5.6-7l-2.6-4.6l-3.3-4.6l-4-5.3l-3.3-5.6l-2-6l-3-6.6l-1.6-5l-1.6-4
		v-3.6l0.7-3.6l1-4l1-4.3l2.3-3.6l2.3-3l3-1.7l0.7-2.7l-0.7-4.3v-6.3l1.3-5l1.6-2l2-3.3l2.6-3.6l2.6-3.6l6.3-2l5.6-1.7l5.9-1.3
		l6.6-2.3l4.6-0.7h3.6l4.6-2l4-4l4-2l3.6-3.3l2.3-2.7l-0.7-3.3l-1.3-4.6l-1-4l-2-2.7l-3.3-2.3l-2.3-5l-1.6-2l-2.3-3.6"/>
	<path id="Trazado_1620_1_" class="st6" d="M157.2,473.9l-4.2-1.5l-3.4-1.5l-3.8-1.1l-1.9-1.9l-1.1-2.3l-3-0.8l-3.4-1.5l-3-1.1
		l-2.3-3.4l-3-3.4l-1.9-2.7l-3.8-1.5l-4.6-1.5l-1.9-1.5l-3-4.2l-3.4-3.4l-3.8-1.9l-3.8-1.9l-1.1-3.8v-3.8l-1.5-5.3l-3.8-3.8
		l-6.1-1.5l-6.1,0.4l-6.8,1.9l-5.3,0.8l-6.5,2.3l-7.9,1.5l-4.9-3.1l-1.9-5.7l-2.3-5.3v-4.6l-1.5-3.4l-1.9-2.7l-4.9-1.5l-4.9-2.7
		l-3.4-3.8l-4.9-3.1l-5.3-4.6l-1.9-4.6l-2.7-5l-0.6-4.3"/>
	<path id="Trazado_1621_1_" class="st6" d="M127.2,408.6l-5.7,2.7l-7.5,0.5l-6.9,2.7l-5.7,0.9l-3.1,2.7l-2.5,1.8"/>
	<path id="Trazado_1622_1_" class="st6" d="M51.7,422l1.9-1.9l3-0.8l3-1.5l1.1-2.3l2.7-3.8l0.4-3.8l0.4-2.3l0.4-3.8l0.8-4.6l2.7-3.4
		l0.4-3.1l-1.1-3.8l2.3-3.4l0.8-3.8v-3.4l0.8-3.4"/>
	<path id="Trazado_1623_1_" class="st6" d="M501.2,362.9l-4.3-6.1l-6.7-3.1l-11-2.5l-6.7-0.6h-3.1"/>
	<path id="Trazado_1624_1_" class="st5" d="M602.5,54.5l6.7,0.6l3.7,6.1l7.9,8l4.9,8l-3.1,10.4l-4.9,8l-6.1,0.6h-8.5l-10.4-6.1
		l-3.7-6.1v-9.8l2.4-12.9L602.5,54.5"/>
	<path id="Trazado_1625_1_" class="st6" d="M602.6,56.6l-0.8-10.5l4-10.3l20.6-13.3"/>
	<rect id="Rectángulo_93_1_" x="415.1" y="152.7" class="st2" width="35.3" height="10.2"/>
	<text transform="matrix(1 0 0 1 417.898 159.1575)" class="st1 st31 st32">Río Tapias</text>
	<rect id="Rectángulo_94_1_" x="394.3" y="346.6" class="st2" width="35.3" height="10.2"/>
	<text transform="matrix(1 0 0 1 394.3109 353.9525)" class="st1 st31 st32">Caño Hondo</text>
	<rect id="Rectángulo_95_1_" x="350.7" y="249.6" class="st2" width="20.3" height="10.2"/>
	<text transform="matrix(1 0 0 1 352.409 256.1215)" class="st1 st31 st32">Salao</text>
	<rect id="Rectángulo_96_1_" x="248.2" y="458.9" class="st2" width="51.6" height="10.2"/>
	<text transform="matrix(1 0 0 1 250.8969 465.4095)" class="st1 st31 st32">Peñon Colorado</text>
	<rect id="Rectángulo_97_1_" x="217.4" y="475.3" class="st2" width="39.3" height="10.2"/>
	<text transform="matrix(1 0 0 1 532.2789 448.5265)" class="st7 st33 st34">Mamarongo</text>
	<text transform="matrix(1 0 0 1 200.4999 422.7685)" class="st7 st33 st34">Gomke</text>
	<text transform="matrix(1 0 0 1 428.669 383.1565)" class="st7 st33 st34">Peshinū Agua</text>
	<text transform="matrix(1 0 0 1 121.9159 418.6505)" class="st7 st33 st34">Kemakumaky</text>
	<text transform="matrix(1 0 0 1 60.872 391.2735)" class="st7 st33 st34">El Encanto</text>
	<text transform="matrix(1 0 0 1 1.4219 378.8895)" class="st7 st33 st34">La Peña</text>
	<text transform="matrix(1 0 0 1 156.2339 372.5545)" class="st7 st33 st34">Puerto Brisa</text>
	<text transform="matrix(1 0 0 1 566.3229 35.2055)" class="st7 st33 st34">Riohacha</text>
	<path id="Trazado_1630_1_" class="st9" d="M620.4,25.7l5.5,298.1l-29.1,174.2"/>
	<line id="Línea_22_1_" class="st9" x1="628.6" y1="324.7" x2="510.5" y2="179.3"/>
	<line id="Línea_23_1_" class="st9" x1="544" y1="283" x2="625.9" y2="323.8"/>
	<path id="Trazado_1631_1_" class="st10" d="M542.7,282.7l-118.1-8.2L243.4,422.3l414.3-13.8L543.1,284.4l38.2-14.8l73.5,37.4"/>
	<line id="Línea_24_1_" class="st10" x1="582.6" y1="269" x2="596.3" y2="289.7"/>
	<path id="Trazado_1632_1_" class="st11" d="M427.7,182.8L276.1,437.3L156.7,476l-52.3-51.1"/>
	<path id="Trazado_1633_1_" class="st12" d="M153.6,363.7l51.1-7.1l52,4.4l343.6-260.6L460.3,219.2"/>
	<line id="Línea_25_1_" class="st12" x1="600.4" y1="100.4" x2="484.9" y2="194.4"/>
	<path id="Trazado_1634_1_" class="st12" d="M600.4,100.4l-87.1,81.5L243.6,421.8l12.5-61.6"/>
	<line id="Línea_26_1_" class="st12" x1="595.4" y1="496.9" x2="620" y2="26.5"/>
	<line id="Línea_27_1_" class="st12" x1="600.4" y1="99.7" x2="619.7" y2="26.1"/>
	<path id="Trazado_1635_1_" class="st13" d="M645.2,356.7l-77.4-148.2l-0.9,150.7"/>
	<line id="Línea_28_1_" class="st13" x1="567.8" y1="208.5" x2="369.5" y2="34.8"/>
	<line id="Línea_29_1_" class="st13" x1="643.5" y1="357.4" x2="567.3" y2="361"/>
	<path id="Trazado_1636_1_" class="st13" d="M159,474.4l-55.6-54L410,43.7L567.8,205"/>
	<line id="Línea_30_1_" class="st13" x1="410" y1="41.9" x2="658.1" y2="466.9"/>
	<path id="Trazado_1637_1_" class="st13" d="M654.8,308.5l-194.5-89.3l22,140.9"/>
	<path id="Trazado_1638_1_" class="st7" d="M547.8,276.3c-1.6,0.5-2.9,1.4-3.9,2.7c-1-1.3-2.4-2.3-3.9-2.7c-2.2-0.8-4,0-3.9,2.6
		c0.1,2.3,2.3,4.9,4,6.3c1.2,1,2.5,2,3.8,2.9c1.3-0.9,2.6-1.9,3.8-2.9c1.7-1.4,4-4,4-6.3C551.8,276.3,550.1,275.5,547.8,276.3z"/>
	<text transform="matrix(1 0 0 1 540.9219 284.2025)" class="st35 st31 st36">10</text>
	<path id="Trazado_1639_1_" class="st14" d="M430.8,177.1c-1.6,0.5-2.9,1.4-3.9,2.7c-1-1.3-2.4-2.3-3.9-2.7c-2.2-0.8-4,0-3.9,2.6
		c0.1,2.3,2.3,4.9,4,6.3c1.2,1,2.5,2,3.8,2.9c1.3-0.9,2.6-1.9,3.8-2.9c1.7-1.4,4-4,4-6.3C434.7,177.1,433,176.4,430.8,177.1z"/>
	<text transform="matrix(1 0 0 1 423.873 185.0014)" class="st35 st31 st36">22</text>
	<path id="Trazado_1640_1_" class="st15" d="M604.2,94.8c-1.6,0.5-2.9,1.4-3.9,2.7c-1-1.3-2.4-2.3-3.9-2.7c-2.2-0.8-4,0-3.9,2.6
		c0.1,2.3,2.3,4.9,4,6.3c1.2,1,2.5,2,3.8,2.9c1.3-0.9,2.6-1.9,3.8-2.9c1.7-1.4,4-4,4-6.3C608.2,94.8,606.4,94,604.2,94.8z"/>
	<text transform="matrix(1 0 0 1 597.2959 102.6915)" class="st35 st31 st36">13</text>
	<path id="Trazado_1641_1_" class="st15" d="M624.2,20c-1.6,0.5-2.9,1.4-3.9,2.7c-1-1.3-2.4-2.3-3.9-2.7c-2.2-0.8-4,0-3.9,2.6
		c0.1,2.3,2.3,4.9,4,6.3c1.2,1,2.5,2,3.8,2.9c1.3-0.9,2.6-1.9,3.8-2.9c1.7-1.4,4-4,4-6.3C628.1,20,626.4,19.3,624.2,20z"/>
	<path id="Trazado_1642_1_" class="st1" d="M465.9,340.8c-1.6,0.5-2.9,1.4-3.9,2.7c-1-1.3-2.4-2.3-3.9-2.7c-2.2-0.8-4,0-3.9,2.6
		c0.1,2.3,2.3,4.9,4,6.3c1.2,1,2.5,2,3.8,2.9c1.3-0.9,2.6-1.9,3.8-2.9c1.7-1.4,4-4,4-6.3C469.8,340.8,468.1,340,465.9,340.8z"/>
	<text transform="matrix(1 0 0 1 458.977 348.6735)" class="st35 st31 st36">17</text>
	<path id="Trazado_1647_1_" class="st5" d="M419.7,146.5c0-2,1.6-3.6,3.6-3.5s3.6,1.6,3.5,3.6c0,2-1.6,3.5-3.6,3.5
		C421.3,150.1,419.7,148.5,419.7,146.5C419.7,146.5,419.7,146.5,419.7,146.5z"/>
	<circle id="Elipse_21_1_" class="st1" cx="369.5" cy="34.8" r="6.1"/>
	<text transform="matrix(1 0 0 1 366.1189 36.1165)" class="st35 st31 st36">25</text>
	<circle id="Elipse_22_1_" class="st1" cx="410" cy="43.7" r="6.1"/>
	<text transform="matrix(1 0 0 1 406.653 44.9795)" class="st35 st31 st36">24</text>
	<circle id="Elipse_23_1_" class="st1" cx="423.1" cy="146.5" r="6.1"/>
	<text transform="matrix(1 0 0 1 419.6819 147.7985)" class="st35 st31 st36">23</text>
	<circle id="Elipse_24_1_" class="st1" cx="460.3" cy="219.2" r="6.1"/>
	<text transform="matrix(1 0 0 1 456.8759 219.4795)" class="st35 st31 st37">20</text>
	<circle id="Elipse_25_1_" class="st1" cx="484.9" cy="195.3" r="6.1"/>
	<text transform="matrix(1 0 0 1 481.548 196.5885)" class="st35 st31 st36">21</text>
	<circle id="Elipse_26_1_" class="st1" cx="513.1" cy="181.9" r="6.1"/>
	<text transform="matrix(1 0 0 1 509.7449 183.2495)" class="st35 st31 st36">12</text>
	<circle id="Elipse_27_1_" class="st1" cx="567.8" cy="208.5" r="6.1"/>
	<text transform="matrix(1 0 0 1 564.3729 208.8395)" class="st35 st31 st37">11</text>
	<circle id="Elipse_28_1_" class="st1" cx="425" cy="273.5" r="6.1"/>
	<text transform="matrix(1 0 0 1 421.6309 273.7945)" class="st35 st31 st37">19</text>
	<circle id="Elipse_29_1_" class="st1" cx="583.3" cy="269.9" r="6.1"/>
	<text transform="matrix(1 0 0 1 581.4049 271.1985)" class="st35 st31 st36">9</text>
	<circle id="Elipse_30_1_" class="st1" cx="595.1" cy="287.4" r="6.1"/>
	<text transform="matrix(1 0 0 1 593.1449 288.7285)" class="st35 st31 st36">8</text>
	<circle id="Elipse_31_1_" class="st1" cx="566.9" cy="359.2" r="6.1"/>
	<text transform="matrix(1 0 0 1 564.944 360.5225)" class="st35 st31 st36">5</text>
	<circle id="Elipse_34_1_" class="st1" cx="516.7" cy="374.6" r="6.1"/>
	<text transform="matrix(1 0 0 1 513.288 374.9215)" class="st35 st31 st37">37</text>
	<circle id="Elipse_35_1_" class="st1" cx="490.2" cy="385.6" r="6.1"/>
	<text transform="matrix(1 0 0 1 486.8589 385.8965)" class="st35 st31 st37">16</text>
	<circle id="Elipse_36_1_" class="st1" cx="490.1" cy="425.7" r="6.1"/>
	<text transform="matrix(1 0 0 1 486.696 426.9975)" class="st35 st31 st36">15</text>
	<circle id="Elipse_37_1_" class="st1" cx="278.7" cy="435.9" r="6.1"/>
	<text transform="matrix(1 0 0 1 275.3119 437.2005)" class="st35 st31 st36">26</text>
	<circle id="Elipse_38_1_" class="st1" cx="266.3" cy="414.3" r="6.1"/>
	<text transform="matrix(1 0 0 1 262.976 415.6005)" class="st35 st31 st36">27</text>
	<circle id="Elipse_39_1_" class="st1" cx="243.5" cy="421.3" r="6.1"/>
	<text transform="matrix(1 0 0 1 240.1029 422.5825)" class="st35 st31 st36">28</text>
	<circle id="Elipse_40_1_" class="st1" cx="238.3" cy="399.5" r="6.1"/>
	<text transform="matrix(1 0 0 1 234.8989 400.7895)" class="st35 st31 st36">29</text>
	<circle id="Elipse_41_1_" class="st1" cx="255.8" cy="359.6" r="6.1"/>
	<text transform="matrix(1 0 0 1 252.4799 360.8525)" class="st35 st31 st36">30</text>
	<circle id="Elipse_42_1_" class="st1" cx="204.7" cy="356.6" r="6.1"/>
	<text transform="matrix(1 0 0 1 201.3739 357.8635)" class="st35 st31 st36">31</text>
	<circle id="Elipse_43_1_" class="st1" cx="153.6" cy="361.4" r="6.1"/>
	<text transform="matrix(1 0 0 1 150.2669 362.7325)" class="st35 st31 st36">32</text>
	<circle id="Elipse_44_1_" class="st1" cx="64.6" cy="416.2" r="6.1"/>
	<text transform="matrix(1 0 0 1 61.2739 417.4835)" class="st35 st31 st36">36</text>
	<circle id="Elipse_45_1_" class="st1" cx="108.1" cy="422.3" r="6.1"/>
	<text transform="matrix(1 0 0 1 104.762 423.6465)" class="st35 st31 st36">35</text>
	<circle id="Elipse_46_1_" class="st1" cx="127.2" cy="443.9" r="6.1"/>
	<text transform="matrix(1 0 0 1 123.7869 445.2125)" class="st35 st31 st36">35</text>
	<circle id="Elipse_47_1_" class="st1" cx="159" cy="474.4" r="6.1"/>
	<text transform="matrix(1 0 0 1 155.596 475.7465)" class="st35 st31 st36">33</text>
	<g id="Grupo_568_1_" transform="translate(621.273 506.59)">
		<g id="Grupo_567_1_" transform="translate(0)">
			<path id="Trazado_1648_1_" class="st19" d="M-48.2-50.9v5.3h10.7v-5.3"/>
			<path id="Trazado_1649_1_" class="st19" d="M-48.7-50.6l5.7-5.7l-2.3,6"/>
			<path id="Trazado_1650_1_" class="st19" d="M-36.8-50.6l-5.7-5.7l2.3,6"/>
			<line id="Línea_31_1_" class="st19" x1="-42.8" y1="-50.6" x2="-42.8" y2="-56.4"/>
		</g>
	</g>
	<g id="Grupo_570_1_" transform="translate(275.557 468.769)">
		<g id="Grupo_569_1_">
			<path id="Trazado_1651_1_" class="st19" d="M-48.2-50.9v5.3h10.7v-5.3"/>
			<path id="Trazado_1652_1_" class="st19" d="M-48.7-50.6l5.7-5.7l-2.3,6"/>
			<path id="Trazado_1653_1_" class="st19" d="M-36.8-50.6l-5.7-5.7l2.3,6"/>
			<line id="Línea_32_1_" class="st19" x1="-42.8" y1="-50.6" x2="-42.8" y2="-56.4"/>
		</g>
	</g>
	<g id="Grupo_572_1_" transform="translate(525.194 424.16)">
		<g id="Grupo_571_1_">
			<path id="Trazado_1654_1_" class="st19" d="M-48.2-50.9v5.3h10.7v-5.3"/>
			<path id="Trazado_1655_1_" class="st19" d="M-48.7-50.6l5.7-5.7l-2.3,6"/>
			<path id="Trazado_1656_1_" class="st19" d="M-36.8-50.6l-5.7-5.7l2.3,6"/>
			<line id="Línea_33_1_" class="st19" x1="-42.8" y1="-50.6" x2="-42.8" y2="-56.4"/>
		</g>
	</g>
	<g id="Grupo_574_1_" transform="translate(161.433 474.141)">
		<g id="Grupo_573_1_">
			<path id="Trazado_1657_1_" class="st19" d="M-48.2-50.9v5.3h10.7v-5.3"/>
			<path id="Trazado_1658_1_" class="st19" d="M-48.7-50.6l5.7-5.7l-2.3,6"/>
			<path id="Trazado_1659_1_" class="st19" d="M-36.8-50.6l-5.7-5.7l2.3,6"/>
			<line id="Línea_34_1_" class="st19" x1="-42.8" y1="-50.6" x2="-42.8" y2="-56.4"/>
		</g>
	</g>
	<g id="Grupo_576_1_" transform="translate(98.653 449.474)">
		<g id="Grupo_575_1_">
			<path id="Trazado_1660_1_" class="st19" d="M-48.2-50.9v5.3h10.7v-5.3"/>
			<path id="Trazado_1661_1_" class="st19" d="M-48.7-50.6l5.7-5.7l-2.3,6"/>
			<path id="Trazado_1662_1_" class="st19" d="M-36.8-50.6l-5.7-5.7l2.3,6"/>
			<line id="Línea_35_1_" class="st19" x1="-42.8" y1="-50.6" x2="-42.8" y2="-56.4"/>
		</g>
	</g>
	<g id="Grupo_578_1_" transform="translate(77.272 436.082)">
		<g id="Grupo_577_1_">
			<path id="Trazado_1663_1_" class="st19" d="M-48.2-50.9v5.3h10.7v-5.3"/>
			<path id="Trazado_1664_1_" class="st19" d="M-48.7-50.6l5.7-5.7l-2.3,6"/>
			<path id="Trazado_1665_1_" class="st19" d="M-36.8-50.6l-5.7-5.7l2.3,6"/>
			<line id="Línea_36_1_" class="st19" x1="-42.8" y1="-50.6" x2="-42.8" y2="-56.4"/>
		</g>
	</g>
	<g id="Grupo_591_1_" transform="translate(48.503 55.468)">
		<rect id="Rectángulo_98_1_" x="452.7" y="289.4" class="st27" width="167.1" height="172.7"/>
		<rect id="Rectángulo_99_1_" x="285.5" y="289.4" class="st27" width="167.1" height="172.7"/>
		<rect id="Rectángulo_100_1_" x="118.4" y="289.4" class="st27" width="167.1" height="172.7"/>
		<rect id="Rectángulo_101_1_" x="-48.7" y="289.4" class="st27" width="167.1" height="172.7"/>
		<rect id="Rectángulo_102_1_" x="452.7" y="116.7" class="st27" width="167.1" height="172.7"/>
		<rect id="Rectángulo_103_1_" x="285.5" y="116.7" class="st27" width="167.1" height="172.7"/>
		<rect id="Rectángulo_104_1_" x="118.4" y="116.7" class="st27" width="167.1" height="172.7"/>
		<rect id="Rectángulo_105_1_" x="-48.7" y="116.7" class="st27" width="167.1" height="172.7"/>
		<rect id="Rectángulo_106_1_" x="452.7" y="-55.9" class="st27" width="167.1" height="172.7"/>
		<rect id="Rectángulo_107_1_" x="285.5" y="-55.9" class="st27" width="167.1" height="172.7"/>
		<rect id="Rectángulo_108_1_" x="118.4" y="-55.9" class="st27" width="167.1" height="172.7"/>
		<rect id="Rectángulo_109_1_" x="-48.7" y="-56.4" class="st27" width="167.1" height="173.1"/>
	</g>
	<rect id="Rectángulo_110_1_" x="108.8" y="453.6" class="st2" width="41.6" height="7.4"/>
	<text transform="matrix(1 0 0 1 109.737 458.6815)" class="st1 st31 st32">Río Guachaca</text>
	<rect id="Rectángulo_111_1_" x="182.8" y="466.5" class="st2" width="31.5" height="10.2"/>
	<text transform="matrix(1 0 0 1 185.5009 473.0235)" class="st1 st31 st32">Río Jerez</text>
	<rect id="Rectángulo_112_1_" x="288.3" y="415.4" class="st2" width="20.3" height="10.2"/>
	<text transform="matrix(1 0 0 1 291.0109 421.9075)" class="st1 st31 st32">Pilon</text>
	<text transform="matrix(1 0 0 1 224.435 372.4455)" class="st7 st33 st34">Dibulla</text>
	<rect id="Rectángulo_113_1_" x="512.6" y="132.7" class="st2" width="56.5" height="10.2"/>
	<text transform="matrix(1 0 0 1 515.3689 139.1565)" class="st1 st31 st32">Río San Francisco</text>
	<rect id="Rectángulo_115_1_" x="477.5" y="354.6" class="st2" width="52.1" height="7.4"/>
	<text transform="matrix(1 0 0 1 492.5039 359.7355)" class="st1 st31 st32">Arr. El Escándalo</text>
	<path id="Trazado_1671_1_" class="st16" d="M486.3,353.1c-1.6,0.5-2.9,1.4-3.9,2.7c-1-1.3-2.4-2.3-3.9-2.7c-2.2-0.8-4,0-3.9,2.6
		c0.1,2.3,2.3,4.9,4,6.3c1.2,1,2.5,2,3.8,2.9c1.3-0.9,2.6-1.9,3.8-2.9c1.7-1.4,4-4,4-6.3C490.2,353.1,488.5,352.4,486.3,353.1z"/>
	<text transform="matrix(1 0 0 1 479.352 360.0275)" class="st35 st31 st37">18</text>
	<rect id="Rectángulo_116_1_" x="601.2" y="297.9" class="st2" width="32.3" height="11.2"/>
	<text transform="matrix(1 0 0 1 602.7769 304.4365)" class="st1 st33 st34">Reparo</text>
	<text transform="matrix(1 0 0 1 606.6259 428.7265)" class="st7 st33 st34">Guamaken</text>
	<text transform="matrix(1 0 0 1 594.0979 78.8865)" class="st38 st31 st32">Represa</text>
	<text transform="matrix(1 0 0 1 105.2859 405.9955)" class="st1 st31 st32">Q. Vayo</text>
</g>
</svg>
