<svg xmlns="http://www.w3.org/2000/svg" width="150.544" height="418.689" viewBox="0 0 150.544 418.689">
  <g id="Grupo_139" data-name="Grupo 139" transform="translate(5.876 3.533)">
    <g id="Grupo_138" data-name="Grupo 138" transform="translate(0 0)">
      <g id="Grupo_134" data-name="Grupo 134" transform="translate(0 305.12)">
        <line id="Línea_2" data-name="Línea 2" x2="95.846" transform="translate(11.192 53.251)" fill="none" stroke="#e5661d" stroke-miterlimit="10" stroke-width="11.752"/>
        <ellipse id="Elipse_1" data-name="Elipse 1" cx="5.455" cy="6.073" rx="5.455" ry="6.073" transform="translate(0 44.299)" fill="none" stroke="#e5661d" stroke-miterlimit="10" stroke-width="11.752"/>
        <path id="Trazado_155" data-name="Trazado 155" d="M247.4,511.624l40.071,53.251L247.4,618.126" transform="translate(-245.821 -511.624)" fill="none" stroke="#e5661d" stroke-miterlimit="10" stroke-width="11.752"/>
        <path id="Trazado_156" data-name="Trazado 156" d="M383.686,618.126l-40.071-53.251,40.071-53.251" transform="translate(-243.713 -511.624)" fill="none" stroke="#e5661d" stroke-miterlimit="10" stroke-width="11.752"/>
      </g>
      <g id="Grupo_135" data-name="Grupo 135" transform="translate(0 203.25)">
        <line id="Línea_3" data-name="Línea 3" x2="95.846" transform="translate(11.192 53.251)" fill="none" stroke="#e5661d" stroke-miterlimit="10" stroke-width="11.752"/>
        <ellipse id="Elipse_2" data-name="Elipse 2" cx="5.455" cy="6.073" rx="5.455" ry="6.073" transform="translate(0 44.299)" fill="none" stroke="#e5661d" stroke-miterlimit="10" stroke-width="11.752"/>
        <path id="Trazado_157" data-name="Trazado 157" d="M247.4,422.088l40.071,53.251L247.4,528.591" transform="translate(-245.821 -422.088)" fill="none" stroke="#e5661d" stroke-miterlimit="10" stroke-width="11.752"/>
        <path id="Trazado_158" data-name="Trazado 158" d="M383.686,528.591,343.615,475.34l40.071-53.251" transform="translate(-243.713 -422.088)" fill="none" stroke="#e5661d" stroke-miterlimit="10" stroke-width="11.752"/>
      </g>
      <g id="Grupo_136" data-name="Grupo 136" transform="translate(0 101.87)">
        <line id="Línea_4" data-name="Línea 4" x2="95.846" transform="translate(11.192 53.251)" fill="none" stroke="#e5661d" stroke-miterlimit="10" stroke-width="11.752"/>
        <ellipse id="Elipse_3" data-name="Elipse 3" cx="5.455" cy="6.073" rx="5.455" ry="6.073" transform="translate(0 44.299)" fill="none" stroke="#e5661d" stroke-miterlimit="10" stroke-width="11.752"/>
        <path id="Trazado_159" data-name="Trazado 159" d="M247.4,332.983l40.071,53.251L247.4,439.486" transform="translate(-245.821 -332.983)" fill="none" stroke="#e5661d" stroke-miterlimit="10" stroke-width="11.752"/>
        <path id="Trazado_160" data-name="Trazado 160" d="M383.686,439.486l-40.071-53.251,40.071-53.251" transform="translate(-243.713 -332.983)" fill="none" stroke="#e5661d" stroke-miterlimit="10" stroke-width="11.752"/>
      </g>
      <g id="Grupo_137" data-name="Grupo 137">
        <line id="Línea_5" data-name="Línea 5" x2="95.846" transform="translate(11.192 53.251)" fill="none" stroke="#e5661d" stroke-miterlimit="10" stroke-width="11.752"/>
        <ellipse id="Elipse_4" data-name="Elipse 4" cx="5.455" cy="6.073" rx="5.455" ry="6.073" transform="translate(0 44.299)" fill="none" stroke="#e5661d" stroke-miterlimit="10" stroke-width="11.752"/>
        <path id="Trazado_161" data-name="Trazado 161" d="M247.4,243.448,287.468,296.7,247.4,349.951" transform="translate(-245.821 -243.448)" fill="none" stroke="#e5661d" stroke-miterlimit="10" stroke-width="11.752"/>
        <path id="Trazado_162" data-name="Trazado 162" d="M383.686,349.951,343.615,296.7l40.071-53.251" transform="translate(-243.713 -243.448)" fill="none" stroke="#e5661d" stroke-miterlimit="10" stroke-width="11.752"/>
      </g>
    </g>
  </g>
</svg>
