<?xml version="1.0" encoding="utf-8"?>
<!-- Generator: Adobe Illustrator 24.0.1, SVG Export Plug-In . SVG Version: 6.00 Build 0)  -->
<svg version="1.1" id="Capa_1" xmlns="http://www.w3.org/2000/svg" xmlns:xlink="http://www.w3.org/1999/xlink" x="0px" y="0px"
	 viewBox="0 0 515 534" style="enable-background:new 0 0 515 534;" xml:space="preserve">
<style type="text/css">
	.st0{fill:#E5661D;}
</style>
<g id="_1_Icono">
	<g id="Grupo_1723" transform="translate(-124.646 -324.467)">
		<g id="Grupo_122" transform="translate(146.017 345.425)">
			<g id="Grupo_34" transform="translate(78.684)">
				<g id="Grupo_12" transform="translate(0 23.706)">
					<g id="Grupo_6" transform="translate(0 39.014)">
						<path id="Trazado_40" class="st0" d="M81.7,16.9C54.9,8.3,24.9,6.2-4.9,10.8l-0.6-4.1C24.9,2,55.5,4.2,83,13L81.7,16.9z"/>
					</g>
					<g id="Grupo_7" transform="translate(33.246)">
						<path id="Trazado_41" class="st0" d="M-1.4,87.5l-4.1-0.6C-1,58.5,10.2,29.9,26.8,4.3l3.4,2.2C13.9,31.7,3,59.7-1.4,87.5z"/>
					</g>
					<g id="Grupo_8" transform="translate(23.31 9.729)">
						<path id="Trazado_42" class="st0" d="M7.2,6.1c1.3,2.2-0.3,5.6-3.6,7.7s-7.1,2.1-8.5,0S-4.8,8-1.4,5.8S5.9,3.8,7.2,6.1z"/>
					</g>
					<g id="Grupo_9" transform="translate(58.222 63.128)">
						<path id="Trazado_43" class="st0" d="M-4.8,12.1c-1.4-2.1-0.5-5.3,2-6.9S3,4.2,4.3,6.4s0.3,5.2-2.1,6.7S-3.4,14.3-4.8,12.1z"
							/>
					</g>
					<g id="Grupo_10" transform="translate(7.314 62.237)">
						<path id="Trazado_44" class="st0" d="M-3,6.5c2.7-2.5,6.3-2.9,8-1s1,5.4-1.6,7.8s-6,3-7.9,1.1S-5.7,9-3,6.5z"/>
					</g>
					<g id="Grupo_11" transform="translate(77.825 18.187)">
						<path id="Trazado_45" class="st0" d="M2.2,13.5c-3.1,1.2-6.4,0.3-7.4-2s0.8-5.4,4-6.7S5.4,4.6,6.2,7S5.3,12.3,2.2,13.5z"/>
					</g>
				</g>
				<g id="Grupo_19" transform="translate(77.604 0.069)">
					<g id="Grupo_13" transform="translate(2.433 17.584)">
						<path id="Trazado_46" class="st0" d="M70.7,46.4C49.4,28.9,23.1,15.7-5.5,8.3l1-4c29.1,7.6,56,21,77.7,38.9L70.7,46.4z"/>
					</g>
					<g id="Grupo_14" transform="translate(18.898 3.76)">
						<path id="Trazado_47" class="st0" d="M-1.9,70.8l-3.6-2C8.3,44.3,28.4,22.1,52.7,4.3l2.4,3.3C31.3,25,11.6,46.9-1.9,70.8z"/>
					</g>
					<g id="Grupo_15" transform="translate(32.418)">
						<path id="Trazado_48" class="st0" d="M8.2,7.9c0.4,2.5-2.3,5.1-6,5.8s-7.1-0.7-7.7-3.2s2.1-5.2,6-6S7.8,5.3,8.2,7.9z"/>
					</g>
					<g id="Grupo_16" transform="translate(45.942 61.499)">
						<path id="Trazado_49" class="st0" d="M-5.4,10C-6,7.5-4.1,4.9-1.1,4.4s5.6,1.2,6,3.7c0.2,2.9-2,5.4-4.9,5.5
							C-2.5,13.8-4.7,12.3-5.4,10L-5.4,10z"/>
					</g>
					<g id="Grupo_17" transform="translate(0 41.908)">
						<path id="Trazado_50" class="st0" d="M-1.2,4.8C2,3.6,5.4,4.6,6.2,7s-1,5.3-4,6.5s-6.4,0.3-7.4-2S-4.5,6.1-1.2,4.8z"/>
					</g>
					<g id="Grupo_18" transform="translate(79.631 27.213)">
						<path id="Trazado_51" class="st0" d="M0.6,13.6c-3.3,0-6-2-6.1-4.6s2.6-4.7,6.1-4.7s6.1,2.2,6.1,4.8S3.8,13.6,0.6,13.6z"/>
					</g>
				</g>
				<g id="Grupo_26" transform="translate(157)">
					<g id="Grupo_20" transform="translate(11.815 3.817)">
						<path id="Trazado_52" class="st0" d="M51.7,70.7C38.1,46.8,18.4,25-5.5,7.6l2.4-3.3c24.3,17.7,44.5,40,58.3,64.4L51.7,70.7z"
							/>
					</g>
					<g id="Grupo_21" transform="translate(10.245 17.527)">
						<path id="Trazado_53" class="st0" d="M-2.9,46.5l-2.6-3.2C16.2,25.4,43,11.9,72.2,4.3l1,4C44.7,15.7,18.3,29-2.9,46.5z"/>
					</g>
					<g id="Grupo_22" transform="translate(45.179)">
						<path id="Trazado_54" class="st0" d="M8.2,10.4c-0.6,2.5-4,3.9-7.7,3.2s-6.4-3.2-6-5.8s3.8-4.1,7.7-3.4S8.8,7.9,8.2,10.4z"/>
					</g>
					<g id="Grupo_23" transform="translate(35.697 61.622)">
						<path id="Trazado_55" class="st0" d="M-5.5,8.1c0.4-2.5,3.1-4.2,6-3.7S5.4,7.5,4.8,10c-0.9,2.8-3.8,4.3-6.6,3.4
							C-4.1,12.7-5.6,10.5-5.5,8.1L-5.5,8.1z"/>
					</g>
					<g id="Grupo_24" transform="translate(0 27.282)">
						<path id="Trazado_56" class="st0" d="M0.6,4.3C4,4.3,6.7,6.5,6.6,9s-2.8,4.6-6.1,4.6s-6-2-6.1-4.6S-2.9,4.3,0.6,4.3z"/>
					</g>
					<g id="Grupo_25" transform="translate(79.807 41.978)">
						<path id="Trazado_57" class="st0" d="M-1.2,13.5c-3.1-1.2-4.9-4.1-4-6.5s4.2-3.5,7.4-2.2s5,4.3,4,6.7S1.8,14.7-1.2,13.5z"/>
					</g>
				</g>
				<g id="Grupo_33" transform="translate(236.585 23.554)">
					<g id="Grupo_27" transform="translate(20.436)">
						<path id="Trazado_58" class="st0" d="M26.3,87.5C21.9,59.6,10.9,31.7-5.5,6.5l3.4-2.2c16.7,25.6,27.9,54.1,32.4,82.5
							L26.3,87.5z"/>
					</g>
					<g id="Grupo_28" transform="translate(1.012 38.955)">
						<path id="Trazado_59" class="st0" d="M-4.2,17l-1.3-3.9C21.9,4.2,52.5,2,83,6.7l-0.6,4.1C52.5,6.2,22.6,8.3-4.2,17z"/>
					</g>
					<g id="Grupo_29" transform="translate(53.004 9.673)">
						<path id="Trazado_60" class="st0" d="M7.1,13.7c-1.4,2.1-5.2,2.1-8.5,0s-4.9-5.4-3.6-7.7s5.2-2.4,8.6-0.2S8.5,11.6,7.1,13.7z"
							/>
					</g>
					<g id="Grupo_30" transform="translate(21.427 63.438)">
						<path id="Trazado_61" class="st0" d="M-4.9,6.4c1.3-2.2,4.5-2.8,7.1-1.2s3.5,4.8,2,6.9s-4.6,2.5-7,1S-6.2,8.6-4.9,6.4z"/>
					</g>
					<g id="Grupo_31" transform="translate(0 18.339)">
						<path id="Trazado_62" class="st0" d="M2.2,4.8c3.2,1.3,5,4.3,4,6.7s-4.3,3.2-7.4,2S-6.1,9.5-5.3,7S-1.1,3.6,2.2,4.8z"/>
					</g>
					<g id="Grupo_32" transform="translate(71.043 62.389)">
						<path id="Trazado_63" class="st0" d="M-3,13.3c-2.5-2.4-3.3-5.8-1.6-7.8s5.3-1.5,8,1s3.3,6.1,1.5,7.9S-0.5,15.7-3,13.3z"/>
					</g>
				</g>
			</g>
			<g id="Grupo_63" transform="translate(78.687 376.56)">
				<g id="Grupo_41" transform="translate(236.28)">
					<g id="Grupo_35" transform="translate(1.294 31.62)">
						<path id="Trazado_64" class="st0" d="M51.6,16.9C32.2,17,13,14-5.5,8.2l1.3-3.9c26.8,8.6,56.8,10.7,86.6,6.1l0.6,4.1
							C72.6,16.1,62.1,16.9,51.6,16.9z"/>
					</g>
					<g id="Grupo_36" transform="translate(20.787)">
						<path id="Trazado_65" class="st0" d="M-2.1,87.5l-3.4-2.2c16.3-25.2,27.3-53.2,31.7-81l4.1,0.6C25.7,33.3,14.6,61.9-2.1,87.5z
							"/>
					</g>
					<g id="Grupo_37" transform="translate(53.344 62.496)">
						<path id="Trazado_66" class="st0" d="M-5.1,13.5c-1.3-2.2,0.3-5.6,3.6-7.7s7.1-2.1,8.5,0S7,11.6,3.5,13.8S-3.8,15.8-5.1,13.5z
							"/>
					</g>
					<g id="Grupo_38" transform="translate(21.175 10.331)">
						<path id="Trazado_67" class="st0" d="M4.2,6.2c1.4,2.1,0.5,5.3-2,6.9s-5.8,1.1-7.1-1.2s-0.3-5.2,2.1-6.7S2.7,4.1,4.2,6.2z"/>
					</g>
					<g id="Grupo_39" transform="translate(71.044 9.779)">
						<path id="Trazado_68" class="st0" d="M3.4,13.3c-2.7,2.5-6.3,2.9-8,1s-1-5.4,1.6-7.8s6-3,7.9-1.1S6.1,10.8,3.4,13.3z"/>
					</g>
					<g id="Grupo_40" transform="translate(0 55.261)">
						<path id="Trazado_69" class="st0" d="M-1.2,4.8c3.1-1.2,6.4-0.3,7.4,2s-0.8,5.4-4,6.7s-6.6,0.2-7.4-2.2S-4.3,6-1.2,4.8z"/>
					</g>
				</g>
				<g id="Grupo_48" transform="translate(156.696 35.985)">
					<g id="Grupo_42" transform="translate(10.542 11.191)">
						<path id="Trazado_70" class="st0" d="M72.2,46.4c-29.1-7.6-56-21-77.7-38.9l2.6-3.2C18.4,21.8,44.7,35,73.3,42.4L72.2,46.4z"
							/>
					</g>
					<g id="Grupo_43" transform="translate(12.189 0.65)">
						<path id="Trazado_71" class="st0" d="M-3.1,70.8l-2.4-3.3C18.3,50,38.1,28.2,51.6,4.3l3.6,2C41.4,30.7,21.2,53-3.1,70.8z"/>
					</g>
					<g id="Grupo_44" transform="translate(45.559 61.347)">
						<path id="Trazado_72" class="st0" d="M-5.5,10.2c-0.4-2.5,2.3-5.1,6-5.8s7.1,0.7,7.7,3.2s-2.1,5.2-6,6S-5.1,12.8-5.5,10.2z"/>
					</g>
					<g id="Grupo_45" transform="translate(35.412)">
						<path id="Trazado_73" class="st0" d="M4.8,8c0.6,2.5-1.3,5.1-4.3,5.6s-5.6-1.2-6-3.7c-0.2-2.9,2-5.4,4.9-5.5
							C1.9,4.2,4.1,5.7,4.8,8L4.8,8z"/>
					</g>
					<g id="Grupo_46" transform="translate(79.806 19.189)">
						<path id="Trazado_74" class="st0" d="M2.2,13.5c-3.2,1.3-6.6,0.2-7.4-2.2s1-5.3,4-6.5s6.4-0.3,7.4,2S5.4,12.3,2.2,13.5z"/>
					</g>
					<g id="Grupo_47" transform="translate(0 34.327)">
						<path id="Trazado_75" class="st0" d="M0.6,4.3c3.3,0,6,2,6.1,4.6S4,13.6,0.6,13.6s-6.1-2.2-6.1-4.8S-2.7,4.3,0.6,4.3z"/>
					</g>
				</g>
				<g id="Grupo_55" transform="translate(77.299 35.932)">
					<g id="Grupo_49" transform="translate(19.182 0.8)">
						<path id="Trazado_76" class="st0" d="M52.8,70.7C28.5,53,8.3,30.7-5.5,6.3l3.6-2C11.6,28.2,31.4,50,55.3,67.4L52.8,70.7z"/>
					</g>
					<g id="Grupo_50" transform="translate(2.791 11.255)">
						<path id="Trazado_77" class="st0" d="M-4.5,46.5l-1-4c28.6-7.5,54.9-20.7,76.1-38.2l2.6,3.2C51.5,25.4,24.7,38.9-4.5,46.5z"/>
					</g>
					<g id="Grupo_51" transform="translate(32.797 61.473)">
						<path id="Trazado_78" class="st0" d="M-5.4,7.7c0.6-2.5,4-3.9,7.7-3.2s6.4,3.2,6,5.8s-3.8,4.1-7.7,3.4S-6,10.2-5.4,7.7z"/>
					</g>
					<g id="Grupo_52" transform="translate(45.656)">
						<path id="Trazado_79" class="st0" d="M4.8,9.9c-0.4,2.5-3.1,4.2-6,3.7S-6,10.5-5.4,8c0.9-2.8,3.8-4.3,6.6-3.4
							C3.5,5.3,5,7.5,4.8,9.9L4.8,9.9z"/>
					</g>
					<g id="Grupo_53" transform="translate(79.632 34.38)">
						<path id="Trazado_80" class="st0" d="M0.6,13.6c-3.4,0-6.1-2.2-6.1-4.7s2.8-4.6,6.1-4.6s6,2,6.1,4.6S4,13.6,0.6,13.6z"/>
					</g>
					<g id="Grupo_54" transform="translate(0 19.243)">
						<path id="Trazado_81" class="st0" d="M2.2,4.8c3.1,1.2,4.9,4.1,4,6.5S2,14.8-1.2,13.5s-5-4.3-4-6.7S-0.9,3.6,2.2,4.8z"/>
					</g>
				</g>
				<g id="Grupo_62" transform="translate(0 0.206)">
					<g id="Grupo_56" transform="translate(33.178)">
						<path id="Trazado_82" class="st0" d="M26.9,87.5C10.2,61.9-1,33.3-5.5,4.9l4.1-0.6C3,32.1,14,60.1,30.4,85.2L26.9,87.5z"/>
					</g>
					<g id="Grupo_57" transform="translate(0 31.532)">
						<path id="Trazado_83" class="st0" d="M25.5,17c-10.4,0-20.7-0.8-31-2.4l0.6-4.1c29.8,4.5,59.7,2.4,86.6-6.3l1.3,3.9
							C64.4,14.1,45,17.1,25.5,17z"/>
					</g>
					<g id="Grupo_58" transform="translate(23.341 62.506)">
						<path id="Trazado_84" class="st0" d="M-5,5.9c1.4-2.1,5.2-2.1,8.5,0s4.9,5.4,3.6,7.7S2,15.9-1.4,13.8S-6.4,8-5,5.9z"/>
					</g>
					<g id="Grupo_59" transform="translate(57.665 9.964)">
						<path id="Trazado_85" class="st0" d="M4.3,12c-1.3,2.2-4.5,2.8-7.1,1.2s-3.5-4.8-2-6.9s4.6-2.5,7-1S5.6,9.7,4.3,12z"/>
					</g>
					<g id="Grupo_60" transform="translate(77.521 55.055)">
						<path id="Trazado_86" class="st0" d="M-1.2,13.5c-3.2-1.3-5-4.3-4-6.7s4.3-3.2,7.4-2s4.9,4.1,4.1,6.5S2,14.8-1.2,13.5z"/>
					</g>
					<g id="Grupo_61" transform="translate(7.01 9.572)">
						<path id="Trazado_87" class="st0" d="M3.4,6.5C6,8.9,6.7,12.3,5,14.3s-5.3,1.5-8-1s-3.3-6.1-1.5-7.9S0.9,4.1,3.4,6.5z"/>
					</g>
				</g>
			</g>
			<g id="Grupo_92" transform="translate(376.33 78.291)">
				<g id="Grupo_70">
					<g id="Grupo_64" transform="translate(31.62)">
						<path id="Trazado_88" class="st0" d="M-1.6,92.8l-3.9-1.3C3.1,64.7,5.2,34.7,0.6,4.9l4.1-0.6C9.4,34.7,7.2,65.3-1.6,92.8z"/>
					</g>
					<g id="Grupo_65" transform="translate(0 33.246)">
						<path id="Trazado_89" class="st0" d="M75.5,40C50.3,23.7,22.3,12.8-5.5,8.4l0.6-4.1C23.5,8.8,52.1,20,77.7,36.6L75.5,40z"/>
					</g>
					<g id="Grupo_66" transform="translate(62.496 23.31)">
						<path id="Trazado_90" class="st0" d="M3.7,17c-2.2,1.3-5.6-0.3-7.7-3.6s-2.1-7.1,0-8.5S1.8,5,4,8.4S6,15.7,3.7,17z"/>
					</g>
					<g id="Grupo_67" transform="translate(10.331 58.222)">
						<path id="Trazado_91" class="st0" d="M-3.6,5c2.1-1.4,5.3-0.5,6.9,2s1.1,5.8-1.2,7.1S-3,14.4-4.6,12S-5.7,6.4-3.6,5z"/>
					</g>
					<g id="Grupo_68" transform="translate(9.779 7.315)">
						<path id="Trazado_92" class="st0" d="M3.5,6.8c2.5,2.7,2.9,6.3,1,8s-5.4,1-7.8-1.6s-3-6-1.1-7.9S1,4.1,3.5,6.8z"/>
					</g>
					<g id="Grupo_69" transform="translate(55.261 77.826)">
						<path id="Trazado_93" class="st0" d="M-5,12c-1.2-3.1-0.3-6.4,2-7.4s5.4,0.8,6.7,4S4,15.2,1.5,16C-0.9,16.9-3.8,15.1-5,12z"/>
					</g>
				</g>
				<g id="Grupo_77" transform="translate(35.986 77.604)">
					<g id="Grupo_71" transform="translate(11.19 2.434)">
						<path id="Trazado_94" class="st0" d="M-2.3,83.1l-3.2-2.6C12,59.2,25.2,32.9,32.6,4.3l4,1C29,34.5,15.6,61.4-2.3,83.1z"/>
					</g>
					<g id="Grupo_72" transform="translate(0.649 18.897)">
						<path id="Trazado_95" class="st0" d="M57.6,65C40.2,41.1,18.4,21.4-5.5,7.9l2-3.6C20.9,18.1,43.2,38.2,61,62.5L57.6,65z"/>
					</g>
					<g id="Grupo_73" transform="translate(61.347 32.418)">
						<path id="Trazado_96" class="st0" d="M0.4,18c-2.5,0.4-5.1-2.3-5.8-6s0.7-7.1,3.2-7.7s5.2,2.1,6,6S3,17.6,0.4,18z"/>
					</g>
					<g id="Grupo_74" transform="translate(0 45.941)">
						<path id="Trazado_97" class="st0" d="M-1.8,4.4c2.5-0.6,5.1,1.3,5.6,4.3s-1.2,5.6-3.7,6c-2.9,0.2-5.4-2-5.5-4.9
							C-5.6,7.3-4.1,5.1-1.8,4.4L-1.8,4.4z"/>
					</g>
					<g id="Grupo_75" transform="translate(19.188)">
						<path id="Trazado_98" class="st0" d="M3.7,8.6C5,11.8,4,15.2,1.5,16c-2.4,0.9-5.3-1-6.5-4.1s-0.3-6.4,2-7.4S2.5,5.3,3.7,8.6z"
							/>
					</g>
					<g id="Grupo_76" transform="translate(34.326 79.632)">
						<path id="Trazado_99" class="st0" d="M-5.5,10.4c0-3.3,2-6,4.6-6.1s4.7,2.6,4.7,6.1s-2.2,6.1-4.8,6.1S-5.5,13.6-5.5,10.4z"/>
					</g>
				</g>
				<g id="Grupo_84" transform="translate(35.933 157.001)">
					<g id="Grupo_78" transform="translate(0.8 11.814)">
						<path id="Trazado_100" class="st0" d="M-3.5,65.1l-2-3.6C18.4,47.9,40.2,28.2,57.6,4.3l3.3,2.4C43.2,31,20.9,51.2-3.5,65.1z"
							/>
					</g>
					<g id="Grupo_79" transform="translate(11.255 10.244)">
						<path id="Trazado_101" class="st0" d="M32.7,83C25.3,54.4,12.1,28.1-5.5,6.9l3.2-2.6C15.6,26,29.1,52.8,36.7,82L32.7,83z"/>
					</g>
					<g id="Grupo_80" transform="translate(61.473 45.179)">
						<path id="Trazado_102" class="st0" d="M-2.1,18c-2.5-0.6-3.9-4-3.2-7.7s3.2-6.4,5.8-6S4.6,8.2,3.8,12S0.4,18.6-2.1,18z"/>
					</g>
					<g id="Grupo_81" transform="translate(0 35.696)">
						<path id="Trazado_103" class="st0" d="M0.1,4.4c2.5,0.4,4.2,3.1,3.7,6s-3.1,4.8-5.6,4.2c-2.8-0.9-4.3-3.8-3.4-6.6
							C-4.5,5.7-2.3,4.2,0.1,4.4L0.1,4.4z"/>
					</g>
					<g id="Grupo_82" transform="translate(34.379)">
						<path id="Trazado_104" class="st0" d="M3.8,10.4c0,3.4-2.2,6.1-4.7,6.1s-4.6-2.8-4.6-6.1s2-6,4.6-6.1S3.8,6.9,3.8,10.4z"/>
					</g>
					<g id="Grupo_83" transform="translate(19.242 79.806)">
						<path id="Trazado_105" class="st0" d="M-5,8.6c1.2-3.1,4.1-4.9,6.5-4S5,8.7,3.7,12s-4.3,5-6.7,4S-6.2,11.6-5,8.6z"/>
					</g>
				</g>
				<g id="Grupo_91" transform="translate(0.206 236.585)">
					<g id="Grupo_85" transform="translate(0 20.436)">
						<path id="Trazado_106" class="st0" d="M-4.9,40.1l-0.6-4.1c27.8-4.4,55.8-15.4,80.9-31.8l2.2,3.4
							C52.1,24.4,23.5,35.6-4.9,40.1z"/>
					</g>
					<g id="Grupo_86" transform="translate(31.533 1.013)">
						<path id="Trazado_107" class="st0" d="M4.8,92.8l-4.1-0.6C5.3,62.3,3.1,32.4-5.5,5.6l3.9-1.3C7.2,31.7,9.5,62.3,4.8,92.8z"/>
					</g>
					<g id="Grupo_87" transform="translate(62.507 53.005)">
						<path id="Trazado_108" class="st0" d="M-3.9,16.9c-2.1-1.4-2.1-5.2,0-8.5c2.1-3.3,5.4-4.9,7.7-3.6S6.1,9.9,4,13.3
							S-1.8,18.3-3.9,16.9z"/>
					</g>
					<g id="Grupo_88" transform="translate(9.965 21.427)">
						<path id="Trazado_109" class="st0" d="M2.2,4.9C4.4,6.2,5,9.4,3.3,11.9s-4.8,3.5-6.9,2s-2.5-4.6-1-7S-0.1,3.6,2.2,4.9z"/>
					</g>
					<g id="Grupo_89" transform="translate(55.055)">
						<path id="Trazado_110" class="st0" d="M3.7,11.9c-1.3,3.2-4.3,5-6.7,4s-3.2-4.3-2-7.4s4.1-4.9,6.5-4.1C4,5.4,5,8.7,3.7,11.9z"
							/>
					</g>
					<g id="Grupo_90" transform="translate(9.572 71.044)">
						<path id="Trazado_111" class="st0" d="M-3.3,6.8c2.4-2.5,5.8-3.3,7.8-1.6s1.5,5.3-1,8s-6.1,3.3-7.9,1.5S-5.7,9.3-3.3,6.8z"/>
					</g>
				</g>
			</g>
			<g id="Grupo_121" transform="translate(0 78.837)">
				<g id="Grupo_99" transform="translate(23.705 236.28)">
					<g id="Grupo_93" transform="translate(39.015 1.294)">
						<path id="Trazado_112" class="st0" d="M-3.1,92.8c-4.7-30.4-2.5-61,6.3-88.5l3.9,1.3C-1.5,32.4-3.6,62.3,1,92.2L-3.1,92.8z"/>
					</g>
					<g id="Grupo_94" transform="translate(0 20.787)">
						<path id="Trazado_113" class="st0" d="M77.1,40C48.7,35.5,20.1,24.4-5.5,7.7l2.2-3.4c25.2,16.3,53.2,27.3,81,31.7L77.1,40z"/>
					</g>
					<g id="Grupo_95" transform="translate(9.729 53.344)">
						<path id="Trazado_114" class="st0" d="M-3.7,4.7c2.2-1.3,5.6,0.3,7.7,3.6s2.1,7.1,0,8.5s-5.7-0.1-7.9-3.5S-6,6-3.7,4.7z"/>
					</g>
					<g id="Grupo_96" transform="translate(63.129 21.175)">
						<path id="Trazado_115" class="st0" d="M2.3,14c-2.1,1.4-5.3,0.5-6.9-2s-1.1-5.8,1.2-7.1S1.8,4.5,3.3,7S4.5,12.5,2.3,14z"/>
					</g>
					<g id="Grupo_97" transform="translate(62.238 71.044)">
						<path id="Trazado_116" class="st0" d="M-3.3,13.2c-2.5-2.7-2.9-6.3-1-8s5.4-1,7.8,1.6s3,6,1.1,7.9S-0.8,15.9-3.3,13.2z"/>
					</g>
					<g id="Grupo_98" transform="translate(18.187)">
						<path id="Trazado_117" class="st0" d="M3.7,8.6c1.2,3.1,0.3,6.4-2,7.4s-5.4-0.8-6.7-4s-0.2-6.6,2.2-7.4S2.5,5.5,3.7,8.6z"/>
					</g>
				</g>
				<g id="Grupo_106" transform="translate(0.069 156.696)">
					<g id="Grupo_100" transform="translate(17.585 10.542)">
						<path id="Trazado_118" class="st0" d="M-1.5,83.1l-4-1c7.6-29.2,21-56,38.9-77.7l3.2,2.6C19.1,28.2,5.9,54.5-1.5,83.1z"/>
					</g>
					<g id="Grupo_101" transform="translate(3.76 12.189)">
						<path id="Trazado_119" class="st0" d="M58.9,65C34.5,51.2,12.3,31-5.5,6.7l3.3-2.4C15.2,28.1,37.1,47.9,61,61.4L58.9,65z"/>
					</g>
					<g id="Grupo_102" transform="translate(0 45.559)">
						<path id="Trazado_120" class="st0" d="M-1.9,4.3c2.5-0.4,5.1,2.3,5.8,6S3.1,17.4,0.6,18s-5.2-2.1-6-6S-4.5,4.7-1.9,4.3z"/>
					</g>
					<g id="Grupo_103" transform="translate(61.5 35.412)">
						<path id="Trazado_121" class="st0" d="M0.2,14.6c-2.5,0.6-5.1-1.3-5.6-4.3s1.2-5.6,3.7-6c2.9-0.2,5.4,2,5.5,4.9
							C4,11.7,2.5,13.9,0.2,14.6L0.2,14.6z"/>
					</g>
					<g id="Grupo_104" transform="translate(41.908 79.806)">
						<path id="Trazado_122" class="st0" d="M-5,12c-1.3-3.2-0.2-6.6,2.2-7.4s5.3,1,6.5,4s0.3,6.4-2,7.4S-3.7,15.2-5,12z"/>
					</g>
					<g id="Grupo_105" transform="translate(27.213)">
						<path id="Trazado_123" class="st0" d="M3.8,10.4c0,3.3-2,6-4.6,6.1s-4.7-2.6-4.7-6.1s2.2-6.1,4.8-6.1S3.8,7.1,3.8,10.4z"/>
					</g>
				</g>
				<g id="Grupo_113" transform="translate(0 77.3)">
					<g id="Grupo_107" transform="translate(3.817 19.182)">
						<path id="Trazado_124" class="st0" d="M-2.2,65.1l-3.3-2.4c17.7-24.3,40-44.5,64.4-58.3l2,3.6C37,21.4,15.2,41.2-2.2,65.1z"/>
					</g>
					<g id="Grupo_108" transform="translate(17.527 2.79)">
						<path id="Trazado_125" class="st0" d="M33.5,83C15.6,61.3,2.1,34.5-5.5,5.3l4-1c7.5,28.6,20.7,54.9,38.2,76.1L33.5,83z"/>
					</g>
					<g id="Grupo_109" transform="translate(0 32.796)">
						<path id="Trazado_126" class="st0" d="M0.6,4.4c2.5,0.6,3.9,4,3.2,7.7c-0.7,3.7-3.2,6.4-5.8,6s-4.1-3.8-3.4-7.7
							S-1.9,3.8,0.6,4.4z"/>
					</g>
					<g id="Grupo_110" transform="translate(61.622 45.656)">
						<path id="Trazado_127" class="st0" d="M-1.7,14.6c-2.5-0.4-4.2-3.1-3.7-6s3.1-4.8,5.6-4.3C3,5.3,4.5,8.2,3.6,11
							C2.9,13.3,0.7,14.8-1.7,14.6L-1.7,14.6z"/>
					</g>
					<g id="Grupo_111" transform="translate(27.282 79.631)">
						<path id="Trazado_128" class="st0" d="M-5.5,10.4c0-3.4,2.2-6.1,4.7-6.1s4.6,2.8,4.6,6.1s-2,6-4.6,6.1S-5.5,13.8-5.5,10.4z"/>
					</g>
					<g id="Grupo_112" transform="translate(41.977)">
						<path id="Trazado_129" class="st0" d="M3.7,12c-1.2,3.1-4.1,4.9-6.5,4S-6.2,11.8-5,8.6s4.3-5,6.7-4S4.9,8.9,3.7,12z"/>
					</g>
				</g>
				<g id="Grupo_120" transform="translate(23.553)">
					<g id="Grupo_114" transform="translate(0 33.178)">
						<path id="Trazado_130" class="st0" d="M-3.3,40.1l-2.2-3.4C20.1,20,48.6,8.8,77,4.3l0.6,4.1C49.8,12.8,21.9,23.8-3.3,40.1z"/>
					</g>
					<g id="Grupo_115" transform="translate(38.955)">
						<path id="Trazado_131" class="st0" d="M3.3,92.8c-8.8-27.4-11-58-6.4-88.4l4.1,0.6c-4.5,29.8-2.4,59.8,6.3,86.6L3.3,92.8z"/>
					</g>
					<g id="Grupo_116" transform="translate(9.673 23.341)">
						<path id="Trazado_132" class="st0" d="M3.9,4.8c2.1,1.4,2.1,5.2,0,8.5s-5.4,4.9-7.7,3.6S-6.1,11.8-4,8.4S1.8,3.4,3.9,4.8z"/>
					</g>
					<g id="Grupo_117" transform="translate(63.438 57.665)">
						<path id="Trazado_133" class="st0" d="M-3.4,14.1C-5.6,12.8-6.2,9.6-4.6,7s4.8-3.5,6.9-2s2.5,4.6,1,7S-1.2,15.4-3.4,14.1z"/>
					</g>
					<g id="Grupo_118" transform="translate(18.339 77.521)">
						<path id="Trazado_134" class="st0" d="M-5,8.6c1.3-3.2,4.3-5,6.7-4s3.2,4.3,2,7.4s-4.1,4.9-6.5,4.1S-6.2,11.8-5,8.6z"/>
					</g>
					<g id="Grupo_119" transform="translate(62.39 7.01)">
						<path id="Trazado_135" class="st0" d="M3.5,13.2c-2.4,2.5-5.8,3.3-7.8,1.6s-1.5-5.3,1-8s6.1-3.3,7.9-1.5S5.9,10.7,3.5,13.2z"
							/>
					</g>
				</g>
			</g>
		</g>
	</g>
</g>
</svg>
