<?xml version="1.0" encoding="utf-8"?>
<!-- Generator: Adobe Illustrator 24.0.1, SVG Export Plug-In . SVG Version: 6.00 Build 0)  -->
<svg version="1.1" id="Capa_1" xmlns="http://www.w3.org/2000/svg" xmlns:xlink="http://www.w3.org/1999/xlink" x="0px" y="0px"
	 viewBox="0 0 435 434.9" style="enable-background:new 0 0 435 434.9;" xml:space="preserve">
<style type="text/css">
	.st0{fill:#E5661D;}
</style>
<g>
	<path id="Trazado_1055" class="st0" d="M408.1,137.3l2.8-1.2c-0.5-1.2-1-2.4-1.5-3.5l-2.7,1.2C407.1,135,407.6,136.2,408.1,137.3z"
		/>
	<path id="Trazado_1056" class="st0" d="M406.8,141.9l2.8-1.1c-0.5-1.2-0.9-2.3-1.4-3.5l-2.8,1.2
		C405.9,139.6,406.3,140.8,406.8,141.9z"/>
	<path id="Trazado_1057" class="st0" d="M405.3,146.4l2.8-1.1c-0.4-1.2-0.9-2.3-1.3-3.4L404,143
		C404.5,144.2,404.9,145.3,405.3,146.4z"/>
	<path id="Trazado_1058" class="st0" d="M403.8,150.8l2.8-1c-0.4-1.1-0.8-2.3-1.3-3.4l-2.8,1.1C403,148.6,403.4,149.7,403.8,150.8z"
		/>
	<path id="Trazado_1059" class="st0" d="M402.1,155.2l2.8-1c-0.4-1.1-0.8-2.2-1.2-3.4l-2.8,1C401.4,152.9,401.7,154.1,402.1,155.2z"
		/>
	<path id="Trazado_1060" class="st0" d="M416.7,161.9c0.3,1.2,0.7,2.4,1,3.6l2.9-0.8c-0.3-1.2-0.6-2.4-1-3.6L416.7,161.9z"/>
	<path id="Trazado_1061" class="st0" d="M412.8,159.3c0.3,1.2,0.7,2.3,1,3.5l2.9-0.8c-0.3-1.2-0.7-2.4-1-3.5L412.8,159.3z"/>
	<path id="Trazado_1062" class="st0" d="M408.9,156.7c0.4,1.1,0.7,2.3,1.1,3.4l2.9-0.9c-0.3-1.2-0.7-2.3-1.1-3.5L408.9,156.7z"/>
	<path id="Trazado_1063" class="st0" d="M405,154.2c0.4,1.1,0.8,2.2,1.1,3.4l2.9-0.9c-0.4-1.1-0.7-2.3-1.1-3.4L405,154.2z"/>
	<path id="Trazado_1064" class="st0" d="M423.5,164l-2.9,0.8c0.3,1.2,0.6,2.4,0.9,3.6l2.9-0.7C424.1,166.4,423.8,165.2,423.5,164z"
		/>
	<path id="Trazado_1065" class="st0" d="M419.4,172.6l2.9-0.6c-0.3-1.2-0.5-2.4-0.8-3.6l-2.9,0.7
		C418.9,170.3,419.2,171.4,419.4,172.6z"/>
	<path id="Trazado_1066" class="st0" d="M417.3,176.8l2.9-0.6c-0.2-1.2-0.5-2.4-0.8-3.6l-2.9,0.6C416.8,174.5,417,175.6,417.3,176.8
		z"/>
	<path id="Trazado_1067" class="st0" d="M415,180.9l2.9-0.5c-0.2-1.2-0.4-2.4-0.7-3.5l-2.9,0.6C414.6,178.6,414.8,179.7,415,180.9z"
		/>
	<path id="Trazado_1068" class="st0" d="M412.7,184.8l3-0.5c-0.2-1.2-0.4-2.3-0.6-3.5l-2.9,0.5C412.3,182.6,412.5,183.7,412.7,184.8
		z"/>
	<path id="Trazado_1069" class="st0" d="M410.2,188.7l3-0.4c-0.2-1.1-0.4-2.3-0.5-3.4l-3,0.5C409.9,186.5,410.1,187.6,410.2,188.7z"
		/>
	<path id="Trazado_1070" class="st0" d="M423.4,197.7c0.1,1.2,0.2,2.4,0.3,3.6l3-0.2c-0.1-1.2-0.2-2.4-0.3-3.6L423.4,197.7z"/>
	<path id="Trazado_1071" class="st0" d="M420.1,194.5c0.1,1.2,0.3,2.4,0.4,3.5l3-0.3c-0.1-1.2-0.2-2.4-0.4-3.6L420.1,194.5z"/>
	<path id="Trazado_1072" class="st0" d="M416.7,191.3c0.2,1.2,0.3,2.3,0.4,3.5l3-0.3c-0.1-1.2-0.3-2.4-0.4-3.5L416.7,191.3z"/>
	<path id="Trazado_1073" class="st0" d="M413.2,188.3c0.2,1.1,0.3,2.3,0.5,3.4l3-0.4c-0.2-1.2-0.3-2.3-0.5-3.5L413.2,188.3z"/>
	<path id="Trazado_1074" class="st0" d="M429.7,200.8l-3,0.2c0.1,1.2,0.2,2.4,0.3,3.6l3-0.2C429.9,203.3,429.8,202.1,429.7,200.8z"
		/>
	<path id="Trazado_1075" class="st0" d="M424.2,208.5l3-0.1c-0.1-1.2-0.1-2.4-0.2-3.6l-3,0.2C424,206.1,424.1,207.3,424.2,208.5z"/>
	<path id="Trazado_1076" class="st0" d="M421.3,212.1l3-0.1c0-1.2-0.1-2.4-0.1-3.6l-3,0.1C421.2,209.8,421.3,210.9,421.3,212.1z"/>
	<path id="Trazado_1077" class="st0" d="M418.4,215.7l3,0c0-1.2,0-2.3-0.1-3.5l-3,0.1C418.3,213.4,418.3,214.5,418.4,215.7z"/>
	<path id="Trazado_1078" class="st0" d="M415.4,219.1l3,0c0-1.2,0-2.3,0-3.5l-3,0C415.4,216.8,415.4,218,415.4,219.1z"/>
	<path id="Trazado_1079" class="st0" d="M412.3,222.4l3,0.1c0-1.1,0-2.3,0.1-3.4l-3,0C412.4,220.2,412.3,221.3,412.3,222.4z"/>
	<path id="Trazado_1080" class="st0" d="M423.7,233.4c-0.1,1.2-0.2,2.4-0.3,3.5l3,0.3c0.1-1.2,0.2-2.4,0.3-3.6L423.7,233.4z"/>
	<path id="Trazado_1081" class="st0" d="M421,229.7c-0.1,1.2-0.2,2.3-0.2,3.5l3,0.2c0.1-1.2,0.2-2.4,0.2-3.5L421,229.7z"/>
	<path id="Trazado_1082" class="st0" d="M418.2,226.1c0,1.2-0.1,2.3-0.2,3.5l3,0.2c0.1-1.2,0.1-2.3,0.2-3.5L418.2,226.1z"/>
	<path id="Trazado_1083" class="st0" d="M415.3,222.5c0,1.1-0.1,2.3-0.1,3.4l3,0.1c0.1-1.2,0.1-2.3,0.1-3.5L415.3,222.5z"/>
	<path id="Trazado_1084" class="st0" d="M393,339.4l3.1,2.1c21.3-30.7,34.3-66.4,37.9-103.6l-3.7-0.4
		C426.8,274.2,413.9,309.2,393,339.4z"/>
	<path id="Trazado_1085" class="st0" d="M406.6,235.4c-3.1,32.5-14.5,63.6-33.1,90.5l3.1,2.1c18.9-27.4,30.6-59.1,33.8-92.2
		L406.6,235.4z"/>
	<path id="Trazado_1086" class="st0" d="M429.4,237.5l-3-0.3c-0.1,1.2-0.2,2.4-0.4,3.6l3,0.3C429.1,239.9,429.3,238.7,429.4,237.5z"
		/>
	<path id="Trazado_1087" class="st0" d="M422.6,244l3,0.4c0.2-1.2,0.3-2.4,0.4-3.6l-3-0.3C422.9,241.7,422.8,242.8,422.6,244z"/>
	<path id="Trazado_1088" class="st0" d="M419.2,247.1l3,0.4c0.2-1.2,0.3-2.3,0.5-3.5l-3-0.4C419.5,244.8,419.3,245.9,419.2,247.1z"
		/>
	<path id="Trazado_1089" class="st0" d="M415.7,250l3,0.5c0.2-1.1,0.4-2.3,0.5-3.4l-3-0.4C416,247.8,415.9,248.9,415.7,250z"/>
	<path id="Trazado_1090" class="st0" d="M412.1,252.9l2.9,0.5c0.2-1.1,0.4-2.3,0.6-3.4l-3-0.5C412.5,250.7,412.3,251.8,412.1,252.9z
		"/>
	<path id="Trazado_1091" class="st0" d="M408.6,255.6l2.9,0.6c0.2-1.1,0.4-2.2,0.6-3.3l-2.9-0.5C409,253.5,408.8,254.5,408.6,255.6z
		"/>
	<path id="Trazado_1092" class="st0" d="M418,268.3c-0.3,1.1-0.6,2.3-0.9,3.4l2.9,0.8c0.3-1.2,0.6-2.3,0.9-3.5L418,268.3z"/>
	<path id="Trazado_1093" class="st0" d="M415.9,264.2c-0.3,1.1-0.5,2.3-0.8,3.4l2.9,0.7c0.3-1.1,0.6-2.3,0.8-3.4L415.9,264.2z"/>
	<path id="Trazado_1094" class="st0" d="M413.7,260.2c-0.2,1.1-0.5,2.2-0.8,3.3l2.9,0.7c0.3-1.1,0.5-2.3,0.8-3.4L413.7,260.2z"/>
	<path id="Trazado_1095" class="st0" d="M411.5,256.2c-0.2,1.1-0.5,2.2-0.7,3.3l2.9,0.6c0.2-1.1,0.5-2.2,0.7-3.4L411.5,256.2z"/>
	<path id="Trazado_1096" class="st0" d="M422.8,273.3l-2.9-0.8c-0.3,1.2-0.6,2.3-1,3.4l2.9,0.8C422.2,275.6,422.5,274.5,422.8,273.3
		z"/>
	<path id="Trazado_1097" class="st0" d="M415.1,278.5l2.9,0.9c0.4-1.1,0.7-2.3,1-3.4l-2.9-0.8C415.8,276.3,415.4,277.4,415.1,278.5z
		"/>
	<path id="Trazado_1098" class="st0" d="M411.2,280.9l2.8,0.9c0.4-1.1,0.7-2.2,1.1-3.4l-2.9-0.9
		C411.9,278.7,411.5,279.8,411.2,280.9z"/>
	<path id="Trazado_1099" class="st0" d="M407.2,283.3l2.8,1c0.4-1.1,0.7-2.2,1.1-3.3l-2.8-0.9C408,281.1,407.6,282.2,407.2,283.3z"
		/>
	<path id="Trazado_1100" class="st0" d="M403.3,285.5l2.8,1c0.4-1.1,0.8-2.1,1.2-3.2l-2.8-1C404,283.3,403.7,284.4,403.3,285.5z"/>
	<path id="Trazado_1101" class="st0" d="M399.3,287.5l2.8,1.1c0.4-1,0.8-2.1,1.2-3.2l-2.8-1C400.1,285.5,399.7,286.5,399.3,287.5z"
		/>
	<path id="Trazado_1102" class="st0" d="M406.4,301.6c-0.5,1.1-1,2.1-1.5,3.2l2.7,1.3c0.5-1.1,1-2.2,1.5-3.3L406.4,301.6z"/>
	<path id="Trazado_1103" class="st0" d="M405.1,297.2c-0.5,1.1-0.9,2.1-1.4,3.2l2.7,1.2c0.5-1.1,0.9-2.2,1.4-3.2L405.1,297.2z"/>
	<path id="Trazado_1104" class="st0" d="M403.6,292.9c-0.4,1.1-0.9,2.1-1.3,3.2l2.8,1.2c0.5-1.1,0.9-2.1,1.3-3.2L403.6,292.9z"/>
	<path id="Trazado_1105" class="st0" d="M402.1,288.6c-0.4,1-0.8,2.1-1.2,3.1l2.8,1.1c0.4-1.1,0.8-2.1,1.3-3.2L402.1,288.6z"/>
	<path id="Trazado_1106" class="st0" d="M410.4,307.4l-2.7-1.3c-0.5,1.1-1,2.2-1.5,3.2l2.7,1.3C409.3,309.6,409.9,308.5,410.4,307.4
		z"/>
	<path id="Trazado_1107" class="st0" d="M401.8,311.2l2.7,1.4c0.5-1.1,1.1-2.1,1.6-3.2l-2.7-1.3
		C402.9,309.1,402.4,310.1,401.8,311.2z"/>
	<path id="Trazado_1108" class="st0" d="M397.6,312.9l2.6,1.4c0.6-1,1.1-2.1,1.6-3.1l-2.7-1.4C398.7,310.9,398.1,311.9,397.6,312.9z
		"/>
	<path id="Trazado_1109" class="st0" d="M393.3,314.5l2.6,1.4c0.6-1,1.1-2,1.7-3.1l-2.6-1.4C394.4,312.5,393.9,313.5,393.3,314.5z"
		/>
	<path id="Trazado_1110" class="st0" d="M389,316l2.6,1.5c0.6-1,1.1-2,1.7-3l-2.6-1.4C390.1,314.1,389.6,315.1,389,316z"/>
	<path id="Trazado_1111" class="st0" d="M384.7,317.4l2.6,1.5c0.6-1,1.1-1.9,1.7-2.9l-2.6-1.5C385.9,315.5,385.3,316.5,384.7,317.4z
		"/>
	<path id="Trazado_1112" class="st0" d="M389.3,332.6c-0.7,1-1.3,2-2,2.9l2.5,1.7c0.7-1,1.4-2,2-3L389.3,332.6z"/>
	<path id="Trazado_1113" class="st0" d="M388.8,328c-0.6,1-1.3,2-1.9,2.9l2.5,1.7c0.7-1,1.3-2,1.9-3L388.8,328z"/>
	<path id="Trazado_1114" class="st0" d="M388.1,323.4c-0.6,1-1.2,1.9-1.8,2.9l2.5,1.6c0.6-1,1.3-2,1.9-3L388.1,323.4z"/>
	<path id="Trazado_1115" class="st0" d="M387.3,319c-0.6,1-1.2,1.9-1.8,2.9l2.5,1.6c0.6-1,1.2-2,1.8-2.9L387.3,319z"/>
	<path id="Trazado_1116" class="st0" d="M307.5,411.3l1.6,3.4c35-16.2,65-41.5,87-73.1l-3.1-2.1
		C371.4,370.6,341.9,395.4,307.5,411.3z"/>
	<path id="Trazado_1117" class="st0" d="M392.3,338.9l-2.5-1.7c-0.7,1-1.4,2-2.1,2.9l2.4,1.8C390.9,340.9,391.6,339.9,392.3,338.9z"
		/>
	<path id="Trazado_1118" class="st0" d="M383.2,341.3l2.4,1.8c0.7-1,1.4-1.9,2.1-2.9l-2.4-1.8C384.6,339.4,383.9,340.3,383.2,341.3z
		"/>
	<path id="Trazado_1119" class="st0" d="M378.7,342.3l2.4,1.8c0.7-0.9,1.4-1.9,2.2-2.8l-2.4-1.8
		C380.1,340.4,379.4,341.3,378.7,342.3z"/>
	<path id="Trazado_1120" class="st0" d="M374.2,343.2l2.3,1.9c0.7-0.9,1.5-1.8,2.2-2.8l-2.4-1.8
		C375.6,341.4,374.9,342.3,374.2,343.2z"/>
	<path id="Trazado_1121" class="st0" d="M369.7,343.9l2.3,1.9c0.7-0.9,1.5-1.8,2.2-2.7l-2.3-1.9
		C371.1,342.2,370.4,343.1,369.7,343.9z"/>
	<path id="Trazado_1122" class="st0" d="M365.2,344.6l2.3,2c0.7-0.9,1.5-1.7,2.2-2.6l-2.3-1.9C366.7,342.9,365.9,343.7,365.2,344.6z
		"/>
	<path id="Trazado_1123" class="st0" d="M367.1,360.4c-0.8,0.9-1.7,1.7-2.5,2.6l2.1,2.1c0.9-0.9,1.7-1.7,2.5-2.6L367.1,360.4z"/>
	<path id="Trazado_1124" class="st0" d="M367.3,355.7c-0.8,0.9-1.6,1.7-2.4,2.6l2.2,2.1c0.8-0.9,1.6-1.7,2.5-2.6L367.3,355.7z"/>
	<path id="Trazado_1125" class="st0" d="M367.5,351.1c-0.8,0.9-1.5,1.7-2.3,2.6l2.2,2c0.8-0.9,1.6-1.7,2.4-2.6L367.5,351.1z"/>
	<path id="Trazado_1126" class="st0" d="M367.5,346.5c-0.7,0.9-1.5,1.7-2.3,2.6l2.2,2c0.8-0.9,1.5-1.7,2.3-2.6L367.5,346.5z"/>
	<path id="Trazado_1127" class="st0" d="M366.7,365.1c-0.9,0.9-1.7,1.7-2.6,2.6l2.1,2.1c0.9-0.9,1.8-1.7,2.6-2.6L366.7,365.1z"/>
	<path id="Trazado_1128" class="st0" d="M359.4,368l2.1,2.2c0.9-0.8,1.8-1.7,2.6-2.5l-2.1-2.1C361.1,366.3,360.3,367.2,359.4,368z"
		/>
	<path id="Trazado_1129" class="st0" d="M354.7,368.2l2,2.2c0.9-0.8,1.8-1.6,2.7-2.5l-2.1-2.2C356.5,366.6,355.6,367.4,354.7,368.2z
		"/>
	<path id="Trazado_1130" class="st0" d="M350.1,368.3l2,2.2c0.9-0.8,1.8-1.6,2.7-2.4l-2-2.2C351.9,366.8,351,367.6,350.1,368.3z"/>
	<path id="Trazado_1131" class="st0" d="M345.5,368.4l1.9,2.3c0.9-0.8,1.8-1.5,2.7-2.3l-2-2.2C347.3,366.9,346.4,367.6,345.5,368.4z
		"/>
	<path id="Trazado_1132" class="st0" d="M340.9,368.3l1.9,2.3c0.9-0.7,1.8-1.5,2.7-2.2l-1.9-2.3
		C342.7,366.8,341.8,367.6,340.9,368.3z"/>
	<path id="Trazado_1133" class="st0" d="M339.8,384.2c-1,0.7-2,1.4-3,2.1l1.7,2.4c1-0.7,2-1.4,3-2.2L339.8,384.2z"/>
	<path id="Trazado_1134" class="st0" d="M341,379.7c-1,0.7-1.9,1.4-2.9,2.2l1.8,2.4c1-0.7,2-1.5,2.9-2.2L341,379.7z"/>
	<path id="Trazado_1135" class="st0" d="M342,375.1c-0.9,0.7-1.9,1.5-2.8,2.2l1.8,2.4c1-0.7,1.9-1.5,2.8-2.2
		C343.2,376.7,342.6,375.9,342,375.1z"/>
	<path id="Trazado_1136" class="st0" d="M342.8,370.6c-0.9,0.7-1.8,1.5-2.7,2.2l1.9,2.3c0.9-0.7,1.8-1.5,2.8-2.2L342.8,370.6z"/>
	<path id="Trazado_1137" class="st0" d="M340.3,391.3l-1.7-2.4c-1,0.7-2,1.4-3.1,2.1l1.7,2.5C338.3,392.7,339.3,392,340.3,391.3z"/>
	<path id="Trazado_1138" class="st0" d="M330.8,390.5l1.6,2.5c1-0.7,2.1-1.4,3.1-2.1l-1.7-2.5C332.8,389.2,331.8,389.9,330.8,390.5z
		"/>
	<path id="Trazado_1139" class="st0" d="M326.1,390l1.6,2.5c1-0.7,2.1-1.3,3.1-2l-1.6-2.5C328.1,388.7,327.1,389.3,326.1,390z"/>
	<path id="Trazado_1140" class="st0" d="M321.4,389.4l1.5,2.6c1-0.6,2.1-1.3,3.1-1.9l-1.6-2.5C323.4,388.1,322.4,388.7,321.4,389.4z
		"/>
	<path id="Trazado_1141" class="st0" d="M316.8,388.6l1.5,2.6c1-0.6,2.1-1.2,3.1-1.8l-1.5-2.6C318.8,387.4,317.8,388,316.8,388.6z"
		/>
	<path id="Trazado_1142" class="st0" d="M312.2,387.8l1.5,2.6c1-0.6,2.1-1.2,3.1-1.8l-1.5-2.6C314.2,386.6,313.2,387.2,312.2,387.8z
		"/>
	<path id="Trazado_1143" class="st0" d="M310,399.1c-1.1,0.6-2.2,1.1-3.3,1.7l1.3,2.7c1.1-0.6,2.3-1.1,3.4-1.7L310,399.1z"/>
	<path id="Trazado_1144" class="st0" d="M311.9,394.7c-1.1,0.6-2.2,1.1-3.2,1.7l1.4,2.7c1.1-0.6,2.2-1.1,3.3-1.7L311.9,394.7z"/>
	<path id="Trazado_1145" class="st0" d="M313.6,390.4c-1,0.6-2.1,1.2-3.2,1.7l1.4,2.6c1.1-0.6,2.1-1.2,3.2-1.7L313.6,390.4z"/>
	<path id="Trazado_1146" class="st0" d="M237.6,4.7L238,1c-38.4-3.6-77.1,3-112,19.3l1.6,3.4C161.9,7.6,199.9,1.1,237.6,4.7z"/>
	<path id="Trazado_1147" class="st0" d="M235.7,24.7C166.1,18.1,98.4,49.6,58.5,107l3.1,2.1C100.7,52.8,167.1,22,235.4,28.4
		L235.7,24.7z"/>
	<path id="Trazado_1148" class="st0" d="M127.9,24.5l1.3,2.7l0,0c-1.2,0.5-2.3,1.1-3.5,1.7l1.3,2.7c1.1-0.6,2.3-1.1,3.4-1.6
		l-1.3-2.7c1.2-0.5,2.3-1.1,3.5-1.6l-1.2-2.7C130.2,23.4,129.1,23.9,127.9,24.5z"/>
	<path id="Trazado_1149" class="st0" d="M132.6,25.6l1.2,2.7c1.2-0.5,2.3-1,3.5-1.5l-1.2-2.8C135,24.5,133.8,25.1,132.6,25.6z"/>
	<path id="Trazado_1150" class="st0" d="M141.9,28.2l-1.1-2.8c-1.2,0.5-2.3,0.9-3.5,1.4c0.4,0.9,0.8,1.8,1.2,2.8
		C139.6,29.1,140.8,28.6,141.9,28.2z"/>
	<path id="Trazado_1151" class="st0" d="M146.4,29.6l-1.1-2.8c-1.2,0.4-2.3,0.9-3.4,1.3l1.1,2.8C144.2,30.5,145.3,30,146.4,29.6z"/>
	<path id="Trazado_1152" class="st0" d="M150.8,31.2c-0.3-0.9-0.7-1.9-1-2.8c-1.1,0.4-2.3,0.8-3.4,1.3c0.4,0.9,0.7,1.9,1.1,2.8
		C148.6,32,149.7,31.6,150.8,31.2z"/>
	<path id="Trazado_1153" class="st0" d="M155.2,32.8l-1-2.8c-1.1,0.4-2.2,0.8-3.4,1.2l1,2.8C153,33.6,154.1,33.2,155.2,32.8z"/>
	<path id="Trazado_1154" class="st0" d="M162,18.2c1.2-0.3,2.4-0.7,3.6-1c-0.3-1-0.5-1.9-0.8-2.9c-1.2,0.3-2.4,0.6-3.6,1L162,18.2z"
		/>
	<path id="Trazado_1155" class="st0" d="M159.3,22.1c1.2-0.3,2.3-0.7,3.5-1l-0.8-2.9c-1.2,0.3-2.4,0.7-3.5,1L159.3,22.1z"/>
	<path id="Trazado_1156" class="st0" d="M156.7,26c1.1-0.4,2.3-0.7,3.4-1.1l-0.9-2.9c-1.2,0.3-2.3,0.7-3.5,1.1L156.7,26z"/>
	<path id="Trazado_1157" class="st0" d="M154.2,30c1.1-0.4,2.2-0.8,3.4-1.1l-0.9-2.9c-1.1,0.4-2.3,0.7-3.4,1.1L154.2,30z"/>
	<path id="Trazado_1158" class="st0" d="M164,11.5l0.8,2.9c1.2-0.3,2.4-0.6,3.6-0.9l-0.7-2.9C166.5,10.8,165.2,11.1,164,11.5z"/>
	<path id="Trazado_1159" class="st0" d="M168.4,13.4l0.7,2.9c1.2-0.3,2.4-0.6,3.6-0.8c-0.2-1-0.4-1.9-0.6-2.9
		C170.8,12.9,169.6,13.2,168.4,13.4z"/>
	<path id="Trazado_1160" class="st0" d="M172.6,15.5l0.6,2.9c1.2-0.3,2.3-0.5,3.5-0.8l-0.6-2.9C175,15,173.8,15.3,172.6,15.5z"/>
	<path id="Trazado_1161" class="st0" d="M180.9,20l-0.5-2.9c-1.2,0.2-2.4,0.4-3.5,0.7c0.2,1,0.4,2,0.6,2.9
		C178.6,20.4,179.7,20.2,180.9,20z"/>
	<path id="Trazado_1162" class="st0" d="M184.9,22.3l-0.5-3c-1.2,0.2-2.3,0.4-3.5,0.6c0.2,1,0.4,2,0.5,2.9
		C182.6,22.7,183.7,22.5,184.9,22.3z"/>
	<path id="Trazado_1163" class="st0" d="M188.7,24.7c-0.1-1-0.3-2-0.4-3c-1.1,0.2-2.3,0.4-3.4,0.5c0.2,1,0.3,2,0.5,3
		C186.5,25.1,187.6,24.9,188.7,24.7z"/>
	<path id="Trazado_1164" class="st0" d="M197.7,11.5c1.2-0.1,2.4-0.2,3.6-0.3c-0.1-1-0.2-2-0.2-3c-1.2,0.1-2.4,0.2-3.6,0.3
		C197.5,9.6,197.6,10.6,197.7,11.5z"/>
	<path id="Trazado_1165" class="st0" d="M194.5,14.9c1.2-0.1,2.4-0.3,3.5-0.4c-0.1-1-0.2-2-0.3-3c-1.2,0.1-2.4,0.2-3.6,0.4
		C194.2,12.9,194.4,13.9,194.5,14.9z"/>
	<path id="Trazado_1166" class="st0" d="M191.3,18.3c1.2-0.2,2.3-0.3,3.5-0.4c-0.1-1-0.2-2-0.3-3c-1.2,0.1-2.4,0.3-3.5,0.4
		C191.1,16.3,191.2,17.3,191.3,18.3z"/>
	<path id="Trazado_1167" class="st0" d="M188.3,21.7c1.1-0.2,2.3-0.3,3.4-0.5c-0.1-1-0.3-2-0.4-3c-1.2,0.2-2.3,0.3-3.5,0.5
		L188.3,21.7z"/>
	<path id="Trazado_1168" class="st0" d="M200.8,5.3l0.2,3c1.2-0.1,2.4-0.2,3.6-0.3c-0.1-1-0.1-2-0.2-3
		C203.3,5.1,202.1,5.2,200.8,5.3z"/>
	<path id="Trazado_1169" class="st0" d="M204.7,8c0.1,1,0.1,2,0.2,3c1.2-0.1,2.4-0.1,3.6-0.2c0-1-0.1-2-0.1-3
		C207.1,7.9,205.9,7.9,204.7,8z"/>
	<path id="Trazado_1170" class="st0" d="M208.5,10.8l0.1,3c1.2-0.1,2.4-0.1,3.5-0.1c0-1-0.1-2-0.1-3
		C210.9,10.7,209.7,10.7,208.5,10.8z"/>
	<path id="Trazado_1171" class="st0" d="M212.1,13.7l0.1,3c1.2,0,2.3,0,3.5-0.1c0-1,0-2,0-3C214.5,13.6,213.3,13.6,212.1,13.7z"/>
	<path id="Trazado_1172" class="st0" d="M219.1,19.6c0-1,0-2,0-3c-1.2,0-2.3,0-3.5,0c0,1,0,2,0,3C216.8,19.6,218,19.6,219.1,19.6z"
		/>
	<path id="Trazado_1173" class="st0" d="M222.5,22.6c0-1,0.1-2,0.1-3c-1.1,0-2.3-0.1-3.4-0.1c0,1,0,2,0,3
		C220.2,22.6,221.3,22.6,222.5,22.6z"/>
	<path id="Trazado_1174" class="st0" d="M233.4,11.2c1.2,0.1,2.4,0.2,3.5,0.3l0.3-3c-1.2-0.1-2.4-0.2-3.6-0.3
		C233.6,9.2,233.5,10.2,233.4,11.2z"/>
	<path id="Trazado_1175" class="st0" d="M229.7,14c1.2,0.1,2.3,0.2,3.5,0.2c0.1-1,0.2-2,0.2-3c-1.2-0.1-2.4-0.2-3.5-0.2
		C229.8,12,229.8,13,229.7,14z"/>
	<path id="Trazado_1176" class="st0" d="M226.1,16.8c1.2,0.1,2.3,0.1,3.5,0.2c0.1-1,0.1-2,0.2-3c-1.2-0.1-2.3-0.1-3.5-0.2
		C226.2,14.8,226.1,15.8,226.1,16.8z"/>
	<path id="Trazado_1177" class="st0" d="M222.5,19.7c1.1,0,2.3,0.1,3.4,0.1c0-1,0.1-2,0.1-3c-1.2-0.1-2.3-0.1-3.5-0.1L222.5,19.7z"
		/>
	<path id="Trazado_1178" class="st0" d="M339.4,41.9l2.1-3.1C310.8,17.6,275.2,4.6,238,1l-0.4,3.7C274.2,8.2,309.2,21,339.4,41.9z"
		/>
	<path id="Trazado_1179" class="st0" d="M325.9,61.5l2.1-3.1c-27.4-18.9-59.1-30.6-92.2-33.8l-0.4,3.7
		C267.9,31.5,299,42.9,325.9,61.5z"/>
	<path id="Trazado_1180" class="st0" d="M237.5,5.6c-0.1,1-0.2,2-0.3,3c1.2,0.1,2.4,0.2,3.6,0.4c0.1-1,0.2-2,0.3-3
		C240,5.8,238.7,5.7,237.5,5.6z"/>
	<path id="Trazado_1181" class="st0" d="M240.8,8.9c-0.1,1-0.2,2-0.3,3c1.2,0.1,2.3,0.3,3.5,0.4c0.1-1,0.3-2,0.4-3
		C243.2,9.2,242,9.1,240.8,8.9z"/>
	<path id="Trazado_1182" class="st0" d="M244,12.3l-0.4,3c1.2,0.1,2.3,0.3,3.5,0.5c0.1-1,0.3-2,0.4-3
		C246.4,12.7,245.2,12.5,244,12.3z"/>
	<path id="Trazado_1183" class="st0" d="M247.1,15.8l-0.4,3c1.1,0.2,2.3,0.3,3.4,0.5c0.2-1,0.3-2,0.5-3
		C249.4,16.1,248.2,16,247.1,15.8z"/>
	<path id="Trazado_1184" class="st0" d="M250.1,19.3l-0.5,3c1.1,0.2,2.2,0.4,3.3,0.6c0.2-1,0.4-2,0.5-2.9
		C252.3,19.7,251.2,19.5,250.1,19.3z"/>
	<path id="Trazado_1185" class="st0" d="M255.6,26.4l0.6-2.9c-1.1-0.2-2.2-0.4-3.3-0.6l-0.5,2.9C253.5,26,254.6,26.2,255.6,26.4z"/>
	<path id="Trazado_1186" class="st0" d="M268.3,17c1.1,0.3,2.3,0.6,3.4,0.9l0.8-2.9c-1.2-0.3-2.3-0.6-3.5-0.9L268.3,17z"/>
	<path id="Trazado_1187" class="st0" d="M264.2,19.1c1.1,0.3,2.3,0.5,3.4,0.8c0.2-1,0.5-1.9,0.7-2.9c-1.1-0.3-2.3-0.6-3.4-0.8
		C264.7,17.1,264.4,18.1,264.2,19.1z"/>
	<path id="Trazado_1188" class="st0" d="M260.2,21.2c1.1,0.2,2.2,0.5,3.3,0.8l0.7-2.9c-1.1-0.3-2.3-0.5-3.4-0.8
		C260.6,19.3,260.4,20.3,260.2,21.2z"/>
	<path id="Trazado_1189" class="st0" d="M256.2,23.5c1.1,0.2,2.2,0.5,3.3,0.7l0.6-2.9c-1.1-0.2-2.2-0.5-3.4-0.7
		C256.6,21.5,256.4,22.5,256.2,23.5z"/>
	<path id="Trazado_1190" class="st0" d="M273.3,12.1l-0.8,2.9c1.2,0.3,2.3,0.6,3.4,1l0.8-2.9C275.6,12.8,274.5,12.4,273.3,12.1z"/>
	<path id="Trazado_1191" class="st0" d="M276,16c-0.3,1-0.6,1.9-0.8,2.9c1.1,0.3,2.3,0.7,3.4,1c0.3-1,0.6-1.9,0.9-2.9
		C278.3,16.7,277.1,16.3,276,16z"/>
	<path id="Trazado_1192" class="st0" d="M278.5,19.9c-0.3,1-0.6,1.9-0.9,2.9c1.1,0.3,2.2,0.7,3.3,1.1l0.9-2.8
		C280.8,20.6,279.6,20.2,278.5,19.9z"/>
	<path id="Trazado_1193" class="st0" d="M281,23.8c-0.3,0.9-0.6,1.9-0.9,2.8c1.1,0.4,2.2,0.7,3.2,1.1l1-2.8
		C283.2,24.5,282.1,24.1,281,23.8z"/>
	<path id="Trazado_1194" class="st0" d="M283.3,27.7l-1,2.8c1.1,0.4,2.1,0.7,3.2,1.1l1-2.8C285.4,28.5,284.3,28.1,283.3,27.7z"/>
	<path id="Trazado_1195" class="st0" d="M284.4,34.5c1,0.4,2.1,0.8,3.1,1.2c0.4-0.9,0.7-1.9,1.1-2.8c-1-0.4-2.1-0.8-3.2-1.2
		L284.4,34.5z"/>
	<path id="Trazado_1196" class="st0" d="M306.1,27.3c-1.1-0.5-2.2-1-3.3-1.5l-1.2,2.7c1.1,0.5,2.1,1,3.2,1.5L306.1,27.3z"/>
	<path id="Trazado_1197" class="st0" d="M301.6,28.6c-1.1-0.5-2.2-0.9-3.2-1.4l-1.2,2.8c1.1,0.5,2.1,0.9,3.2,1.4L301.6,28.6z"/>
	<path id="Trazado_1198" class="st0" d="M297.2,29.9c-1.1-0.5-2.1-0.9-3.2-1.3l-1.1,2.8c1.1,0.4,2.1,0.9,3.2,1.3L297.2,29.9z"/>
	<path id="Trazado_1199" class="st0" d="M288.6,32.9c1.1,0.4,2.1,0.8,3.1,1.2l1.1-2.8c-1.1-0.4-2.1-0.8-3.2-1.3
		C289.4,31,289,31.9,288.6,32.9z"/>
	<path id="Trazado_1200" class="st0" d="M310.7,26.2c-1.1-0.5-2.2-1-3.3-1.6l-1.3,2.7c1.1,0.5,2.2,1,3.2,1.5L310.7,26.2z"/>
	<path id="Trazado_1201" class="st0" d="M311.2,33.1l1.4-2.7c-1.1-0.5-2.1-1.1-3.2-1.6l-1.3,2.7C309.1,32,310.2,32.6,311.2,33.1z"/>
	<path id="Trazado_1202" class="st0" d="M312.9,37.4l1.4-2.6c-1-0.6-2.1-1.1-3.1-1.6l-1.4,2.7C310.9,36.3,311.9,36.8,312.9,37.4z"/>
	<path id="Trazado_1203" class="st0" d="M314.6,41.6L316,39c-1-0.6-2-1.1-3.1-1.7l-1.4,2.6C312.6,40.6,313.6,41.1,314.6,41.6z"/>
	<path id="Trazado_1204" class="st0" d="M316.1,45.9l1.5-2.6c-1-0.6-2-1.1-3-1.7l-1.4,2.6C314.1,44.8,315.1,45.4,316.1,45.9z"/>
	<path id="Trazado_1205" class="st0" d="M317.4,50.2c0.5-0.9,1-1.7,1.5-2.6c-1-0.6-1.9-1.1-2.9-1.7l-1.5,2.6
		C315.5,49.1,316.5,49.6,317.4,50.2z"/>
	<path id="Trazado_1206" class="st0" d="M337.2,45.1c-1-0.7-2-1.4-3-2l-1.7,2.5c1,0.7,2,1.3,2.9,2L337.2,45.1z"/>
	<path id="Trazado_1207" class="st0" d="M332.6,45.6c-1-0.7-2-1.3-3-1.9l-1.6,2.5c1,0.6,2,1.3,2.9,1.9L332.6,45.6z"/>
	<path id="Trazado_1208" class="st0" d="M328,46.2c-1-0.6-2-1.3-3-1.9l-1.6,2.5c1,0.6,1.9,1.2,2.9,1.8L328,46.2z"/>
	<path id="Trazado_1209" class="st0" d="M319,47.6c1,0.6,1.9,1.2,2.9,1.8l1.6-2.5c-1-0.6-2-1.2-2.9-1.8L319,47.6z"/>
	<path id="Trazado_1210" class="st0" d="M411.3,127.5c16,34.4,22.5,72.4,18.9,110.1l3.7,0.4c7.4-78.2-28-154.2-92.4-199.1l-2.1,3.1
		C370.6,63.6,395.4,93.1,411.3,127.5z"/>
	<path id="Trazado_1211" class="st0" d="M393.1,136L393.1,136L393.1,136L393.1,136C378.7,104.8,356.2,78,328,58.5l-2.1,3.1
		c56.3,39.2,87.1,105.6,80.7,173.8l3.7,0.4C413.5,201.5,407.6,167.1,393.1,136L393.1,136z"/>
	<path id="Trazado_1212" class="st0" d="M341.9,44.8c-1-0.7-2-1.4-3-2.1l-1.7,2.5c1,0.7,2,1.4,2.9,2.1L341.9,44.8z"/>
	<path id="Trazado_1213" class="st0" d="M341.3,51.8c0.6-0.8,1.2-1.6,1.8-2.4c-1-0.7-1.9-1.4-2.9-2.1l-1.8,2.4
		C339.4,50.3,340.3,51,341.3,51.8z"/>
	<path id="Trazado_1214" class="st0" d="M342.3,56.3l1.8-2.4c-0.9-0.7-1.9-1.4-2.8-2.2l-1.8,2.4C340.4,54.9,341.4,55.6,342.3,56.3z"
		/>
	<path id="Trazado_1215" class="st0" d="M343.2,60.8l1.9-2.3c-0.9-0.7-1.8-1.5-2.8-2.2l-1.8,2.4C341.4,59.3,342.3,60.1,343.2,60.8z"
		/>
	<path id="Trazado_1216" class="st0" d="M343.9,65.3l1.9-2.3c-0.9-0.7-1.8-1.5-2.7-2.2l-1.9,2.3C342.2,63.8,343.1,64.5,343.9,65.3z"
		/>
	<path id="Trazado_1217" class="st0" d="M344.6,69.7l2-2.3c-0.9-0.7-1.7-1.5-2.6-2.2l-1.9,2.3C342.9,68.3,343.8,69,344.6,69.7z"/>
	<path id="Trazado_1218" class="st0" d="M365.1,68.3c-0.9-0.9-1.7-1.7-2.6-2.5l-2.1,2.2c0.9,0.8,1.7,1.7,2.6,2.5L365.1,68.3z"/>
	<path id="Trazado_1219" class="st0" d="M360.4,67.9c-0.9-0.8-1.7-1.6-2.6-2.5l-2,2.2c0.9,0.8,1.7,1.6,2.6,2.4L360.4,67.9z"/>
	<path id="Trazado_1220" class="st0" d="M355.7,67.6c-0.9-0.8-1.7-1.6-2.6-2.4l-2,2.2c0.9,0.8,1.7,1.5,2.6,2.3L355.7,67.6z"/>
	<path id="Trazado_1221" class="st0" d="M346.6,67.5c0.9,0.7,1.7,1.5,2.6,2.3l2-2.2c-0.9-0.8-1.7-1.5-2.6-2.3L346.6,67.5z"/>
	<path id="Trazado_1222" class="st0" d="M369.8,68.8c-0.9-0.9-1.7-1.8-2.6-2.6l-2.1,2.1c0.9,0.9,1.7,1.7,2.6,2.6L369.8,68.8z"/>
	<path id="Trazado_1223" class="st0" d="M368,75.5l2.2-2.1c-0.8-0.9-1.7-1.8-2.5-2.6l-2.1,2.1C366.3,73.8,367.2,74.7,368,75.5z"/>
	<path id="Trazado_1224" class="st0" d="M368.2,80.2l2.2-2c-0.8-0.9-1.6-1.8-2.5-2.6l-2.2,2.1C366.6,78.5,367.4,79.3,368.2,80.2z"/>
	<path id="Trazado_1225" class="st0" d="M368.4,84.8l2.2-2c-0.8-0.9-1.6-1.8-2.4-2.7l-2.2,2C366.8,83.1,367.6,84,368.4,84.8z"/>
	<path id="Trazado_1226" class="st0" d="M368.4,89.5l2.3-1.9c-0.8-0.9-1.5-1.8-2.3-2.7l-2.2,2C366.9,87.7,367.6,88.6,368.4,89.5z"/>
	<path id="Trazado_1227" class="st0" d="M368.3,94l2.3-1.9c-0.7-0.9-1.5-1.8-2.2-2.7l-2.3,1.9C366.8,92.3,367.6,93.1,368.3,94z"/>
	<path id="Trazado_1228" class="st0" d="M388.8,96.4c-0.7-1-1.4-2-2.2-3l-2.4,1.8c0.7,1,1.4,2,2.1,3L388.8,96.4z"/>
	<path id="Trazado_1229" class="st0" d="M384.3,95.1c-0.7-1-1.5-2-2.2-2.9l-2.4,1.8c0.7,1,1.4,1.9,2.2,2.9L384.3,95.1z"/>
	<path id="Trazado_1230" class="st0" d="M379.7,94c-0.7-1-1.5-1.9-2.2-2.8l-2.3,1.9c0.7,0.9,1.5,1.9,2.2,2.8L379.7,94z"/>
	<path id="Trazado_1231" class="st0" d="M370.6,92.1c0.7,0.9,1.5,1.8,2.2,2.7l2.3-1.9c-0.7-0.9-1.5-1.8-2.2-2.8L370.6,92.1z"/>
	<path id="Trazado_1232" class="st0" d="M393.4,97.7c-0.7-1-1.4-2.1-2.2-3.1l-2.4,1.7c0.7,1,1.4,2,2.1,3.1L393.4,97.7z"/>
	<path id="Trazado_1233" class="st0" d="M390.5,104.2l2.5-1.6c-0.7-1-1.4-2.1-2.1-3.1l-2.5,1.7C389.2,102.1,389.9,103.2,390.5,104.2
		z"/>
	<path id="Trazado_1234" class="st0" d="M390,108.9l2.5-1.6c-0.7-1-1.3-2.1-2-3.1l-2.5,1.6C388.7,106.8,389.4,107.9,390,108.9z"/>
	<path id="Trazado_1235" class="st0" d="M389.4,113.6l2.6-1.5c-0.6-1-1.3-2.1-1.9-3.1l-2.5,1.6C388.1,111.5,388.7,112.5,389.4,113.6
		z"/>
	<path id="Trazado_1236" class="st0" d="M388.6,118.2l2.6-1.5c-0.6-1-1.2-2.1-1.8-3.1l-2.6,1.5C387.4,116.1,388,117.2,388.6,118.2z"
		/>
	<path id="Trazado_1237" class="st0" d="M387.8,122.8l2.6-1.5c-0.6-1-1.2-2.1-1.8-3.1l-2.6,1.5C386.6,120.7,387.2,121.7,387.8,122.8
		z"/>
	<path id="Trazado_1238" class="st0" d="M407.8,129.1c0.5,1.2,1.1,2.3,1.6,3.5l2.7-1.2c-0.5-1.2-1.1-2.4-1.6-3.6L407.8,129.1
		L407.8,129.1c-0.5-1.2-1.1-2.3-1.7-3.5l-2.7,1.3c0.6,1.1,1.1,2.3,1.6,3.4L407.8,129.1z"/>
	<path id="Trazado_1239" class="st0" d="M403.4,127c-0.6-1.1-1.1-2.3-1.7-3.4l-2.7,1.4c0.6,1.1,1.1,2.2,1.7,3.3L403.4,127z"/>
	<path id="Trazado_1240" class="st0" d="M399.1,124.9c-0.6-1.1-1.1-2.2-1.7-3.3l-2.6,1.4c0.6,1.1,1.1,2.2,1.7,3.2L399.1,124.9z"/>
	<path id="Trazado_1241" class="st0" d="M390.4,121.3c0.6,1,1.2,2.1,1.7,3.2c0.9-0.5,1.8-0.9,2.6-1.4c-0.6-1.1-1.2-2.1-1.7-3.2
		L390.4,121.3z"/>
	<path id="Trazado_1303" class="st0" d="M127.5,23.6l-1.6-3.4c-35,16.2-65,41.5-87,73.1l3.1,2.1C63.6,64.4,93.1,39.6,127.5,23.6z"/>
	<path id="Trazado_1316" class="st0" d="M80.2,66.7l-2-2.2c-0.9,0.8-1.8,1.6-2.6,2.5l2.1,2.2C78.5,68.3,79.3,67.5,80.2,66.7z"/>
	<path id="Trazado_1317" class="st0" d="M84.8,66.6l-2-2.2c-0.9,0.8-1.8,1.6-2.7,2.4l2,2.2C83.1,68.2,84,67.4,84.8,66.6z"/>
	<path id="Trazado_1318" class="st0" d="M89.5,66.6l-1.9-2.3c-0.9,0.8-1.8,1.5-2.7,2.3l2,2.2C87.7,68.1,88.6,67.3,89.5,66.6z"/>
	<path id="Trazado_1319" class="st0" d="M94,66.7l-1.9-2.3c-0.9,0.7-1.8,1.5-2.7,2.2l1.9,2.3C92.3,68.1,93.1,67.4,94,66.7z"/>
	<path id="Trazado_1320" class="st0" d="M95.1,50.7c1-0.7,2-1.4,3-2.1l-1.7-2.4c-1,0.7-2,1.4-3,2.2L95.1,50.7z"/>
	<path id="Trazado_1321" class="st0" d="M94,55.3c1-0.7,1.9-1.4,2.9-2.2l-1.8-2.4c-1,0.7-2,1.5-2.9,2.2L94,55.3z"/>
	<path id="Trazado_1322" class="st0" d="M93,59.8c0.9-0.7,1.9-1.5,2.8-2.2L94,55.3c-1,0.7-1.9,1.5-2.8,2.2L93,59.8z"/>
	<path id="Trazado_1323" class="st0" d="M92.1,64.4c0.9-0.7,1.8-1.5,2.7-2.2L93,59.8c-0.9,0.7-1.8,1.5-2.8,2.2L92.1,64.4z"/>
	<path id="Trazado_1324" class="st0" d="M96.4,46.1c1-0.7,2-1.4,3.1-2.1l-1.7-2.5c-1,0.7-2.1,1.4-3.1,2.2L96.4,46.1z"/>
	<path id="Trazado_1325" class="st0" d="M104.2,44.4c-0.5-0.8-1.1-1.7-1.6-2.5c-1,0.7-2.1,1.4-3.1,2.1l1.7,2.5
		C102.1,45.8,103.2,45.1,104.2,44.4z"/>
	<path id="Trazado_1326" class="st0" d="M108.9,44.9l-1.6-2.5c-1,0.7-2.1,1.3-3.1,2l1.6,2.5C106.8,46.3,107.9,45.6,108.9,44.9z"/>
	<path id="Trazado_1327" class="st0" d="M113.6,45.6L112,43c-1,0.6-2.1,1.3-3.1,1.9l1.6,2.5C111.5,46.8,112.5,46.2,113.6,45.6z"/>
	<path id="Trazado_1328" class="st0" d="M118.2,46.3l-1.5-2.6c-1,0.6-2.1,1.2-3.1,1.8l1.5,2.6C116.1,47.5,117.2,46.9,118.2,46.3z"/>
	<path id="Trazado_1329" class="st0" d="M122.8,47.2l-1.4-2.6c-1,0.6-2.1,1.2-3.1,1.8l1.5,2.6C120.7,48.3,121.7,47.8,122.8,47.2z"/>
	<path id="Trazado_1330" class="st0" d="M124.9,35.9c1.1-0.6,2.2-1.1,3.3-1.7l-1.3-2.7c-1.1,0.6-2.3,1.1-3.4,1.7L124.9,35.9z"/>
	<path id="Trazado_1331" class="st0" d="M123.1,40.2c1.1-0.6,2.2-1.1,3.2-1.7c-0.5-0.9-0.9-1.8-1.4-2.7c-1.1,0.6-2.2,1.1-3.3,1.7
		L123.1,40.2z"/>
	<path id="Trazado_1332" class="st0" d="M121.3,44.6c1-0.6,2.1-1.2,3.2-1.7l-1.4-2.6c-1.1,0.6-2.1,1.2-3.2,1.7L121.3,44.6z"/>
	<path id="Trazado_1333" class="st0" d="M197.4,430.3L197,434c38.4,3.6,77.1-3,112-19.3l-1.6-3.4
		C273.1,427.3,235.1,433.8,197.4,430.3z"/>
	<path id="Trazado_1334" class="st0" d="M299,393.1c31.2-14.4,57.9-36.9,77.5-65.1l-3.1-2.1c-39.2,56.3-105.6,87.1-173.9,80.7
		l-0.4,3.7C233.4,413.5,267.9,407.6,299,393.1z"/>
	<path id="Trazado_1335" class="st0" d="M307.1,410.5l-1.3-2.7h0c1.2-0.5,2.3-1.1,3.5-1.7l-1.3-2.7c-1.1,0.6-2.3,1.1-3.4,1.6
		l1.3,2.7c-1.2,0.5-2.3,1.1-3.5,1.6l1.2,2.7C304.7,411.6,305.9,411,307.1,410.5z"/>
	<path id="Trazado_1336" class="st0" d="M302.3,409.4l-1.2-2.7c-1.2,0.5-2.3,1-3.5,1.5c0.4,0.9,0.8,1.8,1.2,2.8
		C300,410.4,301.1,409.9,302.3,409.4z"/>
	<path id="Trazado_1337" class="st0" d="M293,406.8c0.4,0.9,0.7,1.9,1.1,2.8c1.2-0.5,2.3-0.9,3.5-1.4c-0.4-0.9-0.8-1.8-1.2-2.8
		C295.3,405.9,294.2,406.3,293,406.8z"/>
	<path id="Trazado_1338" class="st0" d="M288.5,405.3l1.1,2.8c1.2-0.4,2.3-0.9,3.4-1.3l-1.1-2.8
		C290.8,404.5,289.7,404.9,288.5,405.3z"/>
	<path id="Trazado_1339" class="st0" d="M284.1,403.8l1,2.8c1.1-0.4,2.3-0.8,3.4-1.3l-1.1-2.8C286.3,403,285.2,403.4,284.1,403.8z"
		/>
	<path id="Trazado_1340" class="st0" d="M279.8,402.1c0.3,0.9,0.6,1.9,1,2.8c1.1-0.4,2.2-0.8,3.4-1.2c-0.3-0.9-0.7-1.9-1-2.8
		C282,401.3,280.9,401.7,279.8,402.1z"/>
	<path id="Trazado_1341" class="st0" d="M273,416.7c-1.2,0.3-2.4,0.7-3.6,1c0.2,1,0.5,1.9,0.8,2.9c1.2-0.3,2.4-0.6,3.6-1L273,416.7z
		"/>
	<path id="Trazado_1342" class="st0" d="M275.7,412.8c-1.2,0.3-2.3,0.7-3.5,1l0.8,2.9c1.2-0.3,2.4-0.7,3.5-1
		C276.2,414.8,276,413.8,275.7,412.8z"/>
	<path id="Trazado_1343" class="st0" d="M278.3,408.9c-1.1,0.4-2.3,0.7-3.4,1.1c0.3,1,0.6,1.9,0.9,2.9c1.2-0.3,2.3-0.7,3.5-1.1
		L278.3,408.9z"/>
	<path id="Trazado_1344" class="st0" d="M280.7,404.9c-1.1,0.4-2.2,0.8-3.4,1.1l0.9,2.9c1.1-0.4,2.3-0.7,3.4-1.1L280.7,404.9z"/>
	<path id="Trazado_1345" class="st0" d="M270.9,423.5l-0.8-2.9c-1.2,0.3-2.4,0.6-3.6,0.9l0.7,2.9
		C268.5,424.1,269.7,423.8,270.9,423.5z"/>
	<path id="Trazado_1346" class="st0" d="M266.6,421.5c-0.2-1-0.5-1.9-0.7-2.9c-1.2,0.3-2.4,0.6-3.6,0.8c0.2,1,0.4,1.9,0.6,2.9
		C264.2,422.1,265.4,421.8,266.6,421.5z"/>
	<path id="Trazado_1347" class="st0" d="M262.3,419.4c-0.2-1-0.4-1.9-0.6-2.9c-1.2,0.3-2.3,0.5-3.5,0.8c0.2,1,0.4,2,0.6,2.9
		C259.9,419.9,261.1,419.7,262.3,419.4z"/>
	<path id="Trazado_1348" class="st0" d="M254.1,415l0.5,2.9c1.2-0.2,2.3-0.4,3.5-0.7c-0.2-1-0.4-2-0.6-2.9
		C256.4,414.5,255.2,414.8,254.1,415z"/>
	<path id="Trazado_1349" class="st0" d="M250.1,412.7l0.5,3c1.2-0.2,2.3-0.4,3.5-0.6c-0.2-1-0.4-2-0.5-2.9
		C252.4,412.3,251.2,412.5,250.1,412.7z"/>
	<path id="Trazado_1350" class="st0" d="M246.2,410.2c0.1,1,0.3,2,0.4,3c1.1-0.2,2.3-0.4,3.4-0.5c-0.2-1-0.3-2-0.5-3
		C248.5,409.9,247.4,410.1,246.2,410.2z"/>
	<path id="Trazado_1351" class="st0" d="M237.2,423.4c-1.2,0.1-2.4,0.2-3.6,0.3c0.1,1,0.2,2,0.2,3c1.2-0.1,2.4-0.2,3.6-0.3
		L237.2,423.4z"/>
	<path id="Trazado_1352" class="st0" d="M240.5,420c-1.2,0.1-2.4,0.3-3.5,0.4l0.3,3c1.2-0.1,2.4-0.2,3.6-0.4
		C240.7,422,240.6,421,240.5,420z"/>
	<path id="Trazado_1353" class="st0" d="M243.6,416.6c-1.2,0.2-2.3,0.3-3.5,0.4l0.3,3c1.2-0.1,2.4-0.3,3.5-0.4
		C243.9,418.6,243.8,417.6,243.6,416.6z"/>
	<path id="Trazado_1354" class="st0" d="M246.7,413.2c-1.1,0.2-2.3,0.3-3.4,0.5c0.1,1,0.3,2,0.4,3c1.2-0.2,2.3-0.3,3.5-0.5
		C247,415.2,246.8,414.2,246.7,413.2z"/>
	<path id="Trazado_1355" class="st0" d="M234.1,429.7l-0.2-3c-1.2,0.1-2.4,0.2-3.6,0.3c0.1,1,0.1,2,0.2,3
		C231.7,429.9,232.9,429.8,234.1,429.7z"/>
	<path id="Trazado_1356" class="st0" d="M230.2,427c-0.1-1-0.1-2-0.2-3c-1.2,0.1-2.4,0.1-3.6,0.2c0,1,0.1,2,0.1,3
		C227.8,427.1,229,427,230.2,427z"/>
	<path id="Trazado_1357" class="st0" d="M226.5,424.1l-0.1-3c-1.2,0.1-2.4,0.1-3.5,0.1c0,1,0.1,2,0.1,3
		C224.1,424.2,225.3,424.2,226.5,424.1z"/>
	<path id="Trazado_1358" class="st0" d="M222.8,421.3c0-1-0.1-2-0.1-3c-1.2,0-2.3,0-3.5,0.1c0,1,0,2,0,3
		C220.5,421.3,221.6,421.3,222.8,421.3z"/>
	<path id="Trazado_1359" class="st0" d="M215.8,415.3c0,1,0,2,0,3c1.2,0,2.3,0,3.5,0c0-1,0-2,0-3C218.1,415.4,217,415.4,215.8,415.3
		z"/>
	<path id="Trazado_1360" class="st0" d="M212.5,412.3c0,1-0.1,2-0.1,3c1.1,0,2.3,0,3.4,0.1c0-1,0-2,0-3
		C214.7,412.3,213.6,412.3,212.5,412.3z"/>
	<path id="Trazado_1361" class="st0" d="M201.5,423.7c-1.2-0.1-2.4-0.2-3.5-0.3l-0.3,3c1.2,0.1,2.4,0.2,3.6,0.3
		C201.4,425.7,201.4,424.7,201.5,423.7z"/>
	<path id="Trazado_1362" class="st0" d="M205.2,421c-1.2-0.1-2.3-0.2-3.5-0.2c-0.1,1-0.2,2-0.2,3c1.2,0.1,2.4,0.2,3.5,0.2
		C205.1,423,205.2,422,205.2,421z"/>
	<path id="Trazado_1363" class="st0" d="M208.9,418.2c-1.2-0.1-2.3-0.1-3.5-0.2l-0.2,3c1.2,0.1,2.3,0.1,3.5,0.2
		C208.8,420.2,208.8,419.2,208.9,418.2z"/>
	<path id="Trazado_1364" class="st0" d="M212.4,415.3c-1.1,0-2.3-0.1-3.4-0.1c0,1-0.1,2-0.1,3c1.2,0.1,2.3,0.1,3.5,0.1L212.4,415.3z
		"/>
	<path id="Trazado_1365" class="st0" d="M95.5,393l-2.1,3.1c30.7,21.3,66.4,34.3,103.6,37.9l0.4-3.7
		C160.8,426.8,125.7,413.9,95.5,393z"/>
	<path id="Trazado_1366" class="st0" d="M109.1,373.4l-2.1,3.1c27.4,18.9,59.1,30.6,92.2,33.8l0.4-3.7
		C167.1,403.4,135.9,392,109.1,373.4z"/>
	<path id="Trazado_1367" class="st0" d="M197.4,429.4c0.1-1,0.2-2,0.3-3c-1.2-0.1-2.4-0.2-3.6-0.4c-0.1,1-0.2,2-0.3,3
		C195,429.1,196.2,429.2,197.4,429.4z"/>
	<path id="Trazado_1368" class="st0" d="M194.1,426c0.1-1,0.2-2,0.3-3c-1.2-0.1-2.3-0.3-3.5-0.4c-0.1,1-0.3,2-0.4,3
		C191.7,425.7,192.9,425.9,194.1,426z"/>
	<path id="Trazado_1369" class="st0" d="M190.9,422.6c0.1-1,0.3-2,0.4-3c-1.2-0.2-2.3-0.3-3.5-0.5c-0.1,1-0.3,2-0.4,3
		C188.6,422.3,189.8,422.5,190.9,422.6z"/>
	<path id="Trazado_1370" class="st0" d="M187.9,419.2c0.1-1,0.3-2,0.4-3c-1.1-0.2-2.3-0.3-3.4-0.5c-0.2,1-0.3,2-0.5,3
		C185.6,418.8,186.7,419,187.9,419.2z"/>
	<path id="Trazado_1371" class="st0" d="M184.9,415.7l0.5-3c-1.1-0.2-2.2-0.4-3.3-0.6l-0.5,2.9C182.6,415.3,183.8,415.5,184.9,415.7
		z"/>
	<path id="Trazado_1372" class="st0" d="M179.3,408.6c-0.2,1-0.4,2-0.6,2.9c1.1,0.2,2.2,0.4,3.3,0.6c0.2-1,0.4-2,0.5-2.9
		C181.5,409,180.4,408.8,179.3,408.6z"/>
	<path id="Trazado_1373" class="st0" d="M166.6,417.9c-1.1-0.3-2.3-0.6-3.4-0.9l-0.8,2.9c1.2,0.3,2.3,0.6,3.5,0.9
		C166.1,419.9,166.4,418.9,166.6,417.9z"/>
	<path id="Trazado_1374" class="st0" d="M170.7,415.9c-1.1-0.3-2.3-0.5-3.4-0.8c-0.2,1-0.5,1.9-0.7,2.9c1.1,0.3,2.3,0.6,3.4,0.8
		C170.3,417.8,170.5,416.8,170.7,415.9z"/>
	<path id="Trazado_1375" class="st0" d="M174.8,413.7c-1.1-0.2-2.2-0.5-3.3-0.8l-0.7,2.9c1.1,0.3,2.3,0.5,3.4,0.8L174.8,413.7z"/>
	<path id="Trazado_1376" class="st0" d="M178.7,411.5c-1.1-0.2-2.2-0.5-3.3-0.7c-0.2,1-0.4,2-0.6,2.9c1.1,0.2,2.2,0.5,3.4,0.7
		C178.3,413.4,178.5,412.5,178.7,411.5z"/>
	<path id="Trazado_1377" class="st0" d="M161.6,422.8l0.8-2.9c-1.2-0.3-2.3-0.6-3.4-1c-0.3,1-0.6,1.9-0.8,2.9
		C159.3,422.2,160.5,422.5,161.6,422.8z"/>
	<path id="Trazado_1378" class="st0" d="M159,419l0.8-2.9c-1.1-0.3-2.3-0.7-3.4-1l-0.9,2.9C156.7,418.3,157.8,418.6,159,419z"/>
	<path id="Trazado_1379" class="st0" d="M156.4,415.1l0.9-2.9c-1.1-0.3-2.2-0.7-3.3-1.1l-0.9,2.8
		C154.2,414.4,155.3,414.7,156.4,415.1z"/>
	<path id="Trazado_1380" class="st0" d="M154,411.2l0.9-2.8c-1.1-0.4-2.2-0.7-3.2-1.1l-1,2.8C151.8,410.4,152.9,410.8,154,411.2z"/>
	<path id="Trazado_1381" class="st0" d="M151.7,407.2l1-2.8c-1.1-0.4-2.1-0.7-3.2-1.1l-1,2.8C149.5,406.5,150.6,406.8,151.7,407.2z"
		/>
	<path id="Trazado_1382" class="st0" d="M150.5,400.4c-1-0.4-2.1-0.8-3.1-1.2c-0.4,0.9-0.7,1.9-1.1,2.8c1,0.4,2.1,0.8,3.2,1.2
		C149.8,402.3,150.2,401.4,150.5,400.4z"/>
	<path id="Trazado_1383" class="st0" d="M128.8,407.6c1.1,0.5,2.2,1,3.3,1.5l1.2-2.7c-1.1-0.5-2.1-1-3.2-1.5L128.8,407.6z"/>
	<path id="Trazado_1384" class="st0" d="M133.3,406.4c1.1,0.5,2.2,0.9,3.2,1.4l1.2-2.8c-1.1-0.5-2.1-0.9-3.2-1.4L133.3,406.4z"/>
	<path id="Trazado_1385" class="st0" d="M137.7,405c1.1,0.5,2.1,0.9,3.2,1.3c0.4-0.9,0.7-1.8,1.1-2.8c-1.1-0.4-2.1-0.9-3.2-1.3
		C138.5,403.2,138.1,404.1,137.7,405z"/>
	<path id="Trazado_1386" class="st0" d="M146.3,402.1c-1.1-0.4-2.1-0.8-3.1-1.2l-1.1,2.8c1.1,0.4,2.1,0.8,3.2,1.3
		C145.6,403.9,146,403,146.3,402.1z"/>
	<path id="Trazado_1387" class="st0" d="M124.3,408.8c1.1,0.5,2.2,1.1,3.3,1.6l1.3-2.7c-1.1-0.5-2.2-1-3.2-1.5L124.3,408.8z"/>
	<path id="Trazado_1388" class="st0" d="M123.7,401.8l-1.4,2.7c1.1,0.5,2.1,1.1,3.2,1.6l1.3-2.7
		C125.9,402.9,124.8,402.4,123.7,401.8z"/>
	<path id="Trazado_1389" class="st0" d="M122,397.6l-1.4,2.6c1,0.5,2.1,1.1,3.1,1.6l1.4-2.7C124.1,398.6,123,398.1,122,397.6z"/>
	<path id="Trazado_1390" class="st0" d="M120.4,393.3l-1.4,2.6c1,0.6,2,1.1,3.1,1.7l1.4-2.6C122.4,394.4,121.4,393.8,120.4,393.3z"
		/>
	<path id="Trazado_1391" class="st0" d="M118.9,389l-1.5,2.6c1,0.6,2,1.1,3,1.7l1.4-2.6C120.9,390.1,119.9,389.6,118.9,389z"/>
	<path id="Trazado_1392" class="st0" d="M117.5,384.7l-1.5,2.6c1,0.6,1.9,1.1,2.9,1.7l1.5-2.6C119.4,385.9,118.5,385.3,117.5,384.7z
		"/>
	<path id="Trazado_1393" class="st0" d="M97.7,389.8c1,0.7,2,1.4,3,2l1.7-2.5c-1-0.7-2-1.3-2.9-2L97.7,389.8z"/>
	<path id="Trazado_1394" class="st0" d="M102.4,389.3c1,0.7,2,1.3,3,1.9l1.6-2.5c-1-0.6-2-1.3-2.9-1.9L102.4,389.3z"/>
	<path id="Trazado_1395" class="st0" d="M107,388.8c1,0.6,2,1.3,3,1.9c0.5-0.8,1.1-1.7,1.6-2.5c-1-0.6-1.9-1.2-2.9-1.8L107,388.8z"
		/>
	<path id="Trazado_1396" class="st0" d="M116,387.3c-1-0.6-1.9-1.2-2.9-1.8l-1.6,2.5c1,0.6,2,1.2,2.9,1.8L116,387.3z"/>
	<path id="Trazado_1397" class="st0" d="M23.6,307.5c-16-34.4-22.5-72.4-19-110.1L1,197c-7.4,78.2,28,154.2,92.4,199.1l2.1-3.1
		C64.4,371.4,39.6,341.8,23.6,307.5z"/>
	<path id="Trazado_1398" class="st0" d="M41.9,299L41.9,299L41.9,299L41.9,299c14.4,31.2,36.9,57.9,65.1,77.5l2.1-3.1
		C52.8,334.3,22,267.8,28.4,199.6l-3.7-0.4C21.5,233.4,27.4,267.8,41.9,299L41.9,299z"/>
	<path id="Trazado_1399" class="st0" d="M93,390.1c1,0.7,2,1.4,3,2.1l1.7-2.5c-1-0.7-2-1.4-2.9-2.1L93,390.1z"/>
	<path id="Trazado_1400" class="st0" d="M93.7,383.2l-1.8,2.4c1,0.7,1.9,1.4,2.9,2.1l1.8-2.4C95.6,384.6,94.6,383.9,93.7,383.2z"/>
	<path id="Trazado_1401" class="st0" d="M92.7,378.7c-0.6,0.8-1.2,1.6-1.8,2.4c0.9,0.7,1.9,1.4,2.8,2.2l1.8-2.4
		C94.5,380.1,93.6,379.4,92.7,378.7z"/>
	<path id="Trazado_1402" class="st0" d="M91.8,374.2l-1.9,2.3c0.9,0.7,1.8,1.5,2.8,2.2l1.8-2.4C93.6,375.6,92.7,374.9,91.8,374.2z"
		/>
	<path id="Trazado_1403" class="st0" d="M91,369.7l-1.9,2.3c0.9,0.7,1.8,1.5,2.7,2.2l1.9-2.3C92.8,371.1,91.9,370.4,91,369.7z"/>
	<path id="Trazado_1404" class="st0" d="M90.4,365.2l-2,2.3c0.9,0.7,1.7,1.5,2.6,2.2l1.9-2.3C92.1,366.7,91.2,365.9,90.4,365.2z"/>
	<path id="Trazado_1406" class="st0" d="M74.6,367.1c0.9,0.8,1.7,1.6,2.6,2.5l2-2.2c-0.9-0.8-1.7-1.6-2.6-2.4L74.6,367.1z"/>
	<path id="Trazado_1407" class="st0" d="M79.2,367.3c0.9,0.8,1.7,1.6,2.6,2.4l2-2.2c-0.9-0.8-1.7-1.5-2.6-2.3L79.2,367.3z"/>
	<path id="Trazado_1408" class="st0" d="M88.4,367.5c-0.9-0.7-1.7-1.5-2.6-2.3l-2,2.2c0.9,0.8,1.7,1.5,2.6,2.3L88.4,367.5z"/>
	<path id="Trazado_1242" class="st0" d="M26.8,297.6l-2.8,1.2c0.5,1.2,1,2.4,1.5,3.5l2.7-1.2C27.8,299.9,27.3,298.8,26.8,297.6z"/>
	<path id="Trazado_1243" class="st0" d="M28.2,293l-2.8,1.1c0.5,1.2,0.9,2.3,1.4,3.5l2.8-1.2C29.1,295.3,28.6,294.2,28.2,293z"/>
	<path id="Trazado_1244" class="st0" d="M29.6,288.5l-2.8,1.1c0.4,1.2,0.9,2.3,1.3,3.4l2.8-1.1C30.5,290.8,30,289.7,29.6,288.5z"/>
	<path id="Trazado_1245" class="st0" d="M31.2,284.1l-2.8,1c0.4,1.1,0.8,2.3,1.3,3.4l2.8-1.1C32,286.3,31.6,285.2,31.2,284.1z"/>
	<path id="Trazado_1246" class="st0" d="M32.8,279.8l-2.8,1c0.4,1.1,0.8,2.2,1.2,3.4l2.8-1C33.6,282,33.2,280.9,32.8,279.8z"/>
	<path id="Trazado_1247" class="st0" d="M18.2,273c-0.3-1.2-0.7-2.4-1-3.6l-2.9,0.8c0.3,1.2,0.6,2.4,1,3.6L18.2,273z"/>
	<path id="Trazado_1248" class="st0" d="M22.1,275.7c-0.3-1.2-0.7-2.3-1-3.5l-2.9,0.8c0.3,1.2,0.7,2.4,1,3.5L22.1,275.7z"/>
	<path id="Trazado_1249" class="st0" d="M26,278.3c-0.4-1.1-0.7-2.3-1.1-3.4l-2.9,0.9c0.3,1.2,0.7,2.3,1.1,3.5L26,278.3z"/>
	<path id="Trazado_1250" class="st0" d="M30,280.7c-0.4-1.1-0.8-2.2-1.1-3.4l-2.9,0.9c0.4,1.1,0.7,2.3,1.1,3.4L30,280.7z"/>
	<path id="Trazado_1251" class="st0" d="M11.5,270.9l2.9-0.8c-0.3-1.2-0.6-2.4-0.9-3.6l-2.9,0.7C10.8,268.5,11.1,269.7,11.5,270.9z"
		/>
	<path id="Trazado_1252" class="st0" d="M15.5,262.3l-2.9,0.6c0.3,1.2,0.5,2.4,0.8,3.6l2.9-0.7C16.1,264.7,15.8,263.5,15.5,262.3z"
		/>
	<path id="Trazado_1253" class="st0" d="M17.7,258.1l-2.9,0.6c0.2,1.2,0.5,2.4,0.8,3.6l2.9-0.6C18.2,260.5,17.9,259.3,17.7,258.1z"
		/>
	<path id="Trazado_1254" class="st0" d="M20,254.1l-2.9,0.5c0.2,1.2,0.4,2.4,0.7,3.5l2.9-0.6C20.4,256.4,20.2,255.2,20,254.1z"/>
	<path id="Trazado_1255" class="st0" d="M22.3,250.1l-3,0.5c0.2,1.2,0.4,2.3,0.6,3.5l2.9-0.5C22.7,252.4,22.5,251.2,22.3,250.1z"/>
	<path id="Trazado_1256" class="st0" d="M24.7,246.2l-3,0.4c0.2,1.1,0.4,2.3,0.5,3.4l3-0.5C25.1,248.5,24.9,247.4,24.7,246.2z"/>
	<path id="Trazado_1257" class="st0" d="M11.5,237.2c-0.1-1.2-0.2-2.4-0.3-3.6l-3,0.2c0.1,1.2,0.2,2.4,0.3,3.6L11.5,237.2z"/>
	<path id="Trazado_1258" class="st0" d="M14.9,240.5c-0.1-1.2-0.3-2.4-0.4-3.5l-3,0.3c0.1,1.2,0.2,2.4,0.4,3.6L14.9,240.5z"/>
	<path id="Trazado_1259" class="st0" d="M18.3,243.6c-0.2-1.2-0.3-2.3-0.4-3.5l-3,0.3c0.1,1.2,0.3,2.4,0.4,3.5L18.3,243.6z"/>
	<path id="Trazado_1260" class="st0" d="M21.7,246.7c-0.2-1.1-0.3-2.3-0.5-3.4l-3,0.4c0.2,1.2,0.3,2.3,0.5,3.5L21.7,246.7z"/>
	<path id="Trazado_1261" class="st0" d="M5.3,234.1l3-0.2c-0.1-1.2-0.2-2.4-0.3-3.6l-3,0.2C5.1,231.7,5.2,232.9,5.3,234.1z"/>
	<path id="Trazado_1262" class="st0" d="M10.8,226.5l-3,0.1c0.1,1.2,0.1,2.4,0.2,3.6l3-0.2C10.9,228.9,10.8,227.7,10.8,226.5z"/>
	<path id="Trazado_1263" class="st0" d="M13.7,222.8l-3,0.1c0,1.2,0.1,2.4,0.1,3.6l3-0.1C13.7,225.2,13.7,224,13.7,222.8z"/>
	<path id="Trazado_1264" class="st0" d="M16.6,219.3l-3,0c0,1.2,0,2.3,0.1,3.5l3-0.1C16.6,221.6,16.6,220.4,16.6,219.3z"/>
	<path id="Trazado_1265" class="st0" d="M19.6,215.8l-3,0c0,1.2,0,2.3,0,3.5l3,0C19.6,218.1,19.6,217,19.6,215.8z"/>
	<path id="Trazado_1266" class="st0" d="M22.6,212.5l-3-0.1c0,1.1,0,2.3-0.1,3.4l3,0C22.6,214.7,22.6,213.6,22.6,212.5z"/>
	<path id="Trazado_1267" class="st0" d="M11.2,201.5c0.1-1.2,0.2-2.4,0.3-3.5l-3-0.3c-0.1,1.2-0.2,2.4-0.3,3.6L11.2,201.5z"/>
	<path id="Trazado_1268" class="st0" d="M14,205.3c0.1-1.2,0.2-2.3,0.2-3.5l-3-0.2c-0.1,1.2-0.2,2.4-0.2,3.5L14,205.3z"/>
	<path id="Trazado_1269" class="st0" d="M16.8,208.9c0.1-1.2,0.1-2.3,0.2-3.5l-3-0.2c-0.1,1.2-0.1,2.3-0.2,3.5L16.8,208.9z"/>
	<path id="Trazado_1270" class="st0" d="M19.7,212.4c0-1.1,0.1-2.3,0.1-3.4l-3-0.1c0,1.2-0.1,2.3-0.1,3.5L19.7,212.4z"/>
	<path id="Trazado_1271" class="st0" d="M41.9,95.5l-3.1-2.1C17.6,124.1,4.6,159.8,1,197l3.7,0.4C8.2,160.8,21,125.7,41.9,95.5z"/>
	<path id="Trazado_1272" class="st0" d="M28.4,199.6c3.1-32.5,14.5-63.6,33.1-90.5l-3.1-2.1c-18.9,27.4-30.6,59.1-33.8,92.2
		L28.4,199.6z"/>
	<path id="Trazado_1273" class="st0" d="M5.6,197.4l3,0.3c0.1-1.2,0.2-2.4,0.4-3.6l-3-0.3C5.8,195,5.7,196.2,5.6,197.4z"/>
	<path id="Trazado_1274" class="st0" d="M12.3,190.9l-3-0.4c-0.2,1.2-0.3,2.4-0.4,3.6l3,0.3C12,193.3,12.2,192.1,12.3,190.9z"/>
	<path id="Trazado_1275" class="st0" d="M15.8,187.9l-3-0.4c-0.2,1.2-0.3,2.3-0.5,3.5l3,0.4C15.5,190.2,15.6,189,15.8,187.9z"/>
	<path id="Trazado_1276" class="st0" d="M19.3,184.9l-3-0.5c-0.2,1.1-0.4,2.3-0.5,3.4l3,0.4C18.9,187.2,19.1,186,19.3,184.9z"/>
	<path id="Trazado_1277" class="st0" d="M22.8,182l-2.9-0.5c-0.2,1.1-0.4,2.3-0.6,3.4l3,0.5C22.4,184.3,22.6,183.2,22.8,182z"/>
	<path id="Trazado_1278" class="st0" d="M26.4,179.3l-2.9-0.6c-0.2,1.1-0.4,2.2-0.6,3.3l2.9,0.5C26,181.5,26.2,180.4,26.4,179.3z"/>
	<path id="Trazado_1279" class="st0" d="M17,166.6c0.3-1.1,0.6-2.3,0.9-3.4l-2.9-0.8c-0.3,1.2-0.6,2.3-0.9,3.5L17,166.6z"/>
	<path id="Trazado_1280" class="st0" d="M19.1,170.7c0.3-1.1,0.5-2.3,0.8-3.4l-2.9-0.7c-0.3,1.1-0.6,2.3-0.8,3.4L19.1,170.7z"/>
	<path id="Trazado_1281" class="st0" d="M21.2,174.8c0.2-1.1,0.5-2.2,0.8-3.3l-2.9-0.7c-0.3,1.1-0.5,2.3-0.8,3.4L21.2,174.8z"/>
	<path id="Trazado_1282" class="st0" d="M23.5,178.7c0.2-1.1,0.5-2.2,0.7-3.3l-2.9-0.6c-0.2,1.1-0.5,2.2-0.7,3.4L23.5,178.7z"/>
	<path id="Trazado_1283" class="st0" d="M12.1,161.6l2.9,0.8c0.3-1.2,0.6-2.3,1-3.4l-2.9-0.8C12.8,159.3,12.4,160.5,12.1,161.6z"/>
	<path id="Trazado_1284" class="st0" d="M19.9,156.4l-2.9-0.9c-0.4,1.1-0.7,2.3-1,3.4l2.9,0.8C19.2,158.7,19.5,157.6,19.9,156.4z"/>
	<path id="Trazado_1285" class="st0" d="M23.8,154l-2.8-0.9c-0.4,1.1-0.7,2.2-1.1,3.4l2.9,0.9C23.1,156.2,23.4,155.1,23.8,154z"/>
	<path id="Trazado_1286" class="st0" d="M27.7,151.7l-2.8-1c-0.4,1.1-0.8,2.2-1.1,3.3l2.8,0.9C27,153.9,27.4,152.8,27.7,151.7z"/>
	<path id="Trazado_1287" class="st0" d="M31.7,149.5l-2.8-1c-0.4,1.1-0.8,2.1-1.1,3.2l2.8,1C30.9,151.6,31.3,150.5,31.7,149.5z"/>
	<path id="Trazado_1288" class="st0" d="M35.7,147.4l-2.8-1.1c-0.4,1-0.8,2.1-1.2,3.2l2.8,1C34.9,149.5,35.3,148.4,35.7,147.4z"/>
	<path id="Trazado_1289" class="st0" d="M28.6,133.3c0.5-1.1,1-2.1,1.5-3.2l-2.7-1.3c-0.5,1.1-1,2.2-1.5,3.3L28.6,133.3z"/>
	<path id="Trazado_1290" class="st0" d="M29.9,137.7c0.5-1.1,0.9-2.1,1.4-3.2l-2.7-1.2c-0.5,1.1-0.9,2.2-1.4,3.2L29.9,137.7z"/>
	<path id="Trazado_1291" class="st0" d="M31.3,142.1c0.4-1.1,0.9-2.1,1.3-3.2l-2.8-1.2c-0.5,1.1-0.9,2.1-1.3,3.2L31.3,142.1z"/>
	<path id="Trazado_1292" class="st0" d="M32.9,146.3c0.4-1,0.8-2.1,1.2-3.1l-2.8-1.1c-0.4,1.1-0.8,2.1-1.3,3.2L32.9,146.3z"/>
	<path id="Trazado_1293" class="st0" d="M24.6,127.6l2.7,1.3c0.5-1.1,1-2.2,1.5-3.2l-2.7-1.3C25.6,125.4,25.1,126.5,24.6,127.6z"/>
	<path id="Trazado_1294" class="st0" d="M33.1,123.8l-2.7-1.4c-0.5,1.1-1.1,2.1-1.6,3.2l2.7,1.3C32,125.9,32.6,124.8,33.1,123.8z"/>
	<path id="Trazado_1295" class="st0" d="M37.4,122l-2.6-1.4c-0.6,1-1.1,2.1-1.6,3.1l2.7,1.4C36.3,124.1,36.8,123,37.4,122z"/>
	<path id="Trazado_1296" class="st0" d="M41.6,120.4L39,119c-0.6,1-1.1,2-1.7,3.1l2.6,1.4C40.6,122.4,41.1,121.4,41.6,120.4z"/>
	<path id="Trazado_1297" class="st0" d="M45.9,118.9l-2.6-1.5c-0.6,1-1.1,2-1.7,3l2.6,1.4C44.8,120.9,45.4,119.9,45.9,118.9z"/>
	<path id="Trazado_1298" class="st0" d="M50.2,117.5l-2.6-1.5c-0.6,1-1.1,1.9-1.7,2.9l2.6,1.5C49.1,119.4,49.6,118.5,50.2,117.5z"/>
	<path id="Trazado_1299" class="st0" d="M45.6,102.4c0.7-1,1.3-2,2-2.9l-2.5-1.7c-0.7,1-1.4,2-2,3L45.6,102.4z"/>
	<path id="Trazado_1300" class="st0" d="M46.2,107c0.6-1,1.3-2,1.9-2.9l-2.5-1.7c-0.7,1-1.3,2-1.9,3L46.2,107z"/>
	<path id="Trazado_1301" class="st0" d="M46.9,111.5c0.6-1,1.2-1.9,1.8-2.9l-2.5-1.6c-0.6,1-1.3,2-1.9,3L46.9,111.5z"/>
	<path id="Trazado_1302" class="st0" d="M47.6,116c0.6-1,1.2-1.9,1.8-2.9l-2.5-1.6c-0.6,1-1.2,2-1.8,2.9L47.6,116z"/>
	<path id="Trazado_1304" class="st0" d="M42.7,96l2.5,1.7c0.7-1,1.4-2,2.1-2.9L44.8,93C44.1,94,43.4,95,42.7,96z"/>
	<path id="Trazado_1305" class="st0" d="M51.8,93.7l-2.4-1.8c-0.7,1-1.4,1.9-2.1,2.9l2.4,1.8C50.3,95.6,51,94.6,51.8,93.7z"/>
	<path id="Trazado_1306" class="st0" d="M56.3,92.7l-2.4-1.8c-0.7,0.9-1.4,1.9-2.2,2.8l2.4,1.8C54.9,94.5,55.6,93.6,56.3,92.7z"/>
	<path id="Trazado_1307" class="st0" d="M60.8,91.8l-2.3-1.9c-0.7,0.9-1.5,1.8-2.2,2.8l2.4,1.8C59.3,93.6,60.1,92.7,60.8,91.8z"/>
	<path id="Trazado_1308" class="st0" d="M65.3,91L63,89.1c-0.7,0.9-1.5,1.8-2.2,2.7l2.3,1.9C63.8,92.8,64.5,91.9,65.3,91z"/>
	<path id="Trazado_1309" class="st0" d="M69.7,90.4l-2.3-2c-0.7,0.9-1.5,1.7-2.2,2.6l2.3,1.9C68.3,92.1,69,91.2,69.7,90.4z"/>
	<path id="Trazado_1310" class="st0" d="M67.9,74.6c0.8-0.9,1.7-1.7,2.5-2.6l-2.1-2.1c-0.9,0.9-1.7,1.7-2.5,2.6L67.9,74.6z"/>
	<path id="Trazado_1311" class="st0" d="M67.6,79.2c0.8-0.9,1.6-1.7,2.4-2.6l-2.2-2.1c-0.8,0.9-1.6,1.7-2.5,2.6L67.6,79.2z"/>
	<path id="Trazado_1312" class="st0" d="M67.5,83.8c0.8-0.9,1.5-1.7,2.3-2.6l-2.2-2c-0.8,0.9-1.6,1.7-2.4,2.6L67.5,83.8z"/>
	<path id="Trazado_1313" class="st0" d="M67.5,88.4c0.7-0.9,1.5-1.7,2.3-2.6l-2.2-2c-0.8,0.9-1.5,1.7-2.3,2.6L67.5,88.4z"/>
	<path id="Trazado_1314" class="st0" d="M68.3,69.9c0.9-0.9,1.7-1.7,2.6-2.6l-2.1-2.1c-0.9,0.9-1.8,1.7-2.6,2.6L68.3,69.9z"/>
	<path id="Trazado_1315" class="st0" d="M75.6,67l-2.1-2.2c-0.9,0.8-1.8,1.7-2.6,2.5l2.1,2.1C73.8,68.6,74.7,67.8,75.6,67z"/>
	<path id="Trazado_1405" class="st0" d="M69.9,366.7c0.9,0.9,1.7,1.7,2.6,2.5l2.1-2.2c-0.9-0.8-1.7-1.7-2.6-2.5L69.9,366.7z"/>
	<path id="Trazado_1409" class="st0" d="M65.2,366.2c0.9,0.9,1.7,1.8,2.6,2.6l2.1-2.1c-0.9-0.9-1.7-1.7-2.6-2.6L65.2,366.2z"/>
	<path id="Trazado_1410" class="st0" d="M67,359.4l-2.2,2.1c0.8,0.9,1.7,1.8,2.5,2.6l2.1-2.1C68.6,361.1,67.8,360.3,67,359.4z"/>
	<path id="Trazado_1411" class="st0" d="M66.7,354.7l-2.2,2c0.8,0.9,1.6,1.8,2.5,2.7l2.2-2.1C68.3,356.5,67.5,355.6,66.7,354.7z"/>
	<path id="Trazado_1412" class="st0" d="M66.6,350.1l-2.2,2c0.8,0.9,1.6,1.8,2.4,2.7l2.2-2C68.1,351.9,67.4,351,66.6,350.1z"/>
	<path id="Trazado_1413" class="st0" d="M66.6,345.5l-2.3,1.9c0.8,0.9,1.5,1.8,2.3,2.7l2.2-2C68.1,347.3,67.3,346.4,66.6,345.5z"/>
	<path id="Trazado_1414" class="st0" d="M66.7,340.9l-2.3,1.9c0.7,0.9,1.5,1.8,2.2,2.7l2.3-1.9C68.1,342.7,67.4,341.8,66.7,340.9z"
		/>
	<path id="Trazado_1415" class="st0" d="M46.1,338.6c0.7,1,1.4,2,2.2,3l2.4-1.8c-0.7-1-1.4-2-2.1-3L46.1,338.6z"/>
	<path id="Trazado_1416" class="st0" d="M50.7,339.8c0.7,1,1.5,2,2.2,2.9l2.4-1.8c-0.7-1-1.4-1.9-2.2-2.9L50.7,339.8z"/>
	<path id="Trazado_1417" class="st0" d="M55.3,341c0.7,1,1.5,1.9,2.2,2.8l2.4-1.9c-0.7-0.9-1.5-1.9-2.2-2.8L55.3,341z"/>
	<path id="Trazado_1418" class="st0" d="M64.3,342.8c-0.7-0.9-1.5-1.8-2.2-2.7l-2.4,1.9c0.7,0.9,1.5,1.8,2.2,2.8L64.3,342.8z"/>
	<path id="Trazado_1419" class="st0" d="M41.5,337.2c0.7,1,1.4,2.1,2.2,3.1l2.4-1.7c-0.7-1-1.4-2-2.1-3.1L41.5,337.2z"/>
	<path id="Trazado_1420" class="st0" d="M44.4,330.8l-2.5,1.6c0.7,1,1.4,2.1,2.1,3.1l2.5-1.7C45.8,332.8,45.1,331.8,44.4,330.8z"/>
	<path id="Trazado_1421" class="st0" d="M44.9,326l-2.5,1.6c0.7,1,1.3,2.1,2,3.1l2.5-1.6C46.2,328.1,45.6,327.1,44.9,326z"/>
	<path id="Trazado_1422" class="st0" d="M45.6,321.4l-2.6,1.5c0.6,1,1.3,2.1,1.9,3.1l2.5-1.6C46.8,323.4,46.2,322.4,45.6,321.4z"/>
	<path id="Trazado_1423" class="st0" d="M46.3,316.8l-2.6,1.5c0.6,1,1.2,2.1,1.8,3.1l2.6-1.5C47.5,318.8,46.9,317.8,46.3,316.8z"/>
	<path id="Trazado_1424" class="st0" d="M47.2,312.2l-2.6,1.5c0.6,1,1.2,2.1,1.8,3.1l2.6-1.5C48.3,314.2,47.8,313.2,47.2,312.2z"/>
	<path id="Trazado_1425" class="st0" d="M27.2,305.8c-0.5-1.2-1.1-2.3-1.6-3.5l-2.7,1.2c0.5,1.2,1.1,2.4,1.6,3.6L27.2,305.8
		L27.2,305.8c0.6,1.2,1.1,2.3,1.7,3.5l2.7-1.3c-0.6-1.1-1.1-2.3-1.6-3.4L27.2,305.8z"/>
	<path id="Trazado_1426" class="st0" d="M31.5,308c0.6,1.1,1.1,2.3,1.7,3.4l2.7-1.4c-0.6-1.1-1.1-2.2-1.7-3.3L31.5,308z"/>
	<path id="Trazado_1427" class="st0" d="M35.9,310c0.6,1.1,1.1,2.2,1.7,3.3l2.6-1.4c-0.6-1.1-1.1-2.2-1.7-3.2L35.9,310z"/>
	<path id="Trazado_1428" class="st0" d="M44.6,313.6c-0.6-1-1.2-2.1-1.7-3.2l-2.6,1.4c0.6,1.1,1.2,2.1,1.7,3.2L44.6,313.6z"/>
</g>
</svg>
