<svg xmlns="http://www.w3.org/2000/svg" width="124.709" height="124.708" viewBox="0 0 124.709 124.708">
  <g id="Grupo_6" data-name="Grupo 6" transform="translate(-798.754 -408.811)">
    <path id="Trazado_138" data-name="Trazado 138" d="M906.93,425.617l-5.034-5.035-43.2,43.2-43.2-43.2-5.034,5.035,43.2,43.2-43.2,43.2,5.034,5.035,43.2-43.2,43.2,43.2,5.034-5.035-43.2-43.2Z" transform="translate(2.187 2.199)" fill="#e5661d"/>
    <path id="Trazado_139" data-name="Trazado 139" d="M852.379,425a8.094,8.094,0,1,0-8.094-8.094A8.094,8.094,0,0,0,852.379,425Z" transform="translate(8.505 0)" fill="#e5661d"/>
    <path id="Trazado_140" data-name="Trazado 140" d="M852.758,500.251a8.094,8.094,0,1,0,8.094,8.094A8.093,8.093,0,0,0,852.758,500.251Z" transform="translate(8.576 17.08)" fill="#e5661d"/>
    <path id="Trazado_141" data-name="Trazado 141" d="M806.848,454.72a8.094,8.094,0,1,0,8.1,8.094A8.095,8.095,0,0,0,806.848,454.72Z" transform="translate(0 8.575)" fill="#e5661d"/>
    <path id="Trazado_142" data-name="Trazado 142" d="M898.289,454.341a8.094,8.094,0,1,0,8.094,8.094A8.1,8.1,0,0,0,898.289,454.341Z" transform="translate(17.08 8.505)" fill="#e5661d"/>
  </g>
</svg>
