<svg xmlns="http://www.w3.org/2000/svg" width="422.116" height="422.559" viewBox="0 0 422.116 422.559">
  <g id="Grupo_1725" data-name="Grupo 1725" transform="translate(-298.904 -369.129)">
    <g id="Grupo_261" data-name="Grupo 261" transform="translate(299.784 566.84)">
      <g id="Grupo_242" data-name="Grupo 242" transform="translate(376.881 31.894)">
        <g id="Grupo_241" data-name="Grupo 241" transform="translate(0 20.516)">
          <path id="Trazado_733" data-name="Trazado 733" d="M653.266,616.261q1.786-5.457,3.287-11.007c5.167-1.021,10.267-2.327,15.346-3.737a275.293,275.293,0,0,1-8.431,28.265Q658.51,622.9,653.266,616.261Z" transform="translate(-635.46 -592.268)" fill="none" stroke="#e5661d" stroke-miterlimit="10" stroke-width="1.706"/>
          <path id="Trazado_734" data-name="Trazado 734" d="M652.663,616.173q1.762-5.384,3.243-10.861-5.551-6.182-11.368-12.078a240.4,240.4,0,0,1-7.219,24.2C642.447,617.233,647.567,616.786,652.663,616.173Z" transform="translate(-637.319 -593.234)" fill="none" stroke="#e5661d" stroke-miterlimit="10" stroke-width="1.706"/>
          <path id="Trazado_735" data-name="Trazado 735" d="M656.473,604.96l-2.521-.913" transform="translate(-635.38 -591.974)" fill="none" stroke="#e5661d" stroke-miterlimit="10" stroke-width="1.706"/>
          <path id="Trazado_736" data-name="Trazado 736" d="M653.557,614.733l-2.477-1.06" transform="translate(-635.715 -590.852)" fill="none" stroke="#e5661d" stroke-miterlimit="10" stroke-width="1.706"/>
          <path id="Trazado_737" data-name="Trazado 737" d="M667.884,615.017l-13.091-5.174" transform="translate(-635.282 -591.298)" fill="none" stroke="#e5661d" stroke-miterlimit="10" stroke-width="0.829"/>
          <path id="Trazado_738" data-name="Trazado 738" d="M653.919,609.5l-13.078-5.169" transform="translate(-636.908 -591.941)" fill="none" stroke="#e5661d" stroke-miterlimit="10" stroke-width="0.829"/>
        </g>
        <path id="Trazado_739" data-name="Trazado 739" d="M650.841,584.517c4.082-3,7.992-6.256,11.768-9.657q4.267,7.155,8.176,14.5c-3.961,3.263-8.047,6.376-12.295,9.228C656.1,593.812,653.53,589.124,650.841,584.517Z" transform="translate(-635.743 -574.86)" fill="none" stroke="#e5661d" stroke-miterlimit="10" stroke-width="1.706"/>
        <path id="Trazado_740" data-name="Trazado 740" d="M638.019,627.246c4.5-1.514,8.9-3.174,13.28-5.005,1.85,4.991,3.568,10.039,5.092,15.146-4.535,1.687-9.081,3.207-13.716,4.577C641.3,637,639.723,632.1,638.019,627.246Z" transform="translate(-637.237 -569.337)" fill="none" stroke="#e5661d" stroke-miterlimit="10" stroke-width="1.706"/>
      </g>
      <g id="Grupo_245" data-name="Grupo 245" transform="translate(323.271 84.797)">
        <g id="Grupo_243" data-name="Grupo 243" transform="translate(33.204 11.765)">
          <path id="Trazado_741" data-name="Trazado 741" d="M634.556,655.765c1.835-2.976,3.6-5.963,5.333-9,5.186.557,10.4.883,15.609,1.053a239.443,239.443,0,0,1-13.682,23.12Q638.347,663.258,634.556,655.765Z" transform="translate(-617.236 -631.147)" fill="none" stroke="#e5661d" stroke-miterlimit="10" stroke-width="1.706"/>
          <path id="Trazado_742" data-name="Trazado 742" d="M634.181,655.743c1.81-2.935,3.554-5.882,5.261-8.883q-4.19-7.15-8.683-14.082a209.058,209.058,0,0,1-11.715,19.793C624.048,653.821,629.105,654.857,634.181,655.743Z" transform="translate(-619.044 -632.777)" fill="none" stroke="#e5661d" stroke-miterlimit="10" stroke-width="1.706"/>
          <path id="Trazado_743" data-name="Trazado 743" d="M639.569,646.922l-2.268-1.541" transform="translate(-616.916 -631.308)" fill="none" stroke="#e5661d" stroke-miterlimit="10" stroke-width="1.706"/>
          <path id="Trazado_744" data-name="Trazado 744" d="M634.838,654.917l-2.2-1.661" transform="translate(-617.459 -630.39)" fill="none" stroke="#e5661d" stroke-miterlimit="10" stroke-width="1.706"/>
          <path id="Trazado_745" data-name="Trazado 745" d="M648.683,659.235l-11.694-8.393" transform="translate(-616.952 -630.671)" fill="none" stroke="#e5661d" stroke-miterlimit="10" stroke-width="0.829"/>
          <path id="Trazado_746" data-name="Trazado 746" d="M636.208,650.282l-11.68-8.383" transform="translate(-618.405 -631.714)" fill="none" stroke="#e5661d" stroke-miterlimit="10" stroke-width="0.829"/>
        </g>
        <g id="Grupo_244" data-name="Grupo 244" transform="translate(5.611 47.436)">
          <path id="Trazado_747" data-name="Trazado 747" d="M608.562,687.377c2.384-2.259,4.715-4.6,6.965-7.005,4.93,1.908,9.932,3.589,14.962,5.187a233.374,233.374,0,0,1-17.873,17.988Q610.764,695.408,608.562,687.377Z" transform="translate(-592.672 -662.9)" fill="none" stroke="#e5661d" stroke-miterlimit="10" stroke-width="1.706"/>
          <path id="Trazado_748" data-name="Trazado 748" d="M608.426,687.076c2.352-2.229,4.652-4.542,6.871-6.912q-2.663-7.793-5.662-15.44a205.947,205.947,0,0,1-15.3,15.4C598.95,682.6,603.662,684.9,608.426,687.076Z" transform="translate(-594.331 -664.724)" fill="none" stroke="#e5661d" stroke-miterlimit="10" stroke-width="1.706"/>
          <path id="Trazado_749" data-name="Trazado 749" d="M615,680.586l-1.9-2.044" transform="translate(-592.144 -663.113)" fill="none" stroke="#e5661d" stroke-miterlimit="10" stroke-width="1.706"/>
          <path id="Trazado_750" data-name="Trazado 750" d="M608.818,686.806l-1.808-2.138" transform="translate(-592.853 -662.399)" fill="none" stroke="#e5661d" stroke-miterlimit="10" stroke-width="1.706"/>
          <path id="Trazado_751" data-name="Trazado 751" d="M621.426,694.519l-9.71-10.96" transform="translate(-592.305 -662.529)" fill="none" stroke="#e5661d" stroke-miterlimit="10" stroke-width="0.829"/>
          <path id="Trazado_752" data-name="Trazado 752" d="M611.068,682.827l-9.7-10.948" transform="translate(-593.51 -663.89)" fill="none" stroke="#e5661d" stroke-miterlimit="10" stroke-width="0.829"/>
        </g>
        <path id="Trazado_753" data-name="Trazado 753" d="M617.806,661.109c4.645-.17,9.246-.49,13.871-.961.835,5.075,1.531,10.179,2.025,15.3-4.746.327-9.465.506-14.223.534C619.1,671.007,618.523,666.045,617.806,661.109Z" transform="translate(-585.984 -617.821)" fill="none" stroke="#e5661d" stroke-miterlimit="10" stroke-width="1.706"/>
        <path id="Trazado_754" data-name="Trazado 754" d="M638.019,627.246c4.5-1.514,8.9-3.174,13.28-5.005,1.85,4.991,3.568,10.039,5.092,15.146-4.535,1.687-9.081,3.207-13.716,4.577C641.3,637,639.723,632.1,638.019,627.246Z" transform="translate(-583.628 -622.24)" fill="none" stroke="#e5661d" stroke-miterlimit="10" stroke-width="1.706"/>
        <path id="Trazado_755" data-name="Trazado 755" d="M590.691,688.515c4.543,1.048,9.086,1.953,13.68,2.729-.212,5-.567,10-1.122,14.981-4.685-.92-9.315-1.967-13.943-3.157C589.892,698.221,590.354,693.388,590.691,688.515Z" transform="translate(-589.306 -614.515)" fill="none" stroke="#e5661d" stroke-miterlimit="10" stroke-width="1.706"/>
      </g>
      <g id="Grupo_248" data-name="Grupo 248" transform="translate(243.559 158.797)">
        <g id="Grupo_246" data-name="Grupo 246" transform="translate(52.114 0.807)">
          <path id="Trazado_756" data-name="Trazado 756" d="M576.826,710.871c2.77-1.586,5.512-3.259,8.192-5q6.673,4.516,13.534,8.689A238.4,238.4,0,0,1,577.527,727.4C577.415,721.881,577.182,716.381,576.826,710.871Z" transform="translate(-563.163 -687.299)" fill="none" stroke="#e5661d" stroke-miterlimit="10" stroke-width="1.706"/>
          <path id="Trazado_757" data-name="Trazado 757" d="M576.93,710.33c2.733-1.564,5.438-3.214,8.083-4.934-.688-5.407-1.468-10.792-2.422-16.158a210.358,210.358,0,0,1-18,11C568.6,703.736,572.726,707.088,576.93,710.33Z" transform="translate(-564.589 -689.238)" fill="none" stroke="#e5661d" stroke-miterlimit="10" stroke-width="1.706"/>
          <path id="Trazado_758" data-name="Trazado 758" d="M584.314,706.122l-1.441-2.426" transform="translate(-562.458 -687.553)" fill="none" stroke="#e5661d" stroke-miterlimit="10" stroke-width="1.706"/>
          <path id="Trazado_759" data-name="Trazado 759" d="M577.043,710.564l-1.332-2.493" transform="translate(-563.292 -687.043)" fill="none" stroke="#e5661d" stroke-miterlimit="10" stroke-width="1.706"/>
          <path id="Trazado_760" data-name="Trazado 760" d="M587.781,721.05l-7.262-12.892" transform="translate(-562.732 -687.033)" fill="none" stroke="#e5661d" stroke-miterlimit="10" stroke-width="0.829"/>
          <path id="Trazado_761" data-name="Trazado 761" d="M580.035,707.3q-3.627-6.438-7.253-12.877" transform="translate(-563.634 -688.634)" fill="none" stroke="#e5661d" stroke-miterlimit="10" stroke-width="0.829"/>
        </g>
        <g id="Grupo_247" data-name="Grupo 247" transform="translate(15.166 19.742)">
          <path id="Trazado_762" data-name="Trazado 762" d="M541.456,726.126c3.023-.919,6.035-1.923,9.008-3q5.608,5.911,11.461,11.54c-7.611,2.957-15.275,5.509-23.121,7.71C539.809,736.973,540.692,731.568,541.456,726.126Z" transform="translate(-530.648 -704.223)" fill="none" stroke="#e5661d" stroke-miterlimit="10" stroke-width="1.706"/>
          <path id="Trazado_763" data-name="Trazado 763" d="M541.515,725.389c2.982-.907,5.955-1.9,8.888-2.962.462-5.4.741-10.814.891-16.23-6.518,2.521-13.081,4.708-19.795,6.6C534.708,717.1,538.064,721.29,541.515,725.389Z" transform="translate(-531.499 -706.196)" fill="none" stroke="#e5661d" stroke-miterlimit="10" stroke-width="1.706"/>
          <path id="Trazado_764" data-name="Trazado 764" d="M549.342,723.4c-.367-1.075-.55-1.612-.918-2.686" transform="translate(-529.526 -704.503)" fill="none" stroke="#e5661d" stroke-miterlimit="10" stroke-width="1.706"/>
          <path id="Trazado_765" data-name="Trazado 765" d="M541.347,726.071c-.319-1.091-.479-1.636-.8-2.725" transform="translate(-530.444 -704.197)" fill="none" stroke="#e5661d" stroke-miterlimit="10" stroke-width="1.706"/>
          <path id="Trazado_766" data-name="Trazado 766" d="M549.719,738.693q-2.246-7.09-4.492-14.177" transform="translate(-529.899 -704.06)" fill="none" stroke="#e5661d" stroke-miterlimit="10" stroke-width="0.829"/>
          <path id="Trazado_767" data-name="Trazado 767" d="M544.928,723.571q-2.244-7.08-4.486-14.16" transform="translate(-530.457 -705.821)" fill="none" stroke="#e5661d" stroke-miterlimit="10" stroke-width="0.829"/>
        </g>
        <path id="Trazado_768" data-name="Trazado 768" d="M559.886,707.571c4.226,2.07,8.482,4.008,12.811,5.839-1.236,4.78-2.587,9.5-4.063,14.2-4.389-1.974-8.7-4.055-12.987-6.266C557.179,716.785,558.588,712.209,559.886,707.571Z" transform="translate(-513.518 -686.294)" fill="none" stroke="#e5661d" stroke-miterlimit="10" stroke-width="1.706"/>
        <path id="Trazado_769" data-name="Trazado 769" d="M590.691,688.515c4.543,1.048,9.086,1.953,13.68,2.729-.212,5-.567,10-1.122,14.981-4.685-.92-9.315-1.967-13.943-3.157C589.892,698.221,590.354,693.388,590.691,688.515Z" transform="translate(-509.594 -688.515)" fill="none" stroke="#e5661d" stroke-miterlimit="10" stroke-width="1.706"/>
        <path id="Trazado_770" data-name="Trazado 770" d="M524.886,719.369c3.7,2.964,7.462,5.809,11.31,8.566-2.188,4.377-4.476,8.669-6.883,12.922-3.88-2.9-7.667-5.89-11.4-8.994C520.349,727.755,522.666,723.6,524.886,719.369Z" transform="translate(-517.916 -684.918)" fill="none" stroke="#e5661d" stroke-miterlimit="10" stroke-width="1.706"/>
      </g>
      <g id="Grupo_251" data-name="Grupo 251" transform="translate(158.06 189.131)">
        <g id="Grupo_249" data-name="Grupo 249" transform="translate(61.504)">
          <path id="Trazado_771" data-name="Trazado 771" d="M503.728,733.219c3.142-.252,6.291-.586,9.417-1q4.284,6.987,8.865,13.754c-8.041,1.237-16.055,2.087-24.17,2.566Q500.954,740.943,503.728,733.219Z" transform="translate(-496.261 -713.754)" fill="none" stroke="#e5661d" stroke-miterlimit="10" stroke-width="1.706"/>
          <path id="Trazado_772" data-name="Trazado 772" d="M503.668,732.328c3.1-.248,6.206-.578,9.291-.986,1.545-5.172,2.917-10.4,4.161-15.66-6.884,1.049-13.747,1.776-20.694,2.2C498.692,722.772,501.126,727.584,503.668,732.328Z" transform="translate(-496.426 -715.682)" fill="none" stroke="#e5661d" stroke-miterlimit="10" stroke-width="1.706"/>
          <path id="Trazado_773" data-name="Trazado 773" d="M511.584,732.515c-.141-1.129-.212-1.694-.353-2.823" transform="translate(-494.7 -714.049)" fill="none" stroke="#e5661d" stroke-miterlimit="10" stroke-width="1.706"/>
          <path id="Trazado_774" data-name="Trazado 774" d="M503.226,733.4,503,730.568" transform="translate(-495.66 -713.947)" fill="none" stroke="#e5661d" stroke-miterlimit="10" stroke-width="1.706"/>
          <path id="Trazado_775" data-name="Trazado 775" d="M508.851,747.536q-.759-7.409-1.516-14.82" transform="translate(-495.154 -713.696)" fill="none" stroke="#e5661d" stroke-miterlimit="10" stroke-width="0.829"/>
          <path id="Trazado_776" data-name="Trazado 776" d="M507.234,731.728q-.757-7.4-1.515-14.8" transform="translate(-495.343 -715.538)" fill="none" stroke="#e5661d" stroke-miterlimit="10" stroke-width="0.829"/>
        </g>
        <g id="Grupo_250" data-name="Grupo 250" transform="translate(16.983)">
          <path id="Trazado_777" data-name="Trazado 777" d="M465.418,732.22c3.126.413,6.274.747,9.417,1q2.777,7.736,5.889,15.321c-8.115-.479-16.13-1.329-24.17-2.566Q461.14,739.194,465.418,732.22Z" transform="translate(-456.553 -713.754)" fill="none" stroke="#e5661d" stroke-miterlimit="10" stroke-width="1.706"/>
          <path id="Trazado_778" data-name="Trazado 778" d="M465.241,731.342c3.084.408,6.19.738,9.291.986,2.559-4.736,4.959-9.565,7.242-14.45-6.946-.42-13.81-1.147-20.695-2.2C462.305,720.946,463.713,726.165,465.241,731.342Z" transform="translate(-456.025 -715.682)" fill="none" stroke="#e5661d" stroke-miterlimit="10" stroke-width="1.706"/>
          <path id="Trazado_779" data-name="Trazado 779" d="M472.926,733.411c.091-1.134.135-1.7.226-2.836" transform="translate(-454.644 -713.946)" fill="none" stroke="#e5661d" stroke-miterlimit="10" stroke-width="1.706"/>
          <path id="Trazado_780" data-name="Trazado 780" d="M464.58,732.526c.141-1.129.211-1.694.351-2.823" transform="translate(-455.617 -714.048)" fill="none" stroke="#e5661d" stroke-miterlimit="10" stroke-width="1.706"/>
          <path id="Trazado_781" data-name="Trazado 781" d="M467.346,747.536q.757-7.409,1.516-14.82" transform="translate(-455.295 -713.696)" fill="none" stroke="#e5661d" stroke-miterlimit="10" stroke-width="0.829"/>
          <path id="Trazado_782" data-name="Trazado 782" d="M468.963,731.728l1.514-14.8" transform="translate(-455.107 -715.538)" fill="none" stroke="#e5661d" stroke-miterlimit="10" stroke-width="0.829"/>
        </g>
        <path id="Trazado_783" data-name="Trazado 783" d="M489.357,723.194c3.035,3.673,6.146,7.241,9.361,10.745-3.017,3.827-6.113,7.55-9.317,11.213-3.218-3.648-6.33-7.359-9.362-11.173C483.241,730.461,486.338,726.879,489.357,723.194Z" transform="translate(-436.832 -714.807)" fill="none" stroke="#e5661d" stroke-miterlimit="10" stroke-width="1.706"/>
        <path id="Trazado_784" data-name="Trazado 784" d="M524.886,719.369c3.7,2.964,7.462,5.809,11.31,8.566-2.188,4.377-4.476,8.669-6.883,12.922-3.88-2.9-7.667-5.89-11.4-8.994C520.349,727.755,522.666,723.6,524.886,719.369Z" transform="translate(-432.417 -715.252)" fill="none" stroke="#e5661d" stroke-miterlimit="10" stroke-width="1.706"/>
        <path id="Trazado_785" data-name="Trazado 785" d="M452.672,719.285c2.211,4.241,4.519,8.4,6.943,12.51-3.737,3.1-7.531,6.074-11.417,8.967-2.4-4.259-4.675-8.556-6.855-12.938C445.2,725.074,448.963,722.24,452.672,719.285Z" transform="translate(-441.343 -715.262)" fill="none" stroke="#e5661d" stroke-miterlimit="10" stroke-width="1.706"/>
      </g>
      <g id="Grupo_254" data-name="Grupo 254" transform="translate(81.655 158.515)">
        <g id="Grupo_252" data-name="Grupo 252" transform="translate(48.699 20.024)">
          <path id="Trazado_786" data-name="Trazado 786" d="M427.99,723.123c2.972,1.08,5.985,2.084,9.007,3q1.146,8.162,2.652,16.248c-7.846-2.2-15.51-4.754-23.12-7.711Q422.391,729.024,427.99,723.123Z" transform="translate(-416.529 -704.223)" fill="none" stroke="#e5661d" stroke-miterlimit="10" stroke-width="1.706"/>
          <path id="Trazado_787" data-name="Trazado 787" d="M427.7,722.427c2.933,1.065,5.905,2.056,8.888,2.962,3.465-4.086,6.793-8.3,10.017-12.591-6.714-1.894-13.276-4.08-19.794-6.6C426.942,711.613,427.259,717.027,427.7,722.427Z" transform="translate(-415.33 -706.196)" fill="none" stroke="#e5661d" stroke-miterlimit="10" stroke-width="1.706"/>
          <path id="Trazado_788" data-name="Trazado 788" d="M434.86,726.1c.318-1.091.478-1.636.8-2.726" transform="translate(-414.392 -704.194)" fill="none" stroke="#e5661d" stroke-miterlimit="10" stroke-width="1.706"/>
          <path id="Trazado_789" data-name="Trazado 789" d="M426.876,723.433c.367-1.075.55-1.612.917-2.686" transform="translate(-415.323 -704.5)" fill="none" stroke="#e5661d" stroke-miterlimit="10" stroke-width="1.706"/>
          <path id="Trazado_790" data-name="Trazado 790" d="M426.789,738.693q2.246-7.09,4.491-14.177" transform="translate(-415.333 -704.06)" fill="none" stroke="#e5661d" stroke-miterlimit="10" stroke-width="0.829"/>
          <path id="Trazado_791" data-name="Trazado 791" d="M431.579,723.571l4.485-14.16" transform="translate(-414.775 -705.821)" fill="none" stroke="#e5661d" stroke-miterlimit="10" stroke-width="0.829"/>
        </g>
        <g id="Grupo_253" data-name="Grupo 253" transform="translate(7.638 1.09)">
          <path id="Trazado_792" data-name="Trazado 792" d="M393.289,705.87c2.681,1.742,5.422,3.415,8.192,5q-.534,8.264-.7,16.53a238.678,238.678,0,0,1-21.025-12.842Q386.629,710.375,393.289,705.87Z" transform="translate(-379.755 -687.299)" fill="none" stroke="#e5661d" stroke-miterlimit="10" stroke-width="1.706"/>
          <path id="Trazado_793" data-name="Trazado 793" d="M393.159,705.4c2.645,1.72,5.349,3.37,8.082,4.934,4.216-3.227,8.322-6.61,12.34-10.1a210.511,210.511,0,0,1-18-11C394.608,694.6,393.847,699.991,393.159,705.4Z" transform="translate(-378.193 -689.238)" fill="none" stroke="#e5661d" stroke-miterlimit="10" stroke-width="1.706"/>
          <path id="Trazado_794" data-name="Trazado 794" d="M399.213,710.61c.531-1,.8-1.5,1.331-2.495" transform="translate(-377.487 -687.038)" fill="none" stroke="#e5661d" stroke-miterlimit="10" stroke-width="1.706"/>
          <path id="Trazado_795" data-name="Trazado 795" d="M391.952,706.172c.576-.971.864-1.457,1.439-2.428" transform="translate(-378.333 -687.547)" fill="none" stroke="#e5661d" stroke-miterlimit="10" stroke-width="1.706"/>
          <path id="Trazado_796" data-name="Trazado 796" d="M389.016,721.05q3.631-6.445,7.261-12.892" transform="translate(-378.675 -687.033)" fill="none" stroke="#e5661d" stroke-miterlimit="10" stroke-width="0.829"/>
          <path id="Trazado_797" data-name="Trazado 797" d="M396.761,707.3l7.253-12.877" transform="translate(-377.773 -688.634)" fill="none" stroke="#e5661d" stroke-miterlimit="10" stroke-width="0.829"/>
        </g>
        <path id="Trazado_798" data-name="Trazado 798" d="M418.6,707.879c1.315,4.633,2.743,9.2,4.294,13.756-4.273,2.23-8.58,4.33-12.961,6.325-1.495-4.7-2.865-9.411-4.121-14.184C410.131,711.926,414.38,709.968,418.6,707.879Z" transform="translate(-369.079 -685.976)" fill="none" stroke="#e5661d" stroke-miterlimit="10" stroke-width="1.706"/>
        <path id="Trazado_799" data-name="Trazado 799" d="M452.672,719.285c2.211,4.241,4.519,8.4,6.943,12.51-3.737,3.1-7.531,6.074-11.417,8.967-2.4-4.259-4.675-8.556-6.855-12.938C445.2,725.074,448.963,722.24,452.672,719.285Z" transform="translate(-364.938 -684.646)" fill="none" stroke="#e5661d" stroke-miterlimit="10" stroke-width="1.706"/>
        <path id="Trazado_800" data-name="Trazado 800" d="M386.6,688.262c.327,4.874.777,9.71,1.351,14.559-4.629,1.177-9.262,2.212-13.948,3.12-.524-4.98-.91-9.981-1.089-14.987C377.51,690.189,382.053,689.3,386.6,688.262Z" transform="translate(-372.914 -688.262)" fill="none" stroke="#e5661d" stroke-miterlimit="10" stroke-width="1.706"/>
      </g>
      <g id="Grupo_257" data-name="Grupo 257" transform="translate(24.092 84.277)">
        <g id="Grupo_255" data-name="Grupo 255" transform="translate(29.564 47.955)">
          <path id="Trazado_801" data-name="Trazado 801" d="M362.8,680.373c2.249,2.4,4.58,4.745,6.964,7.005q-2.207,8.043-4.054,16.169a233.467,233.467,0,0,1-17.873-17.987C352.871,683.961,357.862,682.261,362.8,680.373Z" transform="translate(-347.839 -662.9)" fill="none" stroke="#e5661d" stroke-miterlimit="10" stroke-width="1.706"/>
          <path id="Trazado_802" data-name="Trazado 802" d="M362.931,680.164c2.22,2.369,4.52,4.683,6.871,6.912,4.772-2.151,9.466-4.49,14.094-6.952a205.993,205.993,0,0,1-15.3-15.4Q365.588,672.383,362.931,680.164Z" transform="translate(-346.08 -664.724)" fill="none" stroke="#e5661d" stroke-miterlimit="10" stroke-width="1.706"/>
          <path id="Trazado_803" data-name="Trazado 803" d="M367.477,686.87l1.807-2.139" transform="translate(-345.55 -662.392)" fill="none" stroke="#e5661d" stroke-miterlimit="10" stroke-width="1.706"/>
          <path id="Trazado_804" data-name="Trazado 804" d="M361.3,680.654l1.9-2.046" transform="translate(-346.27 -663.106)" fill="none" stroke="#e5661d" stroke-miterlimit="10" stroke-width="1.706"/>
          <path id="Trazado_805" data-name="Trazado 805" d="M355.627,694.519l9.71-10.96" transform="translate(-346.931 -662.529)" fill="none" stroke="#e5661d" stroke-miterlimit="10" stroke-width="0.829"/>
          <path id="Trazado_806" data-name="Trazado 806" d="M365.984,682.827l9.7-10.948" transform="translate(-345.724 -663.89)" fill="none" stroke="#e5661d" stroke-miterlimit="10" stroke-width="0.829"/>
        </g>
        <g id="Grupo_256" data-name="Grupo 256" transform="translate(1.525 12.283)">
          <path id="Trazado_807" data-name="Trazado 807" d="M338.337,646.761c1.729,3.043,3.5,6.028,5.333,9q-3.8,7.506-7.259,15.168a239.107,239.107,0,0,1-13.684-23.12C327.94,647.669,333.149,647.294,338.337,646.761Z" transform="translate(-322.727 -631.146)" fill="none" stroke="#e5661d" stroke-miterlimit="10" stroke-width="1.706"/>
          <path id="Trazado_808" data-name="Trazado 808" d="M338.726,646.859c1.707,3,3.451,5.948,5.261,8.883,5.08-.863,10.128-1.944,15.137-3.172a208.633,208.633,0,0,1-11.715-19.794Q342.906,639.72,338.726,646.859Z" transform="translate(-320.862 -632.776)" fill="none" stroke="#e5661d" stroke-miterlimit="10" stroke-width="1.706"/>
          <path id="Trazado_809" data-name="Trazado 809" d="M341.483,655l2.2-1.661" transform="translate(-320.541 -630.379)" fill="none" stroke="#e5661d" stroke-miterlimit="10" stroke-width="1.706"/>
          <path id="Trazado_810" data-name="Trazado 810" d="M336.755,647.009l2.268-1.543" transform="translate(-321.092 -631.297)" fill="none" stroke="#e5661d" stroke-miterlimit="10" stroke-width="1.706"/>
          <path id="Trazado_811" data-name="Trazado 811" d="M328.577,659.235l11.694-8.393" transform="translate(-322.045 -630.67)" fill="none" stroke="#e5661d" stroke-miterlimit="10" stroke-width="0.829"/>
          <path id="Trazado_812" data-name="Trazado 812" d="M341.05,650.282l11.68-8.383" transform="translate(-320.591 -631.713)" fill="none" stroke="#e5661d" stroke-miterlimit="10" stroke-width="0.829"/>
        </g>
        <path id="Trazado_813" data-name="Trazado 813" d="M360.364,661.718c-.719,4.933-1.235,9.9-1.614,14.872-4.757,0-9.476-.154-14.224-.456.495-5.119,1.128-10.229,1.963-15.3C351.117,661.28,355.718,661.574,360.364,661.718Z" transform="translate(-318.661 -617.222)" fill="none" stroke="#e5661d" stroke-miterlimit="10" stroke-width="1.706"/>
        <path id="Trazado_814" data-name="Trazado 814" d="M386.6,688.262c.327,4.874.777,9.71,1.351,14.559-4.629,1.177-9.262,2.212-13.948,3.12-.524-4.98-.91-9.981-1.089-14.987C377.51,690.189,382.053,689.3,386.6,688.262Z" transform="translate(-315.352 -614.025)" fill="none" stroke="#e5661d" stroke-miterlimit="10" stroke-width="1.706"/>
        <path id="Trazado_815" data-name="Trazado 815" d="M339.757,626.828c-1.735,4.844-3.278,9.761-4.69,14.714-4.632-1.386-9.174-2.921-13.706-4.625,1.556-5.1,3.246-10.16,5.127-15.142C330.867,623.622,335.263,625.3,339.757,626.828Z" transform="translate(-321.361 -621.775)" fill="none" stroke="#e5661d" stroke-miterlimit="10" stroke-width="1.706"/>
      </g>
      <g id="Grupo_260" data-name="Grupo 260">
        <g id="Grupo_258" data-name="Grupo 258" transform="translate(7.035 52.409)">
          <path id="Trazado_816" data-name="Trazado 816" d="M321.432,605.254q1.5,5.549,3.287,11.008-5.255,6.644-10.2,13.521a275.428,275.428,0,0,1-8.431-28.266C311.168,602.929,316.266,604.207,321.432,605.254Z" transform="translate(-306.085 -592.268)" fill="none" stroke="#e5661d" stroke-miterlimit="10" stroke-width="1.706"/>
          <path id="Trazado_817" data-name="Trazado 817" d="M322.074,605.312q1.48,5.474,3.242,10.861c5.094.637,10.218,1.034,15.343,1.261a241.1,241.1,0,0,1-7.219-24.2Q327.614,599.138,322.074,605.312Z" transform="translate(-304.221 -593.234)" fill="none" stroke="#e5661d" stroke-miterlimit="10" stroke-width="1.706"/>
          <path id="Trazado_818" data-name="Trazado 818" d="M322.774,614.834l2.477-1.062" transform="translate(-304.14 -590.84)" fill="none" stroke="#e5661d" stroke-miterlimit="10" stroke-width="1.706"/>
          <path id="Trazado_819" data-name="Trazado 819" d="M319.858,605.065l2.52-.915" transform="translate(-304.48 -591.961)" fill="none" stroke="#e5661d" stroke-miterlimit="10" stroke-width="1.706"/>
          <path id="Trazado_820" data-name="Trazado 820" d="M309.521,615.016l13.092-5.174" transform="translate(-305.685 -591.298)" fill="none" stroke="#e5661d" stroke-miterlimit="10" stroke-width="0.829"/>
          <path id="Trazado_821" data-name="Trazado 821" d="M323.485,609.5l13.076-5.167" transform="translate(-304.057 -591.941)" fill="none" stroke="#e5661d" stroke-miterlimit="10" stroke-width="0.829"/>
        </g>
        <g id="Grupo_259" data-name="Grupo 259">
          <path id="Trazado_822" data-name="Trazado 822" d="M313.827,555.851q.268,6.512.838,13.006-6.505,5.465-12.737,11.235c-1.273-11.11-1.962-22.213-2.145-33.4C304.377,549.911,309.038,552.953,313.827,555.851Z" transform="translate(-299.784 -546.25)" fill="none" stroke="#e5661d" stroke-miterlimit="10" stroke-width="1.706"/>
          <path id="Trazado_823" data-name="Trazado 823" d="M314.705,555.733q.265,6.427.827,12.833c4.8,2.276,9.633,4.416,14.58,6.323-1.082-9.517-1.671-19.013-1.836-28.593Q321.367,550.84,314.705,555.733Z" transform="translate(-298.045 -546.296)" fill="none" stroke="#e5661d" stroke-miterlimit="10" stroke-width="1.706"/>
          <path id="Trazado_824" data-name="Trazado 824" d="M313.112,566.579l2.622-.339" transform="translate(-298.23 -543.971)" fill="none" stroke="#e5661d" stroke-miterlimit="10" stroke-width="1.706"/>
          <path id="Trazado_825" data-name="Trazado 825" d="M312.366,555.035,315,554.87" transform="translate(-298.317 -545.297)" fill="none" stroke="#e5661d" stroke-miterlimit="10" stroke-width="1.706"/>
          <path id="Trazado_826" data-name="Trazado 826" d="M300.344,562.089l13.765-1.322" transform="translate(-299.719 -544.609)" fill="none" stroke="#e5661d" stroke-miterlimit="10" stroke-width="0.829"/>
          <path id="Trazado_827" data-name="Trazado 827" d="M315.025,560.679l13.749-1.32" transform="translate(-298.008 -544.773)" fill="none" stroke="#e5661d" stroke-miterlimit="10" stroke-width="0.829"/>
        </g>
        <path id="Trazado_828" data-name="Trazado 828" d="M327.441,585.431c-2.689,4.6-5.2,9.318-7.591,14.095-4.241-2.847-8.375-5.877-12.331-9.134q3.889-7.373,8.116-14.521C319.405,579.264,323.367,582.439,327.441,585.431Z" transform="translate(-298.883 -542.848)" fill="none" stroke="#e5661d" stroke-miterlimit="10" stroke-width="1.706"/>
        <path id="Trazado_829" data-name="Trazado 829" d="M339.757,626.828c-1.735,4.844-3.278,9.761-4.69,14.714-4.632-1.386-9.174-2.921-13.706-4.625,1.556-5.1,3.246-10.16,5.127-15.142C330.867,623.622,335.263,625.3,339.757,626.828Z" transform="translate(-297.269 -537.498)" fill="none" stroke="#e5661d" stroke-miterlimit="10" stroke-width="1.706"/>
      </g>
    </g>
    <g id="Grupo_282" data-name="Grupo 282" transform="translate(306.82 370.06)">
      <g id="Grupo_263" data-name="Grupo 263" transform="translate(0 119.397)">
        <g id="Grupo_262" data-name="Grupo 262" transform="translate(0 14.597)">
          <path id="Trazado_830" data-name="Trazado 830" d="M324.718,503.586q-1.785,5.457-3.287,11.007c-5.168,1.021-10.267,2.327-15.346,3.737a275.194,275.194,0,0,1,8.431-28.265Q319.474,496.95,324.718,503.586Z" transform="translate(-306.085 -490.065)" fill="none" stroke="#e5661d" stroke-miterlimit="10" stroke-width="1.706"/>
          <path id="Trazado_831" data-name="Trazado 831" d="M325.317,503.25q-1.762,5.385-3.244,10.861,5.552,6.184,11.369,12.078a240.712,240.712,0,0,1,7.217-24.2C335.532,502.191,330.413,502.637,325.317,503.25Z" transform="translate(-304.221 -488.675)" fill="none" stroke="#e5661d" stroke-miterlimit="10" stroke-width="1.706"/>
          <path id="Trazado_832" data-name="Trazado 832" d="M319.829,512.032l2.521.913" transform="translate(-304.483 -487.504)" fill="none" stroke="#e5661d" stroke-miterlimit="10" stroke-width="1.706"/>
          <path id="Trazado_833" data-name="Trazado 833" d="M322.74,502.275l2.478,1.06" transform="translate(-304.144 -488.642)" fill="none" stroke="#e5661d" stroke-miterlimit="10" stroke-width="1.706"/>
          <path id="Trazado_834" data-name="Trazado 834" d="M309.521,502.42l13.092,5.174" transform="translate(-305.685 -488.625)" fill="none" stroke="#e5661d" stroke-miterlimit="10" stroke-width="0.829"/>
          <path id="Trazado_835" data-name="Trazado 835" d="M323.485,507.938l13.077,5.169" transform="translate(-304.057 -487.982)" fill="none" stroke="#e5661d" stroke-miterlimit="10" stroke-width="0.829"/>
        </g>
        <path id="Trazado_836" data-name="Trazado 836" d="M327.28,534.858c-4.082,3-7.992,6.256-11.769,9.656q-4.266-7.153-8.174-14.5c3.959-3.263,8.047-6.375,12.293-9.229C322.021,525.562,324.59,530.25,327.28,534.858Z" transform="translate(-305.939 -471.888)" fill="none" stroke="#e5661d" stroke-miterlimit="10" stroke-width="1.706"/>
        <path id="Trazado_837" data-name="Trazado 837" d="M339.938,491.711c-4.5,1.513-8.9,3.174-13.279,5-1.85-4.991-3.569-10.038-5.094-15.146,4.536-1.687,9.082-3.206,13.717-4.577C336.661,481.953,338.234,486.859,339.938,491.711Z" transform="translate(-304.28 -476.992)" fill="none" stroke="#e5661d" stroke-miterlimit="10" stroke-width="1.706"/>
      </g>
      <g id="Grupo_266" data-name="Grupo 266" transform="translate(17.284 47.411)">
        <g id="Grupo_264" data-name="Grupo 264" transform="translate(1.297 40.159)">
          <path id="Trazado_838" data-name="Trazado 838" d="M343.669,463.656c-1.835,2.975-3.6,5.961-5.333,9-5.186-.556-10.4-.883-15.61-1.052a239.124,239.124,0,0,1,13.682-23.12Q339.878,456.161,343.669,463.656Z" transform="translate(-322.727 -448.487)" fill="none" stroke="#e5661d" stroke-miterlimit="10" stroke-width="1.706"/>
          <path id="Trazado_839" data-name="Trazado 839" d="M343.987,463.551c-1.81,2.935-3.555,5.882-5.261,8.883q4.189,7.15,8.684,14.083a208.768,208.768,0,0,1,11.715-19.794C354.119,465.474,349.063,464.438,343.987,463.551Z" transform="translate(-320.862 -446.731)" fill="none" stroke="#e5661d" stroke-miterlimit="10" stroke-width="1.706"/>
          <path id="Trazado_840" data-name="Trazado 840" d="M336.707,470.135l2.268,1.542" transform="translate(-321.097 -445.964)" fill="none" stroke="#e5661d" stroke-miterlimit="10" stroke-width="1.706"/>
          <path id="Trazado_841" data-name="Trazado 841" d="M341.431,462.154l2.2,1.66" transform="translate(-320.547 -446.894)" fill="none" stroke="#e5661d" stroke-miterlimit="10" stroke-width="1.706"/>
          <path id="Trazado_842" data-name="Trazado 842" d="M328.577,458.538l11.694,8.392" transform="translate(-322.045 -447.315)" fill="none" stroke="#e5661d" stroke-miterlimit="10" stroke-width="0.829"/>
          <path id="Trazado_843" data-name="Trazado 843" d="M341.05,467.489l11.68,8.383" transform="translate(-320.591 -446.272)" fill="none" stroke="#e5661d" stroke-miterlimit="10" stroke-width="0.829"/>
        </g>
        <g id="Grupo_265" data-name="Grupo 265" transform="translate(29.336 3.626)">
          <path id="Trazado_844" data-name="Trazado 844" d="M369.766,431.938c-2.384,2.259-4.715,4.6-6.965,7.005-4.93-1.908-9.932-3.589-14.963-5.188a233.626,233.626,0,0,1,17.874-17.988Q367.565,423.908,369.766,431.938Z" transform="translate(-347.838 -415.768)" fill="none" stroke="#e5661d" stroke-miterlimit="10" stroke-width="1.706"/>
          <path id="Trazado_845" data-name="Trazado 845" d="M369.8,432.154c-2.351,2.229-4.652,4.543-6.871,6.912q2.663,7.795,5.662,15.441a206.168,206.168,0,0,1,15.3-15.4C379.276,436.625,374.565,434.325,369.8,432.154Z" transform="translate(-346.079 -413.858)" fill="none" stroke="#e5661d" stroke-miterlimit="10" stroke-width="1.706"/>
          <path id="Trazado_846" data-name="Trazado 846" d="M361.239,436.524l1.9,2.046" transform="translate(-346.276 -413.349)" fill="none" stroke="#e5661d" stroke-miterlimit="10" stroke-width="1.706"/>
          <path id="Trazado_847" data-name="Trazado 847" d="M367.41,430.314l1.808,2.137" transform="translate(-345.557 -414.072)" fill="none" stroke="#e5661d" stroke-miterlimit="10" stroke-width="1.706"/>
          <path id="Trazado_848" data-name="Trazado 848" d="M355.626,423.521l9.711,10.961" transform="translate(-346.93 -414.864)" fill="none" stroke="#e5661d" stroke-miterlimit="10" stroke-width="0.829"/>
          <path id="Trazado_849" data-name="Trazado 849" d="M365.984,435.212l9.7,10.949" transform="translate(-345.723 -413.501)" fill="none" stroke="#e5661d" stroke-miterlimit="10" stroke-width="0.829"/>
        </g>
        <path id="Trazado_850" data-name="Trazado 850" d="M359.893,457.441c-4.645.168-9.246.489-13.871.961-.836-5.075-1.532-10.179-2.025-15.3,4.747-.327,9.465-.506,14.222-.533C358.6,447.542,359.175,452.5,359.893,457.441Z" transform="translate(-318.95 -409.019)" fill="none" stroke="#e5661d" stroke-miterlimit="10" stroke-width="1.706"/>
        <path id="Trazado_851" data-name="Trazado 851" d="M339.938,491.711c-4.5,1.513-8.9,3.174-13.279,5-1.85-4.991-3.569-10.038-5.094-15.146,4.536-1.687,9.082-3.206,13.717-4.577C336.661,481.953,338.234,486.859,339.938,491.711Z" transform="translate(-321.565 -405.006)" fill="none" stroke="#e5661d" stroke-miterlimit="10" stroke-width="1.706"/>
        <path id="Trazado_852" data-name="Trazado 852" d="M386.921,430.23c-4.544-1.047-9.086-1.952-13.68-2.728.212-5,.567-10.006,1.122-14.981,4.685.92,9.314,1.966,13.941,3.155C387.72,420.523,387.259,425.358,386.921,430.23Z" transform="translate(-315.541 -412.521)" fill="none" stroke="#e5661d" stroke-miterlimit="10" stroke-width="1.706"/>
      </g>
      <g id="Grupo_269" data-name="Grupo 269" transform="translate(74.984 7.228)">
        <g id="Grupo_267" data-name="Grupo 267" transform="translate(7.273 16.983)">
          <path id="Trazado_853" data-name="Trazado 853" d="M401.48,408.274c-2.769,1.586-5.51,3.258-8.191,5q-6.673-4.515-13.534-8.689a238.923,238.923,0,0,1,21.025-12.843C400.892,397.263,401.125,402.764,401.48,408.274Z" transform="translate(-379.755 -391.743)" fill="none" stroke="#e5661d" stroke-miterlimit="10" stroke-width="1.706"/>
          <path id="Trazado_854" data-name="Trazado 854" d="M401.242,408.768c-2.733,1.564-5.438,3.216-8.083,4.935.688,5.408,1.468,10.792,2.422,16.157a210.79,210.79,0,0,1,18-11C409.575,415.363,405.446,412.011,401.242,408.768Z" transform="translate(-378.193 -389.759)" fill="none" stroke="#e5661d" stroke-miterlimit="10" stroke-width="1.706"/>
          <path id="Trazado_855" data-name="Trazado 855" d="M391.876,411.027l1.441,2.427" transform="translate(-378.342 -389.495)" fill="none" stroke="#e5661d" stroke-miterlimit="10" stroke-width="1.706"/>
          <path id="Trazado_856" data-name="Trazado 856" d="M399.135,406.592l1.332,2.494" transform="translate(-377.496 -390.012)" fill="none" stroke="#e5661d" stroke-miterlimit="10" stroke-width="1.706"/>
          <path id="Trazado_857" data-name="Trazado 857" d="M389.016,397.192q3.631,6.447,7.261,12.892" transform="translate(-378.675 -391.108)" fill="none" stroke="#e5661d" stroke-miterlimit="10" stroke-width="0.829"/>
          <path id="Trazado_858" data-name="Trazado 858" d="M396.761,410.943q3.626,6.438,7.253,12.877" transform="translate(-377.773 -389.505)" fill="none" stroke="#e5661d" stroke-miterlimit="10" stroke-width="0.829"/>
        </g>
        <g id="Grupo_268" data-name="Grupo 268" transform="translate(48.333)">
          <path id="Trazado_859" data-name="Trazado 859" d="M437,392.781c-3.022.918-6.035,1.923-9.008,3q-5.606-5.912-11.46-11.54c7.61-2.958,15.275-5.51,23.121-7.711Q438.141,384.633,437,392.781Z" transform="translate(-416.528 -376.533)" fill="none" stroke="#e5661d" stroke-miterlimit="10" stroke-width="1.706"/>
          <path id="Trazado_860" data-name="Trazado 860" d="M436.59,393.511c-2.982.907-5.955,1.9-8.887,2.963-.462,5.4-.741,10.814-.891,16.23,6.517-2.521,13.079-4.708,19.794-6.6C443.4,401.8,440.04,397.611,436.59,393.511Z" transform="translate(-415.329 -374.554)" fill="none" stroke="#e5661d" stroke-miterlimit="10" stroke-width="1.706"/>
          <path id="Trazado_861" data-name="Trazado 861" d="M426.792,393.774c.367,1.074.552,1.611.918,2.685" transform="translate(-415.332 -374.523)" fill="none" stroke="#e5661d" stroke-miterlimit="10" stroke-width="1.706"/>
          <path id="Trazado_862" data-name="Trazado 862" d="M434.775,391.111l.8,2.725" transform="translate(-414.401 -374.834)" fill="none" stroke="#e5661d" stroke-miterlimit="10" stroke-width="1.706"/>
          <path id="Trazado_863" data-name="Trazado 863" d="M426.789,379.684q2.246,7.088,4.491,14.176" transform="translate(-415.332 -376.166)" fill="none" stroke="#e5661d" stroke-miterlimit="10" stroke-width="0.829"/>
          <path id="Trazado_864" data-name="Trazado 864" d="M431.579,394.8q2.243,7.081,4.486,14.16" transform="translate(-414.774 -374.403)" fill="none" stroke="#e5661d" stroke-miterlimit="10" stroke-width="0.829"/>
        </g>
        <path id="Trazado_865" data-name="Trazado 865" d="M417.934,411.419c-4.226-2.07-8.483-4.009-12.811-5.84,1.236-4.779,2.587-9.5,4.063-14.2,4.39,1.975,8.7,4.055,12.988,6.267C420.64,402.2,419.23,406.779,417.934,411.419Z" transform="translate(-369.525 -374.803)" fill="none" stroke="#e5661d" stroke-miterlimit="10" stroke-width="1.706"/>
        <path id="Trazado_866" data-name="Trazado 866" d="M386.921,430.23c-4.544-1.047-9.086-1.952-13.68-2.728.212-5,.567-10.006,1.122-14.981,4.685.92,9.314,1.966,13.941,3.155C387.72,420.523,387.259,425.358,386.921,430.23Z" transform="translate(-373.241 -372.338)" fill="none" stroke="#e5661d" stroke-miterlimit="10" stroke-width="1.706"/>
        <path id="Trazado_867" data-name="Trazado 867" d="M453.061,399.77c-3.7-2.963-7.461-5.807-11.31-8.566,2.19-4.377,4.477-8.669,6.884-12.922,3.879,2.9,7.666,5.89,11.4,9C457.6,391.386,455.282,395.535,453.061,399.77Z" transform="translate(-365.255 -376.329)" fill="none" stroke="#e5661d" stroke-miterlimit="10" stroke-width="1.706"/>
      </g>
      <g id="Grupo_272" data-name="Grupo 272" transform="translate(151.48)">
        <g id="Grupo_270" data-name="Grupo 270" transform="translate(16.527)">
          <path id="Trazado_868" data-name="Trazado 868" d="M474.833,385.382c-3.142.252-6.29.586-9.416,1q-4.285-6.987-8.865-13.754c8.039-1.237,16.055-2.087,24.17-2.567Q477.607,377.659,474.833,385.382Z" transform="translate(-456.553 -370.06)" fill="none" stroke="#e5661d" stroke-miterlimit="10" stroke-width="1.706"/>
          <path id="Trazado_869" data-name="Trazado 869" d="M474.532,386.306c-3.1.249-6.207.578-9.291.986-1.546,5.173-2.916,10.4-4.162,15.66,6.884-1.048,13.747-1.776,20.695-2.2C479.508,395.863,477.074,391.051,474.532,386.306Z" transform="translate(-456.025 -368.166)" fill="none" stroke="#e5661d" stroke-miterlimit="10" stroke-width="1.706"/>
          <path id="Trazado_870" data-name="Trazado 870" d="M464.492,384.677c.141,1.129.211,1.693.353,2.821" transform="translate(-455.628 -368.356)" fill="none" stroke="#e5661d" stroke-miterlimit="10" stroke-width="1.706"/>
          <path id="Trazado_871" data-name="Trazado 871" d="M472.837,383.789c.092,1.134.136,1.7.228,2.836" transform="translate(-454.655 -368.46)" fill="none" stroke="#e5661d" stroke-miterlimit="10" stroke-width="1.706"/>
          <path id="Trazado_872" data-name="Trazado 872" d="M467.346,370.907q.757,7.411,1.516,14.82" transform="translate(-455.295 -369.961)" fill="none" stroke="#e5661d" stroke-miterlimit="10" stroke-width="0.829"/>
          <path id="Trazado_873" data-name="Trazado 873" d="M468.963,386.714l1.514,14.8" transform="translate(-455.107 -368.119)" fill="none" stroke="#e5661d" stroke-miterlimit="10" stroke-width="0.829"/>
        </g>
        <g id="Grupo_271" data-name="Grupo 271" transform="translate(61.048)">
          <path id="Trazado_874" data-name="Trazado 874" d="M513.145,386.381c-3.126-.413-6.275-.747-9.417-1q-2.777-7.738-5.89-15.322c8.116.48,16.131,1.33,24.171,2.566Q517.422,379.406,513.145,386.381Z" transform="translate(-496.261 -370.06)" fill="none" stroke="#e5661d" stroke-miterlimit="10" stroke-width="1.706"/>
          <path id="Trazado_875" data-name="Trazado 875" d="M512.959,387.292c-3.084-.407-6.191-.737-9.291-.986-2.559,4.737-4.96,9.566-7.242,14.45,6.946.42,13.81,1.148,20.694,2.2C515.894,397.69,514.487,392.469,512.959,387.292Z" transform="translate(-496.426 -368.166)" fill="none" stroke="#e5661d" stroke-miterlimit="10" stroke-width="1.706"/>
          <path id="Trazado_876" data-name="Trazado 876" d="M503.137,383.782c-.09,1.134-.135,1.7-.226,2.835" transform="translate(-495.67 -368.461)" fill="none" stroke="#e5661d" stroke-miterlimit="10" stroke-width="1.706"/>
          <path id="Trazado_877" data-name="Trazado 877" d="M511.5,384.665l-.352,2.823" transform="translate(-494.71 -368.358)" fill="none" stroke="#e5661d" stroke-miterlimit="10" stroke-width="1.706"/>
          <path id="Trazado_878" data-name="Trazado 878" d="M508.851,370.907q-.759,7.411-1.516,14.82" transform="translate(-495.154 -369.961)" fill="none" stroke="#e5661d" stroke-miterlimit="10" stroke-width="0.829"/>
          <path id="Trazado_879" data-name="Trazado 879" d="M507.234,386.715q-.757,7.4-1.515,14.8" transform="translate(-495.343 -368.119)" fill="none" stroke="#e5661d" stroke-miterlimit="10" stroke-width="0.829"/>
        </g>
        <path id="Trazado_880" data-name="Trazado 880" d="M488.632,396c-3.035-3.674-6.146-7.241-9.361-10.745,3.016-3.828,6.113-7.551,9.316-11.213,3.219,3.648,6.33,7.358,9.362,11.172C494.748,388.728,491.652,392.31,488.632,396Z" transform="translate(-437.378 -369.596)" fill="none" stroke="#e5661d" stroke-miterlimit="10" stroke-width="1.706"/>
        <path id="Trazado_881" data-name="Trazado 881" d="M453.061,399.77c-3.7-2.963-7.461-5.807-11.31-8.566,2.19-4.377,4.477-8.669,6.884-12.922,3.879,2.9,7.666,5.89,11.4,9C457.6,391.386,455.282,395.535,453.061,399.77Z" transform="translate(-441.751 -369.102)" fill="none" stroke="#e5661d" stroke-miterlimit="10" stroke-width="1.706"/>
        <path id="Trazado_882" data-name="Trazado 882" d="M525.274,399.854c-2.211-4.241-4.518-8.4-6.942-12.51,3.737-3.1,7.53-6.075,11.417-8.968,2.4,4.258,4.675,8.556,6.855,12.939C532.748,394.064,528.984,396.9,525.274,399.854Z" transform="translate(-432.824 -369.091)" fill="none" stroke="#e5661d" stroke-miterlimit="10" stroke-width="1.706"/>
      </g>
      <g id="Grupo_275" data-name="Grupo 275" transform="translate(236.988 7.228)">
        <g id="Grupo_273" data-name="Grupo 273" transform="translate(14.702)">
          <path id="Trazado_883" data-name="Trazado 883" d="M550.463,395.784c-2.973-1.08-5.985-2.085-9.008-3q-1.146-8.163-2.652-16.248c7.846,2.2,15.509,4.753,23.12,7.711Q556.062,389.883,550.463,395.784Z" transform="translate(-530.648 -376.533)" fill="none" stroke="#e5661d" stroke-miterlimit="10" stroke-width="1.706"/>
          <path id="Trazado_884" data-name="Trazado 884" d="M550.4,396.475c-2.932-1.065-5.9-2.057-8.887-2.963-3.466,4.087-6.793,8.3-10.017,12.592,6.713,1.894,13.276,4.08,19.795,6.6C551.163,407.287,550.846,401.873,550.4,396.475Z" transform="translate(-531.499 -374.554)" fill="none" stroke="#e5661d" stroke-miterlimit="10" stroke-width="1.706"/>
          <path id="Trazado_885" data-name="Trazado 885" d="M541.262,391.085l-.8,2.726" transform="translate(-530.454 -374.837)" fill="none" stroke="#e5661d" stroke-miterlimit="10" stroke-width="1.706"/>
          <path id="Trazado_886" data-name="Trazado 886" d="M549.259,393.744c-.367,1.074-.55,1.611-.917,2.686" transform="translate(-529.536 -374.527)" fill="none" stroke="#e5661d" stroke-miterlimit="10" stroke-width="1.706"/>
          <path id="Trazado_887" data-name="Trazado 887" d="M549.719,379.684q-2.246,7.088-4.491,14.176" transform="translate(-529.899 -376.166)" fill="none" stroke="#e5661d" stroke-miterlimit="10" stroke-width="0.829"/>
          <path id="Trazado_888" data-name="Trazado 888" d="M544.928,394.8q-2.243,7.081-4.486,14.16" transform="translate(-530.457 -374.403)" fill="none" stroke="#e5661d" stroke-miterlimit="10" stroke-width="0.829"/>
        </g>
        <g id="Grupo_274" data-name="Grupo 274" transform="translate(51.649 16.983)">
          <path id="Trazado_889" data-name="Trazado 889" d="M585.017,413.275c-2.68-1.743-5.421-3.416-8.191-5,.356-5.509.589-11.009.7-16.53a238.366,238.366,0,0,1,21.025,12.843Q591.679,408.768,585.017,413.275Z" transform="translate(-563.163 -391.743)" fill="none" stroke="#e5661d" stroke-miterlimit="10" stroke-width="1.706"/>
          <path id="Trazado_890" data-name="Trazado 890" d="M585.012,413.7c-2.645-1.718-5.349-3.37-8.083-4.934-4.216,3.227-8.322,6.611-12.34,10.1a210.545,210.545,0,0,1,18,11C583.562,424.5,584.325,419.109,585.012,413.7Z" transform="translate(-564.589 -389.759)" fill="none" stroke="#e5661d" stroke-miterlimit="10" stroke-width="1.706"/>
          <path id="Trazado_891" data-name="Trazado 891" d="M576.965,406.547l-1.331,2.494" transform="translate(-563.302 -390.017)" fill="none" stroke="#e5661d" stroke-miterlimit="10" stroke-width="1.706"/>
          <path id="Trazado_892" data-name="Trazado 892" d="M584.237,410.978l-1.44,2.427" transform="translate(-562.467 -389.501)" fill="none" stroke="#e5661d" stroke-miterlimit="10" stroke-width="1.706"/>
          <path id="Trazado_893" data-name="Trazado 893" d="M587.781,397.192l-7.262,12.892" transform="translate(-562.732 -391.108)" fill="none" stroke="#e5661d" stroke-miterlimit="10" stroke-width="0.829"/>
          <path id="Trazado_894" data-name="Trazado 894" d="M580.035,410.943q-3.627,6.438-7.253,12.877" transform="translate(-563.634 -389.505)" fill="none" stroke="#e5661d" stroke-miterlimit="10" stroke-width="0.829"/>
        </g>
        <path id="Trazado_895" data-name="Trazado 895" d="M559.225,411.113c-1.315-4.633-2.744-9.2-4.3-13.755,4.274-2.231,8.581-4.331,12.962-6.325,1.5,4.7,2.865,9.41,4.12,14.184C567.69,407.067,563.443,409.024,559.225,411.113Z" transform="translate(-514.066 -374.843)" fill="none" stroke="#e5661d" stroke-miterlimit="10" stroke-width="1.706"/>
        <path id="Trazado_896" data-name="Trazado 896" d="M525.274,399.854c-2.211-4.241-4.518-8.4-6.942-12.51,3.737-3.1,7.53-6.075,11.417-8.968,2.4,4.258,4.675,8.556,6.855,12.939C532.748,394.064,528.984,396.9,525.274,399.854Z" transform="translate(-518.332 -376.318)" fill="none" stroke="#e5661d" stroke-miterlimit="10" stroke-width="1.706"/>
        <path id="Trazado_897" data-name="Trazado 897" d="M591.009,430.48c-.327-4.874-.777-9.71-1.352-14.559,4.63-1.177,9.263-2.212,13.949-3.12.524,4.981.909,9.981,1.089,14.988C600.1,428.552,595.555,429.445,591.009,430.48Z" transform="translate(-510.018 -372.305)" fill="none" stroke="#e5661d" stroke-miterlimit="10" stroke-width="1.706"/>
      </g>
      <g id="Grupo_278" data-name="Grupo 278" transform="translate(316.628 47.723)">
        <g id="Grupo_276" data-name="Grupo 276" transform="translate(5.219 3.313)">
          <path id="Trazado_898" data-name="Trazado 898" d="M615.526,438.944c-2.25-2.4-4.581-4.747-6.964-7.005q2.206-8.044,4.053-16.17a233.405,233.405,0,0,1,17.874,17.988C625.456,435.355,620.466,437.054,615.526,438.944Z" transform="translate(-592.672 -415.768)" fill="none" stroke="#e5661d" stroke-miterlimit="10" stroke-width="1.706"/>
          <path id="Trazado_899" data-name="Trazado 899" d="M615.3,439.066c-2.22-2.368-4.52-4.683-6.871-6.912-4.772,2.152-9.466,4.49-14.094,6.952a205.786,205.786,0,0,1,15.3,15.4Q612.639,446.848,615.3,439.066Z" transform="translate(-594.331 -413.858)" fill="none" stroke="#e5661d" stroke-miterlimit="10" stroke-width="1.706"/>
          <path id="Trazado_900" data-name="Trazado 900" d="M608.751,430.25l-1.807,2.139" transform="translate(-592.861 -414.08)" fill="none" stroke="#e5661d" stroke-miterlimit="10" stroke-width="1.706"/>
          <path id="Trazado_901" data-name="Trazado 901" d="M614.933,436.456c-.759.818-1.139,1.227-1.9,2.047" transform="translate(-592.151 -413.357)" fill="none" stroke="#e5661d" stroke-miterlimit="10" stroke-width="1.706"/>
          <path id="Trazado_902" data-name="Trazado 902" d="M621.426,423.521q-4.855,5.48-9.71,10.961" transform="translate(-592.305 -414.864)" fill="none" stroke="#e5661d" stroke-miterlimit="10" stroke-width="0.829"/>
          <path id="Trazado_903" data-name="Trazado 903" d="M611.068,435.212l-9.7,10.949" transform="translate(-593.51 -413.501)" fill="none" stroke="#e5661d" stroke-miterlimit="10" stroke-width="0.829"/>
        </g>
        <g id="Grupo_277" data-name="Grupo 277" transform="translate(32.813 39.845)">
          <path id="Trazado_904" data-name="Trazado 904" d="M639.888,472.659c-1.73-3.042-3.5-6.028-5.332-9q3.8-7.505,7.259-15.169A239.276,239.276,0,0,1,655.5,471.607C650.285,471.751,645.077,472.126,639.888,472.659Z" transform="translate(-617.236 -448.486)" fill="none" stroke="#e5661d" stroke-miterlimit="10" stroke-width="1.706"/>
          <path id="Trazado_905" data-name="Trazado 905" d="M639.443,472.434c-1.707-3-3.452-5.948-5.262-8.883-5.079.863-10.127,1.945-15.136,3.172a209.225,209.225,0,0,1,11.715,19.794Q635.263,479.574,639.443,472.434Z" transform="translate(-619.044 -446.73)" fill="none" stroke="#e5661d" stroke-miterlimit="10" stroke-width="1.706"/>
          <path id="Trazado_906" data-name="Trazado 906" d="M634.785,462.071l-2.2,1.663" transform="translate(-617.465 -446.902)" fill="none" stroke="#e5661d" stroke-miterlimit="10" stroke-width="1.706"/>
          <path id="Trazado_907" data-name="Trazado 907" d="M639.52,470.049l-2.267,1.542" transform="translate(-616.921 -445.972)" fill="none" stroke="#e5661d" stroke-miterlimit="10" stroke-width="1.706"/>
          <path id="Trazado_908" data-name="Trazado 908" d="M648.683,458.538l-11.694,8.392" transform="translate(-616.952 -447.314)" fill="none" stroke="#e5661d" stroke-miterlimit="10" stroke-width="0.829"/>
          <path id="Trazado_909" data-name="Trazado 909" d="M636.208,467.489l-11.68,8.383" transform="translate(-618.405 -446.271)" fill="none" stroke="#e5661d" stroke-miterlimit="10" stroke-width="0.829"/>
        </g>
        <path id="Trazado_910" data-name="Trazado 910" d="M617.328,456.824c.718-4.933,1.235-9.9,1.613-14.873,4.757,0,9.476.155,14.224.457-.494,5.118-1.127,10.228-1.962,15.3C626.575,457.261,621.973,456.968,617.328,456.824Z" transform="translate(-586.432 -409.403)" fill="none" stroke="#e5661d" stroke-miterlimit="10" stroke-width="1.706"/>
        <path id="Trazado_911" data-name="Trazado 911" d="M591.009,430.48c-.327-4.874-.777-9.71-1.352-14.559,4.63-1.177,9.263-2.212,13.949-3.12.524,4.981.909,9.981,1.089,14.988C600.1,428.552,595.555,429.445,591.009,430.48Z" transform="translate(-589.657 -412.801)" fill="none" stroke="#e5661d" stroke-miterlimit="10" stroke-width="1.706"/>
        <path id="Trazado_912" data-name="Trazado 912" d="M638.2,492.132c1.734-4.843,3.278-9.76,4.688-14.714,4.632,1.387,9.175,2.922,13.706,4.625-1.555,5.1-3.246,10.16-5.126,15.142C647.091,495.338,642.7,493.662,638.2,492.132Z" transform="translate(-583.998 -405.269)" fill="none" stroke="#e5661d" stroke-miterlimit="10" stroke-width="1.706"/>
      </g>
      <g id="Grupo_281" data-name="Grupo 281" transform="translate(369.847 119.873)">
        <g id="Grupo_279" data-name="Grupo 279" transform="translate(0 14.121)">
          <path id="Trazado_913" data-name="Trazado 913" d="M656.552,514.593q-1.5-5.547-3.287-11.007,5.256-6.646,10.2-13.521a275.094,275.094,0,0,1,8.43,28.265C666.816,516.919,661.719,515.64,656.552,514.593Z" transform="translate(-635.461 -490.065)" fill="none" stroke="#e5661d" stroke-miterlimit="10" stroke-width="1.706"/>
          <path id="Trazado_914" data-name="Trazado 914" d="M655.906,514.11q-1.482-5.473-3.244-10.86c-5.092-.639-10.217-1.035-15.342-1.261a240.616,240.616,0,0,1,7.217,24.2Q650.366,520.284,655.906,514.11Z" transform="translate(-637.32 -488.675)" fill="none" stroke="#e5661d" stroke-miterlimit="10" stroke-width="1.706"/>
          <path id="Trazado_915" data-name="Trazado 915" d="M653.524,502.174l-2.477,1.061" transform="translate(-635.72 -488.654)" fill="none" stroke="#e5661d" stroke-miterlimit="10" stroke-width="1.706"/>
          <path id="Trazado_916" data-name="Trazado 916" d="M656.444,511.927l-2.521.914" transform="translate(-635.385 -487.517)" fill="none" stroke="#e5661d" stroke-miterlimit="10" stroke-width="1.706"/>
          <path id="Trazado_917" data-name="Trazado 917" d="M667.884,502.42l-13.092,5.174" transform="translate(-635.283 -488.625)" fill="none" stroke="#e5661d" stroke-miterlimit="10" stroke-width="0.829"/>
          <path id="Trazado_918" data-name="Trazado 918" d="M653.919,507.939l-13.078,5.168" transform="translate(-636.909 -487.982)" fill="none" stroke="#e5661d" stroke-miterlimit="10" stroke-width="0.829"/>
        </g>
        <g id="Grupo_280" data-name="Grupo 280" transform="translate(11.406 70.203)">
          <path id="Trazado_919" data-name="Trazado 919" d="M663.766,564.532q-.27-6.512-.84-13.006,6.505-5.463,12.738-11.234c1.273,11.11,1.962,22.212,2.145,33.4C673.217,570.473,668.554,567.429,663.766,564.532Z" transform="translate(-645.741 -540.292)" fill="none" stroke="#e5661d" stroke-miterlimit="10" stroke-width="1.706"/>
          <path id="Trazado_920" data-name="Trazado 920" d="M662.943,564.148q-.265-6.425-.827-12.833c-4.8-2.276-9.633-4.415-14.58-6.323,1.082,9.516,1.672,19.013,1.836,28.593Q656.281,569.041,662.943,564.148Z" transform="translate(-647.535 -539.744)" fill="none" stroke="#e5661d" stroke-miterlimit="10" stroke-width="1.706"/>
          <path id="Trazado_921" data-name="Trazado 921" d="M663.2,550.353l-2.622.339" transform="translate(-646.015 -539.119)" fill="none" stroke="#e5661d" stroke-miterlimit="10" stroke-width="1.706"/>
          <path id="Trazado_922" data-name="Trazado 922" d="M663.948,561.878l-2.633.166" transform="translate(-645.929 -537.776)" fill="none" stroke="#e5661d" stroke-miterlimit="10" stroke-width="1.706"/>
          <path id="Trazado_923" data-name="Trazado 923" d="M677.132,554.945l-13.765,1.322" transform="translate(-645.69 -538.584)" fill="none" stroke="#e5661d" stroke-miterlimit="10" stroke-width="0.829"/>
          <path id="Trazado_924" data-name="Trazado 924" d="M662.448,556.355l-13.748,1.32" transform="translate(-647.399 -538.42)" fill="none" stroke="#e5661d" stroke-miterlimit="10" stroke-width="0.829"/>
        </g>
        <path id="Trazado_925" data-name="Trazado 925" d="M650.678,533.935c2.689-4.6,5.2-9.318,7.592-14.093,4.24,2.846,8.374,5.875,12.33,9.132q-3.887,7.373-8.115,14.522C658.714,540.1,654.753,536.927,650.678,533.935Z" transform="translate(-635.763 -472.473)" fill="none" stroke="#e5661d" stroke-miterlimit="10" stroke-width="1.706"/>
        <path id="Trazado_926" data-name="Trazado 926" d="M638.2,492.132c1.734-4.843,3.278-9.76,4.688-14.714,4.632,1.387,9.175,2.922,13.706,4.625-1.555,5.1-3.246,10.16-5.126,15.142C647.091,495.338,642.7,493.662,638.2,492.132Z" transform="translate(-637.217 -477.418)" fill="none" stroke="#e5661d" stroke-miterlimit="10" stroke-width="1.706"/>
      </g>
    </g>
  </g>
</svg>
