<svg xmlns="http://www.w3.org/2000/svg" width="469.556" height="469.556" viewBox="0 0 469.556 469.556">
  <g id="Grupo_1726" data-name="Grupo 1726" transform="translate(-164.247 -234.675)">
    <g id="Grupo_348" data-name="Grupo 348" transform="translate(176.815 246.704)">
      <g id="Grupo_339" data-name="Grupo 339" transform="translate(0.442)">
        <g id="Grupo_332" data-name="Grupo 332" transform="translate(0 119.302)">
          <path id="Trazado_1429" data-name="Trazado 1429" d="M184.828,474.063c-1.439,8.631-2.484,17.272-3.18,26q4.042,7.245,8.4,14.286c3.516-4.9,7.163-9.679,11.115-14.232.683-7.783,1.663-15.475,2.984-23.174A286.825,286.825,0,0,1,191.774,447.5a252.977,252.977,0,0,1,9.682-26.368c4-1.987,8.031-3.847,12.14-5.6,1.145,5.694,2.455,11.32,3.944,16.932-2.631,6.366-4.966,12.792-7.054,19.361" transform="translate(-181.648 -415.536)" fill="none" stroke="#e5661d" stroke-linecap="round" stroke-linejoin="round" stroke-width="3"/>
          <path id="Trazado_1430" data-name="Trazado 1430" d="M195.449,518.863c.661-6.593,1.524-13.131,2.611-19.666" transform="translate(-185.459 -438.639)" fill="none" stroke="#e5661d" stroke-linecap="round" stroke-linejoin="round" stroke-width="3"/>
          <path id="Trazado_1431" data-name="Trazado 1431" d="M209.475,453.3c2.126-6.655,4.5-13.171,7.157-19.627" transform="translate(-189.332 -420.545)" fill="none" stroke="#e5661d" stroke-linecap="round" stroke-linejoin="round" stroke-width="3"/>
        </g>
        <g id="Grupo_333" data-name="Grupo 333" transform="translate(32.088 47.9)">
          <path id="Trazado_1432" data-name="Trazado 1432" d="M245,432.82" transform="translate(-231.23 -348.907)" fill="none" stroke="#e5661d" stroke-linejoin="round" stroke-width="3"/>
          <path id="Trazado_1433" data-name="Trazado 1433" d="M238.427,351.011c-4.434,5.807-8.56,11.761-12.45,17.956.583,4.881,1.355,9.741,2.258,14.572,4.983-1.828,9.989-3.457,15.091-4.906,3.527-5.5,7.254-10.8,11.242-15.975a234.152,234.152,0,0,1,.062-29,235.512,235.512,0,0,1,18.78-16.769c4.368.229,8.709.56,13.06,1-1.186,5.267-2.2,10.538-3.036,15.874-4.785,3.882-9.32,8.026-13.738,12.327" transform="translate(-225.977 -316.894)" fill="none" stroke="#e5661d" stroke-linecap="round" stroke-linejoin="round" stroke-width="3"/>
          <path id="Trazado_1434" data-name="Trazado 1434" d="M240.446,386.08c3.06-4.633,6.252-9.129,9.615-13.54" transform="translate(-229.973 -332.261)" fill="none" stroke="#e5661d" stroke-linecap="round" stroke-linejoin="round" stroke-width="3"/>
          <path id="Trazado_1435" data-name="Trazado 1435" d="M277.507,342.808c4.491-4.359,9.117-8.507,13.932-12.5" transform="translate(-240.207 -320.6)" fill="none" stroke="#e5661d" stroke-linecap="round" stroke-linejoin="round" stroke-width="3"/>
        </g>
        <g id="Grupo_334" data-name="Grupo 334" transform="translate(79.021 7.307)">
          <path id="Trazado_1436" data-name="Trazado 1436" d="M290.815,303.285" transform="translate(-290.815 -272.544)" fill="none" stroke="#e5661d" stroke-linejoin="round" stroke-width="3"/>
          <path id="Trazado_1437" data-name="Trazado 1437" d="M337.107,276.239c-6.248,3.072-12.334,6.363-18.328,9.915-1.344,4.432-2.57,8.874-3.688,13.37,5.2.746,10.348,1.647,15.493,2.718,5.388-3.142,10.856-6.055,16.463-8.776a226.72,226.72,0,0,1,11.661-25.482c7.848-2.76,15.766-5.139,23.829-7.168q5.82,2.983,11.491,6.212c-3.211,4.27-6.271,8.614-9.205,13.084-5.884,1.514-11.721,3.265-17.454,5.291" transform="translate(-297.519 -260.816)" fill="none" stroke="#e5661d" stroke-linecap="round" stroke-linejoin="round" stroke-width="3"/>
          <path id="Trazado_1438" data-name="Trazado 1438" d="M332.257,301.583c4.613-2.616,9.278-5.08,14.035-7.416" transform="translate(-302.259 -270.026)" fill="none" stroke="#e5661d" stroke-linecap="round" stroke-linejoin="round" stroke-width="3"/>
          <path id="Trazado_1439" data-name="Trazado 1439" d="M383.155,280.406c5.848-1.991,11.731-3.771,17.7-5.362" transform="translate(-316.314 -264.745)" fill="none" stroke="#e5661d" stroke-linecap="round" stroke-linejoin="round" stroke-width="3"/>
        </g>
        <g id="Grupo_335" data-name="Grupo 335" transform="translate(179.778)">
          <path id="Trazado_1440" data-name="Trazado 1440" d="M544.059,293.194" transform="translate(-461.504 -262.45)" fill="none" stroke="#e5661d" stroke-linejoin="round" stroke-width="3"/>
          <path id="Trazado_1441" data-name="Trazado 1441" d="M459.6,250.721c-6.969.4-13.884,1.042-20.809,1.927-3.018,3.5-5.938,7.054-8.783,10.7,4.437,2.741,8.822,5.559,13.06,8.607,6.2-.754,12.4-1.293,18.643-1.624a239.949,239.949,0,0,1,21.076-18.945c8.324.428,16.578,1.214,24.835,2.368,2.757,3.28,5.463,6.592,8.041,10.02-4.7,2.727-9.286,5.581-13.808,8.6-6.04-.813-12.12-1.393-18.206-1.7" transform="translate(-430.01 -250.721)" fill="none" stroke="#e5661d" stroke-linecap="round" stroke-linejoin="round" stroke-width="3"/>
          <path id="Trazado_1442" data-name="Trazado 1442" d="M449.7,265.449c5.284-.584,10.562-1.026,15.868-1.33" transform="translate(-435.448 -254.421)" fill="none" stroke="#e5661d" stroke-linecap="round" stroke-linejoin="round" stroke-width="3"/>
          <path id="Trazado_1443" data-name="Trazado 1443" d="M505.319,265.374c6.18.377,12.317.95,18.461,1.725" transform="translate(-450.806 -254.767)" fill="none" stroke="#e5661d" stroke-linecap="round" stroke-linejoin="round" stroke-width="3"/>
        </g>
        <g id="Grupo_336" data-name="Grupo 336" transform="translate(270.864 7.571)">
          <path id="Trazado_1444" data-name="Trazado 1444" d="M588.243,267.345c-6.575-2.3-13.19-4.348-19.91-6.165-4.219,2.068-8.37,4.225-12.487,6.494,2.969,4.177,5.81,8.455,8.442,12.859,6.006,1.664,11.918,3.53,17.794,5.621a235.932,235.932,0,0,1,27.168-9.23c7.467,3.658,14.7,7.65,21.779,12.03,1.171,4.141,2.24,8.291,3.214,12.484-5.429.592-10.8,1.356-16.185,2.306-5.188-3.17-10.523-6.115-15.983-8.778" transform="translate(-555.846 -261.18)" fill="none" stroke="#e5661d" stroke-linecap="round" stroke-linejoin="round" stroke-width="3"/>
          <path id="Trazado_1445" data-name="Trazado 1445" d="M574.848,275.6c5.092,1.473,10.121,3.08,15.124,4.834" transform="translate(-561.093 -265.161)" fill="none" stroke="#e5661d" stroke-linecap="round" stroke-linejoin="round" stroke-width="3"/>
          <path id="Trazado_1446" data-name="Trazado 1446" d="M626.148,296.477c5.516,2.776,10.9,5.732,16.2,8.9" transform="translate(-575.26 -270.927)" fill="none" stroke="#e5661d" stroke-linecap="round" stroke-linejoin="round" stroke-width="3"/>
        </g>
        <g id="Grupo_337" data-name="Grupo 337" transform="translate(335.496 49.822)">
          <path id="Trazado_1447" data-name="Trazado 1447" d="M645.135,334.115" transform="translate(-645.135 -323.572)" fill="none" stroke="#e5661d" stroke-linejoin="round" stroke-width="3"/>
          <path id="Trazado_1448" data-name="Trazado 1448" d="M699.466,333.756c-5.018-4.971-10.2-9.684-15.614-14.206-4.709.151-9.387.423-14.082.822.968,5.1,1.839,10.214,2.427,15.375,4.821,4.088,9.435,8.341,13.9,12.82a204.235,204.235,0,0,1,28.484,3.506,232.686,232.686,0,0,1,14.678,21.63c-.675,4.537-1.448,9.041-2.324,13.542-5.118-2.1-10.268-3.989-15.533-5.681-3.386-5.44-6.966-10.687-10.8-15.813" transform="translate(-651.938 -319.55)" fill="none" stroke="#e5661d" stroke-linecap="round" stroke-linejoin="round" stroke-width="3"/>
          <path id="Trazado_1449" data-name="Trazado 1449" d="M684.892,333.619c4.055,3.531,7.973,7.17,11.793,10.959" transform="translate(-656.114 -323.435)" fill="none" stroke="#e5661d" stroke-linecap="round" stroke-linejoin="round" stroke-width="3"/>
          <path id="Trazado_1450" data-name="Trazado 1450" d="M722.92,375.628c3.876,5.2,7.506,10.526,10.944,16.036" transform="translate(-666.615 -335.036)" fill="none" stroke="#e5661d" stroke-linecap="round" stroke-linejoin="round" stroke-width="3"/>
        </g>
        <g id="Grupo_338" data-name="Grupo 338" transform="translate(408.683 104.996)">
          <path id="Trazado_1451" data-name="Trazado 1451" d="M765.614,395.772" transform="translate(-751.592 -395.772)" fill="none" stroke="#e5661d" stroke-linejoin="round" stroke-width="3"/>
          <path id="Trazado_1452" data-name="Trazado 1452" d="M771.427,448.207c-2.317-7.556-4.938-14.935-7.925-22.246-4.225-2.309-8.567-4.4-12.97-6.34-1.276,5.447-2.7,10.828-4.29,16.19,2.62,6.585,4.93,13.227,6.977,20.018A188.657,188.657,0,0,1,777,475.146a302.244,302.244,0,0,1,3.529,31.23c-2.561,4.473-5.22,8.891-8.017,13.218-3.5-5.295-7.141-10.482-11.147-15.4-.582-7.668-1.449-15.253-2.642-22.848" transform="translate(-746.242 -402.358)" fill="none" stroke="#e5661d" stroke-linecap="round" stroke-linejoin="round" stroke-width="3"/>
          <path id="Trazado_1453" data-name="Trazado 1453" d="M760.275,439.924c2.215,5.6,4.162,11.311,5.878,17.084" transform="translate(-750.117 -407.964)" fill="none" stroke="#e5661d" stroke-linecap="round" stroke-linejoin="round" stroke-width="3"/>
          <path id="Trazado_1454" data-name="Trazado 1454" d="M776.16,502.869c1.2,7.7,2.077,15.4,2.675,23.17" transform="translate(-754.504 -425.347)" fill="none" stroke="#e5661d" stroke-linecap="round" stroke-linejoin="round" stroke-width="3"/>
        </g>
      </g>
      <g id="Grupo_347" data-name="Grupo 347" transform="translate(0 222.952)">
        <g id="Grupo_340" data-name="Grupo 340">
          <path id="Trazado_1455" data-name="Trazado 1455" d="M183.677,598.891c-1.259-8.659-2.124-17.321-2.639-26.058q4.192-7.157,8.692-14.1c3.413,4.976,6.961,9.83,10.817,14.466.522,7.8,1.342,15.507,2.5,23.233a286.909,286.909,0,0,0-12.979,29.166,253.1,253.1,0,0,0,9.132,26.568c3.96,2.072,7.949,4.017,12.02,5.855,1.264-5.668,2.689-11.265,4.295-16.843-2.5-6.421-4.7-12.9-6.65-19.508" transform="translate(-181.038 -558.729)" fill="none" stroke="#e5661d" stroke-linecap="round" stroke-linejoin="round" stroke-width="3"/>
          <path id="Trazado_1456" data-name="Trazado 1456" d="M194.713,584.445c.524,6.606,1.251,13.16,2.2,19.717" transform="translate(-184.814 -565.83)" fill="none" stroke="#e5661d" stroke-linecap="round" stroke-linejoin="round" stroke-width="3"/>
          <path id="Trazado_1457" data-name="Trazado 1457" d="M207.375,650.3c1.987,6.7,4.222,13.264,6.748,19.776" transform="translate(-188.311 -584.017)" fill="none" stroke="#e5661d" stroke-linecap="round" stroke-linejoin="round" stroke-width="3"/>
        </g>
        <g id="Grupo_341" data-name="Grupo 341" transform="translate(29.926 87.076)">
          <path id="Trazado_1458" data-name="Trazado 1458" d="M242.31,679.024" transform="translate(-227.884 -679.024)" fill="none" stroke="#e5661d" stroke-linejoin="round" stroke-width="3"/>
          <path id="Trazado_1459" data-name="Trazado 1459" d="M234.454,735.274c-4.312-5.9-8.314-11.941-12.074-18.216.683-4.868,1.557-9.71,2.56-14.521,4.944,1.933,9.915,3.669,14.987,5.226,3.412,5.577,7.028,10.956,10.908,16.211a234.122,234.122,0,0,0-.54,28.99,235.664,235.664,0,0,0,18.428,17.165c4.371-.135,8.719-.374,13.079-.721-1.077-5.291-1.978-10.583-2.706-15.936-4.7-3.983-9.152-8.222-13.479-12.616" transform="translate(-222.38 -685.517)" fill="none" stroke="#e5661d" stroke-linecap="round" stroke-linejoin="round" stroke-width="3"/>
          <path id="Trazado_1460" data-name="Trazado 1460" d="M236.9,720.492c2.963,4.7,6.061,9.26,9.332,13.742" transform="translate(-226.388 -690.475)" fill="none" stroke="#e5661d" stroke-linecap="round" stroke-linejoin="round" stroke-width="3"/>
          <path id="Trazado_1461" data-name="Trazado 1461" d="M273.041,764.942c4.4,4.454,8.938,8.7,13.67,12.789" transform="translate(-236.37 -702.75)" fill="none" stroke="#e5661d" stroke-linecap="round" stroke-linejoin="round" stroke-width="3"/>
        </g>
        <g id="Grupo_342" data-name="Grupo 342" transform="translate(75.562 171.546)">
          <path id="Trazado_1462" data-name="Trazado 1462" d="M285.427,809.506" transform="translate(-285.427 -799.526)" fill="none" stroke="#e5661d" stroke-linejoin="round" stroke-width="3"/>
          <path id="Trazado_1463" data-name="Trazado 1463" d="M331.454,821.856c-6.183-3.2-12.2-6.624-18.118-10.3-1.251-4.46-2.386-8.927-3.41-13.445,5.215-.635,10.381-1.427,15.546-2.389,5.321,3.257,10.727,6.286,16.277,9.126a226.936,226.936,0,0,0,11.129,25.724c7.789,2.927,15.656,5.473,23.675,7.674q5.881-2.858,11.617-5.967c-3.122-4.336-6.091-8.745-8.931-13.277-5.852-1.639-11.65-3.514-17.341-5.662" transform="translate(-292.192 -795.719)" fill="none" stroke="#e5661d" stroke-linecap="round" stroke-linejoin="round" stroke-width="3"/>
          <path id="Trazado_1464" data-name="Trazado 1464" d="M326.883,809.261c4.558,2.713,9.171,5.276,13.878,7.713" transform="translate(-296.875 -799.459)" fill="none" stroke="#e5661d" stroke-linecap="round" stroke-linejoin="round" stroke-width="3"/>
          <path id="Trazado_1465" data-name="Trazado 1465" d="M377.314,832.3c5.806,2.115,11.65,4.02,17.583,5.738" transform="translate(-310.801 -805.821)" fill="none" stroke="#e5661d" stroke-linecap="round" stroke-linejoin="round" stroke-width="3"/>
        </g>
        <g id="Grupo_343" data-name="Grupo 343" transform="translate(175.769 192.729)">
          <path id="Trazado_1466" data-name="Trazado 1466" d="M538.406,824.984" transform="translate(-455.493 -824.984)" fill="none" stroke="#e5661d" stroke-linejoin="round" stroke-width="3"/>
          <path id="Trazado_1467" data-name="Trazado 1467" d="M453.186,857.657c-6.959-.551-13.86-1.338-20.765-2.369-2.945-3.563-5.79-7.178-8.559-10.884,4.493-2.646,8.935-5.37,13.236-8.327,6.188.886,12.371,1.557,18.6,2.021a240.384,240.384,0,0,0,20.678,19.39c8.332-.251,16.6-.861,24.879-1.839,2.825-3.221,5.6-6.475,8.248-9.847-4.638-2.827-9.168-5.778-13.626-8.888-6.056.685-12.147,1.136-18.238,1.31" transform="translate(-423.862 -828.047)" fill="none" stroke="#e5661d" stroke-linecap="round" stroke-linejoin="round" stroke-width="3"/>
          <path id="Trazado_1468" data-name="Trazado 1468" d="M443.506,850.207c5.271.7,10.538,1.251,15.837,1.668" transform="translate(-429.287 -831.949)" fill="none" stroke="#e5661d" stroke-linecap="round" stroke-linejoin="round" stroke-width="3"/>
          <path id="Trazado_1469" data-name="Trazado 1469" d="M499.1,851.465c6.186-.245,12.334-.687,18.492-1.331" transform="translate(-444.638 -831.929)" fill="none" stroke="#e5661d" stroke-linecap="round" stroke-linejoin="round" stroke-width="3"/>
        </g>
        <g id="Grupo_344" data-name="Grupo 344" transform="translate(266.866 174.848)">
          <path id="Trazado_1470" data-name="Trazado 1470" d="M582.094,836.039c-6.621,2.161-13.277,4.066-20.033,5.74-4.175-2.158-8.28-4.4-12.349-6.759,3.055-4.114,5.985-8.329,8.707-12.677,6.039-1.536,11.989-3.276,17.907-5.241a236.067,236.067,0,0,0,26.971,9.806c7.541-3.5,14.857-7.335,22.023-11.564,1.257-4.116,2.411-8.242,3.472-12.413-5.415-.707-10.774-1.585-16.133-2.65-5.253,3.059-10.649,5.89-16.162,8.436" transform="translate(-549.712 -800.281)" fill="none" stroke="#e5661d" stroke-linecap="round" stroke-linejoin="round" stroke-width="3"/>
          <path id="Trazado_1471" data-name="Trazado 1471" d="M568.823,841.51c5.121-1.364,10.182-2.864,15.221-4.511" transform="translate(-554.99 -810.42)" fill="none" stroke="#e5661d" stroke-linecap="round" stroke-linejoin="round" stroke-width="3"/>
          <path id="Trazado_1472" data-name="Trazado 1472" d="M620.545,820.184c5.572-2.658,11.016-5.5,16.386-8.557" transform="translate(-569.272 -803.414)" fill="none" stroke="#e5661d" stroke-linecap="round" stroke-linejoin="round" stroke-width="3"/>
        </g>
        <g id="Grupo_345" data-name="Grupo 345" transform="translate(332.445 109.128)">
          <path id="Trazado_1473" data-name="Trazado 1473" d="M640.309,786.223" transform="translate(-640.309 -730.679)" fill="none" stroke="#e5661d" stroke-linejoin="round" stroke-width="3"/>
          <path id="Trazado_1474" data-name="Trazado 1474" d="M694.627,762.383c-5.12,4.863-10.4,9.464-15.9,13.87-4.705-.252-9.377-.623-14.062-1.121,1.075-5.079,2.051-10.173,2.746-15.321,4.9-3.983,9.606-8.138,14.167-12.521a204.136,204.136,0,0,0,28.55-2.9,232.778,232.778,0,0,0,15.124-21.312c-.581-4.552-1.26-9.07-2.043-13.59-5.16,1.993-10.348,3.77-15.648,5.349-3.5,5.367-7.186,10.536-11.122,15.579" transform="translate(-647.033 -709.489)" fill="none" stroke="#e5661d" stroke-linecap="round" stroke-linejoin="round" stroke-width="3"/>
          <path id="Trazado_1475" data-name="Trazado 1475" d="M680.047,783.482c4.127-3.444,8.12-7,12.017-10.706" transform="translate(-651.283 -726.966)" fill="none" stroke="#e5661d" stroke-linecap="round" stroke-linejoin="round" stroke-width="3"/>
          <path id="Trazado_1476" data-name="Trazado 1476" d="M718.939,740.347c3.983-5.119,7.723-10.363,11.274-15.8" transform="translate(-662.023 -713.647)" fill="none" stroke="#e5661d" stroke-linecap="round" stroke-linejoin="round" stroke-width="3"/>
        </g>
        <g id="Grupo_346" data-name="Grupo 346" transform="translate(407.235 4.959)">
          <path id="Trazado_1477" data-name="Trazado 1477" d="M762.041,727.145" transform="translate(-748.716 -610.196)" fill="none" stroke="#e5661d" stroke-linejoin="round" stroke-width="3"/>
          <path id="Trazado_1478" data-name="Trazado 1478" d="M769.07,636.927c-2.473,7.5-5.247,14.826-8.385,22.072-4.272,2.219-8.656,4.222-13.1,6.063-1.163-5.473-2.476-10.883-3.954-16.277,2.757-6.528,5.2-13.119,7.392-19.865A188.455,188.455,0,0,0,775.2,610.113a301.992,301.992,0,0,0,4.177-31.147c-2.468-4.526-5.035-9-7.741-13.385-3.61,5.22-7.358,10.328-11.465,15.161-.741,7.654-1.766,15.219-3.116,22.787" transform="translate(-743.632 -565.58)" fill="none" stroke="#e5661d" stroke-linecap="round" stroke-linejoin="round" stroke-width="3"/>
          <path id="Trazado_1479" data-name="Trazado 1479" d="M757.62,676.421c2.331-5.549,4.4-11.22,6.232-16.956" transform="translate(-747.495 -591.506)" fill="none" stroke="#e5661d" stroke-linecap="round" stroke-linejoin="round" stroke-width="3"/>
          <path id="Trazado_1480" data-name="Trazado 1480" d="M774.808,611.48c1.358-7.676,2.4-15.349,3.155-23.108" transform="translate(-752.241 -571.874)" fill="none" stroke="#e5661d" stroke-linecap="round" stroke-linejoin="round" stroke-width="3"/>
        </g>
      </g>
    </g>
    <circle id="Elipse_7" data-name="Elipse 7" cx="195.922" cy="195.922" r="195.922" transform="translate(203.102 273.531)" fill="none" stroke="#e5661d" stroke-linejoin="round" stroke-width="3"/>
    <circle id="Elipse_8" data-name="Elipse 8" cx="233.278" cy="233.278" r="233.278" transform="translate(165.747 236.175)" fill="none" stroke="#e5661d" stroke-linejoin="round" stroke-width="3"/>
  </g>
</svg>
