<svg xmlns="http://www.w3.org/2000/svg" width="300.11" height="645.618" viewBox="0 0 300.11 645.618">
  <g id="Grupo_133" data-name="Grupo 133" transform="translate(294.637 640.146) rotate(180)">
    <path id="Trazado_146" data-name="Trazado 146" d="M216.941,387.729c-1.65.066-3.3.14-4.96.14-75.326,0-136.39-67.987-136.39-151.854S136.655,84.16,211.981,84.16c1.664,0,3.31.074,4.96.14V.14c-1.654-.042-3.3-.14-4.96-.14C94.909,0,0,105.668,0,236.014S94.909,472.028,211.981,472.028c1.664,0,3.306-.1,4.96-.14Z" transform="translate(70.946 81.326)" fill="none" stroke="#e5661d" stroke-miterlimit="10" stroke-width="13.501"/>
    <path id="Trazado_147" data-name="Trazado 147" d="M163,72c-7.191,42.385-40.625,74.441-80.784,74.441C36.808,146.442,0,105.461,0,54.906A98.081,98.081,0,0,1,16.427,0" transform="translate(123.456 488.232)" fill="none" stroke="#e5661d" stroke-miterlimit="10" stroke-width="10.943"/>
    <path id="Trazado_148" data-name="Trazado 148" d="M83.086,37.307c-4.593,20.4-21.167,35.5-40.911,35.5C18.883,72.808,0,51.785,0,25.852A50.6,50.6,0,0,1,6.962,0" transform="translate(163.496 517.286)" fill="none" stroke="#e5661d" stroke-miterlimit="10" stroke-width="10.943"/>
    <path id="Trazado_149" data-name="Trazado 149" d="M130.916,163.858c-31.191,25.585-75.281,23.709-104.689-6.74C-7.023,122.691-8.911,64.772,22.011,27.752,34.612,12.667,50.715,3.381,67.625,0" transform="translate(0 317.34)" fill="none" stroke="#e5661d" stroke-miterlimit="10" stroke-width="10.943"/>
    <path id="Trazado_150" data-name="Trazado 150" d="M65.127,85.036c-15.839,11.453-37.215,9.948-51.673-5.022C-3.6,62.353-4.571,32.642,11.292,13.651A41.289,41.289,0,0,1,32.2,0" transform="translate(40.041 361.8)" fill="none" stroke="#e5661d" stroke-miterlimit="10" stroke-width="10.943"/>
    <path id="Trazado_151" data-name="Trazado 151" d="M162.884,73.78C155.412,31.456,121.768-.326,81.611,0,36.206.375-.332,41.658,0,92.211a97.972,97.972,0,0,0,16.79,54.771" transform="translate(123.576)" fill="none" stroke="#e5661d" stroke-miterlimit="10" stroke-width="10.943"/>
    <path id="Trazado_152" data-name="Trazado 152" d="M83.086,35.5C78.493,15.1,61.919,0,42.175,0,18.883,0,0,21.022,0,46.955A50.6,50.6,0,0,0,6.962,72.807" transform="translate(163.496 44.588)" fill="none" stroke="#e5661d" stroke-miterlimit="10" stroke-width="10.943"/>
    <path id="Trazado_153" data-name="Trazado 153" d="M130.916,17.767C99.724-7.818,55.634-5.942,26.226,24.507-7.023,58.935-8.911,116.854,22.011,153.874c12.6,15.084,28.7,24.372,45.614,27.752" transform="translate(0 132.429)" fill="none" stroke="#e5661d" stroke-miterlimit="10" stroke-width="10.943"/>
    <path id="Trazado_154" data-name="Trazado 154" d="M65.127,7.549C49.287-3.9,27.911-2.4,13.453,12.571-3.6,30.232-4.571,59.943,11.292,78.933A41.288,41.288,0,0,0,32.2,92.585" transform="translate(40.041 177.01)" fill="none" stroke="#e5661d" stroke-miterlimit="10" stroke-width="10.943"/>
  </g>
</svg>
