<?xml version="1.0" encoding="utf-8"?>
<!-- Generator: Adobe Illustrator 24.0.1, SVG Export Plug-In . SVG Version: 6.00 Build 0)  -->
<svg version="1.1" xmlns="http://www.w3.org/2000/svg" xmlns:xlink="http://www.w3.org/1999/xlink" x="0px" y="0px"
	 viewBox="0 0 747.5 755.7" style="enable-background:new 0 0 747.5 755.7;" xml:space="preserve">
<style type="text/css">
	.st0{fill:#D1A942;}
	.st1{fill:#4F722D;}
	.st2{opacity:0.7;fill:#FFFFFF;}
	.st3{opacity:0.62;}
	.st4{fill:none;stroke:#E5661D;stroke-width:4;stroke-miterlimit:10;}
	.st5{fill:none;stroke:#4F722D;stroke-width:4;stroke-miterlimit:10;}
	.st6{opacity:0.47;clip-path:url(#SVGID_18_);}
	.st7{fill:#FFFFFF;}
	.st8{opacity:0.5;clip-path:url(#SVGID_20_);}
	.st9{fill:none;stroke:#FFFFFF;stroke-miterlimit:10;}
	.st10{fill:none;stroke:#FFFFFF;stroke-width:4.885;stroke-miterlimit:10;}
	.st11{fill:none;stroke:#FFFFFF;stroke-width:2.1479;stroke-miterlimit:10;}
	.st12{opacity:0.47;}
	.st13{opacity:0.5;}
	.st14{fill:none;}
	.st15{fill:none;stroke:#063916;stroke-width:4;stroke-miterlimit:10;}
	.st16{opacity:0.47;clip-path:url(#SVGID_22_);}
	.st17{opacity:0.5;clip-path:url(#SVGID_24_);}
	.st18{opacity:0.5;clip-path:url(#SVGID_26_);}
	.st19{fill:none;stroke:#FFFFFF;stroke-width:4.7196;stroke-miterlimit:10;}
	.st20{opacity:0.5;clip-path:url(#SVGID_28_);}
	.st21{fill:none;stroke:#FFFEFD;stroke-width:3.4965;stroke-linecap:round;stroke-linejoin:round;stroke-miterlimit:10;}
	.st22{fill:none;stroke:#FFFEFD;stroke-width:3.4965;stroke-linejoin:round;stroke-miterlimit:10;}
	.st23{fill:none;stroke:#FFFEFD;stroke-width:4.4946;stroke-linejoin:round;stroke-miterlimit:10;}
	.st24{opacity:0.5;clip-path:url(#SVGID_34_);}
	.st25{opacity:0.5;clip-path:url(#SVGID_36_);}
	.st26{opacity:0.47;clip-path:url(#SVGID_38_);}
	.st27{opacity:0.5;clip-path:url(#SVGID_40_);}
	.st28{opacity:0.5;clip-path:url(#SVGID_42_);}
	.st29{opacity:0.5;clip-path:url(#SVGID_44_);}
</style>
<g id="bases">
</g>
<g id="background">
</g>
<g id="Fotos_cortadas">
</g>
<g id="Logos">
	<g class="st13">
		<g id="_x3C_Radial_Repeat_x3E__35_">
			<g>
				<circle class="st9" cx="164.4" cy="618.6" r="5.3"/>
				<path class="st10" d="M130.9,575.9c-24.4,19.7-28.2,55.5-8.4,79.9c19.7,24.4,55.5,28.2,79.9,8.4c6-4.9,11.4-10.9,14.9-17.9
					c3.3-6.5,4.3-13.9,3.7-21.2c-0.9-12.5-7.3-23.9-17.1-31.6c-9.3-7.4-21.4-11.3-33.3-10.4c-16.4,1.1-32.8,12.3-37.1,28.6
					c-2.7,10.5-0.3,21.9,6.6,30.3c12,14.8,33.6,17.1,48.4,5.1c11-8.9,14.5-24.4,4.7-36.5c-11-13.6-30.9-11.8-39.4,1.3
					c-3.6,5.6-3.2,13,0.9,18.2c5,6.2,15,7.1,21.4,2.8c6.8-4.6,7.5-16.5-1.9-18.4c-3.7-0.8-7.5,0.7-10.1,3.5"/>
				<line class="st11" x1="140.2" y1="642" x2="148.1" y2="635.6"/>
				<line class="st11" x1="145.5" y1="594.1" x2="151.9" y2="602.1"/>
				<line class="st11" x1="209.3" y1="600.3" x2="201.3" y2="606.7"/>
				<line class="st11" x1="202.2" y1="664.3" x2="195.8" y2="656.3"/>
				<line class="st11" x1="111" y1="609.4" x2="121.2" y2="610.4"/>
				<circle class="st9" cx="185.6" cy="613.4" r="1.9"/>
				<circle class="st9" cx="173.8" cy="645.1" r="1.9"/>
				<circle class="st9" cx="142.2" cy="614.5" r="1.9"/>
				<circle class="st9" cx="178.4" cy="590.2" r="1.9"/>
				<circle class="st9" cx="212.7" cy="632.5" r="1.9"/>
				<circle class="st9" cx="162.5" cy="666.6" r="1.9"/>
				<circle class="st9" cx="124.4" cy="642.2" r="1.9"/>
			</g>
			<g>
				<circle class="st9" cx="92.9" cy="530.3" r="5.3"/>
				<path class="st10" d="M59.5,487.6C35.1,507.3,31.3,543,51,567.4s55.5,28.2,79.9,8.4c6-4.9,11.4-10.9,14.9-17.9
					c3.3-6.5,4.3-13.9,3.7-21.2c-0.9-12.5-7.3-23.9-17.1-31.6c-9.3-7.4-21.4-11.3-33.3-10.4c-16.4,1.1-32.8,12.3-37.1,28.6
					c-2.7,10.5-0.3,21.9,6.6,30.3c12,14.8,33.6,17.1,48.4,5.1c11-8.9,14.5-24.4,4.7-36.5c-11-13.6-30.9-11.8-39.4,1.3
					c-3.6,5.6-3.2,13,0.9,18.2c5,6.2,15,7.1,21.4,2.8c6.8-4.6,7.5-16.5-1.9-18.4c-3.7-0.8-7.5,0.7-10.1,3.5"/>
				<line class="st11" x1="68.7" y1="553.7" x2="76.7" y2="547.3"/>
				<line class="st11" x1="74" y1="505.8" x2="80.5" y2="513.8"/>
				<line class="st11" x1="137.8" y1="512" x2="129.9" y2="518.4"/>
				<line class="st11" x1="130.8" y1="576" x2="124.3" y2="568"/>
				<line class="st11" x1="39.5" y1="521.1" x2="49.7" y2="522.1"/>
				<circle class="st9" cx="114.1" cy="525" r="1.9"/>
				<circle class="st9" cx="102.4" cy="556.8" r="1.9"/>
				<circle class="st9" cx="70.8" cy="526.2" r="1.9"/>
				<circle class="st9" cx="107" cy="501.9" r="1.9"/>
				<circle class="st9" cx="141.2" cy="544.2" r="1.9"/>
				<circle class="st9" cx="91" cy="578.3" r="1.9"/>
				<circle class="st9" cx="53" cy="553.9" r="1.9"/>
			</g>
		</g>
		<g id="_x3C_Radial_Repeat_x3E__34_">
			<g>
				<circle class="st9" cx="58.5" cy="427.6" r="5.3"/>
				<path class="st10" d="M60.3,373.4C28.9,372.8,3,397.8,2.5,429.2s24.4,57.2,55.8,57.8c7.8,0.1,15.8-1,23-4.1
					c6.7-2.9,12.2-7.9,16.5-13.8c7.3-10.2,9.8-23,7.3-35.2c-2.4-11.6-9.2-22.4-18.8-29.4c-13.3-9.7-33.1-11.7-46.8-1.9
					c-8.8,6.3-14.3,16.6-14.5,27.5c-0.3,19,14.8,34.7,33.8,35c14.2,0.3,26.8-9.3,27.1-24.9c0.3-17.5-16.1-28.9-31-24.4
					c-6.4,1.9-10.9,7.9-11,14.6c-0.1,7.9,6.9,15.1,14.6,15.9c8.1,0.8,16.3-7.8,10.4-15.3c-2.4-3-6.2-4.2-9.9-3.8"/>
				<line class="st11" x1="24.8" y1="430" x2="35" y2="430.2"/>
				<line class="st11" x1="59.7" y1="396.7" x2="59.5" y2="407"/>
				<line class="st11" x1="104.6" y1="442.5" x2="94.4" y2="442.3"/>
				<line class="st11" x1="58.1" y1="487" x2="58.2" y2="476.7"/>
				<line class="st11" x1="23.5" y1="386.2" x2="30.6" y2="393.6"/>
				<circle class="st9" cx="78" cy="437.2" r="1.9"/>
				<circle class="st9" cx="48.7" cy="454" r="1.9"/>
				<circle class="st9" cx="44.1" cy="410.3" r="1.9"/>
				<circle class="st9" cx="87.4" cy="414.9" r="1.9"/>
				<circle class="st9" cx="86.5" cy="469.3" r="1.9"/>
				<circle class="st9" cx="26.1" cy="463.2" r="1.9"/>
				<circle class="st9" cx="12.6" cy="420" r="1.9"/>
			</g>
			<g>
				<circle class="st9" cx="60.5" cy="314" r="5.3"/>
				<path class="st10" d="M62.3,259.8C30.9,259.2,5,284.2,4.5,315.6s24.4,57.2,55.8,57.8c7.8,0.1,15.8-1,23-4.1
					c6.7-2.9,12.2-7.9,16.5-13.8c7.3-10.2,9.8-23,7.3-35.2c-2.4-11.6-9.2-22.4-18.8-29.4c-13.3-9.7-33.1-11.7-46.8-1.9
					c-8.8,6.3-14.3,16.6-14.5,27.5c-0.3,19,14.8,34.7,33.8,35c14.2,0.3,26.8-9.3,27.1-24.9c0.3-17.5-16.1-28.9-31-24.4
					c-6.4,1.9-10.9,7.9-11,14.6c-0.1,7.9,6.9,15.1,14.6,15.9c8.1,0.8,16.3-7.8,10.4-15.3c-2.4-3-6.2-4.2-9.9-3.8"/>
				<line class="st11" x1="26.8" y1="316.4" x2="37.1" y2="316.6"/>
				<line class="st11" x1="61.7" y1="283.1" x2="61.5" y2="293.4"/>
				<line class="st11" x1="106.6" y1="328.9" x2="96.4" y2="328.7"/>
				<line class="st11" x1="60.1" y1="373.4" x2="60.3" y2="363.1"/>
				<line class="st11" x1="25.5" y1="272.7" x2="32.6" y2="280"/>
				<circle class="st9" cx="80.1" cy="323.7" r="1.9"/>
				<circle class="st9" cx="50.7" cy="340.4" r="1.9"/>
				<circle class="st9" cx="46.1" cy="296.7" r="1.9"/>
				<circle class="st9" cx="89.5" cy="301.3" r="1.9"/>
				<circle class="st9" cx="88.5" cy="355.7" r="1.9"/>
				<circle class="st9" cx="28.2" cy="349.6" r="1.9"/>
				<circle class="st9" cx="14.7" cy="306.4" r="1.9"/>
			</g>
		</g>
		<g id="_x3C_Radial_Repeat_x3E__33_">
			<g>
				<circle class="st9" cx="100" cy="213.3" r="5.3"/>
				<path class="st10" d="M136.3,172.9c-23.7-20.6-59.5-18.1-80.1,5.6s-18.1,59.5,5.6,80.1c5.9,5.1,12.8,9.3,20.2,11.6
					c7,2.1,14.5,1.8,21.5,0c12.1-3.1,22.3-11.3,28.2-22.3c5.6-10.5,7.4-23.1,4.5-34.6c-3.9-15.9-17.8-30.2-34.6-31.5
					c-10.8-0.9-21.6,3.5-28.7,11.7c-12.5,14.3-11,36.1,3.4,48.6c10.7,9.3,26.5,10.1,36.7-1.7c11.5-13.2,6.2-32.5-8.1-38.6
					c-6.1-2.6-13.4-0.9-17.8,4.1c-5.2,6-4.4,16,1,21.6c5.7,5.9,17.5,4.6,17.8-5c0.1-3.8-2-7.2-5.2-9.3"/>
				<line class="st11" x1="72.7" y1="193.5" x2="80.5" y2="200.2"/>
				<line class="st11" x1="120.8" y1="190.4" x2="114.1" y2="198.1"/>
				<line class="st11" x1="125.8" y1="254.3" x2="118.1" y2="247.6"/>
				<line class="st11" x1="61.6" y1="258.4" x2="68.3" y2="250.7"/>
				<line class="st11" x1="99.8" y1="159.1" x2="100.6" y2="169.3"/>
				<circle class="st9" cx="108.9" cy="233.2" r="1.9"/>
				<circle class="st9" cx="75.6" cy="227.1" r="1.9"/>
				<circle class="st9" cx="100.2" cy="190.7" r="1.9"/>
				<circle class="st9" cx="130.4" cy="222.1" r="1.9"/>
				<circle class="st9" cx="94.7" cy="263.2" r="1.9"/>
				<circle class="st9" cx="52.4" cy="219.7" r="1.9"/>
				<circle class="st9" cx="69.8" cy="178" r="1.9"/>
			</g>
			<g>
				<circle class="st9" cx="174.6" cy="127.5" r="5.3"/>
				<path class="st10" d="M210.9,87.2c-23.7-20.6-59.5-18.1-80.1,5.6s-18.1,59.5,5.6,80.1c5.9,5.1,12.8,9.3,20.2,11.6
					c7,2.1,14.5,1.8,21.5,0c12.1-3.1,22.3-11.3,28.2-22.3c5.6-10.5,7.4-23.1,4.5-34.6c-3.9-15.9-17.8-30.2-34.6-31.5
					c-10.8-0.9-21.6,3.5-28.7,11.7c-12.5,14.3-11,36.1,3.4,48.6c10.7,9.3,26.5,10.1,36.7-1.7c11.5-13.2,6.2-32.5-8.1-38.6
					c-6.1-2.6-13.4-0.9-17.8,4.1c-5.2,6-4.4,16,1,21.6c5.7,5.9,17.5,4.6,17.8-5c0.1-3.8-2-7.2-5.2-9.3"/>
				<line class="st11" x1="147.3" y1="107.8" x2="155" y2="114.5"/>
				<line class="st11" x1="195.4" y1="104.7" x2="188.7" y2="112.4"/>
				<line class="st11" x1="200.4" y1="168.6" x2="192.7" y2="161.9"/>
				<line class="st11" x1="136.2" y1="172.7" x2="142.9" y2="165"/>
				<line class="st11" x1="174.4" y1="73.4" x2="175.1" y2="83.6"/>
				<circle class="st9" cx="183.4" cy="147.5" r="1.9"/>
				<circle class="st9" cx="150.2" cy="141.4" r="1.9"/>
				<circle class="st9" cx="174.8" cy="105" r="1.9"/>
				<circle class="st9" cx="205" cy="136.4" r="1.9"/>
				<circle class="st9" cx="169.3" cy="177.5" r="1.9"/>
				<circle class="st9" cx="127" cy="134" r="1.9"/>
				<circle class="st9" cx="144.4" cy="92.3" r="1.9"/>
			</g>
		</g>
		<g id="_x3C_Radial_Repeat_x3E__32_">
			<g>
				<circle class="st9" cx="269.7" cy="75.8" r="5.3"/>
				<path class="st10" d="M323.4,68.1c-4.9-31-34-52.1-65-47.2s-52.1,34-47.2,65c1.2,7.7,3.8,15.4,8,21.9c4,6.1,9.9,10.7,16.5,13.8
					c11.3,5.4,24.3,5.7,35.9,1c11-4.4,20.5-12.9,25.7-23.6c7.2-14.7,5.8-34.6-6.3-46.4c-7.7-7.6-18.8-11.2-29.6-9.5
					c-18.8,3-31.6,20.6-28.6,39.4c2.2,14,13.8,24.8,29.2,22.3c17.3-2.7,25.7-20.9,18.6-34.7c-3-5.9-9.7-9.3-16.2-8.3
					c-7.8,1.2-13.7,9.4-13.1,17.2c0.6,8.1,10.5,14.8,16.8,7.6c2.5-2.8,3.1-6.9,2-10.4"/>
				<line class="st11" x1="261.5" y1="43" x2="263.1" y2="53.2"/>
				<line class="st11" x1="300.3" y1="71.6" x2="290.2" y2="73.2"/>
				<line class="st11" x1="263.1" y1="123.8" x2="261.5" y2="113.7"/>
				<line class="st11" x1="211.2" y1="85.7" x2="221.3" y2="84.1"/>
				<line class="st11" x1="304.4" y1="34.1" x2="298.4" y2="42.4"/>
				<circle class="st9" cx="263.6" cy="96.7" r="1.9"/>
				<circle class="st9" cx="242" cy="70.7" r="1.9"/>
				<circle class="st9" cx="284.3" cy="58.6" r="1.9"/>
				<circle class="st9" cx="287.3" cy="102.1" r="1.9"/>
				<circle class="st9" cx="233.5" cy="110.6" r="1.9"/>
				<circle class="st9" cx="229.1" cy="50.1" r="1.9"/>
				<circle class="st9" cx="269.2" cy="29.3" r="1.9"/>
			</g>
			<g>
				<circle class="st9" cx="381.9" cy="58" r="5.3"/>
				<path class="st10" d="M435.6,50.4c-4.9-31-34-52.1-65-47.2s-52.1,34-47.2,65c1.2,7.7,3.8,15.4,8,21.9c4,6.1,9.9,10.7,16.5,13.8
					c11.3,5.4,24.3,5.7,35.9,1c11-4.4,20.5-12.9,25.7-23.6c7.2-14.7,5.8-34.6-6.3-46.4c-7.7-7.6-18.8-11.2-29.6-9.5
					c-18.8,3-31.6,20.6-28.6,39.4c2.2,14,13.8,24.8,29.2,22.3c17.3-2.7,25.7-20.9,18.6-34.7c-3-5.9-9.7-9.3-16.2-8.3
					c-7.8,1.2-13.7,9.4-13.1,17.2c0.6,8.1,10.5,14.8,16.8,7.6c2.5-2.8,3.1-6.9,2-10.4"/>
				<line class="st11" x1="373.7" y1="25.3" x2="375.3" y2="35.4"/>
				<line class="st11" x1="412.6" y1="53.9" x2="402.4" y2="55.5"/>
				<line class="st11" x1="375.3" y1="106" x2="373.7" y2="95.9"/>
				<line class="st11" x1="323.4" y1="67.9" x2="333.5" y2="66.4"/>
				<line class="st11" x1="416.6" y1="16.4" x2="410.6" y2="24.7"/>
				<circle class="st9" cx="375.9" cy="79" r="1.9"/>
				<circle class="st9" cx="354.2" cy="53" r="1.9"/>
				<circle class="st9" cx="396.5" cy="40.9" r="1.9"/>
				<circle class="st9" cx="399.5" cy="84.4" r="1.9"/>
				<circle class="st9" cx="345.7" cy="92.9" r="1.9"/>
				<circle class="st9" cx="341.3" cy="32.4" r="1.9"/>
				<circle class="st9" cx="381.5" cy="11.6" r="1.9"/>
			</g>
		</g>
		<g id="_x3C_Radial_Repeat_x3E__31_">
			<g>
				<circle class="st9" cx="488" cy="79.5" r="5.3"/>
				<path class="st10" d="M534.1,108.2c16.2-26.9,7.5-61.8-19.4-78c-26.9-16.2-61.8-7.5-78,19.4c-4,6.7-7,14.2-7.9,21.9
					c-0.9,7.2,0.7,14.6,3.7,21.2c5.1,11.4,15,20,26.8,23.9c11.3,3.7,24,3.3,34.9-1.6c15-6.7,26.6-22.8,25-39.6
					c-1-10.8-7.2-20.7-16.5-26.3c-16.3-9.8-37.5-4.5-47.3,11.8c-7.3,12.2-5.3,27.9,8,35.9c15,9,33.1,0.5,36.6-14.6
					c1.5-6.5-1.4-13.4-7.1-16.8c-6.8-4.1-16.5-1.6-21.1,4.7c-4.8,6.6-1.5,18,8,16.6c3.8-0.6,6.8-3.3,8.3-6.7"/>
				<line class="st11" x1="502.8" y1="49.1" x2="497.5" y2="57.9"/>
				<line class="st11" x1="514.2" y1="96" x2="505.4" y2="90.7"/>
				<line class="st11" x1="452.1" y1="112" x2="457.4" y2="103.2"/>
				<line class="st11" x1="436.9" y1="49.5" x2="445.6" y2="54.8"/>
				<line class="st11" x1="541.4" y1="69.9" x2="531.4" y2="72.3"/>
				<circle class="st9" cx="469.9" cy="91.6" r="1.9"/>
				<circle class="st9" cx="470.1" cy="57.8" r="1.9"/>
				<circle class="st9" cx="510.2" cy="75.7" r="1.9"/>
				<circle class="st9" cx="484.6" cy="111" r="1.9"/>
				<circle class="st9" cx="437.9" cy="82.9" r="1.9"/>
				<circle class="st9" cx="473.4" cy="33.7" r="1.9"/>
				<circle class="st9" cx="517.5" cy="43.6" r="1.9"/>
			</g>
			<g>
				<circle class="st9" cx="585.4" cy="138" r="5.3"/>
				<path class="st10" d="M631.5,166.7c16.2-26.9,7.5-61.8-19.4-78s-61.8-7.5-78,19.4c-4,6.7-7,14.2-7.9,21.9
					c-0.9,7.2,0.7,14.6,3.7,21.2c5.1,11.4,15,20,26.8,23.9c11.3,3.7,24,3.3,34.9-1.6c15-6.7,26.6-22.8,25-39.6
					c-1-10.8-7.2-20.7-16.5-26.3c-16.3-9.8-37.5-4.5-47.3,11.8c-7.3,12.2-5.3,27.9,8,35.9c15,9,33.1,0.5,36.6-14.6
					c1.5-6.5-1.4-13.4-7.1-16.8c-6.8-4.1-16.5-1.6-21.1,4.7c-4.8,6.6-1.5,18,8,16.6c3.8-0.6,6.8-3.3,8.3-6.7"/>
				<line class="st11" x1="600.1" y1="107.7" x2="594.9" y2="116.5"/>
				<line class="st11" x1="611.6" y1="154.5" x2="602.8" y2="149.3"/>
				<line class="st11" x1="549.5" y1="170.6" x2="554.8" y2="161.8"/>
				<line class="st11" x1="534.2" y1="108" x2="543" y2="113.3"/>
				<line class="st11" x1="638.7" y1="128.4" x2="628.8" y2="130.9"/>
				<circle class="st9" cx="567.3" cy="150.2" r="1.9"/>
				<circle class="st9" cx="567.5" cy="116.4" r="1.9"/>
				<circle class="st9" cx="607.6" cy="134.3" r="1.9"/>
				<circle class="st9" cx="581.9" cy="169.5" r="1.9"/>
				<circle class="st9" cx="535.3" cy="141.4" r="1.9"/>
				<circle class="st9" cx="570.8" cy="92.3" r="1.9"/>
				<circle class="st9" cx="614.9" cy="102.2" r="1.9"/>
			</g>
		</g>
		<g id="_x3C_Radial_Repeat_x3E__30_">
			<g>
				<circle class="st9" cx="652.9" cy="222.7" r="5.3"/>
				<path class="st10" d="M669.8,274.3c29.7-10.2,45.4-42.5,35.2-72.2s-42.5-45.4-72.2-35.2c-7.3,2.5-14.5,6.4-20.2,11.7
					c-5.3,5-8.8,11.6-10.8,18.6c-3.4,12-1.4,24.9,5.2,35.5c6.3,10.1,16.3,17.9,27.7,21.2c15.8,4.6,35.1-0.3,44.6-14.2
					c6.2-8.9,7.8-20.5,4.2-30.8c-6.2-18-25.8-27.5-43.8-21.4c-13.4,4.6-22,17.9-16.9,32.7c5.7,16.5,25.1,21.6,37.4,12.3
					c5.3-4,7.5-11.1,5.3-17.4c-2.6-7.5-11.6-11.8-19.2-9.9c-7.9,2-12.7,12.9-4.5,17.9c3.2,2,7.3,1.9,10.6,0.2"/>
				<line class="st11" x1="683.7" y1="208.9" x2="674" y2="212.3"/>
				<line class="st11" x1="662.3" y1="252.1" x2="659" y2="242.5"/>
				<line class="st11" x1="604.5" y1="224.5" x2="614.2" y2="221.2"/>
				<line class="st11" x1="633" y1="166.8" x2="636.3" y2="176.5"/>
				<line class="st11" x1="699.9" y1="249.6" x2="690.7" y2="245.1"/>
				<circle class="st9" cx="631.2" cy="220.4" r="1.9"/>
				<circle class="st9" cx="653.1" cy="194.6" r="1.9"/>
				<circle class="st9" cx="672.3" cy="234.1" r="1.9"/>
				<circle class="st9" cx="630" cy="244.6" r="1.9"/>
				<circle class="st9" cx="612.3" cy="193.1" r="1.9"/>
				<circle class="st9" cx="671.1" cy="178.2" r="1.9"/>
				<circle class="st9" cx="698.6" cy="214.2" r="1.9"/>
			</g>
			<g>
				<circle class="st9" cx="689.9" cy="330.1" r="5.3"/>
				<path class="st10" d="M706.7,381.7c29.7-10.2,45.4-42.5,35.2-72.2c-10.2-29.7-42.5-45.4-72.2-35.2c-7.3,2.5-14.5,6.4-20.2,11.7
					c-5.3,5-8.8,11.6-10.8,18.6c-3.4,12-1.4,24.9,5.2,35.5c6.3,10.1,16.3,17.9,27.7,21.2c15.8,4.6,35.1-0.3,44.6-14.2
					c6.2-8.9,7.8-20.5,4.2-30.8c-6.2-18-25.8-27.5-43.8-21.4c-13.4,4.6-22,17.9-16.9,32.7c5.7,16.5,25.1,21.6,37.4,12.3
					c5.3-4,7.5-11.1,5.3-17.4c-2.6-7.5-11.6-11.8-19.2-9.9c-7.9,2-12.7,12.9-4.5,17.9c3.2,2,7.3,1.9,10.6,0.2"/>
				<line class="st11" x1="720.6" y1="316.4" x2="711" y2="319.7"/>
				<line class="st11" x1="699.3" y1="359.6" x2="695.9" y2="349.9"/>
				<line class="st11" x1="641.4" y1="331.9" x2="651.1" y2="328.6"/>
				<line class="st11" x1="669.9" y1="274.2" x2="673.3" y2="283.9"/>
				<line class="st11" x1="736.9" y1="357" x2="727.7" y2="352.5"/>
				<circle class="st9" cx="668.2" cy="327.8" r="1.9"/>
				<circle class="st9" cx="690" cy="302" r="1.9"/>
				<circle class="st9" cx="709.3" cy="341.5" r="1.9"/>
				<circle class="st9" cx="667" cy="352" r="1.9"/>
				<circle class="st9" cx="649.3" cy="300.5" r="1.9"/>
				<circle class="st9" cx="708.1" cy="285.6" r="1.9"/>
				<circle class="st9" cx="735.5" cy="321.6" r="1.9"/>
			</g>
		</g>
		<g id="_x3C_Radial_Repeat_x3E__29_">
			<g>
				<circle class="st9" cx="687.2" cy="438.4" r="5.3"/>
				<path class="st10" d="M666.9,488.7c29.3,11.3,62.1-3.4,73.4-32.6c11.3-29.3-3.4-62.1-32.6-73.4c-7.2-2.8-15.2-4.4-23-4
					c-7.3,0.4-14.2,3.3-20.2,7.3c-10.3,7-17.1,18.2-18.9,30.6c-1.7,11.8,1,24.2,7.6,34.1c9.2,13.6,27.1,22.3,43.3,17.8
					c10.5-2.9,19.1-10.7,23-20.8c6.8-17.7-2-37.7-19.8-44.5c-13.3-5.1-28.4-0.4-33.9,14.1c-6.3,16.3,5.3,32.7,20.8,33.5
					c6.6,0.3,12.9-3.7,15.3-9.9c2.8-7.4-1.3-16.5-8.3-19.9c-7.3-3.6-18,1.7-15,10.8c1.2,3.6,4.4,6.1,8,7"/>
				<line class="st11" x1="719.6" y1="447.6" x2="710" y2="443.9"/>
				<line class="st11" x1="675.4" y1="467" x2="679.1" y2="457.4"/>
				<line class="st11" x1="648.9" y1="408.6" x2="658.4" y2="412.3"/>
				<line class="st11" x1="707.8" y1="382.7" x2="704.1" y2="392.3"/>
				<line class="st11" x1="705.9" y1="489.2" x2="701.7" y2="479.9"/>
				<circle class="st9" cx="672" cy="422.6" r="1.9"/>
				<circle class="st9" cx="705.4" cy="416.9" r="1.9"/>
				<circle class="st9" cx="694.7" cy="459.6" r="1.9"/>
				<circle class="st9" cx="655.6" cy="440.4" r="1.9"/>
				<circle class="st9" cx="675.1" cy="389.6" r="1.9"/>
				<circle class="st9" cx="729.7" cy="416" r="1.9"/>
				<circle class="st9" cx="727.6" cy="461.2" r="1.9"/>
			</g>
			<g>
				<circle class="st9" cx="646.4" cy="544.4" r="5.3"/>
				<path class="st10" d="M626.1,594.8c29.3,11.3,62.1-3.4,73.4-32.6c11.3-29.3-3.4-62.1-32.6-73.4c-7.2-2.8-15.2-4.4-23-4
					c-7.3,0.4-14.2,3.3-20.2,7.3c-10.3,7-17.1,18.2-18.9,30.6c-1.7,11.8,1,24.2,7.6,34.1c9.2,13.6,27.1,22.3,43.3,17.8
					c10.5-2.9,19.1-10.7,23-20.8c6.8-17.7-2-37.7-19.8-44.5c-13.3-5.1-28.4-0.4-33.9,14.1c-6.3,16.3,5.3,32.7,20.8,33.5
					c6.6,0.3,12.9-3.7,15.3-9.9c2.8-7.4-1.3-16.5-8.3-19.9c-7.3-3.6-18,1.7-15,10.8c1.2,3.6,4.4,6.1,8,7"/>
				<line class="st11" x1="678.8" y1="553.7" x2="669.3" y2="550"/>
				<line class="st11" x1="634.7" y1="573" x2="638.4" y2="563.5"/>
				<line class="st11" x1="608.1" y1="514.7" x2="617.7" y2="518.3"/>
				<line class="st11" x1="667.1" y1="488.8" x2="663.4" y2="498.3"/>
				<line class="st11" x1="665.1" y1="595.3" x2="661" y2="585.9"/>
				<circle class="st9" cx="631.3" cy="528.7" r="1.9"/>
				<circle class="st9" cx="664.6" cy="523" r="1.9"/>
				<circle class="st9" cx="654" cy="565.6" r="1.9"/>
				<circle class="st9" cx="614.8" cy="546.5" r="1.9"/>
				<circle class="st9" cx="634.3" cy="495.6" r="1.9"/>
				<circle class="st9" cx="688.9" cy="522" r="1.9"/>
				<circle class="st9" cx="686.8" cy="567.2" r="1.9"/>
			</g>
		</g>
		<g id="_x3C_Radial_Repeat_x3E__28_">
			<g>
				<circle class="st9" cx="574.8" cy="625.6" r="5.3"/>
				<path class="st10" d="M526.9,651.2c15.2,27.4,49.8,37.4,77.2,22.2c27.4-15.2,37.4-49.8,22.2-77.2c-3.8-6.8-8.8-13.1-15-17.8
					c-5.8-4.4-13-6.6-20.2-7.4c-12.4-1.2-24.8,3-34.1,11.3c-8.9,7.9-14.8,19.1-16.1,31c-1.7,16.3,6.4,34.5,21.8,41.5
					c9.9,4.5,21.5,4.1,31-1.2c16.6-9.2,22.7-30.2,13.4-46.8c-6.9-12.4-21.5-18.5-35.1-11c-15.3,8.5-17,28.4-5.6,39
					c4.9,4.5,12.3,5.4,18.1,2.2c6.9-3.8,9.6-13.5,6.4-20.6c-3.3-7.4-14.9-10.3-18.4-1.4c-1.4,3.5-0.6,7.5,1.7,10.5"/>
				<line class="st11" x1="593.6" y1="653.5" x2="588.7" y2="644.6"/>
				<line class="st11" x1="547.4" y1="640" x2="556.3" y2="635"/>
				<line class="st11" x1="564.5" y1="578.2" x2="569.5" y2="587.2"/>
				<line class="st11" x1="626.3" y1="596.3" x2="617.4" y2="601.2"/>
				<line class="st11" x1="556.4" y1="676.6" x2="559.2" y2="666.7"/>
				<circle class="st9" cx="573.3" cy="603.8" r="1.9"/>
				<circle class="st9" cx="602.5" cy="620.9" r="1.9"/>
				<circle class="st9" cx="566.9" cy="646.7" r="1.9"/>
				<circle class="st9" cx="549.2" cy="606.9" r="1.9"/>
				<circle class="st9" cx="596.9" cy="580.5" r="1.9"/>
				<circle class="st9" cx="621.7" cy="635.8" r="1.9"/>
				<circle class="st9" cx="591.1" cy="669.1" r="1.9"/>
			</g>
			<g>
				<circle class="st9" cx="475.4" cy="680.6" r="5.3"/>
				<path class="st10" d="M427.5,706.2c15.2,27.4,49.8,37.4,77.2,22.2s37.4-49.8,22.2-77.2c-3.8-6.8-8.8-13.1-15-17.8
					c-5.8-4.4-13-6.6-20.2-7.4c-12.4-1.2-24.8,3-34.1,11.3c-8.9,7.9-14.8,19.1-16.1,31c-1.7,16.3,6.4,34.5,21.8,41.5
					c9.9,4.5,21.5,4.1,31-1.2c16.6-9.2,22.7-30.2,13.4-46.8c-6.9-12.4-21.5-18.5-35.1-11c-15.3,8.5-17,28.4-5.6,39
					c4.9,4.5,12.3,5.4,18.1,2.2c6.9-3.8,9.6-13.5,6.4-20.6c-3.3-7.4-14.9-10.3-18.4-1.4c-1.4,3.5-0.6,7.5,1.7,10.5"/>
				<line class="st11" x1="494.3" y1="708.6" x2="489.3" y2="699.6"/>
				<line class="st11" x1="448" y1="695" x2="457" y2="690.1"/>
				<line class="st11" x1="465.2" y1="633.2" x2="470.1" y2="642.2"/>
				<line class="st11" x1="527" y1="651.3" x2="518" y2="656.3"/>
				<line class="st11" x1="457" y1="731.6" x2="459.9" y2="721.8"/>
				<circle class="st9" cx="473.9" cy="658.9" r="1.9"/>
				<circle class="st9" cx="503.1" cy="675.9" r="1.9"/>
				<circle class="st9" cx="467.5" cy="701.7" r="1.9"/>
				<circle class="st9" cx="449.8" cy="661.9" r="1.9"/>
				<circle class="st9" cx="497.5" cy="635.5" r="1.9"/>
				<circle class="st9" cx="522.3" cy="690.8" r="1.9"/>
				<circle class="st9" cx="491.7" cy="724.1" r="1.9"/>
			</g>
		</g>
		<g id="_x3C_Radial_Repeat_x3E__27_">
			<g>
				<circle class="st9" cx="368.3" cy="696.8" r="5.3"/>
				<path class="st10" d="M315.2,685.6c-6,30.8,14.1,60.6,44.9,66.6c30.8,6,60.6-14.1,66.6-44.9c1.5-7.6,1.7-15.7,0-23.3
					c-1.7-7.1-5.7-13.4-10.7-18.6c-8.7-9-20.9-13.6-33.4-13.3c-11.9,0.4-23.7,5.1-32.2,13.4c-11.8,11.4-17.2,30.5-10,45.8
					c4.7,9.8,13.9,17,24.5,19c18.7,3.6,36.7-8.5,40.4-27.2c2.7-13.9-4.5-28-19.8-31c-17.2-3.3-31.3,10.9-29.4,26.3
					c0.8,6.6,5.9,12.1,12.4,13.3c7.8,1.5,16.1-4.2,18.2-11.7c2.2-7.9-4.8-17.4-13.2-12.9c-3.3,1.8-5.3,5.4-5.5,9.1"/>
				<line class="st11" x1="364.8" y1="730.3" x2="366.8" y2="720.3"/>
				<line class="st11" x1="338.1" y1="690.2" x2="348.1" y2="692.2"/>
				<line class="st11" x1="390.9" y1="653.9" x2="389" y2="664"/>
				<line class="st11" x1="426.7" y1="707.5" x2="416.6" y2="705.5"/>
				<line class="st11" x1="321.5" y1="724" x2="330" y2="718.3"/>
				<circle class="st9" cx="381.2" cy="679.1" r="1.9"/>
				<circle class="st9" cx="392.6" cy="711" r="1.9"/>
				<circle class="st9" cx="348.7" cy="707.9" r="1.9"/>
				<circle class="st9" cx="360.8" cy="666" r="1.9"/>
				<circle class="st9" cx="414.2" cy="676.4" r="1.9"/>
				<circle class="st9" cx="397.7" cy="734.8" r="1.9"/>
				<circle class="st9" cx="352.8" cy="740.6" r="1.9"/>
			</g>
			<g>
				<circle class="st9" cx="256.8" cy="675" r="5.3"/>
				<path class="st10" d="M203.7,663.8c-6,30.8,14.1,60.6,44.9,66.6c30.8,6,60.6-14.1,66.6-44.9c1.5-7.6,1.7-15.7,0-23.3
					c-1.7-7.1-5.7-13.4-10.7-18.6c-8.7-9-20.9-13.6-33.4-13.3c-11.9,0.4-23.7,5.1-32.2,13.4c-11.8,11.4-17.2,30.5-10,45.8
					c4.7,9.8,13.9,17,24.5,19c18.7,3.6,36.7-8.5,40.4-27.2c2.7-13.9-4.5-28-19.8-31c-17.2-3.3-31.3,10.9-29.4,26.3
					c0.8,6.6,5.9,12.1,12.4,13.3c7.8,1.5,16.1-4.2,18.2-11.7c2.2-7.9-4.8-17.4-13.2-12.9c-3.3,1.8-5.3,5.4-5.5,9.1"/>
				<line class="st11" x1="253.3" y1="708.6" x2="255.3" y2="698.5"/>
				<line class="st11" x1="226.6" y1="668.5" x2="236.6" y2="670.4"/>
				<line class="st11" x1="279.4" y1="632.2" x2="277.5" y2="642.2"/>
				<line class="st11" x1="315.2" y1="685.7" x2="305.1" y2="683.8"/>
				<line class="st11" x1="210" y1="702.3" x2="218.5" y2="696.6"/>
				<circle class="st9" cx="269.7" cy="657.4" r="1.9"/>
				<circle class="st9" cx="281.1" cy="689.3" r="1.9"/>
				<circle class="st9" cx="237.2" cy="686.2" r="1.9"/>
				<circle class="st9" cx="249.3" cy="644.3" r="1.9"/>
				<circle class="st9" cx="302.7" cy="654.7" r="1.9"/>
				<circle class="st9" cx="286.2" cy="713" r="1.9"/>
				<circle class="st9" cx="241.3" cy="718.8" r="1.9"/>
			</g>
		</g>
	</g>
</g>
<g id="Texto">
</g>
</svg>
