<?xml version="1.0" encoding="utf-8"?>
<!-- Generator: Adobe Illustrator 24.0.1, SVG Export Plug-In . SVG Version: 6.00 Build 0)  -->
<svg version="1.1" xmlns="http://www.w3.org/2000/svg" xmlns:xlink="http://www.w3.org/1999/xlink" x="0px" y="0px"
	 viewBox="0 0 698.4 700.4" style="enable-background:new 0 0 698.4 700.4;" xml:space="preserve">
<style type="text/css">
	.st0{fill:#D1A942;}
	.st1{fill:#4F722D;}
	.st2{opacity:0.7;fill:#FFFFFF;}
	.st3{opacity:0.62;}
	.st4{fill:none;stroke:#E5661D;stroke-width:4;stroke-miterlimit:10;}
	.st5{fill:none;stroke:#4F722D;stroke-width:4;stroke-miterlimit:10;}
	.st6{opacity:0.47;clip-path:url(#SVGID_18_);}
	.st7{fill:#FFFFFF;}
	.st8{opacity:0.5;clip-path:url(#SVGID_20_);}
	.st9{fill:none;stroke:#FFFFFF;stroke-miterlimit:10;}
	.st10{fill:none;stroke:#FFFFFF;stroke-width:4.885;stroke-miterlimit:10;}
	.st11{fill:none;stroke:#FFFFFF;stroke-width:2.1479;stroke-miterlimit:10;}
	.st12{opacity:0.47;}
	.st13{opacity:0.5;}
	.st14{fill:none;}
	.st15{fill:none;stroke:#063916;stroke-width:4;stroke-miterlimit:10;}
	.st16{opacity:0.47;clip-path:url(#SVGID_22_);}
	.st17{opacity:0.5;clip-path:url(#SVGID_24_);}
	.st18{opacity:0.5;clip-path:url(#SVGID_26_);}
	.st19{fill:none;stroke:#FFFFFF;stroke-width:4.7196;stroke-miterlimit:10;}
	.st20{opacity:0.5;clip-path:url(#SVGID_28_);}
	.st21{fill:none;stroke:#FFFEFD;stroke-width:3.4965;stroke-linecap:round;stroke-linejoin:round;stroke-miterlimit:10;}
	.st22{fill:none;stroke:#FFFEFD;stroke-width:3.4965;stroke-linejoin:round;stroke-miterlimit:10;}
	.st23{fill:none;stroke:#FFFEFD;stroke-width:4.4946;stroke-linejoin:round;stroke-miterlimit:10;}
	.st24{opacity:0.5;clip-path:url(#SVGID_34_);}
	.st25{opacity:0.5;clip-path:url(#SVGID_36_);}
	.st26{opacity:0.47;clip-path:url(#SVGID_38_);}
	.st27{opacity:0.5;clip-path:url(#SVGID_40_);}
	.st28{opacity:0.5;clip-path:url(#SVGID_42_);}
	.st29{opacity:0.5;clip-path:url(#SVGID_44_);}
</style>
<g id="bases">
</g>
<g id="background">
</g>
<g id="Fotos_cortadas">
	<g>
		<defs>
			<rect id="SVGID_9_" x="-1322.1" y="1091.4" width="1898.7" height="811.3"/>
		</defs>
		<clipPath id="SVGID_2_">
			<use xlink:href="#SVGID_9_"  style="overflow:visible;"/>
		</clipPath>
		<g transform="matrix(1 0 0 1 0 0)" style="opacity:0.44;clip-path:url(#SVGID_2_);">
			
				<image style="overflow:visible;" width="2000" height="1333" xlink:href="FBBDA49B1E46C675.jpg"  transform="matrix(0.948 0 0 0.948 -1321.1906 633.331)">
			</image>
		</g>
	</g>
</g>
<g id="Logos">
	<g class="st13">
		<g id="_x3C_Radial_Repeat_x3E__43_">
			<g>
				
					<rect x="77.8" y="537.3" transform="matrix(-0.9699 -0.2433 0.2433 -0.9699 47.1026 1108.9613)" class="st19" width="28.5" height="28.5"/>
				
					<rect x="57.1" y="502.8" transform="matrix(-0.9699 -0.2433 0.2433 -0.9699 14.8168 1036.0264)" class="st19" width="28.5" height="28.5"/>
				
					<rect x="36.5" y="468.4" transform="matrix(-0.9699 -0.2433 0.2433 -0.9699 -17.4689 963.0915)" class="st19" width="28.5" height="28.5"/>
			</g>
		</g>
		<g id="_x3C_Radial_Repeat_x3E__42_">
			<g>
				
					<rect x="22.5" y="430.6" transform="matrix(-0.8166 -0.5773 0.5773 -0.8166 -190.0451 829.3282)" class="st19" width="28.5" height="28.5"/>
				
					<rect x="15.7" y="391" transform="matrix(-0.8166 -0.5773 0.5773 -0.8166 -179.5345 753.4597)" class="st19" width="28.5" height="28.5"/>
				
					<rect x="8.9" y="351.4" transform="matrix(-0.8166 -0.5773 0.5773 -0.8166 -169.0239 677.5912)" class="st19" width="28.5" height="28.5"/>
			</g>
		</g>
		<g id="_x3C_Radial_Repeat_x3E__41_">
			<g>
				
					<rect x="9.5" y="311.1" transform="matrix(-0.5529 -0.8333 0.8333 -0.5529 -234.2551 525.0697)" class="st19" width="28.5" height="28.5"/>
				
					<rect x="17.5" y="271.7" transform="matrix(-0.5529 -0.8333 0.8333 -0.5529 -189.0653 470.5457)" class="st19" width="28.5" height="28.5"/>
				
					<rect x="25.4" y="232.4" transform="matrix(-0.5529 -0.8333 0.8333 -0.5529 -143.8755 416.0216)" class="st19" width="28.5" height="28.5"/>
			</g>
		</g>
		<g id="_x3C_Radial_Repeat_x3E__40_">
			<g>
				
					<rect x="40.5" y="195" transform="matrix(-0.2145 -0.9767 0.9767 -0.2145 -137.8718 307.6801)" class="st19" width="28.5" height="28.5"/>
				
					<rect x="62.2" y="161.2" transform="matrix(-0.2145 -0.9767 0.9767 -0.2145 -78.5087 287.7216)" class="st19" width="28.5" height="28.5"/>
				
					<rect x="83.8" y="127.3" transform="matrix(-0.2145 -0.9767 0.9767 -0.2145 -19.1456 267.7631)" class="st19" width="28.5" height="28.5"/>
			</g>
		</g>
		<g id="_x3C_Radial_Repeat_x3E__39_">
			<g>
				
					<rect x="111.4" y="98" transform="matrix(0.1528 -0.9883 0.9883 0.1528 -4.4421 219.2633)" class="st19" width="28.5" height="28.5"/>
				
					<rect x="143.8" y="74.2" transform="matrix(0.1528 -0.9883 0.9883 0.1528 46.4873 231.1914)" class="st19" width="28.5" height="28.5"/>
				
					<rect x="176.3" y="50.5" transform="matrix(0.1528 -0.9883 0.9883 0.1528 97.4167 243.1194)" class="st19" width="28.5" height="28.5"/>
			</g>
		</g>
		<g id="_x3C_Radial_Repeat_x3E__38_">
			<g>
				
					<rect x="212.6" y="33.1" transform="matrix(0.4995 -0.8663 0.8663 0.4995 72.5302 220.1878)" class="st19" width="28.5" height="28.5"/>
				
					<rect x="251.4" y="22.7" transform="matrix(0.4995 -0.8663 0.8663 0.4995 100.9864 248.5906)" class="st19" width="28.5" height="28.5"/>
				
					<rect x="290.2" y="12.2" transform="matrix(0.4995 -0.8663 0.8663 0.4995 129.4426 276.9935)" class="st19" width="28.5" height="28.5"/>
			</g>
		</g>
		<g id="_x3C_Radial_Repeat_x3E__37_">
			<g>
				
					<rect x="330.3" y="9.1" transform="matrix(0.7787 -0.6274 0.6274 0.7787 61.6078 221.3639)" class="st19" width="28.5" height="28.5"/>
				
					<rect x="370.3" y="13.4" transform="matrix(0.7787 -0.6274 0.6274 0.7787 67.7531 247.3822)" class="st19" width="28.5" height="28.5"/>
				
					<rect x="410.2" y="17.7" transform="matrix(0.7787 -0.6274 0.6274 0.7787 73.8983 273.4005)" class="st19" width="28.5" height="28.5"/>
			</g>
		</g>
		<g id="_x3C_Radial_Repeat_x3E__36_">
			<g>
				
					<rect x="448.8" y="29.3" transform="matrix(0.9528 -0.3037 0.3037 0.9528 8.6523 142.7107)" class="st19" width="28.5" height="28.5"/>
				
					<rect x="484.5" y="47.7" transform="matrix(0.9528 -0.3037 0.3037 0.9528 4.7378 154.4266)" class="st19" width="28.5" height="28.5"/>
				
					<rect x="520.2" y="66.2" transform="matrix(0.9528 -0.3037 0.3037 0.9528 0.8233 166.1424)" class="st19" width="28.5" height="28.5"/>
			</g>
		</g>
		<g id="_x3C_Radial_Repeat_x3E__9_">
			<g>
				
					<rect x="552" y="90.9" transform="matrix(0.9981 6.093642e-02 -6.093642e-02 0.9981 7.4608 -34.3092)" class="st19" width="28.5" height="28.5"/>
				
					<rect x="578.6" y="121" transform="matrix(0.9981 6.093642e-02 -6.093642e-02 0.9981 9.344 -35.876)" class="st19" width="28.5" height="28.5"/>
				
					<rect x="605.3" y="151.1" transform="matrix(0.9981 6.093642e-02 -6.093642e-02 0.9981 11.2272 -37.4428)" class="st19" width="28.5" height="28.5"/>
			</g>
		</g>
		<g id="_x3C_Radial_Repeat_x3E__8_">
			<g>
				
					<rect x="625.9" y="185.7" transform="matrix(0.9087 0.4174 -0.4174 0.9087 141.8704 -248.9653)" class="st19" width="28.5" height="28.5"/>
				
					<rect x="639.9" y="223.3" transform="matrix(0.9087 0.4174 -0.4174 0.9087 158.8722 -251.3532)" class="st19" width="28.5" height="28.5"/>
				
					<rect x="653.9" y="261" transform="matrix(0.9087 0.4174 -0.4174 0.9087 175.874 -253.7411)" class="st19" width="28.5" height="28.5"/>
			</g>
		</g>
		<g id="_x3C_Radial_Repeat_x3E__7_">
			<g>
				
					<rect x="660.7" y="300.7" transform="matrix(0.6966 0.7175 -0.7175 0.6966 430.7582 -388.6822)" class="st19" width="28.5" height="28.5"/>
				
					<rect x="660.1" y="340.9" transform="matrix(0.6966 0.7175 -0.7175 0.6966 459.4058 -376.0652)" class="st19" width="28.5" height="28.5"/>
				
					<rect x="659.5" y="381.1" transform="matrix(0.6966 0.7175 -0.7175 0.6966 488.0534 -363.4482)" class="st19" width="28.5" height="28.5"/>
			</g>
		</g>
		<g id="_x3C_Radial_Repeat_x3E__6_">
			<g>
				
					<rect x="651.5" y="420.5" transform="matrix(0.3904 0.9207 -0.9207 0.3904 806.163 -347.8729)" class="st19" width="28.5" height="28.5"/>
				
					<rect x="636.4" y="457.8" transform="matrix(0.3904 0.9207 -0.9207 0.3904 831.2731 -311.2904)" class="st19" width="28.5" height="28.5"/>
				
					<rect x="621.4" y="495" transform="matrix(0.3904 0.9207 -0.9207 0.3904 856.3832 -274.7078)" class="st19" width="28.5" height="28.5"/>
			</g>
		</g>
		<g id="_x3C_Radial_Repeat_x3E__5_">
			<g>
				
					<rect x="599.7" y="529" transform="matrix(3.142039e-02 0.9995 -0.9995 3.142039e-02 1137.5724 -87.465)" class="st19" width="28.5" height="28.5"/>
				
					<rect x="572.2" y="558.3" transform="matrix(3.142039e-02 0.9995 -0.9995 3.142039e-02 1140.2078 -31.5987)" class="st19" width="28.5" height="28.5"/>
				
					<rect x="544.7" y="587.6" transform="matrix(3.142039e-02 0.9995 -0.9995 3.142039e-02 1142.8431 24.2676)" class="st19" width="28.5" height="28.5"/>
			</g>
		</g>
		<g id="_x3C_Radial_Repeat_x3E__4_">
			<g>
				
					<rect x="512.2" y="611.3" transform="matrix(-0.3318 0.9434 -0.9434 -0.3318 1291.2119 336.5501)" class="st19" width="28.5" height="28.5"/>
				
					<rect x="475.9" y="628.7" transform="matrix(-0.3318 0.9434 -0.9434 -0.3318 1259.3536 393.8731)" class="st19" width="28.5" height="28.5"/>
				
					<rect x="439.7" y="646.1" transform="matrix(-0.3318 0.9434 -0.9434 -0.3318 1227.4954 451.1962)" class="st19" width="28.5" height="28.5"/>
			</g>
		</g>
		<g id="_x3C_Radial_Repeat_x3E__3_">
			<g>
				
					<rect x="400.8" y="656.5" transform="matrix(-0.6501 0.7598 -0.7598 -0.6501 1194.5717 791.5518)" class="st19" width="28.5" height="28.5"/>
				
					<rect x="360.7" y="659.7" transform="matrix(-0.6501 0.7598 -0.7598 -0.6501 1130.8301 827.134)" class="st19" width="28.5" height="28.5"/>
				
					<rect x="320.7" y="662.8" transform="matrix(-0.6501 0.7598 -0.7598 -0.6501 1067.0886 862.7162)" class="st19" width="28.5" height="28.5"/>
			</g>
		</g>
		<g id="_x3C_Radial_Repeat_x3E__2_">
			<g>
				
					<rect x="280.6" y="658.5" transform="matrix(-0.8807 0.4736 -0.4736 -0.8807 873.2235 1125.5277)" class="st19" width="28.5" height="28.5"/>
				
					<rect x="242.2" y="646.9" transform="matrix(-0.8807 0.4736 -0.4736 -0.8807 795.3694 1122.0015)" class="st19" width="28.5" height="28.5"/>
				
					<rect x="203.7" y="635.3" transform="matrix(-0.8807 0.4736 -0.4736 -0.8807 717.5153 1118.4753)" class="st19" width="28.5" height="28.5"/>
			</g>
		</g>
		<g id="_x3C_Radial_Repeat_x3E__1_">
			<g>
				
					<rect x="167.9" y="616.9" transform="matrix(-0.9923 0.1235 -0.1235 -0.9923 440.8247 1234.8859)" class="st19" width="28.5" height="28.5"/>
				
					<rect x="136.2" y="592.2" transform="matrix(-0.9923 0.1235 -0.1235 -0.9923 374.6063 1189.6165)" class="st19" width="28.5" height="28.5"/>
				
					<rect x="104.5" y="567.5" transform="matrix(-0.9923 0.1235 -0.1235 -0.9923 308.3879 1144.347)" class="st19" width="28.5" height="28.5"/>
			</g>
		</g>
	</g>
</g>
<g id="Texto">
</g>
</svg>
