<?xml version="1.0" encoding="utf-8"?>
<!-- Generator: Adobe Illustrator 24.0.1, SVG Export Plug-In . SVG Version: 6.00 Build 0)  -->
<svg version="1.1" xmlns="http://www.w3.org/2000/svg" xmlns:xlink="http://www.w3.org/1999/xlink" x="0px" y="0px"
	 viewBox="0 0 665.4 663.6" style="enable-background:new 0 0 665.4 663.6;" xml:space="preserve">
<style type="text/css">
	.st0{fill:#D1A942;}
	.st1{fill:#4F722D;}
	.st2{opacity:0.7;fill:#FFFFFF;}
	.st3{opacity:0.62;}
	.st4{fill:none;stroke:#E5661D;stroke-width:4;stroke-miterlimit:10;}
	.st5{fill:none;stroke:#4F722D;stroke-width:4;stroke-miterlimit:10;}
	.st6{opacity:0.47;clip-path:url(#SVGID_18_);}
	.st7{fill:#FFFFFF;}
	.st8{opacity:0.5;clip-path:url(#SVGID_20_);}
	.st9{fill:none;stroke:#FFFFFF;stroke-miterlimit:10;}
	.st10{fill:none;stroke:#FFFFFF;stroke-width:4.885;stroke-miterlimit:10;}
	.st11{fill:none;stroke:#FFFFFF;stroke-width:2.1479;stroke-miterlimit:10;}
	.st12{opacity:0.47;}
	.st13{opacity:0.5;}
	.st14{fill:none;}
	.st15{fill:none;stroke:#063916;stroke-width:4;stroke-miterlimit:10;}
	.st16{opacity:0.47;clip-path:url(#SVGID_22_);}
	.st17{opacity:0.5;clip-path:url(#SVGID_24_);}
	.st18{opacity:0.5;clip-path:url(#SVGID_26_);}
	.st19{fill:none;stroke:#FFFFFF;stroke-width:4.7196;stroke-miterlimit:10;}
	.st20{opacity:0.5;clip-path:url(#SVGID_28_);}
	.st21{fill:none;stroke:#FFFEFD;stroke-width:3.4965;stroke-linecap:round;stroke-linejoin:round;stroke-miterlimit:10;}
	.st22{fill:none;stroke:#FFFEFD;stroke-width:3.4965;stroke-linejoin:round;stroke-miterlimit:10;}
	.st23{fill:none;stroke:#FFFEFD;stroke-width:4.4946;stroke-linejoin:round;stroke-miterlimit:10;}
	.st24{opacity:0.5;clip-path:url(#SVGID_34_);}
	.st25{opacity:0.5;clip-path:url(#SVGID_36_);}
	.st26{opacity:0.47;clip-path:url(#SVGID_38_);}
	.st27{opacity:0.5;clip-path:url(#SVGID_40_);}
	.st28{opacity:0.5;clip-path:url(#SVGID_42_);}
	.st29{opacity:0.5;clip-path:url(#SVGID_44_);}
</style>
<g id="bases">
</g>
<g id="background">
</g>
<g id="Fotos_cortadas">
</g>
<g id="Logos">
	<g class="st12">
		<g id="_x3C_Radial_Repeat_x3E__26_">
			<g>
				<path class="st7" d="M277.7,615.4c1.8,0.4,3.6-0.8,4-2.6c0.4-1.8-0.8-3.6-2.6-4c-1.8-0.4-3.6,0.8-4,2.6
					C274.6,613.3,275.8,615,277.7,615.4z"/>
				<path class="st7" d="M220.8,603.8c1.8,0.4,3.6-0.8,4-2.6s-0.8-3.6-2.6-4c-1.8-0.4-3.6,0.8-4,2.6
					C217.8,601.7,219,603.5,220.8,603.8z"/>
				<path class="st7" d="M302.7,636.4c-1.8-0.4-3.6,0.8-4,2.6c-0.4,1.8,0.8,3.6,2.6,4c1.8,0.4,3.6-0.8,4-2.6
					C305.7,638.6,304.5,636.8,302.7,636.4z"/>
				<path class="st7" d="M242.6,624.2c-1.8-0.4-3.6,0.8-4,2.6s0.8,3.6,2.6,4c1.8,0.4,3.6-0.8,4-2.6S244.4,624.5,242.6,624.2z"/>
				<path class="st7" d="M207.9,630.9c-1,5.1,1.3,9.7,5.3,10.5c4,0.8,8-2.5,9-7.6c0.7-3.4-0.1-6.5-1.9-8.5l30.3-20l20.2,30.5
					c-2.3,1.2-4.2,3.7-4.8,7c-1,5.1,1.3,9.7,5.3,10.5s8-2.5,9-7.6c0.7-3.3-0.1-6.5-1.9-8.5l30.1-19.9l21.6,32.7l4.4-2.9L313,614.5
					c2.4-1.1,4.4-3.7,5.1-7.1c1-5.1-1.3-9.7-5.3-10.5s-8,2.5-9,7.6c-0.7,3.2,0,6.2,1.6,8.2l0.1,0.2l-30.4,20.1l-20-30.3
					c2.4-1.1,4.4-3.7,5-7.1c1-5.1-1.3-9.7-5.3-10.5c-4-0.8-8,2.5-9,7.6c-0.7,3.2,0.1,6.3,1.7,8.3l-34.3,22.7l0,0
					C210.8,624.7,208.6,627.3,207.9,630.9z M311.8,602c0.8,0.2,1.6,1.9,1.2,4.3c-0.5,2.3-2,3.6-2.8,3.5c-0.8-0.2-1.6-1.9-1.2-4.3
					C309.5,603.2,311,601.9,311.8,602z M214.2,636.2c-0.8-0.2-1.6-1.9-1.2-4.3c0.5-2.3,2-3.6,2.8-3.5c0.8,0.2,1.6,1.9,1.2,4.3
					C216.5,635.1,215,636.4,214.2,636.2z M272.3,648.1c-0.8-0.2-1.6-1.9-1.2-4.3c0.5-2.3,2-3.6,2.8-3.5c0.8,0.2,1.6,1.9,1.2,4.3
					C274.6,646.9,273.1,648.2,272.3,648.1z M253.9,590.2c0.8,0.2,1.6,1.9,1.2,4.3c-0.5,2.3-2,3.6-2.8,3.5c-0.8-0.2-1.6-1.9-1.2-4.3
					S253.1,590.1,253.9,590.2z"/>
			</g>
		</g>
		<g id="_x3C_Radial_Repeat_x3E__25_">
			<g>
				<path class="st7" d="M178.1,576.2c1.6,1,3.7,0.6,4.7-1c1-1.6,0.6-3.7-1-4.7c-1.6-1-3.7-0.6-4.7,1
					C176.1,573.1,176.5,575.2,178.1,576.2z"/>
				<path class="st7" d="M129.3,544.9c1.6,1,3.7,0.6,4.7-1c1-1.6,0.6-3.7-1-4.7c-1.6-1-3.7-0.6-4.7,1
					C127.3,541.8,127.7,543.9,129.3,544.9z"/>
				<path class="st7" d="M193.9,604.8c-1.6-1-3.7-0.6-4.7,1c-1,1.6-0.6,3.7,1,4.7c1.6,1,3.7,0.6,4.7-1
					C195.9,607.9,195.4,605.9,193.9,604.8z"/>
				<path class="st7" d="M142.3,571.7c-1.6-1-3.7-0.6-4.7,1c-1,1.6-0.6,3.7,1,4.7c1.6,1,3.7,0.6,4.7-1
					C144.3,574.8,143.8,572.7,142.3,571.7z"/>
				<path class="st7" d="M107.4,565.5c-2.8,4.4-2.3,9.5,1.1,11.7c3.4,2.2,8.3,0.5,11.1-3.8c1.8-2.9,2.2-6.1,1.3-8.6l35.5-7.7
					l7.8,35.7c-2.6,0.3-5.2,2-7,4.8c-2.8,4.4-2.3,9.5,1.1,11.7s8.3,0.5,11.1-3.8c1.8-2.9,2.2-6.1,1.3-8.6l35.3-7.7l8.4,38.3l5.2-1.1
					l-8.3-38.2c2.7-0.2,5.5-1.9,7.3-4.8c2.8-4.4,2.3-9.5-1.1-11.7c-3.4-2.2-8.3-0.5-11.1,3.8c-1.8,2.7-2.2,5.8-1.5,8.2l0.1,0.2
					l-35.6,7.8l-7.7-35.5c2.7-0.2,5.4-1.9,7.3-4.8c2.8-4.4,2.3-9.5-1.1-11.7c-3.4-2.2-8.3-0.5-11.1,3.8c-1.8,2.8-2.2,5.9-1.4,8.3
					l-40.2,8.8l0,0C112.4,560.7,109.4,562.4,107.4,565.5z M214.7,576.1c0.7,0.4,0.8,2.4-0.4,4.4c-1.3,2-3.1,2.7-3.8,2.2
					c-0.7-0.4-0.8-2.4,0.4-4.4C212.2,576.3,214.1,575.7,214.7,576.1z M111.4,572.7c-0.7-0.4-0.8-2.4,0.4-4.4c1.3-2,3.1-2.7,3.8-2.2
					c0.7,0.4,0.8,2.4-0.4,4.4C114,572.5,112.1,573.2,111.4,572.7z M161.3,604.8c-0.7-0.4-0.8-2.4,0.4-4.4c1.3-2,3.1-2.7,3.8-2.2
					s0.8,2.4-0.4,4.4C163.8,604.5,162,605.2,161.3,604.8z M165,544.2c0.7,0.4,0.8,2.4-0.4,4.4c-1.3,2-3.1,2.7-3.8,2.2
					c-0.7-0.4-0.8-2.4,0.4-4.4C162.5,544.4,164.3,543.7,165,544.2z"/>
			</g>
		</g>
		<g id="_x3C_Radial_Repeat_x3E__24_">
			<g>
				<path class="st7" d="M99.4,503.7c1.1,1.5,3.2,1.8,4.7,0.7c1.5-1.1,1.8-3.2,0.7-4.7c-1.1-1.5-3.2-1.8-4.7-0.7
					C98.6,500.1,98.3,502.2,99.4,503.7z"/>
				<path class="st7" d="M65.2,456.9c1.1,1.5,3.2,1.8,4.7,0.7s1.8-3.2,0.7-4.7c-1.1-1.5-3.2-1.8-4.7-0.7S64.1,455.4,65.2,456.9z"/>
				<path class="st7" d="M103.8,536.1c-1.1-1.5-3.2-1.8-4.7-0.7c-1.5,1.1-1.8,3.2-0.7,4.7c1.1,1.5,3.2,1.8,4.7,0.7
					C104.5,539.7,104.9,537.6,103.8,536.1z"/>
				<path class="st7" d="M67.6,486.6c-1.1-1.5-3.2-1.8-4.7-0.7s-1.8,3.2-0.7,4.7c1.1,1.5,3.2,1.8,4.7,0.7
					C68.4,490.2,68.7,488.1,67.6,486.6z"/>
				<path class="st7" d="M37.4,468.2c-4.2,3.1-5.6,8-3.2,11.3c2.4,3.3,7.6,3.5,11.8,0.4c2.8-2,4.3-4.9,4.3-7.5l35.9,5.6l-5.6,36.1
					c-2.5-0.7-5.6-0.1-8.3,1.9c-4.2,3.1-5.6,8-3.2,11.3s7.6,3.5,11.8,0.4c2.8-2,4.3-4.9,4.3-7.5l35.7,5.6l-6.1,38.7l5.2,0.8l6-38.6
					c2.6,0.8,5.8,0.2,8.6-1.8c4.2-3.1,5.6-8,3.2-11.3c-2.4-3.3-7.6-3.5-11.8-0.4c-2.6,1.9-4.2,4.6-4.3,7.1l0,0.2l-36-5.6l5.6-35.9
					c2.5,0.8,5.7,0.2,8.5-1.8c4.2-3.1,5.6-8,3.2-11.3c-2.4-3.3-7.6-3.5-11.8-0.4c-2.7,1.9-4.2,4.7-4.3,7.3l-40.6-6.3l0,0
					C43.7,465.5,40.3,466,37.4,468.2z M133.6,516.8c0.5,0.6-0.1,2.5-2,3.9c-1.9,1.4-3.9,1.4-4.4,0.7c-0.5-0.6,0.1-2.5,2-3.9
					C131.2,516.1,133.2,516.2,133.6,516.8z M38.5,476.4c-0.5-0.6,0.1-2.5,2-3.9c1.9-1.4,3.9-1.4,4.4-0.7c0.5,0.6-0.1,2.5-2,3.9
					C41,477.1,39,477,38.5,476.4z M73.5,524.3c-0.5-0.6,0.1-2.5,2-3.9c1.9-1.4,3.9-1.4,4.4-0.7c0.5,0.6-0.1,2.5-2,3.9
					C75.9,524.9,73.9,524.9,73.5,524.3z M98.8,469.1c0.5,0.6-0.1,2.5-2,3.9c-1.9,1.4-3.9,1.4-4.4,0.7c-0.5-0.6,0.1-2.5,2-3.9
					C96.3,468.4,98.3,468.5,98.8,469.1z"/>
			</g>
		</g>
		<g id="_x3C_Radial_Repeat_x3E__23_">
			<g>
				<path class="st7" d="M52.2,407.7c0.5,1.8,2.3,2.9,4.1,2.4s2.9-2.3,2.4-4.1c-0.5-1.8-2.3-2.9-4.1-2.4
					C52.8,404,51.7,405.9,52.2,407.7z"/>
				<path class="st7" d="M37.3,351.7c0.5,1.8,2.3,2.9,4.1,2.4c1.8-0.5,2.9-2.3,2.4-4.1c-0.5-1.8-2.3-2.9-4.1-2.4
					C37.9,348,36.8,349.9,37.3,351.7z"/>
				<path class="st7" d="M44.6,439.5c-0.5-1.8-2.3-2.9-4.1-2.4s-2.9,2.3-2.4,4.1c0.5,1.8,2.3,2.9,4.1,2.4
					C44,443.1,45.1,441.3,44.6,439.5z"/>
				<path class="st7" d="M28.8,380.2c-0.5-1.8-2.3-2.9-4.1-2.4c-1.8,0.5-2.9,2.3-2.4,4.1c0.5,1.8,2.3,2.9,4.1,2.4
					S29.3,382,28.8,380.2z"/>
				<path class="st7" d="M7.3,352.1c-5,1.3-8.1,5.5-7,9.4s5.8,6,10.8,4.7c3.3-0.9,5.8-3,6.8-5.5L49.2,379l-18.3,31.6
					c-2.1-1.5-5.2-2.1-8.4-1.2c-5,1.3-8.1,5.5-7,9.4s5.8,6,10.8,4.7c3.3-0.9,5.8-3,6.8-5.4l31.3,18.1l-19.6,33.9l4.6,2.7l19.6-33.8
					c2.1,1.7,5.3,2.3,8.7,1.4c5-1.3,8.1-5.5,7-9.4c-1.1-4-5.8-6-10.8-4.7c-3.1,0.8-5.5,2.8-6.6,5.1l-0.1,0.2l-31.5-18.2l18.2-31.4
					c2.1,1.6,5.3,2.2,8.6,1.4c5-1.3,8.1-5.5,7-9.4c-1.1-4-5.8-6-10.8-4.7c-3.2,0.9-5.6,2.8-6.7,5.2l-35.6-20.6l0,0
					C14.1,351.9,10.8,351.2,7.3,352.1z M79.4,432.3c0.2,0.8-1,2.3-3.3,3c-2.3,0.6-4.1-0.1-4.3-0.9s1-2.3,3.3-3
					C77.4,430.7,79.2,431.5,79.4,432.3z M5.3,360.2c-0.2-0.8,1-2.3,3.3-3c2.3-0.6,4.1,0.1,4.3,0.9c0.2,0.8-1,2.3-3.3,3
					C7.4,361.7,5.5,361,5.3,360.2z M20.6,417.5c-0.2-0.8,1-2.3,3.3-3c2.3-0.6,4.1,0.1,4.3,0.9c0.2,0.8-1,2.3-3.3,3
					C22.6,419,20.8,418.2,20.6,417.5z M64.2,375.2c0.2,0.8-1,2.3-3.3,3s-4.1-0.1-4.3-0.9s1-2.3,3.3-3S64,374.4,64.2,375.2z"/>
			</g>
		</g>
		<g id="_x3C_Radial_Repeat_x3E__22_">
			<g>
				<path class="st7" d="M42.9,301.1c-0.2,1.9,1.1,3.5,3,3.7s3.5-1.1,3.7-3c0.2-1.9-1.1-3.5-3-3.7C44.8,297.9,43.1,299.3,42.9,301.1
					z"/>
				<path class="st7" d="M49.2,243.5c-0.2,1.9,1.1,3.5,3,3.7c1.9,0.2,3.5-1.1,3.7-3c0.2-1.9-1.1-3.5-3-3.7
					C51.1,240.3,49.4,241.6,49.2,243.5z"/>
				<path class="st7" d="M24.3,328c0.2-1.9-1.1-3.5-3-3.7c-1.9-0.2-3.5,1.1-3.7,3c-0.2,1.9,1.1,3.5,3,3.7
					C22.5,331.2,24.1,329.8,24.3,328z"/>
				<path class="st7" d="M31,267c0.2-1.9-1.1-3.5-3-3.7c-1.9-0.2-3.5,1.1-3.7,3c-0.2,1.9,1.1,3.5,3,3.7
					C29.1,270.2,30.8,268.9,31,267z"/>
				<path class="st7" d="M21.1,233c-5.2-0.6-9.5,2.2-10,6.3c-0.4,4.1,3.2,7.7,8.4,8.3c3.4,0.4,6.5-0.7,8.3-2.6l22.7,28.3L22,296.1
					c-1.4-2.2-4.1-3.8-7.4-4.2c-5.2-0.6-9.5,2.2-10,6.3s3.2,7.7,8.4,8.3c3.4,0.4,6.4-0.7,8.3-2.6L43.9,332l-30.6,24.6l3.3,4.1
					l30.4-24.5c1.3,2.3,4.1,4.1,7.6,4.4c5.2,0.6,9.5-2.2,10-6.3c0.4-4.1-3.2-7.7-8.4-8.3c-3.2-0.4-6.2,0.6-8,2.4l-0.2,0.2
					l-22.8-28.4l28.3-22.7c1.4,2.3,4.1,4,7.5,4.4c5.2,0.6,9.5-2.2,10-6.3c0.4-4.1-3.2-7.7-8.4-8.3c-3.3-0.4-6.2,0.6-8.1,2.4
					l-25.7-32l0,0C27.6,235.3,24.7,233.4,21.1,233z M59.4,333.8c-0.1,0.8-1.8,1.8-4.1,1.6c-2.4-0.3-3.8-1.6-3.7-2.4
					c0.1-0.8,1.8-1.8,4.1-1.6C58,331.7,59.5,333.1,59.4,333.8z M16.3,239.9c0.1-0.8,1.8-1.8,4.1-1.6c2.4,0.3,3.8,1.6,3.7,2.4
					s-1.8,1.8-4.1,1.6C17.7,242,16.3,240.7,16.3,239.9z M9.9,298.8c0.1-0.8,1.8-1.8,4.1-1.6c2.4,0.3,3.8,1.6,3.7,2.4
					c-0.1,0.8-1.8,1.8-4.1,1.6C11.3,301,9.8,299.6,9.9,298.8z M65.8,275.1c-0.1,0.8-1.8,1.8-4.1,1.6s-3.8-1.6-3.7-2.4
					c0.1-0.8,1.8-1.8,4.1-1.6S65.9,274.3,65.8,275.1z"/>
			</g>
		</g>
		<g id="_x3C_Radial_Repeat_x3E__21_">
			<g>
				<path class="st7" d="M72.7,198.4c-0.9,1.7-0.2,3.7,1.4,4.6c1.7,0.9,3.7,0.2,4.6-1.4c0.9-1.7,0.2-3.7-1.4-4.6
					C75.6,196.1,73.6,196.7,72.7,198.4z"/>
				<path class="st7" d="M99.4,146.9c-0.9,1.7-0.2,3.7,1.4,4.6c1.7,0.9,3.7,0.2,4.6-1.4c0.9-1.7,0.2-3.7-1.4-4.6
					C102.3,144.6,100.3,145.2,99.4,146.9z"/>
				<path class="st7" d="M45.7,216.7c0.9-1.7,0.2-3.7-1.4-4.6s-3.7-0.2-4.6,1.4c-0.9,1.7-0.2,3.7,1.4,4.6
					C42.8,219,44.9,218.3,45.7,216.7z"/>
				<path class="st7" d="M73.9,162.3c0.9-1.7,0.2-3.7-1.4-4.6c-1.7-0.9-3.7-0.2-4.6,1.4c-0.9,1.7-0.2,3.7,1.4,4.6
					C71,164.6,73.1,163.9,73.9,162.3z"/>
				<path class="st7" d="M77,127c-4.6-2.4-9.7-1.4-11.6,2.2c-1.9,3.6,0.2,8.3,4.8,10.7c3,1.6,6.3,1.7,8.7,0.5l11,34.6l-34.8,11
					c-0.5-2.5-2.4-5-5.4-6.5c-4.6-2.4-9.7-1.4-11.6,2.2c-1.9,3.6,0.2,8.3,4.8,10.7c3,1.6,6.3,1.7,8.7,0.5l10.9,34.4l-37.4,11.9
					l1.6,5L64,232.6c0.4,2.7,2.4,5.3,5.4,6.9c4.6,2.4,9.7,1.4,11.6-2.2c1.9-3.6-0.2-8.3-4.8-10.7c-2.9-1.5-6-1.7-8.3-0.7l-0.2,0.1
					l-11-34.7l34.6-11c0.4,2.6,2.4,5.2,5.4,6.8c4.6,2.4,9.7,1.4,11.6-2.2c1.9-3.6-0.2-8.3-4.8-10.7c-2.9-1.5-6.1-1.7-8.4-0.6
					l-12.4-39.2l0,0C82.2,131.5,80.2,128.7,77,127z M76.3,234.8c-0.4,0.7-2.3,1.1-4.4,0c-2.1-1.1-2.9-2.9-2.6-3.6
					c0.4-0.7,2.3-1.1,4.4,0C75.8,232.3,76.6,234.1,76.3,234.8z M70.1,131.7c0.4-0.7,2.3-1.1,4.4,0c2.1,1.1,2.9,2.9,2.6,3.6
					c-0.4,0.7-2.3,1.1-4.4,0C70.6,134.2,69.7,132.4,70.1,131.7z M42.8,184.3c0.4-0.7,2.3-1.1,4.4,0c2.1,1.1,2.9,2.9,2.6,3.6
					c-0.4,0.7-2.3,1.1-4.4,0C43.3,186.8,42.4,185,42.8,184.3z M103.5,182.4c-0.4,0.7-2.3,1.1-4.4,0s-2.9-2.9-2.6-3.6
					c0.4-0.7,2.3-1.1,4.4,0C103,179.9,103.8,181.7,103.5,182.4z"/>
			</g>
		</g>
		<g id="_x3C_Radial_Repeat_x3E__20_">
			<g>
				<path class="st7" d="M137.7,113.3c-1.4,1.2-1.5,3.4-0.3,4.8s3.4,1.5,4.8,0.3c1.4-1.2,1.5-3.4,0.3-4.8
					C141.2,112.2,139.1,112.1,137.7,113.3z"/>
				<path class="st7" d="M181.2,75c-1.4,1.2-1.5,3.4-0.3,4.8c1.2,1.4,3.4,1.5,4.8,0.3c1.4-1.2,1.5-3.4,0.3-4.8
					C184.7,73.9,182.6,73.7,181.2,75z"/>
				<path class="st7" d="M105.9,120.6c1.4-1.2,1.5-3.4,0.3-4.8s-3.4-1.5-4.8-0.3c-1.4,1.2-1.5,3.4-0.3,4.8
					C102.3,121.7,104.5,121.9,105.9,120.6z"/>
				<path class="st7" d="M151.8,80.1c1.4-1.2,1.5-3.4,0.3-4.8c-1.2-1.4-3.4-1.5-4.8-0.3c-1.4,1.2-1.5,3.4-0.3,4.8
					C148.3,81.2,150.4,81.3,151.8,80.1z"/>
				<path class="st7" d="M167.4,48.3c-3.4-3.9-8.5-4.8-11.6-2.1c-3.1,2.7-2.8,7.9,0.6,11.8c2.3,2.6,5.2,3.8,7.9,3.6l-2.3,36.3
					l-36.5-2.3c0.4-2.6-0.5-5.6-2.7-8c-3.4-3.9-8.5-4.8-11.6-2.1c-3.1,2.7-2.8,7.9,0.6,11.8c2.3,2.6,5.2,3.8,7.9,3.6l-2.3,36
					l-39.1-2.5l-0.3,5.3l39,2.4c-0.6,2.6,0.3,5.8,2.6,8.4c3.4,3.9,8.5,4.8,11.6,2.1c3.1-2.7,2.8-7.9-0.6-11.8
					c-2.2-2.4-5-3.7-7.5-3.6l-0.2,0l2.3-36.3l36.2,2.3c-0.5,2.6,0.3,5.7,2.6,8.3c3.4,3.9,8.5,4.8,11.6,2.1c3.1-2.7,2.8-7.9-0.6-11.8
					c-2.2-2.5-5-3.7-7.6-3.6l2.6-41l0,0C170.6,54.4,169.8,51,167.4,48.3z M127.8,148.6c-0.6,0.5-2.5,0.1-4.1-1.6
					c-1.6-1.8-1.7-3.8-1.1-4.3c0.6-0.5,2.5-0.1,4.1,1.6C128.3,146.1,128.4,148.1,127.8,148.6z M159.3,50.2c0.6-0.5,2.5-0.1,4.1,1.6
					c1.6,1.8,1.7,3.8,1.1,4.3c-0.6,0.5-2.5,0.1-4.1-1.6C158.8,52.7,158.7,50.7,159.3,50.2z M114.9,89.4c0.6-0.5,2.5-0.1,4.1,1.6
					c1.6,1.8,1.7,3.8,1.1,4.3s-2.5,0.1-4.1-1.6C114.4,91.9,114.3,89.9,114.9,89.4z M172.1,109.5c-0.6,0.5-2.5,0.1-4.1-1.6
					c-1.6-1.8-1.7-3.8-1.1-4.3c0.6-0.5,2.5-0.1,4.1,1.6C172.6,107,172.7,109,172.1,109.5z"/>
			</g>
		</g>
		<g id="_x3C_Radial_Repeat_x3E__19_">
			<g>
				<path class="st7" d="M229,57.5c-1.8,0.6-2.6,2.6-2,4.3c0.6,1.8,2.6,2.6,4.3,2c1.8-0.6,2.6-2.6,2-4.3S230.7,56.8,229,57.5z"/>
				<path class="st7" d="M283.4,37.4c-1.8,0.6-2.6,2.6-2,4.3s2.6,2.6,4.3,2c1.8-0.6,2.6-2.6,2-4.3S285.1,36.8,283.4,37.4z"/>
				<path class="st7" d="M196.6,52.8c1.8-0.6,2.6-2.6,2-4.3s-2.6-2.6-4.3-2c-1.8,0.6-2.6,2.6-2,4.3S194.9,53.5,196.6,52.8z"/>
				<path class="st7" d="M254.2,31.6c1.8-0.6,2.6-2.6,2-4.3c-0.6-1.8-2.6-2.6-4.3-2c-1.8,0.6-2.6,2.6-2,4.3
					C250.5,31.4,252.4,32.2,254.2,31.6z"/>
				<path class="st7" d="M280.1,7.6c-1.8-4.9-6.2-7.6-10-6.1c-3.8,1.4-5.4,6.3-3.7,11.2c1.2,3.2,3.5,5.5,6.1,6.2l-15.2,33
					l-33.2-15.3c1.3-2.2,1.6-5.4,0.4-8.5c-1.8-4.9-6.2-7.6-10-6.1s-5.4,6.3-3.7,11.2c1.2,3.2,3.5,5.5,6,6.2l-15.1,32.8l-35.6-16.4
					l-2.2,4.8l35.5,16.4c-1.5,2.2-1.8,5.5-0.6,8.7c1.8,4.9,6.2,7.6,10,6.1c3.8-1.4,5.4-6.3,3.7-11.2c-1.1-3.1-3.3-5.3-5.7-6.1
					l-0.2-0.1l15.2-33l33,15.2c-1.4,2.2-1.7,5.5-0.6,8.7c1.8,4.9,6.2,7.6,10,6.1c3.8-1.4,5.4-6.3,3.7-11.2c-1.1-3.1-3.3-5.3-5.8-6.1
					l17.2-37.3l0,0C281,14.4,281.4,11,280.1,7.6z M207,86.8c-0.7,0.3-2.4-0.8-3.2-3c-0.8-2.2-0.2-4.1,0.5-4.4c0.7-0.3,2.4,0.8,3.2,3
					C208.3,84.6,207.7,86.5,207,86.8z M271.9,6.4c0.7-0.3,2.4,0.8,3.2,3c0.8,2.2,0.2,4.1-0.5,4.4c-0.7,0.3-2.4-0.8-3.2-3
					C270.6,8.6,271.2,6.7,271.9,6.4z M216.3,26.9c0.7-0.3,2.4,0.8,3.2,3c0.8,2.2,0.2,4.1-0.5,4.4c-0.7,0.3-2.4-0.8-3.2-3
					C215,29.1,215.6,27.2,216.3,26.9z M262.4,66.4c-0.7,0.3-2.4-0.8-3.2-3c-0.8-2.2-0.2-4.1,0.5-4.4c0.7-0.3,2.4,0.8,3.2,3
					S263.2,66.1,262.4,66.4z"/>
			</g>
		</g>
		<g id="_x3C_Radial_Repeat_x3E__18_">
			<g>
				<path class="st7" d="M334.2,38.4c-1.9,0-3.4,1.5-3.4,3.3s1.5,3.4,3.3,3.4c1.9,0,3.4-1.5,3.4-3.3
					C337.6,39.9,336.1,38.4,334.2,38.4z"/>
				<path class="st7" d="M392.2,39.3c-1.9,0-3.4,1.5-3.4,3.3c0,1.9,1.5,3.4,3.3,3.4c1.9,0,3.4-1.5,3.4-3.3
					C395.6,40.9,394.1,39.4,392.2,39.3z"/>
				<path class="st7" d="M305.8,22.4c1.9,0,3.4-1.5,3.4-3.3c0-1.9-1.5-3.4-3.3-3.4c-1.9,0-3.4,1.5-3.4,3.3
					C302.4,20.8,303.9,22.3,305.8,22.4z"/>
				<path class="st7" d="M367.1,23.4c1.9,0,3.4-1.5,3.4-3.3s-1.5-3.4-3.3-3.4c-1.9,0-3.4,1.5-3.4,3.3
					C363.7,21.8,365.2,23.3,367.1,23.4z"/>
				<path class="st7" d="M400,10.3c0.1-5.2-3.1-9.3-7.1-9.4s-7.4,3.9-7.4,9.1c-0.1,3.4,1.3,6.4,3.4,8l-26.1,25.3l-25.4-26.3
					c2-1.6,3.4-4.4,3.5-7.7c0.1-5.2-3.1-9.3-7.1-9.4s-7.4,3.9-7.4,9.1c-0.1,3.4,1.3,6.4,3.4,8l-25.9,25.1L276.3,14l-3.8,3.7
					l27.2,28.1c-2.2,1.5-3.7,4.5-3.7,7.9c-0.1,5.2,3.1,9.3,7.1,9.4c4.1,0.1,7.4-3.9,7.4-9.1c0.1-3.3-1.2-6.1-3.1-7.8l-0.2-0.2
					l26.2-25.3l25.3,26.1c-2.2,1.6-3.6,4.5-3.7,7.9c-0.1,5.2,3.1,9.3,7.1,9.4c4.1,0.1,7.4-3.9,7.4-9.1c0.1-3.3-1.2-6.2-3.2-7.8
					L396,18.5l0,0C398.3,17,399.9,14,400,10.3z M303.2,57.8c-0.8,0-2-1.6-1.9-4c0-2.4,1.3-3.9,2.1-3.9c0.8,0,2,1.6,1.9,4
					C305.2,56.2,304,57.8,303.2,57.8z M392.8,6.3c0.8,0,2,1.6,1.9,4c0,2.4-1.3,3.9-2.1,3.9s-2-1.6-1.9-4
					C390.7,7.8,392,6.3,392.8,6.3z M333.5,5.3c0.8,0,2,1.6,1.9,4c0,2.4-1.3,3.9-2.1,3.9s-2-1.6-1.9-4C331.5,6.8,332.7,5.3,333.5,5.3
					z M362.2,58.8c-0.8,0-2-1.6-1.9-4c0-2.4,1.3-3.9,2.1-3.9c0.8,0,2,1.6,1.9,4C364.3,57.2,363,58.8,362.2,58.8z"/>
			</g>
		</g>
		<g id="_x3C_Radial_Repeat_x3E__17_">
			<g>
				<path class="st7" d="M439.3,58.6c-1.7-0.7-3.7,0.1-4.4,1.9c-0.7,1.7,0.1,3.7,1.9,4.4c1.7,0.7,3.7-0.1,4.4-1.9
					C441.9,61.3,441,59.3,439.3,58.6z"/>
				<path class="st7" d="M493,80.4c-1.7-0.7-3.7,0.1-4.4,1.9c-0.7,1.7,0.1,3.7,1.9,4.4c1.7,0.7,3.7-0.1,4.4-1.9
					C495.6,83.1,494.8,81.1,493,80.4z"/>
				<path class="st7" d="M418.6,33.4c1.7,0.7,3.7-0.1,4.4-1.9c0.7-1.7-0.1-3.7-1.9-4.4c-1.7-0.7-3.7,0.1-4.4,1.9
					C416,30.7,416.8,32.7,418.6,33.4z"/>
				<path class="st7" d="M475.4,56.5c1.7,0.7,3.7-0.1,4.4-1.9c0.7-1.7-0.1-3.7-1.9-4.4c-1.7-0.7-3.7,0.1-4.4,1.9
					C472.8,53.8,473.6,55.8,475.4,56.5z"/>
				<path class="st7" d="M510.7,56.2c2-4.8,0.5-9.8-3.3-11.3c-3.8-1.5-8.3,1-10.2,5.8c-1.3,3.2-1.1,6.4,0.3,8.7L464,73.5l-14.2-33.7
					c2.5-0.7,4.8-2.9,6-6c2-4.8,0.5-9.8-3.3-11.3s-8.3,1-10.2,5.8c-1.3,3.2-1.1,6.4,0.3,8.7l-33.3,14L394.1,15l-4.9,2.1l15.2,36
					c-2.6,0.7-5,2.8-6.3,6.1c-2,4.8-0.5,9.8,3.3,11.3s8.3-1,10.2-5.8c1.2-3,1.1-6.1-0.1-8.4l-0.1-0.2l33.5-14.2L459,75.3
					c-2.6,0.7-5,2.9-6.3,6c-2,4.8-0.5,9.8,3.3,11.3s8.3-1,10.2-5.8c1.2-3.1,1.1-6.2-0.1-8.4l37.9-16l0,0
					C506.8,61.8,509.4,59.6,510.7,56.2z M403.3,65.5c-0.7-0.3-1.3-2.2-0.4-4.4c0.9-2.2,2.6-3.2,3.3-2.9c0.7,0.3,1.3,2.2,0.4,4.4
					C405.8,64.8,404.1,65.8,403.3,65.5z M505.5,49.8c0.7,0.3,1.3,2.2,0.4,4.4c-0.9,2.2-2.6,3.2-3.3,2.9c-0.7-0.3-1.3-2.2-0.4-4.4
					C503,50.5,504.7,49.5,505.5,49.8z M450.6,27.5c0.7,0.3,1.3,2.2,0.4,4.4c-0.9,2.2-2.6,3.2-3.3,2.9c-0.7-0.3-1.3-2.2-0.4-4.4
					C448.1,28.2,449.8,27.2,450.6,27.5z M458.1,87.7c-0.7-0.3-1.3-2.2-0.4-4.4s2.6-3.2,3.3-2.9c0.7,0.3,1.3,2.2,0.4,4.4
					S458.8,88,458.1,87.7z"/>
			</g>
		</g>
		<g id="_x3C_Radial_Repeat_x3E__16_">
			<g>
				<path class="st7" d="M530,115.4c-1.4-1.3-3.5-1.2-4.8,0.1s-1.2,3.5,0.1,4.8c1.4,1.3,3.5,1.2,4.8-0.1
					C531.4,118.8,531.3,116.7,530,115.4z"/>
				<path class="st7" d="M572.2,155.2c-1.4-1.3-3.5-1.2-4.8,0.1s-1.2,3.5,0.1,4.8c1.4,1.3,3.5,1.2,4.8-0.1S573.5,156.5,572.2,155.2z
					"/>
				<path class="st7" d="M519.7,84.4c1.4,1.3,3.5,1.2,4.8-0.1c1.3-1.4,1.2-3.5-0.1-4.8c-1.4-1.3-3.5-1.2-4.8,0.1
					C518.3,81,518.4,83.1,519.7,84.4z"/>
				<path class="st7" d="M564.4,126.4c1.4,1.3,3.5,1.2,4.8-0.1c1.3-1.4,1.2-3.5-0.1-4.8c-1.4-1.3-3.5-1.2-4.8,0.1
					C562.9,123,563,125.2,564.4,126.4z"/>
				<path class="st7" d="M597.5,139c3.6-3.8,4-8.9,1-11.7c-3-2.8-8.1-2.1-11.7,1.7c-2.3,2.5-3.3,5.6-2.9,8.2l-36.3,1.1l-1.1-36.5
					c2.6,0.2,5.5-1,7.8-3.4c3.6-3.8,4-8.9,1-11.7c-3-2.8-8.1-2-11.7,1.7c-2.3,2.5-3.3,5.6-2.9,8.2l-36.1,1.1l-1.2-39.2l-5.3,0.2
					l1.2,39c-2.7-0.3-5.7,0.8-8.1,3.4c-3.6,3.8-4,8.9-1,11.7c3,2.8,8.1,2.1,11.7-1.7c2.2-2.4,3.2-5.3,2.9-7.8l0-0.2l36.4-1.1
					l1.1,36.3c-2.6-0.3-5.7,0.9-8,3.4c-3.6,3.8-4,8.9-1,11.7c3,2.8,8.1,2,11.6-1.7c2.3-2.4,3.3-5.4,2.9-7.9l41.1-1.2l0,0
					C591.7,142.8,595,141.6,597.5,139z M493.9,108.8c-0.6-0.5-0.4-2.5,1.2-4.2c1.6-1.7,3.6-2,4.2-1.5c0.6,0.5,0.4,2.5-1.2,4.2
					C496.5,109,494.5,109.4,493.9,108.8z M594.9,131.1c0.6,0.5,0.4,2.5-1.2,4.2c-1.6,1.7-3.6,2-4.2,1.5c-0.6-0.5-0.4-2.5,1.2-4.2
					C592.3,130.9,594.3,130.6,594.9,131.1z M551.7,90.5c0.6,0.5,0.4,2.5-1.2,4.2c-1.6,1.7-3.6,2-4.2,1.5s-0.4-2.5,1.2-4.2
					C549.2,90.2,551.1,89.9,551.7,90.5z M536.9,149.3c-0.6-0.5-0.4-2.5,1.2-4.2c1.6-1.7,3.6-2,4.2-1.5c0.6,0.5,0.4,2.5-1.2,4.2
					C539.5,149.6,537.5,149.9,536.9,149.3z"/>
			</g>
		</g>
		<g id="_x3C_Radial_Repeat_x3E__15_">
			<g>
				<path class="st7" d="M594,201.1c-0.8-1.7-2.8-2.4-4.5-1.6c-1.7,0.8-2.4,2.8-1.6,4.5c0.8,1.7,2.8,2.4,4.5,1.6
					C594.1,204.8,594.8,202.8,594,201.1z"/>
				<path class="st7" d="M619,253.5c-0.8-1.7-2.8-2.4-4.5-1.6c-1.7,0.8-2.4,2.8-1.6,4.5c0.8,1.7,2.8,2.4,4.5,1.6
					C619.1,257.2,619.8,255.1,619,253.5z"/>
				<path class="st7" d="M595.7,168.5c0.8,1.7,2.8,2.4,4.5,1.6c1.7-0.8,2.4-2.8,1.6-4.5c-0.8-1.7-2.8-2.4-4.5-1.6
					C595.6,164.8,594.8,166.8,595.7,168.5z"/>
				<path class="st7" d="M622.1,223.8c0.8,1.7,2.8,2.4,4.5,1.6c1.7-0.8,2.4-2.8,1.6-4.5c-0.8-1.7-2.8-2.4-4.5-1.6
					C622,220.1,621.3,222.2,622.1,223.8z"/>
				<path class="st7" d="M648.4,247.5c4.7-2.2,7-6.9,5.2-10.6s-6.8-4.8-11.5-2.6c-3.1,1.5-5.1,4-5.6,6.6l-34.3-12.1l12.2-34.5
					c2.3,1.1,5.5,1.1,8.5-0.4c4.7-2.2,7-6.9,5.2-10.6c-1.8-3.7-6.8-4.8-11.5-2.6c-3.1,1.5-5.1,4-5.6,6.6l-34-12l13.1-37l-5-1.8
					l-13,36.8c-2.4-1.3-5.6-1.3-8.8,0.2c-4.7,2.2-7,6.9-5.2,10.6s6.8,4.8,11.5,2.6c2.9-1.4,4.9-3.8,5.6-6.2l0.1-0.2l34.3,12.1
					l-12.1,34.2c-2.4-1.2-5.6-1.2-8.7,0.2c-4.7,2.2-7,6.9-5.2,10.6s6.8,4.8,11.5,2.6c3-1.4,5-3.8,5.6-6.3l38.8,13.7l0,0
					C641.7,249,645.1,249.1,648.4,247.5z M562.8,182c-0.3-0.7,0.6-2.5,2.7-3.5c2.1-1,4.1-0.6,4.4,0.1c0.3,0.7-0.6,2.5-2.7,3.5
					C565,183.1,563.1,182.7,562.8,182z M648.8,239.2c0.3,0.7-0.6,2.5-2.7,3.5c-2.1,1-4.1,0.6-4.4-0.1c-0.3-0.7,0.6-2.5,2.7-3.5
					C646.5,238.1,648.5,238.5,648.8,239.2z M623.3,185.7c0.3,0.7-0.6,2.5-2.7,3.5c-2.1,1-4.1,0.6-4.4-0.1c-0.3-0.7,0.6-2.5,2.7-3.5
					C621,184.6,622.9,185,623.3,185.7z M588.2,235.3c-0.3-0.7,0.6-2.5,2.7-3.5s4.1-0.6,4.4,0.1c0.3,0.7-0.6,2.5-2.7,3.5
					C590.5,236.4,588.6,236,588.2,235.3z"/>
			</g>
		</g>
		<g id="_x3C_Radial_Repeat_x3E__14_">
			<g>
				<path class="st7" d="M622.7,304.2c-0.1-1.9-1.8-3.3-3.6-3.1c-1.9,0.1-3.3,1.8-3.1,3.6c0.1,1.9,1.8,3.3,3.6,3.1
					S622.9,306.1,622.7,304.2z"/>
				<path class="st7" d="M627.1,362c-0.1-1.9-1.8-3.3-3.6-3.1c-1.9,0.1-3.3,1.8-3.1,3.6s1.8,3.3,3.6,3.1S627.3,363.9,627.1,362z"/>
				<path class="st7" d="M636.1,274.4c0.1,1.9,1.8,3.3,3.6,3.1c1.9-0.1,3.3-1.8,3.1-3.6c-0.1-1.9-1.8-3.3-3.6-3.1
					C637.3,270.9,635.9,272.5,636.1,274.4z"/>
				<path class="st7" d="M640.7,335.5c0.1,1.9,1.8,3.3,3.6,3.1c1.9-0.1,3.3-1.8,3.1-3.6c-0.1-1.9-1.8-3.3-3.6-3.1
					S640.6,333.7,640.7,335.5z"/>
				<path class="st7" d="M656.7,367.1c5.2-0.4,9-3.9,8.7-8s-4.6-7-9.8-6.6c-3.4,0.3-6.2,1.9-7.6,4.1L620.4,333l23.8-27.7
					c1.8,1.9,4.7,3,8,2.7c5.2-0.4,9-3.9,8.7-8s-4.6-7-9.8-6.6c-3.4,0.3-6.2,1.9-7.6,4.1L616.1,274l25.5-29.8l-4-3.4l-25.4,29.6
					c-1.7-2-4.8-3.2-8.2-3c-5.2,0.4-9,3.9-8.7,8c0.3,4.1,4.6,7,9.8,6.6c3.2-0.2,6-1.7,7.4-3.8l0.2-0.2l27.6,23.7l-23.7,27.6
					c-1.8-2-4.8-3.2-8.2-2.9c-5.2,0.4-9,3.9-8.7,8s4.6,7,9.8,6.6c3.3-0.3,6-1.8,7.5-3.9l31.2,26.8l0,0
					C649.9,366,653.1,367.4,656.7,367.1z M600.5,275.1c-0.1-0.8,1.4-2.1,3.8-2.3c2.4-0.2,4,0.9,4.1,1.7c0.1,0.8-1.4,2.1-3.8,2.3
					C602.2,276.9,600.6,275.8,600.5,275.1z M660.1,359.5c0.1,0.8-1.4,2.1-3.8,2.3c-2.4,0.2-4-0.9-4.1-1.7s1.4-2.1,3.8-2.3
					C658.4,357.6,660,358.7,660.1,359.5z M655.6,300.4c0.1,0.8-1.4,2.1-3.8,2.3c-2.4,0.2-4-0.9-4.1-1.7s1.4-2.1,3.8-2.3
					C653.9,298.5,655.5,299.6,655.6,300.4z M605,334c-0.1-0.8,1.4-2.1,3.8-2.3c2.4-0.2,4,0.9,4.1,1.7c0.1,0.8-1.4,2.1-3.8,2.3
					C606.7,335.8,605.1,334.8,605,334z"/>
			</g>
		</g>
		<g id="_x3C_Radial_Repeat_x3E__13_">
			<g>
				<path class="st7" d="M612.3,410.7c0.5-1.8-0.5-3.7-2.3-4.2s-3.7,0.5-4.2,2.3c-0.5,1.8,0.5,3.7,2.3,4.2S611.7,412.5,612.3,410.7z
					"/>
				<path class="st7" d="M595.5,466.2c0.5-1.8-0.5-3.7-2.3-4.2s-3.7,0.5-4.2,2.3c-0.5,1.8,0.5,3.7,2.3,4.2
					C593.1,469,595,468,595.5,466.2z"/>
				<path class="st7" d="M635.5,387.7c-0.5,1.8,0.5,3.7,2.3,4.2c1.8,0.5,3.7-0.5,4.2-2.3c0.5-1.8-0.5-3.7-2.3-4.2
					S636,385.9,635.5,387.7z"/>
				<path class="st7" d="M617.7,446.4c-0.5,1.8,0.5,3.7,2.3,4.2s3.7-0.5,4.2-2.3c0.5-1.8-0.5-3.7-2.3-4.2
					C620.2,443.6,618.3,444.6,617.7,446.4z"/>
				<path class="st7" d="M621.3,481.6c5,1.5,9.8-0.4,11-4.3c1.2-3.9-1.8-8.2-6.7-9.7c-3.3-1-6.5-0.5-8.6,1.1l-17.2-32l32.2-17.3
					c1,2.4,3.3,4.5,6.5,5.4c5,1.5,9.8-0.4,11-4.3c1.2-3.9-1.8-8.2-6.7-9.7c-3.3-1-6.5-0.5-8.6,1.1L617,380.1l34.6-18.5L649,357
					l-34.4,18.4c-0.9-2.5-3.3-4.8-6.6-5.8c-5-1.5-9.8,0.4-11,4.3s1.8,8.2,6.7,9.7c3.1,0.9,6.2,0.5,8.3-0.9l0.2-0.1l17.2,32.1
					l-32,17.2c-0.9-2.5-3.3-4.7-6.6-5.7c-5-1.5-9.8,0.4-11,4.3c-1.2,3.9,1.8,8.2,6.7,9.7c3.2,1,6.3,0.5,8.4-0.9l19.4,36.2l0,0
					C615.3,478.2,617.8,480.6,621.3,481.6z M602.1,375.5c0.2-0.8,2.1-1.5,4.4-0.8c2.3,0.7,3.4,2.3,3.2,3.1c-0.2,0.8-2.1,1.5-4.4,0.8
					C603,377.9,601.9,376.3,602.1,375.5z M627.2,475.8c-0.2,0.8-2.1,1.5-4.4,0.8c-2.3-0.7-3.4-2.3-3.2-3.1c0.2-0.8,2.1-1.5,4.4-0.8
					C626.2,473.4,627.4,475,627.2,475.8z M644.3,419c-0.2,0.8-2.1,1.5-4.4,0.8c-2.3-0.7-3.4-2.3-3.2-3.1c0.2-0.8,2.1-1.5,4.4-0.8
					C643.4,416.7,644.5,418.3,644.3,419z M585,432c0.2-0.8,2.1-1.5,4.4-0.8c2.3,0.7,3.4,2.3,3.2,3.1c-0.2,0.8-2.1,1.5-4.4,0.8
					C585.9,434.4,584.8,432.8,585,432z"/>
			</g>
		</g>
		<g id="_x3C_Radial_Repeat_x3E__12_">
			<g>
				<path class="st7" d="M564.1,506.2c1.1-1.5,0.9-3.6-0.6-4.7c-1.5-1.1-3.6-0.9-4.7,0.6c-1.1,1.5-0.9,3.6,0.6,4.7
					C560.8,507.9,562.9,507.7,564.1,506.2z"/>
				<path class="st7" d="M528.4,551.9c1.1-1.5,0.9-3.6-0.6-4.7s-3.6-0.9-4.7,0.6s-0.9,3.6,0.6,4.7
					C525.1,553.6,527.2,553.4,528.4,551.9z"/>
				<path class="st7" d="M594,493.2c-1.1,1.5-0.9,3.6,0.6,4.7s3.6,0.9,4.7-0.6c1.1-1.5,0.9-3.6-0.6-4.7S595.2,491.7,594,493.2z"/>
				<path class="st7" d="M556.3,541.5c-1.1,1.5-0.9,3.6,0.6,4.7c1.5,1.1,3.6,0.9,4.7-0.6c1.1-1.5,0.9-3.6-0.6-4.7
					C559.5,539.7,557.4,540,556.3,541.5z"/>
				<path class="st7" d="M546.8,575.6c4.1,3.2,9.3,3.2,11.8-0.1c2.5-3.2,1.3-8.3-2.8-11.4c-2.7-2.1-5.9-2.8-8.4-2.1l-4.4-36.1
					l36.3-4.5c0,2.6,1.5,5.4,4.1,7.4c4.1,3.2,9.3,3.2,11.8-0.1c2.5-3.2,1.3-8.3-2.8-11.4c-2.7-2.1-5.8-2.8-8.4-2.1l-4.4-35.8
					l38.9-4.8l-0.6-5.3l-38.8,4.8c0.1-2.7-1.4-5.6-4.1-7.8c-4.1-3.2-9.3-3.2-11.8,0.1c-2.5,3.2-1.3,8.3,2.8,11.4
					c2.6,2,5.6,2.7,8.1,2.2l0.2,0l4.4,36.1l-36,4.4c0.1-2.7-1.4-5.6-4.1-7.7c-4.1-3.2-9.3-3.2-11.8,0.1c-2.5,3.2-1.3,8.3,2.8,11.4
					c2.6,2,5.6,2.8,8.2,2.2l5,40.8l0,0C542.5,570.2,544,573.4,546.8,575.6z M567.3,469.7c0.5-0.6,2.5-0.6,4.3,0.9
					c1.9,1.5,2.4,3.4,1.9,4s-2.5,0.6-4.3-0.8C567.3,472.3,566.8,470.3,567.3,469.7z M554.4,572.3c-0.5,0.6-2.5,0.6-4.3-0.9
					c-1.9-1.5-2.4-3.4-1.9-4c0.5-0.6,2.5-0.6,4.3,0.8C554.4,569.7,554.9,571.6,554.4,572.3z M590.9,525.6c-0.5,0.6-2.5,0.6-4.3-0.9
					c-1.9-1.5-2.4-3.4-1.9-4c0.5-0.6,2.5-0.6,4.3,0.9C590.9,523,591.4,524.9,590.9,525.6z M530.9,516.3c0.5-0.6,2.5-0.6,4.3,0.8
					c1.9,1.5,2.4,3.4,1.9,4c-0.5,0.6-2.5,0.6-4.3-0.9C530.9,518.8,530.4,516.9,530.9,516.3z"/>
			</g>
		</g>
		<g id="_x3C_Radial_Repeat_x3E__11_">
			<g>
				<path class="st7" d="M484.6,577.9c1.6-1,2.1-3,1.2-4.6c-1-1.6-3-2.1-4.6-1.2c-1.6,1-2.1,3-1.2,4.6S483,578.8,484.6,577.9z"/>
				<path class="st7" d="M434.8,607.6c1.6-1,2.1-3,1.2-4.6c-1-1.6-3-2.1-4.6-1.2c-1.6,1-2.1,3-1.2,4.6
					C431.2,608,433.2,608.5,434.8,607.6z"/>
				<path class="st7" d="M517.3,576.5c-1.6,1-2.1,3-1.2,4.6s3,2.1,4.6,1.2c1.6-1,2.1-3,1.2-4.6S518.9,575.6,517.3,576.5z"/>
				<path class="st7" d="M464.6,607.9c-1.6,1-2.1,3-1.2,4.6s3,2.1,4.6,1.2c1.6-1,2.1-3,1.2-4.6S466.2,607,464.6,607.9z"/>
				<path class="st7" d="M443.5,636.3c2.7,4.5,7.5,6.3,11,4.2c3.5-2.1,4.2-7.2,1.5-11.7c-1.8-2.9-4.5-4.7-7.1-5l8.9-35.2l35.4,8.9
					c-0.9,2.4-0.6,5.6,1.1,8.4c2.7,4.5,7.5,6.3,11,4.2c3.5-2.1,4.2-7.2,1.5-11.7c-1.7-2.9-4.4-4.7-7.1-5l8.8-35l38,9.6l1.3-5.1
					l-37.9-9.6c1-2.5,0.8-5.7-1-8.7c-2.7-4.5-7.5-6.3-11-4.2s-4.2,7.2-1.5,11.7c1.7,2.8,4.2,4.6,6.7,5l0.2,0.1l-8.9,35.3l-35.2-8.9
					c1-2.5,0.7-5.7-1-8.6c-2.7-4.5-7.5-6.3-11-4.2c-3.5,2.1-4.2,7.2-1.5,11.7c1.7,2.8,4.3,4.6,6.8,5l-10.1,39.9l0,0
					C441.4,629.8,441.6,633.2,443.5,636.3z M500.8,545c0.7-0.4,2.5,0.3,3.7,2.4c1.2,2,1,4,0.3,4.4c-0.7,0.4-2.5-0.3-3.7-2.4
					C499.9,547.4,500.1,545.4,500.8,545z M451.8,636c-0.7,0.4-2.5-0.3-3.7-2.4c-1.2-2-1-4-0.3-4.4c0.7-0.4,2.5,0.3,3.7,2.4
					C452.7,633.6,452.5,635.6,451.8,636z M502.7,605.6c-0.7,0.4-2.5-0.3-3.7-2.4c-1.2-2-1-4-0.3-4.4c0.7-0.4,2.5,0.3,3.7,2.4
					C503.6,603.2,503.4,605.2,502.7,605.6z M450.1,575.3c0.7-0.4,2.5,0.3,3.7,2.4s1,4,0.3,4.4c-0.7,0.4-2.5-0.3-3.7-2.4
					C449.2,577.7,449.4,575.7,450.1,575.3z"/>
			</g>
		</g>
		<g id="_x3C_Radial_Repeat_x3E__10_">
			<g>
				<path class="st7" d="M384.7,616c1.8-0.3,3.1-2.1,2.8-3.9c-0.3-1.8-2.1-3.1-3.9-2.8c-1.8,0.3-3.1,2.1-2.8,3.9
					C381.1,615.1,382.8,616.3,384.7,616z"/>
				<path class="st7" d="M327.5,625.7c1.8-0.3,3.1-2.1,2.8-3.9c-0.3-1.8-2.1-3.1-3.9-2.8c-1.8,0.3-3.1,2.1-2.8,3.9
					S325.6,626,327.5,625.7z"/>
				<path class="st7" d="M415.6,626.5c-1.8,0.3-3.1,2.1-2.8,3.9c0.3,1.8,2.1,3.1,3.9,2.8c1.8-0.3,3.1-2.1,2.8-3.9
					C419.2,627.4,417.4,626.2,415.6,626.5z"/>
				<path class="st7" d="M355.1,636.8c-1.8,0.3-3.1,2.1-2.8,3.9c0.3,1.8,2.1,3.1,3.9,2.8c1.8-0.3,3.1-2.1,2.8-3.9
					C358.7,637.7,357,636.5,355.1,636.8z"/>
				<path class="st7" d="M325.2,655.6c0.9,5.1,4.7,8.6,8.7,7.9s6.5-5.2,5.6-10.3c-0.6-3.4-2.4-6-4.8-7.2l21-29.6l29.8,21.1
					c-1.7,1.9-2.5,5-2,8.2c0.9,5.1,4.7,8.6,8.7,7.9s6.5-5.2,5.6-10.3c-0.6-3.4-2.4-6-4.8-7.2l20.9-29.5l32,22.7l3.1-4.3l-31.8-22.6
					c1.9-1.9,2.8-5.1,2.2-8.5c-0.9-5.1-4.7-8.6-8.7-7.9s-6.5,5.2-5.6,10.3c0.5,3.2,2.3,5.8,4.5,7.1l0.2,0.1l-21.1,29.7l-29.6-21
					c1.8-1.9,2.7-5,2.1-8.4c-0.9-5.1-4.7-8.6-8.7-7.9c-4,0.7-6.5,5.2-5.6,10.3c0.6,3.3,2.3,5.8,4.6,7.1l-23.8,33.5l0,0
					C325.6,648.8,324.6,652.1,325.2,655.6z M411.6,591.2c0.8-0.1,2.2,1.2,2.6,3.6c0.4,2.3-0.5,4.1-1.3,4.2c-0.8,0.1-2.2-1.2-2.6-3.6
					C409.9,593.1,410.8,591.3,411.6,591.2z M333,658.3c-0.8,0.1-2.2-1.2-2.6-3.6c-0.4-2.3,0.5-4.1,1.3-4.2c0.8-0.1,2.2,1.2,2.6,3.6
					C334.7,656.4,333.8,658.2,333,658.3z M391.5,648.4c-0.8,0.1-2.2-1.2-2.6-3.6c-0.4-2.3,0.5-4.1,1.3-4.2c0.8-0.1,2.2,1.2,2.6,3.6
					C393.2,646.5,392.2,648.2,391.5,648.4z M353.4,601.1c0.8-0.1,2.2,1.2,2.6,3.6c0.4,2.3-0.5,4.1-1.3,4.2c-0.8,0.1-2.2-1.2-2.6-3.6
					S352.6,601.2,353.4,601.1z"/>
			</g>
		</g>
	</g>
</g>
<g id="Texto">
</g>
</svg>
