<?xml version="1.0" encoding="utf-8"?>
<!-- Generator: Adobe Illustrator 24.0.1, SVG Export Plug-In . SVG Version: 6.00 Build 0)  -->
<svg version="1.1" xmlns="http://www.w3.org/2000/svg" xmlns:xlink="http://www.w3.org/1999/xlink" x="0px" y="0px"
	 viewBox="0 0 415.2 130.7" style="enable-background:new 0 0 415.2 130.7;" xml:space="preserve">
<style type="text/css">
	.st0{fill:#D1A942;}
	.st1{fill:#4F722D;}
	.st2{opacity:0.7;fill:#FFFFFF;}
	.st3{opacity:0.62;}
	.st4{fill:none;stroke:#E5661D;stroke-width:4;stroke-miterlimit:10;}
	.st5{fill:none;stroke:#4F722D;stroke-width:4;stroke-miterlimit:10;}
	.st6{opacity:0.47;clip-path:url(#SVGID_18_);}
	.st7{fill:#FFFFFF;}
	.st8{opacity:0.5;clip-path:url(#SVGID_20_);}
	.st9{fill:none;stroke:#FFFFFF;stroke-miterlimit:10;}
	.st10{fill:none;stroke:#FFFFFF;stroke-width:4.885;stroke-miterlimit:10;}
	.st11{fill:none;stroke:#FFFFFF;stroke-width:2.1479;stroke-miterlimit:10;}
	.st12{opacity:0.47;}
	.st13{opacity:0.5;}
	.st14{fill:none;}
	.st15{fill:none;stroke:#063916;stroke-width:4;stroke-miterlimit:10;}
	.st16{opacity:0.47;clip-path:url(#SVGID_22_);}
	.st17{opacity:0.5;clip-path:url(#SVGID_24_);}
	.st18{opacity:0.5;clip-path:url(#SVGID_26_);}
	.st19{fill:none;stroke:#FFFFFF;stroke-width:4.7196;stroke-miterlimit:10;}
	.st20{opacity:0.5;clip-path:url(#SVGID_28_);}
	.st21{fill:none;stroke:#FFFEFD;stroke-width:3.4965;stroke-linecap:round;stroke-linejoin:round;stroke-miterlimit:10;}
	.st22{fill:none;stroke:#FFFEFD;stroke-width:3.4965;stroke-linejoin:round;stroke-miterlimit:10;}
	.st23{fill:none;stroke:#FFFEFD;stroke-width:4.4946;stroke-linejoin:round;stroke-miterlimit:10;}
	.st24{opacity:0.5;clip-path:url(#SVGID_34_);}
	.st25{opacity:0.5;clip-path:url(#SVGID_36_);}
	.st26{opacity:0.47;clip-path:url(#SVGID_38_);}
	.st27{opacity:0.5;clip-path:url(#SVGID_40_);}
	.st28{opacity:0.5;clip-path:url(#SVGID_42_);}
	.st29{opacity:0.5;clip-path:url(#SVGID_44_);}
</style>
<g id="bases">
</g>
<g id="background">
</g>
<g id="Fotos_cortadas">
</g>
<g id="Logos">
	<g id="Grupo_2018_1_" transform="translate(-351.772 2473.375)">
		<g id="Grupo_780_1_" transform="translate(947.937 302.956)">
			<g id="Grupo_779_1_">
				<path id="Trazado_2503_1_" class="st4" d="M-542.8-2648.8l-50.7-62.2l50.7-62.2l50.7,62.2L-542.8-2648.8z"/>
				<path id="Trazado_2504_1_" class="st4" d="M-542.8-2679.5l-25.7-31.5l25.7-31.5l25.7,31.5L-542.8-2679.5z"/>
				<g id="Trazado_2505_1_" transform="translate(-947.881 -302.888)">
					<path class="st4" d="M405-2395.9l-9.9-12.2l9.9-12.2l9.9,12.2L405-2395.9z"/>
					<path class="st4" d="M405-2407.1l0.8-1l-0.8-1l-0.8,1L405-2407.1 M405-2395.9l-9.9-12.2l9.9-12.2l9.9,12.2L405-2395.9z"/>
				</g>
				<line id="Línea_47_1_" class="st4" x1="-593.6" y1="-2711" x2="-494.4" y2="-2711"/>
			</g>
		</g>
		<g id="Grupo_782_1_" transform="translate(991.785 302.956)">
			<g id="Grupo_781_1_">
				<path id="Trazado_2506_1_" class="st4" d="M-483.2-2648.8l-50.7-62.2l50.7-62.2l50.7,62.2L-483.2-2648.8z"/>
				<path id="Trazado_2507_1_" class="st4" d="M-483.2-2679.5l-25.7-31.5l25.7-31.5l25.7,31.5L-483.2-2679.5z"/>
				<g id="Trazado_2508_1_" transform="translate(-991.588 -302.888)">
					<path class="st4" d="M508.4-2395.9l-9.9-12.2l9.9-12.2l9.9,12.2L508.4-2395.9z"/>
					<path class="st4" d="M508.4-2407.1l0.8-1l-0.8-1l-0.8,1L508.4-2407.1 M508.4-2395.9l-9.9-12.2l9.9-12.2l9.9,12.2L508.4-2395.9z
						"/>
				</g>
				<line id="Línea_48_1_" class="st4" x1="-533.9" y1="-2711" x2="-434.7" y2="-2711"/>
			</g>
		</g>
		<g id="Grupo_784_1_" transform="translate(1034.772 302.956)">
			<g id="Grupo_783_1_">
				<path id="Trazado_2509_1_" class="st4" d="M-424.6-2648.8l-50.7-62.2l50.7-62.2l50.7,62.2L-424.6-2648.8z"/>
				<path id="Trazado_2510_1_" class="st4" d="M-424.6-2679.5l-25.7-31.5l25.7-31.5l25.7,31.5L-424.6-2679.5z"/>
				<g id="Trazado_2511_1_" transform="translate(-1034.437 -302.888)">
					<path class="st4" d="M609.8-2395.9l-9.9-12.2l9.9-12.2l9.9,12.2L609.8-2395.9z"/>
					<path class="st4" d="M609.8-2407.1l0.8-1l-0.8-1l-0.8,1L609.8-2407.1 M609.8-2395.9l-9.9-12.2l9.9-12.2l9.9,12.2L609.8-2395.9z
						"/>
				</g>
				<line id="Línea_49_1_" class="st4" x1="-475.4" y1="-2711" x2="-376.2" y2="-2711"/>
			</g>
		</g>
		<g id="Grupo_786_1_" transform="translate(1078.62 302.956)">
			<g id="Grupo_785_1_">
				<path id="Trazado_2512_1_" class="st4" d="M-365-2648.8l-50.7-62.2l50.7-62.2l50.7,62.2L-365-2648.8z"/>
				<path id="Trazado_2513_1_" class="st4" d="M-365-2679.5l-25.7-31.5l25.7-31.5l25.7,31.5L-365-2679.5z"/>
				<g id="Trazado_2514_1_" transform="translate(-1078.144 -302.888)">
					<path class="st4" d="M713.2-2395.9l-9.9-12.2l9.9-12.2l9.9,12.2L713.2-2395.9z"/>
					<path class="st4" d="M713.2-2407.1l0.8-1l-0.8-1l-0.8,1L713.2-2407.1 M713.2-2395.9l-9.9-12.2l9.9-12.2l9.9,12.2L713.2-2395.9z
						"/>
				</g>
				<line id="Línea_50_1_" class="st4" x1="-415.7" y1="-2711" x2="-316.5" y2="-2711"/>
			</g>
		</g>
	</g>
</g>
<g id="Texto">
</g>
</svg>
