<?xml version="1.0" encoding="utf-8"?>
<!-- Generator: Adobe Illustrator 24.0.1, SVG Export Plug-In . SVG Version: 6.00 Build 0)  -->
<svg version="1.1" xmlns="http://www.w3.org/2000/svg" xmlns:xlink="http://www.w3.org/1999/xlink" x="0px" y="0px"
	 viewBox="0 0 689.7 689.7" style="enable-background:new 0 0 689.7 689.7;" xml:space="preserve">
<style type="text/css">
	.st0{fill:#D1A942;}
	.st1{fill:#4F722D;}
	.st2{opacity:0.7;fill:#FFFFFF;}
	.st3{opacity:0.62;}
	.st4{fill:none;stroke:#E5661D;stroke-width:4;stroke-miterlimit:10;}
	.st5{fill:none;stroke:#4F722D;stroke-width:4;stroke-miterlimit:10;}
	.st6{opacity:0.47;clip-path:url(#SVGID_18_);}
	.st7{fill:#FFFFFF;}
	.st8{opacity:0.5;clip-path:url(#SVGID_20_);}
	.st9{fill:none;stroke:#FFFFFF;stroke-miterlimit:10;}
	.st10{fill:none;stroke:#FFFFFF;stroke-width:4.885;stroke-miterlimit:10;}
	.st11{fill:none;stroke:#FFFFFF;stroke-width:2.1479;stroke-miterlimit:10;}
	.st12{opacity:0.47;}
	.st13{opacity:0.5;}
	.st14{fill:none;}
	.st15{fill:none;stroke:#063916;stroke-width:4;stroke-miterlimit:10;}
	.st16{opacity:0.47;clip-path:url(#SVGID_22_);}
	.st17{opacity:0.5;clip-path:url(#SVGID_24_);}
	.st18{opacity:0.5;clip-path:url(#SVGID_26_);}
	.st19{fill:none;stroke:#FFFFFF;stroke-width:4.7196;stroke-miterlimit:10;}
	.st20{opacity:0.5;clip-path:url(#SVGID_28_);}
	.st21{fill:none;stroke:#FFFEFD;stroke-width:3.4965;stroke-linecap:round;stroke-linejoin:round;stroke-miterlimit:10;}
	.st22{fill:none;stroke:#FFFEFD;stroke-width:3.4965;stroke-linejoin:round;stroke-miterlimit:10;}
	.st23{fill:none;stroke:#FFFEFD;stroke-width:4.4946;stroke-linejoin:round;stroke-miterlimit:10;}
	.st24{opacity:0.5;clip-path:url(#SVGID_34_);}
	.st25{opacity:0.5;clip-path:url(#SVGID_36_);}
	.st26{opacity:0.47;clip-path:url(#SVGID_38_);}
	.st27{opacity:0.5;clip-path:url(#SVGID_40_);}
	.st28{opacity:0.5;clip-path:url(#SVGID_42_);}
	.st29{opacity:0.5;clip-path:url(#SVGID_44_);}
</style>
<g id="bases">
</g>
<g id="background">
</g>
<g id="Fotos_cortadas">
	<g>
		<defs>
			<rect id="SVGID_11_" x="-739.3" y="1843" width="1899.6" height="827.9"/>
		</defs>
		<clipPath id="SVGID_2_">
			<use xlink:href="#SVGID_11_"  style="overflow:visible;"/>
		</clipPath>
		<g style="opacity:0.37;clip-path:url(#SVGID_2_);">
			
				<image style="overflow:visible;" width="2000" height="2667" xlink:href="FBD6E5C14C71C34E.jpg"  transform="matrix(0.9493 0 0 0.9493 -738.6849 544.0102)">
			</image>
		</g>
	</g>
</g>
<g id="Logos">
	<g class="st13">
		<g>
			<g>
				<g>
					<path class="st21" d="M23.8,278.9c-2.1,12.7-3.6,25.4-4.7,38.2c4,7.1,8.1,14.1,12.3,21c5.2-7.2,10.5-14.2,16.3-20.9
						c1-11.4,2.4-22.7,4.4-34C45.3,269,39.3,254.6,34,239.9c4-13.2,8.7-26.1,14.2-38.7c5.9-2.9,11.8-5.6,17.8-8.2
						c1.7,8.4,3.6,16.6,5.8,24.9c-3.9,9.4-7.3,18.8-10.4,28.4"/>
					<path class="st21" d="M33.8,310.7c1-9.7,2.2-19.3,3.8-28.9"/>
					<path class="st21" d="M48.7,241c3.1-9.8,6.6-19.3,10.5-28.8"/>
				</g>
				<g>
					<path class="st21" d="M84.6,138.2c-6.5,8.5-12.6,17.3-18.3,26.4c0.9,7.2,2,14.3,3.3,21.4c7.3-2.7,14.7-5.1,22.2-7.2
						c5.2-8.1,10.7-15.9,16.5-23.5c-0.9-14.2-0.8-28.4,0.1-42.6c8.8-8.7,17.9-16.9,27.6-24.6c6.4,0.3,12.8,0.8,19.2,1.5
						c-1.7,7.7-3.2,15.5-4.5,23.3c-7,5.7-13.7,11.8-20.2,18.1"/>
					<path class="st21" d="M81.7,167.1c4.5-6.8,9.2-13.4,14.1-19.9"/>
					<path class="st21" d="M121.1,120.7c6.6-6.4,13.4-12.5,20.5-18.4"/>
				</g>
				<g>
					<path class="st21" d="M193.3,51.1c-9.2,4.5-18.1,9.3-26.9,14.6c-2,6.5-3.8,13-5.4,19.6c7.6,1.1,15.2,2.4,22.8,4
						c7.9-4.6,15.9-8.9,24.2-12.9c4.9-12.9,10.6-25.3,17.1-37.4c11.5-4.1,23.2-7.5,35-10.5c5.7,2.9,11.3,6,16.9,9.1
						c-4.7,6.3-9.2,12.6-13.5,19.2c-8.6,2.2-17.2,4.8-25.6,7.8"/>
					<path class="st21" d="M179.3,74.8c6.8-3.8,13.6-7.5,20.6-10.9"/>
					<path class="st21" d="M233.4,51.4c8.6-2.9,17.2-5.5,26-7.9"/>
				</g>
				<g>
					<path class="st21" d="M326.6,17.7c-10.2,0.6-20.4,1.5-30.6,2.8c-4.4,5.1-8.7,10.4-12.9,15.7c6.5,4,13,8.2,19.2,12.6
						c9.1-1.1,18.2-1.9,27.4-2.4c9.8-9.9,20.1-19.1,31-27.8c12.2,0.6,24.3,1.8,36.5,3.5c4,4.8,8,9.7,11.8,14.7
						c-6.9,4-13.6,8.2-20.3,12.6c-8.9-1.2-17.8-2-26.7-2.5"/>
					<path class="st21" d="M304.1,33.9c7.8-0.9,15.5-1.5,23.3-2"/>
					<path class="st21" d="M363.2,33.3c9.1,0.6,18.1,1.4,27.1,2.5"/>
				</g>
				<g>
					<path class="st21" d="M464.5,37.9c-9.7-3.4-19.4-6.4-29.2-9.1c-6.2,3-12.3,6.2-18.3,9.5c4.4,6.1,8.5,12.4,12.4,18.9
						c8.8,2.4,17.5,5.2,26.1,8.3c13.1-5.3,26.3-9.8,39.9-13.6c11,5.4,21.6,11.2,32,17.7c1.7,6.1,3.3,12.2,4.7,18.3
						c-8,0.9-15.9,2-23.8,3.4c-7.6-4.7-15.5-9-23.5-12.9"/>
					<path class="st21" d="M437.1,44.2c7.5,2.2,14.9,4.5,22.2,7.1"/>
					<path class="st21" d="M491.7,66.4c8.1,4.1,16,8.4,23.8,13.1"/>
				</g>
				<g>
					<path class="st21" d="M581.7,111.7c-7.4-7.3-15-14.2-22.9-20.9c-6.9,0.2-13.8,0.6-20.7,1.2c1.4,7.5,2.7,15,3.6,22.6
						c7.1,6,13.9,12.2,20.4,18.8c14.1,0.7,28,2.5,41.8,5.1c7.8,10.2,14.9,20.7,21.6,31.8c-1,6.7-2.1,13.3-3.4,19.9
						c-7.5-3.1-15.1-5.9-22.8-8.3c-5-8-10.2-15.7-15.9-23.2"/>
					<path class="st21" d="M554.1,105.8c6,5.2,11.7,10.5,17.3,16.1"/>
					<path class="st21" d="M594.6,150.5c5.7,7.6,11,15.5,16.1,23.6"/>
				</g>
				<g>
					<path class="st21" d="M656.3,239.2c-3.4-11.1-7.3-21.9-11.6-32.7c-6.2-3.4-12.6-6.5-19-9.3c-1.9,8-4,15.9-6.3,23.8
						c3.8,9.7,7.2,19.4,10.2,29.4c12.5,8.5,24,17.9,34.9,28.4c2.5,15.2,4.2,30.5,5.2,45.9c-3.8,6.6-7.7,13.1-11.8,19.4
						c-5.1-7.8-10.5-15.4-16.4-22.6c-0.9-11.3-2.1-22.4-3.9-33.6"/>
					<path class="st21" d="M634.3,218.8c3.3,8.2,6.1,16.6,8.6,25.1"/>
					<path class="st21" d="M651.2,285.8c1.8,11.3,3.1,22.6,3.9,34"/>
				</g>
			</g>
			<g>
				<g>
					<path class="st21" d="M22.4,404.1c-1.8-12.7-3.1-25.4-3.9-38.3c4.1-7,8.4-13.9,12.8-20.7c5,7.3,10.2,14.4,15.9,21.2
						c0.8,11.4,2,22.8,3.7,34.1c-7.2,13.9-13.5,28.2-19.1,42.8c3.8,13.3,8.2,26.2,13.4,39c5.8,3,11.7,5.9,17.7,8.6
						c1.9-8.3,3.9-16.5,6.3-24.7c-3.7-9.4-6.9-18.9-9.8-28.6"/>
					<path class="st21" d="M33,372.5c0.8,9.7,1.8,19.3,3.2,29"/>
					<path class="st21" d="M46.5,442.5c2.9,9.8,6.2,19.5,9.9,29"/>
				</g>
				<g>
					<path class="st21" d="M80.2,546.1c-6.3-8.7-12.2-17.5-17.7-26.8c1-7.1,2.3-14.3,3.8-21.3c7.3,2.8,14.6,5.4,22,7.7
						c5,8.2,10.3,16.1,16,23.8c-1.2,14.2-1.4,28.3-0.8,42.6c8.6,8.9,17.6,17.3,27.1,25.2c6.4-0.2,12.8-0.5,19.2-1.1
						c-1.6-7.8-2.9-15.5-4-23.4c-6.9-5.8-13.4-12.1-19.8-18.5"/>
					<path class="st21" d="M77.9,517.1c4.4,6.9,8.9,13.6,13.7,20.2"/>
					<path class="st21" d="M116.3,564.4c6.5,6.5,13.1,12.8,20.1,18.8"/>
				</g>
				<g>
					<path class="st21" d="M187.1,635.5c-9.1-4.7-17.9-9.7-26.6-15.1c-1.8-6.5-3.5-13.1-5-19.7c7.7-0.9,15.2-2.1,22.8-3.5
						c7.8,4.8,15.8,9.2,23.9,13.4c4.7,13,10.1,25.5,16.3,37.8c11.4,4.3,23,8,34.8,11.3c5.8-2.8,11.4-5.7,17.1-8.8
						c-4.6-6.4-8.9-12.8-13.1-19.5c-8.6-2.4-17.1-5.2-25.5-8.3"/>
					<path class="st21" d="M173.5,611.5c6.7,4,13.5,7.7,20.4,11.3"/>
					<path class="st21" d="M227.2,636c8.5,3.1,17.1,5.9,25.8,8.4"/>
				</g>
				<g>
					<path class="st21" d="M319.7,671.7c-10.2-0.8-20.4-2-30.5-3.5c-4.3-5.2-8.5-10.5-12.6-16c6.6-3.9,13.1-7.9,19.4-12.2
						c9.1,1.3,18.2,2.3,27.3,3c9.6,10.1,19.7,19.6,30.4,28.5c12.2-0.4,24.4-1.3,36.5-2.7c4.1-4.7,8.2-9.5,12.1-14.5
						c-6.8-4.2-13.5-8.5-20-13.1c-8.9,1-17.8,1.7-26.8,1.9"/>
					<path class="st21" d="M297.5,655c7.7,1,15.5,1.8,23.3,2.4"/>
					<path class="st21" d="M356.6,656.9c9.1-0.4,18.1-1,27.2-2"/>
				</g>
				<g>
					<path class="st21" d="M458,654.4c-9.7,3.2-19.5,6-29.4,8.4c-6.1-3.2-12.2-6.5-18.1-9.9c4.5-6,8.8-12.2,12.8-18.6
						c8.9-2.3,17.6-4.8,26.3-7.7c12.9,5.6,26.1,10.4,39.6,14.4c11.1-5.1,21.8-10.8,32.3-17c1.8-6,3.5-12.1,5.1-18.2
						c-8-1-15.8-2.3-23.7-3.9c-7.7,4.5-15.6,8.6-23.7,12.4"/>
					<path class="st21" d="M430.7,647.6c7.5-2,15-4.2,22.4-6.6"/>
					<path class="st21" d="M485.7,626.6c8.2-3.9,16.2-8.1,24.1-12.6"/>
				</g>
				<g>
					<path class="st21" d="M576.6,583.1c-7.5,7.1-15.3,13.9-23.4,20.4c-6.9-0.4-13.8-0.9-20.7-1.6c1.6-7.5,3-14.9,4-22.5
						c7.2-5.9,14.1-12,20.8-18.4c14.1-0.4,28-1.9,41.9-4.3c8-10,15.4-20.4,22.2-31.3c-0.9-6.7-1.9-13.3-3-20
						c-7.6,2.9-15.2,5.5-23,7.9c-5.1,7.9-10.6,15.5-16.3,22.9"/>
					<path class="st21" d="M549,588.4c6.1-5.1,11.9-10.3,17.6-15.7"/>
					<path class="st21" d="M590.3,544.6c5.8-7.5,11.3-15.2,16.6-23.2"/>
				</g>
				<g>
					<path class="st21" d="M653.9,457.2c-3.6,11-7.7,21.8-12.3,32.4c-6.3,3.3-12.7,6.2-19.2,8.9c-1.7-8-3.6-16-5.8-23.9
						c4-9.6,7.6-19.3,10.9-29.2c12.6-8.2,24.3-17.4,35.5-27.6c2.9-15.2,4.9-30.4,6.1-45.7c-3.6-6.6-7.4-13.2-11.4-19.7
						c-5.3,7.7-10.8,15.2-16.8,22.3c-1.1,11.2-2.6,22.4-4.6,33.5"/>
					<path class="st21" d="M631.4,477.1c3.4-8.1,6.5-16.5,9.2-24.9"/>
					<path class="st21" d="M649.7,410.6c2-11.3,3.5-22.5,4.6-33.9"/>
				</g>
			</g>
		</g>
		<circle class="st23" cx="344.8" cy="344.8" r="287.7"/>
		<circle class="st23" cx="344.8" cy="344.8" r="342.6"/>
	</g>
</g>
<g id="Texto">
</g>
</svg>
