<svg xmlns="http://www.w3.org/2000/svg" viewBox="0 0 100 100"><path d="M99.45,55a2,2,0,0,0-1.36-.89,1.84,1.84,0,0,0-1.38.33h0a3.19,3.19,0,0,0,.5-1.55,3.09,3.09,0,0,0-.76-2.2,2.08,2.08,0,0,0-.57-.44,1.75,1.75,0,0,0,.5-.37,3.33,3.33,0,0,0,.85-2.31,3,3,0,0,0-.4-1.39,1.88,1.88,0,0,0,1,.32h.18a1.9,1.9,0,0,0,1.28-.67,1.77,1.77,0,0,0,.16-.22,3.31,3.31,0,0,0-.33-3.95,2,2,0,0,0-1-.58,2.21,2.21,0,0,0,.77-.89,3.05,3.05,0,0,0-.9-3.69,1.83,1.83,0,0,0-1.42-.32,2.09,2.09,0,0,0-1.3.8,3,3,0,0,0,0-1.45A2.39,2.39,0,0,0,94.13,34a2.12,2.12,0,0,0-.85-.25,2.29,2.29,0,0,0,.46-.66,2.64,2.64,0,0,0,.08-2,2.28,2.28,0,0,0-.74-1c.11,0,.22,0,.33,0a2.12,2.12,0,0,0,2-1.43A2.7,2.7,0,0,0,94,25.51a2,2,0,0,0-1-.14,2.23,2.23,0,0,0,.43-1,2.57,2.57,0,0,0-1.89-2.86,2.15,2.15,0,0,0-2.41,1.35,2.34,2.34,0,0,0-.41-1.22,2.07,2.07,0,0,0-1.4-.84,2.34,2.34,0,0,0-1,.06,2.18,2.18,0,0,0,.25-.82A2.34,2.34,0,0,0,86,18.36a2.16,2.16,0,0,0-.93-.61,2.22,2.22,0,0,0,1.76-2,2.12,2.12,0,0,0-.59-1.58,2.49,2.49,0,0,0-1.68-.83,2.13,2.13,0,0,0-1,.21,2.22,2.22,0,0,0,.12-1,2.16,2.16,0,0,0-.85-1.47,2.44,2.44,0,0,0-1.76-.52,2.23,2.23,0,0,0-1.88,2,2.11,2.11,0,0,0-.74-1A2,2,0,0,0,77,11.24a2.47,2.47,0,0,0-.95.38,2.26,2.26,0,0,0,0-.86,2.14,2.14,0,0,0-1-1.39,2,2,0,0,0-1-.28,2.27,2.27,0,0,0,1.06-2.45,2,2,0,0,0-1-1.29,2.43,2.43,0,0,0-1.85-.27,2.15,2.15,0,0,0-.88.5,2.17,2.17,0,0,0-.17-1A2.12,2.12,0,0,0,70,3.49a2.44,2.44,0,0,0-1.84,0A2.22,2.22,0,0,0,66.92,6a2.07,2.07,0,0,0-1-.71,2,2,0,0,0-1.54.12,2.54,2.54,0,0,0-.93.82,2.18,2.18,0,0,0-1.6-2.07,2,2,0,0,0-1.06,0,2.23,2.23,0,0,0,.31-2.64A2.1,2.1,0,0,0,59.79.61a2.5,2.5,0,0,0-1.85.27,2.09,2.09,0,0,0-.69.73A2.33,2.33,0,0,0,56.8.74,2.06,2.06,0,0,0,55.31,0a2.4,2.4,0,0,0-1.75.55,2.22,2.22,0,0,0-.43,2.71A2.12,2.12,0,0,0,52,2.87a2,2,0,0,0-1.45.55,2.37,2.37,0,0,0-.57.83,2.26,2.26,0,0,0-.49-.71,2.16,2.16,0,0,0-1.57-.63,2,2,0,0,0-1,.32A2.23,2.23,0,0,0,46.43.61,2.11,2.11,0,0,0,44.88.07a2.47,2.47,0,0,0-1.69.76,2.17,2.17,0,0,0-.46.89A2.13,2.13,0,0,0,42.05,1,2.17,2.17,0,0,0,40.4.71a2.39,2.39,0,0,0-1.52,1,2.2,2.2,0,0,0,.36,2.7A2.17,2.17,0,0,0,38,4.34a2,2,0,0,0-1.24.93,2.27,2.27,0,0,0-.31.94,2.32,2.32,0,0,0-.68-.55,2.18,2.18,0,0,0-1.69-.17,1.94,1.94,0,0,0-.89.59A2.25,2.25,0,0,0,32,3.71a2.18,2.18,0,0,0-1.67-.09A2.47,2.47,0,0,0,29,4.81a2,2,0,0,0-.18,1,2.42,2.42,0,0,0-.87-.49,2.2,2.2,0,0,0-1.69.19,2.31,2.31,0,0,0-1.16,1.38,2.16,2.16,0,0,0,1.13,2.47A2.23,2.23,0,0,0,25,9.61a2,2,0,0,0-.93,1.24,2.41,2.41,0,0,0,0,1,2.23,2.23,0,0,0-.81-.33,2.2,2.2,0,0,0-1.69.32,2.09,2.09,0,0,0-.69.84A2.23,2.23,0,0,0,19,10.76a2.18,2.18,0,0,0-1.63.41,2.5,2.5,0,0,0-1,1.56,2.26,2.26,0,0,0,.11,1,2.2,2.2,0,0,0-2.54.48,2.44,2.44,0,0,0-.72,1.7,2.14,2.14,0,0,0,1.83,2A2.18,2.18,0,0,0,14,18.6a2,2,0,0,0-.52,1.52,2.37,2.37,0,0,0,.4,1.15,2.17,2.17,0,0,0-1-.14,2.33,2.33,0,0,0-1.57.88,2.26,2.26,0,0,0-.4,1,2.19,2.19,0,0,0-2.36-1.25,2.55,2.55,0,0,0-1.9,2.83,2.06,2.06,0,0,0,.42,1,2.15,2.15,0,0,0-1,.13,2.64,2.64,0,0,0-1.42,3.18,2.11,2.11,0,0,0,2,1.42,2,2,0,0,0,.42,0,2.35,2.35,0,0,0-.83,2.89,2.46,2.46,0,0,0,.54.79,2,2,0,0,0-.73.19,2.56,2.56,0,0,0-1.31,1.54A2.52,2.52,0,0,0,4.6,37a2,2,0,0,0-2.66-.4,3,3,0,0,0-.89,3.64,2.12,2.12,0,0,0,.76.89,1.86,1.86,0,0,0-1,.56,3.25,3.25,0,0,0-.32,3.92,2.09,2.09,0,0,0,1.37.86l.28,0a1.92,1.92,0,0,0,1.06-.33v0a3.12,3.12,0,0,0-.45,1.48,3,3,0,0,0,.79,2.16,2,2,0,0,0,.58.44,2.2,2.2,0,0,0-.51.37,3.26,3.26,0,0,0-.8,2.3,2.84,2.84,0,0,0,.41,1.36,1.92,1.92,0,0,0-2.51.41,1.21,1.21,0,0,0-.14.2A3.26,3.26,0,0,0,1,58.77a2.11,2.11,0,0,0,1,.56,2.07,2.07,0,0,0-.75.88,3,3,0,0,0,.94,3.64,1.85,1.85,0,0,0,1.06.33,2.22,2.22,0,0,0,.37,0,2.1,2.1,0,0,0,1.28-.81,2.71,2.71,0,0,0,0,1.44,2.32,2.32,0,0,0,1.2,1.43,2.27,2.27,0,0,0,.85.24,2.16,2.16,0,0,0-.45.65,2.62,2.62,0,0,0,0,2,2.31,2.31,0,0,0,.73,1,2.1,2.1,0,0,0-2.29,1.41,2.66,2.66,0,0,0,1.46,3.17,2,2,0,0,0,.76.15,1.27,1.27,0,0,0,.28,0,2.21,2.21,0,0,0-.42,1,2.56,2.56,0,0,0,1.92,2.81,1.81,1.81,0,0,0,.4,0,2.15,2.15,0,0,0,2-1.39,2.39,2.39,0,0,0,.43,1.2,2.08,2.08,0,0,0,1.41.83l.32,0a2.32,2.32,0,0,0,.65-.09,2.18,2.18,0,0,0-.24.81,2.29,2.29,0,0,0,.52,1.69,2.05,2.05,0,0,0,.93.6,2.18,2.18,0,0,0-1.72,2,2.13,2.13,0,0,0,.6,1.56,2.52,2.52,0,0,0,1.67.82h.07a2.11,2.11,0,0,0,.92-.22,2.23,2.23,0,0,0-.11,1,2.14,2.14,0,0,0,.86,1.45,2.47,2.47,0,0,0,1.49.53h.26a2.2,2.2,0,0,0,1.84-2,2.12,2.12,0,0,0,.74,1,2,2,0,0,0,1.15.37,1.47,1.47,0,0,0,.36,0,2.41,2.41,0,0,0,.94-.37,2.21,2.21,0,0,0,0,.85,2.12,2.12,0,0,0,1,1.38,2.07,2.07,0,0,0,1,.28,2.23,2.23,0,0,0-1,2.43,2.06,2.06,0,0,0,1,1.29,2.55,2.55,0,0,0,1.25.34,2.25,2.25,0,0,0,.58-.08,2.12,2.12,0,0,0,.86-.49,2,2,0,0,0,.18,1,2.06,2.06,0,0,0,1.21,1.12,2.5,2.5,0,0,0,.89.16,2.11,2.11,0,0,0,2.09-2.64,2.16,2.16,0,0,0,1,.7,1.81,1.81,0,0,0,.61.1,2,2,0,0,0,.91-.22,2.27,2.27,0,0,0,.91-.8,2.2,2.2,0,0,0,.28,1,2.11,2.11,0,0,0,1.31,1,1.93,1.93,0,0,0,1.06,0,2.23,2.23,0,0,0-.3,2.63,2.07,2.07,0,0,0,1.33,1,2.88,2.88,0,0,0,.59.07,2.31,2.31,0,0,0,1.22-.34,2,2,0,0,0,.67-.71,2.33,2.33,0,0,0,.45.87,2.1,2.1,0,0,0,1.48.74h.2a2.37,2.37,0,0,0,1.52-.54A2.21,2.21,0,0,0,47,96.73a2.09,2.09,0,0,0,1.13.4h.11a2,2,0,0,0,1.31-.53,2.28,2.28,0,0,0,.57-.84,2.19,2.19,0,0,0,2,1.37,2,2,0,0,0,1-.31,2.23,2.23,0,0,0,.46,2.61,2.09,2.09,0,0,0,1.46.56h.09a2.42,2.42,0,0,0,1.65-.74,2.05,2.05,0,0,0,.44-.87,2.42,2.42,0,0,0,.67.72,2.1,2.1,0,0,0,1.18.35,2.49,2.49,0,0,0,.47,0,2.3,2.3,0,0,0,1.49-1,2.21,2.21,0,0,0-.36-2.69,2.24,2.24,0,0,0,.73.13,2.31,2.31,0,0,0,.46,0,1.87,1.87,0,0,0,1.21-.89,2.19,2.19,0,0,0,.32-1,2.22,2.22,0,0,0,1.74.84,2.06,2.06,0,0,0,.6-.08,1.89,1.89,0,0,0,.88-.58,2.28,2.28,0,0,0,1.19,2.39,2,2,0,0,0,.93.22,2.57,2.57,0,0,0,.72-.11,2.37,2.37,0,0,0,1.38-1.17,2,2,0,0,0,.18-1,2.36,2.36,0,0,0,.85.5,1.89,1.89,0,0,0,.63.1,2.37,2.37,0,0,0,2.2-1.62A2.21,2.21,0,0,0,73.65,91h.13a2.24,2.24,0,0,0,1-.27,1.93,1.93,0,0,0,.92-1.21,2.51,2.51,0,0,0,0-1,2.23,2.23,0,0,0,1.28.4,2.17,2.17,0,0,0,1.19-.35,2,2,0,0,0,.68-.82,2.25,2.25,0,0,0,1.83,1.95,2,2,0,0,0,.35,0,2.16,2.16,0,0,0,1.26-.42,2.39,2.39,0,0,0,1-1.55,2.06,2.06,0,0,0-.1-1,2.3,2.3,0,0,0,1,.22h0a2.16,2.16,0,0,0,1.53-.66,2.44,2.44,0,0,0,.74-1.7,2.2,2.2,0,0,0-1.82-2.07,2.22,2.22,0,0,0,1.08-.64,2.05,2.05,0,0,0,.52-1.51,2.47,2.47,0,0,0-.39-1.16,2.17,2.17,0,0,0,.81.16H87a2.27,2.27,0,0,0,1.55-.86,2.13,2.13,0,0,0,.41-1,2.16,2.16,0,0,0,2,1.31,2,2,0,0,0,.34,0A2.54,2.54,0,0,0,93.16,76a2.14,2.14,0,0,0-.41-1L93,75a2.12,2.12,0,0,0,.75-.14,2.67,2.67,0,0,0,1.45-3.18,2.1,2.1,0,0,0-2.4-1.42,2.45,2.45,0,0,0,.87-1.07,2.42,2.42,0,0,0,0-1.85,2.55,2.55,0,0,0-.53-.79,2,2,0,0,0,.73-.18,2.52,2.52,0,0,0,1.38-2.79,2,2,0,0,0,1.12.7,1.73,1.73,0,0,0,.45,0,2,2,0,0,0,1.06-.3h0a3,3,0,0,0,.94-3.66,2.15,2.15,0,0,0-.75-.91,1.92,1.92,0,0,0,1-.55A3.31,3.31,0,0,0,99.45,55Zm-2.09.76,0,0a.72.72,0,0,1,1,.25,1.43,1.43,0,0,1-.16,1.7.8.8,0,0,1-.41.23A7.94,7.94,0,0,0,97.36,55.74Zm.12,3.59A5.33,5.33,0,0,1,95,63.07a4.46,4.46,0,0,1-3.72.59c.18-.6.28-1,.43-1.59a3.08,3.08,0,0,0,2.48-.45A3.87,3.87,0,0,0,96,59c.26-2-.79-4.34-3-4.65.07-.71.1-1.13.13-1.86A3.9,3.9,0,0,1,96,53.94,7.38,7.38,0,0,1,97.48,59.33Zm.18,1.86a1.27,1.27,0,0,1-.38,1.54h0a.75.75,0,0,1-1-.18l-.18.12a5.81,5.81,0,0,0,1.33-1.84A.85.85,0,0,1,97.66,61.19Zm-3.72,3.29a1,1,0,0,1-.49.6.75.75,0,0,1-.62,0,1,1,0,0,1-.61-1l.29,0A4.89,4.89,0,0,0,94,63.93,1.14,1.14,0,0,1,93.94,64.48Zm2-11.69a1.41,1.41,0,0,1-.12.49,4.28,4.28,0,0,0-1.58-.94.93.93,0,0,1,.87-.75.69.69,0,0,1,.52.26A1.25,1.25,0,0,1,95.89,52.79Zm.31-1.9a2.77,2.77,0,0,1,.68,2,2.83,2.83,0,0,1-.37,1.27q-.15-.21-.3-.39L96,53.52a1.65,1.65,0,0,0,.2-.72,1.63,1.63,0,0,0-.39-1.17,1.08,1.08,0,0,0-.76-.37,1.28,1.28,0,0,0-1.2,1,4.92,4.92,0,0,0-.67-.1,2.27,2.27,0,0,1,1.59-1.8,1.55,1.55,0,0,0,.31,0h.27A1.74,1.74,0,0,1,96.2,50.89Zm-.29-3.26a1.23,1.23,0,0,1-.32.93.77.77,0,0,1-.52.26,1,1,0,0,1-.86-.77,4.32,4.32,0,0,0,1.59-.91A1.21,1.21,0,0,1,95.91,47.63Zm-2.74.26c0-.73-.06-1.15-.12-1.87a3.12,3.12,0,0,0,2.1-1.21,4.71,4.71,0,0,0,.89-3.4,3.9,3.9,0,0,0-1.75-2.66,3,3,0,0,0-2.47-.47c-.15-.62-.25-1-.43-1.61a4.37,4.37,0,0,1,3.63.58,5.58,5.58,0,0,1,2.54,3.86A7.27,7.27,0,0,1,96,46.44,3.91,3.91,0,0,1,93.17,47.89Zm-.24-12.66a.77.77,0,0,1,.63,0,1,1,0,0,1,.49.62,1.1,1.1,0,0,1,0,.54,4.54,4.54,0,0,0-1.74-.25A1,1,0,0,1,92.93,35.23Zm4.57,4.45a5.94,5.94,0,0,0-1.14-1.75.75.75,0,0,1,1-.16,1.3,1.3,0,0,1,.37,1.57A.89.89,0,0,1,97.5,39.68Zm.41,2.9a.78.78,0,0,1,.41.24,1.43,1.43,0,0,1,.14,1.71l0,0a.72.72,0,0,1-1,.18l-.1.14A8,8,0,0,0,97.91,42.58Zm1.31,2.83-.13.18a1.52,1.52,0,0,1-1.06.55,1.56,1.56,0,0,1-1.14-.34q.21-.36.39-.75a1.06,1.06,0,0,0,1.42-.28l0-.07a1.78,1.78,0,0,0-.18-2.1,1.19,1.19,0,0,0-.64-.35,5.51,5.51,0,0,0,0-.91,1.72,1.72,0,0,1,1,.51A3,3,0,0,1,99.22,45.41Zm-2.54-8.94a1.56,1.56,0,0,1,1.17.26A2.78,2.78,0,0,1,98.64,40a1.84,1.84,0,0,1-.79.84,5.06,5.06,0,0,0-.23-.87,1.23,1.23,0,0,0,.45-.51,1.64,1.64,0,0,0-.48-2,1.1,1.1,0,0,0-1.47.19,6.71,6.71,0,0,0-.58-.48A1.76,1.76,0,0,1,96.68,36.47ZM95,35.58a2.52,2.52,0,0,1,0,1.28,4,4,0,0,0-.62-.31,1.47,1.47,0,0,0,0-.75,1.32,1.32,0,0,0-.65-.82,1.13,1.13,0,0,0-.9-.06A1.28,1.28,0,0,0,92,36.21a4.69,4.69,0,0,0-.65.14A2.09,2.09,0,0,1,92.6,34.2a1.7,1.7,0,0,1,1.37.13A2,2,0,0,1,95,35.58Zm-1.49-4.35A2.36,2.36,0,0,1,93.44,33a1.68,1.68,0,0,1-.94.89,1.94,1.94,0,0,1-2.27-.78c.2-.1.4-.22.59-.34a1.22,1.22,0,0,0,1,.51,1.2,1.2,0,0,0,.45-.09A1.3,1.3,0,0,0,92.47,31a5.38,5.38,0,0,0,.31-.64A1.92,1.92,0,0,1,93.51,31.23ZM91,26.46a1.85,1.85,0,0,0-.21-.33,3.35,3.35,0,0,0-2.17-1.38,3.4,3.4,0,0,0-2.48.53c-.3-.46-.5-.74-.83-1.2a4.85,4.85,0,0,1,3.83-.69,4.79,4.79,0,0,1,3.21,2.28,5.41,5.41,0,0,1-2.27,7.15c-.22-.57-.36-.9-.6-1.45a3.42,3.42,0,0,0,1.77-2.06A3.62,3.62,0,0,0,91,26.46Zm-4.65-4.17a.86.86,0,0,1,1.21.13l0,0a.84.84,0,0,1,.16.48,5.13,5.13,0,0,0-1.71.37A.92.92,0,0,1,86.35,22.29Zm6.22,9.28a1,1,0,0,1-.44,1.32.88.88,0,0,1-1-.32,5.52,5.52,0,0,0,1.21-1.33A1,1,0,0,1,92.57,31.57Zm1.29-5.76a2.37,2.37,0,0,1,1.24,2.81A1.79,1.79,0,0,1,93,29.78l-.06.24,0,0,.06-.15a5.77,5.77,0,0,0,.17-3.07.79.79,0,0,1,.43.06,1.09,1.09,0,0,1,.58,1.32.8.8,0,0,1-.92.57l0,.33h.19a1.15,1.15,0,0,0,1.1-.81,1.41,1.41,0,0,0-.77-1.72,1.11,1.11,0,0,0-.65-.07,4.59,4.59,0,0,0-.28-.73A1.67,1.67,0,0,1,93.86,25.81Zm-2.45-3.95a2.24,2.24,0,0,1,1.64,2.48,1.82,1.82,0,0,1-.51,1,3.84,3.84,0,0,0-.45-.61,1.15,1.15,0,0,0,.28-.61,1.34,1.34,0,0,0-1-1.53,1.16,1.16,0,0,0-1.33.72l.31.11a.83.83,0,0,1,1-.51,1,1,0,0,1,.77,1.16.9.9,0,0,1-.19.42,5.33,5.33,0,0,0-2.51-1.38A1.83,1.83,0,0,1,91.41,21.86ZM89.35,23.1l-.14,0-.12,0s0,0,0,0Zm-2.13-2a1.73,1.73,0,0,1,1.17.71A1.92,1.92,0,0,1,88.75,23a5,5,0,0,0-.67,0h0a1.09,1.09,0,0,0-.23-.67l0-.05A1.2,1.2,0,0,0,86.15,22a1.22,1.22,0,0,0-.41,1.41,3.72,3.72,0,0,0-.58.35,2,2,0,0,1,.59-2.28A2,2,0,0,1,87.22,21.15Zm-1.45-2.57A1.91,1.91,0,0,1,86.2,20a1.77,1.77,0,0,1-.64,1.22,2,2,0,0,1-2.34.11,5.56,5.56,0,0,0,.46-.5,1.2,1.2,0,0,0,.65.19,1.23,1.23,0,0,0,1-.56A1.22,1.22,0,0,0,85.28,19a1.13,1.13,0,0,0-.59-.36q.07-.33.12-.66A1.69,1.69,0,0,1,85.77,18.58ZM76.48,12.9a.88.88,0,0,1,.55-.37.86.86,0,0,1,.66.13A.73.73,0,0,1,78,13a5.42,5.42,0,0,0-1.51.89A.87.87,0,0,1,76.48,12.9Zm3.09.08a4.58,4.58,0,0,1,3.53,1,4.38,4.38,0,0,1,1.42,3.29A5.3,5.3,0,0,1,83,21.15c-.35-.41-.58-.66-1-1a3.58,3.58,0,0,0,1.08-2.59A3.17,3.17,0,0,0,82,15.17a3.14,3.14,0,0,0-2.42-.8,3.61,3.61,0,0,0-2.5,1.34c-.42-.32-.68-.51-1.12-.82A5.23,5.23,0,0,1,79.57,13Zm2.73.11a5,5,0,0,0-1.75-.45.88.88,0,0,1,.76-.78.9.9,0,0,1,1,1.23ZM84.61,19a.82.82,0,0,1,.42.25.89.89,0,0,1,.06,1.06.9.9,0,0,1-1.22.28A5.93,5.93,0,0,0,84.61,19ZM86,14.35a1.82,1.82,0,0,1,.51,1.34,1.9,1.9,0,0,1-1.66,1.77l0,.24h0c0-.13,0-.27,0-.4a5,5,0,0,0-.7-2.54.91.91,0,0,1,.43-.1,1,1,0,0,1,.91,1,.88.88,0,0,1-.71.83l.06.32a1.19,1.19,0,0,0,1-1.14,1.26,1.26,0,0,0-1.22-1.3,1.15,1.15,0,0,0-.63.15,4,4,0,0,0-.46-.54,1.74,1.74,0,0,1,1.06-.31A2.09,2.09,0,0,1,86,14.35Zm-4.87-3.5a2.1,2.1,0,0,1,1.51.46,1.84,1.84,0,0,1,.73,1.24,1.86,1.86,0,0,1-.21,1.09,4.6,4.6,0,0,0-.58-.4,1.17,1.17,0,0,0,.09-.64,1.27,1.27,0,0,0-1.41-1.07,1.23,1.23,0,0,0-1,1.09h.07a4.75,4.75,0,0,0-.75,0A1.91,1.91,0,0,1,81.14,10.85ZM79.4,12.68h-.13v0ZM77,11.56a1.63,1.63,0,0,1,1.26.28,1.87,1.87,0,0,1,.66.91c-.22.05-.44.11-.65.18a1.11,1.11,0,0,0-.41-.54h0a1.2,1.2,0,0,0-1.66.34,1.2,1.2,0,0,0,0,1.44,3,3,0,0,0-.45.5,1.89,1.89,0,0,1-.08-2.28A2.05,2.05,0,0,1,77,11.56ZM74.86,9.65a1.75,1.75,0,0,1,.81,1.17,1.72,1.72,0,0,1-.25,1.37,2.06,2.06,0,0,1-2.17.86,4.42,4.42,0,0,0,.32-.61,1.07,1.07,0,0,0,.25,0,1.23,1.23,0,0,0,1.06-.59,1.15,1.15,0,0,0-.31-1.62l0,0a1.28,1.28,0,0,0-.61-.15,4.62,4.62,0,0,0-.09-.65A1.68,1.68,0,0,1,74.86,9.65ZM72,9.46a3,3,0,0,0-1.67-1.84,3.13,3.13,0,0,0-2.51,0,3.66,3.66,0,0,0-2,2c-.5-.18-.8-.29-1.3-.45a5.43,5.43,0,0,1,3-3A4.18,4.18,0,0,1,71,6.2a4.67,4.67,0,0,1,2.41,3,4.6,4.6,0,0,1-.48,3.75l-1.2-.67A3.5,3.5,0,0,0,72,9.46ZM64.37,7.57a.89.89,0,0,1,.17-.67.9.9,0,0,1,.95-.34.66.66,0,0,1,.36.25,5.82,5.82,0,0,0-1.16,1.32A.92.92,0,0,1,64.37,7.57Zm4.55-2.93a.91.91,0,0,1,1,.5.92.92,0,0,1,.08.4,4.57,4.57,0,0,0-1.8.07A.9.9,0,0,1,68.92,4.64Zm5,5.77a.87.87,0,0,1,.42.1l0,0a.84.84,0,0,1,.23,1.17.92.92,0,0,1-.93.43A4.76,4.76,0,0,0,73.94,10.41Zm-.19-1.3v0a.56.56,0,0,0,0-.12l.07.14ZM72.31,5.39a2.09,2.09,0,0,1,1.59.24,1.72,1.72,0,0,1,.84,1.08,1.94,1.94,0,0,1-1.06,2.18,5.12,5.12,0,0,0-1.47-2.28,1,1,0,0,1,.22-.18.9.9,0,0,1,.68-.08.87.87,0,0,1,.54.42.91.91,0,0,1,.08.67A.88.88,0,0,1,73.3,8l.16.29a1.21,1.21,0,0,0,.47-1.65A1.24,1.24,0,0,0,73.2,6,1.18,1.18,0,0,0,72,6.4,5.25,5.25,0,0,0,71.38,6,1.87,1.87,0,0,1,72.31,5.39ZM68.25,3.82a2.08,2.08,0,0,1,1.59,0,1.82,1.82,0,0,1,1,1A1.9,1.9,0,0,1,71,5.82a4.64,4.64,0,0,0-.66-.22,1.1,1.1,0,0,0-.1-.59,1.23,1.23,0,0,0-2.34.69,4,4,0,0,0-.45.15l-.19.09A1.9,1.9,0,0,1,68.25,3.82ZM64.54,5.71a1.65,1.65,0,0,1,1.28-.1,1.7,1.7,0,0,1,.85.62c-.19.11-.38.24-.56.37a1.14,1.14,0,0,0-.52-.36A1.25,1.25,0,0,0,64,7.62a1.22,1.22,0,0,0,.48.79,5,5,0,0,0-.29.62,1.89,1.89,0,0,1-.73-2.14A2.11,2.11,0,0,1,64.54,5.71ZM61.79,4.48a1.85,1.85,0,0,1,1.11.88,1.72,1.72,0,0,1,.15,1.38A2.05,2.05,0,0,1,61.24,8.2a3.93,3.93,0,0,0,.12-.67,1.23,1.23,0,0,0,1.09-.92,1.16,1.16,0,0,0-.76-1.46h-.06a1.09,1.09,0,0,0-.62,0,4.53,4.53,0,0,0-.28-.59A1.75,1.75,0,0,1,61.79,4.48ZM59,5.14a3.07,3.07,0,0,0-2.13-1.29,3.16,3.16,0,0,0-2.42.69A3.62,3.62,0,0,0,53.14,7c-.52,0-.84,0-1.37-.06a5.32,5.32,0,0,1,2-3.71,4.2,4.2,0,0,1,3.34-1,4.68,4.68,0,0,1,3.16,2.15,4.62,4.62,0,0,1,.64,3.71C60.4,8,60.08,8,59.57,7.87A3.5,3.5,0,0,0,59,5.14Zm-7.39.78a.89.89,0,0,1-.56-.86.87.87,0,0,1,.87-.86.71.71,0,0,1,.42.14A5.39,5.39,0,0,0,51.62,5.92Zm2.6-4a.9.9,0,0,1,1.54-.33.82.82,0,0,1,.18.36,4.64,4.64,0,0,0-1.69.57A.88.88,0,0,1,54.22,1.93Zm6.91,3.55a.67.67,0,0,1,.42,0h0a.83.83,0,0,1,.55,1,.9.9,0,0,1-.76.67A4.8,4.8,0,0,0,61.13,5.48Zm-.57-1.19v0l-.07-.11.1.12ZM58.11,1.16a2.11,2.11,0,0,1,1.6-.23,1.76,1.76,0,0,1,1.11.79,1.91,1.91,0,0,1-.39,2.38,5.17,5.17,0,0,0-2.06-1.75.79.79,0,0,1,.16-.23.91.91,0,0,1,1.26,0,.88.88,0,0,1,0,1.25l.24.23a1.2,1.2,0,0,0,0-1.71,1.24,1.24,0,0,0-1.73,0,1.19,1.19,0,0,0-.22.33,5,5,0,0,0-.66-.2A1.9,1.9,0,0,1,58.11,1.16ZM53.78.8A2.14,2.14,0,0,1,55.29.33,1.8,1.8,0,0,1,56.55,1,1.83,1.83,0,0,1,57,2a4.07,4.07,0,0,0-.7,0A1.18,1.18,0,0,0,56,1.39a1.24,1.24,0,0,0-1.5-.28,1.21,1.21,0,0,0-.6.73,1.14,1.14,0,0,0,.06.87L53.56,3l-.13.12A1.91,1.91,0,0,1,53.78.8Zm-3,2.86A1.64,1.64,0,0,1,52,3.2a1.74,1.74,0,0,1,1,.36,5.27,5.27,0,0,0-.43.51,1.2,1.2,0,1,0-1,2.17,5.43,5.43,0,0,0-.1.67,1.9,1.9,0,0,1-1.32-1.85A2,2,0,0,1,50.77,3.66Zm-2.85-.43a1.86,1.86,0,0,1,1.33.54,1.75,1.75,0,0,1,.54,1.28,2,2,0,0,1-1.32,1.89,5.05,5.05,0,0,0-.08-.68,1.22,1.22,0,0,0,.79-1.18A1.17,1.17,0,0,0,48,3.9h0a1.18,1.18,0,0,0-.58.19c-.14-.17-.29-.33-.45-.49A1.77,1.77,0,0,1,47.92,3.23ZM40.34,8c-.53.11-.85.18-1.34.31a5.25,5.25,0,0,1,.85-4.08,4.17,4.17,0,0,1,2.94-1.83l.49,0a5,5,0,0,1,3.21,1.24A4.67,4.67,0,0,1,48.14,7l-1.38.09a3.55,3.55,0,0,0-1.31-2.47,3.14,3.14,0,0,0-4.56.67A3.51,3.51,0,0,0,40.34,8Zm-1.79-.65a.9.9,0,0,1-.78-.67A.82.82,0,0,1,37.83,6a.85.85,0,0,1,.5-.41h0a.77.77,0,0,1,.45,0A5.9,5.9,0,0,0,38.55,7.36Zm1.49-5a.92.92,0,0,1,1.26-.28.86.86,0,0,1,.28.29,4.51,4.51,0,0,0-1.46,1A.86.86,0,0,1,40,2.39Zm7.54,2a.73.73,0,0,1,.4-.13h0a.85.85,0,0,1,.85.85.9.9,0,0,1-.53.85A5,5,0,0,0,47.58,4.36Zm-.88-1-.08-.07.09.06ZM43.44,1.05A2.07,2.07,0,0,1,44.89.4,1.75,1.75,0,0,1,46.2.85a1.9,1.9,0,0,1,.32,2.38A5.3,5.3,0,0,0,44,2.11a.85.85,0,0,1,.2-.43.91.91,0,0,1,1.28-.08.88.88,0,0,1,.19,1.07l.29.16a1.22,1.22,0,0,0-.26-1.48A1.25,1.25,0,0,0,44,1.47a1.15,1.15,0,0,0-.28.61,5.3,5.3,0,0,0-.69,0A1.73,1.73,0,0,1,43.44,1.05Zm-4.28.83A2,2,0,0,1,40.46,1a1.83,1.83,0,0,1,1.41.24,2,2,0,0,1,.7.84,4.83,4.83,0,0,0-.68.17,1.36,1.36,0,0,0-.41-.45,1.26,1.26,0,0,0-1.72.39,1.19,1.19,0,0,0,.13,1.43c-.11.13-.21.27-.31.41l-.09.13A1.88,1.88,0,0,1,39.16,1.88ZM37.08,5.43a1.63,1.63,0,0,1,1-.77,2,2,0,0,1,1.08.07,6.65,6.65,0,0,0-.27.61,1.16,1.16,0,0,0-.64,0h0a1.17,1.17,0,0,0-.79,1.45,1.22,1.22,0,0,0,1.12.92,5,5,0,0,0,.1.66,2,2,0,0,1-1.81-1.41A1.93,1.93,0,0,1,37.08,5.43Zm-2.87.37A1.87,1.87,0,0,1,35.65,6,1.8,1.8,0,0,1,36.54,7a1.93,1.93,0,0,1-.73,2.16q-.12-.31-.27-.63A1.2,1.2,0,0,0,36,7.21a1.17,1.17,0,0,0-.57-.7,1.21,1.21,0,0,0-.91-.1h0a1,1,0,0,0-.5.34,5.43,5.43,0,0,0-.57-.35A1.69,1.69,0,0,1,34.21,5.8Zm-5.92,6.65c-.47.25-.75.41-1.21.68A5.12,5.12,0,0,1,26.71,9,4.11,4.11,0,0,1,29,6.43a4.64,4.64,0,0,1,1.76-.35A5.22,5.22,0,0,1,33,6.56a4.78,4.78,0,0,1,2.56,2.76l-1.3.46a3.6,3.6,0,0,0-2-2,3.16,3.16,0,0,0-2.54,0A3.05,3.05,0,0,0,28,9.7,3.44,3.44,0,0,0,28.29,12.45Zm-2.17-1.81a5.39,5.39,0,0,0,.25,1.7.91.91,0,0,1-.95-.42.76.76,0,0,1-.13-.62.84.84,0,0,1,.36-.54h0A.79.79,0,0,1,26.12,10.64Zm.61-2.51a.85.85,0,0,1-.37-1,.92.92,0,0,1,1.49-.43A4.45,4.45,0,0,0,26.73,8.13Zm8.64.14A4.82,4.82,0,0,0,34.21,7a.7.7,0,0,1,.35-.23.84.84,0,0,1,.66.07.86.86,0,0,1,.42.51A.88.88,0,0,1,35.37,8.27Zm-2.29-2-.07,0,.07,0ZM29.25,5a2.12,2.12,0,0,1,1.21-1A1.81,1.81,0,0,1,31.87,4a1.92,1.92,0,0,1,1,2.17,5.39,5.39,0,0,0-2.73-.37.8.8,0,0,1,.07-.46.92.92,0,0,1,1.21-.44.85.85,0,0,1,.49,1l.33.07a1.22,1.22,0,0,0-.68-1.34,1.26,1.26,0,0,0-1.65.6,1.13,1.13,0,0,0-.1.65c-.23.05-.45.11-.67.18A1.75,1.75,0,0,1,29.25,5ZM25.36,7a2,2,0,0,1,1-1.18,1.89,1.89,0,0,1,1.44-.17,2,2,0,0,1,.91.6,4,4,0,0,0-.61.35,1.19,1.19,0,0,0-.52-.3A1.26,1.26,0,0,0,26,7.1a1.19,1.19,0,0,0,.55,1.33,3.43,3.43,0,0,0-.19.48l0,.14A1.85,1.85,0,0,1,25.36,7Zm-1,4a1.63,1.63,0,0,1,.77-1,1.86,1.86,0,0,1,1.06-.24,4.81,4.81,0,0,0-.08.65,1.08,1.08,0,0,0-.63.16l0,0a1.15,1.15,0,0,0-.32,1.61,1.24,1.24,0,0,0,1.05.59,1,1,0,0,0,.3,0,4.11,4.11,0,0,0,.28.6,2,2,0,0,1-2.15-.82A1.91,1.91,0,0,1,24.38,10.93Zm-2.65,1.18a1.88,1.88,0,0,1,1.44-.27,1.76,1.76,0,0,1,1.16.76,1.93,1.93,0,0,1-.07,2.28,4.47,4.47,0,0,0-.44-.52,1.17,1.17,0,0,0,.21-.87,1.21,1.21,0,0,0-.47-.81,1.25,1.25,0,0,0-1.42,0,1.15,1.15,0,0,0-.38.49c-.22-.07-.44-.12-.66-.17A1.76,1.76,0,0,1,21.73,12.11ZM15.49,18a4.87,4.87,0,0,1,1.43-3.69A4.58,4.58,0,0,1,20,13.17l.59,0A4.87,4.87,0,0,1,24,15.1l-1.13.82a3.59,3.59,0,0,0-2.47-1.31,3.19,3.19,0,0,0-3.5,3.13A3.53,3.53,0,0,0,18,20.3c-.37.39-.59.63-1,1A4.54,4.54,0,0,1,15.49,18Zm-.21-1.32a.84.84,0,0,1-.7-.81.94.94,0,0,1,.91-1,.86.86,0,0,1,.44.1A5.06,5.06,0,0,0,15.28,16.63Zm.82,4.18a.91.91,0,0,1-1-.1.86.86,0,0,1-.31-.59.84.84,0,0,1,.2-.63v0a.85.85,0,0,1,.37-.24A4.53,4.53,0,0,0,16.1,20.81Zm7.47-6.68a5,5,0,0,0-1.5-.9.7.7,0,0,1,.26-.33.92.92,0,0,1,1,0A.89.89,0,0,1,23.57,14.13Zm-2.8-1.23-.12,0h.13Zm-4.07-.12a2.12,2.12,0,0,1,.87-1.35A1.85,1.85,0,0,1,19,11.08a1.92,1.92,0,0,1,1.59,1.79,5.46,5.46,0,0,0-2.75.44.74.74,0,0,1-.06-.44.92.92,0,0,1,1-.79.86.86,0,0,1,.76.78l.33,0a1.2,1.2,0,0,0-1.05-1.08,1.27,1.27,0,0,0-1.41,1.07,1.17,1.17,0,0,0,.09.64,3.35,3.35,0,0,0-.59.39A1.74,1.74,0,0,1,16.7,12.78ZM13.55,15.9a2.09,2.09,0,0,1,.62-1.46,1.94,1.94,0,0,1,1.33-.6,2,2,0,0,1,1.07.31,3.45,3.45,0,0,0-.46.54,1.17,1.17,0,0,0-.64-.16,1.27,1.27,0,0,0-1.22,1.29,1.19,1.19,0,0,0,1,1.14c0,.22-.05.44-.06.67A1.84,1.84,0,0,1,13.55,15.9Zm.67,2.92a1.89,1.89,0,0,1,1-.57,4.91,4.91,0,0,0,.09.67,1.07,1.07,0,0,0-.54.34l0,0A1.19,1.19,0,0,0,14.87,21a1.25,1.25,0,0,0,.8.29,1.27,1.27,0,0,0,.63-.17,5.44,5.44,0,0,0,.48.48,1.9,1.9,0,0,1-3-1.46A1.7,1.7,0,0,1,14.22,18.82ZM11.51,22.2a2,2,0,0,1,1.33-.74,1.7,1.7,0,0,1,1.31.36,2,2,0,0,1,.62,2.26,4,4,0,0,0-.58-.36,1.23,1.23,0,0,0-.43-1.38,1.2,1.2,0,0,0-.88-.24,1.18,1.18,0,0,0-.79.45l0,0a1.29,1.29,0,0,0-.22.62,4,4,0,0,0-.68.06A1.92,1.92,0,0,1,11.51,22.2ZM8.68,29.56a3.46,3.46,0,0,0,1.79,2.05c-.24.54-.38.87-.6,1.43a4.4,4.4,0,0,1-2.46-2.65A5.62,5.62,0,0,1,7.57,26a4.86,4.86,0,0,1,3.31-2.33A5.06,5.06,0,0,1,12,23.52a4.32,4.32,0,0,1,2.64.85c-.32.44-.52.72-.83,1.19l-.25-.15a3.41,3.41,0,0,0-4.6,1.33A3.55,3.55,0,0,0,8.68,29.56Zm-1.08,2a4.67,4.67,0,0,0,1.23,1.31.88.88,0,0,1-1,.29,1,1,0,0,1-.5-.55,1,1,0,0,1,0-.74A.92.92,0,0,1,7.6,31.52Zm-.87-2.59a.82.82,0,0,1-.91-.57,1.06,1.06,0,0,1,.58-1.3.74.74,0,0,1,.44,0A6.12,6.12,0,0,0,6.73,28.93Zm7.16-5.35a4.74,4.74,0,0,0-1.72-.38.9.9,0,0,1,.16-.42l0,0a.88.88,0,0,1,.57-.33.92.92,0,0,1,1,1.16ZM8.53,22.13a1.86,1.86,0,0,1,2.08,1.23l.22-.08v0h0A5.65,5.65,0,0,0,8.1,24.73a.81.81,0,0,1-.19-.41,1,1,0,0,1,.76-1.15.83.83,0,0,1,1,.51l.31-.12a1.17,1.17,0,0,0-1.34-.71,1.36,1.36,0,0,0-1,1.52,1.21,1.21,0,0,0,.29.6,3.84,3.84,0,0,0-.45.61,1.84,1.84,0,0,1-.52-1A2.23,2.23,0,0,1,8.53,22.13ZM4.86,28.82A2.34,2.34,0,0,1,6.09,26,1.84,1.84,0,0,1,7.2,26a4.44,4.44,0,0,0-.27.72,1.19,1.19,0,0,0-.67.07,1.4,1.4,0,0,0-.76,1.7,1.16,1.16,0,0,0,1.1.81l.17,0a5.77,5.77,0,0,0,.16.72A1.78,1.78,0,0,1,4.86,28.82Zm1.59,4.25a2,2,0,0,1,0-1.58,2,2,0,0,1,.71-.91,5.56,5.56,0,0,0,.3.65A1.31,1.31,0,0,0,7,32.68a1.33,1.33,0,0,0,.68.74,1.41,1.41,0,0,0,.44.08,1.19,1.19,0,0,0,1-.48,5,5,0,0,0,.61.31,1.94,1.94,0,0,1-2.24.78A1.93,1.93,0,0,1,6.45,33.07ZM5,35.8a2.23,2.23,0,0,1,1.13-1.33,1.5,1.5,0,0,1,1.25-.06,2.09,2.09,0,0,1,1.29,2.12A4,4,0,0,0,8,36.37a1.28,1.28,0,0,0-.83-1.25,1.13,1.13,0,0,0-.9.06A1.31,1.31,0,0,0,5.6,36a1.42,1.42,0,0,0,0,.71,3.89,3.89,0,0,0-.5.25L5,37A2.15,2.15,0,0,1,5,35.8Zm-.13,9.08A3.16,3.16,0,0,0,7,46.1c0,.72-.07,1.13-.1,1.85a4.35,4.35,0,0,1-3.13-1.71,6.51,6.51,0,0,1-1.3-5,6,6,0,0,1,2.83-4,4.19,4.19,0,0,1,2.08-.59,3.85,3.85,0,0,1,1.25.21c-.18.61-.28,1-.43,1.59a3.08,3.08,0,0,0-2.49.49A3.83,3.83,0,0,0,4,41.54,4.56,4.56,0,0,0,4.83,44.88Zm-.62,2.33a4.47,4.47,0,0,0,1.61.88,1,1,0,0,1-.85.77H5a.74.74,0,0,1-.53-.25,1.32,1.32,0,0,1-.32-.92A1.6,1.6,0,0,1,4.21,47.21Zm-1.7-2.42a.73.73,0,0,1-.94-.23l0,0a1.4,1.4,0,0,1,.13-1.68A.87.87,0,0,1,2,42.62,7.05,7.05,0,0,0,2.51,44.79Zm3.4-8.71a1,1,0,0,1,.48-.61.82.82,0,0,1,.63,0,1,1,0,0,1,.62.91,4.24,4.24,0,0,0-1.75.24A1.16,1.16,0,0,1,5.91,36.08Zm-4.56,4a2.67,2.67,0,0,1,.77-3.24,1.71,1.71,0,0,1,2.34.49l.2-.13v0a6.5,6.5,0,0,0-2.12,2.55.87.87,0,0,1-.33-.38,1.25,1.25,0,0,1,.36-1.53.76.76,0,0,1,1,.16l.27-.2a1.1,1.1,0,0,0-1.51-.23,1.58,1.58,0,0,0-.47,1.94,1.21,1.21,0,0,0,.5.55,5,5,0,0,0-.26.83A1.78,1.78,0,0,1,1.35,40.07Zm.58,6a1.76,1.76,0,0,1-1.15-.73,3,3,0,0,1,.28-3.5,1.64,1.64,0,0,1,1-.51,7,7,0,0,0-.06.92,1.09,1.09,0,0,0-.58.33,1.72,1.72,0,0,0-.17,2.07l0,.06a1,1,0,0,0,.87.46,1,1,0,0,0,.47-.12,6.72,6.72,0,0,0,.4.75A1.57,1.57,0,0,1,1.93,46.11Zm1.88,3.44a2.65,2.65,0,0,1-.7-1.91,2.9,2.9,0,0,1,.34-1.22v0A5.27,5.27,0,0,0,4,47a1.61,1.61,0,0,0,.22,1.84,1.11,1.11,0,0,0,.76.36H5a1.27,1.27,0,0,0,1.17-1,4.91,4.91,0,0,0,.67.09,2.23,2.23,0,0,1-1.57,1.8l-.31,0-.27,0A1.66,1.66,0,0,1,3.81,49.55Zm.07,1.27a1.41,1.41,0,0,1,.77-.42,2.58,2.58,0,0,0,.29,0H5a1.12,1.12,0,0,0,.27,0,2.21,2.21,0,0,1,1.61,1.77l.33-.07a2.73,2.73,0,0,0-1.4-1.87,2.73,2.73,0,0,0,1.36-1.9l-.29-.06H7a.17.17,0,0,0,.17-.16c0-.87.05-1.29.12-2.15a.21.21,0,0,0,0-.12.16.16,0,0,0-.12-.06H7a2.86,2.86,0,0,1-1.94-1.1,4.28,4.28,0,0,1-.82-3.1A3.54,3.54,0,0,1,5.84,39.2a2.75,2.75,0,0,1,2.27-.43l.11,0a.19.19,0,0,0,.13,0,.18.18,0,0,0,.08-.11c.19-.76.29-1.13.5-1.88a.16.16,0,0,0-.1-.2l-.09,0,.22,0a2.44,2.44,0,0,0-.8-2.05A2.28,2.28,0,0,0,10,33.47l-.1-.07H10a.2.2,0,0,0,.09-.09c.27-.7.41-1,.71-1.72a.17.17,0,0,0,0-.12.16.16,0,0,0-.09-.09l-.11-.05A3.14,3.14,0,0,1,9,29.45a3.2,3.2,0,0,1,.23-2.55,3.06,3.06,0,0,1,4.15-1.2,2.2,2.2,0,0,1,.26.15l.1.07a.13.13,0,0,0,.12,0,.14.14,0,0,0,.11-.07c.4-.6.6-.89,1-1.45a.17.17,0,0,0,0-.23h0l.15,0A2.32,2.32,0,0,0,14.8,22a2.28,2.28,0,0,0,.89.18A2.34,2.34,0,0,0,17,21.79L17,21.71l.08,0a.17.17,0,0,0,.13-.05c.46-.53.69-.78,1.17-1.28a.13.13,0,0,0,0-.12.16.16,0,0,0-.05-.11l0,0-.07-.06a3.16,3.16,0,0,1-1-2.34,2.83,2.83,0,0,1,.95-2.1,2.89,2.89,0,0,1,2.19-.72,3.28,3.28,0,0,1,2.27,1.22l.07.1a.19.19,0,0,0,.11.07.17.17,0,0,0,.12,0c.55-.41.82-.61,1.38-1a.17.17,0,0,0,0-.23h0l.1.08a2.16,2.16,0,0,0,.46-1.9,2.29,2.29,0,0,0,2,.32l0-.09a.17.17,0,0,0,.12,0,.13.13,0,0,0,.08,0c.59-.34.88-.51,1.48-.83a.15.15,0,0,0,.08-.11.13.13,0,0,0,0-.12l-.06-.1a3.16,3.16,0,0,1-.26-2.53,2.73,2.73,0,0,1,1.5-1.67,2.87,2.87,0,0,1,2.28,0,3.29,3.29,0,0,1,1.8,1.84l0,.07v.05a.2.2,0,0,0,.09.09.15.15,0,0,0,.13,0l1.6-.56a.15.15,0,0,0,.1-.2l.07.11a2.19,2.19,0,0,0,1-1.69,2.28,2.28,0,0,0,1.8.88v-.1a.15.15,0,0,0,.14.1h0c.64-.16,1-.23,1.66-.38a.18.18,0,0,0,.1-.07.2.2,0,0,0,0-.13v0a.29.29,0,0,0,0-.09,3.22,3.22,0,0,1,.49-2.51,2.8,2.8,0,0,1,4.09-.6,3.23,3.23,0,0,1,1.19,2.27v.12a.23.23,0,0,0,.06.12.17.17,0,0,0,.12,0c.68-.06,1-.08,1.69-.11a.16.16,0,0,0,.16-.16h0l0,.12A2.24,2.24,0,0,0,50,5.91a2.27,2.27,0,0,0,1.46,1.34l0-.1a.15.15,0,0,0,.15.14c.69,0,1,0,1.7.08a.19.19,0,0,0,.12,0,.17.17,0,0,0,.05-.12v0s0-.06,0-.1a3.25,3.25,0,0,1,1.2-2.29,2.82,2.82,0,0,1,2.17-.63,2.74,2.74,0,0,1,1.9,1.16,3.13,3.13,0,0,1,.49,2.51.29.29,0,0,1,0,.09V8a.15.15,0,0,0,0,.13.18.18,0,0,0,.1.07c.67.13,1,.2,1.66.36h0a.15.15,0,0,0,.16-.12h0v.13a2.3,2.3,0,0,0,1.9-1.1,2.21,2.21,0,0,0,1,1.91l0-.08a.28.28,0,0,0,0,.09.16.16,0,0,0,.1.08c.64.21,1,.32,1.6.55A.19.19,0,0,0,66,10a.16.16,0,0,0,.08-.1v0l0-.09A3.38,3.38,0,0,1,68,7.89a2.9,2.9,0,0,1,2.26,0,2.72,2.72,0,0,1,1.48,1.65,3.18,3.18,0,0,1-.26,2.57l-.06.1a.19.19,0,0,0,0,.13.22.22,0,0,0,.09.1c.6.32.89.48,1.47.83l.09,0a.17.17,0,0,0,.14-.08h0l0,.12a2.15,2.15,0,0,0,.61.09A2.42,2.42,0,0,0,75.07,13a2.21,2.21,0,0,0,.48,1.92l.08-.06a.16.16,0,0,0,.05.2c.56.4.83.59,1.37,1a.15.15,0,0,0,.13,0,.17.17,0,0,0,.11-.06l.07-.1a3.32,3.32,0,0,1,2.29-1.25,2.86,2.86,0,0,1,3.12,2.82,3.26,3.26,0,0,1-1,2.38l-.07.06,0,0a.16.16,0,0,0,0,.11.14.14,0,0,0,0,.12c.49.51.72.76,1.17,1.28a.16.16,0,0,0,.13.06.14.14,0,0,0,.1,0h0l-.08.12a2.22,2.22,0,0,0,1.29.41,2.57,2.57,0,0,0,.72-.11A2.3,2.3,0,0,0,84.87,24l.11,0a.16.16,0,0,0,0,.22c.42.58.62.87,1,1.46a.19.19,0,0,0,.12.07.21.21,0,0,0,.13,0,.71.71,0,0,1,.09-.07,3.06,3.06,0,0,1,4.22.74c.07.1.13.2.19.3a3.32,3.32,0,0,1,.23,2.6,3.12,3.12,0,0,1-1.64,1.88l-.1.05a.16.16,0,0,0-.09.09.15.15,0,0,0,0,.13c.3.68.45,1,.72,1.73a.2.2,0,0,0,.09.09l.07,0,.06,0h0l0,0-.18.12a2.26,2.26,0,0,0,1.85,1,2.52,2.52,0,0,0-.78,2.1l.16,0h0l0,0a.15.15,0,0,0-.1.19c.22.77.32,1.14.51,1.91a.21.21,0,0,0,.08.11.2.2,0,0,0,.13,0l.11,0A2.75,2.75,0,0,1,94.1,39a3.6,3.6,0,0,1,1.61,2.43,4.37,4.37,0,0,1-.82,3.16A2.82,2.82,0,0,1,93,45.7h-.11a.17.17,0,0,0-.12,0,.19.19,0,0,0,0,.12c.07.87.1,1.3.13,2.18a.17.17,0,0,0,.17.16h.13a4.53,4.53,0,0,0,.74-.09,1.28,1.28,0,0,0,1.17,1h0a1.06,1.06,0,0,0,.76-.35,1.64,1.64,0,0,0,.4-1.17,1.75,1.75,0,0,0-.19-.71c.08-.09.16-.17.23-.26a4.19,4.19,0,0,0,.26-.33,2.59,2.59,0,0,1,.36,1.24,3,3,0,0,1-.75,2.07,1.42,1.42,0,0,1-.76.42,1.54,1.54,0,0,0-.3,0h0l-.25,0a2.24,2.24,0,0,1-1.59-1.81l-.32.07a2.7,2.7,0,0,0,1.38,1.9,2.76,2.76,0,0,0-1.39,1.91l.29.06H93a.16.16,0,0,0-.17.16c0,.88-.07,1.31-.15,2.17a.16.16,0,0,0,0,.12.14.14,0,0,0,.11.06H93c2,.26,2.94,2.43,2.69,4.28A3.59,3.59,0,0,1,94,61.35a2.76,2.76,0,0,1-2.25.39l-.09,0h0a.2.2,0,0,0-.13,0,.18.18,0,0,0-.08.11c-.2.78-.3,1.15-.52,1.89a.16.16,0,0,0,.1.2l0,0,.06,0-.22,0A2.45,2.45,0,0,0,91.69,66a2.3,2.3,0,0,0-1.86,1.06l.11.07a.15.15,0,0,0-.13,0,.2.2,0,0,0-.09.09c-.27.7-.42,1-.73,1.72a.13.13,0,0,0,0,.12.18.18,0,0,0,.09.1l.1,0A3.14,3.14,0,0,1,90.8,71.1a3.28,3.28,0,0,1-.25,2.57,3,3,0,0,1-4.08,1.18l-.31-.19-.06,0,0,0a.16.16,0,0,0-.13,0,.15.15,0,0,0-.11.07c-.4.59-.59.87-1,1.44a.15.15,0,0,0,0,.22l0,0-.14-.06A2.36,2.36,0,0,0,85,78.47a2.25,2.25,0,0,0-2.21.22l.06.08a.17.17,0,0,0-.21,0c-.46.51-.69.76-1.17,1.26a.17.17,0,0,0,0,.12.14.14,0,0,0,.06.11h0l.07.07a3.19,3.19,0,0,1,1,2.39,2.73,2.73,0,0,1-1,2.06,2.78,2.78,0,0,1-2.15.69,3.31,3.31,0,0,1-2.26-1.26.36.36,0,0,1-.07-.1.17.17,0,0,0-.11-.06.16.16,0,0,0-.13,0c-.54.41-.81.6-1.36,1a.15.15,0,0,0,0,.22l-.09-.08a2.17,2.17,0,0,0-.47,1.89,2.3,2.3,0,0,0-2-.35l0,.09a.17.17,0,0,0-.2,0c-.59.34-.88.5-1.47.81a.23.23,0,0,0-.08.11.15.15,0,0,0,0,.13.41.41,0,0,0,.05.09,3.15,3.15,0,0,1,.24,2.56A2.68,2.68,0,0,1,70,92.17a2.83,2.83,0,0,1-2.23,0A3.28,3.28,0,0,1,66,90.31s0-.07,0-.11a.18.18,0,0,0-.09-.1.13.13,0,0,0-.12,0c-.63.22-.94.33-1.59.53a.16.16,0,0,0-.1.2l-.07-.1a2.1,2.1,0,0,0-1,1.65,2.31,2.31,0,0,0-1.78-.88v.09a.16.16,0,0,0-.18-.09c-.65.16-1,.23-1.64.36a.18.18,0,0,0-.1.07.15.15,0,0,0,0,.13v0a.29.29,0,0,0,0,.09,3.22,3.22,0,0,1-.49,2.51A2.71,2.71,0,0,1,57,95.83a2.79,2.79,0,0,1-2.14-.6,3.27,3.27,0,0,1-1.19-2.29.49.49,0,0,1,0-.12.18.18,0,0,0,0-.12.2.2,0,0,0-.13,0c-.66,0-1,.07-1.67.09a.17.17,0,0,0-.16.16l0-.12a2.15,2.15,0,0,0-1.41,1.33,2.26,2.26,0,0,0-1.45-1.33l0,.09a.17.17,0,0,0-.16-.14l-1.67-.09a.14.14,0,0,0-.12,0,.16.16,0,0,0-.05.11v0a.34.34,0,0,0,0,.1A3.18,3.18,0,0,1,45.5,95.2a2.8,2.8,0,0,1-2.13.6,2.74,2.74,0,0,1-1.88-1.17,3.15,3.15,0,0,1-.5-2.5.3.3,0,0,1,0-.1v0a.15.15,0,0,0,0-.13.18.18,0,0,0-.1-.07c-.67-.14-1-.21-1.64-.37a.16.16,0,0,0-.19.12v-.12h0a2.2,2.2,0,0,0-1.85,1.07,2.25,2.25,0,0,0-1-1.9l0,.08a.15.15,0,0,0-.11-.17c-.64-.22-1-.32-1.58-.55a.15.15,0,0,0-.13,0,.18.18,0,0,0-.09.1.69.69,0,0,1,0,.1A3.26,3.26,0,0,1,32.37,92a2.79,2.79,0,0,1-2.23,0,2.71,2.71,0,0,1-1.49-1.65,3.12,3.12,0,0,1,.25-2.53.21.21,0,0,1,.06-.1.2.2,0,0,0,0-.13.16.16,0,0,0-.08-.1c-.6-.32-.89-.49-1.47-.82a.15.15,0,0,0-.22,0l0-.12a2.24,2.24,0,0,0-1.95.35,2.21,2.21,0,0,0-.5-1.91l-.07.06a.17.17,0,0,0,0-.2c-.56-.39-.83-.58-1.37-1a.2.2,0,0,0-.13,0,.19.19,0,0,0-.11.07L23,84a3.21,3.21,0,0,1-2.24,1.23,2.85,2.85,0,0,1-3.13-2.79,3.17,3.17,0,0,1,1-2.34l.07-.07h0a.18.18,0,0,0,.05-.12.17.17,0,0,0,0-.12c-.49-.5-.72-.75-1.18-1.27a.17.17,0,0,0-.23,0h0l.08-.12a2.35,2.35,0,0,0-2-.29,2.29,2.29,0,0,0,.1-2l-.1.05a.17.17,0,0,0,0-.22c-.42-.56-.62-.85-1-1.44a.26.26,0,0,0-.11-.07.19.19,0,0,0-.13,0h0l-.08.06a3,3,0,0,1-2.27.5,3,3,0,0,1-2-1.23c-.06-.09-.11-.18-.16-.27A3.23,3.23,0,0,1,9.36,71,3.07,3.07,0,0,1,11,69.08l.1,0a.14.14,0,0,0,.09-.09.13.13,0,0,0,0-.12c-.32-.69-.46-1-.74-1.71a.16.16,0,0,0-.09-.09.15.15,0,0,0-.13,0l-.07,0h0l.17-.11a2.24,2.24,0,0,0-1.85-1,2.48,2.48,0,0,0,.75-2.08H9.08a.17.17,0,0,0,.1-.2c-.23-.74-.34-1.11-.53-1.88a.18.18,0,0,0-.23-.11l-.1,0a2.76,2.76,0,0,1-2.26-.4A3.55,3.55,0,0,1,4.44,58.9a4.27,4.27,0,0,1,.77-3.12,2.81,2.81,0,0,1,1.9-1.11h.11a.14.14,0,0,0,.12-.06.17.17,0,0,0,0-.12c-.09-.85-.12-1.28-.16-2.15a.17.17,0,0,0-.17-.16H6.92a4.4,4.4,0,0,0-.74.1,1.28,1.28,0,0,0-1.21-1,1.07,1.07,0,0,0-.76.37A1.61,1.61,0,0,0,4,53.49a4.44,4.44,0,0,0-.5.56,2.57,2.57,0,0,1-.35-1.18A3,3,0,0,1,3.88,50.82ZM92.17,69.09A5.18,5.18,0,0,0,91,67.74a.86.86,0,0,1,1-.31,1,1,0,0,1,.47,1.26A1,1,0,0,1,92.17,69.09Zm.26,1.33a5.34,5.34,0,0,1-.25,4.22,4.44,4.44,0,0,1-3,2.2,5,5,0,0,1-4-.71c.32-.44.52-.72.83-1.18l.31.19a3.33,3.33,0,0,0,2.53.27,3.25,3.25,0,0,0,2-1.58A3.58,3.58,0,0,0,91.12,71a3.47,3.47,0,0,0-1.76-2.08c.24-.55.39-.88.61-1.43A5,5,0,0,1,92.43,70.42ZM93,71.67a.82.82,0,0,1,.91.58,1.07,1.07,0,0,1-.59,1.3.74.74,0,0,1-.44,0A5.65,5.65,0,0,0,93,71.67ZM85.9,76.9a5.34,5.34,0,0,0,1.7.39.93.93,0,0,1-.17.48l0,0a.85.85,0,0,1-.57.3.89.89,0,0,1-.63-.18A.93.93,0,0,1,85.9,76.9Zm-1.43,7a.86.86,0,0,1,.68.83.94.94,0,0,1-.9,1,.89.89,0,0,1-.43-.11A5,5,0,0,0,84.47,83.88Zm-.83-4.18A.89.89,0,0,1,84.78,81a.86.86,0,0,1-.42.25A5.11,5.11,0,0,0,83.64,79.7Zm.6,3.14a4.56,4.56,0,0,1-1.42,3.4,4.28,4.28,0,0,1-3.32,1,5.41,5.41,0,0,1-3.7-2l1.11-.8a3.6,3.6,0,0,0,2.47,1.35,3.12,3.12,0,0,0,3.46-3.07,3.52,3.52,0,0,0-1-2.59c.38-.39.6-.64,1-1A5.1,5.1,0,0,1,84.24,82.84Zm-8,3.39a5.72,5.72,0,0,0,1.48.91.77.77,0,0,1-.29.38.88.88,0,0,1-.65.11.86.86,0,0,1-.55-.38A.87.87,0,0,1,76.26,86.23ZM73.5,88a.91.91,0,0,1,.9.44.83.83,0,0,1,.13.63.87.87,0,0,1-.36.53h0a.77.77,0,0,1-.41.11A4.94,4.94,0,0,0,73.5,88Zm-.26,2.79a4.92,4.92,0,0,1-2.43,3.09,3.89,3.89,0,0,1-3.26.11,5.61,5.61,0,0,1-3.13-3.1c.5-.15.8-.26,1.28-.43a3.64,3.64,0,0,0,2,2,3.1,3.1,0,0,0,2.48,0,3,3,0,0,0,1.65-1.82,3.51,3.51,0,0,0-.24-2.78l1.19-.66A4.47,4.47,0,0,1,73.24,90.79ZM69.66,95A.89.89,0,0,1,68,94.47a4.6,4.6,0,0,0,1.15.15,3.18,3.18,0,0,0,.62-.05A.91.91,0,0,1,69.66,95Zm-5.08-3a6.22,6.22,0,0,0,1.14,1.32.71.71,0,0,1-.35.24.89.89,0,0,1-.94-.33.86.86,0,0,1-.17-.67A.89.89,0,0,1,64.58,91.93Zm-3.13.89a.91.91,0,0,1,.74.68.86.86,0,0,1-.06.63.83.83,0,0,1-.49.41h0a.75.75,0,0,1-.42,0A4.59,4.59,0,0,0,61.45,92.82Zm-1,2.59a4.93,4.93,0,0,1-3.19,2.28,3.91,3.91,0,0,1-3.16-.81A5.53,5.53,0,0,1,52,93.07L53.3,93a3.58,3.58,0,0,0,1.32,2.48,3.13,3.13,0,0,0,2.38.68,3.09,3.09,0,0,0,2.1-1.28,3.51,3.51,0,0,0,.55-2.73c.51-.1.82-.17,1.32-.29A4.4,4.4,0,0,1,60.41,95.41Zm-6.07,2.06a4.4,4.4,0,0,0,1.66.59.93.93,0,0,1-.19.35,1,1,0,0,1-.61.29.89.89,0,0,1-.86-1.23Zm-1.81-1.79a.71.71,0,0,1-.42.14.86.86,0,0,1-.61-.25.85.85,0,0,1-.25-.61.89.89,0,0,1,.56-.85A5.7,5.7,0,0,0,52.53,95.68Zm-5.7.64a5,5,0,0,1-3.73,1.33A3.88,3.88,0,0,1,40.28,96a5.45,5.45,0,0,1-1-4.22l1.33.3a3.49,3.49,0,0,0,.56,2.72,3.06,3.06,0,0,0,2.1,1.3,3.1,3.1,0,0,0,2.39-.67A3.55,3.55,0,0,0,47,93c.51,0,.83.06,1.35.08A4.49,4.49,0,0,1,46.83,96.32ZM46,98a.84.84,0,0,1-.42.52.91.91,0,0,1-1.1-.2.88.88,0,0,1-.19-.43A5.56,5.56,0,0,0,46,97.32l-.1.05A.86.86,0,0,1,46,98Zm-5.57-1.38a4.39,4.39,0,0,0,1.43,1,.8.8,0,0,1-.27.28.89.89,0,0,1-1.11-.11A.87.87,0,0,1,40.39,96.66Zm-1.24-2.2a.74.74,0,0,1-.44,0h0a.85.85,0,0,1-.57-1.06.9.9,0,0,1,.78-.66A6.25,6.25,0,0,0,39.15,94.46Zm9.4-.34a.87.87,0,0,1,.51.84.83.83,0,0,1-.83.85h0a.78.78,0,0,1-.39-.12A4.87,4.87,0,0,0,48.55,94.12ZM35.87,92.79a.82.82,0,0,1-.4.51.88.88,0,0,1-.66.07.79.79,0,0,1-.34-.23,4.72,4.72,0,0,0,1.15-1.3A.87.87,0,0,1,35.87,92.79Zm-2.52.67a5.15,5.15,0,0,1-4,.24,3.88,3.88,0,0,1-2.25-2.38,5.41,5.41,0,0,1,.3-4.29c.45.26.73.42,1.2.67a3.5,3.5,0,0,0-.25,2.76A3.05,3.05,0,0,0,30,92.3a3.17,3.17,0,0,0,2.49,0,3.58,3.58,0,0,0,2-2c.48.18.79.28,1.28.45A4.49,4.49,0,0,1,33.35,93.46Zm-1.71,1.72a.9.9,0,0,1-1.2-.43.84.84,0,0,1-.07-.47,4.74,4.74,0,0,0,.65,0,5.08,5.08,0,0,0,1.1-.12A.88.88,0,0,1,31.64,95.18Zm-3.53-1.82a1.08,1.08,0,0,1-.35.19.91.91,0,0,1-1.12-.62A.86.86,0,0,1,27,92,4.39,4.39,0,0,0,28.11,93.36Zm-1.66-3.84a.8.8,0,0,1-.43-.1l0,0a.83.83,0,0,1-.36-.53.87.87,0,0,1,.13-.64.9.9,0,0,1,.94-.41A6,6,0,0,0,26.45,89.52Zm-2.56-2.47a.87.87,0,0,1-1.2.24.75.75,0,0,1-.26-.33,5,5,0,0,0,1.48-.91A.87.87,0,0,1,23.89,87.05ZM21.08,87a4.79,4.79,0,0,1-3.76-1,4.93,4.93,0,0,1,.05-7.07c.36.41.59.65,1,1a3.49,3.49,0,0,0-1,2.55,3.19,3.19,0,0,0,3.49,3.12,3.59,3.59,0,0,0,2.45-1.33c.42.31.68.51,1.12.81A4.64,4.64,0,0,1,21.08,87Zm-2.95-.1a4.91,4.91,0,0,0,1.72.45.86.86,0,0,1-.74.78.94.94,0,0,1-1-.79A.83.83,0,0,1,18.13,86.86ZM15.71,81a.87.87,0,0,1,.13-1.67.87.87,0,0,1,.61.09A5,5,0,0,0,15.71,81ZM14,77.78a.86.86,0,0,1-1.2-.14l0,0a.91.91,0,0,1-.17-.42,4.54,4.54,0,0,0,1.7-.38A.89.89,0,0,1,14,77.78Zm-2.51-1A5.14,5.14,0,0,1,8,74.47a5.39,5.39,0,0,1-.29-4.3,4.52,4.52,0,0,1,2.46-2.79c.23.55.37.88.62,1.42a3.4,3.4,0,0,0-1.74,2.06,3.56,3.56,0,0,0,.29,2.82c.05.1.12.2.18.3a3.4,3.4,0,0,0,4.66.84c.31.46.51.73.84,1.18A4.31,4.31,0,0,1,11.49,76.78ZM7.22,73.37a.83.83,0,0,1-.44-.05,1.08,1.08,0,0,1-.6-1.3.81.81,0,0,1,.91-.57l0-.11A6,6,0,0,0,7.22,73.37Zm.45-4.81a.93.93,0,0,1,.46-1.23.87.87,0,0,1,1,.27,4.75,4.75,0,0,0-1.2,1.32A1,1,0,0,1,7.67,68.56ZM7.3,65a.77.77,0,0,1-.63,0,1,1,0,0,1-.49-.6,1,1,0,0,1,0-.48,4.13,4.13,0,0,0,1.38.24,2.17,2.17,0,0,0,.36,0A.93.93,0,0,1,7.3,65ZM5.6,63.3a6.33,6.33,0,0,1-3-4,6.38,6.38,0,0,1,1.16-5,4.34,4.34,0,0,1,3.13-1.76c0,.72.08,1.13.14,1.84a3.13,3.13,0,0,0-2.09,1.23,4.57,4.57,0,0,0-.83,3.36,3.92,3.92,0,0,0,1.77,2.61A3.11,3.11,0,0,0,8.37,62c.16.61.26,1,.45,1.58A3.82,3.82,0,0,1,5.6,63.3Zm-1.53-.76-.22-.16a.76.76,0,0,1-1,.18A1.29,1.29,0,0,1,2.41,61a.88.88,0,0,1,.32-.37A6.82,6.82,0,0,0,4.07,62.54ZM2.16,57.79a.84.84,0,0,1-.35-.21,1.42,1.42,0,0,1-.16-1.69l0,0a.74.74,0,0,1,.45-.3.72.72,0,0,1,.5.09A7,7,0,0,0,2.16,57.79Zm2-5a1.27,1.27,0,0,1,.3-.92A.77.77,0,0,1,5,51.61a1,1,0,0,1,.88.76,4.48,4.48,0,0,0-1.59.89A1.31,1.31,0,0,1,4.15,52.79ZM.88,55A.91.91,0,0,1,1,54.87a1.58,1.58,0,0,1,2.16-.29,7.48,7.48,0,0,0-.39.74,1.09,1.09,0,0,0-.69-.1,1.1,1.1,0,0,0-.67.44l0,.07a1.72,1.72,0,0,0,.21,2.07,1.18,1.18,0,0,0,.59.32,5.62,5.62,0,0,0,.07.92,1.73,1.73,0,0,1-1-.5A2.92,2.92,0,0,1,.88,55Zm2.67,8.8a1.57,1.57,0,0,1-1.18-.24,2.72,2.72,0,0,1-.83-3.24,1.89,1.89,0,0,1,.78-.85,5.52,5.52,0,0,0,.28.84,1.12,1.12,0,0,0-.49.54,1.59,1.59,0,0,0,.51,1.94,1.09,1.09,0,0,0,.62.2,1.07,1.07,0,0,0,.87-.44,5.37,5.37,0,0,0,.57.5A1.77,1.77,0,0,1,3.55,63.83Zm1.68.86a2.48,2.48,0,0,1,0-1.24l.23.14.39.19a1.46,1.46,0,0,0,0,.69,1.3,1.3,0,0,0,.66.8A1.2,1.2,0,0,0,7,65.4a1.34,1.34,0,0,0,.39-.07,1.27,1.27,0,0,0,.8-1.25,3.69,3.69,0,0,0,.65-.18A2.06,2.06,0,0,1,7.65,66a1.72,1.72,0,0,1-1.38-.11A2.06,2.06,0,0,1,5.23,64.69ZM6.77,69a2.33,2.33,0,0,1,.05-1.74,1.64,1.64,0,0,1,.93-.9,2,2,0,0,1,2.27.75,5.86,5.86,0,0,0-.61.32A1.19,1.19,0,0,0,8,67a1.26,1.26,0,0,0-.63,1.65,1.23,1.23,0,0,0,.4.53c-.11.21-.21.42-.3.64A1.93,1.93,0,0,1,6.77,69Zm.59,1.19h0ZM6.5,74.34a2.35,2.35,0,0,1-1.28-2.76,1.77,1.77,0,0,1,2.07-1.17q-.09.36-.15.72a1.14,1.14,0,0,0-1.28.8,1.42,1.42,0,0,0,.79,1.69,1.12,1.12,0,0,0,.44.09l.22,0a5,5,0,0,0,.28.71A1.7,1.7,0,0,1,6.5,74.34ZM9,78.23a2.25,2.25,0,0,1-1.66-2.44,1.81,1.81,0,0,1,.5-1,4.26,4.26,0,0,0,.46.59A1.24,1.24,0,0,0,8,76a1.34,1.34,0,0,0,1,1.51,1,1,0,0,0,.24,0,1.15,1.15,0,0,0,1.08-.75L10,76.68a.82.82,0,0,1-.94.51,1,1,0,0,1-.78-1.14.81.81,0,0,1,.19-.42A5.8,5.8,0,0,0,11,77,1.79,1.79,0,0,1,9,78.23Zm4.18.67A1.72,1.72,0,0,1,12,78.21a2,2,0,0,1-.37-1.08,3.88,3.88,0,0,0,.67.06,1.2,1.2,0,0,0,.23.61l0,0a1.2,1.2,0,0,0,.93.44,1.22,1.22,0,0,0,1.14-1.63,4.28,4.28,0,0,0,.57-.37,2,2,0,0,1-.57,2.25A1.91,1.91,0,0,1,13.16,78.9Zm1.46,2.55A2,2,0,0,1,14.18,80a1.71,1.71,0,0,1,.63-1.2,2,2,0,0,1,2.31-.12,5.32,5.32,0,0,0-.47.48,1.17,1.17,0,0,0-.88-.14,1.21,1.21,0,0,0-.67,2,1.17,1.17,0,0,0,.54.33,4.92,4.92,0,0,0-.1.67A1.77,1.77,0,0,1,14.62,81.45Zm.91.87s0,.07,0,.1v-.1Zm.34,4a2.16,2.16,0,0,1-1.45-.71,1.83,1.83,0,0,1-.51-1.33,1.86,1.86,0,0,1,1.62-1.75,5.2,5.2,0,0,0,.75,2.67.86.86,0,0,1-.44.1,1,1,0,0,1-.91-.95.86.86,0,0,1,.7-.82l-.06-.32a1.19,1.19,0,0,0-1,1.14,1.27,1.27,0,0,0,1.23,1.28h0a1.11,1.11,0,0,0,.59-.16,3.39,3.39,0,0,0,.45.54A1.74,1.74,0,0,1,15.87,86.34Zm3.42,2.74a2.06,2.06,0,0,1-1.5-.44,1.84,1.84,0,0,1-.73-1.24,1.8,1.8,0,0,1,.19-1.07,5.87,5.87,0,0,0,.58.39,1.13,1.13,0,0,0-.08.63A1.26,1.26,0,0,0,19,88.42h.16a1.18,1.18,0,0,0,1-1.08h.19a3.87,3.87,0,0,0,.48,0A1.85,1.85,0,0,1,19.29,89.08Zm4.09-.71a1.66,1.66,0,0,1-1.26-.27,1.86,1.86,0,0,1-.65-.87,6,6,0,0,0,.64-.16,1.33,1.33,0,0,0,.39.49h0a1.2,1.2,0,0,0,.65.19,1.23,1.23,0,0,0,1-1.93c.15-.17.3-.34.43-.52a1.89,1.89,0,0,1,.09,2.25A2,2,0,0,1,23.38,88.37Zm2.14,1.9a1.78,1.78,0,0,1-.81-1.17A1.71,1.71,0,0,1,25,87.75a2,2,0,0,1,2.14-.85,4.22,4.22,0,0,0-.28.61,1.21,1.21,0,0,0-1.33.55,1.1,1.1,0,0,0-.17.88,1.14,1.14,0,0,0,.5.73l0,0a1.16,1.16,0,0,0,.57.15h.05c0,.21,0,.43.07.64A1.62,1.62,0,0,1,25.52,90.27Zm2.56,4.23a2.09,2.09,0,0,1-1.57-.24,1.74,1.74,0,0,1-.85-1.08,1.91,1.91,0,0,1,1-2.13,2.78,2.78,0,0,0,.12.38l.09.25A1.18,1.18,0,0,0,26.33,93a1.23,1.23,0,0,0,1.19.89,1.4,1.4,0,0,0,.34,0,1.17,1.17,0,0,0,.51-.31,3.61,3.61,0,0,0,.6.35A1.82,1.82,0,0,1,28.08,94.5Zm4,1.58a2.12,2.12,0,0,1-1.55,0,1.79,1.79,0,0,1-1-.95,1.85,1.85,0,0,1-.12-1.09,3.55,3.55,0,0,0,.66.17,1.07,1.07,0,0,0,.09.66,1.23,1.23,0,0,0,1.12.7,1.22,1.22,0,0,0,.52-.11,1.2,1.2,0,0,0,.67-1.33l-.1,0a6.67,6.67,0,0,0,.72-.23A1.87,1.87,0,0,1,32.09,96.08Zm3.66-1.87a1.59,1.59,0,0,1-1.26.1,1.78,1.78,0,0,1-.85-.63,5.36,5.36,0,0,0,.57-.34,1.17,1.17,0,0,0,.5.34h0a1,1,0,0,0,.33,0,1.22,1.22,0,0,0,.73-2.18,3.7,3.7,0,0,0,.26-.62,1.89,1.89,0,0,1,.73,2.12A2,2,0,0,1,35.75,94.21Zm2.73,1.24a1.83,1.83,0,0,1-1.1-.88,1.75,1.75,0,0,1-.16-1.37A2,2,0,0,1,39,91.76q-.06.33-.09.66a1.22,1.22,0,0,0-1.1.92,1.16,1.16,0,0,0,.78,1.45h0a1.12,1.12,0,0,0,.62,0c.08.2.16.4.26.6A1.73,1.73,0,0,1,38.48,95.45Zm3.64,3.33a2.06,2.06,0,0,1-1.55.22,1.77,1.77,0,0,1-1.12-.8,1.9,1.9,0,0,1,.34-2.33,2.54,2.54,0,0,0,.23.34l.15.2a1.19,1.19,0,0,0,0,1.66,1.21,1.21,0,0,0,.86.35,1.14,1.14,0,0,0,.66-.2,1.17,1.17,0,0,0,.4-.43,5,5,0,0,0,.67.16A1.73,1.73,0,0,1,42.12,98.78Zm4.28.39a2,2,0,0,1-1.47.45A1.8,1.8,0,0,1,43.67,99a1.91,1.91,0,0,1-.43-1h.2a3.85,3.85,0,0,0,.48,0,1.22,1.22,0,0,0,.27.6,1.25,1.25,0,0,0,.93.42,1.22,1.22,0,0,0,.58-.15,1.19,1.19,0,0,0,.48-1.63l-.15.08a5.1,5.1,0,0,0,.69-.45A1.91,1.91,0,0,1,46.4,99.17Zm3-2.8a1.59,1.59,0,0,1-1.17.44,1.84,1.84,0,0,1-1-.38,5.11,5.11,0,0,0,.45-.48,1.14,1.14,0,0,0,.58.19h0A1.17,1.17,0,0,0,49.39,95a1.2,1.2,0,0,0-.77-1.18,4.9,4.9,0,0,0,.07-.67A1.93,1.93,0,0,1,50,95,2,2,0,0,1,49.35,96.37Zm2.83.44A1.85,1.85,0,0,1,50.32,95a2,2,0,0,1,1.3-1.87c0,.22.06.44.1.67a1.21,1.21,0,0,0-.8,1.18,1.14,1.14,0,0,0,.35.83,1.18,1.18,0,0,0,.83.35h0a1.1,1.1,0,0,0,.59-.2,5.17,5.17,0,0,0,.42.51A1.61,1.61,0,0,1,52.18,96.81ZM56.6,99a2,2,0,0,1-1.41.63,1.75,1.75,0,0,1-1.31-.47,1.91,1.91,0,0,1-.34-2.33,2.69,2.69,0,0,0,.32.27l.2.15a1.19,1.19,0,0,0,.28,1.42,1.16,1.16,0,0,0,.81.31h.06a1.15,1.15,0,0,0,.84-.39l0,0a1.16,1.16,0,0,0,.26-.52h.17l.52,0A1.77,1.77,0,0,1,56.6,99Zm4.22-.77a2,2,0,0,1-1.27.82,1.78,1.78,0,0,1-1.4-.25,1.93,1.93,0,0,1-.69-.86,4.61,4.61,0,0,0,.63-.2,1.19,1.19,0,0,0,.46.51,1.15,1.15,0,0,0,.65.19l.26,0a1.24,1.24,0,0,0,.77-.53,1.21,1.21,0,0,0-.17-1.48l-.24.23A.89.89,0,0,1,60,97.75a.9.9,0,0,1-1.23.27.88.88,0,0,1-.32-.37,5.41,5.41,0,0,0,2.06-1.72A1.93,1.93,0,0,1,60.82,98.27Zm2-3.5a1.55,1.55,0,0,1-1,.74,1.78,1.78,0,0,1-1.07-.09,4.6,4.6,0,0,0,.29-.59,1,1,0,0,0,.35.06,1.24,1.24,0,0,0,.27,0h0a1.15,1.15,0,0,0,.76-1.44,1.22,1.22,0,0,0-1.07-.92,5.13,5.13,0,0,0-.13-.66,1.93,1.93,0,0,1,1.56,2.94Zm2.85-.34a1.88,1.88,0,0,1-2.3-1.25A1.93,1.93,0,0,1,64.12,91a5,5,0,0,0,.29.62,1.2,1.2,0,0,0-.48.79,1.18,1.18,0,0,0,.23.91,1.23,1.23,0,0,0,1,.5,1.55,1.55,0,0,0,.31,0,1.17,1.17,0,0,0,.52-.35c.17.13.35.26.54.38A1.59,1.59,0,0,1,65.71,94.43Zm4.89.92a2,2,0,0,1-1.18,1,1.78,1.78,0,0,1-1.4-.08,2,2,0,0,1-1-2.14l.4.17.22.08a1.24,1.24,0,0,0,.67,1.29,1.32,1.32,0,0,0,.54.12A1.23,1.23,0,0,0,70,95.1h0a1.18,1.18,0,0,0,.11-.58,3.83,3.83,0,0,0,.65-.22A1.75,1.75,0,0,1,70.6,95.35Zm3.84-1.93a1.92,1.92,0,0,1-1,1.15,1.79,1.79,0,0,1-1.42.15,2.06,2.06,0,0,1-.91-.63,5.42,5.42,0,0,0,.56-.37A1.35,1.35,0,0,0,72,94a1.22,1.22,0,0,0,1.65-.46,1.18,1.18,0,0,0,.11-.92,1.21,1.21,0,0,0-.57-.72l-.16.29a.85.85,0,0,1,.41.52.83.83,0,0,1-.08.67.88.88,0,0,1-1.2.33.8.8,0,0,1-.23-.18,5.44,5.44,0,0,0,1.5-2.23A1.87,1.87,0,0,1,74.44,93.42Zm1-4a1.59,1.59,0,0,1-.76,1,1.85,1.85,0,0,1-1.06.22,4.9,4.9,0,0,0,.11-.65h0a1.07,1.07,0,0,0,.57-.16l0,0a1.15,1.15,0,0,0,.33-1.6,1.24,1.24,0,0,0-1.3-.58,4.25,4.25,0,0,0-.31-.6,1.94,1.94,0,0,1,2.35,2.37Zm2.64-1.15a1.91,1.91,0,0,1-2.58-.53,2,2,0,0,1,.08-2.28A4.32,4.32,0,0,0,76,86a1.22,1.22,0,0,0,0,1.43,1.17,1.17,0,0,0,.75.51A1.09,1.09,0,0,0,77,88a1.16,1.16,0,0,0,.64-.19h0a1.12,1.12,0,0,0,.4-.53,4.71,4.71,0,0,0,.64.19A1.73,1.73,0,0,1,78.06,88.31Zm5-.59a2.1,2.1,0,0,1-.86,1.34,1.8,1.8,0,0,1-1.36.32,1.92,1.92,0,0,1-1.58-1.83H79v0a3.62,3.62,0,0,0,.46.06l.52,0a4.73,4.73,0,0,0,2-.42.83.83,0,0,1,.06.44.92.92,0,0,1-1,.77.89.89,0,0,1-.75-.8l-.32,0a1.18,1.18,0,0,0,1,1.09l.17,0a1.25,1.25,0,0,0,1.23-1.07,1.14,1.14,0,0,0-.08-.63,3.68,3.68,0,0,0,.58-.39A1.69,1.69,0,0,1,83,87.72Zm3.15-3.07a2.16,2.16,0,0,1-.64,1.46,1.87,1.87,0,0,1-1.3.56h0a1.89,1.89,0,0,1-1.06-.32,3.89,3.89,0,0,0,.46-.53,1.15,1.15,0,0,0,.6.16h0a1.26,1.26,0,0,0,1.22-1.27,1.18,1.18,0,0,0-1-1.15c0-.22,0-.45,0-.68A1.89,1.89,0,0,1,86.18,84.65Zm-1.62-1.94V82.6h0Zm1-1a1.86,1.86,0,0,1-1,.56c0-.22-.06-.44-.1-.66a1.17,1.17,0,0,0,.59-.36,1.2,1.2,0,0,0,.1-1.42,1.23,1.23,0,0,0-1.68-.4,5.47,5.47,0,0,0-.45-.51,1.94,1.94,0,0,1,2.3.14A2,2,0,0,1,86,80.44,1.72,1.72,0,0,1,85.52,81.71Zm2.72-3.35a1.92,1.92,0,0,1-1.32.72,1.65,1.65,0,0,1-1.3-.38,2,2,0,0,1-.6-2.28,4.19,4.19,0,0,0,.58.34,1.24,1.24,0,0,0,.4,1.42A1.18,1.18,0,0,0,87.65,78l0-.05a1.2,1.2,0,0,0,.23-.66h0a4.44,4.44,0,0,0,.63,0A1.89,1.89,0,0,1,88.24,78.36Zm3,.11a1.84,1.84,0,0,1-2-1.26l-.23.07v-.06l.32-.07a5,5,0,0,0,2.42-1.27.88.88,0,0,1,.17.41,1,1,0,0,1-.76,1.14.83.83,0,0,1-.95-.53l-.31.12a1.16,1.16,0,0,0,1.09.75,1,1,0,0,0,.24,0,1.35,1.35,0,0,0,1-1.51,1.11,1.11,0,0,0-.28-.6,3.84,3.84,0,0,0,.45-.61,1.82,1.82,0,0,1,.51,1A2.21,2.21,0,0,1,91.2,78.47Zm3.71-6.66a2.35,2.35,0,0,1-1.26,2.77,1.73,1.73,0,0,1-1.1,0,4.76,4.76,0,0,0,.28-.71l.22,0a1.32,1.32,0,0,0,.44-.08,1.41,1.41,0,0,0,.78-1.7A1.16,1.16,0,0,0,93,71.34a6.2,6.2,0,0,0-.16-.72A1.79,1.79,0,0,1,94.91,71.81ZM93.37,67.5a2.09,2.09,0,0,1,0,1.59,2.14,2.14,0,0,1-.75.93c-.09-.22-.2-.44-.31-.65a1.24,1.24,0,0,0,.45-.56,1.3,1.3,0,0,0-.65-1.68,1.22,1.22,0,0,0-1.42.41,4.3,4.3,0,0,0-.59-.34,1.8,1.8,0,0,1,3.25.3Zm1.52-2.72a2.24,2.24,0,0,1-1.15,1.32,1.47,1.47,0,0,1-1.23,0A2.11,2.11,0,0,1,91.24,64a5,5,0,0,0,.65.14,1.3,1.3,0,0,0,.82,1.31,1.22,1.22,0,0,0,.38.07,1,1,0,0,0,.51-.13,1.33,1.33,0,0,0,.66-.8,1.47,1.47,0,0,0,0-.75,4.5,4.5,0,0,0,.63-.3A2.34,2.34,0,0,1,94.89,64.78Zm3.65-4.26a2.76,2.76,0,0,1-.82,3.26,1.66,1.66,0,0,1-1.27.21,1.64,1.64,0,0,1-1-.74l-.21.13v0h0a5.7,5.7,0,0,0,.78-.59,1.06,1.06,0,0,0,.87.44,1,1,0,0,0,.62-.2h0a1.61,1.61,0,0,0,.5-2,1.33,1.33,0,0,0-.45-.52,5.24,5.24,0,0,0,.24-.86A1.79,1.79,0,0,1,98.54,60.52Zm-.71-1.33a6.86,6.86,0,0,0,0-.91,1.15,1.15,0,0,0,.64-.34,1.76,1.76,0,0,0,.19-2.09,1.05,1.05,0,0,0-1.44-.38,6.82,6.82,0,0,0-.37-.77A1.56,1.56,0,0,1,98,54.41a1.72,1.72,0,0,1,1.13.75,3,3,0,0,1-.32,3.54A1.59,1.59,0,0,1,97.83,59.19Z" fill="#444d66"/></svg>