<svg xmlns="http://www.w3.org/2000/svg" viewBox="0 0 100 100"><path d="M94.56,62.15,94,62c-.87-1-1.77-1.92-2.68-2.84l-.17-.18-.06.24a56.94,56.94,0,0,1-1.71,5.72l-.07.19h.2c1.15,0,2.35-.14,3.65-.3h0l.43.18v0c.83,1,1.64,2.12,2.42,3.2l.15.21.09-.25a65.41,65.41,0,0,0,2-6.71l.06-.23-.23.06C96.73,61.67,95.62,61.94,94.56,62.15Zm-.87,2.54-.33-.14c.24-.76.47-1.52.68-2.29l.33.12C94.17,63.15,93.94,63.92,93.69,64.69Zm-2.36-5.2c.84.85,1.67,1.74,2.47,2.62-.1.38-.21.77-.33,1.15l-2.86-1.13Q91,60.81,91.33,59.49ZM89.74,64.8c.3-.84.57-1.69.83-2.54l2.86,1.13c-.11.38-.23.76-.35,1.13C91.9,64.66,90.8,64.76,89.74,64.8Zm6.41,3c-.72-1-1.46-2-2.22-2.94l.36-1.15,2.83,1.12C96.81,65.84,96.49,66.83,96.15,67.81Zm1-3.1-2.83-1.12c.12-.39.23-.79.34-1.18,1-.2,2-.45,3.34-.81C97.74,62.64,97.46,63.68,97.15,64.71Z" fill="#444d66"/><path d="M94.89,60.18l.13-.09c1-.64,1.9-1.35,2.93-2.2l.09-.07-.05-.1c-.62-1.16-1.27-2.32-1.94-3.44L96,54.14l-.13.11a35,35,0,0,1-2.78,2.28l-.1.07.06.11c.68,1.17,1.27,2.25,1.81,3.33Zm1-5.61c.62,1,1.22,2.12,1.8,3.19-.94.77-1.82,1.43-2.69,2-.5-1-1.06-2-1.69-3.1C94.15,56.06,95,55.36,95.88,54.57Z" fill="#444d66"/><path d="M90.13,73.24l-.48-.33c-.65-1.11-1.34-2.23-2.05-3.32l-.13-.2-.11.21a50,50,0,0,1-2.77,4.68l-.11.16.19,0c1.13.28,2.31.53,3.6.75h0l.39.29v0c.59,1.17,1.17,2.38,1.72,3.59l.1.23.14-.21a56.15,56.15,0,0,0,3.25-5.49l.1-.19h-.22C92.47,73.45,91.27,73.37,90.13,73.24Zm-1.34,2.05-.3-.22c.37-.61.73-1.22,1.1-1.85l.31.21C89.53,74.05,89.17,74.67,88.79,75.29ZM87.5,70q1,1.51,1.89,3.06l-.54.92L86.29,72.1C86.71,71.4,87.11,70.68,87.5,70Zm-1.28,2.27,2.56,1.83c-.18.31-.37.61-.55.91-1.18-.21-2.26-.43-3.3-.69C85.38,73.61,85.81,72.92,86.22,72.22Zm4.34,6.6c-.51-1.11-1-2.22-1.59-3.3.19-.31.38-.62.56-.93l2.54,1.82C91.59,77.23,91.08,78,90.56,78.82Zm1.58-2.52L89.6,74.48c.19-.31.37-.63.55-1,1.07.11,2.19.19,3.4.23C93.11,74.61,92.63,75.46,92.14,76.3Z" fill="#444d66"/><path d="M83.66,82.15l-.41-.44c-.42-1.22-.87-2.44-1.34-3.64l-.08-.21-.15.17a49.73,49.73,0,0,1-3.62,3.64l-.15.13.17.09c1,.56,2.14,1.1,3.35,1.65h0l.32.38v0c.35,1.26.67,2.55,1,3.83l.05.23.18-.16a55.23,55.23,0,0,0,4.25-4.27l.14-.16-.2-.06C85.76,82.92,84.67,82.54,83.66,82.15ZM82,83.71l-.25-.29c.49-.46,1-.94,1.42-1.43l.26.28C82.92,82.76,82.44,83.25,82,83.71Zm-.22-5.32c.43,1.11.85,2.24,1.23,3.37l-.69.71-2.13-2.4Q81,79.25,81.74,78.39Zm-1.68,1.77,2.13,2.4-.71.7c-1.11-.51-2.12-1-3.08-1.51C79,81.24,79.51,80.71,80.06,80.16ZM83,87.5c-.27-1.18-.57-2.37-.89-3.53l.72-.71,2.11,2.38C84.28,86.28,83.63,86.9,83,87.5Zm2-2c-.7-.79-1.41-1.58-2.11-2.38.24-.24.48-.49.71-.74,1,.37,2,.72,3.27,1.13C86.28,84.24,85.65,84.9,85,85.55Z" fill="#444d66"/><path d="M87.8,76.9l0-.13h-.13c-1.11.11-2.18.19-3.28.23h-.15l0,.15c.18,1.25.31,2.4.4,3.52v.13h.13c1.12,0,2.26,0,3.38-.13h.14v-.14C88.17,79.37,88,78.19,87.8,76.9Zm-2.9,3.63c-.08-1-.2-2.11-.37-3.25,1,0,2-.11,3-.21.19,1.18.34,2.28.44,3.35C87,80.49,85.92,80.53,84.9,80.53Z" fill="#444d66"/><path d="M93,66.84,93,66.7h0l-.13.06c-1,.44-2.08.83-3.14,1.18l-.13,0,0,.13c.43,1.22.79,2.36,1.1,3.48l0,.14h0l.13,0c1.1-.33,2.17-.68,3.26-1.09l.12,0,0-.12C93.88,69.3,93.48,68.12,93,66.84Zm-2.08,4.55c-.29-1-.63-2.1-1-3.23,1-.33,1.93-.69,2.89-1.09.43,1.18.8,2.27,1.12,3.32C92.92,70.76,91.94,71.09,90.93,71.39Z" fill="#444d66"/><path d="M75.57,88.92l-.31-.52c-.18-1.41-.37-2.65-.57-3.81l0-.21-.18.12c-1.37.93-2.8,1.81-4.26,2.6l-.17.09.15.13c.9.79,1.86,1.57,2.93,2.4l0,0,.24.44v0c.08,1.29.14,2.6.17,3.91v.23l.2-.11a58,58,0,0,0,5-3l.18-.12L78.75,91C77.68,90.31,76.61,89.62,75.57,88.92ZM73.6,90l-.18-.34c.56-.32,1.11-.66,1.67-1l.2.33C74.73,89.33,74.16,89.67,73.6,90ZM75,88.38l-.81.51-1.59-2.83c.64-.39,1.27-.79,1.88-1.21C74.64,85.93,74.81,87.08,75,88.38Zm-2.53-2.25L74,89l-.83.49c-1-.76-1.87-1.48-2.7-2.2C71.17,86.89,71.82,86.52,72.45,86.13Zm1.22,4.15.85-.5,1.58,2.8c-.75.45-1.5.89-2.27,1.31C73.79,92.68,73.74,91.47,73.67,90.28Zm2.53,2.23-1.58-2.8.84-.53c1,.65,2,1.29,3,1.9C77.7,91.58,77,92.05,76.2,92.51Z" fill="#444d66"/><path d="M66.34,93.51l-.2-.58c.1-1.21.17-2.46.21-3.82V88.9l-.19.07c-1.55.6-3.08,1.11-4.68,1.56l-.19,0,.12.16c.72,1,1.5,1.94,2.38,3l0,0,.14.48v0c-.18,1.28-.39,2.57-.63,3.84l0,.22.21-.06c1.88-.53,3.68-1.13,5.5-1.83l.2-.08L69,96.2C68.12,95.34,67.21,94.43,66.34,93.51Zm-2.14.6-.11-.38c.61-.19,1.22-.39,1.83-.61l.13.37C65.43,93.72,64.81,93.92,64.2,94.11Zm1.67-1.26-.9.31-1-3.11c.7-.23,1.39-.48,2.08-.74C66,90.56,66,91.73,65.87,92.85Zm-2-2.75,1,3.11-.91.29c-.81-1-1.53-1.86-2.19-2.75C62.46,90.54,63.16,90.33,63.86,90.1Zm.34,4.3q.47-.14.93-.3l1,3.08c-.82.27-1.64.53-2.48.76C63.84,96.78,64,95.58,64.2,94.4Zm2,2.75-1-3.08.92-.32c.81.85,1.66,1.7,2.5,2.52C67.87,96.58,67.06,96.87,66.24,97.15Z" fill="#444d66"/><path d="M69,89.34l-.15-.07,0,.16c-.3,1.09-.64,2.18-1,3.26l0,.11.11,0c1,.52,2,1,3.09,1.49l.14.06,0-.15c.35-1.12.68-2.25,1-3.37l0-.12L72,90.71C71,90.29,70,89.83,69,89.34ZM70.91,94c-1-.43-1.9-.89-2.83-1.36.33-1,.64-2,.93-3,.91.44,1.84.87,2.79,1.27C71.52,92,71.23,93,70.91,94Z" fill="#444d66"/><path d="M77.19,84.29l-.16,0v.16c-.08,1.13-.19,2.29-.33,3.44V88l.11,0c1.09.28,2.21.53,3.32.75l.15,0,0-.15c.13-1.13.21-2.29.27-3.56V85l-.12,0C79.34,84.75,78.25,84.54,77.19,84.29ZM80,88.46c-1-.2-2-.43-3-.69.13-1.06.23-2.13.3-3.17,1,.22,2,.42,3,.59C80.21,86.35,80.13,87.42,80,88.46Z" fill="#444d66"/><path d="M56.37,95.94l-.08-.61c.35-1.16.67-2.37,1-3.69l0-.2-.2,0c-1.64.25-3.25.42-4.9.52L52,92l.09.18c.5,1.09,1.07,2.21,1.72,3.43v0l0,.5v0c-.44,1.21-.9,2.43-1.39,3.62l-.08.2h.22c2-.11,3.83-.31,5.75-.61l.22,0-.12-.18C57.74,98.12,57,97,56.37,95.94Zm-2.22.14,0-.39c.64,0,1.28-.12,1.91-.2l0,.39ZM56,95.2l-.94.11-.33-3.25c.73-.08,1.45-.17,2.19-.28C56.66,93,56.36,94.12,56,95.2Zm-3.6-2.94c.74-.05,1.47-.11,2.2-.19L55,95.32l-.94.09C53.43,94.3,52.91,93.26,52.44,92.26Zm1.66,4.1,1-.09.33,3.22c-.85.09-1.71.16-2.58.22C53.26,98.6,53.69,97.48,54.1,96.36Zm1.43,3.12-.33-3.22,1-.11c.62,1,1.27,2,1.94,3C57.24,99.28,56.38,99.39,55.53,99.48Z" fill="#444d66"/><path d="M46.14,96.21l0-.61c.57-1.06,1.13-2.17,1.71-3.41L48,92h-.2c-1.66-.1-3.26-.27-4.9-.52l-.2,0,.05.2c.27,1.18.6,2.39,1,3.72v0l-.06.5v0c-.67,1.1-1.38,2.19-2.1,3.25l-.12.18.22,0c1.92.3,3.8.49,5.75.61h.22l-.08-.2C47,98.62,46.58,97.41,46.14,96.21ZM44,95.87l0-.39c.63.08,1.27.15,1.91.2l0,.39C45.24,96,44.6,96,44,95.87Zm2-.46L45,95.32l.33-3.25c.73.08,1.46.14,2.2.19C47,93.39,46.51,94.43,46,95.41Zm-2.93-3.63c.73.11,1.46.2,2.19.28l-.34,3.25L44,95.2C43.6,94,43.3,92.87,43.05,91.78Zm.79,4.36,1,.11-.33,3.22c-.86-.09-1.71-.2-2.57-.33C42.57,98.16,43.22,97.15,43.84,96.14Zm.77,3.35.33-3.22,1,.09c.4,1.12.84,2.25,1.29,3.35C46.32,99.65,45.46,99.58,44.61,99.49Z" fill="#444d66"/><path d="M52.5,96.14l-.08-.09c-.76-.83-1.51-1.68-2.22-2.54l-.11-.13-.11.13c-.71.86-1.45,1.72-2.21,2.55l-.08.09.07.09c.71.89,1.46,1.78,2.23,2.65l.1.12.1-.12C51,98,51.7,97.13,52.4,96.23ZM50.11,98.6c-.7-.8-1.39-1.62-2-2.43.69-.76,1.38-1.55,2-2.34q1,1.19,2,2.34C51.48,97,50.8,97.8,50.11,98.6Z" fill="#444d66"/><path d="M59.66,92.48l-.13-.1-.08.15c-.52,1-1.07,2-1.65,3l-.06.1.09.08c.88.73,1.79,1.45,2.71,2.14l.13.09.08-.14c.57-1,1.12-2,1.64-3.07l0-.11-.1-.07C61.42,93.86,60.52,93.18,59.66,92.48Zm.92,5c-.84-.63-1.67-1.29-2.48-2,.53-.9,1-1.81,1.52-2.72.8.64,1.63,1.26,2.46,1.86C61.6,95.6,61.1,96.55,60.58,97.48Z" fill="#444d66"/><path d="M36.06,94.31l.17-.59c.78-.92,1.55-1.89,2.36-3l.12-.16-.19,0c-1.6-.45-3.13-1-4.68-1.56l-.19-.07v.21c0,1.21.1,2.47.21,3.85v0l-.16.48,0,0c-.88.93-1.79,1.85-2.71,2.73l-.16.15.2.08c1.81.7,3.61,1.3,5.5,1.83l.21.06,0-.22C36.45,96.86,36.24,95.58,36.06,94.31ZM34,93.51l.13-.37c.59.21,1.21.42,1.83.61l-.11.38Zm2.08,0-.91-.29,1-3.11c.7.23,1.4.45,2.11.65C37.5,91.74,36.78,92.64,36.06,93.49ZM36,90.05l-1,3.11-.9-.31c-.1-1.26-.17-2.43-.2-3.54C34.63,89.57,35.32,89.82,36,90.05Zm-2.19,3.7.92.32-1,3.08c-.82-.27-1.63-.57-2.45-.88C32.17,95.45,33,94.6,33.82,93.75Zm.07,3.44,1-3.08.93.3c.17,1.18.36,2.38.58,3.55C35.53,97.71,34.71,97.46,33.89,97.19Z" fill="#444d66"/><path d="M26.9,89.71c1-.72,1.9-1.5,2.91-2.38L30,87.2l-.18-.1c-1.46-.79-2.89-1.67-4.26-2.6l-.18-.12,0,.21c-.2,1.11-.38,2.29-.58,3.84v0l-.26.43h0c-1.05.71-2.12,1.4-3.2,2.06l-.18.11.18.12a58,58,0,0,0,5,3l.2.11v-.23c0-1.3.08-2.6.16-3.88ZM24.74,89l.2-.34c.55.35,1.1.69,1.67,1l-.19.34C25.86,89.69,25.29,89.34,24.74,89Zm2,.46L26,89l1.59-2.83c.64.39,1.28.76,1.93,1.12C28.54,88.05,27.66,88.78,26.78,89.45Zm-1.23-4.6c.62.42,1.25.82,1.88,1.21l-1.59,2.83L25,88.38C25.2,87,25.37,85.88,25.55,84.85Zm-1,4.33.84.53-1.58,2.8c-.75-.46-1.49-.94-2.22-1.43C22.58,90.47,23.57,89.84,24.54,89.18Zm1.64,4.71c-.76-.42-1.52-.86-2.27-1.31l1.58-2.8c.28.17.56.34.85.5C26.26,91.47,26.21,92.68,26.18,93.89Z" fill="#444d66"/><path d="M32.45,92.88l0-.11c-.37-1.08-.71-2.17-1-3.25l-.05-.16-.15.07c-1,.49-2,1-3,1.39l-.11.05,0,.12c.29,1.12.62,2.25,1,3.37l.05.15.14-.06c1-.47,2.08-1,3.08-1.5Zm-3.16,1.24c-.32-1-.63-2.06-.9-3.09.94-.41,1.88-.84,2.78-1.28.29,1,.6,2,.94,3C31.19,93.22,30.24,93.68,29.29,94.12Z" fill="#444d66"/><path d="M42.15,95.56l-.06-.1c-.57-1-1.12-2-1.64-3l-.08-.15-.13.1c-.87.69-1.77,1.37-2.68,2l-.1.07,0,.11c.51,1,1.06,2,1.63,3.07l.08.14.13-.09c.92-.69,1.84-1.4,2.71-2.13Zm-2.84,1.89c-.52-.93-1-1.88-1.49-2.82.84-.6,1.66-1.22,2.47-1.86.48.92,1,1.83,1.51,2.72C41,96.17,40.15,96.82,39.31,97.45Z" fill="#444d66"/><path d="M18.59,83.54c1.07-.48,2.16-1,3.32-1.64l.17-.09-.15-.13A49.73,49.73,0,0,1,18.31,78l-.15-.17-.08.21c-.47,1.21-.93,2.44-1.35,3.67v0l-.34.36h0c-1.07.41-2.22.81-3.54,1.23l-.2.06.14.16A55.23,55.23,0,0,0,17,87.87l.18.16,0-.23c.29-1.27.61-2.54,1-3.8Zm-2-1.25.26-.28c.46.49.94,1,1.42,1.43l-.25.29C17.57,83.26,17.09,82.78,16.63,82.29Zm5-.54c-1.07.57-2.08,1.06-3.08,1.51-.24-.23-.48-.46-.71-.7l2.13-2.4C20.49,80.71,21,81.24,21.6,81.75Zm-3.34-3.36q.78.85,1.59,1.68l-2.13,2.4c-.23-.24-.47-.47-.69-.71C17.41,80.63,17.83,79.5,18.26,78.39Zm-5.14,5.18c1.2-.39,2.27-.76,3.27-1.13.23.25.47.49.71.74L15,85.56C14.35,84.9,13.72,84.24,13.12,83.57ZM17,87.5c-.66-.6-1.31-1.22-1.94-1.86l2.11-2.38.72.71C17.6,85.14,17.3,86.33,17,87.5Z" fill="#444d66"/><path d="M11.76,75.25c1.13-.19,2.3-.44,3.57-.75l.19,0-.11-.16a48.76,48.76,0,0,1-2.77-4.68l-.11-.21-.13.2c-.71,1.09-1.4,2.22-2.06,3.34v0l-.39.27h0c-1.32.14-2.52.22-3.69.25H6l.1.2a58.22,58.22,0,0,0,3.25,5.49l.14.21.1-.23c.54-1.19,1.11-2.39,1.71-3.56Zm-1.64-1.81.31-.21c.37.64.73,1.25,1.1,1.85l-.3.22C10.84,74.69,10.48,74.08,10.12,73.44ZM11.77,75c-.19-.3-.37-.61-.55-.91l2.56-1.83c.42.7.85,1.39,1.29,2.06C13.91,74.56,12.83,74.79,11.77,75Zm.73-5c.38.73.78,1.44,1.2,2.15l-2.56,1.83L10.6,73C11.22,72,11.86,71,12.5,70ZM9.85,73.52l.55,1L7.86,76.29c-.49-.84-1-1.68-1.42-2.54C7.52,73.72,8.64,73.65,9.85,73.52Zm-.41,5.3c-.52-.79-1-1.59-1.51-2.41l2.54-1.82c.18.31.37.62.56.93C10.48,76.6,10,77.71,9.44,78.82Z" fill="#444d66"/><path d="M15.5,81v-.13c.1-1.27.22-2.42.38-3.51l0-.15h-.16c-1.1,0-2.17-.1-3.28-.21h-.13l0,.13c-.19,1.14-.34,2.33-.47,3.63v.14H12c1.13.07,2.27.11,3.38.11h.14Zm-3.35-.37c.12-1.2.26-2.3.43-3.35,1,.1,2,.16,3,.19-.15,1-.26,2.09-.35,3.25C14.22,80.69,13.18,80.66,12.15,80.6Z" fill="#444d66"/><path d="M23.23,87.91v-.12c-.14-1.15-.24-2.3-.32-3.44v-.16l-.16,0c-1.07.24-2.16.46-3.24.64l-.12,0V85c0,1.12.12,2.29.26,3.56l0,.15.15,0c1.11-.22,2.23-.46,3.32-.74Zm-3.34.47c-.12-1.16-.2-2.24-.24-3.27,1-.17,2-.36,3-.58.07,1,.17,2.12.3,3.18C21.93,88,20.91,88.18,19.89,88.38Z" fill="#444d66"/><path d="M9.07,71.58l.13,0,0-.13c.36-1.26.72-2.4,1.11-3.48l.05-.13-.13,0c-1.06-.36-2.09-.75-3.14-1.19L7,66.58l0,.13c-.43,1.12-.83,2.3-1.22,3.6l0,.12.12,0c.82.31,1.62.59,2.44.85ZM7.15,67c1,.4,1.91.76,2.89,1.1-.36,1-.7,2.07-1,3.23-1-.3-2-.63-3-1C6.4,69.07,6.77,68,7.15,67Z" fill="#444d66"/><path d="M6.84,64.79c1.14.14,2.32.24,3.61.3h.21l-.07-.19a56.94,56.94,0,0,1-1.71-5.72L8.82,59l-.17.18C7.73,60.06,6.82,61,6,62l0,0-.43.14h0c-1.11-.22-2.3-.51-3.63-.88l-.23-.07.06.23a68,68,0,0,0,2,6.71l.09.25.15-.21c.77-1.07,1.58-2.14,2.4-3.18ZM5.63,62.41,6,62.29c.21.77.44,1.53.68,2.29l-.32.13C6.07,64,5.84,63.18,5.63,62.41Zm1.29,2.11c-.12-.38-.24-.75-.35-1.13l2.86-1.13c.26.85.53,1.7.83,2.54C9.07,64.75,8,64.65,6.92,64.52Zm1.75-5c.22.88.46,1.77.72,2.64L6.53,63.26c-.12-.38-.23-.76-.33-1.15C7,61.22,7.83,60.34,8.67,59.49ZM5.34,62.41c.11.39.22.79.34,1.18L2.85,64.71c-.31-1-.59-2.07-.85-3.11C3.22,61.93,4.31,62.2,5.34,62.41Zm-1.49,5.4c-.35-1-.67-2-1-3l2.83-1.12c.12.39.23.77.36,1.15C5.32,65.83,4.57,66.82,3.85,67.81Z" fill="#444d66"/><path d="M4.27,52.21c1.25.59,2.38,1.08,3.43,1.49l.21.08,0-.23c-.25-2.22-.39-4.44-.43-6.77v-.25l-.21.14c-1.09.72-2.17,1.47-3.23,2.24H4l-.44,0h0c-1.12-.68-2.24-1.41-3.32-2.16L0,46.62v.27c0,2.7.22,5.38.51,7.94l0,.27.2-.19c1-.9,2-1.78,3-2.63Zm-.3-3c0,.92.1,1.84.18,2.75L3.8,52c-.08-.92-.14-1.84-.18-2.77Zm3.62,4.16c-1-.38-2-.83-3.16-1.38,0-.45-.07-.91-.1-1.36l3-.29C7.39,51.35,7.47,52.35,7.59,53.36ZM7.18,47c0,1.07.07,2.11.13,3.16l-3,.29c0-.46,0-.94-.07-1.39C5.2,48.39,6.19,47.7,7.18,47Zm-3.84,2.1c0,.47.05,1,.08,1.43l-3,.29C.36,49.63.31,48.4.29,47.16,1.28,47.85,2.31,48.52,3.34,49.14ZM.76,54.53C.63,53.37.53,52.19.45,51l3-.29c0,.46.07.93.11,1.39C2.59,52.88,1.66,53.7.76,54.53Z" fill="#444d66"/><path d="M4.08,54.4,4,54.55C3.33,55.68,2.69,56.84,2.07,58l0,.1.09.07a36.19,36.19,0,0,0,2.94,2.17l.13.09.07-.14C5.87,59.06,6.45,58,7.05,57l.06-.11L7,56.77a35.07,35.07,0,0,1-2.79-2.26Zm1,5.62c-1-.66-1.86-1.32-2.7-2,.57-1.07,1.17-2.15,1.78-3.19.79.7,1.66,1.4,2.59,2.09C6.18,57.87,5.63,58.89,5.06,60Z" fill="#444d66"/><path d="M5.44,37.86l.52.19c.87,1,1.77,1.92,2.68,2.84l.17.18.06-.24a56.94,56.94,0,0,1,1.71-5.72l.07-.19h-.2c-1.16,0-2.35.14-3.65.3h0l-.43-.18v0c-.82-1-1.64-2.12-2.42-3.2l-.15-.21-.09.25a65.41,65.41,0,0,0-2,6.71l-.06.22.23-.06C3.27,38.34,4.38,38.07,5.44,37.86Zm.87-2.54.33.14C6.4,36.21,6.17,37,6,37.75l-.33-.12C5.83,36.86,6.06,36.08,6.31,35.32Zm2.36,5.2C7.83,39.67,7,38.79,6.2,37.9c.1-.38.21-.77.33-1.15l2.86,1.13Q9,39.2,8.67,40.52Zm1.59-5.31c-.3.84-.57,1.69-.83,2.54L6.57,36.62c.11-.38.23-.76.35-1.13C8.1,35.35,9.2,35.25,10.26,35.21Zm-6.41-3c.72,1,1.47,2,2.22,2.94l-.36,1.15L2.88,35.17C3.19,34.17,3.51,33.18,3.85,32.2Zm-1,3.1,2.83,1.12c-.12.39-.23.79-.34,1.18-1,.2-2,.45-3.34.81C2.26,37.37,2.54,36.33,2.85,35.3Z" fill="#444d66"/><path d="M5.11,39.83,5,39.92c-1,.64-1.91,1.36-2.93,2.2L2,42.19l0,.1c.62,1.16,1.27,2.32,1.94,3.44l.09.14.13-.11c1-.87,1.88-1.62,2.78-2.28l.1-.07L7,43.3C6.31,42.14,5.72,41.05,5.18,40Zm-1,5.61c-.62-1-1.22-2.12-1.8-3.19.93-.76,1.81-1.43,2.69-2,.51,1,1.06,2,1.69,3.1C5.85,44,5,44.65,4.12,45.44Z" fill="#444d66"/><path d="M9.87,26.77l.48.33c.66,1.12,1.34,2.23,2.05,3.32l.13.2.11-.21a50,50,0,0,1,2.77-4.68l.11-.16-.19-.05c-1.13-.28-2.3-.53-3.6-.75h0l-.38-.29v0c-.6-1.18-1.17-2.39-1.72-3.59l-.1-.23-.14.21a56.15,56.15,0,0,0-3.25,5.49L6,26.51h.22C7.52,26.56,8.72,26.64,9.87,26.77Zm1.34-2.05.3.22c-.38.61-.75,1.24-1.1,1.85l-.31-.21Zm1.29,5.34c-.65-1-1.28-2-1.89-3.06.17-.31.35-.61.54-.92l2.56,1.83C13.29,28.61,12.89,29.33,12.5,30.06Zm1.28-2.27L11.22,26c.18-.31.37-.61.55-.91,1.18.21,2.26.43,3.3.69C14.62,26.4,14.19,27.09,13.78,27.79Zm-4.34-6.6c.51,1.11,1,2.22,1.59,3.3l-.56.92L7.93,23.59C8.41,22.78,8.92,22,9.44,21.19ZM7.86,23.71l2.54,1.82-.55.95c-1.08-.11-2.19-.19-3.4-.23C6.89,25.4,7.37,24.55,7.86,23.71Z" fill="#444d66"/><path d="M16.34,17.85l.41.44c.42,1.22.87,2.44,1.34,3.64l.08.21.15-.17a49.73,49.73,0,0,1,3.62-3.64l.15-.13-.17-.09c-1-.56-2.14-1.1-3.35-1.65h0l-.32-.38v0c-.35-1.26-.67-2.55-1-3.83L17.21,12l-.18.16a55.23,55.23,0,0,0-4.25,4.27l-.14.16.2.06C14.24,17.09,15.33,17.46,16.34,17.85ZM18,16.3l.25.29c-.48.46-1,.94-1.42,1.43l-.26-.28C17.08,17.24,17.56,16.76,18,16.3Zm.22,5.32c-.43-1.11-.85-2.24-1.23-3.37l.69-.71,2.13,2.4C19.31,20.49,18.77,21.05,18.26,21.62Zm1.68-1.77-2.13-2.4.71-.7c1.11.51,2.12,1,3.08,1.51C21,18.77,20.49,19.3,19.94,19.85ZM17,12.51c.27,1.18.57,2.37.89,3.53l-.73.71-2.11-2.38Q16,13.41,17,12.51Zm-2,2,2.11,2.38c-.24.24-.48.49-.71.74-1-.37-2-.72-3.27-1.13C13.72,15.77,14.35,15.11,15,14.46Z" fill="#444d66"/><path d="M12.2,23.11l0,.13h.13c1.11-.11,2.18-.19,3.28-.23h.15l0-.15c-.18-1.25-.31-2.4-.4-3.52v-.13h-.13c-1.13,0-2.24,0-3.38.13H11.7v.14C11.83,20.63,12,21.82,12.2,23.11Zm2.9-3.63c.08,1,.2,2.11.37,3.25-1,0-2,.11-3,.21-.19-1.18-.34-2.28-.44-3.35C13.05,19.52,14.06,19.48,15.1,19.48Z" fill="#444d66"/><path d="M7,33.17l0,.14.13-.06c1.06-.44,2.08-.83,3.14-1.18l.13,0,0-.13c-.43-1.23-.79-2.37-1.1-3.48l0-.14-.13,0C8,28.64,7,29,5.86,29.4l-.12.05,0,.12C6.12,30.71,6.52,31.89,7,33.17Zm2.08-4.55c.29,1,.63,2.1,1,3.23-1,.33-1.92.69-2.89,1.09-.43-1.18-.8-2.27-1.12-3.32C7.08,29.25,8.06,28.92,9.07,28.62Z" fill="#444d66"/><path d="M24.43,11.09l.31.52c.18,1.41.37,2.66.57,3.81l0,.21.18-.12c1.37-.93,2.8-1.81,4.26-2.6l.17-.09-.15-.13c-.9-.79-1.86-1.57-2.93-2.4l0,0-.24-.44v0c-.08-1.3-.14-2.61-.17-3.91V5.66l-.2.11a58,58,0,0,0-5,3.05l-.18.12.18.11C22.32,9.7,23.39,10.39,24.43,11.09Zm2-1.08.18.34c-.56.32-1.12.66-1.67,1l-.2-.33C25.27,10.68,25.83,10.34,26.4,10ZM25,11.63l.81-.51L27.42,14c-.64.39-1.27.79-1.88,1.21C25.36,14.09,25.19,12.93,25,11.63Zm2.53,2.25L26,11.05l.83-.49c1,.76,1.87,1.48,2.7,2.2C28.83,13.12,28.18,13.49,27.55,13.88ZM26.33,9.73l-.85.5L23.9,7.43c.75-.45,1.5-.89,2.27-1.31C26.21,7.32,26.26,8.53,26.33,9.73ZM23.8,7.5l1.58,2.8-.84.53c-1-.65-2-1.29-3-1.9C22.3,8.43,23,8,23.8,7.5Z" fill="#444d66"/><path d="M33.66,6.5l.2.58c-.1,1.21-.17,2.46-.21,3.83v.21l.19-.07c1.55-.6,3.08-1.11,4.68-1.56l.19-.05-.12-.16c-.73-1-1.5-1.95-2.38-3v0l-.14-.49v0c.18-1.28.39-2.57.63-3.84l0-.22-.21.06c-1.89.53-3.68,1.13-5.5,1.83l-.2.08.16.15C31.88,4.67,32.79,5.58,33.66,6.5Zm2.14-.6.11.38c-.61.19-1.22.39-1.83.61L34,6.52C34.57,6.29,35.19,6.09,35.8,5.9ZM34.13,7.16l.9-.31L36,10c-.7.23-1.39.48-2.08.75C34,9.45,34,8.28,34.13,7.16Zm2,2.75-1-3.11.9-.29c.8,1,1.52,1.85,2.19,2.75C37.54,9.47,36.84,9.68,36.14,9.91Zm-.34-4.3-.93.3-1-3.08c.82-.27,1.64-.52,2.48-.76C36.16,3.23,36,4.43,35.8,5.61Zm-2-2.75,1,3.08-.92.32c-.81-.86-1.66-1.7-2.5-2.52C32.13,3.43,32.94,3.14,33.76,2.86Z" fill="#444d66"/><path d="M31,10.67l.15.07,0-.16c.31-1.1.64-2.19,1-3.26l0-.11-.11,0c-1-.52-2.05-1-3.09-1.49l-.13-.07-.05.15c-.34,1.11-.67,2.25-1,3.37l0,.12.11,0C29,9.72,30,10.18,31,10.67ZM29.09,6c.95.43,1.9.89,2.83,1.36-.33,1-.64,2-.93,3-.91-.44-1.84-.87-2.79-1.27C28.48,8,28.77,7,29.09,6Z" fill="#444d66"/><path d="M21.65,15.46l1.16.25.16,0v-.16c.08-1.15.19-2.3.33-3.44V12l-.11,0c-1.09-.28-2.2-.53-3.31-.75l-.15,0,0,.15c-.13,1.13-.21,2.29-.27,3.56v.12l.12,0C20.27,15.19,21,15.32,21.65,15.46ZM20,11.55c1,.2,2,.43,3,.69-.12,1-.23,2.12-.3,3.17-1-.22-2-.42-3-.59C19.79,13.66,19.87,12.59,20,11.55Z" fill="#444d66"/><path d="M43.64,4.07l.08.61c-.35,1.16-.67,2.37-1,3.69l-.05.2.2,0c1.65-.25,3.25-.42,4.9-.52L48,8l-.08-.18c-.51-1.1-1.07-2.22-1.72-3.43v0l0-.5v0c.44-1.21.91-2.43,1.39-3.62L47.61,0h-.22c-2,.12-3.83.31-5.75.61l-.22,0,.12.18C42.27,1.89,43,3,43.64,4.07Zm2.21-.14,0,.39c-.64,0-1.28.12-1.91.2l0-.39ZM44,4.81l.94-.11L45.23,8c-.73.08-1.45.17-2.19.28C43.34,7,43.64,5.89,44,4.81Zm3.6,2.94c-.74,0-1.47.11-2.2.19L45,4.69,46,4.6C46.57,5.7,47.09,6.74,47.56,7.75ZM45.9,3.65l-1,.09L44.6.52C45.45.43,46.31.36,47.18.3,46.74,1.41,46.31,2.53,45.9,3.65ZM44.47.53l.33,3.22-1,.11c-.62-1-1.27-2-1.94-3C42.76.73,43.62.63,44.47.53Z" fill="#444d66"/><path d="M53.86,3.8l0,.61c-.58,1.07-1.13,2.18-1.71,3.41L52,8h.2c1.66.1,3.26.27,4.9.52l.2,0,0-.2c-.28-1.18-.6-2.4-1-3.72v0l.06-.5v0C57,3,57.72,1.9,58.44.84l.12-.18-.22,0C56.41.33,54.53.14,52.59,0l-.2,0,.08.2C53,1.38,53.42,2.59,53.86,3.8Zm2.19.34,0,.39c-.62-.08-1.26-.15-1.91-.2l0-.39C54.76,4,55.4,4.05,56.05,4.14Zm-2,.45.94.09-.33,3.25c-.73-.08-1.46-.14-2.2-.19C53,6.62,53.49,5.59,54,4.59ZM57,8.23c-.73-.11-1.46-.2-2.19-.28L55.1,4.7l.94.11C56.4,6,56.7,7.14,57,8.23Zm-.79-4.36-1-.11L55.53.54c.85.09,1.71.2,2.57.33C57.43,1.85,56.78,2.86,56.16,3.87ZM55.39.52l-.33,3.22-1-.09C53.69,2.53,53.25,1.4,52.8.3,53.68.36,54.54.43,55.39.52Z" fill="#444d66"/><path d="M47.5,3.87l.08.09c.76.83,1.51,1.68,2.22,2.54l.11.13L50,6.5c.71-.86,1.45-1.72,2.21-2.55l.08-.09-.07-.09C51.53,2.87,50.78,2,50,1.12L49.91,1l-.1.12C49,2,48.3,2.89,47.6,3.78Zm2.39-2.46c.7.79,1.38,1.61,2,2.43-.69.77-1.38,1.55-2,2.34-.65-.79-1.34-1.57-2-2.34C48.51,3,49.19,2.22,49.89,1.41Z" fill="#444d66"/><path d="M40.34,7.53l.13.1h0l.08-.15c.52-1,1.07-2,1.65-2.95l.06-.1-.09-.08c-.87-.73-1.79-1.45-2.71-2.14l-.13-.09h0l-.08.14c-.57,1-1.12,2-1.64,3.07l0,.11.1.07C38.58,6.15,39.48,6.84,40.34,7.53Zm1.56-3c-.53.9-1,1.81-1.52,2.72-.8-.63-1.62-1.26-2.46-1.86.47-.94,1-1.88,1.5-2.81C40.27,3.17,41.1,3.82,41.9,4.49Z" fill="#444d66"/><path d="M57.94,4.37l-.09.08.06.1c.57,1,1.12,2,1.64,3l.08.15.13-.1c.87-.69,1.78-1.37,2.68-2l.1-.07,0-.11c-.51-1-1.06-2.05-1.63-3.07l-.08-.14-.13.09c-.54.4-1.07.81-1.6,1.23Zm4.25,1c-.83.6-1.66,1.22-2.47,1.86-.48-.92-1-1.83-1.51-2.72q1.22-1,2.49-1.95C61.22,3.49,61.72,4.44,62.19,5.37Z" fill="#444d66"/><path d="M63.94,5.7l-.17.59c-.77.91-1.55,1.88-2.36,3l-.12.16.19.05c1.6.45,3.13,1,4.68,1.56l.19.07v-.21c0-1.22-.1-2.48-.21-3.85V7l.16-.48,0,0c.88-.93,1.79-1.85,2.71-2.73l.16-.15L69,3.55c-1.81-.7-3.61-1.3-5.5-1.83l-.21-.06,0,.22C63.55,3.15,63.76,4.43,63.94,5.7ZM66,6.5l-.13.37c-.61-.22-1.22-.42-1.83-.61l.11-.38C64.79,6.08,65.41,6.28,66,6.5Zm-2.08,0,.91.29-1,3.11c-.7-.23-1.4-.45-2.11-.65C62.5,8.27,63.22,7.36,63.94,6.52ZM64,10l1-3.11.9.31c.1,1.26.17,2.42.2,3.54C65.37,10.44,64.68,10.19,64,10Zm2.19-3.69L65.26,6l1-3.08c.82.27,1.63.57,2.45.88C67.83,4.56,67,5.41,66.18,6.27Zm-.07-3.45-1,3.08-.93-.3c-.17-1.18-.36-2.38-.58-3.55C64.47,2.3,65.29,2.55,66.11,2.82Z" fill="#444d66"/><path d="M73.1,10.3c-.94.72-1.9,1.5-2.91,2.38l-.15.13.18.1c1.46.79,2.89,1.67,4.26,2.6l.18.12,0-.21c.2-1.11.38-2.29.58-3.84v0l.25-.43h0c1-.71,2.13-1.4,3.2-2.06l.18-.11-.18-.12a58,58,0,0,0-5-3.05l-.2-.11v.23c0,1.29-.08,2.6-.16,3.88Zm2.16.72-.2.33c-.55-.35-1.11-.69-1.67-1l.19-.33Q74.44,10.5,75.26,11Zm-2-.46.83.49-1.59,2.83c-.64-.39-1.28-.76-1.93-1.12C71.46,12,72.34,11.23,73.22,10.56Zm1.23,4.6c-.62-.42-1.25-.82-1.88-1.21l1.59-2.83.81.51C74.8,13,74.63,14.13,74.45,15.16Zm1-4.33-.84-.53L76.2,7.5c.75.46,1.49.94,2.22,1.43C77.42,9.53,76.43,10.17,75.46,10.83ZM73.82,6.12c.76.42,1.52.86,2.27,1.31l-1.58,2.8c-.28-.17-.56-.34-.85-.5C73.74,8.54,73.79,7.32,73.82,6.12Z" fill="#444d66"/><path d="M67.55,7.13l0,.11c.37,1.07.71,2.17,1,3.25l0,.16.15-.07c1-.49,2-1,3-1.39l.11,0,0-.12c-.29-1.12-.62-2.25-1-3.37l0-.15-.14.06c-1,.47-2.08,1-3.08,1.5Zm3.16-1.24c.32,1,.63,2.06.9,3.09-.94.4-1.87.83-2.78,1.28-.29-1-.6-2-.94-3C68.81,6.79,69.76,6.33,70.71,5.89Z" fill="#444d66"/><path d="M81.42,16.47c-1.07.48-2.16,1-3.32,1.64l-.17.09.15.13A49.73,49.73,0,0,1,81.7,22l.15.17.08-.21c.47-1.21.93-2.44,1.35-3.67v0l.33-.36h0c1.06-.4,2.22-.81,3.54-1.23l.2-.06-.14-.16A55.23,55.23,0,0,0,83,12.14L82.81,12l0,.23c-.29,1.27-.61,2.54-1,3.8Zm2,1.25-.26.28c-.46-.49-.94-1-1.42-1.43l.25-.29C82.43,16.75,82.91,17.23,83.37,17.72Zm-5,.54c1.08-.57,2.08-1.06,3.08-1.51.24.23.48.46.71.7l-2.13,2.4C79.51,19.3,79,18.77,78.4,18.26Zm3.34,3.36q-.78-.86-1.59-1.68l2.13-2.4.69.71C82.59,19.38,82.17,20.51,81.74,21.62Zm5.14-5.18c-1.21.39-2.28.76-3.27,1.13-.23-.25-.47-.49-.71-.74L85,14.45C85.65,15.11,86.28,15.77,86.88,16.44ZM83,12.51c.66.6,1.31,1.22,1.94,1.86-.7.79-1.41,1.58-2.11,2.38L82.08,16C82.4,14.87,82.7,13.68,83,12.51Z" fill="#444d66"/><path d="M88.24,24.76c-1.13.19-2.3.44-3.57.75l-.19,0,.11.16a47.93,47.93,0,0,1,2.77,4.68l.11.21.13-.2c.71-1.09,1.4-2.22,2.06-3.34v0l.39-.27h0c1.32-.14,2.53-.22,3.69-.25H94l-.1-.2a58.22,58.22,0,0,0-3.25-5.49l-.14-.21-.1.23C89.87,22,89.3,23.23,88.7,24.4Zm1.64,1.81-.3.21c-.37-.64-.73-1.25-1.1-1.85l.3-.22C89.16,25.32,89.52,25.93,89.88,26.57ZM88.23,25c.19.3.37.61.55.91l-2.56,1.83c-.42-.7-.85-1.39-1.29-2.06C86.09,25.45,87.18,25.22,88.23,25Zm-.73,5c-.38-.73-.78-1.44-1.2-2.15l2.56-1.83.54.92C88.78,28,88.14,29.05,87.5,30.06Zm2.65-3.58-.55-.95,2.54-1.82c.49.84,1,1.68,1.42,2.54C92.48,26.29,91.36,26.36,90.15,26.48Zm.41-5.29c.52.79,1,1.59,1.51,2.41l-2.54,1.82c-.18-.31-.37-.62-.56-.92C89.52,23.4,90.05,22.29,90.56,21.19Z" fill="#444d66"/><path d="M84.5,19v.13c-.1,1.26-.22,2.41-.38,3.52l0,.15h.15c1.1,0,2.18.1,3.28.21h.13l0-.13c.19-1.14.34-2.33.47-3.64v-.14H88c-1.15-.07-2.26-.11-3.38-.11H84.5Zm3.35.37c-.12,1.2-.26,2.29-.43,3.35-1-.1-2-.16-3-.19.15-1,.26-2.09.35-3.25C85.79,19.31,86.8,19.35,87.85,19.41Z" fill="#444d66"/><path d="M76.77,12.1v.12c.14,1.14.24,2.3.32,3.44v.16l.16,0c1.06-.24,2.15-.46,3.24-.64l.12,0h0v-.23c0-.72-.07-1.46-.14-2.23,0-.4-.07-.8-.12-1.22l0-.15h0l-.15,0c-1.11.22-2.23.46-3.32.74Zm.3.2.87-.21c.72-.17,1.44-.33,2.16-.47.12,1.16.2,2.23.24,3.27-1,.17-2,.36-3,.58C77.29,14.43,77.2,13.36,77.07,12.3Z" fill="#444d66"/><path d="M93.16,35.22c-1.14-.14-2.32-.24-3.61-.3h-.21l.07.19a56.94,56.94,0,0,1,1.71,5.72l.06.24.17-.18C92.27,40,93.18,39,94.05,38l0,0,.43-.16h0c1.11.23,2.3.51,3.63.88l.23.06-.06-.23a65.41,65.41,0,0,0-2-6.71l-.09-.25-.15.21c-.77,1.07-1.58,2.14-2.39,3.17Zm1.21,2.38-.33.12c-.21-.76-.44-1.53-.69-2.29l.33-.14Q94.06,36.45,94.37,37.6Zm-1.29-2.11c.12.38.24.75.35,1.13l-2.86,1.13c-.26-.85-.53-1.7-.83-2.54C90.93,35.26,92,35.36,93.08,35.49Zm-1.75,5c-.22-.88-.46-1.77-.72-2.64l2.86-1.13.33,1.15C93,38.79,92.17,39.67,91.33,40.52Zm3.33-2.92c-.11-.39-.22-.79-.34-1.18l2.83-1.12c.31,1,.59,2.07.84,3.11C96.79,38.08,95.69,37.81,94.66,37.6Zm1.49-5.4c.35,1,.67,2,1,3l-2.83,1.12c-.12-.38-.23-.77-.36-1.15C94.68,34.18,95.43,33.19,96.15,32.2Z" fill="#444d66"/><path d="M100,53.12c0-2.7-.22-5.37-.51-7.94l0-.27-.2.19c-1,.9-2,1.78-3,2.63l-.54.07c-1.25-.59-2.37-1.08-3.43-1.49l-.21-.08,0,.23c.25,2.22.39,4.44.43,6.77v.25l.21-.14c1.09-.71,2.17-1.47,3.23-2.24h0l.44,0h0c1.12.68,2.24,1.4,3.32,2.17l.22.16Zm-.76-7.64c.13,1.16.23,2.34.31,3.54l-3,.29c0-.46-.07-.93-.11-1.39C97.41,47.13,98.34,46.31,99.24,45.48ZM96,50.81c0-.92-.1-1.84-.18-2.75l.34,0c.08.92.14,1.84.18,2.77Zm-3.62-4.16c1,.38,2,.84,3.16,1.38,0,.45.07.91.1,1.36l-3,.29C92.61,48.66,92.52,47.66,92.41,46.65ZM92.82,53c0-1.07-.07-2.11-.13-3.16l3-.29c0,.46,0,.94.07,1.39C94.8,51.63,93.81,52.31,92.82,53Zm3.84-2.1c0-.47,0-1-.08-1.43l3-.29c.08,1.23.13,2.46.15,3.7C98.71,52.16,97.69,51.49,96.66,50.87Z" fill="#444d66"/><path d="M94.83,39.58l-.07.14C94.14,41,93.56,42,93,43.05l-.06.11.1.07a35.07,35.07,0,0,1,2.79,2.26l.13.11.08-.14c.67-1.13,1.32-2.29,1.93-3.45l0-.1-.09-.07C97,41.11,96,40.38,95,39.67Zm1,5.59c-.79-.7-1.66-1.4-2.59-2.09.55-.95,1.1-2,1.67-3.1,1,.65,1.87,1.32,2.7,2C97.07,43.06,96.47,44.13,95.85,45.17Z" fill="#444d66"/><path d="M90.8,28.39l0,.13C90.4,29.78,90,30.91,89.65,32l-.05.13.13,0c1.06.36,2.09.75,3.14,1.19l.13.06,0-.13c.42-1.12.82-2.3,1.22-3.6l0-.12-.12,0c-1.09-.41-2.16-.77-3.26-1.1ZM94,29.74c-.37,1.19-.74,2.28-1.12,3.32-1-.4-1.91-.76-2.89-1.1.36-1,.7-2.07,1-3.23C92,29,93,29.37,94,29.74Z" fill="#444d66"/></svg>