<svg xmlns="http://www.w3.org/2000/svg" viewBox="0 0 100 100"><path d="M97.08,47.84,100,45l-3-3,1.78-3.85-3.7-1.69,1.7-3.69-3.7-1.69,1.7-3.68L91,25.61l.26-4.24-4.06-.25.25-4.05-4.06-.25.25-4-4.24-.26-1.29-4L74.2,9.74,73,5.88,69.09,7.1,67.86,3.24,63.8,4.53l-2.67-3.3L58,3.77,55.41.61,52.24,3.15,49.7,0,46.39,2.66,42.71.54l-2,3.51L37.16,2l-2,3.51-3.52-2-2.08,3.6-4.31-.65-.62,4.07-4-.61-.62,4-4-.62-.65,4.19-4.15.91.87,4-4,.87.87,4-4,.87.91,4.14L2.38,34.56l2.25,3.38L1.24,40.18l2.25,3.38L.1,45.78l2.35,3.53L0,52.77l3.32,2.34L1,58.42l3.32,2.34L1.94,64.07l3.47,2.44-1,4.11,3.94,1-1,3.93,3.94,1-1,3.93,4.13,1,.52,4.2,4-.5.5,4,4-.5.5,4,4.21-.52,2,3.73L33.8,94l1.93,3.57,3.58-1.92,1.92,3.57,3.74-2L48.2,100l2.64-3.08,3.09,2.64,2.64-3.08,3.09,2.63,2.77-3.23,4,1.4,1.35-3.82,3.83,1.34L73,91l3.84,1.35,1.41-4,4.25-.13-.13-4L86.39,84l-.13-4,4.06-.13-.13-4.23L94.11,74l-1.59-3.73,3.74-1.58-1.59-3.73,3.74-1.58-1.66-3.91,3-2.94L97,53.57l2.92-2.82Zm-.5-.52h0l-2.33-2.39,2.4-2.33L99,45ZM28.19,87.39l-4,.5-.5-4-4,.5-.5-4-4,.49,1-3.86-3.94-1,1-3.93-3.94-1,1-3.93-3.87-1,2.3-3.25L5.33,60.58l2.35-3.31L4.36,54.93l2.35-3.31-3.27-2.3,3.33-2.2L4.52,43.74,7.91,41.5,5.66,38.12l3.39-2.24L6.84,32.56l3.9-.85-.87-4,4-.87-.87-4,4-.87-.86-3.89,4,.61.62-4,4,.62.63-4.07,4,.6L29.85,8l3.52,2,2-3.51,3.52,2L41,5l3.52,2,2-3.45L49,6.71l3.17-2.54L54.7,7.33l3.17-2.54L60.42,8l3.11-2.5,1.21,3.8L68.61,8l1.23,3.86,3.87-1.23,1.23,3.86,3.81-1.21-.24,4,4.06.25-.25,4,4.06.25-.25,4.05,4,.24-1.67,3.62,3.69,1.69-1.7,3.68,3.7,1.69-1.7,3.69,3.63,1.66L93.2,44.91,96,47.82l-2.92,2.82,2.83,2.91L93,56.37l2.79,2.86-3.67,1.55,1.59,3.73L90,66.11l1.59,3.73-3.74,1.58,1.56,3.66-4,.13.13,4.05-4.06.13.13,4-4.06.13.13,4-3.77-1.32L72.56,90,68.7,88.7l-1.35,3.82-3.83-1.34L62.19,95l-3-2.59-2.64,3.08-3.09-2.63-2.64,3.08L47.7,93.25l-2.59,3-1.89-3.51-3.58,1.92-1.92-3.57L34.14,93l-1.93-3.57L28.7,91.34Zm69.66-48.9-1.4,3-3-1.39,1.39-3h0Zm-2-5.38-1.39,3h0l-3-1.39,1.39-3h0Zm-3.39-2.35h0l-3-1.39,1.4-3,3.05,1.39Zm-2-8.71-.2,3.34-3.35-.2.2-3.32h0Zm-3.81-4.29-.2,3.32h0l-3.33-.2.2-3.32h0Zm-4-1h0l-3.33-.2.2-3.34,3.35.2Zm-5-7.37,1,3.18-3.19,1-1-3.17h0ZM72.49,6.78l1,3.17h0l-3.18,1-1-3.16h0ZM67.38,4.15l1,3.17h0l-3.18,1-1-3.18ZM61,2.25l2.1,2.6L60.52,7,58.43,4.36h0Zm-5.72-.62L57.4,4.22h0L54.8,6.33,52.71,3.74h0ZM49.59,1l2.1,2.59h0l-2.6,2.09L47,3.12ZM43,1.53l2.9,1.67L44.21,6.09,41.32,4.43h0ZM37.43,3l2.89,1.66h0L38.65,7.58,35.76,5.92h0ZM31.87,4.51l2.89,1.66h0L33.1,9.07,30.2,7.4Zm-6,2.78,3.32.5-.5,3.31-3.32-.5Zm-4.57,3.46,3.31.51-.51,3.3-3.3-.51h0Zm-4.64,3.39,3.3.51h0L19.42,18l-3.31-.51ZM12.08,19l3.27-.72.72,3.26-3.26.71h0ZM9,23.79l3.26-.71h0L13,26.34l-3.26.71h0Zm.16,4.11h0l.72,3.25-3.27.72-.72-3.26ZM3.39,34.75,6.18,32.9,8,35.68,5.25,37.52h0ZM2.25,40.37,5,38.53h0L6.9,41.3,4.12,43.14h0Zm1.64,3.77h0l1.84,2.77L3,48.76,1.11,46ZM1,52.6l1.93-2.73L5.68,51.8,3.75,54.52h0Zm1,5.65,1.93-2.72h0l2.73,1.92L4.74,60.17h0Zm2.9,2.93h0L7.64,63.1,5.7,65.83,3,63.9Zm.37,8.92.82-3.24,3.25.81L8.51,70.9h0Zm3,4.92L9,71.79H9l3.24.81-.81,3.23h0ZM12,76.71h0l3.24.81-.82,3.24-3.25-.81Zm3.59,8.18-.41-3.32,3.33-.41.41,3.3h0Zm4.54,3.52-.41-3.3h0L23,84.69l.41,3.3h0Zm4.13.21h0l3.31-.41L28,91.52l-3.33.41ZM30.54,95,29,92l2.95-1.58,1.58,2.93h0ZM36,96.62l-1.58-2.93h0l2.94-1.58L39,95h0Zm5.51,1.64L40,95.33h0l2.94-1.58,1.59,2.94Zm6.59.72-2.55-2.17,2.18-2.54,2.54,2.16h0Zm5.73-.45-2.54-2.16h0l2.17-2.53L56,96v0h0Zm5.73-.44-2.54-2.16h0l2.17-2.53,2.55,2.17ZM66,96.36l-3.16-1.11L64,92.1l3.15,1.1h0Zm5.18-2.48L68,92.78h0l1.11-3.14,3.15,1.1h0Zm5.19-2.48-3.15-1.1h0l1.11-3.14,3.16,1.11Zm5.35-3.9-3.35.11-.11-3.34,3.34-.1h0Zm3.94-4.17-3.34.1h0l-.11-3.33,3.34-.1h0Zm.6-4.08h0l-.11-3.33,3.35-.11.11,3.34Zm6.92-5.67-3.09,1.3L88.79,71.8l3.07-1.3h0Zm2.15-5.32-3.07,1.3h0L91,66.49,94,65.19h0Zm-.92-4h0l-1.3-3.06,3.09-1.3L97.51,63Zm4.38-7.78L96.4,58.8l-2.33-2.4,2.4-2.32h0Zm-2.32-3.42h0l-2.33-2.38,2.4-2.32h0l2.33,2.39-2.42,2.31Z" fill="#444d66"/></svg>