<svg xmlns="http://www.w3.org/2000/svg" viewBox="0 0 100 100"><path d="M55.25,100l-6.67-7.22-7.12,6.74-6.8-7.37-9.42,1.44L24,83.77,14.36,85,13.14,75,4.68,70.51,9.4,61.85.87,57.07l4.79-8.32L1.45,39.6l8.83-4.19L6.15,26.46l8.7-3.88,1.89-9.91,9.58,1.87,1.86-9.7,9.29,2.05L44.75,0l6.67,7.23L59.05.48l6.29,7.37,9.41-1.44L76,16.23,85.64,15l1,9.59L95.3,29.5l-4.71,8.65,8.52,4.78-4.82,8.83,4.27,8.64-8.84,4.2,4.12,8.94-9,4.27-1.56,9.53-9.59-1.87-1.85,9.69L62,93.24Zm-6.62-8.55,6.65,7.2,6.46-6.45L71.09,94l1.85-9.69,9.56,1.86L84,77.14l8.63-4.08-4.12-8.94,8.82-4.19-4.06-8.22,4.61-8.44-8.52-4.78,4.71-8.65-8.33-4.67-.9-9.12-9.65,1.21L74,7.47,65,8.84l-6-7-7.6,6.72-6.65-7.2-7,6.58L28.91,6l-1.85,9.68-9.58-1.87-1.81,9.47L7.39,26.92l4.12,8.93L2.68,40l4,8.74L2.15,56.7l8.51,4.77L6,70.11,14,74.34l1.17,9.57,9.66-1.21L26,92.49l9-1.37,6.5,7Z" fill="#444d66"/><ellipse cx="29.1" cy="88.63" rx="0.72" ry="0.73" fill="#444d66"/><ellipse cx="31" cy="96.24" rx="0.72" ry="0.73" fill="#444d66"/><ellipse cx="20.7" cy="88.1" rx="0.72" ry="0.73" fill="#444d66"/><ellipse cx="18.15" cy="79.97" rx="0.72" ry="0.73" fill="#444d66"/><ellipse cx="10.68" cy="68.81" rx="0.72" ry="0.73" fill="#444d66"/><ellipse cx="7.8" cy="76.1" rx="0.72" ry="0.73" fill="#444d66"/><ellipse cx="4.19" cy="63.38" rx="0.72" ry="0.73" fill="#444d66"/><ellipse cx="6.84" cy="55.28" rx="0.72" ry="0.73" fill="#444d66"/><ellipse cx="7.28" cy="41.8" rx="0.72" ry="0.73" fill="#444d66"/><ellipse cx="0.72" cy="45.98" rx="0.72" ry="0.73" fill="#444d66"/><ellipse cx="5.18" cy="33.54" rx="0.72" ry="0.73" fill="#444d66"/><ellipse cx="12.02" cy="28.57" rx="0.72" ry="0.73" fill="#444d66"/><ellipse cx="20.19" cy="17.92" rx="0.72" ry="0.73" fill="#444d66"/><ellipse cx="12.46" cy="17.4" rx="0.72" ry="0.73" fill="#444d66"/><ellipse cx="23.28" cy="9.99" rx="0.72" ry="0.73" fill="#444d66"/><ellipse cx="31.7" cy="10.04" rx="0.72" ry="0.73" fill="#444d66"/><ellipse cx="44.49" cy="6.29" rx="0.72" ry="0.73" fill="#444d66"/><ellipse cx="38.54" cy="1.27" rx="0.72" ry="0.73" fill="#444d66"/><ellipse cx="51.59" cy="1.72" rx="0.72" ry="0.73" fill="#444d66"/><ellipse cx="58.37" cy="6.78" rx="0.72" ry="0.73" fill="#444d66"/><ellipse cx="70.89" cy="11.36" rx="0.72" ry="0.73" fill="#444d66"/><ellipse cx="69" cy="3.75" rx="0.72" ry="0.73" fill="#444d66"/><ellipse cx="79.3" cy="11.89" rx="0.72" ry="0.73" fill="#444d66"/><ellipse cx="81.85" cy="20.02" rx="0.72" ry="0.73" fill="#444d66"/><ellipse cx="89.32" cy="31.18" rx="0.72" ry="0.73" fill="#444d66"/><ellipse cx="92.2" cy="23.9" rx="0.72" ry="0.73" fill="#444d66"/><ellipse cx="95.8" cy="36.62" rx="0.72" ry="0.73" fill="#444d66"/><ellipse cx="93.16" cy="44.71" rx="0.72" ry="0.73" fill="#444d66"/><ellipse cx="92.72" cy="58.19" rx="0.72" ry="0.73" fill="#444d66"/><ellipse cx="99.28" cy="54.01" rx="0.72" ry="0.73" fill="#444d66"/><ellipse cx="94.82" cy="66.45" rx="0.72" ry="0.73" fill="#444d66"/><ellipse cx="87.98" cy="71.42" rx="0.72" ry="0.73" fill="#444d66"/><ellipse cx="79.81" cy="82.07" rx="0.72" ry="0.73" fill="#444d66"/><ellipse cx="87.54" cy="82.59" rx="0.72" ry="0.73" fill="#444d66"/><ellipse cx="76.71" cy="90" rx="0.72" ry="0.73" fill="#444d66"/><ellipse cx="68.3" cy="89.95" rx="0.72" ry="0.73" fill="#444d66"/><ellipse cx="55.51" cy="93.7" rx="0.72" ry="0.73" fill="#444d66"/><ellipse cx="61.46" cy="98.72" rx="0.72" ry="0.73" fill="#444d66"/><ellipse cx="48.4" cy="98.27" rx="0.72" ry="0.73" fill="#444d66"/><ellipse cx="41.62" cy="93.22" rx="0.72" ry="0.73" fill="#444d66"/></svg>