<svg xmlns="http://www.w3.org/2000/svg" viewBox="0 0 32 30"><circle cx="24" cy="21" r="1.5"/><circle cx="8" cy="9" r="1.5"/><path d="M24,8.8,40.5,23.7l1-1.1L25.1,7.8l.4-.3A4.4,4.4,0,0,0,27,4c0-2.2-1.3-4-3-4s-3,1.8-3,4a4.4,4.4,0,0,0,1.5,3.5l.4.3L8,21.2-7,7.7A3.9,3.9,0,0,0-5,4c0-2.2-1.3-4-3-4s-3,1.8-3,4A4.4,4.4,0,0,0-9.5,7.5L6.9,22.2l-.4.3A4.4,4.4,0,0,0,5,26c0,2.2,1.3,4,3,4s3-1.8,3-4a4.2,4.2,0,0,0-1.6-3.5l-.3-.3Zm0-7.3c.8,0,1.5,1.2,1.5,2.5S24.8,6.5,24,6.5,22.5,5.3,22.5,4,23.2,1.5,24,1.5Zm-32,0c.8,0,1.5,1.2,1.5,2.5S-7.2,6.5-8,6.5-9.5,5.3-9.5,4-8.8,1.5-8,1.5Zm16,27c-.8,0-1.5-1.2-1.5-2.5s.7-2.5,1.5-2.5S9.5,24.7,9.5,26,8.8,28.5,8,28.5Z"/></svg>