<svg xmlns="http://www.w3.org/2000/svg" width="346.593" height="160.497" viewBox="0 0 346.593 160.497">
  <g id="Grupo_133" data-name="Grupo 133" transform="translate(343.593 3.005) rotate(90)">
    <path id="Trazado_146" data-name="Trazado 146" d="M116.42,208.072c-.885.035-1.768.075-2.661.075-40.423,0-73.193-36.485-73.193-81.492s32.77-81.492,73.193-81.492c.893,0,1.776.039,2.661.075V.075C115.532.052,114.651,0,113.758,0,50.932,0,0,56.706,0,126.655S50.932,253.31,113.758,253.31c.893,0,1.774-.052,2.661-.075Z" transform="translate(38.072 43.643)" fill="none" stroke="#4f722d" stroke-miterlimit="10" stroke-width="6"/>
    <path id="Trazado_147" data-name="Trazado 147" d="M87.472,38.639c-3.859,22.745-21.8,39.948-43.352,39.948C19.753,78.587,0,56.595,0,29.465A52.635,52.635,0,0,1,8.815,0" transform="translate(66.252 262.006)" fill="none" stroke="#4f722d" stroke-miterlimit="10" stroke-width="6"/>
    <path id="Trazado_148" data-name="Trazado 148" d="M44.587,20.02C42.123,30.966,33.228,39.072,22.633,39.072,10.133,39.072,0,27.79,0,13.873A27.154,27.154,0,0,1,3.736,0" transform="translate(87.739 277.597)" fill="none" stroke="#4f722d" stroke-miterlimit="10" stroke-width="6"/>
    <path id="Trazado_149" data-name="Trazado 149" d="M70.255,87.933c-16.738,13.73-40.4,12.723-56.181-3.617C-3.769,65.841-4.782,34.759,11.812,14.893A42.856,42.856,0,0,1,36.29,0" transform="translate(0 170.298)" fill="none" stroke="#4f722d" stroke-miterlimit="10" stroke-width="6"/>
    <path id="Trazado_150" data-name="Trazado 150" d="M34.95,45.634a20.9,20.9,0,0,1-27.73-2.7C-1.934,33.461-2.453,17.517,6.06,7.326A22.158,22.158,0,0,1,17.281,0" transform="translate(21.488 194.157)" fill="none" stroke="#4f722d" stroke-miterlimit="10" stroke-width="6"/>
    <path id="Trazado_151" data-name="Trazado 151" d="M87.41,39.594C83.4,16.881,65.346-.175,43.8,0,19.429.2-.178,22.355,0,49.484a52.576,52.576,0,0,0,9.01,29.392" transform="translate(66.316 0)" fill="none" stroke="#4f722d" stroke-miterlimit="10" stroke-width="6"/>
    <path id="Trazado_152" data-name="Trazado 152" d="M44.587,19.052C42.123,8.105,33.228,0,22.633,0,10.133,0,0,11.281,0,25.2A27.152,27.152,0,0,0,3.736,39.071" transform="translate(87.739 23.928)" fill="none" stroke="#4f722d" stroke-miterlimit="10" stroke-width="6"/>
    <path id="Trazado_153" data-name="Trazado 153" d="M70.255,9.535C53.516-4.2,29.856-3.189,14.074,13.152-3.769,31.627-4.782,62.709,11.812,82.575A42.852,42.852,0,0,0,36.29,97.468" transform="translate(0 71.067)" fill="none" stroke="#4f722d" stroke-miterlimit="10" stroke-width="6"/>
    <path id="Trazado_154" data-name="Trazado 154" d="M34.95,4.051a20.9,20.9,0,0,0-27.73,2.7c-9.153,9.478-9.673,25.422-1.16,35.613a22.157,22.157,0,0,0,11.221,7.326" transform="translate(21.488 94.991)" fill="none" stroke="#4f722d" stroke-miterlimit="10" stroke-width="6"/>
  </g>
</svg>
