<svg xmlns="http://www.w3.org/2000/svg" width="263.088" height="127.047" viewBox="0 0 263.088 127.047">
  <g id="Grupo_1808" data-name="Grupo 1808" transform="translate(-943.299 -661.569)">
    <g id="Grupo_1727" data-name="Grupo 1727" transform="translate(994.053 664.569)">
      <path id="Trazado_3743" data-name="Trazado 3743" d="M1015.226,719.847h-23.04l-16.119-55.278h55.278Z" transform="translate(-976.066 -664.569)" fill="none" stroke="#4f722d" stroke-miterlimit="10" stroke-width="6"/>
      <path id="Trazado_3744" data-name="Trazado 3744" d="M1015.226,705.335h-23.04l-16.119,55.278h55.278Z" transform="translate(-976.066 -639.566)" fill="none" stroke="#4f722d" stroke-miterlimit="10" stroke-width="6"/>
      <line id="Línea_147" data-name="Línea 147" y2="10.555" transform="translate(16.119 55.278)" fill="none" stroke="#4f722d" stroke-miterlimit="10" stroke-width="6"/>
      <line id="Línea_148" data-name="Línea 148" y2="10.555" transform="translate(38.919 55.278)" fill="none" stroke="#4f722d" stroke-miterlimit="10" stroke-width="6"/>
      <line id="Línea_149" data-name="Línea 149" y2="55.278" transform="translate(27.64)" fill="none" stroke="#4f722d" stroke-miterlimit="10" stroke-width="6"/>
      <line id="Línea_150" data-name="Línea 150" y2="55.215" transform="translate(27.64 65.832)" fill="none" stroke="#4f722d" stroke-miterlimit="10" stroke-width="6"/>
    </g>
    <g id="Grupo_1728" data-name="Grupo 1728" transform="translate(1099.205 664.569)">
      <path id="Trazado_3745" data-name="Trazado 3745" d="M1080.4,719.847h-23.041l-16.119-55.278h55.278Z" transform="translate(-1041.244 -664.569)" fill="none" stroke="#4f722d" stroke-miterlimit="10" stroke-width="6"/>
      <path id="Trazado_3746" data-name="Trazado 3746" d="M1080.4,705.335h-23.041l-16.119,55.278h55.278Z" transform="translate(-1041.244 -639.566)" fill="none" stroke="#4f722d" stroke-miterlimit="10" stroke-width="6"/>
      <line id="Línea_151" data-name="Línea 151" y2="10.555" transform="translate(16.119 55.278)" fill="none" stroke="#4f722d" stroke-miterlimit="10" stroke-width="6"/>
      <line id="Línea_152" data-name="Línea 152" y2="10.555" transform="translate(38.919 55.278)" fill="none" stroke="#4f722d" stroke-miterlimit="10" stroke-width="6"/>
      <line id="Línea_153" data-name="Línea 153" y2="55.278" transform="translate(27.64)" fill="none" stroke="#4f722d" stroke-miterlimit="10" stroke-width="6"/>
      <line id="Línea_154" data-name="Línea 154" y2="55.215" transform="translate(27.64 65.832)" fill="none" stroke="#4f722d" stroke-miterlimit="10" stroke-width="6"/>
    </g>
    <path id="Trazado_3747" data-name="Trazado 3747" d="M1033.812,756.87l-22.819-40.729,22.819-40.729,22.82,40.729Z" transform="translate(39.408 6.65)" fill="none" stroke="#4f722d" stroke-miterlimit="10" stroke-width="6"/>
    <path id="Trazado_3748" data-name="Trazado 3748" d="M969.558,756.87l-22.819-40.729,22.819-40.729,22.82,40.729Z" transform="translate(0 6.65)" fill="none" stroke="#4f722d" stroke-miterlimit="10" stroke-width="6"/>
    <path id="Trazado_3749" data-name="Trazado 3749" d="M1100.079,756.87l-22.82-40.729,22.82-40.729,22.82,40.729Z" transform="translate(80.05 6.65)" fill="none" stroke="#4f722d" stroke-miterlimit="10" stroke-width="6"/>
  </g>
</svg>
