<svg id="Grupo_1981" data-name="Grupo 1981" xmlns="http://www.w3.org/2000/svg" width="412.735" height="69.738" viewBox="0 0 412.735 69.738">
  <g id="Grupo_130" data-name="Grupo 130" transform="translate(0 0)">
    <g id="Grupo_124" data-name="Grupo 124" transform="translate(0 0)">
      <rect id="Rectángulo_1" data-name="Rectángulo 1" width="210.38" height="9.413" transform="translate(0.008)" fill="#e5661d"/>
      <rect id="Rectángulo_2" data-name="Rectángulo 2" width="210.38" height="9.413" transform="translate(0.008 60.325)" fill="#e5661d"/>
      <rect id="Rectángulo_3" data-name="Rectángulo 3" width="6.787" height="7.58" transform="translate(0 11.724)" fill="#e5661d"/>
      <rect id="Rectángulo_4" data-name="Rectángulo 4" width="6.787" height="7.58" transform="translate(6.787 19.304)" fill="#e5661d"/>
      <rect id="Rectángulo_5" data-name="Rectángulo 5" width="6.787" height="7.58" transform="translate(13.574 26.884)" fill="#e5661d"/>
      <rect id="Rectángulo_6" data-name="Rectángulo 6" width="6.787" height="7.58" transform="translate(20.361 34.464)" fill="#e5661d"/>
      <rect id="Rectángulo_7" data-name="Rectángulo 7" width="6.787" height="7.58" transform="translate(27.148 42.044)" fill="#e5661d"/>
      <rect id="Rectángulo_8" data-name="Rectángulo 8" width="6.787" height="7.58" transform="translate(33.935 49.624)" fill="#e5661d"/>
      <rect id="Rectángulo_9" data-name="Rectángulo 9" width="6.787" height="7.58" transform="translate(61.094 19.304)" fill="#e5661d"/>
      <rect id="Rectángulo_10" data-name="Rectángulo 10" width="6.787" height="7.58" transform="translate(54.307 26.884)" fill="#e5661d"/>
      <rect id="Rectángulo_11" data-name="Rectángulo 11" width="6.787" height="7.58" transform="translate(47.52 34.464)" fill="#e5661d"/>
      <rect id="Rectángulo_12" data-name="Rectángulo 12" width="6.787" height="7.58" transform="translate(40.734 42.044)" fill="#e5661d"/>
      <rect id="Rectángulo_13" data-name="Rectángulo 13" width="6.787" height="7.58" transform="translate(67.881 11.724)" fill="#e5661d"/>
      <rect id="Rectángulo_14" data-name="Rectángulo 14" width="6.787" height="7.58" transform="translate(74.668 19.304)" fill="#e5661d"/>
      <rect id="Rectángulo_15" data-name="Rectángulo 15" width="6.787" height="7.58" transform="translate(81.455 26.884)" fill="#e5661d"/>
      <rect id="Rectángulo_16" data-name="Rectángulo 16" width="6.787" height="7.58" transform="translate(88.242 34.464)" fill="#e5661d"/>
      <rect id="Rectángulo_17" data-name="Rectángulo 17" width="6.787" height="7.58" transform="translate(95.029 42.044)" fill="#e5661d"/>
      <rect id="Rectángulo_18" data-name="Rectángulo 18" width="6.787" height="7.58" transform="translate(101.816 49.624)" fill="#e5661d"/>
      <rect id="Rectángulo_19" data-name="Rectángulo 19" width="6.787" height="7.58" transform="translate(128.976 19.304)" fill="#e5661d"/>
      <rect id="Rectángulo_20" data-name="Rectángulo 20" width="6.787" height="7.58" transform="translate(122.189 26.884)" fill="#e5661d"/>
      <rect id="Rectángulo_21" data-name="Rectángulo 21" width="6.787" height="7.58" transform="translate(115.402 34.464)" fill="#e5661d"/>
      <rect id="Rectángulo_22" data-name="Rectángulo 22" width="6.787" height="7.58" transform="translate(108.615 42.044)" fill="#e5661d"/>
      <rect id="Rectángulo_23" data-name="Rectángulo 23" width="6.787" height="7.58" transform="translate(135.763 11.724)" fill="#e5661d"/>
      <rect id="Rectángulo_24" data-name="Rectángulo 24" width="6.787" height="7.58" transform="translate(142.55 19.304)" fill="#e5661d"/>
      <rect id="Rectángulo_25" data-name="Rectángulo 25" width="6.787" height="7.58" transform="translate(149.337 26.884)" fill="#e5661d"/>
      <rect id="Rectángulo_26" data-name="Rectángulo 26" width="6.787" height="7.58" transform="translate(156.123 34.464)" fill="#e5661d"/>
      <rect id="Rectángulo_27" data-name="Rectángulo 27" width="6.787" height="7.58" transform="translate(162.91 42.044)" fill="#e5661d"/>
      <rect id="Rectángulo_28" data-name="Rectángulo 28" width="6.787" height="7.58" transform="translate(169.697 49.624)" fill="#e5661d"/>
      <path id="Trazado_136" data-name="Trazado 136" d="M1347.978,210.344h6.743v-7.58h-6.787v7.58h-6.744v7.58h6.787Z" transform="translate(-1144.333 -191.04)" fill="#e5661d"/>
      <rect id="Rectángulo_29" data-name="Rectángulo 29" width="6.787" height="7.58" transform="translate(190.07 26.884)" fill="#e5661d"/>
      <rect id="Rectángulo_30" data-name="Rectángulo 30" width="6.787" height="7.58" transform="translate(183.283 34.464)" fill="#e5661d"/>
      <rect id="Rectángulo_31" data-name="Rectángulo 31" width="6.787" height="7.58" transform="translate(176.496 42.044)" fill="#e5661d"/>
    </g>
  </g>
  <g id="Grupo_131" data-name="Grupo 131" transform="translate(202.348 0)">
    <g id="Grupo_124-2" data-name="Grupo 124" transform="translate(0 0)">
      <rect id="Rectángulo_1-2" data-name="Rectángulo 1" width="210.38" height="9.413" transform="translate(0.008)" fill="#e5661d"/>
      <rect id="Rectángulo_2-2" data-name="Rectángulo 2" width="210.38" height="9.413" transform="translate(0.008 60.325)" fill="#e5661d"/>
      <rect id="Rectángulo_3-2" data-name="Rectángulo 3" width="6.787" height="7.58" transform="translate(0 11.724)" fill="#e5661d"/>
      <rect id="Rectángulo_4-2" data-name="Rectángulo 4" width="6.787" height="7.58" transform="translate(6.787 19.304)" fill="#e5661d"/>
      <rect id="Rectángulo_5-2" data-name="Rectángulo 5" width="6.787" height="7.58" transform="translate(13.574 26.884)" fill="#e5661d"/>
      <rect id="Rectángulo_6-2" data-name="Rectángulo 6" width="6.787" height="7.58" transform="translate(20.361 34.464)" fill="#e5661d"/>
      <rect id="Rectángulo_7-2" data-name="Rectángulo 7" width="6.787" height="7.58" transform="translate(27.148 42.044)" fill="#e5661d"/>
      <rect id="Rectángulo_8-2" data-name="Rectángulo 8" width="6.787" height="7.58" transform="translate(33.935 49.624)" fill="#e5661d"/>
      <rect id="Rectángulo_9-2" data-name="Rectángulo 9" width="6.787" height="7.58" transform="translate(61.094 19.304)" fill="#e5661d"/>
      <rect id="Rectángulo_10-2" data-name="Rectángulo 10" width="6.787" height="7.58" transform="translate(54.307 26.884)" fill="#e5661d"/>
      <rect id="Rectángulo_11-2" data-name="Rectángulo 11" width="6.787" height="7.58" transform="translate(47.52 34.464)" fill="#e5661d"/>
      <rect id="Rectángulo_12-2" data-name="Rectángulo 12" width="6.787" height="7.58" transform="translate(40.734 42.044)" fill="#e5661d"/>
      <rect id="Rectángulo_13-2" data-name="Rectángulo 13" width="6.787" height="7.58" transform="translate(67.881 11.724)" fill="#e5661d"/>
      <rect id="Rectángulo_14-2" data-name="Rectángulo 14" width="6.787" height="7.58" transform="translate(74.668 19.304)" fill="#e5661d"/>
      <rect id="Rectángulo_15-2" data-name="Rectángulo 15" width="6.787" height="7.58" transform="translate(81.455 26.884)" fill="#e5661d"/>
      <rect id="Rectángulo_16-2" data-name="Rectángulo 16" width="6.787" height="7.58" transform="translate(88.242 34.464)" fill="#e5661d"/>
      <rect id="Rectángulo_17-2" data-name="Rectángulo 17" width="6.787" height="7.58" transform="translate(95.029 42.044)" fill="#e5661d"/>
      <rect id="Rectángulo_18-2" data-name="Rectángulo 18" width="6.787" height="7.58" transform="translate(101.816 49.624)" fill="#e5661d"/>
      <rect id="Rectángulo_19-2" data-name="Rectángulo 19" width="6.787" height="7.58" transform="translate(128.976 19.304)" fill="#e5661d"/>
      <rect id="Rectángulo_20-2" data-name="Rectángulo 20" width="6.787" height="7.58" transform="translate(122.189 26.884)" fill="#e5661d"/>
      <rect id="Rectángulo_21-2" data-name="Rectángulo 21" width="6.787" height="7.58" transform="translate(115.402 34.464)" fill="#e5661d"/>
      <rect id="Rectángulo_22-2" data-name="Rectángulo 22" width="6.787" height="7.58" transform="translate(108.615 42.044)" fill="#e5661d"/>
      <rect id="Rectángulo_23-2" data-name="Rectángulo 23" width="6.787" height="7.58" transform="translate(135.763 11.724)" fill="#e5661d"/>
      <rect id="Rectángulo_24-2" data-name="Rectángulo 24" width="6.787" height="7.58" transform="translate(142.55 19.304)" fill="#e5661d"/>
      <rect id="Rectángulo_25-2" data-name="Rectángulo 25" width="6.787" height="7.58" transform="translate(149.337 26.884)" fill="#e5661d"/>
      <rect id="Rectángulo_26-2" data-name="Rectángulo 26" width="6.787" height="7.58" transform="translate(156.123 34.464)" fill="#e5661d"/>
      <rect id="Rectángulo_27-2" data-name="Rectángulo 27" width="6.787" height="7.58" transform="translate(162.91 42.044)" fill="#e5661d"/>
      <rect id="Rectángulo_28-2" data-name="Rectángulo 28" width="6.787" height="7.58" transform="translate(169.697 49.624)" fill="#e5661d"/>
      <path id="Trazado_136-2" data-name="Trazado 136" d="M1347.978,210.344h6.743v-7.58h-6.787v7.58h-6.744v7.58h6.787Z" transform="translate(-1144.333 -191.04)" fill="#e5661d"/>
      <rect id="Rectángulo_29-2" data-name="Rectángulo 29" width="6.787" height="7.58" transform="translate(190.07 26.884)" fill="#e5661d"/>
      <rect id="Rectángulo_30-2" data-name="Rectángulo 30" width="6.787" height="7.58" transform="translate(183.283 34.464)" fill="#e5661d"/>
      <rect id="Rectángulo_31-2" data-name="Rectángulo 31" width="6.787" height="7.58" transform="translate(176.496 42.044)" fill="#e5661d"/>
    </g>
  </g>
</svg>
