<svg xmlns="http://www.w3.org/2000/svg" width="295.393" height="151.66" viewBox="0 0 295.393 151.66">
  <g id="Grupo_1956" data-name="Grupo 1956" transform="translate(577.467 -166.109) rotate(90)">
    <path id="Trazado_146" data-name="Trazado 146" d="M331.77,516.178c-.84.03-1.679.064-2.526.064a69.48,69.48,0,0,1,0-138.961c.848,0,1.686.034,2.526.064V338.838c-.842-.019-1.679-.064-2.526-.064a107.987,107.987,0,0,0,0,215.975c.848,0,1.684-.045,2.526-.064Z" transform="translate(-16.501 -16.989)" fill="none" stroke="#e5661d" stroke-miterlimit="10" stroke-width="5"/>
    <path id="Trazado_147" data-name="Trazado 147" d="M343.254,642.9a41.886,41.886,0,1,1-74.667-32.944" transform="translate(-28.714 -101.992)" fill="none" stroke="#e5661d" stroke-miterlimit="10" stroke-width="5"/>
    <path id="Trazado_148" data-name="Trazado 148" d="M332.255,646.388a21.488,21.488,0,1,1-38.779-17.07" transform="translate(-38.027 -108.062)" fill="none" stroke="#e5661d" stroke-miterlimit="10" stroke-width="5"/>
    <path id="Trazado_149" data-name="Trazado 149" d="M235.3,571.038a41.886,41.886,0,1,1-32.242-74.973" transform="translate(0 -66.293)" fill="none" stroke="#e5661d" stroke-miterlimit="10" stroke-width="5"/>
    <path id="Trazado_150" data-name="Trazado 150" d="M231.5,564.6a21.488,21.488,0,1,1-16.773-38.908" transform="translate(-9.313 -75.58)" fill="none" stroke="#e5661d" stroke-miterlimit="10" stroke-width="5"/>
    <path id="Trazado_151" data-name="Trazado 151" d="M343.285,318.332a41.886,41.886,0,1,0-74.422,33.493" transform="translate(-28.742 0)" fill="none" stroke="#e5661d" stroke-miterlimit="10" stroke-width="5"/>
    <path id="Trazado_152" data-name="Trazado 152" d="M332.255,330.534A21.488,21.488,0,1,0,293.476,347.6" transform="translate(-38.027 -9.314)" fill="none" stroke="#e5661d" stroke-miterlimit="10" stroke-width="5"/>
    <path id="Trazado_153" data-name="Trazado 153" d="M235.3,380.96a41.886,41.886,0,1,0-32.242,74.973" transform="translate(0 -27.665)" fill="none" stroke="#e5661d" stroke-miterlimit="10" stroke-width="5"/>
    <path id="Trazado_154" data-name="Trazado 154" d="M231.5,406A21.488,21.488,0,1,0,214.729,444.9" transform="translate(-9.313 -36.978)" fill="none" stroke="#e5661d" stroke-miterlimit="10" stroke-width="5"/>
  </g>
</svg>
