<svg xmlns="http://www.w3.org/2000/svg" width="354.316" height="113.002" viewBox="0 0 354.316 113.002">
  <g id="Grupo_1824" data-name="Grupo 1824" transform="translate(-944.928 -299.27)">
    <g id="Grupo_780" data-name="Grupo 780" transform="translate(947.937 302.956)">
      <g id="Grupo_779" data-name="Grupo 779">
        <path id="Trazado_2503" data-name="Trazado 2503" d="M991.043,408.586l-43.106-52.815,43.106-52.815,43.106,52.815Z" transform="translate(-947.937 -302.956)" fill="none" stroke="#dc6" stroke-miterlimit="10" stroke-width="4.662"/>
        <path id="Trazado_2504" data-name="Trazado 2504" d="M980.345,369.419l-21.837-26.755,21.837-26.756,21.837,26.756Z" transform="translate(-937.239 -289.848)" fill="none" stroke="#dc6" stroke-miterlimit="10" stroke-width="2.05"/>
        <g id="Trazado_2505" data-name="Trazado 2505" transform="translate(-930.495 -281.585)" fill="none" stroke-miterlimit="10">
          <path d="M973.6,344.726,965.173,334.4l8.428-10.326,8.428,10.326Z" stroke="none"/>
          <path d="M 973.6005859375 339.726806640625 L 977.9482421875 334.3999328613281 L 973.6005859375 329.0730285644531 L 969.2528686523438 334.3999328613281 L 973.6005859375 339.726806640625 M 973.6005859375 344.72607421875 L 965.1725463867188 334.3999328613281 L 973.6005859375 324.0737609863281 L 982.0285034179688 334.3999328613281 L 973.6005859375 344.72607421875 Z" stroke="none" fill="#dc6"/>
        </g>
        <line id="Línea_47" data-name="Línea 47" x2="84.23" transform="translate(0 52.815)" fill="none" stroke="#dc6" stroke-miterlimit="10" stroke-width="2.05"/>
      </g>
    </g>
    <g id="Grupo_782" data-name="Grupo 782" transform="translate(1035.874 302.956)">
      <g id="Grupo_781" data-name="Grupo 781">
        <path id="Trazado_2506" data-name="Trazado 2506" d="M1034.749,408.586l-43.106-52.815,43.106-52.815,43.106,52.815Z" transform="translate(-991.643 -302.956)" fill="none" stroke="#dc6" stroke-miterlimit="10" stroke-width="4.662"/>
        <path id="Trazado_2507" data-name="Trazado 2507" d="M1024.052,369.419l-21.837-26.755,21.837-26.756,21.837,26.756Z" transform="translate(-980.946 -289.848)" fill="none" stroke="#dc6" stroke-miterlimit="10" stroke-width="2.05"/>
        <g id="Trazado_2508" data-name="Trazado 2508" transform="translate(-974.201 -281.585)" fill="none" stroke-miterlimit="10">
          <path d="M1017.307,344.726l-8.428-10.326,8.428-10.326,8.428,10.326Z" stroke="none"/>
          <path d="M 1017.307189941406 339.726806640625 L 1021.654907226562 334.3999328613281 L 1017.307189941406 329.0730285644531 L 1012.959533691406 334.3999328613281 L 1017.307189941406 339.726806640625 M 1017.30712890625 344.72607421875 L 1008.879272460938 334.3999328613281 L 1017.30712890625 324.0737609863281 L 1025.735229492188 334.3999328613281 L 1017.30712890625 344.72607421875 Z" stroke="none" fill="#dc6"/>
        </g>
        <line id="Línea_48" data-name="Línea 48" x2="84.23" transform="translate(0 52.815)" fill="none" stroke="#dc6" stroke-miterlimit="10" stroke-width="2.05"/>
      </g>
    </g>
    <g id="Grupo_784" data-name="Grupo 784" transform="translate(1122.086 302.956)">
      <g id="Grupo_783" data-name="Grupo 783">
        <path id="Trazado_2509" data-name="Trazado 2509" d="M1077.6,408.586l-43.106-52.815,43.106-52.815,43.106,52.815Z" transform="translate(-1034.493 -302.956)" fill="none" stroke="#dc6" stroke-miterlimit="10" stroke-width="4.662"/>
        <path id="Trazado_2510" data-name="Trazado 2510" d="M1066.9,369.419l-21.837-26.755,21.837-26.756,21.837,26.756Z" transform="translate(-1023.795 -289.848)" fill="none" stroke="#dc6" stroke-miterlimit="10" stroke-width="2.05"/>
        <g id="Trazado_2511" data-name="Trazado 2511" transform="translate(-1017.05 -281.585)" fill="none" stroke-miterlimit="10">
          <path d="M1060.156,344.726l-8.428-10.326,8.428-10.326,8.428,10.326Z" stroke="none"/>
          <path d="M 1060.156372070312 339.7267761230469 L 1064.504028320312 334.3999328613281 L 1060.156372070312 329.0730590820312 L 1055.808837890625 334.3999328613281 L 1060.156372070312 339.7267761230469 M 1060.156372070312 344.72607421875 L 1051.728515625 334.3999328613281 L 1060.156372070312 324.0737609863281 L 1068.584350585938 334.3999328613281 L 1060.156372070312 344.72607421875 Z" stroke="none" fill="#dc6"/>
        </g>
        <line id="Línea_49" data-name="Línea 49" x2="84.23" transform="translate(0 52.815)" fill="none" stroke="#dc6" stroke-miterlimit="10" stroke-width="2.05"/>
      </g>
    </g>
    <g id="Grupo_786" data-name="Grupo 786" transform="translate(1210.023 302.956)">
      <g id="Grupo_785" data-name="Grupo 785">
        <path id="Trazado_2512" data-name="Trazado 2512" d="M1121.306,408.586,1078.2,355.771l43.106-52.815,43.106,52.815Z" transform="translate(-1078.199 -302.956)" fill="none" stroke="#dc6" stroke-miterlimit="10" stroke-width="4.662"/>
        <path id="Trazado_2513" data-name="Trazado 2513" d="M1110.608,369.419l-21.837-26.755,21.837-26.756,21.837,26.756Z" transform="translate(-1067.502 -289.848)" fill="none" stroke="#dc6" stroke-miterlimit="10" stroke-width="2.05"/>
        <g id="Trazado_2514" data-name="Trazado 2514" transform="translate(-1060.757 -281.585)" fill="none" stroke-miterlimit="10">
          <path d="M1103.863,344.726l-8.428-10.326,8.428-10.326,8.428,10.326Z" stroke="none"/>
          <path d="M 1103.86328125 339.7267761230469 L 1108.210815429688 334.3999328613281 L 1103.86328125 329.0730895996094 L 1099.515747070312 334.3999328613281 L 1103.86328125 339.7267761230469 M 1103.86328125 344.72607421875 L 1095.435424804688 334.3999328613281 L 1103.86328125 324.0737609863281 L 1112.291137695312 334.3999328613281 L 1103.86328125 344.72607421875 Z" stroke="none" fill="#dc6"/>
        </g>
        <line id="Línea_50" data-name="Línea 50" x2="84.23" transform="translate(0 52.815)" fill="none" stroke="#dc6" stroke-miterlimit="10" stroke-width="2.05"/>
      </g>
    </g>
  </g>
</svg>
