<svg xmlns="http://www.w3.org/2000/svg" width="746.098" height="746.098" viewBox="0 0 746.098 746.098">
  <g id="Grupo_1807" data-name="Grupo 1807" transform="translate(-163.499 -233.928)">
    <g id="Grupo_348" data-name="Grupo 348" transform="translate(183.341 252.911)">
      <g id="Grupo_339" data-name="Grupo 339" transform="translate(0.702)">
        <g id="Grupo_332" data-name="Grupo 332" transform="translate(0 189.633)">
          <path id="Trazado_1429" data-name="Trazado 1429" d="M186.7,508.566c-2.287,13.718-3.948,27.454-5.055,41.321q6.425,11.517,13.347,22.708c5.588-7.792,11.386-15.386,17.668-22.623,1.085-12.371,2.644-24.6,4.744-36.836a455.922,455.922,0,0,1-19.663-46.79,402.119,402.119,0,0,1,15.389-41.912c6.362-3.158,12.766-6.115,19.3-8.9,1.82,9.05,3.9,17.993,6.268,26.913-4.182,10.119-7.894,20.333-11.212,30.775" transform="translate(-181.648 -415.536)" fill="none" stroke="#d1a943" stroke-linecap="round" stroke-linejoin="round" stroke-width="3.496"/>
          <path id="Trazado_1430" data-name="Trazado 1430" d="M195.449,530.456c1.05-10.479,2.422-20.872,4.15-31.259" transform="translate(-179.57 -402.938)" fill="none" stroke="#d1a943" stroke-linecap="round" stroke-linejoin="round" stroke-width="3.496"/>
          <path id="Trazado_1431" data-name="Trazado 1431" d="M209.475,464.872c3.379-10.578,7.147-20.935,11.376-31.2" transform="translate(-177.458 -412.805)" fill="none" stroke="#d1a943" stroke-linecap="round" stroke-linejoin="round" stroke-width="3.496"/>
        </g>
        <g id="Grupo_333" data-name="Grupo 333" transform="translate(51.004 76.138)">
          <path id="Trazado_1432" data-name="Trazado 1432" d="M245,432.82" transform="translate(-223.113 -299.437)" fill="none" stroke="#d1a943" stroke-linejoin="round" stroke-width="3.496"/>
          <path id="Trazado_1433" data-name="Trazado 1433" d="M245.767,371.124c-7.048,9.231-13.607,18.695-19.79,28.541.926,7.758,2.154,15.483,3.59,23.162,7.921-2.905,15.878-5.5,23.987-7.8,5.606-8.748,11.531-17.171,17.87-25.393a372.194,372.194,0,0,1,.1-46.089,374.379,374.379,0,0,1,29.852-26.654c6.943.364,13.843.889,20.76,1.589-1.886,8.373-3.492,16.75-4.826,25.232-7.605,6.171-14.815,12.758-21.837,19.593" transform="translate(-225.977 -316.894)" fill="none" stroke="#d1a943" stroke-linecap="round" stroke-linejoin="round" stroke-width="3.496"/>
          <path id="Trazado_1434" data-name="Trazado 1434" d="M240.446,394.063c4.865-7.364,9.938-14.511,15.283-21.523" transform="translate(-223.798 -308.515)" fill="none" stroke="#d1a943" stroke-linecap="round" stroke-linejoin="round" stroke-width="3.496"/>
          <path id="Trazado_1435" data-name="Trazado 1435" d="M277.507,350.174c7.138-6.929,14.492-13.522,22.145-19.861" transform="translate(-218.217 -314.873)" fill="none" stroke="#d1a943" stroke-linecap="round" stroke-linejoin="round" stroke-width="3.496"/>
        </g>
        <g id="Grupo_334" data-name="Grupo 334" transform="translate(125.606 11.615)">
          <path id="Trazado_1436" data-name="Trazado 1436" d="M290.815,303.285" transform="translate(-290.815 -254.421)" fill="none" stroke="#d1a943" stroke-linejoin="round" stroke-width="3.496"/>
          <path id="Trazado_1437" data-name="Trazado 1437" d="M350.086,285.331c-9.931,4.883-19.606,10.114-29.133,15.761-2.137,7.045-4.086,14.1-5.862,21.251,8.267,1.185,16.449,2.618,24.626,4.32,8.564-4.995,17.255-9.625,26.169-13.95a360.381,360.381,0,0,1,18.535-40.5c12.475-4.387,25.061-8.168,37.876-11.394q9.251,4.741,18.266,9.874c-5.1,6.787-9.969,13.692-14.632,20.8-9.353,2.406-18.63,5.19-27.743,8.411" transform="translate(-287.159 -260.816)" fill="none" stroke="#d1a943" stroke-linecap="round" stroke-linejoin="round" stroke-width="3.496"/>
          <path id="Trazado_1438" data-name="Trazado 1438" d="M332.257,305.955c7.333-4.158,14.748-8.075,22.309-11.788" transform="translate(-284.574 -255.794)" fill="none" stroke="#d1a943" stroke-linecap="round" stroke-linejoin="round" stroke-width="3.496"/>
          <path id="Trazado_1439" data-name="Trazado 1439" d="M383.155,283.566c9.3-3.164,18.646-5.995,28.132-8.522" transform="translate(-276.91 -258.673)" fill="none" stroke="#d1a943" stroke-linecap="round" stroke-linejoin="round" stroke-width="3.496"/>
        </g>
        <g id="Grupo_335" data-name="Grupo 335" transform="translate(285.761)">
          <path id="Trazado_1440" data-name="Trazado 1440" d="M544.059,293.194" transform="translate(-412.836 -244.325)" fill="none" stroke="#d1a943" stroke-linejoin="round" stroke-width="3.496"/>
          <path id="Trazado_1441" data-name="Trazado 1441" d="M477.048,250.721c-11.078.64-22.069,1.657-33.077,3.063-4.8,5.563-9.439,11.212-13.961,17.007,7.053,4.356,14.022,8.836,20.76,13.682,9.863-1.2,19.712-2.056,29.633-2.582a381.414,381.414,0,0,1,33.5-30.114c13.232.68,26.352,1.93,39.477,3.765,4.383,5.214,8.683,10.478,12.782,15.927-7.465,4.335-14.76,8.871-21.948,13.663-9.6-1.292-19.265-2.215-28.94-2.7" transform="translate(-430.01 -250.721)" fill="none" stroke="#d1a943" stroke-linecap="round" stroke-linejoin="round" stroke-width="3.496"/>
          <path id="Trazado_1442" data-name="Trazado 1442" d="M449.7,266.234c8.4-.929,16.788-1.632,25.223-2.115" transform="translate(-427.044 -248.703)" fill="none" stroke="#d1a943" stroke-linecap="round" stroke-linejoin="round" stroke-width="3.496"/>
          <path id="Trazado_1443" data-name="Trazado 1443" d="M505.319,265.374c9.823.6,19.578,1.51,29.345,2.742" transform="translate(-418.67 -248.514)" fill="none" stroke="#d1a943" stroke-linecap="round" stroke-linejoin="round" stroke-width="3.496"/>
        </g>
        <g id="Grupo_336" data-name="Grupo 336" transform="translate(430.546 12.034)">
          <path id="Trazado_1444" data-name="Trazado 1444" d="M607.341,270.979c-10.451-3.659-20.966-6.912-31.648-9.8-6.706,3.287-13.3,6.716-19.848,10.322,4.719,6.64,9.236,13.44,13.419,20.44,9.546,2.645,18.944,5.611,28.284,8.934a375.047,375.047,0,0,1,43.185-14.671c11.868,5.815,23.368,12.159,34.618,19.123,1.861,6.582,3.56,13.179,5.109,19.844-8.629.941-17.174,2.155-25.726,3.666-8.246-5.038-16.727-9.72-25.406-13.953" transform="translate(-555.846 -261.18)" fill="none" stroke="#d1a943" stroke-linecap="round" stroke-linejoin="round" stroke-width="3.496"/>
          <path id="Trazado_1445" data-name="Trazado 1445" d="M574.848,275.6c8.094,2.341,16.087,4.9,24.04,7.684" transform="translate(-552.985 -259.009)" fill="none" stroke="#d1a943" stroke-linecap="round" stroke-linejoin="round" stroke-width="3.496"/>
          <path id="Trazado_1446" data-name="Trazado 1446" d="M626.148,296.477c8.769,4.413,17.325,9.111,25.758,14.153" transform="translate(-545.26 -255.865)" fill="none" stroke="#d1a943" stroke-linecap="round" stroke-linejoin="round" stroke-width="3.496"/>
        </g>
        <g id="Grupo_337" data-name="Grupo 337" transform="translate(533.281 79.194)">
          <path id="Trazado_1447" data-name="Trazado 1447" d="M645.135,334.115" transform="translate(-645.135 -317.357)" fill="none" stroke="#d1a943" stroke-linejoin="round" stroke-width="3.496"/>
          <path id="Trazado_1448" data-name="Trazado 1448" d="M716.972,342.13c-7.977-7.9-16.212-15.393-24.818-22.58-7.485.241-14.921.673-22.383,1.306,1.539,8.107,2.922,16.236,3.858,24.44,7.663,6.5,15,13.258,22.1,20.378a324.624,324.624,0,0,1,45.275,5.573,369.871,369.871,0,0,1,23.332,34.382c-1.073,7.212-2.3,14.371-3.695,21.526-8.136-3.342-16.321-6.341-24.69-9.03-5.381-8.648-11.072-16.987-17.162-25.136" transform="translate(-641.425 -319.55)" fill="none" stroke="#d1a943" stroke-linecap="round" stroke-linejoin="round" stroke-width="3.496"/>
          <path id="Trazado_1449" data-name="Trazado 1449" d="M684.892,333.619c6.446,5.613,12.672,11.4,18.745,17.42" transform="translate(-639.148 -317.431)" fill="none" stroke="#d1a943" stroke-linecap="round" stroke-linejoin="round" stroke-width="3.496"/>
          <path id="Trazado_1450" data-name="Trazado 1450" d="M722.92,375.628c6.161,8.27,11.932,16.731,17.4,25.49" transform="translate(-633.422 -311.106)" fill="none" stroke="#d1a943" stroke-linecap="round" stroke-linejoin="round" stroke-width="3.496"/>
        </g>
        <g id="Grupo_338" data-name="Grupo 338" transform="translate(649.613 166.893)">
          <path id="Trazado_1451" data-name="Trazado 1451" d="M765.614,395.772" transform="translate(-743.325 -395.772)" fill="none" stroke="#d1a943" stroke-linejoin="round" stroke-width="3.496"/>
          <path id="Trazado_1452" data-name="Trazado 1452" d="M786.274,465.06c-3.683-12.011-7.849-23.739-12.6-35.361-6.716-3.67-13.617-7-20.616-10.078-2.028,8.658-4.294,17.212-6.82,25.734,4.165,10.467,7.836,21.025,11.09,31.819a299.864,299.864,0,0,1,37.8,30.7,480.434,480.434,0,0,1,5.61,49.641c-4.071,7.109-8.3,14.133-12.744,21.01-5.564-8.417-11.352-16.662-17.719-24.482-.925-12.188-2.3-24.245-4.2-36.317" transform="translate(-746.242 -392.181)" fill="none" stroke="#d1a943" stroke-linecap="round" stroke-linejoin="round" stroke-width="3.496"/>
          <path id="Trazado_1453" data-name="Trazado 1453" d="M760.275,439.924c3.521,8.9,6.616,17.979,9.344,27.156" transform="translate(-744.129 -389.123)" fill="none" stroke="#d1a943" stroke-linecap="round" stroke-linejoin="round" stroke-width="3.496"/>
          <path id="Trazado_1454" data-name="Trazado 1454" d="M776.16,502.869c1.9,12.242,3.3,24.472,4.251,36.829" transform="translate(-741.737 -379.645)" fill="none" stroke="#d1a943" stroke-linecap="round" stroke-linejoin="round" stroke-width="3.496"/>
        </g>
      </g>
      <g id="Grupo_347" data-name="Grupo 347" transform="translate(0 354.389)">
        <g id="Grupo_340" data-name="Grupo 340">
          <path id="Trazado_1455" data-name="Trazado 1455" d="M185.233,622.567c-2-13.764-3.376-27.532-4.2-41.42q6.664-11.377,13.816-22.418c5.425,7.909,11.064,15.625,17.193,22.993.83,12.393,2.133,24.649,3.979,36.929a456.055,456.055,0,0,0-20.63,46.36,402.305,402.305,0,0,0,14.516,42.231c6.295,3.294,12.636,6.386,19.107,9.307,2.009-9.009,4.274-17.905,6.826-26.773-3.971-10.207-7.47-20.5-10.57-31.008" transform="translate(-181.038 -558.729)" fill="none" stroke="#d1a943" stroke-linecap="round" stroke-linejoin="round" stroke-width="3.496"/>
          <path id="Trazado_1456" data-name="Trazado 1456" d="M194.713,584.445c.833,10.5,1.988,20.919,3.5,31.341" transform="translate(-178.979 -554.857)" fill="none" stroke="#d1a943" stroke-linecap="round" stroke-linejoin="round" stroke-width="3.496"/>
          <path id="Trazado_1457" data-name="Trazado 1457" d="M207.375,650.3c3.158,10.649,6.71,21.083,10.726,31.434" transform="translate(-177.072 -544.939)" fill="none" stroke="#d1a943" stroke-linecap="round" stroke-linejoin="round" stroke-width="3.496"/>
        </g>
        <g id="Grupo_341" data-name="Grupo 341" transform="translate(47.567 138.409)">
          <path id="Trazado_1458" data-name="Trazado 1458" d="M242.31,679.024" transform="translate(-219.379 -679.024)" fill="none" stroke="#d1a943" stroke-linejoin="round" stroke-width="3.496"/>
          <path id="Trazado_1459" data-name="Trazado 1459" d="M241.572,754.573c-6.854-9.378-13.216-18.98-19.192-28.956,1.086-7.738,2.475-15.435,4.068-23.082,7.858,3.073,15.761,5.832,23.822,8.306,5.423,8.865,11.171,17.414,17.338,25.768a372.132,372.132,0,0,0-.858,46.081,374.577,374.577,0,0,0,29.292,27.284c6.948-.215,13.859-.595,20.789-1.146-1.712-8.411-3.143-16.822-4.3-25.33-7.475-6.331-14.547-13.07-21.425-20.054" transform="translate(-222.38 -675.483)" fill="none" stroke="#d1a943" stroke-linecap="round" stroke-linejoin="round" stroke-width="3.496"/>
          <path id="Trazado_1460" data-name="Trazado 1460" d="M236.895,720.492c4.71,7.466,9.634,14.719,14.833,21.844" transform="translate(-220.194 -672.78)" fill="none" stroke="#d1a943" stroke-linecap="round" stroke-linejoin="round" stroke-width="3.496"/>
          <path id="Trazado_1461" data-name="Trazado 1461" d="M273.041,764.942c6.993,7.08,14.207,13.827,21.729,20.328" transform="translate(-214.751 -666.086)" fill="none" stroke="#d1a943" stroke-linecap="round" stroke-linejoin="round" stroke-width="3.496"/>
        </g>
        <g id="Grupo_342" data-name="Grupo 342" transform="translate(120.108 272.677)">
          <path id="Trazado_1462" data-name="Trazado 1462" d="M285.427,809.506" transform="translate(-285.427 -793.643)" fill="none" stroke="#d1a943" stroke-linejoin="round" stroke-width="3.496"/>
          <path id="Trazado_1463" data-name="Trazado 1463" d="M344.145,837.264c-9.828-5.094-19.392-10.529-28.8-16.377-1.989-7.089-3.792-14.189-5.42-21.371,8.29-1.009,16.5-2.268,24.711-3.8,8.458,5.178,17.05,9.992,25.872,14.505a360.719,360.719,0,0,0,17.69,40.888c12.38,4.652,24.886,8.7,37.632,12.2q9.347-4.542,18.466-9.484c-4.962-6.893-9.682-13.9-14.2-21.1-9.3-2.6-18.519-5.585-27.563-9" transform="translate(-281.738 -795.719)" fill="none" stroke="#d1a943" stroke-linecap="round" stroke-linejoin="round" stroke-width="3.496"/>
          <path id="Trazado_1464" data-name="Trazado 1464" d="M326.883,809.261c7.245,4.312,14.578,8.387,22.06,12.259" transform="translate(-279.184 -793.68)" fill="none" stroke="#d1a943" stroke-linecap="round" stroke-linejoin="round" stroke-width="3.496"/>
          <path id="Trazado_1465" data-name="Trazado 1465" d="M377.314,832.3c9.229,3.362,18.519,6.39,27.949,9.121" transform="translate(-271.59 -790.211)" fill="none" stroke="#d1a943" stroke-linecap="round" stroke-linejoin="round" stroke-width="3.496"/>
        </g>
        <g id="Grupo_343" data-name="Grupo 343" transform="translate(279.389 306.349)">
          <path id="Trazado_1466" data-name="Trazado 1466" d="M538.406,824.984" transform="translate(-406.614 -824.984)" fill="none" stroke="#d1a943" stroke-linejoin="round" stroke-width="3.496"/>
          <path id="Trazado_1467" data-name="Trazado 1467" d="M470.473,870.379c-11.062-.876-22.03-2.126-33.007-3.766-4.681-5.663-9.2-11.41-13.6-17.3,7.142-4.205,14.2-8.536,21.04-13.236,9.836,1.408,19.665,2.475,29.572,3.212a382.086,382.086,0,0,0,32.869,30.821c13.243-.4,26.386-1.368,39.546-2.924,4.49-5.12,8.9-10.292,13.11-15.653-7.373-4.493-14.572-9.184-21.659-14.128-9.626,1.088-19.308,1.805-28.99,2.081" transform="translate(-423.862 -823.314)" fill="none" stroke="#d1a943" stroke-linecap="round" stroke-linejoin="round" stroke-width="3.496"/>
          <path id="Trazado_1468" data-name="Trazado 1468" d="M443.506,850.207c8.379,1.107,16.75,1.988,25.174,2.651" transform="translate(-420.904 -821.186)" fill="none" stroke="#d1a943" stroke-linecap="round" stroke-linejoin="round" stroke-width="3.496"/>
          <path id="Trazado_1469" data-name="Trazado 1469" d="M499.1,852.25c9.833-.389,19.6-1.092,29.394-2.116" transform="translate(-412.533 -821.197)" fill="none" stroke="#d1a943" stroke-linecap="round" stroke-linejoin="round" stroke-width="3.496"/>
        </g>
        <g id="Grupo_344" data-name="Grupo 344" transform="translate(424.19 277.926)">
          <path id="Trazado_1470" data-name="Trazado 1470" d="M601.185,857.119c-10.524,3.436-21.1,6.463-31.844,9.124-6.636-3.43-13.161-7-19.629-10.743,4.855-6.539,9.513-13.24,13.84-20.15,9.6-2.442,19.057-5.208,28.463-8.33a375.207,375.207,0,0,0,42.871,15.587c11.987-5.561,23.616-11.659,35.007-18.382,2-6.542,3.833-13.1,5.519-19.731-8.608-1.124-17.125-2.52-25.643-4.212-8.35,4.862-16.926,9.362-25.69,13.409" transform="translate(-549.712 -800.281)" fill="none" stroke="#d1a943" stroke-linecap="round" stroke-linejoin="round" stroke-width="3.496"/>
          <path id="Trazado_1471" data-name="Trazado 1471" d="M568.823,844.169c8.14-2.169,16.184-4.552,24.194-7.17" transform="translate(-546.834 -794.752)" fill="none" stroke="#d1a943" stroke-linecap="round" stroke-linejoin="round" stroke-width="3.496"/>
          <path id="Trazado_1472" data-name="Trazado 1472" d="M620.545,825.229c8.857-4.225,17.511-8.741,26.046-13.6" transform="translate(-539.046 -798.572)" fill="none" stroke="#d1a943" stroke-linecap="round" stroke-linejoin="round" stroke-width="3.496"/>
        </g>
        <g id="Grupo_345" data-name="Grupo 345" transform="translate(528.43 173.462)">
          <path id="Trazado_1473" data-name="Trazado 1473" d="M640.309,786.223" transform="translate(-640.309 -697.934)" fill="none" stroke="#d1a943" stroke-linejoin="round" stroke-width="3.496"/>
          <path id="Trazado_1474" data-name="Trazado 1474" d="M712.293,793.566c-8.138,7.73-16.527,15.044-25.281,22.047-7.479-.4-14.9-.991-22.352-1.782,1.709-8.074,3.26-16.17,4.365-24.353,7.8-6.332,15.269-12.935,22.519-19.9a324.479,324.479,0,0,0,45.381-4.608,370.039,370.039,0,0,0,24.04-33.877c-.924-7.235-2-14.417-3.247-21.6-8.2,3.169-16.449,5.992-24.873,8.5-5.558,8.53-11.422,16.747-17.679,24.764" transform="translate(-636.642 -709.489)" fill="none" stroke="#d1a943" stroke-linecap="round" stroke-linejoin="round" stroke-width="3.496"/>
          <path id="Trazado_1475" data-name="Trazado 1475" d="M680.047,789.793c6.561-5.474,12.906-11.126,19.1-17.017" transform="translate(-634.325 -699.959)" fill="none" stroke="#d1a943" stroke-linecap="round" stroke-linejoin="round" stroke-width="3.496"/>
          <path id="Trazado_1476" data-name="Trazado 1476" d="M718.939,749.662c6.33-8.137,12.276-16.473,17.92-25.115" transform="translate(-628.469 -707.221)" fill="none" stroke="#d1a943" stroke-linecap="round" stroke-linejoin="round" stroke-width="3.496"/>
        </g>
        <g id="Grupo_346" data-name="Grupo 346" transform="translate(647.312 7.883)">
          <path id="Trazado_1477" data-name="Trazado 1477" d="M762.041,727.145" transform="translate(-740.86 -541.251)" fill="none" stroke="#d1a943" stroke-linejoin="round" stroke-width="3.496"/>
          <path id="Trazado_1478" data-name="Trazado 1478" d="M784.066,678.988c-3.932,11.929-8.341,23.566-13.328,35.084-6.791,3.528-13.76,6.711-20.821,9.637-1.849-8.7-3.935-17.3-6.284-25.873,4.383-10.376,8.27-20.853,11.75-31.577a299.552,299.552,0,0,0,38.424-29.893,480.062,480.062,0,0,0,6.64-49.51c-3.922-7.195-8-14.306-12.3-21.277-5.738,8.3-11.7,16.417-18.224,24.1-1.177,12.166-2.806,24.191-4.953,36.22" transform="translate(-743.632 -565.58)" fill="none" stroke="#d1a943" stroke-linecap="round" stroke-linejoin="round" stroke-width="3.496"/>
          <path id="Trazado_1479" data-name="Trazado 1479" d="M757.62,686.416c3.7-8.82,6.987-17.835,9.905-26.951" transform="translate(-741.526 -551.442)" fill="none" stroke="#d1a943" stroke-linecap="round" stroke-linejoin="round" stroke-width="3.496"/>
          <path id="Trazado_1480" data-name="Trazado 1480" d="M774.808,625.1c2.159-12.2,3.808-24.4,5.014-36.731" transform="translate(-738.937 -562.148)" fill="none" stroke="#d1a943" stroke-linecap="round" stroke-linejoin="round" stroke-width="3.496"/>
        </g>
      </g>
    </g>
    <circle id="Elipse_7" data-name="Elipse 7" cx="311.424" cy="311.424" r="311.424" transform="translate(225.124 295.553)" fill="none" stroke="#d1a943" stroke-linejoin="round" stroke-width="5.49"/>
    <circle id="Elipse_8" data-name="Elipse 8" cx="370.802" cy="370.802" r="370.802" transform="translate(165.747 236.175)" fill="none" stroke="#d1a943" stroke-linejoin="round" stroke-width="4.495"/>
  </g>
</svg>
