<svg xmlns="http://www.w3.org/2000/svg" width="803.313" height="803.313" viewBox="0 0 803.313 803.313">
  <g id="Grupo_1993" data-name="Grupo 1993" transform="translate(-159.385 -234.184)">
    <g id="Grupo_326" data-name="Grupo 326" transform="translate(167.755 239.877)">
      <g id="Grupo_304" data-name="Grupo 304" transform="translate(1.92)">
        <g id="Grupo_288" data-name="Grupo 288" transform="translate(0 123.23)">
          <g id="Grupo_284" data-name="Grupo 284" transform="translate(0 186.147)">
            <path id="Trazado_927" data-name="Trazado 927" d="M233.264,535.794a355.249,355.249,0,0,0-35.716,39.3c-10.427-15.668-20.181-31.575-29.425-47.967a377.913,377.913,0,0,1,39.919-36.454A489.308,489.308,0,0,0,233.264,535.794Z" transform="translate(-168.124 -490.676)" fill="none" stroke="#dc6" stroke-miterlimit="10" stroke-width="2.551"/>
            <path id="Trazado_928" data-name="Trazado 928" d="M214.257,529.957c-6.505,6.248-12.618,12.828-18.636,19.551q-7.447-11.83-14.36-23.94c6.4-6.5,12.934-12.741,19.716-18.82Q207.367,518.514,214.257,529.957Z" transform="translate(-165.1 -486.977)" fill="none" stroke="#dc6" stroke-miterlimit="10" stroke-width="1.654"/>
            <path id="Trazado_929" data-name="Trazado 929" d="M195.724,525.341c.076-.076.116-.114.192-.192.055.095.084.141.138.236-.076.076-.114.116-.192.192-.054-.095-.082-.142-.138-.236m-6.206-.824c2.127,3.7,3.211,5.526,5.412,9.152,2.907-3.063,4.373-4.554,7.322-7.458-2.136-3.583-3.187-5.392-5.25-9.044-3.013,2.861-4.511,4.331-7.483,7.35Z" transform="translate(-163.2 -484.578)" fill="none" stroke="#dc6" stroke-miterlimit="10" stroke-width="1"/>
            <path id="Trazado_930" data-name="Trazado 930" d="M192.043,574.758a579.988,579.988,0,0,1,10.08-82.608" transform="translate(-162.618 -490.337)" fill="none" stroke="#dc6" stroke-miterlimit="10" stroke-width="1.654"/>
          </g>
          <g id="Grupo_285" data-name="Grupo 285" transform="translate(19.878 113.001)">
            <path id="Trazado_931" data-name="Trazado 931" d="M245.909,477.651a345.713,345.713,0,0,0-41.585,26.711,502.934,502.934,0,0,1-20.041-49.222,379.745,379.745,0,0,1,45.127-23.924C234.383,447.01,239.8,462.261,245.909,477.651Z" transform="translate(-184.283 -431.216)" fill="none" stroke="#dc6" stroke-miterlimit="10" stroke-width="2.551"/>
            <path id="Trazado_932" data-name="Trazado 932" d="M227.922,468.913Q216.9,475.027,206.395,482.1c-3.422-8.13-6.643-16.3-9.689-24.585q10.977-6.706,22.437-12.468Q223.146,457.122,227.922,468.913Z" transform="translate(-181.424 -428.033)" fill="none" stroke="#dc6" stroke-miterlimit="10" stroke-width="1.654"/>
            <path id="Trazado_933" data-name="Trazado 933" d="M210.388,461.083l.22-.129.092.242-.22.129-.092-.242m-5.872-2.144c1.409,3.789,2.136,5.67,3.629,9.4,3.361-2.072,5.045-3.072,8.418-5-1.439-3.692-2.139-5.552-3.494-9.3-3.426,1.888-5.137,2.868-8.553,4.9Z" transform="translate(-179.626 -425.962)" fill="none" stroke="#dc6" stroke-miterlimit="10" stroke-width="1"/>
            <path id="Trazado_934" data-name="Trazado 934" d="M200.574,504.071a511.378,511.378,0,0,1,24.364-71.59" transform="translate(-180.533 -430.925)" fill="none" stroke="#dc6" stroke-miterlimit="10" stroke-width="1.654"/>
          </g>
          <g id="Grupo_286" data-name="Grupo 286" transform="translate(54.329 50.965)">
            <path id="Trazado_935" data-name="Trazado 935" d="M267.936,427.639c-15.4,4.422-30.041,9.378-44.973,15.184a468.377,468.377,0,0,1-10.675-49.62c15.933-4.867,31.554-8.93,47.845-12.415C262.165,396.626,264.722,412,267.936,427.639Z" transform="translate(-212.288 -380.788)" fill="none" stroke="#dc6" stroke-miterlimit="10" stroke-width="2.551"/>
            <path id="Trazado_936" data-name="Trazado 936" d="M251.685,416.472q-11.688,3.189-23.159,7.347-2.921-12.3-5.029-24.792,11.85-3.794,23.9-6.634Q249.136,404.511,251.685,416.472Z" transform="translate(-209.708 -378.117)" fill="none" stroke="#dc6" stroke-miterlimit="10" stroke-width="1.654"/>
            <path id="Trazado_937" data-name="Trazado 937" d="M235.848,405.915l.236-.07c.018.1.028.146.047.245l-.236.07c-.018-.1-.028-.148-.047-.245m-5.3-3.28c.694,3.815,1.064,5.712,1.85,9.485,3.618-1.165,5.425-1.714,9.028-2.752-.743-3.73-1.091-5.606-1.742-9.378-3.646,1-5.474,1.524-9.137,2.645Z" transform="translate(-208.085 -376.368)" fill="none" stroke="#dc6" stroke-miterlimit="10" stroke-width="1"/>
            <path id="Trazado_938" data-name="Trazado 938" d="M220.966,442.58a490.507,490.507,0,0,1,36.2-60.734" transform="translate(-210.291 -380.544)" fill="none" stroke="#dc6" stroke-miterlimit="10" stroke-width="1.654"/>
          </g>
          <g id="Grupo_287" data-name="Grupo 287" transform="translate(100.575)">
            <path id="Trazado_939" data-name="Trazado 939" d="M297.677,385.689c-15.628.881-30.7,2.4-46.2,4.635-1.143-16.473-1.661-32.6-1.594-49.111,16.272-1.287,32.114-1.9,48.436-1.851C297.521,354.918,297.3,370.116,297.677,385.689Z" transform="translate(-249.88 -339.359)" fill="none" stroke="#dc6" stroke-miterlimit="10" stroke-width="2.551"/>
            <path id="Trazado_940" data-name="Trazado 940" d="M283.717,372.56q-11.848.539-23.7,2-.666-12.24-.509-24.531,12.144-1.1,24.273-1.287Q283.348,360.657,283.717,372.56Z" transform="translate(-247.671 -337.198)" fill="none" stroke="#dc6" stroke-miterlimit="10" stroke-width="1.654"/>
            <path id="Trazado_941" data-name="Trazado 941" d="M270.108,359.758l.24-.016c0,.1,0,.145,0,.241l-.24.017c0-.1,0-.146,0-.242m-4.552-4.235c0,3.767.027,5.644.125,9.383,3.7-.331,5.548-.467,9.216-.686-.064-3.7-.073-5.553-.041-9.277-3.7.177-5.563.293-9.3.581Z" transform="translate(-246.272 -335.772)" fill="none" stroke="#dc6" stroke-miterlimit="10" stroke-width="1"/>
            <path id="Trazado_942" data-name="Trazado 942" d="M251.181,390.127a392.756,392.756,0,0,1,45.673-49.914" transform="translate(-249.581 -339.162)" fill="none" stroke="#dc6" stroke-miterlimit="10" stroke-width="1.654"/>
          </g>
        </g>
        <g id="Grupo_293" data-name="Grupo 293" transform="translate(149.016 0.342)">
          <g id="Grupo_289" data-name="Grupo 289" transform="translate(0 75.255)">
            <path id="Trazado_943" data-name="Trazado 943" d="M334.843,353.246c-15.271-2.313-30.176-3.932-45.585-4.972,1.773-16.08,4.081-31.726,7.011-47.636,15.99,1.994,31.468,4.541,47.251,7.789C340.049,323.374,337.2,338.083,334.843,353.246Z" transform="translate(-289.258 -300.638)" fill="none" stroke="#dc6" stroke-miterlimit="10" stroke-width="2.551"/>
            <path id="Trazado_944" data-name="Trazado 944" d="M322.963,337.847q-11.579-1.864-23.317-2.87,1.493-11.943,3.777-23.779,11.954,1.373,23.745,3.592Q324.682,326.247,322.963,337.847Z" transform="translate(-286.867 -298.207)" fill="none" stroke="#dc6" stroke-miterlimit="10" stroke-width="1.654"/>
            <path id="Trazado_945" data-name="Trazado 945" d="M311.557,322.862l.235.032c-.016.095-.023.141-.039.235l-.236-.032c.017-.095.025-.141.041-.235m-3.675-5.01c-.653,3.644-.955,5.463-1.509,9.093,3.645.428,5.456.667,9.05,1.192.581-3.587.9-5.384,1.575-8.984-3.62-.568-5.444-.829-9.116-1.3Z" transform="translate(-285.319 -296.676)" fill="none" stroke="#dc6" stroke-miterlimit="10" stroke-width="1"/>
            <path id="Trazado_946" data-name="Trazado 946" d="M289.258,346.669A400.933,400.933,0,0,1,342.2,307.612" transform="translate(-289.258 -299.033)" fill="none" stroke="#dc6" stroke-miterlimit="10" stroke-width="1.654"/>
          </g>
          <g id="Grupo_290" data-name="Grupo 290" transform="translate(54.262 37.893)">
            <path id="Trazado_947" data-name="Trazado 947" d="M376.817,329.06c-14.427-5.172-28.657-9.635-43.45-13.641,4.5-15.334,9.444-30.173,15.016-45.151,15.2,4.976,29.839,10.383,44.62,16.5C387.054,300.77,381.734,314.659,376.817,329.06Z" transform="translate(-333.367 -270.267)" fill="none" stroke="#dc6" stroke-miterlimit="10" stroke-width="2.551"/>
            <path id="Trazado_948" data-name="Trazado 948" d="M367.152,311.853q-10.948-4.023-22.17-7.265,3.519-11.387,7.767-22.516,11.372,3.611,22.472,8Q370.837,300.817,367.152,311.853Z" transform="translate(-330.694 -267.55)" fill="none" stroke="#dc6" stroke-miterlimit="10" stroke-width="1.654"/>
            <path id="Trazado_949" data-name="Trazado 949" d="M358.174,295.108l.223.076c-.032.09-.047.134-.079.223-.09-.031-.134-.047-.224-.076l.08-.223m-2.709-5.6c-1.262,3.44-1.869,5.162-3.035,8.6,3.469,1.115,5.188,1.694,8.594,2.891,1.183-3.4,1.8-5.1,3.08-8.494-3.424-1.241-5.152-1.842-8.64-3Z" transform="translate(-328.979 -265.838)" fill="none" stroke="#dc6" stroke-miterlimit="10" stroke-width="1"/>
            <path id="Trazado_950" data-name="Trazado 950" d="M333.367,312.232a552.57,552.57,0,0,1,58.218-28.121" transform="translate(-333.367 -267.08)" fill="none" stroke="#dc6" stroke-miterlimit="10" stroke-width="1.654"/>
          </g>
          <g id="Grupo_291" data-name="Grupo 291" transform="translate(113.897 12.773)">
            <path id="Trazado_951" data-name="Trazado 951" d="M421.9,312.827c-13.185-7.7-26.32-14.7-40.057-21.362,7.018-14.227,14.375-27.911,22.361-41.618,14,7.642,27.395,15.6,40.8,24.25C436.78,286.822,429.187,299.545,421.9,312.827Z" transform="translate(-381.844 -249.847)" fill="none" stroke="#dc6" stroke-miterlimit="10" stroke-width="2.551"/>
            <path id="Trazado_952" data-name="Trazado 952" d="M414.7,294.4q-10.014-5.945-20.4-11.181,5.394-10.56,11.434-20.724,10.476,5.61,20.587,11.923Q420.2,284.2,414.7,294.4Z" transform="translate(-378.977 -246.936)" fill="none" stroke="#dc6" stroke-miterlimit="10" stroke-width="1.654"/>
            <path id="Trazado_953" data-name="Trazado 953" d="M408.355,276.46l.2.116-.114.2-.205-.114.116-.2m-1.687-6c-1.822,3.155-2.709,4.737-4.437,7.91,3.2,1.727,4.776,2.609,7.9,4.4,1.739-3.128,2.633-4.689,4.464-7.8-3.131-1.838-4.716-2.742-7.924-4.514Z" transform="translate(-377.151 -245.102)" fill="none" stroke="#dc6" stroke-miterlimit="10" stroke-width="1"/>
            <path id="Trazado_954" data-name="Trazado 954" d="M381.844,286.877a551.945,551.945,0,0,1,61.677-17.1" transform="translate(-381.844 -245.259)" fill="none" stroke="#dc6" stroke-miterlimit="10" stroke-width="1.654"/>
          </g>
          <g id="Grupo_292" data-name="Grupo 292" transform="translate(177.053)">
            <path id="Trazado_955" data-name="Trazado 955" d="M468.789,304.6c-11.607-9.894-23.291-19.117-35.606-28.113,9.3-12.764,18.846-24.937,29.014-37.023,12.446,9.982,24.259,20.171,35.954,31.023C487.879,281.585,478.232,292.788,468.789,304.6Z" transform="translate(-433.183 -239.464)" fill="none" stroke="#dc6" stroke-miterlimit="10" stroke-width="2.551"/>
            <path id="Trazado_956" data-name="Trazado 956" d="M464.22,285.541q-8.813-7.617-18.092-14.6,7.1-9.455,14.755-18.392,9.32,7.361,18.182,15.351Q471.379,276.453,464.22,285.541Z" transform="translate(-430.203 -236.453)" fill="none" stroke="#dc6" stroke-miterlimit="10" stroke-width="1.654"/>
            <path id="Trazado_957" data-name="Trazado 957" d="M460.662,266.989l.181.15-.148.181-.182-.15c.059-.073.089-.109.149-.181m-.63-6.2c-2.326,2.788-3.468,4.19-5.707,7.011,2.839,2.264,4.239,3.409,6.995,5.725,2.245-2.776,3.388-4.158,5.72-6.9-2.762-2.361-4.163-3.528-7.008-5.837Z" transform="translate(-428.317 -234.556)" fill="none" stroke="#dc6" stroke-miterlimit="10" stroke-width="1"/>
            <path id="Trazado_958" data-name="Trazado 958" d="M433.183,270.681a555.258,555.258,0,0,1,63.467-5.991" transform="translate(-433.183 -233.658)" fill="none" stroke="#dc6" stroke-miterlimit="10" stroke-width="1.654"/>
          </g>
        </g>
        <g id="Grupo_298" data-name="Grupo 298" transform="translate(391.037)">
          <g id="Grupo_294" data-name="Grupo 294">
            <path id="Trazado_959" data-name="Trazado 959" d="M516.23,304.423c-9.732-11.757-19.657-22.871-30.235-33.873,11.353-10.947,22.835-21.253,34.937-31.365,10.581,11.991,20.5,24.076,30.2,36.795C539.051,285.1,527.6,294.434,516.23,304.423Z" transform="translate(-485.995 -239.186)" fill="none" stroke="#dc6" stroke-miterlimit="10" stroke-width="2.551"/>
            <path id="Trazado_960" data-name="Trazado 960" d="M514.42,285.334q-7.379-9.031-15.323-17.524,8.619-8.069,17.707-15.524,7.936,8.868,15.313,18.273Q523.048,277.635,514.42,285.334Z" transform="translate(-482.979 -236.17)" fill="none" stroke="#dc6" stroke-miterlimit="10" stroke-width="1.654"/>
            <path id="Trazado_961" data-name="Trazado 961" d="M513.74,266.754l.154.178-.177.151-.154-.178.177-.151m.445-6.214c-2.774,2.336-4.142,3.517-6.834,5.9,2.411,2.722,3.593,4.094,5.914,6.852,2.693-2.341,4.06-3.5,6.834-5.79-2.32-2.8-3.5-4.2-5.914-6.964Z" transform="translate(-481.079 -234.271)" fill="none" stroke="#dc6" stroke-miterlimit="10" stroke-width="1"/>
            <path id="Trazado_962" data-name="Trazado 962" d="M485.995,264.682a555.8,555.8,0,0,1,63.646,5.177" transform="translate(-485.995 -233.317)" fill="none" stroke="#dc6" stroke-miterlimit="10" stroke-width="1.654"/>
          </g>
          <g id="Grupo_295" data-name="Grupo 295" transform="translate(65.133 12.148)">
            <path id="Trazado_963" data-name="Trazado 963" d="M562.969,312.335c-7.583-13.281-15.471-25.953-24.028-38.628,13.144-8.776,26.291-16.865,40.047-24.647,8.419,13.665,16.16,27.3,23.558,41.549C588.964,297.4,575.988,304.52,562.969,312.335Z" transform="translate(-538.941 -249.061)" fill="none" stroke="#dc6" stroke-miterlimit="10" stroke-width="2.551"/>
            <path id="Trazado_964" data-name="Trazado 964" d="M563.994,293.818q-5.731-10.179-12.127-19.933,9.928-6.41,20.244-12.121,6.335,10.129,12.007,20.683Q573.876,287.779,563.994,293.818Z" transform="translate(-535.966 -246.137)" fill="none" stroke="#dc6" stroke-miterlimit="10" stroke-width="1.654"/>
            <path id="Trazado_965" data-name="Trazado 965" d="M566.244,275.8c.049.081.073.122.121.2-.08.048-.121.071-.2.118-.048-.081-.071-.122-.121-.2l.2-.118m1.524-6.025c-3.158,1.8-4.719,2.72-7.8,4.589,1.915,3.1,2.849,4.659,4.667,7.782,3.075-1.824,4.633-2.72,7.782-4.478-1.811-3.168-2.741-4.746-4.649-7.893Z" transform="translate(-534.101 -244.294)" fill="none" stroke="#dc6" stroke-miterlimit="10" stroke-width="1"/>
            <path id="Trazado_966" data-name="Trazado 966" d="M538.941,269.1a551.749,551.749,0,0,1,62.173,16.385" transform="translate(-538.941 -244.449)" fill="none" stroke="#dc6" stroke-miterlimit="10" stroke-width="1.654"/>
          </g>
          <g id="Grupo_296" data-name="Grupo 296" transform="translate(128.738 36.814)">
            <path id="Trazado_967" data-name="Trazado 967" d="M607.688,328.358c-5.178-14.458-10.77-28.346-17.043-42.364,14.63-6.248,29.117-11.779,44.185-16.883,5.969,15.011,11.246,29.863,16.067,45.279C636.176,318.507,622.031,323.075,607.688,328.358Z" transform="translate(-590.645 -269.112)" fill="none" stroke="#dc6" stroke-miterlimit="10" stroke-width="2.551"/>
            <path id="Trazado_968" data-name="Trazado 968" d="M611.569,311.019q-3.886-11.059-8.526-21.825,10.989-4.484,22.277-8.188,4.519,11.14,8.278,22.574Q622.449,306.907,611.569,311.019Z" transform="translate(-587.791 -266.374)" fill="none" stroke="#dc6" stroke-miterlimit="10" stroke-width="1.654"/>
            <path id="Trazado_969" data-name="Trazado 969" d="M616.75,294.143c.034.089.05.133.085.223l-.223.077c-.033-.089-.05-.133-.084-.223l.221-.077m2.583-5.643c-3.462,1.187-5.175,1.8-8.571,3.072,1.356,3.4,2.009,5.105,3.262,8.513,3.382-1.225,5.088-1.818,8.534-2.961-1.239-3.451-1.885-5.177-3.226-8.624Z" transform="translate(-586.014 -264.649)" fill="none" stroke="#dc6" stroke-miterlimit="10" stroke-width="1"/>
            <path id="Trazado_970" data-name="Trazado 970" d="M590.645,282.836a412.369,412.369,0,0,1,58.92,27.615" transform="translate(-590.645 -265.953)" fill="none" stroke="#dc6" stroke-miterlimit="10" stroke-width="1.654"/>
          </g>
          <g id="Grupo_297" data-name="Grupo 297" transform="translate(188.991 74.011)">
            <path id="Trazado_971" data-name="Trazado 971" d="M648.962,352.51c-2.54-15.28-5.6-30.046-9.338-45.079,15.73-3.356,31.151-6,47.1-8.082,3.234,16.027,5.786,31.753,7.77,47.982C679.093,348.432,664.214,350.118,648.962,352.51Z" transform="translate(-639.624 -299.349)" fill="none" stroke="#dc6" stroke-miterlimit="10" stroke-width="2.551"/>
            <path id="Trazado_972" data-name="Trazado 972" d="M655.655,336.949q-1.865-11.669-4.553-23.2,11.745-2.294,23.682-3.732,2.489,11.9,4.149,23.945Q667.218,335.024,655.655,336.949Z" transform="translate(-636.982 -296.893)" fill="none" stroke="#dc6" stroke-miterlimit="10" stroke-width="1.654"/>
            <path id="Trazado_973" data-name="Trazado 973" d="M663.69,321.805l.043.236-.235.033c-.017-.095-.026-.141-.043-.236l.235-.033m3.594-5.062c-3.665.491-5.484.761-9.095,1.351.737,3.622,1.079,5.431,1.711,9.043,3.587-.545,5.394-.795,9.034-1.241-.609-3.656-.939-5.487-1.651-9.152Z" transform="translate(-635.351 -295.345)" fill="none" stroke="#dc6" stroke-miterlimit="10" stroke-width="1"/>
            <path id="Trazado_974" data-name="Trazado 974" d="M639.624,305.919a394.553,394.553,0,0,1,53.684,38.853" transform="translate(-639.624 -297.837)" fill="none" stroke="#dc6" stroke-miterlimit="10" stroke-width="1.654"/>
          </g>
        </g>
        <g id="Grupo_303" data-name="Grupo 303" transform="translate(634.896 121.982)">
          <g id="Grupo_299" data-name="Grupo 299" transform="translate(0)">
            <path id="Trazado_975" data-name="Trazado 975" d="M685.237,385.118c.288-15.738-.048-31.052-1.011-46.763,16.334-.1,32.173.476,48.459,1.739.233,16.706-.167,32.98-1.23,49.654C715.95,387.5,700.879,385.985,685.237,385.118Z" transform="translate(-684.226 -338.344)" fill="none" stroke="#dc6" stroke-miterlimit="10" stroke-width="2.551"/>
            <path id="Trazado_976" data-name="Trazado 976" d="M694.6,371.843q.3-12.016-.252-24.051,12.123.155,24.287,1.242.271,12.408-.324,24.793Q706.465,372.368,694.6,371.843Z" transform="translate(-681.896 -336.169)" fill="none" stroke="#dc6" stroke-miterlimit="10" stroke-width="1.654"/>
            <path id="Trazado_977" data-name="Trazado 977" d="M705.313,358.889v.245l-.24-.016v-.245c.1.007.145.01.24.016m4.518-4.287c-3.74-.284-5.6-.4-9.307-.567.064,3.761.07,5.635.032,9.37,3.671.214,5.516.349,9.221.678.074-3.779.085-5.676.054-9.481Z" transform="translate(-680.475 -334.732)" fill="none" stroke="#dc6" stroke-miterlimit="10" stroke-width="1"/>
            <path id="Trazado_978" data-name="Trazado 978" d="M684.226,338.353a383.515,383.515,0,0,1,46.247,50.083" transform="translate(-684.226 -338.342)" fill="none" stroke="#dc6" stroke-miterlimit="10" stroke-width="1.654"/>
          </g>
          <g id="Grupo_300" data-name="Grupo 300" transform="translate(39.447 51.404)">
            <path id="Trazado_979" data-name="Trazado 979" d="M716.292,427.55c3.242-15.839,5.788-31.377,7.782-47.42,16.318,3.523,31.935,7.636,47.883,12.574A456.389,456.389,0,0,1,761.217,443C746.3,437.082,731.694,432.047,716.292,427.55Z" transform="translate(-716.292 -380.13)" fill="none" stroke="#dc6" stroke-miterlimit="10" stroke-width="2.551"/>
            <path id="Trazado_980" data-name="Trazado 980" d="M727.42,416.254q2.567-12.1,4.291-24.382,12.04,2.869,23.906,6.729-2.1,12.649-5.05,25.12Q739.117,419.5,727.42,416.254Z" transform="translate(-713.731 -377.427)" fill="none" stroke="#dc6" stroke-miterlimit="10" stroke-width="1.654"/>
            <path id="Trazado_981" data-name="Trazado 981" d="M740.026,405.57c-.018.1-.027.149-.047.247l-.235-.071c.018-.1.028-.148.047-.247l.235.071m5.3-3.319c-3.664-1.139-5.492-1.674-9.139-2.684-.648,3.82-1,5.719-1.743,9.5,3.6,1.053,5.409,1.612,9.025,2.795.791-3.822,1.164-5.744,1.858-9.608Z" transform="translate(-712.113 -375.656)" fill="none" stroke="#dc6" stroke-miterlimit="10" stroke-width="1"/>
            <path id="Trazado_982" data-name="Trazado 982" d="M722.618,380.13a478.278,478.278,0,0,1,36.421,61.295" transform="translate(-714.836 -380.13)" fill="none" stroke="#dc6" stroke-miterlimit="10" stroke-width="1.654"/>
          </g>
          <g id="Grupo_301" data-name="Grupo 301" transform="translate(67.562 114.274)">
            <path id="Trazado_983" data-name="Trazado 983" d="M739.147,478.277a446.6,446.6,0,0,0,16.809-47.041,370,370,0,0,1,45,24.408,499.5,499.5,0,0,1-20.481,49.9A337.493,337.493,0,0,0,739.147,478.277Z" transform="translate(-739.147 -431.236)" fill="none" stroke="#dc6" stroke-miterlimit="10" stroke-width="2.551"/>
            <path id="Trazado_984" data-name="Trazado 984" d="M751.484,469.463q4.873-11.937,8.952-24.188,11.413,5.866,22.355,12.722c-3.107,8.4-6.4,16.684-9.9,24.921Q762.464,475.715,751.484,469.463Z" transform="translate(-736.307 -428.005)" fill="none" stroke="#dc6" stroke-miterlimit="10" stroke-width="1.654"/>
            <path id="Trazado_985" data-name="Trazado 985" d="M765.474,461.569c-.038.1-.057.148-.095.246-.087-.054-.132-.079-.219-.132l.095-.246.219.132m5.889-2.156c-3.4-2.07-5.106-3.069-8.518-5-1.383,3.8-2.1,5.683-3.565,9.423,3.357,1.969,5.034,2.991,8.378,5.105,1.525-3.783,2.267-5.69,3.705-9.531Z" transform="translate(-734.513 -425.901)" fill="none" stroke="#dc6" stroke-miterlimit="10" stroke-width="1"/>
            <path id="Trazado_986" data-name="Trazado 986" d="M752.811,431.236a503.389,503.389,0,0,1,24.112,72.471" transform="translate(-736.002 -431.236)" fill="none" stroke="#dc6" stroke-miterlimit="10" stroke-width="1.654"/>
          </g>
          <g id="Grupo_302" data-name="Grupo 302" transform="translate(83.109 188.58)">
            <path id="Trazado_987" data-name="Trazado 987" d="M751.785,537.271a489.8,489.8,0,0,0,25.777-45.632,371.372,371.372,0,0,1,39.48,37.228c-9.456,16.575-19.434,32.648-30.1,48.471A351.468,351.468,0,0,0,751.785,537.271Z" transform="translate(-751.785 -491.639)" fill="none" stroke="#dc6" stroke-miterlimit="10" stroke-width="2.551"/>
            <path id="Trazado_988" data-name="Trazado 988" d="M764.8,531.439q7.064-11.592,13.579-23.472c6.708,6.205,13.162,12.582,19.477,19.214q-7.091,12.278-14.688,24.2C777.244,544.523,771.224,537.812,764.8,531.439Z" transform="translate(-748.789 -487.881)" fill="none" stroke="#dc6" stroke-miterlimit="10" stroke-width="1.654"/>
            <path id="Trazado_989" data-name="Trazado 989" d="M779.57,526.852l-.141.239c-.075-.079-.113-.118-.189-.2l.141-.239c.076.079.114.117.189.2m6.219-.8c-2.934-3.08-4.411-4.58-7.388-7.5-2.11,3.694-3.185,5.523-5.37,9.145,2.911,2.965,4.357,4.486,7.222,7.611,2.25-3.665,3.358-5.516,5.536-9.255Z" transform="translate(-746.895 -485.445)" fill="none" stroke="#dc6" stroke-miterlimit="10" stroke-width="1"/>
            <path id="Trazado_990" data-name="Trazado 990" d="M772.739,491.639a558.312,558.312,0,0,1,9.352,83.6" transform="translate(-746.962 -491.639)" fill="none" stroke="#dc6" stroke-miterlimit="10" stroke-width="1.654"/>
          </g>
        </g>
      </g>
      <g id="Grupo_325" data-name="Grupo 325" transform="translate(0 393.6)">
        <g id="Grupo_309" data-name="Grupo 309" transform="translate(638.263 2.46)">
          <g id="Grupo_305" data-name="Grupo 305" transform="translate(81.534)">
            <path id="Trazado_991" data-name="Trazado 991" d="M751.68,600.958a343.939,343.939,0,0,0,35.006-39.818c10.736,15.9,20.794,32.039,30.339,48.674a364.061,364.061,0,0,1-39.314,36.943A505.649,505.649,0,0,0,751.68,600.958Z" transform="translate(-751.68 -561.14)" fill="none" stroke="#dc6" stroke-miterlimit="10" stroke-width="2.551"/>
            <path id="Trazado_992" data-name="Trazado 992" d="M764.716,598.991c6.4-6.328,12.394-13,18.289-19.812q7.673,12,14.811,24.3c-6.286,6.586-12.713,12.916-19.4,19.073Q771.816,610.6,764.716,598.991Z" transform="translate(-748.679 -556.988)" fill="none" stroke="#dc6" stroke-miterlimit="10" stroke-width="1.654"/>
            <path id="Trazado_993" data-name="Trazado 993" d="M779.5,598.707l-.188.194-.143-.24.189-.194.141.24m6.227.843c-2.2-3.752-3.314-5.61-5.583-9.29-2.854,3.105-4.293,4.616-7.193,7.559,2.2,3.636,3.287,5.472,5.419,9.181,2.964-2.9,4.436-4.389,7.356-7.45Z" transform="translate(-746.783 -554.438)" fill="none" stroke="#dc6" stroke-miterlimit="10" stroke-width="1"/>
            <path id="Trazado_994" data-name="Trazado 994" d="M781.743,561.14a561.588,561.588,0,0,1-8.59,83.779" transform="translate(-746.737 -561.14)" fill="none" stroke="#dc6" stroke-miterlimit="10" stroke-width="1.654"/>
          </g>
          <g id="Grupo_306" data-name="Grupo 306" transform="translate(66.299 85.618)">
            <path id="Trazado_995" data-name="Trazado 995" d="M739.3,657.727a332.053,332.053,0,0,0,41.265-26.989,517.285,517.285,0,0,1,20.865,50,364.352,364.352,0,0,1-44.91,24.121A464.422,464.422,0,0,0,739.3,657.727Z" transform="translate(-739.296 -630.738)" fill="none" stroke="#dc6" stroke-miterlimit="10" stroke-width="2.551"/>
            <path id="Trazado_996" data-name="Trazado 996" d="M751.7,659.784q10.961-6.169,21.378-13.314c3.56,8.258,6.916,16.561,10.095,24.974q-10.9,6.772-22.314,12.577Q756.668,671.758,751.7,659.784Z" transform="translate(-736.441 -627.117)" fill="none" stroke="#dc6" stroke-miterlimit="10" stroke-width="1.654"/>
            <path id="Trazado_997" data-name="Trazado 997" d="M765.765,663.457l-.219.129c-.038-.1-.058-.149-.1-.246l.219-.13c.038.1.058.148.1.247m5.92,2.191c-1.47-3.849-2.227-5.76-3.783-9.551-3.337,2.093-5.01,3.1-8.364,5.051,1.5,3.748,2.229,5.637,3.644,9.442,3.408-1.9,5.109-2.893,8.5-4.942Z" transform="translate(-734.637 -624.901)" fill="none" stroke="#dc6" stroke-miterlimit="10" stroke-width="1"/>
            <path id="Trazado_998" data-name="Trazado 998" d="M777.207,630.738a503.805,503.805,0,0,1-23.341,72.55" transform="translate(-735.942 -630.738)" fill="none" stroke="#dc6" stroke-miterlimit="10" stroke-width="1.654"/>
          </g>
          <g id="Grupo_307" data-name="Grupo 307" transform="translate(38.508 159.743)">
            <path id="Trazado_999" data-name="Trazado 999" d="M716.705,706.187c15.43-4.406,30.063-9.355,45.011-15.193a476.7,476.7,0,0,1,11.343,50.329c-15.989,4.867-31.639,8.9-47.993,12.337C722.856,737.605,720.116,722.03,716.705,706.187Z" transform="translate(-716.705 -690.994)" fill="none" stroke="#dc6" stroke-miterlimit="10" stroke-width="2.551"/>
            <path id="Trazado_1000" data-name="Trazado 1000" d="M727.966,711.765q11.721-3.176,23.194-7.339,3.091,12.474,5.355,25.14-11.865,3.79-23.959,6.606Q730.67,723.894,727.966,711.765Z" transform="translate(-714.113 -687.902)" fill="none" stroke="#dc6" stroke-miterlimit="10" stroke-width="1.654"/>
            <path id="Trazado_1001" data-name="Trazado 1001" d="M740.728,718.872l-.236.07-.049-.247.236-.07.049.247m5.368,3.346c-.742-3.866-1.137-5.791-1.973-9.615-3.622,1.162-5.431,1.711-9.044,2.746.791,3.782,1.164,5.683,1.86,9.506,3.657-.99,5.489-1.517,9.157-2.636Z" transform="translate(-712.476 -686.02)" fill="none" stroke="#dc6" stroke-miterlimit="10" stroke-width="1"/>
            <path id="Trazado_1002" data-name="Trazado 1002" d="M759.971,690.994a473.522,473.522,0,0,1-35.684,61.355" transform="translate(-714.96 -690.994)" fill="none" stroke="#dc6" stroke-miterlimit="10" stroke-width="1.654"/>
          </g>
          <g id="Grupo_308" data-name="Grupo 308" transform="translate(0 222.41)">
            <path id="Trazado_1003" data-name="Trazado 1003" d="M685.723,746.356c15.749-.795,30.93-2.244,46.549-4.421,1.306,16.66,1.971,32.963,2.035,49.673-16.435,1.209-32.425,1.728-48.9,1.571C686.112,777.448,686.221,762.1,685.723,746.356Z" transform="translate(-685.402 -741.935)" fill="none" stroke="#dc6" stroke-miterlimit="10" stroke-width="2.551"/>
            <path id="Trazado_1004" data-name="Trazado 1004" d="M695.379,754.957q11.957-.472,23.892-1.883.78,12.385.72,24.809-12.243,1.039-24.5,1.15Q695.848,767,695.379,754.957Z" transform="translate(-683.106 -739.371)" fill="none" stroke="#dc6" stroke-miterlimit="10" stroke-width="1.654"/>
            <path id="Trazado_1005" data-name="Trazado 1005" d="M706.385,764.985l-.242.015c0-.1,0-.146,0-.244l.242-.015c0,.1,0,.146,0,.244m4.628,4.309c-.032-3.807-.073-5.706-.2-9.487-3.734.312-5.592.439-9.3.64.1,3.738.118,5.614.114,9.379,3.737-.156,5.615-.262,9.385-.531Z" transform="translate(-681.694 -737.821)" fill="none" stroke="#dc6" stroke-miterlimit="10" stroke-width="1"/>
            <path id="Trazado_1006" data-name="Trazado 1006" d="M732.052,741.935a376.9,376.9,0,0,1-45.695,50.195" transform="translate(-685.182 -741.935)" fill="none" stroke="#dc6" stroke-miterlimit="10" stroke-width="1.654"/>
          </g>
        </g>
        <g id="Grupo_314" data-name="Grupo 314" transform="translate(391.668 270.768)">
          <g id="Grupo_310" data-name="Grupo 310" transform="translate(191.76)">
            <path id="Trazado_1007" data-name="Trazado 1007" d="M649.479,779.245c15.467,2.447,30.567,4.19,46.183,5.346-1.7,16.226-3.96,31.989-6.868,48.042-16.235-2.127-31.95-4.81-47.967-8.205C644.315,809.355,647.156,794.541,649.479,779.245Z" transform="translate(-640.827 -779.245)" fill="none" stroke="#dc6" stroke-miterlimit="10" stroke-width="2.551"/>
            <path id="Trazado_1008" data-name="Trazado 1008" d="M656.507,789.95q11.745,1.967,23.634,3.066-1.449,12.05-3.719,23.981-12.12-1.471-24.092-3.8Q654.817,801.651,656.507,789.95Z" transform="translate(-638.179 -776.781)" fill="none" stroke="#dc6" stroke-miterlimit="10" stroke-width="1.654"/>
            <path id="Trazado_1009" data-name="Trazado 1009" d="M664.924,802.054l-.239-.034c.016-.094.023-.141.039-.236l.239.034c-.016.094-.023.141-.039.236m3.745,5.084c.647-3.673.945-5.508,1.491-9.169-3.7-.458-5.531-.714-9.177-1.271-.574,3.618-.886,5.431-1.56,9.059,3.673.6,5.522.877,9.246,1.38Z" transform="translate(-636.547 -775.228)" fill="none" stroke="#dc6" stroke-miterlimit="10" stroke-width="1"/>
            <path id="Trazado_1010" data-name="Trazado 1010" d="M695.412,783.591a388.58,388.58,0,0,1-53.5,39.048" transform="translate(-640.577 -778.245)" fill="none" stroke="#dc6" stroke-miterlimit="10" stroke-width="1.654"/>
          </g>
          <g id="Grupo_311" data-name="Grupo 311" transform="translate(131.069 31.058)">
            <path id="Trazado_1011" data-name="Trazado 1011" d="M607.991,804.492c14.67,5.338,29.147,9.961,44.192,14.125-4.552,15.445-9.556,30.354-15.232,45.422-15.488-5.138-30.4-10.714-45.459-17.007C597.574,832.947,602.99,819,607.991,804.492Z" transform="translate(-591.492 -804.492)" fill="none" stroke="#dc6" stroke-miterlimit="10" stroke-width="2.551"/>
            <path id="Trazado_1012" data-name="Trazado 1012" d="M612.232,816.427q11.143,4.154,22.56,7.515-3.563,11.461-7.89,22.651-11.577-3.735-22.885-8.257Q608.49,827.533,612.232,816.427Z" transform="translate(-588.609 -801.745)" fill="none" stroke="#dc6" stroke-miterlimit="10" stroke-width="1.654"/>
            <path id="Trazado_1013" data-name="Trazado 1013" d="M617.84,829.925l-.228-.079c.033-.09.049-.134.081-.224l.228.079c-.032.09-.048.134-.081.224M620.6,835.6c1.284-3.461,1.9-5.191,3.085-8.656-3.531-1.153-5.281-1.752-8.748-2.988-1.2,3.42-1.831,5.13-3.133,8.545,3.485,1.281,5.244,1.9,8.8,3.1Z" transform="translate(-586.817 -800.013)" fill="none" stroke="#dc6" stroke-miterlimit="10" stroke-width="1"/>
            <path id="Trazado_1014" data-name="Trazado 1014" d="M651.912,815.974a411.732,411.732,0,0,1-59.244,27.889" transform="translate(-591.221 -801.849)" fill="none" stroke="#dc6" stroke-miterlimit="10" stroke-width="1.654"/>
          </g>
          <g id="Grupo_312" data-name="Grupo 312" transform="translate(66.512 51.682)">
            <path id="Trazado_1015" data-name="Trazado 1015" d="M562.761,821.257c13.431,7.89,26.815,15.073,40.81,21.916-7.2,14.312-14.741,28.037-22.954,41.792-14.277-7.829-27.938-15.98-41.6-24.836C547.475,847.366,555.272,834.612,562.761,821.257Z" transform="translate(-539.014 -821.257)" fill="none" stroke="#dc6" stroke-miterlimit="10" stroke-width="2.551"/>
            <path id="Trazado_1016" data-name="Trazado 1016" d="M564.114,834.018q10.2,6.091,20.787,11.466-5.53,10.607-11.742,20.807-10.686-5.752-20.992-12.217Q558.466,844.262,564.114,834.018Z" transform="translate(-535.986 -818.32)" fill="none" stroke="#dc6" stroke-miterlimit="10" stroke-width="1.654"/>
            <path id="Trazado_1017" data-name="Trazado 1017" d="M566.778,848.456l-.209-.118.118-.2.209.118c-.047.082-.07.123-.118.2m1.7,6.068c1.872-3.168,2.784-4.756,4.558-7.942-3.257-1.771-4.868-2.674-8.049-4.515-1.786,3.142-2.7,4.709-4.587,7.831,3.192,1.882,4.809,2.808,8.079,4.625Z" transform="translate(-534.091 -816.467)" fill="none" stroke="#dc6" stroke-miterlimit="10" stroke-width="1"/>
            <path id="Trazado_1018" data-name="Trazado 1018" d="M603.288,839.072a562.036,562.036,0,0,1-63.043,16.695" transform="translate(-538.731 -817.156)" fill="none" stroke="#dc6" stroke-miterlimit="10" stroke-width="1.654"/>
          </g>
          <g id="Grupo_313" data-name="Grupo 313" transform="translate(0 61.841)">
            <path id="Trazado_1019" data-name="Trazado 1019" d="M515.227,829.515c11.808,10.1,23.7,19.522,36.232,28.712-9.605,12.821-19.448,25.016-29.942,37.119-12.665-10.19-24.677-20.589-36.569-31.672C495.539,852.576,505.482,841.365,515.227,829.515Z" transform="translate(-484.947 -829.515)" fill="none" stroke="#dc6" stroke-miterlimit="10" stroke-width="2.551"/>
            <path id="Trazado_1020" data-name="Trazado 1020" d="M513.663,842.694q8.961,7.774,18.411,14.915-7.318,9.477-15.226,18.436-9.492-7.523-18.5-15.675Q506.283,851.8,513.663,842.694Z" transform="translate(-481.862 -826.482)" fill="none" stroke="#dc6" stroke-miterlimit="10" stroke-width="1.654"/>
            <path id="Trazado_1021" data-name="Trazado 1021" d="M513.318,857.612l-.185-.154.154-.181.185.154-.154.181m.6,6.269c2.4-2.791,3.579-4.2,5.888-7.024-2.89-2.313-4.314-3.483-7.118-5.846-2.314,2.781-3.495,4.164-5.9,6.911,2.809,2.409,4.235,3.6,7.131,5.959Z" transform="translate(-479.92 -824.567)" fill="none" stroke="#dc6" stroke-miterlimit="10" stroke-width="1"/>
            <path id="Trazado_1022" data-name="Trazado 1022" d="M551.171,852.855a574.736,574.736,0,0,1-64.975,5.452" transform="translate(-484.66 -824.143)" fill="none" stroke="#dc6" stroke-miterlimit="10" stroke-width="1.654"/>
          </g>
        </g>
        <g id="Grupo_319" data-name="Grupo 319" transform="translate(144.569 268.403)">
          <g id="Grupo_315" data-name="Grupo 315" transform="translate(180.516 63.873)">
            <path id="Trazado_1023" data-name="Trazado 1023" d="M466.794,829.245c9.846,11.974,19.894,23.288,30.612,34.492-11.74,10.969-23.6,21.278-36.093,31.382-10.7-12.214-20.711-24.52-30.49-37.481C443.258,848.548,455.066,839.232,466.794,829.245Z" transform="translate(-430.822 -829.245)" fill="none" stroke="#dc6" stroke-miterlimit="10" stroke-width="2.551"/>
            <path id="Trazado_1024" data-name="Trazado 1024" d="M462.35,842.426q7.457,9.189,15.506,17.846-8.9,8.071-18.285,15.524-8.032-9.04-15.474-18.614Q453.452,850.118,462.35,842.426Z" transform="translate(-427.766 -826.211)" fill="none" stroke="#dc6" stroke-miterlimit="10" stroke-width="1.654"/>
            <path id="Trazado_1025" data-name="Trazado 1025" d="M459,857.35c-.063-.073-.094-.109-.155-.182l.183-.151c.062.073.092.109.155.182l-.183.151m-.52,6.275c2.865-2.335,4.276-3.516,7.055-5.9-2.441-2.773-3.636-4.17-5.982-6.978-2.778,2.339-4.187,3.5-7.05,5.786,2.344,2.854,3.538,4.274,5.977,7.093Z" transform="translate(-425.832 -824.296)" fill="none" stroke="#dc6" stroke-miterlimit="10" stroke-width="1"/>
            <path id="Trazado_1026" data-name="Trazado 1026" d="M497.121,858.374a576.048,576.048,0,0,1-65.065-5.829" transform="translate(-430.538 -823.882)" fill="none" stroke="#dc6" stroke-miterlimit="10" stroke-width="1.654"/>
          </g>
          <g id="Grupo_316" data-name="Grupo 316" transform="translate(115.784 53.04)">
            <path id="Trazado_1027" data-name="Trazado 1027" d="M418.861,820.439c7.585,13.49,15.484,26.352,24.073,39.225-13.555,8.756-27.111,16.823-41.267,24.572-8.406-13.891-16.113-27.747-23.464-42.223C392.139,835.281,405.475,828.209,418.861,820.439Z" transform="translate(-378.202 -820.439)" fill="none" stroke="#dc6" stroke-miterlimit="10" stroke-width="2.551"/>
            <path id="Trazado_1028" data-name="Trazado 1028" d="M411.647,833.2q5.72,10.332,12.134,20.245-10.228,6.386-20.847,12.072-6.337-10.3-11.978-21.014Q401.484,839.207,411.647,833.2Z" transform="translate(-375.266 -817.502)" fill="none" stroke="#dc6" stroke-miterlimit="10" stroke-width="1.654"/>
            <path id="Trazado_1029" data-name="Trazado 1029" d="M405.364,847.652c-.048-.083-.071-.124-.121-.207l.208-.117c.049.082.073.124.121.207l-.208.117m-1.635,6.076c3.249-1.792,4.856-2.708,8.028-4.566-1.917-3.153-2.85-4.735-4.666-7.905-3.164,1.813-4.766,2.705-8.006,4.453,1.807,3.216,2.736,4.82,4.644,8.018Z" transform="translate(-373.395 -815.647)" fill="none" stroke="#dc6" stroke-miterlimit="10" stroke-width="1"/>
            <path id="Trazado_1030" data-name="Trazado 1030" d="M442.662,855.528a566.162,566.162,0,0,1-63.279-17.117" transform="translate(-377.93 -816.302)" fill="none" stroke="#dc6" stroke-miterlimit="10" stroke-width="1.654"/>
          </g>
          <g id="Grupo_317" data-name="Grupo 317" transform="translate(54.905 31.727)">
            <path id="Trazado_1031" data-name="Trazado 1031" d="M372.858,803.114c5.061,14.637,10.551,28.688,16.735,42.886-15,6.184-29.864,11.66-45.29,16.7-5.824-15.212-10.942-30.249-15.589-45.862C343.737,812.807,358.2,808.315,372.858,803.114Z" transform="translate(-328.714 -803.114)" fill="none" stroke="#dc6" stroke-miterlimit="10" stroke-width="2.551"/>
            <path id="Trazado_1032" data-name="Trazado 1032" d="M363.063,815.032q3.785,11.186,8.35,22.1-11.264,4.432-22.817,8.086-4.421-11.295-8.056-22.86Q351.929,819.087,363.063,815.032Z" transform="translate(-325.992 -800.371)" fill="none" stroke="#dc6" stroke-miterlimit="10" stroke-width="1.654"/>
            <path id="Trazado_1033" data-name="Trazado 1033" d="M354,828.529c-.032-.09-.049-.134-.081-.224l.226-.077c.033.09.049.135.082.225l-.228.076m-2.717,5.676c3.542-1.171,5.3-1.778,8.774-3.03-1.329-3.446-1.966-5.171-3.19-8.619-3.459,1.207-5.206,1.791-8.729,2.916,1.206,3.494,1.834,5.24,3.146,8.733Z" transform="translate(-324.244 -798.639)" fill="none" stroke="#dc6" stroke-miterlimit="10" stroke-width="1"/>
            <path id="Trazado_1034" data-name="Trazado 1034" d="M389.342,843.283A416.754,416.754,0,0,1,329.8,814.92" transform="translate(-328.463 -800.397)" fill="none" stroke="#dc6" stroke-miterlimit="10" stroke-width="1.654"/>
          </g>
          <g id="Grupo_318" data-name="Grupo 318">
            <path id="Trazado_1035" data-name="Trazado 1035" d="M330.273,777.323c2.319,15.4,5.179,30.283,8.715,45.451-16.009,3.261-31.713,5.814-47.929,7.809-2.976-16.172-5.269-32.024-6.976-48.379C299.693,781.2,314.8,779.611,330.273,777.323Z" transform="translate(-284.082 -777.323)" fill="none" stroke="#dc6" stroke-miterlimit="10" stroke-width="2.551"/>
            <path id="Trazado_1036" data-name="Trazado 1036" d="M318.179,787.977q1.687,11.754,4.215,23.392-11.957,2.224-24.082,3.588-2.308-12.016-3.768-24.143Q306.424,789.827,318.179,787.977Z" transform="translate(-281.674 -774.871)" fill="none" stroke="#dc6" stroke-miterlimit="10" stroke-width="1.654"/>
            <path id="Trazado_1037" data-name="Trazado 1037" d="M306.579,800.042c-.016-.095-.023-.143-.039-.237l.239-.033c.016.1.023.144.039.239l-.239.032m-3.734,5.073c3.723-.469,5.571-.728,9.244-1.3-.683-3.654-1-5.478-1.576-9.117-3.646.522-5.482.759-9.177,1.183.551,3.683.853,5.53,1.509,9.229Z" transform="translate(-280.111 -773.323)" fill="none" stroke="#dc6" stroke-miterlimit="10" stroke-width="1"/>
            <path id="Trazado_1038" data-name="Trazado 1038" d="M338.767,821.663a393.347,393.347,0,0,1-53.727-39.51" transform="translate(-283.861 -776.211)" fill="none" stroke="#dc6" stroke-miterlimit="10" stroke-width="1.654"/>
          </g>
        </g>
        <g id="Grupo_324" data-name="Grupo 324">
          <g id="Grupo_320" data-name="Grupo 320" transform="translate(95.665 221.457)">
            <path id="Trazado_1039" data-name="Trazado 1039" d="M293.08,744.064c-.583,15.782-.528,31.146.153,46.924-16.484,0-32.477-.68-48.9-2.047.1-16.764.825-33.076,2.23-49.78C262.158,741.5,277.335,743.1,293.08,744.064Z" transform="translate(-244.328 -739.161)" fill="none" stroke="#dc6" stroke-miterlimit="10" stroke-width="2.551"/>
            <path id="Trazado_1040" data-name="Trazado 1040" d="M278.812,752.526q-.531,12.04-.2,24.129-12.245-.233-24.5-1.4-.03-12.457.813-24.862Q266.847,751.927,278.812,752.526Z" transform="translate(-242.075 -736.575)" fill="none" stroke="#dc6" stroke-miterlimit="10" stroke-width="1.654"/>
            <path id="Trazado_1041" data-name="Trazado 1041" d="M264.925,762.432c0-.1,0-.146,0-.245l.242.017c0,.1,0,.148,0,.245l-.242-.017m-4.643,4.275c3.769.307,5.646.432,9.384.626.007-3.774.038-5.655.148-9.4-3.7-.237-5.559-.384-9.292-.736-.148,3.789-.2,5.691-.24,9.509Z" transform="translate(-240.656 -735.009)" fill="none" stroke="#dc6" stroke-miterlimit="10" stroke-width="1"/>
            <path id="Trazado_1042" data-name="Trazado 1042" d="M292.635,790.742a378.437,378.437,0,0,1-45.711-50.511" transform="translate(-243.73 -738.915)" fill="none" stroke="#dc6" stroke-miterlimit="10" stroke-width="1.654"/>
          </g>
          <g id="Grupo_321" data-name="Grupo 321" transform="translate(49.988 158.546)">
            <path id="Trazado_1043" data-name="Trazado 1043" d="M263.873,703.606c-3.572,15.794-6.442,31.3-8.769,47.326-16.328-3.6-31.955-7.787-47.907-12.8a455.442,455.442,0,0,1,11.832-50.108C233.914,693.981,248.5,699.059,263.873,703.606Z" transform="translate(-207.198 -688.021)" fill="none" stroke="#dc6" stroke-miterlimit="10" stroke-width="2.551"/>
            <path id="Trazado_1044" data-name="Trazado 1044" d="M247.308,709.017q-2.823,12.062-4.805,24.322-12.061-2.927-23.906-6.835,2.371-12.62,5.592-25.036Q235.606,705.724,247.308,709.017Z" transform="translate(-204.574 -684.926)" fill="none" stroke="#dc6" stroke-miterlimit="10" stroke-width="1.654"/>
            <path id="Trazado_1045" data-name="Trazado 1045" d="M231.172,715.956c.021-.1.031-.148.052-.247l.235.073c-.021.1-.031.148-.052.247l-.235-.073m-5.4,3.288c3.659,1.153,5.487,1.7,9.135,2.722.729-3.81,1.119-5.706,1.946-9.472-3.6-1.068-5.408-1.633-9.018-2.829-.873,3.81-1.287,5.725-2.063,9.579Z" transform="translate(-202.922 -683.039)" fill="none" stroke="#dc6" stroke-miterlimit="10" stroke-width="1"/>
            <path id="Trazado_1046" data-name="Trazado 1046" d="M252.761,750.638A468.377,468.377,0,0,1,217.379,689.3" transform="translate(-204.855 -687.727)" fill="none" stroke="#dc6" stroke-miterlimit="10" stroke-width="1.654"/>
          </g>
          <g id="Grupo_322" data-name="Grupo 322" transform="translate(17.204 84.706)">
            <path id="Trazado_1047" data-name="Trazado 1047" d="M242.986,655.138a449.094,449.094,0,0,0-17.822,46.7,366.01,366.01,0,0,1-44.616-24.414A501.286,501.286,0,0,1,202.106,628,332.576,332.576,0,0,0,242.986,655.138Z" transform="translate(-180.548 -627.997)" fill="none" stroke="#dc6" stroke-miterlimit="10" stroke-width="2.551"/>
            <path id="Trazado_1048" data-name="Trazado 1048" d="M224.754,657.036q-5.13,11.834-9.476,24-11.33-5.87-22.153-12.709c3.289-8.33,6.759-16.541,10.434-24.7Q213.865,650.795,224.754,657.036Z" transform="translate(-177.653 -624.4)" fill="none" stroke="#dc6" stroke-miterlimit="10" stroke-width="1.654"/>
            <path id="Trazado_1049" data-name="Trazado 1049" d="M206.983,660.531c.041-.1.06-.146.1-.244l.218.13-.1.244-.218-.13m-5.948,2.122c3.367,2.067,5.055,3.063,8.438,4.988,1.465-3.767,2.219-5.637,3.769-9.346-3.328-1.966-4.987-2.983-8.3-5.092-1.608,3.75-2.391,5.639-3.912,9.449Z" transform="translate(-175.832 -622.195)" fill="none" stroke="#dc6" stroke-miterlimit="10" stroke-width="1"/>
            <path id="Trazado_1050" data-name="Trazado 1050" d="M221.062,701.5a491.182,491.182,0,0,1-22.692-72.021" transform="translate(-176.446 -627.656)" fill="none" stroke="#dc6" stroke-miterlimit="10" stroke-width="1.654"/>
          </g>
          <g id="Grupo_323" data-name="Grupo 323">
            <path id="Trazado_1051" data-name="Trazado 1051" d="M232.043,598.734a498.634,498.634,0,0,0-26.718,45.112,362.514,362.514,0,0,1-38.762-36.877c9.8-16.364,20.1-32.224,31.068-47.829A341.282,341.282,0,0,0,232.043,598.734Z" transform="translate(-166.563 -559.14)" fill="none" stroke="#dc6" stroke-miterlimit="10" stroke-width="2.551"/>
            <path id="Trazado_1052" data-name="Trazado 1052" d="M212.933,596.668q-7.294,11.45-14.06,23.191c-6.591-6.15-12.922-12.46-19.108-19.02q7.344-12.123,15.178-23.89C200.735,583.724,206.63,590.36,212.933,596.668Z" transform="translate(-163.524 -555.041)" fill="none" stroke="#dc6" stroke-miterlimit="10" stroke-width="1.654"/>
            <path id="Trazado_1053" data-name="Trazado 1053" d="M194.3,596.254c.058-.093.087-.14.145-.235l.186.193-.145.236c-.075-.077-.112-.116-.186-.194m-6.239.785c2.874,3.047,4.323,4.531,7.245,7.423,2.186-3.649,3.3-5.456,5.557-9.033-2.855-2.933-4.272-4.439-7.078-7.527-2.324,3.618-3.469,5.446-5.723,9.138Z" transform="translate(-161.614 -552.52)" fill="none" stroke="#dc6" stroke-miterlimit="10" stroke-width="1"/>
            <path id="Trazado_1054" data-name="Trazado 1054" d="M199.514,643.459a568.1,568.1,0,0,1-7.706-82.636" transform="translate(-160.752 -558.753)" fill="none" stroke="#dc6" stroke-miterlimit="10" stroke-width="1.654"/>
          </g>
        </g>
      </g>
    </g>
    <circle id="Elipse_5" data-name="Elipse 5" cx="399.656" cy="399.656" r="399.656" transform="translate(161.385 236.184)" fill="none" stroke="#dc6" stroke-miterlimit="10" stroke-width="4"/>
    <circle id="Elipse_6" data-name="Elipse 6" cx="329.2" cy="329.2" r="329.2" transform="translate(231.842 306.64)" fill="none" stroke="#dc6" stroke-miterlimit="10" stroke-width="3.295"/>
  </g>
</svg>
