<svg xmlns="http://www.w3.org/2000/svg" width="388.675" height="85.566" viewBox="0 0 388.675 85.566">
  <g id="Grupo_2007" data-name="Grupo 2007" transform="translate(-496.13 -3742.544)">
    <g id="Grupo_523" data-name="Grupo 523" transform="translate(684.208 3825.11) rotate(180)">
      <line id="Línea_6" data-name="Línea 6" x2="185.013" fill="none" stroke="#4f722d" stroke-miterlimit="10" stroke-width="6"/>
      <line id="Línea_7" data-name="Línea 7" x2="185.013" transform="translate(0 79.567)" fill="none" stroke="#4f722d" stroke-miterlimit="10" stroke-width="6"/>
      <path id="Trazado_163" data-name="Trazado 163" d="M62.552,46.007H21.183L0,24.824,24.209.615H64.8l43.709,43.709h49.553l19.689-19.689L152.116,0H112.4" transform="translate(6.046 16.709)" fill="none" stroke="#4f722d" stroke-miterlimit="10" stroke-width="6"/>
      <line id="Línea_8" data-name="Línea 8" x2="32.935" transform="translate(35.663 40.323)" fill="none" stroke="#4f722d" stroke-miterlimit="10" stroke-width="6"/>
      <line id="Línea_9" data-name="Línea 9" x2="38.509" transform="translate(119.145 38.331)" fill="none" stroke="#4f722d" stroke-miterlimit="10" stroke-width="6"/>
    </g>
    <g id="Grupo_2006" data-name="Grupo 2006" transform="translate(884.805 3825.11) rotate(180)">
      <line id="Línea_6-2" data-name="Línea 6" x2="185.013" fill="none" stroke="#4f722d" stroke-miterlimit="10" stroke-width="6"/>
      <line id="Línea_7-2" data-name="Línea 7" x2="185.013" transform="translate(0 79.567)" fill="none" stroke="#4f722d" stroke-miterlimit="10" stroke-width="6"/>
      <path id="Trazado_163-2" data-name="Trazado 163" d="M62.552,46.007H21.183L0,24.824,24.209.615H64.8l43.709,43.709h49.553l19.689-19.689L152.116,0H112.4" transform="translate(6.046 16.709)" fill="none" stroke="#4f722d" stroke-miterlimit="10" stroke-width="6"/>
      <line id="Línea_8-2" data-name="Línea 8" x2="32.935" transform="translate(35.663 40.323)" fill="none" stroke="#4f722d" stroke-miterlimit="10" stroke-width="6"/>
      <line id="Línea_9-2" data-name="Línea 9" x2="38.509" transform="translate(119.145 38.331)" fill="none" stroke="#4f722d" stroke-miterlimit="10" stroke-width="6"/>
    </g>
  </g>
</svg>
