<svg xmlns="http://www.w3.org/2000/svg" width="906.33" height="907.242" viewBox="0 0 906.33 907.242">
  <g id="Grupo_1805" data-name="Grupo 1805" transform="translate(-298.236 -368.422)">
    <g id="Grupo_261" data-name="Grupo 261" transform="translate(299.784 792.888)">
      <g id="Grupo_242" data-name="Grupo 242" transform="translate(809.818 68.531)">
        <g id="Grupo_241" data-name="Grupo 241" transform="translate(0 44.083)">
          <path id="Trazado_733" data-name="Trazado 733" d="M653.266,633.2q3.836-11.725,7.063-23.651c11.1-2.193,22.061-5,32.975-8.03a591.546,591.546,0,0,1-18.116,60.734Q664.535,647.456,653.266,633.2Z" transform="translate(-615.006 -581.644)" fill="none" stroke="#e5661d" stroke-miterlimit="10" stroke-width="3"/>
          <path id="Trazado_734" data-name="Trazado 734" d="M670.289,642.524q3.786-11.567,6.967-23.337Q665.33,605.9,652.83,593.234a516.459,516.459,0,0,1-15.511,52C648.336,644.8,659.339,643.841,670.289,642.524Z" transform="translate(-637.319 -593.234)" fill="none" stroke="#e5661d" stroke-miterlimit="10" stroke-width="3"/>
          <path id="Trazado_735" data-name="Trazado 735" d="M659.37,606.009l-5.417-1.963" transform="translate(-614.046 -578.106)" fill="none" stroke="#e5661d" stroke-miterlimit="10" stroke-width="3"/>
          <path id="Trazado_736" data-name="Trazado 736" d="M656.4,615.95c-2.128-.912-3.193-1.368-5.321-2.277" transform="translate(-618.064 -564.636)" fill="none" stroke="#e5661d" stroke-miterlimit="10" stroke-width="3"/>
          <path id="Trazado_737" data-name="Trazado 737" d="M682.922,620.961q-14.064-5.56-28.128-11.118" transform="translate(-612.869 -569.995)" fill="none" stroke="#e5661d" stroke-miterlimit="10" stroke-width="3"/>
          <path id="Trazado_738" data-name="Trazado 738" d="M668.942,615.435l-28.1-11.106" transform="translate(-632.39 -577.71)" fill="none" stroke="#e5661d" stroke-miterlimit="10" stroke-width="3"/>
        </g>
        <path id="Trazado_739" data-name="Trazado 739" d="M650.841,595.611c8.771-6.449,17.174-13.443,25.285-20.751q9.17,15.374,17.567,31.166c-8.51,7.01-17.291,13.7-26.418,19.83C662.141,615.582,656.618,605.51,650.841,595.611Z" transform="translate(-618.399 -574.86)" fill="none" stroke="#e5661d" stroke-miterlimit="10" stroke-width="3"/>
        <path id="Trazado_740" data-name="Trazado 740" d="M638.019,633c9.659-3.253,19.115-6.821,28.534-10.756,3.975,10.725,7.668,21.571,10.943,32.545-9.746,3.625-19.513,6.891-29.472,9.834C645.058,653.96,641.68,643.42,638.019,633Z" transform="translate(-636.339 -508.565)" fill="none" stroke="#e5661d" stroke-miterlimit="10" stroke-width="3"/>
      </g>
      <g id="Grupo_245" data-name="Grupo 245" transform="translate(694.625 182.206)">
        <g id="Grupo_243" data-name="Grupo 243" transform="translate(71.348 25.28)">
          <path id="Trazado_741" data-name="Trazado 741" d="M634.556,666.108c3.942-6.394,7.742-12.812,11.458-19.347,11.144,1.2,22.344,1.9,33.541,2.262a514.552,514.552,0,0,1-29.4,49.678Q642.7,682.208,634.556,666.108Z" transform="translate(-597.339 -613.21)" fill="none" stroke="#e5661d" stroke-miterlimit="10" stroke-width="3"/>
          <path id="Trazado_742" data-name="Trazado 742" d="M651.57,682.124c3.889-6.307,7.637-12.639,11.305-19.088q-9-15.363-18.659-30.259a449.185,449.185,0,0,1-25.173,42.531C629.8,678,640.663,680.222,651.57,682.124Z" transform="translate(-619.044 -632.777)" fill="none" stroke="#e5661d" stroke-miterlimit="10" stroke-width="3"/>
          <path id="Trazado_743" data-name="Trazado 743" d="M642.174,648.692l-4.873-3.311" transform="translate(-593.499 -615.141)" fill="none" stroke="#e5661d" stroke-miterlimit="10" stroke-width="3"/>
          <path id="Trazado_744" data-name="Trazado 744" d="M637.362,656.825l-4.722-3.57" transform="translate(-600.02 -604.124)" fill="none" stroke="#e5661d" stroke-miterlimit="10" stroke-width="3"/>
          <path id="Trazado_745" data-name="Trazado 745" d="M662.116,668.877l-25.127-18.035" transform="translate(-593.935 -607.5)" fill="none" stroke="#e5661d" stroke-miterlimit="10" stroke-width="3"/>
          <path id="Trazado_746" data-name="Trazado 746" d="M649.626,659.912l-25.1-18.013" transform="translate(-611.371 -620.013)" fill="none" stroke="#e5661d" stroke-miterlimit="10" stroke-width="3"/>
        </g>
        <g id="Grupo_244" data-name="Grupo 244" transform="translate(12.056 101.928)">
          <path id="Trazado_747" data-name="Trazado 747" d="M608.562,695.425c5.122-4.854,10.132-9.892,14.966-15.053,10.593,4.1,21.341,7.711,32.149,11.147a501.527,501.527,0,0,1-38.4,38.651Q613.293,712.68,608.562,695.425Z" transform="translate(-574.419 -642.829)" fill="none" stroke="#e5661d" stroke-miterlimit="10" stroke-width="3"/>
          <path id="Trazado_748" data-name="Trazado 748" d="M624.616,712.752c5.053-4.789,10-9.76,14.765-14.851q-5.722-16.745-12.166-33.176a442.512,442.512,0,0,1-32.884,33.09C604.257,703.145,614.381,708.087,624.616,712.752Z" transform="translate(-594.331 -664.724)" fill="none" stroke="#e5661d" stroke-miterlimit="10" stroke-width="3"/>
          <path id="Trazado_749" data-name="Trazado 749" d="M617.181,682.934l-4.083-4.393" transform="translate(-568.072 -645.391)" fill="none" stroke="#e5661d" stroke-miterlimit="10" stroke-width="3"/>
          <path id="Trazado_750" data-name="Trazado 750" d="M610.894,689.263c-1.555-1.838-2.332-2.757-3.884-4.594" transform="translate(-576.59 -636.818)" fill="none" stroke="#e5661d" stroke-miterlimit="10" stroke-width="3"/>
          <path id="Trazado_751" data-name="Trazado 751" d="M632.58,707.11q-10.433-11.775-20.863-23.551" transform="translate(-570.006 -638.37)" fill="none" stroke="#e5661d" stroke-miterlimit="10" stroke-width="3"/>
          <path id="Trazado_752" data-name="Trazado 752" d="M622.209,695.4l-20.84-23.524" transform="translate(-584.483 -654.713)" fill="none" stroke="#e5661d" stroke-miterlimit="10" stroke-width="3"/>
        </g>
        <path id="Trazado_753" data-name="Trazado 753" d="M617.806,662.214c9.981-.365,19.868-1.053,29.805-2.065,1.795,10.9,3.289,21.871,4.352,32.879-10.2.7-20.338,1.087-30.561,1.147C620.591,683.48,619.346,672.818,617.806,662.214Z" transform="translate(-549.429 -569.199)" fill="none" stroke="#e5661d" stroke-miterlimit="10" stroke-width="3"/>
        <path id="Trazado_754" data-name="Trazado 754" d="M638.019,633c9.659-3.253,19.115-6.821,28.534-10.756,3.975,10.725,7.668,21.571,10.943,32.545-9.746,3.625-19.513,6.891-29.472,9.834C645.058,653.96,641.68,643.42,638.019,633Z" transform="translate(-521.146 -622.24)" fill="none" stroke="#e5661d" stroke-miterlimit="10" stroke-width="3"/>
        <path id="Trazado_755" data-name="Trazado 755" d="M592.281,688.515c9.762,2.253,19.522,4.2,29.4,5.864-.456,10.751-1.219,21.5-2.411,32.19-10.067-1.977-20.014-4.227-29.959-6.782C590.566,709.371,591.557,698.985,592.281,688.515Z" transform="translate(-589.306 -529.507)" fill="none" stroke="#e5661d" stroke-miterlimit="10" stroke-width="3"/>
      </g>
      <g id="Grupo_248" data-name="Grupo 248" transform="translate(523.345 341.214)">
        <g id="Grupo_246" data-name="Grupo 246" transform="translate(111.978 1.735)">
          <path id="Trazado_756" data-name="Trazado 756" d="M576.826,716.618c5.952-3.407,11.843-7,17.6-10.749q14.338,9.7,29.081,18.671a512.245,512.245,0,0,1-45.177,27.6C578.091,740.274,577.592,728.455,576.826,716.618Z" transform="translate(-547.467 -665.968)" fill="none" stroke="#e5661d" stroke-miterlimit="10" stroke-width="3"/>
          <path id="Trazado_757" data-name="Trazado 757" d="M591.105,734.559c5.873-3.361,11.684-6.907,17.368-10.6-1.478-11.619-3.155-23.188-5.2-34.719a451.941,451.941,0,0,1-38.68,23.628C573.2,720.39,582.072,727.592,591.105,734.559Z" transform="translate(-564.589 -689.238)" fill="none" stroke="#e5661d" stroke-miterlimit="10" stroke-width="3"/>
          <path id="Trazado_758" data-name="Trazado 758" d="M585.97,708.91c-1.238-2.085-1.86-3.129-3.1-5.214" transform="translate(-539.007 -669.008)" fill="none" stroke="#e5661d" stroke-miterlimit="10" stroke-width="3"/>
          <path id="Trazado_759" data-name="Trazado 759" d="M578.573,713.429l-2.862-5.358" transform="translate(-549.027 -662.887)" fill="none" stroke="#e5661d" stroke-miterlimit="10" stroke-width="3"/>
          <path id="Trazado_760" data-name="Trazado 760" d="M596.124,735.859q-7.8-13.848-15.6-27.7" transform="translate(-542.3 -662.765)" fill="none" stroke="#e5661d" stroke-miterlimit="10" stroke-width="3"/>
          <path id="Trazado_761" data-name="Trazado 761" d="M588.367,722.091q-7.8-13.834-15.585-27.67" transform="translate(-553.125 -681.986)" fill="none" stroke="#e5661d" stroke-miterlimit="10" stroke-width="3"/>
        </g>
        <g id="Grupo_247" data-name="Grupo 247" transform="translate(32.589 42.42)">
          <path id="Trazado_762" data-name="Trazado 762" d="M544.5,729.575c6.495-1.975,12.968-4.131,19.354-6.452q12.049,12.7,24.628,24.8c-16.353,6.353-32.821,11.838-49.681,16.567Q542.043,747.082,544.5,729.575Z" transform="translate(-521.278 -682.512)" fill="none" stroke="#e5661d" stroke-miterlimit="10" stroke-width="3"/>
          <path id="Trazado_763" data-name="Trazado 763" d="M553.02,747.436c6.408-1.948,12.8-4.076,19.1-6.365.993-11.6,1.593-23.236,1.915-34.875-14,5.417-28.107,10.115-42.533,14.184C538.394,729.629,545.607,738.629,553.02,747.436Z" transform="translate(-531.499 -706.196)" fill="none" stroke="#e5661d" stroke-miterlimit="10" stroke-width="3"/>
          <path id="Trazado_764" data-name="Trazado 764" d="M550.4,726.49c-.789-2.31-1.183-3.464-1.972-5.772" transform="translate(-507.817 -685.878)" fill="none" stroke="#e5661d" stroke-miterlimit="10" stroke-width="3"/>
          <path id="Trazado_765" data-name="Trazado 765" d="M542.264,729.2c-.686-2.344-1.029-3.515-1.715-5.857" transform="translate(-518.836 -682.201)" fill="none" stroke="#e5661d" stroke-miterlimit="10" stroke-width="3"/>
          <path id="Trazado_766" data-name="Trazado 766" d="M554.879,754.979q-4.826-15.234-9.652-30.463" transform="translate(-512.291 -680.562)" fill="none" stroke="#e5661d" stroke-miterlimit="10" stroke-width="3"/>
          <path id="Trazado_767" data-name="Trazado 767" d="M550.082,739.837q-4.823-15.212-9.64-30.427" transform="translate(-518.986 -701.699)" fill="none" stroke="#e5661d" stroke-miterlimit="10" stroke-width="3"/>
        </g>
        <path id="Trazado_768" data-name="Trazado 768" d="M564.756,707.571c9.081,4.448,18.225,8.611,27.526,12.545-2.656,10.271-5.559,20.41-8.731,30.52-9.431-4.242-18.7-8.714-27.905-13.464C558.94,727.369,561.968,717.537,564.756,707.571Z" transform="translate(-465.124 -661.852)" fill="none" stroke="#e5661d" stroke-miterlimit="10" stroke-width="3"/>
        <path id="Trazado_769" data-name="Trazado 769" d="M592.281,688.515c9.762,2.253,19.522,4.2,29.4,5.864-.456,10.751-1.219,21.5-2.411,32.19-10.067-1.977-20.014-4.227-29.959-6.782C590.566,709.371,591.557,698.985,592.281,688.515Z" transform="translate(-418.026 -688.515)" fill="none" stroke="#e5661d" stroke-miterlimit="10" stroke-width="3"/>
        <path id="Trazado_770" data-name="Trazado 770" d="M532.892,719.369c7.958,6.368,16.034,12.481,24.3,18.407-4.7,9.4-9.618,18.627-14.789,27.766-8.337-6.235-16.475-12.656-24.489-19.326C523.144,737.387,528.122,728.469,532.892,719.369Z" transform="translate(-517.916 -645.344)" fill="none" stroke="#e5661d" stroke-miterlimit="10" stroke-width="3"/>
      </g>
      <g id="Grupo_251" data-name="Grupo 251" transform="translate(339.63 406.393)">
        <g id="Grupo_249" data-name="Grupo 249" transform="translate(132.156)">
          <path id="Trazado_771" data-name="Trazado 771" d="M510.492,734.367c6.751-.542,13.517-1.259,20.235-2.147q9.206,15.014,19.047,29.554c-17.277,2.658-34.5,4.484-51.936,5.513Q504.533,750.963,510.492,734.367Z" transform="translate(-494.449 -692.542)" fill="none" stroke="#e5661d" stroke-miterlimit="10" stroke-width="3"/>
          <path id="Trazado_772" data-name="Trazado 772" d="M511.987,751.45c6.66-.533,13.335-1.243,19.964-2.119,3.32-11.113,6.267-22.351,8.942-33.649-14.791,2.253-29.539,3.817-44.467,4.719C501.294,730.917,506.524,741.255,511.987,751.45Z" transform="translate(-496.426 -715.682)" fill="none" stroke="#e5661d" stroke-miterlimit="10" stroke-width="3"/>
          <path id="Trazado_773" data-name="Trazado 773" d="M511.989,735.757c-.3-2.426-.456-3.64-.758-6.065" transform="translate(-475.711 -696.079)" fill="none" stroke="#e5661d" stroke-miterlimit="10" stroke-width="3"/>
          <path id="Trazado_774" data-name="Trazado 774" d="M503.487,736.66,503,730.568" transform="translate(-487.23 -694.854)" fill="none" stroke="#e5661d" stroke-miterlimit="10" stroke-width="3"/>
          <path id="Trazado_775" data-name="Trazado 775" d="M510.593,764.561q-1.63-15.921-3.258-31.845" transform="translate(-481.162 -691.848)" fill="none" stroke="#e5661d" stroke-miterlimit="10" stroke-width="3"/>
          <path id="Trazado_776" data-name="Trazado 776" d="M508.975,748.733q-1.627-15.9-3.256-31.809" transform="translate(-483.423 -713.944)" fill="none" stroke="#e5661d" stroke-miterlimit="10" stroke-width="3"/>
        </g>
        <g id="Grupo_250" data-name="Grupo 250" transform="translate(36.492)">
          <path id="Trazado_777" data-name="Trazado 777" d="M475.6,732.22c6.718.888,13.481,1.6,20.235,2.147q5.967,16.623,12.654,32.92c-17.438-1.029-34.659-2.855-51.936-5.513Q466.41,747.205,475.6,732.22Z" transform="translate(-456.553 -692.542)" fill="none" stroke="#e5661d" stroke-miterlimit="10" stroke-width="3"/>
          <path id="Trazado_778" data-name="Trazado 778" d="M470.021,749.331c6.627.876,13.3,1.586,19.964,2.119,5.5-10.175,10.655-20.552,15.561-31.048-14.926-.9-29.673-2.464-44.467-4.719C463.713,726.992,466.739,738.206,470.021,749.331Z" transform="translate(-450.22 -715.682)" fill="none" stroke="#e5661d" stroke-miterlimit="10" stroke-width="3"/>
          <path id="Trazado_779" data-name="Trazado 779" d="M472.926,736.669c.194-2.437.29-3.656.485-6.094" transform="translate(-433.644 -694.844)" fill="none" stroke="#e5661d" stroke-miterlimit="10" stroke-width="3"/>
          <path id="Trazado_780" data-name="Trazado 780" d="M464.58,735.768c.3-2.426.453-3.64.753-6.065" transform="translate(-445.322 -696.064)" fill="none" stroke="#e5661d" stroke-miterlimit="10" stroke-width="3"/>
          <path id="Trazado_781" data-name="Trazado 781" d="M467.346,764.561q1.627-15.921,3.258-31.845" transform="translate(-441.451 -691.848)" fill="none" stroke="#e5661d" stroke-miterlimit="10" stroke-width="3"/>
          <path id="Trazado_782" data-name="Trazado 782" d="M468.963,748.733q1.627-15.9,3.253-31.809" transform="translate(-439.189 -713.944)" fill="none" stroke="#e5661d" stroke-miterlimit="10" stroke-width="3"/>
        </g>
        <path id="Trazado_783" data-name="Trazado 783" d="M500.06,723.194c6.521,7.891,13.205,15.559,20.115,23.088-6.483,8.222-13.136,16.223-20.019,24.093-6.914-7.838-13.6-15.813-20.117-24.009C486.92,738.808,493.573,731.112,500.06,723.194Z" transform="translate(-387.199 -705.171)" fill="none" stroke="#e5661d" stroke-miterlimit="10" stroke-width="3"/>
        <path id="Trazado_784" data-name="Trazado 784" d="M532.892,719.369c7.958,6.368,16.034,12.481,24.3,18.407-4.7,9.4-9.618,18.627-14.789,27.766-8.337-6.235-16.475-12.656-24.489-19.326C523.144,737.387,528.122,728.469,532.892,719.369Z" transform="translate(-334.201 -710.523)" fill="none" stroke="#e5661d" stroke-miterlimit="10" stroke-width="3"/>
        <path id="Trazado_785" data-name="Trazado 785" d="M465.686,719.285c4.75,9.112,9.71,18.04,14.918,26.881-8.03,6.653-16.183,13.052-24.532,19.268-5.149-9.151-10.045-18.385-14.729-27.8C449.625,731.725,457.715,725.633,465.686,719.285Z" transform="translate(-441.343 -710.641)" fill="none" stroke="#e5661d" stroke-miterlimit="10" stroke-width="3"/>
      </g>
      <g id="Grupo_254" data-name="Grupo 254" transform="translate(175.454 340.607)">
        <g id="Grupo_252" data-name="Grupo 252" transform="translate(104.642 43.027)">
          <path id="Trazado_786" data-name="Trazado 786" d="M441.155,723.123c6.387,2.32,12.86,4.477,19.354,6.452q2.462,17.537,5.7,34.913c-16.859-4.729-33.327-10.216-49.678-16.569Q429.125,735.8,441.155,723.123Z" transform="translate(-416.529 -682.512)" fill="none" stroke="#e5661d" stroke-miterlimit="10" stroke-width="3"/>
          <path id="Trazado_787" data-name="Trazado 787" d="M428.724,741.071c6.3,2.289,12.69,4.417,19.1,6.365,7.445-8.781,14.6-17.833,21.523-27.056-14.426-4.069-28.527-8.767-42.533-14.184C427.09,717.835,427.772,729.468,428.724,741.071Z" transform="translate(-402.141 -706.196)" fill="none" stroke="#e5661d" stroke-miterlimit="10" stroke-width="3"/>
          <path id="Trazado_788" data-name="Trazado 788" d="M434.86,729.229c.684-2.344,1.027-3.515,1.711-5.859" transform="translate(-390.88 -682.166)" fill="none" stroke="#e5661d" stroke-miterlimit="10" stroke-width="3"/>
          <path id="Trazado_789" data-name="Trazado 789" d="M426.876,726.52c.789-2.31,1.183-3.464,1.97-5.773" transform="translate(-402.051 -685.836)" fill="none" stroke="#e5661d" stroke-miterlimit="10" stroke-width="3"/>
          <path id="Trazado_790" data-name="Trazado 790" d="M426.789,754.979q4.826-15.234,9.65-30.463" transform="translate(-402.173 -680.562)" fill="none" stroke="#e5661d" stroke-miterlimit="10" stroke-width="3"/>
          <path id="Trazado_791" data-name="Trazado 791" d="M431.579,739.837q4.819-15.212,9.638-30.427" transform="translate(-395.471 -701.699)" fill="none" stroke="#e5661d" stroke-miterlimit="10" stroke-width="3"/>
        </g>
        <g id="Grupo_253" data-name="Grupo 253" transform="translate(16.413 2.342)">
          <path id="Trazado_792" data-name="Trazado 792" d="M408.836,705.87c5.76,3.743,11.651,7.339,17.6,10.746-.765,11.838-1.265,23.656-1.507,35.518a512.833,512.833,0,0,1-45.177-27.594Q394.525,715.551,408.836,705.87Z" transform="translate(-379.755 -665.966)" fill="none" stroke="#e5661d" stroke-miterlimit="10" stroke-width="3"/>
          <path id="Trazado_793" data-name="Trazado 793" d="M393.159,723.957c5.684,3.695,11.495,7.241,17.365,10.6,9.059-6.934,17.881-14.2,26.516-21.694a452.366,452.366,0,0,1-38.678-23.628C396.273,700.754,394.637,712.343,393.159,723.957Z" transform="translate(-361 -689.238)" fill="none" stroke="#e5661d" stroke-miterlimit="10" stroke-width="3"/>
          <path id="Trazado_794" data-name="Trazado 794" d="M399.213,713.475c1.142-2.145,1.715-3.215,2.86-5.36" transform="translate(-352.529 -662.825)" fill="none" stroke="#e5661d" stroke-miterlimit="10" stroke-width="3"/>
          <path id="Trazado_795" data-name="Trazado 795" d="M391.952,708.962c1.238-2.087,1.857-3.131,3.093-5.218" transform="translate(-362.689 -668.941)" fill="none" stroke="#e5661d" stroke-miterlimit="10" stroke-width="3"/>
          <path id="Trazado_796" data-name="Trazado 796" d="M389.016,735.859q7.8-13.848,15.6-27.7" transform="translate(-366.797 -662.765)" fill="none" stroke="#e5661d" stroke-miterlimit="10" stroke-width="3"/>
          <path id="Trazado_797" data-name="Trazado 797" d="M396.761,722.091l15.585-27.67" transform="translate(-355.96 -681.986)" fill="none" stroke="#e5661d" stroke-miterlimit="10" stroke-width="3"/>
        </g>
        <path id="Trazado_798" data-name="Trazado 798" d="M433.288,707.879c2.826,9.954,5.895,19.772,9.227,29.558-9.182,4.791-18.436,9.3-27.85,13.592-3.213-10.1-6.156-20.221-8.855-30.477C415.1,716.574,424.224,712.368,433.288,707.879Z" transform="translate(-326.886 -660.814)" fill="none" stroke="#e5661d" stroke-miterlimit="10" stroke-width="3"/>
        <path id="Trazado_799" data-name="Trazado 799" d="M465.686,719.285c4.75,9.112,9.71,18.04,14.918,26.881-8.03,6.653-16.183,13.052-24.532,19.268-5.149-9.151-10.045-18.385-14.729-27.8C449.625,731.725,457.715,725.633,465.686,719.285Z" transform="translate(-277.167 -644.854)" fill="none" stroke="#e5661d" stroke-miterlimit="10" stroke-width="3"/>
        <path id="Trazado_800" data-name="Trazado 800" d="M402.321,688.262c.7,10.473,1.67,20.863,2.9,31.283-9.947,2.529-19.9,4.753-29.971,6.7-1.125-10.7-1.955-21.446-2.339-32.2C382.789,692.4,392.552,690.486,402.321,688.262Z" transform="translate(-372.914 -688.262)" fill="none" stroke="#e5661d" stroke-miterlimit="10" stroke-width="3"/>
      </g>
      <g id="Grupo_257" data-name="Grupo 257" transform="translate(51.768 181.09)">
        <g id="Grupo_255" data-name="Grupo 255" transform="translate(63.526 103.044)">
          <path id="Trazado_801" data-name="Trazado 801" d="M379.991,680.373c4.832,5.158,9.842,10.2,14.964,15.053q-4.743,17.281-8.712,34.743a501.507,501.507,0,0,1-38.4-38.649C358.652,688.082,369.377,684.43,379.991,680.373Z" transform="translate(-347.839 -642.828)" fill="none" stroke="#e5661d" stroke-miterlimit="10" stroke-width="3"/>
          <path id="Trazado_802" data-name="Trazado 802" d="M362.931,697.9c4.77,5.091,9.712,10.062,14.765,14.851,10.254-4.623,20.34-9.647,30.285-14.937a442.553,442.553,0,0,1-32.884-33.09Q368.641,681.181,362.931,697.9Z" transform="translate(-326.722 -664.724)" fill="none" stroke="#e5661d" stroke-miterlimit="10" stroke-width="3"/>
          <path id="Trazado_803" data-name="Trazado 803" d="M367.477,689.328l3.882-4.6" transform="translate(-320.361 -636.73)" fill="none" stroke="#e5661d" stroke-miterlimit="10" stroke-width="3"/>
          <path id="Trazado_804" data-name="Trazado 804" d="M361.3,683c1.634-1.759,2.45-2.637,4.081-4.4" transform="translate(-329 -645.297)" fill="none" stroke="#e5661d" stroke-miterlimit="10" stroke-width="3"/>
          <path id="Trazado_805" data-name="Trazado 805" d="M355.627,707.11q10.429-11.775,20.864-23.551" transform="translate(-336.942 -638.37)" fill="none" stroke="#e5661d" stroke-miterlimit="10" stroke-width="3"/>
          <path id="Trazado_806" data-name="Trazado 806" d="M365.984,695.4l20.84-23.524" transform="translate(-322.45 -654.713)" fill="none" stroke="#e5661d" stroke-miterlimit="10" stroke-width="3"/>
        </g>
        <g id="Grupo_256" data-name="Grupo 256" transform="translate(3.277 26.394)">
          <path id="Trazado_807" data-name="Trazado 807" d="M356.268,646.761c3.716,6.538,7.517,12.953,11.459,19.347q-8.162,16.13-15.6,32.593a513.832,513.832,0,0,1-29.4-49.678C333.929,648.712,345.121,647.905,356.268,646.761Z" transform="translate(-322.727 -613.208)" fill="none" stroke="#e5661d" stroke-miterlimit="10" stroke-width="3"/>
          <path id="Trazado_808" data-name="Trazado 808" d="M338.726,663.037c3.668,6.449,7.416,12.781,11.305,19.088,10.916-1.854,21.763-4.177,32.526-6.816a448.341,448.341,0,0,1-25.172-42.533Q347.707,647.7,338.726,663.037Z" transform="translate(-300.341 -632.776)" fill="none" stroke="#e5661d" stroke-miterlimit="10" stroke-width="3"/>
          <path id="Trazado_809" data-name="Trazado 809" d="M341.483,656.907l4.719-3.57" transform="translate(-296.483 -604.007)" fill="none" stroke="#e5661d" stroke-miterlimit="10" stroke-width="3"/>
          <path id="Trazado_810" data-name="Trazado 810" d="M336.755,648.782c1.951-1.327,2.925-1.989,4.873-3.316" transform="translate(-303.099 -615.02)" fill="none" stroke="#e5661d" stroke-miterlimit="10" stroke-width="3"/>
          <path id="Trazado_811" data-name="Trazado 811" d="M328.577,668.877,353.7,650.842" transform="translate(-314.542 -607.498)" fill="none" stroke="#e5661d" stroke-miterlimit="10" stroke-width="3"/>
          <path id="Trazado_812" data-name="Trazado 812" d="M341.05,659.912l25.1-18.013" transform="translate(-297.089 -620.011)" fill="none" stroke="#e5661d" stroke-miterlimit="10" stroke-width="3"/>
        </g>
        <path id="Trazado_813" data-name="Trazado 813" d="M378.559,662.734c-1.545,10.6-2.654,21.271-3.469,31.955-10.221,0-20.362-.331-30.564-.979,1.063-11,2.423-21.979,4.218-32.876C358.689,661.791,368.576,662.425,378.559,662.734Z" transform="translate(-288.948 -567.123)" fill="none" stroke="#e5661d" stroke-miterlimit="10" stroke-width="3"/>
        <path id="Trazado_814" data-name="Trazado 814" d="M402.321,688.262c.7,10.473,1.67,20.863,2.9,31.283-9.947,2.529-19.9,4.753-29.971,6.7-1.125-10.7-1.955-21.446-2.339-32.2C382.789,692.4,392.552,690.486,402.321,688.262Z" transform="translate(-249.227 -528.746)" fill="none" stroke="#e5661d" stroke-miterlimit="10" stroke-width="3"/>
        <path id="Trazado_815" data-name="Trazado 815" d="M360.888,632.632c-3.728,10.408-7.044,20.974-10.077,31.617-9.952-2.977-19.712-6.276-29.45-9.937,3.344-10.957,6.975-21.83,11.017-32.536C341.788,625.743,351.234,629.345,360.888,632.632Z" transform="translate(-321.361 -621.775)" fill="none" stroke="#e5661d" stroke-miterlimit="10" stroke-width="3"/>
      </g>
      <g id="Grupo_260" data-name="Grupo 260">
        <g id="Grupo_258" data-name="Grupo 258" transform="translate(15.117 112.614)">
          <path id="Trazado_816" data-name="Trazado 816" d="M339.062,609.547q3.225,11.923,7.063,23.654-11.293,14.276-21.924,29.052a591.776,591.776,0,0,1-18.116-60.736C317.006,604.55,327.961,607.3,339.062,609.547Z" transform="translate(-306.085 -581.644)" fill="none" stroke="#e5661d" stroke-miterlimit="10" stroke-width="3"/>
          <path id="Trazado_817" data-name="Trazado 817" d="M322.074,619.186q3.181,11.761,6.967,23.337c10.945,1.37,21.955,2.222,32.968,2.709a518.07,518.07,0,0,1-15.511-52Q333.978,605.92,322.074,619.186Z" transform="translate(-283.713 -593.234)" fill="none" stroke="#e5661d" stroke-miterlimit="10" stroke-width="3"/>
          <path id="Trazado_818" data-name="Trazado 818" d="M322.774,616.054c2.128-.914,3.191-1.37,5.321-2.282" transform="translate(-282.734 -564.497)" fill="none" stroke="#e5661d" stroke-miterlimit="10" stroke-width="3"/>
          <path id="Trazado_819" data-name="Trazado 819" d="M319.858,606.115c2.166-.785,3.249-1.178,5.415-1.965" transform="translate(-286.814 -577.96)" fill="none" stroke="#e5661d" stroke-miterlimit="10" stroke-width="3"/>
          <path id="Trazado_820" data-name="Trazado 820" d="M309.521,620.96q14.068-5.56,28.131-11.118" transform="translate(-301.277 -569.996)" fill="none" stroke="#e5661d" stroke-miterlimit="10" stroke-width="3"/>
          <path id="Trazado_821" data-name="Trazado 821" d="M323.485,615.432q14.05-5.553,28.1-11.1" transform="translate(-281.739 -577.71)" fill="none" stroke="#e5661d" stroke-miterlimit="10" stroke-width="3"/>
        </g>
        <g id="Grupo_259" data-name="Grupo 259">
          <path id="Trazado_822" data-name="Trazado 822" d="M329.959,566.37q.576,13.992,1.8,27.946-13.978,11.743-27.368,24.141c-2.735-23.872-4.215-47.73-4.609-71.763C309.652,553.606,319.669,560.144,329.959,566.37Z" transform="translate(-299.784 -545.739)" fill="none" stroke="#e5661d" stroke-miterlimit="10" stroke-width="3"/>
          <path id="Trazado_823" data-name="Trazado 823" d="M314.705,566.574q.569,13.809,1.778,27.574c10.309,4.889,20.7,9.489,31.329,13.587-2.325-20.448-3.592-40.854-3.944-61.439Q329.019,556.06,314.705,566.574Z" transform="translate(-278.906 -546.296)" fill="none" stroke="#e5661d" stroke-miterlimit="10" stroke-width="3"/>
          <path id="Trazado_824" data-name="Trazado 824" d="M313.112,566.969c2.255-.29,3.38-.437,5.633-.729" transform="translate(-281.135 -518.392)" fill="none" stroke="#e5661d" stroke-miterlimit="10" stroke-width="3"/>
          <path id="Trazado_825" data-name="Trazado 825" d="M312.366,555.225l5.657-.355" transform="translate(-282.179 -534.299)" fill="none" stroke="#e5661d" stroke-miterlimit="10" stroke-width="3"/>
          <path id="Trazado_826" data-name="Trazado 826" d="M300.344,563.608q14.788-1.418,29.578-2.841" transform="translate(-299 -526.048)" fill="none" stroke="#e5661d" stroke-miterlimit="10" stroke-width="3"/>
          <path id="Trazado_827" data-name="Trazado 827" d="M315.025,562.2l29.544-2.836" transform="translate(-278.459 -528.018)" fill="none" stroke="#e5661d" stroke-miterlimit="10" stroke-width="3"/>
        </g>
        <path id="Trazado_828" data-name="Trazado 828" d="M350.327,596.413c-5.777,9.892-11.178,20.022-16.312,30.285-9.112-6.118-18-12.627-26.5-19.626q8.356-15.842,17.44-31.2C333.06,583.162,341.572,589.983,350.327,596.413Z" transform="translate(-288.963 -504.914)" fill="none" stroke="#e5661d" stroke-miterlimit="10" stroke-width="3"/>
        <path id="Trazado_829" data-name="Trazado 829" d="M360.888,632.632c-3.728,10.408-7.044,20.974-10.077,31.617-9.952-2.977-19.712-6.276-29.45-9.937,3.344-10.957,6.975-21.83,11.017-32.536C341.788,625.743,351.234,629.345,360.888,632.632Z" transform="translate(-269.593 -440.685)" fill="none" stroke="#e5661d" stroke-miterlimit="10" stroke-width="3"/>
      </g>
    </g>
    <g id="Grupo_282" data-name="Grupo 282" transform="translate(314.901 370.06)">
      <g id="Grupo_263" data-name="Grupo 263" transform="translate(0 256.553)">
        <g id="Grupo_262" data-name="Grupo 262" transform="translate(0 31.365)">
          <path id="Trazado_830" data-name="Trazado 830" d="M346.123,519.117q-3.836,11.725-7.063,23.651c-11.1,2.193-22.061,5-32.975,8.03A591.322,591.322,0,0,1,324.2,490.065Q334.854,504.86,346.123,519.117Z" transform="translate(-306.085 -490.065)" fill="none" stroke="#e5661d" stroke-miterlimit="10" stroke-width="3"/>
          <path id="Trazado_831" data-name="Trazado 831" d="M329.043,504.7q-3.786,11.57-6.97,23.337Q334,541.32,346.5,553.986a517.206,517.206,0,0,1,15.509-52C350.993,502.422,339.993,503.379,329.043,504.7Z" transform="translate(-283.714 -473.38)" fill="none" stroke="#e5661d" stroke-miterlimit="10" stroke-width="3"/>
          <path id="Trazado_832" data-name="Trazado 832" d="M319.829,512.032l5.417,1.963" transform="translate(-286.854 -459.329)" fill="none" stroke="#e5661d" stroke-miterlimit="10" stroke-width="3"/>
          <path id="Trazado_833" data-name="Trazado 833" d="M322.74,502.275c2.13.909,3.193,1.365,5.324,2.277" transform="translate(-282.781 -472.981)" fill="none" stroke="#e5661d" stroke-miterlimit="10" stroke-width="3"/>
          <path id="Trazado_834" data-name="Trazado 834" d="M309.521,502.42l28.131,11.118" transform="translate(-301.277 -472.778)" fill="none" stroke="#e5661d" stroke-miterlimit="10" stroke-width="3"/>
          <path id="Trazado_835" data-name="Trazado 835" d="M323.485,507.938l28.1,11.106" transform="translate(-281.739 -465.057)" fill="none" stroke="#e5661d" stroke-miterlimit="10" stroke-width="3"/>
        </g>
        <path id="Trazado_836" data-name="Trazado 836" d="M350.189,551.028c-8.772,6.447-17.174,13.443-25.288,20.748q-9.166-15.371-17.565-31.166c8.508-7.011,17.291-13.7,26.415-19.83C338.889,531.055,344.41,541.126,350.189,551.028Z" transform="translate(-304.333 -415.722)" fill="none" stroke="#e5661d" stroke-miterlimit="10" stroke-width="3"/>
        <path id="Trazado_837" data-name="Trazado 837" d="M361.044,508.619c-9.662,3.251-19.115,6.821-28.534,10.753-3.975-10.724-7.668-21.569-10.945-32.545,9.746-3.625,19.515-6.888,29.474-9.834C354,487.652,357.383,498.194,361.044,508.619Z" transform="translate(-284.425 -476.992)" fill="none" stroke="#e5661d" stroke-miterlimit="10" stroke-width="3"/>
      </g>
      <g id="Grupo_266" data-name="Grupo 266" transform="translate(37.14 101.873)">
        <g id="Grupo_264" data-name="Grupo 264" transform="translate(2.788 86.29)">
          <path id="Trazado_838" data-name="Trazado 838" d="M367.727,481.08c-3.942,6.392-7.742,12.81-11.459,19.345-11.144-1.195-22.344-1.9-33.541-2.26a513.8,513.8,0,0,1,29.4-49.678Q359.58,464.977,367.727,481.08Z" transform="translate(-322.727 -448.487)" fill="none" stroke="#e5661d" stroke-miterlimit="10" stroke-width="3"/>
          <path id="Trazado_839" data-name="Trazado 839" d="M350.031,463.551c-3.889,6.308-7.639,12.639-11.305,19.088q9,15.363,18.659,30.261a448.627,448.627,0,0,1,25.172-42.533C371.8,467.683,360.938,465.456,350.031,463.551Z" transform="translate(-300.341 -427.409)" fill="none" stroke="#e5661d" stroke-miterlimit="10" stroke-width="3"/>
          <path id="Trazado_840" data-name="Trazado 840" d="M336.707,470.135l4.873,3.313" transform="translate(-303.166 -418.197)" fill="none" stroke="#e5661d" stroke-miterlimit="10" stroke-width="3"/>
          <path id="Trazado_841" data-name="Trazado 841" d="M341.431,462.154l4.722,3.568" transform="translate(-296.556 -429.364)" fill="none" stroke="#e5661d" stroke-miterlimit="10" stroke-width="3"/>
          <path id="Trazado_842" data-name="Trazado 842" d="M328.577,458.538,353.7,476.57" transform="translate(-314.542 -434.424)" fill="none" stroke="#e5661d" stroke-miterlimit="10" stroke-width="3"/>
          <path id="Trazado_843" data-name="Trazado 843" d="M341.05,467.489q12.549,9.008,25.1,18.013" transform="translate(-297.089 -421.899)" fill="none" stroke="#e5661d" stroke-miterlimit="10" stroke-width="3"/>
        </g>
        <g id="Grupo_265" data-name="Grupo 265" transform="translate(63.035 7.79)">
          <path id="Trazado_844" data-name="Trazado 844" d="M394.956,450.513c-5.122,4.854-10.132,9.894-14.966,15.053-10.593-4.1-21.341-7.711-32.152-11.147a501.983,501.983,0,0,1,38.407-38.651Q390.225,433.258,394.956,450.513Z" transform="translate(-347.838 -415.768)" fill="none" stroke="#e5661d" stroke-miterlimit="10" stroke-width="3"/>
          <path id="Trazado_845" data-name="Trazado 845" d="M377.7,432.154c-5.053,4.789-10,9.762-14.765,14.851q5.722,16.749,12.167,33.179a442.946,442.946,0,0,1,32.881-33.092C398.053,441.76,387.928,436.818,377.7,432.154Z" transform="translate(-326.72 -392.841)" fill="none" stroke="#e5661d" stroke-miterlimit="10" stroke-width="3"/>
          <path id="Trazado_846" data-name="Trazado 846" d="M361.239,436.524l4.083,4.4" transform="translate(-329.087 -386.726)" fill="none" stroke="#e5661d" stroke-miterlimit="10" stroke-width="3"/>
          <path id="Trazado_847" data-name="Trazado 847" d="M367.41,430.314l3.884,4.592" transform="translate(-320.453 -395.415)" fill="none" stroke="#e5661d" stroke-miterlimit="10" stroke-width="3"/>
          <path id="Trazado_848" data-name="Trazado 848" d="M355.626,423.521l20.866,23.553" transform="translate(-336.941 -404.92)" fill="none" stroke="#e5661d" stroke-miterlimit="10" stroke-width="3"/>
          <path id="Trazado_849" data-name="Trazado 849" d="M365.984,435.212q10.419,11.764,20.84,23.527" transform="translate(-322.448 -388.562)" fill="none" stroke="#e5661d" stroke-miterlimit="10" stroke-width="3"/>
        </g>
        <path id="Trazado_850" data-name="Trazado 850" d="M378.154,474.527c-9.981.362-19.868,1.051-29.805,2.066-1.8-10.9-3.292-21.871-4.352-32.881,10.2-.7,20.338-1.087,30.559-1.145C375.368,453.258,376.611,463.92,378.154,474.527Z" transform="translate(-290.179 -370.48)" fill="none" stroke="#e5661d" stroke-miterlimit="10" stroke-width="3"/>
        <path id="Trazado_851" data-name="Trazado 851" d="M361.044,508.619c-9.662,3.251-19.115,6.821-28.534,10.753-3.975-10.724-7.668-21.569-10.945-32.545,9.746-3.625,19.515-6.888,29.474-9.834C354,487.652,357.383,498.194,361.044,508.619Z" transform="translate(-321.565 -322.312)" fill="none" stroke="#e5661d" stroke-miterlimit="10" stroke-width="3"/>
        <path id="Trazado_852" data-name="Trazado 852" d="M402.636,450.573c-9.765-2.251-19.522-4.194-29.4-5.861.456-10.751,1.219-21.5,2.411-32.19,10.067,1.977,20.014,4.225,29.957,6.78C404.352,429.716,403.361,440.1,402.636,450.573Z" transform="translate(-249.259 -412.521)" fill="none" stroke="#e5661d" stroke-miterlimit="10" stroke-width="3"/>
      </g>
      <g id="Grupo_269" data-name="Grupo 269" transform="translate(161.122 15.53)">
        <g id="Grupo_267" data-name="Grupo 267" transform="translate(15.628 36.492)">
          <path id="Trazado_853" data-name="Trazado 853" d="M426.437,427.263c-5.95,3.407-11.84,7-17.6,10.746q-14.338-9.7-29.081-18.671a513.384,513.384,0,0,1,45.177-27.6C425.172,403.6,425.674,415.423,426.437,427.263Z" transform="translate(-379.755 -391.743)" fill="none" stroke="#e5661d" stroke-miterlimit="10" stroke-width="3"/>
          <path id="Trazado_854" data-name="Trazado 854" d="M410.527,408.768c-5.873,3.361-11.684,6.91-17.368,10.6,1.478,11.619,3.155,23.188,5.2,34.717a452.987,452.987,0,0,1,38.678-23.627C428.432,422.938,419.56,415.735,410.527,408.768Z" transform="translate(-361 -367.921)" fill="none" stroke="#e5661d" stroke-miterlimit="10" stroke-width="3"/>
          <path id="Trazado_855" data-name="Trazado 855" d="M391.876,411.027l3.1,5.216" transform="translate(-362.795 -364.761)" fill="none" stroke="#e5661d" stroke-miterlimit="10" stroke-width="3"/>
          <path id="Trazado_856" data-name="Trazado 856" d="M399.135,406.592c1.144,2.145,1.718,3.215,2.862,5.36" transform="translate(-352.638 -370.966)" fill="none" stroke="#e5661d" stroke-miterlimit="10" stroke-width="3"/>
          <path id="Trazado_857" data-name="Trazado 857" d="M389.016,397.192q7.8,13.852,15.6,27.7" transform="translate(-366.797 -384.119)" fill="none" stroke="#e5661d" stroke-miterlimit="10" stroke-width="3"/>
          <path id="Trazado_858" data-name="Trazado 858" d="M396.761,410.943q7.791,13.834,15.585,27.67" transform="translate(-355.96 -364.878)" fill="none" stroke="#e5661d" stroke-miterlimit="10" stroke-width="3"/>
        </g>
        <g id="Grupo_268" data-name="Grupo 268" transform="translate(103.855)">
          <path id="Trazado_859" data-name="Trazado 859" d="M460.51,411.446c-6.495,1.972-12.968,4.131-19.357,6.451q-12.045-12.7-24.625-24.8c16.353-6.356,32.821-11.84,49.68-16.569Q462.97,393.937,460.51,411.446Z" transform="translate(-416.528 -376.533)" fill="none" stroke="#e5661d" stroke-miterlimit="10" stroke-width="3"/>
          <path id="Trazado_860" data-name="Trazado 860" d="M447.822,393.511c-6.408,1.948-12.8,4.079-19.1,6.368-.993,11.6-1.593,23.236-1.914,34.875,14-5.417,28.1-10.117,42.533-14.187C462.45,411.318,455.236,402.321,447.822,393.511Z" transform="translate(-402.139 -352.777)" fill="none" stroke="#e5661d" stroke-miterlimit="10" stroke-width="3"/>
          <path id="Trazado_861" data-name="Trazado 861" d="M426.792,393.774c.789,2.308,1.185,3.462,1.972,5.77" transform="translate(-402.167 -352.409)" fill="none" stroke="#e5661d" stroke-miterlimit="10" stroke-width="3"/>
          <path id="Trazado_862" data-name="Trazado 862" d="M434.775,391.111c.686,2.342,1.029,3.513,1.715,5.856" transform="translate(-390.997 -356.135)" fill="none" stroke="#e5661d" stroke-miterlimit="10" stroke-width="3"/>
          <path id="Trazado_863" data-name="Trazado 863" d="M426.789,379.684q4.826,15.23,9.65,30.46" transform="translate(-402.171 -372.124)" fill="none" stroke="#e5661d" stroke-miterlimit="10" stroke-width="3"/>
          <path id="Trazado_864" data-name="Trazado 864" d="M431.579,394.8q4.819,15.216,9.64,30.427" transform="translate(-395.469 -350.968)" fill="none" stroke="#e5661d" stroke-miterlimit="10" stroke-width="3"/>
        </g>
        <path id="Trazado_865" data-name="Trazado 865" d="M432.651,434.443C423.57,430,414.424,425.83,405.122,421.9c2.656-10.269,5.559-20.408,8.731-30.52,9.434,4.244,18.7,8.714,27.908,13.467C438.466,414.643,435.436,424.474,432.651,434.443Z" transform="translate(-328.633 -355.766)" fill="none" stroke="#e5661d" stroke-miterlimit="10" stroke-width="3"/>
        <path id="Trazado_866" data-name="Trazado 866" d="M402.636,450.573c-9.765-2.251-19.522-4.194-29.4-5.861.456-10.751,1.219-21.5,2.411-32.19,10.067,1.977,20.014,4.225,29.957,6.78C404.352,429.716,403.361,440.1,402.636,450.573Z" transform="translate(-373.241 -326.178)" fill="none" stroke="#e5661d" stroke-miterlimit="10" stroke-width="3"/>
        <path id="Trazado_867" data-name="Trazado 867" d="M466.053,424.455c-7.956-6.367-16.032-12.478-24.3-18.407,4.7-9.4,9.621-18.627,14.791-27.766,8.335,6.238,16.473,12.656,24.489,19.328C475.8,406.439,470.825,415.355,466.053,424.455Z" transform="translate(-277.381 -374.086)" fill="none" stroke="#e5661d" stroke-miterlimit="10" stroke-width="3"/>
      </g>
      <g id="Grupo_272" data-name="Grupo 272" transform="translate(325.492)">
        <g id="Grupo_270" data-name="Grupo 270" transform="translate(35.513)">
          <path id="Trazado_868" data-name="Trazado 868" d="M495.833,402.982c-6.751.542-13.515,1.26-20.233,2.147q-9.206-15.014-19.047-29.554c17.274-2.658,34.5-4.484,51.936-5.516Q501.791,386.388,495.833,402.982Z" transform="translate(-456.553 -370.06)" fill="none" stroke="#e5661d" stroke-miterlimit="10" stroke-width="3"/>
          <path id="Trazado_869" data-name="Trazado 869" d="M489.985,386.306c-6.663.535-13.337,1.243-19.964,2.118-3.323,11.116-6.267,22.351-8.942,33.649,14.791-2.253,29.539-3.817,44.467-4.719C500.678,406.841,495.448,396.5,489.985,386.306Z" transform="translate(-450.22 -347.328)" fill="none" stroke="#e5661d" stroke-miterlimit="10" stroke-width="3"/>
          <path id="Trazado_870" data-name="Trazado 870" d="M464.492,384.677c.3,2.426.453,3.637.758,6.063" transform="translate(-445.445 -349.608)" fill="none" stroke="#e5661d" stroke-miterlimit="10" stroke-width="3"/>
          <path id="Trazado_871" data-name="Trazado 871" d="M472.837,383.789c.2,2.438.293,3.656.489,6.094" transform="translate(-433.768 -350.85)" fill="none" stroke="#e5661d" stroke-miterlimit="10" stroke-width="3"/>
          <path id="Trazado_872" data-name="Trazado 872" d="M467.346,370.907q1.627,15.925,3.258,31.845" transform="translate(-441.451 -368.875)" fill="none" stroke="#e5661d" stroke-miterlimit="10" stroke-width="3"/>
          <path id="Trazado_873" data-name="Trazado 873" d="M468.963,386.714l3.253,31.809" transform="translate(-439.189 -346.758)" fill="none" stroke="#e5661d" stroke-miterlimit="10" stroke-width="3"/>
        </g>
        <g id="Grupo_271" data-name="Grupo 271" transform="translate(131.177)">
          <path id="Trazado_874" data-name="Trazado 874" d="M530.729,405.129c-6.718-.888-13.484-1.605-20.235-2.147q-5.967-16.627-12.656-32.922c17.44,1.032,34.661,2.857,51.938,5.513Q539.919,390.141,530.729,405.129Z" transform="translate(-494.45 -370.06)" fill="none" stroke="#e5661d" stroke-miterlimit="10" stroke-width="3"/>
          <path id="Trazado_875" data-name="Trazado 875" d="M531.951,388.425c-6.627-.876-13.3-1.583-19.964-2.118-5.5,10.177-10.657,20.554-15.561,31.048,14.926.9,29.674,2.466,44.467,4.719C538.259,410.766,535.233,399.55,531.951,388.425Z" transform="translate(-496.426 -347.328)" fill="none" stroke="#e5661d" stroke-miterlimit="10" stroke-width="3"/>
          <path id="Trazado_876" data-name="Trazado 876" d="M503.4,383.782c-.194,2.438-.29,3.656-.485,6.092" transform="translate(-487.352 -350.86)" fill="none" stroke="#e5661d" stroke-miterlimit="10" stroke-width="3"/>
          <path id="Trazado_877" data-name="Trazado 877" d="M511.9,384.665l-.756,6.065" transform="translate(-475.832 -349.625)" fill="none" stroke="#e5661d" stroke-miterlimit="10" stroke-width="3"/>
          <path id="Trazado_878" data-name="Trazado 878" d="M510.593,370.907q-1.63,15.925-3.258,31.845" transform="translate(-481.162 -368.875)" fill="none" stroke="#e5661d" stroke-miterlimit="10" stroke-width="3"/>
          <path id="Trazado_879" data-name="Trazado 879" d="M508.975,386.715q-1.627,15.9-3.256,31.806" transform="translate(-483.423 -346.756)" fill="none" stroke="#e5661d" stroke-miterlimit="10" stroke-width="3"/>
        </g>
        <path id="Trazado_880" data-name="Trazado 880" d="M499.386,421.219c-6.521-7.893-13.205-15.559-20.115-23.088,6.48-8.225,13.136-16.226,20.017-24.093,6.917,7.838,13.6,15.811,20.117,24.007C512.527,405.6,505.874,413.3,499.386,421.219Z" transform="translate(-389.253 -364.494)" fill="none" stroke="#e5661d" stroke-miterlimit="10" stroke-width="3"/>
        <path id="Trazado_881" data-name="Trazado 881" d="M466.053,424.455c-7.956-6.367-16.032-12.478-24.3-18.407,4.7-9.4,9.621-18.627,14.791-27.766,8.335,6.238,16.473,12.656,24.489,19.328C475.8,406.439,470.825,415.355,466.053,424.455Z" transform="translate(-441.751 -358.556)" fill="none" stroke="#e5661d" stroke-miterlimit="10" stroke-width="3"/>
        <path id="Trazado_882" data-name="Trazado 882" d="M533.248,424.527c-4.751-9.112-9.707-18.04-14.916-26.881,8.03-6.653,16.18-13.054,24.532-19.27,5.149,9.151,10.046,18.385,14.729,27.8C549.308,412.085,541.221,418.179,533.248,424.527Z" transform="translate(-334.598 -358.424)" fill="none" stroke="#e5661d" stroke-miterlimit="10" stroke-width="3"/>
      </g>
      <g id="Grupo_275" data-name="Grupo 275" transform="translate(509.226 15.53)">
        <g id="Grupo_273" data-name="Grupo 273" transform="translate(31.591)">
          <path id="Trazado_883" data-name="Trazado 883" d="M563.857,417.9c-6.387-2.32-12.86-4.479-19.354-6.451q-2.461-17.541-5.7-34.913c16.859,4.729,33.325,10.213,49.678,16.569Q575.886,405.219,563.857,417.9Z" transform="translate(-521.278 -376.533)" fill="none" stroke="#e5661d" stroke-miterlimit="10" stroke-width="3"/>
          <path id="Trazado_884" data-name="Trazado 884" d="M572.118,399.879c-6.3-2.289-12.687-4.419-19.1-6.368-7.447,8.781-14.6,17.833-21.523,27.056,14.424,4.069,28.526,8.767,42.533,14.187C573.752,423.113,573.07,411.479,572.118,399.879Z" transform="translate(-531.499 -352.777)" fill="none" stroke="#e5661d" stroke-miterlimit="10" stroke-width="3"/>
          <path id="Trazado_885" data-name="Trazado 885" d="M542.178,391.085l-1.713,5.856" transform="translate(-518.954 -356.172)" fill="none" stroke="#e5661d" stroke-miterlimit="10" stroke-width="3"/>
          <path id="Trazado_886" data-name="Trazado 886" d="M550.312,393.744c-.789,2.308-1.183,3.462-1.97,5.773" transform="translate(-507.932 -352.451)" fill="none" stroke="#e5661d" stroke-miterlimit="10" stroke-width="3"/>
          <path id="Trazado_887" data-name="Trazado 887" d="M554.878,379.684q-4.826,15.23-9.65,30.46" transform="translate(-512.289 -372.124)" fill="none" stroke="#e5661d" stroke-miterlimit="10" stroke-width="3"/>
          <path id="Trazado_888" data-name="Trazado 888" d="M550.082,394.8q-4.819,15.216-9.64,30.427" transform="translate(-518.986 -350.968)" fill="none" stroke="#e5661d" stroke-miterlimit="10" stroke-width="3"/>
        </g>
        <g id="Grupo_274" data-name="Grupo 274" transform="translate(110.98 36.492)">
          <path id="Trazado_889" data-name="Trazado 889" d="M594.427,438.009c-5.758-3.745-11.648-7.339-17.6-10.748.765-11.838,1.264-23.656,1.5-35.518a512.264,512.264,0,0,1,45.177,27.6Q608.742,428.325,594.427,438.009Z" transform="translate(-547.467 -391.743)" fill="none" stroke="#e5661d" stroke-miterlimit="10" stroke-width="3"/>
          <path id="Trazado_890" data-name="Trazado 890" d="M608.473,419.37c-5.684-3.692-11.495-7.241-17.368-10.6-9.06,6.934-17.881,14.206-26.516,21.694a452.534,452.534,0,0,1,38.68,23.627C605.357,442.573,607,430.987,608.473,419.37Z" transform="translate(-564.589 -367.921)" fill="none" stroke="#e5661d" stroke-miterlimit="10" stroke-width="3"/>
          <path id="Trazado_891" data-name="Trazado 891" d="M578.494,406.547l-2.86,5.36" transform="translate(-549.135 -371.029)" fill="none" stroke="#e5661d" stroke-miterlimit="10" stroke-width="3"/>
          <path id="Trazado_892" data-name="Trazado 892" d="M585.892,410.978c-1.238,2.087-1.857,3.131-3.095,5.216" transform="translate(-539.112 -364.829)" fill="none" stroke="#e5661d" stroke-miterlimit="10" stroke-width="3"/>
          <path id="Trazado_893" data-name="Trazado 893" d="M596.124,397.192l-15.6,27.7" transform="translate(-542.3 -384.119)" fill="none" stroke="#e5661d" stroke-miterlimit="10" stroke-width="3"/>
          <path id="Trazado_894" data-name="Trazado 894" d="M588.367,410.943q-7.8,13.834-15.585,27.67" transform="translate(-553.125 -364.878)" fill="none" stroke="#e5661d" stroke-miterlimit="10" stroke-width="3"/>
        </g>
        <path id="Trazado_895" data-name="Trazado 895" d="M564.159,434.18c-2.826-9.954-5.895-19.772-9.23-29.556,9.184-4.794,18.438-9.307,27.852-13.592,3.213,10.1,6.156,20.221,8.853,30.477C582.349,425.486,573.223,429.691,564.159,434.18Z" transform="translate(-467.125 -356.244)" fill="none" stroke="#e5661d" stroke-miterlimit="10" stroke-width="3"/>
        <path id="Trazado_896" data-name="Trazado 896" d="M533.248,424.527c-4.751-9.112-9.707-18.04-14.916-26.881,8.03-6.653,16.18-13.054,24.532-19.27,5.149,9.151,10.046,18.385,14.729,27.8C549.308,412.085,541.221,418.179,533.248,424.527Z" transform="translate(-518.332 -373.954)" fill="none" stroke="#e5661d" stroke-miterlimit="10" stroke-width="3"/>
        <path id="Trazado_897" data-name="Trazado 897" d="M592.563,450.788c-.7-10.472-1.67-20.864-2.905-31.283,9.95-2.529,19.9-4.753,29.974-6.7,1.125,10.7,1.953,21.447,2.339,32.2C612.094,446.647,602.33,448.564,592.563,450.788Z" transform="translate(-418.533 -325.786)" fill="none" stroke="#e5661d" stroke-miterlimit="10" stroke-width="3"/>
      </g>
      <g id="Grupo_278" data-name="Grupo 278" transform="translate(680.35 102.545)">
        <g id="Grupo_276" data-name="Grupo 276" transform="translate(11.214 7.118)">
          <path id="Trazado_898" data-name="Trazado 898" d="M623.526,465.566c-4.834-5.161-9.844-10.2-14.964-15.053q4.74-17.285,8.709-34.745a501.568,501.568,0,0,1,38.407,38.651C644.862,457.855,634.14,461.507,623.526,465.566Z" transform="translate(-574.419 -415.768)" fill="none" stroke="#e5661d" stroke-miterlimit="10" stroke-width="3"/>
          <path id="Trazado_899" data-name="Trazado 899" d="M639.381,447.005c-4.77-5.089-9.712-10.062-14.765-14.851-10.254,4.623-20.341,9.647-30.285,14.938a442.088,442.088,0,0,1,32.884,33.092Q633.671,463.727,639.381,447.005Z" transform="translate(-594.331 -392.841)" fill="none" stroke="#e5661d" stroke-miterlimit="10" stroke-width="3"/>
          <path id="Trazado_900" data-name="Trazado 900" d="M610.826,430.25c-1.552,1.838-2.33,2.757-3.882,4.6" transform="translate(-576.683 -395.505)" fill="none" stroke="#e5661d" stroke-miterlimit="10" stroke-width="3"/>
          <path id="Trazado_901" data-name="Trazado 901" d="M617.114,436.456c-1.631,1.759-2.447,2.637-4.079,4.4" transform="translate(-568.16 -386.821)" fill="none" stroke="#e5661d" stroke-miterlimit="10" stroke-width="3"/>
          <path id="Trazado_902" data-name="Trazado 902" d="M632.58,423.521q-10.433,11.775-20.863,23.553" transform="translate(-570.006 -404.92)" fill="none" stroke="#e5661d" stroke-miterlimit="10" stroke-width="3"/>
          <path id="Trazado_903" data-name="Trazado 903" d="M622.209,435.212q-10.419,11.764-20.84,23.527" transform="translate(-584.483 -388.562)" fill="none" stroke="#e5661d" stroke-miterlimit="10" stroke-width="3"/>
        </g>
        <g id="Grupo_277" data-name="Grupo 277" transform="translate(70.506 85.616)">
          <path id="Trazado_904" data-name="Trazado 904" d="M646.012,500.427c-3.716-6.535-7.517-12.953-11.456-19.347q8.162-16.126,15.6-32.593a514.2,514.2,0,0,1,29.4,49.68C668.354,498.476,657.162,499.282,646.012,500.427Z" transform="translate(-597.339 -448.486)" fill="none" stroke="#e5661d" stroke-miterlimit="10" stroke-width="3"/>
          <path id="Trazado_905" data-name="Trazado 905" d="M662.875,482.639c-3.668-6.449-7.418-12.781-11.307-19.088-10.914,1.855-21.761,4.179-32.524,6.816A449.507,449.507,0,0,1,644.217,512.9Q653.894,497.98,662.875,482.639Z" transform="translate(-619.044 -427.407)" fill="none" stroke="#e5661d" stroke-miterlimit="10" stroke-width="3"/>
          <path id="Trazado_906" data-name="Trazado 906" d="M637.308,462.071l-4.719,3.572" transform="translate(-600.092 -429.478)" fill="none" stroke="#e5661d" stroke-miterlimit="10" stroke-width="3"/>
          <path id="Trazado_907" data-name="Trazado 907" d="M642.124,470.049c-1.948,1.324-2.922,1.989-4.87,3.313" transform="translate(-593.566 -418.315)" fill="none" stroke="#e5661d" stroke-miterlimit="10" stroke-width="3"/>
          <path id="Trazado_908" data-name="Trazado 908" d="M662.116,458.538,636.989,476.57" transform="translate(-593.935 -434.421)" fill="none" stroke="#e5661d" stroke-miterlimit="10" stroke-width="3"/>
          <path id="Trazado_909" data-name="Trazado 909" d="M649.626,467.489q-12.549,9.008-25.1,18.013" transform="translate(-611.371 -421.897)" fill="none" stroke="#e5661d" stroke-miterlimit="10" stroke-width="3"/>
        </g>
        <path id="Trazado_910" data-name="Trazado 910" d="M617.328,473.909c1.543-10.6,2.654-21.271,3.467-31.957,10.221,0,20.362.333,30.564.981-1.061,11-2.421,21.977-4.216,32.876C637.2,474.849,627.309,474.218,617.328,473.909Z" transform="translate(-550.939 -372.014)" fill="none" stroke="#e5661d" stroke-miterlimit="10" stroke-width="3"/>
        <path id="Trazado_911" data-name="Trazado 911" d="M592.563,450.788c-.7-10.472-1.67-20.864-2.905-31.283,9.95-2.529,19.9-4.753,29.974-6.7,1.125,10.7,1.953,21.447,2.339,32.2C612.094,446.647,602.33,448.564,592.563,450.788Z" transform="translate(-589.657 -412.801)" fill="none" stroke="#e5661d" stroke-miterlimit="10" stroke-width="3"/>
        <path id="Trazado_912" data-name="Trazado 912" d="M638.2,509.035c3.726-10.405,7.044-20.972,10.074-31.617,9.952,2.98,19.715,6.279,29.45,9.938-3.342,10.957-6.974,21.831-11.015,32.536C657.3,515.923,647.855,512.322,638.2,509.035Z" transform="translate(-521.731 -322.388)" fill="none" stroke="#e5661d" stroke-miterlimit="10" stroke-width="3"/>
      </g>
      <g id="Grupo_281" data-name="Grupo 281" transform="translate(794.703 257.575)">
        <g id="Grupo_279" data-name="Grupo 279" transform="translate(0 30.343)">
          <path id="Trazado_913" data-name="Trazado 913" d="M660.328,542.769q-3.224-11.919-7.063-23.651,11.293-14.28,21.924-29.052A591.132,591.132,0,0,1,693.3,550.8C682.382,547.766,671.43,545.019,660.328,542.769Z" transform="translate(-615.01 -490.065)" fill="none" stroke="#e5661d" stroke-miterlimit="10" stroke-width="3"/>
          <path id="Trazado_914" data-name="Trazado 914" d="M677.255,528.033q-3.185-11.761-6.97-23.335c-10.943-1.372-21.953-2.224-32.965-2.709a517.131,517.131,0,0,1,15.508,52Q665.352,541.3,677.255,528.033Z" transform="translate(-637.32 -473.38)" fill="none" stroke="#e5661d" stroke-miterlimit="10" stroke-width="3"/>
          <path id="Trazado_915" data-name="Trazado 915" d="M656.369,502.174l-5.322,2.279" transform="translate(-618.113 -473.122)" fill="none" stroke="#e5661d" stroke-miterlimit="10" stroke-width="3"/>
          <path id="Trazado_916" data-name="Trazado 916" d="M659.341,511.927c-2.166.787-3.251,1.181-5.418,1.965" transform="translate(-614.089 -459.475)" fill="none" stroke="#e5661d" stroke-miterlimit="10" stroke-width="3"/>
          <path id="Trazado_917" data-name="Trazado 917" d="M682.923,502.42l-28.131,11.118" transform="translate(-612.873 -472.778)" fill="none" stroke="#e5661d" stroke-miterlimit="10" stroke-width="3"/>
          <path id="Trazado_918" data-name="Trazado 918" d="M668.942,507.939l-28.1,11.106" transform="translate(-632.392 -465.056)" fill="none" stroke="#e5661d" stroke-miterlimit="10" stroke-width="3"/>
        </g>
        <g id="Grupo_280" data-name="Grupo 280" transform="translate(24.508 150.848)">
          <path id="Trazado_919" data-name="Trazado 919" d="M664.73,592.377q-.579-13.992-1.8-27.946,13.978-11.739,27.37-24.139c2.735,23.872,4.215,47.728,4.609,71.76C685.037,605.143,675.018,598.6,664.73,592.377Z" transform="translate(-626 -540.292)" fill="none" stroke="#e5661d" stroke-miterlimit="10" stroke-width="3"/>
          <path id="Trazado_920" data-name="Trazado 920" d="M680.642,586.153q-.569-13.805-1.778-27.574c-10.309-4.89-20.7-9.487-31.329-13.587,2.325,20.449,3.592,40.854,3.944,61.439Q666.328,596.668,680.642,586.153Z" transform="translate(-647.535 -533.716)" fill="none" stroke="#e5661d" stroke-miterlimit="10" stroke-width="3"/>
          <path id="Trazado_921" data-name="Trazado 921" d="M666.212,550.353c-2.253.293-3.378.439-5.634.729" transform="translate(-629.285 -526.215)" fill="none" stroke="#e5661d" stroke-miterlimit="10" stroke-width="3"/>
          <path id="Trazado_922" data-name="Trazado 922" d="M666.972,561.878c-2.262.144-3.395.214-5.657.358" transform="translate(-628.254 -510.089)" fill="none" stroke="#e5661d" stroke-miterlimit="10" stroke-width="3"/>
          <path id="Trazado_923" data-name="Trazado 923" d="M692.945,554.945l-29.578,2.841" transform="translate(-625.383 -519.789)" fill="none" stroke="#e5661d" stroke-miterlimit="10" stroke-width="3"/>
          <path id="Trazado_924" data-name="Trazado 924" d="M678.242,556.355,648.7,559.191" transform="translate(-645.905 -517.816)" fill="none" stroke="#e5661d" stroke-miterlimit="10" stroke-width="3"/>
        </g>
        <path id="Trazado_925" data-name="Trazado 925" d="M650.678,550.124c5.777-9.892,11.178-20.022,16.312-30.283,9.11,6.115,17.994,12.625,26.495,19.623q-8.353,15.842-17.437,31.2C667.945,563.375,659.433,556.554,650.678,550.124Z" transform="translate(-618.629 -418.059)" fill="none" stroke="#e5661d" stroke-miterlimit="10" stroke-width="3"/>
        <path id="Trazado_926" data-name="Trazado 926" d="M638.2,509.035c3.726-10.405,7.044-20.972,10.074-31.617,9.952,2.98,19.715,6.279,29.45,9.938-3.342,10.957-6.974,21.831-11.015,32.536C657.3,515.923,647.855,512.322,638.2,509.035Z" transform="translate(-636.085 -477.418)" fill="none" stroke="#e5661d" stroke-miterlimit="10" stroke-width="3"/>
      </g>
    </g>
  </g>
</svg>
