<svg xmlns="http://www.w3.org/2000/svg" width="567.252" height="569.784" viewBox="0 0 567.252 569.784">
  <g id="Grupo_1798" data-name="Grupo 1798" transform="translate(-315.087 -382.696)">
    <g id="Grupo_700" data-name="Grupo 700" transform="translate(316.703 384.204)">
      <g id="Grupo_695" data-name="Grupo 695" transform="translate(0 106.95)">
        <path id="Trazado_2207" data-name="Trazado 2207" d="M332.314,623.432c1.568-61.164,16.851-115.316,52.72-165.315" transform="translate(-306.628 -443.803)" fill="none" stroke="#e5661d" stroke-linejoin="round" stroke-width="3"/>
        <path id="Trazado_2208" data-name="Trazado 2208" d="M325.818,554.324q.741-8.99,1.992-17.932l9.084,1.575c-1.506,11.475-2.44,22.9-2.873,34.456l-17.363-.746a530.637,530.637,0,0,1,5.977-53.9q12.647,2.993,25.272,5.987" transform="translate(-316.658 -405.584)" fill="none" stroke="#e5661d" stroke-linejoin="round" stroke-width="3"/>
        <path id="Trazado_2209" data-name="Trazado 2209" d="M334.778,513.338q2.481-7.757,5.435-15.363c3.416,1.46,5.124,2.19,8.538,3.652-3.665,9.754-6.8,19.565-9.493,29.6q-8.384-2.493-16.777-4.981a454.659,454.659,0,0,1,16.339-46.189q11.719,5.8,23.425,11.607" transform="translate(-312.928 -429.746)" fill="none" stroke="#e5661d" stroke-linejoin="round" stroke-width="3"/>
        <path id="Trazado_2210" data-name="Trazado 2210" d="M350.345,479.243c2.666-4.359,5.394-8.628,8.234-12.882,3.048,2.146,4.574,3.219,7.621,5.366-5.4,8.095-10.333,16.35-14.9,24.91q-7.7-4.26-15.4-8.515a268.838,268.838,0,0,1,24.764-38.73q10.3,8.1,20.6,16.206" transform="translate(-304.334 -449.392)" fill="none" stroke="#e5661d" stroke-linejoin="round" stroke-width="3"/>
      </g>
      <g id="Grupo_696" data-name="Grupo 696" transform="translate(64.747 12.822)">
        <path id="Trazado_2211" data-name="Trazado 2211" d="M364.448,490.974a260.216,260.216,0,0,1,127.4-84.145" transform="translate(-350.79 -382.531)" fill="none" stroke="#e5661d" stroke-linejoin="round" stroke-width="3"/>
        <path id="Trazado_2212" data-name="Trazado 2212" d="M371.929,450.2c3.458-3.522,6.955-6.95,10.546-10.341l6.371,6.8c-6.8,6.428-13.227,13.094-19.391,20.114q-6.664-5.768-13.332-11.535a273.521,273.521,0,0,1,31.7-31.1q8.448,10.014,16.9,20.026" transform="translate(-356.123 -371.44)" fill="none" stroke="#e5661d" stroke-linejoin="round" stroke-width="3"/>
        <path id="Trazado_2213" data-name="Trazado 2213" d="M398.465,426.623c4.024-2.7,8.155-5.289,12.334-7.739,1.941,3.176,2.914,4.764,4.858,7.941a250.192,250.192,0,0,0-22.9,15.205q-5.348-7-10.69-14a288.673,288.673,0,0,1,37.075-23.274q6.246,11.5,12.5,22.985" transform="translate(-339.502 -383.858)" fill="none" stroke="#e5661d" stroke-linejoin="round" stroke-width="3"/>
        <path id="Trazado_2214" data-name="Trazado 2214" d="M427.464,409.475c4.461-1.852,9-3.588,13.548-5.186,1.289,3.49,1.934,5.235,3.222,8.723a266.722,266.722,0,0,0-25.318,10.395q-3.876-7.895-7.747-15.793a305.386,305.386,0,0,1,40.722-15.6q3.9,12.487,7.806,24.952" transform="translate(-320.859 -392.019)" fill="none" stroke="#e5661d" stroke-linejoin="round" stroke-width="3"/>
      </g>
      <g id="Grupo_697" data-name="Grupo 697" transform="translate(205.166)">
        <path id="Trazado_2215" data-name="Trazado 2215" d="M441.711,410.815c51.238-12.8,100.451-13.23,151.816-1.168" transform="translate(-441.711 -373.508)" fill="none" stroke="#e5661d" stroke-linejoin="round" stroke-width="3"/>
        <path id="Trazado_2216" data-name="Trazado 2216" d="M458.722,397.961c4.727-.991,9.5-1.857,14.268-2.59.587,3.675.883,5.511,1.472,9.184-9,1.4-17.965,3.219-26.8,5.506q-2.267-8.49-4.53-16.99a316.17,316.17,0,0,1,42.876-7.786q1.415,13.016,2.838,26.007" transform="translate(-440.799 -383.511)" fill="none" stroke="#e5661d" stroke-linejoin="round" stroke-width="3"/>
        <path id="Trazado_2217" data-name="Trazado 2217" d="M491.869,392.524c4.823-.1,9.67-.062,14.49.1-.149,3.726-.223,5.588-.371,9.312-9.105-.285-18.245-.162-27.343.438q-.539-8.781-1.076-17.573a317.9,317.9,0,0,1,43.541.313q-1.179,13.07-2.351,26.112" transform="translate(-418.739 -384.204)" fill="none" stroke="#e5661d" stroke-linejoin="round" stroke-width="3"/>
        <path id="Trazado_2218" data-name="Trazado 2218" d="M524.775,395.646c4.753.774,9.508,1.685,14.211,2.722-.856,3.637-1.286,5.457-2.144,9.094-8.894-1.933-17.894-3.46-26.934-4.5q1.152-8.741,2.3-17.5a310.018,310.018,0,0,1,42.7,8.2q-3.652,12.639-7.3,25.254" transform="translate(-398.022 -383.395)" fill="none" stroke="#e5661d" stroke-linejoin="round" stroke-width="3"/>
      </g>
      <g id="Grupo_698" data-name="Grupo 698" transform="translate(356.981 13.89)">
        <path id="Trazado_2219" data-name="Trazado 2219" d="M534.246,406.231c49.417,14.667,95.331,42.684,127.682,83.3" transform="translate(-534.246 -383.982)" fill="none" stroke="#e5661d" stroke-linejoin="round" stroke-width="3"/>
        <path id="Trazado_2220" data-name="Trazado 2220" d="M557.432,405.049c4.515,1.664,9.009,3.467,13.424,5.39-1.55,3.412-2.326,5.119-3.878,8.528a262.417,262.417,0,0,0-25.568-9.534q2.833-8.377,5.665-16.762a295.388,295.388,0,0,1,40.333,16.241q-6.049,11.714-12.1,23.41" transform="translate(-529.656 -392.67)" fill="none" stroke="#e5661d" stroke-linejoin="round" stroke-width="3"/>
        <path id="Trazado_2221" data-name="Trazado 2221" d="M588,420.732c4.106,2.564,8.159,5.271,12.1,8.087-2.2,3.042-3.3,4.561-5.5,7.6A246.94,246.94,0,0,0,571.41,421.8q4.44-7.671,8.877-15.35A279.573,279.573,0,0,1,616.649,430.8q-8.268,10.282-16.534,20.555" transform="translate(-510.438 -383.843)" fill="none" stroke="#e5661d" stroke-linejoin="round" stroke-width="3"/>
        <path id="Trazado_2222" data-name="Trazado 2222" d="M613.987,441.8c3.514,3.5,6.93,7.043,10.308,10.679l-6.877,6.371c-6.357-6.838-12.963-13.305-19.925-19.515l11.689-13.343a269.233,269.233,0,0,1,30.959,32.145Q630.021,466.567,619.91,475" transform="translate(-493.729 -371.324)" fill="none" stroke="#e5661d" stroke-linejoin="round" stroke-width="3"/>
      </g>
      <g id="Grupo_699" data-name="Grupo 699" transform="translate(484.663 111.375)">
        <path id="Trazado_2223" data-name="Trazado 2223" d="M612.071,457.006c36.179,50.259,51.688,104.908,53.657,166.435" transform="translate(-612.071 -448.939)" fill="none" stroke="#e5661d" stroke-linejoin="round" stroke-width="3"/>
        <path id="Trazado_2224" data-name="Trazado 2224" d="M635.53,469.135c2.746,4.39,5.378,8.794,7.947,13.289-3.206,1.916-4.807,2.874-8.011,4.792-4.817-8.428-9.982-16.529-15.6-24.452l14.113-10.676a271.7,271.7,0,0,1,23.858,40q-11.6,6.091-23.189,12.19" transform="translate(-607.075 -452.089)" fill="none" stroke="#e5661d" stroke-linejoin="round" stroke-width="3"/>
        <path id="Trazado_2225" data-name="Trazado 2225" d="M651.009,502.844q2.741,7.88,5,15.909c-3.522,1.145-5.284,1.718-8.805,2.865-2.929-9.988-6.287-19.737-10.17-29.407q7.988-3.677,15.98-7.345A473.578,473.578,0,0,1,668,532.738q-12.581,3.263-25.143,6.538" transform="translate(-596.08 -431.091)" fill="none" stroke="#e5661d" stroke-linejoin="round" stroke-width="3"/>
        <path id="Trazado_2226" data-name="Trazado 2226" d="M660.185,541.221q1.065,9.194,1.613,18.434l-9.166.686c-.784-11.476-2.062-22.81-3.911-34.178q8.537-1.767,17.082-3.529c2.545,18.649,4.083,36.648,4.792,55.457q-12.922.091-25.823.194" transform="translate(-591.122 -406.896)" fill="none" stroke="#e5661d" stroke-linejoin="round" stroke-width="3"/>
      </g>
    </g>
    <g id="Grupo_706" data-name="Grupo 706" transform="translate(316.587 666.396)">
      <g id="Grupo_701" data-name="Grupo 701" transform="translate(484.381 0)">
        <path id="Trazado_2227" data-name="Trazado 2227" d="M665.9,556.206c-2.243,61.31-17.871,115.742-54.067,165.735" transform="translate(-611.828 -556.206)" fill="none" stroke="#e5661d" stroke-linejoin="round" stroke-width="3"/>
        <path id="Trazado_2228" data-name="Trazado 2228" d="M663.378,582.477q-.842,9.059-2.194,18.06c-3.622-.681-5.432-1.02-9.053-1.7,1.631-11.548,2.692-23.061,3.26-34.714l17.348.953a544.2,544.2,0,0,1-6.6,54.293q-12.585-3.179-25.152-6.349" transform="translate(-593.147 -551.133)" fill="none" stroke="#e5661d" stroke-linejoin="round" stroke-width="3"/>
        <path id="Trazado_2229" data-name="Trazado 2229" d="M657.25,622.29q-2.55,7.777-5.565,15.394l-8.47-3.79c3.742-9.765,6.963-19.6,9.75-29.677l16.678,5.235a462.546,462.546,0,0,1-16.74,46.276q-11.613-6-23.22-11.986" transform="translate(-600.389 -525.449)" fill="none" stroke="#e5661d" stroke-linejoin="round" stroke-width="3"/>
        <path id="Trazado_2230" data-name="Trazado 2230" d="M643.571,654.815c-2.687,4.343-5.432,8.592-8.289,12.827-3.015-2.2-4.523-3.3-7.537-5.494,5.427-8.057,10.4-16.283,15.02-24.828l15.255,8.771A270.03,270.03,0,0,1,633.1,684.646Q622.914,676.37,612.73,668.1" transform="translate(-611.25 -504.243)" fill="none" stroke="#e5661d" stroke-linejoin="round" stroke-width="3"/>
      </g>
      <g id="Grupo_702" data-name="Grupo 702" transform="translate(357.766 165.735)">
        <path id="Trazado_2231" data-name="Trazado 2231" d="M661.269,657.225C629.089,697.4,583.6,725.18,534.653,739.86" transform="translate(-534.653 -657.225)" fill="none" stroke="#e5661d" stroke-linejoin="round" stroke-width="3"/>
        <path id="Trazado_2232" data-name="Trazado 2232" d="M623.14,681.836c-3.454,3.483-6.942,6.871-10.521,10.219l-6.289-6.905c6.781-6.349,13.2-12.946,19.364-19.906q6.586,5.879,13.169,11.758a270.407,270.407,0,0,1-31.63,30.719q-8.333-10.146-16.674-20.286" transform="translate(-498.837 -652.088)" fill="none" stroke="#e5661d" stroke-linejoin="round" stroke-width="3"/>
        <path id="Trazado_2233" data-name="Trazado 2233" d="M597.063,702.96c-4,2.645-8.1,5.179-12.244,7.575l-4.791-8a246.177,246.177,0,0,0,22.749-14.913q5.274,7.075,10.544,14.159a282.964,282.964,0,0,1-36.8,22.769q-6.157-11.574-12.326-23.138" transform="translate(-515.729 -637.755)" fill="none" stroke="#e5661d" stroke-linejoin="round" stroke-width="3"/>
        <path id="Trazado_2234" data-name="Trazado 2234" d="M567.886,717.4c-4.417,1.793-8.905,3.47-13.412,5.009-1.273-3.5-1.908-5.25-3.181-8.748a261.156,261.156,0,0,0,25.079-10.072q3.822,7.936,7.641,15.88a298.708,298.708,0,0,1-40.305,15.05q-3.851-12.5-7.713-24.99" transform="translate(-533.794 -627.522)" fill="none" stroke="#e5661d" stroke-linejoin="round" stroke-width="3"/>
      </g>
      <g id="Grupo_703" data-name="Grupo 703" transform="translate(203.295 248.088)">
        <path id="Trazado_2235" data-name="Trazado 2235" d="M593.694,707.524c-51.128,12.106-99.094,12.032-150.211-.1" transform="translate(-438.589 -707.421)" fill="none" stroke="#e5661d" stroke-linejoin="round" stroke-width="3"/>
        <path id="Trazado_2236" data-name="Trazado 2236" d="M535.874,726.571c-4.672.935-9.391,1.746-14.1,2.425-.586-3.668-.88-5.5-1.465-9.17,8.9-1.306,17.765-3.017,26.5-5.2q2.244,8.5,4.481,17a311.392,311.392,0,0,1-42.376,7.278q-1.418-12.981-2.845-25.941" transform="translate(-398.496 -703.869)" fill="none" stroke="#e5661d" stroke-linejoin="round" stroke-width="3"/>
        <path id="Trazado_2237" data-name="Trazado 2237" d="M502.251,731.992c-4.768.053-9.558-.025-14.324-.228.136-3.708.205-5.56.341-9.266,9.005.361,18.04.322,27.036-.19q.549,8.751,1.1,17.512a316.279,316.279,0,0,1-43.029-.709q1.122-12.992,2.243-25.963" transform="translate(-419.442 -703.752)" fill="none" stroke="#e5661d" stroke-linejoin="round" stroke-width="3"/>
        <path id="Trazado_2238" data-name="Trazado 2238" d="M470.286,731.077c-4.7-.8-9.406-1.739-14.062-2.8.832-3.611,1.247-5.417,2.08-9.027,8.807,1.974,17.712,3.552,26.655,4.654q-1.108,8.687-2.215,17.384a312.33,312.33,0,0,1-42.245-8.434q3.549-12.538,7.1-25.06" transform="translate(-440.5 -707.18)" fill="none" stroke="#e5661d" stroke-linejoin="round" stroke-width="3"/>
      </g>
      <g id="Grupo_704" data-name="Grupo 704" transform="translate(62.579 165.295)">
        <path id="Trazado_2239" data-name="Trazado 2239" d="M493.147,739.75A260.436,260.436,0,0,1,365.96,656.957" transform="translate(-347.536 -656.957)" fill="none" stroke="#e5661d" stroke-linejoin="round" stroke-width="3"/>
        <path id="Trazado_2240" data-name="Trazado 2240" d="M438.355,723.92c-4.477-1.67-8.935-3.478-13.317-5.4,1.516-3.383,2.272-5.075,3.788-8.456a266.485,266.485,0,0,0,25.361,9.571q-2.764,8.308-5.519,16.626a300.817,300.817,0,0,1-40.005-16.27q5.911-11.613,11.832-23.212" transform="translate(-320.179 -631.446)" fill="none" stroke="#e5661d" stroke-linejoin="round" stroke-width="3"/>
        <path id="Trazado_2241" data-name="Trazado 2241" d="M407.735,710.282c-4.087-2.548-8.124-5.235-12.055-8.028,2.159-3.016,3.237-4.525,5.4-7.539a252.26,252.26,0,0,0,23.09,14.529q-4.348,7.607-8.69,15.217a286,286,0,0,1-36.21-24.166q8.111-10.2,16.229-20.4" transform="translate(-339.012 -642.26)" fill="none" stroke="#e5661d" stroke-linejoin="round" stroke-width="3"/>
        <path id="Trazado_2242" data-name="Trazado 2242" d="M380.846,690.975c-3.518-3.463-6.94-6.961-10.328-10.554l6.771-6.335c6.375,6.759,12.986,13.158,19.945,19.305q-5.741,6.622-11.483,13.246a274.622,274.622,0,0,1-31.021-31.767q9.967-8.392,19.934-16.784" transform="translate(-354.73 -656.233)" fill="none" stroke="#e5661d" stroke-linejoin="round" stroke-width="3"/>
      </g>
      <g id="Grupo_705" data-name="Grupo 705" transform="translate(0 0.733)">
        <path id="Trazado_2243" data-name="Trazado 2243" d="M387.527,721.215c-36.353-49.549-52.562-103.493-55.232-164.562" transform="translate(-306.524 -556.653)" fill="none" stroke="#e5661d" stroke-linejoin="round" stroke-width="3"/>
        <path id="Trazado_2244" data-name="Trazado 2244" d="M357.431,665.2c-2.778-4.335-5.442-8.681-8.044-13.117,3.168-1.916,4.751-2.874,7.918-4.792,4.881,8.32,10.1,16.321,15.758,24.147q-6.959,5.318-13.919,10.638a274.531,274.531,0,0,1-24.153-39.465l22.946-12.221" transform="translate(-304.797 -509.414)" fill="none" stroke="#e5661d" stroke-linejoin="round" stroke-width="3"/>
        <path id="Trazado_2245" data-name="Trazado 2245" d="M338.993,632.808q-2.82-7.779-5.168-15.709c3.5-1.165,5.248-1.746,8.746-2.909,3.035,9.867,6.492,19.494,10.464,29.044l-15.829,7.388A471.809,471.809,0,0,1,321.7,603.364q12.509-3.349,25-6.7" transform="translate(-313.311 -531.02)" fill="none" stroke="#e5661d" stroke-linejoin="round" stroke-width="3"/>
        <path id="Trazado_2246" data-name="Trazado 2246" d="M327.435,595.41q-1.176-9.093-1.834-18.239l9.151-.776c.917,11.363,2.326,22.575,4.3,33.817l-17,3.657a550.971,550.971,0,0,1-5.465-54.859q12.917-.241,25.815-.476" transform="translate(-316.587 -555.448)" fill="none" stroke="#e5661d" stroke-linejoin="round" stroke-width="3"/>
      </g>
    </g>
  </g>
</svg>
