<svg xmlns="http://www.w3.org/2000/svg" width="268.25" height="105.401" viewBox="0 0 268.25 105.401">
  <g id="Grupo_1969" data-name="Grupo 1969" transform="translate(509.771 -242.854) rotate(90)">
    <g id="Grupo_138" data-name="Grupo 138" transform="translate(245.855 243.448)">
      <g id="Grupo_134" data-name="Grupo 134" transform="translate(0 195.987)">
        <line id="Línea_2" data-name="Línea 2" x2="68.544" transform="translate(8.004 34.205)" fill="none" stroke="#4f722d" stroke-miterlimit="10" stroke-width="6"/>
        <circle id="Elipse_1" data-name="Elipse 1" cx="3.901" cy="3.901" r="3.901" transform="translate(0 28.455)" fill="none" stroke="#4f722d" stroke-miterlimit="10" stroke-width="6"/>
        <path id="Trazado_155" data-name="Trazado 155" d="M247.4,511.624l28.657,34.2-28.657,34.2" transform="translate(-246.27 -511.624)" fill="none" stroke="#4f722d" stroke-miterlimit="10" stroke-width="6"/>
        <path id="Trazado_156" data-name="Trazado 156" d="M372.272,580.033l-28.657-34.2,28.657-34.2" transform="translate(-272.17 -511.624)" fill="none" stroke="#4f722d" stroke-miterlimit="10" stroke-width="6"/>
      </g>
      <g id="Grupo_135" data-name="Grupo 135" transform="translate(0 130.553)">
        <line id="Línea_3" data-name="Línea 3" x2="68.544" transform="translate(8.004 34.205)" fill="none" stroke="#4f722d" stroke-miterlimit="10" stroke-width="6"/>
        <circle id="Elipse_2" data-name="Elipse 2" cx="3.901" cy="3.901" r="3.901" transform="translate(0 28.455)" fill="none" stroke="#4f722d" stroke-miterlimit="10" stroke-width="6"/>
        <path id="Trazado_157" data-name="Trazado 157" d="M247.4,422.088l28.657,34.2L247.4,490.5" transform="translate(-246.27 -422.088)" fill="none" stroke="#4f722d" stroke-miterlimit="10" stroke-width="6"/>
        <path id="Trazado_158" data-name="Trazado 158" d="M372.272,490.5l-28.657-34.2,28.657-34.2" transform="translate(-272.17 -422.088)" fill="none" stroke="#4f722d" stroke-miterlimit="10" stroke-width="6"/>
      </g>
      <g id="Grupo_136" data-name="Grupo 136" transform="translate(0 65.434)">
        <line id="Línea_4" data-name="Línea 4" x2="68.544" transform="translate(8.004 34.205)" fill="none" stroke="#4f722d" stroke-miterlimit="10" stroke-width="6"/>
        <circle id="Elipse_3" data-name="Elipse 3" cx="3.901" cy="3.901" r="3.901" transform="translate(0 28.455)" fill="none" stroke="#4f722d" stroke-miterlimit="10" stroke-width="6"/>
        <path id="Trazado_159" data-name="Trazado 159" d="M247.4,332.983l28.657,34.2-28.657,34.2" transform="translate(-246.27 -332.983)" fill="none" stroke="#4f722d" stroke-miterlimit="10" stroke-width="6"/>
        <path id="Trazado_160" data-name="Trazado 160" d="M372.272,401.393l-28.657-34.2,28.657-34.2" transform="translate(-272.17 -332.983)" fill="none" stroke="#4f722d" stroke-miterlimit="10" stroke-width="6"/>
      </g>
      <g id="Grupo_137" data-name="Grupo 137">
        <line id="Línea_5" data-name="Línea 5" x2="68.544" transform="translate(8.004 34.205)" fill="none" stroke="#4f722d" stroke-miterlimit="10" stroke-width="6"/>
        <circle id="Elipse_4" data-name="Elipse 4" cx="3.901" cy="3.901" r="3.901" transform="translate(0 28.455)" fill="none" stroke="#4f722d" stroke-miterlimit="10" stroke-width="6"/>
        <path id="Trazado_161" data-name="Trazado 161" d="M247.4,243.448l28.657,34.2-28.657,34.2" transform="translate(-246.27 -243.448)" fill="none" stroke="#4f722d" stroke-miterlimit="10" stroke-width="6"/>
        <path id="Trazado_162" data-name="Trazado 162" d="M372.272,311.858l-28.657-34.2,28.657-34.2" transform="translate(-272.17 -243.448)" fill="none" stroke="#4f722d" stroke-miterlimit="10" stroke-width="6"/>
      </g>
    </g>
  </g>
</svg>
