<svg xmlns="http://www.w3.org/2000/svg" width="404.996" height="80.475" viewBox="0 0 404.996 80.475">
  <g id="Grupo_2008" data-name="Grupo 2008" transform="translate(-469.502 -5213.695)">
    <g id="Grupo_1947" data-name="Grupo 1947" transform="translate(672 5216.195) rotate(90)">
      <g id="Grupo_138" data-name="Grupo 138" transform="translate(0 0)">
        <g id="Grupo_134" data-name="Grupo 134" transform="translate(0 148.914)">
          <line id="Línea_2" data-name="Línea 2" x2="52.081" transform="translate(6.082 25.989)" fill="none" stroke="#4f722d" stroke-miterlimit="10" stroke-width="5"/>
          <circle id="Elipse_1" data-name="Elipse 1" cx="2.964" cy="2.964" r="2.964" transform="translate(0 21.62)" fill="none" stroke="#4f722d" stroke-miterlimit="10" stroke-width="5"/>
          <path id="Trazado_155" data-name="Trazado 155" d="M0,0,21.774,25.989,0,51.979" transform="translate(0.856)" fill="none" stroke="#4f722d" stroke-miterlimit="10" stroke-width="5"/>
          <path id="Trazado_156" data-name="Trazado 156" d="M21.774,51.979,0,25.989,21.774,0" transform="translate(54.285)" fill="none" stroke="#4f722d" stroke-miterlimit="10" stroke-width="5"/>
        </g>
        <g id="Grupo_135" data-name="Grupo 135" transform="translate(0 99.196)">
          <line id="Línea_3" data-name="Línea 3" x2="52.081" transform="translate(6.082 25.989)" fill="none" stroke="#4f722d" stroke-miterlimit="10" stroke-width="5"/>
          <circle id="Elipse_2" data-name="Elipse 2" cx="2.964" cy="2.964" r="2.964" transform="translate(0 21.62)" fill="none" stroke="#4f722d" stroke-miterlimit="10" stroke-width="5"/>
          <path id="Trazado_157" data-name="Trazado 157" d="M0,0,21.774,25.989,0,51.979" transform="translate(0.856)" fill="none" stroke="#4f722d" stroke-miterlimit="10" stroke-width="5"/>
          <path id="Trazado_158" data-name="Trazado 158" d="M21.774,51.979,0,25.989,21.774,0" transform="translate(54.285)" fill="none" stroke="#4f722d" stroke-miterlimit="10" stroke-width="5"/>
        </g>
        <g id="Grupo_136" data-name="Grupo 136" transform="translate(0 49.718)">
          <line id="Línea_4" data-name="Línea 4" x2="52.081" transform="translate(6.082 25.989)" fill="none" stroke="#4f722d" stroke-miterlimit="10" stroke-width="5"/>
          <circle id="Elipse_3" data-name="Elipse 3" cx="2.964" cy="2.964" r="2.964" transform="translate(0 21.62)" fill="none" stroke="#4f722d" stroke-miterlimit="10" stroke-width="5"/>
          <path id="Trazado_159" data-name="Trazado 159" d="M0,0,21.774,25.989,0,51.979" transform="translate(0.856)" fill="none" stroke="#4f722d" stroke-miterlimit="10" stroke-width="5"/>
          <path id="Trazado_160" data-name="Trazado 160" d="M21.774,51.979,0,25.989,21.774,0" transform="translate(54.285)" fill="none" stroke="#4f722d" stroke-miterlimit="10" stroke-width="5"/>
        </g>
        <g id="Grupo_137" data-name="Grupo 137">
          <line id="Línea_5" data-name="Línea 5" x2="52.081" transform="translate(6.082 25.989)" fill="none" stroke="#4f722d" stroke-miterlimit="10" stroke-width="5"/>
          <circle id="Elipse_4" data-name="Elipse 4" cx="2.964" cy="2.964" r="2.964" transform="translate(0 21.62)" fill="none" stroke="#4f722d" stroke-miterlimit="10" stroke-width="5"/>
          <path id="Trazado_161" data-name="Trazado 161" d="M0,0,21.774,25.989,0,51.979" transform="translate(0.856)" fill="none" stroke="#4f722d" stroke-miterlimit="10" stroke-width="5"/>
          <path id="Trazado_162" data-name="Trazado 162" d="M21.774,51.979,0,25.989,21.774,0" transform="translate(54.285)" fill="none" stroke="#4f722d" stroke-miterlimit="10" stroke-width="5"/>
        </g>
      </g>
    </g>
    <g id="Grupo_1948" data-name="Grupo 1948" transform="translate(872.892 5216.195) rotate(90)">
      <g id="Grupo_138-2" data-name="Grupo 138" transform="translate(0 0)">
        <g id="Grupo_134-2" data-name="Grupo 134" transform="translate(0 148.914)">
          <line id="Línea_2-2" data-name="Línea 2" x2="52.081" transform="translate(6.082 25.989)" fill="none" stroke="#4f722d" stroke-miterlimit="10" stroke-width="5"/>
          <circle id="Elipse_1-2" data-name="Elipse 1" cx="2.964" cy="2.964" r="2.964" transform="translate(0 21.62)" fill="none" stroke="#4f722d" stroke-miterlimit="10" stroke-width="5"/>
          <path id="Trazado_155-2" data-name="Trazado 155" d="M0,0,21.774,25.989,0,51.979" transform="translate(0.856)" fill="none" stroke="#4f722d" stroke-miterlimit="10" stroke-width="5"/>
          <path id="Trazado_156-2" data-name="Trazado 156" d="M21.774,51.979,0,25.989,21.774,0" transform="translate(54.285)" fill="none" stroke="#4f722d" stroke-miterlimit="10" stroke-width="5"/>
        </g>
        <g id="Grupo_135-2" data-name="Grupo 135" transform="translate(0 99.196)">
          <line id="Línea_3-2" data-name="Línea 3" x2="52.081" transform="translate(6.082 25.989)" fill="none" stroke="#4f722d" stroke-miterlimit="10" stroke-width="5"/>
          <circle id="Elipse_2-2" data-name="Elipse 2" cx="2.964" cy="2.964" r="2.964" transform="translate(0 21.62)" fill="none" stroke="#4f722d" stroke-miterlimit="10" stroke-width="5"/>
          <path id="Trazado_157-2" data-name="Trazado 157" d="M0,0,21.774,25.989,0,51.979" transform="translate(0.856)" fill="none" stroke="#4f722d" stroke-miterlimit="10" stroke-width="5"/>
          <path id="Trazado_158-2" data-name="Trazado 158" d="M21.774,51.979,0,25.989,21.774,0" transform="translate(54.285)" fill="none" stroke="#4f722d" stroke-miterlimit="10" stroke-width="5"/>
        </g>
        <g id="Grupo_136-2" data-name="Grupo 136" transform="translate(0 49.718)">
          <line id="Línea_4-2" data-name="Línea 4" x2="52.081" transform="translate(6.082 25.989)" fill="none" stroke="#4f722d" stroke-miterlimit="10" stroke-width="5"/>
          <circle id="Elipse_3-2" data-name="Elipse 3" cx="2.964" cy="2.964" r="2.964" transform="translate(0 21.62)" fill="none" stroke="#4f722d" stroke-miterlimit="10" stroke-width="5"/>
          <path id="Trazado_159-2" data-name="Trazado 159" d="M0,0,21.774,25.989,0,51.979" transform="translate(0.856)" fill="none" stroke="#4f722d" stroke-miterlimit="10" stroke-width="5"/>
          <path id="Trazado_160-2" data-name="Trazado 160" d="M21.774,51.979,0,25.989,21.774,0" transform="translate(54.285)" fill="none" stroke="#4f722d" stroke-miterlimit="10" stroke-width="5"/>
        </g>
        <g id="Grupo_137-2" data-name="Grupo 137">
          <line id="Línea_5-2" data-name="Línea 5" x2="52.081" transform="translate(6.082 25.989)" fill="none" stroke="#4f722d" stroke-miterlimit="10" stroke-width="5"/>
          <circle id="Elipse_4-2" data-name="Elipse 4" cx="2.964" cy="2.964" r="2.964" transform="translate(0 21.62)" fill="none" stroke="#4f722d" stroke-miterlimit="10" stroke-width="5"/>
          <path id="Trazado_161-2" data-name="Trazado 161" d="M0,0,21.774,25.989,0,51.979" transform="translate(0.856)" fill="none" stroke="#4f722d" stroke-miterlimit="10" stroke-width="5"/>
          <path id="Trazado_162-2" data-name="Trazado 162" d="M21.774,51.979,0,25.989,21.774,0" transform="translate(54.285)" fill="none" stroke="#4f722d" stroke-miterlimit="10" stroke-width="5"/>
        </g>
      </g>
    </g>
  </g>
</svg>
