<svg id="Grupo_2002" data-name="Grupo 2002" xmlns="http://www.w3.org/2000/svg" width="60.514" height="60.514" viewBox="0 0 60.514 60.514">
  <path id="Trazado_138" data-name="Trazado 138" d="M857.273,423.026l-2.443-2.443-20.962,20.962-20.962-20.962-2.443,2.443,20.962,20.962-20.962,20.962,2.443,2.443,20.962-20.962,20.962,20.962,2.443-2.443-20.962-20.962Z" transform="translate(-803.72 -413.803)" fill="#e5661d"/>
  <path id="Trazado_139" data-name="Trazado 139" d="M848.212,416.666a3.927,3.927,0,1,0-3.927-3.927A3.928,3.928,0,0,0,848.212,416.666Z" transform="translate(-818.065 -408.811)" fill="#e5661d"/>
  <path id="Trazado_140" data-name="Trazado 140" d="M848.591,500.251a3.927,3.927,0,1,0,3.928,3.927A3.927,3.927,0,0,0,848.591,500.251Z" transform="translate(-818.225 -447.593)" fill="#e5661d"/>
  <path id="Trazado_141" data-name="Trazado 141" d="M802.681,454.72a3.927,3.927,0,1,0,3.928,3.927A3.928,3.928,0,0,0,802.681,454.72Z" transform="translate(-798.754 -428.282)" fill="#e5661d"/>
  <path id="Trazado_142" data-name="Trazado 142" d="M894.122,454.341a3.927,3.927,0,1,0,3.928,3.927A3.928,3.928,0,0,0,894.122,454.341Z" transform="translate(-837.535 -428.121)" fill="#e5661d"/>
</svg>
