<svg xmlns="http://www.w3.org/2000/svg" width="313.085" height="100.499" viewBox="0 0 313.085 100.499">
  <g id="Grupo_799" data-name="Grupo 799" transform="translate(-944.928 -299.27)">
    <g id="Grupo_792" data-name="Grupo 792" transform="translate(947.937 302.956)">
      <g id="Grupo_791" data-name="Grupo 791">
        <path id="Trazado_2520" data-name="Trazado 2520" d="M985.94,396.082l-38-46.563,38-46.563,38,46.563Z" transform="translate(-947.937 -302.956)" fill="none" stroke="#4f722d" stroke-miterlimit="10" stroke-width="4.662"/>
        <path id="Trazado_2521" data-name="Trazado 2521" d="M977.76,363.084,958.508,339.5l19.252-23.588L997.012,339.5Z" transform="translate(-939.757 -292.933)" fill="none" stroke="#4f722d" stroke-miterlimit="10" stroke-width="2.05"/>
        <g id="Trazado_2522" data-name="Trazado 2522" transform="translate(-934.6 -286.615)" fill="none" stroke-miterlimit="10">
          <path d="M972.6,342.281l-7.43-9.1,7.43-9.1,7.43,9.1Z" stroke="none"/>
          <path d="M 972.6029052734375 337.2820129394531 L 975.9528198242188 333.1775512695312 L 972.6029052734375 329.0730895996094 L 969.2528686523438 333.1775512695312 L 972.6029052734375 337.2820129394531 M 972.6029052734375 342.2813110351562 L 965.172607421875 333.1775512695312 L 972.6029052734375 324.0737915039062 L 980.0330810546875 333.1775512695312 L 972.6029052734375 342.2813110351562 Z" stroke="none" fill="#4f722d"/>
        </g>
        <line id="Línea_67" data-name="Línea 67" x2="74.259" transform="translate(0 46.563)" fill="none" stroke="#4f722d" stroke-miterlimit="10" stroke-width="2.05"/>
      </g>
    </g>
    <g id="Grupo_794" data-name="Grupo 794" transform="translate(1025.464 302.956)">
      <g id="Grupo_793" data-name="Grupo 793">
        <path id="Trazado_2523" data-name="Trazado 2523" d="M1029.647,396.082l-38-46.563,38-46.563,38,46.563Z" transform="translate(-991.644 -302.956)" fill="none" stroke="#4f722d" stroke-miterlimit="10" stroke-width="4.662"/>
        <path id="Trazado_2524" data-name="Trazado 2524" d="M1021.467,363.084,1002.215,339.5l19.252-23.588,19.252,23.588Z" transform="translate(-983.464 -292.933)" fill="none" stroke="#4f722d" stroke-miterlimit="10" stroke-width="2.05"/>
        <g id="Trazado_2525" data-name="Trazado 2525" transform="translate(-978.306 -286.615)" fill="none" stroke-miterlimit="10">
          <path d="M1016.31,342.281l-7.43-9.1,7.43-9.1,7.43,9.1Z" stroke="none"/>
          <path d="M 1016.309509277344 337.2820129394531 L 1019.659545898438 333.1775512695312 L 1016.309509277344 329.0730895996094 L 1012.959594726562 333.1775512695312 L 1016.309509277344 337.2820129394531 M 1016.309509277344 342.2813110351562 L 1008.879333496094 333.1775512695312 L 1016.309509277344 324.0737915039062 L 1023.739807128906 333.1775512695312 L 1016.309509277344 342.2813110351562 Z" stroke="none" fill="#4f722d"/>
        </g>
        <line id="Línea_68" data-name="Línea 68" x2="74.259" transform="translate(0 46.563)" fill="none" stroke="#4f722d" stroke-miterlimit="10" stroke-width="2.05"/>
      </g>
    </g>
    <g id="Grupo_796" data-name="Grupo 796" transform="translate(1101.47 302.956)">
      <g id="Grupo_795" data-name="Grupo 795">
        <path id="Trazado_2526" data-name="Trazado 2526" d="M1072.5,396.082l-38-46.563,38-46.563,38,46.563Z" transform="translate(-1034.493 -302.956)" fill="none" stroke="#4f722d" stroke-miterlimit="10" stroke-width="4.662"/>
        <path id="Trazado_2527" data-name="Trazado 2527" d="M1064.316,363.084,1045.064,339.5l19.252-23.588,19.252,23.588Z" transform="translate(-1026.313 -292.933)" fill="none" stroke="#4f722d" stroke-miterlimit="10" stroke-width="2.05"/>
        <g id="Trazado_2528" data-name="Trazado 2528" transform="translate(-1021.156 -286.615)" fill="none" stroke-miterlimit="10">
          <path d="M1059.159,342.281l-7.43-9.1,7.43-9.1,7.43,9.1Z" stroke="none"/>
          <path d="M 1059.158935546875 337.2820129394531 L 1062.5087890625 333.1775512695312 L 1059.158935546875 329.0730895996094 L 1055.808959960938 333.1775512695312 L 1059.158935546875 337.2820129394531 M 1059.158935546875 342.2813110351562 L 1051.728637695312 333.1775512695312 L 1059.158935546875 324.0737915039062 L 1066.589111328125 333.1775512695312 L 1059.158935546875 342.2813110351562 Z" stroke="none" fill="#4f722d"/>
        </g>
        <line id="Línea_69" data-name="Línea 69" x2="74.259" transform="translate(0 46.563)" fill="none" stroke="#4f722d" stroke-miterlimit="10" stroke-width="2.05"/>
      </g>
    </g>
    <g id="Grupo_798" data-name="Grupo 798" transform="translate(1178.998 302.956)">
      <g id="Grupo_797" data-name="Grupo 797">
        <path id="Trazado_2529" data-name="Trazado 2529" d="M1116.2,396.082l-38-46.563,38-46.563,38,46.563Z" transform="translate(-1078.2 -302.956)" fill="none" stroke="#4f722d" stroke-miterlimit="10" stroke-width="4.662"/>
        <path id="Trazado_2530" data-name="Trazado 2530" d="M1108.023,363.084,1088.771,339.5l19.252-23.588,19.252,23.588Z" transform="translate(-1070.02 -292.933)" fill="none" stroke="#4f722d" stroke-miterlimit="10" stroke-width="2.05"/>
        <g id="Trazado_2531" data-name="Trazado 2531" transform="translate(-1064.863 -286.615)" fill="none" stroke-miterlimit="10">
          <path d="M1102.866,342.281l-7.43-9.1,7.43-9.1,7.43,9.1Z" stroke="none"/>
          <path d="M 1102.86572265625 337.281982421875 L 1106.215576171875 333.1775512695312 L 1102.86572265625 329.0731201171875 L 1099.515869140625 333.1775512695312 L 1102.86572265625 337.281982421875 M 1102.86572265625 342.2813110351562 L 1095.435546875 333.1775512695312 L 1102.86572265625 324.0737915039062 L 1110.2958984375 333.1775512695312 L 1102.86572265625 342.2813110351562 Z" stroke="none" fill="#4f722d"/>
        </g>
        <line id="Línea_70" data-name="Línea 70" x2="74.259" transform="translate(0 46.563)" fill="none" stroke="#4f722d" stroke-miterlimit="10" stroke-width="2.05"/>
      </g>
    </g>
  </g>
</svg>
