<svg xmlns="http://www.w3.org/2000/svg" width="407.59" height="95.883" viewBox="0 0 407.59 95.883">
  <g id="Grupo_2011" data-name="Grupo 2011" transform="translate(-468.205 -13335.631)">
    <g id="Grupo_802" data-name="Grupo 802" transform="translate(471.071 13338.131)">
      <g id="Grupo_800" data-name="Grupo 800" transform="translate(35.524 0)">
        <path id="Trazado_2532" data-name="Trazado 2532" d="M1005.467,706.072h-17.3l-12.1-41.5h41.5Z" transform="translate(-976.066 -664.569)" fill="none" stroke="#e5661d" stroke-miterlimit="10" stroke-width="5"/>
        <path id="Trazado_2533" data-name="Trazado 2533" d="M1005.467,705.335h-17.3l-12.1,41.5h41.5Z" transform="translate(-976.066 -655.956)" fill="none" stroke="#e5661d" stroke-miterlimit="10" stroke-width="5"/>
        <line id="Línea_71" data-name="Línea 71" y2="7.924" transform="translate(12.102 41.503)" fill="none" stroke="#e5661d" stroke-miterlimit="10" stroke-width="5"/>
        <line id="Línea_72" data-name="Línea 72" y2="7.924" transform="translate(29.22 41.503)" fill="none" stroke="#e5661d" stroke-miterlimit="10" stroke-width="5"/>
        <line id="Línea_73" data-name="Línea 73" y2="41.503" transform="translate(20.752)" fill="none" stroke="#e5661d" stroke-miterlimit="10" stroke-width="5"/>
        <line id="Línea_74" data-name="Línea 74" y2="41.455" transform="translate(20.752 49.427)" fill="none" stroke="#e5661d" stroke-miterlimit="10" stroke-width="5"/>
      </g>
      <g id="Grupo_801" data-name="Grupo 801" transform="translate(114.473 0)">
        <path id="Trazado_2534" data-name="Trazado 2534" d="M1070.645,706.072h-17.3l-12.1-41.5h41.5Z" transform="translate(-1041.244 -664.569)" fill="none" stroke="#e5661d" stroke-miterlimit="10" stroke-width="5"/>
        <path id="Trazado_2535" data-name="Trazado 2535" d="M1070.645,705.335h-17.3l-12.1,41.5h41.5Z" transform="translate(-1041.244 -655.956)" fill="none" stroke="#e5661d" stroke-miterlimit="10" stroke-width="5"/>
        <line id="Línea_75" data-name="Línea 75" y2="7.924" transform="translate(12.102 41.503)" fill="none" stroke="#e5661d" stroke-miterlimit="10" stroke-width="5"/>
        <line id="Línea_76" data-name="Línea 76" y2="7.924" transform="translate(29.22 41.503)" fill="none" stroke="#e5661d" stroke-miterlimit="10" stroke-width="5"/>
        <line id="Línea_77" data-name="Línea 77" y2="41.503" transform="translate(20.752)" fill="none" stroke="#e5661d" stroke-miterlimit="10" stroke-width="5"/>
        <line id="Línea_78" data-name="Línea 78" y2="41.455" transform="translate(20.752 49.427)" fill="none" stroke="#e5661d" stroke-miterlimit="10" stroke-width="5"/>
      </g>
      <path id="Trazado_2536" data-name="Trazado 2536" d="M1028.125,736.571l-17.133-30.58,17.133-30.58,17.133,30.58Z" transform="translate(-933.163 -662.278)" fill="none" stroke="#e5661d" stroke-miterlimit="10" stroke-width="5"/>
      <path id="Trazado_2537" data-name="Trazado 2537" d="M963.871,736.571l-17.133-30.58,17.133-30.58L981,705.991Z" transform="translate(-946.738 -662.278)" fill="none" stroke="#e5661d" stroke-miterlimit="10" stroke-width="5"/>
      <path id="Trazado_2538" data-name="Trazado 2538" d="M1094.392,736.571l-17.133-30.58,17.133-30.58,17.133,30.58Z" transform="translate(-919.161 -662.278)" fill="none" stroke="#e5661d" stroke-miterlimit="10" stroke-width="5"/>
    </g>
    <g id="Grupo_1972" data-name="Grupo 1972" transform="translate(680.565 13338.131)">
      <g id="Grupo_800-2" data-name="Grupo 800" transform="translate(35.524 0)">
        <path id="Trazado_2532-2" data-name="Trazado 2532" d="M1005.467,706.072h-17.3l-12.1-41.5h41.5Z" transform="translate(-976.066 -664.569)" fill="none" stroke="#e5661d" stroke-miterlimit="10" stroke-width="5"/>
        <path id="Trazado_2533-2" data-name="Trazado 2533" d="M1005.467,705.335h-17.3l-12.1,41.5h41.5Z" transform="translate(-976.066 -655.956)" fill="none" stroke="#e5661d" stroke-miterlimit="10" stroke-width="5"/>
        <line id="Línea_71-2" data-name="Línea 71" y2="7.924" transform="translate(12.102 41.503)" fill="none" stroke="#e5661d" stroke-miterlimit="10" stroke-width="5"/>
        <line id="Línea_72-2" data-name="Línea 72" y2="7.924" transform="translate(29.22 41.503)" fill="none" stroke="#e5661d" stroke-miterlimit="10" stroke-width="5"/>
        <line id="Línea_73-2" data-name="Línea 73" y2="41.503" transform="translate(20.752)" fill="none" stroke="#e5661d" stroke-miterlimit="10" stroke-width="5"/>
        <line id="Línea_74-2" data-name="Línea 74" y2="41.455" transform="translate(20.752 49.427)" fill="none" stroke="#e5661d" stroke-miterlimit="10" stroke-width="5"/>
      </g>
      <g id="Grupo_801-2" data-name="Grupo 801" transform="translate(114.473 0)">
        <path id="Trazado_2534-2" data-name="Trazado 2534" d="M1070.645,706.072h-17.3l-12.1-41.5h41.5Z" transform="translate(-1041.244 -664.569)" fill="none" stroke="#e5661d" stroke-miterlimit="10" stroke-width="5"/>
        <path id="Trazado_2535-2" data-name="Trazado 2535" d="M1070.645,705.335h-17.3l-12.1,41.5h41.5Z" transform="translate(-1041.244 -655.956)" fill="none" stroke="#e5661d" stroke-miterlimit="10" stroke-width="5"/>
        <line id="Línea_75-2" data-name="Línea 75" y2="7.924" transform="translate(12.102 41.503)" fill="none" stroke="#e5661d" stroke-miterlimit="10" stroke-width="5"/>
        <line id="Línea_76-2" data-name="Línea 76" y2="7.924" transform="translate(29.22 41.503)" fill="none" stroke="#e5661d" stroke-miterlimit="10" stroke-width="5"/>
        <line id="Línea_77-2" data-name="Línea 77" y2="41.503" transform="translate(20.752)" fill="none" stroke="#e5661d" stroke-miterlimit="10" stroke-width="5"/>
        <line id="Línea_78-2" data-name="Línea 78" y2="41.455" transform="translate(20.752 49.427)" fill="none" stroke="#e5661d" stroke-miterlimit="10" stroke-width="5"/>
      </g>
      <path id="Trazado_2536-2" data-name="Trazado 2536" d="M1028.125,736.571l-17.133-30.58,17.133-30.58,17.133,30.58Z" transform="translate(-933.163 -662.278)" fill="none" stroke="#e5661d" stroke-miterlimit="10" stroke-width="5"/>
      <path id="Trazado_2537-2" data-name="Trazado 2537" d="M963.871,736.571l-17.133-30.58,17.133-30.58L981,705.991Z" transform="translate(-946.738 -662.278)" fill="none" stroke="#e5661d" stroke-miterlimit="10" stroke-width="5"/>
      <path id="Trazado_2538-2" data-name="Trazado 2538" d="M1094.392,736.571l-17.133-30.58,17.133-30.58,17.133,30.58Z" transform="translate(-919.161 -662.278)" fill="none" stroke="#e5661d" stroke-miterlimit="10" stroke-width="5"/>
    </g>
  </g>
</svg>
