<svg xmlns="http://www.w3.org/2000/svg" width="373.154" height="86.168" viewBox="0 0 373.154 86.168">
  <g id="Grupo_2005" data-name="Grupo 2005" transform="translate(-393.707 -1697.534)">
    <g id="Grupo_1938" data-name="Grupo 1938" transform="translate(396 1699.534)">
      <g id="Grupo_1727" data-name="Grupo 1727" transform="translate(32.118 0)">
        <path id="Trazado_3743" data-name="Trazado 3743" d="M1002.648,702.092h-15.64l-10.942-37.523h37.523Z" transform="translate(-976.066 -664.569)" fill="none" stroke="#4f722d" stroke-miterlimit="10" stroke-width="4"/>
        <path id="Trazado_3744" data-name="Trazado 3744" d="M1002.648,705.335h-15.64l-10.942,37.523h37.523Z" transform="translate(-976.066 -660.691)" fill="none" stroke="#4f722d" stroke-miterlimit="10" stroke-width="4"/>
        <line id="Línea_147" data-name="Línea 147" y2="7.165" transform="translate(10.942 37.523)" fill="none" stroke="#4f722d" stroke-miterlimit="10" stroke-width="4"/>
        <line id="Línea_148" data-name="Línea 148" y2="7.165" transform="translate(26.418 37.523)" fill="none" stroke="#4f722d" stroke-miterlimit="10" stroke-width="4"/>
        <line id="Línea_149" data-name="Línea 149" y2="37.523" transform="translate(18.762)" fill="none" stroke="#4f722d" stroke-miterlimit="10" stroke-width="4"/>
        <line id="Línea_150" data-name="Línea 150" y2="37.48" transform="translate(18.762 44.688)" fill="none" stroke="#4f722d" stroke-miterlimit="10" stroke-width="4"/>
      </g>
      <g id="Grupo_1728" data-name="Grupo 1728" transform="translate(103.496 0)">
        <path id="Trazado_3745" data-name="Trazado 3745" d="M1067.825,702.092h-15.64l-10.942-37.523h37.523Z" transform="translate(-1041.244 -664.569)" fill="none" stroke="#4f722d" stroke-miterlimit="10" stroke-width="4"/>
        <path id="Trazado_3746" data-name="Trazado 3746" d="M1067.826,705.335h-15.64l-10.942,37.523h37.523Z" transform="translate(-1041.244 -660.691)" fill="none" stroke="#4f722d" stroke-miterlimit="10" stroke-width="4"/>
        <line id="Línea_151" data-name="Línea 151" y2="7.165" transform="translate(10.941 37.523)" fill="none" stroke="#4f722d" stroke-miterlimit="10" stroke-width="4"/>
        <line id="Línea_152" data-name="Línea 152" y2="7.165" transform="translate(26.418 37.523)" fill="none" stroke="#4f722d" stroke-miterlimit="10" stroke-width="4"/>
        <line id="Línea_153" data-name="Línea 153" y2="37.523" transform="translate(18.762)" fill="none" stroke="#4f722d" stroke-miterlimit="10" stroke-width="4"/>
        <line id="Línea_154" data-name="Línea 154" y2="37.48" transform="translate(18.762 44.688)" fill="none" stroke="#4f722d" stroke-miterlimit="10" stroke-width="4"/>
      </g>
      <path id="Trazado_3747" data-name="Trazado 3747" d="M1026.482,730.706l-15.49-27.647,15.49-27.647,15.49,27.647Z" transform="translate(-940.626 -663.537)" fill="none" stroke="#4f722d" stroke-miterlimit="10" stroke-width="4"/>
      <path id="Trazado_3748" data-name="Trazado 3748" d="M962.228,730.706l-15.49-27.647,15.49-27.647,15.49,27.647Z" transform="translate(-946.738 -663.537)" fill="none" stroke="#4f722d" stroke-miterlimit="10" stroke-width="4"/>
      <path id="Trazado_3749" data-name="Trazado 3749" d="M1092.75,730.706l-15.49-27.647,15.49-27.647,15.49,27.647Z" transform="translate(-934.322 -663.537)" fill="none" stroke="#4f722d" stroke-miterlimit="10" stroke-width="4"/>
    </g>
    <g id="Grupo_1939" data-name="Grupo 1939" transform="translate(590.651 1699.534)">
      <g id="Grupo_1727-2" data-name="Grupo 1727" transform="translate(32.118 0)">
        <path id="Trazado_3743-2" data-name="Trazado 3743" d="M1002.648,702.092h-15.64l-10.942-37.523h37.523Z" transform="translate(-976.066 -664.569)" fill="none" stroke="#4f722d" stroke-miterlimit="10" stroke-width="4"/>
        <path id="Trazado_3744-2" data-name="Trazado 3744" d="M1002.648,705.335h-15.64l-10.942,37.523h37.523Z" transform="translate(-976.066 -660.691)" fill="none" stroke="#4f722d" stroke-miterlimit="10" stroke-width="4"/>
        <line id="Línea_147-2" data-name="Línea 147" y2="7.165" transform="translate(10.942 37.523)" fill="none" stroke="#4f722d" stroke-miterlimit="10" stroke-width="4"/>
        <line id="Línea_148-2" data-name="Línea 148" y2="7.165" transform="translate(26.418 37.523)" fill="none" stroke="#4f722d" stroke-miterlimit="10" stroke-width="4"/>
        <line id="Línea_149-2" data-name="Línea 149" y2="37.523" transform="translate(18.762)" fill="none" stroke="#4f722d" stroke-miterlimit="10" stroke-width="4"/>
        <line id="Línea_150-2" data-name="Línea 150" y2="37.48" transform="translate(18.762 44.688)" fill="none" stroke="#4f722d" stroke-miterlimit="10" stroke-width="4"/>
      </g>
      <g id="Grupo_1728-2" data-name="Grupo 1728" transform="translate(103.496 0)">
        <path id="Trazado_3745-2" data-name="Trazado 3745" d="M1067.825,702.092h-15.64l-10.942-37.523h37.523Z" transform="translate(-1041.244 -664.569)" fill="none" stroke="#4f722d" stroke-miterlimit="10" stroke-width="4"/>
        <path id="Trazado_3746-2" data-name="Trazado 3746" d="M1067.826,705.335h-15.64l-10.942,37.523h37.523Z" transform="translate(-1041.244 -660.691)" fill="none" stroke="#4f722d" stroke-miterlimit="10" stroke-width="4"/>
        <line id="Línea_151-2" data-name="Línea 151" y2="7.165" transform="translate(10.941 37.523)" fill="none" stroke="#4f722d" stroke-miterlimit="10" stroke-width="4"/>
        <line id="Línea_152-2" data-name="Línea 152" y2="7.165" transform="translate(26.418 37.523)" fill="none" stroke="#4f722d" stroke-miterlimit="10" stroke-width="4"/>
        <line id="Línea_153-2" data-name="Línea 153" y2="37.523" transform="translate(18.762)" fill="none" stroke="#4f722d" stroke-miterlimit="10" stroke-width="4"/>
        <line id="Línea_154-2" data-name="Línea 154" y2="37.48" transform="translate(18.762 44.688)" fill="none" stroke="#4f722d" stroke-miterlimit="10" stroke-width="4"/>
      </g>
      <path id="Trazado_3747-2" data-name="Trazado 3747" d="M1026.482,730.706l-15.49-27.647,15.49-27.647,15.49,27.647Z" transform="translate(-940.626 -663.537)" fill="none" stroke="#4f722d" stroke-miterlimit="10" stroke-width="4"/>
      <path id="Trazado_3748-2" data-name="Trazado 3748" d="M962.228,730.706l-15.49-27.647,15.49-27.647,15.49,27.647Z" transform="translate(-946.738 -663.537)" fill="none" stroke="#4f722d" stroke-miterlimit="10" stroke-width="4"/>
      <path id="Trazado_3749-2" data-name="Trazado 3749" d="M1092.75,730.706l-15.49-27.647,15.49-27.647,15.49,27.647Z" transform="translate(-934.322 -663.537)" fill="none" stroke="#4f722d" stroke-miterlimit="10" stroke-width="4"/>
    </g>
  </g>
</svg>
