<svg xmlns="http://www.w3.org/2000/svg" width="401.646" height="87.861" viewBox="0 0 401.646 87.861">
  <g id="Grupo_2010" data-name="Grupo 2010" transform="translate(-169.757 -23544.609)">
    <g id="Grupo_1990" data-name="Grupo 1990" transform="translate(361.542 23628.971) rotate(180)" opacity="0.99">
      <line id="Línea_6" data-name="Línea 6" x2="188.026" transform="translate(0 0)" fill="none" stroke="#e5661d" stroke-miterlimit="10" stroke-width="7"/>
      <line id="Línea_7" data-name="Línea 7" x2="188.026" transform="translate(0 80.862)" fill="none" stroke="#e5661d" stroke-miterlimit="10" stroke-width="7"/>
      <path id="Trazado_163" data-name="Trazado 163" d="M63.571,46.756H21.528L0,25.228,24.6.625H65.852l44.421,44.42h50.36l20.01-20.009L154.593,0H114.232" transform="translate(6.144 16.981)" fill="none" stroke="#e5661d" stroke-miterlimit="10" stroke-width="7"/>
      <line id="Línea_8" data-name="Línea 8" x2="33.471" transform="translate(36.244 40.98)" fill="none" stroke="#e5661d" stroke-miterlimit="10" stroke-width="7"/>
      <line id="Línea_9" data-name="Línea 9" x2="39.136" transform="translate(121.086 38.955)" fill="none" stroke="#e5661d" stroke-miterlimit="10" stroke-width="7"/>
    </g>
    <g id="Grupo_1991" data-name="Grupo 1991" transform="translate(571.404 23628.971) rotate(180)" opacity="0.99">
      <line id="Línea_6-2" data-name="Línea 6" x2="188.026" transform="translate(0 0)" fill="none" stroke="#e5661d" stroke-miterlimit="10" stroke-width="7"/>
      <line id="Línea_7-2" data-name="Línea 7" x2="188.026" transform="translate(0 80.862)" fill="none" stroke="#e5661d" stroke-miterlimit="10" stroke-width="7"/>
      <path id="Trazado_163-2" data-name="Trazado 163" d="M63.571,46.756H21.528L0,25.228,24.6.625H65.852l44.421,44.42h50.36l20.01-20.009L154.593,0H114.232" transform="translate(6.144 16.981)" fill="none" stroke="#e5661d" stroke-miterlimit="10" stroke-width="7"/>
      <line id="Línea_8-2" data-name="Línea 8" x2="33.471" transform="translate(36.244 40.98)" fill="none" stroke="#e5661d" stroke-miterlimit="10" stroke-width="7"/>
      <line id="Línea_9-2" data-name="Línea 9" x2="39.136" transform="translate(121.086 38.955)" fill="none" stroke="#e5661d" stroke-miterlimit="10" stroke-width="7"/>
    </g>
  </g>
</svg>
