<svg xmlns="http://www.w3.org/2000/svg" width="245.646" height="70.565" viewBox="0 0 245.646 70.565">
  <g id="Grupo_2012" data-name="Grupo 2012" transform="translate(-856.177 -15294.712)">
    <path id="Trazado_3755" data-name="Trazado 3755" d="M1252.329,671.993l6.525-12.963h20.39V640.415h-39.9l-5.65,12.963h-20.335l-5.653-12.963h-39.9V659.03h20.393l6.525,12.963h13.55v7.412h-13.55l-6.525,12.963h-20.393V710.98h39.9l5.652-12.96H1232.7l6.783,12.96h39.757V692.369h-20.39l-6.525-12.963h-13.551v-7.412Zm-3.483,13.064,6.525,12.964h18.221v7.308h-30.683l-6.782-12.96h-26.466l-5.652,12.96h-30.543v-7.308h18.223l6.526-12.964h15.72V666.342h-15.72l-6.526-12.963h-18.223v-7.312h30.543l5.652,12.963H1237.4l5.649-12.963h30.543v7.312h-18.221l-6.525,12.963h-15.72v18.715Z" transform="translate(-311.637 14654.297)" fill="#4f722d"/>
    <path id="Trazado_3796" data-name="Trazado 3796" d="M1252.329,671.993l6.525-12.963h20.39V640.415h-39.9l-5.65,12.963h-20.335l-5.653-12.963h-39.9V659.03h20.393l6.525,12.963h13.55v7.412h-13.55l-6.525,12.963h-20.393V710.98h39.9l5.652-12.96H1232.7l6.783,12.96h39.757V692.369h-20.39l-6.525-12.963h-13.551v-7.412Zm-3.483,13.064,6.525,12.964h18.221v7.308h-30.683l-6.782-12.96h-26.466l-5.652,12.96h-30.543v-7.308h18.223l6.526-12.964h15.72V666.342h-15.72l-6.526-12.963h-18.223v-7.312h30.543l5.652,12.963H1237.4l5.649-12.963h30.543v7.312h-18.221l-6.525,12.963h-15.72v18.715Z" transform="translate(-177.421 14654.297)" fill="#4f722d"/>
  </g>
</svg>
