<svg xmlns="http://www.w3.org/2000/svg" width="684.205" height="684.193" viewBox="0 0 684.205 684.193">
  <g id="Grupo_1967" data-name="Grupo 1967" transform="translate(-163.227 -236.176)">
    <path id="Trazado_1055" data-name="Trazado 1055" d="M771.507,441.176l4.34-1.824q-1.169-2.778-2.393-5.543l-4.306,1.9Q770.354,438.438,771.507,441.176Z" transform="translate(33.744 11.006)" fill="#e5661d"/>
    <path id="Trazado_1056" data-name="Trazado 1056" d="M769.49,448.016l4.373-1.745q-1.1-2.746-2.252-5.484l-4.34,1.824Q768.406,445.309,769.49,448.016Z" transform="translate(33.639 11.395)" fill="#e5661d"/>
    <path id="Trazado_1057" data-name="Trazado 1057" d="M767.313,454.724l4.4-1.665q-1.031-2.717-2.113-5.424l-4.373,1.745Q766.3,452.048,767.313,454.724Z" transform="translate(33.525 11.776)" fill="#e5661d"/>
    <path id="Trazado_1058" data-name="Trazado 1058" d="M764.981,461.3l4.434-1.584q-.964-2.686-1.979-5.362l-4.4,1.666Q764.031,458.652,764.981,461.3Z" transform="translate(33.403 12.15)" fill="#e5661d"/>
    <path id="Trazado_1059" data-name="Trazado 1059" d="M762.5,467.733l4.461-1.505q-.9-2.651-1.849-5.3l-4.433,1.586Q761.614,465.12,762.5,467.733Z" transform="translate(33.272 12.517)" fill="#e5661d"/>
    <path id="Trazado_1060" data-name="Trazado 1060" d="M784.2,477.565q.782,2.792,1.512,5.591l4.557-1.182q-.739-2.839-1.533-5.672Z" transform="translate(34.582 13.372)" fill="#e5661d"/>
    <path id="Trazado_1061" data-name="Trazado 1061" d="M778.394,473.557q.822,2.746,1.592,5.5l4.536-1.264q-.781-2.793-1.615-5.579Z" transform="translate(34.259 13.145)" fill="#e5661d"/>
    <path id="Trazado_1062" data-name="Trazado 1062" d="M772.537,469.714q.862,2.7,1.671,5.406l4.512-1.345q-.821-2.746-1.7-5.486Z" transform="translate(33.932 12.926)" fill="#e5661d"/>
    <path id="Trazado_1063" data-name="Trazado 1063" d="M766.632,466.036q.9,2.652,1.746,5.312,2.244-.712,4.488-1.425-.861-2.7-1.773-5.393Z" transform="translate(33.604 12.717)" fill="#e5661d"/>
    <path id="Trazado_1064" data-name="Trazado 1064" d="M794.507,480.554l-4.558,1.182q.739,2.839,1.427,5.683l4.578-1.1Q795.257,483.433,794.507,480.554Z" transform="translate(34.902 13.609)" fill="#e5661d"/>
    <path id="Trazado_1065" data-name="Trazado 1065" d="M788.267,493.769l4.6-1.021q-.635-2.847-1.323-5.691l-4.578,1.1Q787.64,490.961,788.267,493.769Z" transform="translate(34.736 13.971)" fill="#e5661d"/>
    <path id="Trazado_1066" data-name="Trazado 1066" d="M785.027,499.972l4.615-.939q-.575-2.811-1.2-5.618l-4.6,1.02Q784.46,497.2,785.027,499.972Z" transform="translate(34.562 14.326)" fill="#e5661d"/>
    <path id="Trazado_1067" data-name="Trazado 1067" d="M781.659,506.029l4.63-.858q-.515-2.773-1.081-5.544l-4.615.94Q781.152,503.3,781.659,506.029Z" transform="translate(34.381 14.672)" fill="#e5661d"/>
    <path id="Trazado_1068" data-name="Trazado 1068" d="M778.169,511.934l4.645-.776q-.458-2.735-.967-5.467l-4.63.857Q777.717,509.24,778.169,511.934Z" transform="translate(34.193 15.009)" fill="#e5661d"/>
    <path id="Trazado_1069" data-name="Trazado 1069" d="M774.562,517.69l4.657-.695q-.4-2.7-.855-5.39l-4.644.776Q774.165,515.035,774.562,517.69Z" transform="translate(33.998 15.339)" fill="#e5661d"/>
    <path id="Trazado_1070" data-name="Trazado 1070" d="M794.133,530.8q.271,2.822.491,5.641l4.695-.368q-.223-2.86-.5-5.722Z" transform="translate(35.135 16.382)" fill="#e5661d"/>
    <path id="Trazado_1071" data-name="Trazado 1071" d="M789.14,525.961q.317,2.779.583,5.559l4.688-.451q-.271-2.819-.591-5.639Z" transform="translate(34.857 16.108)" fill="#e5661d"/>
    <path id="Trazado_1072" data-name="Trazado 1072" d="M784.072,521.28q.359,2.738.671,5.477l4.679-.531q-.315-2.779-.681-5.558Z" transform="translate(34.575 15.843)" fill="#e5661d"/>
    <path id="Trazado_1073" data-name="Trazado 1073" d="M778.931,516.757q.4,2.7.758,5.393l4.669-.613q-.361-2.736-.77-5.474Z" transform="translate(34.289 15.587)" fill="#e5661d"/>
    <path id="Trazado_1074" data-name="Trazado 1074" d="M803.741,535.417l-4.7.368q.225,2.86.4,5.72l4.7-.286Q803.967,538.32,803.741,535.417Z" transform="translate(35.409 16.665)" fill="#e5661d"/>
    <path id="Trazado_1075" data-name="Trazado 1075" d="M795.261,547.106l4.706-.2q-.124-2.857-.3-5.716l-4.7.287Q795.14,544.29,795.261,547.106Z" transform="translate(35.182 16.986)" fill="#e5661d"/>
    <path id="Trazado_1076" data-name="Trazado 1076" d="M790.981,552.548l4.707-.123q-.071-2.814-.194-5.631l-4.7.2Q790.911,549.774,790.981,552.548Z" transform="translate(34.949 17.298)" fill="#e5661d"/>
    <path id="Trazado_1077" data-name="Trazado 1077" d="M786.605,557.83l4.708-.042q-.022-2.77-.094-5.543l-4.708.124Q786.582,555.1,786.605,557.83Z" transform="translate(34.711 17.602)" fill="#e5661d"/>
    <path id="Trazado_1078" data-name="Trazado 1078" d="M782.137,562.952l4.709.039q.024-2.725,0-5.456l-4.71.042Q782.161,560.266,782.137,562.952Z" transform="translate(34.467 17.897)" fill="#e5661d"/>
    <path id="Trazado_1079" data-name="Trazado 1079" d="M777.588,567.915q2.355.06,4.708.12.07-2.681.094-5.367l-4.708-.039Q777.658,565.273,777.588,567.915Z" transform="translate(34.214 18.18)" fill="#e5661d"/>
    <path id="Trazado_1080" data-name="Trazado 1080" d="M794.62,583.989q-.217,2.787-.484,5.567l4.687.443q.271-2.82.491-5.647Z" transform="translate(35.135 19.37)" fill="#e5661d"/>
    <path id="Trazado_1081" data-name="Trazado 1081" d="M790.53,578.436q-.167,2.752-.383,5.5l4.695.363q.219-2.787.388-5.579Z" transform="translate(34.913 19.061)" fill="#e5661d"/>
    <path id="Trazado_1082" data-name="Trazado 1082" d="M786.341,573.026q-.119,2.717-.284,5.428l4.7.283q.168-2.752.288-5.509Z" transform="translate(34.686 18.759)" fill="#e5661d"/>
    <path id="Trazado_1083" data-name="Trazado 1083" d="M782.057,567.759q-.07,2.682-.187,5.359l4.7.2q.119-2.717.191-5.44Z" transform="translate(34.452 18.466)" fill="#e5661d"/>
    <path id="Trazado_1084" data-name="Trazado 1084" d="M748.857,750.395l4.8,3.331a344.077,344.077,0,0,0,59.62-162.934l-5.819-.556A338.232,338.232,0,0,1,748.857,750.395Z" transform="translate(32.614 19.717)" fill="#e5661d"/>
    <path id="Trazado_1085" data-name="Trazado 1085" d="M771.779,586.889A300.546,300.546,0,0,1,719.7,729.213l4.8,3.332a306.382,306.382,0,0,0,53.1-145.1Z" transform="translate(30.99 19.531)" fill="#e5661d"/>
    <path id="Trazado_1086" data-name="Trazado 1086" d="M803.3,590.125q-2.344-.22-4.688-.443-.269,2.82-.587,5.633l4.68.525Q803.021,592.986,803.3,590.125Z" transform="translate(35.352 19.687)" fill="#e5661d"/>
    <path id="Trazado_1087" data-name="Trazado 1087" d="M792.949,600.059l4.67.6q.364-2.8.683-5.617l-4.68-.523Q793.311,597.293,792.949,600.059Z" transform="translate(35.069 19.956)" fill="#e5661d"/>
    <path id="Trazado_1088" data-name="Trazado 1088" d="M787.809,604.635l4.659.684q.407-2.755.768-5.52l-4.669-.6Q788.21,601.919,787.809,604.635Z" transform="translate(34.783 20.217)" fill="#e5661d"/>
    <path id="Trazado_1089" data-name="Trazado 1089" d="M782.6,609.044l4.646.764q.446-2.708.849-5.424l-4.659-.684Q783.044,606.376,782.6,609.044Z" transform="translate(34.493 20.467)" fill="#e5661d"/>
    <path id="Trazado_1090" data-name="Trazado 1090" d="M777.338,613.285l4.631.844q.486-2.659.928-5.326l-4.646-.763Q777.816,610.666,777.338,613.285Z" transform="translate(34.2 20.709)" fill="#e5661d"/>
    <path id="Trazado_1091" data-name="Trazado 1091" d="M772.015,617.358l4.616.921q.524-2.608,1-5.227L773,612.21Q772.53,614.788,772.015,617.358Z" transform="translate(33.903 20.941)" fill="#e5661d"/>
    <path id="Trazado_1092" data-name="Trazado 1092" d="M786.082,635.991q-.686,2.692-1.415,5.371l4.543,1.235q.741-2.719,1.436-5.45Z" transform="translate(34.608 22.266)" fill="#e5661d"/>
    <path id="Trazado_1093" data-name="Trazado 1093" d="M782.988,629.857q-.629,2.663-1.3,5.318l4.564,1.158q.684-2.692,1.323-5.4Z" transform="translate(34.442 21.924)" fill="#e5661d"/>
    <path id="Trazado_1094" data-name="Trazado 1094" d="M779.774,623.848q-.575,2.638-1.2,5.264l4.583,1.08q.63-2.667,1.214-5.342Z" transform="translate(34.269 21.589)" fill="#e5661d"/>
    <path id="Trazado_1095" data-name="Trazado 1095" d="M776.445,617.968q-.524,2.608-1.091,5.207l4.6,1q.577-2.637,1.108-5.285Z" transform="translate(34.089 21.262)" fill="#e5661d"/>
    <path id="Trazado_1096" data-name="Trazado 1096" d="M793.594,643.484l-4.544-1.235q-.739,2.717-1.527,5.423l4.521,1.312Q792.844,646.24,793.594,643.484Z" transform="translate(34.767 22.614)" fill="#e5661d"/>
    <path id="Trazado_1097" data-name="Trazado 1097" d="M781.73,651.46l4.5,1.389q.831-2.689,1.618-5.393l-4.521-1.313Q782.549,648.807,781.73,651.46Z" transform="translate(34.445 22.831)" fill="#e5661d"/>
    <path id="Trazado_1098" data-name="Trazado 1098" d="M775.9,655.075l4.474,1.466q.865-2.637,1.685-5.289-2.249-.7-4.5-1.39Q776.748,652.477,775.9,655.075Z" transform="translate(34.12 23.038)" fill="#e5661d"/>
    <path id="Trazado_1099" data-name="Trazado 1099" d="M770.026,658.518l4.449,1.542q.894-2.584,1.748-5.183l-4.474-1.465Q770.909,655.971,770.026,658.518Z" transform="translate(33.793 23.236)" fill="#e5661d"/>
    <path id="Trazado_1100" data-name="Trazado 1100" d="M764.124,661.789l4.421,1.618q.927-2.53,1.81-5.077l-4.449-1.542Q765.037,659.3,764.124,661.789Z" transform="translate(33.464 23.424)" fill="#e5661d"/>
    <path id="Trazado_1101" data-name="Trazado 1101" d="M758.194,664.887l4.394,1.693q.953-2.477,1.866-4.97-2.21-.809-4.421-1.617Q759.135,662.447,758.194,664.887Z" transform="translate(33.134 23.602)" fill="#e5661d"/>
    <path id="Trazado_1102" data-name="Trazado 1102" d="M768.914,685.622q-1.129,2.536-2.3,5.055l4.267,1.989q1.189-2.554,2.334-5.127Z" transform="translate(33.603 25.03)" fill="#e5661d"/>
    <path id="Trazado_1103" data-name="Trazado 1103" d="M766.9,679.055q-1.071,2.518-2.182,5.018l4.3,1.915q1.129-2.537,2.214-5.091Z" transform="translate(33.497 24.664)" fill="#e5661d"/>
    <path id="Trazado_1104" data-name="Trazado 1104" d="M764.747,672.593q-1.012,2.5-2.065,4.98l4.333,1.842q1.069-2.518,2.1-5.053Z" transform="translate(33.384 24.304)" fill="#e5661d"/>
    <path id="Trazado_1105" data-name="Trazado 1105" d="M762.456,666.241q-.954,2.478-1.951,4.938l4.363,1.767q1.012-2.5,1.98-5.013Z" transform="translate(33.262 23.95)" fill="#e5661d"/>
    <path id="Trazado_1106" data-name="Trazado 1106" d="M775.051,694.283l-4.267-1.989q-1.189,2.554-2.421,5.088l4.232,2.062Q773.845,696.873,775.051,694.283Z" transform="translate(33.7 25.401)" fill="#e5661d"/>
    <path id="Trazado_1107" data-name="Trazado 1107" d="M762.011,700.138l4.2,2.132q1.275-2.513,2.508-5.047l-4.233-2.062Q763.269,697.658,762.011,700.138Z" transform="translate(33.346 25.561)" fill="#e5661d"/>
    <path id="Trazado_1108" data-name="Trazado 1108" d="M755.648,702.718l4.161,2.2q1.3-2.456,2.557-4.934l-4.2-2.135Q756.929,700.3,755.648,702.718Z" transform="translate(32.992 25.711)" fill="#e5661d"/>
    <path id="Trazado_1109" data-name="Trazado 1109" d="M749.277,705.124q2.06,1.139,4.121,2.275,1.324-2.4,2.6-4.821l-4.16-2.205Q750.58,702.758,749.277,705.124Z" transform="translate(32.637 25.851)" fill="#e5661d"/>
    <path id="Trazado_1110" data-name="Trazado 1110" d="M742.9,707.356l4.082,2.347q1.344-2.343,2.648-4.709l-4.122-2.276Q744.227,705.048,742.9,707.356Z" transform="translate(32.282 25.982)" fill="#e5661d"/>
    <path id="Trazado_1111" data-name="Trazado 1111" d="M736.527,709.417l4.041,2.416q1.364-2.289,2.689-4.6l-4.082-2.346Q737.87,707.163,736.527,709.417Z" transform="translate(31.927 26.103)" fill="#e5661d"/>
    <path id="Trazado_1112" data-name="Trazado 1112" d="M743.542,731.728q-1.55,2.32-3.142,4.614l3.867,2.687q1.615-2.328,3.187-4.681Z" transform="translate(32.143 27.597)" fill="#e5661d"/>
    <path id="Trazado_1113" data-name="Trazado 1113" d="M742.686,724.892q-1.488,2.31-3.016,4.6l3.912,2.62q1.55-2.32,3.061-4.664Z" transform="translate(32.102 27.217)" fill="#e5661d"/>
    <path id="Trazado_1114" data-name="Trazado 1114" d="M741.67,718.139q-1.425,2.3-2.892,4.577l3.958,2.552q1.487-2.31,2.934-4.644Z" transform="translate(32.052 26.841)" fill="#e5661d"/>
    <path id="Trazado_1115" data-name="Trazado 1115" d="M740.5,711.473q-1.365,2.287-2.769,4.553l4,2.484q1.426-2.3,2.81-4.622Q742.518,712.682,740.5,711.473Z" transform="translate(31.994 26.469)" fill="#e5661d"/>
    <path id="Trazado_1116" data-name="Trazado 1116" d="M621.379,855.031l2.462,5.3a341.808,341.808,0,0,0,136.9-115.03l-4.8-3.331A335.957,335.957,0,0,1,621.379,855.031Z" transform="translate(25.514 28.168)" fill="#e5661d"/>
    <path id="Trazado_1117" data-name="Trazado 1117" d="M748.1,741.332l-3.867-2.688q-1.614,2.328-3.269,4.63l3.82,2.753Q746.466,743.693,748.1,741.332Z" transform="translate(32.174 27.982)" fill="#e5661d"/>
    <path id="Trazado_1118" data-name="Trazado 1118" d="M734.216,744.935l3.773,2.818q1.7-2.276,3.353-4.577l-3.821-2.752Q735.889,742.692,734.216,744.935Z" transform="translate(31.798 28.081)" fill="#e5661d"/>
    <path id="Trazado_1119" data-name="Trazado 1119" d="M727.483,746.422l3.724,2.883q1.712-2.217,3.385-4.459l-3.772-2.819Q729.17,744.238,727.483,746.422Z" transform="translate(31.423 28.171)" fill="#e5661d"/>
    <path id="Trazado_1120" data-name="Trazado 1120" d="M720.768,747.737q1.837,1.472,3.673,2.946,1.728-2.157,3.416-4.341l-3.724-2.883Q722.47,745.613,720.768,747.737Z" transform="translate(31.049 28.251)" fill="#e5661d"/>
    <path id="Trazado_1121" data-name="Trazado 1121" d="M714.075,748.88l3.622,3.01q1.742-2.1,3.444-4.224l-3.674-2.946Q715.79,746.814,714.075,748.88Z" transform="translate(30.677 28.321)" fill="#e5661d"/>
    <path id="Trazado_1122" data-name="Trazado 1122" d="M707.409,749.854l3.57,3.072q1.751-2.04,3.467-4.107l-3.622-3.01Q709.136,747.847,707.409,749.854Z" transform="translate(30.305 28.382)" fill="#e5661d"/>
    <path id="Trazado_1123" data-name="Trazado 1123" d="M710.388,773.151q-1.951,2.042-3.939,4.054l3.349,3.312q2.016-2.041,3.995-4.113Z" transform="translate(30.252 29.904)" fill="#e5661d"/>
    <path id="Trazado_1124" data-name="Trazado 1124" d="M710.759,766.228q-1.883,2.043-3.8,4.056l3.406,3.253q1.949-2.042,3.861-4.115Z" transform="translate(30.28 29.519)" fill="#e5661d"/>
    <path id="Trazado_1125" data-name="Trazado 1125" d="M710.953,759.362q-1.818,2.043-3.674,4.055l3.461,3.193q1.883-2.043,3.728-4.115Z" transform="translate(30.298 29.136)" fill="#e5661d"/>
    <path id="Trazado_1126" data-name="Trazado 1126" d="M710.972,752.558q-1.753,2.038-3.544,4.05l3.517,3.133q1.818-2.041,3.6-4.112Z" transform="translate(30.307 28.757)" fill="#e5661d"/>
    <path id="Trazado_1127" data-name="Trazado 1127" d="M709.836,780.128q-2.017,2.04-4.074,4.048l3.291,3.37q2.086-2.038,4.131-4.107Z" transform="translate(30.214 30.293)" fill="#e5661d"/>
    <path id="Trazado_1128" data-name="Trazado 1128" d="M698.769,784.7l3.23,3.427q2.095-1.977,4.152-3.984l-3.291-3.369Q700.834,782.749,698.769,784.7Z" transform="translate(29.824 30.328)" fill="#e5661d"/>
    <path id="Trazado_1129" data-name="Trazado 1129" d="M691.817,785.05l3.17,3.483q2.1-1.916,4.169-3.862l-3.231-3.426Q693.89,783.164,691.817,785.05Z" transform="translate(29.437 30.355)" fill="#e5661d"/>
    <path id="Trazado_1130" data-name="Trazado 1130" d="M684.909,785.235l3.109,3.538q2.111-1.854,4.184-3.74l-3.171-3.481Q686.989,783.41,684.909,785.235Z" transform="translate(29.053 30.372)" fill="#e5661d"/>
    <path id="Trazado_1131" data-name="Trazado 1131" d="M678.049,785.256l3.047,3.591q2.116-1.793,4.2-3.62l-3.109-3.536Q680.133,783.49,678.049,785.256Z" transform="translate(28.671 30.38)" fill="#e5661d"/>
    <path id="Trazado_1132" data-name="Trazado 1132" d="M671.241,785.114l2.983,3.643q2.12-1.732,4.2-3.5l-3.047-3.591Q673.329,783.408,671.241,785.114Z" transform="translate(28.291 30.378)" fill="#e5661d"/>
    <path id="Trazado_1133" data-name="Trazado 1133" d="M669.873,808.736q-2.328,1.7-4.69,3.37l2.717,3.846q2.4-1.691,4.759-3.419Q671.266,810.635,669.873,808.736Z" transform="translate(27.954 31.886)" fill="#e5661d"/>
    <path id="Trazado_1134" data-name="Trazado 1134" d="M671.537,801.925q-2.257,1.715-4.55,3.394,1.394,1.9,2.786,3.8,2.326-1.7,4.616-3.444Z" transform="translate(28.054 31.507)" fill="#e5661d"/>
    <path id="Trazado_1135" data-name="Trazado 1135" d="M673.007,795.141q-2.187,1.724-4.412,3.415,1.427,1.873,2.852,3.747,2.258-1.715,4.478-3.466Q674.467,796.988,673.007,795.141Z" transform="translate(28.144 31.129)" fill="#e5661d"/>
    <path id="Trazado_1136" data-name="Trazado 1136" d="M674.286,788.389q-2.12,1.732-4.276,3.432,1.46,1.847,2.918,3.7,2.188-1.725,4.341-3.484Z" transform="translate(28.223 30.753)" fill="#e5661d"/>
    <path id="Trazado_1137" data-name="Trazado 1137" d="M670.731,819.416l-2.719-3.845q-2.4,1.69-4.831,3.343l2.649,3.893Q668.3,821.131,670.731,819.416Z" transform="translate(27.842 32.266)" fill="#e5661d"/>
    <path id="Trazado_1138" data-name="Trazado 1138" d="M656.091,818.269l2.579,3.94q2.47-1.613,4.906-3.266l-2.65-3.892Q658.527,816.678,656.091,818.269Z" transform="translate(27.448 32.238)" fill="#e5661d"/>
    <path id="Trazado_1139" data-name="Trazado 1139" d="M649.067,817.463l2.507,3.985q2.472-1.55,4.908-3.141-1.291-1.97-2.579-3.94Q651.5,815.935,649.067,817.463Z" transform="translate(27.056 32.2)" fill="#e5661d"/>
    <path id="Trazado_1140" data-name="Trazado 1140" d="M642.111,816.5q1.219,2.014,2.436,4.029,2.472-1.488,4.907-3.018l-2.508-3.984Q644.547,815.031,642.111,816.5Z" transform="translate(26.669 32.153)" fill="#e5661d"/>
    <path id="Trazado_1141" data-name="Trazado 1141" d="M635.229,815.378l2.362,4.072q2.469-1.429,4.9-2.9l-2.436-4.029Q637.662,813.971,635.229,815.378Z" transform="translate(26.286 32.097)" fill="#e5661d"/>
    <path id="Trazado_1142" data-name="Trazado 1142" d="M628.421,814.1q1.145,2.057,2.289,4.114,2.466-1.369,4.9-2.776l-2.364-4.073Q630.85,812.756,628.421,814.1Z" transform="translate(25.907 32.033)" fill="#e5661d"/>
    <path id="Trazado_1143" data-name="Trazado 1143" d="M625.438,830.842q-2.608,1.327-5.251,2.613,1.029,2.117,2.06,4.233,2.682-1.305,5.329-2.651Z" transform="translate(25.448 33.117)" fill="#e5661d"/>
    <path id="Trazado_1144" data-name="Trazado 1144" d="M628.245,824.352q-2.537,1.349-5.107,2.658l2.137,4.194q2.61-1.327,5.185-2.7Z" transform="translate(25.612 32.756)" fill="#e5661d"/>
    <path id="Trazado_1145" data-name="Trazado 1145" d="M630.843,817.861q-2.465,1.37-4.965,2.7l2.214,4.155q2.537-1.349,5.04-2.737Q631.986,819.919,630.843,817.861Z" transform="translate(25.765 32.394)" fill="#e5661d"/>
    <path id="Trazado_1146" data-name="Trazado 1146" d="M526.538,243.528l.556-5.82a341.809,341.809,0,0,0-176.223,30.326l2.462,5.3A335.949,335.949,0,0,1,526.538,243.528Z" transform="translate(10.45 0)" fill="#e5661d"/>
    <path id="Trazado_1147" data-name="Trazado 1147" d="M529.179,273.04A304.9,304.9,0,0,0,250.327,402.479l4.8,3.332A299.066,299.066,0,0,1,528.623,278.859Z" transform="translate(4.851 1.977)" fill="#e5661d"/>
    <path id="Trazado_1148" data-name="Trazado 1148" d="M353.953,272.747l1.983,4.27.008,0q-2.751,1.278-5.467,2.6,1.031,2.116,2.061,4.233,2.681-1.3,5.4-2.565l-1.983-4.27q2.747-1.275,5.505-2.5l-1.9-4.306Q356.747,271.449,353.953,272.747Z" transform="translate(10.428 1.895)" fill="#e5661d"/>
    <path id="Trazado_1149" data-name="Trazado 1149" d="M360.877,274.413l1.9,4.306q2.727-1.207,5.464-2.36l-1.824-4.34Q363.643,273.189,360.877,274.413Z" transform="translate(11.007 1.996)" fill="#e5661d"/>
    <path id="Trazado_1150" data-name="Trazado 1150" d="M375.085,278.371,373.34,274q-2.746,1.1-5.484,2.252.912,2.171,1.824,4.341Q372.379,279.454,375.085,278.371Z" transform="translate(11.396 2.106)" fill="#e5661d"/>
    <path id="Trazado_1151" data-name="Trazado 1151" d="M381.794,280.542l-1.666-4.4q-2.717,1.031-5.424,2.113l1.745,4.374Q379.117,281.558,381.794,280.542Z" transform="translate(11.777 2.225)" fill="#e5661d"/>
    <path id="Trazado_1152" data-name="Trazado 1152" d="M388.366,282.869q-.793-2.217-1.586-4.434-2.686.964-5.361,1.98.831,2.2,1.665,4.4Q385.721,283.818,388.366,282.869Z" transform="translate(12.151 2.353)" fill="#e5661d"/>
    <path id="Trazado_1153" data-name="Trazado 1153" d="M394.8,285.345l-1.5-4.46q-2.653.9-5.3,1.847l1.586,4.434Q392.191,286.23,394.8,285.345Z" transform="translate(12.518 2.49)" fill="#e5661d"/>
    <path id="Trazado_1154" data-name="Trazado 1154" d="M404.634,263.634q2.792-.782,5.591-1.511-.59-2.28-1.182-4.559-2.839.74-5.672,1.533Z" transform="translate(13.373 1.191)" fill="#e5661d"/>
    <path id="Trazado_1155" data-name="Trazado 1155" d="M400.626,269.442q2.747-.822,5.5-1.592l-1.264-4.536q-2.793.782-5.579,1.615Q399.953,267.186,400.626,269.442Z" transform="translate(13.146 1.511)" fill="#e5661d"/>
    <path id="Trazado_1156" data-name="Trazado 1156" d="M396.783,275.3q2.7-.86,5.406-1.67-.673-2.257-1.345-4.513-2.746.822-5.487,1.7Z" transform="translate(12.928 1.835)" fill="#e5661d"/>
    <path id="Trazado_1157" data-name="Trazado 1157" d="M393.105,281.21q2.652-.9,5.312-1.746l-1.425-4.488q-2.7.861-5.391,1.772Z" transform="translate(12.718 2.161)" fill="#e5661d"/>
    <path id="Trazado_1158" data-name="Trazado 1158" d="M407.623,253.324q.591,2.279,1.182,4.557,2.839-.74,5.683-1.427l-1.1-4.578Q410.5,252.574,407.623,253.324Z" transform="translate(13.61 0.874)" fill="#e5661d"/>
    <path id="Trazado_1159" data-name="Trazado 1159" d="M414.126,256.283q.551,2.29,1.1,4.578,2.8-.678,5.611-1.3-.51-2.3-1.021-4.6Q416.97,255.6,414.126,256.283Z" transform="translate(13.973 1.046)" fill="#e5661d"/>
    <path id="Trazado_1160" data-name="Trazado 1160" d="M420.484,259.378l1.02,4.6q2.768-.618,5.537-1.184-.469-2.307-.939-4.614Q423.292,258.753,420.484,259.378Z" transform="translate(14.326 1.225)" fill="#e5661d"/>
    <path id="Trazado_1161" data-name="Trazado 1161" d="M433.1,266.154l-.858-4.63q-2.773.515-5.545,1.082.47,2.307.94,4.614Q430.365,266.663,433.1,266.154Z" transform="translate(14.673 1.412)" fill="#e5661d"/>
    <path id="Trazado_1162" data-name="Trazado 1162" d="M439,269.639l-.776-4.645q-2.735.459-5.467.967.429,2.315.857,4.63Q436.309,270.091,439,269.639Z" transform="translate(15.01 1.605)" fill="#e5661d"/>
    <path id="Trazado_1163" data-name="Trazado 1163" d="M444.759,273.242q-.347-2.329-.695-4.658-2.7.4-5.39.855.388,2.321.777,4.645Q442.1,273.639,444.759,273.242Z" transform="translate(15.34 1.805)" fill="#e5661d"/>
    <path id="Trazado_1164" data-name="Trazado 1164" d="M457.866,253.654q2.82-.269,5.639-.491-.183-2.347-.368-4.695-2.86.223-5.722.5Q457.64,251.31,457.866,253.654Z" transform="translate(16.383 0.685)" fill="#e5661d"/>
    <path id="Trazado_1165" data-name="Trazado 1165" d="M453.03,258.651q2.779-.317,5.559-.583-.225-2.344-.449-4.688-2.82.272-5.641.592Q452.765,256.311,453.03,258.651Z" transform="translate(16.11 0.958)" fill="#e5661d"/>
    <path id="Trazado_1166" data-name="Trazado 1166" d="M448.35,263.724q2.736-.361,5.477-.672-.268-2.339-.532-4.679-2.779.315-5.558.681Q448.043,261.39,448.35,263.724Z" transform="translate(15.844 1.236)" fill="#e5661d"/>
    <path id="Trazado_1167" data-name="Trazado 1167" d="M443.826,268.869q2.7-.4,5.394-.759-.306-2.334-.612-4.668-2.738.359-5.475.77Z" transform="translate(15.588 1.518)" fill="#e5661d"/>
    <path id="Trazado_1168" data-name="Trazado 1168" d="M462.487,244.041l.367,4.7q2.861-.223,5.72-.4-.142-2.35-.286-4.7Q465.389,243.815,462.487,244.041Z" transform="translate(16.666 0.416)" fill="#e5661d"/>
    <path id="Trazado_1169" data-name="Trazado 1169" d="M468.253,248.107q.144,2.351.287,4.7,2.819-.171,5.634-.292-.1-2.353-.2-4.705Q471.113,247.933,468.253,248.107Z" transform="translate(16.987 0.648)" fill="#e5661d"/>
    <path id="Trazado_1170" data-name="Trazado 1170" d="M473.862,252.277l.206,4.7q2.774-.119,5.549-.191-.062-2.353-.123-4.707Q476.679,252.156,473.862,252.277Z" transform="translate(17.299 0.886)" fill="#e5661d"/>
    <path id="Trazado_1171" data-name="Trazado 1171" d="M479.313,256.547q.062,2.355.123,4.708,2.733-.071,5.462-.094-.021-2.355-.041-4.708Q482.086,256.475,479.313,256.547Z" transform="translate(17.603 1.129)" fill="#e5661d"/>
    <path id="Trazado_1172" data-name="Trazado 1172" d="M490.021,265.625q.021-2.355.04-4.709-2.727-.024-5.457,0,.022,2.355.042,4.709Q487.335,265.6,490.021,265.625Z" transform="translate(17.897 1.377)" fill="#e5661d"/>
    <path id="Trazado_1173" data-name="Trazado 1173" d="M494.984,270.178q.06-2.353.121-4.707-2.682-.071-5.368-.095-.019,2.355-.039,4.708Q492.344,270.11,494.984,270.178Z" transform="translate(18.181 1.626)" fill="#e5661d"/>
    <path id="Trazado_1174" data-name="Trazado 1174" d="M511.058,253.167q2.787.218,5.566.483.222-2.344.444-4.687-2.82-.269-5.647-.491Q511.239,250.819,511.058,253.167Z" transform="translate(19.371 0.685)" fill="#e5661d"/>
    <path id="Trazado_1175" data-name="Trazado 1175" d="M505.505,257.252q2.752.166,5.5.382.182-2.347.363-4.695-2.787-.219-5.579-.389Q505.647,254.9,505.505,257.252Z" transform="translate(19.062 0.912)" fill="#e5661d"/>
    <path id="Trazado_1176" data-name="Trazado 1176" d="M500.095,261.435q2.718.119,5.428.284.143-2.35.283-4.7-2.752-.168-5.51-.289Q500.2,259.083,500.095,261.435Z" transform="translate(18.76 1.145)" fill="#e5661d"/>
    <path id="Trazado_1177" data-name="Trazado 1177" d="M494.828,265.714q2.682.071,5.359.187.1-2.352.2-4.7-2.717-.119-5.44-.19Q494.888,263.36,494.828,265.714Z" transform="translate(18.467 1.383)" fill="#e5661d"/>
    <path id="Trazado_1178" data-name="Trazado 1178" d="M677.464,302.056l3.331-4.806A344.065,344.065,0,0,0,517.86,237.63l-.556,5.82A338.21,338.21,0,0,1,677.464,302.056Z" transform="translate(19.719 0.081)" fill="#e5661d"/>
    <path id="Trazado_1179" data-name="Trazado 1179" d="M656.282,330.871l3.331-4.8a306.376,306.376,0,0,0-145.1-53.1l-.556,5.82A300.545,300.545,0,0,1,656.282,330.871Z" transform="translate(19.532 2.049)" fill="#e5661d"/>
    <path id="Trazado_1180" data-name="Trazado 1180" d="M517.195,244.5q-.22,2.345-.444,4.688,2.82.269,5.633.587.263-2.339.525-4.679Q520.055,244.769,517.195,244.5Z" transform="translate(19.688 0.463)" fill="#e5661d"/>
    <path id="Trazado_1181" data-name="Trazado 1181" d="M522.115,249.493q-.261,2.34-.523,4.68,2.771.314,5.537.674.3-2.334.6-4.669Q524.927,249.811,522.115,249.493Z" transform="translate(19.957 0.742)" fill="#e5661d"/>
    <path id="Trazado_1182" data-name="Trazado 1182" d="M526.868,254.564q-.3,2.336-.6,4.67,2.725.355,5.441.756.344-2.329.684-4.659Q529.633,254.925,526.868,254.564Z" transform="translate(20.217 1.024)" fill="#e5661d"/>
    <path id="Trazado_1183" data-name="Trazado 1183" d="M531.453,259.7q-.342,2.329-.684,4.659,2.678.4,5.344.836.382-2.323.764-4.646Q534.171,260.106,531.453,259.7Z" transform="translate(20.468 1.31)" fill="#e5661d"/>
    <path id="Trazado_1184" data-name="Trazado 1184" d="M535.871,264.909l-.763,4.647q2.627.434,5.246.913.423-2.317.843-4.632Q538.539,265.351,535.871,264.909Z" transform="translate(20.71 1.6)" fill="#e5661d"/>
    <path id="Trazado_1185" data-name="Trazado 1185" d="M544.427,275.8l.922-4.617q-2.608-.523-5.227-1-.422,2.315-.843,4.632Q541.857,275.279,544.427,275.8Z" transform="translate(20.942 1.893)" fill="#e5661d"/>
    <path id="Trazado_1186" data-name="Trazado 1186" d="M563.06,261.748q2.692.684,5.372,1.415.617-2.272,1.235-4.544-2.719-.741-5.45-1.435Q563.639,259.466,563.06,261.748Z" transform="translate(22.267 1.17)" fill="#e5661d"/>
    <path id="Trazado_1187" data-name="Trazado 1187" d="M556.926,264.836q2.665.63,5.317,1.3.58-2.282,1.158-4.564-2.692-.686-5.4-1.324Q557.465,262.544,556.926,264.836Z" transform="translate(21.925 1.341)" fill="#e5661d"/>
    <path id="Trazado_1188" data-name="Trazado 1188" d="M550.917,268.045q2.638.576,5.264,1.2l1.08-4.583q-2.667-.63-5.342-1.214Q551.417,265.745,550.917,268.045Z" transform="translate(21.59 1.519)" fill="#e5661d"/>
    <path id="Trazado_1189" data-name="Trazado 1189" d="M545.037,271.371q2.609.523,5.207,1.091l1-4.6q-2.637-.577-5.285-1.107Q545.5,269.062,545.037,271.371Z" transform="translate(21.263 1.703)" fill="#e5661d"/>
    <path id="Trazado_1190" data-name="Trazado 1190" d="M570.553,254.24l-1.235,4.543q2.717.741,5.423,1.527.656-2.26,1.312-4.522Q573.311,254.991,570.553,254.24Z" transform="translate(22.615 1.006)" fill="#e5661d"/>
    <path id="Trazado_1191" data-name="Trazado 1191" d="M574.524,259.989q-.657,2.261-1.313,4.522,2.666.776,5.317,1.6.7-2.249,1.389-4.5Q577.229,260.776,574.524,259.989Z" transform="translate(22.832 1.326)" fill="#e5661d"/>
    <path id="Trazado_1192" data-name="Trazado 1192" d="M578.321,265.783q-.7,2.25-1.389,4.5,2.613.809,5.212,1.662.734-2.238,1.466-4.474Q580.974,266.6,578.321,265.783Z" transform="translate(23.039 1.649)" fill="#e5661d"/>
    <path id="Trazado_1193" data-name="Trazado 1193" d="M581.946,271.618q-.732,2.236-1.465,4.473,2.559.841,5.106,1.723l1.542-4.448Q584.545,272.47,581.946,271.618Z" transform="translate(23.237 1.974)" fill="#e5661d"/>
    <path id="Trazado_1194" data-name="Trazado 1194" d="M585.4,277.487l-1.542,4.449q2.508.869,5,1.782l1.618-4.421Q587.946,278.37,585.4,277.487Z" transform="translate(23.425 2.301)" fill="#e5661d"/>
    <path id="Trazado_1195" data-name="Trazado 1195" d="M587.062,287.81q2.455.9,4.9,1.839.846-2.2,1.693-4.394-2.477-.953-4.97-1.866Z" transform="translate(23.603 2.629)" fill="#e5661d"/>
    <path id="Trazado_1196" data-name="Trazado 1196" d="M619.735,276.98q-2.554-1.189-5.128-2.334l-1.916,4.3q2.537,1.129,5.055,2.3Z" transform="translate(25.031 2.142)" fill="#e5661d"/>
    <path id="Trazado_1197" data-name="Trazado 1197" d="M613.057,278.837q-2.535-1.129-5.09-2.214l-1.842,4.333q2.518,1.071,5.018,2.182Q612.1,280.987,613.057,278.837Z" transform="translate(24.665 2.253)" fill="#e5661d"/>
    <path id="Trazado_1198" data-name="Trazado 1198" d="M606.484,280.838q-2.518-1.069-5.054-2.1l-1.767,4.363q2.5,1.012,4.979,2.066Q605.561,283.005,606.484,280.838Z" transform="translate(24.305 2.37)" fill="#e5661d"/>
    <path id="Trazado_1199" data-name="Trazado 1199" d="M593.31,285.392q2.478.955,4.938,1.951l1.769-4.363q-2.5-1.012-5.013-1.98Q594.158,283.2,593.31,285.392Z" transform="translate(23.951 2.496)" fill="#e5661d"/>
    <path id="Trazado_1200" data-name="Trazado 1200" d="M626.513,275.271q-2.571-1.249-5.161-2.456l-1.989,4.267q2.554,1.189,5.088,2.422Z" transform="translate(25.402 2.04)" fill="#e5661d"/>
    <path id="Trazado_1201" data-name="Trazado 1201" d="M627.207,285.856q1.066-2.1,2.134-4.2-2.515-1.275-5.048-2.507l-2.062,4.232Q624.729,284.6,627.207,285.856Z" transform="translate(25.562 2.393)" fill="#e5661d"/>
    <path id="Trazado_1202" data-name="Trazado 1202" d="M629.787,292.219l2.2-4.159q-2.456-1.3-4.934-2.558l-2.135,4.2Q627.365,290.938,629.787,292.219Z" transform="translate(25.712 2.747)" fill="#e5661d"/>
    <path id="Trazado_1203" data-name="Trazado 1203" d="M632.193,298.591q1.139-2.06,2.276-4.121-2.4-1.322-4.822-2.6-1.1,2.081-2.205,4.161Q629.827,297.287,632.193,298.591Z" transform="translate(25.852 3.101)" fill="#e5661d"/>
    <path id="Trazado_1204" data-name="Trazado 1204" d="M634.426,304.966q1.172-2.041,2.346-4.082-2.344-1.344-4.71-2.648l-2.276,4.122Q632.117,303.643,634.426,304.966Z" transform="translate(25.983 3.456)" fill="#e5661d"/>
    <path id="Trazado_1205" data-name="Trazado 1205" d="M636.486,311.342q1.207-2.022,2.415-4.042-2.288-1.363-4.6-2.689l-2.347,4.083Q634.232,310,636.486,311.342Z" transform="translate(26.104 3.811)" fill="#e5661d"/>
    <path id="Trazado_1206" data-name="Trazado 1206" d="M666.1,303.618q-2.328-1.614-4.681-3.187l-2.62,3.912q2.32,1.55,4.614,3.142Z" transform="translate(27.598 3.578)" fill="#e5661d"/>
    <path id="Trazado_1207" data-name="Trazado 1207" d="M659.178,304.3q-2.32-1.55-4.664-3.059l-2.553,3.957q2.31,1.487,4.6,3.015Z" transform="translate(27.218 3.623)" fill="#e5661d"/>
    <path id="Trazado_1208" data-name="Trazado 1208" d="M652.337,305.142q-2.31-1.489-4.644-2.934l-2.485,4q2.3,1.425,4.576,2.89Q651.061,307.119,652.337,305.142Z" transform="translate(26.841 3.677)" fill="#e5661d"/>
    <path id="Trazado_1209" data-name="Trazado 1209" d="M638.542,307.376q2.287,1.363,4.553,2.768,1.241-2,2.484-4-2.3-1.427-4.621-2.811Z" transform="translate(26.47 3.74)" fill="#e5661d"/>
    <path id="Trazado_1210" data-name="Trazado 1210" d="M782.1,433.486a335.958,335.958,0,0,1,29.808,173.2l5.821.556A342.38,342.38,0,0,0,672.374,294.125l-3.332,4.8A335.974,335.974,0,0,1,782.1,433.486Z" transform="translate(28.169 3.227)" fill="#e5661d"/>
    <path id="Trazado_1211" data-name="Trazado 1211" d="M754.555,445.193l0-.008,0-.009h0a304.362,304.362,0,0,0-102.428-121.9l-3.332,4.8A299.024,299.024,0,0,1,775.728,601.553l5.82.556a304.367,304.367,0,0,0-26.994-156.916Z" transform="translate(27.041 4.851)" fill="#e5661d"/>
    <path id="Trazado_1212" data-name="Trazado 1212" d="M673.1,303.1q-2.334-1.68-4.7-3.317l-2.688,3.867q2.329,1.615,4.63,3.271Z" transform="translate(27.984 3.543)" fill="#e5661d"/>
    <path id="Trazado_1213" data-name="Trazado 1213" d="M672,313.673q1.409-1.886,2.818-3.773-2.276-1.7-4.577-3.352l-2.752,3.819Q669.761,312,672,313.673Z" transform="translate(28.082 3.919)" fill="#e5661d"/>
    <path id="Trazado_1214" data-name="Trazado 1214" d="M673.491,320.406l2.883-3.723q-2.217-1.713-4.459-3.386l-2.819,3.772Q671.307,318.717,673.491,320.406Z" transform="translate(28.172 4.295)" fill="#e5661d"/>
    <path id="Trazado_1215" data-name="Trazado 1215" d="M674.806,327.12l2.946-3.674q-2.157-1.728-4.341-3.415l-2.883,3.723Q672.682,325.417,674.806,327.12Z" transform="translate(28.252 4.67)" fill="#e5661d"/>
    <path id="Trazado_1216" data-name="Trazado 1216" d="M675.949,333.811l3.01-3.622q-2.1-1.74-4.224-3.443l-2.946,3.673Q673.883,332.1,675.949,333.811Z" transform="translate(28.322 5.044)" fill="#e5661d"/>
    <path id="Trazado_1217" data-name="Trazado 1217" d="M676.923,340.475,680,336.906q-2.04-1.753-4.107-3.468l-3.009,3.622Q674.915,338.748,676.923,340.475Z" transform="translate(28.383 5.416)" fill="#e5661d"/>
    <path id="Trazado_1218" data-name="Trazado 1218" d="M707.586,338.1q-2.041-2.017-4.113-4l-3.253,3.406q2.043,1.949,4.054,3.938Z" transform="translate(29.905 5.454)" fill="#e5661d"/>
    <path id="Trazado_1219" data-name="Trazado 1219" d="M700.606,337.538q-2.043-1.951-4.115-3.861l-3.193,3.461q2.043,1.883,4.056,3.8Z" transform="translate(29.519 5.43)" fill="#e5661d"/>
    <path id="Trazado_1220" data-name="Trazado 1220" d="M693.679,337.152q-2.043-1.883-4.115-3.728l-3.133,3.516q2.042,1.818,4.055,3.674Z" transform="translate(29.137 5.416)" fill="#e5661d"/>
    <path id="Trazado_1221" data-name="Trazado 1221" d="M679.627,336.917q2.038,1.751,4.051,3.543l3.132-3.517q-2.041-1.816-4.112-3.6Z" transform="translate(28.758 5.411)" fill="#e5661d"/>
    <path id="Trazado_1222" data-name="Trazado 1222" d="M714.614,338.853q-2.036-2.086-4.106-4.132L707.2,338.07q2.039,2.016,4.047,4.073Z" transform="translate(30.294 5.488)" fill="#e5661d"/>
    <path id="Trazado_1223" data-name="Trazado 1223" d="M711.766,349.135l3.427-3.232q-1.976-2.095-3.984-4.152l-3.369,3.291Q709.819,347.069,711.766,349.135Z" transform="translate(30.33 5.879)" fill="#e5661d"/>
    <path id="Trazado_1224" data-name="Trazado 1224" d="M712.119,356.083l3.483-3.17q-1.915-2.1-3.862-4.168l-3.426,3.23Q710.233,354.01,712.119,356.083Z" transform="translate(30.356 6.269)" fill="#e5661d"/>
    <path id="Trazado_1225" data-name="Trazado 1225" d="M712.305,362.989l3.536-3.109q-1.852-2.111-3.74-4.184l-3.482,3.171Q710.479,360.91,712.305,362.989Z" transform="translate(30.373 6.656)" fill="#e5661d"/>
    <path id="Trazado_1226" data-name="Trazado 1226" d="M712.325,369.846l3.592-3.047q-1.793-2.116-3.619-4.2l-3.538,3.109Q710.559,367.762,712.325,369.846Z" transform="translate(30.381 7.041)" fill="#e5661d"/>
    <path id="Trazado_1227" data-name="Trazado 1227" d="M712.183,376.651l3.643-2.983q-1.733-2.12-3.5-4.2l-3.59,3.047Q710.476,374.563,712.183,376.651Z" transform="translate(30.379 7.423)" fill="#e5661d"/>
    <path id="Trazado_1228" data-name="Trazado 1228" d="M743.021,380.007q-1.691-2.4-3.42-4.758l-3.8,2.785q1.7,2.328,3.37,4.69Z" transform="translate(31.887 7.745)" fill="#e5661d"/>
    <path id="Trazado_1229" data-name="Trazado 1229" d="M736.184,378.131q-1.7-2.326-3.444-4.617l-3.747,2.853q1.715,2.256,3.394,4.55Z" transform="translate(31.508 7.648)" fill="#e5661d"/>
    <path id="Trazado_1230" data-name="Trazado 1230" d="M729.372,376.452q-1.715-2.258-3.466-4.478l-3.7,2.919q1.725,2.187,3.415,4.412Z" transform="translate(31.13 7.563)" fill="#e5661d"/>
    <path id="Trazado_1231" data-name="Trazado 1231" d="M715.458,373.61q1.733,2.12,3.432,4.275l3.7-2.918q-1.725-2.188-3.484-4.34Z" transform="translate(30.754 7.488)" fill="#e5661d"/>
    <path id="Trazado_1232" data-name="Trazado 1232" d="M749.876,382.083q-1.675-2.47-3.391-4.9L742.64,379.9q1.69,2.4,3.342,4.832Q747.928,383.406,749.876,382.083Z" transform="translate(32.267 7.853)" fill="#e5661d"/>
    <path id="Trazado_1233" data-name="Trazado 1233" d="M745.338,391.817l3.94-2.579q-1.614-2.47-3.266-4.9l-3.893,2.649Q743.747,389.382,745.338,391.817Z" transform="translate(32.238 8.251)" fill="#e5661d"/>
    <path id="Trazado_1234" data-name="Trazado 1234" d="M744.532,398.837l3.984-2.507q-1.55-2.472-3.141-4.908L741.436,394Q743,396.4,744.532,398.837Z" transform="translate(32.201 8.646)" fill="#e5661d"/>
    <path id="Trazado_1235" data-name="Trazado 1235" d="M743.568,405.789q2.014-1.219,4.03-2.437-1.49-2.47-3.018-4.907l-3.985,2.508Q742.1,403.355,743.568,405.789Z" transform="translate(32.154 9.037)" fill="#e5661d"/>
    <path id="Trazado_1236" data-name="Trazado 1236" d="M742.448,412.668l4.073-2.364q-1.43-2.469-2.9-4.9l-4.03,2.436Q741.04,410.236,742.448,412.668Z" transform="translate(32.098 9.424)" fill="#e5661d"/>
    <path id="Trazado_1237" data-name="Trazado 1237" d="M741.173,419.471l4.114-2.289q-1.368-2.465-2.775-4.9l-4.073,2.363Q739.825,417.042,741.173,419.471Z" transform="translate(32.034 9.808)" fill="#e5661d"/>
    <path id="Trazado_1238" data-name="Trazado 1238" d="M771.231,428.9q1.272,2.737,2.487,5.486l4.306-1.9q-1.242-2.806-2.538-5.6l-4.271,1.982.009.017q-1.275-2.748-2.594-5.459l-4.233,2.061q1.3,2.682,2.565,5.4Z" transform="translate(33.479 10.428)" fill="#e5661d"/>
    <path id="Trazado_1239" data-name="Trazado 1239" d="M764.757,425.656q-1.3-2.681-2.651-5.329l-4.2,2.138q1.327,2.608,2.613,5.252Z" transform="translate(33.118 10.255)" fill="#e5661d"/>
    <path id="Trazado_1240" data-name="Trazado 1240" d="M758.272,422.625q-1.327-2.608-2.7-5.183l-4.155,2.213q1.349,2.538,2.657,5.108Z" transform="translate(32.757 10.095)" fill="#e5661d"/>
    <path id="Trazado_1241" data-name="Trazado 1241" d="M744.931,417.053q1.368,2.466,2.7,4.965,2.077-1.107,4.155-2.214-1.348-2.537-2.738-5.04Z" transform="translate(32.395 9.946)" fill="#e5661d"/>
    <path id="Trazado_1242" data-name="Trazado 1242" d="M203.412,679.665l-4.341,1.824q1.17,2.777,2.394,5.543l4.306-1.9Q204.565,682.4,203.412,679.665Z" transform="translate(1.996 24.698)" fill="#e5661d"/>
    <path id="Trazado_1243" data-name="Trazado 1243" d="M205.423,672.817l-4.373,1.745q1.1,2.747,2.252,5.484l4.34-1.824Q206.506,675.524,205.423,672.817Z" transform="translate(2.106 24.317)" fill="#e5661d"/>
    <path id="Trazado_1244" data-name="Trazado 1244" d="M207.594,666.1l-4.4,1.665q1.031,2.717,2.113,5.424l4.373-1.745Q208.609,668.778,207.594,666.1Z" transform="translate(2.226 23.943)" fill="#e5661d"/>
    <path id="Trazado_1245" data-name="Trazado 1245" d="M209.921,659.522l-4.434,1.586q.964,2.684,1.979,5.361l4.4-1.666Q210.87,662.166,209.921,659.522Z" transform="translate(2.353 23.576)" fill="#e5661d"/>
    <path id="Trazado_1246" data-name="Trazado 1246" d="M212.4,653.078l-4.461,1.505q.9,2.653,1.848,5.3l4.433-1.586Q213.283,655.69,212.4,653.078Z" transform="translate(2.49 23.217)" fill="#e5661d"/>
    <path id="Trazado_1247" data-name="Trazado 1247" d="M190.686,643.249q-.782-2.792-1.512-5.591l-4.557,1.182q.739,2.839,1.533,5.672Z" transform="translate(1.191 22.359)" fill="#e5661d"/>
    <path id="Trazado_1248" data-name="Trazado 1248" d="M196.494,647.256q-.822-2.746-1.592-5.5l-4.536,1.264q.781,2.793,1.615,5.579Z" transform="translate(1.511 22.587)" fill="#e5661d"/>
    <path id="Trazado_1249" data-name="Trazado 1249" d="M202.354,651.1q-.861-2.7-1.671-5.405l-4.512,1.344q.822,2.746,1.7,5.487Z" transform="translate(1.835 22.806)" fill="#e5661d"/>
    <path id="Trazado_1250" data-name="Trazado 1250" d="M208.262,654.775q-.9-2.652-1.746-5.311l-4.488,1.424q.861,2.7,1.773,5.393Z" transform="translate(2.161 23.016)" fill="#e5661d"/>
    <path id="Trazado_1251" data-name="Trazado 1251" d="M180.375,640.26l4.559-1.182q-.741-2.838-1.427-5.682l-4.579,1.1Q179.625,637.382,180.375,640.26Z" transform="translate(0.874 22.121)" fill="#e5661d"/>
    <path id="Trazado_1252" data-name="Trazado 1252" d="M186.61,627.038l-4.6,1.02q.635,2.849,1.323,5.692l4.577-1.1Q187.236,629.845,186.61,627.038Z" transform="translate(1.046 21.767)" fill="#e5661d"/>
    <path id="Trazado_1253" data-name="Trazado 1253" d="M189.843,620.826l-4.614.938q.575,2.811,1.2,5.62l4.6-1.021Q190.409,623.6,189.843,620.826Z" transform="translate(1.225 21.421)" fill="#e5661d"/>
    <path id="Trazado_1254" data-name="Trazado 1254" d="M193.206,614.762l-4.631.857q.516,2.775,1.082,5.544l4.615-.94Q193.714,617.494,193.206,614.762Z" transform="translate(1.412 21.083)" fill="#e5661d"/>
    <path id="Trazado_1255" data-name="Trazado 1255" d="M196.691,608.847l-4.645.776q.458,2.736.967,5.468l4.63-.858Q197.141,611.541,196.691,608.847Z" transform="translate(1.605 20.754)" fill="#e5661d"/>
    <path id="Trazado_1256" data-name="Trazado 1256" d="M200.294,603.083l-4.658.695q.4,2.7.855,5.39l4.644-.776Q200.69,605.738,200.294,603.083Z" transform="translate(1.805 20.433)" fill="#e5661d"/>
    <path id="Trazado_1257" data-name="Trazado 1257" d="M180.706,589.978q-.271-2.82-.491-5.64l-4.7.368q.225,2.86.5,5.722Z" transform="translate(0.685 19.389)" fill="#e5661d"/>
    <path id="Trazado_1258" data-name="Trazado 1258" d="M185.7,594.812q-.317-2.779-.583-5.558l-4.688.449q.271,2.819.591,5.641Z" transform="translate(0.958 19.663)" fill="#e5661d"/>
    <path id="Trazado_1259" data-name="Trazado 1259" d="M190.775,599.493q-.359-2.738-.671-5.477l-4.679.531q.315,2.779.681,5.559Z" transform="translate(1.236 19.928)" fill="#e5661d"/>
    <path id="Trazado_1260" data-name="Trazado 1260" d="M195.92,604.017q-.4-2.7-.758-5.394l-4.669.613q.361,2.738.77,5.475Z" transform="translate(1.518 20.185)" fill="#e5661d"/>
    <path id="Trazado_1261" data-name="Trazado 1261" d="M171.093,585.356l4.695-.368q-.223-2.86-.4-5.72l-4.7.287Q170.867,582.455,171.093,585.356Z" transform="translate(0.416 19.107)" fill="#e5661d"/>
    <path id="Trazado_1262" data-name="Trazado 1262" d="M179.566,573.659l-4.7.2q.124,2.856.3,5.717l4.7-.286Q179.689,576.476,179.566,573.659Z" transform="translate(0.648 18.794)" fill="#e5661d"/>
    <path id="Trazado_1263" data-name="Trazado 1263" d="M183.842,568.208l-4.707.123q.071,2.815.193,5.631l4.705-.2Q183.913,570.982,183.842,568.208Z" transform="translate(0.886 18.491)" fill="#e5661d"/>
    <path id="Trazado_1264" data-name="Trazado 1264" d="M188.213,562.917l-4.709.042q.024,2.77.1,5.543l4.707-.124Q188.237,565.648,188.213,562.917Z" transform="translate(1.129 18.196)" fill="#e5661d"/>
    <path id="Trazado_1265" data-name="Trazado 1265" d="M192.677,557.788l-4.709-.039q-.025,2.725,0,5.456l4.709-.042Q192.651,560.474,192.677,557.788Z" transform="translate(1.377 17.908)" fill="#e5661d"/>
    <path id="Trazado_1266" data-name="Trazado 1266" d="M197.229,552.822l-4.707-.12q-.07,2.681-.094,5.367l4.708.039Q197.16,555.463,197.229,552.822Z" transform="translate(1.626 17.627)" fill="#e5661d"/>
    <path id="Trazado_1267" data-name="Trazado 1267" d="M180.219,536.78q.217-2.786.484-5.566l-4.688-.444q-.269,2.82-.491,5.647Z" transform="translate(0.685 16.406)" fill="#e5661d"/>
    <path id="Trazado_1268" data-name="Trazado 1268" d="M184.3,542.325q.168-2.753.383-5.5l-4.695-.363q-.219,2.787-.389,5.58Z" transform="translate(0.912 16.723)" fill="#e5661d"/>
    <path id="Trazado_1269" data-name="Trazado 1269" d="M188.487,547.727q.119-2.716.284-5.429l-4.7-.283q-.168,2.752-.288,5.511Z" transform="translate(1.145 17.032)" fill="#e5661d"/>
    <path id="Trazado_1270" data-name="Trazado 1270" d="M192.766,552.986q.07-2.681.187-5.358l-4.7-.2q-.119,2.719-.191,5.44Z" transform="translate(1.383 17.334)" fill="#e5661d"/>
    <path id="Trazado_1271" data-name="Trazado 1271" d="M229.108,378.682l-4.805-3.331a344.076,344.076,0,0,0-59.621,162.934l5.82.557A338.215,338.215,0,0,1,229.108,378.682Z" transform="translate(0.081 7.751)" fill="#e5661d"/>
    <path id="Trazado_1272" data-name="Trazado 1272" d="M205.84,541.248a300.548,300.548,0,0,1,52.084-142.324l-4.8-3.332a306.379,306.379,0,0,0-53.1,145.1Z" transform="translate(2.049 8.878)" fill="#e5661d"/>
    <path id="Trazado_1273" data-name="Trazado 1273" d="M171.548,530.651l4.687.443q.271-2.82.588-5.633l-4.68-.524Q171.822,527.79,171.548,530.651Z" transform="translate(0.463 16.081)" fill="#e5661d"/>
    <path id="Trazado_1274" data-name="Trazado 1274" d="M181.9,520.717l-4.67-.6q-.364,2.8-.683,5.617l4.68.525Q181.537,523.482,181.9,520.717Z" transform="translate(0.742 15.812)" fill="#e5661d"/>
    <path id="Trazado_1275" data-name="Trazado 1275" d="M187.042,516.14l-4.659-.684q-.407,2.755-.767,5.52l4.669.605Q186.64,518.856,187.042,516.14Z" transform="translate(1.024 15.553)" fill="#e5661d"/>
    <path id="Trazado_1276" data-name="Trazado 1276" d="M192.251,511.73l-4.646-.764q-.447,2.708-.849,5.424l4.659.684Q191.811,514.4,192.251,511.73Z" transform="translate(1.31 15.303)" fill="#e5661d"/>
    <path id="Trazado_1277" data-name="Trazado 1277" d="M197.52,507.489l-4.632-.843q-.486,2.659-.927,5.326l4.646.763Q197.043,510.107,197.52,507.489Z" transform="translate(1.6 15.062)" fill="#e5661d"/>
    <path id="Trazado_1278" data-name="Trazado 1278" d="M202.846,503.415l-4.617-.922q-.524,2.608-1,5.227l4.632.843Q202.331,505.984,202.846,503.415Z" transform="translate(1.893 14.831)" fill="#e5661d"/>
    <path id="Trazado_1279" data-name="Trazado 1279" d="M188.8,484.811q.686-2.694,1.415-5.372l-4.543-1.235q-.741,2.719-1.436,5.45Z" transform="translate(1.17 13.479)" fill="#e5661d"/>
    <path id="Trazado_1280" data-name="Trazado 1280" d="M191.888,490.938q.629-2.665,1.3-5.319l-4.564-1.157q-.684,2.69-1.323,5.4Z" transform="translate(1.341 13.827)" fill="#e5661d"/>
    <path id="Trazado_1281" data-name="Trazado 1281" d="M195.1,496.939q.576-2.637,1.2-5.264L191.71,490.6q-.63,2.665-1.215,5.342Z" transform="translate(1.519 14.169)" fill="#e5661d"/>
    <path id="Trazado_1282" data-name="Trazado 1282" d="M198.422,502.811q.524-2.608,1.091-5.207l-4.6-1q-.575,2.637-1.106,5.285Z" transform="translate(1.703 14.503)" fill="#e5661d"/>
    <path id="Trazado_1283" data-name="Trazado 1283" d="M181.291,477.323l4.544,1.235q.74-2.717,1.527-5.422l-4.522-1.313Q182.042,474.567,181.291,477.323Z" transform="translate(1.006 13.123)" fill="#e5661d"/>
    <path id="Trazado_1284" data-name="Trazado 1284" d="M193.158,469.346l-4.5-1.389q-.831,2.691-1.618,5.395l4.522,1.312Q192.337,472,193.158,469.346Z" transform="translate(1.326 12.908)" fill="#e5661d"/>
    <path id="Trazado_1285" data-name="Trazado 1285" d="M198.994,465.729l-4.474-1.466q-.865,2.638-1.685,5.289l4.5,1.39Q198.141,468.328,198.994,465.729Z" transform="translate(1.649 12.702)" fill="#e5661d"/>
    <path id="Trazado_1286" data-name="Trazado 1286" d="M204.866,462.284l-4.449-1.541q-.9,2.583-1.748,5.182l4.474,1.466Q203.982,464.831,204.866,462.284Z" transform="translate(1.974 12.506)" fill="#e5661d"/>
    <path id="Trazado_1287" data-name="Trazado 1287" d="M210.77,459.012l-4.421-1.618q-.926,2.531-1.809,5.077,2.225.773,4.449,1.542Q209.857,461.5,210.77,459.012Z" transform="translate(2.301 12.32)" fill="#e5661d"/>
    <path id="Trazado_1288" data-name="Trazado 1288" d="M216.7,455.912l-4.393-1.693q-.955,2.477-1.866,4.97l4.421,1.618Q215.76,458.352,216.7,455.912Z" transform="translate(2.629 12.143)" fill="#e5661d"/>
    <path id="Trazado_1289" data-name="Trazado 1289" d="M206,435.2q1.129-2.537,2.3-5.054-2.133-.993-4.267-1.989-1.189,2.556-2.334,5.128Z" transform="translate(2.142 10.692)" fill="#e5661d"/>
    <path id="Trazado_1290" data-name="Trazado 1290" d="M208.008,441.763q1.069-2.518,2.182-5.018l-4.3-1.915q-1.129,2.537-2.214,5.092Z" transform="translate(2.253 11.063)" fill="#e5661d"/>
    <path id="Trazado_1291" data-name="Trazado 1291" d="M210.157,448.219q1.012-2.5,2.065-4.979L207.89,441.4q-1.069,2.519-2.1,5.054Z" transform="translate(2.371 11.429)" fill="#e5661d"/>
    <path id="Trazado_1292" data-name="Trazado 1292" d="M212.444,454.565q.955-2.478,1.951-4.939l-4.363-1.767q-1.012,2.5-1.98,5.012Z" transform="translate(2.496 11.789)" fill="#e5661d"/>
    <path id="Trazado_1293" data-name="Trazado 1293" d="M199.866,426.546q2.135.995,4.268,1.989,1.188-2.552,2.421-5.088l-4.232-2.061Q201.072,423.956,199.866,426.546Z" transform="translate(2.04 10.314)" fill="#e5661d"/>
    <path id="Trazado_1294" data-name="Trazado 1294" d="M212.908,420.691l-4.2-2.134q-1.276,2.513-2.508,5.047l4.233,2.062Q211.65,423.169,212.908,420.691Z" transform="translate(2.393 10.157)" fill="#e5661d"/>
    <path id="Trazado_1295" data-name="Trazado 1295" d="M219.271,418.108l-4.16-2.205q-1.3,2.458-2.557,4.935l4.2,2.134Q217.99,420.53,219.271,418.108Z" transform="translate(2.747 10.009)" fill="#e5661d"/>
    <path id="Trazado_1296" data-name="Trazado 1296" d="M225.643,415.7l-4.121-2.276q-1.324,2.4-2.6,4.822l4.16,2.2Q224.34,418.064,225.643,415.7Z" transform="translate(3.101 9.871)" fill="#e5661d"/>
    <path id="Trazado_1297" data-name="Trazado 1297" d="M232.018,413.465l-4.082-2.347q-1.344,2.345-2.648,4.711l4.122,2.275Q230.693,415.774,232.018,413.465Z" transform="translate(3.456 9.743)" fill="#e5661d"/>
    <path id="Trazado_1298" data-name="Trazado 1298" d="M238.393,411.4l-4.041-2.415q-1.365,2.287-2.689,4.6l4.082,2.346Q237.05,413.655,238.393,411.4Z" transform="translate(3.811 9.624)" fill="#e5661d"/>
    <path id="Trazado_1299" data-name="Trazado 1299" d="M231.4,389.109q1.55-2.32,3.142-4.615l-3.867-2.687q-1.615,2.328-3.187,4.681Z" transform="translate(3.578 8.11)" fill="#e5661d"/>
    <path id="Trazado_1300" data-name="Trazado 1300" d="M232.247,395.942q1.488-2.312,3.016-4.6-1.957-1.309-3.912-2.62-1.55,2.32-3.061,4.665Z" transform="translate(3.623 8.495)" fill="#e5661d"/>
    <path id="Trazado_1301" data-name="Trazado 1301" d="M233.259,402.689q1.425-2.3,2.89-4.576l-3.957-2.552q-1.487,2.31-2.934,4.644Z" transform="translate(3.677 8.876)" fill="#e5661d"/>
    <path id="Trazado_1302" data-name="Trazado 1302" d="M234.427,409.35q1.365-2.287,2.769-4.552l-4-2.485q-1.425,2.3-2.81,4.622Z" transform="translate(3.74 9.252)" fill="#e5661d"/>
    <path id="Trazado_1303" data-name="Trazado 1303" d="M360.538,271.665l-2.462-5.3a341.812,341.812,0,0,0-136.9,115.03l4.8,3.332A335.956,335.956,0,0,1,360.538,271.665Z" transform="translate(3.227 1.681)" fill="#e5661d"/>
    <path id="Trazado_1304" data-name="Trazado 1304" d="M226.839,379.511l3.867,2.687q1.614-2.328,3.269-4.63l-3.821-2.753Q228.476,377.148,226.839,379.511Z" transform="translate(3.543 7.721)" fill="#e5661d"/>
    <path id="Trazado_1305" data-name="Trazado 1305" d="M240.724,375.9l-3.772-2.819q-1.7,2.276-3.353,4.577l3.821,2.753Q239.052,378.148,240.724,375.9Z" transform="translate(3.919 7.625)" fill="#e5661d"/>
    <path id="Trazado_1306" data-name="Trazado 1306" d="M247.457,374.414l-3.723-2.883q-1.713,2.217-3.386,4.46,1.888,1.408,3.773,2.818Q245.77,376.6,247.457,374.414Z" transform="translate(4.295 7.538)" fill="#e5661d"/>
    <path id="Trazado_1307" data-name="Trazado 1307" d="M254.171,373.1,250.5,370.15q-1.728,2.157-3.416,4.341l3.723,2.883Q252.47,375.222,254.171,373.1Z" transform="translate(4.67 7.461)" fill="#e5661d"/>
    <path id="Trazado_1308" data-name="Trazado 1308" d="M260.863,371.95q-1.812-1.5-3.622-3.01-1.742,2.1-3.444,4.224l3.674,2.946Q259.148,374.017,260.863,371.95Z" transform="translate(5.044 7.394)" fill="#e5661d"/>
    <path id="Trazado_1309" data-name="Trazado 1309" d="M267.527,370.973l-3.57-3.072q-1.753,2.04-3.467,4.107l3.622,3.01Q265.8,372.981,267.527,370.973Z" transform="translate(5.417 7.336)" fill="#e5661d"/>
    <path id="Trazado_1310" data-name="Trazado 1310" d="M264.565,347.69q1.951-2.041,3.939-4.053l-3.349-3.312q-2.017,2.04-3.995,4.112Z" transform="translate(5.454 5.8)" fill="#e5661d"/>
    <path id="Trazado_1311" data-name="Trazado 1311" d="M264.19,354.61q1.883-2.043,3.8-4.055-1.7-1.628-3.406-3.254-1.949,2.043-3.861,4.115Z" transform="translate(5.43 6.189)" fill="#e5661d"/>
    <path id="Trazado_1312" data-name="Trazado 1312" d="M263.991,361.472q1.818-2.041,3.674-4.055l-3.462-3.193q-1.883,2.043-3.729,4.115Z" transform="translate(5.416 6.574)" fill="#e5661d"/>
    <path id="Trazado_1313" data-name="Trazado 1313" d="M263.968,368.274q1.753-2.04,3.543-4.051L264,361.09q-1.818,2.041-3.6,4.112Z" transform="translate(5.411 6.956)" fill="#e5661d"/>
    <path id="Trazado_1314" data-name="Trazado 1314" d="M265.121,340.716q2.017-2.04,4.074-4.049L265.9,333.3q-2.086,2.038-4.131,4.107Z" transform="translate(5.488 5.409)" fill="#e5661d"/>
    <path id="Trazado_1315" data-name="Trazado 1315" d="M276.185,336.143l-3.23-3.426q-2.1,1.975-4.152,3.983l3.291,3.37Q274.121,338.091,276.185,336.143Z" transform="translate(5.879 5.376)" fill="#e5661d"/>
    <path id="Trazado_1316" data-name="Trazado 1316" d="M283.135,335.787l-3.17-3.482q-2.1,1.914-4.169,3.861l3.231,3.427Q281.062,337.672,283.135,335.787Z" transform="translate(6.269 5.353)" fill="#e5661d"/>
    <path id="Trazado_1317" data-name="Trazado 1317" d="M290.041,335.6l-3.109-3.538q-2.111,1.854-4.184,3.74,1.585,1.74,3.171,3.482Q287.96,337.423,290.041,335.6Z" transform="translate(6.656 5.34)" fill="#e5661d"/>
    <path id="Trazado_1318" data-name="Trazado 1318" d="M296.9,335.574l-3.047-3.592q-2.116,1.794-4.194,3.62,1.555,1.767,3.109,3.537Q294.814,337.34,296.9,335.574Z" transform="translate(7.041 5.335)" fill="#e5661d"/>
    <path id="Trazado_1319" data-name="Trazado 1319" d="M303.7,335.713l-2.983-3.644q-2.12,1.732-4.2,3.5l3.047,3.59Q301.616,337.42,303.7,335.713Z" transform="translate(7.423 5.34)" fill="#e5661d"/>
    <path id="Trazado_1320" data-name="Trazado 1320" d="M305.086,312.1q2.326-1.7,4.69-3.37l-2.718-3.846q-2.4,1.691-4.758,3.419Q303.694,310.2,305.086,312.1Z" transform="translate(7.745 3.826)" fill="#e5661d"/>
    <path id="Trazado_1321" data-name="Trazado 1321" d="M303.419,318.906q2.256-1.713,4.55-3.393l-2.786-3.8q-2.326,1.7-4.617,3.444Q301.991,317.033,303.419,318.906Z" transform="translate(7.648 4.207)" fill="#e5661d"/>
    <path id="Trazado_1322" data-name="Trazado 1322" d="M301.944,325.689q2.188-1.725,4.413-3.414l-2.852-3.748q-2.258,1.715-4.478,3.467Z" transform="translate(7.563 4.586)" fill="#e5661d"/>
    <path id="Trazado_1323" data-name="Trazado 1323" d="M300.662,332.439q2.12-1.732,4.276-3.432l-2.919-3.7q-2.187,1.726-4.34,3.485Z" transform="translate(7.488 4.964)" fill="#e5661d"/>
    <path id="Trazado_1324" data-name="Trazado 1324" d="M306.95,305.263q2.4-1.69,4.832-3.342-1.324-1.946-2.649-3.893-2.469,1.677-4.9,3.391Z" transform="translate(7.853 3.444)" fill="#e5661d"/>
    <path id="Trazado_1325" data-name="Trazado 1325" d="M318.869,302.562q-1.289-1.972-2.579-3.94-2.47,1.612-4.906,3.265,1.326,1.946,2.65,3.893Q316.433,304.151,318.869,302.562Z" transform="translate(8.251 3.478)" fill="#e5661d"/>
    <path id="Trazado_1326" data-name="Trazado 1326" d="M325.889,303.363l-2.508-3.985q-2.472,1.552-4.907,3.142l2.579,3.939Q323.454,304.893,325.889,303.363Z" transform="translate(8.646 3.52)" fill="#e5661d"/>
    <path id="Trazado_1327" data-name="Trazado 1327" d="M332.84,304.323l-2.436-4.028q-2.472,1.49-4.907,3.018l2.508,3.984Q330.406,305.792,332.84,304.323Z" transform="translate(9.037 3.571)" fill="#e5661d"/>
    <path id="Trazado_1328" data-name="Trazado 1328" d="M339.719,305.44l-2.363-4.073q-2.469,1.428-4.9,2.9l2.436,4.03Q337.287,306.847,339.719,305.44Z" transform="translate(9.424 3.63)" fill="#e5661d"/>
    <path id="Trazado_1329" data-name="Trazado 1329" d="M346.523,306.709l-2.289-4.114q-2.466,1.37-4.9,2.776l2.364,4.072Q344.094,308.058,346.523,306.709Z" transform="translate(9.807 3.699)" fill="#e5661d"/>
    <path id="Trazado_1330" data-name="Trazado 1330" d="M349.517,289.971q2.608-1.327,5.251-2.613l-2.06-4.232q-2.682,1.3-5.329,2.65Z" transform="translate(10.255 2.615)" fill="#e5661d"/>
    <path id="Trazado_1331" data-name="Trazado 1331" d="M346.707,296.462q2.537-1.349,5.107-2.656-1.067-2.1-2.137-4.2-2.609,1.327-5.184,2.7Z" transform="translate(10.095 2.976)" fill="#e5661d"/>
    <path id="Trazado_1332" data-name="Trazado 1332" d="M344.1,302.953q2.466-1.368,4.965-2.7l-2.214-4.155q-2.537,1.349-5.04,2.737Q342.961,300.895,344.1,302.953Z" transform="translate(9.946 3.337)" fill="#e5661d"/>
    <path id="Trazado_1333" data-name="Trazado 1333" d="M457.323,878.886l-.556,5.819A341.8,341.8,0,0,0,632.99,854.379l-2.462-5.3A335.973,335.973,0,0,1,457.323,878.886Z" transform="translate(16.347 34.132)" fill="#e5661d"/>
    <path id="Trazado_1334" data-name="Trazado 1334" d="M617.03,827.485A304.361,304.361,0,0,0,738.948,725.049l-4.8-3.331A299.068,299.068,0,0,1,460.653,848.669l-.556,5.819A304.362,304.362,0,0,0,617.03,827.485Z" transform="translate(16.533 27.04)" fill="#e5661d"/>
    <path id="Trazado_1335" data-name="Trazado 1335" d="M621.192,848.426l-1.983-4.271-.009,0q2.752-1.279,5.469-2.6-1.031-2.117-2.061-4.233-2.681,1.3-5.4,2.564l1.983,4.27q-2.747,1.276-5.505,2.5.951,2.154,1.9,4.306Q618.4,849.722,621.192,848.426Z" transform="translate(25.086 33.478)" fill="#e5661d"/>
    <path id="Trazado_1336" data-name="Trazado 1336" d="M614.077,846.392l-1.9-4.306q-2.727,1.207-5.464,2.359.911,2.171,1.824,4.341Q611.311,847.616,614.077,846.392Z" transform="translate(24.697 33.743)" fill="#e5661d"/>
    <path id="Trazado_1337" data-name="Trazado 1337" d="M599.861,842.429q.872,2.187,1.745,4.373,2.746-1.1,5.484-2.252-.914-2.169-1.825-4.34Q602.568,841.345,599.861,842.429Z" transform="translate(24.316 33.639)" fill="#e5661d"/>
    <path id="Trazado_1338" data-name="Trazado 1338" d="M593.145,840.252l1.666,4.4q2.716-1.031,5.424-2.113-.872-2.187-1.745-4.373Q595.822,839.236,593.145,840.252Z" transform="translate(23.942 33.525)" fill="#e5661d"/>
    <path id="Trazado_1339" data-name="Trazado 1339" d="M586.565,837.92q.793,2.217,1.586,4.434,2.684-.964,5.361-1.979l-1.665-4.4Q589.21,836.971,586.565,837.92Z" transform="translate(23.576 33.403)" fill="#e5661d"/>
    <path id="Trazado_1340" data-name="Trazado 1340" d="M580.121,835.438q.754,2.23,1.506,4.462,2.652-.9,5.3-1.849-.793-2.217-1.586-4.433Q582.733,834.552,580.121,835.438Z" transform="translate(23.217 33.271)" fill="#e5661d"/>
    <path id="Trazado_1341" data-name="Trazado 1341" d="M570.293,857.138q-2.793.782-5.591,1.512.591,2.278,1.182,4.558,2.84-.74,5.672-1.533Z" transform="translate(22.358 34.581)" fill="#e5661d"/>
    <path id="Trazado_1342" data-name="Trazado 1342" d="M574.3,851.333q-2.747.822-5.5,1.592l1.264,4.536q2.794-.781,5.579-1.615Q574.971,853.589,574.3,851.333Z" transform="translate(22.586 34.258)" fill="#e5661d"/>
    <path id="Trazado_1343" data-name="Trazado 1343" d="M578.142,845.476q-2.7.862-5.406,1.671.671,2.257,1.345,4.512,2.746-.822,5.486-1.7Z" transform="translate(22.805 33.932)" fill="#e5661d"/>
    <path id="Trazado_1344" data-name="Trazado 1344" d="M581.819,839.571q-2.653.9-5.312,1.746l1.425,4.488q2.7-.861,5.391-1.772Z" transform="translate(23.016 33.603)" fill="#e5661d"/>
    <path id="Trazado_1345" data-name="Trazado 1345" d="M567.3,867.446q-.591-2.279-1.182-4.559-2.84.74-5.683,1.428l1.1,4.578Q564.425,868.2,567.3,867.446Z" transform="translate(22.121 34.902)" fill="#e5661d"/>
    <path id="Trazado_1346" data-name="Trazado 1346" d="M560.793,864.48q-.551-2.288-1.1-4.577-2.8.676-5.611,1.3.51,2.3,1.021,4.6Q557.949,865.168,560.793,864.48Z" transform="translate(21.767 34.735)" fill="#e5661d"/>
    <path id="Trazado_1347" data-name="Trazado 1347" d="M554.427,861.379q-.51-2.3-1.021-4.6-2.767.615-5.537,1.183.47,2.305.94,4.613Q551.619,862.007,554.427,861.379Z" transform="translate(21.421 34.562)" fill="#e5661d"/>
    <path id="Trazado_1348" data-name="Trazado 1348" d="M541.805,854.6l.858,4.63q2.773-.514,5.544-1.081-.469-2.309-.938-4.615Q544.538,854.089,541.805,854.6Z" transform="translate(21.083 34.381)" fill="#e5661d"/>
    <path id="Trazado_1349" data-name="Trazado 1349" d="M535.891,851.108q.388,2.324.776,4.645,2.735-.458,5.467-.967-.429-2.315-.857-4.63Q538.585,850.656,535.891,851.108Z" transform="translate(20.754 34.192)" fill="#e5661d"/>
    <path id="Trazado_1350" data-name="Trazado 1350" d="M530.126,847.5q.348,2.329.695,4.658,2.7-.4,5.391-.855-.389-2.322-.777-4.644Q532.783,847.1,530.126,847.5Z" transform="translate(20.433 33.998)" fill="#e5661d"/>
    <path id="Trazado_1351" data-name="Trazado 1351" d="M517.02,867.072q-2.82.271-5.639.491.184,2.348.368,4.7,2.86-.225,5.721-.5Q517.246,869.415,517.02,867.072Z" transform="translate(19.389 35.135)" fill="#e5661d"/>
    <path id="Trazado_1352" data-name="Trazado 1352" d="M521.856,862.079q-2.779.317-5.559.583l.45,4.688q2.82-.271,5.641-.591Q522.122,864.419,521.856,862.079Z" transform="translate(19.662 34.857)" fill="#e5661d"/>
    <path id="Trazado_1353" data-name="Trazado 1353" d="M526.536,857.011q-2.738.359-5.477.671.266,2.339.532,4.679,2.779-.315,5.558-.681Q526.844,859.345,526.536,857.011Z" transform="translate(19.928 34.574)" fill="#e5661d"/>
    <path id="Trazado_1354" data-name="Trazado 1354" d="M531.06,851.87q-2.7.4-5.392.758.306,2.334.612,4.669,2.738-.361,5.475-.769Q531.407,854.2,531.06,851.87Z" transform="translate(20.184 34.288)" fill="#e5661d"/>
    <path id="Trazado_1355" data-name="Trazado 1355" d="M512.4,876.679l-.367-4.694q-2.862.223-5.72.4.143,2.35.286,4.7Q509.5,876.906,512.4,876.679Z" transform="translate(19.106 35.408)" fill="#e5661d"/>
    <path id="Trazado_1356" data-name="Trazado 1356" d="M506.624,872.609q-.144-2.352-.287-4.7-2.819.171-5.634.294.1,2.352.2,4.7Q503.764,872.782,506.624,872.609Z" transform="translate(18.794 35.181)" fill="#e5661d"/>
    <path id="Trazado_1357" data-name="Trazado 1357" d="M501.007,868.434q-.1-2.353-.206-4.705-2.774.12-5.549.191.062,2.354.124,4.707Q498.189,868.555,501.007,868.434Z" transform="translate(18.491 34.949)" fill="#e5661d"/>
    <path id="Trazado_1358" data-name="Trazado 1358" d="M495.547,864.158q-.062-2.353-.124-4.707-2.733.069-5.462.093.02,2.355.041,4.709Q492.773,864.23,495.547,864.158Z" transform="translate(18.196 34.71)" fill="#e5661d"/>
    <path id="Trazado_1359" data-name="Trazado 1359" d="M484.831,855.076q-.019,2.355-.039,4.71,2.727.024,5.457,0-.022-2.355-.042-4.709Q487.518,855.1,484.831,855.076Z" transform="translate(17.908 34.467)" fill="#e5661d"/>
    <path id="Trazado_1360" data-name="Trazado 1360" d="M479.866,850.528q-.062,2.353-.121,4.707,2.682.07,5.367.094.021-2.355.04-4.708Q482.506,850.6,479.866,850.528Z" transform="translate(17.627 34.213)" fill="#e5661d"/>
    <path id="Trazado_1361" data-name="Trazado 1361" d="M463.824,867.559q-2.787-.218-5.567-.483l-.443,4.687q2.82.27,5.647.491Q463.641,869.906,463.824,867.559Z" transform="translate(16.406 35.135)" fill="#e5661d"/>
    <path id="Trazado_1362" data-name="Trazado 1362" d="M469.369,863.469q-2.752-.168-5.5-.383-.182,2.346-.363,4.695,2.787.219,5.579.388Q469.227,865.819,469.369,863.469Z" transform="translate(16.723 34.913)" fill="#e5661d"/>
    <path id="Trazado_1363" data-name="Trazado 1363" d="M474.771,859.28q-2.717-.119-5.43-.284-.141,2.35-.282,4.7,2.752.168,5.51.288Q474.671,861.632,474.771,859.28Z" transform="translate(17.032 34.685)" fill="#e5661d"/>
    <path id="Trazado_1364" data-name="Trazado 1364" d="M480.03,855q-2.682-.071-5.359-.187-.1,2.352-.2,4.7,2.717.119,5.44.191Q479.97,857.349,480.03,855Z" transform="translate(17.333 34.452)" fill="#e5661d"/>
    <path id="Trazado_1365" data-name="Trazado 1365" d="M305.726,821.795,302.4,826.6a344.069,344.069,0,0,0,162.934,59.621l.556-5.82A338.208,338.208,0,0,1,305.726,821.795Z" transform="translate(7.75 32.613)" fill="#e5661d"/>
    <path id="Trazado_1366" data-name="Trazado 1366" d="M325.967,792.635l-3.332,4.8a306.392,306.392,0,0,0,145.1,53.1l.556-5.82A300.533,300.533,0,0,1,325.967,792.635Z" transform="translate(8.877 30.989)" fill="#e5661d"/>
    <path id="Trazado_1367" data-name="Trazado 1367" d="M457.694,876.234q.222-2.344.444-4.688-2.82-.269-5.633-.587-.263,2.339-.525,4.68Q454.835,875.961,457.694,876.234Z" transform="translate(16.081 35.351)" fill="#e5661d"/>
    <path id="Trazado_1368" data-name="Trazado 1368" d="M452.774,871.241q.261-2.34.524-4.68-2.771-.313-5.537-.673-.3,2.334-.6,4.669Q449.962,870.924,452.774,871.241Z" transform="translate(15.812 35.069)" fill="#e5661d"/>
    <path id="Trazado_1369" data-name="Trazado 1369" d="M448.02,866.174q.3-2.334.6-4.669-2.724-.356-5.44-.757-.344,2.33-.685,4.659Q445.256,865.814,448.02,866.174Z" transform="translate(15.553 34.782)" fill="#e5661d"/>
    <path id="Trazado_1370" data-name="Trazado 1370" d="M443.434,861.038q.34-2.33.684-4.659-2.678-.4-5.344-.836-.383,2.323-.764,4.646Q440.716,860.636,443.434,861.038Z" transform="translate(15.303 34.493)" fill="#e5661d"/>
    <path id="Trazado_1371" data-name="Trazado 1371" d="M439.015,855.836l.763-4.646q-2.627-.435-5.247-.914l-.842,4.633Q436.346,855.394,439.015,855.836Z" transform="translate(15.062 34.199)" fill="#e5661d"/>
    <path id="Trazado_1372" data-name="Trazado 1372" d="M430.459,844.954q-.461,2.309-.923,4.617,2.609.522,5.227,1,.423-2.315.844-4.631Q433.028,845.469,430.459,844.954Z" transform="translate(14.831 33.903)" fill="#e5661d"/>
    <path id="Trazado_1373" data-name="Trazado 1373" d="M411.854,859.02q-2.692-.684-5.371-1.414l-1.235,4.543q2.719.741,5.449,1.436Q411.274,861.3,411.854,859.02Z" transform="translate(13.478 34.608)" fill="#e5661d"/>
    <path id="Trazado_1374" data-name="Trazado 1374" d="M417.981,855.927q-2.665-.628-5.318-1.3-.58,2.282-1.158,4.563,2.692.686,5.4,1.324Q417.442,858.218,417.981,855.927Z" transform="translate(13.827 34.441)" fill="#e5661d"/>
    <path id="Trazado_1375" data-name="Trazado 1375" d="M423.982,852.713q-2.636-.575-5.263-1.2l-1.08,4.583q2.665.63,5.342,1.214Z" transform="translate(14.168 34.268)" fill="#e5661d"/>
    <path id="Trazado_1376" data-name="Trazado 1376" d="M429.856,849.383q-2.61-.523-5.207-1.091-.5,2.3-1,4.6,2.638.576,5.286,1.107Q429.394,851.692,429.856,849.383Z" transform="translate(14.503 34.089)" fill="#e5661d"/>
    <path id="Trazado_1377" data-name="Trazado 1377" d="M404.367,866.533l1.235-4.544q-2.717-.739-5.423-1.526-.656,2.26-1.312,4.521Q401.61,865.783,404.367,866.533Z" transform="translate(13.123 34.766)" fill="#e5661d"/>
    <path id="Trazado_1378" data-name="Trazado 1378" d="M400.395,860.786q.657-2.261,1.313-4.522-2.667-.774-5.318-1.6-.7,2.249-1.39,4.5Q397.691,860,400.395,860.786Z" transform="translate(12.907 34.444)" fill="#e5661d"/>
    <path id="Trazado_1379" data-name="Trazado 1379" d="M396.6,854.994q.7-2.25,1.389-4.5-2.613-.809-5.213-1.661-.731,2.236-1.465,4.474Q393.943,854.174,396.6,854.994Z" transform="translate(12.702 34.119)" fill="#e5661d"/>
    <path id="Trazado_1380" data-name="Trazado 1380" d="M392.968,849.162l1.466-4.474q-2.56-.841-5.106-1.723l-1.542,4.448Q390.37,848.31,392.968,849.162Z" transform="translate(12.506 33.792)" fill="#e5661d"/>
    <path id="Trazado_1381" data-name="Trazado 1381" d="M389.515,843.294l1.542-4.449q-2.508-.869-5-1.782l-1.618,4.421Q386.968,842.411,389.515,843.294Z" transform="translate(12.319 33.463)" fill="#e5661d"/>
    <path id="Trazado_1382" data-name="Trazado 1382" d="M387.851,832.972q-2.455-.9-4.9-1.839-.845,2.2-1.693,4.394,2.478.953,4.971,1.866Q387.041,835.183,387.851,832.972Z" transform="translate(12.142 33.133)" fill="#e5661d"/>
    <path id="Trazado_1383" data-name="Trazado 1383" d="M355.2,843.82q2.554,1.189,5.128,2.334l1.915-4.3q-2.537-1.129-5.054-2.3Z" transform="translate(10.691 33.602)" fill="#e5661d"/>
    <path id="Trazado_1384" data-name="Trazado 1384" d="M361.873,841.959q2.537,1.129,5.092,2.214l1.842-4.332q-2.518-1.071-5.018-2.182Z" transform="translate(11.063 33.496)" fill="#e5661d"/>
    <path id="Trazado_1385" data-name="Trazado 1385" d="M368.441,839.954q2.518,1.07,5.052,2.1.885-2.181,1.768-4.363-2.5-1.012-4.979-2.065Q369.363,837.787,368.441,839.954Z" transform="translate(11.428 33.383)" fill="#e5661d"/>
    <path id="Trazado_1386" data-name="Trazado 1386" d="M381.609,835.4q-2.478-.955-4.939-1.951-.884,2.181-1.768,4.363,2.5,1.012,5.013,1.98Q380.761,837.592,381.609,835.4Z" transform="translate(11.788 33.262)" fill="#e5661d"/>
    <path id="Trazado_1387" data-name="Trazado 1387" d="M348.429,845.534q2.57,1.251,5.161,2.456l1.989-4.267q-2.554-1.189-5.088-2.42Z" transform="translate(10.314 33.699)" fill="#e5661d"/>
    <path id="Trazado_1388" data-name="Trazado 1388" d="M347.734,834.95q-1.066,2.1-2.134,4.2,2.515,1.275,5.048,2.508l2.062-4.233Q350.211,836.208,347.734,834.95Z" transform="translate(10.156 33.346)" fill="#e5661d"/>
    <path id="Trazado_1389" data-name="Trazado 1389" d="M345.151,828.587l-2.2,4.161q2.456,1.3,4.934,2.557,1.067-2.1,2.133-4.2Q347.573,829.868,345.151,828.587Z" transform="translate(10.009 32.991)" fill="#e5661d"/>
    <path id="Trazado_1390" data-name="Trazado 1390" d="M342.743,822.216l-2.276,4.121q2.4,1.322,4.822,2.6l2.205-4.161Q345.108,823.519,342.743,822.216Z" transform="translate(9.871 32.636)" fill="#e5661d"/>
    <path id="Trazado_1391" data-name="Trazado 1391" d="M340.508,815.841q-1.172,2.042-2.346,4.082,2.344,1.344,4.709,2.647l2.276-4.122Q342.817,817.166,340.508,815.841Z" transform="translate(9.742 32.282)" fill="#e5661d"/>
    <path id="Trazado_1392" data-name="Trazado 1392" d="M338.445,809.466q-1.207,2.02-2.415,4.041,2.288,1.363,4.6,2.689l2.346-4.082Q340.7,810.809,338.445,809.466Z" transform="translate(9.623 31.927)" fill="#e5661d"/>
    <path id="Trazado_1393" data-name="Trazado 1393" d="M308.852,817.206q2.328,1.615,4.681,3.187l2.62-3.912q-2.32-1.55-4.614-3.142Z" transform="translate(8.11 32.142)" fill="#e5661d"/>
    <path id="Trazado_1394" data-name="Trazado 1394" d="M315.768,816.521q2.32,1.55,4.664,3.06l2.553-3.957q-2.31-1.487-4.6-3.015Q317.077,814.565,315.768,816.521Z" transform="translate(8.495 32.102)" fill="#e5661d"/>
    <path id="Trazado_1395" data-name="Trazado 1395" d="M322.6,815.674q2.31,1.488,4.644,2.935,1.241-2,2.484-4-2.3-1.425-4.575-2.891Z" transform="translate(8.876 32.052)" fill="#e5661d"/>
    <path id="Trazado_1396" data-name="Trazado 1396" d="M336.394,813.436q-2.288-1.365-4.553-2.769l-2.485,4q2.3,1.425,4.622,2.81Z" transform="translate(9.252 31.993)" fill="#e5661d"/>
    <path id="Trazado_1397" data-name="Trazado 1397" d="M200.388,703.484a335.968,335.968,0,0,1-29.81-173.2l-5.82-.556A342.384,342.384,0,0,0,310.116,842.846l3.331-4.8A335.96,335.96,0,0,1,200.388,703.484Z" transform="translate(0 16.348)" fill="#e5661d"/>
    <path id="Trazado_1398" data-name="Trazado 1398" d="M227.086,689.968l0,.009,0,.008h0a304.359,304.359,0,0,0,102.428,121.9l3.332-4.8A299.028,299.028,0,0,1,205.911,533.608l-5.819-.556a304.362,304.362,0,0,0,26.994,156.916Z" transform="translate(1.977 16.533)" fill="#e5661d"/>
    <path id="Trazado_1399" data-name="Trazado 1399" d="M301.858,817.726q2.334,1.678,4.7,3.316l2.688-3.867q-2.329-1.614-4.63-3.269Q303.234,815.815,301.858,817.726Z" transform="translate(7.72 32.174)" fill="#e5661d"/>
    <path id="Trazado_1400" data-name="Trazado 1400" d="M302.948,807.155l-2.819,3.773q2.275,1.7,4.578,3.353l2.752-3.821Q305.19,808.828,302.948,807.155Z" transform="translate(7.624 31.798)" fill="#e5661d"/>
    <path id="Trazado_1401" data-name="Trazado 1401" d="M301.458,800.422q-1.443,1.861-2.883,3.723,2.217,1.712,4.459,3.385l2.819-3.772Q303.642,802.11,301.458,800.422Z" transform="translate(7.537 31.423)" fill="#e5661d"/>
    <path id="Trazado_1402" data-name="Trazado 1402" d="M300.14,793.707l-2.946,3.673q2.157,1.728,4.341,3.416l2.882-3.724Q302.265,795.409,300.14,793.707Z" transform="translate(7.461 31.049)" fill="#e5661d"/>
    <path id="Trazado_1403" data-name="Trazado 1403" d="M298.994,787.014l-3.01,3.622q2.1,1.742,4.224,3.444l2.946-3.674Q301.061,788.729,298.994,787.014Z" transform="translate(7.393 30.676)" fill="#e5661d"/>
    <path id="Trazado_1404" data-name="Trazado 1404" d="M298.017,780.348l-3.072,3.57q2.04,1.752,4.107,3.467l3.009-3.622Q300.025,782.075,298.017,780.348Z" transform="translate(7.335 30.305)" fill="#e5661d"/>
    <path id="Trazado_1405" data-name="Trazado 1405" d="M267.368,782.736q2.041,2.016,4.113,3.995l3.253-3.405q-2.043-1.949-4.054-3.938Z" transform="translate(5.8 30.251)" fill="#e5661d"/>
    <path id="Trazado_1406" data-name="Trazado 1406" d="M274.345,783.3q2.041,1.951,4.115,3.862l3.193-3.461q-2.043-1.883-4.056-3.8Z" transform="translate(6.188 30.28)" fill="#e5661d"/>
    <path id="Trazado_1407" data-name="Trazado 1407" d="M281.268,783.68q2.043,1.883,4.115,3.728l3.132-3.515q-2.041-1.818-4.054-3.674Z" transform="translate(6.574 30.298)" fill="#e5661d"/>
    <path id="Trazado_1408" data-name="Trazado 1408" d="M295.317,783.911q-2.038-1.753-4.051-3.544-1.566,1.759-3.133,3.516,2.043,1.818,4.112,3.6Z" transform="translate(6.956 30.306)" fill="#e5661d"/>
    <path id="Trazado_1409" data-name="Trazado 1409" d="M260.342,781.992q2.036,2.086,4.106,4.131l3.312-3.348q-2.04-2.017-4.047-4.074Z" transform="translate(5.408 30.213)" fill="#e5661d"/>
    <path id="Trazado_1410" data-name="Trazado 1410" d="M263.187,771.708l-3.427,3.23q1.976,2.1,3.984,4.152l3.369-3.291Q265.134,773.773,263.187,771.708Z" transform="translate(5.376 29.824)" fill="#e5661d"/>
    <path id="Trazado_1411" data-name="Trazado 1411" d="M262.83,764.756l-3.482,3.17q1.914,2.1,3.862,4.169l3.426-3.232Q264.716,766.829,262.83,764.756Z" transform="translate(5.353 29.437)" fill="#e5661d"/>
    <path id="Trazado_1412" data-name="Trazado 1412" d="M262.641,757.848l-3.537,3.109q1.853,2.111,3.739,4.184l3.483-3.172Q264.467,759.927,262.641,757.848Z" transform="translate(5.339 29.052)" fill="#e5661d"/>
    <path id="Trazado_1413" data-name="Trazado 1413" d="M262.616,750.988l-3.59,3.047q1.793,2.115,3.619,4.2l3.538-3.109Q264.382,753.072,262.616,750.988Z" transform="translate(5.335 28.67)" fill="#e5661d"/>
    <path id="Trazado_1414" data-name="Trazado 1414" d="M262.756,744.18l-3.643,2.983q1.732,2.12,3.5,4.2l3.592-3.047Q264.463,746.268,262.756,744.18Z" transform="translate(5.34 28.291)" fill="#e5661d"/>
    <path id="Trazado_1415" data-name="Trazado 1415" d="M231.925,740.84q1.69,2.4,3.419,4.759l3.8-2.786q-1.7-2.328-3.371-4.691Z" transform="translate(3.826 27.953)" fill="#e5661d"/>
    <path id="Trazado_1416" data-name="Trazado 1416" d="M238.76,742.712q1.7,2.326,3.444,4.617l3.747-2.853q-1.715-2.257-3.394-4.55Z" transform="translate(4.206 28.054)" fill="#e5661d"/>
    <path id="Trazado_1417" data-name="Trazado 1417" d="M245.571,744.387q1.715,2.258,3.466,4.478l3.7-2.918q-1.724-2.188-3.415-4.413Z" transform="translate(4.586 28.143)" fill="#e5661d"/>
    <path id="Trazado_1418" data-name="Trazado 1418" d="M259.483,747.225q-1.732-2.12-3.432-4.276l-3.7,2.919q1.724,2.187,3.484,4.34Z" transform="translate(4.964 28.222)" fill="#e5661d"/>
    <path id="Trazado_1419" data-name="Trazado 1419" d="M225.071,738.769q1.675,2.469,3.391,4.9l3.845-2.718q-1.691-2.4-3.342-4.831Z" transform="translate(3.444 27.842)" fill="#e5661d"/>
    <path id="Trazado_1420" data-name="Trazado 1420" d="M229.6,729.03l-3.94,2.579q1.614,2.471,3.266,4.906l3.892-2.65Q231.2,731.466,229.6,729.03Z" transform="translate(3.477 27.447)" fill="#e5661d"/>
    <path id="Trazado_1421" data-name="Trazado 1421" d="M230.406,722.006l-3.984,2.508q1.55,2.47,3.141,4.907l3.94-2.579Q231.935,724.442,230.406,722.006Z" transform="translate(3.519 27.056)" fill="#e5661d"/>
    <path id="Trazado_1422" data-name="Trazado 1422" d="M231.367,715.05l-4.03,2.436q1.49,2.472,3.018,4.907l3.985-2.508Q232.834,717.486,231.367,715.05Z" transform="translate(3.57 26.668)" fill="#e5661d"/>
    <path id="Trazado_1423" data-name="Trazado 1423" d="M232.483,708.168l-4.073,2.363q1.428,2.469,2.9,4.9l4.03-2.435Q233.891,710.6,232.483,708.168Z" transform="translate(3.63 26.285)" fill="#e5661d"/>
    <path id="Trazado_1424" data-name="Trazado 1424" d="M233.753,701.36l-4.114,2.289q1.368,2.466,2.775,4.9l4.073-2.364Q235.1,703.789,233.753,701.36Z" transform="translate(3.698 25.906)" fill="#e5661d"/>
    <path id="Trazado_1425" data-name="Trazado 1425" d="M204.053,692.131q-1.272-2.738-2.487-5.487l-4.306,1.9q1.24,2.806,2.538,5.6l4.27-1.981-.007-.018q1.275,2.748,2.594,5.459l4.233-2.061q-1.3-2.681-2.565-5.4Z" transform="translate(1.895 25.087)" fill="#e5661d"/>
    <path id="Trazado_1426" data-name="Trazado 1426" d="M210.169,695.186q1.3,2.682,2.651,5.329l4.2-2.138q-1.327-2.608-2.613-5.251Z" transform="translate(2.614 25.448)" fill="#e5661d"/>
    <path id="Trazado_1427" data-name="Trazado 1427" d="M216.654,698.213q1.327,2.609,2.7,5.184l4.155-2.214q-1.348-2.537-2.656-5.108Z" transform="translate(2.975 25.612)" fill="#e5661d"/>
    <path id="Trazado_1428" data-name="Trazado 1428" d="M230,703.782q-1.368-2.466-2.7-4.965l-4.156,2.214q1.349,2.537,2.738,5.04Z" transform="translate(3.337 25.764)" fill="#e5661d"/>
  </g>
</svg>
