<?xml version="1.0" encoding="utf-8"?>
<!-- Generator: Adobe Illustrator 24.0.1, SVG Export Plug-In . SVG Version: 6.00 Build 0)  -->
<svg version="1.1" xmlns="http://www.w3.org/2000/svg" xmlns:xlink="http://www.w3.org/1999/xlink" x="0px" y="0px"
	 viewBox="0 0 303.1 194.2" style="enable-background:new 0 0 303.1 194.2;" xml:space="preserve">
<style type="text/css">
	.st0{display:none;fill:#00341E;}
	.st1{fill:#DAC560;}
	.st2{opacity:0.56;fill:#849A5C;}
	.st3{opacity:0.3;}
	.st4{fill:none;stroke:#00341E;stroke-miterlimit:10;}
	.st5{fill:#849A5C;}
	.st6{fill:#00341E;}
	.st7{fill:#FAF5E9;}
	.st8{fill:#D6A43A;}
	.st9{fill:none;stroke:#00341E;stroke-width:2.5372;stroke-miterlimit:10;}
	.st10{fill:#72BFC0;}
	.st11{fill:none;stroke:#72BFC0;stroke-width:1.2686;stroke-linecap:round;stroke-linejoin:round;stroke-miterlimit:10;}
	.st12{fill:#1F1719;}
	.st13{fill:#D5378B;stroke:#FFFFFF;stroke-width:0.6301;stroke-miterlimit:10;}
	.st14{fill:none;stroke:#2F8F77;stroke-width:1.2686;stroke-linecap:round;stroke-linejoin:round;stroke-miterlimit:10;}
	.st15{fill:none;stroke:#1F1719;stroke-width:1.2686;stroke-linecap:round;stroke-linejoin:round;stroke-miterlimit:10;}
	.st16{fill:none;stroke:#23559E;stroke-width:1.2686;stroke-linecap:round;stroke-linejoin:round;stroke-miterlimit:10;}
	.st17{fill:none;stroke:#D5378B;stroke-width:1.2686;stroke-linecap:round;stroke-linejoin:round;stroke-miterlimit:10;}
	.st18{fill:none;stroke:#E56324;stroke-width:1.2686;stroke-linecap:round;stroke-linejoin:round;stroke-miterlimit:10;}
	.st19{fill:#23559E;}
	.st20{fill:#D5378B;}
	.st21{fill:#2F8F77;}
	.st22{fill:#E56324;}
	.st23{fill:#B2A046;}
	.st24{fill:none;stroke:#0D0E0A;stroke-width:0.4757;stroke-linecap:round;stroke-miterlimit:10;}
	.st25{fill:none;stroke:#2F8F77;stroke-width:1.1601;stroke-linecap:round;stroke-linejoin:round;stroke-miterlimit:10;}
	.st26{fill:#00341E;stroke:#1F1719;stroke-width:1.1601;stroke-linecap:round;stroke-linejoin:round;stroke-miterlimit:10;}
	.st27{fill:none;stroke:#23559E;stroke-width:1.1601;stroke-linecap:round;stroke-linejoin:round;stroke-miterlimit:10;}
	.st28{fill:none;stroke:#D5378B;stroke-width:1.1601;stroke-linecap:round;stroke-linejoin:round;stroke-miterlimit:10;}
	.st29{fill:none;stroke:#E56324;stroke-width:1.1601;stroke-linecap:round;stroke-linejoin:round;stroke-miterlimit:10;}
	.st30{fill:none;stroke:#0D0E0A;stroke-width:0.5801;stroke-linecap:round;stroke-linejoin:round;stroke-miterlimit:10;}
	.st31{fill:none;stroke:#00341E;stroke-width:0.1586;stroke-miterlimit:10;}
	.st32{fill:none;stroke:#00341E;stroke-width:0.1586;stroke-miterlimit:10;stroke-dasharray:8.1751,8.1751;}
	.st33{fill:none;stroke:#00341E;stroke-width:0.1586;stroke-miterlimit:10;stroke-dasharray:7.3375,7.3375;}
	.st34{fill:none;stroke:#00341E;stroke-width:0.1586;stroke-miterlimit:10;stroke-dasharray:7.3374,7.3374;}
	.st35{fill:none;stroke:#00341E;stroke-width:0.1586;stroke-miterlimit:10;stroke-dasharray:7.3567,7.3567;}
	.st36{fill:#0D0E0A;}
	.st37{fill:#386F2E;}
	.st38{fill:#9E398C;}
	.st39{fill:#F8C434;}
	.st40{fill:#00A4AA;}
	.st41{fill:#BB1825;}
	.st42{fill:#21B4E6;}
	.st43{fill:#672574;}
	.st44{clip-path:url(#SVGID_2_);}
	.st45{clip-path:url(#SVGID_4_);}
	.st46{fill:#FFFFFF;stroke:#00341E;stroke-width:7;stroke-miterlimit:10;}
	.st47{fill:#FFFFFF;}
	.st48{fill:#2F8F77;stroke:#FFFFFF;stroke-width:0.5;stroke-miterlimit:10;}
	.st49{fill:#B2A046;stroke:#FFFFFF;stroke-width:0.5;stroke-linejoin:round;stroke-miterlimit:10;}
	.st50{fill:none;stroke:#FFFFFF;stroke-width:1.226;stroke-miterlimit:10;}
	.st51{fill:none;stroke:#FFFFFF;stroke-width:0.2741;stroke-miterlimit:10;stroke-dasharray:5.4823,5.4823;}
	.st52{font-family:'Henriette-Bold';}
	.st53{font-size:15.4px;}
	.st54{fill:none;stroke:#00341E;stroke-miterlimit:10;stroke-dasharray:5,5;}
	.st55{fill:none;stroke:#0D0E0A;stroke-width:1.37;stroke-linecap:round;stroke-linejoin:round;stroke-miterlimit:10;}
	.st56{fill:none;stroke:#F8C434;stroke-width:2;stroke-miterlimit:10;}
	.st57{fill:none;stroke:#672574;stroke-width:2;stroke-miterlimit:10;}
	.st58{fill:none;stroke:#BB1825;stroke-width:2;stroke-miterlimit:10;}
	.st59{fill:none;stroke:#00341E;stroke-width:2;stroke-miterlimit:10;}
	.st60{fill:none;stroke:#D5378B;stroke-width:2;stroke-miterlimit:10;}
	.st61{fill:none;stroke:#0D0E0A;stroke-width:1.151;stroke-linecap:round;stroke-linejoin:round;stroke-miterlimit:10;}
	.st62{fill:none;stroke:#FFFFFF;stroke-width:1.5515;stroke-linecap:round;stroke-miterlimit:10;stroke-dasharray:3,5;}
</style>
<g id="MAPA_BASE">
</g>
<g id="RELIEVE">
</g>
<g id="UBICACION_COL">
	<g>
		<g>
			<circle class="st46" cx="93.7" cy="94.6" r="90.2"/>
			<g id="layer1">
				<g id="g4371" transform="translate(-607.31827,-398.44822)">
					<g id="XMLID_00000145779473237079828590000001853765126324642177_">
						<g id="XMLID_00000183953154015403577420000002690834164338774189_">
							<path id="XMLID_00000169531251459965839520000006498028776744598463_" class="st6" d="M910.4,499.2l-0.7,0.3l-0.7-0.1
								l-0.5,0.2l-0.2-0.4v-0.5l0.1-0.9v-0.8l-0.4-0.9l-0.1-0.7l-0.1-0.8l-0.6-0.6l-0.7-0.7l-0.4-0.8v-1.1l0.1-0.6l-0.6-0.4
								l-0.6-0.1l-0.5,0.3l-0.1,0.4l-0.8,0.7l-0.5,0.4l-0.5,0.2H902l-0.2,0.4l-0.5,0.1v0.6l-0.1,0.5h-0.5l-0.8-0.6l-0.6-0.9
								l-0.7-0.2l-0.2-0.3l-0.4,0.1l-0.1,0.6l-0.4,0.5l0.3,0.1v0.4l0.2,0.1l0.2-0.2l0.1,0.4l0.4,0.3l-11-0.1l-0.4-0.2l-0.4,0.1
								l-0.4-0.2l-0.4-0.1l-0.4,0.2l-0.2,0.2l-1.2-0.1l-0.1,0.1l-0.2,0.1l0,0l0,0l-0.3-0.1v5.7l0.3-0.1l0.2-0.3l0.3-0.2l0.4,0.2
								l0,0.3h0.2l0.1-0.1l0.2-0.1h0.3l0.1,0.2l0.1,0.2l1.2,0l0.1,0.2l0.3,0l0.2-0.3l0.2-0.2h0.3l0.2,0.2l0.2,0.1l0.3,0l0.1,0.2
								l0.1,0.3l-0.1,0.2h0.2l0.2,0.1l0,0.2l-0.1,0v0.3h0.2l0.2,0.1l0.1,0.3l-0.2,0.1l-0.1,0l0,0.3h0.2l0,0.1l0,0.3l-0.1,0.1h-0.2
								v0.3l0.4,0.1l0.2,0.3l0,0.2l-0.3,0.1l-0.3,0h-0.2l-0.1,0.4l-0.3,0l-0.3-0.1l-0.2-0.3l-0.1-0.1l-0.1,0.1l-0.2,0.3H888
								l-0.2-0.3l-0.5-0.5l-0.3-0.2l-0.2,0.1L886,504l-0.3,0.1l-0.2-0.2l-0.5-0.1l-0.1,0.3l-0.3,0.3l-0.2,0.1l-1.2,0l-0.2,0.3
								l-0.3,0l-0.1-0.1l-0.2,0l-0.1,0.2l-0.1,0.1l-0.2,0.1l0,5.7l0.3,0.3l0,0.7l0.3,0.1l0.2,0.3l0.3,0.2l0.3,0.3l0.3,0.1l0.3,0
								l0.2,0.1l0.3,0.2l0.4,0.2l0.3,0.3l0.5,0.2l0.3,0.1l0.2,0.3v0.5l0.1,0.3l0.2,0.2l-0.1,0.2l-0.2,0.4l-0.1,0.3l0,0.3l0.3,0.1
								l0.3,0.4l0.2,0.4l0.1,0.5l0.1,0.2l0.3,0.2l0.5,0.6v0.2l0,0.3l0,0l0.2,0.2l-0.1,0.5l-0.2,0.4l0.1,0.8l0.1,0.5l-0.2,0.2
								l-0.2,0.2l0.1,0.2l-2.3,13.1l-0.8,4.1l-0.6,3.5l-0.8,4.1l-1-1.2l-0.7-0.4L881,545l-0.2-0.8l-0.9-0.6l-0.7,0.1l-0.5,0.5
								l-0.5,0l-0.5-0.3l-0.5,0l-0.4,0l-0.3-0.4l-0.5,0.2l5.9-9.4v-0.6l-0.2-0.4l-0.2,0.1l-0.3,0.2l-0.3,0l0-0.3l-0.3-0.2
								c0,0-0.3-0.3-0.3-0.4c0-0.1,0-0.4,0-0.4l-0.5,0l-0.4,0.3l-0.2-0.3l0.4-0.3l-0.4-0.2l-0.4,0l-0.2,0.2l-0.3-0.2l-0.1-0.3
								l-0.5-0.2l-0.5-0.3l-0.1,0.3l0,0.4l-0.3,0l-0.2-0.2l-0.1-0.4l-0.3-0.1v-0.3l-0.2-0.3l-0.5-0.2l-0.4-0.2l-0.4-0.2l-0.1-0.3
								l-0.4-0.1h-0.4l-0.4,0l-0.1-0.1l-0.2,0.4l0,0.2h-0.2L873,530l-0.4,0.2l-0.1,0.3l0,0.3l-0.4,0.2l-0.4-0.2l-0.4-0.1l-0.3,0.1
								l-0.2,0.2l-0.3,0.1l-0.3,0l-0.1-0.5l-0.2-0.3l-0.2-0.2l-0.2,0.1l0,0.2l-0.2,0.1l-0.2-0.1l0-0.3c0,0,0.1-0.2,0.1-0.3
								c-0.1-0.1-0.2-0.2-0.3-0.2c-0.1,0-0.4-0.1-0.4-0.1l-0.5-0.1l-0.3-0.1l-0.2,0.1l-0.2-0.2l0-0.3l-0.3,0c0,0-0.1,0.1-0.2,0.1
								c-0.1,0-0.2,0.2-0.2,0.2l-0.2,0l-0.2,0.4l-0.2,0.4l-0.4,0.5l-0.3,0.1l-0.4,0.1l-0.4-0.1l-0.4-0.1l-0.3,0.4l-0.3,0.4l0,0.2
								l-0.2,0.1l-0.3-0.2l-0.2-0.1l-0.2,0l-0.5,0.3l-0.5,0.1l-0.3-0.1l-0.2-0.3l-0.4,0l-1-0.1l-0.3-0.1l-0.3-0.3l-0.2,0.1l-0.1,0.4
								l-0.3,0.2l-0.1,0.2l-0.1-0.4l-0.2-0.2l-0.1,0.2l-0.2,0.1l-0.2-0.3l-0.4,0.1l-0.3,0.2l-0.2,0.2l-0.6,0v-0.3l-0.1-0.2l-0.2-0.3
								l-0.4-0.1l-0.4,0c0,0-0.3-0.1-0.3-0.2c-0.1,0-0.4-0.2-0.4-0.2l-0.2-0.5l-0.1-0.4l0.5-0.1l0-0.5l0.2-0.1l0.1-0.2l-0.2-0.2
								l-0.2-0.2l0-0.5l-0.1-1.3l-0.3-0.1l-0.1-0.4L854,526l-0.4-0.1l-0.2,0.3l-0.5,0l-0.3,0.1l-0.4-0.3l-0.5,0.1l-0.1-0.3l-0.3-0.2
								l-0.2,0l-0.2-0.3l0.1-0.3l0.2-0.2l0.1-0.3l0.2,0l0-0.3l-0.2-0.2v-0.3l-0.1-0.3L851,523l-0.2-0.2l-0.1-0.6l-0.3-0.4l-0.2-0.2
								l-0.2-0.3l-0.2-0.2l-0.4-0.1l-0.2,0L849,521l0,0.2l-0.2,0l-0.4,0l-0.4-0.2l-0.1-0.2l-0.3-0.4l0-0.2l-0.4,0l-0.1,0.1l-0.1-0.2
								l-0.2-0.1h-0.1c0,0,0-0.1,0-0.3c0-0.1-0.2-0.4-0.2-0.4l-0.2,0.1l0,0.3l-0.2,0l-0.3-0.2l-0.4-0.2l-0.7-0.1l-0.1-0.1l-0.1-0.3
								l0-0.4l-0.5-0.2l0.4-0.1l0.2-0.4c0,0-0.2,0-0.2-0.1c-0.1-0.1-0.3-0.4-0.3-0.4l-0.4-0.3l0.1-0.5l0.1-0.3l-0.3-0.4l0.1-0.3
								l-0.3-0.2l0.1-0.2l-0.4-0.1l-0.1-0.3l-0.6-0.3c0,0-0.2,0.1-0.2,0c0-0.1-0.4-0.6-0.4-0.6l-0.4-0.3h-0.6l-0.3-0.2
								c0,0-0.1-0.5-0.1-0.6c0-0.1-0.3-0.5-0.3-0.5l-0.2-0.3h-0.3l-0.2,0.1l-0.3,0.2l-0.4-0.2l-0.6-0.5l-0.4-0.2
								c0,0-0.4-0.4-0.5-0.5c0-0.1-0.4-0.2-0.4-0.2h-0.4l-0.4-0.1l-0.3,0.1l-0.2,0.3h-0.4l-0.6-0.1l-0.4-0.1c0,0-0.4-0.1-0.5-0.3
								c-0.2-0.2-0.4-0.2-0.5-0.3c-0.1,0-0.4-0.2-0.4-0.2l-0.3-0.2l-0.2-0.2l-0.3-0.1h-0.3l-0.6,0l-0.4-0.2l-0.2-0.2l-0.2-0.3h-0.4
								l-0.3-0.4l-0.4-0.4l-0.3-0.4l-0.1-0.4l-0.5-0.4l-0.3,0.1c0,0-0.4,0.2-0.4,0.1c0-0.1,0.2-0.3,0.2-0.3l-0.3-0.1l-0.5,0
								l-0.3-0.2l-0.2-0.1l-0.3-0.3l-0.3,0.1l0,0.4l-0.4-0.1l-0.2,0.1l-0.1,1.4l-1-0.1l-0.3,0l-0.2,0.1l-0.1-0.2l-0.3-0.2h-0.8
								l-0.2-0.2l-0.1,0.1l-0.1,0.4l-0.4-0.1l-0.4,0l-0.2,0.2l-0.2-0.1l-0.2-0.3c0,0-0.5-0.4-0.6-0.4c-0.1,0-0.6,0-0.6,0l-0.2-0.2
								l0-0.1h-0.5l-0.2,0.1l-0.4,0.1l-0.5-0.1l-0.3-0.2h-0.6l-0.1,0.2l-0.3-0.6h-0.3l-0.3-0.5l-0.3-0.5l0.1-0.4l0.1-0.3l-0.4-0.2
								l-0.5-0.1l-0.4-0.3l-0.3-0.4l0.3-0.6l-0.4-0.4l-1,0.3l-1.3,0.3l-0.8-0.6l-0.8-0.5l-1.1-0.7l-0.3-0.5h-0.7l-0.8-0.6l-0.1-0.5
								l-0.6-0.2l-0.9,0c0,0,0.2-0.2-0.4-0.7c-0.6-0.4-0.9-0.8-0.9-0.8s-0.2-0.2-0.5-0.4c-0.3-0.2-0.8-0.6-0.8-0.6v-0.4l-0.6-0.3
								l-0.5-0.3l-0.2-0.4l0.6-0.6l0.8-1l0.7,0.2h1.6l0.2,0.2l0.5-0.4l-0.2-0.7h-0.4v-0.4l-0.3-0.4l-0.1-0.6l0.5,0.3l0.3-0.5
								l0.1-0.8v-0.4l-0.4,0v-0.4l-0.2-0.2h-0.3l0.1-0.5l0.4-0.3l0.1-0.6l0.3-0.2h0.6l0.6-0.3l0-0.4l0.3,0.4l0.2,0.3l0.2-0.4
								l0.1-0.2l0.4,0.4l0-0.3l0.2,0.1l0.2-0.3l0.3-0.4v-0.3l0.6,0l0.3,0.5l0.1,0.4l0.4-0.2v-0.2l0.4-0.2V486l0-0.2h0.1l0.1,0.2
								l0.2,0.2h0.2l0-0.4l0.2-0.4l0.2-0.1l0.3,0.3l0.2,0.2l0.1-0.3l-0.1-0.1l-0.2-0.4l0.6,0h0.3l0.1,0.3v-0.5l-0.5-0.1l0.1-0.2h0.4
								l0.3-0.4l0-0.2l0-0.2l0.1-0.2h0.3l0-0.4l0.3-0.1l-0.5,0l0.1,0.2l-0.2-0.4l0.4-0.6l0.7-0.5l0.2-0.3v-0.2h0.6l0-0.2l-0.2-0.1
								h-0.5l0.6-0.4l0.2-0.2l0,0l0.5-0.3l0.1-0.3l0.2-0.1h0.3l0.1-0.2l0.1-0.2l-0.2-0.2l0.1-0.3l0.3-0.3l0.1-0.3l0.5,0l0.5-0.2
								l0.1-0.3h0.3l-0.1-0.2l-0.2-0.2l-0.1-0.5l0.2-0.4l0.2-0.1l-0.2,0l0.1-0.2l0.2,0.1v0l-0.4-0.2l-0.4,0l-0.4-0.1l-0.3-0.3
								l-0.2-0.1l0-0.4h0.3l0-0.2l-0.5-0.3l0,0.2l-0.1,0.2l0,0.3l-0.3-0.1v-0.4l-0.4-0.2l-0.2-0.3l-0.2,0l-0.4-0.6l-0.2-0.4v-0.9
								l0.3-0.5l0,0.4l0.3,0.2l0.1-0.4l0.4-0.6l0.6-0.5l0.3-0.1l-0.3-0.2l0-0.9l0.1-0.5l0-1.3h0.3l0,0.3l0.3-0.2l-0.4-0.6l-0.5-0.4
								l-0.2-0.4v-0.8l-0.2-0.6l0-1l0.6-0.2l0-0.2h-0.6v-0.9l0.3,0l-0.1-0.3l-0.4-0.1l0-0.7l0.4-0.1l-0.2-0.2h-0.2l-0.2-0.4
								l-0.3,0.1l-0.2,0.2l-0.2-0.3l0.2-0.3l-0.1-0.2l0.1-0.2h0.3l0.3-0.1l0.4-0.2l0.4,0.3l0.1-0.2l0.2-0.5l0.6-0.5l0.3-0.6
								l-0.2-0.4l-0.5-0.6l-0.2-0.8l-0.2-0.8l-0.3-0.1l-0.7-0.8l-0.2-0.4h0.2v-0.7l0.2-0.2l0.1,0.2l0.2,0.2l0,0.3l0.2,0.1v-0.4
								l0.1-0.4l-0.1-0.4l-0.2-0.4l0.5,0.1v-0.3l0.2-0.5V451l-0.3-0.4l-0.2-0.4l-0.3-0.3h-0.4l-0.2,0.2v0.3l-0.4-0.1l0-0.7L815,449
								l-0.5-0.4l-0.2,0l-0.3,0.3l-0.1-0.4l0.1-0.6l0.4,0v-0.3l-0.4-0.7L813,446l-0.8-0.7l0.3-0.7l0.1-0.8l0.1-0.5l0.3,0l0.4-0.1
								l0.1-0.3l0-0.6l-0.1-0.5l0.2-0.4l0.3-0.1l0.5,0.6l0.3,0.7l0.4,0.2l0.4-0.3l0.3-0.6l0.7-0.8l0.3-0.8l0.5-0.4l0.9-0.2l0-0.8
								l0.2-0.5l-0.3-0.1l0-0.6l-0.4-0.7l-0.6-0.8l-0.1-0.6l-0.3-0.5l-0.4-0.6l-0.3-0.5l0.1-0.4l0.3-0.4l0.2-0.2v-0.4l0.6,0.7
								l0.4,0.3l0,0.4l0.3,0.3l0.3,0.3l0.4,0l0.5,0.5l0.6,0.9l0.7,0.1l1.1,1.5l0.2-3.4l-0.4-0.6l-0.3,0.2l-0.3,0.2l-0.1-0.5l0.5-0.2
								l-0.1-0.3l0.4-0.1h0.6l0.6,0l0.4-0.2l0.1-0.3l0.4-0.3l0.5-0.3l0.5-0.5l0.3-0.1l0.4-0.2l-0.1-0.3h0.2l0,0.1v-0.2h0.3l0.2-0.4
								l0.4-0.3l0.3-0.1l0.2-0.3v-0.4l0.8-0.6l-0.1-0.9l0.2-0.2l0.4-0.2l0-0.4h0.2l0.2-0.2h0.6l0.7-0.6l0.3-0.1l0.2,0.2l0.3-0.2h0.4
								l-0.2,0.1v0.2h0.4l0.4-0.2l0.4,0l0,0l0.3,0l0.4-0.5l0.3-0.6l0.1-0.5l-0.4-0.7l-0.4-0.4l-0.3,0l0.5-0.7l0.1-0.5l0.1-0.5
								l0.1-0.3l0.2-0.1l0.1-0.3l0.2-0.3l-0.1-0.3l-0.3-0.2l-0.1-0.2l-0.1-0.4l0.4,0.1l0.1,0l-0.1-0.1l-0.1-0.3l0.2,0l0.1-0.3
								c-0.1-0.4-0.4-0.5-0.4-0.5l-0.1,0.1l-0.3,0.3l-0.4,0.3l-0.1,0.3h-0.3l-0.1-0.4l0.1,0.2l0.2-0.1l0.2-0.3l0.2-0.3l-0.1-0.2
								l0-0.2l0.2,0v-0.4l0-0.2l0.2-0.4h0.2l0.1,0.3l-0.2,0.2l-0.1,0.2l0.1,0.2l0.3-0.1l0.1-0.3v-0.4l-0.3-0.3l-0.1-0.2l0.3-0.2
								l0.1-0.3l0.2,0.4l0.1,0.2l0.1-0.4l-0.1-0.4l-0.2-0.3l0.1-0.2l0.4-0.2l0.2-0.3l0.3-0.3l0.2-0.2h0.5l0.3-0.1l0.4-0.6v0l0,0
								l0.7-0.3l0.4-0.3l0.7-0.5l0.2-0.1V412l0.4-0.3l0.4-0.2l0.4-0.4l0.3-0.4l0.4,0.3l0.2,0.3l-0.4-0.5l0.4,0.1l1.6,0.7l1.2,0.4
								l1.2-0.1l0.5-0.4l0.4-0.4l-0.1-0.4v-0.5l-0.2-0.3l0.3-0.3l0.2-0.4l0-0.2h0.4l0.1-0.3h0.5v0.1l0.3-0.1l0.3-0.2l1.2,0.6l1,0.4
								l1,0h0.7l-0.1,0.2l0.1-0.2l1.2-0.1l1,0l0.4-0.2l0.5-0.3l0.3-0.4l0.3-0.3l0.4-0.1l0.5-0.5l0.4-0.3l0.3-0.2l0.4-0.2l0.4-0.3
								l0.8-0.8l0.5-0.3l1-0.3l0.9-0.1l0.8-0.2l0.7-0.4l0.8-0.5l0.5-0.4l0.4-0.7l0.1-0.6l0.1-0.3l0-0.7l-0.1-0.2h-0.3l0-0.1l0.1-0.2
								h0.3l0.1,0.1h0.2l0-0.1h0.5l0.1,0l0.2-0.1h0.3l0.1,0.1v0.2l-0.2,0l-0.2,0.1l0,0.1l-0.1,0.2l0.3,0.1l0.3,0l0.1-0.3l0.3-0.1
								l0.3-0.1v-0.3l-0.2-0.2l-0.1-0.2l-0.3,0l-0.3,0.1l0.2-0.2l0.3-0.3l0.6-0.6l0.1,0.5l0.2,0.1l0.3-0.3l0.1-0.1l0-0.3l0.2-0.1
								l0.1,0.1l0.1,0.2l0.1,0l0.1-0.2l0.1,0h0.3l0-0.2l-0.1,0l0-0.1l-0.2,0l-0.3,0.1l-0.2,0l0-0.1l0.4-0.2h0.4l0.4,0.2h0.6l0.2,0.1
								l0.2,0.1l0.1,0.2l0.2,0.1h0.4l0.3,0.1l0.2,0.1l0.4,0l0.5,0.3l0.2,0.7l0.3,0.5l0.4,0.6l0.3,0.5v0.3l-0.2,0.2l-0.2,0.2
								l-0.3,0.2l-0.4,0.2l-0.2,0.2l-0.1,0.2l-0.2-0.2H870v0.3l0.1,0.1v0.2l-0.3,0.4l-1.6,0.6l-1.5,0.5l-2.2,0.7l-0.9,1.9l-1.4,2.6
								l-0.5,0l-0.9,0.3l-0.7,0.6l-0.4,0.6l-0.4,1l-0.4,1.3l-0.5,0.8l-0.4,1l-0.6,0.9l-0.7,0l0,0l0.8,0l-0.9,1.1l0.1,1.6l-0.7,1.3
								l0,0.7l0.4,0.5l-0.8,0.6l0,0.4l-0.6,1.5l-0.9,0.6l0.2,0.4l-0.6,0.5l-0.4,0.6l-0.1,0.7l-0.2,0.4l-0.1,0.3v0.2l0.1-0.1l0.3,0
								l1.4-0.6l0.4-0.5l0.3-0.1l0.6,0.4l0.2,0.3v0.8l0.4,0.2l0.3-0.3h0.4l0.6,0.1l-0.1,0.5l0.2,0.5l0.2,0.8l0.3,1.3l0.3,0.8l0,0.5
								h0.4l0.2,0.3l0.9,1.1l1,0.8l0.2,0.9l-0.1,0.9v0.7l0.1,0.4l-0.3,0.4l-0.6,0.2l0.1,0.7l0.2,0.5l-0.3,0.8l-0.1,0.4l0.2,0.9v0.9
								l0.2,0.3l0.1,0.4v0.1l0.3-0.1l0.7,0.4l0.2-0.2l0.5-0.1l0.6,0.7l-0.1,0.7l0.9,1.8l0,0l0.7,0.3h0.3v0l0.5-0.1l1-0.5l0.5,0.3
								l0.8-0.2l0.5,0.2h1.4l0.5,0.3l0.6-0.1l0.6,0.1l0.8-0.1l0.3,0.3h0.8l1.1-0.6l1.5-0.4l0.7,0.2l0.5-0.1l0.4,0.5v0.1h0.6l0.3,0.5
								l0.4-0.1l0.8,0.3l0.3-0.1l0.2-0.4l1.1,0.1l6.1,7.7l-0.1,0.2l0.2-0.3l0.6-0.2l0.6,0.5h0.5l0.3-0.6l0.4-0.2l0.1-0.5h1.2
								l0.6,0.4l2.4,0.3l0.6-0.3l0.5,0.1l0.5-0.3l1.7,0.1l0.6-0.4l1-0.3l1.1,0.5l0.8-0.8l0.7-0.3l1.4,0.1h0.8l0.7,0.6l0.2,0.6
								l-0.2,0.3l0.5,0.6l0.2,0.6l-0.1,0.3l-0.4-0.1l-0.6,0.7l-0.6,0.8l-0.3,1.1v0.4l0.3,0.8l-0.1,0.6l-0.3,0.5l-1,0.4l-0.7,0.6
								l0.2,1.1l-0.2,0.6l0.3,0.8l-0.2,1.1l-0.1,0.4l0.3,1.1l-0.4,1l-0.3,1l0.5,0.2l0.8,1.4l-0.3,0.9l-0.2,0.5l0.5,0.5l0.3,0.7
								l-0.1,0.4c0,0,0,0,0.1,0c0,0,0,0,0,0l0,0l0.3,0.7v0.4l0.4,0.5l0.1,1h0.3l0.7-0.2l0.4,0.4l0.8,2.3l0.7,0.4l-0.2,0.4l-0.1,0.4
								l-0.4,0.2v0.5h-0.3l-0.2,0.4l-3.5,3l-0.1,0.8l0.4-0.4l0.6-0.1l0.1-0.2l0.9,0.6l0.3-0.3l0.6,1.4l0.5-0.1l1.7,2l0.8,0.7
								l0.2,0.5l-0.4,0.6l0.4,1l0.6,0.3l0.3,0.7l-0.4,0.6l0.4,0.5l0.2,1.4l0.9,1.7l0.1,0.6l0.2,0.8l0.5,0.7l-0.2,0.7L910.4,499.2z"
								/>
						</g>
					</g>
					<path id="path4431" class="st47" d="M809.1,483.3L809.1,483.3l0,0.1l0,0L809.1,483.3L809.1,483.3z M827.6,495.9l0.1,0.1
						l-0.2,0.2l-0.2,0.2l-0.1,0.3l-0.2,0.3l-0.1,0.4l-0.3,0.2l0,0.3l-0.2,0.3l-0.2,0.1l0,0.2l0.1,0.1l0,0.2l0.4,0.4l0,0.4l0.2,0
						l0.1-0.1l0.1,0l0.1-0.1h0.1l0,0.2l-0.1,0v0.3l0.1,0.1v0.1l0.2,0l0.1-0.1h0.1l0,0.1l0.3,0.3l0.2,0l0,0.4l-0.3,0.1l0,0.1
						l-0.3-0.1l-0.2-0.2l-0.1,0.1l-0.1,0.1l-0.2,0l0,0.1l0.2,0.1l0,0.1l-0.4,0l0,0.1l-0.2,0l-0.1-0.2l-0.1,0.1l-0.1,0.1l-0.5,0
						l-0.1-0.2l-0.4,0l0,0.1l-0.2,0l-0.7-0.5l-0.4,0l-0.1-0.4l-0.1,0l0-0.3l0.1-0.1v-0.3l0.2-0.5l0-0.5l-0.1-0.1l0-0.5l-0.1,0l0-0.3
						l-0.2-0.1l-0.1-0.2l-0.3,0l-0.2-0.1l-0.1-0.2l-0.1,0l0,0.1l-0.3,0.3l-1,0.4l-0.4,0l-0.3,0.1l-0.2-0.1l-0.1-0.1l-0.1-0.1
						l0.1-0.1l0.1-0.3l-0.1-0.1l0-0.5l0.1,0l0.1-0.1l0.2-0.1l0.1,0.1l0.2-0.2l-0.1-0.1l0-0.1l0.1-0.1l0-0.1l0.1,0l0.1-0.1l-0.1-0.1
						l0-0.3l-0.5-0.2l-0.1-0.2l0-0.2l-0.2-0.3h-0.1l-0.1,0.1h-0.2l-0.1,0.1l-0.1-0.1h-0.2l-0.2,0.1h-0.1l-0.1,0.3l-0.2,0l-0.1,0.1
						h-0.4l-0.1-0.2l-0.1,0l0,0.1h-0.4l-0.1,0.1l-0.3,0l-0.4-0.1l-0.1-0.1l-0.2,0l0-0.1l0.2-0.2l0.1-0.2v-0.7l0.1-0.1l0.2-0.4
						l0.4-0.4l0.1-0.4l0-0.1l-0.1-0.3l-0.4-0.1l-0.4-0.4l-0.2-0.1l0-0.1l0.1-0.1c0,0,0-0.2,0-0.3c0,0,0.1,0,0.1,0l0.1-0.4l-0.1-0.1
						l0-0.2l0.1-0.1l-0.1-0.1l-0.1,0l-0.1-0.1l-0.5,0c0,0,0-0.1,0-0.1c0,0-0.4,0-0.4,0l-0.3,0.3l-0.1,0l0,0l-0.4,0.1l-0.2-0.1
						l-0.2,0c0,0-0.2,0.1-0.3,0.1s-0.1,0-0.1,0l-0.3,0.1h-0.1l-0.1,0.2l-0.2,0c0,0-0.1-0.1-0.1-0.1s-0.2-0.1-0.2-0.1l-0.1-0.2
						l-0.3,0l-0.1-0.1l-0.3-0.2l-0.2-0.3c0,0,0.1,0,0.1,0c0,0-0.1-0.7-0.1-0.7l-0.1-0.1l0.1-0.1v-0.1l-0.4-0.4l0-0.2l-0.1-0.4
						l-0.1-0.1l-0.1-0.4l-0.1-0.1l0.1-0.1v-0.1l-0.1-0.1l0-0.2l0.1-0.2l-0.1-0.1l0,0l0.1,0l0.1,0.1l0,0.1l0.1-0.1l-0.1-0.1l-0.1-0.1
						l0-0.1l0.1,0l0.1-0.1l-0.1,0l-0.2,0l-0.1-0.1l0.1-0.1l0.2,0l0.2,0.1l-0.1-0.2l-0.2-0.1l0.1-0.1l0.1-0.1l0.1,0.1l0,0.1l0.1,0
						l0,0.1l0.2,0l0.1,0.1v0.2l0.1-0.1l0.1,0l0.1-0.1l-0.2,0l0-0.2l-0.2,0l-0.2,0l-0.1-0.1l0,0l0-0.1l0.3,0l0,0.1l0.1,0l0-0.1l0.1,0
						l0.1,0.2l0.1-0.1l0.1,0l0.1-0.1l0.2,0l-0.3,0l-0.1,0.1l0-0.1l-0.1-0.1l0.1-0.1l0.2,0l0-0.1l0.2,0l0.1-0.1l0,0l-0.1,0.1
						l-0.1-0.2l-0.2,0l-0.1,0.1l0-0.1l0.2-0.1l0.2,0.1l0.1-0.1l0.3,0l-0.1,0l0-0.1l0.2,0l0.1,0.2l0-0.1l-0.1-0.1l-0.6,0l0-0.1
						l0.2-0.1l0.2-0.2l0.1,0.1l0,0.1h0.1l0.1-0.1l-0.1,0l-0.1-0.1l0.1,0l0-0.2l0.1-0.1l0.1,0l0,0.1h0.1l0.1-0.1l0.2,0l0-0.1
						l-0.2,0.1l-0.1,0.1l-0.1-0.1l0-0.1l-0.1,0l0-0.1l0.2,0l-0.1-0.1l0-0.2l0.1,0l0-0.1l0,0l0,0.2l0.1-0.1l0.1,0l0-0.2l-0.1-0.1
						l-0.1,0V483l0.2,0l-0.1-0.1h-0.2l-0.1-0.1l-0.1,0.1l-0.1,0.2l-0.1,0l0-0.1l0.2-0.2l-0.1-0.1l0.1-0.1l0-0.2l0.1-0.1l0.2,0
						l0.2-0.4l0.2-0.1l0-0.2l0.2-0.1l0.2-0.3l0-0.2l0.2-0.2h0.1l0,0.1l0.1,0l0,0.1l-0.2,0.1v0.1l0.1,0v0.1l0.1,0.1l0,0.1l-0.2,0.1
						l0,0.3l-0.2,0.1l-0.3,0l-0.1,0.1l-0.1-0.1l-0.1,0.1l-0.2,0l0-0.1l-0.1,0.1l0.2,0.1l0-0.1l0.2,0l0.1-0.1l0.1,0l0.2,0l-0.1-0.1
						h0.3l0.1-0.1l0.1,0l0,0.2l0.1-0.1l0-0.1l-0.1-0.1l0-0.3l0.2-0.1v-0.2l-0.1-0.1l0.1-0.2h-0.1l-0.1-0.1l0.2-0.1l0.1-0.2h0.1
						l0,0.1l0.1,0.1l0,0.2l-0.2,0.1l0.1,0l0,0.1l0.1,0l0,0.1l0.2,0l0-0.1l-0.1,0l-0.1-0.1l0.1-0.1l0.1-0.1l0-0.2l-0.1,0l0.1-0.1
						l-0.2-0.1l0-0.1l0.2,0l0-0.2l0.1,0l0.2-0.1l0.1,0.2l0,0.1h0.2l0.2,0.1l0.1,0.3l0.1,0l0.1,0.2l0.1,0l0-0.1l0.2-0.1l0.1,0l0,0.1
						l0.3,0.1l0.2,0.2l0.1,0.1l0.2-0.1l0.1-0.1l0.3-0.2l0.1,0l0,0.1l0.1,0l0.2-0.2l0.1,0l0,0.1h0.4l0,0.1l0.4,0.4l0.1,0l0,0.1
						l0.1-0.1l0.2,0l0,0.1l0.4,0.3l0,0.1l0.3-0.1v0h0.2l0.2-0.2l0-0.1l0.1-0.1l0.3,0l0-0.2l-0.1-0.1l0.1-0.1l0,0.1l0.4,0.2l0.3,0
						l0.1,0.1l0.2,0l0.1-0.1l0.2,0v0.2l0.1,0.1l0.1-0.2l0.2-0.1l0.1,0l0,0.2l0.1,0l0-0.1l0.3-0.1l0-0.2l0.2-0.2l0.1-0.2l-0.1-0.2
						l0-0.1l0.2-0.1l0-0.1l0.1-0.1l0-0.3l-0.2-0.1l0.1-0.2l0-0.1l0.2-0.1l0.1,0l0.1,0.2l0.3,0.1l0.1,0.1l0.5,0l0.1,0.1l0.3,0l0-0.1
						l0.1,0l0.1,0.1l0.3,0l0.2,0l0.1,0.1l0,0l0.1,0.2l0.1,0l0,0.1l0.3,0l0,0l0.1,0v0.1l0.1,0.1l0.1,0l0.2,0.1l0,0.2l0.1,0.1l0.1,0
						v0.1l-0.1,0.1l0.2,0.2l-0.1,0.2l-0.2,0l0,0.1l-0.1,0l0,0.1l0.2,0l0.1,0.1l0.1,0.3l0.2,0.1l0,0.2l0.1,0.1l0.2,0.1l0,0.1
						l-0.2,0.1l0,0.3l0.3,0.2l0,0.1l1.1,1h0.5l0.2,0.2h0.3l0.3,0.3l-0.1,0.1l0,0.3l-0.1,0l-0.3,0.2l-0.1,0.5l-0.1,0l-0.2,0.2
						l0.1,0.2l-0.1,0.1l0.2,0.2l-0.1,0l0,0.1l0.1,0.1l-0.4,0.3l0,0.1h-0.3l-0.2-0.3l0-0.1l-0.3,0l-0.2-0.2l-0.1,0l0,0.2l-0.3,0.3
						l0,0.2l-0.1,0.2l-0.2,0.1v0.1l-0.1,0l-0.1-0.1l-0.1,0.1l-0.5,0l-0.3,0.1l-0.5-0.2l-0.2,0l-0.1-0.1l-0.2,0l-0.4,0.4l0,0.3
						l-0.2,0.2l-0.3,0l-0.1,0.1l0,0.2l0.2,0.1l0,0.4l0.2,0.4l0,0.4l-0.2,0.2l-0.4,0l-0.6-0.3h-0.4l-0.4,0.2l-0.3,0l-0.2,0.2l0,0.3
						l0.3,0.4l0,0.9l-0.1,0.1l0,0.3l0.2,0.1l0.6-0.1l0.4,0.3l0,0.3l0.3,0.3l0,0.2l0,0.2l-0.1,0.1l0.1,0.2l0.3-0.1l0.1-0.1l0.1-0.1
						l0.1,0.2l-0.1,0.1l0,0.3l0,0v0.1l0.4,0l0.4-0.2l0.1,0l0,0.2l0.2,0.1l0.1-0.1h0.2l0,0.1l0,0v0.4l0.2,0.3l0.2,0L827.6,495.9z
						 M809.3,483.3L809.3,483.3l0.1-0.1l0.1,0l0-0.1l0.1,0l0-0.3l0,0l-0.1,0.1l0,0.1l-0.1,0.1l0,0.2L809.3,483.3z"/>
				</g>
			</g>
			<g>
				<polyline class="st48" points="114.3,30.4 113.9,30.8 113.7,31.2 113.9,31.4 113.9,31.8 113.9,32 113.9,32.4 113.9,32.8 
					113.7,33.4 113.5,34 113.3,34.4 113.3,34.8 113.3,35.1 113.1,34.8 113.1,34.6 112.1,34.4 111.7,34.2 111.3,34 110.7,33.6 
					109.7,33.4 109.7,33.2 109.3,32.8 108.5,32.4 108,32.6 108.2,32.8 107.6,32.6 107.6,32.2 107.6,32 108,31.6 108,31.4 107.4,31 
					107.2,30.8 107,30.6 107,30.4 106.6,30.2 106.8,29.8 107.4,29.6 107.6,29.4 108,29.2 108,28.8 108.2,28.6 108.3,28.6 
					108.5,28.4 109.3,28.4 110.3,28.4 110.7,29 111.3,29.4 111.9,29.6 112.3,29.8 112.7,30 113.3,30.2 113.9,30.4 114.3,30.4 				
					"/>
				<polyline class="st48" points="113.9,31.8 113.9,31.4 113.7,31.2 113.9,30.8 114.3,30.4 115.3,30.8 116.5,30.8 117.4,30.8 
					118.4,30.8 119,30.8 120.6,30.8 122,31 122.8,31.2 123.2,31.6 123.4,32.2 124,32.6 125.2,33.2 126.5,33.8 127.5,34.2 
					128.3,34.6 128.9,34.6 129.7,34.6 130.3,34.8 130.7,34.8 130.9,34.8 131.1,34.8 131.5,34.8 131.5,35.1 131.5,36.1 131.7,36.9 
					131.5,37.1 131.3,37.3 130.7,37.7 130.7,37.5 129.9,37.3 129.1,37.1 128.1,36.7 127.3,36.5 126.3,36.1 125.7,35.7 124.2,35.3 
					122.4,34.6 121.4,34.2 120.4,33.8 119.2,33.6 119,33.4 118.6,33.4 117.8,32.8 117,32.2 116.5,32 115.5,31.6 114.5,31.4 
					114.1,31.4 113.9,31.8 				"/>
				<polyline class="st48" points="113.9,31.8 114.1,31.4 114.5,31.4 115.5,31.6 116.5,32 117,32.2 117.8,32.8 118.6,33.4 119,33.4 
					119.2,33.6 119,34.4 118.8,34.6 118.6,35.3 118.4,35.7 118.4,36.5 118.4,37.1 118.4,37.7 118.4,38.5 118.6,38.9 118.6,39.1 
					118.6,39.5 118.4,39.7 118.2,39.5 117.8,39.5 117.4,39.5 116.3,38.9 115.7,38.7 114.9,37.9 114.9,37.7 114.7,36.7 114.5,36.1 
					114.3,35.9 114.1,35.7 113.7,35.3 113.3,35.1 113.3,34.8 113.3,34.4 113.5,34 113.7,33.4 113.9,32.8 113.9,32.4 113.9,32 
					113.9,31.8 				"/>
				<polyline class="st48" points="88,42.1 88,42.5 88.2,42.9 88.2,44 87.8,45 87.8,45.6 87.8,46 87.6,46.2 87.6,46.6 87.6,47.2 
					87.6,48 87.4,48.6 86.8,49 86.2,49.6 86,49.8 85.8,50.4 85.8,51 85.4,51.6 85.4,52 85.2,52.3 84.8,52.9 84.4,53.3 83.6,53.7 
					83,54.3 82.3,54.9 81.9,55.5 81.7,55.9 81.7,56.3 81.3,56.3 80.9,56.5 80.7,56.7 79.9,56.7 79.1,55.9 78.9,55.3 76.9,54.5 
					75.9,54.7 75.1,54.9 74.1,54.9 73.2,54.9 72.6,55.1 71.8,55.7 71.2,56.1 70.6,56.1 70,56.3 68.6,56.5 67.6,55.9 66.6,54.9 
					65.6,54.1 65.1,54.3 64.9,54.3 63.7,54.3 63.1,54.5 62.5,55.1 62.1,55.5 61.9,55.7 61.3,56.5 60.9,57.1 60.3,58.1 58.7,59.1 
					58.1,58.3 57.3,57.3 57.3,56.1 56.9,54.9 56.2,53.1 55.2,51.4 54.8,50.8 54,50.6 52.8,50.6 51.6,50.6 51,50.6 50.4,50 
					49.4,50.2 49.2,50.4 49,51 48.3,51.2 47.7,51.4 47.5,51.4 46.9,51.8 46.7,52.1 46.1,52.9 45.5,53.5 44.7,53.7 44.3,54.3 
					44.1,55.3 43.3,56.1 41.5,56.1 41.3,55.7 40.5,55.1 39.9,54.5 39.6,53.9 39.2,53.1 39,52.3 38.8,52.3 38.6,52.5 37.6,52.7 
					37.2,52.9 36.6,52.9 36,52.9 35.8,52.7 35,53.1 34.8,52.7 35.2,52 35.4,51.2 35.6,50.6 36,50.2 36.8,49.8 37.2,48.8 37.2,48.4 
					37.2,47.4 37.2,47.2 37.4,46.8 38.4,46.4 38,46.2 37.4,46.2 36.6,46.2 36.4,45.8 36,45.8 35.6,46.4 35,47.4 34.6,47.2 
					34.6,46.4 35.2,45.8 35.8,44.8 36.6,43.5 37,42.7 37.8,42.9 37.8,43.5 37.8,44 38,44 39.2,43.6 40.3,42.9 40.1,42.5 39.6,42.5 
					38.6,42.5 38.6,42.1 39,41.7 39.2,41.5 39.9,41.1 40.7,40.5 41.1,40.1 41.7,39.3 42.1,38.9 42.5,37.9 43.3,36.9 43.5,36.5 
					44.1,35.9 44.7,35.3 44.9,34.8 45.5,34 46.1,34 46.5,34 47.3,34 47.9,33.8 48.1,33.4 48.5,33 48.5,32.4 49.4,32.2 49.6,32.2 
					50.4,32 51,31.8 51.4,31.6 52,31.6 53,31.6 53.8,32.2 54.4,32.8 54.6,33.6 54.8,34.2 55.2,34.6 56,35.5 56.6,36.5 56.9,36.7 
					57.9,36.9 58.9,36.7 59.5,36.3 60.3,36.3 60.9,36.5 60.9,36.7 61.3,37.3 61.5,37.9 61.9,37.7 62.3,38.3 62.9,38.7 63.9,39.3 
					63.9,39.9 63.9,40.9 63.9,41.3 64.5,41.5 65.1,41.3 65.6,40.9 66.2,40.7 67,40.7 69.2,41.1 70.4,41.3 71,41.5 72.8,42.1 
					73.4,42.1 74.3,42.3 75.3,42.5 76.3,42.3 77.1,41.9 77.9,41.7 78.5,41.3 79.1,41.3 79.9,41.5 80.1,41.5 80.5,41.9 81.1,42.7 
					81.5,43.3 81.9,42.9 82.8,42.9 84,42.5 84.6,42.3 85.6,42.3 86.4,42.3 88,42.1 				"/>
				<polyline class="st48" points="109.7,33.2 109.9,34.2 109.7,34.4 109.1,34.6 109.1,34.8 109.5,34.8 109.7,34.8 109.9,34.9 
					109.9,35.1 109.7,35.1 110.1,35.1 110.3,35.3 110.5,35.7 110.5,35.9 110.5,36.3 110.5,36.5 110.3,36.7 110.3,36.9 110.1,37.1 
					110.3,37.3 109.9,37.5 109.7,37.5 109.5,37.3 109.3,37.5 109.5,37.7 109.5,38.1 109.7,38.3 109.9,38.5 109.9,38.7 109.9,39.1 
					109.9,39.3 109.7,39.5 109.3,40.1 109.1,40.5 109.1,40.3 108.9,40.1 108.7,39.7 108.5,39.5 108.3,39.3 108.3,39.5 108,39.3 
					107.8,39.1 107.2,38.7 107,38.5 106.8,38.7 106.6,38.5 106.4,38.5 106.4,38.3 106.2,38.3 106,38.5 106,38.3 106,38.1 
					106.2,38.1 106.2,37.5 106.4,37.1 106.6,36.9 106.6,36.5 106.6,35.9 106.6,35.5 106.8,35.1 107.2,34.9 107.6,34.4 107.8,34 
					108,33.6 108.3,33 108.3,32.8 108.2,32.8 108,32.6 108.5,32.4 109.3,32.8 109.7,33.2 				"/>
				<polyline class="st48" points="109.7,33.2 109.7,33.4 110.7,33.6 111.3,34 111.7,34.2 112.1,34.4 113.1,34.6 113.1,34.8 
					113.3,35.1 113.7,35.3 114.1,35.7 114.3,35.9 114.5,36.1 114.7,36.7 114.9,37.7 114.9,37.9 115.7,38.7 116.3,38.9 117.4,39.5 
					117.8,39.5 118.2,39.5 118.4,39.7 119.2,40.1 119.4,40.5 119.6,40.9 119.8,41.3 120,41.7 120.2,41.7 120,41.9 119.8,42.3 
					120,43.1 120,43.8 119.8,44.4 119.6,45 119.4,45.8 119.8,47 119.6,47.6 119.2,48 118.6,48.4 117.8,48.4 116.9,48.6 116.5,48.6 
					115.7,48.6 114.7,48.8 114.3,49.2 113.9,49.6 113.7,49.6 113.7,50 113.5,49.6 112.7,49.6 112.3,49.6 111.9,50 111.7,50.2 
					110.7,50.2 110.5,49.6 109.5,49.2 108.7,48.6 108.5,48.2 109.1,47.6 110.1,46.8 109.5,45.2 109.3,44.4 108.7,42.3 108.7,41.1 
					109.1,40.5 109.3,40.1 109.7,39.5 109.9,39.3 109.9,39.1 109.9,38.7 109.9,38.5 109.7,38.3 109.5,38.1 109.5,37.7 109.3,37.5 
					109.5,37.3 109.7,37.5 109.9,37.5 110.3,37.3 110.1,37.1 110.3,36.9 110.3,36.7 110.5,36.5 110.5,36.3 110.5,35.9 110.5,35.7 
					110.3,35.3 110.1,35.1 109.7,35.1 109.9,35.1 109.9,34.9 109.7,34.8 109.5,34.8 109.1,34.8 109.1,34.6 109.7,34.4 109.9,34.2 
					109.7,33.2 				"/>
				<polyline class="st48" points="119.2,33.6 120.4,33.8 121.4,34.2 122.4,34.6 124.2,35.3 125.7,35.7 126.3,36.1 127.3,36.5 
					128.1,36.7 129.1,37.1 129.9,37.3 130.7,37.5 130.7,37.7 131.3,37.3 131.3,38.5 131.3,39.3 131.3,40.1 131.3,40.7 131.3,41.5 
					131.5,42.3 131.7,43.1 131.9,43.5 131.3,43.6 131.1,43.6 130.5,43.6 129.9,43.6 129.1,43.3 128.7,43.1 128.1,43.1 127.1,43.1 
					126.7,43.1 126.5,43.1 126.1,42.7 125.3,42.5 124.6,42.5 124.2,42.5 123.8,42.3 123.4,42.3 123,41.9 122.6,41.5 122,41.5 
					121.4,41.5 121,41.3 120.4,41.5 120.2,41.5 120.2,41.7 120,41.7 119.8,41.3 119.6,40.9 119.4,40.5 119.2,40.1 118.4,39.7 
					118.6,39.5 118.6,39.1 118.6,38.9 118.4,38.5 118.4,37.7 118.4,37.1 118.4,36.5 118.4,35.7 118.6,35.3 118.8,34.6 119,34.4 
					119.2,33.6 				"/>
				<polyline class="st48" points="109.1,40.5 108.7,41.1 108.7,42.3 109.3,44.4 109.5,45.2 110.1,46.8 109.1,47.6 108.5,48.2 
					108.7,48.6 109.5,49.2 110.5,49.6 110.7,50.2 111.7,50.2 111.9,50 112.3,49.6 112.7,49.6 113.5,49.6 113.7,50 113.3,50.4 
					112.9,51 111.9,51.8 110.5,52.5 109.5,53.1 108.2,53.5 107.2,54.1 106,54.5 105,54.5 104.4,54.3 103.2,53.7 102.4,53.9 
					102,54.5 101,54.9 100.4,54.1 99.8,54.3 100.2,53.1 100.6,52 101.2,51.2 101.6,50.2 101,48.4 101.2,48 101.6,47.2 102.4,46.4 
					102.4,45 102.4,44.4 102.6,43.5 102.8,42.3 102.8,41.5 102.8,41.3 102.8,40.9 103.6,41.3 104.2,41.1 104.6,40.9 104.8,40.7 
					104.8,40.3 104.8,39.9 104.8,39.5 104.8,39.1 104.8,38.5 105,38.5 105.4,38.5 105.8,38.5 106,38.3 106,38.1 106,38.3 106,38.5 
					106.2,38.3 106.4,38.3 106.4,38.5 106.6,38.5 106.8,38.7 107,38.5 107.2,38.7 107.8,39.1 108,39.3 108.3,39.5 108.3,39.3 
					108.5,39.5 108.7,39.7 108.9,40.1 109.1,40.3 109.1,40.5 				"/>
				<polyline class="st48" points="88,42.5 89.2,42.3 90,42.3 90.8,42.1 91.2,41.9 91.7,41.7 92.1,41.5 92.7,41.5 93.3,41.5 
					94.5,41.3 95.9,41.1 96.3,40.9 97.3,40.7 98.1,40.5 98.9,40.7 99.3,41.1 99.7,41.3 100.4,41.3 100.8,41.1 101,40.7 101.4,40.5 
					101.6,40.3 102,40.3 102.6,40.5 102.8,40.9 102.8,41.3 102.8,41.5 102.8,42.3 102.6,43.5 102.4,44.4 102.4,45 102.4,46.4 
					101.6,47.2 101.2,48 101,48.4 101.6,50.2 101.2,51.2 100.6,52 100.2,53.1 99.8,54.3 99.5,54.1 98.9,54.1 98.5,54.1 98.3,54.5 
					97.9,54.9 97.7,55.3 97.5,55.7 97.3,55.9 97.1,56.3 96.9,56.9 96.3,57.1 95.5,57.1 94.7,57.1 94.1,57.3 93.7,57.5 93.5,56.5 
					93.7,55.3 93.5,54.1 93.5,52.3 93.3,50.8 92.9,49.8 92.1,49.2 91.2,48.6 90.8,48.2 90.4,47.4 89.6,47.2 88.4,47 87.6,46.6 
					87.6,46.2 87.8,46 87.8,45.6 87.8,45 88.2,44 88.2,42.9 88,42.5 				"/>
				<polyline class="st48" points="131.9,43.5 132.3,44.2 132.3,44.6 132.5,45.2 132.7,45.4 132.9,45.6 133.3,46.2 133.9,47 
					133.5,47.4 132.7,47.8 132.1,48.2 131.3,48.4 130.5,48.8 129.7,49.2 129.1,49.6 128.3,50 127.5,50.4 126.9,50.8 125.9,51.4 
					125.3,52 125,52.5 124.4,53.3 124,53.9 123.2,54.5 123.4,55.3 123,55.1 122.4,55.1 122,54.9 121.4,54.5 121,53.9 120,52.9 
					119,52.3 118.2,52.1 117,52 116.7,51.4 116.9,51 116.9,50.2 116.9,49.6 116.9,49 116.9,48.6 117.8,48.4 118.6,48.4 119.2,48 
					119.6,47.6 119.8,47 119.4,45.8 119.6,45 119.8,44.4 120,43.8 120,43.1 119.8,42.3 120,41.9 120.2,41.7 120.2,41.5 120.4,41.5 
					121,41.3 121.4,41.5 122,41.5 122.6,41.5 123,41.9 123.4,42.3 123.8,42.3 124.2,42.5 124.6,42.5 125.3,42.5 126.1,42.7 
					126.5,43.1 126.7,43.1 127.1,43.1 128.1,43.1 128.7,43.1 129.1,43.3 129.9,43.6 130.5,43.6 131.1,43.6 131.3,43.6 131.9,43.5 
									"/>
				<polyline class="st48" points="87.6,46.6 88.4,47 89.6,47.2 90.4,47.4 90.8,48.2 91.2,48.6 92.1,49.2 92.9,49.8 93.3,50.8 
					93.5,52.3 93.5,54.1 93.7,55.3 93.5,56.5 93.7,57.5 92.9,57.7 92.1,57.7 91.3,57.7 90,57.1 89.2,56.5 88.6,56.5 88,55.9 
					87.4,55.1 86.8,54.5 86.4,53.7 86.4,53.1 86.4,52.3 86.2,52.1 86,51.8 85.4,51.6 85.8,51 85.8,50.4 86,49.8 86.2,49.6 86.8,49 
					87.4,48.6 87.6,48 87.6,47.2 87.6,46.6 				"/>
				<polyline class="st48" points="133.9,47 134,47 135.2,47.4 135.8,47.8 136,48 136.4,48.4 136.8,48.8 136.8,49.4 136.8,50.4 
					136.8,50.8 136.8,51.4 136.6,52.3 136.6,52.5 136.6,52.7 136.6,52.9 136.6,54.5 136.8,56.3 137.4,57.5 137.8,58.5 137.8,59.5 
					138,60.1 138.2,60.5 138.6,61.4 138.8,62 139.4,63.4 139.8,64.8 140.6,66.2 141.2,67.6 142,68.4 142.9,69.7 143.5,70.5 
					143.7,71.9 144.1,72.9 144.3,73.7 144.5,74.3 145.1,74.7 145.3,75.5 145.3,75.9 145.3,76.5 145.7,77.7 145.7,77.8 145.9,78.4 
					146.1,78.6 145.9,79 145.7,79.2 145.5,79.2 144.9,79.2 144.5,79.4 144.1,80.2 143.5,80.8 142.3,81.2 142,81.2 141.4,81 
					140.8,80.6 140.2,80.4 140,79.4 139.6,78.4 139,78.2 138.4,78 138.2,77.8 137.6,77.5 137.6,76.7 137.6,76.3 137.4,75.3 
					137,74.9 137,74.1 136.4,73.1 136.2,72.5 135.8,71.7 135.6,70.9 135.2,70.3 134.6,69.7 134.6,69.2 134.4,68.4 132.9,68.2 
					131.9,68 131.3,68 130.1,67.6 129.5,67.4 128.7,67.2 127.9,67.2 127.3,67.4 127.1,67.8 126.1,67.8 125.2,68 124.8,68.4 124,69 
					122.6,69.3 121.8,69.2 121.4,69.2 120.6,69.2 120.2,68.8 119.8,68.2 120.2,67.6 120.6,66.6 120.6,65.4 120.6,65.2 121,65 
					122.4,65 122.8,65 123.8,63.8 124,62.8 124.4,62.2 125,62.2 125.5,62.2 126.5,61.6 126.5,60.8 126.3,60.3 125.3,60.3 
					124.8,60.3 124.2,60.1 123.4,60.3 123,59.9 123,59.7 123.4,58.7 123.8,58.3 124.2,57.5 124,56.7 123.4,56.5 123.2,56.1 
					123,55.5 123.4,55.3 123.2,54.5 124,53.9 124.4,53.3 125,52.5 125.3,52 125.9,51.4 126.9,50.8 127.5,50.4 128.3,50 129.1,49.6 
					129.7,49.2 130.5,48.8 131.3,48.4 132.1,48.2 132.7,47.8 133.5,47.4 133.9,47 				"/>
				<polyline class="st48" points="116.9,48.6 116.9,49 116.9,49.6 116.9,50.2 116.9,51 116.7,51.4 117,52 118.2,52.1 119,52.3 
					120,52.9 121,53.9 121.4,54.5 122,54.9 122.4,55.1 123,55.1 123.4,55.3 123,55.5 123.2,56.1 123.4,56.5 124,56.7 124.2,57.5 
					123.8,58.3 123.4,58.7 123,59.7 123,59.9 123.4,60.3 122.6,60.5 121.6,60.7 120.4,60.7 119.8,60.7 118.8,60.5 118,60.5 
					117,60.8 116.1,60.8 115.9,60.8 115.1,60.5 114.5,60.1 113.9,59.9 113.9,59.5 114.1,58.5 113.9,57.1 114.3,55.1 114.3,53.3 
					114.3,51.8 114.1,50.4 113.7,50 113.7,49.6 113.9,49.6 114.3,49.2 114.7,48.8 115.7,48.6 116.5,48.6 116.9,48.6 				"/>
				<polyline class="st48" points="99.8,54.3 100.4,54.1 101,54.9 102,54.5 102.4,53.9 103.2,53.7 104.4,54.3 105,54.5 106,54.5 
					107.2,54.1 108.2,53.5 109.5,53.1 110.5,52.5 111.9,51.8 112.9,51 113.3,50.4 113.7,50 114.1,50.4 114.3,51.8 114.3,53.3 
					114.3,55.1 113.9,57.1 114.1,58.5 113.9,59.5 113.9,59.9 113.3,59.9 112.5,59.9 111.7,60.3 110.9,60.7 110.7,61 110.3,61.8 
					108.9,62.8 108.3,62.8 107.8,63.6 107.2,64 107.4,64.6 106.6,65 105.8,65.6 105.4,65.6 105,65.2 104.8,64.4 104.2,64.4 
					103.8,63.4 103.8,62.4 103.2,61.8 102.2,61.2 102,60.5 102,59.5 101.2,57.9 100.4,56.7 100,56.5 99.7,56.3 99.5,56.3 98.7,56.1 
					98.7,55.7 98.3,55.3 97.7,55.3 97.9,54.9 98.3,54.5 98.5,54.1 98.9,54.1 99.5,54.1 99.8,54.3 				"/>
				<polyline class="st48" points="37.6,52.7 38.6,52.5 38.8,52.3 39,52.3 39.2,53.1 39.6,53.9 39.9,54.5 40.5,55.1 41.3,55.7 
					41.5,56.1 43.3,56.1 44.1,55.3 44.3,54.3 44.7,53.7 45.5,53.5 46.1,52.9 46.7,52.1 46.9,51.8 47.5,51.4 47.7,51.4 48.3,51.2 
					49,51 49.2,50.4 49.4,50.2 50.4,50 51,50.6 51.6,50.6 52.8,50.6 54,50.6 54.8,50.8 55.2,51.4 56.2,53.1 56.9,54.9 57.3,56.1 
					57.3,57.3 58.1,58.3 58.7,59.1 58.9,59.3 58.7,59.7 58.5,60.5 57.5,62.2 57.1,63.2 57.3,64.2 57.9,65.6 57.9,66.8 57.9,68.2 
					57.9,70.3 57.9,71.7 57.5,73.9 57.3,74.9 57.1,75.7 57.3,76.9 57.5,78.8 57.9,80.2 58.3,81.2 59.1,82.4 59.5,83.2 57.9,82.6 
					57.1,82.2 56.2,81.4 55,80.6 52.6,78.2 51.4,77.1 49.8,76.1 47.5,74.9 46.1,74.7 45.5,74.9 42.9,73.1 40.9,72.3 39.8,70.9 
					37.4,69 36.4,67.8 35.4,66.2 33.8,65.8 32.4,66.2 31.6,65.4 30.5,63.8 28.7,61.8 28.3,61.4 28.3,61.2 28.3,60.7 28.3,60.1 
					29.1,59.7 30.3,59.3 31.4,59.3 32.6,58.7 33.2,58.3 32.6,58.3 31.4,58.3 30.9,57.7 30.5,57.7 31.3,56.9 31.8,56.1 33,56.1 
					33.8,55.9 34.2,55.1 34.2,54.5 35.2,54.3 36,54.3 36.6,53.9 37.2,53.3 37.6,52.7 				"/>
				<polyline class="st48" points="81.7,56.3 81.7,55.9 81.9,55.5 82.3,54.9 83,54.3 83.6,53.7 84.4,53.3 84.8,52.9 85.2,52.3 
					85.4,52 85.4,51.6 86,51.8 86.2,52.1 86.4,52.3 86.4,53.1 86.4,53.7 86.8,54.5 87.4,55.1 88,55.9 88.6,56.5 89.2,56.5 90,57.1 
					91.3,57.7 92.1,57.7 92.9,57.7 93.7,57.5 94.1,57.3 94.7,57.1 95.5,57.1 96.3,57.1 96.9,56.9 97.1,56.3 97.3,55.9 97.5,55.7 
					97.7,55.3 98.3,55.3 98.7,55.7 98.7,56.1 99.5,56.3 99.7,56.3 99.3,56.7 99.5,57.7 100,58.9 100.6,59.9 100.8,61.4 101.4,62.6 
					101.8,63.6 101.2,63.8 100.4,64 99.1,64 98.3,64.8 98.1,65.2 97.7,64.4 97.1,63.8 96.1,63.8 95.7,63 94.7,62.4 93.5,62.4 
					92.7,61.8 91.5,61.6 89.4,61.4 88.2,61 87.4,60.5 87.2,60.1 86.2,60.3 85.2,60.5 83.8,60.8 83.2,61.2 82.8,61 82.8,60.1 
					82.8,58.3 83.2,56.9 83,56.1 81.7,56.5 81.7,56.3 				"/>
				<polyline class="st48" points="58.7,59.1 60.3,58.1 60.9,57.1 61.3,56.5 61.9,55.7 62.1,55.5 62.5,55.1 63.1,54.5 63.7,54.3 
					64.9,54.3 65.1,54.3 65.6,54.1 66.6,54.9 67.6,55.9 68.6,56.5 70,56.3 70.6,56.1 71.2,56.1 71.8,55.7 72.6,55.1 73.2,54.9 
					74.1,54.9 75.1,54.9 75.9,54.7 76.9,54.5 78.9,55.3 79.1,55.9 79.9,56.7 80.7,56.7 80.9,56.5 81.3,56.3 81.7,56.3 81.7,56.5 
					83,56.1 83.2,56.9 82.8,58.3 82.8,60.1 82.8,61 82.8,62 82.5,64.4 82.5,66.2 82.6,67.4 82.8,68.4 83.4,69 84,69.3 84.2,69.7 
					86,69.7 86.8,70.3 87.6,70.3 88.6,70.3 89.4,70.1 89.4,70.9 89.4,71.5 89.2,71.9 89.6,72.7 89.8,73.9 90.2,74.5 90,75.5 
					89.8,76.1 89.8,76.9 90,77.7 90.2,78.6 90.4,78.8 90.2,79.6 89.6,80.6 88.6,81.4 87.4,82.2 87.4,83.6 87,84.4 86,84.4 
					85.2,84.6 85,85.2 84.8,85.8 84.8,86.4 84.6,86.9 85.4,87.3 86.6,87.9 86.8,88.7 85,88.9 83.8,88.9 82.8,89.7 82.3,89.7 
					81.9,89.7 81.3,89.3 80.9,89.5 80.9,90.1 79.7,91.1 79.1,91.9 78.7,92.5 77.7,93.3 76.5,93.7 75.7,93.9 75.5,93.3 75.9,92.5 
					76.1,91.1 76.1,89.9 75.7,88.3 75.3,87.5 74.9,86.5 73.6,86.2 72.4,85.8 70.8,85.2 70.2,84.8 69.4,84.4 68.6,83.8 67.2,83.8 
					64.9,83.4 63.7,82.8 62.5,82.4 61.5,82.2 60.5,82.4 60.1,82.8 59.7,83.4 59.5,83.2 59.1,82.4 58.3,81.2 57.9,80.2 57.5,78.8 
					57.3,76.9 57.1,75.7 57.3,74.9 57.5,73.9 57.9,71.7 57.9,70.3 57.9,68.2 57.9,66.8 57.9,65.6 57.3,64.2 57.1,63.2 57.5,62.2 
					58.5,60.5 58.7,59.7 58.9,59.3 58.7,59.1 				"/>
				<polyline class="st48" points="99.7,56.3 100,56.5 100.4,56.7 101.2,57.9 102,59.5 102,60.5 102.2,61.2 103.2,61.8 103.8,62.4 
					103.8,63.4 104.2,64.4 104.8,64.4 105,65.2 105.4,65.6 105.6,65.8 105.8,66.2 105.6,66.8 105.6,67.6 106.2,68 106.4,68.4 
					106.8,68.8 106.6,69 106.2,69.2 106,69.2 105.4,69.3 105.2,69.2 104.2,68.8 103.4,68.4 102.6,68 102,67.6 100.8,67.2 
					100.2,67.2 99.5,66.8 99.3,66.6 98.7,66.2 98.3,65.4 98.7,65.2 98.1,65.2 98.3,64.8 99.1,64 100.4,64 101.2,63.8 101.8,63.6 
					101.4,62.6 100.8,61.4 100.6,59.9 100,58.9 99.5,57.7 99.3,56.7 99.7,56.3 				"/>
				<polyline class="st48" points="123.4,60.3 124.2,60.1 124.8,60.3 125.3,60.3 126.3,60.3 126.5,60.8 126.5,61.6 125.5,62.2 
					125,62.2 124.4,62.2 124,62.8 123.8,63.8 122.8,65 122.4,65 121,65 120.6,65.2 120.6,65.4 120.6,66.6 120.2,67.6 119.8,68.2 
					120.2,68.8 120.6,69.2 121.4,69.2 121.2,69.5 121,69.9 120.8,70.3 120.8,70.5 120.8,71.1 120.6,71.5 120.2,72.5 120,73.1 
					119.8,73.5 119.6,74.3 119.4,73.7 119.2,73.7 117.6,73.5 116.9,73.5 116.1,73.5 115.7,73.5 115.1,72.9 114.3,72.7 113.7,72.9 
					113.3,73.3 112.7,73.5 112.1,73.5 111.3,73.3 110.5,72.9 110.1,72.3 109.3,71.5 108.9,70.9 108.5,70.1 108,69.5 108.2,69.3 
					108,69 107.8,68.8 107.2,68.8 106.8,68.8 106.4,68.4 106.2,68 105.6,67.6 105.6,66.8 105.8,66.2 105.6,65.8 105.4,65.6 
					105.8,65.6 106.6,65 107.4,64.6 107.2,64 107.8,63.6 108.3,62.8 108.9,62.8 110.3,61.8 110.7,61 110.9,60.7 111.7,60.3 
					112.5,59.9 113.3,59.9 113.9,59.9 114.5,60.1 115.1,60.5 115.9,60.8 116.1,60.8 117,60.8 118,60.5 118.8,60.5 119.8,60.7 
					120.4,60.7 121.6,60.7 122.6,60.5 123.4,60.3 				"/>
				<polyline class="st48" points="98.1,65.2 98.7,65.2 98.3,65.4 98.7,66.2 99.3,66.6 99.5,66.8 100.2,67.2 100.8,67.2 102,67.6 
					102.6,68 103.4,68.4 104.2,68.8 105.2,69.2 105.4,69.3 106,69.2 106.2,69.2 106.6,69 106.8,68.8 107.2,68.8 107.8,68.8 108,69 
					108.2,69.3 107.4,69.3 106.8,69.5 106.8,69.9 107,70.7 107.4,71.5 107.4,72.1 106.4,72.5 105.2,71.9 104.2,70.9 103.6,71.5 
					103.4,72.7 103,73.5 102.8,73.9 102.2,73.9 100.6,73.7 98.9,73.5 97.5,73.1 95.9,72.5 93.9,72.5 92.5,72.3 91,72.1 90,72.1 
					89.4,72.1 89.4,71.5 89.4,70.9 89.4,70.1 88.6,70.3 87.6,70.3 86.8,70.3 86,69.7 84.2,69.7 84,69.3 83.4,69 82.8,68.4 
					82.6,67.4 82.5,66.2 82.5,64.4 82.8,62 82.8,61 83.2,61.2 83.8,60.8 85.2,60.5 86.2,60.3 87.2,60.1 87.4,60.5 88.2,61 
					89.4,61.4 91.5,61.6 92.7,61.8 93.5,62.4 94.7,62.4 95.7,63 96.1,63.8 97.1,63.8 97.7,64.4 98.1,65.2 				"/>
				<polyline class="st48" points="28.3,61.4 28.7,61.8 30.5,63.8 31.6,65.4 32.4,66.2 33.8,65.8 35.4,66.2 36.4,67.8 37.4,69 
					39.8,70.9 40.9,72.3 42.9,73.1 45.5,74.9 46.1,74.7 47.5,74.9 49.8,76.1 51.4,77.1 52.6,78.2 55,80.6 56.2,81.4 57.1,82.2 
					57.9,82.6 59.5,83.2 59.7,83.4 60.1,83.6 59.1,84.2 58.9,85.2 59.1,85.8 58.9,87.1 58.3,87.7 58.1,89.3 58.5,91.5 57.5,92.1 
					56,92.5 54.8,92.7 54.8,92.9 54.2,92.9 53.6,92.9 52.8,92.9 52.2,93.3 51.8,93.5 51,93.7 50,93.9 49,94.1 47.7,94.3 46.1,94.3 
					44.9,94.5 43.9,94.5 42.5,94.5 41.9,94.5 41.1,94.3 40.3,93.9 39,93.3 38,92.5 36.2,91.3 34.8,90.7 34.4,90.3 33.8,89.3 
					33.4,88.3 33.4,87.7 33.4,86.5 32.4,85.4 31.4,84.6 29.9,82.4 29.5,81.8 27.9,80.2 27.1,79.2 26.1,78.2 25.3,76.9 24.5,76.1 
					23.7,74.9 22.9,73.9 22,73.3 21.6,72.5 21.2,71.7 20.6,70.7 20.2,69.7 19.4,68.8 19,68.2 18.6,66.8 18.8,66.4 19,67 19.6,67.6 
					20.4,67.6 21.2,67 21,66 20.8,65.6 21,64.8 21.6,64 22,64.2 22.4,65.4 22.6,65.8 22.7,65 22.9,64.4 22.9,63.2 23.1,62 
					23.5,61.6 24.1,62.2 24.5,62.8 24.7,63 25.3,63.2 26.3,64 26.7,64.4 27.1,65 27.7,65.4 27.9,65.4 27.9,64.8 27.7,64 27.7,63.4 
					27.9,62.4 28.3,61.4 				"/>
				<polyline class="st48" points="119.6,74.3 119.8,73.5 120,73.1 120.2,72.5 120.6,71.5 120.8,71.1 120.8,70.5 120.8,70.3 
					121,69.9 121.2,69.5 121.4,69.2 121.8,69.2 122.6,69.3 124,69 124.8,68.4 125.2,68 126.1,67.8 127.1,67.8 127.3,67.4 
					127.9,67.2 128.7,67.2 129.5,67.4 130.1,67.6 131.3,68 131.9,68 132.9,68.2 134.4,68.4 134.6,69.2 134.6,69.7 135.2,70.3 
					135.6,70.9 135.8,71.7 136.2,72.5 136.4,73.1 137,74.1 137,74.9 137.4,75.3 137.6,76.3 137.6,76.7 137.6,77.5 138.2,77.8 
					137.6,77.7 137,77.5 136.4,77.3 135.6,77.1 134.8,77.1 133.7,77.3 132.7,78 132.3,79.2 131.9,80.2 131.5,81 130.7,82 
					129.7,82.6 129.1,83 128.1,83.2 127.5,83.4 126.3,83.6 125,83 124.4,82.6 123.6,82.4 123,82.4 122.6,82.2 122,82 121,82 
					120.6,82 120.2,82 119.4,82.2 119,82.4 118.8,82.8 118.6,83.2 118.6,83.6 118.6,84.2 118.6,84.6 118,85.2 117.4,84.2 
					117.4,83.4 117.8,82 118.2,80.8 119,80 119.4,79.2 119.8,78.4 120.4,77.3 120.4,76.5 120.4,75.9 119.8,74.5 119.6,74.3 				"/>
				<polyline class="st48" points="108.2,69.3 108,69.5 108.5,70.1 108.9,70.9 109.3,71.5 110.1,72.3 110.5,72.9 111.3,73.3 
					112.1,73.5 112.7,73.5 113.3,73.3 113.7,72.9 114.3,72.7 115.1,72.9 115.7,73.5 116.1,73.5 116.8,73.5 117.6,73.5 119.2,73.7 
					119.4,73.7 119.6,74.3 119.8,74.5 120.4,75.9 120.4,76.5 120.4,77.3 119.8,78.4 119.4,79.2 119,80 118.2,80.8 117.8,82 
					117.4,83.4 117.4,84.2 118,85.2 118.6,84.6 118.8,85 118.6,85.6 118.2,86.2 118.2,86.7 118.2,87.3 117,87.5 116.3,87.7 
					115.9,87.7 115.1,87.7 114.7,87.7 114.1,87.9 113.7,88.1 113.5,88.1 112.9,87.9 112.9,87.3 112.7,86.9 111.9,85.6 111.7,84.6 
					111.5,83.8 110.9,83.2 110.9,82.8 110.5,82 110.3,81.4 109.7,80.6 108.9,79.6 108.2,78.6 107.8,77.8 107,77.1 106.6,76.5 
					105.8,75.9 104.8,75.3 104.4,74.9 103.8,74.5 103,74.3 102.8,73.9 103,73.5 103.4,72.7 103.6,71.5 104.2,70.9 105.2,71.9 
					106.4,72.5 107.4,72.1 107.4,71.5 107,70.7 106.8,69.9 106.8,69.5 107.4,69.3 108.2,69.3 				"/>
				<polyline class="st48" points="102.8,73.9 103,74.3 103.8,74.5 104.4,74.9 104.8,75.3 105.8,75.9 106.6,76.5 107,77.1 
					107.8,77.8 108.2,78.6 108.9,79.6 109.7,80.6 110.3,81.4 110.5,82 110.9,82.8 110.9,83.2 110.7,83 109.9,82.6 109.3,82.2 
					108.7,82 108,81.6 106.8,81.4 106.4,81.4 106.2,81.4 106,82 106,82.6 105.8,83.4 105.6,84.2 105.4,84.6 104.6,84.2 103.4,83.4 
					102.8,83.2 102.2,82.6 101.6,81.8 101.2,81.4 100.2,81.4 98.9,81.4 98.3,81.2 97.7,80.4 97.3,80.4 96.9,80.4 95.9,80.4 
					95.1,80.2 94.7,79.2 94.3,78.2 93.9,77.7 92.9,77.7 92.5,78 91,78.4 90.8,78.4 90.4,78.4 90.4,78.8 90.2,78.6 90,77.7 
					89.8,76.9 89.8,76.1 90,75.5 90.2,74.5 89.8,73.9 89.6,72.7 89.2,71.9 89.4,71.5 89.4,72.1 90,72.1 91,72.1 92.5,72.3 
					93.9,72.5 95.9,72.5 97.5,73.1 98.9,73.5 100.6,73.7 102.2,73.9 102.8,73.9 				"/>
				<polyline class="st48" points="96.9,80.4 96.5,81.4 96.5,81.8 96.7,82.6 96.7,83.4 96.5,84 96.5,84.6 96.9,86 97.1,86.7 
					97.1,87.7 96.7,87.7 96.1,87.9 95.1,87.9 94.5,88.5 94.1,89.1 93.9,89.5 93.7,89.1 92.5,88.7 90.6,87.9 90,87.5 89.2,87.3 
					88.6,86.9 87.6,86.4 86.6,86.4 85.6,86.4 85.2,86.4 84.8,86.4 84.8,85.8 85,85.2 85.2,84.6 86,84.4 87,84.4 87.4,83.6 
					87.4,82.2 88.6,81.4 89.6,80.6 90.2,79.6 90.4,78.8 90.4,78.4 90.8,78.4 91,78.4 92.5,78 92.9,77.7 93.9,77.7 94.3,78.2 
					94.7,79.2 95.1,80.2 95.9,80.4 96.9,80.4 				"/>
				<polyline class="st48" points="105.4,84.6 105,85.8 104.2,86.9 104,88.3 104,89.1 103.4,89.7 103.4,90.7 103.4,91.3 103.4,92.3 
					102.6,92.9 102.2,93.3 102.2,94.1 102.4,95 102.6,96.6 102.4,97.4 103,97.8 102.4,97.8 101.8,98 101.6,98.2 101,98.4 
					100.2,98.8 99.8,99.6 99.6,100.2 99.8,101 100,101.4 100.2,102 100.4,102.2 100.2,102.6 99.1,102.4 97.9,102.2 97.1,102.2 
					96.5,102 95.5,101.6 94.9,101 94.7,100.2 94.3,99.2 93.9,98.8 92.7,98.2 92.3,97.4 92.3,96.8 92.5,96.8 92.9,96.8 93.9,96.8 
					95.5,96.6 97.3,96.2 98.1,95.6 99.1,94.9 99.6,94.1 100,93.3 100.6,92.7 101,91.9 101,91.1 100,91.1 99.5,91.1 99.3,91.1 
					98.3,91.1 97.5,91.1 96.9,91.1 96.1,90.9 95.3,90.7 94.9,90.7 94.3,90.3 93.9,89.5 94.1,89.1 94.5,88.5 95.1,87.9 96.1,87.9 
					96.7,87.7 97.1,87.7 97.1,86.7 96.9,86 96.5,84.6 96.5,84 96.7,83.4 96.7,82.6 96.5,81.8 96.5,81.4 96.9,80.4 97.3,80.4 
					97.7,80.4 98.3,81.2 98.9,81.4 100.2,81.4 101.2,81.4 101.6,81.8 102.2,82.6 102.8,83.2 103.4,83.4 104.6,84.2 105.4,84.6 				
					"/>
				<polyline class="st48" points="110.9,83.2 111.5,83.8 111.7,84.6 111.9,85.6 112.7,86.9 112.9,87.3 112.9,87.9 113.5,88.1 
					112.7,89.3 112.7,89.9 112.9,90.3 113.3,90.5 113.7,91.5 113.9,91.7 114.1,91.7 114.5,91.7 114.7,91.7 114.9,91.9 114.9,92.7 
					114.7,93.7 114.7,93.9 114.7,94.3 115.3,94.7 115.7,94.8 115.9,95.6 115.9,96.2 115.9,97 115.9,97.4 115.9,97.8 115.9,98 
					115.5,98.6 115.3,99 115.1,99.2 114.7,99.4 113.9,99.8 113.5,100 113.5,100.4 113.1,101 112.5,101.2 112.3,101.2 111.7,101.2 
					110.9,100.8 109.5,100 108.3,99.4 107.6,98.8 106.8,98.4 106.4,98.2 105.6,97.8 104.4,97.6 103.8,97.6 103.2,97.8 103,97.8 
					102.4,97.4 102.6,96.6 102.4,95 102.2,94.1 102.2,93.3 102.6,92.9 103.4,92.3 103.4,91.3 103.4,90.7 103.4,89.7 104,89.1 
					104,88.3 104.2,86.9 105,85.8 105.4,84.6 105.6,84.2 105.8,83.4 106,82.6 106,82 106.2,81.4 106.4,81.4 106.8,81.4 108,81.6 
					108.7,82 109.3,82.2 109.9,82.6 110.7,83 110.9,83.2 				"/>
				<polyline class="st48" points="93.9,89.5 94.3,90.3 94.9,90.7 95.3,90.7 96.1,90.9 96.9,91.1 97.5,91.1 98.3,91.1 99.3,91.1 
					98.7,91.5 97.7,92.1 95.9,92.3 94.5,92.3 93.3,92.1 91.5,91.7 89.8,91.9 89.2,92.1 88.2,92.3 87.2,91.5 86,91.3 85,91.3 
					84,91.3 83,90.9 83,90.5 82.6,90.1 82.3,89.7 82.8,89.7 83.8,88.9 85,88.9 86.8,88.7 86.6,87.9 85.4,87.3 84.6,86.9 84.8,86.3 
					85.2,86.3 85.6,86.3 86.6,86.3 87.6,86.3 88.6,86.9 89.2,87.3 90,87.5 90.6,87.9 92.5,88.7 93.7,89.1 93.9,89.5 				"/>
				<polyline class="st48" points="73,123.7 72.6,123.1 72.2,122.9 71.8,122.5 71.6,122.3 71.2,121.7 71.4,121.3 71.8,121.3 
					72,121.3 73,121.1 73.6,120.9 74.5,120.7 74.7,121.5 75.1,121.9 75.9,121.9 75.5,122.3 75.1,122.3 74.9,122.3 74.7,122.7 
					74.3,123.1 74.9,123.5 73,123.7 				"/>
				<polyline class="st48" points="122.4,133.6 123.4,133.2 124,133 124.8,132.8 125.9,132.4 126.1,132.6 126.5,132.8 127.1,133 
					126.3,133.2 125.7,134.6 124.2,136.6 123.8,137.4 123.4,138.5 123.4,138.9 123.4,139.7 122.6,140.9 121.4,141.9 121,142.5 
					120.6,143.3 120.4,144.3 119.6,145.3 119,146.3 118.8,147.2 119.4,148.6 120.6,149.8 121,151 121,151.6 121,154 121.4,154.4 
					122.2,154.2 123.2,153.8 124,153.4 124.4,153.4 125.2,153.6 125.2,154 125.2,154.4 125.3,154.9 125,155.5 124.6,156.1 
					124.8,156.9 124.6,157.7 124.6,158.1 125.3,158.3 125.9,158.1 126.7,157.9 127.1,157.1 127.5,157.7 128.1,158.5 129.3,159.3 
					129.9,159.7 130.3,160.7 130.7,161.1 130.7,161.3 131.1,161.1 131.1,161.7 131.3,162.1 131.7,162.9 130.9,163.3 129.9,163.3 
					129.9,164 129.1,164 128.3,164 127.7,163.6 127.1,163.3 125.7,163.1 125.5,163.4 124.8,163.4 124,164.2 124.4,165.2 
					124.2,165.4 123,165.6 121.8,166 121.4,166 120,165.8 119,166.4 118,166.6 115.9,166 114.7,165.8 113.5,165.8 112.1,165.6 
					111.5,165.6 110.5,165.2 109.1,164.4 108.2,164 106.6,163.1 105.4,162.3 104.6,162.1 105,161.7 105.4,161.7 106,161.3 
					106.2,160.7 105.8,160.1 105.6,159.1 107,157.7 108,156.7 109.7,154.6 110.9,152.4 112.1,151.4 113.7,150.2 114.9,149.6 
					114.9,148.4 115.7,147.8 116.3,147 116.3,145.9 115.9,145.1 115.5,144.5 115.3,143.5 115.7,142.7 116.5,142.3 117.4,142.1 
					119,141.3 119.6,140.1 120,139.1 119.8,138.1 119.8,137 120.6,136.2 121,135.4 121,134.6 121,134 121.4,134 122.4,133.6 				"/>
				<polyline class="st48" points="69.4,84.4 68.6,84.6 68.2,85.4 68.4,86.2 68.6,87.7 68.6,88.1 67.6,88.3 66.6,88.1 66.4,88.1 
					66.4,89.1 66.6,89.9 66.4,90.5 65.8,91.1 65.3,91.5 65.3,91.9 65.5,92.3 65.3,92.3 64.7,93.5 64.3,94.1 63.9,94.7 63.1,95 
					61.9,95.2 61.5,95.2 61.3,95.8 60.3,96.2 58.9,96.4 58.1,97 57.1,97.4 56.9,97.2 56.6,96 56.4,95.8 56.4,95.2 56.4,94.7 
					56,94.1 55.4,93.1 55,92.9 54.8,92.9 54.8,92.7 56,92.5 57.5,92.1 58.5,91.5 58.1,89.3 58.3,87.7 58.9,87.1 59.1,85.8 
					58.9,85.2 59.1,84.2 60.1,83.6 59.7,83.4 60.1,82.8 60.5,82.4 61.5,82.2 62.5,82.4 63.7,82.8 64.9,83.4 67.2,83.8 68.6,83.8 
					69.4,84.4 				"/>
				<polyline class="st48" points="69.4,84.4 70.2,84.8 70.8,85.2 72.4,85.8 73.6,86.2 74.9,86.5 75.3,87.5 75.7,88.3 76.1,89.9 
					76.1,91.1 75.9,92.5 75.5,93.3 75.7,93.9 76.5,93.7 77.7,93.3 78.7,92.5 79.1,91.9 79.7,91.1 80.9,90.1 80.9,89.5 81.3,89.3 
					81.9,89.7 82.1,90.7 82.1,91.5 82.5,91.9 83.4,92.7 83.6,93.7 83.2,94.9 82.8,95.6 82.8,96.2 82.3,96.8 81.3,97.6 80.5,98 
					80.1,98.2 80.1,98.4 79.5,98.8 78.7,100.2 78.3,101 77.5,102.4 77.1,102.8 76.3,103.4 74.7,104.5 73.4,105.1 70.6,106.5 
					69.6,107.3 69.4,107.9 69,108.1 68.4,108.9 68.2,108.9 67.4,108.7 66.6,109.1 66,109.1 65.3,108.7 64.9,108.5 64.7,108.5 
					64.7,108.1 64.7,107.7 64.5,107.5 64.7,107.1 65.1,106.3 65.6,105.7 66,104.7 66.4,104.1 66.6,103.5 68.4,103.4 69.6,103 
					70.2,102.4 70.8,101.2 71.4,100.4 72.2,98.8 72.6,97.8 72.4,96.6 71.8,96.2 71,95.4 69.6,94.5 68.4,94.1 67.2,93.7 66.4,92.9 
					66.2,92.5 65.8,92.1 65.5,92.3 65.3,91.9 65.3,91.5 65.8,91.1 66.4,90.5 66.6,89.9 66.4,89.1 66.4,88.1 66.6,88.1 67.6,88.3 
					68.6,88.1 68.6,87.7 68.4,86.2 68.2,85.4 68.6,84.6 69.4,84.4 				"/>
				<polyline class="st48" points="82.3,89.7 82.6,90.1 83,90.5 83,90.9 84,91.3 85,91.3 86,91.3 87.2,91.5 88.2,92.3 89.2,92.1 
					89.8,91.9 91.5,91.7 93.3,92.1 94.5,92.3 95.9,92.3 97.7,92.1 98.7,91.5 99.3,91.1 99.5,91.1 100,91.1 101,91.1 101,91.9 
					100.6,92.7 100,93.3 99.7,94.1 99.1,94.8 98.1,95.6 97.3,96.2 95.5,96.6 93.9,96.8 92.9,96.8 92.5,96.8 92.3,96.8 91.7,96.8 
					89.8,96.6 89,96.6 88.4,96.6 88.2,96.6 87.6,96.2 87.2,96.4 86.6,96 85.6,95.8 84.8,96 84.2,96.2 83,96.2 82.8,96.2 82.8,95.6 
					83.2,94.8 83.6,93.7 83.4,92.7 82.5,91.9 82.1,91.5 82.1,90.7 81.9,89.7 82.3,89.7 				"/>
				<polyline class="st48" points="65.5,92.3 65.8,92.1 66.2,92.5 66.4,92.9 67.2,93.7 68.4,94.1 69.6,94.5 71,95.4 71.8,96.2 
					72.4,96.6 72.6,97.8 72.2,98.8 71.4,100.4 70.8,101.2 70.2,102.4 69.6,103 68.4,103.4 66.6,103.5 66.4,104.1 66,104.7 
					65.6,105.7 65.1,106.3 64.7,107.1 64.5,107.5 64.3,107.3 63.1,106.3 62.5,105.7 61.9,104.9 61.7,104.1 61.7,103.4 61.7,102.8 
					61.7,101.6 61.7,100.4 60.9,99 60.5,99 59.7,99 59.5,99.4 59.3,99.8 59.1,100.2 58.7,100.4 57.7,100.4 57.3,100.2 57.1,99.6 
					57.1,99.2 56.9,98.4 56.9,97.2 57.1,97.4 58.1,97 58.9,96.4 60.3,96.2 61.3,95.8 61.5,95.2 61.9,95.2 63.1,95 63.9,94.7 
					64.3,94.1 64.7,93.5 65.3,92.3 65.5,92.3 				"/>
				<polyline class="st48" points="92.3,96.8 92.3,97.4 92.7,98.2 93.9,98.8 94.3,99.2 94.7,100.2 94.9,101 95.5,101.6 96.5,102 
					97.1,102.2 97.9,102.2 99.1,102.4 100.2,102.6 100.4,102.2 100.4,102.4 100.6,103 100.6,103.4 100.4,103.9 100.6,104.5 
					100.8,105.1 100.8,106.1 100,106.1 99.3,106.1 98.7,106.1 98.3,106.1 97.7,105.3 97.1,105.5 96.7,105.9 96.3,105.9 95.1,105.7 
					94.7,105.9 94.5,106.1 93.9,106.5 93.5,107.1 92.7,107.3 92.5,107.3 91.9,107.3 91.5,107.3 90.8,107.1 90,106.9 89.2,106.9 
					88.2,106.7 87.2,106.5 85.8,106.1 85.4,106.1 85.2,105.3 84.8,104.7 84.2,104.1 83.6,103.2 83,102.4 82.5,101.8 81.5,101.2 
					80.9,100.8 80.7,100 80.7,99.2 80.3,98.4 80.1,98.4 80.1,98.2 80.5,98 81.3,97.6 82.3,96.8 82.8,96.2 83,96.2 84.2,96.2 
					84.8,96 85.6,95.8 86.6,96 87.2,96.4 87.6,96.2 88.2,96.6 88.4,96.6 89,96.6 89.8,96.6 91.7,96.8 92.3,96.8 				"/>
				<polyline class="st48" points="80.1,98.4 80.3,98.4 80.7,99.2 80.7,100 80.9,100.8 81.5,101.2 82.5,101.8 83,102.4 83.6,103.2 
					84.2,104.1 84.8,104.7 85.2,105.3 85.4,106.1 85,106.1 84.6,106.3 84.2,106.5 83.6,106.1 83.2,105.9 82.8,105.5 82.5,105.5 
					82.3,105.3 81.5,105.1 80.1,105.1 79.7,105.1 77.5,104.9 76.5,104.7 76.5,104.3 76.5,103.9 77.1,103.9 77.5,103.7 78.1,103.7 
					78.5,103.4 78.7,103 78.3,102.6 77.7,102.8 77.1,102.8 77.5,102.4 78.3,101 78.7,100.2 79.5,98.8 80.1,98.4 				"/>
				<polyline class="st48" points="77.1,102.8 77.7,102.8 78.3,102.6 78.7,103 78.5,103.4 78.1,103.7 77.5,103.7 77.1,103.9 
					76.5,103.9 76.5,104.3 76.5,104.7 77.5,104.9 79.7,105.1 80.1,105.1 81.5,105.1 82.3,105.3 82.5,105.5 82.8,105.5 83.2,105.9 
					83.6,106.1 84.2,106.5 83.4,106.5 82.6,107.1 82.1,108.1 81.3,108.3 80.1,109.3 79.5,109.5 79.7,109.9 80.7,111.1 81.7,111.9 
					82.3,113.4 82.5,114.6 82.5,115.6 82.8,116.4 83,117 83.4,117.4 83.6,118.2 84,118.8 84.8,119.6 85.6,119.6 86.6,120 87.4,120 
					87.8,120.6 88.6,120.7 89,120.7 89.2,121.7 89.2,123.1 89,124.3 89.2,124.7 89.4,126.1 89.2,127.3 89,128.1 88.6,128.7 
					88.2,129.1 87.2,128.9 86.6,128.5 85.6,128.1 84.8,127.5 83.8,127.1 83.6,126.9 82.8,126.3 82.1,125.9 81.3,125.5 80.7,125.1 
					79.3,123.9 78.1,123.1 77.5,122.9 76.5,122.1 75.9,121.9 75.1,121.9 74.7,121.5 74.5,120.7 74.5,118.6 74.9,117.8 75.7,117.2 
					75.3,116 74.3,116 73.6,115.8 72.4,115.6 72.6,114.2 72.8,113.6 72.8,112.8 72.4,112.1 72,111.3 71.4,110.5 70.8,109.7 
					70.4,108.7 70.4,107.9 69.4,107.9 69.6,107.3 70.6,106.5 73.4,105.1 74.7,104.5 76.3,103.4 77.1,102.8 				"/>
				<polyline class="st48" points="91.9,107.3 92.5,107.3 92.7,107.3 93.5,107.1 93.9,106.5 94.5,106.1 94.7,105.9 95.1,105.7 
					96.3,105.9 96.7,105.9 97.1,105.5 97.7,105.3 98.3,106.1 98.7,106.1 99.3,106.1 100,106.1 100.8,106.1 100.8,106.7 100.2,107.9 
					100.4,108.7 100.4,109.3 100.6,110.3 100.6,110.9 100.8,111.3 100.8,111.7 100.4,112.2 99.8,113.2 99.3,114 98.7,114.8 
					98.5,115.2 97.3,116.4 96.5,116.8 95.7,117.4 95.1,117.8 94.1,118.2 93.5,118.4 92.9,118.6 92.1,119.2 91,119.6 90,119.4 
					89.4,119.6 89.2,120 89.2,120.4 89,120.7 88.6,120.7 87.8,120.6 87.4,120 86.6,120 85.6,119.6 84.8,119.6 84,118.8 83.6,118.2 
					83.4,117.4 83.8,117.4 84.8,116.4 86,115.6 86.8,114.8 88,113.8 88.8,112.6 89.4,111.9 90.2,110.9 90.6,109.9 91,109.1 
					91.5,108.1 91.9,107.3 				"/>
				<polyline class="st48" points="85.4,106.1 85.8,106.1 87.2,106.5 88.2,106.7 89.2,106.9 90,106.9 90.8,107.1 91.5,107.3 
					91.9,107.3 91.5,108.1 91,109.1 90.6,109.9 90.2,110.9 89.4,111.9 88.8,112.6 88,113.8 86.8,114.8 86,115.6 84.8,116.4 
					83.8,117.4 83.4,117.4 83,117 82.8,116.4 82.5,115.6 82.5,114.6 82.3,113.4 81.7,111.9 80.7,111.1 79.7,109.9 79.5,109.5 
					80.1,109.3 81.3,108.3 82.1,108.1 82.6,107.1 83.4,106.5 84.2,106.5 84.6,106.3 85,106.1 85.4,106.1 				"/>
				<polyline class="st48" points="69.4,107.9 70.4,107.9 70.4,108.7 70.8,109.7 71.4,110.5 72,111.3 72.4,112 72.8,112.8 
					72.8,113.6 72.6,114.2 72.4,115.6 73.6,115.8 74.3,116 75.3,116 75.7,117.2 74.9,117.8 74.5,118.6 74.5,120.7 73.6,120.9 
					73,121.1 72,121.3 71.8,121.3 71.4,121.3 71.2,121.7 71.6,122.3 71.8,122.5 72.2,122.9 72.6,123.1 73,123.7 72.4,124.1 
					71.6,124.5 71.4,124.3 70.8,124.3 70.4,124.3 69.6,124.1 69,124.1 68.8,124.1 68.2,124.1 67.6,124.1 67,124.5 66.4,124.7 
					65.3,124.7 64.9,124.7 64.7,124.7 63.9,125.3 63.1,125.3 62.5,124.7 62.1,124.7 61.7,124.7 61.3,124.9 60.9,124.9 60.1,124.7 
					59.7,124.5 58.9,124.5 58.1,124.5 57.3,123.9 57.3,123.3 57.5,123.3 58.3,122.5 58.3,122.3 58.7,121.9 58.9,121.7 59.3,120.7 
					59.7,120.2 59.7,119.4 59.7,118.2 59.5,117.2 59.5,116.4 59.5,115.8 60.3,115 60.5,114.2 60.5,113.8 60.9,113.4 61.5,112.8 
					62.1,112.4 62.5,112.2 63.1,111.3 63.5,110.7 63.7,110.3 64.5,109.9 64.7,109.1 64.7,108.5 64.9,108.5 65.3,108.7 66,109.1 
					66.6,109.1 67.4,108.7 68.2,108.9 68.4,108.9 69,108.1 69.4,107.9 				"/>
				<polyline class="st48" points="89,120.7 89.2,120.4 89.2,120 89.4,119.6 90,119.4 91,119.6 92.1,119.2 92.9,118.6 93.5,118.4 
					94.1,118.2 95.1,117.8 95.7,117.4 96.5,116.8 97.3,116.4 98.5,115.2 98.7,114.8 99.3,114 99.8,113.2 100.4,112.2 100.8,111.7 
					101,112.4 101.4,113.2 101.6,113.4 102.4,113.6 103,113.6 103.6,113.4 104.2,113.4 105.2,113.2 106.6,114 107.8,114.8 
					108.3,116 109.3,117.4 109.7,118.2 109.7,119.2 109.5,120 109.5,121.5 109.7,122.7 109.7,123.7 109.5,124.9 109.3,125.9 
					110.3,127.3 111.1,127.9 111.7,128.1 112.5,128.3 113.9,128.5 115.5,128.9 116.9,129.1 117.6,129.4 117.8,129.6 118.2,130.6 
					118.8,132 119.6,133 120.4,133.8 121,134 121,134.6 121,135.4 120.6,136.2 119.8,137 119.8,138.1 120,139.1 119.6,140.1 
					119,141.3 117.4,142.1 116.5,142.3 115.7,142.7 115.3,143.5 115.5,144.5 115.9,145.1 116.3,145.9 116.3,147 115.7,147.8 
					114.9,148.4 114.9,149.6 113.7,150.2 112.1,151.4 110.9,152.4 109.7,154.6 108,156.7 107,157.7 105.6,159.1 105.8,160.1 
					106.2,160.7 106,161.3 105.4,161.7 105,161.7 104.6,162.1 104.2,161.9 103.2,161.1 103,160.5 102.8,159.5 102.8,158.5 
					102.8,156.9 103.2,155.5 103.6,154 104.2,152.4 104.2,151.2 104.4,150.2 104,148.4 103.4,145.5 103.4,144.1 102.8,142.7 
					101.4,141.5 100.4,140.9 99.3,140.3 98.5,139.9 98.3,139.7 97.7,138.9 97.1,138.9 96.1,139.1 95.5,139.5 94.7,140.3 94.1,140.9 
					93.7,141.5 93.5,141.9 93.5,142.9 93.3,143.7 93.1,144.3 92.7,145.1 92.3,145.7 91.3,146.4 90.6,146.8 90,146.8 89.4,146.8 
					89.2,146.6 88.6,146.6 88.4,146.6 87.8,146.6 87.2,146.4 86.8,146.3 87,146.1 87.4,145.7 88.2,144.7 88.4,144.1 88.4,142.9 
					88.2,142.3 88.2,141.5 87.4,140.3 86.8,139.5 86.4,139.1 86.8,138.1 87,137.8 87.6,136.8 88.2,135.8 88.4,135.2 88.8,134.4 
					89.2,133.6 89.4,132 89.4,131.4 89.2,130.6 89,129.8 88.6,129.4 88.2,129.1 88.6,128.7 89,128.1 89.2,127.3 89.4,126.1 
					89.2,124.7 89,124.3 89.2,123.1 89.2,121.7 89,120.7 				"/>
				<g>
					<polygon class="st49" points="114.3,30.4 113.9,30.8 113.7,31.2 113.9,31.4 113.9,31.8 113.9,32 113.9,32.4 113.9,32.8 
						113.7,33.4 113.5,34 113.3,34.4 113.3,34.8 113.3,35.1 113.1,34.8 113.1,34.6 112.1,34.4 111.7,34.2 111.3,34 110.7,33.6 
						109.7,33.4 109.7,33.2 109.3,32.8 108.5,32.4 108,32.6 108.2,32.8 107.6,32.6 107.6,32.2 107.6,32 108,31.6 108,31.4 107.4,31 
						107.2,30.8 107,30.6 107,30.4 106.6,30.2 106.8,29.8 107.4,29.6 107.6,29.4 108,29.2 108,28.8 108.2,28.6 108.3,28.6 
						108.5,28.4 109.3,28.4 110.3,28.4 110.7,29 111.3,29.4 111.9,29.6 112.3,29.8 112.7,30 113.3,30.2 113.9,30.4 					"/>
					<polygon class="st49" points="113.9,31.8 113.9,31.4 113.7,31.2 113.9,30.8 114.3,30.4 115.3,30.8 116.5,30.8 117.4,30.8 
						118.4,30.8 119,30.8 120.6,30.8 122,31 122.8,31.2 123.2,31.6 123.4,32.2 124,32.6 125.2,33.2 126.5,33.8 127.5,34.2 
						128.3,34.6 128.9,34.6 129.7,34.6 130.3,34.8 130.7,34.8 130.9,34.8 131.1,34.8 131.5,34.8 131.5,35.1 131.5,36.1 131.7,36.9 
						131.5,37.1 131.3,37.3 130.7,37.7 130.7,37.5 129.9,37.3 129.1,37.1 128.1,36.7 127.3,36.5 126.3,36.1 125.7,35.7 124.2,35.3 
						122.4,34.6 121.4,34.2 120.4,33.8 119.2,33.6 119,33.4 118.6,33.4 117.8,32.8 117,32.2 116.5,32 115.5,31.6 114.5,31.4 
						114.1,31.4 					"/>
					<polygon class="st49" points="113.9,31.8 114.1,31.4 114.5,31.4 115.5,31.6 116.5,32 117,32.2 117.8,32.8 118.6,33.4 119,33.4 
						119.2,33.6 119,34.4 118.8,34.6 118.6,35.3 118.4,35.7 118.4,36.5 118.4,37.1 118.4,37.7 118.4,38.5 118.6,38.9 118.6,39.1 
						118.6,39.5 118.4,39.7 118.2,39.5 117.8,39.5 117.4,39.5 116.3,38.9 115.7,38.7 114.9,37.9 114.9,37.7 114.7,36.7 114.5,36.1 
						114.3,35.9 114.1,35.7 113.7,35.3 113.3,35.1 113.3,34.8 113.3,34.4 113.5,34 113.7,33.4 113.9,32.8 113.9,32.4 113.9,32 					
						"/>
					<polygon class="st49" points="109.7,33.2 109.9,34.2 109.7,34.4 109.1,34.6 109.1,34.8 109.5,34.8 109.7,34.8 109.9,34.9 
						109.9,35.1 109.7,35.1 110.1,35.1 110.3,35.3 110.5,35.7 110.5,35.9 110.5,36.3 110.5,36.5 110.3,36.7 110.3,36.9 110.1,37.1 
						110.3,37.3 109.9,37.5 109.7,37.5 109.5,37.3 109.3,37.5 109.5,37.7 109.5,38.1 109.7,38.3 109.9,38.5 109.9,38.7 109.9,39.1 
						109.9,39.3 109.7,39.5 109.3,40.1 109.1,40.5 109.1,40.3 108.9,40.1 108.7,39.7 108.5,39.5 108.3,39.3 108.3,39.5 108,39.3 
						107.8,39.1 107.2,38.7 107,38.5 106.8,38.7 106.6,38.5 106.4,38.5 106.4,38.3 106.2,38.3 106,38.5 106,38.3 106,38.1 
						106.2,38.1 106.2,37.5 106.4,37.1 106.6,36.9 106.6,36.5 106.6,35.9 106.6,35.5 106.8,35.1 107.2,34.9 107.6,34.4 107.8,34 
						108,33.6 108.3,33 108.3,32.8 108.2,32.8 108,32.6 108.5,32.4 109.3,32.8 					"/>
					<polygon class="st49" points="109.7,33.2 109.7,33.4 110.7,33.6 111.3,34 111.7,34.2 112.1,34.4 113.1,34.6 113.1,34.8 
						113.3,35.1 113.7,35.3 114.1,35.7 114.3,35.9 114.5,36.1 114.7,36.7 114.9,37.7 114.9,37.9 115.7,38.7 116.3,38.9 117.4,39.5 
						117.8,39.5 118.2,39.5 118.4,39.7 119.2,40.1 119.4,40.5 119.6,40.9 119.8,41.3 120,41.7 120.2,41.7 120,41.9 119.8,42.3 
						120,43.1 120,43.8 119.8,44.4 119.6,45 119.4,45.8 119.8,47 119.6,47.6 119.2,48 118.6,48.4 117.8,48.4 116.9,48.6 116.5,48.6 
						115.7,48.6 114.7,48.8 114.3,49.2 113.9,49.6 113.7,49.6 113.7,50 113.5,49.6 112.7,49.6 112.3,49.6 111.9,50 111.7,50.2 
						110.7,50.2 110.5,49.6 109.5,49.2 108.7,48.6 108.5,48.2 109.1,47.6 110.1,46.8 109.5,45.2 109.3,44.4 108.7,42.3 108.7,41.1 
						109.1,40.5 109.3,40.1 109.7,39.5 109.9,39.3 109.9,39.1 109.9,38.7 109.9,38.5 109.7,38.3 109.5,38.1 109.5,37.7 109.3,37.5 
						109.5,37.3 109.7,37.5 109.9,37.5 110.3,37.3 110.1,37.1 110.3,36.9 110.3,36.7 110.5,36.5 110.5,36.3 110.5,35.9 110.5,35.7 
						110.3,35.3 110.1,35.1 109.7,35.1 109.9,35.1 109.9,34.9 109.7,34.8 109.5,34.8 109.1,34.8 109.1,34.6 109.7,34.4 109.9,34.2 
											"/>
					<polygon class="st49" points="119.2,33.6 120.4,33.8 121.4,34.2 122.4,34.6 124.2,35.3 125.7,35.7 126.3,36.1 127.3,36.5 
						128.1,36.7 129.1,37.1 129.9,37.3 130.7,37.5 130.7,37.7 131.3,37.3 131.3,38.5 131.3,39.3 131.3,40.1 131.3,40.7 131.3,41.5 
						131.5,42.3 131.7,43.1 131.9,43.5 131.3,43.6 131.1,43.6 130.5,43.6 129.9,43.6 129.1,43.3 128.7,43.1 128.1,43.1 127.1,43.1 
						126.7,43.1 126.5,43.1 126.1,42.7 125.3,42.5 124.6,42.5 124.2,42.5 123.8,42.3 123.4,42.3 123,41.9 122.6,41.5 122,41.5 
						121.4,41.5 121,41.3 120.4,41.5 120.2,41.5 120.2,41.7 120,41.7 119.8,41.3 119.6,40.9 119.4,40.5 119.2,40.1 118.4,39.7 
						118.6,39.5 118.6,39.1 118.6,38.9 118.4,38.5 118.4,37.7 118.4,37.1 118.4,36.5 118.4,35.7 118.6,35.3 118.8,34.6 119,34.4 
											"/>
					<polygon class="st49" points="109.1,40.5 108.7,41.1 108.7,42.3 109.3,44.4 109.5,45.2 110.1,46.8 109.1,47.6 108.5,48.2 
						108.7,48.6 109.5,49.2 110.5,49.6 110.7,50.2 111.7,50.2 111.9,50 112.3,49.6 112.7,49.6 113.5,49.6 113.7,50 113.3,50.4 
						112.9,51 111.9,51.8 110.5,52.5 109.5,53.1 108.2,53.5 107.2,54.1 106,54.5 105,54.5 104.4,54.3 103.2,53.7 102.4,53.9 
						102,54.5 101,54.9 100.4,54.1 99.8,54.3 100.2,53.1 100.6,52 101.2,51.2 101.6,50.2 101,48.4 101.2,48 101.6,47.2 102.4,46.4 
						102.4,45 102.4,44.4 102.6,43.5 102.8,42.3 102.8,41.5 102.8,41.3 102.8,40.9 103.6,41.3 104.2,41.1 104.6,40.9 104.8,40.7 
						104.8,40.3 104.8,39.9 104.8,39.5 104.8,39.1 104.8,38.5 105,38.5 105.4,38.5 105.8,38.5 106,38.3 106,38.1 106,38.3 106,38.5 
						106.2,38.3 106.4,38.3 106.4,38.5 106.6,38.5 106.8,38.7 107,38.5 107.2,38.7 107.8,39.1 108,39.3 108.3,39.5 108.3,39.3 
						108.5,39.5 108.7,39.7 108.9,40.1 109.1,40.3 					"/>
					<polygon class="st49" points="88,42.5 89.2,42.3 90,42.3 90.8,42.1 91.2,41.9 91.7,41.7 92.1,41.5 92.7,41.5 93.3,41.5 
						94.5,41.3 95.9,41.1 96.3,40.9 97.3,40.7 98.1,40.5 98.9,40.7 99.3,41.1 99.7,41.3 100.4,41.3 100.8,41.1 101,40.7 101.4,40.5 
						101.6,40.3 102,40.3 102.6,40.5 102.8,40.9 102.8,41.3 102.8,41.5 102.8,42.3 102.6,43.5 102.4,44.4 102.4,45 102.4,46.4 
						101.6,47.2 101.2,48 101,48.4 101.6,50.2 101.2,51.2 100.6,52 100.2,53.1 99.8,54.3 99.5,54.1 98.9,54.1 98.5,54.1 98.3,54.5 
						97.9,54.9 97.7,55.3 97.5,55.7 97.3,55.9 97.1,56.3 96.9,56.9 96.3,57.1 95.5,57.1 94.7,57.1 94.1,57.3 93.7,57.5 93.5,56.5 
						93.7,55.3 93.5,54.1 93.5,52.3 93.3,50.8 92.9,49.8 92.1,49.2 91.2,48.6 90.8,48.2 90.4,47.4 89.6,47.2 88.4,47 87.6,46.6 
						87.6,46.2 87.8,46 87.8,45.6 87.8,45 88.2,44 88.2,42.9 					"/>
					<polygon class="st49" points="131.9,43.5 132.3,44.2 132.3,44.6 132.5,45.2 132.7,45.4 132.9,45.6 133.3,46.2 133.9,47 
						133.5,47.4 132.7,47.8 132.1,48.2 131.3,48.4 130.5,48.8 129.7,49.2 129.1,49.6 128.3,50 127.5,50.4 126.9,50.8 125.9,51.4 
						125.3,52 125,52.5 124.4,53.3 124,53.9 123.2,54.5 123.4,55.3 123,55.1 122.4,55.1 122,54.9 121.4,54.5 121,53.9 120,52.9 
						119,52.3 118.2,52.1 117,52 116.7,51.4 116.9,51 116.9,50.2 116.9,49.6 116.9,49 116.9,48.6 117.8,48.4 118.6,48.4 119.2,48 
						119.6,47.6 119.8,47 119.4,45.8 119.6,45 119.8,44.4 120,43.8 120,43.1 119.8,42.3 120,41.9 120.2,41.7 120.2,41.5 120.4,41.5 
						121,41.3 121.4,41.5 122,41.5 122.6,41.5 123,41.9 123.4,42.3 123.8,42.3 124.2,42.5 124.6,42.5 125.3,42.5 126.1,42.7 
						126.5,43.1 126.7,43.1 127.1,43.1 128.1,43.1 128.7,43.1 129.1,43.3 129.9,43.6 130.5,43.6 131.1,43.6 131.3,43.6 					"/>
					<polygon class="st49" points="116.9,48.6 116.9,49 116.9,49.6 116.9,50.2 116.9,51 116.7,51.4 117,52 118.2,52.1 119,52.3 
						120,52.9 121,53.9 121.4,54.5 122,54.9 122.4,55.1 123,55.1 123.4,55.3 123,55.5 123.2,56.1 123.4,56.5 124,56.7 124.2,57.5 
						123.8,58.3 123.4,58.7 123,59.7 123,59.9 123.4,60.3 122.6,60.5 121.6,60.7 120.4,60.7 119.8,60.7 118.8,60.5 118,60.5 
						117,60.8 116.1,60.8 115.9,60.8 115.1,60.5 114.5,60.1 113.9,59.9 113.9,59.5 114.1,58.5 113.9,57.1 114.3,55.1 114.3,53.3 
						114.3,51.8 114.1,50.4 113.7,50 113.7,49.6 113.9,49.6 114.3,49.2 114.7,48.8 115.7,48.6 116.5,48.6 					"/>
					<polygon class="st49" points="99.8,54.3 100.4,54.1 101,54.9 102,54.5 102.4,53.9 103.2,53.7 104.4,54.3 105,54.5 106,54.5 
						107.2,54.1 108.2,53.5 109.5,53.1 110.5,52.5 111.9,51.8 112.9,51 113.3,50.4 113.7,50 114.1,50.4 114.3,51.8 114.3,53.3 
						114.3,55.1 113.9,57.1 114.1,58.5 113.9,59.5 113.9,59.9 113.3,59.9 112.5,59.9 111.7,60.3 110.9,60.7 110.7,61 110.3,61.8 
						108.9,62.8 108.3,62.8 107.8,63.6 107.2,64 107.4,64.6 106.6,65 105.8,65.6 105.4,65.6 105,65.2 104.8,64.4 104.2,64.4 
						103.8,63.4 103.8,62.4 103.2,61.8 102.2,61.2 102,60.5 102,59.5 101.2,57.9 100.4,56.7 100,56.5 99.7,56.3 99.5,56.3 
						98.7,56.1 98.7,55.7 98.3,55.3 97.7,55.3 97.9,54.9 98.3,54.5 98.5,54.1 98.9,54.1 99.5,54.1 					"/>
				</g>
			</g>
			<circle class="st50" cx="212.4" cy="91.9" r="15.7"/>
			<line class="st51" x1="210.3" y1="75.9" x2="210.3" y2="76.1"/>
		</g>
		<g>
			<text transform="matrix(0.9941 0 0 1 197.6836 171.9194)"><tspan x="0" y="0" class="st6 st52 st53">Departamento</tspan><tspan x="38" y="18.5" class="st6 st52 st53">de Cauca</tspan></text>
		</g>
		<g>
			<g>
				<path class="st6" d="M151.9,107c0,0.6-0.3,0.9-0.8,0.9h-0.5c0,0.5-0.1,2-0.1,4.3v8.2h-2.7l-7-9.7h0v4.4c0,1.8,0,3.1,0.1,3.6h0.7
					c0.6,0,0.9,0.3,0.9,0.9c0,0.4-0.2,0.6-0.3,0.7h-4.2c-0.1-0.1-0.3-0.3-0.3-0.7c0-0.6,0.3-0.9,0.8-0.9h0.5c0-0.4,0.1-1.8,0.1-4.3
					v-6.6h-0.6c-0.5-0.1-0.8-0.3-0.8-0.9c0-0.4,0.2-0.6,0.3-0.7h4l6.7,9.3h0v-4.1c0-1.8,0-3.1-0.1-3.6h-0.6c-0.6,0-0.9-0.3-0.9-0.9
					c0-0.4,0.2-0.6,0.3-0.7h4.1C151.7,106.4,151.9,106.6,151.9,107z"/>
			</g>
			<polyline class="st6" points="136.9,102.6 144.9,94.6 152.9,102.6 			"/>
		</g>
		<line class="st54" x1="215.3" y1="76.4" x2="147.7" y2="20.3"/>
		<line class="st54" x1="218.9" y1="107.5" x2="153.8" y2="165"/>
	</g>
</g>
<g id="PUNTOS_MAPAS">
</g>
<g id="CONVENCIONES">
</g>
</svg>
