<svg id="Capa_1" data-name="Capa 1" xmlns="http://www.w3.org/2000/svg" viewBox="0 0 555.8 555.4"><defs><style>.cls-1{fill:#dac560;}.cls-2{fill:#849a5c;opacity:0.56;}.cls-10,.cls-12,.cls-15,.cls-2{isolation:isolate;}.cls-3{opacity:0.3;}.cls-21,.cls-22,.cls-23,.cls-24,.cls-25,.cls-26,.cls-4{fill:none;}.cls-25,.cls-4{stroke:#00341e;}.cls-25,.cls-26,.cls-4{stroke-miterlimit:10;}.cls-5{fill:#00a4aa;}.cls-6{fill:#fff;}.cls-7{fill:#23559e;}.cls-8{fill:#e56324;}.cls-9{fill:#d5378b;}.cls-10,.cls-15{font-size:11.03px;font-family:BasicGothicPro-Light, Basic Gothic Pro;font-weight:300;}.cls-10{fill:#00341e;}.cls-11{letter-spacing:-0.01em;}.cls-13{letter-spacing:-0.02em;}.cls-14{letter-spacing:0em;}.cls-15{fill:#1d1d1b;}.cls-16{letter-spacing:-0.01em;}.cls-17{letter-spacing:-0.07em;}.cls-18{letter-spacing:-0.01em;}.cls-19{letter-spacing:0em;}.cls-20{letter-spacing:0em;}.cls-21{stroke:#0d0e0a;stroke-linecap:round;stroke-linejoin:round;stroke-width:1.37px;}.cls-22{stroke:#f8c434;}.cls-22,.cls-23,.cls-24{stroke-miterlimit:10;stroke-width:2px;}.cls-23{stroke:#672574;}.cls-24{stroke:#bb1825;}.cls-25,.cls-26{stroke-width:2px;}.cls-26{stroke:#d5378b;}</style></defs><g id="MAPA_BASE" data-name="MAPA BASE"><rect class="cls-1" y="0.3" width="555.8" height="555.1"/><path class="cls-2" d="M537,155c-1.6,0-24-10.6-31-10.6s-23.6,1.2-26.8-5-16,4.4-23,5-7.7-12.5-7.7-16.2-14.1-15.6-19.2-15-29.4-2.5-32-5.6-20.4,0-27,1.2c-4,.8-12.6-1.3-20.4-3-4.9-1.1-9.4-2-12.1-2-7,0-19.8-1.9-24.9-7.1s-7.7-7.2-15.3-7.2-15.4-8.1-19.9-11.2S264.3,87,266.8,94s-8.3,4.3-10.4.5-3,13.1,0,18.7,7.3,0,7.3,0,10.2,11.9,9.6,18.1-8.9,18.1-16.8,19.4-5.6,3.7-8.8,11.9,3.2,5.6,8.8,16.2S242,193.2,242,193.2s-7.7,13.7-7.7,20.6S213.9,225,213.9,225c-6.4-12.5-15.3-10.6-15.3-10.6s-10.9,7.5-9,11.9-1.3,5.6-5.1,9.4-20.4-5.6-20.4-5.6,5.2-20.6,0-20.3S153.4,220,153.4,220s-9.5,11.2-17.4,10.2-15-10.1-15-10.1l-23-5.6s-18.8-18.2-14.5-24.3a31.28,31.28,0,0,0,5-13.4S71.1,136.6,65.6,139s-15,11.9-15,11.9v15l8.7,10.9c.8,1-4.4,15.9-4.4,15.9l-4.3,11.9L38,214.2V221s4,15,4,22.9v25.3L30.9,281.8l-21,23.7s28.9,15,32.9,15.8,3.2,25.3,1.6,33.2-15.8,15.1-15.8,21,.8,16.9,14.2,24.1,19,13.5,21.3,13.5,19.3,5.5,19.3,5.5,20.1,11.9,28.4,0,7.6-15.8,9.2-19,.5-24.1,15.8-24.1a20.91,20.91,0,0,0,7.7-1.1,59.17,59.17,0,0,0,7.5.9c0,.1,0,.1.1.2,2,4.4,7.6,4.3,7.6,4.3l.6-1.8.3.3-.9,1.6,18.6,13.2,15.3,10L207,425.6l8.9,18.7,6.4,3.7v18.7l27.5,23.7,6.8-18.1V460.4l19.6,5,21.5,9.4,16.6.6,4.3-6.9,9.1-8.1,12.7-14.1c.3-.1.6-.1,1-.2l4.3,14.3h12.1l5.8-15,12,5.6h12.7l6-12.5L405.2,451l8.9-5.6s10.9-18.1,11.5-20,13.9-6.9,13.9-6.9l-4.3-19.1v-9.1c3.2.6,28.7-17.5,36.5-24.4s21-15,30.2-17.5,2.9-20,2-26.9,6-18.7,20.1-26.9,10.2-26.8,13.1-33-5.5-23.1-6.8-29.4-17.3,0-17.3,0l-3.6-8.1s14.6-3.7,21.6-6.9,6.4-8.7,2.6-18.1-3.8-5-1.9-10.6a6.12,6.12,0,0,0-1.3-6.1,13.82,13.82,0,0,0-8.2-4.5c-4.5-.6-.6-15.6,8.3-11.9s17.9-3.1,20.1-11.2c2.1-7.9-12,.2-13.6.2" transform="translate(-0.1 -0.3)"/><g class="cls-3"><path class="cls-4" d="M263.4,113s-4.2,5.6-7.3,0-2.1-22.5,0-18.8,13,6.4,10.4-.5,6.4-18.8,10.9-15.7,12.3,11.3,19.9,11.3,10.2,2,15.3,7.2,17.9,7.1,24.9,7.1,26,6.3,32.5,5,24.4-4.4,27-1.3,26.9,6.3,32,5.6,19.2,11.3,19.2,15,.6,16.9,7.7,16.3,19.8-11.3,23-5,19.8,5,26.9,5,29.5,10.6,31.1,10.6,15.6-8.1,13.4,0-11.2,15-20.2,11.3-12.8,11.3-8.3,11.9,11.5,5,9.6,10.6-1.9,1.3,1.9,10.6,4.5,15-2.6,18.1-21.7,6.9-21.7,6.9l3.7,8.1s16.1-6.3,17.4,0,9.7,23.1,6.8,29.4.9,24.9-13.2,33.1-21,20.1-20.1,27,7.2,24.4-2,26.9-22.4,10.6-30.2,17.5-33.3,25-36.5,24.4-11.6-10.6-16,0-21.1,0-21.1,0l-22.5-14.4s10.4-18.1,4-30l-6.4-11.9s15.1-26.3,2.4-33.1c0,0-16.5.6-19.7,8.8s-10.2,21.3-10.2,21.3l-7,6.3.6,13.1s1.8,5.6-7.4,5.6-10.5,11.9-18.2,11.9-16.6,7.5-16.6,7.5-13.4,1.3-19.8,10-7.7,16.9-14.7,13.1-16-8.1-21.7-7.5-16-18.8-26.9-18.1-14.1,17.5-24.3,14.4-19.2-13.1-8.3-20,15.4-6.9,16-14.4,8.9-26.9-7.7-29.4-8.3-15-5.7-21.3-1.9-23.8,5.7-28.1,9.6-32.7,14.1-35.7S213.7,225,213.7,225s20.5-4.4,20.5-11.3,7.7-20.6,7.7-20.6,20.1-3.8,14.5-14.4-12-8.1-8.8-16.3.9-10.6,8.8-11.9,16.2-13.1,16.8-19.4C273.6,124.8,263.4,113,263.4,113Z" transform="translate(-0.1 -0.3)"/><path class="cls-4" d="M271.5,125a9.34,9.34,0,0,1,6.6,3c3.2,3.1,8.3,13.1,8.3,13.1l17.3,3.8s-12.2,15.6-12.8,18.1,23-8.8,24.9-8.8,8.3,9.1,8.3,9.1h7.3s1.7-22.2,4.2-24.8,5.1-10.6,5.1-10.6l-2.6-6.3,11.5-16.1" transform="translate(-0.1 -0.3)"/><path class="cls-4" d="M335.7,138.6h17.9l11.4,3.8,10.3,9.4s7.8-6.3,13.9-6.6,34.9,0,34.9,0,7.8,14.8,10.9,18.2,28.1,14,30,14h10.3l21,15,33.8-9.9" transform="translate(-0.1 -0.3)"/><path class="cls-4" d="M389.1,145.2l-28.5,62.2s13.8-3.1,14.6,0,9.8,28.1,9.8,28.1,14.6,15.6,18.5,15.6,7-5.6,14.7-6.9,8.7,11.9,21,11.3,36-3.1,36-3.1l12.1-10,14.3,9.4,11.2-19.4" transform="translate(-0.1 -0.3)"/><path class="cls-4" d="M360.6,207.4s-15.4-.3-15.4-7V183s-12.2,14.4-9.6,22.5,6.4,10,8.3,16.9,11.8,20.6,4,23.1-15,5.6-16.5,2.5-4.1-13.8-2.8-15.6-10.9,13.1-13.4,12.5-9.6-8.8-7.7-10.6-2.6-6.9-5.1-10-5.8-20,0-16.3,9.3,1.9,8.2-2.5S304.9,188,299.2,188s-14,4.4-14,4.4-11.5-9.4-9,0,14.1,23.8,14.1,23.8l3.6,10,7.2,12.4s-.6,3.3-4.5,10.8-9,14.9-15.1,14.9c0,0,12.7,4.4,12.3,11.9s-4.9,15.6-4.9,15.6,10.9,21.3,18.5,25.6,10.7,21.3,10.7,21.3l20.5,8.7" transform="translate(-0.1 -0.3)"/><path class="cls-4" d="M375.2,301.2s6.5-5.6,6.5-10v-4.4s7.7,6.9,7.4,0,0-21.6,0-21.6l11.4-15.4" transform="translate(-0.1 -0.3)"/><line class="cls-4" x1="290.8" y1="162.7" x2="290.8" y2="189.6"/><path class="cls-4" d="M241.6,193s1.3,8.8,6.4,11.9a146.67,146.67,0,0,1,12.2,8.8l4.5,6.9h16.9l12.3,5.6" transform="translate(-0.1 -0.3)"/><path class="cls-4" d="M434.9,390.6v9.1l4.3,19.1s-13.3,5-14,6.9-11.5,20-11.5,20l-9,5.6-10.9-12.5-6,12.5H375.1l-12-5.6-5.8,15H345.1l-4.5-15v-40s-14.8-21.9-9.3-25.6,8.1-16.9,8.1-16.9l-.6-12.5" transform="translate(-0.1 -0.3)"/><polyline class="cls-4" points="177.7 379.6 161.6 375.3 159 379.6 177.7 392.8 193 402.8 206.4 425.3 215.3 444.1 221.7 447.8 221.7 466.6 249.2 490.4 256.1 472.2 256.1 460.3 275.7 465.3 297.2 474.7 313.8 475.4 318.1 468.5 327.3 460.3 340.7 445.3"/><path class="cls-4" d="M159.1,379.9s-5.6.1-7.6-4.3-.7-6.9-4.6-8.1-6.8-10-6.8-10-15-20-10.5-24.4.9-8.8-.8-11.3-11.3-5-7.5-14.4,14.7-27.6,13.4-31.9,6.7-19.5,9.1-25.7,19.7-19.9,19.7-19.9,16.6,9.4,20.5,5.6,7-5,5.1-9.4,9-11.9,9-11.9,9-1.9,15.4,10.6" transform="translate(-0.1 -0.3)"/><path class="cls-4" d="M163.6,229.9s5.2-20.6,0-20.3-10.7,10.2-10.7,10.2S143.4,231,135.5,230s-15-10.1-15-10.1l-23-5.6S78.7,196.1,83,190a32.22,32.22,0,0,0,5.1-13.4s-17.4-40.2-22.9-37.8-15,11.9-15,11.9v15l8.7,10.9c.8,1-4.4,16-4.4,16l-4.3,11.9-12.7,9.9v6.8s4,15,4,22.9v25.3L30.4,282.1l-21,23.7s28.9,15,32.9,15.8,3.2,25.3,1.6,33.2-15.8,15.1-15.8,21,.8,16.9,14.2,24.1,19,13.5,21.4,13.5S83,418.9,83,418.9s20.1,11.9,28.5,0,7.6-15.9,9.2-19,.5-24.1,15.8-24.1,10.7-8.1,10.7-8.1" transform="translate(-0.1 -0.3)"/><path class="cls-4" d="M345.3,183s-.5-6.4-5.5-8.5-8.3-11.2-8.3-11.2" transform="translate(-0.1 -0.3)"/></g></g><g id="RELIEVE"><path class="cls-5" d="M294,10.5c-.3-1-.5-1.9-.7-2.9a1.22,1.22,0,0,0,.3-.9A3.49,3.49,0,0,0,293,5a10.09,10.09,0,0,1-.7-1.5h.2a.92.92,0,0,0,.6-.4,2.34,2.34,0,0,0,1.2-1.2,1.34,1.34,0,0,0-.6-1.4c-.9-.4-1.3-.1-2.1.1a6.93,6.93,0,0,1-2,.3A1,1,0,0,0,288.4,2a1.32,1.32,0,0,0,1,1.9h.1l-.2.2a2.39,2.39,0,0,0-.5,1.4,2.55,2.55,0,0,0,.6,1.3,6.47,6.47,0,0,0,.4,2c.3,1,.6,2,.9,3.1.6,2.1,1.2,4.2,2,6.3a1.33,1.33,0,0,0,2.6-.4C295.5,15.3,294.7,12.9,294,10.5Z" transform="translate(-0.1 -0.3)"/><path class="cls-5" d="M296.2,32.8a60,60,0,0,0,1.2-11.2,44.33,44.33,0,0,0-1.6-11.5,1.8,1.8,0,0,0-1.2-1.2l.3-6.6a1.48,1.48,0,0,0-2.4-1.1c-.6-.4-1.8,0-1.7.9.3,2.3.5,4.6.8,6.9a41.4,41.4,0,0,0,1.9,12.6c0,.1.1.2.2.3a75.51,75.51,0,0,1-1.2,9.4,11,11,0,0,0,.1,5.1c.4,1.5,1.2,2.8,1.7,4.3,1,3.1-1.3,6.3-2.7,8.9l-2.4,4.2c-.4.6-.7,1.3-1.1,1.9a8.2,8.2,0,0,1-2,1.7,6.39,6.39,0,0,0-1.9,2.1c-.4.6-.7,1.3-1.1,1.9-.8,1.4-1.6,2.7-2.5,4.1-1.7,2.7-3.6,5.2-5.5,7.7-1.6,2.2-2.8,4.5-2.2,7.3.7,3,3.1,5.5,5.5,7.2,1.2.9,2.5,1.6,3.7,2.4a10.44,10.44,0,0,1,1.4,1,12.23,12.23,0,0,1,1.2,1.9,3.82,3.82,0,0,0,1.7,1.9,4.67,4.67,0,0,1,1.4,1.4l.1.4c0,.2.1.4.1.6a6.6,6.6,0,0,1,.1,1.4c0,1,0,2-.1,3-.5,4.6-1.1,9.2-1.7,13.8-.1,1.1-.2,2.1-.4,3.2s-.7,2.4-1,3.6c-.4,2.3-.5,4.7-.8,7a10.07,10.07,0,0,1-1.1,4.2,1.34,1.34,0,0,1-.7.6,1.73,1.73,0,0,1-1-.1c-1.4-.5-2.5-1.7-3.7-2.6a8.54,8.54,0,0,0-4.9-1.7,2.34,2.34,0,0,0-2.2,1.7c-.3,1.6-.6,3.1-.9,4.7s-1.3,3.3-1.4,5.1a28.86,28.86,0,0,0,1.4,9.7,23.89,23.89,0,0,1,1.4,8.8,32.56,32.56,0,0,1-2,8.6c-2.1,6-5.4,11.4-8.5,17a93.43,93.43,0,0,0-4.6,8.9,46.74,46.74,0,0,1-4.3,8.3,50.24,50.24,0,0,1-5.5,6.7,28,28,0,0,1-6.1,5.3c-2,1.2-4.4,2.2-6.7,1.6s-3.8-2.7-5.2-4.5a11.61,11.61,0,0,0-5.7-4.3,19.68,19.68,0,0,0-3.5-.5,7.72,7.72,0,0,0-4.5.5,14.72,14.72,0,0,0-6.2,5.4,11.73,11.73,0,0,0-1.4,4.1c-.3,1.3-.7,2.6-1,3.8s-1.2,4.7-3,4a15.6,15.6,0,0,1-2.8-2.3,6.36,6.36,0,0,0-3.8-1.2,10.34,10.34,0,0,0-8,3.2,10.19,10.19,0,0,0-2.3,4.5c-2.2-1.9-4.6-3.5-7.5-3.8-3.8-.4-7.6,1.4-8.9,5.2-.6,1.9,2.4,2.7,3,.8.8-2.4,4-2.9,6.1-2.3,3.2.9,5.1,3.8,6.8,6.4a2.51,2.51,0,0,0,4.5-.6,35.94,35.94,0,0,1,1.2-3.5l.9-1.8a12.15,12.15,0,0,1,.9-2c.9-1.7,2.8-3.3,4.7-2s3.2,3.5,5.9,3.4c2.4-.1,4.1-2,5.1-4,1.1-2.2,1.4-4.7,2.8-6.8.8-1.1,1.5-2.2,2.3-3.3a8.39,8.39,0,0,1,2.3-2.3c.5-.3,1.1-.5,1.6-.8a7.46,7.46,0,0,1,1.5-.9,3.55,3.55,0,0,1,3,.3c2.1,1,3.3,3.3,4.7,5.1a10,10,0,0,0,6.2,4,13.45,13.45,0,0,0,7.6-1.4,36.8,36.8,0,0,0,7-4.6,53.39,53.39,0,0,0,6.7-5.9c4.3-4.7,7.2-10.6,9.6-16.5s4.7-12,7.3-17.8c2.9-6.4,5.2-13.2,4.1-20.3-.5-3.4-1.5-6.6-1.4-10.1a24.37,24.37,0,0,0,.1-2.7,19.42,19.42,0,0,1-.2-2.4,12.42,12.42,0,0,1,.4-3.3,8.28,8.28,0,0,1,1.5,1.1,15.68,15.68,0,0,0,4.3,2.7c4.1,1.3,7.2-1.9,8.2-5.6a53.11,53.11,0,0,0,1-6.8,23.25,23.25,0,0,0,.4-3.7c0-1.3-.1-2.6,0-3.9.6-5.2,1.3-10.3,1.8-15.5a25,25,0,0,0-.2-7.7c-.5-2.4-.8-4.9-3-5.9h.1c-1.2-.5-2.6-.8-3.7-1.4s-2.4-1.3-3.6-1.9c-2.4-1.3-4.7-2.9-6-5.4a4.9,4.9,0,0,1-.3-4.1c.6-1.5,2.3-2.6,3.5-3.7q3.45-3,6.6-6.3c1.1-1.1,2.2-2.3,3.2-3.5a6.91,6.91,0,0,0,1.6-2.2,21.72,21.72,0,0,0,.7-2.4,17.21,17.21,0,0,1,2-3.8c.8-1.4,1.6-2.8,2.3-4.2,1.4-2.7,3.3-5.8,3.1-9S295.7,35.9,296.2,32.8Z" transform="translate(-0.1 -0.3)"/><path class="cls-5" d="M171.4,228.8a15.3,15.3,0,0,0-1.8,1.8c-.1.1-.2.2-.2.3l-.1.1a158.19,158.19,0,0,0-9.6,14.5c-1.1.8-2.1,1.5-2.4,3-.3,1.3-.4,2.7-.6,4.1-.1,1.2-.1,2.4-.3,3.6-.2,1.4-.2,2.9-.5,4.2a9.87,9.87,0,0,1-1.7,3.2l-2.4,3.6c-.6,1-1.4,1.9-2,2.9a31.82,31.82,0,0,0-1.8,3.7c-1.1,2.4-2.2,4.7-3.3,7s-2.6,4.2-3.8,6.4a37.19,37.19,0,0,0-4.8,14.4,28.27,28.27,0,0,0,.4,7.7c.5,2.4,1.3,4.8,1.8,7.3s.9,5-.3,7.2a15.71,15.71,0,0,1-4.9,4.7,37.15,37.15,0,0,0-6.2,4.9,43.62,43.62,0,0,0-4.8,6.5c-1.3,2.2-2.4,4.5-3.5,6.8a59.28,59.28,0,0,0-2.9,6.9c-1.6,4.8-2.9,10.1-2.3,15.1.3,2.4.7,4.9,1.2,7.3a11.38,11.38,0,0,0,1.9,4.2l.9.9.3.3h0l.6.9a9.74,9.74,0,0,0,.2,2.4,8.4,8.4,0,0,0,1.9,3.1,9.14,9.14,0,0,0,3.2,2.2,3.4,3.4,0,0,0,1,.1,4.81,4.81,0,0,0,1.5,2,7.7,7.7,0,0,1,1.9,2.2,6.51,6.51,0,0,1,.6,5.3,2.59,2.59,0,0,0,1.5,3.1,2.72,2.72,0,0,0,3.3-1.1,13.26,13.26,0,0,0,.4-9.6,16.85,16.85,0,0,0-2-4.3,5,5,0,0,0-2.9-2.4,2,2,0,0,0-.8-.1c-.1-.2-.1-.4-.2-.5-.6-1.1-1.5-1.4-2.5-2,.2.2-.1-.1-.2-.1a1.33,1.33,0,0,1-.3-.5c-.4-.7-.6-.8-.9-1.3a11.85,11.85,0,0,0-.5-3.2c-.6-2-1.9-3-3.5-4.2a6.48,6.48,0,0,1-2-1.7,6.09,6.09,0,0,1-1.3-3.1,24.66,24.66,0,0,1,3.1-14.3,63.83,63.83,0,0,1,4.3-7.1c1.5-2.1,3.4-4.1,5.1-6.1a34.46,34.46,0,0,1,2.6-2.8c1-1.1,1.8-2.4,2.8-3.5,1.7-2.1,3.7-4.1,5-6.4a20.61,20.61,0,0,0,2.2-7.3,39.31,39.31,0,0,0,0-8.4,73.1,73.1,0,0,1-.5-8,34.92,34.92,0,0,1,1.1-7.8,50.31,50.31,0,0,1,2.4-7.5,27.27,27.27,0,0,1,3.7-7.2c3.5-4.5,8-8.6,10.1-14a16.36,16.36,0,0,0,.8-5,37.13,37.13,0,0,1,.5-4.8,13.33,13.33,0,0,1,1.4-4.4c.8-1.5,2.3-3.2,2.3-4.8a13.4,13.4,0,0,1-.1-2,13.27,13.27,0,0,1,.9-2.1c.7-1.4,1.5-2.8,2.3-4.2,1.7-2.7,3.5-5.3,5.3-7.9a2.24,2.24,0,0,0,.3-1,14.58,14.58,0,0,0,.7-1.9A1.06,1.06,0,0,0,171.4,228.8Z" transform="translate(-0.1 -0.3)"/></g><g id="PUNTOS_MAPAS" data-name="PUNTOS MAPAS"><path class="cls-6" d="M257.6,302a15.11,15.11,0,0,1,2.9-1.3h0A15.11,15.11,0,0,0,257.6,302Z" transform="translate(-0.1 -0.3)"/><path class="cls-6" d="M265.8,299.9a17.2,17.2,0,0,1,3.2.2.1.1,0,1,1,0,.2h0a17.2,17.2,0,0,0-3.2-.2.14.14,0,0,1,0-.2Z" transform="translate(-0.1 -0.3)"/><path class="cls-6" d="M274.2,301.3l1.5.6,1.5.6a.22.22,0,1,1-.2.4h0l-1.5-.6-1.5-.6h0c-.1,0-.1-.1-.1-.2S274.2,301.2,274.2,301.3Z" transform="translate(-0.1 -0.3)"/><path class="cls-6" d="M282.1,304.7,285,306c.1.1.2.2.1.4s-.2.2-.4.1h0l-2.9-1.4c-.1-.1-.2-.2-.1-.3S281.9,304.6,282.1,304.7Z" transform="translate(-0.1 -0.3)"/><path class="cls-6" d="M289.8,308.3l2.9,1.3a.38.38,0,1,1-.3.7h0l-2.9-1.4a.4.4,0,0,1-.2-.4C289.5,308.3,289.7,308.2,289.8,308.3Z" transform="translate(-0.1 -0.3)"/><path class="cls-6" d="M297.6,311.9l2.9,1.4a.45.45,0,1,1-.4.8h0l-2.9-1.4a.37.37,0,0,1-.2-.5A.45.45,0,0,1,297.6,311.9Z" transform="translate(-0.1 -0.3)"/><path class="cls-6" d="M305.3,315.5l2.9,1.4c.2.1.4.4.2.6s-.4.4-.6.2h0l-2.9-1.4a.45.45,0,1,1,.4-.8Z" transform="translate(-0.1 -0.3)"/><path class="cls-6" d="M313.1,319.1l.7.3h-.1l2.3.7a.57.57,0,1,1-.3,1.1h0l-2.3-.7h0l-.7-.4a.43.43,0,0,1-.2-.7C312.5,319.1,312.8,319,313.1,319.1Z" transform="translate(-0.1 -0.3)"/><path class="cls-6" d="M321.1,321.7l3.1.9a.63.63,0,1,1-.4,1.2h0l-3-1a.63.63,0,0,1-.4-.8A.61.61,0,0,1,321.1,321.7Z" transform="translate(-0.1 -0.3)"/><path class="cls-6" d="M329.2,323.9l3.1.1h.1a.7.7,0,0,1,0,1.4h0l-3.3-.2c-.4,0-.6-.3-.6-.7a.67.67,0,0,1,.7-.6Z" transform="translate(-0.1 -0.3)"/><path class="cls-6" d="M337.5,323.4c1-.2,2-.5,3-.8a.79.79,0,0,1,.5,1.5h0a16.65,16.65,0,0,1-3.2.8.78.78,0,0,1-.9-.6A.87.87,0,0,1,337.5,323.4Z" transform="translate(-0.1 -0.3)"/><path class="cls-6" d="M344.9,320.2A11,11,0,0,0,347,318a.81.81,0,0,1,1.1-.2.91.91,0,0,1,.2,1.1h0a13.63,13.63,0,0,1-2.4,2.4.79.79,0,0,1-1.1-.1A.67.67,0,0,1,344.9,320.2Z" transform="translate(-0.1 -0.3)"/><path class="cls-6" d="M349.4,313.4l1.4-2.9h0a.83.83,0,1,1,1.5.7h0l-1.4,2.9a.83.83,0,1,1-1.5-.7Z" transform="translate(-0.1 -0.3)"/><path class="cls-6" d="M353,305.7l1.3-2.9h0a1,1,0,0,1,1.2-.5.88.88,0,0,1,.5,1.2h0l-1.3,2.9a.84.84,0,0,1-1.1.4c-.6-.2-.8-.7-.6-1.1Z" transform="translate(-0.1 -0.3)"/><path class="cls-6" d="M356.3,297.8l1.2-3a.92.92,0,1,1,1.7.7h0l-1.3,3a.88.88,0,0,1-1.2.5A.93.93,0,0,1,356.3,297.8Z" transform="translate(-0.1 -0.3)"/><path class="cls-6" d="M359.5,289.9l1.2-3a.92.92,0,0,1,1.7.7h0l-1.2,3a.91.91,0,0,1-1.2.5A.85.85,0,0,1,359.5,289.9Z" transform="translate(-0.1 -0.3)"/><path class="cls-6" d="M362.7,282l1.2-3a1,1,0,0,1,1.9.7h0l-1.2,3a1,1,0,0,1-1.3.5A.84.84,0,0,1,362.7,282Z" transform="translate(-0.1 -0.3)"/><path class="cls-6" d="M366,274l1.6-2.8h0a1,1,0,1,1,1.8,1h0l-1.6,2.8a1.11,1.11,0,0,1-1.4.4,1,1,0,0,1-.4-1.4Z" transform="translate(-0.1 -0.3)"/><path class="cls-6" d="M370.2,266.6l1.6-2.8h0a1.1,1.1,0,0,1,1.9,1.1h0l-1.6,2.8a1.1,1.1,0,0,1-1.5.4,1.15,1.15,0,0,1-.4-1.5Z" transform="translate(-0.1 -0.3)"/><path class="cls-6" d="M374.4,259.1l1.5-2.8h0a1.12,1.12,0,0,1,2,1h0l-1.5,2.8a1.13,1.13,0,0,1-1.5.4.93.93,0,0,1-.5-1.4Z" transform="translate(-0.1 -0.3)"/><path class="cls-6" d="M378.3,251.6l1.4-2.8h0a1.19,1.19,0,0,1,2.1,1.1h0l-1.5,2.9a1.17,1.17,0,0,1-1.6.5,1.53,1.53,0,0,1-.4-1.7Z" transform="translate(-0.1 -0.3)"/><path class="cls-6" d="M382.1,244l1.3-2.9h0a1.21,1.21,0,0,1,2.2,1h0l-1.3,3a1.2,1.2,0,0,1-1.6.6,1.35,1.35,0,0,1-.6-1.7Z" transform="translate(-0.1 -0.3)"/><path class="cls-6" d="M385.1,236.2l.9-3v-.1a1.31,1.31,0,0,1,1.5-.9,1.35,1.35,0,0,1,.9,1.5h0l-.9,3.1a1.16,1.16,0,0,1-1.5.8,1.06,1.06,0,0,1-.9-1.4Z" transform="translate(-0.1 -0.3)"/><path class="cls-6" d="M387.1,228l.6-3.1h0a1.27,1.27,0,1,1,2.5.5h0l-.6,3.2a1.27,1.27,0,0,1-1.5,1,1.54,1.54,0,0,1-1-1.6Z" transform="translate(-0.1 -0.3)"/><path class="cls-6" d="M388.5,219.6l.4-3.2a1.32,1.32,0,0,1,2.6.4h0L391,220a1.27,1.27,0,1,1-2.5-.4Z" transform="translate(-0.1 -0.3)"/><path class="cls-6" d="M389.8,211.1l.3-1.6c.1-.5.2-1.1.3-1.6h0a1.3,1.3,0,1,1,2.5.7h0l-.3,1.5-.3,1.5v.1a1.2,1.2,0,0,1-1.5,1A1.35,1.35,0,0,1,389.8,211.1Z" transform="translate(-0.1 -0.3)"/><path class="cls-6" d="M391.7,202.7l1-3.1a1.3,1.3,0,1,1,2.5.7h0v.1l-.9,3v.1a1.28,1.28,0,0,1-1.6.9A1.41,1.41,0,0,1,391.7,202.7Z" transform="translate(-0.1 -0.3)"/><path class="cls-6" d="M394.7,194.5l1.6-2.9a1.32,1.32,0,1,1,2.3,1.3h0l-.1.1-1.5,2.7-.1.1a1.29,1.29,0,0,1-1.8.5A1.3,1.3,0,0,1,394.7,194.5Z" transform="translate(-0.1 -0.3)"/><path class="cls-6" d="M399.4,187l2.2-2.5a1.35,1.35,0,0,1,2,1.8h0l-.1.1-2,2.3-.1.1a1.3,1.3,0,0,1-1.9.1A1.39,1.39,0,0,1,399.4,187Z" transform="translate(-0.1 -0.3)"/><path class="cls-6" d="M405.6,180.7l2.6-2a1.35,1.35,0,0,1,1.7,2.1h0l-.1.1-2.5,1.9-.1.1a1.4,1.4,0,0,1-1.9-.2A1.53,1.53,0,0,1,405.6,180.7Z" transform="translate(-0.1 -0.3)"/><path class="cls-6" d="M412.8,175.7c1-.5,1.9-1.1,2.9-1.6h0a1.34,1.34,0,1,1,1.2,2.4h0c-1,.5-1.8,1-2.8,1.5H414a1.24,1.24,0,0,1-1.8-.6A1.28,1.28,0,0,1,412.8,175.7Z" transform="translate(-0.1 -0.3)"/><path class="cls-6" d="M420.3,171.6l2.8-1.6h0a1.39,1.39,0,0,1,1.4,2.4h0l-2.8,1.6a1.34,1.34,0,0,1-1.9-.5,1.36,1.36,0,0,1,.5-1.9Z" transform="translate(-0.1 -0.3)"/><path class="cls-6" d="M427.6,167.3l2.8-1.6a1.39,1.39,0,0,1,1.4,2.4h0l-2.8,1.6h0a1.39,1.39,0,0,1-1.4-2.4Z" transform="translate(-0.1 -0.3)"/><path class="cls-6" d="M435.3,163.2l3.1-1.3a1.39,1.39,0,1,1,1,2.6h-.1l-2.9,1.2h-.1a1.33,1.33,0,0,1-1.8-.8A1.37,1.37,0,0,1,435.3,163.2Z" transform="translate(-0.1 -0.3)"/><path class="cls-6" d="M443.7,160.5a19.53,19.53,0,0,1,3.4-.3,1.4,1.4,0,0,1,0,2.8h0c-1,0-2,.1-3,.2a1.38,1.38,0,0,1-1.6-1.2A1.49,1.49,0,0,1,443.7,160.5Z" transform="translate(-0.1 -0.3)"/><path class="cls-6" d="M452.8,160.9l3.2,1a1.42,1.42,0,1,1-.9,2.7h0l-.2-.1-2.9-.9-.2-.1a1.42,1.42,0,0,1-.9-1.8A1.69,1.69,0,0,1,452.8,160.9Z" transform="translate(-0.1 -0.3)"/><path class="cls-6" d="M461,164.4l2.8,1.8a1.44,1.44,0,0,1-1.6,2.4h0l-.1-.1-2.6-1.7-.1-.1a1.43,1.43,0,0,1-.4-2A1.63,1.63,0,0,1,461,164.4Z" transform="translate(-0.1 -0.3)"/><path class="cls-6" d="M468.1,169.6c.8.7,1.6,1.4,2.4,2.2h0a1.49,1.49,0,0,1-2,2.2h0c-.8-.7-1.6-1.4-2.3-2.1h0a1.45,1.45,0,0,1-.1-2.1A1.42,1.42,0,0,1,468.1,169.6Z" transform="translate(-0.1 -0.3)"/><path class="cls-6" d="M474.4,175.5l2.3,2.3a1.48,1.48,0,0,1-2.1,2.1h0l-2.3-2.2h0a1.52,1.52,0,0,1,2.1-2.2Z" transform="translate(-0.1 -0.3)"/><path class="cls-6" d="M480.5,181.6l2.2,2.4a1.49,1.49,0,0,1-2.2,2h0l-2.1-2.3h0a1.45,1.45,0,0,1,.1-2.1A1.27,1.27,0,0,1,480.5,181.6Z" transform="translate(-0.1 -0.3)"/><path class="cls-6" d="M486.2,188.1l2,2.6a1.5,1.5,0,1,1-2.4,1.8h0l-1.9-2.5h0a1.46,1.46,0,0,1,.3-2.1,1.28,1.28,0,0,1,2,.2Z" transform="translate(-0.1 -0.3)"/><path class="cls-6" d="M491.2,195.2l1.6,2.9a1.48,1.48,0,1,1-2.6,1.4v-.1l-1.5-2.7v-.1a1.49,1.49,0,0,1,.6-2,1.37,1.37,0,0,1,1.9.6Z" transform="translate(-0.1 -0.3)"/><path class="cls-6" d="M495.3,202.8a13.36,13.36,0,0,1,.7,1.8,10.46,10.46,0,0,1,.4,1.7,1.47,1.47,0,1,1-2.9.5h0c-.1-.5-.2-1-.3-1.4a3.34,3.34,0,0,0-.5-1.2h0a1.48,1.48,0,1,1,2.6-1.4Z" transform="translate(-0.1 -0.3)"/><path class="cls-6" d="M497,211.8v3.3a1.45,1.45,0,1,1-2.9-.1v-3.3a1.39,1.39,0,0,1,1.5-1.4,1.45,1.45,0,0,1,1.4,1.5Z" transform="translate(-0.1 -0.3)"/><path class="cls-6" d="M496.3,220.6l-.9,3.3a1.46,1.46,0,1,1-2.8-.8v-.2l.8-2.9v-.2a1.43,1.43,0,0,1,1.8-1,1.59,1.59,0,0,1,1.1,1.8Z" transform="translate(-0.1 -0.3)"/><path class="cls-6" d="M492.9,229.1a12,12,0,0,1-2.4,2.6,1.42,1.42,0,1,1-1.8-2.2,12.86,12.86,0,0,0,1.9-2.1,1.43,1.43,0,0,1,2-.3,1.51,1.51,0,0,1,.3,2Z" transform="translate(-0.1 -0.3)"/><path class="cls-6" d="M485.1,234.2l-3.3.5a1.41,1.41,0,1,1-.4-2.8h.1l3-.5h.2a1.38,1.38,0,0,1,1.6,1.2,1.46,1.46,0,0,1-1.2,1.6Z" transform="translate(-0.1 -0.3)"/><path class="cls-6" d="M476.4,235.1l-3.2.2a1.4,1.4,0,1,1-.2-2.8l3.2-.2h0a1.51,1.51,0,0,1,1.5,1.3,1.44,1.44,0,0,1-1.3,1.5Z" transform="translate(-0.1 -0.3)"/><path class="cls-6" d="M467.8,235.5l-3.2.2h0a1.4,1.4,0,1,1-.2-2.8l3.2-.2a1.37,1.37,0,0,1,1.5,1.3,1.32,1.32,0,0,1-1.3,1.5Z" transform="translate(-0.1 -0.3)"/><path class="cls-6" d="M459.4,236.3l-3.1.5h-.1a1.37,1.37,0,0,1-.5-2.7l3.2-.5a1.39,1.39,0,0,1,1.6,1.1,1.17,1.17,0,0,1-1.1,1.6Z" transform="translate(-0.1 -0.3)"/><path class="cls-6" d="M451.3,238.1l-2.9,1h-.1a1.26,1.26,0,0,1-1.7-.8,1.34,1.34,0,0,1,.8-1.7l3.1-1.1a1.33,1.33,0,0,1,.9,2.5h0Z" transform="translate(-0.1 -0.3)"/><path class="cls-6" d="M444,241.5a21.1,21.1,0,0,0-2.3,1.9,1.34,1.34,0,0,1-1.9-1.9,17.83,17.83,0,0,1,2.6-2.2,1.4,1.4,0,0,1,1.9.3,1.42,1.42,0,0,1-.3,1.9Z" transform="translate(-0.1 -0.3)"/><path class="cls-6" d="M438.9,247.4a23.07,23.07,0,0,0-1,2.8,1.33,1.33,0,1,1-2.6-.6c.3-1.1.7-2.2,1.1-3.3a1.24,1.24,0,0,1,1.8-.6,1.16,1.16,0,0,1,.7,1.7Z" transform="translate(-0.1 -0.3)"/><path class="cls-6" d="M437.4,255.1l.1,3.2h0a1.3,1.3,0,0,1-2.6,0l-.1-3.2a1.49,1.49,0,0,1,1.3-1.4,1.35,1.35,0,0,1,1.3,1.4Z" transform="translate(-0.1 -0.3)"/><path class="cls-6" d="M437.6,263.6l.1,3.2h0a1.26,1.26,0,0,1-1.3,1.3,1.21,1.21,0,0,1-1.3-1.3l-.1-3.2a1.41,1.41,0,0,1,1.3-1.4c.8-.1,1.3.7,1.3,1.4Z" transform="translate(-0.1 -0.3)"/><path class="cls-6" d="M437.9,272.1l.3,3.2h0a1.3,1.3,0,1,1-2.6.2l-.3-3.2a1.32,1.32,0,0,1,1.2-1.4,1.21,1.21,0,0,1,1.4,1.2Z" transform="translate(-0.1 -0.3)"/><path class="cls-6" d="M439,280.4a24.54,24.54,0,0,0,.8,2.9,1.26,1.26,0,0,1-.7,1.6,1.31,1.31,0,0,1-1.6-.7c-.4-1.1-.7-2.2-1-3.2a1.2,1.2,0,0,1,1-1.5c.6-.3,1.3.2,1.5.9Z" transform="translate(-0.1 -0.3)"/><path class="cls-6" d="M442.3,287.5a20.79,20.79,0,0,0,2.1,2.1,1.28,1.28,0,0,1-1.6,2,18.78,18.78,0,0,1-2.5-2.4,1.27,1.27,0,0,1,.1-1.8,1.39,1.39,0,0,1,1.9.1Z" transform="translate(-0.1 -0.3)"/><path class="cls-6" d="M448.7,292.4c.9.5,1.9,1,2.8,1.4a1.21,1.21,0,1,1-1,2.2c-1-.5-1.9-.9-2.9-1.5a1.28,1.28,0,0,1-.5-1.7,1.09,1.09,0,0,1,1.6-.4Z" transform="translate(-0.1 -0.3)"/><path class="cls-6" d="M456.3,296l2.9,1.3h0a1.14,1.14,0,0,1-.9,2.1l-3-1.2a1.21,1.21,0,0,1,1-2.2Z" transform="translate(-0.1 -0.3)"/><path class="cls-6" d="M464.1,299.4l2.9,1.4a1.12,1.12,0,1,1-1,2h-.1l-2.8-1.3h0a1.08,1.08,0,0,1-.5-1.5,1.1,1.1,0,0,1,1.5-.6Z" transform="translate(-0.1 -0.3)"/><path class="cls-6" d="M471.8,303.8a11.43,11.43,0,0,1,2.4,2.5,1.07,1.07,0,0,1-1.7,1.3,19.85,19.85,0,0,0-2-2.1,1.13,1.13,0,0,1-.2-1.6,1.08,1.08,0,0,1,1.5-.1Z" transform="translate(-0.1 -0.3)"/><path class="cls-6" d="M476,311.9v3.2a1,1,0,0,1-1.1,1,1,1,0,0,1-1-1h0v-3.2h0a1.11,1.11,0,0,1,1.1-1.1,1.18,1.18,0,0,1,1,1.1Z" transform="translate(-0.1 -0.3)"/><path class="cls-6" d="M475.3,320.7a17.55,17.55,0,0,1-1.2,3.2,1,1,0,0,1-1.8-.8,13.32,13.32,0,0,0,1-2.8,1,1,0,0,1,1.2-.7.8.8,0,0,1,.8,1.1Z" transform="translate(-0.1 -0.3)"/><path class="cls-6" d="M471,328.5l-2.4,2.3a1,1,0,1,1-1.4-1.4l.1-.1,2.2-2.2.1-.1a1,1,0,0,1,1.4,0,1.09,1.09,0,0,1,0,1.5Z" transform="translate(-0.1 -0.3)"/><path class="cls-6" d="M464.3,334.1l-2.7,1.7a.94.94,0,0,1-1-1.6h0l2.6-1.7h0a.89.89,0,0,1,1.3.3.84.84,0,0,1-.2,1.3Z" transform="translate(-0.1 -0.3)"/><path class="cls-6" d="M456.8,338.5l-2.9,1.4a.89.89,0,1,1-.8-1.6h0l2.8-1.4h0a1,1,0,0,1,1.2.4.73.73,0,0,1-.3,1.2Z" transform="translate(-0.1 -0.3)"/><path class="cls-6" d="M449,342.1l-3,1.2a.81.81,0,0,1-1.1-.5.84.84,0,0,1,.4-1.1h0l2.9-1.3h0a.84.84,0,0,1,1.1.4c.4.6.2,1.1-.3,1.3Z" transform="translate(-0.1 -0.3)"/><path class="cls-6" d="M441.1,345.3l-3,1.1a.79.79,0,0,1-.5-1.5h0l3-1.1h0a.81.81,0,0,1,1.1.5,1,1,0,0,1-.6,1Z" transform="translate(-0.1 -0.3)"/><path class="cls-6" d="M433,348.3l-3,1.1a.79.79,0,0,1-.5-1.5l3-1.1a.88.88,0,0,1,1,.5c.2.4,0,.8-.5,1Z" transform="translate(-0.1 -0.3)"/><path class="cls-6" d="M425,351l-3,1a.7.7,0,0,1-.5-1.3l3-1.1a.75.75,0,0,1,.9.4c.1.5,0,.9-.4,1Z" transform="translate(-0.1 -0.3)"/><path class="cls-6" d="M416.9,353.7l-3,1a.63.63,0,1,1-.4-1.2l3-1a.63.63,0,0,1,.4,1.2Z" transform="translate(-0.1 -0.3)"/><path class="cls-6" d="M408.7,356.4l-3,1a.57.57,0,0,1-.3-1.1l3-1a.57.57,0,0,1,.7.4.51.51,0,0,1-.4.7Z" transform="translate(-0.1 -0.3)"/><path class="cls-6" d="M400.6,359.1l-3,1a.47.47,0,0,1-.3-.9l3-1.1a.52.52,0,0,1,.7.3.57.57,0,0,1-.4.7Z" transform="translate(-0.1 -0.3)"/><path class="cls-6" d="M392.5,361.8l-3,1a.41.41,0,1,1-.2-.8l3-1.1a.45.45,0,0,1,.6.3.62.62,0,0,1-.4.6Z" transform="translate(-0.1 -0.3)"/><path class="cls-6" d="M384.5,364.6l-3,1.1a.38.38,0,1,1-.3-.7l3-1.1a.38.38,0,1,1,.3.7Z" transform="translate(-0.1 -0.3)"/><path class="cls-6" d="M376.5,367.5l-3,1.2c-.1.1-.3,0-.4-.2s0-.3.2-.4l3-1.2c.2-.1.3,0,.4.2s-.1.4-.2.4Z" transform="translate(-0.1 -0.3)"/><path class="cls-6" d="M368.5,370.7l-2.9,1.3c-.1.1-.2,0-.3-.1s0-.2.1-.3l2.9-1.3a.19.19,0,0,1,.3.1c.1.1.1.3-.1.3Z" transform="translate(-0.1 -0.3)"/><path class="cls-6" d="M360.8,374.3l-2.8,1.5h0c-.1,0-.1,0-.2-.1s0-.1.1-.2l2.8-1.6c.1,0,.2,0,.2.1s0,.2-.1.3Z" transform="translate(-0.1 -0.3)"/><path class="cls-6" d="M353.5,378.6a24.33,24.33,0,0,0-2.5,2h-.1v-.1a22.53,22.53,0,0,1,2.4-2.1h.1l.1.2Z" transform="translate(-0.1 -0.3)"/><rect class="cls-5" x="412.1" y="258.9" width="23.1" height="18.3"/><circle class="cls-7" cx="118.4" cy="322.2" r="6"/><circle class="cls-7" cx="152.1" cy="281.5" r="6"/><circle class="cls-8" cx="258.6" cy="277.2" r="6"/><circle class="cls-7" cx="308.5" cy="268.9" r="6"/><circle class="cls-8" cx="320.4" cy="203.2" r="6"/><circle class="cls-8" cx="273.5" cy="176.4" r="6"/><circle class="cls-8" cx="302.5" cy="139.9" r="6"/><circle class="cls-8" cx="368.6" cy="148" r="6"/><circle class="cls-7" cx="428.7" cy="125.6" r="6"/><circle class="cls-7" cx="406.1" cy="176.4" r="6"/><circle class="cls-9" cx="402.3" cy="323.9" r="6"/><circle class="cls-7" cx="258.6" cy="429.7" r="6"/><text class="cls-10" transform="translate(112.41 340.34) scale(1.02 1)">Suá<tspan class="cls-11" x="18.35" y="0">r</tspan><tspan x="22.84" y="0">ez</tspan></text><g class="cls-12"><text class="cls-10" transform="translate(146.08 300.38) scale(1.02 1)">Buenos</text><text class="cls-10" transform="translate(146.08 312.38) scale(1.02 1)">Ai<tspan class="cls-11" x="9.95" y="0">r</tspan><tspan x="14.44" y="0">es</tspan></text></g><g class="cls-12"><text class="cls-10" transform="translate(252.65 296.25) scale(1.02 1)">Santander</text><text class="cls-10" transform="translate(252.65 308.25) scale(1.02 1)">de Quilich<tspan class="cls-11" x="50.27" y="0">a</tspan><tspan x="56.26" y="0">o</tspan></text></g><text class="cls-10" transform="translate(253.1 420.65) scale(1.02 1)"><tspan class="cls-13">C</tspan><tspan class="cls-14" x="6.16" y="0">al</tspan><tspan class="cls-11" x="15.15" y="0">o</tspan><tspan x="21.13" y="0">to</tspan></text><text class="cls-15" transform="translate(340.53 428.27) scale(1.02 1)">Jambaló</text><text class="cls-15" transform="translate(302.17 259.48) scale(1.02 1)"><tspan class="cls-13">C</tspan><tspan x="6.16" y="0">al</tspan><tspan class="cls-16" x="15.15" y="0">o</tspan><tspan x="21.13" y="0">to</tspan></text><g class="cls-12"><text class="cls-15" transform="translate(267.67 155.3) scale(1.02 1)">Villa</text><text class="cls-15" transform="translate(267.67 167.3) scale(1.02 1)">Rica</text></g><g class="cls-12"><text class="cls-15" transform="translate(296.56 117.32) scale(1.02 1)">Puerto</text><text class="cls-15" transform="translate(296.56 129.32) scale(1.02 1)"><tspan class="cls-17">T</tspan><tspan class="cls-11" x="4.93" y="0">e</tspan><tspan x="10.66" y="0">j</tspan><tspan class="cls-11" x="14.28" y="0">a</tspan><tspan x="20.27" y="0">da</tspan></text></g><text class="cls-15" transform="translate(314.46 194.13) scale(1.02 1)">Gu<tspan class="cls-18" x="13.47" y="0">a</tspan><tspan x="19.46" y="0">chené</tspan></text><text class="cls-15" transform="translate(363.12 138.3) scale(1.02 1)"><tspan class="cls-16">Pa</tspan><tspan x="12.47" y="0">dilla</tspan></text><text class="cls-15" transform="translate(423.64 116.36) scale(1.02 1)">Mi<tspan class="cls-19" x="12.6" y="0">r</tspan><tspan class="cls-20" x="17.15" y="0">anda</tspan></text><text class="cls-15" transform="translate(404.58 167.59) scale(1.02 1)"><tspan class="cls-13">C</tspan><tspan x="6.16" y="0">orinto</tspan></text><text class="cls-15" transform="translate(396.31 314.54) scale(1.02 1)"><tspan class="cls-17">T</tspan><tspan x="4.93" y="0">oribió</tspan></text><polyline class="cls-21" points="360 317.5 360 324.5 374.1 324.5 374.1 317.5"/><polyline class="cls-21" points="359.3 317.9 366.8 310.3 363.8 318.3"/><polyline class="cls-21" points="375 317.9 367.5 310.3 370.5 318.3"/><line class="cls-21" x1="367" y1="317.9" x2="367" y2="310.3"/><rect class="cls-22" x="374.87" y="270.29" width="8.9" height="8.9" transform="translate(-83.27 348.39) rotate(-45)"/><rect class="cls-23" x="464.91" y="153.11" width="8.9" height="8.9" transform="translate(25.96 377.74) rotate(-45)"/><rect class="cls-24" x="345.27" y="403.78" width="8.9" height="8.9" transform="translate(-186.33 366.55) rotate(-45)"/><circle class="cls-25" cx="404.6" cy="213.9" r="4.9"/><circle class="cls-26" cx="465.1" cy="286.7" r="4.9"/></g></svg>