<svg xmlns="http://www.w3.org/2000/svg" width="660.589" height="661.361" viewBox="0 0 660.589 661.361">
  <g id="Grupo_691" data-name="Grupo 691" transform="translate(-297.72 -367.876)">
    <g id="Grupo_261" data-name="Grupo 261" transform="translate(299.784 677.367)">
      <g id="Grupo_242" data-name="Grupo 242" transform="translate(588.567 49.808)">
        <g id="Grupo_241" data-name="Grupo 241" transform="translate(0 32.039)">
          <path id="Trazado_733" data-name="Trazado 733" d="M653.266,624.543q2.788-8.522,5.134-17.19c8.07-1.594,16.034-3.634,23.966-5.836A429.943,429.943,0,0,1,669.2,645.658Q661.456,634.9,653.266,624.543Z" transform="translate(-625.459 -587.074)" fill="none" stroke="#d1a943" stroke-miterlimit="10" stroke-width="4"/>
          <path id="Trazado_734" data-name="Trazado 734" d="M661.281,629.057q2.752-8.407,5.064-16.961-8.668-9.654-17.753-18.862a375.374,375.374,0,0,1-11.273,37.792C645.326,630.712,653.323,630.014,661.281,629.057Z" transform="translate(-637.319 -593.234)" fill="none" stroke="#d1a943" stroke-miterlimit="10" stroke-width="4"/>
          <path id="Trazado_735" data-name="Trazado 735" d="M657.889,605.472l-3.937-1.426" transform="translate(-624.949 -585.193)" fill="none" stroke="#d1a943" stroke-miterlimit="10" stroke-width="4"/>
          <path id="Trazado_736" data-name="Trazado 736" d="M654.948,615.328l-3.868-1.655" transform="translate(-627.085 -578.033)" fill="none" stroke="#d1a943" stroke-miterlimit="10" stroke-width="4"/>
          <path id="Trazado_737" data-name="Trazado 737" d="M675.237,617.923q-10.222-4.041-20.443-8.08" transform="translate(-624.323 -580.882)" fill="none" stroke="#d1a943" stroke-miterlimit="10" stroke-width="4"/>
          <path id="Trazado_738" data-name="Trazado 738" d="M661.265,612.4l-20.422-8.072" transform="translate(-634.699 -584.982)" fill="none" stroke="#d1a943" stroke-miterlimit="10" stroke-width="4"/>
        </g>
        <path id="Trazado_739" data-name="Trazado 739" d="M650.841,589.942c6.375-4.687,12.482-9.77,18.377-15.082q6.664,11.174,12.768,22.651c-6.185,5.1-12.567,9.957-19.2,14.412C659.054,604.456,655.04,597.136,650.841,589.942Z" transform="translate(-627.262 -574.86)" fill="none" stroke="#d1a943" stroke-miterlimit="10" stroke-width="4"/>
        <path id="Trazado_740" data-name="Trazado 740" d="M638.019,630.057c7.02-2.365,13.892-4.957,20.738-7.817,2.889,7.794,5.573,15.678,7.953,23.654-7.083,2.635-14.182,5.008-21.42,7.147C643.135,645.294,640.68,637.634,638.019,630.057Z" transform="translate(-636.798 -539.622)" fill="none" stroke="#d1a943" stroke-miterlimit="10" stroke-width="4"/>
      </g>
      <g id="Grupo_245" data-name="Grupo 245" transform="translate(504.846 132.425)">
        <g id="Grupo_243" data-name="Grupo 243" transform="translate(51.855 18.374)">
          <path id="Trazado_741" data-name="Trazado 741" d="M634.556,660.822c2.865-4.647,5.627-9.311,8.328-14.061,8.1.87,16.239,1.379,24.377,1.644a373.979,373.979,0,0,1-21.368,36.105Q640.477,672.524,634.556,660.822Z" transform="translate(-607.507 -622.377)" fill="none" stroke="#d1a943" stroke-miterlimit="10" stroke-width="4"/>
          <path id="Trazado_742" data-name="Trazado 742" d="M642.684,668.642c2.827-4.584,5.55-9.186,8.216-13.873q-6.544-11.166-13.561-21.992a326.429,326.429,0,0,1-18.3,30.911C626.859,665.641,634.757,667.259,642.684,668.642Z" transform="translate(-619.044 -632.777)" fill="none" stroke="#d1a943" stroke-miterlimit="10" stroke-width="4"/>
          <path id="Trazado_743" data-name="Trazado 743" d="M640.843,647.787l-3.541-2.406" transform="translate(-605.466 -623.403)" fill="none" stroke="#d1a943" stroke-miterlimit="10" stroke-width="4"/>
          <path id="Trazado_744" data-name="Trazado 744" d="M636.072,655.85l-3.432-2.595" transform="translate(-608.932 -617.547)" fill="none" stroke="#d1a943" stroke-miterlimit="10" stroke-width="4"/>
          <path id="Trazado_745" data-name="Trazado 745" d="M655.251,663.95l-18.262-13.108" transform="translate(-605.698 -619.342)" fill="none" stroke="#d1a943" stroke-miterlimit="10" stroke-width="4"/>
          <path id="Trazado_746" data-name="Trazado 746" d="M642.769,654.991,624.528,641.9" transform="translate(-614.965 -625.993)" fill="none" stroke="#d1a943" stroke-miterlimit="10" stroke-width="4"/>
        </g>
        <g id="Grupo_244" data-name="Grupo 244" transform="translate(8.762 74.08)">
          <path id="Trazado_747" data-name="Trazado 747" d="M608.562,691.312c3.723-3.527,7.364-7.189,10.877-10.94,7.7,2.98,15.51,5.6,23.366,8.1a364.486,364.486,0,0,1-27.912,28.091Q612,703.853,608.562,691.312Z" transform="translate(-583.747 -653.086)" fill="none" stroke="#d1a943" stroke-miterlimit="10" stroke-width="4"/>
          <path id="Trazado_748" data-name="Trazado 748" d="M616.342,699.63c3.672-3.48,7.264-7.093,10.731-10.794q-4.159-12.17-8.842-24.112a321.594,321.594,0,0,1-23.9,24.049C601.545,692.648,608.9,696.24,616.342,699.63Z" transform="translate(-594.331 -664.724)" fill="none" stroke="#d1a943" stroke-miterlimit="10" stroke-width="4"/>
          <path id="Trazado_749" data-name="Trazado 749" d="M616.066,681.734l-2.968-3.193" transform="translate(-580.374 -654.448)" fill="none" stroke="#d1a943" stroke-miterlimit="10" stroke-width="4"/>
          <path id="Trazado_750" data-name="Trazado 750" d="M609.833,688.007c-1.13-1.336-1.695-2-2.823-3.339" transform="translate(-584.901 -649.891)" fill="none" stroke="#d1a943" stroke-miterlimit="10" stroke-width="4"/>
          <path id="Trazado_751" data-name="Trazado 751" d="M626.879,700.675q-7.582-8.558-15.163-17.116" transform="translate(-581.401 -650.716)" fill="none" stroke="#d1a943" stroke-miterlimit="10" stroke-width="4"/>
          <path id="Trazado_752" data-name="Trazado 752" d="M616.515,688.976l-15.146-17.1" transform="translate(-589.097 -659.403)" fill="none" stroke="#d1a943" stroke-miterlimit="10" stroke-width="4"/>
        </g>
        <path id="Trazado_753" data-name="Trazado 753" d="M617.806,661.649c7.254-.265,14.44-.765,21.662-1.5,1.3,7.925,2.391,15.9,3.163,23.9-7.413.511-14.782.79-22.212.833C619.83,677.106,618.926,669.357,617.806,661.649Z" transform="translate(-568.11 -594.047)" fill="none" stroke="#d1a943" stroke-miterlimit="10" stroke-width="4"/>
        <path id="Trazado_754" data-name="Trazado 754" d="M638.019,630.057c7.02-2.365,13.892-4.957,20.738-7.817,2.889,7.794,5.573,15.678,7.953,23.654-7.083,2.635-14.182,5.008-21.42,7.147C643.135,645.294,640.68,637.634,638.019,630.057Z" transform="translate(-553.077 -622.24)" fill="none" stroke="#d1a943" stroke-miterlimit="10" stroke-width="4"/>
        <path id="Trazado_755" data-name="Trazado 755" d="M591.468,688.515c7.1,1.637,14.188,3.05,21.364,4.262-.331,7.814-.886,15.624-1.752,23.4-7.317-1.437-14.546-3.072-21.774-4.929C590.222,703.673,590.942,696.125,591.468,688.515Z" transform="translate(-589.306 -572.95)" fill="none" stroke="#d1a943" stroke-miterlimit="10" stroke-width="4"/>
      </g>
      <g id="Grupo_248" data-name="Grupo 248" transform="translate(380.362 247.99)">
        <g id="Grupo_246" data-name="Grupo 246" transform="translate(81.385 1.261)">
          <path id="Trazado_756" data-name="Trazado 756" d="M576.826,713.681c4.326-2.476,8.607-5.09,12.794-7.812q10.42,7.052,21.136,13.57A372.292,372.292,0,0,1,577.921,739.5C577.745,730.874,577.382,722.284,576.826,713.681Z" transform="translate(-555.488 -676.869)" fill="none" stroke="#d1a943" stroke-miterlimit="10" stroke-width="4"/>
          <path id="Trazado_757" data-name="Trazado 757" d="M583.861,722.177c4.269-2.443,8.492-5.02,12.623-7.706-1.074-8.445-2.293-16.853-3.782-25.233a328.483,328.483,0,0,1-28.112,17.172C570.846,711.879,577.3,717.113,583.861,722.177Z" transform="translate(-564.589 -689.238)" fill="none" stroke="#d1a943" stroke-miterlimit="10" stroke-width="4"/>
          <path id="Trazado_758" data-name="Trazado 758" d="M585.123,707.485l-2.251-3.789" transform="translate(-550.992 -678.485)" fill="none" stroke="#d1a943" stroke-miterlimit="10" stroke-width="4"/>
          <path id="Trazado_759" data-name="Trazado 759" d="M577.791,711.965l-2.08-3.894" transform="translate(-556.317 -675.232)" fill="none" stroke="#d1a943" stroke-miterlimit="10" stroke-width="4"/>
          <path id="Trazado_760" data-name="Trazado 760" d="M591.86,728.291q-5.671-10.065-11.341-20.133" transform="translate(-552.742 -675.167)" fill="none" stroke="#d1a943" stroke-miterlimit="10" stroke-width="4"/>
          <path id="Trazado_761" data-name="Trazado 761" d="M584.109,714.531q-5.665-10.054-11.327-20.11" transform="translate(-558.496 -685.383)" fill="none" stroke="#d1a943" stroke-miterlimit="10" stroke-width="4"/>
        </g>
        <g id="Grupo_247" data-name="Grupo 247" transform="translate(23.685 30.831)">
          <path id="Trazado_762" data-name="Trazado 762" d="M542.945,727.812c4.72-1.435,9.425-3,14.067-4.689q8.757,9.23,17.9,18.021c-11.885,4.617-23.854,8.6-36.107,12.04Q541.158,740.536,542.945,727.812Z" transform="translate(-526.066 -693.607)" fill="none" stroke="#d1a943" stroke-miterlimit="10" stroke-width="4"/>
          <path id="Trazado_763" data-name="Trazado 763" d="M547.14,736.169c4.658-1.416,9.3-2.963,13.88-4.626.722-8.431,1.158-16.888,1.392-25.347-10.178,3.937-20.428,7.352-30.913,10.309C536.51,723.227,541.752,729.768,547.14,736.169Z" transform="translate(-531.499 -706.196)" fill="none" stroke="#d1a943" stroke-miterlimit="10" stroke-width="4"/>
          <path id="Trazado_764" data-name="Trazado 764" d="M549.857,724.912c-.574-1.679-.86-2.518-1.433-4.2" transform="translate(-518.912 -695.396)" fill="none" stroke="#d1a943" stroke-miterlimit="10" stroke-width="4"/>
          <path id="Trazado_765" data-name="Trazado 765" d="M541.8,727.6c-.5-1.7-.748-2.555-1.247-4.257" transform="translate(-524.768 -693.442)" fill="none" stroke="#d1a943" stroke-miterlimit="10" stroke-width="4"/>
          <path id="Trazado_766" data-name="Trazado 766" d="M552.242,746.656q-3.507-11.072-7.015-22.14" transform="translate(-521.289 -692.571)" fill="none" stroke="#d1a943" stroke-miterlimit="10" stroke-width="4"/>
          <path id="Trazado_767" data-name="Trazado 767" d="M547.448,731.524q-3.505-11.056-7.006-22.114" transform="translate(-524.848 -703.806)" fill="none" stroke="#d1a943" stroke-miterlimit="10" stroke-width="4"/>
        </g>
        <path id="Trazado_768" data-name="Trazado 768" d="M562.267,707.571c6.6,3.233,13.245,6.258,20.006,9.118-1.93,7.465-4.04,14.834-6.346,22.182-6.854-3.083-13.592-6.333-20.281-9.786C558.04,721.96,560.241,714.815,562.267,707.571Z" transform="translate(-489.855 -674.343)" fill="none" stroke="#d1a943" stroke-miterlimit="10" stroke-width="4"/>
        <path id="Trazado_769" data-name="Trazado 769" d="M591.468,688.515c7.1,1.637,14.188,3.05,21.364,4.262-.331,7.814-.886,15.624-1.752,23.4-7.317-1.437-14.546-3.072-21.774-4.929C590.222,703.673,590.942,696.125,591.468,688.515Z" transform="translate(-464.822 -688.515)" fill="none" stroke="#d1a943" stroke-miterlimit="10" stroke-width="4"/>
        <path id="Trazado_770" data-name="Trazado 770" d="M528.8,719.369c5.784,4.628,11.653,9.071,17.662,13.378-3.418,6.835-6.99,13.538-10.748,20.18-6.059-4.532-11.974-9.2-17.8-14.046C521.716,732.464,525.334,725.983,528.8,719.369Z" transform="translate(-517.916 -665.568)" fill="none" stroke="#d1a943" stroke-miterlimit="10" stroke-width="4"/>
      </g>
      <g id="Grupo_251" data-name="Grupo 251" transform="translate(246.84 295.362)">
        <g id="Grupo_249" data-name="Grupo 249" transform="translate(96.049)">
          <path id="Trazado_771" data-name="Trazado 771" d="M507.035,733.781c4.907-.394,9.824-.915,14.707-1.561q6.691,10.912,13.843,21.479c-12.557,1.932-25.073,3.259-37.746,4.007Q502.7,745.842,507.035,733.781Z" transform="translate(-495.375 -703.382)" fill="none" stroke="#d1a943" stroke-miterlimit="10" stroke-width="4"/>
          <path id="Trazado_772" data-name="Trazado 772" d="M507.736,741.677c4.841-.387,9.692-.9,14.51-1.54,2.413-8.077,4.555-16.244,6.5-24.456-10.75,1.637-21.469,2.774-32.318,3.43C499.964,726.755,503.765,734.268,507.736,741.677Z" transform="translate(-496.426 -715.682)" fill="none" stroke="#d1a943" stroke-miterlimit="10" stroke-width="4"/>
          <path id="Trazado_773" data-name="Trazado 773" d="M511.782,734.1c-.22-1.763-.331-2.645-.551-4.408" transform="translate(-485.415 -705.263)" fill="none" stroke="#d1a943" stroke-miterlimit="10" stroke-width="4"/>
          <path id="Trazado_774" data-name="Trazado 774" d="M503.354,735,503,730.568" transform="translate(-491.538 -704.611)" fill="none" stroke="#d1a943" stroke-miterlimit="10" stroke-width="4"/>
          <path id="Trazado_775" data-name="Trazado 775" d="M509.7,755.861q-1.185-11.571-2.368-23.145" transform="translate(-488.313 -703.013)" fill="none" stroke="#d1a943" stroke-miterlimit="10" stroke-width="4"/>
          <path id="Trazado_776" data-name="Trazado 776" d="M508.085,740.042q-1.182-11.558-2.366-23.118" transform="translate(-489.515 -714.758)" fill="none" stroke="#d1a943" stroke-miterlimit="10" stroke-width="4"/>
        </g>
        <g id="Grupo_250" data-name="Grupo 250" transform="translate(26.522)">
          <path id="Trazado_777" data-name="Trazado 777" d="M470.4,732.22c4.882.645,9.8,1.167,14.706,1.561q4.337,12.081,9.2,23.926c-12.673-.748-25.19-2.075-37.746-4.007Q463.717,743.111,470.4,732.22Z" transform="translate(-456.553 -703.382)" fill="none" stroke="#d1a943" stroke-miterlimit="10" stroke-width="4"/>
          <path id="Trazado_778" data-name="Trazado 778" d="M467.578,740.138c4.816.637,9.667,1.153,14.51,1.54,4-7.4,7.744-14.937,11.31-22.565-10.848-.656-21.566-1.791-32.318-3.43C462.994,723.9,465.192,732.052,467.578,740.138Z" transform="translate(-453.187 -715.682)" fill="none" stroke="#d1a943" stroke-miterlimit="10" stroke-width="4"/>
          <path id="Trazado_779" data-name="Trazado 779" d="M472.926,735c.141-1.772.211-2.657.352-4.429" transform="translate(-444.376 -704.606)" fill="none" stroke="#d1a943" stroke-miterlimit="10" stroke-width="4"/>
          <path id="Trazado_780" data-name="Trazado 780" d="M464.58,734.111c.22-1.763.33-2.645.548-4.408" transform="translate(-450.583 -705.254)" fill="none" stroke="#d1a943" stroke-miterlimit="10" stroke-width="4"/>
          <path id="Trazado_781" data-name="Trazado 781" d="M467.346,755.861q1.182-11.571,2.368-23.145" transform="translate(-448.526 -703.013)" fill="none" stroke="#d1a943" stroke-miterlimit="10" stroke-width="4"/>
          <path id="Trazado_782" data-name="Trazado 782" d="M468.963,740.042q1.182-11.558,2.364-23.118" transform="translate(-447.324 -714.758)" fill="none" stroke="#d1a943" stroke-miterlimit="10" stroke-width="4"/>
        </g>
        <path id="Trazado_783" data-name="Trazado 783" d="M494.59,723.194c4.739,5.735,9.6,11.308,14.619,16.78-4.712,5.976-9.547,11.791-14.55,17.51-5.025-5.7-9.885-11.493-14.621-17.449C485.04,734.542,489.875,728.948,494.59,723.194Z" transform="translate(-412.564 -710.095)" fill="none" stroke="#d1a943" stroke-miterlimit="10" stroke-width="4"/>
        <path id="Trazado_784" data-name="Trazado 784" d="M528.8,719.369c5.784,4.628,11.653,9.071,17.662,13.378-3.418,6.835-6.99,13.538-10.748,20.18-6.059-4.532-11.974-9.2-17.8-14.046C521.716,732.464,525.334,725.983,528.8,719.369Z" transform="translate(-384.394 -712.94)" fill="none" stroke="#d1a943" stroke-miterlimit="10" stroke-width="4"/>
        <path id="Trazado_785" data-name="Trazado 785" d="M459.035,719.285c3.452,6.623,7.057,13.111,10.842,19.537-5.836,4.835-11.761,9.486-17.83,14-3.742-6.651-7.3-13.362-10.7-20.2C447.362,728.326,453.242,723.9,459.035,719.285Z" transform="translate(-441.343 -713.002)" fill="none" stroke="#d1a943" stroke-miterlimit="10" stroke-width="4"/>
      </g>
      <g id="Grupo_254" data-name="Grupo 254" transform="translate(127.518 247.549)">
        <g id="Grupo_252" data-name="Grupo 252" transform="translate(76.052 31.272)">
          <path id="Trazado_786" data-name="Trazado 786" d="M434.427,723.123c4.642,1.686,9.346,3.254,14.067,4.689q1.789,12.746,4.141,25.375c-12.253-3.437-24.222-7.425-36.106-12.042Q425.684,732.338,434.427,723.123Z" transform="translate(-416.529 -693.607)" fill="none" stroke="#d1a943" stroke-miterlimit="10" stroke-width="4"/>
          <path id="Trazado_787" data-name="Trazado 787" d="M428.2,731.543c4.581,1.663,9.223,3.21,13.88,4.626,5.411-6.382,10.609-12.961,15.643-19.664-10.485-2.957-20.733-6.372-30.913-10.309C427.014,714.655,427.51,723.11,428.2,731.543Z" transform="translate(-408.881 -706.196)" fill="none" stroke="#d1a943" stroke-miterlimit="10" stroke-width="4"/>
          <path id="Trazado_788" data-name="Trazado 788" d="M434.86,727.628c.5-1.7.746-2.555,1.243-4.258" transform="translate(-402.896 -693.423)" fill="none" stroke="#d1a943" stroke-miterlimit="10" stroke-width="4"/>
          <path id="Trazado_789" data-name="Trazado 789" d="M426.876,724.943c.574-1.679.86-2.518,1.432-4.2" transform="translate(-408.834 -695.374)" fill="none" stroke="#d1a943" stroke-miterlimit="10" stroke-width="4"/>
          <path id="Trazado_790" data-name="Trazado 790" d="M426.789,746.656q3.508-11.072,7.013-22.14" transform="translate(-408.898 -692.571)" fill="none" stroke="#d1a943" stroke-miterlimit="10" stroke-width="4"/>
          <path id="Trazado_791" data-name="Trazado 791" d="M431.579,731.524q3.5-11.056,7-22.114" transform="translate(-405.336 -703.806)" fill="none" stroke="#d1a943" stroke-miterlimit="10" stroke-width="4"/>
        </g>
        <g id="Grupo_253" data-name="Grupo 253" transform="translate(11.929 1.702)">
          <path id="Trazado_792" data-name="Trazado 792" d="M400.891,705.87c4.187,2.72,8.467,5.334,12.794,7.81-.556,8.6-.919,17.193-1.1,25.814a372.73,372.73,0,0,1-32.834-20.055Q390.489,712.906,400.891,705.87Z" transform="translate(-379.755 -676.868)" fill="none" stroke="#d1a943" stroke-miterlimit="10" stroke-width="4"/>
          <path id="Trazado_793" data-name="Trazado 793" d="M393.159,714.471c4.131,2.685,8.354,5.263,12.621,7.706,6.584-5.039,13-10.323,19.272-15.767a328.791,328.791,0,0,1-28.111-17.172C395.422,697.608,394.233,706.03,393.159,714.471Z" transform="translate(-369.786 -689.238)" fill="none" stroke="#d1a943" stroke-miterlimit="10" stroke-width="4"/>
          <path id="Trazado_794" data-name="Trazado 794" d="M399.213,712.011c.83-1.559,1.247-2.337,2.078-3.9" transform="translate(-365.284 -675.199)" fill="none" stroke="#d1a943" stroke-miterlimit="10" stroke-width="4"/>
          <path id="Trazado_795" data-name="Trazado 795" d="M391.952,707.537c.9-1.517,1.35-2.276,2.248-3.792" transform="translate(-370.684 -678.45)" fill="none" stroke="#d1a943" stroke-miterlimit="10" stroke-width="4"/>
          <path id="Trazado_796" data-name="Trazado 796" d="M389.016,728.291q5.671-10.065,11.339-20.133" transform="translate(-372.867 -675.167)" fill="none" stroke="#d1a943" stroke-miterlimit="10" stroke-width="4"/>
          <path id="Trazado_797" data-name="Trazado 797" d="M396.761,714.531l11.327-20.11" transform="translate(-367.107 -685.383)" fill="none" stroke="#d1a943" stroke-miterlimit="10" stroke-width="4"/>
        </g>
        <path id="Trazado_798" data-name="Trazado 798" d="M425.781,707.879c2.054,7.235,4.284,14.37,6.706,21.483-6.673,3.482-13.4,6.762-20.241,9.878-2.335-7.339-4.474-14.7-6.436-22.151C412.558,714.2,419.193,711.142,425.781,707.879Z" transform="translate(-348.449 -673.673)" fill="none" stroke="#d1a943" stroke-miterlimit="10" stroke-width="4"/>
        <path id="Trazado_799" data-name="Trazado 799" d="M459.035,719.285c3.452,6.623,7.057,13.111,10.842,19.537-5.836,4.835-11.761,9.486-17.83,14-3.742-6.651-7.3-13.362-10.7-20.2C447.362,728.326,453.242,723.9,459.035,719.285Z" transform="translate(-322.022 -665.19)" fill="none" stroke="#d1a943" stroke-miterlimit="10" stroke-width="4"/>
        <path id="Trazado_800" data-name="Trazado 800" d="M394.287,688.262c.511,7.611,1.214,15.163,2.11,22.736-7.229,1.838-14.464,3.454-21.783,4.872-.818-7.777-1.421-15.587-1.7-23.406C380.091,691.272,387.186,689.878,394.287,688.262Z" transform="translate(-372.914 -688.262)" fill="none" stroke="#d1a943" stroke-miterlimit="10" stroke-width="4"/>
      </g>
      <g id="Grupo_257" data-name="Grupo 257" transform="translate(37.624 131.614)">
        <g id="Grupo_255" data-name="Grupo 255" transform="translate(46.17 74.891)">
          <path id="Trazado_801" data-name="Trazado 801" d="M371.207,680.373c3.512,3.749,7.153,7.411,10.876,10.94q-3.447,12.56-6.331,25.251a364.508,364.508,0,0,1-27.912-28.09C355.7,685.976,363.492,683.322,371.207,680.373Z" transform="translate(-347.839 -653.086)" fill="none" stroke="#d1a943" stroke-miterlimit="10" stroke-width="4"/>
          <path id="Trazado_802" data-name="Trazado 802" d="M362.931,688.836c3.467,3.7,7.059,7.313,10.731,10.794,7.453-3.36,14.783-7.012,22.011-10.856a321.655,321.655,0,0,1-23.9-24.049Q367.081,676.685,362.931,688.836Z" transform="translate(-336.615 -664.724)" fill="none" stroke="#d1a943" stroke-miterlimit="10" stroke-width="4"/>
          <path id="Trazado_803" data-name="Trazado 803" d="M367.477,688.072l2.821-3.341" transform="translate(-333.234 -649.844)" fill="none" stroke="#d1a943" stroke-miterlimit="10" stroke-width="4"/>
          <path id="Trazado_804" data-name="Trazado 804" d="M361.3,681.8c1.188-1.278,1.78-1.916,2.966-3.194" transform="translate(-337.826 -654.398)" fill="none" stroke="#d1a943" stroke-miterlimit="10" stroke-width="4"/>
          <path id="Trazado_805" data-name="Trazado 805" d="M355.627,700.675q7.58-8.558,15.163-17.116" transform="translate(-342.047 -650.716)" fill="none" stroke="#d1a943" stroke-miterlimit="10" stroke-width="4"/>
          <path id="Trazado_806" data-name="Trazado 806" d="M365.984,688.976l15.146-17.1" transform="translate(-334.344 -659.403)" fill="none" stroke="#d1a943" stroke-miterlimit="10" stroke-width="4"/>
        </g>
        <g id="Grupo_256" data-name="Grupo 256" transform="translate(2.382 19.183)">
          <path id="Trazado_807" data-name="Trazado 807" d="M347.1,646.761c2.7,4.752,5.463,9.414,8.328,14.061Q349.5,672.545,344.1,684.511a373.451,373.451,0,0,1-21.369-36.105C330.868,648.179,339,647.593,347.1,646.761Z" transform="translate(-322.727 -622.375)" fill="none" stroke="#d1a943" stroke-miterlimit="10" stroke-width="4"/>
          <path id="Trazado_808" data-name="Trazado 808" d="M338.726,654.77c2.666,4.687,5.39,9.289,8.216,13.873,7.934-1.348,15.817-3.036,23.64-4.954a325.836,325.836,0,0,1-18.3-30.913Q345.254,643.62,338.726,654.77Z" transform="translate(-310.828 -632.776)" fill="none" stroke="#d1a943" stroke-miterlimit="10" stroke-width="4"/>
          <path id="Trazado_809" data-name="Trazado 809" d="M341.483,655.932l3.43-2.595" transform="translate(-308.778 -617.484)" fill="none" stroke="#d1a943" stroke-miterlimit="10" stroke-width="4"/>
          <path id="Trazado_810" data-name="Trazado 810" d="M336.755,647.876l3.542-2.41" transform="translate(-312.294 -623.338)" fill="none" stroke="#d1a943" stroke-miterlimit="10" stroke-width="4"/>
          <path id="Trazado_811" data-name="Trazado 811" d="M328.577,663.95l18.262-13.108" transform="translate(-318.376 -619.34)" fill="none" stroke="#d1a943" stroke-miterlimit="10" stroke-width="4"/>
          <path id="Trazado_812" data-name="Trazado 812" d="M341.05,654.991,359.291,641.9" transform="translate(-309.1 -625.991)" fill="none" stroke="#d1a943" stroke-miterlimit="10" stroke-width="4"/>
        </g>
        <path id="Trazado_813" data-name="Trazado 813" d="M369.261,662.215c-1.123,7.7-1.928,15.46-2.521,23.225-7.428,0-14.8-.241-22.213-.712.773-7.995,1.761-15.974,3.065-23.894C354.819,661.53,362.005,661.99,369.261,662.215Z" transform="translate(-304.133 -592.726)" fill="none" stroke="#d1a943" stroke-miterlimit="10" stroke-width="4"/>
        <path id="Trazado_814" data-name="Trazado 814" d="M394.287,688.262c.511,7.611,1.214,15.163,2.11,22.736-7.229,1.838-14.464,3.454-21.783,4.872-.818-7.777-1.421-15.587-1.7-23.406C380.091,691.272,387.186,689.878,394.287,688.262Z" transform="translate(-283.02 -572.327)" fill="none" stroke="#d1a943" stroke-miterlimit="10" stroke-width="4"/>
        <path id="Trazado_815" data-name="Trazado 815" d="M350.089,629.665c-2.71,7.564-5.12,15.244-7.324,22.979-7.233-2.164-14.326-4.562-21.4-7.223,2.431-7.964,5.069-15.866,8.007-23.647C336.207,624.659,343.072,627.276,350.089,629.665Z" transform="translate(-321.361 -621.775)" fill="none" stroke="#d1a943" stroke-miterlimit="10" stroke-width="4"/>
      </g>
      <g id="Grupo_260" data-name="Grupo 260">
        <g id="Grupo_258" data-name="Grupo 258" transform="translate(10.987 81.847)">
          <path id="Trazado_816" data-name="Trazado 816" d="M330.053,607.353q2.344,8.665,5.134,17.191-8.208,10.376-15.934,21.115a430.086,430.086,0,0,1-13.167-44.142C314.022,603.721,321.984,605.718,330.053,607.353Z" transform="translate(-306.085 -587.074)" fill="none" stroke="#d1a943" stroke-miterlimit="10" stroke-width="4"/>
          <path id="Trazado_817" data-name="Trazado 817" d="M322.074,612.1q2.312,8.548,5.064,16.961c7.955,1,15.957,1.615,23.961,1.969a376.524,376.524,0,0,1-11.273-37.792Q330.726,602.454,322.074,612.1Z" transform="translate(-294.194 -593.234)" fill="none" stroke="#d1a943" stroke-miterlimit="10" stroke-width="4"/>
          <path id="Trazado_818" data-name="Trazado 818" d="M322.774,615.43c1.547-.665,2.319-1,3.868-1.658" transform="translate(-293.673 -577.96)" fill="none" stroke="#d1a943" stroke-miterlimit="10" stroke-width="4"/>
          <path id="Trazado_819" data-name="Trazado 819" d="M319.858,605.578c1.575-.57,2.361-.856,3.936-1.428" transform="translate(-295.842 -585.116)" fill="none" stroke="#d1a943" stroke-miterlimit="10" stroke-width="4"/>
          <path id="Trazado_820" data-name="Trazado 820" d="M309.521,617.922l20.445-8.08" transform="translate(-303.53 -580.882)" fill="none" stroke="#d1a943" stroke-miterlimit="10" stroke-width="4"/>
          <path id="Trazado_821" data-name="Trazado 821" d="M323.485,612.4q10.211-4.036,20.421-8.07" transform="translate(-293.144 -584.982)" fill="none" stroke="#d1a943" stroke-miterlimit="10" stroke-width="4"/>
        </g>
        <g id="Grupo_259" data-name="Grupo 259">
          <path id="Trazado_822" data-name="Trazado 822" d="M321.715,560.994q.418,10.169,1.31,20.311-10.159,8.535-19.891,17.545c-1.988-17.35-3.064-34.69-3.35-52.156C306.956,551.718,314.236,556.469,321.715,560.994Z" transform="translate(-299.784 -546)" fill="none" stroke="#d1a943" stroke-miterlimit="10" stroke-width="4"/>
          <path id="Trazado_823" data-name="Trazado 823" d="M314.705,561.034q.413,10.036,1.292,20.041c7.493,3.554,15.043,6.9,22.77,9.875-1.69-14.862-2.61-29.692-2.867-44.653Q325.108,553.392,314.705,561.034Z" transform="translate(-288.687 -546.296)" fill="none" stroke="#d1a943" stroke-miterlimit="10" stroke-width="4"/>
          <path id="Trazado_824" data-name="Trazado 824" d="M313.112,566.769c1.639-.211,2.457-.317,4.094-.53" transform="translate(-289.872 -531.464)" fill="none" stroke="#d1a943" stroke-miterlimit="10" stroke-width="4"/>
          <path id="Trazado_825" data-name="Trazado 825" d="M312.366,555.128l4.112-.258" transform="translate(-290.426 -539.919)" fill="none" stroke="#d1a943" stroke-miterlimit="10" stroke-width="4"/>
          <path id="Trazado_826" data-name="Trazado 826" d="M300.344,562.832q10.747-1.031,21.5-2.065" transform="translate(-299.368 -535.534)" fill="none" stroke="#d1a943" stroke-miterlimit="10" stroke-width="4"/>
          <path id="Trazado_827" data-name="Trazado 827" d="M315.025,561.42l21.472-2.061" transform="translate(-288.449 -536.581)" fill="none" stroke="#d1a943" stroke-miterlimit="10" stroke-width="4"/>
        </g>
        <path id="Trazado_828" data-name="Trazado 828" d="M338.631,590.8c-4.2,7.189-8.124,14.551-11.856,22.011-6.623-4.447-13.08-9.177-19.258-14.264q6.073-11.514,12.675-22.677C326.082,581.17,332.268,586.128,338.631,590.8Z" transform="translate(-294.032 -524.301)" fill="none" stroke="#d1a943" stroke-miterlimit="10" stroke-width="4"/>
        <path id="Trazado_829" data-name="Trazado 829" d="M350.089,629.665c-2.71,7.564-5.12,15.244-7.324,22.979-7.233-2.164-14.326-4.562-21.4-7.223,2.431-7.964,5.069-15.866,8.007-23.647C336.207,624.659,343.072,627.276,350.089,629.665Z" transform="translate(-283.737 -490.161)" fill="none" stroke="#d1a943" stroke-miterlimit="10" stroke-width="4"/>
      </g>
    </g>
    <g id="Grupo_282" data-name="Grupo 282" transform="translate(310.771 370.06)">
      <g id="Grupo_263" data-name="Grupo 263" transform="translate(0 186.46)">
        <g id="Grupo_262" data-name="Grupo 262" transform="translate(0 22.796)">
          <path id="Trazado_830" data-name="Trazado 830" d="M335.184,511.18q-2.788,8.522-5.134,17.19c-8.07,1.594-16.034,3.634-23.966,5.836a429.754,429.754,0,0,1,13.167-44.141Q326.994,500.818,335.184,511.18Z" transform="translate(-306.085 -490.065)" fill="none" stroke="#d1a943" stroke-miterlimit="10" stroke-width="4"/>
          <path id="Trazado_831" data-name="Trazado 831" d="M327.139,503.957q-2.752,8.409-5.065,16.961,8.671,9.657,17.755,18.862A375.878,375.878,0,0,1,351.1,501.99C343.092,502.3,335.1,503,327.139,503.957Z" transform="translate(-294.194 -481.196)" fill="none" stroke="#d1a943" stroke-miterlimit="10" stroke-width="4"/>
          <path id="Trazado_832" data-name="Trazado 832" d="M319.829,512.032l3.937,1.426" transform="translate(-295.863 -473.728)" fill="none" stroke="#d1a943" stroke-miterlimit="10" stroke-width="4"/>
          <path id="Trazado_833" data-name="Trazado 833" d="M322.74,502.275c1.548.661,2.321.992,3.869,1.655" transform="translate(-293.698 -480.984)" fill="none" stroke="#d1a943" stroke-miterlimit="10" stroke-width="4"/>
          <path id="Trazado_834" data-name="Trazado 834" d="M309.521,502.42l20.445,8.08" transform="translate(-303.53 -480.876)" fill="none" stroke="#d1a943" stroke-miterlimit="10" stroke-width="4"/>
          <path id="Trazado_835" data-name="Trazado 835" d="M323.485,507.938l20.423,8.072" transform="translate(-293.144 -476.773)" fill="none" stroke="#d1a943" stroke-miterlimit="10" stroke-width="4"/>
        </g>
        <path id="Trazado_836" data-name="Trazado 836" d="M338.482,542.764c-6.375,4.685-12.482,9.77-18.379,15.08q-6.662-11.171-12.766-22.651c6.183-5.1,12.567-9.955,19.2-14.412C330.269,528.248,334.281,535.568,338.482,542.764Z" transform="translate(-305.154 -444.425)" fill="none" stroke="#d1a943" stroke-miterlimit="10" stroke-width="4"/>
        <path id="Trazado_837" data-name="Trazado 837" d="M350.258,499.978c-7.022,2.363-13.892,4.957-20.738,7.815-2.889-7.794-5.573-15.676-7.955-23.654,7.083-2.635,14.183-5.006,21.422-7.148C345.14,484.739,347.6,492.4,350.258,499.978Z" transform="translate(-294.572 -476.992)" fill="none" stroke="#d1a943" stroke-miterlimit="10" stroke-width="4"/>
      </g>
      <g id="Grupo_266" data-name="Grupo 266" transform="translate(26.993 74.04)">
        <g id="Grupo_264" data-name="Grupo 264" transform="translate(2.026 62.715)">
          <path id="Trazado_838" data-name="Trazado 838" d="M355.432,472.175c-2.865,4.645-5.627,9.31-8.328,14.06-8.1-.868-16.239-1.379-24.377-1.643a373.451,373.451,0,0,1,21.368-36.106Q349.511,460.472,355.432,472.175Z" transform="translate(-322.727 -448.487)" fill="none" stroke="#d1a943" stroke-miterlimit="10" stroke-width="4"/>
          <path id="Trazado_839" data-name="Trazado 839" d="M346.942,463.551c-2.827,4.584-5.552,9.186-8.216,13.873q6.542,11.166,13.561,21.994a326.065,326.065,0,0,1,18.3-30.913C362.765,466.554,354.869,464.936,346.942,463.551Z" transform="translate(-310.828 -437.284)" fill="none" stroke="#d1a943" stroke-miterlimit="10" stroke-width="4"/>
          <path id="Trazado_840" data-name="Trazado 840" d="M336.707,470.135l3.542,2.408" transform="translate(-312.33 -432.387)" fill="none" stroke="#d1a943" stroke-miterlimit="10" stroke-width="4"/>
          <path id="Trazado_841" data-name="Trazado 841" d="M341.431,462.154l3.432,2.593" transform="translate(-308.816 -438.323)" fill="none" stroke="#d1a943" stroke-miterlimit="10" stroke-width="4"/>
          <path id="Trazado_842" data-name="Trazado 842" d="M328.577,458.538l18.262,13.106" transform="translate(-318.376 -441.012)" fill="none" stroke="#d1a943" stroke-miterlimit="10" stroke-width="4"/>
          <path id="Trazado_843" data-name="Trazado 843" d="M341.05,467.489q9.121,6.547,18.241,13.092" transform="translate(-309.1 -434.355)" fill="none" stroke="#d1a943" stroke-miterlimit="10" stroke-width="4"/>
        </g>
        <g id="Grupo_265" data-name="Grupo 265" transform="translate(45.813 5.662)">
          <path id="Trazado_844" data-name="Trazado 844" d="M382.083,441.021c-3.723,3.528-7.364,7.191-10.877,10.94-7.7-2.98-15.51-5.6-23.368-8.1a364.853,364.853,0,0,1,27.914-28.091Q378.644,428.48,382.083,441.021Z" transform="translate(-347.838 -415.768)" fill="none" stroke="#d1a943" stroke-miterlimit="10" stroke-width="4"/>
          <path id="Trazado_845" data-name="Trazado 845" d="M373.662,432.154c-3.672,3.48-7.264,7.1-10.731,10.794q4.159,12.173,8.842,24.114a321.932,321.932,0,0,1,23.9-24.051C388.457,439.136,381.1,435.544,373.662,432.154Z" transform="translate(-336.613 -403.581)" fill="none" stroke="#d1a943" stroke-miterlimit="10" stroke-width="4"/>
          <path id="Trazado_846" data-name="Trazado 846" d="M361.239,436.524l2.968,3.194" transform="translate(-337.871 -400.331)" fill="none" stroke="#d1a943" stroke-miterlimit="10" stroke-width="4"/>
          <path id="Trazado_847" data-name="Trazado 847" d="M367.41,430.314l2.823,3.337" transform="translate(-333.282 -404.95)" fill="none" stroke="#d1a943" stroke-miterlimit="10" stroke-width="4"/>
          <path id="Trazado_848" data-name="Trazado 848" d="M355.626,423.521l15.165,17.118" transform="translate(-342.046 -410.002)" fill="none" stroke="#d1a943" stroke-miterlimit="10" stroke-width="4"/>
          <path id="Trazado_849" data-name="Trazado 849" d="M365.984,435.212q7.572,8.55,15.146,17.1" transform="translate(-334.342 -401.307)" fill="none" stroke="#d1a943" stroke-miterlimit="10" stroke-width="4"/>
        </g>
        <path id="Trazado_850" data-name="Trazado 850" d="M368.821,465.8c-7.254.263-14.44.764-21.662,1.5-1.306-7.925-2.392-15.9-3.163-23.9,7.413-.511,14.781-.79,22.21-.832C366.8,450.337,367.7,458.086,368.821,465.8Z" transform="translate(-304.883 -390.175)" fill="none" stroke="#d1a943" stroke-miterlimit="10" stroke-width="4"/>
        <path id="Trazado_851" data-name="Trazado 851" d="M350.258,499.978c-7.022,2.363-13.892,4.957-20.738,7.815-2.889-7.794-5.573-15.676-7.955-23.654,7.083-2.635,14.183-5.006,21.422-7.148C345.14,484.739,347.6,492.4,350.258,499.978Z" transform="translate(-321.565 -364.573)" fill="none" stroke="#d1a943" stroke-miterlimit="10" stroke-width="4"/>
        <path id="Trazado_852" data-name="Trazado 852" d="M394.605,440.177c-7.1-1.636-14.189-3.048-21.364-4.26.331-7.814.886-15.625,1.752-23.4,7.317,1.437,14.546,3.071,21.772,4.928C395.852,425.018,395.132,432.569,394.605,440.177Z" transform="translate(-283.132 -412.521)" fill="none" stroke="#d1a943" stroke-miterlimit="10" stroke-width="4"/>
      </g>
      <g id="Grupo_269" data-name="Grupo 269" transform="translate(117.101 11.287)">
        <g id="Grupo_267" data-name="Grupo 267" transform="translate(11.359 26.522)">
          <path id="Trazado_853" data-name="Trazado 853" d="M413.683,417.559c-4.324,2.476-8.605,5.088-12.792,7.81q-10.421-7.052-21.136-13.57a373.136,373.136,0,0,1,32.834-20.056C412.764,400.364,413.128,408.954,413.683,417.559Z" transform="translate(-379.755 -391.743)" fill="none" stroke="#d1a943" stroke-miterlimit="10" stroke-width="4"/>
          <path id="Trazado_854" data-name="Trazado 854" d="M405.782,408.768c-4.269,2.443-8.492,5.022-12.623,7.707,1.074,8.445,2.293,16.853,3.782,25.232a329.239,329.239,0,0,1,28.111-17.172C418.8,419.066,412.347,413.832,405.782,408.768Z" transform="translate(-369.786 -379.081)" fill="none" stroke="#d1a943" stroke-miterlimit="10" stroke-width="4"/>
          <path id="Trazado_855" data-name="Trazado 855" d="M391.876,411.027l2.251,3.791" transform="translate(-370.74 -377.401)" fill="none" stroke="#d1a943" stroke-miterlimit="10" stroke-width="4"/>
          <path id="Trazado_856" data-name="Trazado 856" d="M399.135,406.592c.832,1.559,1.249,2.337,2.08,3.9" transform="translate(-365.342 -380.7)" fill="none" stroke="#d1a943" stroke-miterlimit="10" stroke-width="4"/>
          <path id="Trazado_857" data-name="Trazado 857" d="M389.016,397.192q5.671,10.067,11.339,20.133" transform="translate(-372.867 -387.691)" fill="none" stroke="#d1a943" stroke-miterlimit="10" stroke-width="4"/>
          <path id="Trazado_858" data-name="Trazado 858" d="M396.761,410.943q5.663,10.054,11.327,20.11" transform="translate(-367.107 -377.464)" fill="none" stroke="#d1a943" stroke-miterlimit="10" stroke-width="4"/>
        </g>
        <g id="Grupo_268" data-name="Grupo 268" transform="translate(75.481)">
          <path id="Trazado_859" data-name="Trazado 859" d="M448.494,401.908c-4.72,1.433-9.425,3-14.068,4.689q-8.754-9.233-17.9-18.021c11.885-4.619,23.854-8.605,36.107-12.042Q450.281,389.182,448.494,401.908Z" transform="translate(-416.528 -376.533)" fill="none" stroke="#d1a943" stroke-miterlimit="10" stroke-width="4"/>
          <path id="Trazado_860" data-name="Trazado 860" d="M442.082,393.511c-4.657,1.416-9.3,2.964-13.878,4.628-.722,8.429-1.158,16.888-1.391,25.347,10.178-3.937,20.426-7.353,30.913-10.311C452.713,406.453,447.47,399.914,442.082,393.511Z" transform="translate(-408.88 -363.906)" fill="none" stroke="#d1a943" stroke-miterlimit="10" stroke-width="4"/>
          <path id="Trazado_861" data-name="Trazado 861" d="M426.792,393.774c.574,1.677.861,2.516,1.433,4.194" transform="translate(-408.895 -363.71)" fill="none" stroke="#d1a943" stroke-miterlimit="10" stroke-width="4"/>
          <path id="Trazado_862" data-name="Trazado 862" d="M434.775,391.111c.5,1.7.748,2.553,1.247,4.256" transform="translate(-402.957 -365.691)" fill="none" stroke="#d1a943" stroke-miterlimit="10" stroke-width="4"/>
          <path id="Trazado_863" data-name="Trazado 863" d="M426.789,379.684q3.508,11.069,7.013,22.138" transform="translate(-408.897 -374.19)" fill="none" stroke="#d1a943" stroke-miterlimit="10" stroke-width="4"/>
          <path id="Trazado_864" data-name="Trazado 864" d="M431.579,394.8q3.5,11.059,7.006,22.114" transform="translate(-405.334 -362.945)" fill="none" stroke="#d1a943" stroke-miterlimit="10" stroke-width="4"/>
        </g>
        <path id="Trazado_865" data-name="Trazado 865" d="M425.13,422.677c-6.6-3.233-13.247-6.26-20.007-9.12,1.93-7.463,4.04-14.832,6.345-22.182,6.856,3.085,13.594,6.333,20.283,9.788C429.356,408.286,427.154,415.431,425.13,422.677Z" transform="translate(-349.53 -365.495)" fill="none" stroke="#d1a943" stroke-miterlimit="10" stroke-width="4"/>
        <path id="Trazado_866" data-name="Trazado 866" d="M394.605,440.177c-7.1-1.636-14.189-3.048-21.364-4.26.331-7.814.886-15.625,1.752-23.4,7.317,1.437,14.546,3.071,21.772,4.928C395.852,425.018,395.132,432.569,394.605,440.177Z" transform="translate(-373.241 -349.768)" fill="none" stroke="#d1a943" stroke-miterlimit="10" stroke-width="4"/>
        <path id="Trazado_867" data-name="Trazado 867" d="M459.413,411.84c-5.782-4.628-11.652-9.069-17.662-13.378,3.419-6.835,6.992-13.538,10.75-20.18,6.058,4.534,11.973,9.2,17.8,14.047C466.5,398.746,462.882,405.226,459.413,411.84Z" transform="translate(-322.289 -375.232)" fill="none" stroke="#d1a943" stroke-miterlimit="10" stroke-width="4"/>
      </g>
      <g id="Grupo_272" data-name="Grupo 272" transform="translate(236.564)">
        <g id="Grupo_270" data-name="Grupo 270" transform="translate(25.811)">
          <path id="Trazado_868" data-name="Trazado 868" d="M485.1,393.987c-4.907.394-9.822.915-14.7,1.561q-6.691-10.912-13.843-21.479c12.555-1.932,25.073-3.259,37.746-4.009Q489.432,381.927,485.1,393.987Z" transform="translate(-456.553 -370.06)" fill="none" stroke="#d1a943" stroke-miterlimit="10" stroke-width="4"/>
          <path id="Trazado_869" data-name="Trazado 869" d="M482.087,386.306c-4.842.389-9.693.9-14.51,1.54-2.415,8.079-4.555,16.245-6.5,24.456,10.75-1.637,21.469-2.774,32.318-3.43C489.859,401.231,486.058,393.717,482.087,386.306Z" transform="translate(-453.187 -357.978)" fill="none" stroke="#d1a943" stroke-miterlimit="10" stroke-width="4"/>
          <path id="Trazado_870" data-name="Trazado 870" d="M464.492,384.677c.22,1.763.33,2.643.551,4.406" transform="translate(-450.649 -359.189)" fill="none" stroke="#d1a943" stroke-miterlimit="10" stroke-width="4"/>
          <path id="Trazado_871" data-name="Trazado 871" d="M472.837,383.789c.143,1.772.213,2.657.356,4.429" transform="translate(-444.442 -359.849)" fill="none" stroke="#d1a943" stroke-miterlimit="10" stroke-width="4"/>
          <path id="Trazado_872" data-name="Trazado 872" d="M467.346,370.907q1.182,11.574,2.368,23.144" transform="translate(-448.526 -369.43)" fill="none" stroke="#d1a943" stroke-miterlimit="10" stroke-width="4"/>
          <path id="Trazado_873" data-name="Trazado 873" d="M468.963,386.714q1.182,11.561,2.364,23.118" transform="translate(-447.324 -357.674)" fill="none" stroke="#d1a943" stroke-miterlimit="10" stroke-width="4"/>
        </g>
        <g id="Grupo_271" data-name="Grupo 271" transform="translate(95.338)">
          <path id="Trazado_874" data-name="Trazado 874" d="M521.743,395.548c-4.882-.645-9.8-1.167-14.707-1.561q-4.337-12.084-9.2-23.927c12.675.75,25.191,2.077,37.748,4.007Q528.422,384.655,521.743,395.548Z" transform="translate(-495.376 -370.06)" fill="none" stroke="#d1a943" stroke-miterlimit="10" stroke-width="4"/>
          <path id="Trazado_875" data-name="Trazado 875" d="M522.245,387.846c-4.816-.636-9.669-1.151-14.51-1.54-4,7.4-7.746,14.938-11.31,22.566,10.848.656,21.566,1.792,32.318,3.43C526.83,404.083,524.631,395.931,522.245,387.846Z" transform="translate(-496.426 -357.978)" fill="none" stroke="#d1a943" stroke-miterlimit="10" stroke-width="4"/>
          <path id="Trazado_876" data-name="Trazado 876" d="M503.263,383.782c-.141,1.772-.211,2.657-.352,4.427" transform="translate(-491.603 -359.855)" fill="none" stroke="#d1a943" stroke-miterlimit="10" stroke-width="4"/>
          <path id="Trazado_877" data-name="Trazado 877" d="M511.693,384.665l-.549,4.408" transform="translate(-485.48 -359.198)" fill="none" stroke="#d1a943" stroke-miterlimit="10" stroke-width="4"/>
          <path id="Trazado_878" data-name="Trazado 878" d="M509.7,370.907q-1.185,11.574-2.368,23.144" transform="translate(-488.313 -369.43)" fill="none" stroke="#d1a943" stroke-miterlimit="10" stroke-width="4"/>
          <path id="Trazado_879" data-name="Trazado 879" d="M508.085,386.715q-1.182,11.558-2.366,23.117" transform="translate(-489.515 -357.673)" fill="none" stroke="#d1a943" stroke-miterlimit="10" stroke-width="4"/>
        </g>
        <path id="Trazado_880" data-name="Trazado 880" d="M493.891,408.328c-4.74-5.737-9.6-11.308-14.619-16.78,4.71-5.978,9.547-11.793,14.548-17.51,5.027,5.7,9.885,11.491,14.621,17.448C503.441,396.978,498.605,402.572,493.891,408.328Z" transform="translate(-413.847 -367.102)" fill="none" stroke="#d1a943" stroke-miterlimit="10" stroke-width="4"/>
        <path id="Trazado_881" data-name="Trazado 881" d="M459.413,411.84c-5.782-4.628-11.652-9.069-17.662-13.378,3.419-6.835,6.992-13.538,10.75-20.18,6.058,4.534,11.973,9.2,17.8,14.047C466.5,398.746,462.882,405.226,459.413,411.84Z" transform="translate(-441.751 -363.945)" fill="none" stroke="#d1a943" stroke-miterlimit="10" stroke-width="4"/>
        <path id="Trazado_882" data-name="Trazado 882" d="M529.173,411.918c-3.453-6.623-7.055-13.111-10.841-19.537,5.836-4.835,11.76-9.488,17.83-14.006,3.742,6.651,7.3,13.362,10.7,20.206C540.845,402.875,534.967,407.3,529.173,411.918Z" transform="translate(-384.796 -363.875)" fill="none" stroke="#d1a943" stroke-miterlimit="10" stroke-width="4"/>
      </g>
      <g id="Grupo_275" data-name="Grupo 275" transform="translate(370.1 11.287)">
        <g id="Grupo_273" data-name="Grupo 273" transform="translate(22.96)">
          <path id="Trazado_883" data-name="Trazado 883" d="M557.012,406.6c-4.642-1.686-9.346-3.255-14.067-4.689q-1.789-12.748-4.141-25.375c12.253,3.437,24.22,7.423,36.105,12.042Q565.755,397.382,557.012,406.6Z" transform="translate(-526.066 -376.533)" fill="none" stroke="#d1a943" stroke-miterlimit="10" stroke-width="4"/>
          <path id="Trazado_884" data-name="Trazado 884" d="M561.02,398.139c-4.579-1.664-9.221-3.212-13.878-4.628-5.412,6.382-10.609,12.961-15.643,19.664,10.483,2.957,20.733,6.372,30.913,10.311C562.208,415.025,561.713,406.57,561.02,398.139Z" transform="translate(-531.499 -363.906)" fill="none" stroke="#d1a943" stroke-miterlimit="10" stroke-width="4"/>
          <path id="Trazado_885" data-name="Trazado 885" d="M541.71,391.085l-1.245,4.256" transform="translate(-524.831 -365.71)" fill="none" stroke="#d1a943" stroke-miterlimit="10" stroke-width="4"/>
          <path id="Trazado_886" data-name="Trazado 886" d="M549.774,393.744c-.574,1.677-.86,2.516-1.432,4.2" transform="translate(-518.973 -363.733)" fill="none" stroke="#d1a943" stroke-miterlimit="10" stroke-width="4"/>
          <path id="Trazado_887" data-name="Trazado 887" d="M552.241,379.684q-3.508,11.069-7.013,22.138" transform="translate(-521.289 -374.19)" fill="none" stroke="#d1a943" stroke-miterlimit="10" stroke-width="4"/>
          <path id="Trazado_888" data-name="Trazado 888" d="M547.448,394.8q-3.5,11.059-7.006,22.114" transform="translate(-524.848 -362.945)" fill="none" stroke="#d1a943" stroke-miterlimit="10" stroke-width="4"/>
        </g>
        <g id="Grupo_274" data-name="Grupo 274" transform="translate(80.659 26.522)">
          <path id="Trazado_889" data-name="Trazado 889" d="M589.618,425.369c-4.185-2.722-8.466-5.334-12.792-7.812.556-8.6.919-17.193,1.093-25.814A372.315,372.315,0,0,1,610.754,411.8Q600.022,418.33,589.618,425.369Z" transform="translate(-555.488 -391.743)" fill="none" stroke="#d1a943" stroke-miterlimit="10" stroke-width="4"/>
          <path id="Trazado_890" data-name="Trazado 890" d="M596.484,416.474c-4.131-2.684-8.354-5.263-12.623-7.706-6.584,5.039-13,10.325-19.272,15.767A328.91,328.91,0,0,1,592.7,441.707C594.218,433.337,595.409,424.917,596.484,416.474Z" transform="translate(-564.589 -379.081)" fill="none" stroke="#d1a943" stroke-miterlimit="10" stroke-width="4"/>
          <path id="Trazado_891" data-name="Trazado 891" d="M577.713,406.547l-2.078,3.9" transform="translate(-556.375 -380.733)" fill="none" stroke="#d1a943" stroke-miterlimit="10" stroke-width="4"/>
          <path id="Trazado_892" data-name="Trazado 892" d="M585.046,410.978c-.9,1.517-1.35,2.276-2.249,3.791" transform="translate(-551.047 -377.438)" fill="none" stroke="#d1a943" stroke-miterlimit="10" stroke-width="4"/>
          <path id="Trazado_893" data-name="Trazado 893" d="M591.86,397.192l-11.341,20.133" transform="translate(-552.742 -387.691)" fill="none" stroke="#d1a943" stroke-miterlimit="10" stroke-width="4"/>
          <path id="Trazado_894" data-name="Trazado 894" d="M584.109,410.943q-5.665,10.054-11.327,20.11" transform="translate(-558.496 -377.464)" fill="none" stroke="#d1a943" stroke-miterlimit="10" stroke-width="4"/>
        </g>
        <path id="Trazado_895" data-name="Trazado 895" d="M561.637,422.392c-2.054-7.235-4.284-14.37-6.708-21.481,6.675-3.484,13.4-6.764,20.243-9.878,2.335,7.338,4.474,14.7,6.434,22.151C574.858,416.073,568.225,419.13,561.637,422.392Z" transform="translate(-491.114 -365.749)" fill="none" stroke="#d1a943" stroke-miterlimit="10" stroke-width="4"/>
        <path id="Trazado_896" data-name="Trazado 896" d="M529.173,411.918c-3.453-6.623-7.055-13.111-10.841-19.537,5.836-4.835,11.76-9.488,17.83-14.006,3.742,6.651,7.3,13.362,10.7,20.206C540.845,402.875,534.967,407.3,529.173,411.918Z" transform="translate(-518.332 -375.162)" fill="none" stroke="#d1a943" stroke-miterlimit="10" stroke-width="4"/>
        <path id="Trazado_897" data-name="Trazado 897" d="M591.769,440.409c-.511-7.611-1.214-15.163-2.112-22.736,7.231-1.838,14.466-3.454,21.784-4.872.818,7.779,1.419,15.587,1.7,23.406C605.964,437.4,598.867,438.793,591.769,440.409Z" transform="translate(-465.286 -349.56)" fill="none" stroke="#d1a943" stroke-miterlimit="10" stroke-width="4"/>
      </g>
      <g id="Grupo_278" data-name="Grupo 278" transform="translate(494.471 74.528)">
        <g id="Grupo_276" data-name="Grupo 276" transform="translate(8.15 5.174)">
          <path id="Trazado_898" data-name="Trazado 898" d="M619.438,451.961c-3.514-3.751-7.154-7.413-10.876-10.94q3.445-12.563,6.33-25.253a364.541,364.541,0,0,1,27.913,28.091C634.945,446.356,627.152,449.01,619.438,451.961Z" transform="translate(-583.747 -415.768)" fill="none" stroke="#d1a943" stroke-miterlimit="10" stroke-width="4"/>
          <path id="Trazado_899" data-name="Trazado 899" d="M627.073,442.948c-3.466-3.7-7.059-7.313-10.731-10.794-7.453,3.36-14.783,7.012-22.011,10.856a321.314,321.314,0,0,1,23.9,24.051Q622.923,455.1,627.073,442.948Z" transform="translate(-594.331 -403.581)" fill="none" stroke="#d1a943" stroke-miterlimit="10" stroke-width="4"/>
          <path id="Trazado_900" data-name="Trazado 900" d="M609.766,430.25c-1.128,1.336-1.693,2-2.822,3.341" transform="translate(-584.95 -404.997)" fill="none" stroke="#d1a943" stroke-miterlimit="10" stroke-width="4"/>
          <path id="Trazado_901" data-name="Trazado 901" d="M616,436.456c-1.186,1.278-1.779,1.916-2.964,3.2" transform="translate(-580.42 -400.382)" fill="none" stroke="#d1a943" stroke-miterlimit="10" stroke-width="4"/>
          <path id="Trazado_902" data-name="Trazado 902" d="M626.879,423.521q-7.582,8.558-15.163,17.118" transform="translate(-581.401 -410.002)" fill="none" stroke="#d1a943" stroke-miterlimit="10" stroke-width="4"/>
          <path id="Trazado_903" data-name="Trazado 903" d="M616.515,435.212q-7.572,8.55-15.146,17.1" transform="translate(-589.097 -401.307)" fill="none" stroke="#d1a943" stroke-miterlimit="10" stroke-width="4"/>
        </g>
        <g id="Grupo_277" data-name="Grupo 277" transform="translate(51.243 62.225)">
          <path id="Trazado_904" data-name="Trazado 904" d="M642.882,486.236c-2.7-4.75-5.463-9.414-8.326-14.061q5.932-11.72,11.336-23.688a373.687,373.687,0,0,1,21.369,36.107C659.12,484.818,650.985,485.4,642.882,486.236Z" transform="translate(-607.507 -448.486)" fill="none" stroke="#d1a943" stroke-miterlimit="10" stroke-width="4"/>
          <path id="Trazado_905" data-name="Trazado 905" d="M650.9,477.424c-2.666-4.687-5.391-9.289-8.218-13.873-7.932,1.348-15.816,3.038-23.638,4.954a326.678,326.678,0,0,1,18.3,30.913Q644.372,488.573,650.9,477.424Z" transform="translate(-619.044 -437.282)" fill="none" stroke="#d1a943" stroke-miterlimit="10" stroke-width="4"/>
          <path id="Trazado_906" data-name="Trazado 906" d="M636.019,462.071l-3.43,2.6" transform="translate(-608.97 -438.383)" fill="none" stroke="#d1a943" stroke-miterlimit="10" stroke-width="4"/>
          <path id="Trazado_907" data-name="Trazado 907" d="M640.793,470.049l-3.54,2.408" transform="translate(-605.502 -432.449)" fill="none" stroke="#d1a943" stroke-miterlimit="10" stroke-width="4"/>
          <path id="Trazado_908" data-name="Trazado 908" d="M655.251,458.538l-18.262,13.106" transform="translate(-605.698 -441.01)" fill="none" stroke="#d1a943" stroke-miterlimit="10" stroke-width="4"/>
          <path id="Trazado_909" data-name="Trazado 909" d="M642.769,467.489q-9.121,6.547-18.241,13.092" transform="translate(-614.965 -434.353)" fill="none" stroke="#d1a943" stroke-miterlimit="10" stroke-width="4"/>
        </g>
        <path id="Trazado_910" data-name="Trazado 910" d="M617.328,465.177c1.121-7.7,1.929-15.46,2.52-23.226,7.428,0,14.8.242,22.213.713-.771,7.993-1.76,15.973-3.064,23.894C631.77,465.861,624.582,465.4,617.328,465.177Z" transform="translate(-569.078 -391.122)" fill="none" stroke="#d1a943" stroke-miterlimit="10" stroke-width="4"/>
        <path id="Trazado_911" data-name="Trazado 911" d="M591.769,440.409c-.511-7.611-1.214-15.163-2.112-22.736,7.231-1.838,14.466-3.454,21.784-4.872.818,7.779,1.419,15.587,1.7,23.406C605.964,437.4,598.867,438.793,591.769,440.409Z" transform="translate(-589.657 -412.801)" fill="none" stroke="#d1a943" stroke-miterlimit="10" stroke-width="4"/>
        <path id="Trazado_912" data-name="Trazado 912" d="M638.2,500.4c2.708-7.562,5.12-15.242,7.322-22.979,7.233,2.166,14.328,4.563,21.4,7.222-2.429,7.964-5.069,15.866-8.005,23.647C652.083,505.4,645.218,502.786,638.2,500.4Z" transform="translate(-553.552 -364.744)" fill="none" stroke="#d1a943" stroke-miterlimit="10" stroke-width="4"/>
      </g>
      <g id="Grupo_281" data-name="Grupo 281" transform="translate(577.582 187.202)">
        <g id="Grupo_279" data-name="Grupo 279" transform="translate(0 22.053)">
          <path id="Trazado_913" data-name="Trazado 913" d="M658.4,528.369q-2.344-8.663-5.133-17.19,8.208-10.379,15.934-21.115a429.613,429.613,0,0,1,13.165,44.141C674.427,532,666.467,530,658.4,528.369Z" transform="translate(-625.461 -490.065)" fill="none" stroke="#d1a943" stroke-miterlimit="10" stroke-width="4"/>
          <path id="Trazado_914" data-name="Trazado 914" d="M666.344,520.918q-2.315-8.548-5.065-16.959c-7.953-1-15.955-1.616-23.959-1.969a375.821,375.821,0,0,1,11.271,37.792Q657.694,530.559,666.344,520.918Z" transform="translate(-637.32 -481.196)" fill="none" stroke="#d1a943" stroke-miterlimit="10" stroke-width="4"/>
          <path id="Trazado_915" data-name="Trazado 915" d="M654.915,502.174l-3.868,1.656" transform="translate(-627.111 -481.059)" fill="none" stroke="#d1a943" stroke-miterlimit="10" stroke-width="4"/>
          <path id="Trazado_916" data-name="Trazado 916" d="M657.86,511.927l-3.937,1.428" transform="translate(-624.972 -473.806)" fill="none" stroke="#d1a943" stroke-miterlimit="10" stroke-width="4"/>
          <path id="Trazado_917" data-name="Trazado 917" d="M675.237,502.42l-20.445,8.08" transform="translate(-624.326 -480.876)" fill="none" stroke="#d1a943" stroke-miterlimit="10" stroke-width="4"/>
          <path id="Trazado_918" data-name="Trazado 918" d="M661.265,507.939l-20.422,8.072" transform="translate(-634.701 -476.772)" fill="none" stroke="#d1a943" stroke-miterlimit="10" stroke-width="4"/>
        </g>
        <g id="Grupo_280" data-name="Grupo 280" transform="translate(17.812 109.635)">
          <path id="Trazado_919" data-name="Trazado 919" d="M664.237,578.146q-.421-10.169-1.311-20.311,10.159-8.532,19.892-17.544c1.988,17.35,3.064,34.688,3.35,52.155C679,587.425,671.714,582.671,664.237,578.146Z" transform="translate(-636.088 -540.292)" fill="none" stroke="#d1a943" stroke-miterlimit="10" stroke-width="4"/>
          <path id="Trazado_920" data-name="Trazado 920" d="M671.6,574.907q-.413-10.033-1.292-20.041c-7.493-3.554-15.043-6.895-22.77-9.875,1.69,14.862,2.61,29.692,2.867,44.653Q661.194,582.549,671.6,574.907Z" transform="translate(-647.535 -536.797)" fill="none" stroke="#d1a943" stroke-miterlimit="10" stroke-width="4"/>
          <path id="Trazado_921" data-name="Trazado 921" d="M664.672,550.353c-1.637.213-2.455.319-4.094.53" transform="translate(-637.835 -532.809)" fill="none" stroke="#d1a943" stroke-miterlimit="10" stroke-width="4"/>
          <path id="Trazado_922" data-name="Trazado 922" d="M665.427,561.878l-4.112.26" transform="translate(-637.286 -524.238)" fill="none" stroke="#d1a943" stroke-miterlimit="10" stroke-width="4"/>
          <path id="Trazado_923" data-name="Trazado 923" d="M684.864,554.945l-21.5,2.065" transform="translate(-635.76 -529.394)" fill="none" stroke="#d1a943" stroke-miterlimit="10" stroke-width="4"/>
          <path id="Trazado_924" data-name="Trazado 924" d="M670.171,556.355l-21.47,2.061" transform="translate(-646.669 -528.346)" fill="none" stroke="#d1a943" stroke-miterlimit="10" stroke-width="4"/>
        </g>
        <path id="Trazado_925" data-name="Trazado 925" d="M650.678,541.85c4.2-7.189,8.124-14.552,11.856-22.009,6.621,4.445,13.078,9.175,19.256,14.262q-6.071,11.514-12.673,22.679C663.228,551.481,657.041,546.523,650.678,541.85Z" transform="translate(-627.385 -445.867)" fill="none" stroke="#d1a943" stroke-miterlimit="10" stroke-width="4"/>
        <path id="Trazado_926" data-name="Trazado 926" d="M638.2,500.4c2.708-7.562,5.12-15.242,7.322-22.979,7.233,2.166,14.328,4.563,21.4,7.222-2.429,7.964-5.069,15.866-8.005,23.647C652.083,505.4,645.218,502.786,638.2,500.4Z" transform="translate(-636.663 -477.418)" fill="none" stroke="#d1a943" stroke-miterlimit="10" stroke-width="4"/>
      </g>
    </g>
  </g>
</svg>
