<svg xmlns="http://www.w3.org/2000/svg" width="471.162" height="83.522" viewBox="0 0 471.162 83.522">
  <g id="Grupo_1730" data-name="Grupo 1730" transform="translate(-447.419 -1005.476)">
    <g id="Grupo_692" data-name="Grupo 692" transform="translate(-495.705 518.518)">
      <path id="Trazado_2206" data-name="Trazado 2206" d="M1024.8,520.786v15.87h17.779L1050.5,552.4h23.451v15.745H1031.17l-8.239-15.745H995.107l-6.867,15.745H945.455V552.4H968.91l7.927-15.748h17.779v-15.87H976.838l-7.927-15.748H945.455V489.289H988.24l6.867,15.748h29.2l6.863-15.748h42.785v15.748H1050.5l-7.927,15.748Z" fill="none" stroke="#d1a943" stroke-miterlimit="10" stroke-width="4.662"/>
    </g>
    <g id="Grupo_693" data-name="Grupo 693" transform="translate(-326.705 518.518)">
      <path id="Trazado_2206-2" data-name="Trazado 2206" d="M1024.8,520.786v15.87h17.779L1050.5,552.4h23.451v15.745H1031.17l-8.239-15.745H995.107l-6.867,15.745H945.455V552.4H968.91l7.927-15.748h17.779v-15.87H976.838l-7.927-15.748H945.455V489.289H988.24l6.867,15.748h29.2l6.863-15.748h42.785v15.748H1050.5l-7.927,15.748Z" fill="none" stroke="#d1a943" stroke-miterlimit="10" stroke-width="4.662"/>
    </g>
    <g id="Grupo_694" data-name="Grupo 694" transform="translate(-157.705 518.518)">
      <path id="Trazado_2206-3" data-name="Trazado 2206" d="M1024.8,520.786v15.87h17.779L1050.5,552.4h23.451v15.745H1031.17l-8.239-15.745H995.107l-6.867,15.745H945.455V552.4H968.91l7.927-15.748h17.779v-15.87H976.838l-7.927-15.748H945.455V489.289H988.24l6.867,15.748h29.2l6.863-15.748h42.785v15.748H1050.5l-7.927,15.748Z" fill="none" stroke="#d1a943" stroke-miterlimit="10" stroke-width="4.662"/>
    </g>
  </g>
</svg>
