<svg xmlns="http://www.w3.org/2000/svg" width="802.071" height="802.071" viewBox="0 0 802.071 802.071">
  <g id="Grupo_609" data-name="Grupo 609" transform="translate(-159.385 -234.183)">
    <g id="Grupo_326" data-name="Grupo 326" transform="translate(167.745 239.871)">
      <g id="Grupo_304" data-name="Grupo 304" transform="translate(1.917)">
        <g id="Grupo_288" data-name="Grupo 288" transform="translate(0 123.039)">
          <g id="Grupo_284" data-name="Grupo 284" transform="translate(0 185.858)">
            <path id="Trazado_927" data-name="Trazado 927" d="M233.163,535.724a354.7,354.7,0,0,0-35.66,39.242c-10.411-15.643-20.15-31.526-29.379-47.893a377.327,377.327,0,0,1,39.857-36.4A488.556,488.556,0,0,0,233.163,535.724Z" transform="translate(-168.124 -490.676)" fill="none" stroke="#e5661d" stroke-miterlimit="10" stroke-width="2.551"/>
            <path id="Trazado_928" data-name="Trazado 928" d="M214.206,529.921c-6.5,6.238-12.6,12.808-18.607,19.521q-7.436-11.812-14.338-23.9c6.391-6.486,12.914-12.721,19.685-18.791Q207.327,518.5,214.206,529.921Z" transform="translate(-165.125 -487.008)" fill="none" stroke="#e5661d" stroke-miterlimit="10" stroke-width="1.654"/>
            <path id="Trazado_929" data-name="Trazado 929" d="M195.715,525.329c.076-.076.115-.114.192-.192.055.095.084.141.138.236-.076.076-.114.115-.192.192-.054-.095-.082-.141-.138-.236m-6.2-.823c2.124,3.69,3.206,5.517,5.4,9.138,2.9-3.058,4.366-4.547,7.311-7.447-2.132-3.578-3.182-5.383-5.242-9.03-3.008,2.857-4.5,4.325-7.472,7.339Z" transform="translate(-163.24 -484.629)" fill="none" stroke="#e5661d" stroke-miterlimit="10" stroke-width="1"/>
            <path id="Trazado_930" data-name="Trazado 930" d="M192.043,574.629a579.088,579.088,0,0,1,10.064-82.479" transform="translate(-162.664 -490.34)" fill="none" stroke="#e5661d" stroke-miterlimit="10" stroke-width="1.654"/>
          </g>
          <g id="Grupo_285" data-name="Grupo 285" transform="translate(19.848 112.825)">
            <path id="Trazado_931" data-name="Trazado 931" d="M245.813,477.579a345.174,345.174,0,0,0-41.52,26.669,502.155,502.155,0,0,1-20.01-49.145,379.143,379.143,0,0,1,45.056-23.887C234.305,446.986,239.713,462.212,245.813,477.579Z" transform="translate(-184.283 -431.216)" fill="none" stroke="#e5661d" stroke-miterlimit="10" stroke-width="2.551"/>
            <path id="Trazado_932" data-name="Trazado 932" d="M227.873,468.876q-11,6.1-21.493,13.162c-3.417-8.118-6.633-16.278-9.674-24.547q10.96-6.7,22.4-12.448Q223.1,457.1,227.873,468.876Z" transform="translate(-181.447 -428.06)" fill="none" stroke="#e5661d" stroke-miterlimit="10" stroke-width="1.654"/>
            <path id="Trazado_933" data-name="Trazado 933" d="M210.379,461.072l.22-.129.092.242-.22.129-.092-.242m-5.863-2.141c1.406,3.783,2.132,5.661,3.623,9.389,3.356-2.068,5.037-3.067,8.405-4.994-1.437-3.686-2.136-5.543-3.488-9.283-3.421,1.885-5.129,2.863-8.54,4.888Z" transform="translate(-179.665 -426.005)" fill="none" stroke="#e5661d" stroke-miterlimit="10" stroke-width="1"/>
            <path id="Trazado_934" data-name="Trazado 934" d="M200.574,503.96A510.579,510.579,0,0,1,224.9,432.481" transform="translate(-180.564 -430.927)" fill="none" stroke="#e5661d" stroke-miterlimit="10" stroke-width="1.654"/>
          </g>
          <g id="Grupo_286" data-name="Grupo 286" transform="translate(54.245 50.886)">
            <path id="Trazado_935" data-name="Trazado 935" d="M267.85,427.566c-15.374,4.416-29.994,9.363-44.9,15.161a467.651,467.651,0,0,1-10.659-49.543c15.908-4.859,31.505-8.916,47.771-12.4C262.088,396.6,264.64,411.95,267.85,427.566Z" transform="translate(-212.288 -380.788)" fill="none" stroke="#e5661d" stroke-miterlimit="10" stroke-width="2.551"/>
            <path id="Trazado_936" data-name="Trazado 936" d="M251.641,416.435q-11.67,3.184-23.123,7.335-2.917-12.28-5.021-24.753,11.832-3.788,23.86-6.624Q249.1,404.492,251.641,416.435Z" transform="translate(-209.729 -378.139)" fill="none" stroke="#e5661d" stroke-miterlimit="10" stroke-width="1.654"/>
            <path id="Trazado_937" data-name="Trazado 937" d="M235.84,405.905l.236-.07c.018.1.028.146.047.244l-.236.07c-.018-.1-.028-.147-.047-.244m-5.293-3.275c.693,3.809,1.062,5.7,1.847,9.47,3.612-1.163,5.417-1.711,9.014-2.748-.742-3.724-1.089-5.6-1.739-9.363-3.641.994-5.466,1.522-9.122,2.641Z" transform="translate(-208.12 -376.405)" fill="none" stroke="#e5661d" stroke-miterlimit="10" stroke-width="1"/>
            <path id="Trazado_938" data-name="Trazado 938" d="M220.966,442.485a489.742,489.742,0,0,1,36.142-60.639" transform="translate(-210.307 -380.546)" fill="none" stroke="#e5661d" stroke-miterlimit="10" stroke-width="1.654"/>
          </g>
          <g id="Grupo_287" data-name="Grupo 287" transform="translate(100.419)">
            <path id="Trazado_939" data-name="Trazado 939" d="M297.6,385.617c-15.6.879-30.656,2.4-46.125,4.628-1.141-16.448-1.658-32.548-1.592-49.035,16.246-1.285,32.064-1.9,48.36-1.849C297.447,354.894,297.231,370.068,297.6,385.617Z" transform="translate(-249.88 -339.359)" fill="none" stroke="#e5661d" stroke-miterlimit="10" stroke-width="2.551"/>
            <path id="Trazado_940" data-name="Trazado 940" d="M283.679,372.523q-11.83.538-23.661,2-.665-12.221-.509-24.493,12.125-1.1,24.235-1.285Q283.311,360.639,283.679,372.523Z" transform="translate(-247.689 -337.216)" fill="none" stroke="#e5661d" stroke-miterlimit="10" stroke-width="1.654"/>
            <path id="Trazado_941" data-name="Trazado 941" d="M270.1,359.751l.24-.016c0,.1,0,.145,0,.241l-.24.017c0-.1,0-.146,0-.242m-4.545-4.229c0,3.761.027,5.635.125,9.368,3.7-.33,5.539-.467,9.2-.685-.064-3.692-.072-5.544-.04-9.262-3.7.177-5.554.292-9.287.58Z" transform="translate(-246.302 -335.802)" fill="none" stroke="#e5661d" stroke-miterlimit="10" stroke-width="1"/>
            <path id="Trazado_942" data-name="Trazado 942" d="M251.181,390.05a392.148,392.148,0,0,1,45.6-49.837" transform="translate(-249.584 -339.164)" fill="none" stroke="#e5661d" stroke-miterlimit="10" stroke-width="1.654"/>
          </g>
        </g>
        <g id="Grupo_293" data-name="Grupo 293" transform="translate(148.785 0.341)">
          <g id="Grupo_289" data-name="Grupo 289" transform="translate(0 75.138)">
            <path id="Trazado_943" data-name="Trazado 943" d="M334.773,353.165c-15.248-2.309-30.129-3.926-45.515-4.965,1.77-16.055,4.074-31.677,7-47.562,15.965,1.991,31.419,4.534,47.178,7.777C339.971,323.339,337.122,338.025,334.773,353.165Z" transform="translate(-289.258 -300.638)" fill="none" stroke="#e5661d" stroke-miterlimit="10" stroke-width="2.551"/>
            <path id="Trazado_944" data-name="Trazado 944" d="M322.927,337.806q-11.561-1.861-23.281-2.866,1.49-11.924,3.771-23.742,11.935,1.371,23.708,3.587Q324.643,326.224,322.927,337.806Z" transform="translate(-286.887 -298.228)" fill="none" stroke="#e5661d" stroke-miterlimit="10" stroke-width="1.654"/>
            <path id="Trazado_945" data-name="Trazado 945" d="M311.549,322.854l.235.032c-.016.095-.023.141-.039.235l-.236-.032c.017-.095.025-.141.041-.235m-3.669-5c-.652,3.638-.953,5.455-1.507,9.079,3.639.427,5.447.666,9.036,1.19.58-3.582.894-5.376,1.572-8.97-3.615-.568-5.435-.828-9.1-1.3Z" transform="translate(-285.351 -296.709)" fill="none" stroke="#e5661d" stroke-miterlimit="10" stroke-width="1"/>
            <path id="Trazado_946" data-name="Trazado 946" d="M289.258,346.608a400.311,400.311,0,0,1,52.865-39" transform="translate(-289.258 -299.046)" fill="none" stroke="#e5661d" stroke-miterlimit="10" stroke-width="1.654"/>
          </g>
          <g id="Grupo_290" data-name="Grupo 290" transform="translate(54.178 37.834)">
            <path id="Trazado_947" data-name="Trazado 947" d="M376.749,328.968c-14.405-5.164-28.612-9.62-43.382-13.62,4.5-15.31,9.429-30.126,14.992-45.081,15.18,4.968,29.793,10.367,44.55,16.472C386.971,300.723,381.659,314.59,376.749,328.968Z" transform="translate(-333.367 -270.267)" fill="none" stroke="#e5661d" stroke-miterlimit="10" stroke-width="2.551"/>
            <path id="Trazado_948" data-name="Trazado 948" d="M367.118,311.807q-10.931-4.016-22.136-7.254,3.513-11.369,7.755-22.481,11.355,3.606,22.437,7.986Q370.8,300.788,367.118,311.807Z" transform="translate(-330.716 -267.572)" fill="none" stroke="#e5661d" stroke-miterlimit="10" stroke-width="1.654"/>
            <path id="Trazado_949" data-name="Trazado 949" d="M358.165,295.1l.222.076c-.032.09-.047.134-.079.222-.09-.031-.134-.047-.224-.076l.08-.222m-2.7-5.59c-1.26,3.434-1.866,5.154-3.03,8.59,3.464,1.113,5.18,1.691,8.581,2.886,1.182-3.394,1.8-5.091,3.076-8.481-3.418-1.239-5.144-1.839-8.626-3Z" transform="translate(-329.016 -265.875)" fill="none" stroke="#e5661d" stroke-miterlimit="10" stroke-width="1"/>
            <path id="Trazado_950" data-name="Trazado 950" d="M333.367,312.188a551.7,551.7,0,0,1,58.128-28.077" transform="translate(-333.367 -267.107)" fill="none" stroke="#e5661d" stroke-miterlimit="10" stroke-width="1.654"/>
          </g>
          <g id="Grupo_291" data-name="Grupo 291" transform="translate(113.72 12.753)">
            <path id="Trazado_951" data-name="Trazado 951" d="M421.839,312.729c-13.165-7.686-26.279-14.675-39.995-21.329,7.007-14.2,14.352-27.868,22.326-41.553,13.978,7.63,27.352,15.576,40.732,24.213C436.695,286.765,429.114,299.468,421.839,312.729Z" transform="translate(-381.844 -249.847)" fill="none" stroke="#e5661d" stroke-miterlimit="10" stroke-width="2.551"/>
            <path id="Trazado_952" data-name="Trazado 952" d="M414.665,294.349q-10-5.936-20.366-11.164,5.385-10.544,11.417-20.691,10.459,5.6,20.555,11.9Q420.16,284.163,414.665,294.349Z" transform="translate(-379.001 -246.96)" fill="none" stroke="#e5661d" stroke-miterlimit="10" stroke-width="1.654"/>
            <path id="Trazado_953" data-name="Trazado 953" d="M408.345,276.451l.2.115-.114.2-.205-.114.115-.2m-1.684-5.989c-1.819,3.15-2.7,4.73-4.43,7.9,3.191,1.724,4.768,2.605,7.884,4.4,1.737-3.123,2.628-4.682,4.457-7.787-3.126-1.835-4.709-2.738-7.911-4.507Z" transform="translate(-377.19 -245.141)" fill="none" stroke="#e5661d" stroke-miterlimit="10" stroke-width="1"/>
            <path id="Trazado_954" data-name="Trazado 954" d="M381.844,286.85a551.085,551.085,0,0,1,61.582-17.069" transform="translate(-381.844 -245.297)" fill="none" stroke="#e5661d" stroke-miterlimit="10" stroke-width="1.654"/>
          </g>
          <g id="Grupo_292" data-name="Grupo 292" transform="translate(176.778)">
            <path id="Trazado_955" data-name="Trazado 955" d="M468.734,304.5c-11.589-9.879-23.255-19.087-35.551-28.07,9.289-12.744,18.817-24.9,28.969-36.966,12.426,9.966,24.221,20.14,35.9,30.974C487.794,281.52,478.162,292.706,468.734,304.5Z" transform="translate(-433.183 -239.464)" fill="none" stroke="#e5661d" stroke-miterlimit="10" stroke-width="2.551"/>
            <path id="Trazado_956" data-name="Trazado 956" d="M464.192,285.49q-8.8-7.605-18.064-14.581,7.086-9.44,14.732-18.364,9.306,7.349,18.154,15.327Q471.34,276.416,464.192,285.49Z" transform="translate(-430.228 -236.478)" fill="none" stroke="#e5661d" stroke-miterlimit="10" stroke-width="1.654"/>
            <path id="Trazado_957" data-name="Trazado 957" d="M460.652,266.979l.181.15-.147.181-.182-.15c.059-.073.088-.109.149-.181m-.629-6.194c-2.323,2.783-3.462,4.183-5.7,7,2.835,2.26,4.233,3.4,6.984,5.716,2.242-2.772,3.383-4.152,5.711-6.888-2.757-2.357-4.156-3.523-7-5.828Z" transform="translate(-428.357 -234.597)" fill="none" stroke="#e5661d" stroke-miterlimit="10" stroke-width="1"/>
            <path id="Trazado_958" data-name="Trazado 958" d="M433.183,270.672a554.4,554.4,0,0,1,63.369-5.982" transform="translate(-433.183 -233.706)" fill="none" stroke="#e5661d" stroke-miterlimit="10" stroke-width="1.654"/>
          </g>
        </g>
        <g id="Grupo_298" data-name="Grupo 298" transform="translate(390.43)">
          <g id="Grupo_294" data-name="Grupo 294">
            <path id="Trazado_959" data-name="Trazado 959" d="M516.183,304.322c-9.717-11.739-19.626-22.836-30.188-33.82,11.336-10.93,22.8-21.22,34.883-31.316,10.564,11.972,20.471,24.038,30.149,36.737C538.969,285.029,527.532,294.349,516.183,304.322Z" transform="translate(-485.995 -239.186)" fill="none" stroke="#e5661d" stroke-miterlimit="10" stroke-width="2.551"/>
            <path id="Trazado_960" data-name="Trazado 960" d="M514.4,285.283q-7.368-9.017-15.3-17.5,8.606-8.057,17.68-15.5,7.924,8.854,15.289,18.245Q523.011,277.6,514.4,285.283Z" transform="translate(-483.004 -236.196)" fill="none" stroke="#e5661d" stroke-miterlimit="10" stroke-width="1.654"/>
            <path id="Trazado_961" data-name="Trazado 961" d="M513.73,266.744l.154.178-.177.151-.154-.178.177-.151m.445-6.2c-2.77,2.332-4.136,3.512-6.823,5.893,2.407,2.718,3.588,4.088,5.9,6.841,2.689-2.337,4.053-3.494,6.823-5.781-2.317-2.8-3.5-4.19-5.9-6.953Z" transform="translate(-481.12 -234.312)" fill="none" stroke="#e5661d" stroke-miterlimit="10" stroke-width="1"/>
            <path id="Trazado_962" data-name="Trazado 962" d="M485.995,264.682a554.935,554.935,0,0,1,63.547,5.169" transform="translate(-485.995 -233.366)" fill="none" stroke="#e5661d" stroke-miterlimit="10" stroke-width="1.654"/>
          </g>
          <g id="Grupo_295" data-name="Grupo 295" transform="translate(65.032 12.129)">
            <path id="Trazado_963" data-name="Trazado 963" d="M562.932,312.237c-7.571-13.26-15.447-25.913-23.991-38.568,13.124-8.762,26.25-16.838,39.985-24.608,8.406,13.644,16.135,27.263,23.521,41.485C588.886,297.324,575.93,304.434,562.932,312.237Z" transform="translate(-538.941 -249.061)" fill="none" stroke="#e5661d" stroke-miterlimit="10" stroke-width="2.551"/>
            <path id="Trazado_964" data-name="Trazado 964" d="M563.975,293.769q-5.722-10.163-12.108-19.9,9.912-6.4,20.212-12.1,6.325,10.113,11.988,20.651Q573.842,287.739,563.975,293.769Z" transform="translate(-535.99 -246.161)" fill="none" stroke="#e5661d" stroke-miterlimit="10" stroke-width="1.654"/>
            <path id="Trazado_965" data-name="Trazado 965" d="M566.235,275.786c.049.081.073.122.12.2-.08.048-.12.071-.2.118-.048-.081-.071-.122-.12-.2l.2-.118m1.522-6.016c-3.153,1.8-4.712,2.716-7.788,4.581,1.912,3.1,2.845,4.651,4.66,7.77,3.071-1.822,4.626-2.716,7.77-4.471-1.808-3.163-2.737-4.739-4.642-7.881Z" transform="translate(-534.141 -244.334)" fill="none" stroke="#e5661d" stroke-miterlimit="10" stroke-width="1"/>
            <path id="Trazado_966" data-name="Trazado 966" d="M538.941,269.1a550.9,550.9,0,0,1,62.077,16.359" transform="translate(-538.941 -244.488)" fill="none" stroke="#e5661d" stroke-miterlimit="10" stroke-width="1.654"/>
          </g>
          <g id="Grupo_296" data-name="Grupo 296" transform="translate(128.538 36.757)">
            <path id="Trazado_967" data-name="Trazado 967" d="M607.661,328.266c-5.17-14.436-10.753-28.3-17.016-42.3,14.608-6.238,29.072-11.761,44.117-16.857,5.96,14.987,11.229,29.816,16.042,45.209C636.106,318.431,621.982,322.991,607.661,328.266Z" transform="translate(-590.645 -269.112)" fill="none" stroke="#e5661d" stroke-miterlimit="10" stroke-width="2.551"/>
            <path id="Trazado_968" data-name="Trazado 968" d="M611.556,310.972q-3.88-11.041-8.513-21.791,10.971-4.477,22.243-8.175,4.512,11.123,8.265,22.539Q622.419,306.867,611.556,310.972Z" transform="translate(-587.815 -266.397)" fill="none" stroke="#e5661d" stroke-miterlimit="10" stroke-width="1.654"/>
            <path id="Trazado_969" data-name="Trazado 969" d="M616.741,294.134c.034.088.05.133.085.222l-.222.077c-.033-.088-.05-.133-.083-.222l.221-.077m2.579-5.634c-3.456,1.185-5.167,1.8-8.557,3.067,1.354,3.4,2.006,5.1,3.257,8.5,3.377-1.223,5.08-1.815,8.521-2.956-1.237-3.445-1.882-5.169-3.221-8.61Z" transform="translate(-586.053 -264.686)" fill="none" stroke="#e5661d" stroke-miterlimit="10" stroke-width="1"/>
            <path id="Trazado_970" data-name="Trazado 970" d="M590.645,282.836a411.738,411.738,0,0,1,58.829,27.572" transform="translate(-590.645 -265.979)" fill="none" stroke="#e5661d" stroke-miterlimit="10" stroke-width="1.654"/>
          </g>
          <g id="Grupo_297" data-name="Grupo 297" transform="translate(188.697 73.896)">
            <path id="Trazado_971" data-name="Trazado 971" d="M648.948,352.427c-2.536-15.256-5.6-30-9.324-45.009,15.706-3.351,31.1-5.987,47.025-8.07,3.229,16,5.777,31.7,7.758,47.907C679.032,348.356,664.176,350.039,648.948,352.427Z" transform="translate(-639.624 -299.349)" fill="none" stroke="#e5661d" stroke-miterlimit="10" stroke-width="2.551"/>
            <path id="Trazado_972" data-name="Trazado 972" d="M655.648,336.907q-1.863-11.651-4.546-23.163,11.727-2.29,23.645-3.727,2.485,11.885,4.143,23.908Q667.193,334.986,655.648,336.907Z" transform="translate(-637.004 -296.914)" fill="none" stroke="#e5661d" stroke-miterlimit="10" stroke-width="1.654"/>
            <path id="Trazado_973" data-name="Trazado 973" d="M663.682,321.8l.043.236-.235.033-.043-.236.235-.033m3.589-5.054c-3.659.49-5.476.76-9.081,1.349.736,3.616,1.077,5.423,1.708,9.029,3.582-.544,5.386-.793,9.02-1.239-.608-3.65-.937-5.478-1.648-9.138Z" transform="translate(-635.386 -295.379)" fill="none" stroke="#e5661d" stroke-miterlimit="10" stroke-width="1"/>
            <path id="Trazado_974" data-name="Trazado 974" d="M639.624,305.919a393.939,393.939,0,0,1,53.6,38.792" transform="translate(-639.624 -297.849)" fill="none" stroke="#e5661d" stroke-miterlimit="10" stroke-width="1.654"/>
          </g>
        </g>
        <g id="Grupo_303" data-name="Grupo 303" transform="translate(633.91 121.792)">
          <g id="Grupo_299" data-name="Grupo 299">
            <path id="Trazado_975" data-name="Trazado 975" d="M685.236,385.045c.287-15.713-.048-31-1.01-46.69,16.309-.1,32.123.475,48.384,1.737.232,16.68-.167,32.929-1.228,49.576C715.9,387.427,700.853,385.911,685.236,385.045Z" transform="translate(-684.226 -338.344)" fill="none" stroke="#e5661d" stroke-miterlimit="10" stroke-width="2.551"/>
            <path id="Trazado_976" data-name="Trazado 976" d="M694.6,371.806q.3-12-.252-24.014,12.1.155,24.25,1.241.271,12.388-.323,24.754Q706.446,372.33,694.6,371.806Z" transform="translate(-681.915 -336.187)" fill="none" stroke="#e5661d" stroke-miterlimit="10" stroke-width="1.654"/>
            <path id="Trazado_977" data-name="Trazado 977" d="M705.306,358.882v.244l-.24-.016v-.244c.1.007.145.01.24.016m4.511-4.28c-3.734-.284-5.594-.4-9.293-.566.064,3.755.07,5.627.032,9.356,3.665.214,5.508.349,9.207.677.074-3.773.085-5.667.054-9.466Z" transform="translate(-680.506 -334.762)" fill="none" stroke="#e5661d" stroke-miterlimit="10" stroke-width="1"/>
            <path id="Trazado_978" data-name="Trazado 978" d="M684.226,338.353A382.909,382.909,0,0,1,730.4,388.358" transform="translate(-684.226 -338.342)" fill="none" stroke="#e5661d" stroke-miterlimit="10" stroke-width="1.654"/>
          </g>
          <g id="Grupo_300" data-name="Grupo 300" transform="translate(39.386 51.324)">
            <path id="Trazado_979" data-name="Trazado 979" d="M716.292,427.476c3.237-15.814,5.779-31.328,7.77-47.346,16.293,3.518,31.886,7.624,47.809,12.554A455.665,455.665,0,0,1,761.147,442.9C746.256,436.994,731.67,431.966,716.292,427.476Z" transform="translate(-716.292 -380.13)" fill="none" stroke="#e5661d" stroke-miterlimit="10" stroke-width="2.551"/>
            <path id="Trazado_980" data-name="Trazado 980" d="M727.42,416.216q2.563-12.084,4.284-24.344,12.022,2.865,23.869,6.719-2.095,12.63-5.042,25.081Q739.1,419.456,727.42,416.216Z" transform="translate(-713.752 -377.45)" fill="none" stroke="#e5661d" stroke-miterlimit="10" stroke-width="1.654"/>
            <path id="Trazado_981" data-name="Trazado 981" d="M740.017,405.561c-.018.1-.027.149-.047.247l-.235-.071c.018-.1.028-.147.047-.247l.235.071m5.3-3.314c-3.658-1.137-5.483-1.672-9.125-2.68-.647,3.814-1,5.71-1.74,9.482,3.6,1.051,5.4,1.609,9.011,2.791.79-3.816,1.162-5.735,1.855-9.593Z" transform="translate(-712.148 -375.693)" fill="none" stroke="#e5661d" stroke-miterlimit="10" stroke-width="1"/>
            <path id="Trazado_982" data-name="Trazado 982" d="M722.618,380.13a477.539,477.539,0,0,1,36.364,61.2" transform="translate(-714.848 -380.13)" fill="none" stroke="#e5661d" stroke-miterlimit="10" stroke-width="1.654"/>
          </g>
          <g id="Grupo_301" data-name="Grupo 301" transform="translate(67.457 114.096)">
            <path id="Trazado_983" data-name="Trazado 983" d="M739.147,478.2a445.9,445.9,0,0,0,16.783-46.968,369.408,369.408,0,0,1,44.926,24.37,498.7,498.7,0,0,1-20.449,49.821A336.967,336.967,0,0,0,739.147,478.2Z" transform="translate(-739.147 -431.236)" fill="none" stroke="#e5661d" stroke-miterlimit="10" stroke-width="2.551"/>
            <path id="Trazado_984" data-name="Trazado 984" d="M751.484,469.425q4.866-11.918,8.938-24.15,11.4,5.857,22.32,12.7c-3.1,8.385-6.387,16.658-9.88,24.882Q762.447,475.667,751.484,469.425Z" transform="translate(-736.331 -428.031)" fill="none" stroke="#e5661d" stroke-miterlimit="10" stroke-width="1.654"/>
            <path id="Trazado_985" data-name="Trazado 985" d="M765.464,461.558c-.038.1-.057.147-.095.246-.087-.054-.131-.079-.219-.131l.095-.246.219.131m5.88-2.153c-3.4-2.067-5.1-3.065-8.5-4.989-1.381,3.792-2.093,5.675-3.559,9.409,3.352,1.966,5.026,2.986,8.364,5.1,1.523-3.777,2.264-5.681,3.7-9.517Z" transform="translate(-734.551 -425.945)" fill="none" stroke="#e5661d" stroke-miterlimit="10" stroke-width="1"/>
            <path id="Trazado_986" data-name="Trazado 986" d="M752.811,431.236a502.6,502.6,0,0,1,24.074,72.358" transform="translate(-736.028 -431.236)" fill="none" stroke="#e5661d" stroke-miterlimit="10" stroke-width="1.654"/>
          </g>
          <g id="Grupo_302" data-name="Grupo 302" transform="translate(82.98 188.287)">
            <path id="Trazado_987" data-name="Trazado 987" d="M751.785,537.2a489.041,489.041,0,0,0,25.737-45.561,370.794,370.794,0,0,1,39.419,37.17c-9.442,16.55-19.4,32.6-30.053,48.4A350.918,350.918,0,0,0,751.785,537.2Z" transform="translate(-751.785 -491.639)" fill="none" stroke="#e5661d" stroke-miterlimit="10" stroke-width="2.551"/>
            <path id="Trazado_988" data-name="Trazado 988" d="M764.8,531.4q7.053-11.574,13.557-23.435c6.7,6.2,13.141,12.563,19.447,19.184q-7.08,12.259-14.665,24.162C777.225,544.466,771.214,537.766,764.8,531.4Z" transform="translate(-748.814 -487.912)" fill="none" stroke="#e5661d" stroke-miterlimit="10" stroke-width="1.654"/>
            <path id="Trazado_989" data-name="Trazado 989" d="M779.559,526.84l-.141.238c-.075-.079-.113-.118-.189-.2l.141-.238c.076.079.114.117.189.2m6.209-.8c-2.929-3.076-4.4-4.573-7.377-7.49-2.106,3.688-3.18,5.515-5.361,9.131,2.906,2.96,4.35,4.479,7.211,7.6,2.246-3.659,3.353-5.508,5.527-9.24Z" transform="translate(-746.935 -485.496)" fill="none" stroke="#e5661d" stroke-miterlimit="10" stroke-width="1"/>
            <path id="Trazado_990" data-name="Trazado 990" d="M772.739,491.639a557.445,557.445,0,0,1,9.337,83.472" transform="translate(-747.002 -491.639)" fill="none" stroke="#e5661d" stroke-miterlimit="10" stroke-width="1.654"/>
          </g>
        </g>
      </g>
      <g id="Grupo_325" data-name="Grupo 325" transform="translate(0 392.988)">
        <g id="Grupo_309" data-name="Grupo 309" transform="translate(637.272 2.457)">
          <g id="Grupo_305" data-name="Grupo 305" transform="translate(81.407)">
            <path id="Trazado_991" data-name="Trazado 991" d="M751.68,600.9a343.412,343.412,0,0,0,34.952-39.756c10.719,15.87,20.761,31.989,30.292,48.6a363.512,363.512,0,0,1-39.253,36.886A504.871,504.871,0,0,0,751.68,600.9Z" transform="translate(-751.68 -561.14)" fill="none" stroke="#e5661d" stroke-miterlimit="10" stroke-width="2.551"/>
            <path id="Trazado_992" data-name="Trazado 992" d="M764.716,598.96c6.389-6.318,12.375-12.975,18.261-19.781q7.661,11.983,14.788,24.262c-6.276,6.576-12.693,12.9-19.366,19.043Q771.8,610.554,764.716,598.96Z" transform="translate(-748.704 -557.022)" fill="none" stroke="#e5661d" stroke-miterlimit="10" stroke-width="1.654"/>
            <path id="Trazado_993" data-name="Trazado 993" d="M779.494,598.693l-.188.194-.142-.24.189-.194.141.239m6.218.841c-2.194-3.746-3.309-5.6-5.574-9.276-2.849,3.1-4.287,4.608-7.182,7.548,2.2,3.631,3.282,5.463,5.411,9.167,2.959-2.9,4.429-4.382,7.345-7.438Z" transform="translate(-746.823 -554.493)" fill="none" stroke="#e5661d" stroke-miterlimit="10" stroke-width="1"/>
            <path id="Trazado_994" data-name="Trazado 994" d="M781.73,561.14a560.725,560.725,0,0,1-8.577,83.648" transform="translate(-746.778 -561.14)" fill="none" stroke="#e5661d" stroke-miterlimit="10" stroke-width="1.654"/>
          </g>
          <g id="Grupo_306" data-name="Grupo 306" transform="translate(66.196 85.485)">
            <path id="Trazado_995" data-name="Trazado 995" d="M739.3,657.685a331.552,331.552,0,0,0,41.2-26.947,516.525,516.525,0,0,1,20.833,49.927,363.785,363.785,0,0,1-44.84,24.084A463.711,463.711,0,0,0,739.3,657.685Z" transform="translate(-739.296 -630.738)" fill="none" stroke="#e5661d" stroke-miterlimit="10" stroke-width="2.551"/>
            <path id="Trazado_996" data-name="Trazado 996" d="M751.7,659.764q10.944-6.159,21.345-13.294c3.555,8.245,6.905,16.535,10.079,24.935q-10.883,6.762-22.279,12.558Q756.66,671.718,751.7,659.764Z" transform="translate(-736.465 -627.147)" fill="none" stroke="#e5661d" stroke-miterlimit="10" stroke-width="1.654"/>
            <path id="Trazado_997" data-name="Trazado 997" d="M765.755,663.446l-.219.129c-.038-.1-.058-.149-.1-.246l.219-.13c.038.1.058.147.1.247m5.91,2.188c-1.468-3.843-2.223-5.751-3.777-9.536-3.332,2.089-5,3.1-8.351,5.043,1.5,3.743,2.226,5.628,3.638,9.427,3.4-1.9,5.1-2.889,8.49-4.934Z" transform="translate(-734.675 -624.949)" fill="none" stroke="#e5661d" stroke-miterlimit="10" stroke-width="1"/>
            <path id="Trazado_998" data-name="Trazado 998" d="M777.171,630.738a503.03,503.03,0,0,1-23.305,72.437" transform="translate(-735.97 -630.738)" fill="none" stroke="#e5661d" stroke-miterlimit="10" stroke-width="1.654"/>
          </g>
          <g id="Grupo_307" data-name="Grupo 307" transform="translate(38.448 159.495)">
            <path id="Trazado_999" data-name="Trazado 999" d="M716.705,706.163c15.406-4.4,30.016-9.341,44.941-15.169a475.948,475.948,0,0,1,11.326,50.251c-15.964,4.859-31.59,8.885-47.918,12.318C722.846,737.533,720.111,721.982,716.705,706.163Z" transform="translate(-716.705 -690.994)" fill="none" stroke="#e5661d" stroke-miterlimit="10" stroke-width="2.551"/>
            <path id="Trazado_1000" data-name="Trazado 1000" d="M727.966,711.754q11.7-3.171,23.158-7.328,3.086,12.454,5.347,25.1-11.847,3.784-23.922,6.6Q730.666,723.863,727.966,711.754Z" transform="translate(-714.135 -687.928)" fill="none" stroke="#e5661d" stroke-miterlimit="10" stroke-width="1.654"/>
            <path id="Trazado_1001" data-name="Trazado 1001" d="M740.719,718.862l-.236.07-.049-.247.236-.07.049.247m5.36,3.341c-.741-3.86-1.135-5.781-1.97-9.6-3.616,1.161-5.423,1.708-9.03,2.741.79,3.776,1.162,5.675,1.857,9.491,3.652-.989,5.48-1.514,9.143-2.632Z" transform="translate(-712.511 -686.061)" fill="none" stroke="#e5661d" stroke-miterlimit="10" stroke-width="1"/>
            <path id="Trazado_1002" data-name="Trazado 1002" d="M759.915,690.994a472.8,472.8,0,0,1-35.628,61.26" transform="translate(-714.974 -690.994)" fill="none" stroke="#e5661d" stroke-miterlimit="10" stroke-width="1.654"/>
          </g>
          <g id="Grupo_308" data-name="Grupo 308" transform="translate(0 222.064)">
            <path id="Trazado_1003" data-name="Trazado 1003" d="M685.723,746.349c15.724-.793,30.882-2.24,46.476-4.414,1.3,16.634,1.968,32.911,2.032,49.6-16.41,1.207-32.375,1.726-48.828,1.568C686.111,777.393,686.22,762.065,685.723,746.349Z" transform="translate(-685.402 -741.935)" fill="none" stroke="#e5661d" stroke-miterlimit="10" stroke-width="2.551"/>
            <path id="Trazado_1004" data-name="Trazado 1004" d="M695.379,754.954q11.939-.472,23.855-1.88.779,12.366.719,24.77-12.224,1.037-24.46,1.148Q695.847,766.975,695.379,754.954Z" transform="translate(-683.125 -739.392)" fill="none" stroke="#e5661d" stroke-miterlimit="10" stroke-width="1.654"/>
            <path id="Trazado_1005" data-name="Trazado 1005" d="M706.377,764.977l-.242.015c0-.1,0-.146,0-.243l.242-.015c0,.1,0,.146,0,.243m4.621,4.3c-.032-3.8-.073-5.7-.2-9.472-3.728.312-5.584.438-9.281.639.1,3.733.118,5.606.114,9.364,3.731-.156,5.606-.262,9.37-.531Z" transform="translate(-681.724 -737.855)" fill="none" stroke="#e5661d" stroke-miterlimit="10" stroke-width="1"/>
            <path id="Trazado_1006" data-name="Trazado 1006" d="M731.981,741.935a376.308,376.308,0,0,1-45.624,50.117" transform="translate(-685.184 -741.935)" fill="none" stroke="#e5661d" stroke-miterlimit="10" stroke-width="1.654"/>
          </g>
        </g>
        <g id="Grupo_314" data-name="Grupo 314" transform="translate(391.06 270.347)">
          <g id="Grupo_310" data-name="Grupo 310" transform="translate(191.462)">
            <path id="Trazado_1007" data-name="Trazado 1007" d="M649.465,779.245c15.443,2.443,30.52,4.183,46.112,5.338-1.7,16.2-3.954,31.94-6.857,47.967-16.209-2.124-31.9-4.8-47.892-8.193C644.309,809.308,647.146,794.517,649.465,779.245Z" transform="translate(-640.827 -779.245)" fill="none" stroke="#e5661d" stroke-miterlimit="10" stroke-width="2.551"/>
            <path id="Trazado_1008" data-name="Trazado 1008" d="M656.5,789.95q11.727,1.964,23.6,3.061-1.446,12.031-3.713,23.944-12.1-1.468-24.054-3.794Q654.813,801.633,656.5,789.95Z" transform="translate(-638.201 -776.801)" fill="none" stroke="#e5661d" stroke-miterlimit="10" stroke-width="1.654"/>
            <path id="Trazado_1009" data-name="Trazado 1009" d="M664.916,802.046l-.238-.034c.016-.093.023-.141.039-.236l.238.034c-.016.093-.023.141-.039.236m3.739,5.076c.646-3.668.943-5.5,1.489-9.154-3.69-.457-5.522-.712-9.163-1.269-.574,3.612-.884,5.423-1.557,9.045,3.668.6,5.514.876,9.232,1.378Z" transform="translate(-636.582 -775.261)" fill="none" stroke="#e5661d" stroke-miterlimit="10" stroke-width="1"/>
            <path id="Trazado_1010" data-name="Trazado 1010" d="M695.329,783.591a387.985,387.985,0,0,1-53.417,38.988" transform="translate(-640.579 -778.253)" fill="none" stroke="#e5661d" stroke-miterlimit="10" stroke-width="1.654"/>
          </g>
          <g id="Grupo_311" data-name="Grupo 311" transform="translate(130.866 31.01)">
            <path id="Trazado_1011" data-name="Trazado 1011" d="M607.965,804.492c14.647,5.329,29.1,9.945,44.123,14.1-4.545,15.421-9.541,30.307-15.208,45.351-15.464-5.13-30.354-10.7-45.388-16.981C597.564,832.9,602.973,818.973,607.965,804.492Z" transform="translate(-591.492 -804.492)" fill="none" stroke="#e5661d" stroke-miterlimit="10" stroke-width="2.551"/>
            <path id="Trazado_1012" data-name="Trazado 1012" d="M612.219,816.427q11.126,4.147,22.525,7.5-3.558,11.443-7.878,22.616-11.559-3.729-22.849-8.244Q608.483,827.515,612.219,816.427Z" transform="translate(-588.633 -801.768)" fill="none" stroke="#e5661d" stroke-miterlimit="10" stroke-width="1.654"/>
            <path id="Trazado_1013" data-name="Trazado 1013" d="M617.831,829.916l-.227-.079c.033-.09.049-.134.081-.224l.227.079c-.032.09-.048.134-.081.224m2.755,5.662c1.282-3.455,1.9-5.183,3.08-8.642-3.525-1.151-5.273-1.749-8.734-2.983-1.2,3.415-1.828,5.122-3.128,8.531,3.48,1.279,5.236,1.9,8.782,3.094Z" transform="translate(-586.855 -800.05)" fill="none" stroke="#e5661d" stroke-miterlimit="10" stroke-width="1"/>
            <path id="Trazado_1014" data-name="Trazado 1014" d="M651.82,815.974a411.079,411.079,0,0,1-59.152,27.846" transform="translate(-591.224 -801.871)" fill="none" stroke="#e5661d" stroke-miterlimit="10" stroke-width="1.654"/>
          </g>
          <g id="Grupo_312" data-name="Grupo 312" transform="translate(66.409 51.602)">
            <path id="Trazado_1015" data-name="Trazado 1015" d="M562.724,821.257c13.41,7.878,26.774,15.05,40.747,21.882-7.187,14.29-14.718,27.993-22.918,41.727-14.255-7.817-27.9-15.955-41.539-24.8C547.462,847.326,555.247,834.591,562.724,821.257Z" transform="translate(-539.014 -821.257)" fill="none" stroke="#e5661d" stroke-miterlimit="10" stroke-width="2.551"/>
            <path id="Trazado_1016" data-name="Trazado 1016" d="M564.1,834.018q10.187,6.082,20.755,11.449-5.522,10.59-11.724,20.775-10.669-5.743-20.959-12.2Q558.456,844.246,564.1,834.018Z" transform="translate(-536.011 -818.344)" fill="none" stroke="#e5661d" stroke-miterlimit="10" stroke-width="1.654"/>
            <path id="Trazado_1017" data-name="Trazado 1017" d="M566.768,848.446l-.209-.118.118-.2.209.118c-.047.082-.07.123-.118.2m1.7,6.059c1.869-3.163,2.78-4.748,4.551-7.93-3.252-1.769-4.86-2.67-8.036-4.508-1.784,3.137-2.7,4.7-4.58,7.819,3.187,1.879,4.8,2.8,8.066,4.618Z" transform="translate(-534.132 -816.507)" fill="none" stroke="#e5661d" stroke-miterlimit="10" stroke-width="1"/>
            <path id="Trazado_1018" data-name="Trazado 1018" d="M603.19,839.072a561.164,561.164,0,0,1-62.945,16.669" transform="translate(-538.733 -817.19)" fill="none" stroke="#e5661d" stroke-miterlimit="10" stroke-width="1.654"/>
          </g>
          <g id="Grupo_313" data-name="Grupo 313" transform="translate(0 61.745)">
            <path id="Trazado_1019" data-name="Trazado 1019" d="M515.18,829.515c11.79,10.089,23.662,19.491,36.176,28.668-9.59,12.8-19.418,24.977-29.9,37.062-12.645-10.174-24.639-20.557-36.513-31.623C495.522,852.54,505.45,841.347,515.18,829.515Z" transform="translate(-484.947 -829.515)" fill="none" stroke="#e5661d" stroke-miterlimit="10" stroke-width="2.551"/>
            <path id="Trazado_1020" data-name="Trazado 1020" d="M513.639,842.694q8.947,7.762,18.382,14.892-7.307,9.463-15.2,18.407-9.477-7.512-18.469-15.651Q506.27,851.786,513.639,842.694Z" transform="translate(-481.888 -826.507)" fill="none" stroke="#e5661d" stroke-miterlimit="10" stroke-width="1.654"/>
            <path id="Trazado_1021" data-name="Trazado 1021" d="M513.308,857.6l-.184-.154c.061-.071.092-.108.153-.181l.184.154-.154.181m.6,6.259c2.4-2.787,3.573-4.192,5.878-7.013-2.885-2.309-4.307-3.477-7.107-5.837-2.31,2.777-3.49,4.158-5.892,6.9,2.8,2.4,4.229,3.6,7.12,5.95Z" transform="translate(-479.961 -824.608)" fill="none" stroke="#e5661d" stroke-miterlimit="10" stroke-width="1"/>
            <path id="Trazado_1022" data-name="Trazado 1022" d="M551.07,852.855A573.861,573.861,0,0,1,486.2,858.3" transform="translate(-484.662 -824.187)" fill="none" stroke="#e5661d" stroke-miterlimit="10" stroke-width="1.654"/>
          </g>
        </g>
        <g id="Grupo_319" data-name="Grupo 319" transform="translate(144.344 267.987)">
          <g id="Grupo_315" data-name="Grupo 315" transform="translate(180.236 63.774)">
            <path id="Trazado_1023" data-name="Trazado 1023" d="M466.738,829.245C476.569,841.2,486.6,852.5,497.3,863.683c-11.721,10.952-23.564,21.245-36.037,31.333-10.679-12.2-20.679-24.482-30.443-37.423C443.239,848.518,455.029,839.216,466.738,829.245Z" transform="translate(-430.822 -829.245)" fill="none" stroke="#e5661d" stroke-miterlimit="10" stroke-width="2.551"/>
            <path id="Trazado_1024" data-name="Trazado 1024" d="M462.322,842.426q7.445,9.175,15.482,17.818-8.884,8.059-18.257,15.5-8.02-9.026-15.45-18.585Q453.438,850.106,462.322,842.426Z" transform="translate(-427.792 -826.236)" fill="none" stroke="#e5661d" stroke-miterlimit="10" stroke-width="1.654"/>
            <path id="Trazado_1025" data-name="Trazado 1025" d="M458.99,857.339c-.063-.073-.093-.109-.155-.182l.183-.151c.061.073.092.109.155.182l-.183.151m-.52,6.265c2.861-2.331,4.269-3.51,7.044-5.892-2.437-2.769-3.631-4.164-5.973-6.967-2.773,2.335-4.181,3.492-7.039,5.777,2.34,2.849,3.532,4.267,5.968,7.082Z" transform="translate(-425.873 -824.337)" fill="none" stroke="#e5661d" stroke-miterlimit="10" stroke-width="1"/>
            <path id="Trazado_1026" data-name="Trazado 1026" d="M497.02,858.365a575.171,575.171,0,0,1-64.964-5.82" transform="translate(-430.54 -823.926)" fill="none" stroke="#e5661d" stroke-miterlimit="10" stroke-width="1.654"/>
          </g>
          <g id="Grupo_316" data-name="Grupo 316" transform="translate(115.604 52.958)">
            <path id="Trazado_1027" data-name="Trazado 1027" d="M418.8,820.439c7.573,13.469,15.46,26.311,24.036,39.164-13.534,8.743-27.068,16.8-41.2,24.533-8.393-13.87-16.088-27.7-23.428-42.158C392.117,835.258,405.433,828.2,418.8,820.439Z" transform="translate(-378.202 -820.439)" fill="none" stroke="#e5661d" stroke-miterlimit="10" stroke-width="2.551"/>
            <path id="Trazado_1028" data-name="Trazado 1028" d="M411.615,833.2q5.711,10.316,12.116,20.214-10.213,6.376-20.814,12.053-6.327-10.282-11.96-20.981Q401.468,839.2,411.615,833.2Z" transform="translate(-375.29 -817.526)" fill="none" stroke="#e5661d" stroke-miterlimit="10" stroke-width="1.654"/>
            <path id="Trazado_1029" data-name="Trazado 1029" d="M405.354,847.642c-.048-.082-.071-.124-.12-.206l.208-.117c.049.082.072.124.12.206l-.208.117m-1.632,6.066c3.244-1.79,4.848-2.7,8.016-4.559-1.914-3.148-2.846-4.728-4.659-7.893-3.159,1.81-4.758,2.7-7.994,4.446,1.8,3.211,2.732,4.812,4.637,8.006Z" transform="translate(-373.435 -815.687)" fill="none" stroke="#e5661d" stroke-miterlimit="10" stroke-width="1"/>
            <path id="Trazado_1030" data-name="Trazado 1030" d="M442.564,855.5a565.31,565.31,0,0,1-63.181-17.09" transform="translate(-377.932 -816.337)" fill="none" stroke="#e5661d" stroke-miterlimit="10" stroke-width="1.654"/>
          </g>
          <g id="Grupo_317" data-name="Grupo 317" transform="translate(54.82 31.678)">
            <path id="Trazado_1031" data-name="Trazado 1031" d="M372.789,803.114c5.053,14.614,10.535,28.643,16.709,42.82-14.98,6.174-29.817,11.641-45.22,16.674-5.815-15.189-10.925-30.2-15.565-45.791C343.714,812.792,358.153,808.307,372.789,803.114Z" transform="translate(-328.714 -803.114)" fill="none" stroke="#e5661d" stroke-miterlimit="10" stroke-width="2.551"/>
            <path id="Trazado_1032" data-name="Trazado 1032" d="M363.028,815.032q3.779,11.169,8.337,22.063-11.246,4.425-22.782,8.073-4.414-11.277-8.044-22.825Q351.911,819.081,363.028,815.032Z" transform="translate(-326.015 -800.394)" fill="none" stroke="#e5661d" stroke-miterlimit="10" stroke-width="1.654"/>
            <path id="Trazado_1033" data-name="Trazado 1033" d="M353.99,828.519c-.032-.09-.049-.134-.081-.224l.226-.077.082.225c-.091.031-.136.047-.227.076m-2.713,5.667c3.536-1.169,5.289-1.775,8.76-3.025-1.327-3.44-1.963-5.162-3.185-8.605-3.454,1.2-5.2,1.788-8.716,2.911,1.2,3.488,1.831,5.232,3.141,8.719Z" transform="translate(-324.281 -798.676)" fill="none" stroke="#e5661d" stroke-miterlimit="10" stroke-width="1"/>
            <path id="Trazado_1034" data-name="Trazado 1034" d="M389.25,843.239A416.107,416.107,0,0,1,329.8,814.92" transform="translate(-328.465 -800.419)" fill="none" stroke="#e5661d" stroke-miterlimit="10" stroke-width="1.654"/>
          </g>
          <g id="Grupo_318" data-name="Grupo 318">
            <path id="Trazado_1035" data-name="Trazado 1035" d="M330.2,777.323c2.315,15.377,5.171,30.236,8.7,45.381-15.985,3.256-31.663,5.8-47.854,7.8-2.971-16.147-5.261-31.974-6.966-48.3C299.669,781.2,314.751,779.608,330.2,777.323Z" transform="translate(-284.082 -777.323)" fill="none" stroke="#e5661d" stroke-miterlimit="10" stroke-width="2.551"/>
            <path id="Trazado_1036" data-name="Trazado 1036" d="M318.143,787.977q1.684,11.736,4.208,23.355-11.939,2.22-24.045,3.583-2.3-12-3.762-24.106Q306.405,789.824,318.143,787.977Z" transform="translate(-281.694 -774.891)" fill="none" stroke="#e5661d" stroke-miterlimit="10" stroke-width="1.654"/>
            <path id="Trazado_1037" data-name="Trazado 1037" d="M306.571,800.034c-.016-.095-.023-.143-.039-.237l.238-.033c.016.1.023.144.039.238l-.238.032m-3.728,5.065c3.717-.468,5.563-.727,9.229-1.293-.682-3.648-1-5.469-1.573-9.1-3.641.521-5.473.758-9.163,1.182.55,3.677.851,5.521,1.507,9.214Z" transform="translate(-280.144 -773.356)" fill="none" stroke="#e5661d" stroke-miterlimit="10" stroke-width="1"/>
            <path id="Trazado_1038" data-name="Trazado 1038" d="M338.683,821.6a392.735,392.735,0,0,1-53.643-39.448" transform="translate(-283.863 -776.22)" fill="none" stroke="#e5661d" stroke-miterlimit="10" stroke-width="1.654"/>
          </g>
        </g>
        <g id="Grupo_324" data-name="Grupo 324">
          <g id="Grupo_320" data-name="Grupo 320" transform="translate(95.516 221.113)">
            <path id="Trazado_1039" data-name="Trazado 1039" d="M293,744.057c-.582,15.757-.527,31.1.152,46.851-16.459,0-32.426-.679-48.828-2.044.1-16.738.824-33.024,2.227-49.7C262.13,741.492,277.284,743.1,293,744.057Z" transform="translate(-244.328 -739.161)" fill="none" stroke="#e5661d" stroke-miterlimit="10" stroke-width="2.551"/>
            <path id="Trazado_1040" data-name="Trazado 1040" d="M278.774,752.523q-.531,12.022-.2,24.091-12.226-.232-24.457-1.394-.029-12.438.812-24.823Q266.827,751.924,278.774,752.523Z" transform="translate(-242.094 -736.596)" fill="none" stroke="#e5661d" stroke-miterlimit="10" stroke-width="1.654"/>
            <path id="Trazado_1041" data-name="Trazado 1041" d="M264.917,762.424c0-.1,0-.146,0-.244l.242.017c0,.1,0,.147,0,.244l-.242-.017m-4.635,4.268c3.763.307,5.638.431,9.369.625.007-3.768.038-5.646.147-9.385-3.695-.237-5.551-.383-9.277-.735-.147,3.783-.2,5.682-.239,9.494Z" transform="translate(-240.686 -735.044)" fill="none" stroke="#e5661d" stroke-miterlimit="10" stroke-width="1"/>
            <path id="Trazado_1042" data-name="Trazado 1042" d="M292.564,790.664a377.846,377.846,0,0,1-45.64-50.433" transform="translate(-243.735 -738.917)" fill="none" stroke="#e5661d" stroke-miterlimit="10" stroke-width="1.654"/>
          </g>
          <g id="Grupo_321" data-name="Grupo 321" transform="translate(49.911 158.3)">
            <path id="Trazado_1043" data-name="Trazado 1043" d="M263.785,703.582c-3.567,15.77-6.432,31.252-8.755,47.253-16.3-3.6-31.905-7.775-47.832-12.784a454.728,454.728,0,0,1,11.813-50.03C233.872,693.972,248.435,699.042,263.785,703.582Z" transform="translate(-207.198 -688.021)" fill="none" stroke="#e5661d" stroke-miterlimit="10" stroke-width="2.551"/>
            <path id="Trazado_1044" data-name="Trazado 1044" d="M247.263,709q-2.819,12.044-4.8,24.284-12.042-2.922-23.869-6.824,2.368-12.6,5.584-25Q235.58,705.717,247.263,709Z" transform="translate(-204.596 -684.952)" fill="none" stroke="#e5661d" stroke-miterlimit="10" stroke-width="1.654"/>
            <path id="Trazado_1045" data-name="Trazado 1045" d="M231.164,715.946c.021-.1.031-.147.052-.247l.235.073c-.021.1-.031.147-.052.247l-.235-.072m-5.391,3.283c3.653,1.151,5.478,1.694,9.121,2.718.728-3.8,1.118-5.7,1.943-9.458-3.6-1.066-5.4-1.63-9-2.825-.872,3.8-1.285,5.716-2.06,9.565Z" transform="translate(-202.958 -683.08)" fill="none" stroke="#e5661d" stroke-miterlimit="10" stroke-width="1"/>
            <path id="Trazado_1046" data-name="Trazado 1046" d="M252.706,750.543A467.653,467.653,0,0,1,217.379,689.3" transform="translate(-204.874 -687.73)" fill="none" stroke="#e5661d" stroke-miterlimit="10" stroke-width="1.654"/>
          </g>
          <g id="Grupo_322" data-name="Grupo 322" transform="translate(17.177 84.575)">
            <path id="Trazado_1047" data-name="Trazado 1047" d="M242.889,655.1a448.4,448.4,0,0,0-17.794,46.626,365.46,365.46,0,0,1-44.547-24.376A500.521,500.521,0,0,1,202.072,628,332.057,332.057,0,0,0,242.889,655.1Z" transform="translate(-180.548 -627.997)" fill="none" stroke="#e5661d" stroke-miterlimit="10" stroke-width="2.551"/>
            <path id="Trazado_1048" data-name="Trazado 1048" d="M224.7,657.015q-5.122,11.815-9.461,23.961-11.312-5.861-22.119-12.689c3.284-8.317,6.748-16.515,10.418-24.661Q213.833,650.784,224.7,657.015Z" transform="translate(-177.677 -624.429)" fill="none" stroke="#e5661d" stroke-miterlimit="10" stroke-width="1.654"/>
            <path id="Trazado_1049" data-name="Trazado 1049" d="M206.974,660.519c.041-.1.06-.146.1-.243l.217.13-.1.243-.217-.13m-5.939,2.119c3.362,2.063,5.047,3.058,8.425,4.981,1.463-3.761,2.216-5.628,3.763-9.331-3.322-1.963-4.979-2.979-8.282-5.084-1.605,3.744-2.388,5.63-3.906,9.434Z" transform="translate(-175.872 -622.243)" fill="none" stroke="#e5661d" stroke-miterlimit="10" stroke-width="1"/>
            <path id="Trazado_1050" data-name="Trazado 1050" d="M221.027,701.385a490.422,490.422,0,0,1-22.657-71.909" transform="translate(-176.48 -627.659)" fill="none" stroke="#e5661d" stroke-miterlimit="10" stroke-width="1.654"/>
          </g>
          <g id="Grupo_323" data-name="Grupo 323">
            <path id="Trazado_1051" data-name="Trazado 1051" d="M231.941,598.673a497.867,497.867,0,0,0-26.677,45.042,361.941,361.941,0,0,1-38.7-36.82c9.784-16.338,20.07-32.174,31.02-47.755A340.757,340.757,0,0,0,231.941,598.673Z" transform="translate(-166.563 -559.14)" fill="none" stroke="#e5661d" stroke-miterlimit="10" stroke-width="2.551"/>
            <path id="Trazado_1052" data-name="Trazado 1052" d="M212.881,596.638q-7.283,11.432-14.038,23.155c-6.581-6.14-12.9-12.441-19.079-18.99q7.333-12.1,15.154-23.853C200.7,583.714,206.588,590.339,212.881,596.638Z" transform="translate(-163.549 -555.075)" fill="none" stroke="#e5661d" stroke-miterlimit="10" stroke-width="1.654"/>
            <path id="Trazado_1053" data-name="Trazado 1053" d="M194.294,596.241c.058-.093.087-.14.145-.235l.185.193-.145.236c-.075-.077-.112-.115-.185-.194m-6.23.784c2.869,3.042,4.316,4.524,7.233,7.411,2.183-3.643,3.293-5.447,5.548-9.019-2.851-2.928-4.266-4.432-7.067-7.516-2.32,3.612-3.464,5.438-5.714,9.123Z" transform="translate(-161.655 -552.575)" fill="none" stroke="#e5661d" stroke-miterlimit="10" stroke-width="1"/>
            <path id="Trazado_1054" data-name="Trazado 1054" d="M199.5,643.33a567.214,567.214,0,0,1-7.694-82.507" transform="translate(-160.8 -558.756)" fill="none" stroke="#e5661d" stroke-miterlimit="10" stroke-width="1.654"/>
          </g>
        </g>
      </g>
    </g>
    <circle id="Elipse_5" data-name="Elipse 5" cx="399.036" cy="399.036" r="399.036" transform="translate(161.385 236.184)" fill="none" stroke="#e5661d" stroke-miterlimit="10" stroke-width="4"/>
    <circle id="Elipse_6" data-name="Elipse 6" cx="328.688" cy="328.688" r="328.688" transform="translate(231.732 306.531)" fill="none" stroke="#e5661d" stroke-miterlimit="10" stroke-width="3.295"/>
  </g>
</svg>
