<svg xmlns="http://www.w3.org/2000/svg" width="638.432" height="641.288" viewBox="0 0 638.432 641.288">
  <g id="Grupo_707" data-name="Grupo 707" transform="translate(-315.648 -383.256)">
    <g id="Grupo_700" data-name="Grupo 700" transform="translate(316.718 384.204)">
      <g id="Grupo_695" data-name="Grupo 695" transform="translate(0 120.655)">
        <path id="Trazado_2207" data-name="Trazado 2207" d="M332.314,644.615c1.769-69,19.01-130.093,59.475-186.5" transform="translate(-303.337 -441.968)" fill="none" stroke="#d1a943" stroke-linejoin="round" stroke-width="1.878"/>
        <path id="Trazado_2208" data-name="Trazado 2208" d="M326.991,559.007q.836-10.142,2.247-20.23l10.248,1.777c-1.7,12.945-2.752,25.834-3.241,38.872l-19.588-.842a598.635,598.635,0,0,1,6.743-60.81q14.267,3.376,28.511,6.754" transform="translate(-316.658 -391.209)" fill="none" stroke="#d1a943" stroke-linejoin="round" stroke-width="1.878"/>
        <path id="Trazado_2209" data-name="Trazado 2209" d="M336.353,517.6q2.8-8.751,6.132-17.331c3.854,1.647,5.78,2.471,9.632,4.12-4.135,11-7.67,22.072-10.709,33.393q-9.459-2.812-18.927-5.619a512.9,512.9,0,0,1,18.433-52.107q13.221,6.544,26.427,13.095" transform="translate(-311.703 -423.3)" fill="none" stroke="#d1a943" stroke-linejoin="round" stroke-width="1.878"/>
        <path id="Trazado_2210" data-name="Trazado 2210" d="M352.2,483.068c3.008-4.918,6.086-9.734,9.289-14.533,3.439,2.421,5.16,3.631,8.6,6.054-6.089,9.132-11.657,18.446-16.813,28.1q-8.684-4.806-17.374-9.606a303.292,303.292,0,0,1,27.937-43.693q11.624,9.14,23.243,18.283" transform="translate(-300.289 -449.392)" fill="none" stroke="#d1a943" stroke-linejoin="round" stroke-width="1.878"/>
      </g>
      <g id="Grupo_696" data-name="Grupo 696" transform="translate(73.044 14.465)">
        <path id="Trazado_2211" data-name="Trazado 2211" d="M364.448,501.756a293.56,293.56,0,0,1,143.727-94.927" transform="translate(-349.04 -379.418)" fill="none" stroke="#d1a943" stroke-linejoin="round" stroke-width="1.878"/>
        <path id="Trazado_2212" data-name="Trazado 2212" d="M373.954,453.535c3.9-3.974,7.846-7.84,11.9-11.666l7.187,7.676c-7.672,7.252-14.922,14.772-21.875,22.692q-7.518-6.508-15.04-13.013a308.567,308.567,0,0,1,35.766-35.081q9.531,11.3,19.066,22.592" transform="translate(-356.123 -364.687)" fill="none" stroke="#d1a943" stroke-linejoin="round" stroke-width="1.878"/>
        <path id="Trazado_2213" data-name="Trazado 2213" d="M400.566,429.424c4.54-3.043,9.2-5.967,13.915-8.73,2.19,3.583,3.287,5.375,5.48,8.958a282.256,282.256,0,0,0-25.834,17.154q-6.033-7.9-12.06-15.792a325.656,325.656,0,0,1,41.826-26.256q7.046,12.971,14.1,25.931" transform="translate(-334.048 -381.18)" fill="none" stroke="#d1a943" stroke-linejoin="round" stroke-width="1.878"/>
        <path id="Trazado_2214" data-name="Trazado 2214" d="M429.552,411.712c5.032-2.09,10.148-4.048,15.284-5.851,1.455,3.937,2.182,5.906,3.635,9.841a300.886,300.886,0,0,0-28.562,11.727q-4.373-8.906-8.74-17.816a344.518,344.518,0,0,1,45.94-17.594q4.4,14.087,8.806,28.15" transform="translate(-309.287 -392.019)" fill="none" stroke="#d1a943" stroke-linejoin="round" stroke-width="1.878"/>
      </g>
      <g id="Grupo_697" data-name="Grupo 697" transform="translate(231.455)">
        <path id="Trazado_2215" data-name="Trazado 2215" d="M441.711,412.086c57.8-14.439,113.323-14.925,171.269-1.318" transform="translate(-441.711 -369.998)" fill="none" stroke="#d1a943" stroke-linejoin="round" stroke-width="1.878"/>
        <path id="Trazado_2216" data-name="Trazado 2216" d="M460.719,399.586c5.332-1.118,10.715-2.1,16.1-2.922.663,4.146,1,6.217,1.66,10.361-10.154,1.584-20.267,3.631-30.232,6.211q-2.557-9.578-5.11-19.167a356.68,356.68,0,0,1,48.37-8.784q1.6,14.684,3.2,29.34" transform="translate(-440.5 -383.284)" fill="none" stroke="#d1a943" stroke-linejoin="round" stroke-width="1.878"/>
        <path id="Trazado_2217" data-name="Trazado 2217" d="M493.7,393.59c5.442-.107,10.909-.07,16.347.113-.168,4.2-.252,6.3-.418,10.505-10.272-.322-20.583-.183-30.846.494q-.608-9.906-1.214-19.825a358.655,358.655,0,0,1,49.12.354q-1.33,14.745-2.652,29.458" transform="translate(-411.201 -384.204)" fill="none" stroke="#d1a943" stroke-linejoin="round" stroke-width="1.878"/>
        <path id="Trazado_2218" data-name="Trazado 2218" d="M526.68,396.951c5.362.874,10.726,1.9,16.032,3.071-.966,4.1-1.451,6.156-2.419,10.259-10.034-2.18-20.187-3.9-30.386-5.077q1.3-9.861,2.6-19.738a349.749,349.749,0,0,1,48.17,9.254q-4.12,14.259-8.24,28.49" transform="translate(-383.685 -383.129)" fill="none" stroke="#d1a943" stroke-linejoin="round" stroke-width="1.878"/>
      </g>
      <g id="Grupo_698" data-name="Grupo 698" transform="translate(402.724 15.67)">
        <path id="Trazado_2219" data-name="Trazado 2219" d="M534.246,406.231c55.75,16.547,107.546,48.154,144.043,93.977" transform="translate(-534.246 -381.132)" fill="none" stroke="#d1a943" stroke-linejoin="round" stroke-width="1.878"/>
        <path id="Trazado_2220" data-name="Trazado 2220" d="M559.486,406.635c5.094,1.877,10.163,3.911,15.144,6.08-1.749,3.85-2.625,5.775-4.375,9.621A296.04,296.04,0,0,0,541.41,411.58q3.2-9.45,6.391-18.91a333.24,333.24,0,0,1,45.5,18.322q-6.824,13.215-13.65,26.41" transform="translate(-528.15 -392.67)" fill="none" stroke="#d1a943" stroke-linejoin="round" stroke-width="1.878"/>
        <path id="Trazado_2221" data-name="Trazado 2221" d="M590.128,422.563c4.633,2.893,9.2,5.947,13.654,9.123-2.482,3.431-3.724,5.145-6.208,8.575a278.563,278.563,0,0,0-26.164-16.495q5.009-8.654,10.015-17.317a315.4,315.4,0,0,1,41.021,27.474q-9.328,11.6-18.653,23.189" transform="translate(-502.625 -380.946)" fill="none" stroke="#d1a943" stroke-linejoin="round" stroke-width="1.878"/>
        <path id="Trazado_2222" data-name="Trazado 2222" d="M616.1,443.826c3.964,3.951,7.818,7.946,11.629,12.047-3.1,2.874-4.657,4.312-7.759,7.187-7.172-7.714-14.624-15.01-22.479-22.016l13.187-15.053a303.73,303.73,0,0,1,34.926,36.264q-11.416,9.512-22.823,19.023" transform="translate(-480.433 -364.319)" fill="none" stroke="#d1a943" stroke-linejoin="round" stroke-width="1.878"/>
      </g>
      <g id="Grupo_699" data-name="Grupo 699" transform="translate(546.768 125.646)">
        <path id="Trazado_2223" data-name="Trazado 2223" d="M612.071,457.006c40.815,56.7,58.311,118.351,60.532,187.762" transform="translate(-612.071 -447.905)" fill="none" stroke="#d1a943" stroke-linejoin="round" stroke-width="1.878"/>
        <path id="Trazado_2224" data-name="Trazado 2224" d="M637.537,471.319c3.1,4.953,6.067,9.921,8.966,14.992-3.616,2.162-5.423,3.243-9.038,5.406-5.434-9.508-11.261-18.647-17.6-27.585l15.921-12.044a306.517,306.517,0,0,1,26.915,45.12q-13.087,6.871-26.16,13.752" transform="translate(-605.436 -452.089)" fill="none" stroke="#d1a943" stroke-linejoin="round" stroke-width="1.878"/>
        <path id="Trazado_2225" data-name="Trazado 2225" d="M652.8,505.148q3.093,8.89,5.64,17.948c-3.974,1.292-5.962,1.938-9.934,3.232-3.3-11.268-7.092-22.266-11.473-33.175q9.012-4.148,18.027-8.286a534.257,534.257,0,0,1,16.908,54.006q-14.193,3.681-28.364,7.376" transform="translate(-590.833 -424.2)" fill="none" stroke="#d1a943" stroke-linejoin="round" stroke-width="1.878"/>
        <path id="Trazado_2226" data-name="Trazado 2226" d="M662.16,543.6q1.2,10.372,1.819,20.8l-10.341.774c-.885-12.947-2.327-25.733-4.413-38.557q9.631-1.993,19.271-3.981c2.871,21.039,4.607,41.344,5.406,62.563q-14.578.1-29.132.219" transform="translate(-584.248 -392.065)" fill="none" stroke="#d1a943" stroke-linejoin="round" stroke-width="1.878"/>
      </g>
    </g>
    <g id="Grupo_706" data-name="Grupo 706" transform="translate(316.587 702.556)">
      <g id="Grupo_701" data-name="Grupo 701" transform="translate(546.449 0)">
        <path id="Trazado_2227" data-name="Trazado 2227" d="M672.823,556.206c-2.53,69.167-20.161,130.572-61,186.972" transform="translate(-611.828 -556.206)" fill="none" stroke="#d1a943" stroke-linejoin="round" stroke-width="1.878"/>
        <path id="Trazado_2228" data-name="Trazado 2228" d="M666.247,584.829q-.949,10.219-2.475,20.374c-4.087-.768-6.128-1.151-10.213-1.916,1.84-13.028,3.037-26.016,3.678-39.162q9.778.536,19.571,1.075a613.946,613.946,0,0,1-7.444,61.25q-14.2-3.587-28.375-7.163" transform="translate(-587.017 -549.468)" fill="none" stroke="#d1a943" stroke-linejoin="round" stroke-width="1.878"/>
        <path id="Trazado_2229" data-name="Trazado 2229" d="M660.782,624.606q-2.876,8.773-6.278,17.367l-9.556-4.275c4.222-11.016,7.855-22.114,11-33.48l18.816,5.906a521.835,521.835,0,0,1-18.884,52.205q-13.1-6.766-26.2-13.522" transform="translate(-596.635 -515.355)" fill="none" stroke="#d1a943" stroke-linejoin="round" stroke-width="1.878"/>
        <path id="Trazado_2230" data-name="Trazado 2230" d="M647.523,657.057c-3.032,4.9-6.128,9.693-9.351,14.47-3.4-2.48-5.1-3.719-8.5-6.2,6.123-9.09,11.731-18.37,16.945-28.009l17.209,9.895a304.628,304.628,0,0,1-28.118,43.5q-11.486-9.337-22.975-18.668" transform="translate(-611.061 -487.19)" fill="none" stroke="#d1a943" stroke-linejoin="round" stroke-width="1.878"/>
      </g>
      <g id="Grupo_702" data-name="Grupo 702" transform="translate(403.609 186.972)">
        <path id="Trazado_2231" data-name="Trazado 2231" d="M677.493,657.225c-36.3,45.322-87.618,76.663-142.84,93.224" transform="translate(-534.653 -657.225)" fill="none" stroke="#d1a943" stroke-linejoin="round" stroke-width="1.878"/>
        <path id="Trazado_2232" data-name="Trazado 2232" d="M627.314,683.962c-3.9,3.929-7.831,7.751-11.87,11.529l-7.094-7.79c7.65-7.163,14.89-14.605,21.846-22.456q7.429,6.632,14.857,13.265a305.044,305.044,0,0,1-35.683,34.656q-9.4-11.446-18.81-22.886" transform="translate(-487.084 -650.402)" fill="none" stroke="#d1a943" stroke-linejoin="round" stroke-width="1.878"/>
        <path id="Trazado_2233" data-name="Trazado 2233" d="M601.275,704.926c-4.51,2.984-9.136,5.843-13.813,8.545-2.162-3.613-3.243-5.419-5.4-9.03a277.714,277.714,0,0,0,25.664-16.824q5.95,7.982,11.9,15.973A319.214,319.214,0,0,1,578.1,729.276q-6.946-13.057-13.906-26.1" transform="translate(-509.519 -631.366)" fill="none" stroke="#d1a943" stroke-linejoin="round" stroke-width="1.878"/>
        <path id="Trazado_2234" data-name="Trazado 2234" d="M571.973,719.171c-4.982,2.023-10.046,3.915-15.131,5.651-1.436-3.95-2.153-5.923-3.589-9.869a294.63,294.63,0,0,0,28.292-11.362q4.312,8.953,8.62,17.914a337.01,337.01,0,0,1-45.47,16.978q-4.345-14.106-8.7-28.192" transform="translate(-533.512 -617.775)" fill="none" stroke="#d1a943" stroke-linejoin="round" stroke-width="1.878"/>
      </g>
      <g id="Grupo_703" data-name="Grupo 703" transform="translate(229.345 279.878)">
        <path id="Trazado_2235" data-name="Trazado 2235" d="M612.942,707.538c-57.68,13.657-111.792,13.574-169.459-.117" transform="translate(-437.962 -707.421)" fill="none" stroke="#d1a943" stroke-linejoin="round" stroke-width="1.878"/>
        <path id="Trazado_2236" data-name="Trazado 2236" d="M539.693,728.314c-5.271,1.055-10.594,1.969-15.912,2.736-.661-4.139-.992-6.208-1.653-10.345,10.041-1.473,20.041-3.4,29.9-5.865q2.532,9.586,5.055,19.18a351.331,351.331,0,0,1-47.806,8.21q-1.6-14.645-3.209-29.266" transform="translate(-384.712 -702.704)" fill="none" stroke="#d1a943" stroke-linejoin="round" stroke-width="1.878"/>
        <path id="Trazado_2237" data-name="Trazado 2237" d="M505.952,734.407c-5.379.059-10.783-.028-16.16-.257.154-4.183.231-6.273.385-10.454,10.159.407,20.352.363,30.5-.215q.619,9.872,1.236,19.756a356.786,356.786,0,0,1-48.542-.8q1.266-14.656,2.53-29.29" transform="translate(-412.531 -702.548)" fill="none" stroke="#d1a943" stroke-linejoin="round" stroke-width="1.878"/>
        <path id="Trazado_2238" data-name="Trazado 2238" d="M474.1,734.061c-5.3-.907-10.611-1.962-15.864-3.156.938-4.074,1.407-6.112,2.347-10.183,9.935,2.227,19.982,4.007,30.071,5.251q-1.249,9.8-2.5,19.612a352.346,352.346,0,0,1-47.658-9.515q4-14.145,8.014-28.272" transform="translate(-440.5 -707.101)" fill="none" stroke="#d1a943" stroke-linejoin="round" stroke-width="1.878"/>
      </g>
      <g id="Grupo_704" data-name="Grupo 704" transform="translate(70.597 186.476)">
        <path id="Trazado_2239" data-name="Trazado 2239" d="M509.444,750.359a293.809,293.809,0,0,1-143.484-93.4" transform="translate(-345.175 -656.957)" fill="none" stroke="#d1a943" stroke-linejoin="round" stroke-width="1.878"/>
        <path id="Trazado_2240" data-name="Trazado 2240" d="M442.16,727.4c-5.051-1.884-10.08-3.924-15.023-6.093,1.71-3.817,2.563-5.725,4.274-9.539a300.669,300.669,0,0,0,28.61,10.8q-3.118,9.373-6.226,18.756a339.373,339.373,0,0,1-45.131-18.355q6.669-13.1,13.348-26.186" transform="translate(-308.841 -623.074)" fill="none" stroke="#d1a943" stroke-linejoin="round" stroke-width="1.878"/>
        <path id="Trazado_2241" data-name="Trazado 2241" d="M411.383,714.176c-4.61-2.874-9.165-5.906-13.6-9.056,2.436-3.4,3.652-5.1,6.087-8.5a284.614,284.614,0,0,0,26.049,16.391q-4.906,8.582-9.8,17.167a322.665,322.665,0,0,1-40.85-27.263q9.151-11.511,18.309-23.012" transform="translate(-333.854 -637.437)" fill="none" stroke="#d1a943" stroke-linejoin="round" stroke-width="1.878"/>
        <path id="Trazado_2242" data-name="Trazado 2242" d="M384.192,695.189c-3.968-3.907-7.829-7.853-11.651-11.906,3.056-2.86,4.583-4.288,7.638-7.146,7.192,7.625,14.649,14.844,22.5,21.779q-6.477,7.471-12.954,14.944a309.8,309.8,0,0,1-35-35.838q11.244-9.467,22.488-18.934" transform="translate(-354.73 -655.996)" fill="none" stroke="#d1a943" stroke-linejoin="round" stroke-width="1.878"/>
      </g>
      <g id="Grupo_705" data-name="Grupo 705" transform="translate(0 0.827)">
        <path id="Trazado_2243" data-name="Trazado 2243" d="M394.6,742.3c-41.011-55.9-59.3-116.754-62.309-185.648" transform="translate(-303.222 -556.653)" fill="none" stroke="#d1a943" stroke-linejoin="round" stroke-width="1.878"/>
        <path id="Trazado_2244" data-name="Trazado 2244" d="M360.306,669.662c-3.133-4.89-6.139-9.793-9.075-14.8,3.574-2.162,5.36-3.243,8.932-5.406,5.506,9.386,11.392,18.412,17.778,27.241q-7.851,6-15.7,12a309.711,309.711,0,0,1-27.248-44.522q12.946-6.894,25.886-13.787" transform="translate(-300.929 -493.912)" fill="none" stroke="#d1a943" stroke-linejoin="round" stroke-width="1.878"/>
        <path id="Trazado_2245" data-name="Trazado 2245" d="M341.209,637.439q-3.182-8.776-5.83-17.722c3.948-1.314,5.921-1.969,9.867-3.282,3.424,11.131,7.324,21.992,11.8,32.766l-17.857,8.334A532.291,532.291,0,0,1,321.7,604.222q14.112-3.778,28.205-7.557" transform="translate(-312.236 -522.609)" fill="none" stroke="#d1a943" stroke-linejoin="round" stroke-width="1.878"/>
        <path id="Trazado_2246" data-name="Trazado 2246" d="M328.825,600.136q-1.327-10.258-2.069-20.576l10.324-.875c1.035,12.819,2.624,25.468,4.855,38.15l-19.182,4.125a621.573,621.573,0,0,1-6.165-61.889q14.573-.272,29.123-.537" transform="translate(-316.587 -555.052)" fill="none" stroke="#d1a943" stroke-linejoin="round" stroke-width="1.878"/>
      </g>
    </g>
  </g>
</svg>
