<svg xmlns="http://www.w3.org/2000/svg" width="265.288" height="127.421" viewBox="0 0 265.288 127.421">
  <g id="Grupo_1729" data-name="Grupo 1729" transform="translate(-944.131 -662.294)">
    <g id="Grupo_1727" data-name="Grupo 1727" transform="translate(994.767 664.569)">
      <path id="Trazado_3743" data-name="Trazado 3743" d="M1015.816,720.68H992.428l-16.362-56.111h56.112Z" transform="translate(-976.066 -664.569)" fill="none" stroke="#dc6" stroke-miterlimit="10" stroke-width="4.549"/>
      <path id="Trazado_3744" data-name="Trazado 3744" d="M1015.816,705.335H992.428l-16.362,56.112h56.111Z" transform="translate(-976.066 -638.575)" fill="none" stroke="#dc6" stroke-miterlimit="10" stroke-width="4.549"/>
      <line id="Línea_147" data-name="Línea 147" y2="10.714" transform="translate(16.362 56.111)" fill="none" stroke="#dc6" stroke-miterlimit="10" stroke-width="4.549"/>
      <line id="Línea_148" data-name="Línea 148" y2="10.714" transform="translate(39.505 56.111)" fill="none" stroke="#dc6" stroke-miterlimit="10" stroke-width="4.549"/>
      <line id="Línea_149" data-name="Línea 149" y2="56.111" transform="translate(28.056)" fill="none" stroke="#dc6" stroke-miterlimit="10" stroke-width="2.212"/>
      <line id="Línea_150" data-name="Línea 150" y2="56.047" transform="translate(28.056 66.825)" fill="none" stroke="#dc6" stroke-miterlimit="10" stroke-width="2.212"/>
    </g>
    <g id="Grupo_1728" data-name="Grupo 1728" transform="translate(1101.504 664.569)">
      <path id="Trazado_3745" data-name="Trazado 3745" d="M1080.993,720.68h-23.388l-16.362-56.111h56.111Z" transform="translate(-1041.244 -664.569)" fill="none" stroke="#dc6" stroke-miterlimit="10" stroke-width="4.549"/>
      <path id="Trazado_3746" data-name="Trazado 3746" d="M1080.994,705.335h-23.388l-16.362,56.112h56.111Z" transform="translate(-1041.244 -638.575)" fill="none" stroke="#dc6" stroke-miterlimit="10" stroke-width="4.549"/>
      <line id="Línea_151" data-name="Línea 151" y2="10.714" transform="translate(16.362 56.111)" fill="none" stroke="#dc6" stroke-miterlimit="10" stroke-width="4.549"/>
      <line id="Línea_152" data-name="Línea 152" y2="10.714" transform="translate(39.505 56.111)" fill="none" stroke="#dc6" stroke-miterlimit="10" stroke-width="4.549"/>
      <line id="Línea_153" data-name="Línea 153" y2="56.111" transform="translate(28.056)" fill="none" stroke="#dc6" stroke-miterlimit="10" stroke-width="2.212"/>
      <line id="Línea_154" data-name="Línea 154" y2="56.047" transform="translate(28.056 66.825)" fill="none" stroke="#dc6" stroke-miterlimit="10" stroke-width="2.212"/>
    </g>
    <path id="Trazado_3747" data-name="Trazado 3747" d="M1034.156,758.1l-23.163-41.343,23.163-41.343,23.164,41.343Z" transform="translate(40.97 6.914)" fill="none" stroke="#dc6" stroke-miterlimit="10" stroke-width="4.549"/>
    <path id="Trazado_3748" data-name="Trazado 3748" d="M969.9,758.1l-23.163-41.343L969.9,675.412l23.164,41.343Z" transform="translate(0 6.914)" fill="none" stroke="#dc6" stroke-miterlimit="10" stroke-width="4.549"/>
    <path id="Trazado_3749" data-name="Trazado 3749" d="M1100.423,758.1l-23.164-41.343,23.164-41.343,23.164,41.343Z" transform="translate(83.225 6.914)" fill="none" stroke="#dc6" stroke-miterlimit="10" stroke-width="4.549"/>
  </g>
</svg>
