<svg xmlns="http://www.w3.org/2000/svg" width="317.742" height="101.911" viewBox="0 0 317.742 101.911">
  <g id="Grupo_1788" data-name="Grupo 1788" transform="translate(-944.928 -299.27)">
    <g id="Grupo_780" data-name="Grupo 780" transform="translate(947.937 302.956)">
      <g id="Grupo_779" data-name="Grupo 779">
        <path id="Trazado_2503" data-name="Trazado 2503" d="M986.516,397.494l-38.58-47.269,38.58-47.269,38.58,47.269Z" transform="translate(-947.937 -302.956)" fill="none" stroke="#063916" stroke-miterlimit="10" stroke-width="4.662"/>
        <path id="Trazado_2504" data-name="Trazado 2504" d="M978.052,363.8l-19.544-23.946,19.544-23.946L997.6,339.854Z" transform="translate(-939.472 -292.585)" fill="none" stroke="#063916" stroke-miterlimit="10" stroke-width="2.05"/>
        <g id="Trazado_2505" data-name="Trazado 2505" transform="translate(-934.136 -286.047)" fill="none" stroke-miterlimit="10">
          <path d="M972.716,342.557l-7.543-9.242,7.543-9.242,7.543,9.242Z" stroke="none"/>
          <path d="M 972.7156372070312 337.5581970214844 L 976.1782836914062 333.3156433105469 L 972.7156372070312 329.0730895996094 L 969.2529296875 333.3156433105469 L 972.7156372070312 337.5581970214844 M 972.7156982421875 342.5574951171875 L 965.172607421875 333.3156433105469 L 972.7156982421875 324.0737915039062 L 980.258544921875 333.3156433105469 L 972.7156982421875 342.5574951171875 Z" stroke="none" fill="#063916"/>
        </g>
        <line id="Línea_47" data-name="Línea 47" x2="75.385" transform="translate(0 47.269)" fill="none" stroke="#063916" stroke-miterlimit="10" stroke-width="2.05"/>
      </g>
    </g>
    <g id="Grupo_782" data-name="Grupo 782" transform="translate(1026.64 302.956)">
      <g id="Grupo_781" data-name="Grupo 781">
        <path id="Trazado_2506" data-name="Trazado 2506" d="M1030.223,397.494l-38.58-47.269,38.58-47.269,38.58,47.269Z" transform="translate(-991.643 -302.956)" fill="none" stroke="#063916" stroke-miterlimit="10" stroke-width="4.662"/>
        <path id="Trazado_2507" data-name="Trazado 2507" d="M1021.759,363.8l-19.544-23.946,19.544-23.946,19.544,23.946Z" transform="translate(-983.179 -292.585)" fill="none" stroke="#063916" stroke-miterlimit="10" stroke-width="2.05"/>
        <g id="Trazado_2508" data-name="Trazado 2508" transform="translate(-977.843 -286.047)" fill="none" stroke-miterlimit="10">
          <path d="M1016.422,342.557l-7.543-9.242,7.543-9.242,7.543,9.242Z" stroke="none"/>
          <path d="M 1016.422241210938 337.5581970214844 L 1019.884948730469 333.3156433105469 L 1016.422241210938 329.0730895996094 L 1012.959594726562 333.3156433105469 L 1016.422241210938 337.5581970214844 M 1016.422180175781 342.5574951171875 L 1008.879333496094 333.3156433105469 L 1016.422180175781 324.0737915039062 L 1023.965270996094 333.3156433105469 L 1016.422180175781 342.5574951171875 Z" stroke="none" fill="#063916"/>
        </g>
        <line id="Línea_48" data-name="Línea 48" x2="75.385" transform="translate(0 47.269)" fill="none" stroke="#063916" stroke-miterlimit="10" stroke-width="2.05"/>
      </g>
    </g>
    <g id="Grupo_784" data-name="Grupo 784" transform="translate(1103.799 302.956)">
      <g id="Grupo_783" data-name="Grupo 783">
        <path id="Trazado_2509" data-name="Trazado 2509" d="M1073.072,397.494l-38.58-47.269,38.58-47.269,38.58,47.269Z" transform="translate(-1034.493 -302.956)" fill="none" stroke="#063916" stroke-miterlimit="10" stroke-width="4.662"/>
        <path id="Trazado_2510" data-name="Trazado 2510" d="M1064.608,363.8l-19.544-23.946,19.544-23.946,19.544,23.946Z" transform="translate(-1026.028 -292.585)" fill="none" stroke="#063916" stroke-miterlimit="10" stroke-width="2.05"/>
        <g id="Trazado_2511" data-name="Trazado 2511" transform="translate(-1020.692 -286.047)" fill="none" stroke-miterlimit="10">
          <path d="M1059.271,342.557l-7.543-9.242,7.543-9.242,7.543,9.242Z" stroke="none"/>
          <path d="M 1059.271484375 337.5581970214844 L 1062.734130859375 333.3156433105469 L 1059.271484375 329.0730895996094 L 1055.808837890625 333.3156433105469 L 1059.271484375 337.5581970214844 M 1059.271484375 342.5574951171875 L 1051.728515625 333.3156433105469 L 1059.271484375 324.0737915039062 L 1066.814453125 333.3156433105469 L 1059.271484375 342.5574951171875 Z" stroke="none" fill="#063916"/>
        </g>
        <line id="Línea_49" data-name="Línea 49" x2="75.385" transform="translate(0 47.269)" fill="none" stroke="#063916" stroke-miterlimit="10" stroke-width="2.05"/>
      </g>
    </g>
    <g id="Grupo_786" data-name="Grupo 786" transform="translate(1182.503 302.956)">
      <g id="Grupo_785" data-name="Grupo 785">
        <path id="Trazado_2512" data-name="Trazado 2512" d="M1116.779,397.494l-38.58-47.269,38.58-47.269,38.579,47.269Z" transform="translate(-1078.2 -302.956)" fill="none" stroke="#063916" stroke-miterlimit="10" stroke-width="4.662"/>
        <path id="Trazado_2513" data-name="Trazado 2513" d="M1108.315,363.8l-19.544-23.946,19.544-23.946,19.544,23.946Z" transform="translate(-1069.735 -292.585)" fill="none" stroke="#063916" stroke-miterlimit="10" stroke-width="2.05"/>
        <g id="Trazado_2514" data-name="Trazado 2514" transform="translate(-1064.399 -286.047)" fill="none" stroke-miterlimit="10">
          <path d="M1102.978,342.557l-7.543-9.242,7.543-9.242,7.543,9.242Z" stroke="none"/>
          <path d="M 1102.978393554688 337.5581970214844 L 1106.44091796875 333.3156433105469 L 1102.978393554688 329.0730895996094 L 1099.515747070312 333.3156433105469 L 1102.978393554688 337.5581970214844 M 1102.978393554688 342.5574951171875 L 1095.435424804688 333.3156433105469 L 1102.978393554688 324.0737915039062 L 1110.521240234375 333.3156433105469 L 1102.978393554688 342.5574951171875 Z" stroke="none" fill="#063916"/>
        </g>
        <line id="Línea_50" data-name="Línea 50" x2="75.385" transform="translate(0 47.269)" fill="none" stroke="#063916" stroke-miterlimit="10" stroke-width="2.05"/>
      </g>
    </g>
  </g>
</svg>
