<svg xmlns="http://www.w3.org/2000/svg" width="601.208" height="601.208" viewBox="0 0 601.208 601.208">
  <g id="Grupo_1800" data-name="Grupo 1800" transform="translate(-164.247 -234.675)">
    <g id="Grupo_348" data-name="Grupo 348" transform="translate(179.939 249.675)">
      <g id="Grupo_339" data-name="Grupo 339" transform="translate(0.566)">
        <g id="Grupo_332" data-name="Grupo 332" transform="translate(0 152.966)">
          <path id="Trazado_1429" data-name="Trazado 1429" d="M185.725,490.578c-1.845,11.066-3.184,22.146-4.077,33.331q5.183,9.29,10.766,18.317c4.508-6.285,9.185-12.411,14.252-18.248.875-9.979,2.133-19.842,3.827-29.713a367.764,367.764,0,0,1-15.861-37.742,324.366,324.366,0,0,1,12.413-33.808c5.132-2.548,10.3-4.933,15.565-7.178,1.468,7.3,3.147,14.514,5.056,21.709-3.374,8.163-6.368,16.4-9.044,24.824" transform="translate(-181.648 -415.536)" fill="none" stroke="#4f722d" stroke-linecap="round" stroke-linejoin="round" stroke-width="3"/>
          <path id="Trazado_1430" data-name="Trazado 1430" d="M195.449,524.412c.847-8.453,1.954-16.836,3.348-25.215" transform="translate(-182.64 -421.551)" fill="none" stroke="#4f722d" stroke-linecap="round" stroke-linejoin="round" stroke-width="3"/>
          <path id="Trazado_1431" data-name="Trazado 1431" d="M209.475,458.84c2.726-8.533,5.765-16.887,9.176-25.166" transform="translate(-183.649 -416.84)" fill="none" stroke="#4f722d" stroke-linecap="round" stroke-linejoin="round" stroke-width="3"/>
        </g>
        <g id="Grupo_333" data-name="Grupo 333" transform="translate(41.142 61.416)">
          <path id="Trazado_1432" data-name="Trazado 1432" d="M245,432.82" transform="translate(-227.344 -325.228)" fill="none" stroke="#4f722d" stroke-linejoin="round" stroke-width="3"/>
          <path id="Trazado_1433" data-name="Trazado 1433" d="M241.94,360.638c-5.686,7.446-10.976,15.08-15.963,23.023.747,6.258,1.737,12.49,2.9,18.684,6.389-2.343,12.808-4.433,19.349-6.29,4.522-7.056,9.3-13.851,14.414-20.483a300.225,300.225,0,0,1,.08-37.177,302.014,302.014,0,0,1,24.08-21.5c5.6.293,11.166.717,16.746,1.282-1.521,6.754-2.817,13.511-3.892,20.353-6.135,4.977-11.95,10.291-17.615,15.8" transform="translate(-225.977 -316.894)" fill="none" stroke="#4f722d" stroke-linecap="round" stroke-linejoin="round" stroke-width="3"/>
          <path id="Trazado_1434" data-name="Trazado 1434" d="M240.446,389.9c3.924-5.94,8.016-11.705,12.328-17.361" transform="translate(-227.017 -320.895)" fill="none" stroke="#4f722d" stroke-linecap="round" stroke-linejoin="round" stroke-width="3"/>
          <path id="Trazado_1435" data-name="Trazado 1435" d="M277.507,346.334c5.758-5.589,11.69-10.907,17.863-16.021" transform="translate(-229.682 -317.859)" fill="none" stroke="#4f722d" stroke-linecap="round" stroke-linejoin="round" stroke-width="3"/>
        </g>
        <g id="Grupo_334" data-name="Grupo 334" transform="translate(101.319 9.369)">
          <path id="Trazado_1436" data-name="Trazado 1436" d="M290.815,303.285" transform="translate(-290.815 -263.869)" fill="none" stroke="#4f722d" stroke-linejoin="round" stroke-width="3"/>
          <path id="Trazado_1437" data-name="Trazado 1437" d="M343.319,280.591c-8.01,3.939-15.815,8.158-23.5,12.713-1.723,5.683-3.3,11.378-4.729,17.142,6.668.956,13.268,2.111,19.864,3.485,6.908-4.029,13.919-7.764,21.109-11.252a290.693,290.693,0,0,1,14.951-32.672c10.063-3.539,20.215-6.589,30.552-9.191q7.462,3.824,14.734,7.965c-4.117,5.475-8.041,11.044-11.8,16.776-7.545,1.941-15.028,4.187-22.379,6.784" transform="translate(-292.56 -260.816)" fill="none" stroke="#4f722d" stroke-linecap="round" stroke-linejoin="round" stroke-width="3"/>
          <path id="Trazado_1438" data-name="Trazado 1438" d="M332.257,303.675c5.915-3.354,11.9-6.513,18-9.508" transform="translate(-293.794 -263.214)" fill="none" stroke="#4f722d" stroke-linecap="round" stroke-linejoin="round" stroke-width="3"/>
          <path id="Trazado_1439" data-name="Trazado 1439" d="M383.155,281.918c7.5-2.552,15.041-4.835,22.692-6.874" transform="translate(-297.453 -261.839)" fill="none" stroke="#4f722d" stroke-linecap="round" stroke-linejoin="round" stroke-width="3"/>
        </g>
        <g id="Grupo_335" data-name="Grupo 335" transform="translate(230.507)">
          <path id="Trazado_1440" data-name="Trazado 1440" d="M544.059,293.194" transform="translate(-438.209 -253.774)" fill="none" stroke="#4f722d" stroke-linejoin="round" stroke-width="3"/>
          <path id="Trazado_1441" data-name="Trazado 1441" d="M467.953,250.721c-8.936.516-17.8,1.336-26.681,2.471-3.87,4.487-7.614,9.044-11.262,13.718,5.689,3.514,11.311,7.128,16.746,11.036,7.956-.967,15.9-1.659,23.9-2.083a307.658,307.658,0,0,1,27.023-24.291c10.673.549,21.256,1.556,31.843,3.037,3.535,4.206,7,8.452,10.31,12.848-6.022,3.5-11.906,7.156-17.7,11.021-7.744-1.042-15.54-1.787-23.344-2.175" transform="translate(-430.01 -250.721)" fill="none" stroke="#4f722d" stroke-linecap="round" stroke-linejoin="round" stroke-width="3"/>
          <path id="Trazado_1442" data-name="Trazado 1442" d="M449.7,265.825c6.775-.749,13.542-1.316,20.346-1.706" transform="translate(-431.426 -251.684)" fill="none" stroke="#4f722d" stroke-linecap="round" stroke-linejoin="round" stroke-width="3"/>
          <path id="Trazado_1443" data-name="Trazado 1443" d="M505.319,265.374c7.923.484,15.793,1.218,23.671,2.212" transform="translate(-435.424 -251.774)" fill="none" stroke="#4f722d" stroke-linecap="round" stroke-linejoin="round" stroke-width="3"/>
        </g>
        <g id="Grupo_336" data-name="Grupo 336" transform="translate(347.296 9.707)">
          <path id="Trazado_1444" data-name="Trazado 1444" d="M597.384,269.085c-8.43-2.951-16.912-5.575-25.529-7.9-5.409,2.652-10.732,5.417-16.01,8.326,3.806,5.356,7.45,10.841,10.825,16.488,7.7,2.134,15.281,4.526,22.815,7.207a302.524,302.524,0,0,1,34.835-11.834c9.573,4.691,18.85,9.808,27.924,15.425,1.5,5.31,2.872,10.631,4.121,16.007-6.961.759-13.853,1.738-20.752,2.957-6.652-4.064-13.493-7.841-20.493-11.255" transform="translate(-555.846 -261.18)" fill="none" stroke="#4f722d" stroke-linecap="round" stroke-linejoin="round" stroke-width="3"/>
          <path id="Trazado_1445" data-name="Trazado 1445" d="M574.848,275.6c6.529,1.889,12.977,3.949,19.392,6.2" transform="translate(-557.212 -262.217)" fill="none" stroke="#4f722d" stroke-linecap="round" stroke-linejoin="round" stroke-width="3"/>
          <path id="Trazado_1446" data-name="Trazado 1446" d="M626.148,296.477c7.073,3.559,13.975,7.35,20.777,11.417" transform="translate(-560.9 -263.718)" fill="none" stroke="#4f722d" stroke-linecap="round" stroke-linejoin="round" stroke-width="3"/>
        </g>
        <g id="Grupo_337" data-name="Grupo 337" transform="translate(430.166 63.881)">
          <path id="Trazado_1447" data-name="Trazado 1447" d="M645.135,334.115" transform="translate(-645.135 -320.597)" fill="none" stroke="#4f722d" stroke-linejoin="round" stroke-width="3"/>
          <path id="Trazado_1448" data-name="Trazado 1448" d="M707.846,337.764c-6.435-6.373-13.077-12.416-20.019-18.214-6.037.194-12.036.543-18.055,1.053,1.242,6.539,2.357,13.1,3.112,19.714,6.181,5.241,12.1,10.695,17.828,16.438a261.86,261.86,0,0,1,36.521,4.5,298.377,298.377,0,0,1,18.82,27.734c-.866,5.817-1.856,11.592-2.98,17.364-6.563-2.7-13.165-5.115-19.916-7.284-4.341-6.976-8.931-13.7-13.844-20.275" transform="translate(-646.906 -319.55)" fill="none" stroke="#4f722d" stroke-linecap="round" stroke-linejoin="round" stroke-width="3"/>
          <path id="Trazado_1449" data-name="Trazado 1449" d="M684.892,333.619c5.2,4.527,10.222,9.194,15.121,14.052" transform="translate(-647.993 -320.561)" fill="none" stroke="#4f722d" stroke-linecap="round" stroke-linejoin="round" stroke-width="3"/>
          <path id="Trazado_1450" data-name="Trazado 1450" d="M722.92,375.628c4.97,6.671,9.625,13.5,14.032,20.561" transform="translate(-650.727 -323.582)" fill="none" stroke="#4f722d" stroke-linecap="round" stroke-linejoin="round" stroke-width="3"/>
        </g>
        <g id="Grupo_338" data-name="Grupo 338" transform="translate(524.004 134.623)">
          <path id="Trazado_1451" data-name="Trazado 1451" d="M765.614,395.772" transform="translate(-747.635 -395.772)" fill="none" stroke="#4f722d" stroke-linejoin="round" stroke-width="3"/>
          <path id="Trazado_1452" data-name="Trazado 1452" d="M778.534,456.274c-2.971-9.689-6.331-19.149-10.161-28.524-5.417-2.961-10.984-5.648-16.63-8.129-1.636,6.984-3.464,13.884-5.5,20.758,3.36,8.443,6.32,16.959,8.946,25.667a241.9,241.9,0,0,1,30.487,24.768,387.525,387.525,0,0,1,4.525,40.042c-3.284,5.735-6.694,11.4-10.28,16.947-4.488-6.789-9.157-13.44-14.293-19.748-.746-9.831-1.858-19.557-3.388-29.295" transform="translate(-746.242 -397.487)" fill="none" stroke="#4f722d" stroke-linecap="round" stroke-linejoin="round" stroke-width="3"/>
          <path id="Trazado_1453" data-name="Trazado 1453" d="M760.275,439.924c2.84,7.176,5.337,14.5,7.537,21.905" transform="translate(-747.251 -398.946)" fill="none" stroke="#4f722d" stroke-linecap="round" stroke-linejoin="round" stroke-width="3"/>
          <path id="Trazado_1454" data-name="Trazado 1454" d="M776.16,502.869c1.536,9.875,2.663,19.74,3.429,29.708" transform="translate(-748.393 -403.471)" fill="none" stroke="#4f722d" stroke-linecap="round" stroke-linejoin="round" stroke-width="3"/>
        </g>
      </g>
      <g id="Grupo_347" data-name="Grupo 347" transform="translate(0 285.865)">
        <g id="Grupo_340" data-name="Grupo 340">
          <path id="Trazado_1455" data-name="Trazado 1455" d="M184.422,610.223c-1.614-11.1-2.723-22.209-3.384-33.411q5.375-9.177,11.145-18.083c4.376,6.38,8.925,12.6,13.869,18.547.669,10,1.721,19.883,3.209,29.789a367.869,367.869,0,0,0-16.641,37.4,324.508,324.508,0,0,0,11.709,34.065c5.078,2.657,10.192,5.151,15.412,7.508,1.62-7.267,3.448-14.443,5.507-21.6-3.2-8.233-6.025-16.534-8.527-25.012" transform="translate(-181.038 -558.729)" fill="none" stroke="#4f722d" stroke-linecap="round" stroke-linejoin="round" stroke-width="3"/>
          <path id="Trazado_1456" data-name="Trazado 1456" d="M194.713,584.445c.672,8.47,1.6,16.874,2.823,25.281" transform="translate(-182.021 -560.578)" fill="none" stroke="#4f722d" stroke-linecap="round" stroke-linejoin="round" stroke-width="3"/>
          <path id="Trazado_1457" data-name="Trazado 1457" d="M207.375,650.3c2.548,8.59,5.413,17.007,8.652,25.356" transform="translate(-182.931 -565.313)" fill="none" stroke="#4f722d" stroke-linecap="round" stroke-linejoin="round" stroke-width="3"/>
        </g>
        <g id="Grupo_341" data-name="Grupo 341" transform="translate(38.37 111.647)">
          <path id="Trazado_1458" data-name="Trazado 1458" d="M242.31,679.024" transform="translate(-223.813 -679.024)" fill="none" stroke="#4f722d" stroke-linejoin="round" stroke-width="3"/>
          <path id="Trazado_1459" data-name="Trazado 1459" d="M237.861,744.511c-5.529-7.565-10.66-15.31-15.481-23.357.876-6.241,2-12.45,3.282-18.619,6.339,2.479,12.713,4.7,19.216,6.7,4.374,7.151,9.011,14.047,13.986,20.786a300.178,300.178,0,0,0-.692,37.171A302.2,302.2,0,0,0,281.8,789.2c5.6-.174,11.179-.48,16.769-.924-1.381-6.785-2.536-13.569-3.469-20.432-6.03-5.107-11.734-10.542-17.282-16.176" transform="translate(-222.38 -680.714)" fill="none" stroke="#4f722d" stroke-linecap="round" stroke-linejoin="round" stroke-width="3"/>
          <path id="Trazado_1460" data-name="Trazado 1460" d="M236.895,720.492c3.8,6.023,7.771,11.873,11.965,17.62" transform="translate(-223.423 -682.005)" fill="none" stroke="#4f722d" stroke-linecap="round" stroke-linejoin="round" stroke-width="3"/>
          <path id="Trazado_1461" data-name="Trazado 1461" d="M273.041,764.942c5.641,5.711,11.46,11.153,17.527,16.4" transform="translate(-226.022 -685.201)" fill="none" stroke="#4f722d" stroke-linecap="round" stroke-linejoin="round" stroke-width="3"/>
        </g>
        <g id="Grupo_342" data-name="Grupo 342" transform="translate(96.884 219.952)">
          <path id="Trazado_1462" data-name="Trazado 1462" d="M285.427,809.506" transform="translate(-285.427 -796.71)" fill="none" stroke="#4f722d" stroke-linejoin="round" stroke-width="3"/>
          <path id="Trazado_1463" data-name="Trazado 1463" d="M337.529,829.231c-7.928-4.109-15.642-8.493-23.23-13.211-1.6-5.718-3.059-11.445-4.372-17.239,6.687-.814,13.31-1.829,19.933-3.063,6.823,4.177,13.754,8.06,20.869,11.7A290.964,290.964,0,0,0,365,840.4c9.986,3.752,20.074,7.017,30.356,9.84q7.54-3.664,14.9-7.651c-4-5.56-7.81-11.212-11.451-17.023-7.5-2.1-14.938-4.505-22.234-7.26" transform="translate(-287.188 -795.719)" fill="none" stroke="#4f722d" stroke-linecap="round" stroke-linejoin="round" stroke-width="3"/>
          <path id="Trazado_1464" data-name="Trazado 1464" d="M326.883,809.261c5.844,3.478,11.759,6.765,17.795,9.889" transform="translate(-288.407 -796.693)" fill="none" stroke="#4f722d" stroke-linecap="round" stroke-linejoin="round" stroke-width="3"/>
          <path id="Trazado_1465" data-name="Trazado 1465" d="M377.314,832.3c7.444,2.712,14.938,5.155,22.545,7.357" transform="translate(-292.033 -798.349)" fill="none" stroke="#4f722d" stroke-linecap="round" stroke-linejoin="round" stroke-width="3"/>
        </g>
        <g id="Grupo_343" data-name="Grupo 343" transform="translate(225.367 247.113)">
          <path id="Trazado_1466" data-name="Trazado 1466" d="M538.406,824.984" transform="translate(-432.097 -824.984)" fill="none" stroke="#4f722d" stroke-linejoin="round" stroke-width="3"/>
          <path id="Trazado_1467" data-name="Trazado 1467" d="M461.461,863.747c-8.923-.706-17.77-1.715-26.625-3.038-3.776-4.568-7.424-9.2-10.974-13.955,5.761-3.392,11.457-6.886,16.971-10.677,7.934,1.136,15.862,2,23.854,2.591A308.214,308.214,0,0,0,491.2,863.529c10.683-.322,21.284-1.1,31.9-2.358,3.622-4.13,7.179-8.3,10.575-12.626-5.947-3.624-11.755-7.408-17.471-11.4-7.765.878-15.575,1.456-23.385,1.679" transform="translate(-423.862 -825.781)" fill="none" stroke="#4f722d" stroke-linecap="round" stroke-linejoin="round" stroke-width="3"/>
          <path id="Trazado_1468" data-name="Trazado 1468" d="M443.506,850.207c6.758.893,13.511,1.6,20.306,2.138" transform="translate(-425.274 -826.797)" fill="none" stroke="#4f722d" stroke-linecap="round" stroke-linejoin="round" stroke-width="3"/>
          <path id="Trazado_1469" data-name="Trazado 1469" d="M499.1,851.841c7.932-.314,15.814-.881,23.71-1.707" transform="translate(-429.271 -826.792)" fill="none" stroke="#4f722d" stroke-linecap="round" stroke-linejoin="round" stroke-width="3"/>
        </g>
        <g id="Grupo_344" data-name="Grupo 344" transform="translate(342.169 224.186)">
          <path id="Trazado_1470" data-name="Trazado 1470" d="M591.232,846.129c-8.489,2.771-17.023,5.213-25.686,7.36-5.353-2.767-10.617-5.646-15.833-8.666,3.917-5.274,7.674-10.68,11.164-16.254,7.743-1.97,15.372-4.2,22.959-6.72a302.657,302.657,0,0,0,34.581,12.573c9.669-4.486,19.049-9.4,28.238-14.828,1.611-5.277,3.091-10.567,4.452-15.916-6.943-.907-13.814-2.033-20.685-3.4-6.735,3.922-13.653,7.552-20.723,10.816" transform="translate(-549.712 -800.281)" fill="none" stroke="#4f722d" stroke-linecap="round" stroke-linejoin="round" stroke-width="3"/>
          <path id="Trazado_1471" data-name="Trazado 1471" d="M568.823,842.783c6.566-1.749,13.055-3.672,19.516-5.784" transform="translate(-551.086 -802.921)" fill="none" stroke="#4f722d" stroke-linecap="round" stroke-linejoin="round" stroke-width="3"/>
          <path id="Trazado_1472" data-name="Trazado 1472" d="M620.545,822.6c7.145-3.408,14.125-7.051,21.01-10.972" transform="translate(-554.804 -801.097)" fill="none" stroke="#4f722d" stroke-linecap="round" stroke-linejoin="round" stroke-width="3"/>
        </g>
        <g id="Grupo_345" data-name="Grupo 345" transform="translate(426.253 139.922)">
          <path id="Trazado_1473" data-name="Trazado 1473" d="M640.309,786.223" transform="translate(-640.309 -715.006)" fill="none" stroke="#4f722d" stroke-linejoin="round" stroke-width="3"/>
          <path id="Trazado_1474" data-name="Trazado 1474" d="M703.083,777.309c-6.565,6.235-13.331,12.135-20.392,17.784-6.033-.323-12.023-.8-18.03-1.438,1.378-6.513,2.629-13.044,3.521-19.644,6.289-5.107,12.317-10.434,18.165-16.054a261.75,261.75,0,0,0,36.607-3.717,298.489,298.489,0,0,0,19.392-27.326c-.745-5.836-1.616-11.629-2.619-17.424-6.616,2.556-13.268,4.834-20.064,6.859-4.484,6.881-9.213,13.509-14.26,19.976" transform="translate(-642.06 -709.489)" fill="none" stroke="#4f722d" stroke-linecap="round" stroke-linejoin="round" stroke-width="3"/>
          <path id="Trazado_1475" data-name="Trazado 1475" d="M680.047,786.5c5.292-4.416,10.411-8.975,15.408-13.727" transform="translate(-643.166 -714.039)" fill="none" stroke="#4f722d" stroke-linecap="round" stroke-linejoin="round" stroke-width="3"/>
          <path id="Trazado_1476" data-name="Trazado 1476" d="M718.939,744.806c5.106-6.564,9.9-13.288,14.455-20.259" transform="translate(-645.962 -710.572)" fill="none" stroke="#4f722d" stroke-linecap="round" stroke-linejoin="round" stroke-width="3"/>
        </g>
        <g id="Grupo_346" data-name="Grupo 346" transform="translate(522.148 6.358)">
          <path id="Trazado_1477" data-name="Trazado 1477" d="M762.041,727.145" transform="translate(-744.955 -577.195)" fill="none" stroke="#4f722d" stroke-linejoin="round" stroke-width="3"/>
          <path id="Trazado_1478" data-name="Trazado 1478" d="M776.247,657.06c-3.171,9.623-6.728,19.01-10.751,28.3-5.478,2.846-11.1,5.414-16.8,7.774-1.492-7.017-3.174-13.954-5.069-20.87,3.535-8.37,6.671-16.821,9.478-25.471A241.62,241.62,0,0,0,784.1,622.679a387.254,387.254,0,0,0,5.356-39.936c-3.164-5.8-6.456-11.54-9.925-17.163-4.628,6.693-9.434,13.242-14.7,19.439-.949,9.814-2.264,19.513-4,29.217" transform="translate(-743.632 -565.58)" fill="none" stroke="#4f722d" stroke-linecap="round" stroke-linejoin="round" stroke-width="3"/>
          <path id="Trazado_1479" data-name="Trazado 1479" d="M757.62,681.2c2.989-7.115,5.636-14.387,7.99-21.74" transform="translate(-744.638 -572.329)" fill="none" stroke="#4f722d" stroke-linecap="round" stroke-linejoin="round" stroke-width="3"/>
          <path id="Trazado_1480" data-name="Trazado 1480" d="M774.808,618c1.741-9.842,3.072-19.68,4.045-29.629" transform="translate(-745.873 -567.219)" fill="none" stroke="#4f722d" stroke-linecap="round" stroke-linejoin="round" stroke-width="3"/>
        </g>
      </g>
    </g>
    <circle id="Elipse_7" data-name="Elipse 7" cx="251.207" cy="251.207" r="251.207" transform="translate(213.643 284.072)" fill="none" stroke="#4f722d" stroke-linejoin="round" stroke-width="3"/>
    <circle id="Elipse_8" data-name="Elipse 8" cx="299.104" cy="299.104" r="299.104" transform="translate(165.747 236.175)" fill="none" stroke="#4f722d" stroke-linejoin="round" stroke-width="3"/>
  </g>
</svg>
