<?xml version="1.0" encoding="utf-8"?>
<!-- Generator: Adobe Illustrator 24.0.1, SVG Export Plug-In . SVG Version: 6.00 Build 0)  -->
<svg version="1.1" id="Capa_1" xmlns="http://www.w3.org/2000/svg" xmlns:xlink="http://www.w3.org/1999/xlink" x="0px" y="0px"
	 viewBox="0 0 40 40" style="enable-background:new 0 0 40 40;" xml:space="preserve">
<style type="text/css">
	.st0{fill:none;}
	.st1{fill:#5C977D;}
	.st2{fill:#003520;}
	.st3{fill:#909F61;}
	.st4{fill:#DDCC66;stroke:#003520;stroke-width:3;stroke-miterlimit:10;}
	.st5{fill:#DDCC66;stroke:#003520;stroke-width:3;}
	.st6{opacity:0.57;fill:none;stroke:#FFFFFF;stroke-miterlimit:10;stroke-dasharray:4;enable-background:new    ;}
	.st7{fill:#93CBCC;}
	.st8{fill:#7B82A0;}
	.st9{fill:#D5A692;}
	.st10{fill:#BA8770;}
	.st11{fill:#888C9F;}
	.st12{fill:#EAD7B1;}
	.st13{fill:#7B716A;}
	.st14{fill:none;stroke:#93CBCC;stroke-miterlimit:10;}
	.st15{fill:none;stroke:#93CBCC;stroke-width:0.5;stroke-miterlimit:10;}
	.st16{fill:#93CBCC;stroke:#93CBCC;stroke-miterlimit:10;}
	.st17{fill:#7F859F;}
	.st18{fill:#B04436;}
	.st19{fill:#B1604B;}
	.st20{fill:#93CBCC;stroke:#93CBCC;stroke-width:0.5;stroke-miterlimit:10;}
	.st21{fill:#E9D6B1;}
	.st22{fill:#DEC4A9;}
	.st23{fill:#6D5F5C;}
	.st24{fill:none;stroke:#888C9F;stroke-miterlimit:10;}
	.st25{fill:none;stroke:#93CBCC;stroke-width:0.75;stroke-miterlimit:10;}
	.st26{fill:none;stroke:#93CBCC;stroke-width:0.25;stroke-miterlimit:10;}
	.st27{fill:#16160A;}
	.st28{fill:#E5661D;}
	.st29{fill:none;stroke:#16160A;stroke-width:0.476;stroke-linecap:round;stroke-miterlimit:10;}
	.st30{fill:#D1A943;}
	.st31{fill:#D1A943;stroke:#000000;stroke-miterlimit:10;}
	.st32{fill:#D0309B;}
	.st33{fill:#305BD0;}
	.st34{fill:#063916;}
	.st35{fill:#D0309B;stroke:#FFFFFF;stroke-width:0.63;stroke-miterlimit:10;}
	.st36{fill:none;stroke:#063916;stroke-width:3;}
</style>
<g>
	<path id="Trazado_3737" class="st7" d="M34.8,14.7c0-0.2,0-0.4,0.1-0.5c-7.2-0.2-14.4-0.3-21.6-0.5c-2.7-0.1-5.3-0.1-8-0.2
		c0,1.2,0,2.3,0,3.5c0.2,0,0.3,0,0.5,0c8.1,0.2,16.1,0.3,24.2,0.5l5,0.1c0-0.1,0-0.3,0-0.4L34.8,14.7z"/>
	<path id="Trazado_3738" class="st7" d="M32.8,24.2c-3.4-0.8-7-0.7-10.4,0.3c-5.3,1.3-10.7,0.8-16-0.2l-0.7,0.4l-0.3,0.5
		c0.3,0.2,0.7,0.4,1,0.5c5.7,0.7,11.3,1.5,17,0.1c1.4-0.4,2.9-0.6,4.4-0.7c1.5-0.1,2.2,0,2.4,0.7c0,0,0.1,0,0.1,0h1.1
		c0.5,0,1,0.2,1.4,0.4c0.6,0.1,1.2,0.2,1.8,0.4C34.9,25,33.1,25.1,32.8,24.2z"/>
</g>
</svg>
