<svg xmlns="http://www.w3.org/2000/svg" viewBox="0 0 1186 768"><defs><style>.cls-1{fill:#063916;}.cls-17,.cls-19,.cls-2,.cls-20,.cls-29,.cls-3,.cls-7,.cls-8{fill:none;}.cls-3{stroke:#fff;stroke-dasharray:4;opacity:0.57;}.cls-13,.cls-17,.cls-18,.cls-19,.cls-20,.cls-29,.cls-3,.cls-7,.cls-8{stroke-miterlimit:10;}.cls-3,.cls-49{isolation:isolate;}.cls-13,.cls-18,.cls-21,.cls-4{fill:#93cbcc;}.cls-5{fill:#d5a692;}.cls-6{fill:#7b82a0;}.cls-13,.cls-18,.cls-19,.cls-20,.cls-7,.cls-8{stroke:#93cbcc;}.cls-13,.cls-8{stroke-width:0.5px;}.cls-9{fill:#7f859f;}.cls-10{fill:#888c9f;}.cls-11{fill:#b04436;}.cls-12{fill:#b1604b;}.cls-14{fill:#e9d6b1;}.cls-15{fill:#dec4a9;}.cls-16{fill:#6d5f5c;}.cls-17{stroke:#888c9f;}.cls-19{stroke-width:0.75px;}.cls-20{stroke-width:0.25px;}.cls-21{font-size:7px;}.cls-21,.cls-33,.cls-43,.cls-46,.cls-49{font-family:BasicGothicPro-Medium, Basic Gothic Pro;font-weight:500;}.cls-22{letter-spacing:-0.04em;}.cls-23{letter-spacing:-0.02em;}.cls-24{letter-spacing:-0.03em;}.cls-25{letter-spacing:-0.01em;}.cls-26{letter-spacing:0em;}.cls-27,.cls-33,.cls-43,.cls-46,.cls-49{fill:#fff;}.cls-28{fill:#e5661d;}.cls-29{stroke:#16160a;stroke-linecap:round;stroke-width:0.48px;}.cls-30{fill:#d1a943;}.cls-31{fill:#d0309b;}.cls-32{fill:#305bd0;}.cls-33,.cls-43,.cls-46,.cls-49{font-size:6px;}.cls-34{letter-spacing:-0.01em;}.cls-35{letter-spacing:0em;}.cls-36{letter-spacing:-0.05em;}.cls-37,.cls-43{letter-spacing:-0.02em;}.cls-38{letter-spacing:-0.06em;}.cls-39{letter-spacing:0em;}.cls-40{letter-spacing:-0.01em;}.cls-41{letter-spacing:-0.02em;}.cls-42{letter-spacing:0em;}.cls-44{letter-spacing:0em;}.cls-45{letter-spacing:-0.01em;}.cls-46,.cls-48{letter-spacing:-0.01em;}.cls-47{letter-spacing:-0.01em;}.cls-50{letter-spacing:-0.08em;}</style></defs><g id="Capa_2" data-name="Capa 2"><rect class="cls-1" x="85.4" y="61.1" width="860" height="706.9"/><g id="Rectángulo_502" data-name="Rectángulo 502"><rect class="cls-1" x="85.49" y="59.66" width="863" height="708.3"/><rect class="cls-1" x="86.99" y="61.16" width="860" height="705.3"/></g></g><g id="Capa_1" data-name="Capa 1"><rect class="cls-2" width="1186" height="768"/><line id="Línea_108" data-name="Línea 108" class="cls-3" x1="512.6" y1="64.5" x2="512.6" y2="766.1"/><line id="Línea_109" data-name="Línea 109" class="cls-3" x1="659.3" y1="64.5" x2="659.3" y2="766.1"/><line id="Línea_111" data-name="Línea 111" class="cls-3" x1="373.1" y1="64.5" x2="373.1" y2="766.1"/><line id="Línea_113" data-name="Línea 113" class="cls-3" x1="88.5" y1="270.9" x2="940" y2="270.9"/><line id="Línea_114" data-name="Línea 114" class="cls-3" x1="88.5" y1="419.3" x2="940" y2="419.3"/><line id="Línea_115" data-name="Línea 115" class="cls-3" x1="88.5" y1="554.4" x2="940" y2="554.4"/><line id="Línea_116" data-name="Línea 116" class="cls-3" x1="88.5" y1="702.8" x2="940" y2="702.8"/><path id="Trazado_3354" data-name="Trazado 3354" class="cls-4" d="M220.1,403.9a14.12,14.12,0,0,1-1.4-4.4,4.28,4.28,0,0,0-4.6-4,1.7,1.7,0,0,0-.7.1c-3.1.5-3.8,0-4-3.1-.1-1-.4-1.4-1.4-1.6a4,4,0,0,1-3.5-3.3c-.5-1.8-.7-1.9-2.5-2.1a9.15,9.15,0,0,1-1.7-.1,2.43,2.43,0,0,1-2.1-2.6,1.6,1.6,0,0,0-1-2.1h0c-1.7-.9-1.9-2.6-1.5-4.3.3-1.4.5-2.3-1.3-2.7-1.4-.3-1.6-1.5-1-2.7.2-.4.6-.8.8-1.2,1.6-2.6,1-5.1-1.6-6.9-2-1.3-4.1-2.4-5.5-4.5a12.09,12.09,0,0,1-.5-1.8h1.5a.76.76,0,0,0,.6.8c1.7,1.3,3.4,2.6,5.2,3.8,3.3,2.2,4.1,5.5,2.4,9.1-.2.4-.6.8-.4,1.3a.76.76,0,0,0,.4.2c2.4.5,2.5.6,1.9,2.9-.1.5-.2,1-.3,1.4-.4,2-.4,2,1.3,3.1a2.61,2.61,0,0,1,1.3,2.2c.2,2,.2,2,2.1,2.1,2.6.2,3.2.6,4,3.2a2.67,2.67,0,0,0,2.5,2.3c2.2.3,2.3.5,2.4,2.6s.1,2,2.3,1.9c3.8-.2,6.7,1.9,7.1,5.7a6.29,6.29,0,0,0,3,5.1c0,1.4.1,2.9.1,4.3,0,.2.2.5.4.5a.37.37,0,0,0,.3-.1c.2-.1.2-.4.3-.6.5.6,1,1.3,1.9.8h0c.1.4.4.4.7.5h.4c3.1,2,3.3,2.5,2.4,5.8a3.93,3.93,0,0,0,.2.6,3.79,3.79,0,0,1,4.7.6h0a102.76,102.76,0,0,0,.1,11.1,15.24,15.24,0,0,0,.9,5.1q12.9,28.2,25.7,56.6c-.4.7.5.7.6,1.1,3.5,7.7,6.8,15.5,10.5,23.2,2,4.2,2.1,9.7-2.7,13.5-3.9,3.1-7.5,6.5-11.2,9.7-6.1,5.4-12.3,10.7-18.4,16.1-1.9,1.6-3.7,3.2-5.5,4.9a3.64,3.64,0,0,0-.6,5.1l.2.2c.5.6,1,1.1,1.5,1.6,3.4,3.3,6.9,6.6,10.3,10,7.1,7,14.2,14,21.2,21.1a12,12,0,0,0,9.6,3.7c2.1-.2,4.3-.3,6.4-.6l.6-.2,1.6-.1a6.92,6.92,0,0,1,0,3.5c-2.2-.7-4.4,0-6.5.2a19.46,19.46,0,0,1-5.9-.1,15,15,0,0,1-7.9-4.3l-27.6-27.3c-1.5-1.5-3.1-2.9-4.6-4.5-3.7-3.7-3.6-7.7.3-11.1q16.8-14.7,33.7-29.4c3.7-3.2,5.4-5.6,2.6-11.4-3.5-7.3-6.7-14.7-10-22-.3-.7-.7-1.3-1-2,0-.2-.1-.4-.1-.6l-.5-.4c-.3-2-1.4-3.7-2.2-5.5q-11.55-25.8-23.3-51.5c-1.4-3.1-3.8-4.2-7.3-3.2-4.4,1.2-8.7,2.5-13.1,3.7l-17.1,4.8a16.89,16.89,0,0,1-12.1-.9c-8.6-4-17.1-8.2-25.6-12.3-4.8-2.3-9.6-4.7-14.5-7-.5-.2-1.1-.4-1.6-.6-.1-1.1-.6-2.2.4-3.2L168,426.2c5,2.4,10.1,4.9,15.1,7.3a16.7,16.7,0,0,0,12.4,1.2c9.6-2.8,19.3-5.4,29-8.2a9.29,9.29,0,0,1,7.8.7c.3.1.5.1.8.2,0-2.9.1-5.6,0-8.4,0-1.2-.5-1.4-1.6-.9a26,26,0,0,1-2.5,1,1.4,1.4,0,0,1-1.8-.8,2,2,0,0,1,0-1.1,14.24,14.24,0,0,1,1.2-2.5c.8-1.6.4-2.4-1.3-2.9-.4-.1-.8-.1-1.2-.2a3.65,3.65,0,0,1-2.8-2.8,5.28,5.28,0,0,0-.8-2.5.75.75,0,0,1-.1-.5l-.4-.8C221.9,403.7,220.9,404,220.1,403.9Z" transform="translate(85.4 61.1)"/><path id="Trazado_3359" data-name="Trazado 3359" class="cls-4" d="M571,144.1a5.8,5.8,0,0,1,0-3.2,6.64,6.64,0,0,0,4.6-.4c3.4-1.3,6.7-2.7,10.1-4,2.2-.8,4.3-1.5,6.7-.9a10.1,10.1,0,0,1,5.3,3c4.4,4.9,8.9,9.7,13.4,14.6a93.74,93.74,0,0,0,9.3,8.5c3,2.5,6.3,4.8,9.2,7.5a12.21,12.21,0,0,1,3.9,11.7,12.41,12.41,0,0,0-.3,2.7,3.56,3.56,0,0,0,3.4,3.7h.1c2.3.1,4.6.4,6.9.4,5.9,0,11.9.4,17.8.7,13.5.6,27,.5,40.5.6a6.8,6.8,0,0,1,2,.2c3.8.8,5.4,3.5,4.3,7.1-.9,3-2.1,5.9-3.2,8.8-.4,1.2-.8,2.3-1.2,3.5h-3.2c1.4-3.9,2.9-7.9,4.3-11.8a6,6,0,0,0,.6-1.9,2,2,0,0,0-1.3-2.5,1.27,1.27,0,0,0-.6-.1,10.28,10.28,0,0,0-1.7-.1h-6.7c-9.1.1-18.1-.2-27.2-.5s-17.9-.7-26.9-1c-1.6,0-3.3-.2-4.9-.3a6.39,6.39,0,0,1-5.9-6.2,17.2,17.2,0,0,1,.2-3.2c.8-4.4-.8-7.7-4.1-10.4-5.5-4.5-11.3-8.8-16.3-14-4.6-4.7-8.8-9.8-13.4-14.5-3.5-3.6-5.7-4.2-10.3-2.3-2.7,1.1-5.4,2-8,3.2A30.79,30.79,0,0,1,571,144.1Z" transform="translate(85.4 61.1)"/><path id="Trazado_3372" data-name="Trazado 3372" class="cls-4" d="M709.4,571.8l-.1.7a6.89,6.89,0,0,1-1.3-1.1c-3.2-3.8-7.4-5.3-12.2-5.6l-29.3-2.1c-5.1-.4-8.2-3.1-9.2-8.1-.8-4-1.6-8.1-2.4-12.1a10.46,10.46,0,0,0-.4-1.7c-.7-3.2-2-3.9-5-2.5-5.4,2.4-10.8,4.9-16.2,7.4a16.9,16.9,0,0,0-7.8,7.6c-7.6,14.2-15.1,28.4-23.1,42.3-1.8,3.2-4.3,5.1-8,5.4a9.63,9.63,0,0,1-3.4-.4l-17.9-4.8a5,5,0,0,0-2.4-.3c-.1-.2-.1-.4-.2-.6.9-.7.3-1.7.6-2.5.9.2,1.8.4,2.6.6l17.9,4.8c3.8,1,6.1-.1,8.1-3.5,4.3-7.6,8.6-15.2,12.7-22.9,3.5-6.6,7-13.1,10.5-19.6a19.46,19.46,0,0,1,5.5-6.6,29.1,29.1,0,0,1,6.2-3.5c1.1-.5,1.9-.9,1.1-2.3a5.07,5.07,0,0,1-.4-2.4,21,21,0,0,1,.9-6.1c.3-1.4,0-1.8-1.4-1.9a24.32,24.32,0,0,0-2.7,0c-1.7-.1-3.1-.5-3.7-2.3a2.37,2.37,0,0,0-1.1-1.3c-2.6-1.1-5.2-2.6-8.2-.9a5.35,5.35,0,0,1-5.2-.1c-1.2-.7-2.5-1.3-3.7-2-1.9-1-2.7-.9-4.1.7-.7.8-1.4,1.7-2.1,2.5-2.6,2.9-4,3.3-7.6,2-.6-.2-1.2-.4-1.9-.7-1.4-.5-2.2.3-2.9,1.3s-1.1,2-.1,3.1a4.22,4.22,0,0,1,.5,5.3,8.82,8.82,0,0,0-.9,2,5.45,5.45,0,0,1-5.6,3.6c-2.8,0-5-.6-6.2-3.5a4.52,4.52,0,0,0-2.6-2.8,10.54,10.54,0,0,1-5.6-5,1.88,1.88,0,0,1-.2-.8l-.1-1a8.33,8.33,0,0,1,.4-1.5,5.2,5.2,0,0,1,2,2.4,8.25,8.25,0,0,0,3.9,3.7,7.5,7.5,0,0,1,4.2,4c.8,2,2.4,2.5,4.4,2.4a4,4,0,0,0,3.8-2.6c.3-.6.5-1.2.8-1.8a3,3,0,0,0-.4-3.4c-1.4-1.7-1.2-3.2.1-5.2s2.9-2.8,5-2.2a18.15,18.15,0,0,1,3,1.1,3.25,3.25,0,0,0,4-1c.9-1.1,1.9-2.3,2.9-3.4,1.9-2,3.8-2.3,6.2-1l3.9,2.1a3.12,3.12,0,0,0,3.1.2c3.2-1.8,6.2-.9,9.2.3a4.8,4.8,0,0,1,2.9,2.5,2.22,2.22,0,0,0,2.4,1.4h2.2c3.1.1,4.2,1.4,3.5,4.4a30,30,0,0,0-.8,5.1c-.1,2.8.6,3.4,3.4,2.4.2-.1.5-.1.7-.2,1.2.8,2.1.8,3-.6a15.84,15.84,0,0,1,2.2-2.3c1.4,0,2.4-.9,3.7-1.2a5.61,5.61,0,0,1,5.8,2.4,6.72,6.72,0,0,1,1,2.8c.9,4.8,2,9.5,2.8,14.3a6.85,6.85,0,0,0,6.6,5.6c1.6,0,3.1.1,4.7.2,7.5.6,15.1,1.4,22.6,1.7,5.7.3,10.9,1.6,15.2,5.5a2.77,2.77,0,0,0,.1.9A24.37,24.37,0,0,1,709.4,571.8Z" transform="translate(85.4 61.1)"/><path id="Trazado_3376" data-name="Trazado 3376" class="cls-5" d="M283.7,599.3l.6-.2A1.42,1.42,0,0,0,283.7,599.3Z" transform="translate(85.4 61.1)"/><path id="Trazado_3378" data-name="Trazado 3378" class="cls-4" d="M424.9,619.1c-8.1-3.2-16.3-6.4-24.4-9.5a5.18,5.18,0,0,0-6.7,2.6c-2.1,3.8-4.3,7.6-6.3,11.5-1.8,3.7-6.3,5.8-10.8,2.7-5.4-3.8-11-7.3-16.5-11a8.91,8.91,0,0,0-10-.5c-4.4,2.5-8.8,4.9-13.1,7.4a36,36,0,0,1-15.2,4.7c-2.1.2-4.3.5-6.4.6a8.78,8.78,0,0,1-8.7-5.7c-2.2-5.3-4.3-10.7-6.5-16.1-1.4-3.5-3.5-4.9-7.3-4.6-2.1.1-4.3.4-6.4.6a10.07,10.07,0,0,1,.1-3c2.2-.2,4.4-.5,6.6-.7a9.31,9.31,0,0,1,9.2,5.5c1.9,4.4,3.6,8.8,5.4,13.3l1.5,3.9c1.1,2.5,3,4,5.8,3.9,6.2-.4,12.6-.8,18.3-3.7,4.3-2.2,8.5-4.7,12.7-7.1,1.1-.6,2.1-1.2,3.3-1.8a11.14,11.14,0,0,1,11.9.7c5.4,3.5,10.7,7.1,16.1,10.6,4,2.7,5.5,2.3,7.8-1.9,1.9-3.5,3.9-6.9,5.7-10.4a8.58,8.58,0,0,1,10.9-4.1c7.2,2.8,14.4,5.6,21.7,8.4.5.2.9.3,1.4.5.1,1.1.1,2.2.2,3.3A.37.37,0,0,0,424.9,619.1Z" transform="translate(85.4 61.1)"/><path id="Trazado_3379" data-name="Trazado 3379" class="cls-4" d="M472.7,637c-2.9-4.5-5.8-9.1-8.9-13.6-1.8-2.7-4.4-3.4-7.6-2.4l-7.2,2.4a19.59,19.59,0,0,1-13.5-.3,101.77,101.77,0,0,0-9.7-3.6,10.75,10.75,0,0,1,.1-3.1,60.82,60.82,0,0,1,9.3,3.4,18.87,18.87,0,0,0,14.2.4c2-.7,4-1.4,6.1-2a9.24,9.24,0,0,1,11,3.8c2.5,3.8,5,7.6,7.4,11.4a14.75,14.75,0,0,0,3,3.6l-3.4.2Z" transform="translate(85.4 61.1)"/><path id="Trazado_3389" data-name="Trazado 3389" class="cls-6" d="M570.4,593.5l.5-.7.4.5c-.3.8.2,1.8-.6,2.5-.1,0-.3.1-.4.1h-.1Z" transform="translate(85.4 61.1)"/><path id="Trazado_3390" data-name="Trazado 3390" class="cls-4" d="M570.2,596l-4.5-1.2a9.06,9.06,0,0,0-8.8,1.8c-5.5,4.8-10.9,9.6-16.1,14.6a11,11,0,0,0-3.2,7.8c0,1.3.1,2.6,0,4-.2,3.9-3.2,6.2-6.9,5.3-7.5-1.8-15-3.8-22.5-5.7a10.55,10.55,0,0,0-10.3,2.5l-12.1,10.3c-.6.5-1.2,1.1-1.8,1.7l-1.5.5c-1.1-.8-2.4-.4-3.6-.5,3.3-2.1,6.1-5,9.2-7.5,2.7-2.2,5.4-4.6,8.1-6.9a13.76,13.76,0,0,1,12.9-2.9c6.7,1.8,13.4,3.4,20.1,5.2a14.19,14.19,0,0,0,2.2.5c2,.4,3.2-.5,3.4-2.4a22.85,22.85,0,0,0,0-3.7,14,14,0,0,1,4.6-10.8c5.2-4.8,10.4-9.6,15.8-14.2a11.82,11.82,0,0,1,10.7-2.5c1.5.3,3,.8,4.5,1.1.1.2.1.4.2.6A6.72,6.72,0,0,0,570.2,596Z" transform="translate(85.4 61.1)"/><path id="Trazado_3391" data-name="Trazado 3391" class="cls-4" d="M478.8,637c1.2.1,2.5-.3,3.6.5l-.3.5h-8.4c-.1-.3-.1-.6-.2-.9l3.4-.2Z" transform="translate(85.4 61.1)"/><path id="Trazado_3392" data-name="Trazado 3392" class="cls-4" d="M473.8,638h8.8C479.1,640.5,476.5,640.5,473.8,638Z" transform="translate(85.4 61.1)"/><path id="Trazado_3393" data-name="Trazado 3393" class="cls-7" d="M642.4,540.4a5.82,5.82,0,0,1,1.9-.3,3,3,0,0,0,1.7-.8" transform="translate(85.4 61.1)"/><path id="Trazado_3394" data-name="Trazado 3394" class="cls-4" d="M642.3,540a4,4,0,0,1,2.1-.9,7.48,7.48,0,0,0,2.9-1.6" transform="translate(85.4 61.1)"/><path id="Trazado_3395" data-name="Trazado 3395" class="cls-8" d="M424.8,616.5a2.92,2.92,0,0,0,.9.2" transform="translate(85.4 61.1)"/><path id="Trazado_3396" data-name="Trazado 3396" class="cls-8" d="M425,618.3c.1.1.2.2.3.2s.2.1.2.2a1.42,1.42,0,0,0,.6.2c-.1-.5-.6-.9-.9-1.3" transform="translate(85.4 61.1)"/><path id="Trazado_3397" data-name="Trazado 3397" class="cls-8" d="M285.5,601.8a1.69,1.69,0,0,0,1-.3" transform="translate(85.4 61.1)"/><path id="Trazado_3398" data-name="Trazado 3398" class="cls-8" d="M286.1,599.8h-1c.7,0,1.4-.1,2-.1" transform="translate(85.4 61.1)"/><path id="Trazado_3409" data-name="Trazado 3409" class="cls-4" d="M425.9,233a8.47,8.47,0,0,0,6.4-1.1,5,5,0,0,0,2.6-3.4,5.94,5.94,0,0,1,3.3-4.1,58.79,58.79,0,0,1,7.2-3.3,10.41,10.41,0,0,1,9.7.5c3.4,2,7,2,10.8,1.3,1.1-.2,1.5-.6,1.6-1.7a6.61,6.61,0,0,0-2.5-5.6,54.67,54.67,0,0,1-7-6.6h1.5c1.6,2.2,3.9,3.8,6,5.5,1.9,1.7,3.2,3.5,3,6.2a2,2,0,0,0,1.5,2.4h.1a4,4,0,0,1,2.5,2.6c.7,1.7,1.6,3.4,2.3,5.2a4,4,0,0,0,4.1,2.9,8.48,8.48,0,0,1,5,2c1.5,1.1,2.9,2.5,4.3,3.7,2.4,1.9,3,4.6,3.4,7.4.1,1.1.3,2.3.5,3.4a2.75,2.75,0,0,0,2.7,2.7l4.7.6a13.88,13.88,0,0,0,9.1-1.7,34.91,34.91,0,0,1,8.4-3.6,7.21,7.21,0,0,0,3.3-2.1c2.9-3.1,6.8-4.4,10.8-4.9,3.1-.4,6.2.7,9.1,1.9a3.14,3.14,0,0,1,2,2.9,36.17,36.17,0,0,1-.1,5.7,6.11,6.11,0,0,1-2.8,4.5c-2.1,1.4-2.4,3.1-1.8,5.4.5,1.6.8,3.2,1.2,4.8a4.51,4.51,0,0,0,2.4,3.3c3.5,1.8,4.6,5,5.1,8.5.2,1.5.3,3.1.4,4.7a8.09,8.09,0,0,0,1.2,3.7,4.44,4.44,0,0,0,4.5,2.5c1.6-.1,3.3,0,4.9,0a8.83,8.83,0,0,1,4.5,1.1c3.1,1.5,4.5,3.9,3.7,7.3a19.15,19.15,0,0,0,.4,9.5c.8,2.8.9,3,3.9,3.1h.7c.1.1.1.3.2.4V312c-.1.2-.2.3-.2.5-.9-.1-1.8-.1-2.7-.2a4,4,0,0,1-3.3-2.7c-1.2-3.8-2.3-7.5-1.2-11.6.9-3.2-.2-5-3.3-6.1a8.53,8.53,0,0,0-3.1-.6h-5.2a5.82,5.82,0,0,1-5.2-2.8,9.71,9.71,0,0,1-1.6-3.6,24.16,24.16,0,0,1-.5-4.7c-.3-3.5-1-6.8-4.5-8.8a6.09,6.09,0,0,1-3-4.3c-.4-1.8-.8-3.7-1.3-5.5-.7-2.5-.2-4.7,1.9-6.2,3.1-2.1,3.1-5.2,3-8.4a2.26,2.26,0,0,0-1.5-2.1c-2.3-.8-4.8-1.8-7.2-1.5-3.4.4-6.8,1.4-9.4,4a9.51,9.51,0,0,1-4.1,2.7,64,64,0,0,0-10.4,4.5,11.35,11.35,0,0,1-7.9,1,35.49,35.49,0,0,0-4.7-.6c-3.5-.4-4.8-1.7-5.2-5.1a8.81,8.81,0,0,0-.2-1.7c-.4-1.7-.1-3.6-1.1-5a18.06,18.06,0,0,0-8.9-7.2,3.89,3.89,0,0,0-1.5-.2c-2.6,0-4.1-1.3-5.1-3.6-.8-1.9-1.7-3.8-2.5-5.6a2.7,2.7,0,0,0-3-1.7c-.5.1-1,.1-1.5.2a15.81,15.81,0,0,1-12.2-1.6,11.73,11.73,0,0,1-1.1-.5,5.1,5.1,0,0,0-3.8-.6c-3.9,1-7.7,2.3-10.9,5a4,4,0,0,0-2.1,4.3,17.38,17.38,0,0,1-1.5,1.3c-2.6,1.7-5.3,3.4-8.7,2.3A3.67,3.67,0,0,1,425.9,233Z" transform="translate(85.4 61.1)"/><path id="Trazado_3410" data-name="Trazado 3410" class="cls-4" d="M468.1,409.1c.1-.1.2-.1.3-.2s.1-.1.1-.2a.87.87,0,0,1-.7-1v-.1a2.07,2.07,0,0,0-1,1.4c-.2.2-.5.4-.7.6a3,3,0,0,1-.8.4c-.1,0-.2.1-.3.1a.31.31,0,0,1-.2.1,17.61,17.61,0,0,1-4.5,1.2,10.75,10.75,0,0,0-6.4,3.5c-1.3,1.4-2.5,2.8-3.7,4.3-2.5,3.9-6.2,3.7-10.1,3.5-.3,0-.7-.1-.8-.4a3.09,3.09,0,0,0-3.2-1.7c-.1-.9,1-1,.7-1.9a5.94,5.94,0,0,0-.8-.4c-1.9-.8-1.9-.8-1.5-2.7.2-1.1.5-2.2.8-3.4.2-.6.6-1.3.1-1.9-1-1.1-.7-2.5-.7-3.8,0-2.9.1-5.8,0-8.7a9.42,9.42,0,0,1,2.2-6.4l6.9-8.4a14.47,14.47,0,0,1,7-4.9,14.44,14.44,0,0,0,7.7-6.3,6.4,6.4,0,0,0,1.1-5.8c-1-3.1.1-5.5,3-7.3a6.29,6.29,0,0,0,2.7-2.4h-1.6a4.54,4.54,0,0,1-1.9,1.5c-3.2,2-4.3,4.8-3.2,8.5a6,6,0,0,1-.9,4.9,13.74,13.74,0,0,1-7.7,6.1,11.67,11.67,0,0,0-5.4,3.3,132,132,0,0,0-9,10.8,10.23,10.23,0,0,0-2,6.5c0,2.5,0,4.9-.1,7.4h0c-.1,1.6.6,3.2-.4,4.7l-1.1.6c-1.4,1.4-3,2.5-4.2,4.2-.9-1.4-.7-2.9-1.1-4.1h-.5a39.76,39.76,0,0,0,.1,6.9h0c1.4.7,2.3,0,3-1.2a6.53,6.53,0,0,1,3.6-3.3,11.86,11.86,0,0,0-.1,6.2,20.48,20.48,0,0,0-2.4.5,2.46,2.46,0,0,0-1.8,2.4,2.66,2.66,0,0,0,2.4,2.2,5.19,5.19,0,0,0,2.4-.5,16.27,16.27,0,0,1,3.7-1.3c-.4,4.4-.4,4.4-4.4,4.8-2.2.2-3.1,1.6-2.6,3.8,1.3,5,4.4,8.6,8.5,11.5,1.6,1.1,2.7.7,3.4-1.1.2-.6,0-1.5.8-1.7,2-.5,2.9-2.1,3.9-3.9.3,1.5-.3,2.6-.4,3.7-.2,2.3-2,4.7-.1,7.1.1.1,0,.3,0,.5-.7,1.9.2,3.6.9,5.2,1.1,2.6,2.6,2.8,4.4.7a4.42,4.42,0,0,1,3.3-1.8c0-.7-.1-1.4-.1-2.1a5.15,5.15,0,0,0-4.4,2.3c-.7.8-1.1.7-1.6-.3-1-2.4-.7-3.7,1.2-5.5a17,17,0,0,0,1.9-1.9,1,1,0,0,0,.2-1.3,1.13,1.13,0,0,0-1.5-.4h0c-.8.4-1.4,1.2-2.4,1a1.42,1.42,0,0,1-.1-1.4c.3-1.4.6-2.9,1-4.3a4.74,4.74,0,0,0-.2-3.1,1.85,1.85,0,0,0-2.3-1.3,1.83,1.83,0,0,0-1,.7,4.72,4.72,0,0,0-1,2,2.1,2.1,0,0,1-1.3,1.7,4.63,4.63,0,0,0-3.2,3.3,1.48,1.48,0,0,1-.7-.1l-1-.7a15.52,15.52,0,0,1-5.8-8.4c-.4-1.6-.2-1.9,1.4-2.1a4.87,4.87,0,0,0,1.2-.1,4,4,0,0,0,3.6-3c.8-2.6.8-2.6,3.4-2.6h1.5A8,8,0,0,0,450,421c1.6-1.8,3.2-3.6,4.7-5.4a9.51,9.51,0,0,1,5.6-3.3c2.8-.5,5.7-1,7.8-3.3C467.9,409.2,468,409.1,468.1,409.1Zm-37.2,13.3c0-.4.2-.6.4-.6a2,2,0,0,1,1.5.1,1.54,1.54,0,0,1-1.9.5Z" transform="translate(85.4 61.1)"/><path id="Trazado_3411" data-name="Trazado 3411" class="cls-4" d="M673.9,489.5c-4.1-.5-8.2.4-12.3,0-3.8-2.5-7.8-4.7-11.6-7a4.74,4.74,0,0,0-5-.2,4.88,4.88,0,0,1-.7.3c-3.9,1.6-5.3,1.2-7.3-2.4a8.36,8.36,0,0,0-5.2-4.2,5.11,5.11,0,0,1-4-4.6l-.6-4.2a3.56,3.56,0,0,0-3.2-3.5,14.35,14.35,0,0,0-2.2-.4,8.21,8.21,0,0,1-5.4-3.2,66.71,66.71,0,0,0-8.2-8.6,15,15,0,0,1-4.1-5.8,8.94,8.94,0,0,0-3.6-4.3c-1.9-1.3-3.8-2.6-5.8-3.9a5.4,5.4,0,0,1-2.8-3.9,4.41,4.41,0,0,0-2.4-3.2,14.08,14.08,0,0,1-4.9-4.5c-1-1.3-2-2.6-2.9-4a13.73,13.73,0,0,0-5.6-4.8c-1.6-.8-3.3-1.6-4.9-2.4a.37.37,0,0,0-.1-.3v-1.3c5.3,1.9,10,4.6,13.1,9.5a17.61,17.61,0,0,0,6.9,6.9,4.17,4.17,0,0,1,2.2,3.1,4.79,4.79,0,0,0,2.5,3.5q2.85,1.8,5.7,3.9a8.76,8.76,0,0,1,3.6,4c1.2,3.4,3.7,5.8,6.3,8.1a34.69,34.69,0,0,1,5.5,6,8.44,8.44,0,0,0,5.9,3.6,17.42,17.42,0,0,1,2.2.5,4.51,4.51,0,0,1,3.4,3.5,50.67,50.67,0,0,1,.9,5.4,3.4,3.4,0,0,0,2.7,3.1,9.7,9.7,0,0,1,6.2,5c1.6,2.7,2.5,3,5.5,1.6a7.45,7.45,0,0,1,7.5.4c3.2,1.9,6.4,3.7,9.6,5.7a6.93,6.93,0,0,0,7.2.7C670.5,486.6,672.2,487.3,673.9,489.5Z" transform="translate(85.4 61.1)"/><path id="Trazado_3412" data-name="Trazado 3412" class="cls-4" d="M401.8,401.9c.1.8.7,1.1,1.3,1.4a9.51,9.51,0,0,1,5.8,7.7c.2,1.1.4,2.2.7,3.5,1.2-.5,1.5-1.7,2.3-2.5.5-.5.7-1.1,1.2-1.6,1.3-1.4,2.6-1.3,3.8.1.1.2.3.4.4.6.4.6.7,1.8,1.7,1.3.7-.3.5-1.3.3-2-.3-1.4-.7-2.9-1.1-4.3a6.31,6.31,0,0,1-.1-3.6c1-3.6,2-7.3,1.7-11.2a9.23,9.23,0,0,1,.3-2.9c.5-2.6.1-4.9-2.4-6.4a6.17,6.17,0,0,1-2.5-3,5.51,5.51,0,0,0-2-2.7,1.83,1.83,0,0,1-.7-1,16.65,16.65,0,0,1,.2-6.3,3.78,3.78,0,0,1,.6,3.1c0,1.7,0,3.3,1.6,4.4a3.68,3.68,0,0,1,1.1,1.9,4.92,4.92,0,0,0,2.3,2.8c3.1,1.7,3.2,4.5,2.9,7.5-.1.6-.6,1.2-.1,2a46.67,46.67,0,0,0,3.1-8.1,10.64,10.64,0,0,1,.9-2.5,17.7,17.7,0,0,1,.1,4c-1.4,2.6-2,5.5-3.4,8.2s-1.2,5.6-2,8.4c-.2.6-.2,1.2.6,1.4,2,.4,3.1,2,4.3,3.5.9,2.8.4,5.6.4,8.5-.6-2-1.2-4.1-1.9-6.1a7.53,7.53,0,0,0-1.7-3c-.4-.3-.8-.7-1.3-.4s-.2.8-.1,1.3c.4,1.6.9,3.2,1.3,4.7a4.11,4.11,0,0,1,0,2.2,3.11,3.11,0,0,1-2,2.3c-1.2.3-2-.4-2.8-1.1s-.7-2-1.8-1.8-1.4,1.3-1.9,2.1-1.4,1.6-1.3,2.8c-.6.5-1.3.9-1.2,1.9a7.15,7.15,0,0,0-3.3,6.2,8.84,8.84,0,0,1-4.6,7.8,7,7,0,0,0-1,.8,5.18,5.18,0,0,1,.5-3,5.18,5.18,0,0,0,3-3.9,12.75,12.75,0,0,0,0-3.9c.6-.2,1.5.3,1.8-.6-.3-.5-.7-.4-1.1-.4a.71.71,0,0,1-.8-.7c2.4-.5,2.4-.5,2.1-2.1a2.19,2.19,0,0,0,.9-2.6c-.3-1.8-.6-3.7-1-5.5-.3-1-.3-2.3-1.4-3,.2-1-.4-1.5-1.2-1.9-1.2-.5-2.1-2.1-3.7-1.1.2-.8-.6-1.2-.7-1.8A3.31,3.31,0,0,0,401.8,401.9Z" transform="translate(85.4 61.1)"/><path id="Trazado_3413" data-name="Trazado 3413" class="cls-9" d="M617.7,355.8a5.76,5.76,0,0,0-5.3-5.1c-2.7-.4-5.3-1.3-7.9-1.9a9.26,9.26,0,0,1-6.4-5,15.7,15.7,0,0,1-2.2-8.7,15,15,0,0,0,0-3c-.2-4-2.8-5.6-6.4-3.9a9.15,9.15,0,0,1-7.4.8c-2.2-.8-3.7-2.1-4.1-4.5-.3-2.1-.6-4.2-.9-6.4-.5-3.6-2.6-5.5-6.3-5.6a6.89,6.89,0,0,0-.3-.8,7.57,7.57,0,0,1,.1-1.5l.1-.1a.37.37,0,0,0,.3.1,9.88,9.88,0,0,1,5,1.9,7.2,7.2,0,0,1,3,5.2c.3,2.1.6,4.2.9,6.4a3.86,3.86,0,0,0,3.6,3.5,8.79,8.79,0,0,0,5.5-1,5.63,5.63,0,0,1,4-.8,6.4,6.4,0,0,1,4.8,5.9,36.85,36.85,0,0,1,0,4.7c-.1,3.2,1.3,5.9,3.1,8.5a5.3,5.3,0,0,0,3.3,2.1c2.8.6,5.6,1.5,8.4,2,4,.8,6.4,3.1,7.1,7.2Z" transform="translate(85.4 61.1)"/><path id="Trazado_3414" data-name="Trazado 3414" class="cls-4" d="M570.2,414.6c-.8-.3-1.5-.6-2.3-.9a4.78,4.78,0,0,1-3-4.4,13.16,13.16,0,0,0-2.5-7.4c-1.5-2.3-3.4-4.5-4.2-7.2a1.33,1.33,0,0,0-1.5-1c-2.3-.1-4.6,0-6.6,1.4a5,5,0,0,1-6-.1,12.51,12.51,0,0,1-3.7-3.9,4.11,4.11,0,0,0-4.1-2.3c-5.3.5-7.8-2.8-9.6-6.9a17.23,17.23,0,0,1-.7-2.1c-.5-1.5-1.2-2.7-3.1-2.6-.5,0-1-.2-1-.8,0-.8.6-.9,1.2-.9a4,4,0,0,1,3.7,2,15.33,15.33,0,0,1,1.1,2.7,12.5,12.5,0,0,0,2.2,4.1,6.12,6.12,0,0,0,5.7,2.8,6.18,6.18,0,0,1,6.5,3.5,8.09,8.09,0,0,0,2.5,2.7,3.76,3.76,0,0,0,4.6.2c2.7-1.9,5.8-1.5,8.9-1.5a1.3,1.3,0,0,1,1.4.9c.7,3.5,3.2,6.1,4.9,9.1a11.92,11.92,0,0,1,2,6,4.49,4.49,0,0,0,3.8,4.8A5.54,5.54,0,0,0,570.2,414.6Z" transform="translate(85.4 61.1)"/><path id="Trazado_3415" data-name="Trazado 3415" class="cls-4" d="M425.8,276a5.45,5.45,0,0,1,6.8-.7c.4.2,1,.4.7,1.1s-.8.3-1.2.1c-1.3-.6-2.7-1.2-4.2-.4,0,1,.9,1.2,1.3,1.8,1.1,1.6,1.1,2.7-.4,4.1-.1.1-.3.2-.4.3-2.4,2-2,5.1.9,6.5.4.2.8.2,1.2.4.8.4,1.2,1.2.7,1.8-2,2.6-2.7,6-5.4,8.2v-1.7c1.8-2.1,2.6-4.8,4.5-7.1a5.91,5.91,0,0,1-4.5-3.7V282c1.7-.3,2.9-1.1,2.9-2s-.9-1.9-2.4-2.4c-.2,0-.3-.1-.5-.1Z" transform="translate(85.4 61.1)"/><path id="Trazado_3416" data-name="Trazado 3416" class="cls-4" d="M464.4,355.7a51.85,51.85,0,0,1,3.1-5,22.94,22.94,0,0,1,12.1-8.1,7.17,7.17,0,0,0,5.1-4.6c.5-1.4,1.2-2.7,1.8-4.1a.52.52,0,0,1,.7-.3.1.1,0,0,1,.1.1.86.86,0,0,1,.3.6,47.18,47.18,0,0,1-2.7,6.1c-1.2,2.1-3.2,2.8-5.4,3.6a21.43,21.43,0,0,0-12.3,9.6l-1.2,2.1Z" transform="translate(85.4 61.1)"/><path id="Trazado_3417" data-name="Trazado 3417" class="cls-4" d="M425.1,300.4c-.6.4-1.3.8-1.8,1.2a5.73,5.73,0,0,1-4.4,1.2,7.51,7.51,0,0,0-5.3,1.2,34.41,34.41,0,0,0-7.5,6.2c-.7.7-1.4,1.3-2.2,2l-1.1-.2a39.82,39.82,0,0,1,11.7-9.9,4.78,4.78,0,0,1,3.5-.7c2.8.7,4.7-.5,6.5-2.4.2-.2.4-.3.6-.5Z" transform="translate(85.4 61.1)"/><path id="Trazado_3418" data-name="Trazado 3418" class="cls-4" d="M425.8,334.4c.3.1.5.8.9.1s.9-1.6,1.4-2.3a5.13,5.13,0,0,1,2.9-2.1,97.88,97.88,0,0,0,13-5.2c.4-.2.7-.3,1.1-.5s.6.1.6.3,0,.4-.2.6a5.39,5.39,0,0,1-1.3.7c-3.8,1.7-7.6,3.7-11.6,4.8a7,7,0,0,0-4.9,4.1,23.29,23.29,0,0,1-2,3.4C425.7,337,425.7,335.7,425.8,334.4Z" transform="translate(85.4 61.1)"/><path id="Trazado_3419" data-name="Trazado 3419" class="cls-4" d="M429.6,359.2c-.4.6-.7,1.3-1.1,1.9a5,5,0,0,0-.4,4.3,9.21,9.21,0,0,1-.1,8.1c-.9,2.1-1.2,4.5-2.3,6.5v-4a19.56,19.56,0,0,0,1.7-4.8,6.34,6.34,0,0,0-.2-4.3,8.13,8.13,0,0,1,.7-7.7Z" transform="translate(85.4 61.1)"/><path id="Trazado_3420" data-name="Trazado 3420" class="cls-4" d="M441.2,341c.4,2,.3,4.1.7,6.1a4.28,4.28,0,0,1-1.8,4.3c-2,1.5-4.3,2.7-6.1,4.4h-2.2a52.31,52.31,0,0,1,6.8-4.8,3.84,3.84,0,0,0,1.9-4.8,12.41,12.41,0,0,1-.3-2.7c.7,0,.9-.4.9-1A6.62,6.62,0,0,1,441.2,341Z" transform="translate(85.4 61.1)"/><path id="Trazado_3421" data-name="Trazado 3421" class="cls-4" d="M570.9,469.8a8.56,8.56,0,0,0,5.7-4.3,38.2,38.2,0,0,1,4.9-6.5.78.78,0,0,1,1-.3h0c.3.9-.4,1.5-.9,2a33.25,33.25,0,0,0-4.4,6.2c-1.3,2.3-3.6,3.2-5.9,4.2a.9.9,0,0,0-.5-.1C570.8,470.7,570.9,470.3,570.9,469.8Z" transform="translate(85.4 61.1)"/><path id="Trazado_3422" data-name="Trazado 3422" class="cls-4" d="M425.8,312.1c.9.2,1.3-.4,1.9-.9.4-.3.9-.6,1.2-.1s-.1.9-.5,1.2c-.9.7-1.8,1.4-2.6,2.1Z" transform="translate(85.4 61.1)"/><path id="Trazado_3423" data-name="Trazado 3423" class="cls-10" d="M430.4,358.3l-.8-.6c.3-.4.7-.9,1-1.3h2Z" transform="translate(85.4 61.1)"/><path id="Trazado_3424" data-name="Trazado 3424" class="cls-9" d="M425.1,416.9a2.12,2.12,0,0,1,0-1.9Z" transform="translate(85.4 61.1)"/><path id="Trazado_3425" data-name="Trazado 3425" class="cls-11" d="M570.7,310.3a7.57,7.57,0,0,1-.1,1.5h-.2v-1.4A.37.37,0,0,1,570.7,310.3Z" transform="translate(85.4 61.1)"/><path id="Trazado_3426" data-name="Trazado 3426" class="cls-6" d="M425.9,417.8h0a.25.25,0,0,1-.1.4C425.8,418,425.8,417.9,425.9,417.8Z" transform="translate(85.4 61.1)"/><path id="Trazado_3428" data-name="Trazado 3428" class="cls-10" d="M425.9,315.5Z" transform="translate(85.4 61.1)"/><path id="Trazado_3429" data-name="Trazado 3429" class="cls-4" d="M360.9,430c.2-.3.3-.5.5-.8,1.2.6,1.4,2.1,2.4,3,1.4,1.2,1.5,1.3,2.4-.6a3.39,3.39,0,0,0,.6-1.5c.1-.1.1-.2.1-.4,1-.8,1.4-.4,1.3.7a3.46,3.46,0,0,0-.8,1.6.6.6,0,0,0-.1.4l-.3.5-.1.5c0,1.6,1.7,1.5,2.5,2.4h0l.4.6a19.27,19.27,0,0,1-.1,2.4c-.4.5-1,1-.7,1.7.5,1.2,3.2,1.7,4.3.9a5.48,5.48,0,0,0,1.6-1.8c1-.5,1.9-1,2.9-1.5,1.3-.4,2.6,0,3.9.1l3.5.3v2.3l-2.9-.3c-2.7-.6-5.2-.4-7.1,1.9-1.8-.1-2.8,1.3-4.2,2-2-1.8-4.2-2.4-6.7-1.2a13.09,13.09,0,0,1-2.8.9c-2.3.6-2.3.6-2.6,3.1a23,23,0,0,1-2.7,8.9c-1,1.9-1.9,3.8-2.8,5.8a23.15,23.15,0,0,0-1.9,5.6,12.2,12.2,0,0,1-1.9,5.1,1.63,1.63,0,0,0,.1,2.4l.2.2a47.17,47.17,0,0,1,5.2,6.6c.3.6.7,1.1,1,1.7.2.4.4.8-.1,1.1s-.8-.2-1-.6a39.38,39.38,0,0,0-5.7-7.7,10.59,10.59,0,0,0-1-1.2c-1.5,1.1-2.2,2.7-3.3,3.9l-.9,1.2a.48.48,0,0,1-.7,0,.47.47,0,0,1-.1-.6l.9-1.5,2.1-2.7a18.8,18.8,0,0,0,4.4-9.2,16.77,16.77,0,0,1,1.7-4.9c1-2.1,2-4.2,3.1-6.2a22.06,22.06,0,0,0,2.3-9.8c0-.5,0-1-.5-1.3a16.13,16.13,0,0,1-2.8-2.4,6,6,0,0,0-3.3-1.6c-6-.8-11.9-2.3-18.1-2.2a22.33,22.33,0,0,1-7.7-1.4c-2.4-.9-4.8-1.7-7.3-2.4a23.05,23.05,0,0,1-8.4-4.6,22.69,22.69,0,0,0-7.2-4.2,11.87,11.87,0,0,1-5.9-4.7,85.81,85.81,0,0,0-7.5-10.4,8,8,0,0,0-2.3-2.2c0-.4.1-.9.1-1.3a5.78,5.78,0,0,1,2.3,1.8c3,3.2,5.3,6.9,7.9,10.4.1.2.2.3.3.5a2.43,2.43,0,0,0,1,1.4,1.27,1.27,0,0,0,.7.9,4.26,4.26,0,0,0,2,1.5l1.4.6a44.82,44.82,0,0,1,6.5,3.4,4.31,4.31,0,0,0,1.9,1.3,7.55,7.55,0,0,0,2.6,2.1,7,7,0,0,0,2.3,1.1,3.37,3.37,0,0,0,1.7.8l1,.2c3.3,1.3,6.6,2.4,10,3.4a13.06,13.06,0,0,0,3.9.5,62.17,62.17,0,0,1,9.6.8c2.1.3,4.2.9,6.4.6A9.09,9.09,0,0,1,357,441a3.4,3.4,0,0,0,3.5,1.3,6.09,6.09,0,0,0,3.1-1.3h0a9.82,9.82,0,0,0,2.9-.5c1.5-.2,2-1.4,2.3-2.6s-.8-1.6-1.6-2.2C364.5,434.3,362.2,432.7,360.9,430Z" transform="translate(85.4 61.1)"/><path id="Trazado_3430" data-name="Trazado 3430" class="cls-11" d="M570.8,308.6v0Z" transform="translate(85.4 61.1)"/><path id="Trazado_3431" data-name="Trazado 3431" class="cls-11" d="M571.1,310.3c-.1,0-.2-.1-.3-.1V310Q571,310,571.1,310.3Z" transform="translate(85.4 61.1)"/><path id="Trazado_3432" data-name="Trazado 3432" class="cls-4" d="M330.1,321.2a35.83,35.83,0,0,1,4.5.9,1.13,1.13,0,0,0,1.2,1.1.37.37,0,0,0,.3-.1c1.2,1,2.5,1.9,3.6,3,2,1.9,1.8,3.9-.4,5.6-.6.5-1.3,1-1.9,1.5a2.13,2.13,0,0,0-.6,2.7,2.42,2.42,0,0,0,2.6,1.5.9.9,0,0,0,.5-.1c4.1-1.1,8.2-1.6,12.3-2.4a9.19,9.19,0,0,0,4.5-2.5,15.71,15.71,0,0,1,2.4-2.1c1.8-1.4,2.7-1,3.5,1.3v.1c0,1.4-.1,2.9-.1,4.3-.8.5-1.3-.3-2-.6-.1-1-.1-2.1-.2-3.3a5.37,5.37,0,0,0-2.1,1.6,12,12,0,0,1-6.6,3.4c-3.4.6-6.9,1.2-10.4,1.8h.1c-1.9.6-3.8.8-5.3-.6a1.88,1.88,0,0,0-2.6-.2c-3.3,1.6-6.7,3.2-10,4.8l-1.6-.1c.6-.3,1.1-.7,1.7-1,3.1-1.9,6.5-3.1,9.7-4.8.7-.4,1.5-.7,1.4-1.7a4.39,4.39,0,0,1,2.3-4.3,6.89,6.89,0,0,0,1.3-1.1c1.1-1.1,1.1-1.4,0-2.4-1.8-1.6-3.6-3.3-6.1-4,.2-.2.6-.4.7-.6.2-.6-.4-.6-.8-.6C331.1,322.3,330.3,322.4,330.1,321.2Z" transform="translate(85.4 61.1)"/><path id="Trazado_3433" data-name="Trazado 3433" class="cls-4" d="M399.5,316.2c-1.3,1-1.1,2.5-1.1,3.8a20.18,20.18,0,0,1-1.4,8c-.9,2.1-2.2,3.5-4.6,3.6a2.66,2.66,0,0,0-1.2.3c-1.7.7-2.2,1.4-1.5,3a4,4,0,0,1-1.2,5.1l-1.2-.2.9-1.2a2.57,2.57,0,0,0,.3-3.2c-.7-1.2-.8-2.5.3-3.4,1.4-1.1,1.1-2.6,1.1-4.1a5.05,5.05,0,0,0-1.7-4.2c-2.3-1.9-2.6-3.9-1.5-6.6a41.06,41.06,0,0,1,2.8-6,40.76,40.76,0,0,0,3.5-7.3,33,33,0,0,1,3.4-5.7,1.69,1.69,0,0,1,1.4.1c-3.5,4.3-4.9,9.6-7.7,14.3a33.2,33.2,0,0,0-2.5,5.4,4.15,4.15,0,0,0,1.1,4.9,6.3,6.3,0,0,1,2.1,4.1c.1.8.2,1.6.3,2.5,0,1.2.6,1.3,1.6,1a3.87,3.87,0,0,0,2.8-2.6,14.1,14.1,0,0,0,1.3-6.7,10.39,10.39,0,0,1,.4-3.9c.3-.8.5-1.6,1.4-1.9C399.3,315.3,399.6,315.8,399.5,316.2Z" transform="translate(85.4 61.1)"/><path id="Trazado_3434" data-name="Trazado 3434" class="cls-4" d="M365.8,280.1c-.1.6.1,1.2-.2,1.7-2.6,4-5,8.1-8.8,11.2a13,13,0,0,1-5.2,2.7,3.73,3.73,0,0,0-3.2,4,4.79,4.79,0,0,1-2.7,4.6c-5.8,2.6-7.9,7.6-9.1,13.3a5.85,5.85,0,0,1-.4,1.9c-.2-.6-.5-1.2-.7-1.9a18.77,18.77,0,0,1,5.4-11.6,10.45,10.45,0,0,1,3.2-2.3,4.42,4.42,0,0,0,3-4.2c0-.4.2-.8.2-1.2a3.73,3.73,0,0,1,2.9-3.6c4.7-1.1,7.7-4.3,10.4-7.9,1.2-1.6,2.3-3.4,3.5-5.1.5-.7.5-1.3-.3-1.8Z" transform="translate(85.4 61.1)"/><path id="Trazado_3435" data-name="Trazado 3435" class="cls-4" d="M367.3,343.1a4,4,0,0,0,.5,2.4.37.37,0,0,1-.1.3c-.4-.2-.9-.5-1.3,0-2.8,3.1-6.2,5.8-7.5,10h-1.1c1-4.2,4.4-6.9,7-10.1-.8-.8-1.7-.9-2.1-1.6a2.53,2.53,0,0,0,1.8-1Z" transform="translate(85.4 61.1)"/><path id="Trazado_3436" data-name="Trazado 3436" class="cls-4" d="M393,295.1c.1.8.1,1.7.2,2.5-.5.1-1.1,0-1.2-.5-.4-1.7-1.4-2.1-3-2.3s-2.6-1.6-3.1-3.2c-.1-.4-.2-.8.3-1a.57.57,0,0,1,.7.4v.1c.5,1.8,1.9,2.5,3.7,2.8A6.77,6.77,0,0,1,393,295.1Z" transform="translate(85.4 61.1)"/><path id="Trazado_3437" data-name="Trazado 3437" class="cls-4" d="M396,287c1.1,0,2.2-.4,3.3-.1-.6.4-1.5.7-.6,1.7a4,4,0,0,1,.8,2.8l-1.5-.7C398,289.1,396.8,288.2,396,287Z" transform="translate(85.4 61.1)"/><path id="Trazado_3438" data-name="Trazado 3438" class="cls-12" d="M362.5,331.9v0C362.6,331.6,362.2,331.9,362.5,331.9Z" transform="translate(85.4 61.1)"/><path id="Trazado_3439" data-name="Trazado 3439" class="cls-10" d="M400.6,313.6a1.2,1.2,0,0,1-1,.7C399.8,313.9,400.1,313.5,400.6,313.6Z" transform="translate(85.4 61.1)"/><path id="Trazado_3440" data-name="Trazado 3440" class="cls-10" d="M402.9,312.8l-1-.1a.87.87,0,0,1,.8-.6,1.45,1.45,0,0,1,.2.7Z" transform="translate(85.4 61.1)"/><path id="Trazado_3441" data-name="Trazado 3441" class="cls-10" d="M401.9,312.7a.63.63,0,0,1-.6.5Z" transform="translate(85.4 61.1)"/><path id="Trazado_3444" data-name="Trazado 3444" class="cls-4" d="M499.9,490.5h2.3a23.78,23.78,0,0,1-2.3,4.1c-1.1,1.8-2.2,3.5-3.3,5.2a1.69,1.69,0,0,0,0,2.3c.7.8,1.5,1.7,2.7,1.5.9-.2,1-1.2,1.2-2a.9.9,0,0,1,.1-.5,2.52,2.52,0,0,1,2.7-2.1,1.85,1.85,0,0,1,.7.2,6.3,6.3,0,0,1,3.4,2.3,3.26,3.26,0,0,1-.1,4.5,4.63,4.63,0,0,1-1.8,1.3c-2,1.1-2,1.2-.9,3.2.1.2.3.4.4.6.7,1.4.6,2.2-.7,3.2-.8.6-1.4,1.1-.7,2s1.3,0,1.9-.4a15.05,15.05,0,0,1,2.2-1.1,1.62,1.62,0,0,1,2,.6c1.6,2.1,1.7,2.1,3.9.6a6.07,6.07,0,0,1,1-.7,3.49,3.49,0,0,1,4.7,1.5,5.64,5.64,0,0,1,.4,1.2,4.51,4.51,0,0,1-1,3.7c-.4.5-1.1.9-1.2,1.9,1.3-.3,2.4-.7,3.5-.9,1.3-.2,2.7-.3,3.5,1.1.4.8,1.2.8,1.9.9,2.6.4,3.1.9,3.2,3.4,0,1.1.5,1.4,1.5,1.4h7.4c2,0,2.4-.5,2.5-2.6a26.8,26.8,0,0,1,.2-4.9c1.3.5.7,1.7.8,2.6s-.1,2,1.1,2.5c-.3,3.5-1.1,4.4-4.5,4.4h-7.7c-2.6,0-3.1-.4-3.1-3,0-1.2-.4-1.6-1.6-1.6a3.89,3.89,0,0,1-3.2-1.6,1.68,1.68,0,0,0-1.8-.5l-4.5,1.2a2.1,2.1,0,0,1-2.5-.4c-.7-1-.1-1.9.6-2.6.9-1,1.7-2,2.6-3a1.75,1.75,0,0,0-.1-2.5h0c-.7-.8-1.5-.5-2.2.1a7.1,7.1,0,0,1-1.4,1c-2.1,1.2-3.2,1.2-4.8-.5-1-1-1.6-.7-2.5-.1-2.1,1.4-3.2,1.3-4.3-.1a3.32,3.32,0,0,1,.1-4.7c.1,0,.1-.1.2-.1.7-.7.6-1.1.2-1.8-1.5-2.7-1.1-4,1.6-5.4.2-.1.5-.2.7-.3.9-.5,1.5-1,1.3-2.1a3,3,0,0,0-2.6-2,.77.77,0,0,0-.8.7h0a7.71,7.71,0,0,1-1,2.5,2.4,2.4,0,0,1-2,1.2,5.34,5.34,0,0,1-4.7-2.7,3.76,3.76,0,0,1,.2-4.6C496.8,495.9,498.4,493.3,499.9,490.5Z" transform="translate(85.4 61.1)"/><path id="Trazado_3445" data-name="Trazado 3445" class="cls-4" d="M441,338.4c0-2,1.2-3.4,2.6-4.6a81.21,81.21,0,0,1,8-6.2,73.79,73.79,0,0,0,9.9-7.8,69.12,69.12,0,0,1,7.1-6.1,8.37,8.37,0,0,1,5.5-1.9,25,25,0,0,0,4.7-.5c2.4-.4,3.2-1.2,3.5-3.7a1.7,1.7,0,0,1,.1-.7c.1-.3.3-.6.7-.5a1.21,1.21,0,0,1,.5.5,4.41,4.41,0,0,1-.8,3.7,7.42,7.42,0,0,1-4.9,2.2,20.08,20.08,0,0,1-2.5.1,11.23,11.23,0,0,0-6.4,2.2,101.24,101.24,0,0,0-8.5,7.5,104.62,104.62,0,0,1-8.4,6.5c-2.1,1.5-4.2,3-6.2,4.6-1.7,1.3-3.4,2.6-3.8,5C441.6,338.7,441.3,338.9,441,338.4Z" transform="translate(85.4 61.1)"/><path id="Trazado_3446" data-name="Trazado 3446" class="cls-4" d="M502.9,489.5h-7.3a2.15,2.15,0,0,0-2.3-1c-2.1.1-2.8-.9-2.2-3a4.46,4.46,0,0,1,2.1-2.9c1-.6,2-1.1,3-1.7,1.5-.8,1.5-.8,2.3-2.9a28.25,28.25,0,0,1-2.9.2c-2.9,0-4.3-1.1-4.8-3.9s-.9-2.9-3.1-1.3a8.74,8.74,0,0,1-1,.8c-1.1.7-1.8.4-2.4-.7-.2-.4-.3-1-.5-1.4-.9-2-2.2-2.5-4.2-1.6-2.9,1.3-4,1-5.7-1.8a12.42,12.42,0,0,0-3.9-4c-2.3-1.5-2.5-3.2-.6-5.3l.2-.2c.4-.6,1.4-1,1-1.8-.5-1-1.5-.8-2.4-.7s-1.4.8-2.1,1.2c-1.5.8-2.7.9-3.8-.3a30.17,30.17,0,0,0-7.1-5.2c1.6,0,3.2,0,4.8.1l3.3,3.3a1.55,1.55,0,0,0,2.1.2l.1-.1a4.86,4.86,0,0,1,5-1.1c.8.3,1.2-.2,1.5-.9.5-1.1.9-2.1,1.4-3.2h.8a3.89,3.89,0,0,1-.7,2.3,6.19,6.19,0,0,0-.8,4c.3,1.4-.5,2.3-1.4,3.2-1.5,1.6-1.5,1.7.3,2.9a12.65,12.65,0,0,1,4,4.3c1.1,1.9,1.4,1.9,3.3,1,2.7-1.3,4.5-.9,6.2,1.6.8,1.2,1.2,1.6,2.7.8,2.7-1.5,4.3-.5,5,2.5,0,.2.1.3.1.5.5,2.9,2.4,3.7,4.9,2,1.7-1.1,2.5-.7,2.7,1.3a5.72,5.72,0,0,1-3,5.8c-.9.5-1.8.9-2.6,1.4a2.51,2.51,0,0,0-1.7,2.1,12.7,12.7,0,0,1,3.7,1.8c.7.6,1.4.3,2-.3a8.88,8.88,0,0,1,2.2-1.6c1.7-.7,2.6-.1,2.4,1.7C503.3,488.2,503.1,488.9,502.9,489.5Z" transform="translate(85.4 61.1)"/><path id="Trazado_3447" data-name="Trazado 3447" class="cls-4" d="M570.1,471.1c.1.2.1.3.2.5s-.1.5-.1.7a30.61,30.61,0,0,0-8.6,10.3,18,18,0,0,1-5.3,6.9c-.8-.3-1.7,1-2.4-.1,1.7-1.3,1.7-1.3.8-3-1.2-2.4-2.4-4.9-3.6-7.3a6.54,6.54,0,0,0-4-3.8,6.17,6.17,0,0,1-4.8-5.6,87.45,87.45,0,0,0-4.4-16.9,7.15,7.15,0,0,1,.7-6.2c.9-1.6,1.7-3.2,2.7-4.7a7.63,7.63,0,0,0,1-6.4c-1-3.7.6-6.7,2.7-9.5.8.5.5,1,.3,1.4-.4.7-.8,1.5-1.2,2.2a6.32,6.32,0,0,0-.8,5.2A8.88,8.88,0,0,1,542,443a11.78,11.78,0,0,1-1.1,1.9c-2.6,3.2-2.5,6.5-1.1,10.2a64.44,64.44,0,0,1,3.5,14.4,5,5,0,0,0,3.8,4.6,8.4,8.4,0,0,1,5.3,5.1c.9,2.2,2,4.3,3.1,6.4.9,1.8,1.5,1.8,2.7.1a33.71,33.71,0,0,0,1.9-3.2c2.1-4.5,5.6-7.7,9-11A6.89,6.89,0,0,1,570.1,471.1Z" transform="translate(85.4 61.1)"/><path id="Trazado_3448" data-name="Trazado 3448" class="cls-4" d="M481.2,445.2l-1.5.3-1.4-.1c2.5-2,5.5-3.3,8.2-4.9,2.1-1.2,3.4-2.6,3.4-5.2,0-1.4.2-2.8.2-4.2a7.1,7.1,0,0,1,2.2-5.3,28.19,28.19,0,0,0,7.9-14.3c.6-2.6,1.3-5.1,1.9-7.7.1-.4.2-.9.7-.8.7.1.6.7.4,1.1-1.5,5.9-2.3,12-5.8,17.2a4.42,4.42,0,0,0-.6,1.6.76.76,0,0,0-.2.4c.2.3.4.1.5,0a14.39,14.39,0,0,0,5.9-3l9.1-6.4a19.59,19.59,0,0,1,7.7-3.3,78.1,78.1,0,0,0,9.5-2.5c.4-.1.9-.3,1.1.2s-.3.8-.7,1a71.69,71.69,0,0,1-9.1,2.4,21.23,21.23,0,0,0-8.3,3.6c-3.1,2.3-6.3,4.4-9.5,6.7a18.34,18.34,0,0,1-6,2.8c-4.2,1.1-5.8,3.3-5.8,7.7v3.2a5.65,5.65,0,0,1-3.1,5.3c-1.8,1.1-3.6,2-5.4,3a1.24,1.24,0,0,0-1.4,1.1C481.2,445.1,481.2,445.1,481.2,445.2Z" transform="translate(85.4 61.1)"/><path id="Trazado_3449" data-name="Trazado 3449" class="cls-4" d="M516,369a.88.88,0,0,0-.7.1,6.47,6.47,0,0,0-.8.9c-2.7,3.1-5.5,6.1-9.6,7.5a8.55,8.55,0,0,0-4,3.5,11.25,11.25,0,0,1-3.8,3.4,19.5,19.5,0,0,1-6.2,2.4,6.69,6.69,0,0,0-5.6,4.6c-.7,2-2.2,2.7-4.2,2.8-5.6.3-9.7,2.8-11.6,8.3-.2.5-.5,1.1-.7,1.6l1.6-.1a1.61,1.61,0,0,1,.4-.7A7.13,7.13,0,0,1,474,398a13,13,0,0,1,8-2.8,4,4,0,0,0,4.2-2.8c.1-.2.2-.3.2-.4a5.57,5.57,0,0,1,4.9-4l1.2-.3c3.5-1.2,6.9-2.5,9.1-5.6a12.64,12.64,0,0,1,5.7-4.5c3.9-1.6,6.3-4.9,8.9-8a.61.61,0,0,0,0-.8C516.1,369.1,516.1,369.1,516,369Z" transform="translate(85.4 61.1)"/><path id="Trazado_3450" data-name="Trazado 3450" class="cls-10" d="M395.3,438.5c-.9-.7-1.9-.4-2.9-.6.3-.9,1.9-1.1,1.7-2.4a7.79,7.79,0,0,0,4,.5c-.4.8-1.7.8-1.5,2h0C396,437.7,395.6,438.1,395.3,438.5Z" transform="translate(85.4 61.1)"/><path id="Trazado_3451" data-name="Trazado 3451" class="cls-10" d="M392.1,438c-.4,1.7.9,1.2,1.9,1.2-.6,1.1-1.8.9-2.3,1.7a1.61,1.61,0,0,0-1.1.5,21.75,21.75,0,0,0-.1-2.5A5.07,5.07,0,0,1,392.1,438Z" transform="translate(85.4 61.1)"/><path id="Trazado_3452" data-name="Trazado 3452" class="cls-4" d="M380.2,356.4c.3.6,1,1.1.7,1.9-1.2-.2-1.7.8-2,1.6-.7,2-2.3,2.6-4.2,2.9s-2.4.8-2,2.7a4.32,4.32,0,0,0,1.3,2.6c1.8,1.7,3.5,3.8,6.5,3.3a9.74,9.74,0,0,1,2.4.2c2.5.2,4.5-.4,5.9-2.7a14.7,14.7,0,0,1,3.8-4.8,4.32,4.32,0,0,0,1.8-4.7h1.1a3.36,3.36,0,0,0,.2,2.2c.8.3,1.4-.2,2.1-.2a3.94,3.94,0,0,0,3.6-2.9c.2-.5.4-1.1.6-1.6,1,.4.7,1.3.7,2a7.7,7.7,0,0,1-5.8,3.7c-2,.2-3.5,1.7-4.8,3.3-1,1.3-1.9,2.7-2.9,4a6.15,6.15,0,0,1-5.4,2.8h-5a2.17,2.17,0,0,0,1.5,2.3,5.23,5.23,0,0,1,3.5,4.1c.4,1.3,1,2.2,2.5,2.2,2.1,0,2.2,0,2.6-2.2.4-2.8,1.9-3.6,4.5-2.2,1,.5,2,1.1,3,1.7,1.9,1.1,2.6,2.9,1.3,4.8-1,1.6-1.1,2.7.1,4.2a1.54,1.54,0,0,1,0,2.1,2.09,2.09,0,0,1-.6.4c-.7.3-1.8.1-2.2,1a6.87,6.87,0,0,0-.2,3.2c.8.3,1.2-.4,1.7-.7a14.7,14.7,0,0,1,4-1.9c2.5-.6,4.2.8,4.1,3.4-.1,1.4-.9,2.6-1.4,3.9h0l-.6.2c-.4-.6-1.2-.4-1.7-.7a10.11,10.11,0,0,0,1.6-3.3c.2-1.1-.3-1.5-1.3-1.5a5.77,5.77,0,0,0-3.3,1.4,34.56,34.56,0,0,1-5.2,3.2l-.5-.5c.3-.6.9-1,.7-2a25.41,25.41,0,0,1-.1-3.9,2.68,2.68,0,0,1,1.8-3.1c.5-.2.8-.6.6-1.1a4.12,4.12,0,0,1,.8-4.8,1.42,1.42,0,0,0-.1-2c-.1-.1-.3-.2-.4-.3-1.1-.6-2.2-1.2-3.3-1.7-.7-.4-1.1-.1-1.2.6-.1.4,0,.8-.1,1.2-.2,2.1-1.1,2.9-3.1,3.1-3.3.3-4.7-.6-5.8-3.7-.5-1.4-1-2.5-2.6-3a3.14,3.14,0,0,1-1.8-1.6,15.86,15.86,0,0,0-4.4-4.9,7.84,7.84,0,0,1-2.8-6.1,3.48,3.48,0,0,1,2.2-3.2,11.11,11.11,0,0,0,5.5-3.5,2.34,2.34,0,0,1,.7-.7V357Z" transform="translate(85.4 61.1)"/><path id="Trazado_3453" data-name="Trazado 3453" class="cls-4" d="M401.2,398.1c.5.3,1.3.1,1.7.7-.4,1-.7,2-1.1,3a2.31,2.31,0,0,1-2,1.1v-.1a4.85,4.85,0,0,0-.8-2.1c0-.3-.1-.6-.1-.9-.3-1.5-.3-1.5,1.5-1.3.1.4,0,1,.4.9.6-.1.7-.7.5-1.3Z" transform="translate(85.4 61.1)"/><path id="Trazado_3454" data-name="Trazado 3454" class="cls-4" d="M396.1,352.5l-1-.1q2.7-6.75,6-13.2a7.29,7.29,0,0,1,2.6-2.9,4.69,4.69,0,0,0,2.2-3.6l.9-5.1c.6-2.6,1.5-3.4,4.3-3.4h3c2.6-.4,5.2-1,6.3-3.9l1.5.1a8.66,8.66,0,0,1-7.5,4.9,24.32,24.32,0,0,1-2.7,0c-2.6.1-3.3.6-3.8,3.2-.3,1.6-.7,3.2-.9,4.8a5.21,5.21,0,0,1-2.4,3.8,7.9,7.9,0,0,0-2.9,3.6C399.8,344.6,398,348.5,396.1,352.5Z" transform="translate(85.4 61.1)"/><path id="Trazado_3455" data-name="Trazado 3455" class="cls-13" d="M378.4,345.9l2,.2a13.64,13.64,0,0,0,1.3,7.2c-.7.4-1.2.8-1,1.7.1.5,0,.8-.5.9l-.2-.1a5.75,5.75,0,0,0-.8-3.1A14.36,14.36,0,0,1,378.4,345.9Z" transform="translate(85.4 61.1)"/><path id="Trazado_3456" data-name="Trazado 3456" class="cls-10" d="M421.8,320.2l-.1-1.6.9-1a3.61,3.61,0,0,0,.6,2Z" transform="translate(85.4 61.1)"/><path id="Trazado_3458" data-name="Trazado 3458" class="cls-4" d="M420.7,340.9c0,.7.1,1.4.1,2.1-.9-.1-1.3.6-1.8,1.1a11.6,11.6,0,0,1-5.7,3.2c-1.6.5-3.3,1-4.9,1.5-2.3.7-4,1.8-4,4.6,0,.4-.3.7-.5,1.1l-1.4.4c.4-3.7,2.1-6.4,6-7.3a30.18,30.18,0,0,0,5.1-1.6c1.2-.4,2.6-.7,3.2-2h0a.47.47,0,0,0,.5-.5h0c1.5-.2,1.7-1.4,1.6-2.5s-.6-2.1-2-1.9c-.1-.4.5-.8,0-1.2.5-3.3,2.7-5.4,5-7.5.5-.4.9-1,1.7-.5.1.9-.6,1.1-1,1.6-1.1,1.1-2.2,2.2-3.2,3.4-1.3,1.5-1.3,2.3-.2,3.9A21.17,21.17,0,0,0,420.7,340.9Z" transform="translate(85.4 61.1)"/><path id="Trazado_3459" data-name="Trazado 3459" class="cls-4" d="M553.6,490.5a34.33,34.33,0,0,0-5.3,4.8,9.18,9.18,0,0,0-1,11c2.3,3.2,3.1,6.9,3.7,10.6a12.4,12.4,0,0,1-.4,5.4l-.9,3.3c-.6-1.5.3-2.9.3-4.4a23.17,23.17,0,0,0-3.5-14.3,10,10,0,0,1,1-12.1,40.66,40.66,0,0,1,4.1-4.2Z" transform="translate(85.4 61.1)"/><path id="Trazado_3460" data-name="Trazado 3460" class="cls-4" d="M316.3,366.2a.79.79,0,0,1,1.1-.1l.2.2a5.84,5.84,0,0,0,4.8,2.1c2,.1,3.5.9,4,3.2.4,2,2.2,3.4,3.4,5.1a2.09,2.09,0,0,0,.6.4c1.7.3,4.8-2.1,4.8-3.8a4,4,0,0,0-.8-2.3c-.6-1.2-.4-2.2.7-2.3,2.9-.4,3.3-2.5,3.8-4.7a8.77,8.77,0,0,0,.2-3.6h1.5c.2,1.7-.5,3.2-.7,4.9-.4,2.6-1.6,4.4-4.6,4.7a6.87,6.87,0,0,1,.6,1.3c.9,2.3.6,3.4-1.1,5.1a6.44,6.44,0,0,1-2.5,1.5c-1.7.7-1.7.7-1.2,2.6.2,1,.4,1.9.7,2.9.8,2.4-.1,4.2-2,5.6-1.7,1.2-1.6,1.2-.7,3.2.2.4.4.9.6,1.3.9,1.5,1.6,1.8,3.3,1.2a26.51,26.51,0,0,1,6.2-1.4,54.21,54.21,0,0,1,5.7-.1c1.2,0,1.9-.3,1.8-1.7,0-3.9.6-7.9-2.4-11.2a5.56,5.56,0,0,1-.9-1.7,1.06,1.06,0,0,1,.1-1.3c1.9,1.4,2.2,4.1,4,5.6a33.18,33.18,0,0,0,5-13.2,10.66,10.66,0,0,0-1.3-7.6,8,8,0,0,1-1.1-4c0-1.1-.6-1.4-1.5-1.5a.37.37,0,0,1-.3-.1l3.1-.1a10.33,10.33,0,0,0,1.5,6.4,8.07,8.07,0,0,1,1,5.5c-.8,4.8-1.8,9.5-4.5,13.7a8.63,8.63,0,0,0-1.4,4.7v4.4c0,1.9.1,2,2,2,3.3,0,6.6-.2,9.7,1.1.1,0,.3-.2.4-.2h.3v.3c.5.9,1.4.9,2.2,1.1s1.7.2,2.6.4c2,.1,4,.1,6,.2a1.38,1.38,0,0,1-1.3,1c-1.2,0-2.5-.1-3.7-.1a14.31,14.31,0,0,1-7.6-1.6,9.34,9.34,0,0,0-4-.9c-4.2,0-8.4.1-12.6,0a20.74,20.74,0,0,0-8.5,1.3,9.25,9.25,0,0,1-2.9.4,4.67,4.67,0,0,1-2.4-2.2,6,6,0,0,0-4.2-4.7l-7.8-2.1-2-.6c-4.1-.9-6.6-4.5-10.4-5.9a1.33,1.33,0,0,1-.6-.5c-1-2.1-2.5-1.6-4.2-1.1a13.32,13.32,0,0,1-1.9.5.51.51,0,0,1-.7-.5c0-.3.3-.5.5-.8,1.1-.2,2.2-.4,3.3-.7,1.5-.4,2.7-.3,3.5,1.3a2.29,2.29,0,0,0,1.5,1.2l.9.3a18.83,18.83,0,0,1,3.9,2.9,5.72,5.72,0,0,0,1.6,1.1A50.57,50.57,0,0,0,321,387c1.4.7,2.9.7,4.3,1.2.5.4.9,1.1,1.7.5a.76.76,0,0,0,.4-.2.63.63,0,0,0,.6-.5h0c2-1,2.8-2.1,2.4-4a15.88,15.88,0,0,0-1.4-4.7.76.76,0,0,0-.1-.4,12.28,12.28,0,0,0-2.3-4,9.81,9.81,0,0,1-2-3.6,2.16,2.16,0,0,0-2.5-1.8,6.92,6.92,0,0,1-5.8-2.6Z" transform="translate(85.4 61.1)"/><path id="Trazado_3461" data-name="Trazado 3461" class="cls-4" d="M372.8,416.2c-1.6-.5-2.9.7-4.4.7a5.08,5.08,0,0,0-1.7.3c-.4-.4-.6-1.1-1.4-.9l-.1-.1a.37.37,0,0,0,.1-.3l.9-.1h1l1.5-.1c4.3-1.2,8.5-2.7,12.8-3.5A38.06,38.06,0,0,0,397,405l1-.7a.76.76,0,0,1,.9-.1c.4.3.2.7,0,1.1a1.85,1.85,0,0,0-.2.7,1.37,1.37,0,0,1-.8.5,2.74,2.74,0,0,0-2.2.9,29.48,29.48,0,0,1-12.6,5.7,60.54,60.54,0,0,0-7.3,2c-.7.2-1.7.3-1.9,1.3Z" transform="translate(85.4 61.1)"/><path id="Trazado_3462" data-name="Trazado 3462" class="cls-4" d="M345,410.8a7.4,7.4,0,0,0,3.2,2.6,6.34,6.34,0,0,1,3,2.1c.5.9,1.4.7,2.2.7h11.9l.1.1c-.3.6.2,1.4-.5,1.8-.3-1.2-1.3-.8-2-.8H345l-.9-1,5.8-.2c-.6-1.3-1.8-1.5-2.6-2a8.32,8.32,0,0,1-4.4-4.8c-.1-.3-.2-.7.3-.8s.6.2.9.4A1.74,1.74,0,0,0,345,410.8Z" transform="translate(85.4 61.1)"/><path id="Trazado_3463" data-name="Trazado 3463" class="cls-4" d="M340.1,416.3a3.75,3.75,0,0,1-.1,1,6.2,6.2,0,0,1-4.3-2.5,5.27,5.27,0,0,0-4.3-2.5c-1.1-.1-2.3-.3-3.4-.5a4.88,4.88,0,0,1-4.2-4.2c-.1-.4-.1-.9.4-1,.3,0,.6.3.8.4a.76.76,0,0,0,.1.4,2.28,2.28,0,0,0,1,2.1,1.89,1.89,0,0,0,1.9.9c1,.6,2,.4,3.1.5.1.1.2.1.4,0l.6.3a7.72,7.72,0,0,0,1.5.2,9.19,9.19,0,0,1,3.4,3.1C337.7,415.6,339,415.8,340.1,416.3Z" transform="translate(85.4 61.1)"/><path id="Trazado_3464" data-name="Trazado 3464" class="cls-14" d="M369.8,436.6l-.4-.6Z" transform="translate(85.4 61.1)"/><path id="Trazado_3465" data-name="Trazado 3465" class="cls-14" d="M366.9,433a2.19,2.19,0,0,1,.3-.5Z" transform="translate(85.4 61.1)"/><path id="Trazado_3466" data-name="Trazado 3466" class="cls-4" d="M359.6,344a8.7,8.7,0,0,1-2.1,1.7c-3.6,2.5-6.3,5.5-6.4,10.1H350c0-4.4,2.3-7.6,5.7-10.1l2-1.4A2.19,2.19,0,0,1,359.6,344Z" transform="translate(85.4 61.1)"/><path id="Trazado_3467" data-name="Trazado 3467" class="cls-10" d="M402.9,312.8c.2.1.4.3.6.4s.4.6,0,.8-.5-.2-.6-.5a.85.85,0,0,0,0-.7Z" transform="translate(85.4 61.1)"/><path id="Trazado_3468" data-name="Trazado 3468" class="cls-15" d="M397.4,285.9c-.1-.1-.3-.2-.3-.3a.3.3,0,0,1,.2-.4h.2a.32.32,0,0,1,.3.3C397.9,285.8,397.7,285.9,397.4,285.9Z" transform="translate(85.4 61.1)"/><path id="Trazado_3469" data-name="Trazado 3469" class="cls-14" d="M497.1,423.3c-.2.2-.4.3-.5,0,0-.1.1-.2.2-.4A1.38,1.38,0,0,0,497.1,423.3Z" transform="translate(85.4 61.1)"/><path id="Trazado_3470" data-name="Trazado 3470" class="cls-9" d="M386.8,439.1l1.1.3c0,.1.1.1.1.2.3.5,1.2.7.9,1.5-.1.3-.5.4-.8.4-.8,0-1.1-.6-1.3-1.2A1.26,1.26,0,0,1,386.8,439.1Z" transform="translate(85.4 61.1)"/><path id="Trazado_3471" data-name="Trazado 3471" class="cls-16" d="M379,356.6v0Z" transform="translate(85.4 61.1)"/><path id="Trazado_3472" data-name="Trazado 3472" class="cls-4" d="M400.4,398.6l.9-.3c.2.6.2,1.2-.5,1.3C400.4,399.6,400.4,398.9,400.4,398.6Z" transform="translate(85.4 61.1)"/><path id="Trazado_3473" data-name="Trazado 3473" class="cls-4" d="M399.9,403c-1.1-.4-1-1.3-.8-2.1A6.56,6.56,0,0,1,399.9,403Z" transform="translate(85.4 61.1)"/><path id="Trazado_3474" data-name="Trazado 3474" class="cls-4" d="M358.6,356.4c-.1,2.1-.1,2.1,1.9,2.4.4.1,1.1-.1,1.1.6s-.7.5-1.2.5c-2.7,0-3-.4-3-3.4Z" transform="translate(85.4 61.1)"/><path id="Trazado_3475" data-name="Trazado 3475" class="cls-4" d="M375.6,399.8c0-.5.1-.9.1-1.4,2.5,1.2,4.9.1,7.4-.1.2,0,.4-.3.5-.5.9-1.4.6-4.9-.5-6.4-.5-.4-.3-1-.5-1.5l.2-.1c1.9.4,2.2,1.9,2.4,3.5.1,1.2-.5,2.4.4,3.6-1,.9-1,2.2-1.1,3.4-.4-.9-1-1-1.9-.8a22.47,22.47,0,0,1-5.2.7A5.84,5.84,0,0,0,375.6,399.8Z" transform="translate(85.4 61.1)"/><path id="Trazado_3476" data-name="Trazado 3476" class="cls-15" d="M375.6,399.8a2.62,2.62,0,0,1,1.7.5l-1.7-.1C375.5,400.1,375.6,400,375.6,399.8Z" transform="translate(85.4 61.1)"/><path id="Trazado_3477" data-name="Trazado 3477" class="cls-4" d="M381.6,391.1c.1-.6.3-1.1,1-1.1.2.5,0,1.1.5,1.5,0,.8-.1,1.6-.1,2.4l-1.3.1A9.52,9.52,0,0,1,381.6,391.1Z" transform="translate(85.4 61.1)"/><path id="Trazado_3478" data-name="Trazado 3478" class="cls-10" d="M372.2,395.4l.6-1a3.22,3.22,0,0,1,.9,2.6,5.64,5.64,0,0,1-2-1.1Z" transform="translate(85.4 61.1)"/><path id="Trazado_3479" data-name="Trazado 3479" class="cls-10" d="M381.7,394l1.3-.1C382.6,394.6,382.1,394.5,381.7,394Z" transform="translate(85.4 61.1)"/><path id="Trazado_3482" data-name="Trazado 3482" class="cls-8" d="M569.8,413.4a.91.91,0,0,0,.7.3,2.35,2.35,0,0,1,.8.2c-.1.1-.2,0-.3,0a2.35,2.35,0,0,0-.8-.2" transform="translate(85.4 61.1)"/><path id="Trazado_3483" data-name="Trazado 3483" class="cls-8" d="M570.2,413.9l.9.3" transform="translate(85.4 61.1)"/><path id="Trazado_3484" data-name="Trazado 3484" class="cls-13" d="M552.2,490.7a2.84,2.84,0,0,0,1.2-.4,8.65,8.65,0,0,0,1-.7c.5-.3,1.2-.4,1.7-.7" transform="translate(85.4 61.1)"/><path id="Trazado_3485" data-name="Trazado 3485" class="cls-13" d="M569.6,472.2a10,10,0,0,1,2.1-2" transform="translate(85.4 61.1)"/><path id="Trazado_3486" data-name="Trazado 3486" class="cls-4" d="M500.5,490.8a3.38,3.38,0,0,1,.6-1.2" transform="translate(85.4 61.1)"/><path id="Trazado_3487" data-name="Trazado 3487" class="cls-4" d="M501.1,489.6h0" transform="translate(85.4 61.1)"/><path id="Trazado_3488" data-name="Trazado 3488" class="cls-13" d="M501,491.2l.4-.6a.52.52,0,0,0,.2-.4c.1-.2.1-.4.2-.6l.4-.4a8,8,0,0,1-.8,1.6" transform="translate(85.4 61.1)"/><path id="Trazado_3489" data-name="Trazado 3489" class="cls-4" d="M398.8,291a16,16,0,0,0-.5,2.1,12.75,12.75,0,0,1-.1,2c-.3,1.1-1.2,2-1.2,3.2" transform="translate(85.4 61.1)"/><path id="Trazado_3490" data-name="Trazado 3490" class="cls-8" d="M393,296.3v.9c0,.1,0,.2.1.2s.1.1.2.1c1.1.4,2.4.2,3.5.7" transform="translate(85.4 61.1)"/><path id="Trazado_3491" data-name="Trazado 3491" class="cls-4" d="M392.7,295.9a3.18,3.18,0,0,1,1.2,1.1c.1.1.1.2.2.3a.37.37,0,0,0,.3.1,11.63,11.63,0,0,0,1.8.4" transform="translate(85.4 61.1)"/><path id="Trazado_3492" data-name="Trazado 3492" class="cls-17" d="M397.4,297.8a.76.76,0,0,1,.2-.5c.1-.3.2-.5.3-.8s.2-.5.3-.7a1.7,1.7,0,0,0,.1-.7" transform="translate(85.4 61.1)"/><path id="Trazado_3493" data-name="Trazado 3493" class="cls-8" d="M384.9,439.2l2.3.6c.2,0,.3.1.5.1h2" transform="translate(85.4 61.1)"/><path id="Trazado_3494" data-name="Trazado 3494" class="cls-8" d="M389.8,440a1.38,1.38,0,0,1,.4-.3l1.6-.5a1.45,1.45,0,0,0,1-.7" transform="translate(85.4 61.1)"/><path id="Trazado_3495" data-name="Trazado 3495" class="cls-8" d="M392.8,438.3c-.1.1-.2.2-.3.2" transform="translate(85.4 61.1)"/><path id="Trazado_3496" data-name="Trazado 3496" class="cls-8" d="M395.9,437.8h-.5a.9.9,0,0,0-.5.1c-.2.1-.3.4-.5.6s-.3.2-.5.3a2.51,2.51,0,0,1-.7.4v-.3a4.05,4.05,0,0,1,.5-.9" transform="translate(85.4 61.1)"/><path id="Trazado_3497" data-name="Trazado 3497" class="cls-8" d="M385.5,440.2a2.2,2.2,0,0,0,1.2.5,5.7,5.7,0,0,0,1.3.1h.9a3.4,3.4,0,0,0,2-.3" transform="translate(85.4 61.1)"/><path id="Trazado_3498" data-name="Trazado 3498" class="cls-8" d="M385.1,440.3c.2.1.4.1.6.2" transform="translate(85.4 61.1)"/><path id="Trazado_3503" data-name="Trazado 3503" class="cls-8" d="M422.9,318.3l1.2-1.3a2.18,2.18,0,0,0,.4-.5,1.88,1.88,0,0,0,.2-.8,14.73,14.73,0,0,0,.8-2.8" transform="translate(85.4 61.1)"/><path id="Trazado_3504" data-name="Trazado 3504" class="cls-13" d="M420.6,342.2a8.76,8.76,0,0,1,2.4-2.3,5.5,5.5,0,0,0,.9-.7,2.09,2.09,0,0,0,.4-.6c.5-.9.9-1.8,1.4-2.8l-1,2.3" transform="translate(85.4 61.1)"/><path id="Trazado_3505" data-name="Trazado 3505" class="cls-13" d="M425.1,337.9l.3-.3" transform="translate(85.4 61.1)"/><path id="Trazado_3506" data-name="Trazado 3506" class="cls-4" d="M425.4,337.6a.91.91,0,0,1-.3.7" transform="translate(85.4 61.1)"/><path id="Trazado_3507" data-name="Trazado 3507" class="cls-13" d="M425.7,335.1v.6" transform="translate(85.4 61.1)"/><path id="Trazado_3508" data-name="Trazado 3508" class="cls-8" d="M417.4,339.1l.3,1.2a4.87,4.87,0,0,0,.4,1.1,1.56,1.56,0,0,0,.8.8,3.35,3.35,0,0,0,0-1,14.16,14.16,0,0,0-.7-2.2" transform="translate(85.4 61.1)"/><path id="Trazado_3509" data-name="Trazado 3509" class="cls-8" d="M431.2,356.6a3.84,3.84,0,0,0,2.3-1.1l-1.7.6" transform="translate(85.4 61.1)"/><path id="Trazado_3510" data-name="Trazado 3510" class="cls-8" d="M440.2,342a10.55,10.55,0,0,1,.6-2.4,6.63,6.63,0,0,1,.9-1.9.86.86,0,0,1-.3.6,4.7,4.7,0,0,0-.8,2.6,8.22,8.22,0,0,0,.2,2.7,2.83,2.83,0,0,1-.7-2.1,8.08,8.08,0,0,1,.7-2.2l.8-1.8" transform="translate(85.4 61.1)"/><path id="Trazado_3511" data-name="Trazado 3511" class="cls-8" d="M428.8,359.2l.6-.6c.1-.1.1-.2.2-.2a1,1,0,0,1,.5-.4" transform="translate(85.4 61.1)"/><path id="Trazado_3512" data-name="Trazado 3512" class="cls-8" d="M465.2,355.6l-.3.1a.1.1,0,0,0-.1.1,1,1,0,0,0-.5.4c-.1.1-.2.1-.3.3.2-.1.3-.1.5-.2s.1,0,.2-.1.2-.1.3-.2a.52.52,0,0,0,.2-.4" transform="translate(85.4 61.1)"/><path id="Trazado_3513" data-name="Trazado 3513" class="cls-8" d="M399.6,315.4a4.05,4.05,0,0,0,.9-.5l1-.7a6.47,6.47,0,0,0,.9-.8c.2-.2.4-.6.7-.5" transform="translate(85.4 61.1)"/><path id="Trazado_3514" data-name="Trazado 3514" class="cls-13" d="M403.5,312.4c-.4.3-.9.4-1.2.7l-.2.2-.6.3a3.92,3.92,0,0,0-1,.8c-.1.1-.3.2-.4.3l-.2.2a2.07,2.07,0,0,0-.6,1" transform="translate(85.4 61.1)"/><path id="Trazado_3515" data-name="Trazado 3515" class="cls-8" d="M395.8,352.5l-.5,1.8-.3,1.2a16.15,16.15,0,0,0-.2,3.1,12.41,12.41,0,0,0,.3,2.7" transform="translate(85.4 61.1)"/><path id="Trazado_3516" data-name="Trazado 3516" class="cls-13" d="M402.8,357.2a1.92,1.92,0,0,1,.4-1.2,1.29,1.29,0,0,0,.1-1.2l-.3.6a3.23,3.23,0,0,0-.3,1.7" transform="translate(85.4 61.1)"/><path id="Trazado_3517" data-name="Trazado 3517" class="cls-13" d="M403.3,354l-.6,1.6" transform="translate(85.4 61.1)"/><path id="Trazado_3518" data-name="Trazado 3518" class="cls-13" d="M380.7,357.3a7.87,7.87,0,0,0,.8-3" transform="translate(85.4 61.1)"/><path id="Trazado_3519" data-name="Trazado 3519" class="cls-13" d="M381.1,353.6c0,.2.1.3.1.4" transform="translate(85.4 61.1)"/><path id="Trazado_3520" data-name="Trazado 3520" class="cls-13" d="M380.8,355.9a3.75,3.75,0,0,0-1.2.7" transform="translate(85.4 61.1)"/><path id="Trazado_3521" data-name="Trazado 3521" class="cls-8" d="M421.7,319.8c.2-.1.3-.2.5-.3s.2-.3.4-.4a2.19,2.19,0,0,1,.5-.3c-.1.1-.3.3-.3.4s-.1.1-.1.2-.3.2-.4.3a2.92,2.92,0,0,1-.9.2" transform="translate(85.4 61.1)"/><path id="Trazado_3522" data-name="Trazado 3522" class="cls-13" d="M417.3,338.3a1.7,1.7,0,0,0,.1.7" transform="translate(85.4 61.1)"/><path id="Trazado_3525" data-name="Trazado 3525" class="cls-8" d="M335.2,323.1c.1-.5.2-1,.3-1.4a5.24,5.24,0,0,0,.3-2.5" transform="translate(85.4 61.1)"/><path id="Trazado_3526" data-name="Trazado 3526" class="cls-8" d="M334.9,322.7s.1-.1.1,0a.1.1,0,0,1,.1.1l.2.3.2.2c.1,0,.1,0,.2.1h-.2" transform="translate(85.4 61.1)"/><path id="Trazado_3528" data-name="Trazado 3528" class="cls-8" d="M336.1,317.9a1.39,1.39,0,0,0-.2,1.1" transform="translate(85.4 61.1)"/><path id="Trazado_3530" data-name="Trazado 3530" class="cls-4" d="M618.2,356.7h2.1l1.5,7.5c.5,2.4,1.1,2.9,3.5,2.9s4.8.1,7.2.3a5.29,5.29,0,0,1,5.1,3.6,13.65,13.65,0,0,0,4.1,5.4c1.7,1.4,3.3,2.7,5,4a6.41,6.41,0,0,0,4.6,1.5,74,74,0,0,0,8.1-.8c3.9-.7,7.2.1,9.8,3.2a31.21,31.21,0,0,0,10.6,7.6c3.4,1.6,6.7,3.3,10,4.9,2.4,1.2,3.9,3.1,3.6,5.9-.4,3.4,1.1,5.9,3.8,7.8a10.08,10.08,0,0,1,4.6,9.8c-.1,1.5,0,3,0,4.4a6.92,6.92,0,0,0,1.8,4.7c2,2.4,4.1,4.8,6.1,7.2.1,5.6.2,11.2,0,16.8a6,6,0,0,1-1.7-4.7v-8.2a7.38,7.38,0,0,0-2.2-5.6c-1.4-1.4-2.6-3-3.9-4.4a9.85,9.85,0,0,1-2.3-6.4v-5.9a5.63,5.63,0,0,0-2.4-4.9c-.8-.6-1.4-1.4-2.2-2a8.67,8.67,0,0,1-3.6-8c.3-2.5-1-4-3.1-5-3.9-1.8-7.7-3.8-11.5-5.6a31.63,31.63,0,0,1-9.2-7c-2-2-4.1-3-7-2.5-3.1.5-6.2.5-9.3.7a7.49,7.49,0,0,1-5.7-1.9c-1.8-1.5-3.7-3-5.6-4.5a12.06,12.06,0,0,1-3.9-5.3,4,4,0,0,0-4.4-2.8c-2.1.1-4.3,0-6.4-.1-3.4-.2-4.7-1.4-5.4-4.6C619.3,362,618.7,359.4,618.2,356.7Z" transform="translate(85.4 61.1)"/><path id="Trazado_3531" data-name="Trazado 3531" class="cls-4" d="M619.8,355.7h-2c-.5-2.9-2.3-4.4-5.1-5s-5.6-1.4-8.4-2a8.35,8.35,0,0,1-4.6-2.7,16.63,16.63,0,0,1-3.7-10c0-1.2-.1-2.5,0-3.7.2-3.7-3.1-6.2-6.4-4a8.73,8.73,0,0,1-5.7,1.2c-3.4-.4-5.4-2.2-5.8-5.7-.2-1.4-.3-2.8-.6-4.1s-.2-2.8-.9-4.1a6.82,6.82,0,0,0-5.4-3,17.7,17.7,0,0,1,.1-2.3,5.73,5.73,0,0,1,1.4.4c4.6,1.4,6.3,3.5,6.8,8.3.1,1.4.4,2.8.5,4.1.5,3.4,2.8,5,6.1,4.3a13.32,13.32,0,0,0,2.8-1c4.8-2.6,9.1.8,9.3,5.7a32.29,32.29,0,0,1,0,4.4c-.1,3,1.1,5.4,2.7,7.8a6.14,6.14,0,0,0,3.8,2.5c2.9.7,5.7,1.5,8.6,2.1A7.27,7.27,0,0,1,619.8,355.7Z" transform="translate(85.4 61.1)"/><path id="Trazado_3532" data-name="Trazado 3532" class="cls-4" d="M468.3,218.6a5.64,5.64,0,0,1,.4,1.2c-.1,1.9.2,3.3,2.3,3.9,1.1.3,1.6,1.6,2,2.7.7,1.6,1.3,3.2,2,4.8a3.79,3.79,0,0,0,3.3,2.5c5.3.4,8.5,4.1,11.6,7.7,1.8,2.1,1.5,5,2,7.5.1.6.1,1.2.2,1.7a2.66,2.66,0,0,0,2.4,2.2l7.1.9a8.8,8.8,0,0,0,4.8-.9,68,68,0,0,1,10.4-4.5,9.13,9.13,0,0,0,3.7-2.4c4.4-3.7,9.4-5.7,15.3-4.1,1,.3,2.1.5,3.1.8a4,4,0,0,1,3.3,3.6,15.43,15.43,0,0,1-.4,6.4,6.59,6.59,0,0,1-2.5,3.6,4.25,4.25,0,0,0-1.9,5.5,27.27,27.27,0,0,1,1,4.1,6.09,6.09,0,0,0,3,4.3,8.18,8.18,0,0,1,4.1,5.8,23.31,23.31,0,0,1,.8,5.9,8.89,8.89,0,0,0,.7,3.6c1.1,2.8,2.7,3.8,5.7,3.9h5.4a7.56,7.56,0,0,1,5.5,2.4,5.24,5.24,0,0,1,1.7,5.4,16.2,16.2,0,0,0,.2,9.5c.9,3.3,1,3.5,4.5,3.6v1.9h-2a4.17,4.17,0,0,1-4-3.1c-1.1-3.7-2-7.4-1-11.4.9-3.6-1.2-6-5-6.3-1.6-.1-3.3,0-4.9,0-5.4,0-8.6-3.1-8.8-8.5a37.39,37.39,0,0,0-.9-6.6,6.1,6.1,0,0,0-2.9-4.1,8.66,8.66,0,0,1-4.3-6.3c-.3-1.5-.7-3-1.1-4.6-.5-2.3-.2-4.4,1.8-5.8,3.2-2.2,3.2-5.3,3.1-8.6a2.35,2.35,0,0,0-1.9-2.3c-6-2.1-11.5-1.5-16.3,2.9a12.15,12.15,0,0,1-4.6,2.8,45.85,45.85,0,0,0-8.8,3.8,13.45,13.45,0,0,1-7.9,1.6c-2-.2-3.9-.4-5.9-.7-3.1-.5-4.2-1.7-4.7-4.8-.2-1.2-.4-2.4-.5-3.7a8.06,8.06,0,0,0-3.4-6.3,27.46,27.46,0,0,1-2.6-2.2,8.15,8.15,0,0,0-5.1-2.2,5.59,5.59,0,0,1-5.3-3.8c-.7-1.7-1.4-3.3-2.2-5-.8-1.9-1.4-2.2-3.4-2.2a12.41,12.41,0,0,0-2.7.3,12.94,12.94,0,0,1-9.8-1.3,10,10,0,0,0-9.9-.3c-2,.9-4.3,1.4-5.6,3.3l-.5.5c-2.8,1.6-2.8,1.6-2.9,4.5-.3.2-.5.3-.8.5a10.75,10.75,0,0,1-9.2,3,5.45,5.45,0,0,1,.1-2.2l1.9.3a7.29,7.29,0,0,0,6.9-5.2,5.9,5.9,0,0,1,2.5-3.3,43.9,43.9,0,0,1,8.2-3.9,9.69,9.69,0,0,1,9.2.5c3.5,2.1,7.3,2.2,11.2,1.4a1.52,1.52,0,0,0,1.5-1.4v-1.2C467.8,219.6,467.7,219,468.3,218.6Z" transform="translate(85.4 61.1)"/><path id="Trazado_3534" data-name="Trazado 3534" class="cls-4" d="M357.3,356.6l.4-.9h1.2l-.3.9Z" transform="translate(85.4 61.1)"/><path id="Trazado_3535" data-name="Trazado 3535" class="cls-4" d="M379.9,346.4v1.3h-1.3s0,.4-.4-1.8-1.8-.9-1.8-.9a11.4,11.4,0,0,1-5.8,0,5.12,5.12,0,0,0-4.9.9l-.9-.4a4.53,4.53,0,0,1-3.6-2.2" transform="translate(85.4 61.1)"/><path id="Trazado_3536" data-name="Trazado 3536" class="cls-13" d="M361.3,343.3a3.1,3.1,0,0,0-1.8.9l-1.8,1.3-.4-.9s1.8-1.8,2.7-1.8c0,0,.9-.4.4-1.8v-6.2h1.8s-.4,7.1,0,7.6a4.77,4.77,0,0,0,3.1,1.3c1.3,0,4.4-.9,6.7,0s5.3-.9,5.3-.9,2.7-.4,2.7,1.3.9.9.9.9l1.8-1.3.4.9s-3.1,1.3-3.1,1.8" transform="translate(85.4 61.1)"/><path id="Trazado_3537" data-name="Trazado 3537" class="cls-13" d="M382.6,344.3a3.75,3.75,0,0,1,1.7-1.6,3.69,3.69,0,0,0,1.4-.7c.2-.3.4-.5.6-.8a4.5,4.5,0,0,1,1.9-1.4" transform="translate(85.4 61.1)"/><path id="Trazado_3538" data-name="Trazado 3538" class="cls-13" d="M382,344.7c-.6.1-1,.6-1.5.9-.1.1-.2.1-.3.2a1.16,1.16,0,0,0-.5.7c-.1.3-.1.6-.2.9" transform="translate(85.4 61.1)"/><path id="Trazado_3539" data-name="Trazado 3539" class="cls-13" d="M364.4,343.9l.5-.3c.1-.1.3-.1.4-.2h.4a2.83,2.83,0,0,1,1.8.4" transform="translate(85.4 61.1)"/><path id="Trazado_3540" data-name="Trazado 3540" class="cls-13" d="M367.6,345.3a2.72,2.72,0,0,0-.9,0,2.92,2.92,0,0,1-.9.2" transform="translate(85.4 61.1)"/><path id="Trazado_3543" data-name="Trazado 3543" class="cls-8" d="M340.3,416.6a17.9,17.9,0,0,1,4,.2" transform="translate(85.4 61.1)"/><path id="Trazado_3544" data-name="Trazado 3544" class="cls-8" d="M365.5,416.9h.8l-1-.1" transform="translate(85.4 61.1)"/><path id="Trazado_3545" data-name="Trazado 3545" class="cls-8" d="M398.8,404.7l2.3-.4a3,3,0,0,0-1.3.2,2.1,2.1,0,0,0-1.1.8l.3.1" transform="translate(85.4 61.1)"/><path id="Trazado_3546" data-name="Trazado 3546" class="cls-8" d="M426.2,376.6a9.77,9.77,0,0,1-.4,4.5,5.13,5.13,0,0,0-1,2.4" transform="translate(85.4 61.1)"/><path id="Trazado_3547" data-name="Trazado 3547" class="cls-8" d="M425.2,381.1a3,3,0,0,1,.2-1.6c.1-.1.1-.3.2-.4a10.87,10.87,0,0,0,.1-1.8" transform="translate(85.4 61.1)"/><path id="Trazado_3548" data-name="Trazado 3548" class="cls-13" d="M473.4,451.3l1.4-2c.2-.2.3-.4.5-.6s.4-.3.6-.5a12.86,12.86,0,0,0,2.1-1.9,2.76,2.76,0,0,1,1.3-1.1" transform="translate(85.4 61.1)"/><path id="Trazado_3549" data-name="Trazado 3549" class="cls-4" d="M454.2,450.6a3.59,3.59,0,0,1,1.1.2l2.9,1.2c.1,0,.2.1.3.2s0,.4.1.6" transform="translate(85.4 61.1)"/><path id="Trazado_3550" data-name="Trazado 3550" class="cls-8" d="M455,451.2a4.67,4.67,0,0,1,1,.5" transform="translate(85.4 61.1)"/><path id="Trazado_3551" data-name="Trazado 3551" class="cls-13" d="M454.3,450.2a10.88,10.88,0,0,1,2.4.7,10.09,10.09,0,0,1,1.5.7,2.56,2.56,0,0,1,1,1.3" transform="translate(85.4 61.1)"/><path id="Trazado_3552" data-name="Trazado 3552" class="cls-4" d="M482.1,443.6l-.7.4a1.79,1.79,0,0,0-.7.5c0,.1-.1.1-.1.2s-.1.1-.2.1l-.9.3" transform="translate(85.4 61.1)"/><path id="Trazado_3553" data-name="Trazado 3553" class="cls-8" d="M468.2,407.9a2.2,2.2,0,0,0,.9-1.6,11.63,11.63,0,0,1,.4-1.8c-.4,1.4-.8,2.8-1.2,4.1" transform="translate(85.4 61.1)"/><path id="Trazado_3554" data-name="Trazado 3554" class="cls-8" d="M371,396.4c.5.4.7,1.1,1.1,1.5.6.6,1.5.6,2.3.9a7,7,0,0,0,2,.8" transform="translate(85.4 61.1)"/><path id="Trazado_3555" data-name="Trazado 3555" class="cls-8" d="M372,396.1a4.31,4.31,0,0,1,1.7,1.3,14.62,14.62,0,0,0,1.9,1.6" transform="translate(85.4 61.1)"/><path id="Trazado_3556" data-name="Trazado 3556" class="cls-8" d="M372.5,397c.2-.1.3.1.4.2s.2.3.3.3" transform="translate(85.4 61.1)"/><path id="Trazado_3557" data-name="Trazado 3557" class="cls-13" d="M350.5,355.9V357a.9.9,0,0,0,.1-.5" transform="translate(85.4 61.1)"/><path id="Trazado_3558" data-name="Trazado 3558" class="cls-8" d="M425.6,415.8l.2.9c0,.2.1.4.3.4,0-.1,0-.2-.1-.2a4.55,4.55,0,0,1-.5-2v-2.1c-.1-.6-.3-1.2-.4-1.8-.1-1.2-.3-2.4-.5-3.5a12.09,12.09,0,0,1-.5-1.8" transform="translate(85.4 61.1)"/><path id="Trazado_3559" data-name="Trazado 3559" class="cls-8" d="M425.6,411.3a17.23,17.23,0,0,0-.7-2.1,4.18,4.18,0,0,1-.4-1,20,20,0,0,0-.4-2.4" transform="translate(85.4 61.1)"/><path id="Trazado_3560" data-name="Trazado 3560" class="cls-8" d="M423.9,405.6a16,16,0,0,1,1.6,4.8c.1.6.2,1.1.3,1.7l.4,2.6" transform="translate(85.4 61.1)"/><path id="Trazado_3561" data-name="Trazado 3561" class="cls-8" d="M411,417a1.3,1.3,0,0,1-.8,1.2" transform="translate(85.4 61.1)"/><path id="Trazado_3562" data-name="Trazado 3562" class="cls-8" d="M384.6,399.4a.37.37,0,0,0,.1.3c.1,0,.2.1.4.1l1.7-.1h.4a1.42,1.42,0,0,0,.6-.2,31.21,31.21,0,0,1,3.9-1.5,1.42,1.42,0,0,0,.6-.2c.1-.1.2-.2.3-.2s.3-.1.4-.2l.3-.3" transform="translate(85.4 61.1)"/><path id="Trazado_3563" data-name="Trazado 3563" class="cls-13" d="M385.2,397.4a1.34,1.34,0,0,0,1.1,1.5h.3a8.13,8.13,0,0,0,3.1-.2" transform="translate(85.4 61.1)"/><path id="Trazado_3564" data-name="Trazado 3564" class="cls-8" d="M385.6,399.4a1,1,0,0,0-.5-.4c-.1-.1-.3-.2-.3-.3" transform="translate(85.4 61.1)"/><path id="Trazado_3566" data-name="Trazado 3566" class="cls-8" d="M385.5,397.7a1.61,1.61,0,0,1-.5-1.1c0-.2-.1-.4-.1-.6a5.73,5.73,0,0,0,.4,1.4,1.55,1.55,0,0,0,.8,1.1l.6.3" transform="translate(85.4 61.1)"/><path id="Trazado_3567" data-name="Trazado 3567" class="cls-8" d="M394.7,435.9c1.2-.5,2.5-.7,3.5-1.6a13.58,13.58,0,0,1,1.2-1.2c.7-.5,1.6-.6,2.2-1.3" transform="translate(85.4 61.1)"/><path id="Trazado_3568" data-name="Trazado 3568" class="cls-8" d="M405.6,423.3a4.54,4.54,0,0,1,.3-2.8.76.76,0,0,1,.2-.4c.1-.2.3-.3.4-.4s.4-.3.6-.4l-.8,1.3a.76.76,0,0,0-.2.4v.6a10.87,10.87,0,0,1,.1,1.8" transform="translate(85.4 61.1)"/><path id="Trazado_3569" data-name="Trazado 3569" class="cls-8" d="M394.9,436.8a8.49,8.49,0,0,0,2.2-.9c.3-.2.5-.4.8-.6a9.5,9.5,0,0,1,1.7-1l1.5-.9a4.35,4.35,0,0,0,.7-.6c.4-.5.5-1.2,1.1-1.5" transform="translate(85.4 61.1)"/><path id="Trazado_3570" data-name="Trazado 3570" class="cls-8" d="M396.2,436.4a7.31,7.31,0,0,1,1.6-1.4.6.6,0,0,1-.1.4l-.3.3a11.67,11.67,0,0,1-3.1,1.7h-.2a.1.1,0,0,1-.1-.1.83.83,0,0,1,.3-.8l.4-.4" transform="translate(85.4 61.1)"/><path id="Trazado_3571" data-name="Trazado 3571" class="cls-4" d="M363.9,208.9a18.93,18.93,0,0,0,4.3,7.7c2,2.4,3,4.8,2.1,7.9a5.79,5.79,0,0,0,.2,3.9c1,2.3,2.1,4.7,3.2,7a3,3,0,0,0,3,1.8,12.54,12.54,0,0,1,9.8,3.9c1.4,1.4,2.5,1.3,4.2.2,2-1.4,3.9-2.7,5.8-4.2a6.43,6.43,0,0,1,6.9-.8c2.1,1,2.5.8,3.9-1a28.77,28.77,0,0,1,2.2-2.7,7.59,7.59,0,0,1,6.7-2.3c3.1.3,5.9,1.4,8.8,2.2a3.75,3.75,0,0,1,0,2.1c-2-.6-4-1.1-5.9-1.7a25.58,25.58,0,0,0-2.7-.5,6.38,6.38,0,0,0-6.9,3.2c-.4.6-.8,1.1-1.2,1.6-1.6,1.8-3.2,2.3-5.3,1.2-2.3-1.3-4.2-.8-6.1.7s-3.6,2.6-5.4,3.9c-2.5,1.7-4.1,1.6-6.5-.4-.6-.5-1.3-1-1.9-1.6a6.87,6.87,0,0,0-5-1.8c-3.6.3-6-1.2-7.2-4.7a16.82,16.82,0,0,0-1.6-3.3,11.43,11.43,0,0,1-1-8.1,5.24,5.24,0,0,0-1.2-4.5c-2.2-3-4.8-5.9-5.4-9.8Z" transform="translate(85.4 61.1)"/><path id="Trazado_3572" data-name="Trazado 3572" class="cls-4" d="M286,213c-1.8.7-2.6,2.5-3.7,3.9a17.38,17.38,0,0,1-7.5,5.9,15.8,15.8,0,0,0-5.3,3.5c-2.1,2-4,4.1-6,6.3a4.1,4.1,0,0,0-.8,5c1.1,2.2.3,4.2-1,6-.3.4-.6,1-1.2.5-.4-.3-.1-.8.1-1.1a5,5,0,0,0,1.1-3.9,1.1,1.1,0,0,0-.6-1c-3,2.2-6.5,2.4-10.2,2.3a7.57,7.57,0,0,1-1.5-.1.51.51,0,0,1,0-1,13.4,13.4,0,0,1,2-.1,23.16,23.16,0,0,0,5.9-.5,3.63,3.63,0,0,0,3-2.8c.5-2,1.9-3.6,3.3-5.2,1.2-1.3,2.4-2.5,3.6-3.8a20.53,20.53,0,0,1,7.8-5.5,10.26,10.26,0,0,0,4.7-3.5c1.4-1.7,2.7-3.4,4-5,.5-.6.6-1.1-.1-1.7a4.25,4.25,0,0,1-1.4-2.3c4-.1,3.5-.4,3.6,3.4C286.1,212.5,286,212.8,286,213Z" transform="translate(85.4 61.1)"/><path id="Trazado_3573" data-name="Trazado 3573" class="cls-4" d="M299.4,236.8c0-2.4-1.5-3.9-3.3-5.2a8.78,8.78,0,0,0-2.1-1.2c-2.3-.9-3.6-3-5.3-4.6l.3-1.5a11.17,11.17,0,0,1,1.9-7.5,4.88,4.88,0,0,0,.3-.7,1.39,1.39,0,0,0-.8-2.3c-1.2-.5-2.4-.9-3.7-1.4v-2.1c1.3.5,2.7.9,3.9,1.4,3,1.2,3.6,2.9,2.1,5.9-.7,1.4-1.7,2.6-1.8,4.3a6.18,6.18,0,0,0,3.5,6.5,14.62,14.62,0,0,1,5.3,3.9c1.3,1.6,2.2,3.3,1.4,5.4A2.59,2.59,0,0,0,299.4,236.8Z" transform="translate(85.4 61.1)"/><path id="Trazado_3574" data-name="Trazado 3574" class="cls-4" d="M286.7,332.1a24.69,24.69,0,0,1,6.8-4.8,6,6,0,0,1,5.2-.2,5.4,5.4,0,0,0,4.8-.1,38.65,38.65,0,0,1,8.9-2.9c4.2-1,8-3,11.9-4.7a2.29,2.29,0,0,0,1.4-2.3c.2-2.7-.3-4.9-2.9-6.2a20.28,20.28,0,0,1-1.8-1.3c-2.3-1.7-2.5-3.6-.7-5.9.4-.5,1-.9,1.1-1.6-.7-.4-1.3.1-1.9.1a2.34,2.34,0,0,1-2.7-1.8c0-.2-.1-.4,0-.6-.1-1.5,0-3,0-4.4,0-.8-.2-1.4-1.2-1.4a3.7,3.7,0,0,1-2.4-1.2c-2.1-2-2-3.8.3-5.6.5-.4,1.2-.5,1.6-1.4a5,5,0,0,0-4.7-1c-2.8.5-5.7.9-8.5,1.5a7.72,7.72,0,0,1-7.5-2c-1.6-1.5-1.6-1.4-3.3,0a7.24,7.24,0,0,1-4.5,1.8,4.87,4.87,0,0,1,.1-1.2,6,6,0,0,0,5-2.7c1.3-1.8,1.4-1.8,3.2-.2a9.13,9.13,0,0,0,3.7,2.4c1.6.4,2.1.4,2.8-1.1a36.51,36.51,0,0,1,4.7-6.9,4.89,4.89,0,0,0,1.2-3.7c0-2,.1-4,0-5.9a9.59,9.59,0,0,1,1.5-5.7,4,4,0,0,0,.1-4.8,7.23,7.23,0,0,1-.8-5.9c.6-2.2.2-2.7-2-3.4a.35.35,0,0,1-.2-.1,12,12,0,0,1-8-5.3h3a5,5,0,0,0,3.2,2.5c1.8.7,3.7.9,5.3,2.1.5.4.9,0,1.2-.3,2.2-2.4,4.7-4.6,6.1-7.7a5.8,5.8,0,0,1,4.2-3.4,18,18,0,0,0,10.1-6.3c2.3-2.8,5.8-4.1,9.3-5.1a1.26,1.26,0,0,1-1.2,1.5,21.53,21.53,0,0,0-9.6,6.7c-2.3,2.6-5.6,3.5-8.7,4.4a4.27,4.27,0,0,0-2.8,2.1,32.47,32.47,0,0,1-6,7.8c-.9,1-1.9,1.8-1.5,3.4a2.54,2.54,0,0,1-.2,1.2,5.54,5.54,0,0,0,.6,5,5.58,5.58,0,0,1,0,6.3,9.59,9.59,0,0,0-1.5,5.7c.1,1.5-.1,3,0,4.4a8.85,8.85,0,0,1-2.7,7.1,9.79,9.79,0,0,0-2.8,4.4c1.9.4,3.5-.3,5.2-.6a11.84,11.84,0,0,1,5.9.3,5.71,5.71,0,0,1,2.1,1.3,2.08,2.08,0,0,1-.1,3c-.1.1-.2.2-.3.2a9.5,9.5,0,0,1-1.7,1c-.6.4-1.2.8-1,1.5a1.94,1.94,0,0,0,1.6,1.4h.7c2,.1,2.4.5,2.5,2.5.1,1.6,0,3.1,0,4.7,0,1,.5,1.3,1.4,1.1s1.7-.6,2.6-.8a1.71,1.71,0,0,1,2,.5,1.55,1.55,0,0,1-.3,2c-.9,1.2-1.9,2.3-2.7,3.5-1,1.4-.9,1.7.4,2.8,1,.8,2.1,1.6,3.2,2.4a5.49,5.49,0,0,1,2.3,3.9c.4,2-.2,4.1.6,6.1.3.9.6,1.7.9,2.6a3.18,3.18,0,0,1-2.6-1.7c-.7-1.4-1.6-1.1-2.6-.6a49.22,49.22,0,0,1-13.4,5,2,2,0,0,0-1.9,2.1v.3a13.25,13.25,0,0,1-2,7c-.3.5-.6,1-1.4.8,0-1,.9-1.8,1-2.8a3.38,3.38,0,0,0,.9-2.5l.2-.9a4.14,4.14,0,0,0,.1-2.9,11.6,11.6,0,0,0-4.3,1.8l-.9.2a19.53,19.53,0,0,1-3.4-.3c-2.7-.8-2.9-.7-3.1,2.1v1h0a2.89,2.89,0,0,0-.3,2.4l-.3,3.4h-.8l-.2-1.4a12.1,12.1,0,0,1,.1-1.9l.1-2c.1-1.3.8-2.5.3-3.9a7,7,0,0,0-3.4,1.8,3.31,3.31,0,0,0-1.9,1.4c-1.2.5-1.8,1.6-2.8,2.3A5.31,5.31,0,0,0,286.7,332.1Z" transform="translate(85.4 61.1)"/><path id="Trazado_3575" data-name="Trazado 3575" class="cls-4" d="M285.9,286c-2.2.2-2.6.6-2.8,2.6a10.44,10.44,0,0,0,0,2.5c.1,2.3-1.2,3.7-3,4.7a5.64,5.64,0,0,1-1.2.4c-4.7,1.1-7.5,4.5-9.9,8.3a6.5,6.5,0,0,0-1,4.9c.7,3.2,1.2,6.5,1.7,9.7a3,3,0,0,0,1,1.9l-1.7.2c-.2-1-.5-1.9-.6-2.9s-.7-1.3-1.7-1.3a4.56,4.56,0,0,0-4.4,2.2,89.1,89.1,0,0,0-5.7,9.3c-1.3,2.6-2.7,5.1-4,7.7-.2.4-.5,1-1.1.7s-.3-.8,0-1.3c3-5.4,5.6-11,9.2-16.1,1.5-2.2,3.2-3.7,6-3.7,1,0,1.3-.5,1.1-1.4-.3-1.4-.5-2.7-.8-4.1a8.46,8.46,0,0,1,1.6-7.2c1.2-1.4,2.2-2.9,3.3-4.3.2-.3.7-.7.7-1a16.27,16.27,0,0,0-1.5-5.2c-.8-1.3-2.2-1.2-3.6-1.2h-3a9.93,9.93,0,0,1-8-3.1,5.77,5.77,0,0,0-5.7-1.5,21.35,21.35,0,0,1-4.4.8,5,5,0,0,1-4.4-1.8,6.47,6.47,0,0,1-.8-.9c-1.4-2.5-3.2-3.2-6-2.1a5.07,5.07,0,0,1-5.5-1.1,4.8,4.8,0,0,0-5.2-1.2c-2.9.9-5.1-.7-7-2.6a2.61,2.61,0,0,1-.6-2.8c.9-1.9,0-3.2-1.4-4.2-.2-.1-.4-.3-.6-.4-.4-.4-1.4-.9-.8-1.5.6-.8,1.1.3,1.6.6a14.62,14.62,0,0,1,1.9,1.6,3.2,3.2,0,0,1,1,3.2c-.4,1.2-.8,2.4.4,3.4,1.4,1.1,2.9,2.5,4.9,1.8a6,6,0,0,1,6.8,1.5c1.4,1.3,3.2,1.1,4.9.6,3-.9,4.3-.4,6.1,2a13.44,13.44,0,0,0,1.1,1.4,3.94,3.94,0,0,0,4.4,1.5c1.2-.3,2.4-.4,3.6-.8a6,6,0,0,1,6.2,1.6,10.15,10.15,0,0,0,8.3,3,17.1,17.1,0,0,1,3.2,0,4.18,4.18,0,0,1,4.2,3.1c.5,1.2.1,3.1,1.4,3.5.9.3,2.3-.7,3.4-1.2.4-.1.8-.3,1.2-.4A4.24,4.24,0,0,0,282,291c0-.7.1-1.3.1-2,.1-2.9.8-3.7,3.8-4C286.1,285.1,286.1,285.6,285.9,286Z" transform="translate(85.4 61.1)"/><path id="Trazado_3576" data-name="Trazado 3576" class="cls-4" d="M279.7,404.3a8.33,8.33,0,0,1-4.7-2.5,83,83,0,0,1-5.4-6.4c-2.3-3.1-4.9-4.9-9-4.5a5.48,5.48,0,0,1-5.9-3.6,20.31,20.31,0,0,0-5.3-7c-2.3-2.1-4.7-4.1-7-6.2a7.58,7.58,0,0,1-2.9-5c-.2-1.6-.6-3.2-.8-4.9a9.51,9.51,0,0,0-3.1-5.8,5.51,5.51,0,0,1-1.7-2h-2.1a3,3,0,0,1,.5.7,2.94,2.94,0,0,1,1.2,1,17,17,0,0,0,1.9,1.9,7.68,7.68,0,0,1,2.2,4.6c.2,1.4.3,2.8.6,4.2a10.06,10.06,0,0,0,3.7,6.5c4.9,4.1,10,8,12.8,14.2a4.5,4.5,0,0,0,4.2,2.5h2.7a6.88,6.88,0,0,1,5.8,2.7c2.1,2.5,4.3,5,6.4,7.5a9.18,9.18,0,0,0,5.4,3.2,50.27,50.27,0,0,1,6.7,1.6v-1.4C283.9,405.1,281.8,404.7,279.7,404.3Z" transform="translate(85.4 61.1)"/><path id="Trazado_3579" data-name="Trazado 3579" class="cls-4" d="M274.3,330.7a15.65,15.65,0,0,1,.3,5.3c-.7-.5-.7-1.2-.8-2a19.82,19.82,0,0,0-1.6-5.4,5.85,5.85,0,0,0-1-1.7c-.9-1.1-1.8-1.1-2.6,0a12.81,12.81,0,0,0-2.8,7.8,30.06,30.06,0,0,1-.2,6.7c-.9-1-1.1-3.3-.8-8.5.2-3.1,1.9-5.3,3.6-7.7a7.6,7.6,0,0,0,3.3.5A12.59,12.59,0,0,1,274.3,330.7Z" transform="translate(85.4 61.1)"/><path id="Trazado_3580" data-name="Trazado 3580" class="cls-4" d="M571,530.1l-.7.1h-.1c0-.7.1-1.3.1-2l.6-.1c.1.2.3.3.4.5Z" transform="translate(85.4 61.1)"/><path id="Trazado_3581" data-name="Trazado 3581" class="cls-4" d="M570.3,528.1c0,.7-.1,1.3-.1,2a8.18,8.18,0,0,0-8.5,3.1,41.72,41.72,0,0,1-10.4,9.7c-2.6,1.6-5.6.9-6.1-3.1a7.89,7.89,0,0,1,1.5-4.9,9.7,9.7,0,0,0,1-7.8l2.1-.1a11.91,11.91,0,0,1-1.5,9.2,4.68,4.68,0,0,0-.9,2.8c0,.8-.1,1.7.7,2.3s1.7,0,2.5-.4c3.7-2,6.4-5.1,8.9-8.3a11.89,11.89,0,0,1,10.7-4.8C570.2,527.9,570.3,528,570.3,528.1Z" transform="translate(85.4 61.1)"/><path id="Trazado_3582" data-name="Trazado 3582" class="cls-4" d="M305.6,357.7c-1.3.9-1.9,2.4-2.8,3.7l-.3.3a.9.9,0,0,0-.6.6h0l-.5.5c-.2.3-.4.5-.6.8-.1.1-.1.1-.2.1-.6.3-.9,1.6-1.7.9s.3-1.3.7-1.7c.6-.7.9-1.3.4-2.1.5,0,1.1.1,1.4-.5a8.65,8.65,0,0,0,3-3.8l1-.1a.93.93,0,0,1,.3,1.2Z" transform="translate(85.4 61.1)"/><path id="Trazado_3583" data-name="Trazado 3583" class="cls-14" d="M301.5,362.8l.5-.5Z" transform="translate(85.4 61.1)"/><path id="Trazado_3584" data-name="Trazado 3584" class="cls-14" d="M301.9,362.3a.9.9,0,0,1,.6-.6Z" transform="translate(85.4 61.1)"/><path id="Trazado_3585" data-name="Trazado 3585" class="cls-14" d="M328.2,388a.63.63,0,0,1-.6.5Z" transform="translate(85.4 61.1)"/><path id="Trazado_3586" data-name="Trazado 3586" class="cls-14" d="M332.1,411.1l-.6-.3Z" transform="translate(85.4 61.1)"/><path id="Trazado_3587" data-name="Trazado 3587" class="cls-4" d="M307,351.9a17.25,17.25,0,0,1,6.8-4.5l1,.5c-1,1-2.4,1.4-3.6,2.1-1.7,1.1-3.4,2.2-3.8,4.5h0c-.3.1-.4.3-.5.6a1.69,1.69,0,0,1-1.4.9c-.1-.1-.2-.1-.3-.2A23.22,23.22,0,0,1,307,351.9Z" transform="translate(85.4 61.1)"/><path id="Trazado_3588" data-name="Trazado 3588" class="cls-4" d="M541.2,521.3a5,5,0,0,1,4.9-4.4,3,3,0,0,1,2.8,2.1,4,4,0,0,1,.4,2.1c-.2-.1-.3-.1-.4-.2-2.1-1.8-4.2-2-6.4-.1A3,3,0,0,1,541.2,521.3Z" transform="translate(85.4 61.1)"/><path id="Trazado_3589" data-name="Trazado 3589" class="cls-14" d="M307.4,354.3c0,.4-.3.5-.5.6C307,354.7,307.1,354.4,307.4,354.3Z" transform="translate(85.4 61.1)"/><path id="Trazado_3590" data-name="Trazado 3590" class="cls-4" d="M542.3,520.2a15.94,15.94,0,0,1-.6,3,12.1,12.1,0,0,0-.1,1.9c.4-1.2.1-2.5.2-3.8" transform="translate(85.4 61.1)"/><path id="Trazado_3591" data-name="Trazado 3591" class="cls-4" d="M548.7,520.6c-.2,2.1.6,4.2.7,6.4a2,2,0,0,1-.2,1.3" transform="translate(85.4 61.1)"/><path id="Trazado_3592" data-name="Trazado 3592" class="cls-13" d="M542.5,519.9a57.92,57.92,0,0,0-.4,7.2" transform="translate(85.4 61.1)"/><path id="Trazado_3593" data-name="Trazado 3593" class="cls-4" d="M542.4,526.9l-.1-.4c0-.2-.1-.3-.1-.5s-.2-.7-.3-1.1" transform="translate(85.4 61.1)"/><path id="Trazado_3594" data-name="Trazado 3594" class="cls-13" d="M547.8,519.3a3,3,0,0,1,.7,1.5,4.85,4.85,0,0,1,0,1.7l-.2,4.2v.9a7.06,7.06,0,0,0,.6,2.8" transform="translate(85.4 61.1)"/><path id="Trazado_3595" data-name="Trazado 3595" class="cls-13" d="M300.32,236.85a16.55,16.55,0,0,1-.3,3.2,2,2,0,0,0,.1,1.3" transform="translate(85.4 61.1)"/><path id="Trazado_3597" data-name="Trazado 3597" class="cls-8" d="M300.2,240.3v.9a.71.71,0,0,0,.3.6" transform="translate(85.4 61.1)"/><path id="Trazado_3598" data-name="Trazado 3598" class="cls-18" d="M298.9,241.6a2,2,0,0,1-.6-1.4,5,5,0,0,1,1-1.7,10.66,10.66,0,0,0,.7-1.9,5.23,5.23,0,0,1-.6,1.6c-.1.2-.2.5-.3.7a5.24,5.24,0,0,0-.1,2.5,4.68,4.68,0,0,0,.5-2.6" transform="translate(85.4 61.1)"/><path id="Trazado_3599" data-name="Trazado 3599" class="cls-8" d="M424.9,233.2c.2.1.5.3.7.4h-.5v.1l.3.3" transform="translate(85.4 61.1)"/><path id="Trazado_3600" data-name="Trazado 3600" class="cls-8" d="M425.3,234.1l.3.3c.1.1.2.1.4.1" transform="translate(85.4 61.1)"/><path id="Trazado_3601" data-name="Trazado 3601" class="cls-19" d="M285.9,285.3c.3.1.7.1,1,.2h.1" transform="translate(85.4 61.1)"/><path id="Trazado_3602" data-name="Trazado 3602" class="cls-20" d="M286.5,285.3a.76.76,0,0,1-.4-.1c-.1,0-.2-.1-.4,0" transform="translate(85.4 61.1)"/><path id="Trazado_3603" data-name="Trazado 3603" class="cls-8" d="M328.7,321.4a2,2,0,0,1,.7.1l1.4.5" transform="translate(85.4 61.1)"/><path id="Trazado_3604" data-name="Trazado 3604" class="cls-8" d="M328.9,322.4l.8.2" transform="translate(85.4 61.1)"/><path id="Trazado_3605" data-name="Trazado 3605" class="cls-8" d="M330.1,322.6a6.28,6.28,0,0,0,1.9.3" transform="translate(85.4 61.1)"/><path id="Trazado_3607" data-name="Trazado 3607" class="cls-8" d="M314,347.8c1.1-.7,2.6-.9,3.8-1.5a5.55,5.55,0,0,0,.8-.6l2.3-1.7a3.29,3.29,0,0,1,1.3-.7" transform="translate(85.4 61.1)"/><path id="Trazado_3608" data-name="Trazado 3608" class="cls-8" d="M322.5,343.2l.4-.3" transform="translate(85.4 61.1)"/><path id="Trazado_3609" data-name="Trazado 3609" class="cls-8" d="M305.2,356.9a.86.86,0,0,1,.3-.6l.5-.5a2.84,2.84,0,0,0,.9-1.7" transform="translate(85.4 61.1)"/><path id="Trazado_3613" data-name="Trazado 3613" class="cls-4" d="M285.7,179a2.46,2.46,0,0,1,.2,2.2c-.9,1-1.8,1.9-2.6,2.9a4.61,4.61,0,0,0-1.3,4.5,4.06,4.06,0,0,1-.7,3.7c-1.7,2.1-1.8,4.5-1.7,7a1.28,1.28,0,0,0,1.2,1.5,3.31,3.31,0,0,1,2.5,2.7c.3,1.5.6,3,.9,4.6h-2.1c-.2-1.1-.4-2.3-.6-3.4-.4-1.9-1.1-2.3-3-1.7-2.3.7-4.5,1.5-6.8,2.2a9.71,9.71,0,0,1-6.3,0c-2.9-1.1-5.1-.6-6.9,1.9-.2.3-.5.6-.8,1a14.05,14.05,0,0,1-2.9,0,21.9,21.9,0,0,1,4.3-4.3,2.56,2.56,0,0,0,1.3-2.6,10.45,10.45,0,0,1,0-2.5,11.8,11.8,0,0,0-3.2-9.8,5.11,5.11,0,0,1-1-5.5,24,24,0,0,0,1.6-10.9,6.72,6.72,0,0,1,4-7.2c2.1-1.1,2.4-2.1,1.8-4.5-.3-1.2-.6-2.4-1-3.6a9.8,9.8,0,0,1-.4-6.1,1.71,1.71,0,0,0-1.1-2.2c-1.7-.8-2.1-2.6-3.1-4-.1-.2-.1-.5.1-.6h0a1.7,1.7,0,0,1,.7-.1,1.38,1.38,0,0,1,1,1.3,3.36,3.36,0,0,0,1.3,2c1.5,1.4,1.8,1.3,3.2-.3a10.48,10.48,0,0,1,2.2-2,34.49,34.49,0,0,0,6.9-6.3c.3-.3.4-.7,1.1-.6.5.9-.2,1.5-.7,2.1a33.08,33.08,0,0,1-6.2,5.6c-4.2,3-5.2,6-3.8,11,.4,1.4.8,2.7,1.1,4a4.21,4.21,0,0,1-1.9,5.1,10.91,10.91,0,0,1-1.1.6,4.63,4.63,0,0,0-2.8,4.8,29.81,29.81,0,0,1-1.6,12.2,4.27,4.27,0,0,0,.7,4.6,12.9,12.9,0,0,1,3.5,10.9v1.2c0,2.1,0,2.1,2,2.5a22.5,22.5,0,0,1,2.2.5,8,8,0,0,0,5.3-.1,41.27,41.27,0,0,1,5-1.5,1.67,1.67,0,0,0,1.4-2h0c-.1-1,0-2,0-3a7.81,7.81,0,0,1,1.4-4.9,3.83,3.83,0,0,0,.8-3.7,4.16,4.16,0,0,1,.3-3.1C281.6,182.8,283.2,180.5,285.7,179Z" transform="translate(85.4 61.1)"/><path id="Trazado_3616" data-name="Trazado 3616" class="cls-4" d="M361.8,208.2v-3a8.62,8.62,0,0,0-2.9-7.7,7,7,0,0,1-2-4.9v-3.9c-.1-2.3-.5-2.8-2.7-3.4-1.4-.4-2.9-.7-4.3-1.1a7.06,7.06,0,0,1-4.5-3.6,1.21,1.21,0,0,1-.1-1.4c.7-.8,1.3-.5,1.8.3,1.1,2,3,2.7,5.1,3.1,1.2.2,2.4.5,3.6.8a4.08,4.08,0,0,1,3.1,4,32.29,32.29,0,0,1,0,4.4,5.91,5.91,0,0,0,1.9,4.7,9.33,9.33,0,0,1,3.1,8c-.1,1.2,0,2.5,0,3.7Z" transform="translate(85.4 61.1)"/><path id="Trazado_3617" data-name="Trazado 3617" class="cls-4" d="M457,208.3a6.72,6.72,0,0,0-7-3.9c-1.3.1-2.6,0-3.9,0a6.88,6.88,0,0,1-5.8-2.7c-1.1-1.3-2.1-2.5-3.2-3.7-2.4-2.6-3-2.7-6.2-1.1-1.6.8-3.2,1.4-5,.8v-1.2a5.9,5.9,0,0,0,4.3-.6,6.79,6.79,0,0,1,6-.9h0c1.9,2.3,3.7,4.6,5.7,6.8a6.25,6.25,0,0,0,4.5,1.6h6.4c.5.8,1.1.3,1.6.1a33.54,33.54,0,0,1,4.3,4.9Z" transform="translate(85.4 61.1)"/><path id="Trazado_3623" data-name="Trazado 3623" class="cls-10" d="M454.5,201.9c0-.3.1-.4.4-.3C454.8,201.7,454.6,201.8,454.5,201.9Z" transform="translate(85.4 61.1)"/><path id="Trazado_3625" data-name="Trazado 3625" class="cls-4" d="M425.1,195.3a8.85,8.85,0,0,1,0,2.3,91.85,91.85,0,0,0-9.8-5.2,8.3,8.3,0,0,0-4.4-.6l-8.9.6a6.09,6.09,0,0,1-6-3c-1.2-1.8-2.6-3.6-3.9-5.4-.3-.4-.7-.9,0-1.3.4-.3.7.2,1,.5,1.4,1.9,2.9,3.8,4.3,5.7a4.64,4.64,0,0,0,4.2,2.1c3,0,5.9-.5,8.9-.6a12.79,12.79,0,0,1,7.8,1.9,43.71,43.71,0,0,0,4.8,2.5A2.08,2.08,0,0,0,425.1,195.3Z" transform="translate(85.4 61.1)"/><path id="Trazado_3628" data-name="Trazado 3628" class="cls-8" d="M283.3,207a2.08,2.08,0,0,0,.5,1.2c.2.3.4.5.6.8" transform="translate(85.4 61.1)"/><path id="Trazado_3629" data-name="Trazado 3629" class="cls-4" d="M282.7,207.7a1.48,1.48,0,0,0,.4,1.3" transform="translate(85.4 61.1)"/><path id="Trazado_3630" data-name="Trazado 3630" class="cls-8" d="M285.7,212.3c.1-.3.3-.5.6-.4-.1.1-.2.1-.3.2a.1.1,0,0,0-.1.1c-.1.1-.1.2-.2.1a2.19,2.19,0,0,1,.5-.3c.2-.1.4-.1.6-.2,0-.1,0-.2-.1-.2s-.1-.1-.2-.1l-1.4-.3a2.77,2.77,0,0,1,.9-.1h.7c-.1-.2-.2-.3-.4-.3h-.2c-.1,0-.1-.1-.2-.2s-.2-.3-.3-.4" transform="translate(85.4 61.1)"/><path id="Trazado_3636" data-name="Trazado 3636" class="cls-8" d="M362.5,207.9a2.77,2.77,0,0,1,.1.9,1.48,1.48,0,0,1-.1-.7,2,2,0,0,1,.4.8c.1-.2,0-.4.1-.6,0,.2.1.4.1.6v-.4a.6.6,0,0,1,.1-.4v1.2l.1-.4" transform="translate(85.4 61.1)"/><text class="cls-21" transform="translate(521.15 573.66)">RÍO GARA<tspan class="cls-22" x="31.54" y="0">P</tspan><tspan x="35.66" y="0">ARANA</tspan></text><text class="cls-21" transform="translate(667.97 684.75)">RÍO PUTUM<tspan class="cls-22" x="37.53" y="0">A</tspan><tspan class="cls-23" x="41.68" y="0">Y</tspan><tspan x="45.79" y="0">O</tspan></text><text class="cls-21" transform="translate(673.28 483.96)"><tspan class="cls-24">Q</tspan><tspan x="4.71" y="0">. CAIMO</tspan></text><text class="cls-21" transform="translate(731.94 434.64)">RÍO C<tspan class="cls-25" x="17.68" y="0">A</tspan><tspan class="cls-26" x="22.08" y="0">UHINARI</tspan></text><path id="Trazado_3643" data-name="Trazado 3643" class="cls-27" d="M647.3,540.2l-5-6.2,5-6.2,5,6.2Z" transform="translate(85.4 61.1)"/><path id="Trazado_3644" data-name="Trazado 3644" class="cls-27" d="M353.6,338.4l-5-6.2,5-6.2,5,6.2Z" transform="translate(85.4 61.1)"/><g id="Grupo_1574" data-name="Grupo 1574"><g id="Grupo_1571" data-name="Grupo 1571"><circle id="Elipse_83" data-name="Elipse 83" class="cls-28" cx="482.46" cy="356.08" r="4.9"/></g><g id="Grupo_1573" data-name="Grupo 1573"><g id="Grupo_1572" data-name="Grupo 1572"><path id="Trazado_3647" data-name="Trazado 3647" class="cls-29" d="M394.24,295v2.9h5.9V295" transform="translate(85.4 61.1)"/><path id="Trazado_3648" data-name="Trazado 3648" class="cls-29" d="M393.94,295.21l3.1-3.1-1.3,3.3" transform="translate(85.4 61.1)"/><path id="Trazado_3649" data-name="Trazado 3649" class="cls-29" d="M400.54,295.21l-3.1-3.1,1.3,3.3" transform="translate(85.4 61.1)"/><line id="Línea_117" data-name="Línea 117" class="cls-29" x1="482.54" y1="356.31" x2="482.54" y2="353.11"/></g></g></g><g id="Grupo_1578" data-name="Grupo 1578"><g id="Grupo_1575" data-name="Grupo 1575"><circle id="Elipse_84" data-name="Elipse 84" class="cls-30" cx="526.16" cy="292.53" r="4.9"/></g><g id="Grupo_1577" data-name="Grupo 1577"><g id="Grupo_1576" data-name="Grupo 1576"><path id="Trazado_3650" data-name="Trazado 3650" class="cls-29" d="M437.93,231.46v2.9h5.9v-2.9" transform="translate(85.4 61.1)"/><path id="Trazado_3651" data-name="Trazado 3651" class="cls-29" d="M437.63,231.66l3.1-3.1-1.3,3.3" transform="translate(85.4 61.1)"/><path id="Trazado_3652" data-name="Trazado 3652" class="cls-29" d="M444.23,231.66l-3.1-3.1,1.3,3.3" transform="translate(85.4 61.1)"/><line id="Línea_118" data-name="Línea 118" class="cls-29" x1="526.23" y1="292.76" x2="526.23" y2="289.56"/></g></g></g><g id="Grupo_1582" data-name="Grupo 1582"><g id="Grupo_1579" data-name="Grupo 1579"><circle id="Elipse_85" data-name="Elipse 85" class="cls-30" cx="518.62" cy="267.77" r="4.9"/></g><g id="Grupo_1581" data-name="Grupo 1581"><g id="Grupo_1580" data-name="Grupo 1580"><path id="Trazado_3653" data-name="Trazado 3653" class="cls-29" d="M430.4,206.69v2.9h5.9v-2.9" transform="translate(85.4 61.1)"/><path id="Trazado_3654" data-name="Trazado 3654" class="cls-29" d="M430.1,206.89l3.1-3.1-1.3,3.3" transform="translate(85.4 61.1)"/><path id="Trazado_3655" data-name="Trazado 3655" class="cls-29" d="M436.7,206.89l-3.1-3.1,1.3,3.3" transform="translate(85.4 61.1)"/><line id="Línea_119" data-name="Línea 119" class="cls-29" x1="518.7" y1="267.99" x2="518.7" y2="264.79"/></g></g></g><g id="Grupo_1586" data-name="Grupo 1586"><g id="Grupo_1583" data-name="Grupo 1583"><circle id="Elipse_86" data-name="Elipse 86" class="cls-30" cx="523.03" cy="251.09" r="4.9"/></g><g id="Grupo_1585" data-name="Grupo 1585"><g id="Grupo_1584" data-name="Grupo 1584"><path id="Trazado_3656" data-name="Trazado 3656" class="cls-29" d="M434.8,190v2.9h5.9V190" transform="translate(85.4 61.1)"/><path id="Trazado_3657" data-name="Trazado 3657" class="cls-29" d="M434.5,190.22l3.1-3.1-1.3,3.3" transform="translate(85.4 61.1)"/><path id="Trazado_3658" data-name="Trazado 3658" class="cls-29" d="M441.1,190.22l-3.1-3.1,1.3,3.3" transform="translate(85.4 61.1)"/><line id="Línea_120" data-name="Línea 120" class="cls-29" x1="523.1" y1="251.32" x2="523.1" y2="248.12"/></g></g></g><g id="Grupo_1590" data-name="Grupo 1590"><g id="Grupo_1587" data-name="Grupo 1587"><circle id="Elipse_87" data-name="Elipse 87" class="cls-30" cx="554.66" cy="270.34" r="4.9"/></g><g id="Grupo_1589" data-name="Grupo 1589"><g id="Grupo_1588" data-name="Grupo 1588"><path id="Trazado_3659" data-name="Trazado 3659" class="cls-29" d="M466.44,209.27v2.9h5.9v-2.9" transform="translate(85.4 61.1)"/><path id="Trazado_3660" data-name="Trazado 3660" class="cls-29" d="M466.14,209.47l3.1-3.1-1.3,3.3" transform="translate(85.4 61.1)"/><path id="Trazado_3661" data-name="Trazado 3661" class="cls-29" d="M472.74,209.47l-3.1-3.1,1.3,3.3" transform="translate(85.4 61.1)"/><line id="Línea_121" data-name="Línea 121" class="cls-29" x1="554.74" y1="270.57" x2="554.74" y2="267.37"/></g></g></g><g id="Grupo_1598" data-name="Grupo 1598"><g id="Grupo_1595" data-name="Grupo 1595"><circle id="Elipse_89" data-name="Elipse 89" class="cls-31" cx="492.42" cy="378.74" r="4.9"/></g><g id="Grupo_1597" data-name="Grupo 1597"><g id="Grupo_1596" data-name="Grupo 1596"><path id="Trazado_3665" data-name="Trazado 3665" class="cls-29" d="M404.2,317.67v2.9h5.9v-2.9" transform="translate(85.4 61.1)"/><path id="Trazado_3666" data-name="Trazado 3666" class="cls-29" d="M403.9,317.87l3.1-3.1-1.3,3.3" transform="translate(85.4 61.1)"/><path id="Trazado_3667" data-name="Trazado 3667" class="cls-29" d="M410.5,317.87l-3.1-3.1,1.3,3.3" transform="translate(85.4 61.1)"/><line id="Línea_123" data-name="Línea 123" class="cls-29" x1="492.5" y1="378.97" x2="492.5" y2="375.77"/></g></g></g><g id="Grupo_1602" data-name="Grupo 1602"><g id="Grupo_1599" data-name="Grupo 1599"><circle id="Elipse_90" data-name="Elipse 90" class="cls-31" cx="497.62" cy="401.04" r="4.9"/></g><g id="Grupo_1601" data-name="Grupo 1601"><g id="Grupo_1600" data-name="Grupo 1600"><path id="Trazado_3668" data-name="Trazado 3668" class="cls-29" d="M409.4,340v2.9h5.9V340" transform="translate(85.4 61.1)"/><path id="Trazado_3669" data-name="Trazado 3669" class="cls-29" d="M409.1,340.17l3.1-3.1-1.3,3.3" transform="translate(85.4 61.1)"/><path id="Trazado_3670" data-name="Trazado 3670" class="cls-29" d="M415.7,340.17l-3.1-3.1,1.3,3.3" transform="translate(85.4 61.1)"/><line id="Línea_124" data-name="Línea 124" class="cls-29" x1="497.7" y1="401.27" x2="497.7" y2="398.07"/></g></g></g><g id="Grupo_1606" data-name="Grupo 1606"><g id="Grupo_1603" data-name="Grupo 1603"><circle id="Elipse_91" data-name="Elipse 91" class="cls-31" cx="472.45" cy="420.2" r="4.9"/></g><g id="Grupo_1605" data-name="Grupo 1605"><g id="Grupo_1604" data-name="Grupo 1604"><path id="Trazado_3671" data-name="Trazado 3671" class="cls-29" d="M384.22,359.13V362h5.9v-2.9" transform="translate(85.4 61.1)"/><path id="Trazado_3672" data-name="Trazado 3672" class="cls-29" d="M383.92,359.33l3.1-3.1-1.3,3.3" transform="translate(85.4 61.1)"/><path id="Trazado_3673" data-name="Trazado 3673" class="cls-29" d="M390.52,359.33l-3.1-3.1,1.3,3.3" transform="translate(85.4 61.1)"/><line id="Línea_125" data-name="Línea 125" class="cls-29" x1="472.52" y1="420.43" x2="472.52" y2="417.23"/></g></g></g><g id="Grupo_1610" data-name="Grupo 1610"><g id="Grupo_1607" data-name="Grupo 1607"><circle id="Elipse_92" data-name="Elipse 92" class="cls-31" cx="501.31" cy="485.3" r="4.9"/></g><g id="Grupo_1609" data-name="Grupo 1609"><g id="Grupo_1608" data-name="Grupo 1608"><path id="Trazado_3674" data-name="Trazado 3674" class="cls-29" d="M413.08,424.23v2.9H419v-2.9" transform="translate(85.4 61.1)"/><path id="Trazado_3675" data-name="Trazado 3675" class="cls-29" d="M412.78,424.43l3.1-3.1-1.3,3.3" transform="translate(85.4 61.1)"/><path id="Trazado_3676" data-name="Trazado 3676" class="cls-29" d="M419.38,424.43l-3.1-3.1,1.3,3.3" transform="translate(85.4 61.1)"/><line id="Línea_126" data-name="Línea 126" class="cls-29" x1="501.38" y1="485.53" x2="501.38" y2="482.33"/></g></g></g><g id="Grupo_1614" data-name="Grupo 1614"><g id="Grupo_1611" data-name="Grupo 1611"><circle id="Elipse_93" data-name="Elipse 93" class="cls-32" cx="516.25" cy="470.31" r="4.9"/></g><g id="Grupo_1613" data-name="Grupo 1613"><g id="Grupo_1612" data-name="Grupo 1612"><path id="Trazado_3677" data-name="Trazado 3677" class="cls-29" d="M428,409.23v2.9h5.9v-2.9" transform="translate(85.4 61.1)"/><path id="Trazado_3678" data-name="Trazado 3678" class="cls-29" d="M427.73,409.43l3.1-3.1-1.3,3.3" transform="translate(85.4 61.1)"/><path id="Trazado_3679" data-name="Trazado 3679" class="cls-29" d="M434.33,409.43l-3.1-3.1,1.3,3.3" transform="translate(85.4 61.1)"/><line id="Línea_127" data-name="Línea 127" class="cls-29" x1="516.33" y1="470.53" x2="516.33" y2="467.33"/></g></g></g><g id="Grupo_1618" data-name="Grupo 1618"><g id="Grupo_1615" data-name="Grupo 1615"><circle id="Elipse_94" data-name="Elipse 94" class="cls-32" cx="547.45" cy="510.31" r="4.9"/></g><g id="Grupo_1617" data-name="Grupo 1617"><g id="Grupo_1616" data-name="Grupo 1616"><path id="Trazado_3680" data-name="Trazado 3680" class="cls-29" d="M459.23,449.23v2.9h5.9v-2.9" transform="translate(85.4 61.1)"/><path id="Trazado_3681" data-name="Trazado 3681" class="cls-29" d="M458.93,449.43l3.1-3.1-1.3,3.3" transform="translate(85.4 61.1)"/><path id="Trazado_3682" data-name="Trazado 3682" class="cls-29" d="M465.53,449.43l-3.1-3.1,1.3,3.3" transform="translate(85.4 61.1)"/><line id="Línea_128" data-name="Línea 128" class="cls-29" x1="547.53" y1="510.53" x2="547.53" y2="507.33"/></g></g></g><g id="Grupo_1622" data-name="Grupo 1622"><g id="Grupo_1619" data-name="Grupo 1619"><circle id="Elipse_95" data-name="Elipse 95" class="cls-32" cx="634.76" cy="588.28" r="4.9"/></g><g id="Grupo_1621" data-name="Grupo 1621"><g id="Grupo_1620" data-name="Grupo 1620"><path id="Trazado_3683" data-name="Trazado 3683" class="cls-29" d="M546.53,527.2v2.9h5.9v-2.9" transform="translate(85.4 61.1)"/><path id="Trazado_3684" data-name="Trazado 3684" class="cls-29" d="M546.23,527.4l3.1-3.1-1.3,3.3" transform="translate(85.4 61.1)"/><path id="Trazado_3685" data-name="Trazado 3685" class="cls-29" d="M552.83,527.4l-3.1-3.1,1.3,3.3" transform="translate(85.4 61.1)"/><line id="Línea_129" data-name="Línea 129" class="cls-29" x1="634.83" y1="588.5" x2="634.83" y2="585.3"/></g></g></g><g id="Grupo_1634" data-name="Grupo 1634"><g id="Grupo_1631" data-name="Grupo 1631"><circle id="Elipse_98" data-name="Elipse 98" class="cls-31" cx="481.19" cy="495.03" r="4.9"/></g><g id="Grupo_1633" data-name="Grupo 1633"><g id="Grupo_1632" data-name="Grupo 1632"><path id="Trazado_3692" data-name="Trazado 3692" class="cls-29" d="M393,434v2.9h5.9V434" transform="translate(85.4 61.1)"/><path id="Trazado_3693" data-name="Trazado 3693" class="cls-29" d="M392.66,434.16l3.1-3.1-1.3,3.3" transform="translate(85.4 61.1)"/><path id="Trazado_3694" data-name="Trazado 3694" class="cls-29" d="M399.26,434.16l-3.1-3.1,1.3,3.3" transform="translate(85.4 61.1)"/><line id="Línea_132" data-name="Línea 132" class="cls-29" x1="481.26" y1="495.26" x2="481.26" y2="492.06"/></g></g></g><g id="Grupo_1638" data-name="Grupo 1638"><g id="Grupo_1635" data-name="Grupo 1635"><circle id="Elipse_99" data-name="Elipse 99" class="cls-31" cx="459.06" cy="508.79" r="4.9"/></g><g id="Grupo_1637" data-name="Grupo 1637"><g id="Grupo_1636" data-name="Grupo 1636"><path id="Trazado_3695" data-name="Trazado 3695" class="cls-29" d="M370.83,447.72v2.9h5.9v-2.9" transform="translate(85.4 61.1)"/><path id="Trazado_3696" data-name="Trazado 3696" class="cls-29" d="M370.53,447.92l3.1-3.1-1.3,3.3" transform="translate(85.4 61.1)"/><path id="Trazado_3697" data-name="Trazado 3697" class="cls-29" d="M377.13,447.92l-3.1-3.1,1.3,3.3" transform="translate(85.4 61.1)"/><line id="Línea_133" data-name="Línea 133" class="cls-29" x1="459.13" y1="509.02" x2="459.13" y2="505.82"/></g></g></g><g id="Grupo_1642" data-name="Grupo 1642"><g id="Grupo_1639" data-name="Grupo 1639"><circle id="Elipse_100" data-name="Elipse 100" class="cls-31" cx="486.88" cy="471.72" r="4.9"/></g><g id="Grupo_1641" data-name="Grupo 1641"><g id="Grupo_1640" data-name="Grupo 1640"><path id="Trazado_3698" data-name="Trazado 3698" class="cls-29" d="M398.66,410.64v2.9h5.9v-2.9" transform="translate(85.4 61.1)"/><path id="Trazado_3699" data-name="Trazado 3699" class="cls-29" d="M398.36,410.84l3.1-3.1-1.3,3.3" transform="translate(85.4 61.1)"/><path id="Trazado_3700" data-name="Trazado 3700" class="cls-29" d="M405,410.84l-3.1-3.1,1.3,3.3" transform="translate(85.4 61.1)"/><line id="Línea_134" data-name="Línea 134" class="cls-29" x1="486.96" y1="471.94" x2="486.96" y2="468.75"/></g></g></g><g id="Grupo_1646" data-name="Grupo 1646"><g id="Grupo_1643" data-name="Grupo 1643"><circle id="Elipse_101" data-name="Elipse 101" class="cls-31" cx="455.13" cy="462.96" r="4.9"/></g><g id="Grupo_1645" data-name="Grupo 1645"><g id="Grupo_1644" data-name="Grupo 1644"><path id="Trazado_3701" data-name="Trazado 3701" class="cls-29" d="M366.9,401.89v2.9h5.9v-2.9" transform="translate(85.4 61.1)"/><path id="Trazado_3702" data-name="Trazado 3702" class="cls-29" d="M366.6,402.09l3.1-3.1-1.3,3.3" transform="translate(85.4 61.1)"/><path id="Trazado_3703" data-name="Trazado 3703" class="cls-29" d="M373.2,402.09l-3.1-3.1,1.3,3.3" transform="translate(85.4 61.1)"/><line id="Línea_135" data-name="Línea 135" class="cls-29" x1="455.2" y1="463.19" x2="455.2" y2="459.99"/></g></g></g><g id="Grupo_1650" data-name="Grupo 1650"><g id="Grupo_1647" data-name="Grupo 1647"><circle id="Elipse_102" data-name="Elipse 102" class="cls-31" cx="412.5" cy="405.55" r="4.9"/></g><g id="Grupo_1649" data-name="Grupo 1649"><g id="Grupo_1648" data-name="Grupo 1648"><path id="Trazado_3704" data-name="Trazado 3704" class="cls-29" d="M324.27,344.47v2.9h5.9v-2.9" transform="translate(85.4 61.1)"/><path id="Trazado_3705" data-name="Trazado 3705" class="cls-29" d="M324,344.67l3.1-3.1-1.3,3.3" transform="translate(85.4 61.1)"/><path id="Trazado_3706" data-name="Trazado 3706" class="cls-29" d="M330.57,344.67l-3.1-3.1,1.3,3.3" transform="translate(85.4 61.1)"/><line id="Línea_136" data-name="Línea 136" class="cls-29" x1="412.57" y1="405.78" x2="412.57" y2="402.58"/></g></g></g><g id="Grupo_1654" data-name="Grupo 1654"><g id="Grupo_1651" data-name="Grupo 1651"><circle id="Elipse_103" data-name="Elipse 103" class="cls-28" cx="449.23" cy="403.16" r="4.9"/></g><g id="Grupo_1653" data-name="Grupo 1653"><g id="Grupo_1652" data-name="Grupo 1652"><path id="Trazado_3707" data-name="Trazado 3707" class="cls-29" d="M361,342.09V345h5.9v-2.9" transform="translate(85.4 61.1)"/><path id="Trazado_3708" data-name="Trazado 3708" class="cls-29" d="M360.7,342.29l3.1-3.1-1.3,3.3" transform="translate(85.4 61.1)"/><path id="Trazado_3709" data-name="Trazado 3709" class="cls-29" d="M367.3,342.29l-3.1-3.1,1.3,3.3" transform="translate(85.4 61.1)"/><line id="Línea_137" data-name="Línea 137" class="cls-29" x1="449.3" y1="403.39" x2="449.3" y2="400.19"/></g></g></g><g id="Grupo_1658" data-name="Grupo 1658"><g id="Grupo_1655" data-name="Grupo 1655"><circle id="Elipse_104" data-name="Elipse 104" class="cls-28" cx="413.06" cy="418.67" r="4.9"/></g><g id="Grupo_1657" data-name="Grupo 1657"><g id="Grupo_1656" data-name="Grupo 1656"><path id="Trazado_3710" data-name="Trazado 3710" class="cls-29" d="M324.83,357.6v2.9h5.9v-2.9" transform="translate(85.4 61.1)"/><path id="Trazado_3711" data-name="Trazado 3711" class="cls-29" d="M324.53,357.8l3.1-3.1-1.3,3.3" transform="translate(85.4 61.1)"/><path id="Trazado_3712" data-name="Trazado 3712" class="cls-29" d="M331.13,357.8l-3.1-3.1,1.3,3.3" transform="translate(85.4 61.1)"/><line id="Línea_138" data-name="Línea 138" class="cls-29" x1="413.13" y1="418.9" x2="413.13" y2="415.7"/></g></g></g><g id="Grupo_1662" data-name="Grupo 1662"><g id="Grupo_1659" data-name="Grupo 1659"><circle id="Elipse_105" data-name="Elipse 105" class="cls-28" cx="364.01" cy="393.98" r="4.9"/></g><g id="Grupo_1661" data-name="Grupo 1661"><g id="Grupo_1660" data-name="Grupo 1660"><path id="Trazado_3713" data-name="Trazado 3713" class="cls-29" d="M275.79,332.9v2.9h5.9v-2.9" transform="translate(85.4 61.1)"/><path id="Trazado_3714" data-name="Trazado 3714" class="cls-29" d="M275.49,333.1l3.1-3.1-1.3,3.3" transform="translate(85.4 61.1)"/><path id="Trazado_3715" data-name="Trazado 3715" class="cls-29" d="M282.09,333.1,279,330l1.3,3.3" transform="translate(85.4 61.1)"/><line id="Línea_139" data-name="Línea 139" class="cls-29" x1="364.09" y1="394.2" x2="364.09" y2="391"/></g></g></g><g id="Grupo_1666" data-name="Grupo 1666"><g id="Grupo_1663" data-name="Grupo 1663"><circle id="Elipse_106" data-name="Elipse 106" class="cls-28" cx="463.74" cy="312.19" r="4.9"/></g><g id="Grupo_1665" data-name="Grupo 1665"><g id="Grupo_1664" data-name="Grupo 1664"><path id="Trazado_3716" data-name="Trazado 3716" class="cls-29" d="M375.52,251.11V254h5.9v-2.9" transform="translate(85.4 61.1)"/><path id="Trazado_3717" data-name="Trazado 3717" class="cls-29" d="M375.22,251.31l3.1-3.1-1.3,3.3" transform="translate(85.4 61.1)"/><path id="Trazado_3718" data-name="Trazado 3718" class="cls-29" d="M381.82,251.31l-3.1-3.1,1.3,3.3" transform="translate(85.4 61.1)"/><line id="Línea_140" data-name="Línea 140" class="cls-29" x1="463.82" y1="312.41" x2="463.82" y2="309.21"/></g></g></g><g id="Grupo_1678" data-name="Grupo 1678"><g id="Grupo_1675" data-name="Grupo 1675"><circle id="Elipse_109" data-name="Elipse 109" class="cls-28" cx="376.83" cy="257.61" r="4.9"/></g><g id="Grupo_1677" data-name="Grupo 1677"><g id="Grupo_1676" data-name="Grupo 1676"><path id="Trazado_3725" data-name="Trazado 3725" class="cls-29" d="M288.61,196.54v2.9h5.9v-2.9" transform="translate(85.4 61.1)"/><path id="Trazado_3726" data-name="Trazado 3726" class="cls-29" d="M288.31,196.74l3.1-3.1-1.3,3.3" transform="translate(85.4 61.1)"/><path id="Trazado_3727" data-name="Trazado 3727" class="cls-29" d="M294.91,196.74l-3.1-3.1,1.3,3.3" transform="translate(85.4 61.1)"/><line id="Línea_143" data-name="Línea 143" class="cls-29" x1="376.91" y1="257.84" x2="376.91" y2="254.64"/></g></g></g><g id="Grupo_1682" data-name="Grupo 1682"><g id="Grupo_1679" data-name="Grupo 1679"><circle id="Elipse_110" data-name="Elipse 110" class="cls-28" cx="369.67" cy="287.96" r="4.9"/></g><g id="Grupo_1681" data-name="Grupo 1681"><g id="Grupo_1680" data-name="Grupo 1680"><path id="Trazado_3728" data-name="Trazado 3728" class="cls-29" d="M281.45,226.89v2.9h5.9v-2.9" transform="translate(85.4 61.1)"/><path id="Trazado_3729" data-name="Trazado 3729" class="cls-29" d="M281.15,227.08l3.1-3.1-1.3,3.31" transform="translate(85.4 61.1)"/><path id="Trazado_3730" data-name="Trazado 3730" class="cls-29" d="M287.75,227.08l-3.1-3.1,1.3,3.31" transform="translate(85.4 61.1)"/><line id="Línea_144" data-name="Línea 144" class="cls-29" x1="369.75" y1="288.19" x2="369.75" y2="284.99"/></g></g></g><g id="Grupo_1690" data-name="Grupo 1690"><g id="Grupo_1687" data-name="Grupo 1687"><circle id="Elipse_112" data-name="Elipse 112" class="cls-28" cx="404.59" cy="337.7" r="4.9"/></g><g id="Grupo_1689" data-name="Grupo 1689"><g id="Grupo_1688" data-name="Grupo 1688"><path id="Trazado_3734" data-name="Trazado 3734" class="cls-29" d="M316.37,276.63v2.9h5.9v-2.9" transform="translate(85.4 61.1)"/><path id="Trazado_3735" data-name="Trazado 3735" class="cls-29" d="M316.07,276.83l3.1-3.1-1.3,3.3" transform="translate(85.4 61.1)"/><path id="Trazado_3736" data-name="Trazado 3736" class="cls-29" d="M322.67,276.83l-3.1-3.1,1.3,3.3" transform="translate(85.4 61.1)"/><line id="Línea_146" data-name="Línea 146" class="cls-29" x1="404.67" y1="337.93" x2="404.67" y2="334.73"/></g></g></g></g><g id="Capa_3" data-name="Capa 3"><text class="cls-33" transform="translate(512.29 243.93)">M<tspan class="cls-34" x="5.41" y="0">a</tspan><tspan class="cls-35" x="8.83" y="0">tanza</tspan></text><text class="cls-33" transform="translate(382.71 251.72)">Último</text><text class="cls-33" transform="translate(383.11 258.82)"><tspan class="cls-34">Re</tspan><tspan x="6.94" y="0">ti</tspan><tspan class="cls-34" x="11.5" y="0">r</tspan><tspan class="cls-35" x="14.06" y="0">o</tspan></text><text class="cls-33" transform="translate(352.9 299.92)"><tspan class="cls-36">V</tspan><tspan x="3.57" y="0">aldivia</tspan></text><text class="cls-33" transform="translate(455.56 322.88)"><tspan class="cls-37">A</tspan><tspan x="3.71" y="0">tenas</tspan></text><text class="cls-33" transform="translate(411.11 340.36)">Occidente</text><text class="cls-33" transform="translate(459.54 347.02)"><tspan class="cls-38">Y</tspan><tspan x="3.32" y="0">a</tspan><tspan class="cls-34" x="6.8" y="0">r</tspan><tspan x="9.37" y="0">o</tspan><tspan class="cls-39" x="12.82" y="0">k</tspan><tspan x="16.34" y="0">amena</tspan></text><text class="cls-33" transform="translate(349.76 387.33)">Somb<tspan class="cls-40" x="16.13" y="0">r</tspan><tspan x="18.73" y="0">a</tspan></text><text class="cls-33" transform="translate(378.22 407.02)"><tspan class="cls-41">C</tspan><tspan x="3.6" y="0">asa</tspan><tspan class="cls-37" x="13.56" y="0"> </tspan><tspan class="cls-35" x="15.12" y="0">A</tspan><tspan class="cls-42" x="18.95" y="0">r</tspan><tspan x="21.55" y="0">ana</tspan></text><text class="cls-33" transform="translate(476.66 417.92)">Oriente 2</text><text class="cls-33" transform="translate(496.77 380.37)">Oriente</text><text class="cls-43" transform="translate(447.55 454.56)">K<tspan class="cls-34" x="3.73" y="0">a</tspan><tspan class="cls-44" x="7.15" y="0">juji</tspan></text><text class="cls-33" transform="translate(475.56 465.51)"><tspan class="cls-41">C</tspan><tspan x="3.6" y="0">ar</tspan><tspan class="cls-34" x="9.71" y="0">va</tspan><tspan class="cls-44" x="16.37" y="0">jal</tspan></text><text class="cls-33" transform="translate(522.64 470.56)">P<tspan class="cls-34" x="3.8" y="0">r</tspan><tspan class="cls-45" x="6.37" y="0">o</tspan><tspan x="9.73" y="0">videncia</tspan></text><text class="cls-33" transform="translate(473.32 503.89)">Ga<tspan class="cls-34" x="7.67" y="0">r</tspan><tspan x="10.24" y="0">cía</tspan></text><text class="cls-46" transform="translate(449.55 517.64)">C<tspan class="cls-35" x="3.66" y="0">u</tspan><tspan class="cls-47" x="7.18" y="0">e</tspan><tspan x="10.4" y="0">v</tspan><tspan class="cls-35" x="13.64" y="0">as</tspan></text><text class="cls-33" transform="translate(552.86 511.88)">Santa Julia</text><text class="cls-33" transform="translate(639.51 587.87)">Indostan</text><text class="cls-33" transform="translate(438.59 486.9)">Santa <tspan class="cls-34" x="18.49" y="0">R</tspan><tspan x="22.18" y="0">osa del Men</tspan><tspan class="cls-34" x="56.51" y="0">a</tspan><tspan x="59.93" y="0">je</tspan></text><text class="cls-33" transform="translate(507.53 403.46)">E<tspan class="cls-45" x="3.65" y="0">x</tspan><tspan x="6.84" y="0">cont</tspan><tspan class="cls-48" x="20" y="0">a</tspan><tspan class="cls-35" x="23.42" y="0">dor</tspan></text><text class="cls-33" transform="translate(379.11 420.34)">Sur <tspan class="cls-37" x="11.23" y="0">C</tspan><tspan x="14.83" y="0">ent</tspan><tspan class="cls-34" x="24.58" y="0">r</tspan><tspan x="27.14" y="0">o</tspan></text><text class="cls-33" transform="translate(454.66 399.46)">Sur Puerto</text><text class="cls-33" transform="translate(545.36 263.48)"><tspan class="cls-37">K</tspan><tspan x="3.73" y="0">aasibai</tspan></text><text class="cls-33" transform="translate(496.41 269.18)">Dutui</text><text class="cls-33" transform="translate(516.15 302.72)">Sabana</text><text class="cls-33" transform="translate(726.93 586.66)">ARICA</text><text class="cls-33" transform="translate(430.76 383.41)">Chor<tspan class="cls-48" x="13.48" y="0">r</tspan><tspan class="cls-35" x="16.04" y="0">e</tspan><tspan class="cls-42" x="19.35" y="0">r</tspan><tspan x="21.95" y="0">a</tspan></text><g id="Layer_1" data-name="Layer 1"><text class="cls-49" transform="translate(660.27 612.31)">Ar<tspan class="cls-50" x="6.46" y="0">r</tspan><tspan x="8.6" y="0">. El Escándalo</tspan></text></g></g></svg>