<?xml version="1.0" encoding="utf-8"?>
<!-- Generator: Adobe Illustrator 24.0.1, SVG Export Plug-In . SVG Version: 6.00 Build 0)  -->
<svg version="1.1" id="Capa_1" xmlns="http://www.w3.org/2000/svg" xmlns:xlink="http://www.w3.org/1999/xlink" x="0px" y="0px"
	 viewBox="0 0 151 214.4" style="enable-background:new 0 0 151 214.4;" xml:space="preserve">
<style type="text/css">
	.st0{fill:none;}
	.st1{fill:#5C977D;}
	.st2{fill:#003520;}
	.st3{fill:#909F61;}
	.st4{fill:#DDCC66;stroke:#003520;stroke-width:3;stroke-miterlimit:10;}
	.st5{fill:#DDCC66;stroke:#003520;stroke-width:3;}
	.st6{opacity:0.57;fill:none;stroke:#FFFFFF;stroke-miterlimit:10;stroke-dasharray:4;enable-background:new    ;}
	.st7{fill:#93CBCC;}
	.st8{fill:#7B82A0;}
	.st9{fill:#D5A692;}
	.st10{fill:#BA8770;}
	.st11{fill:#888C9F;}
	.st12{fill:#EAD7B1;}
	.st13{fill:#7B716A;}
	.st14{fill:none;stroke:#93CBCC;stroke-miterlimit:10;}
	.st15{fill:none;stroke:#93CBCC;stroke-width:0.5;stroke-miterlimit:10;}
	.st16{fill:#93CBCC;stroke:#93CBCC;stroke-miterlimit:10;}
	.st17{fill:#7F859F;}
	.st18{fill:#B04436;}
	.st19{fill:#B1604B;}
	.st20{fill:#93CBCC;stroke:#93CBCC;stroke-width:0.5;stroke-miterlimit:10;}
	.st21{fill:#E9D6B1;}
	.st22{fill:#DEC4A9;}
	.st23{fill:#6D5F5C;}
	.st24{fill:none;stroke:#888C9F;stroke-miterlimit:10;}
	.st25{fill:none;stroke:#93CBCC;stroke-width:0.75;stroke-miterlimit:10;}
	.st26{fill:none;stroke:#93CBCC;stroke-width:0.25;stroke-miterlimit:10;}
	.st27{fill:#16160A;}
	.st28{fill:#E5661D;}
	.st29{fill:none;stroke:#16160A;stroke-width:0.476;stroke-linecap:round;stroke-miterlimit:10;}
	.st30{fill:#D1A943;}
	.st31{fill:#D1A943;stroke:#000000;stroke-miterlimit:10;}
	.st32{fill:#D0309B;}
	.st33{fill:#305BD0;}
	.st34{fill:#063916;}
	.st35{fill:#D0309B;stroke:#FFFFFF;stroke-width:0.63;stroke-miterlimit:10;}
	.st36{fill:none;stroke:#063916;stroke-width:3;}
</style>
<g id="Grupo_1693" transform="translate(990.382 537.816)">
	<g id="Grupo_1692">
		<path id="Trazado_3740" class="st34" d="M-839.4-392.6l-0.9,0.4l-0.9-0.1l-0.7,0.4l-0.3-0.6v-0.8l0.1-1.2v-1.2l-0.6-1.3l-0.2-1
			l-0.2-1.2l-0.8-0.8l-1-1l-0.6-1.1v-1.6l0.2-0.8l-0.8-0.5l-0.8-0.1l-0.7,0.4l-0.2,0.6l-1.1,1l-0.8,0.5l-0.7,0.4h-0.8l-0.3,0.5
			l-0.8,0.2v0.9l-0.1,0.7h-0.8l-1.1-0.9l-0.8-1.2l-0.9-0.4l-0.3-0.4l-0.5,0.1l-0.1,0.9l-0.5,0.8l0.4,0.2v0.6l0.3,0.2l0.3-0.3
			l0.2,0.5l0.5,0.4l-15.3-0.2l-0.5-0.4l-0.6,0.1l-0.5-0.3l-0.6-0.2l-0.6,0.3l-0.3,0.4l-1.6-0.1l-0.2,0.1l-0.3,0.2l0,0l0,0l-0.4-0.2
			v8.3l0.4-0.2l0.3-0.4l0.4-0.3l0.5,0.3l0,0.4h0.3l0.2-0.2l0.2-0.2h0.4l0.2,0.2l0.1,0.3l1.7,0l0.1,0.3l0.4,0l0.3-0.4l0.3-0.3h0.5
			l0.3,0.3l0.2,0.2l0.5,0l0.2,0.3l0.2,0.4l-0.1,0.3h0.3l0.3,0.2l0,0.3l-0.1,0v0.5h0.2l0.2,0.2l0.1,0.4l-0.3,0.2l-0.2-0.1l0,0.4h0.2
			l0,0.2l-0.1,0.4l-0.1,0.1h-0.3v0.4l0.5,0.2l0.3,0.4l0,0.3l-0.4,0.2l-0.5-0.1h-0.2l-0.1,0.5l-0.4,0.1l-0.4-0.1l-0.2-0.4l-0.1-0.2
			l-0.2,0.1l-0.3,0.4h-0.3l-0.3-0.5l-0.7-0.7l-0.5-0.3l-0.3,0.1l-1,0.9l-0.5,0.2l-0.2-0.3l-0.7-0.2l-0.2,0.4l-0.5,0.5l-0.3,0.2
			l-1.6,0l-0.2,0.4l-0.4-0.1l-0.1-0.2l-0.2,0l-0.1,0.3l-0.2,0.2l-0.3,0.2l0,8.1l0.4,0.4l0,1l0.4,0.1l0.3,0.4l0.4,0.3l0.4,0.4
			l0.4,0.2l0.5,0l0.3,0.2l0.4,0.3l0.5,0.3l0.4,0.5l0.7,0.2l0.4,0.2l0.2,0.4v0.8l0.2,0.4l0.3,0.3l-0.2,0.3l-0.3,0.6l-0.2,0.4l0,0.4
			l0.4,0.2l0.4,0.5l0.3,0.5l0.2,0.7l0.1,0.3l0.4,0.3l0.7,0.8v0.3l0,0.4l0,0l0.3,0.2l-0.1,0.7l-0.3,0.6l0.2,1.2l0.1,0.7l-0.3,0.4
			l-0.3,0.3l0.2,0.3l-3.2,18.8l-1.1,5.9l-0.9,5.1l-1.1,5.9l-1.4-1.8l-0.9-0.6l-0.4-0.8l-0.3-1.1l-1.3-0.8l-1,0.1l-0.7,0.7l-0.7,0.1
			l-0.6-0.4l-0.7,0l-0.6,0l-0.4-0.5l-0.6,0.3l8.3-13.5v-0.8l-0.3-0.6l-0.3,0.2l-0.4,0.4l-0.5,0l0-0.4l-0.5-0.3c0,0-0.4-0.4-0.4-0.5
			v-0.6l-0.7,0l-0.5,0.4l-0.2-0.5l0.6-0.5l-0.6-0.3l-0.5,0l-0.2,0.3l-0.4-0.2l-0.1-0.4l-0.7-0.3l-0.6-0.4l-0.1,0.4l0,0.6l-0.4-0.1
			l-0.3-0.3l-0.2-0.6l-0.4-0.2v-0.4l-0.3-0.4l-0.6-0.3l-0.5-0.3l-0.6-0.2l-0.2-0.4l-0.6-0.2h-0.5l-0.5,0l-0.2-0.1l-0.2,0.5l0,0.3
			h-0.3l-0.5-0.2l-0.6,0.3l-0.1,0.5l0,0.4l-0.6,0.2l-0.5-0.3l-0.6-0.2l-0.4,0.1l-0.3,0.3l-0.4,0.2l-0.4,0l-0.1-0.8l-0.2-0.4
			l-0.3-0.2l-0.3,0.2l0,0.4l-0.2,0.1l-0.3-0.2l0-0.4c0,0,0.2-0.3,0.1-0.4c-0.1-0.1-0.3-0.2-0.4-0.3c-0.1,0-0.6-0.1-0.6-0.1l-0.6-0.2
			l-0.4-0.1l-0.3,0.1l-0.3-0.4l0-0.4l-0.4,0c-0.1,0.1-0.2,0.2-0.3,0.2c-0.2,0.1-0.2,0.4-0.2,0.4l-0.3,0.1l-0.3,0.5l-0.3,0.5
			l-0.5,0.7l-0.4,0.2l-0.5,0.2l-0.5-0.1l-0.5-0.1l-0.4,0.5l-0.4,0.6l0,0.3l-0.2,0.1l-0.4-0.3l-0.3-0.1l-0.3,0.1l-0.6,0.4l-0.6,0.2
			l-0.4-0.2l-0.2-0.4l-0.6,0l-1.4-0.1l-0.4-0.1l-0.4-0.4l-0.3,0.1l-0.2,0.5l-0.4,0.3l-0.2,0.3l-0.2-0.5l-0.2-0.3l-0.2,0.2l-0.2,0.2
			l-0.3-0.4l-0.5,0.2l-0.4,0.3l-0.3,0.2l-0.8,0v-0.4l-0.1-0.3l-0.2-0.5l-0.6-0.1l-0.5,0c0,0-0.4-0.2-0.4-0.3s-0.5-0.3-0.5-0.3
			l-0.3-0.7l-0.1-0.6l0.6-0.1l0-0.7l0.3-0.2l0.2-0.3l-0.3-0.3l-0.3-0.2l0-0.7l-0.1-1.8l-0.4-0.2l-0.2-0.6l-0.5-0.4l-0.5-0.2
			l-0.3,0.4l-0.7-0.1l-0.4,0.2l-0.5-0.4l-0.7,0.1l-0.1-0.4l-0.4-0.3l-0.3-0.1l-0.2-0.4l0.1-0.5l0.3-0.3l0.1-0.4l0.3,0l0-0.4
			l-0.3-0.3v-0.4l-0.2-0.5l-0.4-0.4l-0.3-0.3l-0.2-0.8l-0.4-0.5l-0.3-0.4l-0.3-0.4l-0.3-0.2l-0.5-0.2l-0.3,0l-0.2-0.2l0,0.3l-0.3,0
			l-0.5,0l-0.5-0.3l-0.2-0.3l-0.4-0.6l0-0.3l-0.5,0l-0.1,0.1l-0.1-0.3l-0.3-0.2h-0.2c0-0.1-0.1-0.2-0.1-0.4c0-0.2-0.1-0.4-0.3-0.5
			l-0.3,0.2l0,0.5l-0.2,0l-0.4-0.3l-0.5-0.4l-1-0.2l-0.1-0.2l-0.1-0.4l0-0.6l-0.6-0.4l0.6-0.2l0.2-0.6c-0.1,0-0.2,0-0.3-0.1
			c-0.2-0.2-0.3-0.4-0.5-0.6l-0.5-0.4l0.1-0.7l0.1-0.4l-0.4-0.6l0.1-0.5l-0.4-0.2l0.2-0.3l-0.5-0.2l-0.2-0.4l-0.9-0.5
			c0,0-0.3,0.1-0.3,0c-0.2-0.3-0.3-0.6-0.5-0.9l-0.5-0.5h-0.9l-0.4-0.3c0,0-0.1-0.7-0.1-0.8c-0.1-0.3-0.3-0.5-0.4-0.7l-0.2-0.4h-0.4
			l-0.3,0.2l-0.4,0.3l-0.5-0.3l-0.8-0.8l-0.6-0.2c-0.2-0.2-0.5-0.4-0.7-0.7c-0.1-0.1-0.5-0.3-0.5-0.3h-0.5l-0.5-0.1l-0.4,0.2
			l-0.3,0.5h-0.5l-0.8-0.2l-0.6-0.1c-0.3-0.1-0.5-0.2-0.7-0.4c-0.2-0.2-0.4-0.3-0.7-0.4c-0.1-0.1-0.6-0.3-0.6-0.3l-0.5-0.3l-0.3-0.2
			l-0.4-0.1h-0.4l-0.8,0.1l-0.6-0.3l-0.3-0.3l-0.3-0.4h-0.6l-0.4-0.6l-0.5-0.6l-0.4-0.6l-0.1-0.6l-0.7-0.6l-0.5,0.1
			c0,0-0.5,0.2-0.5,0.1c0-0.2,0.1-0.3,0.2-0.5l-0.4-0.1l-0.7,0.1l-0.4-0.3l-0.3-0.1l-0.4-0.4l-0.4,0.2l-0.1,0.5l-0.6-0.1l-0.2,0.1
			l-0.1,2.1l-1.3-0.1l-0.4,0.1l-0.3,0.1l-0.2-0.3l-0.4-0.3h-1.1l-0.3-0.2l-0.2,0.1l-0.2,0.5l-0.5-0.1l-0.5-0.1l-0.2,0.4l-0.3-0.2
			l-0.3-0.4c-0.2-0.2-0.5-0.4-0.8-0.6c-0.3,0-0.5,0-0.8,0l-0.3-0.3l-0.1-0.2h-0.7l-0.3,0.1l-0.6,0.1l-0.7-0.1l-0.4-0.3h-0.9
			l-0.1,0.3l-0.4-0.8h-0.4l-0.4-0.7l-0.4-0.8l0.2-0.6l0.1-0.4l-0.6-0.3l-0.7-0.2l-0.5-0.5l-0.4-0.5l0.4-0.9l-0.6-0.6l-1.4,0.4
			l-1.9,0.4l-1.1-0.9l-1.1-0.8l-1.5-1l-0.4-0.7h-1l-1.1-0.9l-0.1-0.8l-0.8-0.3l-1.2-0.1c0,0,0.3-0.3-0.5-1c-0.5-0.4-0.9-0.8-1.2-1.2
			c0,0-0.3-0.3-0.7-0.6s-1.1-0.8-1.1-0.8v-0.6l-0.9-0.4l-0.7-0.5l-0.2-0.6l0.9-0.8l1.1-1.5l1,0.3h2.2l0.2,0.3l0.6-0.6l-0.3-1h-0.6
			v-0.6l-0.4-0.5l-0.1-0.8l0.7,0.4l0.4-0.8l0.1-1.1v-0.6l-0.5-0.1v-0.6l-0.3-0.3h-0.4l0.1-0.8l0.5-0.4l0.1-0.9l0.4-0.3h0.8l0.8-0.4
			l0.1-0.6l0.4,0.5l0.3,0.4l0.2-0.6l0.1-0.3l0.6,0.6l0.1-0.4l0.3,0.1l0.3-0.4l0.4-0.6v-0.4l0.8-0.1l0.4,0.8l0.2,0.6l0.5-0.3v-0.3
			l0.5-0.3v-0.6l0.1-0.3h0.2l0.1,0.3l0.2,0.2h0.2l-0.1-0.6l0.3-0.5l0.3-0.2l0.4,0.5l0.3,0.3l0.2-0.5l-0.1-0.1l-0.3-0.6l0.8,0.1h0.4
			l0.2,0.4v-0.7l-0.7-0.2l0.1-0.3h0.6l0.4-0.6l-0.1-0.3l0.1-0.3l0.2-0.3h0.4l0.1-0.5l0.4-0.2l-0.6-0.1l0.1,0.3l-0.3-0.5l0.6-0.9
			l1-0.8l0.3-0.4v-0.3h0.9l0.1-0.3l-0.3-0.2h-0.7l0.9-0.6l0.3-0.3l-0.1,0l0.7-0.5l0.2-0.4l0.3-0.2h0.4l0.2-0.3l0.2-0.4l-0.3-0.4
			l0.1-0.5l0.4-0.4l0.1-0.5l0.7-0.1l0.6-0.2l0.2-0.5h0.4l-0.2-0.4l-0.3-0.2l-0.1-0.7l0.3-0.6l0.3-0.2l-0.3-0.1l0.1-0.2l0.3,0.1v0
			l-0.6-0.3l-0.6-0.1l-0.6-0.1l-0.4-0.4l-0.3-0.2l0.1-0.5h0.5l0.1-0.4l-0.7-0.4l0.1,0.2l-0.2,0.3l-0.1,0.4l-0.5-0.2v-0.5l-0.5-0.3
			l-0.3-0.4l-0.2,0l-0.5-0.9l-0.3-0.5v-1.2l0.4-0.7l0.1,0.6l0.4,0.2l0.1-0.6l0.6-0.9l0.9-0.7l0.5-0.1l-0.5-0.3l-0.1-1.3l0.2-0.7
			l0.1-1.8h0.4l0.1,0.5l0.4-0.3l-0.5-0.9l-0.7-0.5l-0.3-0.6v-1.2l-0.2-0.9l-0.1-1.4l0.8-0.3l-0.1-0.3h-0.8v-1.3l0.4-0.1l-0.1-0.4
			l-0.5-0.1l-0.1-1l0.5-0.2l-0.2-0.3h-0.3l-0.2-0.6l-0.5,0.1l-0.2,0.3l-0.3-0.4l0.3-0.4l-0.2-0.3l0.1-0.3h0.4l0.4-0.2l0.6-0.3
			l0.5,0.4l0.2-0.3l0.2-0.7l0.8-0.7l0.5-0.8l-0.2-0.6l-0.6-0.9l-0.3-1.2l-0.3-1.1l-0.4-0.1l-1-1.2l-0.2-0.6h0.2v-1l0.2-0.2l0.1,0.3
			l0.3,0.3l0.1,0.5l0.3,0.1v-0.6l0.1-0.6l-0.2-0.6l-0.3-0.6l0.6,0.2v-0.5l0.2-0.7v-1.1l-0.5-0.5l-0.2-0.6l-0.4-0.4h-0.5l-0.2,0.2
			v0.5l-0.6-0.2l-0.1-1l-0.4-0.9l-0.8-0.6l-0.3-0.1l-0.4,0.4l-0.1-0.5l0.1-0.8l0.6-0.1v-0.5l-0.6-1l-1.3-1.2l-1.1-1l0.4-1.1l0.2-1.2
			l0.2-0.7l0.5,0.1l0.6-0.2l0.1-0.4l-0.1-0.9l-0.1-0.7l0.3-0.6l0.4-0.2l0.6,0.9l0.4,1l0.5,0.2l0.6-0.4l0.5-0.9l1-1.2l0.5-1.2
			l0.7-0.5l1.3-0.3l-0.1-1.1l0.3-0.7l-0.4-0.2l-0.1-0.9l-0.6-1l-0.8-1.1l-0.1-0.9l-0.4-0.7l-0.5-0.9l-0.4-0.7l0.2-0.6l0.4-0.6
			l0.2-0.2v-0.6l0.8,1.1l0.6,0.4l-0.1,0.5l0.4,0.4l0.4,0.4l0.6,0.1l0.6,0.7l0.8,1.3l1,0.2l1.5,2.2l0.3-4.9l-0.6-0.9l-0.4,0.3
			l-0.4,0.3l-0.2-0.7l0.8-0.3l-0.2-0.4l0.6-0.2h0.8l0.8-0.1l0.6-0.3l0.2-0.5l0.5-0.4l0.6-0.4l0.7-0.7l0.4-0.2l0.6-0.3l-0.1-0.4h0.3
			l0,0.1v-0.2h0.4l0.2-0.5l0.6-0.5l0.4-0.1l0.2-0.5v-0.5l1.1-0.8l-0.1-1.3l0.3-0.3l0.6-0.4l0.1-0.6h0.2l0.2-0.4h0.9l1-0.9l0.4-0.1
			l0.3,0.2l0.4-0.2h0.5l-0.3,0.2v0.4h0.5l0.6-0.3l0.6,0.1l0,0.1l0.4,0l0.6-0.7l0.4-0.9l0.2-0.7l-0.5-0.9l-0.5-0.5l-0.5,0l0.7-1
			l0.1-0.7l0.1-0.8l0.2-0.5l0.3-0.2l0.1-0.4l0.3-0.4l-0.1-0.4l-0.4-0.4l-0.2-0.2l-0.1-0.5l0.6,0.2l0.2,0.1l-0.1-0.1l-0.1-0.4l0.3,0
			l0.2-0.4c-0.1-0.3-0.3-0.5-0.5-0.7l-0.1,0.2l-0.4,0.4l-0.6,0.4l-0.2,0.4h-0.4l-0.2-0.6l0.2,0.2l0.3-0.1l0.3-0.4l0.3-0.4l-0.2-0.2
			l0-0.3l0.3,0v-0.6l0-0.4l0.3-0.5h0.3l0.1,0.4l-0.3,0.3l-0.2,0.3l0.2,0.2l0.4-0.1l0.1-0.5v-0.5l-0.4-0.4l-0.1-0.4l0.4-0.4l0.2-0.4
			l0.2,0.5l0.1,0.3l0.2-0.5l-0.1-0.6l-0.3-0.5l0.2-0.4l0.5-0.4l0.2-0.4l0.4-0.4l0.3-0.3h0.6l0.4-0.2l0.5-0.9v0l0,0l0.9-0.4l0.5-0.4
			l0.9-0.8l0.3-0.1v-0.5l0.6-0.4l0.6-0.2l0.5-0.6l0.5-0.5l0.6,0.4l0.3,0.4l-0.5-0.7l0.5,0.2l2.2,1l1.7,0.5l1.7-0.1l0.7-0.6l0.5-0.6
			l-0.1-0.6v-0.8l-0.3-0.4l0.4-0.4l0.2-0.6l0.1-0.3h0.5l0.2-0.5h0.6v0.1l0.4-0.1l0.4-0.3l1.7,0.9l1.4,0.6l1.4-0.1h1l-0.1,0.3
			l0.1-0.3l1.7-0.1l1.3-0.1l0.5-0.3l0.7-0.4l0.4-0.6l0.4-0.4l0.6-0.2l0.6-0.7l0.5-0.5l0.4-0.3l0.5-0.3l0.5-0.4l1.2-1.2l0.6-0.4
			l1.4-0.4l1.2-0.2l1.1-0.3l1-0.5l1.1-0.8l0.6-0.6l0.5-1.1l0.2-0.8l0.2-0.4l0-1.1l-0.1-0.3h-0.4l0.1-0.2l0.2-0.2h0.4l0.2,0.1h0.3
			l0.1-0.2h0.6l0.2,0l0.3-0.1h0.4l0.1,0.2v0.3l-0.2,0l-0.2,0.1l0,0.2l-0.1,0.4l0.4,0.2l0.5,0l0.1-0.4l0.4-0.1l0.4-0.1v-0.4l-0.3-0.3
			l-0.1-0.3l-0.4-0.1l-0.4,0.1l0.2-0.3l0.4-0.4l0.8-0.8l0.1,0.8l0.3,0.1l0.5-0.4l0.1-0.2l0-0.4l0.2-0.2l0.1,0.1l0.1,0.2l0.2,0.1
			l0.1-0.3l0.2,0h0.4l0-0.3l-0.2,0l0.1-0.1l-0.3,0l-0.4,0.1l-0.3,0l0-0.2l0.5-0.2h0.6l0.6,0.3h0.9l0.3,0.1l0.2,0.1l0.1,0.3l0.3,0.2
			h0.6l0.4,0.2l0.3,0.2l0.5,0l0.7,0.4l0.3,1l0.4,0.7l0.5,0.8l0.4,0.7v0.4l-0.2,0.2l-0.3,0.3l-0.4,0.2l-0.5,0.4l-0.3,0.3l-0.2,0.2
			l-0.2-0.2h-0.4v0.4l0.2,0.1v0.3l-0.4,0.6l-2.2,0.9l-2.1,0.7l-3.1,1l-1.2,2.7l-2,3.7l-0.7,0.1l-1.2,0.5l-1,0.9l-0.6,0.9l-0.6,1.4
			l-0.5,1.8l-0.7,1.2l-0.6,1.4l-0.9,1.2l-1,0l0,0l1.1,0.1l-1.3,1.5l0.1,2.3l-1,1.9l0.1,1.1l0.6,0.7l-1.1,0.9l0.1,0.6l-0.9,2.1
			l-1.3,0.9l0.3,0.5l-0.8,0.7l-0.5,0.8l-0.1,1.1l-0.2,0.5l-0.2,0.4v0.3l0.1-0.1l0.5,0.1l2-0.8l0.5-0.7l0.5-0.1l0.8,0.6l0.3,0.5v1.2
			l0.5,0.3l0.4-0.5h0.6l0.8,0.2l-0.1,0.8l0.3,0.8l0.3,1.1l0.5,1.9l0.4,1.1l-0.1,0.8h0.5l0.3,0.5l1.2,1.5l1.3,1.1l0.2,1.3l-0.1,1.2
			v1.1l0.2,0.5l-0.5,0.6l-0.9,0.4l0.1,1l0.3,0.7l-0.5,1.2l-0.1,0.6l0.3,1.2v1.2l0.3,0.5l0.1,0.6v0.2l0.5-0.2l0.9,0.5l0.3-0.3
			l0.7-0.2l0.9,1l-0.1,1l1.3,2.5l0,0l1,0.5h0.4v0.1l0.7-0.1l1.4-0.8l0.6,0.5l1.2-0.3l0.7,0.3h2l0.6,0.4l0.8-0.2l0.8,0.2l1.2-0.2
			l0.4,0.5h1.2l1.5-0.8l2.1-0.6l1,0.3l0.7-0.1l0.5,0.7v0.2h0.8l0.5,0.7l0.5-0.1l1.1,0.5l0.4-0.1l0.3-0.6l1.5,0.2l8.4,11l-0.1,0.3
			l0.3-0.4l0.9-0.3l0.8,0.7h0.7l0.5-0.8l0.6-0.3l0.2-0.7h1.7l0.8,0.5l3.3,0.5l0.9-0.4l0.8,0.2l0.8-0.5l2.4,0.1l0.9-0.5l1.3-0.4
			l1.5,0.7l1.1-1.1l0.9-0.4l2,0.1h1.1l1,0.9l0.3,0.8l-0.3,0.5l0.8,0.8l0.3,0.9l-0.1,0.4l-0.6-0.2l-0.9,1l-0.8,1.2l-0.4,1.6v0.6
			l0.4,1.1l-0.2,0.8l-0.4,0.7l-1.4,0.6l-1,0.9l0.3,1.6l-0.3,0.8l0.4,1.2l-0.3,1.6l-0.2,0.6l0.5,1.6l-0.6,1.4l-0.4,1.4l0.8,0.3l1.1,2
			l-0.4,1.3l-0.3,0.8l0.7,0.7l0.4,1l-0.1,0.5c0,0,0.1,0,0.1,0.1c0,0,0,0,0,0l0,0l0.4,1v0.5l0.6,0.7l0.2,1.4h0.4l0.9-0.3l0.6,0.6
			l1.2,3.3l0.9,0.5l-0.3,0.6l-0.2,0.5l-0.6,0.4v0.8h-0.4l-0.3,0.6l-4.9,4.3l-0.2,1.2l0.5-0.5l0.8-0.1l0.1-0.3l1.3,0.8l0.4-0.4l0.9,2
			l0.7-0.1l2.4,2.8l1.1,1l0.3,0.8l-0.5,0.8l0.5,1.4l0.9,0.4l0.4,1.1l-0.5,0.8l0.6,0.7l0.3,2l1.3,2.4l0.1,0.8l0.3,1.1l0.7,1.1
			l-0.3,1.1L-839.4-392.6z"/>
	</g>
	<ellipse id="Elipse_113" class="st35" cx="-894.3" cy="-356.5" rx="6.3" ry="6.3"/>
</g>
</svg>
