<?xml version="1.0" encoding="utf-8"?>
<!-- Generator: Adobe Illustrator 24.0.1, SVG Export Plug-In . SVG Version: 6.00 Build 0)  -->
<svg version="1.1" xmlns="http://www.w3.org/2000/svg" xmlns:xlink="http://www.w3.org/1999/xlink" x="0px" y="0px"
	 viewBox="0 0 220.5 43.2" style="enable-background:new 0 0 220.5 43.2;" xml:space="preserve">
<style type="text/css">
	.st0{clip-path:url(#SVGID_2_);}
	.st1{opacity:0;}
	.st2{fill:#FFFCF2;}
	.st3{fill:#FFFFFF;}
	.st4{opacity:0.6;fill:#FFFFFF;enable-background:new    ;}
	.st5{fill:none;stroke:#FFFFFF;}
	.st6{fill:none;}
	.st7{fill:none;stroke:#FFFFFF;stroke-width:2;}
	.st8{fill:none;stroke:#FCFCFC;stroke-width:4.662;stroke-miterlimit:10;}
	.st9{fill:none;stroke:#FFFFFF;stroke-width:4.662;stroke-miterlimit:10;}
	.st10{fill:#FFFFFF;stroke:#FFFFFF;stroke-width:4.662;stroke-miterlimit:10;}
	.st11{fill:#FFFFFF;stroke:#FFFFFF;stroke-miterlimit:10;}
	.st12{opacity:0.45;clip-path:url(#SVGID_4_);}
	.st13{opacity:0.303;}
	.st14{fill-opacity:0;}
	.st15{opacity:0.45;clip-path:url(#SVGID_6_);}
</style>
<g id="Background">
</g>
<g id="Texto">
	<g id="Grupo_541_1_" transform="translate(-725.356 -330.438)">
		<g id="Grupo_539_1_" transform="translate(1662.326 945)">
			<path id="Trazado_1648_1_" class="st8" d="M-719-583l-24.4-24.4l-24.4,24.4l-24.4-24.4l-24.4,24.4"/>
			<circle id="Elipse_101_1_" class="st3" cx="-792.4" cy="-587.7" r="2.5"/>
			<circle id="Elipse_102_1_" class="st3" cx="-814" cy="-604.6" r="2.5"/>
			<circle id="Elipse_103_1_" class="st3" cx="-719" cy="-604.6" r="2.5"/>
			<circle id="Elipse_104_1_" class="st3" cx="-767.8" cy="-604.6" r="2.5"/>
			<circle id="Elipse_105_1_" class="st3" cx="-743.2" cy="-587.7" r="2.5"/>
		</g>
		<g id="Grupo_540_1_" transform="translate(1544.275 940.184)">
			<line id="Línea_12_1_" class="st9" x1="-773.6" y1="-598.8" x2="-794.9" y2="-577.4"/>
			<line id="Línea_13_1_" class="st9" x1="-734.3" y1="-598.8" x2="-755.7" y2="-577.4"/>
			<line id="Línea_14_1_" class="st9" x1="-753.6" y1="-577.1" x2="-774.5" y2="-598"/>
			<line id="Línea_15_1_" class="st9" x1="-792.6" y1="-577.1" x2="-814.2" y2="-598.7"/>
			<circle id="Elipse_106_1_" class="st11" cx="-773.7" cy="-581.5" r="2.2"/>
			<circle id="Elipse_107_1_" class="st11" cx="-735.3" cy="-581.5" r="2.2"/>
			<circle id="Elipse_108_1_" class="st11" cx="-792.7" cy="-596.3" r="2.2"/>
			<circle id="Elipse_109_1_" class="st11" cx="-752.1" cy="-596.3" r="2.2"/>
			<ellipse id="Elipse_110_1_" class="st9" cx="-774.6" cy="-603.1" rx="3.1" ry="4.4"/>
			<ellipse id="Elipse_111_1_" class="st9" cx="-735.3" cy="-603.1" rx="3.1" ry="4.4"/>
			<circle id="Elipse_112_1_" class="st11" cx="-813.5" cy="-581.5" r="2.2"/>
			<ellipse id="Elipse_113_1_" class="st9" cx="-813.5" cy="-603.1" rx="3.1" ry="4.4"/>
			<ellipse id="Elipse_114_1_" class="st9" cx="-794.1" cy="-573.2" rx="3.1" ry="4.4"/>
			<ellipse id="Elipse_115_1_" class="st9" cx="-755" cy="-573.2" rx="3.1" ry="4.4"/>
		</g>
	</g>
</g>
<g id="Curvas">
</g>
</svg>
