<?xml version="1.0" encoding="utf-8"?>
<!-- Generator: Adobe Illustrator 24.0.1, SVG Export Plug-In . SVG Version: 6.00 Build 0)  -->
<svg version="1.1" id="Capa_1" xmlns="http://www.w3.org/2000/svg" xmlns:xlink="http://www.w3.org/1999/xlink" x="0px" y="0px"
	 viewBox="0 0 177.5 57.4" style="enable-background:new 0 0 177.5 57.4;" xml:space="preserve">
<style type="text/css">
	.st0{fill:#50722D;}
	.st1{fill:#D1A942;}
	.st2{fill:none;stroke:#E5651D;stroke-width:3;stroke-miterlimit:10;}
	.st3{fill:none;}
	.st4{fill:#E5651D;}
	.st5{fill:#11391E;}
	.st6{fill:none;stroke:#D1A942;stroke-width:3;stroke-miterlimit:10;}
	.st7{fill:none;stroke:#50722D;stroke-width:3;stroke-miterlimit:10;}
</style>
<g id="Grupo_2018_2_" transform="translate(149.165 69.11)">
	<g id="Grupo_780_2_">
		<g id="Grupo_779_2_">
			<path id="Trazado_2503_2_" class="st6" d="M-125.7-14.1l-21.5-26.3l21.5-26.3l21.5,26.3L-125.7-14.1z"/>
			<path id="Trazado_2504_2_" class="st6" d="M-125.7-27.1l-10.9-13.3l10.9-13.3l10.9,13.3L-125.7-27.1z"/>
			<g id="Trazado_2505_2_" transform="translate(-947.881 -302.888)">
				<path class="st3" d="M822.1,267.6l-4.2-5.1l4.2-5.1l4.2,5.1L822.1,267.6z"/>
				<path class="st1" d="M822.1,262.9l0.3-0.4l-0.3-0.4l-0.3,0.4L822.1,262.9 M822.1,267.6l-4.2-5.1l4.2-5.1l4.2,5.1L822.1,267.6z"
					/>
			</g>
			<line id="Línea_47_2_" class="st6" x1="-147.2" y1="-40.4" x2="-105.2" y2="-40.4"/>
		</g>
	</g>
	<g id="Grupo_782_2_" transform="translate(43.848)">
		<g id="Grupo_781_2_">
			<path id="Trazado_2506_2_" class="st6" d="M-125.7-14.1l-21.5-26.3l21.5-26.3l21.5,26.3L-125.7-14.1z"/>
			<path id="Trazado_2507_2_" class="st6" d="M-125.7-27.1l-10.9-13.3l10.9-13.3l10.9,13.3L-125.7-27.1z"/>
			<g id="Trazado_2508_2_" transform="translate(-991.588 -302.888)">
				<path class="st3" d="M865.9,267.6l-4.2-5.1l4.2-5.1l4.2,5.1L865.9,267.6z"/>
				<path class="st1" d="M865.9,262.9l0.3-0.4l-0.3-0.4l-0.3,0.4L865.9,262.9 M865.9,267.6l-4.2-5.1l4.2-5.1l4.2,5.1L865.9,267.6z"
					/>
			</g>
			<line id="Línea_48_2_" class="st6" x1="-147.2" y1="-40.4" x2="-105.2" y2="-40.4"/>
		</g>
	</g>
	<g id="Grupo_784_2_" transform="translate(86.835)">
		<g id="Grupo_783_2_">
			<path id="Trazado_2509_2_" class="st6" d="M-125.7-14.1l-21.5-26.3l21.5-26.3l21.5,26.3L-125.7-14.1z"/>
			<path id="Trazado_2510_2_" class="st6" d="M-125.7-27.1l-10.9-13.3l10.9-13.3l10.9,13.3L-125.7-27.1z"/>
			<g id="Trazado_2511_2_" transform="translate(-1034.437 -302.888)">
				<path class="st3" d="M908.7,267.6l-4.2-5.1l4.2-5.1l4.2,5.1L908.7,267.6z"/>
				<path class="st1" d="M908.7,262.9l0.3-0.4l-0.3-0.4l-0.3,0.4L908.7,262.9 M908.7,267.6l-4.2-5.1l4.2-5.1l4.2,5.1L908.7,267.6z"
					/>
			</g>
			<line id="Línea_49_2_" class="st6" x1="-147.2" y1="-40.4" x2="-105.2" y2="-40.4"/>
		</g>
	</g>
	<g id="Grupo_786_2_" transform="translate(130.683)">
		<g id="Grupo_785_2_">
			<path id="Trazado_2512_2_" class="st6" d="M-125.7-14.1l-21.5-26.3l21.5-26.3l21.5,26.3L-125.7-14.1z"/>
			<path id="Trazado_2513_2_" class="st6" d="M-125.7-27.1l-10.9-13.3l10.9-13.3l10.9,13.3L-125.7-27.1z"/>
			<g id="Trazado_2514_2_" transform="translate(-1078.144 -302.888)">
				<path class="st3" d="M952.4,267.6l-4.2-5.1l4.2-5.1l4.2,5.1L952.4,267.6z"/>
				<path class="st1" d="M952.4,262.9l0.3-0.4l-0.3-0.4l-0.3,0.4L952.4,262.9 M952.4,267.6l-4.2-5.1l4.2-5.1l4.2,5.1L952.4,267.6z"
					/>
			</g>
			<line id="Línea_50_2_" class="st6" x1="-147.2" y1="-40.4" x2="-105.2" y2="-40.4"/>
		</g>
	</g>
</g>
</svg>
