<?xml version="1.0" encoding="utf-8"?>
<!-- Generator: Adobe Illustrator 24.0.1, SVG Export Plug-In . SVG Version: 6.00 Build 0)  -->
<svg version="1.1" id="Capa_1" xmlns="http://www.w3.org/2000/svg" xmlns:xlink="http://www.w3.org/1999/xlink" x="0px" y="0px"
	 viewBox="0 0 177.5 57.4" style="enable-background:new 0 0 177.5 57.4;" xml:space="preserve">
<style type="text/css">
	.st0{fill:#50722D;}
	.st1{fill:#D1A942;}
	.st2{fill:none;stroke:#E5651D;stroke-width:3;stroke-miterlimit:10;}
	.st3{fill:none;}
	.st4{fill:#E5651D;}
	.st5{fill:#11391E;}
	.st6{fill:none;stroke:#D1A942;stroke-width:3;stroke-miterlimit:10;}
	.st7{fill:none;stroke:#50722D;stroke-width:3;stroke-miterlimit:10;}
</style>
<g id="Grupo_2018_3_" transform="translate(-351.772 2473.375)">
	<g id="Grupo_780_3_" transform="translate(947.937 302.956)">
		<g id="Grupo_779_3_">
			<path id="Trazado_2503_3_" class="st2" d="M-572.7-2721.3l-21.5-26.3l21.5-26.3l21.5,26.3L-572.7-2721.3z"/>
			<path id="Trazado_2504_3_" class="st2" d="M-572.7-2734.3l-10.9-13.3l10.9-13.3l10.9,13.3L-572.7-2734.3z"/>
			<g id="Trazado_2505_3_" transform="translate(-947.881 -302.888)">
				<path class="st3" d="M375.1-2439.6l-4.2-5.1l4.2-5.1l4.2,5.1L375.1-2439.6z"/>
				<path class="st4" d="M375.1-2444.3l0.3-0.4l-0.3-0.4l-0.3,0.4L375.1-2444.3 M375.1-2439.6l-4.2-5.1l4.2-5.1l4.2,5.1
					L375.1-2439.6z"/>
			</g>
			<line id="Línea_47_3_" class="st2" x1="-594.2" y1="-2747.6" x2="-552.2" y2="-2747.6"/>
		</g>
	</g>
	<g id="Grupo_782_3_" transform="translate(991.785 302.956)">
		<g id="Grupo_781_3_">
			<path id="Trazado_2506_3_" class="st2" d="M-572.7-2721.3l-21.5-26.3l21.5-26.3l21.5,26.3L-572.7-2721.3z"/>
			<path id="Trazado_2507_3_" class="st2" d="M-572.7-2734.3l-10.9-13.3l10.9-13.3l10.9,13.3L-572.7-2734.3z"/>
			<g id="Trazado_2508_3_" transform="translate(-991.588 -302.888)">
				<path class="st3" d="M418.9-2439.6l-4.2-5.1l4.2-5.1l4.2,5.1L418.9-2439.6z"/>
				<path class="st4" d="M418.9-2444.3l0.3-0.4l-0.3-0.4l-0.3,0.4L418.9-2444.3 M418.9-2439.6l-4.2-5.1l4.2-5.1l4.2,5.1
					L418.9-2439.6z"/>
			</g>
			<line id="Línea_48_3_" class="st2" x1="-594.2" y1="-2747.6" x2="-552.2" y2="-2747.6"/>
		</g>
	</g>
	<g id="Grupo_784_3_" transform="translate(1034.772 302.956)">
		<g id="Grupo_783_3_">
			<path id="Trazado_2509_3_" class="st2" d="M-572.7-2721.3l-21.5-26.3l21.5-26.3l21.5,26.3L-572.7-2721.3z"/>
			<path id="Trazado_2510_3_" class="st2" d="M-572.7-2734.3l-10.9-13.3l10.9-13.3l10.9,13.3L-572.7-2734.3z"/>
			<g id="Trazado_2511_3_" transform="translate(-1034.437 -302.888)">
				<path class="st3" d="M461.7-2439.6l-4.2-5.1l4.2-5.1l4.2,5.1L461.7-2439.6z"/>
				<path class="st4" d="M461.7-2444.3l0.3-0.4l-0.3-0.4l-0.3,0.4L461.7-2444.3 M461.7-2439.6l-4.2-5.1l4.2-5.1l4.2,5.1
					L461.7-2439.6z"/>
			</g>
			<line id="Línea_49_3_" class="st2" x1="-594.2" y1="-2747.6" x2="-552.2" y2="-2747.6"/>
		</g>
	</g>
	<g id="Grupo_786_3_" transform="translate(1078.62 302.956)">
		<g id="Grupo_785_3_">
			<path id="Trazado_2512_3_" class="st2" d="M-572.7-2721.3l-21.5-26.3l21.5-26.3l21.5,26.3L-572.7-2721.3z"/>
			<path id="Trazado_2513_3_" class="st2" d="M-572.7-2734.3l-10.9-13.3l10.9-13.3l10.9,13.3L-572.7-2734.3z"/>
			<g id="Trazado_2514_3_" transform="translate(-1078.144 -302.888)">
				<path class="st3" d="M505.4-2439.6l-4.2-5.1l4.2-5.1l4.2,5.1L505.4-2439.6z"/>
				<path class="st4" d="M505.4-2444.3l0.3-0.4l-0.3-0.4l-0.3,0.4L505.4-2444.3 M505.4-2439.6l-4.2-5.1l4.2-5.1l4.2,5.1
					L505.4-2439.6z"/>
			</g>
			<line id="Línea_50_3_" class="st2" x1="-594.2" y1="-2747.6" x2="-552.2" y2="-2747.6"/>
		</g>
	</g>
</g>
</svg>
