<svg xmlns="http://www.w3.org/2000/svg" width="24.648" height="38.701" viewBox="0 0 24.648 38.701">
  <g id="Grupo_4" data-name="Grupo 4" transform="translate(-82.286 -3291.442)">
    <circle id="Elipse_41" data-name="Elipse 41" cx="7.527" cy="7.527" r="7.527" transform="translate(83.457 3291.442)" fill="#12120e"/>
    <g id="Grupo_3" data-name="Grupo 3">
      <path id="path4109" d="M89.546,3298.248c-.007.42-.009.84-.012,1.261l0,.176-.177.007c-.419.014-.841.019-1.263.021-.023,4.271-.01,8.539-.011,12.809v.183l-.184,0c-.355,0-.711.007-1.068.016l-.193,0,0-.193c.007-.418,0-.835,0-1.249-1.449-.013-2.9-.02-4.347,0,0,1.443,0,2.886,0,4.329.42.008.845.027,1.27,0l.232-.016-.034.23a8.36,8.36,0,0,0-.019,1.256c.4.021.8.025,1.209.026h.172l.014.172c.068.892.034,1.788.049,2.684.417.017.836.024,1.254.028l.181,0,0,.182c.006.894,0,1.789.018,2.684.42.006.844.028,1.268,0l.214-.012-.016.212c-.071.894-.01,1.8-.017,2.693q.614.012,1.228.017H89.5l0,.183c.018,1.382.01,2.765.028,4.147,2.386.035,4.773.038,7.159.035,2.443,0,4.886.017,7.329-.042-.039-1.378.084-2.756.028-4.133l-.007-.2.2,0c.41.012.82,0,1.228-.009.015-1.371.016-2.744.018-4.115v-.169l.168-.017a12.533,12.533,0,0,1,1.258-.039c.01-1.535-.018-3.07.028-4.6v-.01c-.051-1.844-.015-3.69-.037-5.535-.414,0-.827,0-1.238-.007l-.179,0,0-.179c-.009-.407-.014-.817-.007-1.226-.425-.013-.847,0-1.268-.023l-.163-.01-.011-.163c-.03-.423-.016-.85-.021-1.279-.9,0-1.8,0-2.7-.009l-.182,0,0-.182c-.007-.406-.012-.813-.007-1.221-1.381-.073-2.765-.026-4.147-.042l-.177,0-.007-.174c-.019-.419-.026-.839-.025-1.261-.9,0-1.8,0-2.694-.016l-.179-.005,0-.179c-.018-1.859-.008-3.718-.014-5.577-.24,0-.479-.005-.719-.005-.178,0-.356,0-.535,0l-.19,0,0-.191a11.557,11.557,0,0,0-.035-1.277c-.95,0-1.9,0-2.849,0Z" fill="#fff"/>
      <path id="path3016" d="M89.545,3298.247c.95.006,1.9,0,2.85,0a12.694,12.694,0,0,1,.034,1.433c-.966.009-1.93,0-2.9.009C89.537,3299.209,89.537,3298.728,89.545,3298.247Z" fill="#191a1a"/>
      <path id="path3018" d="M88.092,3299.713c.48,0,.961,0,1.441-.023q0,7.968,0,15.934-.726.016-1.452,0c-.009-.475-.009-.952,0-1.428-.481-.018-.962-.016-1.443-.014-.015-.485-.019-.972,0-1.458.48-.017.961-.012,1.442-.019,0-4.331-.013-8.662.011-12.993Z" fill="#191a1a"/>
      <path id="path3020" d="M92.435,3299.715c.479-.007.958,0,1.437,0,.006,1.92-.007,3.841.014,5.761.958.025,1.916.011,2.875.016,0,.479,0,.958.028,1.437,1.442.024,2.886-.034,4.327.042q-.007.7.008,1.4c.96.018,1.921.007,2.882.01.007.481-.024.965.027,1.444.477.042.956.017,1.435.031-.008.469,0,.938.008,1.406.473.009.946.013,1.421.009.022,1.847-.014,3.693.037,5.539-.047,1.537-.019,3.074-.029,4.611a10.755,10.755,0,0,0-1.425.053c0,1.428,0,2.857-.019,4.285-.474.015-.95.031-1.423.007-.054-1.453-.029-2.908-.015-4.362q.715.008,1.433,0,0-5.065.006-10.13c-.477-.007-.954-.006-1.432,0-.027-.47,0-.943-.034-1.412a7.748,7.748,0,0,0-1.436-.037c-.01,1.449.017,2.9-.012,4.347h-1.419c-.032-1.932,0-3.864-.011-5.8-.968-.006-1.937,0-2.9,0,0,1.447.015,2.9,0,4.341q-.72.016-1.438,0c-.01-1.93-.012-3.861.012-5.792-.97-.005-1.938-.006-2.908.006-.01,1.928.008,3.857,0,5.785-.484.014-.97.015-1.455,0q0-6.5.012-13.01Z" fill="#191a1a"/>
      <path id="path3026" d="M82.287,3311.291c1.449-.024,2.9-.017,4.347-.005.01.48.019.959,0,1.439-.961.023-1.923.006-2.883.013-.035.957.052,1.916-.014,2.871a10.851,10.851,0,0,1-1.456.01C82.284,3314.176,82.289,3312.734,82.287,3311.291Z" fill="#191a1a"/>
      <path id="path3030" d="M83.782,3315.642a7.747,7.747,0,0,1,1.406-.032c.01.483.011.967.007,1.451.483,0,.966,0,1.45.008.011.963,0,1.926.006,2.889q.715,0,1.433,0c-.006.966.063,1.939-.036,2.9a13.034,13.034,0,0,1-1.412,0c-.015-.954-.013-1.909-.022-2.863-.478,0-.956-.012-1.434-.031-.016-.951.031-1.9-.056-2.852-.462,0-.926-.006-1.387-.03a6.237,6.237,0,0,1,.045-1.446Z" fill="#191a1a"/>
      <path id="path3038" d="M88.114,3322.869c.473-.037.948-.015,1.423-.012.013.961,0,1.922,0,2.882.482,0,.966,0,1.449.015.009.961-.009,1.923.005,2.884q5.779.014,11.558.005c.015-.962,0-1.924.006-2.886.494-.007.987-.014,1.48.014.078,1.442-.064,2.885-.023,4.329-2.443.059-4.886.037-7.329.041-2.386,0-4.772,0-7.158-.034-.019-1.443-.009-2.886-.031-4.328-.47,0-.941-.009-1.412-.018.008-.964-.07-1.934.029-2.892Z" fill="#191a1a"/>
    </g>
  </g>
</svg>
