<svg xmlns="http://www.w3.org/2000/svg" xmlns:xlink="http://www.w3.org/1999/xlink" width="57" height="30" viewBox="0 0 57 30">
  <defs>
    <clipPath id="clip-path">
      <rect id="Rect치ngulo_1" data-name="Rect치ngulo 1" width="42.009" height="12.422" fill="none" stroke="#e5661d" stroke-width="2"/>
    </clipPath>
  </defs>
  <g id="Grupo_9" data-name="Grupo 9" transform="translate(-73 -380)">
    <rect id="Rect치ngulo_4" data-name="Rect치ngulo 4" width="57" height="30" transform="translate(73 380)" fill="none"/>
    <g id="Grupo_2" data-name="Grupo 2" transform="translate(79 387.887)">
      <g id="Grupo_1" data-name="Grupo 1" transform="translate(0 0)" clip-path="url(#clip-path)">
        <path id="Trazado_1" data-name="Trazado 1" d="M42.018,13.383,31.932,3.3,21.845,13.383,11.735,3.3,1.648,13.383" transform="translate(-1.064 -2.128)" fill="none" stroke="#fff" stroke-miterlimit="10" stroke-width="2"/>
        <path id="Trazado_2" data-name="Trazado 2" d="M29.036,24.368a1.055,1.055,0,1,1-1.055-1.055,1.055,1.055,0,0,1,1.055,1.055" transform="translate(-17.383 -15.051)" fill="#fff"/>
        <path id="Trazado_3" data-name="Trazado 3" d="M3.758,4.718A1.055,1.055,0,1,1,2.7,3.663,1.055,1.055,0,0,1,3.758,4.718" transform="translate(-1.064 -2.365)" fill="#fff"/>
        <path id="Trazado_4" data-name="Trazado 4" d="M114.693,4.718a1.055,1.055,0,1,1-1.055-1.055,1.055,1.055,0,0,1,1.055,1.055" transform="translate(-72.683 -2.365)" fill="#fff"/>
        <path id="Trazado_5" data-name="Trazado 5" d="M57.737,4.718a1.055,1.055,0,1,1-1.055-1.055,1.055,1.055,0,0,1,1.055,1.055" transform="translate(-35.913 -2.365)" fill="#fff"/>
        <path id="Trazado_6" data-name="Trazado 6" d="M86.446,24.368a1.055,1.055,0,1,1-1.055-1.055,1.055,1.055,0,0,1,1.055,1.055" transform="translate(-54.447 -15.051)" fill="#fff"/>
      </g>
    </g>
  </g>
</svg>
