<svg xmlns="http://www.w3.org/2000/svg" viewBox="0 0 370.9 59"><defs><style>.cls-1{isolation:isolate;opacity:0.6;}</style></defs><g id="Capa_1" data-name="Capa 1"><g id="Grupo_1722" data-name="Grupo 1722"><g id="Grupo_3" data-name="Grupo 3"><g id="Grupo_1" data-name="Grupo 1"><path id="Trazado_1" data-name="Trazado 1" d="M82.6,0h-.1a2,2,0,0,0-1.9,1.9v29.8a1.9,1.9,0,0,0,1.9,1.9,2,2,0,0,0,1.9-1.9h0l.1-29.8a1.61,1.61,0,0,0-.6-1.3A1.5,1.5,0,0,0,82.6,0Z"/><path id="Trazado_2" data-name="Trazado 2" d="M103.79,0h0a2,2,0,0,0-2,1.9v23.7l-9.9-14.4a1.82,1.82,0,0,0-1.6-.8,2,2,0,0,0-1.1.3,1.82,1.82,0,0,0-.8,1.6,2,2,0,0,0,.3,1.1l13.41,19.3a1.33,1.33,0,0,0,.69.6A1.8,1.8,0,0,0,105,33a1.76,1.76,0,0,0,.6-1.3l.1-29.8a2.12,2.12,0,0,0-1.9-1.9Z"/><path id="Trazado_3" data-name="Trazado 3" d="M137,1.56a2.18,2.18,0,0,0-2.8-1.2,2,2,0,0,0-1.2,1.2l-11.6,29c-.1.2-.1.5-.2.8a2.11,2.11,0,0,0,2.1,2.1,1.92,1.92,0,0,0,1.2-.4,2,2,0,0,0,.8-1l2.7-6.8,1.7-4.2,4-10.4c.4-.9.7-1.4,1.2-1.4s.8.5,1.2,1.4l4,10.3h0l1.8,4.5,2.6,6.6a2.54,2.54,0,0,0,.8,1,1.75,1.75,0,0,0,1.2.4,2.22,2.22,0,0,0,2.2-2.2,2.35,2.35,0,0,0-.2-.8Z"/><path id="Trazado_4" data-name="Trazado 4" d="M188.4,4.46c.7.5,1.2.8,1.4,1a1.87,1.87,0,0,0,1.4.5,2.1,2.1,0,0,0,1.4-.7h0a2.32,2.32,0,0,0,.6-1.6v-.2a3,3,0,0,0-.8-1.6,20.28,20.28,0,0,0-1.8-1.3,1.71,1.71,0,0,0-1-.3,2.86,2.86,0,0,0-.9.2,2,2,0,0,0-1.2,1.8A1.87,1.87,0,0,0,188.4,4.46Z"/><path id="Trazado_5" data-name="Trazado 5" d="M191.7,25.46a2.1,2.1,0,0,0-1.5.5,13,13,0,0,1-8.7,3,11.21,11.21,0,0,1-8.9-3.6q-3.3-3.6-3.3-9.6a18.9,18.9,0,0,1,.8-5.3,3.34,3.34,0,0,0,.1-1.7,3.39,3.39,0,0,0-.9-1.4,2.39,2.39,0,0,0-1.4-.5,1.27,1.27,0,0,0-.6.1,2.43,2.43,0,0,0-1.7,1.4,18.47,18.47,0,0,0-1.5,7.4,17.42,17.42,0,0,0,4.9,12.6,16.3,16.3,0,0,0,12.3,5,17.36,17.36,0,0,0,11.5-4,2.29,2.29,0,0,0,.8-1.7,2,2,0,0,0-.6-1.5A1.43,1.43,0,0,0,191.7,25.46Z"/><path id="Trazado_6" data-name="Trazado 6" d="M211.3,12.06a3.33,3.33,0,0,0-1.7.2c-.2.1-.2.7-.2,1.6v17.7a2,2,0,1,0,3.79,1.2,2.44,2.44,0,0,0,0-1.2V13.86a3.66,3.66,0,0,0-.2-1.6A3.4,3.4,0,0,0,211.3,12.06Z"/><path id="Trazado_7" data-name="Trazado 7" d="M211.3.26a1.43,1.43,0,0,0-1.9.5,1.48,1.48,0,0,0,0,1.3v3.4a3.84,3.84,0,0,0,.2,1.6,6.16,6.16,0,0,0,3.3,0c.2-.1.2-.7.2-1.6V2.06a1.43,1.43,0,0,0-.5-1.9,1.23,1.23,0,0,0-1.3.1Z"/><path id="Trazado_8" data-name="Trazado 8" d="M250.9,2.26a16.81,16.81,0,0,0-16.8,0,17.81,17.81,0,0,0-6.1,6.1,16.49,16.49,0,0,0,0,16.8,17.81,17.81,0,0,0,6.1,6.1,16.8,16.8,0,0,0,16.8,0,17,17,0,0,0,6.1-6.1,16.31,16.31,0,0,0,2.3-8.4,16.86,16.86,0,0,0-8.4-14.5Zm2.79,21.1a14.58,14.58,0,0,1-4.8,4.8,12.49,12.49,0,0,1-6.5,1.8h0a12.57,12.57,0,0,1-3.3-.5,16.59,16.59,0,0,1-3.1-1.2,10.63,10.63,0,0,1-2.59-2.1,17.09,17.09,0,0,1-2.1-2.6,12.87,12.87,0,0,1,0-13A10.88,10.88,0,0,1,233.4,8,17,17,0,0,1,236,5.86a12.49,12.49,0,0,1,6.5-1.8,12.38,12.38,0,0,1,9.2,3.9,16.5,16.5,0,0,1,2.1,2.6,12.46,12.46,0,0,1-.1,12.8Z"/><path id="Trazado_9" data-name="Trazado 9" d="M275.5.86a1.34,1.34,0,0,0-.7-.6,1.8,1.8,0,0,0-2.2.3,1.76,1.76,0,0,0-.6,1.3l-.1,29.8a2,2,0,0,0,1.9,1.9h.1a2,2,0,0,0,1.9-1.9V8.36l10.2,16a1.82,1.82,0,0,0,1.6.8,2,2,0,0,0,1.09-.3,1.82,1.82,0,0,0,.81-1.6,1.94,1.94,0,0,0-.31-1.1Z"/><path id="Trazado_10" data-name="Trazado 10" d="M295,0a2,2,0,0,0-1.9,1.9l-.1,29.8a1.58,1.58,0,0,0,.6,1.3,1.61,1.61,0,0,0,1.3.6h.1a2,2,0,0,0,1.9-1.9V2A2,2,0,0,0,295,0Z"/><path id="Trazado_11" data-name="Trazado 11" d="M331.49,29.76h-5a2.31,2.31,0,0,0-1.8,2.8,1.42,1.42,0,0,0,.2.6,3,3,0,0,0,1.6.2h5a2.87,2.87,0,0,0,1.61-.2c.19-.2.19-.7.19-1.6a4.13,4.13,0,0,0-.19-1.6A3,3,0,0,0,331.49,29.76Z"/><path id="Trazado_12" data-name="Trazado 12" d="M331.49.16h-5a2.31,2.31,0,0,0-1.8,2.8,1.42,1.42,0,0,0,.2.6,3,3,0,0,0,1.6.2h5a2.87,2.87,0,0,0,1.61-.2c.19-.2.19-.7.19-1.6a4.13,4.13,0,0,0-.19-1.6A4.46,4.46,0,0,0,331.49.16Z"/><path id="Trazado_13" data-name="Trazado 13" d="M329.4,17.66a1.56,1.56,0,0,0,.5-1.3h0a1.59,1.59,0,0,0-.61-1.3,2.08,2.08,0,0,0-1.3-.5h-11.2V2.36a1.79,1.79,0,0,0-.69-1.5,2.2,2.2,0,0,0-1.5-.6,2.12,2.12,0,0,0-2.11,2.1v28.9a2.11,2.11,0,0,0,2.11,2.1,2,2,0,0,0,1.5-.6,2.16,2.16,0,0,0,.69-1.5V18.16H328A1.4,1.4,0,0,0,329.4,17.66Z"/><path id="Trazado_14" data-name="Trazado 14" d="M365.29,6.46c0,.1.11.1.2.2a1.91,1.91,0,0,0,1.4.7,1.69,1.69,0,0,0,1-.3h0a2,2,0,0,0,.8-1.2,1.79,1.79,0,0,0-.4-1.4c-.19-.3-.39-.4-.5-.6a1.61,1.61,0,0,0-1.3-.6,1.76,1.76,0,0,0-1.5.8h0a1.69,1.69,0,0,0-.3,1,2.11,2.11,0,0,0,.5,1.3C365.2,6.26,365.29,6.36,365.29,6.46Z"/><path id="Trazado_15" data-name="Trazado 15" d="M352.4,26.36a1.61,1.61,0,0,0-1.3-.6,1.75,1.75,0,0,0-1.5.8,2,2,0,0,0-.31,1,1.66,1.66,0,0,0,.5,1.2l.2.2.2.2a1.51,1.51,0,0,0,1.4.7,1.69,1.69,0,0,0,1-.3h0a2,2,0,0,0,.8-1.2,1.74,1.74,0,0,0-.3-1.4A1.33,1.33,0,0,1,352.4,26.36Z"/><path id="Trazado_16" data-name="Trazado 16" d="M362.29,15.46l-2-.5h-.19c-.11,0-.31-.1-.5-.1a6.37,6.37,0,0,0-.7-.2,10.1,10.1,0,0,1-2.3-.7,8.44,8.44,0,0,1-3-1.9,3.94,3.94,0,0,1-1-2.7,4.65,4.65,0,0,1,1.8-3.8,7.09,7.09,0,0,1,4.39-1.5h.41a2.1,2.1,0,0,0,1.1-.4,1.83,1.83,0,0,0,.7-1h0a2.06,2.06,0,0,0-.3-1.5,1.71,1.71,0,0,0-1.3-.7h0c-.11,0-.2-.1-.3-.1h-.81a12.4,12.4,0,0,0-4.6,1.1,8.56,8.56,0,0,0-4.9,7.9,6.75,6.75,0,0,0,2.9,6.1,20.86,20.86,0,0,0,7.6,3,27.69,27.69,0,0,1,4.1,1.2,6.54,6.54,0,0,1,2.6,1.7,3.7,3.7,0,0,1,1,2.8,5,5,0,0,1-1.89,3.9,7.88,7.88,0,0,1-5.11,1.5h-.8a1.71,1.71,0,0,0-1.8,1.7v.5h0a2.07,2.07,0,0,0,.6,1,1.61,1.61,0,0,0,1.11.5h.69a13.88,13.88,0,0,0,5.7-1.2,8.47,8.47,0,0,0,3.8-3.2,8.63,8.63,0,0,0,1.4-4.7Q371,17.86,362.29,15.46Z"/></g></g><path id="Trazado_36" data-name="Trazado 36" class="cls-1" d="M10.2.36a.37.37,0,0,1,.3.1h0a2.09,2.09,0,0,1,1.3.7,2,2,0,0,1,.3,1.5h0a1.45,1.45,0,0,1-.7,1,1.5,1.5,0,0,1-1.1.4H9.9a7.1,7.1,0,0,0-4.4,1.5,5.1,5.1,0,0,0-1.8,3.8,3.78,3.78,0,0,0,1,2.7,7.32,7.32,0,0,0,3,1.9,15.46,15.46,0,0,0,2.3.7c.2.1.5.1.7.2a1.09,1.09,0,0,0,.5.1h.2l2,.5c5.7,1.6,8.6,4.5,8.6,8.8A8.63,8.63,0,0,1,20.6,29a9.75,9.75,0,0,1-3.8,3.2,12.61,12.61,0,0,1-5.7,1.1h-.7a1.61,1.61,0,0,1-1.1-.5,2.07,2.07,0,0,1-.6-1h0v-.4a1.77,1.77,0,0,1,1.7-1.8h.9a8.48,8.48,0,0,0,5.1-1.5,4.53,4.53,0,0,0,1.9-3.9,3.61,3.61,0,0,0-1-2.8,6.54,6.54,0,0,0-2.6-1.7,31.73,31.73,0,0,0-4.1-1.2,20.86,20.86,0,0,1-7.6-3A6.75,6.75,0,0,1,.1,9.36a8.78,8.78,0,0,1,1.3-4.7A8.56,8.56,0,0,1,5,1.46,10.39,10.39,0,0,1,9.6.36h.6Z"/><path id="Trazado_37" data-name="Trazado 37" class="cls-1" d="M17.6,3.16a1.61,1.61,0,0,1,1.3.6c.2.2.3.4.5.6a1.79,1.79,0,0,1,.4,1.4A2,2,0,0,1,19,7h0a1.69,1.69,0,0,1-1,.3,1.51,1.51,0,0,1-1.4-.7l-.2-.2c0-.1-.1-.1-.2-.2a1.9,1.9,0,0,1-.5-1.3,1.69,1.69,0,0,1,.3-1h0a2,2,0,0,1,1.6-.7Z"/><path id="Trazado_38" data-name="Trazado 38" class="cls-1" d="M2.1,25.86a1.61,1.61,0,0,1,1.3.6,2.2,2.2,0,0,1,.5.6,1.74,1.74,0,0,1,.3,1.4,2,2,0,0,1-.8,1.2h0a1.69,1.69,0,0,1-1,.3,1.62,1.62,0,0,1-1.4-.7c0-.1-.1-.1-.2-.2l-.2-.2a1.85,1.85,0,0,1-.5-1.2,1.69,1.69,0,0,1,.3-1,2.46,2.46,0,0,1,1.7-.8Z"/><path id="Trazado_39" data-name="Trazado 39" class="cls-1" d="M51.4.16a2,2,0,0,1,2,1.3l11.5,28.9c0,.4.1.6.1.9a2.22,2.22,0,0,1-2.2,2.2,1.92,1.92,0,0,1-1.2-.4,2,2,0,0,1-.8-1l-2.6-6.6L56.4,21h0l-4-10.3c-.4-.9-.7-1.4-1.2-1.4h0c-.4,0-.8.5-1.2,1.4l-4,10.4-1.6,4.2-2.7,6.8a2.54,2.54,0,0,1-.8,1,2.45,2.45,0,0,1-1.2.4,2.11,2.11,0,0,1-2.1-2.1,2.35,2.35,0,0,1,.2-.8l11.6-29a2,2,0,0,1,2-1.4Z"/></g></g><g id="Capa_2" data-name="Capa 2"><path d="M57.31,48.87v1.91a4.38,4.38,0,0,0-2.86-1.17,3.62,3.62,0,0,0-2.74,1.19,4,4,0,0,0-1.12,2.88,3.91,3.91,0,0,0,1.12,2.84,3.65,3.65,0,0,0,2.75,1.16,3.41,3.41,0,0,0,1.43-.27,4.74,4.74,0,0,0,.68-.38c.23-.16.48-.35.74-.57v1.95a5.71,5.71,0,0,1-2.87.78,5.27,5.27,0,0,1-3.87-1.6A5.33,5.33,0,0,1,49,53.7a5.53,5.53,0,0,1,1.33-3.65,5.28,5.28,0,0,1,4.25-2A5.34,5.34,0,0,1,57.31,48.87Z"/><path d="M70,56.4H65.46L64.28,59H62.57l5.22-11.38,5,11.38H71.09Zm-.65-1.52-1.57-3.64-1.64,3.64Z"/><path d="M78,59l2.22-11.51,3.62,8.32,3.76-8.32,2,11.51H88l-1-6.46-3.12,7-3-7L79.63,59Z"/><path d="M97.62,48.29V59H96V48.29Z"/><path d="M104.36,59V47.57l7.7,8.16V48.29h1.6V59.65L106,51.5V59Z"/><path d="M120,53.6a5.26,5.26,0,0,1,1.63-3.88,5.33,5.33,0,0,1,3.91-1.63,5.27,5.27,0,0,1,3.88,1.64A5.38,5.38,0,0,1,131,53.66a5.32,5.32,0,0,1-1.63,3.92,5.54,5.54,0,0,1-7.62.18A5.28,5.28,0,0,1,120,53.6Zm1.6,0a3.92,3.92,0,0,0,1.18,2.92,3.76,3.76,0,0,0,2.7,1.14,3.8,3.8,0,0,0,2.81-1.16,4.2,4.2,0,0,0,0-5.74,3.69,3.69,0,0,0-2.78-1.17,3.74,3.74,0,0,0-2.78,1.17A3.86,3.86,0,0,0,121.56,53.62Z"/><path d="M143.17,49.89l-1.29.78a2.22,2.22,0,0,0-.69-.84,1.57,1.57,0,0,0-.88-.22,1.63,1.63,0,0,0-1.1.38,1.21,1.21,0,0,0-.44.95c0,.52.38.94,1.15,1.26l1.05.43a4.48,4.48,0,0,1,1.88,1.29,2.92,2.92,0,0,1,.6,1.86,3.32,3.32,0,0,1-3.4,3.41,3.22,3.22,0,0,1-2.27-.82,3.79,3.79,0,0,1-1.1-2.32l1.61-.36a2.83,2.83,0,0,0,.38,1.3,1.66,1.66,0,0,0,1.44.69,1.68,1.68,0,0,0,1.24-.5,1.77,1.77,0,0,0,.49-1.29,2.07,2.07,0,0,0-.08-.57,1.64,1.64,0,0,0-.27-.48,2.42,2.42,0,0,0-.47-.41,6,6,0,0,0-.68-.36l-1-.43c-1.45-.62-2.17-1.53-2.17-2.72a2.59,2.59,0,0,1,.91-2,3.28,3.28,0,0,1,2.26-.81A3.15,3.15,0,0,1,143.17,49.89Z"/><path d="M158.1,59V48.29h2.21a8,8,0,0,1,2.52.32,4.74,4.74,0,0,1,1.8,1.06,5.17,5.17,0,0,1,1.63,4,5.09,5.09,0,0,1-1.7,4,5,5,0,0,1-1.79,1.06,8,8,0,0,1-2.48.3Zm1.59-1.52h.72a5.72,5.72,0,0,0,1.79-.23,3.59,3.59,0,0,0,1.28-.77,3.65,3.65,0,0,0,1.18-2.83,3.73,3.73,0,0,0-1.17-2.86,4.35,4.35,0,0,0-3.08-1h-.72Z"/><path d="M178.3,49.81h-4.23v2.57h4.11V53.9h-4.11v3.58h4.23V59h-5.83V48.29h5.83Z"/><path d="M196.7,54.44,200,59H198l-3-4.38h-.29V59h-1.59V48.29H195a4.63,4.63,0,0,1,3,.8,3,3,0,0,1,1,2.34,3.08,3.08,0,0,1-.65,2A2.87,2.87,0,0,1,196.7,54.44Zm-2-1.23h.51c1.51,0,2.26-.58,2.26-1.75s-.73-1.65-2.2-1.65h-.57Z"/><path d="M211.58,49.81h-4.23v2.57h4.11V53.9h-4.11v3.58h4.23V59h-5.82V48.29h5.82Z"/><path d="M223.85,49.89l-1.29.78a2.22,2.22,0,0,0-.69-.84,1.61,1.61,0,0,0-.89-.22,1.63,1.63,0,0,0-1.1.38,1.2,1.2,0,0,0-.43.95q0,.78,1.14,1.26l1.06.43a4.61,4.61,0,0,1,1.88,1.29,2.92,2.92,0,0,1,.59,1.86,3.32,3.32,0,0,1-3.4,3.41,3.23,3.23,0,0,1-2.27-.82,3.9,3.9,0,0,1-1.1-2.32l1.62-.36a2.83,2.83,0,0,0,.38,1.3,1.81,1.81,0,0,0,2.67.19,1.78,1.78,0,0,0,.5-1.29,1.75,1.75,0,0,0-.09-.57,1.64,1.64,0,0,0-.27-.48,2.35,2.35,0,0,0-.46-.41,6.22,6.22,0,0,0-.69-.36l-1-.43c-1.44-.62-2.17-1.53-2.17-2.72a2.62,2.62,0,0,1,.91-2,3.31,3.31,0,0,1,2.27-.81A3.15,3.15,0,0,1,223.85,49.89Z"/><path d="M231.84,48.29V59h-1.59V48.29Z"/><path d="M244.55,49.89l-1.29.78a2.22,2.22,0,0,0-.69-.84,1.57,1.57,0,0,0-.88-.22,1.62,1.62,0,0,0-1.1.38,1.18,1.18,0,0,0-.44.95c0,.52.38.94,1.15,1.26l1,.43a4.54,4.54,0,0,1,1.88,1.29,2.92,2.92,0,0,1,.6,1.86,3.32,3.32,0,0,1-3.4,3.41,3.2,3.2,0,0,1-2.27-.82,3.79,3.79,0,0,1-1.1-2.32l1.61-.36a2.83,2.83,0,0,0,.38,1.3,1.66,1.66,0,0,0,1.44.69,1.68,1.68,0,0,0,1.24-.5,1.77,1.77,0,0,0,.49-1.29,1.75,1.75,0,0,0-.09-.57,1.41,1.41,0,0,0-.26-.48,2.42,2.42,0,0,0-.47-.41,5.44,5.44,0,0,0-.69-.36l-1-.43c-1.45-.62-2.17-1.53-2.17-2.72a2.59,2.59,0,0,1,.91-2,3.26,3.26,0,0,1,2.26-.81A3.15,3.15,0,0,1,244.55,49.89Z"/><path d="M254.06,49.81V59h-1.59V49.81H250V48.29h6.44v1.52Z"/><path d="M267.94,49.81H263.7v2.57h4.11V53.9H263.7v3.58h4.24V59h-5.83V48.29h5.83Z"/><path d="M274.23,59V47.57l7.7,8.16V48.29h1.6V59.65l-7.7-8.15V59Z"/><path d="M298.16,48.87v1.91a4.38,4.38,0,0,0-2.86-1.17,3.62,3.62,0,0,0-2.74,1.19,4,4,0,0,0-1.12,2.88,3.91,3.91,0,0,0,1.12,2.84,3.65,3.65,0,0,0,2.75,1.16,3.41,3.41,0,0,0,1.43-.27,4.74,4.74,0,0,0,.68-.38c.23-.16.48-.35.74-.57v1.95a5.71,5.71,0,0,1-2.87.78,5.27,5.27,0,0,1-3.87-1.6,5.33,5.33,0,0,1-1.59-3.89,5.59,5.59,0,0,1,1.33-3.65,5.28,5.28,0,0,1,4.25-2A5.34,5.34,0,0,1,298.16,48.87Z"/><path d="M306,48.29V59h-1.59V48.29Z"/><path d="M318.91,56.4h-4.52L313.22,59H311.5l5.22-11.38,5,11.38H320Zm-.65-1.52-1.56-3.64-1.65,3.64Z"/></g></svg>