<svg id="Capa_1" data-name="Capa 1" xmlns="http://www.w3.org/2000/svg" viewBox="0 0 843.08 112.19"><defs><style>.cls-1{fill:#fff;}</style></defs><title>logos-creditos-footer</title><g id="Grupo_183" data-name="Grupo 183"><g id="Grupo_144" data-name="Grupo 144"><g id="Grupo_141" data-name="Grupo 141"><path id="Trazado_164" data-name="Trazado 164" class="cls-1" d="M63.19,25.75V6.81c0-.42.06-.92.06-.95s-.2.38-.33.56l-7.77,10.9H53.79L46,6.7a2.66,2.66,0,0,1-.34-.53c0,.07.07.49.07.92V25.75H42.29V0h2.88L54.5,12.6,63.56,0h3V25.75Z"/><path id="Trazado_165" data-name="Trazado 165" class="cls-1" d="M80.19,25.75V24a4.71,4.71,0,0,1-4,2.19c-3.36,0-5.2-1.91-5.2-5.54V11.08h3.23V20c0,1.66.91,3.07,2.68,3.07,2.24,0,3.29-2.29,3.29-4.09v-7.9h3.22V25.76Z"/><path id="Trazado_166" data-name="Trazado 166" class="cls-1" d="M91.68,26.11a7.73,7.73,0,0,1-5.09-1.87l1.6-2.5a5.75,5.75,0,0,0,3.33,1.37c.91,0,1.83-.39,1.83-1.27s-.88-1.55-2.1-2.19c-1.83-.91-4.28-1.9-4.28-4.86a4.43,4.43,0,0,1,4.69-4.13A7.78,7.78,0,0,1,96.2,12l-1.32,2.65a5.62,5.62,0,0,0-3.09-1c-.74,0-1.59.21-1.59,1.13,0,.77,1,1.27,2.27,1.9,1.83,1,4.1,2.19,4.1,5.05a4.57,4.57,0,0,1-4.7,4.45h-.19"/><path id="Trazado_167" data-name="Trazado 167" class="cls-1" d="M102.2,18.84a4.14,4.14,0,0,0,4,4.23h.12a6.79,6.79,0,0,0,4.72-1.76l2,2.12a9.5,9.5,0,0,1-6.72,2.75c-4.14,0-7.36-3-7.36-7.9,0-4.31,3-7.62,7.22-7.62s7.09,3.42,7.09,8.18Zm3.87-5.19a3.61,3.61,0,0,0-3.73,2.65h7.46a3.69,3.69,0,0,0-3.73-2.65"/><path id="Trazado_168" data-name="Trazado 168" class="cls-1" d="M122.79,26.18c-4.17,0-7.19-3.07-7.19-7.87,0-3.95,2.71-7.66,7.12-7.66a7.31,7.31,0,0,1,7.34,7.26c0,.09,0,.17,0,.26,0,4.44-3,8-7.26,8m-.07-12.42c-2.4,0-3.83,2-3.83,4.55,0,2.93,1.43,4.76,3.8,4.76,2.88,0,4.07-2,4.07-4.69,0-2.86-1.56-4.62-4-4.62"/><path id="Trazado_169" data-name="Trazado 169" class="cls-1" d="M147.76,25.76V24.13a4.75,4.75,0,0,1-4,2.05c-3.66,0-6.24-3.6-6.24-7.87s2.58-7.66,6.24-7.66a4.79,4.79,0,0,1,4,2V0H151V25.76Zm-3.36-12c-2.3,0-3.6,2.25-3.6,4.69s1.29,4.62,3.56,4.62S148,20.81,148,18.34s-1.39-4.59-3.63-4.59"/><path id="Trazado_170" data-name="Trazado 170" class="cls-1" d="M157.43,18.84a4.14,4.14,0,0,0,4,4.23h.12a6.79,6.79,0,0,0,4.72-1.76l2,2.12a9.51,9.51,0,0,1-6.72,2.75c-4.14,0-7.36-3-7.36-7.9,0-4.31,3-7.62,7.22-7.62s7.09,3.42,7.09,8.18Zm3.87-5.19a3.63,3.63,0,0,0-3.74,2.65H165a3.69,3.69,0,0,0-3.73-2.65"/></g><g id="Grupo_142" data-name="Grupo 142"><path id="Trazado_171" data-name="Trazado 171" class="cls-1" d="M26.12,75.62V55.56a17.42,17.42,0,0,1,.14-2.39,12.36,12.36,0,0,1-.59,1.34L18.2,68.76H15.4L7.79,54.51a8.06,8.06,0,0,1-.6-1.34c0,.15.14,1.24.14,2.39V75.62H0V40.83H7.19l9,17a10.76,10.76,0,0,1,.64,1.57,7.27,7.27,0,0,1,.6-1.57l8.52-17h7.47V75.62Z"/><path id="Trazado_172" data-name="Trazado 172" class="cls-1" d="M40.32,75.62V40.83H59.8v6.44H47.66v8.14H58.93v6.43H47.66v7.34H60.49v6.43Z"/><path id="Trazado_173" data-name="Trazado 173" class="cls-1" d="M91.12,75.62V55.56a15.89,15.89,0,0,1,.14-2.39,10.73,10.73,0,0,1-.6,1.34L83.19,68.76H80.4L72.79,54.51a7,7,0,0,1-.59-1.34c0,.15.13,1.24.13,2.39V75.62H65V40.83h7.2l9,17a12.6,12.6,0,0,1,.64,1.57,7.47,7.47,0,0,1,.6-1.57l8.52-17h7.47V75.62Z"/><path id="Trazado_174" data-name="Trazado 174" class="cls-1" d="M155.09,75.62l-9.3-16.44V75.62h-7.33V40.83h12c7,0,11.5,4.39,11.5,10.39a9.74,9.74,0,0,1-7.46,9.86l8.88,14.54Zm-4.63-28.35h-4.67v8.38h4.67c2.57,0,4.17-1.72,4.17-4.43a3.89,3.89,0,0,0-3.84-4h-.33"/><rect id="Rect치ngulo_39" data-name="Rect치ngulo 39" class="cls-1" x="168.19" y="40.83" width="7.33" height="34.78"/><path id="Trazado_175" data-name="Trazado 175" class="cls-1" d="M202.74,75.62l-2.56-8.77H190l-2.61,8.77h-7.75l12-34.79h7.06L210.8,75.62Zm-6.87-23.69c-.32-1.1-.69-2.47-.74-2.76,0,.14-.36,1.57-.68,2.76l-2.52,8.49h6.41Z"/><path id="Trazado_176" data-name="Trazado 176" class="cls-1" d="M118.42,76.33c-9.83,0-16.94-7.23-16.94-18.53,0-9.31,6.4-18,16.78-18s17.27,8.31,17.27,17.7c0,10.47-7,18.87-17.11,18.87m-.16-29.26c-5.67,0-9,4.82-9,10.73,0,6.9,3.36,11.22,9,11.22,6.8,0,9.6-4.83,9.6-11.06,0-6.73-3.68-10.89-9.52-10.89"/></g><g id="Grupo_143" data-name="Grupo 143"><path id="Trazado_177" data-name="Trazado 177" class="cls-1" d="M35.75,111.78v-1.56a4.54,4.54,0,0,1-3.85,2c-3.52,0-6-3.45-6-7.56s2.48-7.35,6-7.35a4.6,4.6,0,0,1,3.85,1.9V87h3.1v24.75Zm-3.23-11.53c-2.22,0-3.45,2.17-3.45,4.51s1.23,4.44,3.42,4.44S36,107,36,104.66s-1.34-4.41-3.49-4.41"/><path id="Trazado_178" data-name="Trazado 178" class="cls-1" d="M45,105.13a4,4,0,0,0,3.89,4.07h.12a6.54,6.54,0,0,0,4.53-1.7l1.89,2A9,9,0,0,1,49,112.18c-4,0-7.07-2.85-7.07-7.59,0-4.14,2.87-7.33,6.94-7.33s6.82,3.29,6.82,7.87Zm3.71-5a3.48,3.48,0,0,0-3.58,2.54h7.17a3.52,3.52,0,0,0-3.58-2.54"/><path id="Trazado_179" data-name="Trazado 179" class="cls-1" d="M74.81,112.19c-5.8,0-11.68-4.92-11.68-12.79,0-7.15,5-12.78,11.8-12.78,4.3,0,6.88,1.53,8.8,3.86l-2.41,2.24A8.35,8.35,0,0,0,75,89.94c-4.63,0-8.48,3.73-8.48,9.39,0,6.38,4.7,9.53,8.35,9.53a9,9,0,0,0,7-3.42l2.35,2.1a11.32,11.32,0,0,1-9.39,4.64"/><path id="Trazado_180" data-name="Trazado 180" class="cls-1" d="M93.52,112.19c-4,0-6.91-3-6.91-7.56,0-3.8,2.61-7.36,6.84-7.36a7,7,0,0,1,7,7v.25c0,4.27-2.84,7.7-7,7.7m-.07-11.94c-2.31,0-3.68,2-3.68,4.38,0,2.81,1.37,4.57,3.65,4.57,2.77,0,3.92-2,3.92-4.5,0-2.75-1.5-4.45-3.89-4.45"/><rect id="Rect치ngulo_40" data-name="Rect치ngulo 40" class="cls-1" x="103.6" y="87.03" width="3.1" height="24.75"/><path id="Trazado_181" data-name="Trazado 181" class="cls-1" d="M116.7,112.19c-4,0-6.91-3-6.91-7.56,0-3.8,2.61-7.36,6.85-7.36a7,7,0,0,1,7,7v.25c0,4.27-2.84,7.7-7,7.7m-.06-11.94c-2.32,0-3.69,2-3.69,4.38,0,2.81,1.37,4.57,3.65,4.57,2.78,0,3.92-2,3.92-4.5,0-2.75-1.5-4.45-3.88-4.45"/><path id="Trazado_182" data-name="Trazado 182" class="cls-1" d="M143.73,111.78v-9a2.23,2.23,0,0,0-1.92-2.5,2.36,2.36,0,0,0-.46,0,3,3,0,0,0-3,3.06v8.47h-3.1v-9a2.28,2.28,0,0,0-2-2.51,2.94,2.94,0,0,0-.42,0,3,3,0,0,0-2.94,3v8.49h-3.1V97.67h3.1V99a4.65,4.65,0,0,1,3.59-1.76,4.52,4.52,0,0,1,4.27,2.17,5.56,5.56,0,0,1,4.37-2.17c3.55,0,4.73,2.34,4.73,5.18v9.33Z"/><path id="Trazado_183" data-name="Trazado 183" class="cls-1" d="M157.36,112.19a4.69,4.69,0,0,1-3.85-2.1v1.7h-3.1V87h3.1V99.37a4.71,4.71,0,0,1,3.85-2.1c3.52,0,6,3.08,6,7.25s-2.48,7.67-6,7.67m-.65-11.94c-2.06,0-3.46,2.17-3.46,4.41s1.4,4.54,3.43,4.54c2.31,0,3.52-2,3.52-4.54s-1.18-4.41-3.49-4.41"/><path id="Trazado_184" data-name="Trazado 184" class="cls-1" d="M166.46,90.55h3.1v3.9h-3.1Zm0,7.12h3.1v14.11h-3.1Z"/><path id="Trazado_185" data-name="Trazado 185" class="cls-1" d="M181.82,111.78v-1a6.54,6.54,0,0,1-4.24,1.43c-3.43,0-5.09-2.14-5.09-4.75,0-3.32,3.2-5.15,7.37-5.15h2c0-1.7-.68-2.31-2.7-2.31a9.66,9.66,0,0,0-4.18.78l-1.08-2.41a10.5,10.5,0,0,1,4.89-1.08c3.79,0,6.1,1.15,6.1,4.2v10.31Zm0-6.88h-.89c-3.52,0-5.28.74-5.28,2.54,0,1.35,1.47,1.9,2.77,1.9a5,5,0,0,0,3.39-1.12Z"/></g></g><g id="Grupo_161" data-name="Grupo 161"><g id="Grupo_153" data-name="Grupo 153"><g id="Grupo_148" data-name="Grupo 148"><path id="Trazado_186" data-name="Trazado 186" class="cls-1" d="M693.4,29a5.22,5.22,0,1,0-5.21,5.42A5.32,5.32,0,0,0,693.4,29Z"/><g id="Grupo_147" data-name="Grupo 147"><g id="Grupo_145" data-name="Grupo 145"><path id="Trazado_187" data-name="Trazado 187" class="cls-1" d="M688.18,39.47A19.08,19.08,0,0,0,675.26,45c-1.15,1.19-2.29,2.11-3.4,1.13-.67-.59-1.07-1.51.27-2.93,1.87-2,7.27-7.42,16-7.42s14.18,5.44,16,7.42c1.34,1.42.95,2.34.27,2.93-1.11,1-2.24.06-3.4-1.13A19,19,0,0,0,688.18,39.47Z"/></g><g id="Grupo_146" data-name="Grupo 146"><path id="Trazado_188" data-name="Trazado 188" class="cls-1" d="M703.51,46.82a4.19,4.19,0,0,1-2.57-1.62,17.57,17.57,0,0,0-24.84-.67c-.23.22-.46.44-.67.67a4.17,4.17,0,0,1-2.57,1.62,1.75,1.75,0,0,1-1.15-.47A1.88,1.88,0,0,1,671,45a2.86,2.86,0,0,1,1-2c4.69-5,10.15-7.5,16.22-7.5s11.52,2.53,16.21,7.5a2.82,2.82,0,0,1,1,2,1.88,1.88,0,0,1-.7,1.32A1.75,1.75,0,0,1,703.51,46.82Zm-15.33-7.6c7.46,0,12.53,5.06,13.09,5.64.73.76,1.52,1.47,2.24,1.47a1.32,1.32,0,0,0,.84-.35,1.4,1.4,0,0,0,.53-1,2.34,2.34,0,0,0-.82-1.61c-4.6-4.88-9.94-7.35-15.88-7.35S676.9,38.52,672.3,43.4a2.38,2.38,0,0,0-.82,1.61,1.41,1.41,0,0,0,.54,1,1.23,1.23,0,0,0,.84.35c.72,0,1.5-.71,2.24-1.47a19.27,19.27,0,0,1,13.08-5.63Z"/></g></g></g><g id="Grupo_152" data-name="Grupo 152"><path id="Trazado_189" data-name="Trazado 189" class="cls-1" d="M659.06,45.88a5.42,5.42,0,1,0,5.2,5.63,1.55,1.55,0,0,0,0-.22A5.32,5.32,0,0,0,659.06,45.88Z"/><g id="Grupo_151" data-name="Grupo 151"><g id="Grupo_149" data-name="Grupo 149"><path id="Trazado_190" data-name="Trazado 190" class="cls-1" d="M668.44,51.3a20.46,20.46,0,0,0,5.35,13.43c1.14,1.2,2,2.38,1.08,3.53-.57.7-1.45,1.12-2.82-.28a23.08,23.08,0,0,1-.74-32.63l.74-.74c1.37-1.39,2.25-1,2.82-.28,1,1.15.06,2.34-1.08,3.53A20.48,20.48,0,0,0,668.44,51.3Z"/></g><g id="Grupo_150" data-name="Grupo 150"><path id="Trazado_191" data-name="Trazado 191" class="cls-1" d="M673.72,69.15a2.68,2.68,0,0,1-1.83-1,23.31,23.31,0,0,1-.74-33c.24-.25.48-.5.74-.74,1.21-1.24,2.31-1.31,3.16-.27,1.2,1.47-.3,3-1.1,3.86a19.32,19.32,0,0,0,0,26.53c.8.84,2.3,2.39,1.1,3.86A1.69,1.69,0,0,1,673.72,69.15Zm0-35.22a2.34,2.34,0,0,0-1.5.85,22.83,22.83,0,0,0-.76,32.27c.25.26.5.51.76.76,1,1,1.79,1.14,2.48.3s.15-1.92-1.08-3.2a19.81,19.81,0,0,1,0-27.22c1.23-1.28,1.84-2.26,1.08-3.2A1.28,1.28,0,0,0,673.72,33.93Z"/></g></g></g></g><g id="Grupo_160" data-name="Grupo 160"><g id="Grupo_155" data-name="Grupo 155"><path id="Trazado_192" data-name="Trazado 192" class="cls-1" d="M674.28,83.2a5.21,5.21,0,1,0,5.21-5.42A5.31,5.31,0,0,0,674.28,83.2Z"/><g id="Grupo_154" data-name="Grupo 154"><path id="Trazado_193" data-name="Trazado 193" class="cls-1" d="M679.48,72.72a19.08,19.08,0,0,0,12.92-5.56c1.15-1.2,2.29-2.11,3.4-1.14.67.6,1.07,1.52-.27,2.94-1.87,2-7.27,7.42-16,7.42S665.3,70.94,663.43,69c-1.33-1.42-.94-2.34-.26-2.94,1.11-1,2.24-.06,3.39,1.14A19.08,19.08,0,0,0,679.48,72.72Z"/><path id="Trazado_194" data-name="Trazado 194" class="cls-1" d="M679.48,76.62c-6.07,0-11.52-2.52-16.21-7.5a2.78,2.78,0,0,1-1-2,1.87,1.87,0,0,1,.7-1.32,1.72,1.72,0,0,1,1.14-.47A4.19,4.19,0,0,1,666.72,67a17.56,17.56,0,0,0,24.84.67c.23-.21.46-.44.67-.67a4.24,4.24,0,0,1,2.58-1.62,1.74,1.74,0,0,1,1.14.47,1.9,1.9,0,0,1,.7,1.32,2.82,2.82,0,0,1-1,2C691,74.1,685.55,76.62,679.48,76.62ZM664.15,65.86a1.23,1.23,0,0,0-.83.35,1.37,1.37,0,0,0-.54,1,2.41,2.41,0,0,0,.82,1.61c4.6,4.87,9.94,7.35,15.88,7.35s11.29-2.48,15.88-7.35a2.36,2.36,0,0,0,.82-1.61,1.32,1.32,0,0,0-.53-1,1.22,1.22,0,0,0-.84-.35c-.72,0-1.5.7-2.24,1.47C692,67.9,686.94,73,679.48,73a19.37,19.37,0,0,1-13.09-5.63C665.66,66.56,664.88,65.86,664.15,65.86Z"/></g></g><g id="Grupo_159" data-name="Grupo 159"><path id="Trazado_195" data-name="Trazado 195" class="cls-1" d="M708.61,66.31a5.42,5.42,0,1,0-5.21-5.63v.21A5.32,5.32,0,0,0,708.61,66.31Z"/><g id="Grupo_158" data-name="Grupo 158"><g id="Grupo_156" data-name="Grupo 156"><path id="Trazado_196" data-name="Trazado 196" class="cls-1" d="M699.23,60.89a20.6,20.6,0,0,0-5.35-13.44c-1.15-1.19-2-2.37-1.09-3.53.57-.7,1.46-1.11,2.82.29a23.06,23.06,0,0,1,.74,32.62c-.24.26-.49.5-.74.75-1.36,1.39-2.25,1-2.82.28-.94-1.16-.06-2.34,1.09-3.53A20.58,20.58,0,0,0,699.23,60.89Z"/></g><g id="Grupo_157" data-name="Grupo 157"><path id="Trazado_197" data-name="Trazado 197" class="cls-1" d="M693.94,78.75a1.75,1.75,0,0,1-1.33-.73c-1.2-1.48.3-3,1.1-3.87a19.29,19.29,0,0,0,0-26.52c-.8-.84-2.3-2.39-1.1-3.86.85-1.05,1.95-1,3.16.26a23.31,23.31,0,0,1,.74,33c-.24.25-.49.5-.74.74A2.74,2.74,0,0,1,693.94,78.75Zm0-35.23a1.3,1.3,0,0,0-1,.56c-.76.94-.15,1.92,1.08,3.2a19.81,19.81,0,0,1,0,27.22c-1.23,1.28-1.84,2.26-1.08,3.2s1.48.73,2.48-.3a22.84,22.84,0,0,0,.75-32.28c-.25-.25-.49-.5-.75-.74a2.31,2.31,0,0,0-1.5-.86Z"/></g></g></g></g><path id="Trazado_198" data-name="Trazado 198" class="cls-1" d="M695.69,56.33l-7.22-11a3.22,3.22,0,0,0-4.44-1l-.13.08-10.62,7.5a3.52,3.52,0,0,0-.88,4.75l7.22,11.05a3.22,3.22,0,0,0,4.44,1l.13-.09,10.62-7.5A3.52,3.52,0,0,0,695.69,56.33Z"/></g><g id="Grupo_171" data-name="Grupo 171"><g id="Grupo_169" data-name="Grupo 169"><g id="Grupo_168" data-name="Grupo 168"><g id="Grupo_164" data-name="Grupo 164"><g id="Grupo_162" data-name="Grupo 162"><path id="Trazado_199" data-name="Trazado 199" class="cls-1" d="M736.08,51.94v2.57a4.32,4.32,0,0,1-2.8,1.07,4,4,0,0,1-3.63-2.5,15.9,15.9,0,0,1-1.28-7.14,16.61,16.61,0,0,1,1.29-7.26,4,4,0,0,1,3.68-2.61,4.45,4.45,0,0,1,2.53,1v2.47a3.44,3.44,0,0,0-2.36-1.18c-.94,0-1.63.57-2,1.73a26,26,0,0,0,0,11.48,2.24,2.24,0,0,0,2.12,1.75A4.11,4.11,0,0,0,736.08,51.94Z"/><path id="Trazado_200" data-name="Trazado 200" class="cls-1" d="M743.64,52.37v2.2a3.51,3.51,0,0,1-2.5,1.12A3.17,3.17,0,0,1,738.28,54a9.75,9.75,0,0,1-1-5,10.92,10.92,0,0,1,.89-4.88,2.74,2.74,0,0,1,2.48-1.75q3.32,0,3.25,7.15H739.4q0,4.09,2.16,4.1A2.59,2.59,0,0,0,743.64,52.37Zm-4.26-4.51h2.36q0-3.54-1.23-3.54C739.75,44.32,739.38,45.5,739.38,47.86Z"/><path id="Trazado_201" data-name="Trazado 201" class="cls-1" d="M746,55.33V42.72h2.14v1.37h0a2.59,2.59,0,0,1,2.25-1.57,2.28,2.28,0,0,1,1.93,1,4.62,4.62,0,0,1,.73,2.75v9.08h-2.14v-9c0-1.21-.38-1.82-1.15-1.82a1.47,1.47,0,0,0-1.16.69,2.84,2.84,0,0,0-.51.81v9.34Z"/><path id="Trazado_202" data-name="Trazado 202" class="cls-1" d="M760,53.22v2a4.71,4.71,0,0,1-1.88.48q-2.25,0-2.25-2.82V44.67h-1.39v-.2a45.31,45.31,0,0,0,3.34-5H758v3.25h2v2h-2v7.19a3.42,3.42,0,0,0,.18,1.35.7.7,0,0,0,.67.36A2.71,2.71,0,0,0,760,53.22Z"/><path id="Trazado_203" data-name="Trazado 203" class="cls-1" d="M761.43,55.33V42.72h2.14v3.41h0a13.87,13.87,0,0,1,1.06-2.93,1.33,1.33,0,0,1,1.18-.68,1.85,1.85,0,0,1,1.11.37l-.17,2.28a1.54,1.54,0,0,0-.93-.32c-.67,0-1.22.63-1.65,1.88a11,11,0,0,0-.65,3.6v5Z"/><path id="Trazado_204" data-name="Trazado 204" class="cls-1" d="M771.32,55.68a3.11,3.11,0,0,1-2.78-1.77,12.16,12.16,0,0,1,0-9.75,3.06,3.06,0,0,1,4.05-1.51,3,3,0,0,1,1.5,1.51,12,12,0,0,1,0,9.75A3.11,3.11,0,0,1,771.32,55.68Zm0-11.19q-1.57,0-1.58,4.55t1.64,4.53q1.57,0,1.58-4.53t-1.63-4.55Z"/></g><g id="Grupo_163" data-name="Grupo 163"><path id="Trazado_205" data-name="Trazado 205" class="cls-1" d="M781.09,55.33v-19H783l4,11.76.05,0V36.31h2.17v19h-1.91l-4.05-11.84h-.06V55.33Z"/><path id="Trazado_206" data-name="Trazado 206" class="cls-1" d="M799.42,53v1.68a2.8,2.8,0,0,1-1.66.93c-.8,0-1.32-.53-1.57-1.58-.78,1.1-1.56,1.65-2.32,1.65a2,2,0,0,1-1.66-1,3.63,3.63,0,0,1-.71-2.25,3.53,3.53,0,0,1,1-2.53,18.25,18.25,0,0,1,3.61-2.61V46.13c0-1.09-.42-1.64-1.27-1.64s-1.87.69-3.05,2.07V44A4.72,4.72,0,0,1,795,42.37a3.2,3.2,0,0,1,2.28.92,3.36,3.36,0,0,1,.94,2.48v7.11c0,.5.11.74.33.74S799,53.41,799.42,53Zm-3.31-.88V48.87c-1.68,1.06-2.52,2.15-2.51,3.28a1.62,1.62,0,0,0,.29,1,.88.88,0,0,0,.74.4,1.26,1.26,0,0,0,1-.63,2.22,2.22,0,0,0,.46-.82Z"/><path id="Trazado_207" data-name="Trazado 207" class="cls-1" d="M806.88,52.86V55a3.83,3.83,0,0,1-2.11.7,3.65,3.65,0,0,1-3.1-1.85,8.23,8.23,0,0,1-1.25-4.7,8.85,8.85,0,0,1,1.23-4.87,3.64,3.64,0,0,1,3.12-1.89,4.75,4.75,0,0,1,1.92.46v2.27a3.17,3.17,0,0,0-1.59-.63,2,2,0,0,0-1.81,1.24,7,7,0,0,0-.68,3.34,6.39,6.39,0,0,0,.74,3.29,2.19,2.19,0,0,0,2,1.21A2.5,2.5,0,0,0,806.88,52.86Z"/><path id="Trazado_208" data-name="Trazado 208" class="cls-1" d="M809.3,38.62a1.12,1.12,0,0,1-.86-.37,1.31,1.31,0,0,1,0-1.82,1.2,1.2,0,0,1,1.71,0l0,0a1.33,1.33,0,0,1,0,1.82A1.14,1.14,0,0,1,809.3,38.62Zm-1.07,16.71V42.73h2.14v12.6Z"/><path id="Trazado_209" data-name="Trazado 209" class="cls-1" d="M816.14,55.68a3.1,3.1,0,0,1-2.77-1.77,12.08,12.08,0,0,1,0-9.75,3.06,3.06,0,0,1,5.56,0,12.08,12.08,0,0,1,0,9.75A3.14,3.14,0,0,1,816.14,55.68Zm0-11.19q-1.57,0-1.58,4.55c0,3,.54,4.53,1.64,4.53s1.58-1.51,1.58-4.53-.55-4.55-1.64-4.55Z"/><path id="Trazado_210" data-name="Trazado 210" class="cls-1" d="M821.93,55.33V42.72h2.14v1.37h0a2.59,2.59,0,0,1,2.24-1.57,2.3,2.3,0,0,1,1.94,1,4.62,4.62,0,0,1,.73,2.75v9.08h-2.14v-9c0-1.21-.39-1.82-1.15-1.82a1.45,1.45,0,0,0-1.16.69,2.64,2.64,0,0,0-.51.81v9.34Z"/><path id="Trazado_211" data-name="Trazado 211" class="cls-1" d="M838.82,53v1.68a2.86,2.86,0,0,1-1.67.93c-.79,0-1.32-.53-1.57-1.58-.78,1.1-1.55,1.65-2.32,1.65a2,2,0,0,1-1.66-1,3.63,3.63,0,0,1-.71-2.25,3.53,3.53,0,0,1,1-2.53,18.54,18.54,0,0,1,3.61-2.61V46.13c0-1.09-.42-1.64-1.26-1.64s-1.88.69-3.06,2.07V44a4.74,4.74,0,0,1,3.24-1.63,3.2,3.2,0,0,1,2.28.92,3.28,3.28,0,0,1,.94,2.48v7.11c0,.5.11.74.34.74S838.39,53.41,838.82,53Zm-3.32-.88V48.87C833.83,49.93,833,51,833,52.15a1.69,1.69,0,0,0,.29,1,.91.91,0,0,0,.75.4,1.26,1.26,0,0,0,1-.63,2.22,2.22,0,0,0,.46-.82Z"/><path id="Trazado_212" data-name="Trazado 212" class="cls-1" d="M840.05,55.33v-19h2.14v19Z"/></g></g><g id="Grupo_167" data-name="Grupo 167"><g id="Grupo_165" data-name="Grupo 165"><path id="Trazado_213" data-name="Trazado 213" class="cls-1" d="M748.08,65.6l2-5.25h1.52V74.67h-1.73L750,64.32l0,0L748.24,69h-.32l-1.73-4.72-.05,0,.11,10.35h-1.74V60.35H746Z"/><path id="Trazado_214" data-name="Trazado 214" class="cls-1" d="M758.1,72.44V74.1a2.6,2.6,0,0,1-1.88.83,2.35,2.35,0,0,1-2.15-1.3,7.38,7.38,0,0,1-.77-3.72,8.32,8.32,0,0,1,.67-3.69,2.06,2.06,0,0,1,1.87-1.31c1.66,0,2.48,1.79,2.44,5.38h-3.37c0,2.06.54,3.09,1.63,3.09A1.92,1.92,0,0,0,758.1,72.44ZM754.89,69h1.78c0-1.77-.3-2.66-.92-2.66s-.86.88-.85,2.66Z"/><path id="Trazado_215" data-name="Trazado 215" class="cls-1" d="M769,74.67h-1.61V67.92c0-.94-.29-1.42-.87-1.42s-.87.38-1.28,1.11v7.06h-1.61V67.94c0-1-.3-1.44-.89-1.44-.4,0-.82.38-1.26,1.13v7h-1.61v-9.5h1.61v1h0A1.92,1.92,0,0,1,763.17,65a2.1,2.1,0,0,1,1.88,1.42,5.65,5.65,0,0,1,.87-1.08,1.43,1.43,0,0,1,1-.34,1.77,1.77,0,0,1,1.46.72,3.31,3.31,0,0,1,.56,2.07Z"/><path id="Trazado_216" data-name="Trazado 216" class="cls-1" d="M773.13,74.93A2.35,2.35,0,0,1,771,73.6a9.13,9.13,0,0,1,0-7.35,2.31,2.31,0,0,1,3.05-1.14,2.34,2.34,0,0,1,1.14,1.14,9.13,9.13,0,0,1,0,7.35A2.35,2.35,0,0,1,773.13,74.93Zm0-8.43c-.8,0-1.2,1.14-1.2,3.43s.41,3.42,1.24,3.41,1.19-1.14,1.19-3.41-.41-3.42-1.23-3.43Z"/><path id="Trazado_217" data-name="Trazado 217" class="cls-1" d="M777.53,74.67v-9.5h1.61v2.57h0a10.25,10.25,0,0,1,.8-2.21,1,1,0,0,1,.89-.51,1.38,1.38,0,0,1,.83.28L781.57,67a1.1,1.1,0,0,0-.7-.24c-.5,0-.91.47-1.24,1.41a8.37,8.37,0,0,0-.49,2.71v3.77Z"/><path id="Trazado_218" data-name="Trazado 218" class="cls-1" d="M783.26,62.08a.86.86,0,0,1-.65-.28,1,1,0,0,1,0-1.37.9.9,0,0,1,1.28,0l0,0a1,1,0,0,1,0,1.37A.87.87,0,0,1,783.26,62.08Zm-.8,12.59v-9.5h1.61v9.5Z"/><path id="Trazado_219" data-name="Trazado 219" class="cls-1" d="M791.51,72.91v1.27a2.13,2.13,0,0,1-1.25.7c-.6,0-1-.4-1.19-1.19-.59.82-1.17,1.24-1.75,1.24a1.56,1.56,0,0,1-1.25-.72,2.7,2.7,0,0,1-.53-1.69,2.59,2.59,0,0,1,.75-1.9,13.47,13.47,0,0,1,2.72-2v-.91c0-.83-.32-1.24-1-1.24s-1.42.52-2.3,1.56V66.14a3.53,3.53,0,0,1,2.44-1.23,2.37,2.37,0,0,1,1.71.69,2.46,2.46,0,0,1,.71,1.87v5.36c0,.37.09.55.25.55S791.19,73.23,791.51,72.91Zm-2.5-.66V69.8c-1.26.8-1.89,1.63-1.89,2.47a1.21,1.21,0,0,0,.21.77.68.68,0,0,0,.57.3,1,1,0,0,0,.76-.47,1.66,1.66,0,0,0,.35-.62Z"/><path id="Trazado_220" data-name="Trazado 220" class="cls-1" d="M795.5,74.67V60.35h1.76v6.29h2.64V60.35h1.76V74.67H799.9v-6.3h-2.64v6.3Z"/><path id="Trazado_221" data-name="Trazado 221" class="cls-1" d="M804.51,62.08a.87.87,0,0,1-.66-.28,1,1,0,0,1,0-1.37.9.9,0,0,1,1.28,0l0,0a1,1,0,0,1,0,1.37A.86.86,0,0,1,804.51,62.08Zm-.81,12.59v-9.5h1.61v9.5Z"/><path id="Trazado_222" data-name="Trazado 222" class="cls-1" d="M806.69,74.16V72.31a2.37,2.37,0,0,0,1.59,1,.79.79,0,0,0,.8-.82,4.62,4.62,0,0,0-.91-2.06A10.84,10.84,0,0,1,807,68.37a3.44,3.44,0,0,1-.23-1.23,2.25,2.25,0,0,1,.56-1.6,1.78,1.78,0,0,1,1.41-.63,2.44,2.44,0,0,1,1.53.6v1.58a2.27,2.27,0,0,0-1.38-.66c-.43,0-.64.23-.64.71a4.26,4.26,0,0,0,.94,2,10.43,10.43,0,0,1,1.2,2.07,3.92,3.92,0,0,1,.26,1.31,2.5,2.5,0,0,1-.63,1.75,2,2,0,0,1-1.56.7A2.78,2.78,0,0,1,806.69,74.16Z"/><path id="Trazado_223" data-name="Trazado 223" class="cls-1" d="M815.55,73.08v1.49a3.47,3.47,0,0,1-1.42.36c-1.12,0-1.69-.71-1.69-2.12V66.64h-1.05v-.15a35.34,35.34,0,0,0,2.52-3.77h.14v2.45h1.5v1.47h-1.5v5.42a2.48,2.48,0,0,0,.14,1,.5.5,0,0,0,.5.27A2,2,0,0,0,815.55,73.08Z"/><path id="Trazado_224" data-name="Trazado 224" class="cls-1" d="M819.13,74.93A2.35,2.35,0,0,1,817,73.6a9.21,9.21,0,0,1,0-7.35,2.3,2.3,0,0,1,4.19,0,9.13,9.13,0,0,1,0,7.35A2.36,2.36,0,0,1,819.13,74.93Zm0-8.43c-.8,0-1.19,1.14-1.2,3.43s.42,3.42,1.24,3.41,1.19-1.14,1.2-3.41-.41-3.42-1.24-3.43Zm-.66-2.88.43-3.13h2l-1.46,3.13Z"/><path id="Trazado_225" data-name="Trazado 225" class="cls-1" d="M823.52,74.67v-9.5h1.61v2.57h0a10.25,10.25,0,0,1,.8-2.21,1,1,0,0,1,.89-.51,1.38,1.38,0,0,1,.83.28L827.57,67a1.12,1.12,0,0,0-.7-.24c-.51,0-.92.47-1.25,1.41a8.37,8.37,0,0,0-.49,2.71v3.77Z"/><path id="Trazado_226" data-name="Trazado 226" class="cls-1" d="M829.26,62.08a.87.87,0,0,1-.66-.28,1,1,0,0,1,0-1.37.91.91,0,0,1,1.29,0l0,0a1,1,0,0,1,0,1.37A.86.86,0,0,1,829.26,62.08Zm-.81,12.59v-9.5h1.61v9.5Z"/><path id="Trazado_227" data-name="Trazado 227" class="cls-1" d="M836.45,72.81v1.6a2.82,2.82,0,0,1-1.59.52,2.76,2.76,0,0,1-2.34-1.39,6.21,6.21,0,0,1-.93-3.54,6.57,6.57,0,0,1,.92-3.67,2.74,2.74,0,0,1,2.35-1.42,3.48,3.48,0,0,1,1.45.35V67a2.47,2.47,0,0,0-1.2-.47,1.52,1.52,0,0,0-1.36.93,5.1,5.1,0,0,0-.51,2.52,4.62,4.62,0,0,0,.55,2.47,1.66,1.66,0,0,0,1.48.92A1.89,1.89,0,0,0,836.45,72.81Z"/><path id="Trazado_228" data-name="Trazado 228" class="cls-1" d="M843.08,72.91v1.27a2.1,2.1,0,0,1-1.25.7c-.6,0-1-.4-1.18-1.19-.59.82-1.17,1.24-1.75,1.24a1.55,1.55,0,0,1-1.25-.72,2.77,2.77,0,0,1-.54-1.69,2.63,2.63,0,0,1,.76-1.9,13.2,13.2,0,0,1,2.72-2v-.91c0-.83-.32-1.24-1-1.24s-1.41.52-2.3,1.56V66.14a3.57,3.57,0,0,1,2.44-1.23,2.41,2.41,0,0,1,1.72.69,2.5,2.5,0,0,1,.71,1.87v5.36c0,.37.08.55.25.55S842.76,73.23,843.08,72.91Zm-2.5-.66V69.8c-1.26.8-1.89,1.63-1.89,2.47a1.29,1.29,0,0,0,.22.77.66.66,0,0,0,.56.3,1,1,0,0,0,.77-.47,1.66,1.66,0,0,0,.35-.62Z"/></g><g id="Grupo_166" data-name="Grupo 166"><path id="Trazado_229" data-name="Trazado 229" class="cls-1" d="M733.88,74.8h-1.61v-.73h0a1.71,1.71,0,0,1-1.47.88,2.14,2.14,0,0,1-1.82-1.32,7.15,7.15,0,0,1-.75-3.55,7.78,7.78,0,0,1,.74-3.64,2.2,2.2,0,0,1,1.92-1.4,1.78,1.78,0,0,1,1.42.78V60.48h1.61Zm-1.61-2.42v-4.8c-.22-.63-.57-.94-1-.94s-.76.3-1,.91a7.05,7.05,0,0,0-.37,2.58q0,3.15,1.29,3.15a1,1,0,0,0,.81-.4A1.56,1.56,0,0,0,732.27,72.38Z"/><path id="Trazado_230" data-name="Trazado 230" class="cls-1" d="M740.13,72.57v1.66a2.69,2.69,0,0,1-1.88.84,2.4,2.4,0,0,1-2.16-1.3,7.31,7.31,0,0,1-.76-3.73,8.16,8.16,0,0,1,.66-3.68A2.06,2.06,0,0,1,737.86,65c1.67,0,2.49,1.8,2.45,5.38h-3.38c0,2.06.55,3.1,1.63,3.09A1.92,1.92,0,0,0,740.13,72.57Zm-3.22-3.4h1.79c0-1.77-.31-2.66-.93-2.66s-.85.89-.86,2.66Z"/></g></g></g></g><g id="Grupo_170" data-name="Grupo 170"><path id="Trazado_231" data-name="Trazado 231" class="cls-1" d="M720.53,77.72a.48.48,0,0,1-.47-.48V36a.47.47,0,0,1,.45-.49A.46.46,0,0,1,721,36V77.24A.47.47,0,0,1,720.53,77.72Z"/></g></g><g id="Grupo_175" data-name="Grupo 175"><g id="Grupo_172" data-name="Grupo 172"><path id="Trazado_232" data-name="Trazado 232" class="cls-1" d="M481.92,42.43a4.88,4.88,0,0,1,0,5.87,3.64,3.64,0,0,1-2.77,1H476.2V41.4h2.95A3.6,3.6,0,0,1,481.92,42.43Zm-1.21,4.9a3.85,3.85,0,0,0,0-3.93,2,2,0,0,0-1.64-.68H477.8V48h1.27a2,2,0,0,0,1.64-.68Z"/><path id="Trazado_233" data-name="Trazado 233" class="cls-1" d="M489.61,42.06a2.42,2.42,0,0,1,.74,1.88,2.32,2.32,0,0,1-.74,1.84,3,3,0,0,1-2.07.66h-1.61v2.88h-1.59V41.4h3.2A3,3,0,0,1,489.61,42.06Zm-1.23,2.79a1.14,1.14,0,0,0,.35-.92,1.11,1.11,0,0,0-.35-.91,1.55,1.55,0,0,0-1.08-.3h-1.37v2.44h1.37a1.6,1.6,0,0,0,1.08-.31Z"/><path id="Trazado_234" data-name="Trazado 234" class="cls-1" d="M496.24,41.64a3.58,3.58,0,0,1,1.34,1.16l-1.1,1.12a2.16,2.16,0,0,0-.8-1,2.39,2.39,0,0,0-1.26-.32,1.79,1.79,0,0,0-1.06.27.86.86,0,0,0-.38.72.73.73,0,0,0,.38.65,4.42,4.42,0,0,0,1.38.42,6.42,6.42,0,0,1,1.65.5,2.09,2.09,0,0,1,.89.75,2.27,2.27,0,0,1-.11,2.39,2.51,2.51,0,0,1-1.11.82,4.3,4.3,0,0,1-1.62.29,5.06,5.06,0,0,1-2.07-.36,3.07,3.07,0,0,1-1.3-1.12l.95-1.17a2.44,2.44,0,0,0,1,1,3,3,0,0,0,1.38.28,2,2,0,0,0,1.13-.24.75.75,0,0,0,.38-.68.63.63,0,0,0-.36-.54,4.58,4.58,0,0,0-1.3-.41,7.47,7.47,0,0,1-1.72-.54,2.23,2.23,0,0,1-.93-.77,2.12,2.12,0,0,1-.29-1.13,2.41,2.41,0,0,1,.37-1.28,2.56,2.56,0,0,1,1.09-.89,3.94,3.94,0,0,1,1.66-.33A4.25,4.25,0,0,1,496.24,41.64Z"/><path id="Trazado_235" data-name="Trazado 235" class="cls-1" d="M481.39,54.11a4.49,4.49,0,0,1,0,5.47,3.46,3.46,0,0,1-2.61,1h-2.51v-7.4h2.51A3.43,3.43,0,0,1,481.39,54.11Zm-.88,4.71a3.57,3.57,0,0,0,0-4,2.18,2.18,0,0,0-1.73-.7h-1.36v5.36h1.36A2.18,2.18,0,0,0,480.51,58.82Z"/><path id="Trazado_236" data-name="Trazado 236" class="cls-1" d="M488.49,58.19h-3.95a1.76,1.76,0,0,0,.51,1.12,1.41,1.41,0,0,0,1.05.39,1.78,1.78,0,0,0,.88-.2,1,1,0,0,0,.48-.56l1,.41a2.31,2.31,0,0,1-2.32,1.3,2.6,2.6,0,0,1-2-.77,3.64,3.64,0,0,1,0-4.29,2.48,2.48,0,0,1,1.94-.77,2.33,2.33,0,0,1,1.84.75,2.91,2.91,0,0,1,.66,2A4.3,4.3,0,0,1,488.49,58.19Zm-3.47-2a1.84,1.84,0,0,0-.48,1.11h2.91a1.87,1.87,0,0,0-.46-1.1,1.25,1.25,0,0,0-1-.39,1.35,1.35,0,0,0-1,.38Z"/><path id="Trazado_237" data-name="Trazado 237" class="cls-1" d="M494.46,55.59a3.91,3.91,0,0,1,0,4.29,2.11,2.11,0,0,1-1.74.77,1.88,1.88,0,0,1-1-.27,1.75,1.75,0,0,1-.71-.74V62.9h-1.16v-8h1l.05,1a1.9,1.9,0,0,1,.72-.84,2.09,2.09,0,0,1,1.12-.32A2.15,2.15,0,0,1,494.46,55.59Zm-.91,3.58a2.27,2.27,0,0,0,.4-1.43,2.3,2.3,0,0,0-.4-1.44,1.3,1.3,0,0,0-1.09-.51,1.28,1.28,0,0,0-1,.46,2,2,0,0,0-.44,1.28V58a2,2,0,0,0,.44,1.27,1.41,1.41,0,0,0,2,.08.8.8,0,0,0,.13-.13Z"/><path id="Trazado_238" data-name="Trazado 238" class="cls-1" d="M501.49,59.71l-.08.81a1.71,1.71,0,0,1-.67.14,1.29,1.29,0,0,1-.74-.2.93.93,0,0,1-.36-.64,1.63,1.63,0,0,1-.73.62,2.58,2.58,0,0,1-1.09.21,2,2,0,0,1-1.28-.38,1.33,1.33,0,0,1-.48-1.09,1.41,1.41,0,0,1,.53-1.11,3.24,3.24,0,0,1,1.57-.64l1.37-.25v-.3a1,1,0,0,0-1.1-1.12,1.35,1.35,0,0,0-1.39,1l-.9-.49a1.94,1.94,0,0,1,.79-1.07,2.74,2.74,0,0,1,1.48-.39,2.61,2.61,0,0,1,1.66.5,1.81,1.81,0,0,1,.61,1.48v2.54a.49.49,0,0,0,.09.31.4.4,0,0,0,.31.1A1.43,1.43,0,0,0,501.49,59.71Zm-2.4-.26a.87.87,0,0,0,.44-.77V58l-1.17.24a2.21,2.21,0,0,0-.83.32.61.61,0,0,0-.27.54.52.52,0,0,0,.21.47,1,1,0,0,0,.6.17,1.84,1.84,0,0,0,1-.3Z"/><path id="Trazado_239" data-name="Trazado 239" class="cls-1" d="M505.79,54.93,505.6,56a1.39,1.39,0,0,0-.67-.14,1.27,1.27,0,0,0-.66.19,1.45,1.45,0,0,0-.5.57,2,2,0,0,0-.2.92v3h-1.16v-5.6h1l.1,1a1.68,1.68,0,0,1,1.7-1.12A1.36,1.36,0,0,1,505.79,54.93Z"/><path id="Trazado_240" data-name="Trazado 240" class="cls-1" d="M509.94,60.17a2,2,0,0,1-.63.36,2.73,2.73,0,0,1-.8.13,1.79,1.79,0,0,1-1.2-.39,1.55,1.55,0,0,1-.45-1.2V55.88h-1v-.94h1V53.63l1.15-.34v1.65h1.89v.94H508v3a.84.84,0,0,0,.21.6.82.82,0,0,0,.58.2,1.23,1.23,0,0,0,.87-.36Z"/><path id="Trazado_241" data-name="Trazado 241" class="cls-1" d="M516,59.71l-.08.81a1.66,1.66,0,0,1-.66.14,1.29,1.29,0,0,1-.74-.2.93.93,0,0,1-.36-.64,1.65,1.65,0,0,1-.74.62,2.52,2.52,0,0,1-1.09.21,2,2,0,0,1-1.27-.38,1.31,1.31,0,0,1-.49-1.09,1.44,1.44,0,0,1,.53-1.11,3.28,3.28,0,0,1,1.58-.64l1.37-.25v-.3a1.18,1.18,0,0,0-.29-.82,1.15,1.15,0,0,0-.81-.3,1.33,1.33,0,0,0-1.39,1l-.9-.49a1.89,1.89,0,0,1,.79-1.07,2.74,2.74,0,0,1,1.48-.39,2.61,2.61,0,0,1,1.66.5,1.81,1.81,0,0,1,.61,1.48v2.54a.49.49,0,0,0,.09.31.4.4,0,0,0,.31.1A1.36,1.36,0,0,0,516,59.71Zm-2.4-.26a.86.86,0,0,0,.44-.77V58l-1.17.24a2.21,2.21,0,0,0-.83.32.61.61,0,0,0-.27.54.54.54,0,0,0,.21.47,1,1,0,0,0,.6.17,1.82,1.82,0,0,0,1-.3Z"/><path id="Trazado_242" data-name="Trazado 242" class="cls-1" d="M524.37,55.05a1.76,1.76,0,0,1,.73.7,2.36,2.36,0,0,1,.27,1.16v3.63h-1.16V57.1a1.4,1.4,0,0,0-.3-1,1.08,1.08,0,0,0-.81-.31,1.29,1.29,0,0,0-1,.45,1.81,1.81,0,0,0-.4,1.23v3h-1.16V57.1a1.4,1.4,0,0,0-.3-1,1.1,1.1,0,0,0-.81-.31,1.35,1.35,0,0,0-.67.18,1.32,1.32,0,0,0-.52.58,2,2,0,0,0-.2,1v3h-1.16V54.93h1l.05.94a1.83,1.83,0,0,1,.73-.78,2,2,0,0,1,1-.27,2.2,2.2,0,0,1,1.09.29.75.75,0,1,0,1.49,0,2.22,2.22,0,0,1,2.08-.06Z"/><path id="Trazado_243" data-name="Trazado 243" class="cls-1" d="M531.73,58.19h-4a1.76,1.76,0,0,0,.51,1.12,1.44,1.44,0,0,0,1.06.39,1.83,1.83,0,0,0,.88-.2,1,1,0,0,0,.47-.56l1,.41a2.32,2.32,0,0,1-2.32,1.3,2.58,2.58,0,0,1-2-.77,3,3,0,0,1-.72-2.15,3.08,3.08,0,0,1,.69-2.14,2.48,2.48,0,0,1,1.94-.77,2.35,2.35,0,0,1,1.85.75,2.91,2.91,0,0,1,.65,2A4.3,4.3,0,0,1,531.73,58.19Zm-3.47-2a1.81,1.81,0,0,0-.48,1.11h2.91a1.92,1.92,0,0,0-.45-1.1,1.25,1.25,0,0,0-1-.39,1.36,1.36,0,0,0-1,.38Z"/><path id="Trazado_244" data-name="Trazado 244" class="cls-1" d="M537.42,55.36a2,2,0,0,1,.56,1.55v3.63h-1.15V57.29c0-1-.39-1.48-1.16-1.48a1.42,1.42,0,0,0-1,.43,1.8,1.8,0,0,0-.43,1.33v3h-1.16V54.93h1l0,.94a1.77,1.77,0,0,1,.74-.79,2.29,2.29,0,0,1,1.08-.26A2.09,2.09,0,0,1,537.42,55.36Z"/><path id="Trazado_245" data-name="Trazado 245" class="cls-1" d="M543,60.17a1.88,1.88,0,0,1-.63.36,2.73,2.73,0,0,1-.8.13,1.76,1.76,0,0,1-1.19-.39,1.54,1.54,0,0,1-.46-1.2V55.88h-1v-.94h1V53.63l1.15-.34v1.65H543v.94h-1.89v3a.84.84,0,0,0,.21.6.87.87,0,0,0,.58.2,1.23,1.23,0,0,0,.87-.36Z"/><path id="Trazado_246" data-name="Trazado 246" class="cls-1" d="M548.27,55.6a3.6,3.6,0,0,1,0,4.28,2.91,2.91,0,0,1-3.95,0,3.57,3.57,0,0,1,0-4.28,2.88,2.88,0,0,1,3.94,0Zm-3.11.67a3,3,0,0,0,0,2.93,1.49,1.49,0,0,0,2.12.14.93.93,0,0,0,.14-.14,2.83,2.83,0,0,0,0-2.92,1.49,1.49,0,0,0-2.11-.14l-.15.14Z"/><path id="Trazado_247" data-name="Trazado 247" class="cls-1" d="M558.29,55.59a4,4,0,0,1,0,4.29,2.14,2.14,0,0,1-1.75.77,1.88,1.88,0,0,1-1-.27,1.81,1.81,0,0,1-.71-.74V62.9h-1.15v-8h1l.06,1a1.88,1.88,0,0,1,.71-.84,2.09,2.09,0,0,1,1.12-.32A2.17,2.17,0,0,1,558.29,55.59Zm-.92,3.58a2.27,2.27,0,0,0,.4-1.43,2.3,2.3,0,0,0-.4-1.44,1.31,1.31,0,0,0-1.1-.51,1.29,1.29,0,0,0-1,.46,2,2,0,0,0-.43,1.28V58a2.07,2.07,0,0,0,.43,1.27,1.43,1.43,0,0,0,2,.08,1.59,1.59,0,0,0,.13-.13Z"/><path id="Trazado_248" data-name="Trazado 248" class="cls-1" d="M565.31,59.71l-.08.81a1.71,1.71,0,0,1-.67.14,1.26,1.26,0,0,1-.73-.2.9.9,0,0,1-.37-.64,1.63,1.63,0,0,1-.73.62,2.52,2.52,0,0,1-1.09.21,1.93,1.93,0,0,1-1.27-.38,1.31,1.31,0,0,1-.49-1.09,1.41,1.41,0,0,1,.53-1.11,3.24,3.24,0,0,1,1.58-.64l1.37-.25v-.3a1.18,1.18,0,0,0-.29-.82,1.15,1.15,0,0,0-.81-.3,1.35,1.35,0,0,0-1.4,1l-.9-.49a1.91,1.91,0,0,1,.8-1.07,2.7,2.7,0,0,1,1.47-.39,2.61,2.61,0,0,1,1.66.5,1.81,1.81,0,0,1,.61,1.48v2.54a.5.5,0,0,0,.1.31.37.37,0,0,0,.3.1A1.39,1.39,0,0,0,565.31,59.71Zm-2.4-.26a.85.85,0,0,0,.44-.77V58l-1.17.24a2.21,2.21,0,0,0-.83.32.61.61,0,0,0-.27.54.56.56,0,0,0,.21.47,1,1,0,0,0,.6.17,1.84,1.84,0,0,0,1-.3Z"/><path id="Trazado_249" data-name="Trazado 249" class="cls-1" d="M569.61,54.93l-.18,1.1a1.46,1.46,0,0,0-.68-.14,1.23,1.23,0,0,0-.65.19,1.4,1.4,0,0,0-.51.57,2,2,0,0,0-.2.92v3h-1.15V54.93h1l.1,1a1.69,1.69,0,0,1,1.7-1.12A1.32,1.32,0,0,1,569.61,54.93Z"/><path id="Trazado_250" data-name="Trazado 250" class="cls-1" d="M575.48,59.71l-.08.81a1.66,1.66,0,0,1-.66.14,1.29,1.29,0,0,1-.74-.2.93.93,0,0,1-.36-.64,1.65,1.65,0,0,1-.74.62,2.52,2.52,0,0,1-1.09.21,2,2,0,0,1-1.27-.38,1.31,1.31,0,0,1-.49-1.09,1.44,1.44,0,0,1,.53-1.11,3.28,3.28,0,0,1,1.58-.64l1.37-.25v-.3a1.18,1.18,0,0,0-.29-.82,1.15,1.15,0,0,0-.81-.3,1.33,1.33,0,0,0-1.39,1l-.9-.49a1.85,1.85,0,0,1,.79-1.07,2.7,2.7,0,0,1,1.47-.39,2.57,2.57,0,0,1,1.66.5,1.79,1.79,0,0,1,.62,1.48v2.54a.44.44,0,0,0,.09.31.38.38,0,0,0,.31.1A1.36,1.36,0,0,0,575.48,59.71Zm-2.39-.26a.88.88,0,0,0,.44-.77V58l-1.18.24a2.21,2.21,0,0,0-.83.32.65.65,0,0,0-.27.54.56.56,0,0,0,.21.47,1,1,0,0,0,.6.17,1.9,1.9,0,0,0,1-.3Z"/><path id="Trazado_251" data-name="Trazado 251" class="cls-1" d="M477.23,70.12a1,1,0,0,0,.12.58.51.51,0,0,0,.44.16l.35,0a2.53,2.53,0,0,0,.36-.12l-.13,1a2,2,0,0,1-.89.19,1.39,1.39,0,0,1-1.07-.38,1.84,1.84,0,0,1-.34-1.2V63.63h1.16Z"/><path id="Trazado_252" data-name="Trazado 252" class="cls-1" d="M484.38,70.93l-.08.8a1.55,1.55,0,0,1-.67.14,1.28,1.28,0,0,1-.74-.19,1,1,0,0,1-.36-.64,1.67,1.67,0,0,1-.73.61,2.72,2.72,0,0,1-1.09.22,2,2,0,0,1-1.27-.38A1.32,1.32,0,0,1,479,70.4a1.43,1.43,0,0,1,.53-1.12,3.24,3.24,0,0,1,1.58-.64l1.37-.25v-.3a1.11,1.11,0,0,0-.3-.81,1,1,0,0,0-.8-.3,1.34,1.34,0,0,0-1.4,1L479,67.5a1.85,1.85,0,0,1,.79-1.07,3,3,0,0,1,3.14.11,1.82,1.82,0,0,1,.61,1.48v2.54a.44.44,0,0,0,.09.31.4.4,0,0,0,.31.1A1.81,1.81,0,0,0,484.38,70.93Zm-2.4-.26a.91.91,0,0,0,.44-.78v-.67l-1.17.25a2,2,0,0,0-.83.31.63.63,0,0,0-.27.54.54.54,0,0,0,.21.48,1,1,0,0,0,.6.16,1.76,1.76,0,0,0,1-.29Z"/><path id="Trazado_253" data-name="Trazado 253" class="cls-1" d="M493.18,65a2.45,2.45,0,0,1,0,3.38,2.61,2.61,0,0,1-1.83.61h-1.59v2.79h-1.15v-7.4h2.74A2.66,2.66,0,0,1,493.18,65Zm-.89,2.65a1.19,1.19,0,0,0,.36-1c0-.86-.49-1.29-1.49-1.29h-1.4v2.57h1.4a1.66,1.66,0,0,0,1.12-.32Z"/><path id="Trazado_254" data-name="Trazado 254" class="cls-1" d="M498.42,66.15l-.18,1.1a1.35,1.35,0,0,0-.68-.15,1.23,1.23,0,0,0-.65.19,1.4,1.4,0,0,0-.51.57,2,2,0,0,0-.2.92v3h-1.15v-5.6h1l.1,1a1.68,1.68,0,0,1,1.7-1.13A1.36,1.36,0,0,1,498.42,66.15Z"/><path id="Trazado_255" data-name="Trazado 255" class="cls-1" d="M503.56,66.81a3.6,3.6,0,0,1,0,4.28,2.89,2.89,0,0,1-3.95,0,3.57,3.57,0,0,1,0-4.28A2.91,2.91,0,0,1,503.56,66.81Zm-3.1.68a2.9,2.9,0,0,0,0,2.93,1.49,1.49,0,0,0,2.11.13.93.93,0,0,0,.14-.14,2.83,2.83,0,0,0,0-2.92,1.5,1.5,0,0,0-2.11-.15l-.15.15Z"/><path id="Trazado_256" data-name="Trazado 256" class="cls-1" d="M506.08,71.58a2.1,2.1,0,0,1-.95-.89l.78-.7a1.37,1.37,0,0,0,.63.71,2.32,2.32,0,0,0,1,.22,1.67,1.67,0,0,0,.85-.18.57.57,0,0,0,.3-.49.47.47,0,0,0-.28-.43,3.78,3.78,0,0,0-1-.31,4,4,0,0,1-1.68-.63,1.35,1.35,0,0,1-.49-1.11,1.46,1.46,0,0,1,.27-.86,1.94,1.94,0,0,1,.78-.64,2.83,2.83,0,0,1,1.22-.24,3,3,0,0,1,1.43.31,2,2,0,0,1,.83,1l-.82.63a1.51,1.51,0,0,0-.54-.73,1.65,1.65,0,0,0-.89-.23,1.47,1.47,0,0,0-.8.21.55.55,0,0,0-.32.48.54.54,0,0,0,.28.48,3.48,3.48,0,0,0,1,.32,3.64,3.64,0,0,1,1.62.61,1.32,1.32,0,0,1,.47,1.1,1.44,1.44,0,0,1-.62,1.22,2.8,2.8,0,0,1-1.73.47A3.32,3.32,0,0,1,506.08,71.58Z"/><path id="Trazado_257" data-name="Trazado 257" class="cls-1" d="M515.78,66.8a4,4,0,0,1,0,4.29,2.15,2.15,0,0,1-1.75.78,2,2,0,0,1-1-.27,1.87,1.87,0,0,1-.71-.74v3.25h-1.15v-8h1l.06,1a1.94,1.94,0,0,1,.71-.84A2,2,0,0,1,514,66,2.16,2.16,0,0,1,515.78,66.8Zm-.92,3.58a2.27,2.27,0,0,0,.4-1.43,2.33,2.33,0,0,0-.39-1.43,1.44,1.44,0,0,0-2-.19l-.13.13a2.13,2.13,0,0,0-.44,1.28v.43a2.05,2.05,0,0,0,.44,1.26,1.43,1.43,0,0,0,2,.08,1.59,1.59,0,0,0,.13-.13Z"/><path id="Trazado_258" data-name="Trazado 258" class="cls-1" d="M522.53,69.4h-3.95a1.81,1.81,0,0,0,.51,1.13,1.51,1.51,0,0,0,1,.39,1.69,1.69,0,0,0,.88-.21,1,1,0,0,0,.48-.56l1,.41a2.31,2.31,0,0,1-2.32,1.3,2.54,2.54,0,0,1-2-.77,3,3,0,0,1-.72-2.14,3.09,3.09,0,0,1,.69-2.15,2.48,2.48,0,0,1,1.94-.77,2.32,2.32,0,0,1,1.84.75,2.93,2.93,0,0,1,.66,2A4.21,4.21,0,0,1,522.53,69.4Zm-3.47-2a1.86,1.86,0,0,0-.48,1.11h2.91a2,2,0,0,0-.45-1.1,1.32,1.32,0,0,0-1-.39A1.36,1.36,0,0,0,519.06,67.37Z"/><path id="Trazado_259" data-name="Trazado 259" class="cls-1" d="M527.23,66.15l-.18,1.1a1.35,1.35,0,0,0-.68-.15,1.3,1.3,0,0,0-.66.19,1.45,1.45,0,0,0-.5.57,2,2,0,0,0-.2.92v3h-1.16v-5.6h1l.1,1a1.68,1.68,0,0,1,1.7-1.13A1.23,1.23,0,0,1,527.23,66.15Z"/><path id="Trazado_260" data-name="Trazado 260" class="cls-1" d="M528.17,65a.72.72,0,0,1-.2-.56.68.68,0,0,1,.2-.54.91.91,0,0,1,1.14,0,.71.71,0,0,1,.2.54.76.76,0,0,1-.2.56.91.91,0,0,1-1.14,0Zm1.14,6.75h-1.15V66.15h1.15Z"/><path id="Trazado_261" data-name="Trazado 261" class="cls-1" d="M536,63.63v8.13h-1l-.06-1a2,2,0,0,1-.72.81,2.11,2.11,0,0,1-1.09.3,2.19,2.19,0,0,1-1.76-.77,3.89,3.89,0,0,1,0-4.29,2.13,2.13,0,0,1,1.75-.78,2,2,0,0,1,1,.28,1.76,1.76,0,0,1,.69.74V63.62Zm-1.56,6.77a2.13,2.13,0,0,0,.4-1.38v-.13a2.12,2.12,0,0,0-.4-1.38,1.4,1.4,0,0,0-2-.15,1.29,1.29,0,0,0-.17.16,2.27,2.27,0,0,0-.39,1.43,2.29,2.29,0,0,0,.39,1.44,1.41,1.41,0,0,0,2,.19,1.07,1.07,0,0,0,.19-.18Z"/><path id="Trazado_262" data-name="Trazado 262" class="cls-1" d="M542.64,70.93l-.08.8a1.55,1.55,0,0,1-.67.14,1.28,1.28,0,0,1-.74-.19,1,1,0,0,1-.36-.64,1.67,1.67,0,0,1-.73.61,2.76,2.76,0,0,1-1.09.22,2,2,0,0,1-1.27-.38,1.32,1.32,0,0,1-.49-1.09,1.42,1.42,0,0,1,.53-1.12,3.24,3.24,0,0,1,1.57-.64l1.37-.25v-.3a1,1,0,0,0-1.1-1.11,1.34,1.34,0,0,0-1.39,1l-.9-.49a1.91,1.91,0,0,1,.8-1.07,3,3,0,0,1,3.13.11,1.81,1.81,0,0,1,.61,1.48v2.54a.45.45,0,0,0,.1.31.37.37,0,0,0,.3.1A1.43,1.43,0,0,0,542.64,70.93Zm-2.4-.26a.87.87,0,0,0,.44-.78v-.67l-1.17.25a2,2,0,0,0-.83.31.63.63,0,0,0-.27.54.57.57,0,0,0,.21.48,1,1,0,0,0,.6.16,1.86,1.86,0,0,0,1-.29Z"/><path id="Trazado_263" data-name="Trazado 263" class="cls-1" d="M548.55,63.63v8.13h-1l-.06-1a2,2,0,0,1-.72.81,2.11,2.11,0,0,1-1.09.3,2.19,2.19,0,0,1-1.76-.77,3.24,3.24,0,0,1-.64-2.14,3.31,3.31,0,0,1,.64-2.15,2.16,2.16,0,0,1,1.76-.78,2,2,0,0,1,1,.28,1.7,1.7,0,0,1,.69.74V63.62ZM547,70.4a2.13,2.13,0,0,0,.4-1.38v-.13a2.12,2.12,0,0,0-.4-1.38,1.43,1.43,0,0,0-2-.16l-.16.17a2.79,2.79,0,0,0,0,2.87,1.4,1.4,0,0,0,2,.19.81.81,0,0,0,.19-.18Z"/><path id="Trazado_264" data-name="Trazado 264" class="cls-1" d="M557.78,64.61A3.05,3.05,0,0,1,559,65.75l-.87.81a2.24,2.24,0,0,0-.75-1,2.16,2.16,0,0,0-1.21-.3,1.84,1.84,0,0,0-1.16.31,1,1,0,0,0-.41.79.83.83,0,0,0,.4.71,4,4,0,0,0,1.43.45,6.21,6.21,0,0,1,1.52.46,1.7,1.7,0,0,1,1.09,1.7,1.93,1.93,0,0,1-.36,1.14,2.22,2.22,0,0,1-1,.76,4,4,0,0,1-1.48.26,3.26,3.26,0,0,1-3.07-1.5l.81-.84a2.43,2.43,0,0,0,.89,1,2.69,2.69,0,0,0,1.36.31,2.3,2.3,0,0,0,1.2-.27.88.88,0,0,0,.43-.78.74.74,0,0,0-.39-.65,4.48,4.48,0,0,0-1.37-.44,6.61,6.61,0,0,1-1.57-.47,2.06,2.06,0,0,1-.85-.7,1.88,1.88,0,0,1-.26-1,2,2,0,0,1,.34-1.14,2.25,2.25,0,0,1,1-.82,3.4,3.4,0,0,1,1.47-.3A3.58,3.58,0,0,1,557.78,64.61Z"/><path id="Trazado_265" data-name="Trazado 265" class="cls-1" d="M564.63,66.81a3.57,3.57,0,0,1,0,4.28,2.89,2.89,0,0,1-4,0,3.57,3.57,0,0,1,0-4.28A2.91,2.91,0,0,1,564.63,66.81Zm-3.1.68a3,3,0,0,0,0,2.93,1.49,1.49,0,0,0,2.11.13,1,1,0,0,0,.15-.14,2.88,2.88,0,0,0,0-2.92,1.51,1.51,0,0,0-2.12-.15l-.14.15Z"/><path id="Trazado_266" data-name="Trazado 266" class="cls-1" d="M571.37,67.61l-1.08.45A1.23,1.23,0,0,0,569,67a1.34,1.34,0,0,0-1.12.52,2.83,2.83,0,0,0,0,2.9,1.52,1.52,0,0,0,2,.23,1.41,1.41,0,0,0,.44-.81l1,.37a2.28,2.28,0,0,1-.84,1.23,2.55,2.55,0,0,1-1.52.44,2.6,2.6,0,0,1-2-.77,3.59,3.59,0,0,1,0-4.29,2.58,2.58,0,0,1,2-.77A2.25,2.25,0,0,1,571.37,67.61Z"/><path id="Trazado_267" data-name="Trazado 267" class="cls-1" d="M572.61,65a.77.77,0,0,1-.21-.56.72.72,0,0,1,.21-.54.91.91,0,0,1,1.14,0,.71.71,0,0,1,.2.54.76.76,0,0,1-.2.56.93.93,0,0,1-1.14,0Zm1.14,6.75H572.6V66.15h1.16Z"/><path id="Trazado_268" data-name="Trazado 268" class="cls-1" d="M580.45,70.93l-.07.8a1.58,1.58,0,0,1-.67.14,1.28,1.28,0,0,1-.74-.19,1,1,0,0,1-.36-.64,1.7,1.7,0,0,1-.74.61,2.69,2.69,0,0,1-1.09.22,2,2,0,0,1-1.27-.38A1.29,1.29,0,0,1,575,70.4a1.42,1.42,0,0,1,.52-1.12,3.28,3.28,0,0,1,1.58-.64l1.37-.25v-.3a1.1,1.1,0,0,0-.29-.81,1.07,1.07,0,0,0-.81-.3A1.32,1.32,0,0,0,576,68l-.9-.49a1.85,1.85,0,0,1,.79-1.07,2.62,2.62,0,0,1,1.47-.39,2.57,2.57,0,0,1,1.66.5,1.79,1.79,0,0,1,.62,1.48v2.54a.44.44,0,0,0,.09.31.38.38,0,0,0,.31.1A1.36,1.36,0,0,0,580.45,70.93Zm-2.4-.26a.87.87,0,0,0,.44-.78v-.67l-1.17.25a2,2,0,0,0-.83.31.63.63,0,0,0-.27.54.57.57,0,0,0,.21.48,1,1,0,0,0,.6.16,1.81,1.81,0,0,0,1-.29Z"/><path id="Trazado_269" data-name="Trazado 269" class="cls-1" d="M582.5,70.12a1,1,0,0,0,.12.58.52.52,0,0,0,.44.16,2,2,0,0,0,.35,0,1.9,1.9,0,0,0,.36-.12l-.13,1a2,2,0,0,1-.9.19,1.38,1.38,0,0,1-1.06-.38,1.84,1.84,0,0,1-.34-1.2V63.63h1.16Z"/></g><g id="Grupo_174" data-name="Grupo 174"><g id="Grupo_173" data-name="Grupo 173"><path id="Trazado_270" data-name="Trazado 270" class="cls-1" d="M343.5,54.77h-6.19V43.63h2v9.29h4.18Z"/><path id="Trazado_271" data-name="Trazado 271" class="cls-1" d="M349.13,53.76a2.15,2.15,0,0,1-2.1,1.07,2.34,2.34,0,0,1-2.5-2.19,1,1,0,0,1,0-.25,2.22,2.22,0,0,1,.85-1.87,3.91,3.91,0,0,1,2.48-.68H349v-.51a1.45,1.45,0,0,0-.35-1.06,1.57,1.57,0,0,0-1.19-.36,4,4,0,0,0-2.37.74V46.82a4.72,4.72,0,0,1,2.6-.58q3.28,0,3.28,3.17v5.36h-1.89Zm-1.43-.4a1.28,1.28,0,0,0,1-.39,1.5,1.5,0,0,0,.36-1v-.79h-1a1.77,1.77,0,0,0-1.14.32,1,1,0,0,0-.4.82c0,.71.39,1.06,1.18,1.06Z"/><path id="Trazado_272" data-name="Trazado 272" class="cls-1" d="M358.84,57.92h-1.91V46.38h1.91v1.29a2.72,2.72,0,0,1,2.47-1.41,3,3,0,0,1,2.5,1.17,4.9,4.9,0,0,1,.93,3.09,5.1,5.1,0,0,1-.93,3.12,3,3,0,0,1-2.52,1.23,2.65,2.65,0,0,1-2.45-1.37Zm.6-9.32a2.69,2.69,0,0,0-.6,1.91,3,3,0,0,0,.59,2,1.79,1.79,0,0,0,1.41.7,1.68,1.68,0,0,0,1.4-.69,3.66,3.66,0,0,0,0-3.85,1.66,1.66,0,0,0-1.36-.68,1.88,1.88,0,0,0-1.44.64Z"/><path id="Trazado_273" data-name="Trazado 273" class="cls-1" d="M368.28,54.76h-1.92V46.38h1.91v1.48a2.05,2.05,0,0,1,2-1.55,2.47,2.47,0,0,1,.54,0v1.92a1.93,1.93,0,0,0-.81-.17,1.52,1.52,0,0,0-1.28.66,2.74,2.74,0,0,0-.49,1.66Z"/><path id="Trazado_274" data-name="Trazado 274" class="cls-1" d="M379.33,50.54a4.64,4.64,0,0,1-1,3.12,4,4,0,0,1-5.66.11.23.23,0,0,0-.07-.07,4.5,4.5,0,0,1-1-3,4.68,4.68,0,0,1,1.06-3.17,3.9,3.9,0,0,1,5.51-.21,1,1,0,0,1,.18.18A4.59,4.59,0,0,1,379.33,50.54Zm-5.77.05a3.67,3.67,0,0,0,.49,1.94,1.69,1.69,0,0,0,2.31.51,1.62,1.62,0,0,0,.51-.5,3.55,3.55,0,0,0,.47-1.93,3.8,3.8,0,0,0-.46-2,1.56,1.56,0,0,0-1.45-.77,1.52,1.52,0,0,0-1.38.78,3.61,3.61,0,0,0-.49,2Z"/><path id="Trazado_275" data-name="Trazado 275" class="cls-1" d="M386.23,52.34a2.2,2.2,0,0,1-.81,1.83,3.28,3.28,0,0,1-2.16.66,4.83,4.83,0,0,1-2.42-.51V52.51a4,4,0,0,0,2.31.74A1.48,1.48,0,0,0,384,53a.64.64,0,0,0,.29-.57.89.89,0,0,0-.09-.39,1,1,0,0,0-.37-.34l-.42-.24-.6-.27a.15.15,0,0,1-.07,0l-.07,0a.15.15,0,0,1-.08,0,2.58,2.58,0,0,1-1.77-2.38,2.18,2.18,0,0,1,.85-1.82,3.32,3.32,0,0,1,2.11-.66,4.88,4.88,0,0,1,2,.37v1.75a3.63,3.63,0,0,0-2-.5,1.21,1.21,0,0,0-.78.22.68.68,0,0,0-.27.57.69.69,0,0,0,0,.25.46.46,0,0,0,.14.22l.2.2a1.78,1.78,0,0,0,.27.17l.3.16.35.16.35.16a5.07,5.07,0,0,1,1.33,1A2,2,0,0,1,386.23,52.34Z"/><path id="Trazado_276" data-name="Trazado 276" class="cls-1" d="M389.67,57.9h-1.9V46.36h1.9v1.29a2.74,2.74,0,0,1,2.47-1.4,3,3,0,0,1,2.5,1.17,4.87,4.87,0,0,1,.93,3.09,5.05,5.05,0,0,1-.93,3.12,3,3,0,0,1-2.52,1.23,2.68,2.68,0,0,1-2.45-1.37Zm.6-9.32a2.73,2.73,0,0,0-.6,1.92,3,3,0,0,0,.59,2,1.81,1.81,0,0,0,1.42.69,1.72,1.72,0,0,0,1.4-.69,3.7,3.7,0,0,0,0-3.85,1.65,1.65,0,0,0-1.37-.68,1.88,1.88,0,0,0-1.44.64Z"/><path id="Trazado_277" data-name="Trazado 277" class="cls-1" d="M403.36,54.28a4.48,4.48,0,0,1-2.43.55,4,4,0,0,1-3-1.19,4.31,4.31,0,0,1-1.11-3.08,4.43,4.43,0,0,1,1-3.14,3.43,3.43,0,0,1,2.63-1.14,3.22,3.22,0,0,1,2.5,1,4.1,4.1,0,0,1,.92,2.89,7.86,7.86,0,0,1-.11,1.19H398.7a2.29,2.29,0,0,0,.87,1.39,2.69,2.69,0,0,0,1.65.48,3.42,3.42,0,0,0,2.14-.66Zm-2.87-6.45a1.57,1.57,0,0,0-1.18.53,2.63,2.63,0,0,0-.64,1.51h3.38v-.25a2.09,2.09,0,0,0-.42-1.3A1.38,1.38,0,0,0,400.49,47.83Z"/><path id="Trazado_278" data-name="Trazado 278" class="cls-1" d="M407.52,54.74H405.6V46.36h1.91v1.49a2,2,0,0,1,2-1.55,2.5,2.5,0,0,1,.55,0v1.92a1.92,1.92,0,0,0-.81-.16,1.52,1.52,0,0,0-1.28.66,2.69,2.69,0,0,0-.49,1.65Z"/><path id="Trazado_279" data-name="Trazado 279" class="cls-1" d="M413.4,43.84a1.19,1.19,0,0,1-.33.86,1.11,1.11,0,0,1-1.58,0,.08.08,0,0,1,0,0,1.23,1.23,0,0,1,0-1.7A1.11,1.11,0,0,1,413,43l0,0A1.15,1.15,0,0,1,413.4,43.84Zm-.18,10.9h-1.91V46.35h1.91Z"/><path id="Trazado_280" data-name="Trazado 280" class="cls-1" d="M422.74,54.73h-1.91v-1.3a2.67,2.67,0,0,1-2.45,1.42,3,3,0,0,1-2.52-1.25,5,5,0,0,1-.93-3.05,4.67,4.67,0,0,1,1-3.14,3.1,3.1,0,0,1,2.5-1.17,2.64,2.64,0,0,1,2.41,1.4V43h1.91Zm-5.85-4.14a2.92,2.92,0,0,0,.55,1.85,1.73,1.73,0,0,0,1.39.71,1.8,1.8,0,0,0,1.43-.69,3,3,0,0,0,.57-2,2.65,2.65,0,0,0-.61-1.91,1.88,1.88,0,0,0-1.38-.64,1.73,1.73,0,0,0-1.39.7A3,3,0,0,0,416.89,50.59Z"/><path id="Trazado_281" data-name="Trazado 281" class="cls-1" d="M429,53.72a2.14,2.14,0,0,1-2.1,1.08,2.35,2.35,0,0,1-2.49-2.19,2.53,2.53,0,0,1,.85-2.13,4,4,0,0,1,2.48-.67h1.18v-.52a1.53,1.53,0,0,0-.35-1.06,1.64,1.64,0,0,0-1.19-.36,4.09,4.09,0,0,0-2.37.75V46.78a4.9,4.9,0,0,1,2.6-.58q3.28,0,3.28,3.17v5.36H429Zm-1.43-.4a1.3,1.3,0,0,0,1-.39,1.44,1.44,0,0,0,.35-1v-.8h-1a1.77,1.77,0,0,0-1.14.32,1,1,0,0,0-.4.82c0,.72.39,1.07,1.17,1.07Z"/><path id="Trazado_282" data-name="Trazado 282" class="cls-1" d="M440.25,54.73h-1.91V53.42a2.69,2.69,0,0,1-2.45,1.42,3,3,0,0,1-2.52-1.25,5,5,0,0,1-.93-3.05,4.67,4.67,0,0,1,1-3.14,3.12,3.12,0,0,1,2.5-1.17,2.65,2.65,0,0,1,2.42,1.4V43h1.91Zm-5.86-4.15a2.93,2.93,0,0,0,.56,1.85,1.68,1.68,0,0,0,1.38.71,1.77,1.77,0,0,0,1.43-.69,3,3,0,0,0,.57-2,2.66,2.66,0,0,0-.6-1.91,1.83,1.83,0,0,0-1.38-.63,1.71,1.71,0,0,0-1.39.7A3.05,3.05,0,0,0,434.39,50.58Z"/><path id="Trazado_283" data-name="Trazado 283" class="cls-1" d="M343.39,68.8a4.57,4.57,0,0,1-2.43.54,3.93,3.93,0,0,1-3-1.19,4.29,4.29,0,0,1-1.11-3.07,4.43,4.43,0,0,1,1-3.14,3.43,3.43,0,0,1,2.63-1.14,3.23,3.23,0,0,1,2.5,1,4.13,4.13,0,0,1,.92,2.89,7.86,7.86,0,0,1-.11,1.19h-5.05a2.23,2.23,0,0,0,.86,1.39,2.75,2.75,0,0,0,1.65.48,3.48,3.48,0,0,0,2.14-.66Zm-2.86-6.45a1.64,1.64,0,0,0-1.19.52,2.66,2.66,0,0,0-.64,1.51h3.38v-.25a2.13,2.13,0,0,0-.42-1.3A1.36,1.36,0,0,0,340.53,62.35Z"/><path id="Trazado_284" data-name="Trazado 284" class="cls-1" d="M350.91,66.84a2.27,2.27,0,0,1-.81,1.84,3.36,3.36,0,0,1-2.16.66,4.94,4.94,0,0,1-2.42-.51V67a4,4,0,0,0,2.31.74,1.41,1.41,0,0,0,.82-.2.66.66,0,0,0,.29-.57.86.86,0,0,0-.09-.39,1.09,1.09,0,0,0-.37-.34l-.42-.24-.6-.27-.07,0-.07,0-.08,0a2.6,2.6,0,0,1-1.77-2.38,2.2,2.2,0,0,1,.84-1.82,3.3,3.3,0,0,1,2.12-.66,4.87,4.87,0,0,1,2,.36v1.75a3.64,3.64,0,0,0-2-.49,1.2,1.2,0,0,0-.77.22.8.8,0,0,0-.24.82.66.66,0,0,0,.15.22,1.75,1.75,0,0,0,.2.19,1.27,1.27,0,0,0,.27.18l.3.15c.08,0,.2.1.35.17l.34.16a4.9,4.9,0,0,1,1.34,1A1.94,1.94,0,0,1,350.91,66.84Z"/><path id="Trazado_285" data-name="Trazado 285" class="cls-1" d="M363.76,69.25h-1.91V68a2.65,2.65,0,0,1-2.45,1.42,3,3,0,0,1-2.52-1.25,5,5,0,0,1-.93-3.05,4.77,4.77,0,0,1,1-3.15,3.14,3.14,0,0,1,2.5-1.16,2.68,2.68,0,0,1,2.42,1.4v-4.6h1.9Zm-5.85-4.15a2.85,2.85,0,0,0,.55,1.85,1.7,1.7,0,0,0,1.39.71,1.79,1.79,0,0,0,1.43-.68,3.09,3.09,0,0,0,.57-2,2.68,2.68,0,0,0-.6-1.9,1.86,1.86,0,0,0-1.39-.64,1.73,1.73,0,0,0-1.39.7,3,3,0,0,0-.56,2Z"/><path id="Trazado_286" data-name="Trazado 286" class="cls-1" d="M372,68.78a4.5,4.5,0,0,1-2.43.55,3.93,3.93,0,0,1-3-1.19,4.35,4.35,0,0,1-1.12-3.08,4.5,4.5,0,0,1,1.05-3.14,3.44,3.44,0,0,1,2.62-1.14,3.25,3.25,0,0,1,2.5,1,4.11,4.11,0,0,1,.93,2.89,9.73,9.73,0,0,1-.11,1.2h-5.06a2.32,2.32,0,0,0,.87,1.39,2.67,2.67,0,0,0,1.64.47,3.45,3.45,0,0,0,2.15-.66Zm-2.87-6.44a1.53,1.53,0,0,0-1.18.52,2.64,2.64,0,0,0-.65,1.51h3.39v-.25a2.17,2.17,0,0,0-.42-1.3,1.37,1.37,0,0,0-1.14-.48Z"/><path id="Trazado_287" data-name="Trazado 287" class="cls-1" d="M382.63,69a3.08,3.08,0,0,1-1.43.28c-1.74,0-2.61-.91-2.61-2.74V62.35h-1.21V60.86h1.21v-2h1.9v2h2v1.49h-2v4.26a1.07,1.07,0,0,0,.28.8,1,1,0,0,0,.74.28,2,2,0,0,0,1.12-.35Z"/><path id="Trazado_288" data-name="Trazado 288" class="cls-1" d="M391.55,65a4.79,4.79,0,0,1-1,3.13,4,4,0,0,1-5.66.1.46.46,0,0,1-.07-.07,4.47,4.47,0,0,1-1-3A4.68,4.68,0,0,1,384.84,62a3.9,3.9,0,0,1,5.52-.2,1.37,1.37,0,0,1,.17.17A4.66,4.66,0,0,1,391.55,65Zm-5.77,0a3.49,3.49,0,0,0,.49,1.94,1.68,1.68,0,0,0,2.31.52,1.62,1.62,0,0,0,.5-.51,3.51,3.51,0,0,0,.48-1.93,3.8,3.8,0,0,0-.46-2,1.7,1.7,0,0,0-2.84,0,3.6,3.6,0,0,0-.48,1.95Z"/><path id="Trazado_289" data-name="Trazado 289" class="cls-1" d="M400.56,69.23h-1.9v-1.3a2.67,2.67,0,0,1-2.45,1.42,3,3,0,0,1-2.52-1.25,5,5,0,0,1-.93-3,4.67,4.67,0,0,1,1-3.14,3.12,3.12,0,0,1,2.5-1.17,2.65,2.65,0,0,1,2.42,1.4v-4.6h1.91Zm-5.85-4.14a2.93,2.93,0,0,0,.56,1.85,1.71,1.71,0,0,0,1.38.71,1.77,1.77,0,0,0,1.43-.69,3,3,0,0,0,.57-2,2.66,2.66,0,0,0-.6-1.91,1.88,1.88,0,0,0-1.38-.64,1.72,1.72,0,0,0-1.39.7,3.08,3.08,0,0,0-.57,2Z"/><path id="Trazado_290" data-name="Trazado 290" class="cls-1" d="M410,65a4.73,4.73,0,0,1-1,3.13,4,4,0,0,1-5.65.1.23.23,0,0,1-.07-.07,4.48,4.48,0,0,1-1-3A4.67,4.67,0,0,1,403.27,62a3.9,3.9,0,0,1,5.51-.22l.18.18A4.66,4.66,0,0,1,410,65Zm-5.78.06a3.55,3.55,0,0,0,.5,1.93,1.67,1.67,0,0,0,2.3.52,1.62,1.62,0,0,0,.51-.5,3.66,3.66,0,0,0,.48-1.94,3.75,3.75,0,0,0-.46-2,1.56,1.56,0,0,0-1.45-.77,1.53,1.53,0,0,0-1.39.78A3.59,3.59,0,0,0,404.2,65.07Z"/><path id="Trazado_291" data-name="Trazado 291" class="cls-1" d="M416.88,66.81a2.27,2.27,0,0,1-.81,1.84,3.38,3.38,0,0,1-2.17.66,4.92,4.92,0,0,1-2.41-.51V67a3.94,3.94,0,0,0,2.3.74,1.36,1.36,0,0,0,.81-.2.67.67,0,0,0,.3-.57.76.76,0,0,0-.1-.39,1,1,0,0,0-.36-.34L414,66l-.6-.27-.07,0-.08,0-.08,0a2.61,2.61,0,0,1-1.76-2.38,2.17,2.17,0,0,1,.84-1.82,3.29,3.29,0,0,1,2.11-.66,4.92,4.92,0,0,1,2,.36v1.75a3.64,3.64,0,0,0-2-.49,1.2,1.2,0,0,0-.77.22.71.71,0,0,0-.28.57,1,1,0,0,0,0,.25.54.54,0,0,0,.15.22,1.8,1.8,0,0,0,.2.19A1,1,0,0,0,414,64l.3.16c.08,0,.2.1.35.17l.35.16a4.86,4.86,0,0,1,1.33,1A2,2,0,0,1,416.88,66.81Z"/></g></g></g><g id="Grupo_176" data-name="Grupo 176"><path id="Trazado_292" data-name="Trazado 292" class="cls-1" d="M313.85,48.46h0l0-.13-.11,0-1.42.55-1.5.56-.07,0v.06c0,.4-.31.63-.71.88v-.76l-.16-1.95.16,0a1,1,0,0,0,.68-.12A8.58,8.58,0,0,0,312,46.11l.11-.17.3-.37.09,0,.17,0a.49.49,0,0,0,.57-.41.57.57,0,0,0,0-.13c0-.45-.64-.88-1-1a.17.17,0,0,0,0-.07c0-.55-1.05-1.16-1.85-1.56l-.06,0a1,1,0,0,0-.19-.46,36.7,36.7,0,0,0-8.08-5.74,3.78,3.78,0,0,0-1.78-.41,9.23,9.23,0,0,0-3.12.63,1.71,1.71,0,0,0-.53,1.21,2.38,2.38,0,0,0,.62,1.47,1.4,1.4,0,0,1,.37.7.25.25,0,0,1-.2.24,1.18,1.18,0,0,0-1.19-.67l-.28,0-.25,0a.76.76,0,0,1-.2-.27s0-.1,0-.17l0-.21c0-.36-.24-.54-.55-.73a.32.32,0,0,0,0-.14.47.47,0,0,0-.42-.24,2.05,2.05,0,0,0-.58.18h0l-.05,0a1.54,1.54,0,0,0,.09-.6c0-1.6-2.2-1.65-2.45-1.65-3.1,0-6.88,2.78-10.19,5.4a3.56,3.56,0,0,0-.63.71,2.75,2.75,0,0,1-.66.7,4.5,4.5,0,0,1-.41.25,3.3,3.3,0,0,0-.9.67,1,1,0,0,0-.18.31l-.09.17-.29.27c-.28.24-.58.5-.58.84a.5.5,0,0,0,.46.51h0a1.07,1.07,0,0,0,.62-.2l.05,0h0c.64.82,1.95,2.45,2,2.46v0a.92.92,0,0,0,.72.13h.15l-.16,1.9v.78l-.1-.06a1.93,1.93,0,0,1-.46-.35.52.52,0,0,1-.07-.21.5.5,0,0,0-.21-.39l-3.51-1.33.25.32c2.22,2.77,2.35,2.77,2.4,2.77h.77l-.17,2v4.28A40.36,40.36,0,0,0,281,61.9,14.73,14.73,0,0,0,283.65,68l.16.19v0l.07,0a6.53,6.53,0,0,0,4.87,2.54,9.07,9.07,0,0,0,4.77-1.8,21,21,0,0,1-1.91,4.11l-.08.12.14,0a1.28,1.28,0,0,0,.34.07h.66a1.87,1.87,0,0,1,.53,0l-.24.82v.11a.41.41,0,0,0,0,.11.13.13,0,0,0,0,.06h0c.09.3.69.38.69.38a3.31,3.31,0,0,0,.63,0l-.1.66v0c.21.7,1.12.7,1.62.7h.14a1.74,1.74,0,0,0,1.13-.29.52.52,0,0,0,.14-.37,2.57,2.57,0,0,0-.07-.4,2,2,0,0,1-.06-.28,1.88,1.88,0,0,0,1.13-.27.51.51,0,0,0,.14-.26h0s0,0,0-.06v0a2.73,2.73,0,0,0-.15-.56c0-.14-.1-.31-.12-.42l.3,0c.25,0,.57,0,.8,0h.64l-.12-.17a17,17,0,0,1-1.55-3.28l-.1-.25-.14-.41.14.09a8.89,8.89,0,0,0,4.71,1.54c2.88,0,4.79-2.13,5.89-3.91a16,16,0,0,0,2.23-7.07s0-.3.06-.59c.06-.64.17-1.52.17-1.75V53.21l-.17-2h.78l0,0c.74-.82,1.45-1.67,2.11-2.56a.51.51,0,0,0,0-.13m-1.58-3.09a.35.35,0,0,0-.1.11h0l-.22.29,0,0-.12.16a7.93,7.93,0,0,1-1.23,1.48.94.94,0,0,1-.57.09,1.22,1.22,0,0,0-.27,0h0l1.23-1,.8-.67.32-.28,0,0h0c.06-.07.06-.08.05-.12l0-.14.41-.17-.23.28M307,51l.33-.33c.5-.53,1.23-1.43,1.23-1.45l-.16-.13s-.72.89-1.22,1.42l-.2.21c0-.44,0-.86-.06-1l2.51-2-.13-.17-4.85,3.79c0-.05,0-.09,0-.14l1.8-1.46c1-.81,2-1.65,3-2.44a1.08,1.08,0,0,0,.37-.65.53.53,0,0,1,.15-.34,5,5,0,0,1,1.34-.64l.18-.06.06,0,.37-.14v0l.17-.08L309.63,47l-.05.63.05,0,.17,2.11v.9l-2.84,2c0-.3.06-.84.06-1.24V51m-1.87,2.39s0-.06,0-.08,0-.3,0-.45h1.45l-.76.53Zm.43.23L305,54c0-.11,0-.25.07-.38Zm1.21-3.07c0,.12,0,.23,0,.36l-.2.19h-1.39v0l.65-.51Zm-.66-.22.62-.48c0,.12,0,.29,0,.48Zm-.9,1.55c0-.22,0-.4,0-.55h1.14l-.61.55Zm.26.21c-.08.08-.18.15-.26.22v-.22Zm-.27.54v0l.6-.52h1c0,.2,0,.39,0,.54Zm.85-.75.6-.55h.15v.07c0,.14,0,.3,0,.47Zm-1.5,1.26.35-.28H305c0,.14,0,.29,0,.42,0,.29-.13.72-.16.88h-.26c0-.42,0-.78,0-1m0-.28Zm.29-.23h-.3c0-.29,0-.66-.06-1l.38-.29H305c0,.28,0,.72,0,1.16a1.07,1.07,0,0,0-.16.14m2.45,1c0,.15,0,.34,0,.54h-1.42l.78-.54Zm-.34-.23.36-.25a1.78,1.78,0,0,0,0,.25Zm.31,1h0a8.13,8.13,0,0,1-.69.54h-1.12l0-.5.06,0Zm-.33.54c.1-.08.21-.15.31-.24,0,.07,0,.15,0,.24Zm.29.22,0,.55h-1.58a5.57,5.57,0,0,0,1-.55Zm-1,0a7.61,7.61,0,0,1-.81.4c0-.14,0-.28,0-.4Zm.95.77c0,.18,0,.35,0,.54h-1.81c0-.19,0-.37,0-.54Zm-.06.76c0,.18,0,.36,0,.54h-1.79c0-.18,0-.36.05-.54Zm-.07.77c0,.18,0,.36-.05.55h-1.79l.06-.55Zm-5.16,10.5c-.16-.11-.31-.24-.46-.36l.12-.18h1.9l-.38.54Zm1,.23a1.93,1.93,0,0,1-.22.28,4.48,4.48,0,0,1-.47-.28ZM298,66.75l.08-.57-.6-.16-.4.28-.17-.23h.2l.79-.36.89.7.34.67.37-.13c-.36.38-.73.75-1.1,1.09l-.09-.14.07-.72ZM297.28,68V68a1.24,1.24,0,0,1,0-.33,1.65,1.65,0,0,1,0-.32l0-.14H297V66.8h-.4v.37h-.44V66.8h-.4v.37h-.45V66.8h-.4v.37h-.22l0,.09a1.41,1.41,0,0,0-.05.35l-.38.41h-.63l.38.69.55.36h2.59l.42-.26a12.76,12.76,0,0,1-1.76,1.34A16.76,16.76,0,0,1,293.05,68c.05-.07.12-.2.18-.27l.54-.11.13-.43.27-.38h.52l.34-.32,1.72-.22.28.37.48-.34.31.09-.06.47.39.42-.08.72.16.22-.48.44.14-.6Zm-.16.07,0,.08H297v-.08Zm-.19-.37h-.35a.71.71,0,0,1,0-.14.53.53,0,0,1,0-.13h.35a.53.53,0,0,0,0,.13.71.71,0,0,0,0,.14m-.8.45v-.08h.45v.08h-.2v.15h-.06v-.15Zm0-.45h-.36s0-.08,0-.14a.51.51,0,0,1,0-.13h.35a.53.53,0,0,0,0,.13.71.71,0,0,0,0,.14m-.83.45v-.08h.45v.08h-.21v.15h0v-.15Zm0-.45h-.35a.71.71,0,0,1,0-.14.53.53,0,0,1,0-.13h.35s0,.08,0,.13,0,.09,0,.14m-.39.37v.08h-.19l-.1-.14.05-.05v0l0,.08Zm2.57,5.55-.17-.1.18-.07a2.16,2.16,0,0,1,.44-.1s0,.14.08.27Zm.59.22s0,0,0,.07l-.1-.07Zm-.73,0,.09,0h0a1.21,1.21,0,0,0,.2.09h-1c0-.38-.06-.83-.1-1.31h.33q0,.33.12.66l0,.07a.68.68,0,0,0,.18.32h0a.66.66,0,0,0,.17.12m-.84-1.4c0-.43-.05-.88-.08-1.32h.22c.06.45.12.93.18,1.32Zm-.8-2.08,0,0,.06,0,0,0,.05,0h.28c0,.18,0,.36,0,.55h-.91l0-.55Zm-.37-.22v0l0,0Zm.89,1c0,.18,0,.37,0,.54h-1c0-.17,0-.36,0-.54Zm0,.78c0,.18,0,.36,0,.54h-1.11c0-.18,0-.36,0-.54Zm.06.77,0,.53h-1.21c0-.17,0-.34,0-.53Zm0,.76c0,.2,0,.38,0,.55H295c0-.17,0-.35,0-.55Zm0-3.38.15-.1c0,.21.06.56.11,1h-.2c0-.3,0-.6-.06-.87m.07,4.15q0,.33.06.54H295c0-.12,0-.31.07-.54Zm-8-6.27-.38-.54H290a.83.83,0,0,0,.13.18c-.15.12-.31.25-.47.36Zm.86.23a2.87,2.87,0,0,1-.48.28l-.22-.28Zm-4.44-14.56.78.54h-1.41c0-.2,0-.39,0-.54Zm-.66-.23a1.78,1.78,0,0,0,0-.25l.36.25Zm1.75,1,.06,0c0,.15,0,.32,0,.5h-1.11a8.13,8.13,0,0,1-.69-.54H286Zm.1.77c0,.11,0,.26,0,.38a7.49,7.49,0,0,1-.81-.38Zm-1.48-.23h-.3c0-.08,0-.16,0-.24.1.09.21.16.31.24m.3.23a7.13,7.13,0,0,0,1,.54h-1.57q0-.28,0-.54Zm1.25.76c0,.17,0,.36,0,.55h-1.78c0-.19,0-.37,0-.55Zm.06.76c0,.18,0,.36.05.54h-1.79c0-.18,0-.36,0-.54Zm.07.77.06.55h-1.8c0-.18,0-.37-.05-.55Zm.77-3.28h-.29c0-.16-.12-.59-.16-.89,0-.13,0-.27,0-.42H287a.43.43,0,0,1,0,0c0,.18,0,.67,0,1.26m-.5-1.54c0-.48,0-1,0-1.3h.14l.39.31c0,.34,0,.72,0,1Zm.57,3.07h-.57l-.2-.08c0-.37-.05-.72-.07-1l.81.58,0,.53m-4.91-10.53.06.08c.62.82,1.09,1.12,1.7,1.12a3,3,0,0,0,1.14-.35,3,3,0,0,1,1-.32,5.07,5.07,0,0,1-.44.37,3.64,3.64,0,0,0-.55.49.68.68,0,0,0-.11.42A3.53,3.53,0,0,0,286,49.35a1.48,1.48,0,0,0,1.06.37h.12a.59.59,0,0,1,0,.14,2.12,2.12,0,0,0,0,.24c0,.31,0,.5,0,.64h0s0,.07,0,.17c-1.76-1.34-3.47-2.66-5-4a.58.58,0,0,1-.06-.26.61.61,0,0,0-.18-.46h0s-1.56-.64-2.54-1.07l.45-.14a1.52,1.52,0,0,1,.28-.09,1,1,0,0,0,.5.17,3.07,3.07,0,0,0,1.39-.4.15.15,0,0,0,0,.09c0,.09.05.17.27.44m1.12-.4a6,6,0,0,0-.09-.63.52.52,0,0,0,0-.14l.16.14a1.74,1.74,0,0,0,1,.45,2.14,2.14,0,0,0,.66-.17,3.45,3.45,0,0,1,.77-.18c.56,0,1.3,1,1.51,1.62a1.41,1.41,0,0,0-.32-.17,2,2,0,0,0-.63-.19h0a2.26,2.26,0,0,0-1.32.3,3.06,3.06,0,0,1-1.06.34c-.55,0-1-.28-1.54-1l-.07-.08a1,1,0,0,0-.15-.2l1.14.08Zm7.77-3.65c-.14.19-.17.56-.47.64a.32.32,0,0,1,0-.19,1.07,1.07,0,0,1,1-1c.05,0,0,0,.09,0-.2.18-.45.26-.6.47m.5.48v.19c0,.26-.3.62-.3,1a.38.38,0,0,1-.23-.31c0-.28.15-.76.53-.82m-1-1a.17.17,0,0,1,0-.14c0-.56.8-.72,1-.76h.09a3.33,3.33,0,0,1-1.08.89m0-2.34h-.08s0-.08,0-.13c0-.28.77-.36.8-.36s.23,0,.23.14-.8.31-.9.35m.19.27c.08,0,.5,0,.5.17s-.07.23-.15.24a1.94,1.94,0,0,0-1,.27c0-.06-.09-.1-.09-.15,0-.37.56-.53.74-.53m0,.88a2,2,0,0,1,.33.08c-.31.2-.64.39-1,.56a.2.2,0,0,1-.19-.2c0-.26.7-.44.82-.44m-.81,1.32a4.26,4.26,0,0,0-.25.93c0,.2,0,.2.21.52a.7.7,0,0,1-.25,0c-.33,0-.31-.38-.31-.53a1.39,1.39,0,0,1,.6-1m-1,1.16c0,.23,0,.13.14.42l-.22,0c-.25,0-.32-.2-.32-.38a1.34,1.34,0,0,1,.77-1.05l.09,0c-.23.37-.46.63-.46,1m-.2,1.1a.83.83,0,0,0,.21-.06l.23-.07.11,0a.72.72,0,0,0,.44-.2.24.24,0,0,0,.14,0,.34.34,0,0,0,.25-.13l0,0a.78.78,0,0,0,.27.09.51.51,0,0,0,.34-.17l0,0v.21c0,.4,1,1.08,1.2,1.08h0a.34.34,0,0,0,.28-.11c.1.19.19.35.32.37a2.53,2.53,0,0,0-.09.55c0,.37,0,1,.38,1.24a6.74,6.74,0,0,0-.38.87v0a5.38,5.38,0,0,0-1.44-.26,7.51,7.51,0,0,0-2.15.41,6.3,6.3,0,0,1-1.61.32,2.5,2.5,0,0,0,.36-1c0-.7-1-2.17-1.78-2.17a3,3,0,0,0-.84.2,2,2,0,0,1-.6.15,1.62,1.62,0,0,1-.75-.32h0a1.68,1.68,0,0,0,1.41-.48.6.6,0,0,0,.08-.08l.07,0a1.27,1.27,0,0,0,.28.06,2,2,0,0,0,1.14-.57l.11-.09a.85.85,0,0,1,.22,0,1,1,0,0,0,.3-.07,4,4,0,0,0,.34-.23,2.78,2.78,0,0,1,.51-.33c0,.09.07.18.1.27s.12.5.5.5M298,41.84a1.22,1.22,0,0,1,.42.89c0,.17-.08.6-.34.68a.62.62,0,0,1-.07-.23c0-.06.12-.57.12-.62s-.1-.46-.13-.72m-.12-1s.1-.1.16-.1c.43,0,.72.68.72.89a.76.76,0,0,1,0,.16s0,0-.06,0a.2.2,0,0,1-.14-.06c-.24-.35-.65-.92-.65-.92m0,2.92a.3.3,0,0,0,.21.05h0a.54.54,0,0,0,.34-.12.29.29,0,0,0,.28.14c.3,0,.45-.2.66-.48l.06-.08a.33.33,0,0,0,.33,0,.79.79,0,0,0,.26-.6l.35,0a.54.54,0,0,0,.45-.16.42.42,0,0,0,.25.12.21.21,0,0,0,.11,0,1.27,1.27,0,0,0,.91.5.65.65,0,0,0,.49-.23.93.93,0,0,0,.17-.56.22.22,0,0,0,.15-.06,6.68,6.68,0,0,0,2.4,1.4h0a.31.31,0,0,0,.26-.09,2.7,2.7,0,0,0,1.25.66h-.17L305.58,44a1.1,1.1,0,0,0-.93.29,2.88,2.88,0,0,0-1,1.8,2,2,0,0,0,.48,1.1h-.06a8.92,8.92,0,0,1-1.67-.37,6.77,6.77,0,0,0-2-.4,3.63,3.63,0,0,0-.73.08h-.09l-.1,0a.45.45,0,0,0-.07-.18l-.07-.13-.09.12-.06.06a.41.41,0,0,0-.15.25l-.1,0-.09,0-.1,0v-.12a.43.43,0,0,0,0-.11v-.25l-.16.14c-.23.19-.3.28-.3.37a.47.47,0,0,0,0,.16h0l-.1,0h0a.39.39,0,0,0-.12-.31l-.09-.07-.08.12c-.05.08-.1.15-.14.23a3.88,3.88,0,0,1-.26-.31l0-.11a2.07,2.07,0,0,0,.11-.55,1.93,1.93,0,0,0-.16-.74,1.15,1.15,0,0,1-.13-.48,2,2,0,0,1,.15-.6.78.78,0,0,1,.05-.14l.12,0a.36.36,0,0,0,.34-.23m1.69-5.6c.22,0,1,.12,1,.6a.44.44,0,0,1-.1.19,1.46,1.46,0,0,0-.58-.33c-.12,0-.3,0-.4-.08s-.06-.22-.1-.3a.75.75,0,0,1,.24-.08m-.2-.35c0-.06.05-.09.05-.16h.23a.89.89,0,0,1,.73.35v.15h-.14c-.22,0-.54-.23-.84-.25,0,0,0,0,0-.09m1.63,3a1.18,1.18,0,0,1,.6,1.06.42.42,0,0,1-.21.42h-.11l0,0,0,0h0a.36.36,0,0,1,0-.11s.06-.46.06-.52a3.17,3.17,0,0,0-.24-.85m.31-.67c-.24,0-.14-.14-.54-.37s-.63-.25-.95-.4a.78.78,0,0,1,.37-.09c.37,0,1.14.22,1.32.75-.13,0-.14.11-.2.11m-.47,1.36c0,.12-.06.39-.18.39s-.08,0-.13-.06c0-.28-.32-.78-.32-.92s0-.08.08-.13c.41.2.55.4.55.72m-1.42-2c.33,0,1.24.4,1.24.93,0,.12,0,.2-.11.2a5.54,5.54,0,0,1-1.24-1.13Zm.59,1.57a.66.66,0,0,1-.17.52c-.29-.23-.19-.59-.28-.9,0-.16-.3-.43-.39-.66h.1c.45,0,.74.92.74,1m-.4,1.33c0,.15,0,.3-.2.34-.06-.3-.3-.64-.3-.79a.19.19,0,0,1,.05-.13.6.6,0,0,1,.45.59m-.38-1.21a1.54,1.54,0,0,1-.12.48,5.89,5.89,0,0,1-.33-1.18.68.68,0,0,1,.45.7M299,42.26c.15,0,.29.21.29.34v.49a.28.28,0,0,1-.13,0c-.18,0-.26-.59-.31-.8a.2.2,0,0,1,.15-.06m2.74-1h.09a1.25,1.25,0,0,1,.58,1c0,.18-.06.47-.3.47s-.13,0-.28-.11a.64.64,0,0,0,.21-.54,2.48,2.48,0,0,0-.29-.87m7,3.64H309c-.58.9-1.17,1.32-1.81,1.32a3.7,3.7,0,0,1-1.46-.4l-.2-.08h0a2.07,2.07,0,0,0-.47-.18h0a1.53,1.53,0,0,0-.73.16,1.92,1.92,0,0,0-.38.25,2.85,2.85,0,0,1,.9-1.43.83.83,0,0,1,.75-.24l1.06.21.09,0,.14,0H307a1.42,1.42,0,0,0,.4-.12,2.6,2.6,0,0,0,.63-.69c0,.2,0,.44,0,.53a.78.78,0,0,0,0,.14l0,.08a2.8,2.8,0,0,1-.06.28l0,.14Zm-.63-.23,0-.07h0s0-.07,0-.1l.12,0a2.77,2.77,0,0,0,.41.12Zm1,.21h0l.05.05.12-.18,0,0a2.54,2.54,0,0,0,1.24.44,1.12,1.12,0,0,0,.42-.18,5.1,5.1,0,0,1,.6.29h0l-.08,0a2.74,2.74,0,0,1-.4.15,5.6,5.6,0,0,0-1.39.68.74.74,0,0,0-.24.44.82.82,0,0,1-.28.54c-1,.78-2.05,1.62-3,2.44L304.5,50.9v-.17h0l-.08-1.09a1.38,1.38,0,0,0,.94-.43,3.83,3.83,0,0,0,.95-2.36c0-.31-.29-.59-.61-.84a4,4,0,0,0,1.45.37c.73,0,1.4-.49,2-1.5Zm-8.39,19.88.06.42-.44,0-1.43.83.44.32.09.48-.18.07-.29-.56-1-.81-.86.41-2.39.08-.88-.62-2-.44-.93-.68-1.08-1.65h12.9a8.66,8.66,0,0,1-.52,1.06,11.65,11.65,0,0,1-.8,1.18Zm.5.27-.22.28,0-.3ZM289,64.84h-.31c-.22-.4-.44-.84-.65-1.31h1.13l.1.17c.11.18.22.37.34.55a2.44,2.44,0,0,1-.61.59m.75-.4.28.4h-.66a3.59,3.59,0,0,0,.38-.4m-1.81-1.13c-.18-.41-.36-.86-.52-1.31h1.08a10.75,10.75,0,0,0,.56,1.31Zm-1.34-3.62c0,.1,0,.19.05.29-.19-.1-.36-.18-.53-.29Zm-.85-.22-.32-.2a4.62,4.62,0,0,1-.41-.34h1.46c0,.19.06.36.08.54Zm.76-2.07h.81c.05.32.14.77.26,1.31h-.92c-.06-.43-.1-.87-.15-1.31m-.55-10.13a3.82,3.82,0,0,0,1,.11h.25a6.77,6.77,0,0,0,1.68-.34,8,8,0,0,1,2.1-.4,5.4,5.4,0,0,1,1.45.28h0a3.5,3.5,0,0,1,1.28.8c.05.22.27,1.33.61,1.33.18,0,.13-.27.13-.27a3.23,3.23,0,0,0-.1-.61.43.43,0,0,1,.19.13.13.13,0,0,0-.06.12,1.76,1.76,0,0,0,.29.6c-.13.07-.28.12-.42.19-.24-.1-.72-.31-1-.4a5,5,0,0,0-1.27-.19H292a2.63,2.63,0,0,0-.56,0,5,5,0,0,0-1.68.21,2.13,2.13,0,0,0-.28.09c-.21.08-.5.18-.9.29a9.06,9.06,0,0,1-1.15.25h0l-.14,0a1.23,1.23,0,0,1-1.14-.3,3.32,3.32,0,0,1-1-2.23s0-.06,0-.09a1.54,1.54,0,0,0,.74.43m-.66-.65a4.81,4.81,0,0,1,.48-.42,6,6,0,0,0,.6-.53,2.69,2.69,0,0,1,.55.17,1.38,1.38,0,0,1,.45.27h0v0a2.41,2.41,0,0,1-.4,1,3.59,3.59,0,0,1-1-.1,1.47,1.47,0,0,1-.71-.44m7.28-4.46a1.08,1.08,0,0,1,.18.74,1.46,1.46,0,0,1-.17.87h0a2.91,2.91,0,0,1-.16-.82,4.36,4.36,0,0,1,.16-.8m-.17-.07h-.09c0-.09,0-.22,0-.27a3.31,3.31,0,0,1,.4-1.34.75.75,0,0,1,.07.33,2.9,2.9,0,0,1-.36,1.28m.41,1.86a1.77,1.77,0,0,1,.22,1s0,.38-.06.58a0,0,0,0,0,0,0,.58.58,0,0,1-.18-.23,4.8,4.8,0,0,1-.09-.75,1.14,1.14,0,0,1,.13-.63m.52-1.18v.37c-.36-.31-.36-.78-.49-1.16l0-.36a1.89,1.89,0,0,1,.46,1.15m-.39-2.46a2.07,2.07,0,0,1,.1-.43,1.64,1.64,0,0,1,.24,1,1.39,1.39,0,0,1-.08.57,2.14,2.14,0,0,1-.26-1.13m2.6,5.75c-.12-.07-.19-.72-.19-.92a2.2,2.2,0,0,1,.15-.71,3.89,3.89,0,0,1,.18,1,1.08,1.08,0,0,1-.14.68m.17,0c.1,0,.16.47.16.6a1.86,1.86,0,0,1-.25,1,2.54,2.54,0,0,1-.1-.55,3.08,3.08,0,0,1,.2-1.08m.38,2.77h0l0,0h0l.08,0c.23.15.48.28.73.41h0l0,0h-2.17a2.53,2.53,0,0,0,.33-.16l1-.3M296,47a.75.75,0,0,1,.09-.29,2.13,2.13,0,0,1,.31,1.21,2.19,2.19,0,0,1,0,.36A2.53,2.53,0,0,1,296,47m3.17,1.9,0,0,.13,0a1.67,1.67,0,0,1,.31,0h.21a3.68,3.68,0,0,1,1.36.16c.11,0,.4.15.67.27a4.18,4.18,0,0,1-2,.48,4.71,4.71,0,0,1-.75,0l-.2,0a6.33,6.33,0,0,1-.78-.17l-.14,0c-.15,0-.3-.11-.45-.16l1-.33h0l.24,0a.82.82,0,0,0,.37.29h.06l0,0s0-.09,0-.11a.3.3,0,0,0,0-.16m-1.68.62h0l.29.1.07,0c.19.06.39.12.58.16h.07a5.62,5.62,0,0,0,1.3.12h0a4.56,4.56,0,0,0,1.89-.41H303c.48.07,1,.13,1.22.14l0,.47h-7.5l.24-.4-.67.1-.19-.31Zm6.83,1.44h-2a.65.65,0,0,0-.48-.21h-.08a.59.59,0,0,0-.41.21h-4.33a1.56,1.56,0,0,0-.31-.6h7.46l0,.42h0s0,.08,0,.19m-17,.84c0-.22,0-.42,0-.59v0H289a.57.57,0,0,0-.06.31.61.61,0,0,0,.12.27.08.08,0,0,0,0,0ZM289,52a1.4,1.4,0,0,0-.1.61h-1.64c0-.18,0-.39,0-.61Zm.92-2.5a4.39,4.39,0,0,0,1.59.4h1a6.84,6.84,0,0,0,1.73-.42h.48l.13.59,0,0h-7.45a1.27,1.27,0,0,0,0-.22l0-.2c.24,0,.57-.1.9-.19Zm-.85-.22.24-.08.16.08Zm2.39.4a4.74,4.74,0,0,1-1.86-.57,4.85,4.85,0,0,1,1.85-.29l.41,0a5.38,5.38,0,0,1-.4.84m.6,0h-.27v-.15h0a.54.54,0,0,1,.27.17m.31-.15h.21a.69.69,0,0,1,.07.15h-.23s0-.09-.05-.15m.47-.1a.37.37,0,0,1,.18-.08s.11.12.19.23l-.25.05a1.32,1.32,0,0,0-.12-.2m.53.1c0-.17.09-.31.12-.46.24.08.39.1.39.26a.09.09,0,0,1,0,.05l-.48.15m2.3,1a.28.28,0,0,1-.27.3.24.24,0,0,1-.17-.07,1.43,1.43,0,0,1,.23-.52.31.31,0,0,1,.22.29m-.15-.73,0-.05,0,0h-.07m.94.5a1.35,1.35,0,0,1,.2,1.9,1.42,1.42,0,0,1-.62.43,2,2,0,0,0,.4-1.3,1.92,1.92,0,0,0-.37-1.25h0a.94.94,0,0,1,.22.12.38.38,0,0,1,.15.09m0-.31.21,0-.07.13,0,0h0l-.1-.06m.73,1.15h4.09a.29.29,0,0,0,0,.09.79.79,0,0,0-.42.25.72.72,0,0,0-.15.27h-3.54a1.84,1.84,0,0,0,.06-.41,1.23,1.23,0,0,0,0-.2m4.65.36a.89.89,0,0,1,.31.19l.05,0a.79.79,0,0,1,.2.31,1.21,1.21,0,0,1,.06.75,1,1,0,0,1-.11.17l0-.08a1.63,1.63,0,0,0-.11-.23c0-.06-.06-.1-.1-.15a1.38,1.38,0,0,0-.3-.34,1.11,1.11,0,0,0-.74-.29h-.17a.54.54,0,0,1,.11-.27.73.73,0,0,1,.85-.12m-.37-.3a.38.38,0,0,1,.36-.28.49.49,0,0,1,.44.18.42.42,0,0,1,.1.3.83.83,0,0,1,0,.15,1,1,0,0,0-.42-.26l-.27-.07h-.17m0,2.56v-.1a1.16,1.16,0,0,0-.07-.31,1.74,1.74,0,0,0-.14-.38.9.9,0,0,0,0-.09,1.13,1.13,0,0,0-.12-.21L301,52.6l-.13-.15-.08-.07a.91.91,0,0,0-.16-.11l-.06,0a.7.7,0,0,1,.2-.08.75.75,0,0,1,.26,0,1,1,0,0,1,.61.24,2.35,2.35,0,0,1,.26.29s0,0,.05.06a2.44,2.44,0,0,1,.14.28.19.19,0,0,1,0,.07,1.24,1.24,0,0,1-.2,1.09.75.75,0,0,1-.55.3s0,0,0,0l0-.1c0-.06,0-.13,0-.19a.38.38,0,0,1,0-.1,1.48,1.48,0,0,0,0-.21M298,55a.08.08,0,0,0,0-.05s0,0,0,0a.19.19,0,0,1,0-.07l0,0v0l.05-.06,0,0v0l.08,0h0v0a.45.45,0,0,1,.57.28.51.51,0,0,1,0,.17.48.48,0,0,1-.07.23l0,0a.35.35,0,0,1-.17.15l-.05,0-.14,0a.45.45,0,0,1-.35-.18.36.36,0,0,0,0-.11A.6.6,0,0,0,298,55m-.06-.45a.08.08,0,0,0,0,0h0a1.9,1.9,0,0,1-.13-.67c0-.73.41-1.32.91-1.32a1,1,0,0,1,.83.79.8.8,0,0,0-.55-.32c-.5,0-1,.45-1,1.1a1.51,1.51,0,0,0,0,.37M296,54a9.52,9.52,0,0,1,0,1.31l-.21-.18c0-.11,0-.41.05-.74h0v-.64a2.31,2.31,0,0,0-.26-.92h0v0a2.06,2.06,0,0,1,.34.87h.2a2.68,2.68,0,0,1,.39-.86,3.29,3.29,0,0,1,.69-.54,3.62,3.62,0,0,1-.45,1,1.51,1.51,0,0,1-.73.48l-.07,0Zm-.8,1c0-.18-.18-.3-.44-.35v-.13h0a.16.16,0,0,0,0-.09h.89c0,.27,0,.49,0,.61h-.36v0Zm-.62-.08a.21.21,0,0,0,.1-.06c.2,0,.31.1.31.14a.3.3,0,0,1-.22.12h-.18V55m-.32-3.21h-3.37a.72.72,0,0,0-.15-.27.79.79,0,0,0-.42-.25.29.29,0,0,0,0-.09h3.92a1.49,1.49,0,0,0,0,.21,1.39,1.39,0,0,0,.06.4m1.05-1.68h0a1.9,1.9,0,0,0-.38,1.26,1.93,1.93,0,0,0,.4,1.3,1.36,1.36,0,0,1-.86-1.71,1.34,1.34,0,0,1,.84-.85m-.3-.25.14.07h0l0,0h0Zm.54,1.19.07,0a.53.53,0,0,0,.35.21.3.3,0,0,1-.2.5h0a.28.28,0,0,1-.26-.19.54.54,0,0,0,.08-.28.51.51,0,0,0,0-.2m.81,1.79a.33.33,0,0,1,0,.46.32.32,0,0,1-.46,0,.31.31,0,0,1-.07-.4,1.17,1.17,0,0,0,.32-.09Zm-.84-.28a.51.51,0,0,0,.26-.22.53.53,0,0,0,.13.13,1,1,0,0,1-.24.23.5.5,0,0,1-.15-.14m0,.9h-.17a2.43,2.43,0,0,0-.2-.25,2.69,2.69,0,0,0-.45-.37h.42a.58.58,0,0,0,.17.06,2.75,2.75,0,0,1,.23.56m.34-1.38h-.05a.59.59,0,0,0,0-.14.49.49,0,0,0,.33-.23h0a1.8,1.8,0,0,1-.16.56.28.28,0,0,1-.12-.2m-.32-.17a.36.36,0,0,1,.07.17.3.3,0,0,1-.27.3,1.94,1.94,0,0,1-.22-.61.25.25,0,0,1,.36,0,.2.2,0,0,1,.06.13m-.44-.36c0-.06,0-.12,0-.18s0-.23,0-.34a.55.55,0,0,0,.17,0,.28.28,0,0,1,.06.18.3.3,0,0,1-.24.29m-.36,1.07h-.5l-.08,0-.14,0v.06h-.22a1.43,1.43,0,0,0-1-.6h1.46a1.47,1.47,0,0,0,.45.6m-.5.84h-.07a2.16,2.16,0,0,0-.21-.62h.08a2,2,0,0,0,.2.62M292.52,52a1.34,1.34,0,0,0-.51.17,1.43,1.43,0,0,0-.46-.07,1.2,1.2,0,0,0-.38,0,1,1,0,0,0-.24-.15Zm-1.36.4a.87.87,0,0,1,.39-.07.83.83,0,0,1,.22,0l-.08.09-.14.15a.55.55,0,0,0-.09.14,1.28,1.28,0,0,0-.11.2l-.06.14-.09.26a.5.5,0,0,1,0,.12,1.84,1.84,0,0,0,0,.41,2.34,2.34,0,0,0,0,.38.94.94,0,0,0,0,.16l.06.21a1,1,0,0,0,.08.18.46.46,0,0,1,.07.14l.12.17.09.1s0,.06.06.08h-.1a1.84,1.84,0,0,1-1.15-.74v0a1.23,1.23,0,0,1-.16-.5v-.13a.61.61,0,0,1,0-.14,1.36,1.36,0,0,1,.06-.29,2.44,2.44,0,0,1,.19-.44l.06-.11a1,1,0,0,1,.18-.22.28.28,0,0,1,.09-.1,2,2,0,0,1,.24-.16l.06,0m.38,2.29a.36.36,0,0,0,0-.09,1.31,1.31,0,0,1-.09-.28.29.29,0,0,1,0-.09,1.72,1.72,0,0,1,0-.39,1.87,1.87,0,0,1,0-.4.61.61,0,0,1,0-.11,1.48,1.48,0,0,1,.1-.27l0-.09a1.21,1.21,0,0,1,.2-.3.17.17,0,0,1,.06-.06,1,1,0,0,1,.19-.17,1.09,1.09,0,0,1,.68-.23A1.5,1.5,0,0,1,294,53.84a2.34,2.34,0,0,1,0,.38l0,0,0-.32c0-.84-.5-1.53-1.12-1.53s-1.11.69-1.11,1.53a1.45,1.45,0,0,0,.94,1.51v0a1.1,1.1,0,0,1-.72-.26,1,1,0,0,1-.23-.23l0,0a2.61,2.61,0,0,1-.17-.28m2-1a.75.75,0,0,0-.55-.2c-.36,0-.61.16-.61.37h0V54a.15.15,0,0,0,0,.09s0,0-.05,0l0,0a.35.35,0,0,0-.06.17v.16a.5.5,0,0,0,0,.13l0,0,0,0V55a1.55,1.55,0,0,1-.37-1c0-.73.41-1.32.91-1.32s.85.52.9,1.18a.66.66,0,0,0-.27-.09m.22.34,0,0,0,0,0,0a.16.16,0,0,1-.09,0h0a.28.28,0,0,0,0-.13v-.09c.1,0,.16.09.16.11M293,54l-.17,0h0c-.14,0-.22-.09-.22-.12s.14-.14.4-.14.38.09.39.14h0s-.14.14-.4.14m.28.35s-.15.13-.39.13-.4-.1-.4-.13l0,0,0,0h0a.7.7,0,0,0,.2.08.65.65,0,0,0,.24,0,.69.69,0,0,0,.25,0h0m-.56.55-.11-.06h0l.27,0h.09l0,0h0v0l-.05,0a.57.57,0,0,1-.22,0h0m.31.25a1.31,1.31,0,0,1,.27-.06h.09v.08a.18.18,0,0,0,0,.13l0,0h0l-.13,0c-.26,0-.4-.1-.4-.14s0,0,.1-.08m.41-.5h0a.36.36,0,0,0,0-.09h.06l.1,0,.08,0,.08,0h0s.05,0,.06.05h0s0,0,0,0-.13.13-.4.13h-.06m.23.38.14,0,.08,0,.1-.07,0,0,.21,0,.06,0h0v0s0,0,0,0l0,0h0a.48.48,0,0,1-.4.14l-.14,0h0a.44.44,0,0,1-.19-.07l.05,0m.68-.33h0l-.06,0h-.15v-.13a.29.29,0,0,0,0-.09h.08c.24,0,.37.11.38.15h0l0,0-.06,0-.11,0m.1-.42-.23-.05a2.58,2.58,0,0,0,0-.39c0-.06,0-.12,0-.18h.17l.15.2a1.46,1.46,0,0,0,.53.42Zm.28-.56a1.89,1.89,0,0,1-.41-.87,2.35,2.35,0,0,1,.75.5,5.64,5.64,0,0,1,.58.78l0,.09a1.51,1.51,0,0,1-1-.5m.85-.06h0v.06a.21.21,0,0,0,0-.06m2-.84a2.27,2.27,0,0,0-.21.62H297a3.46,3.46,0,0,0,.28-.62Zm-.13-.21.11-.4.05-.21h1.1a1.45,1.45,0,0,0-1,.61Zm-.1,1.39a.66.66,0,0,0-.27-.06.68.68,0,0,0-.58.33h-.24V54.1a1.89,1.89,0,0,0,.67-.45h.42c0,.06,0,.12,0,.18s0,.11,0,.16m-1.08.49h.17s0,.05,0,.07a.56.56,0,0,0,.2.45s0,.06,0,.1h-.36c0-.19,0-.4,0-.62m.36.07a.44.44,0,0,1,.51-.38.46.46,0,0,1,.39.38v0a.63.63,0,0,0-.19,0,.71.71,0,0,0-.32.07l-.08,0a.66.66,0,0,0-.17.12s0,0,0,0a.4.4,0,0,1-.1-.26m.25.44a.47.47,0,0,1,.15-.13l.05,0a.59.59,0,0,1,.26-.07.54.54,0,0,1,.22.05h0l.07,0a.45.45,0,0,1,.13.11.15.15,0,0,1,.05.06l0,0a.35.35,0,0,1,0,.17.56.56,0,0,1-1.09,0,.43.43,0,0,1,.09-.23m1.55-.65a.45.45,0,0,0-.2,0h-.06v-.2c.05-.53.41-.95.8-.91a.86.86,0,0,1,.61.93.25.25,0,0,1,0,.08v0a1.21,1.21,0,0,1-.08.25.37.37,0,0,1-.05.11.57.57,0,0,1-.08.13,1.25,1.25,0,0,1-.08.12,1,1,0,0,1-.19.17V55a.67.67,0,0,0-.65-.7m.54,1.06a.85.85,0,0,0,.25-.13l0,0a1,1,0,0,0,.23-.24h0a1.66,1.66,0,0,0,.3-.74h0v0a1.66,1.66,0,0,0,0-.32c0-.85-.5-1.53-1.12-1.53s-1.12.68-1.12,1.53a2.89,2.89,0,0,0,0,.29.35.35,0,0,0,0-.08c0-.1,0-.2,0-.3a1.51,1.51,0,0,1,1.33-1.64,1.16,1.16,0,0,1,.67.24.78.78,0,0,1,.2.16l.06.06a2.23,2.23,0,0,1,.2.3l0,.08a1.11,1.11,0,0,1,.1.29l0,.1a2.87,2.87,0,0,1,.05.41,2.47,2.47,0,0,1-.05.38.3.3,0,0,1,0,.1,1.43,1.43,0,0,1-.09.27,1,1,0,0,0,0,.1,1.67,1.67,0,0,1-.18.28l-.06.07a1.29,1.29,0,0,1-.16.17,1.27,1.27,0,0,1-.68.27s0,0,0-.06M299,52h1.58a.87.87,0,0,0-.23.16,1.32,1.32,0,0,0-.39-.06,1.76,1.76,0,0,0-.45.07A1.34,1.34,0,0,0,299,52m.91,3.17,0,0a1.24,1.24,0,0,0,.17-.23l0,0a2.36,2.36,0,0,0,.12-.28l0-.1a1.83,1.83,0,0,0,.06-.25,1.58,1.58,0,0,0,0-.38,2.71,2.71,0,0,0,0-.4c0-.05,0-.09,0-.14a2.17,2.17,0,0,0-.07-.24l-.07-.15a1.62,1.62,0,0,0-.1-.18l-.1-.15-.12-.14-.09-.1h.21a1,1,0,0,1,.39.07l.07,0,.23.14a.52.52,0,0,0,.11.1c.05.07.11.14.16.22l.07.12a1.85,1.85,0,0,1,.18.44,2.21,2.21,0,0,1,.07.3v.08a.6.6,0,0,1,0,.19,1.62,1.62,0,0,1,0,.2.13.13,0,0,1,0,.06l0,.1a.61.61,0,0,1-.07.14,1.74,1.74,0,0,1-1.15.75h-.09l.07-.09M297.49,52l-.17.08a4.12,4.12,0,0,0-.78.53h0A1.54,1.54,0,0,0,297,52Zm-1.55-2.13.1-.08.09.14a.6.6,0,0,0-.19-.06m-.2-.11-.18-.23H296Zm-.11.32a1.22,1.22,0,0,1,.5.91.25.25,0,0,1-.35,0,.2.2,0,0,1,0-.08.66.66,0,0,0,.09-.27.54.54,0,0,0-.27-.46.18.18,0,0,1,.07,0m-.37-.3-.53-.25h.68Zm-.73.59a1.66,1.66,0,0,0-.32.6h-4.08a.56.56,0,0,0-.41-.22h-.08a.68.68,0,0,0-.48.22h-1.89c0-.12,0-.3,0-.6Zm-4.47.9H290l-.1,0a1.31,1.31,0,0,0-.27.06,1.16,1.16,0,0,0-.41.25.34.34,0,0,1,0-.14.38.38,0,0,1,.1-.29.42.42,0,0,1,.38-.19h.06a.37.37,0,0,1,.36.29m-.93.84a1,1,0,0,1,.21-.32s0,0,0,0a1,1,0,0,1,.53-.25h.17a.72.72,0,0,1,.46.2.66.66,0,0,1,.12.27h-.18a1.06,1.06,0,0,0-.75.29,2,2,0,0,0-.31.34l-.07.12a1.66,1.66,0,0,0-.13.27s0,0,0,.06a.61.61,0,0,1-.12-.16,1.23,1.23,0,0,1,.06-.76m.26,1s0-.06,0-.09a1.51,1.51,0,0,1,.15-.28l0,0a1.53,1.53,0,0,1,.27-.3.9.9,0,0,1,.61-.24.53.53,0,0,1,.25.05.5.5,0,0,1,.2.08l0,0a.8.8,0,0,0-.19.13l-.07.07a.64.64,0,0,0-.13.15.73.73,0,0,0-.08.09l-.1.18a1.27,1.27,0,0,1-.07.12c-.05.12-.1.25-.14.38a1.55,1.55,0,0,0-.06.31.28.28,0,0,1,0,.09V54a.28.28,0,0,0,0,.09,1.29,1.29,0,0,0,0,.19l0,.11a.06.06,0,0,1,0,0,.75.75,0,0,1-.55-.29,1.26,1.26,0,0,1-.2-1.08m.25,1.42a1.1,1.1,0,0,0,.63.18,1.63,1.63,0,0,0,.43.44h-3.47c0-.2,0-.42,0-.62Zm1.43.85h0a2.6,2.6,0,0,0,.47.16h.13l.24,0a1.27,1.27,0,0,0,.75.25l.22,0a.85.85,0,0,0,.38.09,1.17,1.17,0,0,0,.37-.08.56.56,0,0,0,.5.25h-6.86c0-.19,0-.4,0-.61Zm3,.21h0l.17,0,.12,0-.09,0-.17,0m.78,0v-.06a.41.41,0,0,0,.3-.21h.46l.53.44,0-.19s0-.11,0-.25h.36a.73.73,0,0,0,.74.58.78.78,0,0,0,.65-.35.63.63,0,0,0,.44.18.58.58,0,0,0,.26-.06l.18,0a1.3,1.3,0,0,0,.76-.25l.23,0h.14a2.51,2.51,0,0,0,.46-.16h3.89c0,.21,0,.41,0,.6h-9.93c.31,0,.53-.15.53-.35m5.92-.48a1.67,1.67,0,0,0,.44-.44,1.1,1.1,0,0,0,.63-.18h2.5l0,.62Zm1.3-.83a1.55,1.55,0,0,0,.26-.62h2c0,.19,0,.4,0,.62Zm.28-.84a.82.82,0,0,0,0-.22.63.63,0,0,0,.26-.3l0-.09h1.76v.61Zm.3-.83a1.6,1.6,0,0,0-.1-.61h1.8c0,.22,0,.44,0,.61Zm-.21-.83a.08.08,0,0,1,0,0,.85.85,0,0,0,.11-.26.63.63,0,0,0-.05-.31h1.82c0,.18,0,.38,0,.61Zm-7.24-7.3a4.69,4.69,0,0,1-.29-1.23,1,1,0,0,1,.08-.38,2.17,2.17,0,0,1,.3,1.22.68.68,0,0,1-.09.39M295,48.9l-.24.12a1.46,1.46,0,0,1-.28-.52,1.37,1.37,0,0,1,.52.4m-.29-6c-.3-.14-.53-1.06-.53-1.36a.57.57,0,0,1,0-.18,2.18,2.18,0,0,1,.53,1.3.51.51,0,0,1,0,.24m-.07,5V48h-.08c-.22,0-.86-1.06-.86-1.14v-.14a4,4,0,0,1,.94,1.15m-1.44-2.79a3,3,0,0,1,.72,1.25,3.2,3.2,0,0,1-.72-1.25m.24,1.75v.4a2.06,2.06,0,0,1-.39-1.1l0-.37a2.89,2.89,0,0,1,.36,1.07m.26.55a2.77,2.77,0,0,1,.58,1.28V49c-.46-.08-.5-.85-.62-1.28Zm.33-5.87s0,0-.06,0c-.27,0-.61-1.06-.65-1.35v-.13c.21,0,.71,1.09.71,1.35Zm-.53,3.06v.21a2.4,2.4,0,0,1-.66-1.35c0-.05,0-.06,0-.12a3.45,3.45,0,0,1,.62,1.26m-6.35,8.31v-.06h1.68a.32.32,0,0,0,0,.09.68.68,0,0,0,.26.3,1.64,1.64,0,0,0,0,.22h-1.95V52.9m2,.78a1.38,1.38,0,0,0,.26.61h-2.21c0-.22,0-.42,0-.61ZM287.54,59c.09.41.2.85.32,1.31h-.71a2.63,2.63,0,0,1-.35-.15c-.07-.37-.14-.76-.2-1.16Zm-.41,1.53a2.51,2.51,0,0,0,.85.2c.1.38.22.75.35,1.12h-1.08c0-.13-.08-.25-.13-.38s-.16-.6-.24-.94Zm.24-3.55c0-.2-.05-.47-.08-.76h16.9c0,.29-.05.56-.08.76a28.75,28.75,0,0,1-1.39,5.4h-6.61l.4-.56-.13-.6.45.08a1.4,1.4,0,0,0,.33.58.9.9,0,0,0,.59.18,1.74,1.74,0,0,0,.45-.06h0l.42-.38-.73-.7a18.65,18.65,0,0,0-.38-3.08c-.21-1.09-.61-1.6-1.24-1.6a2.7,2.7,0,0,0-1.09.32,5.54,5.54,0,0,0-1.43.84l0,0-.14,1.14.44,0-.47,1.77h.1a2.22,2.22,0,0,0,1.12.54l-.22.89.4.6h-6.23a28,28,0,0,1-1.38-5.4m7.82,3.24h.28l-.13,2.17h-.1l-.43-.65Zm-1.23.1c.24,0,.62-.08,1-.09l-.11.44a3,3,0,0,1-.9-.36m1.39-.32a14.73,14.73,0,0,0-1.47.1l.4-1.53a10.62,10.62,0,0,1,1.82-1.05c.47-.15.74.64.75.64l.2-.07s-.34-1-1-.78a10.59,10.59,0,0,0-1.88,1.07l-.31,0,.1-.82a5.86,5.86,0,0,1,1.35-.78,2.9,2.9,0,0,1,1-.3c.33,0,.8.15,1,1.42a17.87,17.87,0,0,1,.38,3.09v0l.62.6-.2.18a1.74,1.74,0,0,1-.39,0,.77.77,0,0,1-.46-.13,2.64,2.64,0,0,1-.44-1.19v0h0s-.22-.38-1-.47a2.92,2.92,0,0,0-.51,0M296.76,61l-.42-.07-.15-.68a1,1,0,0,1,.46.27c0,.07.05.26.11.48m-.92-.83.12,0,.33,1.5-.44.61h-.1l0-2.15h.11m6,4.27a2.83,2.83,0,0,0,.37.4h-.65a4.85,4.85,0,0,0,.28-.4m.13-.18.35-.55a1.62,1.62,0,0,1,.1-.18h1.13c-.22.47-.43.92-.64,1.31h-.33a2.58,2.58,0,0,1-.6-.59m.56-.94a11.72,11.72,0,0,0,.56-1.31h1.07c-.16.45-.33.9-.52,1.31Zm.64-1.53c.13-.37.25-.74.35-1.12a2.25,2.25,0,0,0,.85-.2h.25c-.08.35-.15.67-.24,1,0,.13-.09.25-.13.37Zm1.19-1.53h-.72c.12-.47.23-.91.32-1.32h.93c-.05.41-.12.8-.2,1.17l-.33.15M304,58.72c.12-.54.2-1,.26-1.31h.8c0,.44-.09.88-.15,1.31Zm1,1h.49c-.16.1-.35.2-.54.3l.05-.3m0-.22c0-.18.06-.35.08-.54h1.47c-.13.12-.27.23-.41.34s-.19.12-.32.2Zm.08-2.3h-.8a1.94,1.94,0,0,0,0-.22c0-.23.07-.54.1-.9.11,0,.34-.09.63-.18h.14c0,.41-.06.86-.11,1.3m.9-10.53a1.38,1.38,0,0,1-.81.53,3.28,3.28,0,0,1-.83,0l-.09-.13a2.22,2.22,0,0,1-.43-.87,2.54,2.54,0,0,1,.5-.36,1.28,1.28,0,0,1,.61-.12l.3.24a3,3,0,0,1,.75.67m-7.49.18-.06,0a.14.14,0,0,1,0-.06l.07-.07s0,.07,0,.1m-.61.25h0a.16.16,0,0,1,0-.07v.06m-.35.3a.57.57,0,0,1-.13.08l-.79-.52a.44.44,0,0,1,.26-.3Zm-.37.22c-.2.17-.41.3-.64.46,0-.28-.07-.63-.11-.92Zm.6-.23.18.19-.05-.26.11,0v0l.05,0a.05.05,0,0,1,0,0l.18-.07.29-.13.07,0c.1,0,.2-.07.29-.11h0l.18,0a2.38,2.38,0,0,1,.38-.11l.13,0a4.19,4.19,0,0,1,.7-.09,7.52,7.52,0,0,1,1.94.4,8.87,8.87,0,0,0,1.68.38h0s.27,0,.58,0a2.94,2.94,0,0,0,.66,0,1.64,1.64,0,0,0,.84-.49,3.59,3.59,0,0,1-.89,2.15,1.1,1.1,0,0,1-.9.36h-.12a14.87,14.87,0,0,1-2.09-.32c-.41-.19-.94-.38-1-.39h0a3.91,3.91,0,0,0-1.36-.16h0l-.36,0h-.07a5,5,0,0,0-.6.07l0,0a9.72,9.72,0,0,0-1.56.49,6.24,6.24,0,0,1-.87-.49h0a5.63,5.63,0,0,1,1.58-1.25m-1.43-.94s0,0-.06,0c-.27,0-.45-.91-.52-1.25l0-.24a3.59,3.59,0,0,1,.55,1.25Zm-.24-1.71a3.29,3.29,0,0,1-.71-1.28v-.12a3.36,3.36,0,0,1,.71,1.21Zm-.46-1.68h-.08a5,5,0,0,1-.8-1.17v-.12a3.14,3.14,0,0,1,.88,1.16Zm-.56-1.45H295c-.3,0-.9-.89-1-1.17.19.06,1,.83,1,1Zm-.9-1.39c-.06,0-1.11-.58-1.11-.84s1,.36,1.3.82Zm-1.62-.68a1.35,1.35,0,0,1-.2-.42c0-.21.4-.45.55-.45s.43,0,.43.25-.91.09-.78.62m.05.21c.16-.11,0-.39.27-.43v.12a2.78,2.78,0,0,1-.69,1.3s-.08,0-.08-.06a5.36,5.36,0,0,1,.38-1s.09,0,.12.08M282,44.58h0l.42-.23.53-.29a.58.58,0,0,1,0,.1c0,.16,0,.34.08.49Zm5.08,11.51c0,.35.05.66.08.9,0,0,0,.1,0,.22h-.8c0-.44-.08-.89-.11-1.3h.15a5,5,0,0,0,.63.18m-.77,2.11.06.56h-1.65l-.17-.2c0-.12,0-.24,0-.36Zm-1.67.77a4.07,4.07,0,0,0,.59.51l0,0h-.6c0-.18-.05-.37-.07-.55Zm1,.77c.32.2.65.38,1,.55h-1.8c0-.18-.07-.36-.1-.55Zm1.05.77c0,.2.09.37.13.55H285c-.05-.18-.09-.36-.13-.55Zm.19.77a1.68,1.68,0,0,0,.07.24c0,.1.07.19.1.3h-1.85l0-.1c0-.13-.08-.29-.12-.44Zm.25.76c.07.19.13.37.2.55h-1.85c-.07-.18-.13-.36-.2-.55Zm.29.77c.08.18.15.37.23.55h-1.86l-.22-.55Zm.33.76c.08.19.17.37.26.56h-1.87l-.26-.56Zm.36.76.28.55h-1.87c-.09-.18-.19-.35-.28-.55Zm.41.79h0a3.1,3.1,0,0,1-1.78.2l-.12-.21Zm-1.17.46a3,3,0,0,0,1.28-.26c.07.11.13.23.19.34h-1.88a.44.44,0,0,0-.06-.1,3.71,3.71,0,0,0,.47,0m1.61.29c.11.2.23.38.33.54h-1.9c-.1-.16-.21-.34-.32-.54Zm.47.76a3.66,3.66,0,0,0,.23.33c.05.08.1.14.14.21h-1.9l0-.06c-.09-.12-.2-.3-.33-.48Zm.39.2s-.09-.14-.14-.2h1.45c-.2.2-.52.49-.88.81l-.43-.6m-.28-.43c-.2-.31-.45-.71-.72-1.19l.19-.11h1.13c.34.43.7.87,1.09,1.3Zm-.15-2.78a8.66,8.66,0,0,1-.52-1.06h.64l1.18,1.81,1,.73,2,.43.9.65,1.33,0-1,.12-.32.31h-.54l-.36.5-.1.34-.52.11,0,0-.18.28a22.12,22.12,0,0,1-3.51-4.21m9.9,2.37,1.07-.63.52,0c-.38.48-.8,1-1.24,1.42l-.13-.66Zm2.1-.89h1.12l.2.12c-.27.46-.51.87-.72,1.18h-1.69c.39-.43.75-.87,1.09-1.3m.46,1.52-.14.2-.42.61c-.37-.32-.68-.61-.88-.81Zm-.12.55.15-.22c.06-.09.14-.2.22-.33H304c-.12.19-.23.36-.32.48l0,.07Zm.51-.77c.11-.16.22-.34.34-.54h1.89l-.33.54Zm.47-.76.18-.32a3.13,3.13,0,0,0,1.28.27,3.73,3.73,0,0,0,.47,0l0,.09Zm.29-.52h1.9l-.12.2a3,3,0,0,1-1.78-.19m.14-.25c.1-.17.19-.35.29-.55h1.86c-.09.2-.18.37-.28.55Zm.39-.76c.08-.18.17-.36.25-.55h1.87c-.09.19-.17.37-.26.55Zm.35-.77c.08-.17.16-.36.23-.54h1.85l-.22.54Zm.32-.76c.07-.18.13-.36.2-.55h1.84c-.06.19-.12.37-.19.55Zm.28-.77c0-.11.07-.2.1-.3s.05-.17.07-.24h1.83a4.38,4.38,0,0,1-.13.43l0,.11Zm.23-.76c.05-.18.09-.36.13-.56h1.82c0,.2-.08.38-.12.56Zm.2-.77a8.57,8.57,0,0,0,1-.56h.91c0,.19-.06.38-.1.56Zm1.32-.77.05,0a4.07,4.07,0,0,0,.59-.51h0c0,.18-.05.36-.08.55Zm.56-.76h-1.65c0-.19.05-.37.07-.56H307c0,.13,0,.25-.05.36l-.16.2m-1.56-3.14-.2.08h-.57c0-.18,0-.37,0-.55l.8-.57c0,.32,0,.67-.07,1m7.54-10.49a.31.31,0,0,1-.05.1h0l.08-.09m-15.69-7.44a1.18,1.18,0,0,1,.49-.94,16.9,16.9,0,0,1,2.9-.49,2.56,2.56,0,0,1,1.16.22c.35.18,8.21,4.93,8.21,6,0,0-.06.21-.06.27s1.85.81,1.85,1.17c0,.12-.23.13-.26.13-.24,0-1.35-.91-1.86-1.07h-.32a2.2,2.2,0,0,0,.2.23c.58.35,1.26,1.05,1.84,1.1a2.67,2.67,0,0,1,1.44.53.58.58,0,0,0-.18,0l-.47.21c-.63-.23-2.42-1.28-2.56-1.34a.13.13,0,0,0,0,.06c0,.42,1,.77,1.11.84a.3.3,0,0,1-.18.08,3.66,3.66,0,0,1-1-.37c-.12-.05-.27,0-.39,0a3.6,3.6,0,0,1-.81-.32c0-.13,0-.29,0-.42l0-.08c.22.11.35.23.53.23h.34s0,0,0,0-.47-.23-.51-.26c-.19-.13-.38-.33-.56-.47h-.14c0,.06.08.17.14.28l-.05.07-.08.11s0,0,0,0a3.39,3.39,0,0,1-.2.28l-.2,0c-.2,0-.08.17-.34.17-.45,0-1.35-.73-1.5-.73s-.26.11-.33.11c-.36,0-1-.35-1.08-.85-.08.15-.14.14-.2.14-.45,0-.72-.86-1.24-.83,0-.83-1-1-1-1.69a.19.19,0,0,1,.15-.19c.23,0,.53.39.72.39s.15,0,.15-.12-.22-.26-.22-.35a.21.21,0,0,1,.05-.13,9.86,9.86,0,0,0,1.34.67c.63.22,1.15,1.28,1.65,1.28.14,0,.1-.15.1-.16s0-.15,0-.23c.81.92,1.43,1.58,2.2,1.58.15,0,.3,0,.3-.14,0-.38-.63-.27-.69-.38.33-.56-1.26-.52-1.26-1.08a.21.21,0,0,1,.2-.21h0c.33,0,1.87,1.52,2.64,1.52.1,0,.18.05.18-.1,0-.68-1.16-.84-1.4-1a2.37,2.37,0,0,1-.95-.6l-.07-.09c-.21-.47-.07-1.18-.78-1.18-.1,0-.15,0-.15.13,0,.27.63.49.63.65a.57.57,0,0,1,0,.14c-.37-.26-.95-.9-1.36-.9-.06,0-.23,0-.23.14s.56.75.61.89c-.35-.09-.8-.06-1-.43-.34-.54-.95-1.33-1.43-1.33a.43.43,0,0,0-.23.09c.22.15.49.31.75.52v.1c-.58-.13-1.22-.35-1.82-.44-.1,0-.21-.13-.3-.24v-.09h.15c.21,0,.6.26.8.26a.39.39,0,0,0,.21-.06c-.05-.2-.38-.43-.43-.67h.11c.06,0,.46.16.51.16s.1-.06.1-.1c0-.2-.5-.45-.54-.48s.05-.09.1-.09c.47,0,1.8,1.24,2.26,1.24.06,0,.24,0,.24-.1,0-.52-1.13-.8-1.29-.89-.58-.33-1.12-.84-1.73-.84s-.09.81-.61.81c-.14,0-1-.21-1-.67,0-.18.31-.13.31-.39s-.39-.18-.41-.18c-.26,0-.34.53-.66.53-.11,0-.19,0-.37-.2.17-.12.52-.05.52-.35s-.07-.25-.2-.25-.9.62-1.08.62-.41-.1-.47-.1-.32.12-.32.25,0,.07.06.07h.54a.61.61,0,0,1,.2.09c0,.33.33.48.33.64s-.53,0-.53.3.76.14.76.49c0,.14-.46.23-.46.34s.27.29.27.44c0,.31-.61,0-.61.21,0,.06.17.28.17.34,0,.23-.34.31-.41.31s-.3,0-.34-.11A.52.52,0,0,0,298,40c0-.92-.95-1.47-.95-2.26m.52,4.4a1.21,1.21,0,0,1,.19.52c0,.14-.16.52-.34.52s-.09-.07-.14-.13c.1-.3.18-.61.29-.91m-1.17-2.32c-.06.07-.21.2-.22.3h0a.59.59,0,0,1,.28-.15c.6,0,.8.63.8,1.05a1.7,1.7,0,0,1-.28.9c-.05-.11-.09-.22-.13-.33-.09.12,0,.34,0,.46l-.06.07a2.11,2.11,0,0,1-.18-.27c0,.11,0,.35-.18.49a2.06,2.06,0,0,0-.12-.35c-.08.11-.06.35-.22.48,0-.15-.07-.3-.09-.45a1,1,0,0,1-.26.58c0-.17-.08-.34-.1-.48a.94.94,0,0,1-.1.28c-.12-.16-.26-.35-.44-.56.13-.13.1-.16.1-.22s-.06-.2-.06-.26a1.77,1.77,0,0,1,.15-.31s0,0,0,0a.77.77,0,0,0-.22.13,5.77,5.77,0,0,0-.42-.44c.1-.07.2-.1.28-.16a1.14,1.14,0,0,0-.25-.06c-.06,0-.14,0-.23.05s.29-.34.37-.34.19.66.34.7.46.28.57.28c.29,0,.25-.21.25-.36a2,2,0,0,1,.19-.52,3.88,3.88,0,0,0-.3-.48,4,4,0,0,1,.6,0m-1.75-1.43c.13,0,.5.19.5.41v.4c0,.27.67.89.84,1.11a.88.88,0,0,0-.24.65s0,0-.08.06a.53.53,0,0,0-.54-.21c0-.36-.23-1.23-.82-1.23l-.39.05a3.41,3.41,0,0,1-.57-.36c.1-.1.08-.16.08-.27s-.05-.18-.06-.26v0c.09-.06,1.26-.31,1.27-.31m-15.79,6.33s-.66.31-.7.31,0,0-.09,0v-.21c0-.29.8-.6.82-.6,1,.11,1.86-.81,2.46-1.15.07,0,.09-.12.13-.19a.45.45,0,0,1-.12,0c-.76,0-1.63,1.06-2.08,1.06a1.25,1.25,0,0,1-.25-.09c.43-.64,1.09-.82,1.56-1.22s.75-1.09,1.36-1.53a51.17,51.17,0,0,1,5.28-3.6c.61-.32,1.24-.64,1.85-.9a6,6,0,0,1,2.24-.57c.47,0,2.22.21,2.22,1.24a.87.87,0,0,1-.14.56.5.5,0,0,0-.33.2c-.18,0-.35.08-.35.4a1.16,1.16,0,0,0,0,.18c-.34.2-.54.29-.54.59a5,5,0,0,0,.21.48c0,.24-.26.29-.33.29s-.21,0-.21-.16.26-.26.26-.43-.43-.24-.43-.31c0-.39.74-.23.74-.56s-.63-.11-.79-.18c.08-.23.6-.37.6-.64s-.28-.13-.33-.18a.29.29,0,0,1,.17-.06l.5.06c.2,0,.38,0,.38-.24s0-.23-.19-.23-.32.29-.46.29-.81-.67-1.12-.67-.18.23-.18.3.46.28.52.32a.51.51,0,0,1-.37.2c-.34,0-.33-.55-.75-.55-.12,0-.33.12-.33.2,0,.27.3.13.3.37,0,.44-.88.66-1,.66-.49,0-.06-.83-.7-.83s-.94.41-1.54.76-1.14.28-1.42.91c.14.11.12.13.24.13.33,0,2-1.22,2.24-1.22h.1s0,0,.05,0c-.1.11-.57.29-.57.5a.1.1,0,0,0,.08.11h0s.41-.11.64-.15c-.14.23-.3.46-.46.68a.8.8,0,0,0,.21.05c.25,0,.49-.24.69-.24h.27c-.18.44-.63.32-.94.39s-.78.25-1.19.33a.09.09,0,0,1,0-.08c0-.16.68-.42.78-.51a.31.31,0,0,0-.28-.09c-.43,0-1.11.82-1.39,1.28s-.68.32-1,.43h-.08c0-.21.65-.78.65-.88s-.26-.15-.27-.15c-.43,0-.92.68-1.36.86a.09.09,0,0,1,0-.09c0-.3.63-.36.63-.7,0-.15-.1-.12-.14-.12a.54.54,0,0,0-.55.45,1,1,0,0,0-.08.3c0,1.21-2.63,1-2.63,2.06,0,.12.14.06.17.06.92,0,2.34-1.45,2.67-1.45a.19.19,0,0,1,.22.17,0,0,0,0,1,0,0c0,.47-1.15.36-1.3,1.07-.1.06-.68,0-.68.38,0,.06,0,.07.05.11h.49c.57,0,1.5-1.12,2-1.51,0,.11,0,.17,0,.23s.05.14.1.14c.38,0,.8-.68,1.23-1a7.94,7.94,0,0,1,1.79-.85s0,0,0,.08-.23.24-.23.36.08.13.16.13c.25,0,.49-.39.68-.39s.19.13.19.23c0,.57-.81.77-1,1.36-.05.15,0,.39-.12.39s-.15,0-.2,0c-.34,0-.41.43-.8.65-.11.07-.27,0-.37,0s-.85.65-1.11.65c-.06,0-.32-.12-.37-.12a4.44,4.44,0,0,1-1.43.62c-.27,0-.22-.18-.44-.18a17.26,17.26,0,0,1-2.6,1.15c-.14,0-.13,0-.35-.13a2.32,2.32,0,0,0,1-.8v-.08h0a20.23,20.23,0,0,1-2.11,1.12c-.05,0-.16-.07-.21-.07m2.62,2.91a.78.78,0,0,1-.58-.08l-1.78-2.24c.94.43,2.44,1.05,2.58,1.11s.07.16.09.28a.56.56,0,0,0,.14.41c1.56,1.42,3.31,2.77,5.11,4.15v.16l-4.89-3.82-.13.18,2.5,2c0,.24-.07,1.13-.07,1.73,0,.38,0,.91.06,1.22l-2.81-2V49.7l.17-2.13h-.11l-.28,0m4.15,3,.63.5v.05h-1.6c0-.18,0-.36,0-.54Zm-.93-.22c0-.18,0-.36,0-.48l.62.48Zm1.55,1c0,.16,0,.34,0,.55h-1.57c0-.17,0-.33,0-.47v-.07Zm0,.77a4.78,4.78,0,0,0,0,.53h-1.54c0-.15,0-.33,0-.53Zm0,.76c0,.15,0,.31.05.45s0,.06,0,.08h-.74l-.76-.53Zm.1.76c0,.13.05.26.07.37l-.53-.37Zm-2.56,14.3a14.33,14.33,0,0,1-2.65-6,39.41,39.41,0,0,1-.55-4.33V53.26l.18-2.27h-1c-.19-.14-1.24-1.42-2-2.37l2.77,1s.06.13.08.22a.64.64,0,0,0,.13.33,2.05,2.05,0,0,0,.5.39l.08,0h0l5.65,4a1.55,1.55,0,0,0,0,.22l-5.8-4.1-.12.19,2.85,2c0,.19,0,.61.05,1.21a20.85,20.85,0,0,1-1.89-1.87l-.15.16a25.91,25.91,0,0,0,2.05,2c.05,1,.14,2.39.29,3.74a12.15,12.15,0,0,1-1.74-3.93h0l-.2,0a12.08,12.08,0,0,0,2,4.28,17.71,17.71,0,0,0,.61,3.15,20.19,20.19,0,0,0,1.5,3.48,4.59,4.59,0,0,1-1.14-.42c-3.06-1.55-3.64-10.79-3.65-10.89h-.21c0,.1.6,9.46,3.77,11.09a5.43,5.43,0,0,0,1.36.45c.44.79.83,1.4,1.07,1.74.55.8.82,1.14.94,1.3l-.32.11a5.78,5.78,0,0,1-3.42-.1c-.46-.22-.73-.36-.86-.43a1.81,1.81,0,0,1-.18-.21m4.93,2.71a6.14,6.14,0,0,1-4.37-2.06l.4.2a4.61,4.61,0,0,0,1.84.32,7.08,7.08,0,0,0,1.71-.21,9,9,0,0,0,3.07-2.24,28.8,28.8,0,0,0,2.15,2.13,9.09,9.09,0,0,1-4.81,1.87m4.4,2.57h0a2.56,2.56,0,0,0-.47,0h-.81A22.59,22.59,0,0,0,293.75,69c.34.3.67.56,1,.8-.18,1.37-.47,3.41-.53,3.6l0,.07a.93.93,0,0,0,0,.13,1.29,1.29,0,0,0-.35-.18,5,5,0,0,0-.63-.18m.83.52,0,0h0a1.39,1.39,0,0,1-.28.12,4.11,4.11,0,0,0-.42.21l.18-.59.29.1a1.43,1.43,0,0,1,.28.13m.38,1a2.81,2.81,0,0,1-.71,0c-.13,0-.45-.11-.49-.2a.26.26,0,0,1,.09-.19,2.16,2.16,0,0,1,.48-.24l.22-.1.09,0a.61.61,0,0,0,.33-.43l0-.08c.08-.24.43-2.78.53-3.54a1,1,0,0,0,.15.1c-.09,1.53-.23,3.82-.32,4.58l-.16.07-.22.06Zm.32.14c0,.06-.1.1-.15.15l-.07.06,0-.15.19,0Zm-.29.68v0a.76.76,0,0,1,.12-.19l0,0,.1-.1.2-.2h1.63s0,0,0,.06a.88.88,0,0,0,.23.24.47.47,0,0,1,.1.1l0,0,.09.13Zm2.31-.6h.05l.12,0a.57.57,0,0,0,0,.18l0,0a1,1,0,0,1-.17-.19m.22,1c-.23.24-.85.24-1.05.23h-.09c-.42,0-1,0-1.3-.36H297a.31.31,0,0,1-.06.13m1.22-1.49a.24.24,0,0,1-.07.16,1.79,1.79,0,0,1-1,.2H297l-.25,0-.09,0c0-.12,0-.29-.05-.48H298l0,0a.18.18,0,0,1,.08.15m1.28-1.28h-.24l-.77,0h-.07l-.33,0a2.42,2.42,0,0,0-.65.13.75.75,0,0,0-.2.1s0,0,0-.05l0-.08a6.89,6.89,0,0,1-.15-.89h2c.13.24.27.49.42.74m-.53-1h-2c-.05-.4-.11-.87-.16-1.32h1.53c.17.44.37.88.59,1.32M297.94,70c.08.21.16.43.25.65h-1.47c0-.27-.07-.55-.1-.8.21-.15.43-.33.66-.52h.42c0,.15.1.3.14.41Zm4.8.67a8.87,8.87,0,0,1-4.6-1.51,3.37,3.37,0,0,0-.32-.19h0a.09.09,0,0,1,0,.09h-.2v.07h-.1a32.38,32.38,0,0,0,2.52-2.45,9.07,9.07,0,0,0,3.09,2.22,6.28,6.28,0,0,0,1.72.21,4.64,4.64,0,0,0,1.84-.32l.48-.23a6,6,0,0,1-4.43,2.09M311.64,51h-.85l0,0,0,0v.11l.18,2.11v4.28c0,.21-.1,1.12-.17,1.72q-.06.52-.06.6a15.6,15.6,0,0,1-3.08,8.22l-1,.49a5.87,5.87,0,0,1-3.42.1,1.75,1.75,0,0,1-.32-.12c.12-.15.39-.49.95-1.3.23-.34.62-.94,1.06-1.73a5.08,5.08,0,0,0,1.36-.46c3.18-1.62,3.76-11,3.77-11.08l-.21,0c0,.1-.58,9.35-3.65,10.89a4.67,4.67,0,0,1-1.13.42,20.64,20.64,0,0,0,1.5-3.48,18.65,18.65,0,0,0,.61-3.15,12.27,12.27,0,0,0,2-4.27l-.1,0-.1,0a12.6,12.6,0,0,1-1.74,3.93c.15-1.35.24-2.72.28-3.74a24.43,24.43,0,0,0,2.06-2l-.16-.16a22.11,22.11,0,0,1-1.88,1.87c0-.59,0-1,0-1.22l2.85-2-.11-.18-5.77,4.09a1.93,1.93,0,0,1,0-.24l5.61-4v0a1.39,1.39,0,0,0,.8-1l1.44-.55,1.25-.49c-.31.43-1.73,2.08-2,2.33"/><path id="Trazado_293" data-name="Trazado 293" class="cls-1" d="M288.38,48.55h-.1a.51.51,0,0,1-.15.23,1.19,1.19,0,0,1-.32.1h-.15a.08.08,0,0,1,0,0V48a.43.43,0,0,1,0-.11l.13-.05h0v-.08l-.55.08v.09h.07a.09.09,0,0,1,.07,0,.2.2,0,0,1,0,.11v.84a.2.2,0,0,1,0,.13l-.12.05h0v.08l1-.17Z"/><path id="Trazado_294" data-name="Trazado 294" class="cls-1" d="M288.6,47.67s0,0,0,0a.16.16,0,0,0,.08-.06.14.14,0,0,0,0-.09.07.07,0,0,0,0-.08.11.11,0,0,0-.08,0,.16.16,0,0,0-.07.07.09.09,0,0,0,0,.09.11.11,0,0,0,0,.08s0,0,0,0"/><path id="Trazado_295" data-name="Trazado 295" class="cls-1" d="M288.88,48.6h0a.15.15,0,0,1-.09,0,.32.32,0,0,1,0-.11v-.7h0l0,0a1.4,1.4,0,0,1-.22.16l0,0v.08l0,0,.05,0h0s0,0,0,0,0,0,0,.08v.43c0,.09,0,.11,0,.12a.4.4,0,0,1-.11.09h0v.07l.48-.19Z"/><path id="Trazado_296" data-name="Trazado 296" class="cls-1" d="M288.9,47.47a.13.13,0,0,1,0,.06v1c0,.07.09.07.11.07h0a.3.3,0,0,0,.16,0,.7.7,0,0,0,.33-.26.68.68,0,0,0,.12-.4.34.34,0,0,0-.1-.27.2.2,0,0,0-.24,0,.48.48,0,0,0-.2.14l0,0v-.49h0v0h0l-.09.06a1.88,1.88,0,0,1-.18.12h0v.08l.07,0h0m.19.48a.21.21,0,0,1,.06-.1l.11-.08h.06a.11.11,0,0,1,.1.06.51.51,0,0,1,.06.22.61.61,0,0,1-.07.24.27.27,0,0,1-.17.16.16.16,0,0,1-.1,0s0,0-.05,0Z"/><path id="Trazado_297" data-name="Trazado 297" class="cls-1" d="M290.08,48.32h.07a.42.42,0,0,0,.25-.16.49.49,0,0,0,.14-.23v0h-.07a.64.64,0,0,1-.11.16.27.27,0,0,1-.14.07.2.2,0,0,1-.19-.06.38.38,0,0,1-.08-.27l.56-.08v0a.38.38,0,0,0-.1-.27.32.32,0,0,0-.23-.05.43.43,0,0,0-.29.18.66.66,0,0,0-.11.35.56.56,0,0,0,.09.31.27.27,0,0,0,.22.11m-.1-.72a.19.19,0,0,1,.14-.11h0a.1.1,0,0,1,.09.06s0,.06,0,.1l-.32,0,0-.09"/><path id="Trazado_298" data-name="Trazado 298" class="cls-1" d="M291.07,48.15H291a.1.1,0,0,1,0-.1v-.41a.13.13,0,0,1,0-.1s.05-.05.06-.05l0,0a.11.11,0,0,0,.08,0s.05,0,.07,0a.08.08,0,0,0,0-.08.11.11,0,0,0,0-.08.12.12,0,0,0-.09,0,.18.18,0,0,0-.12,0,.46.46,0,0,0-.07.07v-.1s0,0,0,0h0l-.09,0-.07,0-.11,0v.08h.07l0,0a.37.37,0,0,1,0,.11v.42c0,.06,0,.07,0,.08l-.09,0h0v.08h.47Z"/><path id="Trazado_299" data-name="Trazado 299" class="cls-1" d="M291.32,47.51h.07V48a.77.77,0,0,0,0,.15.16.16,0,0,0,.15.11h0l.09,0a.2.2,0,0,0,.09-.09l0,0,0,0v0l-.05,0s0,0,0,0h0a0,0,0,0,1-.05,0,.38.38,0,0,1,0-.1v-.47l.17,0v-.12h-.17v-.19s0,0,0,0l0,0h0v0l-.12.15a.13.13,0,0,1-.07.06l0,0h0v0"/><path id="Trazado_300" data-name="Trazado 300" class="cls-1" d="M292,47.88a.24.24,0,0,0-.12.2.2.2,0,0,0,.06.15.14.14,0,0,0,.12.07.17.17,0,0,0,.14,0l.08-.05a.14.14,0,0,0,0,.07.18.18,0,0,0,.09.06h0l.08,0,.06-.05h0V48.2l0,0h-.06s0,0,0,0a.13.13,0,0,1,0-.06v-.32a.47.47,0,0,0,0-.17.27.27,0,0,0-.22-.16.23.23,0,0,0-.21,0,.14.14,0,0,0-.07.12.19.19,0,0,0,0,.07.1.1,0,0,0,.07,0h0s.05,0,.05-.09v0s0,0,0,0h.06a.17.17,0,0,1,.1.06.37.37,0,0,1,0,.11v.06a1.34,1.34,0,0,0-.27.07m.27.24a.05.05,0,0,1,0,.05h-.09a.09.09,0,0,1-.05,0,.21.21,0,0,1,0-.1s0-.09.1-.12l.11,0Z"/><path id="Trazado_301" data-name="Trazado 301" class="cls-1" d="M292.73,48.41h0s.06.07.1.08H293s0,0,0,0v.06l0,0,.12,0h.12v-.07h0l-.05,0a.22.22,0,0,1,0-.06v-.85h0l0,0h-.24v.07H293l0,0v.23s0,0,0,0l-.1,0a.2.2,0,0,0-.23.06.35.35,0,0,0-.1.26.44.44,0,0,0,.08.25s.07.06.1.09m0-.53a.1.1,0,0,1,.08,0h0a.24.24,0,0,1,.09.06.25.25,0,0,1,0,.13v.32l0,0h-.06a.13.13,0,0,1-.09,0,.21.21,0,0,1-.06-.08.54.54,0,0,1-.05-.22.23.23,0,0,1,0-.16"/><path id="Trazado_302" data-name="Trazado 302" class="cls-1" d="M301.73,48.56h.17l.05,0v.07l0,0h.15l.14,0v-.07h-.05s-.06,0-.06-.05a.09.09,0,0,1,0-.07v-1.1h-.31v.08h.06l.05,0a.22.22,0,0,1,0,.08v.24l0,0a.33.33,0,0,0-.13-.07.28.28,0,0,0-.3.07.55.55,0,0,0-.11.33.62.62,0,0,0,.09.32.47.47,0,0,0,.26.2m-.1-.77a.11.11,0,0,1,.1-.06h0a.21.21,0,0,1,.11.07A.28.28,0,0,1,302,48v.39s0,0,0,0a.09.09,0,0,1-.1,0,.29.29,0,0,1-.19-.15.67.67,0,0,1-.06-.28.39.39,0,0,1,.06-.21"/><path id="Trazado_303" data-name="Trazado 303" class="cls-1" d="M303.15,48.37a.06.06,0,0,1,.06,0V49a.15.15,0,0,1,0,.09h-.09v.08l.42.05v-.06h0a.11.11,0,0,1-.07,0,.08.08,0,0,1,0-.08v-.5s0,0,.06-.06l.09,0a.1.1,0,0,1,.09.06.31.31,0,0,1,0,.13V49c0,.08,0,.1,0,.1s0,0-.07,0h0v.06l.42.06v-.08h0a.07.07,0,0,1-.07,0,.15.15,0,0,1,0-.09v-.44a.34.34,0,0,0-.1-.27.17.17,0,0,0-.12-.05.25.25,0,0,0-.15,0l-.1.07v-.11s0,0,0,0l-.08,0-.17.05h0v.07h0Z"/><path id="Trazado_304" data-name="Trazado 304" class="cls-1" d="M302.67,48.92l.13,0a.35.35,0,0,0,.12,0,.34.34,0,0,0,.15-.18h0l-.06,0h0a.17.17,0,0,1-.11.09.15.15,0,0,1-.13,0,.56.56,0,0,1-.28-.48l.55.23v0a.51.51,0,0,0-.09-.3.55.55,0,0,0-.23-.2.26.26,0,0,0-.29,0,.33.33,0,0,0-.12.29.74.74,0,0,0,.1.35.55.55,0,0,0,.27.25m-.15-.81a.08.08,0,0,1,.11,0h0a.21.21,0,0,1,.13.13.62.62,0,0,1,0,.1l-.32-.13s0-.07,0-.08"/><path id="Trazado_305" data-name="Trazado 305" class="cls-1" d="M300,48.33h0a.53.53,0,0,0,.38-.14.63.63,0,0,0,.19-.49.74.74,0,0,0-.18-.49.6.6,0,0,0-.81,0,.62.62,0,0,0-.18.48.71.71,0,0,0,.16.48.65.65,0,0,0,.42.19m-.24-1.06a.27.27,0,0,1,.23-.12h0a.31.31,0,0,1,.25.13.75.75,0,0,1,.1.42.74.74,0,0,1-.1.41.32.32,0,0,1-.24.11h0a.27.27,0,0,1-.24-.14.59.59,0,0,1-.1-.41.58.58,0,0,1,.1-.4"/><path id="Trazado_306" data-name="Trazado 306" class="cls-1" d="M301.17,48.33h0c-.06,0-.09,0-.1,0a.14.14,0,0,1,0-.11v-.41a.07.07,0,0,1,0-.08s0,0,.05,0l0,0a.15.15,0,0,0,.08,0,.06.06,0,0,0,.07,0,.07.07,0,0,0,0-.08.16.16,0,0,0,0-.09.12.12,0,0,0-.09,0,.11.11,0,0,0-.12,0,.22.22,0,0,0-.07.06v-.11s0,0,0,0h0l-.09,0-.07,0-.12,0v.07h.07s0,0,.05,0a.62.62,0,0,1,0,.13v.41a.22.22,0,0,1,0,.08h-.12v.07l.47.07Z"/><path id="Trazado_307" data-name="Trazado 307" class="cls-1" d="M298.23,47.51l0,0,.23.47h0a.66.66,0,0,1-.05.15c0,.1-.06.11-.07.11h-.11a.18.18,0,0,0-.07.05.14.14,0,0,0,0,.06.11.11,0,0,0,.05.09h.09a.24.24,0,0,0,.15-.13,1.11,1.11,0,0,0,.12-.27l.23-.72,0,0,0,0h0V47.2l-.25.09v.06h.08v0l-.12.4-.15-.3,0,0v0l0,0,.05,0h0v-.07l-.35.12v.07h0s0,0,0,0"/><path id="Trazado_308" data-name="Trazado 308" class="cls-1" d="M310.81,50.9l1.1-.87c.24-.21.49-.41.67-.55a2.28,2.28,0,0,0,.27-.22h0c.06-.06.05-.07,0-.11l0-.15L310.7,50.4Z"/><path id="Trazado_309" data-name="Trazado 309" class="cls-1" d="M278.57,49.23l2.13,1.67.1-.5L278.57,49Z"/><path id="Trazado_310" data-name="Trazado 310" class="cls-1" d="M281.72,46.83l-2.06-1.27v.27L282,47.57Z"/><path id="Trazado_311" data-name="Trazado 311" class="cls-1" d="M297.38,64.6h.14l0-.06a1.12,1.12,0,0,1-.05-.36,1,1,0,0,1,.05-.35l0-.07H297l0-.07a1.32,1.32,0,0,1,0-.72l0-.06h-.17l.21,0-.58-.22-.06.27H296v0a1.58,1.58,0,0,0-.05.38,1.31,1.31,0,0,0,.05.39v0h.3v0h-.68v0H296l0-.07a.83.83,0,0,1,0-.35,1.12,1.12,0,0,1,0-.36l0-.06h-.07l.2-.06-.57-.21-.06.27h-.55v0a1,1,0,0,0-.05.38,1,1,0,0,0,.05.39v0h.4v0h-1v0a1.57,1.57,0,0,0-.05.37,1.09,1.09,0,0,0,0,.18h-1l.21.56h.27l.34.48h3.33l.66-.7h-.61Zm-2.9-.48a.5.5,0,0,1,0-.21h.64a.76.76,0,0,0,0,.21.91.91,0,0,0,0,.23h-.64a1.79,1.79,0,0,1,0-.23m.16.58-.1-.1h.12Zm.51,0h-.23l0-.1h.22Zm0-1.21a.78.78,0,0,1,0-.22.83.83,0,0,1,0-.22h.63a.55.55,0,0,0,0,.22.78.78,0,0,0,0,.22Zm.52,1.21h-.18l0-.1h.17Zm.5,0h-.2l0-.1h.2Zm.08-.4a.09.09,0,0,0,0,0h-.64a1,1,0,0,1,0-.2V64a.53.53,0,0,1,0-.12h.63a.76.76,0,0,0,0,.21.55.55,0,0,0,0,.18m0-.82a.76.76,0,0,1,0-.21.78.78,0,0,1,0-.22h.63a.78.78,0,0,0,0,.22,1.52,1.52,0,0,0,0,.21Zm.44,1.21h-.19l0-.18a.43.43,0,0,1,0,0v0h.15Zm.3,0,0-.09h.21l.06.09Zm.37-.35h-.63a.83.83,0,0,1,0-.22.71.71,0,0,1,0-.21h.63a.49.49,0,0,0,0,.21.55.55,0,0,0,0,.22"/><path id="Trazado_312" data-name="Trazado 312" class="cls-1" d="M294.15,38.82h0l.13,0a.16.16,0,0,0,.14.14.15.15,0,0,0,.11-.24l.09,0,0,0-.05-.06a.1.1,0,0,0-.11,0,.75.75,0,0,0-.26,0,.4.4,0,0,1-.15,0H294l0,0a.28.28,0,0,0,.16.14"/><rect id="Rect치ngulo_41" data-name="Rect치ngulo 41" class="cls-1" x="267.53" y="26.99" width="0.56" height="57.89"/><rect id="Rect치ngulo_42" data-name="Rect치ngulo 42" class="cls-1" x="267.53" y="26.99" width="332.76" height="0.57"/><rect id="Rect치ngulo_43" data-name="Rect치ngulo 43" class="cls-1" x="599.74" y="26.99" width="0.55" height="57.6"/><rect id="Rect치ngulo_44" data-name="Rect치ngulo 44" class="cls-1" x="267.53" y="84.31" width="332.76" height="0.57"/><rect id="Rect치ngulo_45" data-name="Rect치ngulo 45" class="cls-1" x="322.65" y="26.99" width="0.56" height="57.89"/><rect id="Rect치ngulo_46" data-name="Rect치ngulo 46" class="cls-1" x="460.56" y="26.99" width="0.56" height="57.89"/></g></g></svg>