<?xml version="1.0" encoding="utf-8"?>
<!-- Generator: Adobe Illustrator 25.4.1, SVG Export Plug-In . SVG Version: 6.00 Build 0)  -->
<svg version="1.1" xmlns="http://www.w3.org/2000/svg" xmlns:xlink="http://www.w3.org/1999/xlink" x="0px" y="0px"
	 viewBox="0 0 572 94.6" style="enable-background:new 0 0 572 94.6;" xml:space="preserve">
<style type="text/css">
	.st0{fill:#FFFFFF;}
	.st1{opacity:0.6;fill:#FFFFFF;enable-background:new    ;}
</style>
<g id="Capa_1">
	<g>
		<g id="Grupo_181">
			<g id="Grupo_180">
				<g id="Grupo_179" transform="translate(56.518)">
					<g id="Grupo_177" transform="translate(67.767)">
						<path id="Trazado_313" class="st0" d="M3.1,0H2.9C2.1,0,1.4,0.3,0.8,0.9s-0.9,1.3-0.9,2.2v47.8c0,0.8,0.3,1.6,0.9,2.2
							c1,1.1,2.8,1.2,3.9,0.2c0.1-0.1,0.1-0.1,0.2-0.2c0.6-0.6,0.9-1.3,0.9-2.2L5.9,3.1c0-0.8-0.3-1.6-0.9-2.2C4.7,0.4,3.9,0,3.1,0z
							"/>
						<path id="Trazado_314" class="st0" d="M35.7,0h-0.1c-0.8,0-1.5,0.3-2.1,0.9s-0.9,1.3-0.9,2.2v38L17.3,18
							c-0.5-0.8-1.4-1.3-2.4-1.3c-0.6,0-1.2,0.2-1.7,0.6c-0.8,0.6-1.3,1.5-1.2,2.5c0,0.6,0.2,1.3,0.5,1.8l20.6,30.9
							c0.3,0.4,0.6,0.8,1.1,1c1.1,0.7,2.6,0.4,3.4-0.5c0.6-0.6,0.9-1.4,0.9-2.2L38.7,3c0-0.8-0.3-1.6-0.9-2.2
							C37.2,0.4,36.5,0,35.7,0z"/>
						<path id="Trazado_315" class="st0" d="M86.9,2.5c-0.6-1.7-2.5-2.6-4.2-2c-0.9,0.3-1.6,1-2,2L62.8,49c-0.1,0.4-0.2,0.8-0.2,1.2
							c0,0.9,0.3,1.8,1,2.4c0.6,0.7,1.4,1,2.3,1c0.7,0,1.3-0.2,1.8-0.6c0.6-0.4,1-0.9,1.2-1.5l4.2-11l2.5-6.8l6.2-16.6
							c0.6-1.5,1.2-2.2,1.8-2.2s1.3,0.8,1.8,2.2l6.2,16.6h-0.1l2.7,7.1l4,10.6c0.3,0.6,0.7,1.2,1.2,1.6c0.5,0.4,1.2,0.6,1.8,0.6
							c0.9,0,1.8-0.4,2.4-1c0.7-0.7,1-1.5,1-2.5c0-0.4-0.1-0.9-0.2-1.3L86.9,2.5z"/>
						<path id="Trazado_316" class="st0" d="M166.2,7.1c1.1,0.8,1.8,1.4,2.1,1.6c0.6,0.6,1.4,0.8,2.2,0.7c0.8-0.1,1.6-0.5,2.1-1.1
							V8.2c0.6-0.7,0.9-1.6,0.9-2.5V5.3c-0.1-1-0.6-1.9-1.3-2.5c-0.9-0.8-1.8-1.5-2.8-2.1c-0.5-0.3-1-0.5-1.5-0.5s-0.9,0.1-1.4,0.4
							c-1.1,0.6-1.9,1.7-1.9,3C164.4,5,165,6.3,166.2,7.1z"/>
						<path id="Trazado_317" class="st0" d="M171.3,40.9c-0.8-0.1-1.7,0.2-2.3,0.8c-3.7,3.2-8.5,4.9-13.4,4.9
							c-5.7,0-10.3-1.9-13.7-5.7c-3.4-3.8-5.1-8.9-5.1-15.3c0-2.9,0.4-5.8,1.3-8.6c0.3-0.9,0.3-1.9,0.1-2.8
							c-0.2-0.9-0.7-1.7-1.4-2.2c-0.6-0.5-1.4-0.8-2.1-0.7c-0.3,0-0.6,0-0.9,0.1c-1.2,0.3-2.1,1.1-2.5,2.3
							c-1.5,3.7-2.3,7.8-2.3,11.8c0,8.1,2.5,14.8,7.6,20.2c4.9,5.3,11.8,8.3,19,8.1c6.5,0.1,12.8-2.2,17.7-6.4
							c0.8-0.7,1.2-1.7,1.2-2.8c0-0.9-0.3-1.8-0.9-2.5C173,41.3,172.2,40.9,171.3,40.9z"/>
						<path id="Trazado_318" class="st0" d="M201.5,19.3c-0.9-0.1-1.7,0-2.5,0.3c-0.2,0.2-0.4,1.1-0.4,2.6v28.4
							c0,1.5,0.1,2.4,0.4,2.6s1.1,0.4,2.5,0.4c1.5,0,2.3-0.1,2.5-0.4c0.2-0.2,0.4-1.1,0.4-2.6V22.3c0-1.5-0.1-2.4-0.4-2.6
							C203.2,19.3,202.3,19.2,201.5,19.3z"/>
						<path id="Trazado_319" class="st0" d="M201.5,0.4c-1.5,0-2.3,0.1-2.5,0.4c-0.3,0.8-0.5,1.7-0.4,2.6v5.4c0,1.5,0.1,2.4,0.4,2.6
							c1.7,0.5,3.4,0.5,5.1,0c0.2-0.2,0.4-1.1,0.4-2.6V3.4c0-1.5-0.1-2.4-0.4-2.6C203.8,0.5,202.9,0.4,201.5,0.4z"/>
						<path id="Trazado_320" class="st0" d="M262.6,3.7c-8-4.8-18-4.8-26,0c-3.9,2.4-7.2,5.8-9.4,9.8c-2.3,4.1-3.5,8.8-3.5,13.5
							c0,9.5,4.9,18.3,13,23.3c7.9,4.8,17.9,4.8,25.9,0c8.1-5,13-13.8,13-23.3c0-4.7-1.2-9.4-3.5-13.5
							C269.8,9.5,266.6,6.1,262.6,3.7z M267,37.4c-0.9,1.5-2,3-3.3,4.2c-1.2,1.3-2.6,2.4-4.1,3.4c-3,1.9-6.5,2.9-10.1,2.8h-0.1
							c-1.7-0.1-3.4-0.3-5.1-0.9c-1.7-0.4-3.3-1.1-4.8-2s-2.9-2.1-4.1-3.4c-6.5-6.8-7.8-17-3.3-25.2c0.9-1.6,2-3,3.3-4.2
							c1.2-1.3,2.6-2.4,4-3.4c3-1.9,6.5-2.8,10.1-2.8s7.1,0.9,10.1,2.8C269.3,15,272.5,27.5,267,37.4L267,37.4z"/>
						<path id="Trazado_321" class="st0" d="M300.5,1.4c-0.3-0.4-0.6-0.8-1.1-1c-1.1-0.7-2.6-0.4-3.4,0.5c-0.6,0.6-0.9,1.4-0.9,2.2
							l-0.2,47.8c0,0.8,0.3,1.6,0.9,2.2c0.5,0.6,1.3,0.9,2.1,0.9h0.1c0.8,0,1.5-0.3,2.1-0.9c0.6-0.6,0.9-1.3,0.9-2.2V13.5l15.8,25.6
							c0.5,0.8,1.4,1.3,2.4,1.3c0.6,0,1.2-0.2,1.7-0.6c0.8-0.6,1.3-1.5,1.2-2.5c0-0.6-0.2-1.3-0.5-1.8L300.5,1.4z"/>
						<path id="Trazado_322" class="st0" d="M330.7,0c-0.8,0-1.5,0.3-2.1,0.9c-0.6,0.6-0.9,1.3-0.9,2.2l-0.1,47.8
							c0,0.8,0.3,1.6,0.9,2.2c0.5,0.6,1.3,0.9,2,0.9h0.2c0.8,0,1.5-0.3,2.1-0.9c0.6-0.6,0.9-1.3,0.9-2.2V3.1c0-0.8-0.3-1.6-0.9-2.2
							C332.2,0.4,331.4,0,330.7,0z"/>
						<path id="Trazado_323" class="st0" d="M386.8,47.7H379c-1.4,0-2.3,0.1-2.5,0.4c-0.5,1.7-0.5,3.5,0,5.2
							c0.2,0.2,1.1,0.4,2.5,0.4h7.8c0.9,0.1,1.7,0,2.5-0.4c0.3-0.2,0.4-1.1,0.4-2.6s-0.1-2.3-0.4-2.6
							C388.6,47.7,387.7,47.6,386.8,47.7z"/>
						<path id="Trazado_324" class="st0" d="M386.8,0.3H379c-1.4,0-2.3,0.1-2.5,0.4c-0.5,1.7-0.5,3.5,0,5.2c0.2,0.2,1.1,0.4,2.5,0.4
							h7.8c0.9,0.1,1.7,0,2.5-0.4c0.3-0.2,0.4-1.1,0.4-2.6s-0.1-2.3-0.4-2.6C388.6,0.4,387.7,0.2,386.8,0.3z"/>
						<path id="Trazado_325" class="st0" d="M383.7,28.4c0.5-0.6,0.8-1.3,0.8-2.1v-0.1c0-0.8-0.3-1.5-0.9-2.1
							c-0.5-0.5-1.3-0.8-2-0.8h-17.3V3.7c0-0.9-0.4-1.8-1-2.4c-0.6-0.7-1.5-1-2.4-1s-1.7,0.4-2.3,1s-1,1.5-1,2.4v46.4
							c0,0.9,0.3,1.8,1,2.4c0.6,0.7,1.4,1,2.3,1s1.8-0.4,2.4-1c0.7-0.6,1-1.5,1-2.4V29.2h17.3C382.4,29.3,383.2,29,383.7,28.4z"/>
						<path id="Trazado_326" class="st0" d="M439,10.3c0.1,0.1,0.1,0.2,0.2,0.3c0.5,0.7,1.3,1.1,2.2,1c0.5,0,1.1-0.1,1.5-0.4
							l0.1-0.1c0.6-0.5,1.1-1.2,1.2-2c0.1-0.8-0.1-1.6-0.6-2.3c-0.2-0.3-0.5-0.6-0.8-0.9c-0.5-0.6-1.2-0.9-2-0.9
							c-1-0.1-1.9,0.4-2.4,1.3v0.1c-0.3,0.5-0.5,1-0.5,1.6c0,0.8,0.3,1.5,0.8,2C438.9,10.1,439,10.2,439,10.3z"/>
						<path id="Trazado_327" class="st0" d="M419.1,42.4c-0.5-0.6-1.2-0.9-2-0.9c-0.9,0-1.8,0.5-2.3,1.3c-0.3,0.5-0.5,1.1-0.5,1.7
							c0,0.7,0.3,1.4,0.8,2c0,0,0.1,0.1,0.2,0.2c0.1,0.1,0.2,0.2,0.2,0.3c0.5,0.7,1.3,1.1,2.1,1.1c0.5,0,1.1-0.2,1.5-0.5l0.1-0.1
							c0.6-0.5,1.1-1.2,1.2-2s-0.1-1.6-0.5-2.2C419.7,43.1,419.5,42.8,419.1,42.4z"/>
						<path id="Trazado_328" class="st0" d="M434.5,24.8l-3.1-0.7c-0.1,0-0.3,0-0.4-0.1c-0.2,0-0.5-0.1-0.8-0.2
							c-0.3-0.1-0.7-0.2-1-0.2c-1.2-0.2-2.4-0.6-3.5-1.1c-1.8-0.6-3.3-1.7-4.6-3.1c-1-1.2-1.6-2.8-1.5-4.4c-0.1-2.4,0.9-4.6,2.7-6.2
							c1.9-1.6,4.3-2.4,6.8-2.4c0.1,0,0.2,0,0.4,0c0.1,0,0.1,0,0.2,0c0.1,0,0.1,0,0.2,0c1.3-0.1,2.4-1,2.7-2.3V4
							c0.4-1.5-0.5-3-2-3.4c-0.1,0-0.3-0.1-0.4-0.1l0,0c-0.3,0.1-0.5,0.1-0.6,0.1c-0.2,0-0.3,0-0.5,0c-0.1,0-0.2,0-0.2,0h-0.1
							c-0.1,0-0.3,0-0.4,0c-2.4,0.1-4.8,0.7-7,1.8c-2.3,1.2-4.2,3-5.5,5.2c-1.3,2.3-2,4.9-2,7.5c0,4.4,1.5,7.7,4.5,9.8
							c3.6,2.4,7.6,4,11.8,4.9c2.2,0.5,4.3,1.1,6.4,1.8c1.5,0.6,2.9,1.5,4,2.7c1.1,1.3,1.6,2.9,1.5,4.6c0.1,2.4-1,4.7-3,6.2
							c-2.3,1.7-5.1,2.6-7.9,2.5c-0.4,0-0.8-0.1-1.1-0.1H430c-0.8,0-1.5,0.3-2,0.8c-0.5,0.6-0.8,1.3-0.8,2.1c0,0.1,0,0.2,0,0.2
							c0,0.1,0,0.2,0,0.2v0.1c0.1,0.6,0.5,1.2,0.9,1.6c0.5,0.5,1.1,0.8,1.7,0.8c0.2,0,0.5,0,0.7,0.1h0.4c3,0.1,6.1-0.6,8.8-1.8
							c2.4-1.1,4.5-2.9,5.9-5.2c1.4-2.2,2.2-4.9,2.1-7.5C447.7,32.1,443.3,27.4,434.5,24.8z"/>
					</g>
				</g>
				<path id="Trazado_348" class="st1" d="M15.8,0.6c0.2,0,0.3,0,0.4,0.1l0,0c0.8,0.1,1.5,0.5,2,1.2s0.6,1.5,0.4,2.3v0.1
					c-0.3,1.3-1.4,2.2-2.7,2.3c-0.1,0-0.1,0-0.2,0s-0.1,0-0.2,0s-0.2,0-0.4,0c-2.5,0-4.9,0.8-6.8,2.4c-1.8,1.5-2.8,3.8-2.7,6.2
					c0,1.6,0.5,3.1,1.5,4.4C8.4,21,10,22,11.7,22.7c1.1,0.5,2.3,0.9,3.5,1.1c0.4,0.1,0.7,0.2,1,0.2s0.6,0.1,0.8,0.2
					c0.1,0,0.3,0,0.4,0.1l3.1,0.7c8.8,2.6,13.3,7.3,13.3,14.1c0,2.7-0.7,5.3-2.1,7.5c-1.5,2.2-3.5,4-5.9,5.2
					C23,53.1,20,53.7,17,53.6h-0.4c-0.2,0-0.5-0.1-0.7-0.1c-0.7,0-1.3-0.3-1.7-0.8c-0.5-0.4-0.8-1-0.9-1.6V51c0-0.1,0-0.2,0-0.2
					c0-0.1,0-0.2,0-0.2c0-0.8,0.3-1.5,0.8-2.1c0.5-0.5,1.3-0.8,2-0.8h0.1c0.4,0,0.8,0,1.2,0.1c2.8,0.1,5.6-0.8,7.9-2.5
					c1.9-1.5,3-3.8,3-6.2c0.1-1.7-0.5-3.3-1.5-4.6c-1.1-1.2-2.5-2.1-4-2.7c-2.1-0.8-4.2-1.4-6.4-1.8c-4.2-0.8-8.2-2.5-11.8-4.9
					c-3-2.1-4.5-5.4-4.5-9.8c0-2.6,0.6-5.2,2-7.5c1.3-2.2,3.2-4,5.5-5.2c2.2-1.1,4.6-1.7,7-1.8c0.1,0,0.3,0,0.4,0h0.1
					c0.1,0,0.1,0,0.2,0l0,0C15.4,0.6,15.6,0.6,15.8,0.6L15.8,0.6z"/>
				<path id="Trazado_349" class="st1" d="M27.1,5.1c0.8,0,1.5,0.3,2,0.9c0.3,0.3,0.5,0.6,0.8,0.9c0.5,0.6,0.7,1.5,0.6,2.3
					s-0.5,1.5-1.2,2l-0.1,0.1c-0.5,0.3-1,0.4-1.5,0.4c-0.9,0-1.7-0.4-2.2-1c-0.1-0.1-0.2-0.2-0.2-0.3c-0.1-0.1-0.1-0.2-0.2-0.2
					c-0.5-0.5-0.8-1.3-0.8-2c0-0.6,0.2-1.1,0.5-1.6V6.5C25.2,5.5,26.1,5,27.1,5.1L27.1,5.1z"/>
				<path id="Trazado_350" class="st1" d="M3.3,41.4c0.8,0,1.5,0.3,2,0.9C5.7,42.7,6,43,6.1,43.2c0.5,0.6,0.7,1.4,0.5,2.2
					c-0.1,0.8-0.5,1.5-1.2,2l-0.1,0.1c-0.5,0.3-1,0.5-1.5,0.5c-0.9,0-1.7-0.4-2.1-1.1c-0.1-0.1-0.1-0.2-0.2-0.3s-0.2-0.2-0.2-0.2
					c-0.5-0.5-0.8-1.2-0.8-2c0-0.6,0.2-1.2,0.5-1.7C1.4,41.9,2.3,41.4,3.3,41.4z"/>
				<path id="Trazado_351" class="st1" d="M79.2,0.3c1.4-0.1,2.7,0.8,3.1,2.2L100,48.9c0.1,0.4,0.2,0.9,0.2,1.3c0,0.9-0.4,1.8-1,2.5
					s-1.5,1-2.4,1c-0.7,0-1.3-0.2-1.8-0.6c-0.6-0.4-1-0.9-1.2-1.6l-4-10.6l-2.7-7.1h0.1L81,17.2c-0.6-1.5-1.2-2.2-1.8-2.2l0,0
					c-0.6,0-1.2,0.7-1.8,2.2l-6.2,16.6l-2.5,6.8l-4.2,11c-0.2,0.6-0.7,1.2-1.2,1.5c-0.5,0.4-1.2,0.6-1.8,0.6c-0.9,0-1.7-0.4-2.3-1
					c-0.6-0.6-1-1.5-1-2.4c0-0.4,0.1-0.8,0.2-1.2L76.3,2.6C76.5,1.1,77.8,0.3,79.2,0.3L79.2,0.3z"/>
			</g>
		</g>
		<g>
			<path class="st0" d="M88.4,78.6v3.1c-1.4-1.2-2.9-1.9-4.4-1.9c-1.7,0-3.1,0.6-4.2,1.9c-1.2,1.3-1.7,2.8-1.7,4.6
				c0,1.8,0.6,3.3,1.7,4.5c1.2,1.2,2.6,1.8,4.2,1.8c0.9,0,1.6-0.1,2.2-0.4c0.3-0.1,0.7-0.3,1.1-0.6c0.4-0.3,0.7-0.6,1.1-0.9v3.1
				C87,94.6,85.5,95,84,95c-2.3,0-4.3-0.9-6-2.6c-1.6-1.7-2.5-3.8-2.5-6.2c0-2.2,0.7-4.1,2.1-5.8c1.7-2.1,3.9-3.1,6.6-3.1
				C85.6,77.3,87,77.7,88.4,78.6z"/>
			<path class="st0" d="M107.9,90.6h-7l-1.8,4.1h-2.6l8.1-18.2l7.8,18.2h-2.7L107.9,90.6z M106.9,88.1l-2.4-5.8l-2.5,5.8H106.9z"/>
			<path class="st0" d="M120.3,94.7l3.4-18.4l5.6,13.3l5.8-13.3l3.1,18.4h-2.5l-1.6-10.3l-4.8,11.1l-4.7-11.1l-1.8,10.3H120.3z"/>
			<path class="st0" d="M150.6,77.6v17.1h-2.5V77.6H150.6z"/>
			<path class="st0" d="M161,94.7V76.5l11.9,13V77.6h2.5v18.1l-11.9-13v12H161z"/>
			<path class="st0" d="M185.1,86.1c0-2.4,0.8-4.5,2.5-6.2c1.7-1.7,3.7-2.6,6-2.6c2.3,0,4.3,0.9,6,2.6c1.7,1.7,2.5,3.8,2.5,6.3
				c0,2.5-0.8,4.5-2.5,6.3c-1.7,1.7-3.7,2.6-6.1,2.6c-2.1,0-4-0.8-5.7-2.3C186,91,185.1,88.8,185.1,86.1z M187.5,86.1
				c0,1.9,0.6,3.4,1.8,4.7c1.2,1.2,2.6,1.8,4.2,1.8c1.7,0,3.2-0.6,4.3-1.9c1.2-1.3,1.8-2.8,1.8-4.6c0-1.8-0.6-3.3-1.7-4.6
				c-1.2-1.2-2.6-1.9-4.3-1.9c-1.7,0-3.1,0.6-4.3,1.9C188.1,82.8,187.5,84.3,187.5,86.1z"/>
			<path class="st0" d="M220.9,80.2l-2,1.2c-0.4-0.7-0.7-1.1-1.1-1.3c-0.4-0.2-0.8-0.4-1.4-0.4c-0.7,0-1.2,0.2-1.7,0.6
				c-0.5,0.4-0.7,0.9-0.7,1.5c0,0.8,0.6,1.5,1.8,2l1.6,0.7c1.3,0.6,2.3,1.2,2.9,2.1c0.6,0.8,0.9,1.8,0.9,3c0,1.6-0.5,2.9-1.5,3.9
				c-1,1-2.3,1.5-3.7,1.5c-1.4,0-2.6-0.4-3.5-1.3c-0.9-0.9-1.5-2.1-1.7-3.7l2.5-0.6c0.1,1,0.3,1.7,0.6,2.1c0.5,0.7,1.2,1.1,2.2,1.1
				c0.8,0,1.4-0.3,1.9-0.8c0.5-0.5,0.8-1.2,0.8-2c0-0.3,0-0.6-0.1-0.9c-0.1-0.3-0.2-0.5-0.4-0.8c-0.2-0.2-0.4-0.4-0.7-0.7
				c-0.3-0.2-0.6-0.4-1.1-0.6l-1.6-0.7c-2.2-1-3.3-2.4-3.3-4.3c0-1.3,0.5-2.4,1.4-3.2c0.9-0.9,2.1-1.3,3.5-1.3
				C218.4,77.3,219.8,78.3,220.9,80.2z"/>
			<path class="st0" d="M243.9,94.7V77.6h3.4c1.6,0,2.9,0.2,3.9,0.5c1,0.3,1.9,0.9,2.8,1.7c1.7,1.6,2.5,3.7,2.5,6.3
				c0,2.6-0.9,4.8-2.6,6.4c-0.9,0.8-1.8,1.4-2.8,1.7c-0.9,0.3-2.2,0.5-3.8,0.5H243.9z M246.4,92.3h1.1c1.1,0,2-0.1,2.8-0.4
				c0.7-0.3,1.4-0.7,2-1.2c1.2-1.2,1.8-2.7,1.8-4.5c0-1.9-0.6-3.4-1.8-4.6c-1.1-1-2.7-1.6-4.8-1.6h-1.1V92.3z"/>
			<path class="st0" d="M275.1,80.1h-6.5v4.1h6.3v2.4h-6.3v5.7h6.5v2.4h-9V77.6h9V80.1z"/>
			<path class="st0" d="M303.5,87.4l5,7.3h-3l-4.7-7h-0.4v7H298V77.6h2.9c2.2,0,3.7,0.4,4.7,1.3c1.1,0.9,1.6,2.2,1.6,3.7
				c0,1.2-0.3,2.2-1,3.1C305.4,86.6,304.6,87.2,303.5,87.4z M300.4,85.5h0.8c2.3,0,3.5-0.9,3.5-2.8c0-1.7-1.1-2.6-3.4-2.6h-0.9V85.5
				z"/>
			<path class="st0" d="M326.4,80.1h-6.5v4.1h6.3v2.4h-6.3v5.7h6.5v2.4h-9V77.6h9V80.1z"/>
			<path class="st0" d="M345.4,80.2l-2,1.2c-0.4-0.7-0.7-1.1-1.1-1.3c-0.4-0.2-0.8-0.4-1.4-0.4c-0.7,0-1.2,0.2-1.7,0.6
				c-0.5,0.4-0.7,0.9-0.7,1.5c0,0.8,0.6,1.5,1.8,2l1.6,0.7c1.3,0.6,2.3,1.2,2.9,2.1c0.6,0.8,0.9,1.8,0.9,3c0,1.6-0.5,2.9-1.5,3.9
				c-1,1-2.3,1.5-3.7,1.5c-1.4,0-2.6-0.4-3.5-1.3c-0.9-0.9-1.5-2.1-1.7-3.7l2.5-0.6c0.1,1,0.3,1.7,0.6,2.1c0.5,0.7,1.2,1.1,2.2,1.1
				c0.8,0,1.4-0.3,1.9-0.8c0.5-0.5,0.8-1.2,0.8-2c0-0.3,0-0.6-0.1-0.9c-0.1-0.3-0.2-0.5-0.4-0.8c-0.2-0.2-0.4-0.4-0.7-0.7
				c-0.3-0.2-0.6-0.4-1.1-0.6l-1.6-0.7c-2.2-1-3.3-2.4-3.3-4.3c0-1.3,0.5-2.4,1.4-3.2c0.9-0.9,2.1-1.3,3.5-1.3
				C342.9,77.3,344.3,78.3,345.4,80.2z"/>
			<path class="st0" d="M357.7,77.6v17.1h-2.5V77.6H357.7z"/>
			<path class="st0" d="M377.3,80.2l-2,1.2c-0.4-0.7-0.7-1.1-1.1-1.3c-0.4-0.2-0.8-0.4-1.4-0.4c-0.7,0-1.2,0.2-1.7,0.6
				c-0.5,0.4-0.7,0.9-0.7,1.5c0,0.8,0.6,1.5,1.8,2l1.6,0.7c1.3,0.6,2.3,1.2,2.9,2.1c0.6,0.8,0.9,1.8,0.9,3c0,1.6-0.5,2.9-1.5,3.9
				c-1,1-2.3,1.5-3.7,1.5c-1.4,0-2.6-0.4-3.5-1.3c-0.9-0.9-1.5-2.1-1.7-3.7l2.5-0.6c0.1,1,0.3,1.7,0.6,2.1c0.5,0.7,1.2,1.1,2.2,1.1
				c0.8,0,1.4-0.3,1.9-0.8c0.5-0.5,0.8-1.2,0.8-2c0-0.3,0-0.6-0.1-0.9c-0.1-0.3-0.2-0.5-0.4-0.8c-0.2-0.2-0.4-0.4-0.7-0.7
				c-0.3-0.2-0.6-0.4-1.1-0.6l-1.6-0.7c-2.2-1-3.3-2.4-3.3-4.3c0-1.3,0.5-2.4,1.4-3.2c0.9-0.9,2.1-1.3,3.5-1.3
				C374.8,77.3,376.3,78.3,377.3,80.2z"/>
			<path class="st0" d="M392,80.1v14.7h-2.5V80.1h-3.7v-2.4h9.9v2.4H392z"/>
			<path class="st0" d="M413.4,80.1h-6.5v4.1h6.3v2.4h-6.3v5.7h6.5v2.4h-9V77.6h9V80.1z"/>
			<path class="st0" d="M423.1,94.7V76.5l11.9,13V77.6h2.5v18.1l-11.9-13v12H423.1z"/>
			<path class="st0" d="M460,78.6v3.1c-1.4-1.2-2.9-1.9-4.4-1.9c-1.7,0-3.1,0.6-4.2,1.9c-1.2,1.3-1.7,2.8-1.7,4.6
				c0,1.8,0.6,3.3,1.7,4.5c1.2,1.2,2.6,1.8,4.2,1.8c0.9,0,1.6-0.1,2.2-0.4c0.3-0.1,0.7-0.3,1.1-0.6s0.7-0.6,1.1-0.9v3.1
				c-1.4,0.8-2.9,1.3-4.4,1.3c-2.3,0-4.3-0.9-6-2.6c-1.6-1.7-2.5-3.8-2.5-6.2c0-2.2,0.7-4.1,2.1-5.8c1.7-2.1,3.9-3.1,6.6-3.1
				C457.3,77.3,458.7,77.7,460,78.6z"/>
			<path class="st0" d="M472.1,77.6v17.1h-2.5V77.6H472.1z"/>
			<path class="st0" d="M492.1,90.6h-7l-1.8,4.1h-2.6l8.1-18.2l7.8,18.2h-2.7L492.1,90.6z M491.1,88.1l-2.4-5.8l-2.5,5.8H491.1z"/>
		</g>
	</g>
</g>
<g id="Capa_2">
</g>
</svg>
