<svg xmlns="http://www.w3.org/2000/svg" width="515.344" height="515.862" viewBox="0 0 515.344 515.862">
  <g id="Grupo_283" data-name="Grupo 283" transform="translate(-298.904 -369.129)">
    <g id="Grupo_261" data-name="Grupo 261" transform="translate(299.784 610.482)">
      <g id="Grupo_242" data-name="Grupo 242" transform="translate(460.468 38.967)">
        <g id="Grupo_241" data-name="Grupo 241" transform="translate(0 25.066)">
          <path id="Trazado_733" data-name="Trazado 733" d="M653.266,619.531q2.181-6.667,4.016-13.448c6.314-1.247,12.544-2.843,18.75-4.566a336.345,336.345,0,0,1-10.3,34.534Q659.674,627.638,653.266,619.531Z" transform="translate(-631.511 -590.217)" fill="none" stroke="#d1a943" stroke-miterlimit="10" stroke-width="1.706"/>
          <path id="Trazado_734" data-name="Trazado 734" d="M656.066,621.26q2.153-6.577,3.962-13.27-6.782-7.553-13.889-14.757a293.664,293.664,0,0,1-8.82,29.566C643.583,622.555,649.84,622.009,656.066,621.26Z" transform="translate(-637.319 -593.234)" fill="none" stroke="#d1a943" stroke-miterlimit="10" stroke-width="1.706"/>
          <path id="Trazado_735" data-name="Trazado 735" d="M657.032,605.162l-3.08-1.116" transform="translate(-631.261 -589.296)" fill="none" stroke="#d1a943" stroke-miterlimit="10" stroke-width="1.706"/>
          <path id="Trazado_736" data-name="Trazado 736" d="M654.106,614.968l-3.026-1.295" transform="translate(-632.307 -585.79)" fill="none" stroke="#d1a943" stroke-miterlimit="10" stroke-width="1.706"/>
          <path id="Trazado_737" data-name="Trazado 737" d="M670.787,616.165l-15.994-6.322" transform="translate(-630.955 -587.185)" fill="none" stroke="#d1a943" stroke-miterlimit="10" stroke-width="0.829"/>
          <path id="Trazado_738" data-name="Trazado 738" d="M656.82,610.644l-15.978-6.315" transform="translate(-636.036 -589.193)" fill="none" stroke="#d1a943" stroke-miterlimit="10" stroke-width="0.829"/>
        </g>
        <path id="Trazado_739" data-name="Trazado 739" d="M650.841,586.659c4.988-3.667,9.765-7.644,14.377-11.8q5.214,8.742,9.989,17.721c-4.839,3.986-9.832,7.79-15.021,11.275C657.266,598.015,654.126,592.288,650.841,586.659Z" transform="translate(-632.394 -574.86)" fill="none" stroke="#d1a943" stroke-miterlimit="10" stroke-width="1.706"/>
        <path id="Trazado_740" data-name="Trazado 740" d="M638.019,628.356c5.492-1.85,10.869-3.878,16.225-6.116,2.26,6.1,4.36,12.266,6.222,18.505-5.541,2.061-11.1,3.918-16.758,5.592C642.022,640.276,640.1,634.283,638.019,628.356Z" transform="translate(-637.064 -557.604)" fill="none" stroke="#d1a943" stroke-miterlimit="10" stroke-width="1.706"/>
      </g>
      <g id="Grupo_245" data-name="Grupo 245" transform="translate(394.968 103.603)">
        <g id="Grupo_243" data-name="Grupo 243" transform="translate(40.569 14.375)">
          <path id="Trazado_741" data-name="Trazado 741" d="M634.556,657.762c2.241-3.636,4.4-7.285,6.515-11,6.337.681,12.7,1.079,19.072,1.286a292.589,292.589,0,0,1-16.717,28.247Q639.188,666.917,634.556,657.762Z" transform="translate(-613.394 -627.684)" fill="none" stroke="#d1a943" stroke-miterlimit="10" stroke-width="1.706"/>
          <path id="Trazado_742" data-name="Trazado 742" d="M637.539,660.836c2.211-3.586,4.342-7.187,6.428-10.854q-5.12-8.736-10.609-17.205a255.387,255.387,0,0,1-14.313,24.183C625.158,658.488,631.337,659.754,637.539,660.836Z" transform="translate(-619.044 -632.777)" fill="none" stroke="#d1a943" stroke-miterlimit="10" stroke-width="1.706"/>
          <path id="Trazado_743" data-name="Trazado 743" d="M640.072,647.264l-2.771-1.883" transform="translate(-612.395 -628.187)" fill="none" stroke="#d1a943" stroke-miterlimit="10" stroke-width="1.706"/>
          <path id="Trazado_744" data-name="Trazado 744" d="M635.325,655.285l-2.685-2.03" transform="translate(-614.092 -625.319)" fill="none" stroke="#d1a943" stroke-miterlimit="10" stroke-width="1.706"/>
          <path id="Trazado_745" data-name="Trazado 745" d="M651.276,661.1l-14.287-10.255" transform="translate(-612.508 -626.198)" fill="none" stroke="#d1a943" stroke-miterlimit="10" stroke-width="0.829"/>
          <path id="Trazado_746" data-name="Trazado 746" d="M638.8,652.141,624.528,641.9" transform="translate(-617.047 -629.455)" fill="none" stroke="#d1a943" stroke-miterlimit="10" stroke-width="0.829"/>
        </g>
        <g id="Grupo_244" data-name="Grupo 244" transform="translate(6.855 57.957)">
          <path id="Trazado_747" data-name="Trazado 747" d="M608.562,688.931c2.913-2.76,5.761-5.625,8.51-8.559,6.023,2.331,12.135,4.385,18.28,6.338a285.164,285.164,0,0,1-21.837,21.977Q611.252,698.742,608.562,688.931Z" transform="translate(-589.148 -659.025)" fill="none" stroke="#d1a943" stroke-miterlimit="10" stroke-width="1.706"/>
          <path id="Trazado_748" data-name="Trazado 748" d="M611.551,692.033c2.873-2.723,5.683-5.55,8.4-8.444q-3.254-9.521-6.918-18.864a251.616,251.616,0,0,1-18.7,18.815C599.975,686.57,605.732,689.381,611.551,692.033Z" transform="translate(-594.331 -664.724)" fill="none" stroke="#d1a943" stroke-miterlimit="10" stroke-width="1.706"/>
          <path id="Trazado_749" data-name="Trazado 749" d="M615.42,681.039l-2.322-2.5" transform="translate(-587.496 -659.692)" fill="none" stroke="#d1a943" stroke-miterlimit="10" stroke-width="1.706"/>
          <path id="Trazado_750" data-name="Trazado 750" d="M609.219,687.281l-2.209-2.612" transform="translate(-589.713 -657.46)" fill="none" stroke="#d1a943" stroke-miterlimit="10" stroke-width="1.706"/>
          <path id="Trazado_751" data-name="Trazado 751" d="M623.579,696.95q-5.932-6.7-11.863-13.391" transform="translate(-587.999 -657.864)" fill="none" stroke="#d1a943" stroke-miterlimit="10" stroke-width="0.829"/>
          <path id="Trazado_752" data-name="Trazado 752" d="M613.219,685.255l-11.849-13.376" transform="translate(-591.768 -662.118)" fill="none" stroke="#d1a943" stroke-miterlimit="10" stroke-width="0.829"/>
        </g>
        <path id="Trazado_753" data-name="Trazado 753" d="M617.806,661.323c5.675-.207,11.3-.6,16.948-1.174,1.02,6.2,1.87,12.436,2.475,18.7-5.8.4-11.564.618-17.377.652C619.39,673.415,618.682,667.352,617.806,661.323Z" transform="translate(-578.926 -608.434)" fill="none" stroke="#d1a943" stroke-miterlimit="10" stroke-width="1.706"/>
        <path id="Trazado_754" data-name="Trazado 754" d="M638.019,628.356c5.492-1.85,10.869-3.878,16.225-6.116,2.26,6.1,4.36,12.266,6.222,18.505-5.541,2.061-11.1,3.918-16.758,5.592C642.022,640.276,640.1,634.283,638.019,628.356Z" transform="translate(-571.564 -622.24)" fill="none" stroke="#d1a943" stroke-miterlimit="10" stroke-width="1.706"/>
        <path id="Trazado_755" data-name="Trazado 755" d="M591,688.515c5.551,1.281,11.1,2.386,16.714,3.334-.259,6.113-.693,12.223-1.371,18.3-5.724-1.124-11.38-2.4-17.035-3.857C590.022,700.374,590.586,694.468,591,688.515Z" transform="translate(-589.306 -598.102)" fill="none" stroke="#d1a943" stroke-miterlimit="10" stroke-width="1.706"/>
      </g>
      <g id="Grupo_248" data-name="Grupo 248" transform="translate(297.577 194.016)">
        <g id="Grupo_246" data-name="Grupo 246" transform="translate(63.672 0.986)">
          <path id="Trazado_756" data-name="Trazado 756" d="M576.826,711.981c3.385-1.937,6.734-3.982,10.009-6.112q8.152,5.517,16.536,10.616a291.257,291.257,0,0,1-25.688,15.691C577.545,725.432,577.261,718.712,576.826,711.981Z" transform="translate(-560.132 -683.181)" fill="none" stroke="#d1a943" stroke-miterlimit="10" stroke-width="1.706"/>
          <path id="Trazado_757" data-name="Trazado 757" d="M579.666,715.008c3.34-1.911,6.644-3.927,9.875-6.028-.84-6.607-1.794-13.185-2.959-19.741a256.979,256.979,0,0,1-21.994,13.435C569.484,706.951,574.53,711.046,579.666,715.008Z" transform="translate(-564.589 -689.238)" fill="none" stroke="#d1a943" stroke-miterlimit="10" stroke-width="1.706"/>
          <path id="Trazado_758" data-name="Trazado 758" d="M584.633,706.661l-1.761-2.964" transform="translate(-557.93 -683.972)" fill="none" stroke="#d1a943" stroke-miterlimit="10" stroke-width="1.706"/>
          <path id="Trazado_759" data-name="Trazado 759" d="M577.339,711.117l-1.628-3.046" transform="translate(-560.538 -682.379)" fill="none" stroke="#d1a943" stroke-miterlimit="10" stroke-width="1.706"/>
          <path id="Trazado_760" data-name="Trazado 760" d="M589.392,723.909q-4.436-7.874-8.873-15.751" transform="translate(-558.787 -682.347)" fill="none" stroke="#d1a943" stroke-miterlimit="10" stroke-width="0.829"/>
          <path id="Trazado_761" data-name="Trazado 761" d="M581.644,710.154q-4.432-7.866-8.862-15.733" transform="translate(-561.605 -687.35)" fill="none" stroke="#d1a943" stroke-miterlimit="10" stroke-width="0.829"/>
        </g>
        <g id="Grupo_247" data-name="Grupo 247" transform="translate(18.53 24.121)">
          <path id="Trazado_762" data-name="Trazado 762" d="M542.044,726.791c3.693-1.123,7.374-2.349,11.005-3.668q6.851,7.221,14,14.1c-9.3,3.612-18.662,6.731-28.249,9.42Q540.646,736.746,542.044,726.791Z" transform="translate(-528.839 -700.031)" fill="none" stroke="#d1a943" stroke-miterlimit="10" stroke-width="1.706"/>
          <path id="Trazado_763" data-name="Trazado 763" d="M543.736,729.645c3.644-1.108,7.275-2.318,10.859-3.619.565-6.6.906-13.212,1.089-19.83-7.963,3.08-15.982,5.751-24.185,8.065C535.42,719.52,539.521,724.637,543.736,729.645Z" transform="translate(-531.499 -706.196)" fill="none" stroke="#d1a943" stroke-miterlimit="10" stroke-width="1.706"/>
          <path id="Trazado_764" data-name="Trazado 764" d="M549.545,724c-.449-1.314-.673-1.97-1.121-3.282" transform="translate(-525.335 -700.907)" fill="none" stroke="#d1a943" stroke-miterlimit="10" stroke-width="1.706"/>
          <path id="Trazado_765" data-name="Trazado 765" d="M541.524,726.675l-.975-3.33" transform="translate(-528.203 -699.95)" fill="none" stroke="#d1a943" stroke-miterlimit="10" stroke-width="1.706"/>
          <path id="Trazado_766" data-name="Trazado 766" d="M550.715,741.837l-5.488-17.321" transform="translate(-526.499 -699.524)" fill="none" stroke="#d1a943" stroke-miterlimit="10" stroke-width="0.829"/>
          <path id="Trazado_767" data-name="Trazado 767" d="M545.923,726.711q-2.742-8.65-5.481-17.3" transform="translate(-528.242 -705.025)" fill="none" stroke="#d1a943" stroke-miterlimit="10" stroke-width="0.829"/>
        </g>
        <path id="Trazado_768" data-name="Trazado 768" d="M560.826,707.571c5.164,2.529,10.363,4.9,15.652,7.133-1.51,5.84-3.161,11.605-4.964,17.354-5.363-2.412-10.634-4.955-15.867-7.656C557.519,718.828,559.241,713.238,560.826,707.571Z" transform="translate(-504.174 -681.575)" fill="none" stroke="#d1a943" stroke-miterlimit="10" stroke-width="1.706"/>
        <path id="Trazado_769" data-name="Trazado 769" d="M591,688.515c5.551,1.281,11.1,2.386,16.714,3.334-.259,6.113-.693,12.223-1.371,18.3-5.724-1.124-11.38-2.4-17.035-3.857C590.022,700.374,590.586,694.468,591,688.515Z" transform="translate(-491.915 -688.515)" fill="none" stroke="#d1a943" stroke-miterlimit="10" stroke-width="1.706"/>
        <path id="Trazado_770" data-name="Trazado 770" d="M526.431,719.369c4.525,3.621,9.117,7.1,13.818,10.466-2.674,5.348-5.469,10.592-8.409,15.788-4.741-3.546-9.368-7.2-13.924-10.989C520.889,729.614,523.719,724.543,526.431,719.369Z" transform="translate(-517.916 -677.278)" fill="none" stroke="#d1a943" stroke-miterlimit="10" stroke-width="1.706"/>
      </g>
      <g id="Grupo_251" data-name="Grupo 251" transform="translate(193.116 231.078)">
        <g id="Grupo_249" data-name="Grupo 249" transform="translate(75.145)">
          <path id="Trazado_771" data-name="Trazado 771" d="M505.034,733.441c3.839-.308,7.686-.716,11.506-1.221q5.234,8.537,10.83,16.8c-9.824,1.512-19.616,2.55-29.531,3.135Q501.645,742.877,505.034,733.441Z" transform="translate(-495.911 -709.659)" fill="none" stroke="#d1a943" stroke-miterlimit="10" stroke-width="1.706"/>
          <path id="Trazado_772" data-name="Trazado 772" d="M505.274,736.02c3.787-.3,7.582-.707,11.352-1.2,1.888-6.319,3.563-12.709,5.084-19.133-8.41,1.281-16.8,2.17-25.284,2.683C499.194,724.345,502.168,730.223,505.274,736.02Z" transform="translate(-496.426 -715.682)" fill="none" stroke="#d1a943" stroke-miterlimit="10" stroke-width="1.706"/>
          <path id="Trazado_773" data-name="Trazado 773" d="M511.662,733.141c-.172-1.379-.259-2.069-.431-3.449" transform="translate(-491.034 -710.579)" fill="none" stroke="#d1a943" stroke-miterlimit="10" stroke-width="1.706"/>
          <path id="Trazado_774" data-name="Trazado 774" d="M503.276,734.032,503,730.568" transform="translate(-494.032 -710.26)" fill="none" stroke="#d1a943" stroke-miterlimit="10" stroke-width="1.706"/>
          <path id="Trazado_775" data-name="Trazado 775" d="M509.188,750.823q-.927-9.053-1.853-18.107" transform="translate(-492.453 -709.478)" fill="none" stroke="#d1a943" stroke-miterlimit="10" stroke-width="0.829"/>
          <path id="Trazado_776" data-name="Trazado 776" d="M507.57,735.011q-.925-9.043-1.851-18.087" transform="translate(-493.041 -715.23)" fill="none" stroke="#d1a943" stroke-miterlimit="10" stroke-width="0.829"/>
        </g>
        <g id="Grupo_250" data-name="Grupo 250" transform="translate(20.75)">
          <path id="Trazado_777" data-name="Trazado 777" d="M467.383,732.22c3.82.5,7.665.913,11.506,1.221q3.393,9.452,7.195,18.718c-9.915-.585-19.707-1.623-29.531-3.135Q462.158,740.741,467.383,732.22Z" transform="translate(-456.553 -709.659)" fill="none" stroke="#d1a943" stroke-miterlimit="10" stroke-width="1.706"/>
          <path id="Trazado_778" data-name="Trazado 778" d="M466.163,734.815c3.768.5,7.563.9,11.352,1.2,3.127-5.786,6.058-11.686,8.848-17.654-8.487-.513-16.873-1.4-25.284-2.683C462.577,722.113,464.3,728.489,466.163,734.815Z" transform="translate(-454.905 -715.682)" fill="none" stroke="#d1a943" stroke-miterlimit="10" stroke-width="1.706"/>
          <path id="Trazado_779" data-name="Trazado 779" d="M472.926,734.04c.11-1.386.165-2.079.276-3.465" transform="translate(-450.59 -710.258)" fill="none" stroke="#d1a943" stroke-miterlimit="10" stroke-width="1.706"/>
          <path id="Trazado_780" data-name="Trazado 780" d="M464.58,733.152c.172-1.379.258-2.07.428-3.449" transform="translate(-453.63 -710.575)" fill="none" stroke="#d1a943" stroke-miterlimit="10" stroke-width="1.706"/>
          <path id="Trazado_781" data-name="Trazado 781" d="M467.346,750.823q.925-9.053,1.853-18.107" transform="translate(-452.622 -709.478)" fill="none" stroke="#d1a943" stroke-miterlimit="10" stroke-width="0.829"/>
          <path id="Trazado_782" data-name="Trazado 782" d="M468.963,735.011l1.85-18.087" transform="translate(-452.033 -715.23)" fill="none" stroke="#d1a943" stroke-miterlimit="10" stroke-width="0.829"/>
        </g>
        <path id="Trazado_783" data-name="Trazado 783" d="M491.423,723.194c3.708,4.487,7.509,8.847,11.438,13.128-3.686,4.675-7.469,9.225-11.383,13.7-3.932-4.457-7.734-8.991-11.439-13.652C483.952,732.072,487.734,727.7,491.423,723.194Z" transform="translate(-427.25 -712.946)" fill="none" stroke="#d1a943" stroke-miterlimit="10" stroke-width="1.706"/>
        <path id="Trazado_784" data-name="Trazado 784" d="M526.431,719.369c4.525,3.621,9.117,7.1,13.818,10.466-2.674,5.348-5.469,10.592-8.409,15.788-4.741-3.546-9.368-7.2-13.924-10.989C520.889,729.614,523.719,724.543,526.431,719.369Z" transform="translate(-413.455 -714.339)" fill="none" stroke="#d1a943" stroke-miterlimit="10" stroke-width="1.706"/>
        <path id="Trazado_785" data-name="Trazado 785" d="M455.184,719.285c2.7,5.181,5.521,10.258,8.483,15.285-4.566,3.783-9.2,7.421-13.949,10.956-2.928-5.2-5.712-10.454-8.375-15.807C446.052,726.358,450.652,722.895,455.184,719.285Z" transform="translate(-441.343 -714.37)" fill="none" stroke="#d1a943" stroke-miterlimit="10" stroke-width="1.706"/>
      </g>
      <g id="Grupo_254" data-name="Grupo 254" transform="translate(99.764 193.671)">
        <g id="Grupo_252" data-name="Grupo 252" transform="translate(59.5 24.466)">
          <path id="Trazado_786" data-name="Trazado 786" d="M430.531,723.123c3.631,1.319,7.312,2.546,11.005,3.668q1.4,9.972,3.24,19.852c-9.586-2.689-18.95-5.809-28.247-9.421Q423.691,730.332,430.531,723.123Z" transform="translate(-416.529 -700.031)" fill="none" stroke="#d1a943" stroke-miterlimit="10" stroke-width="1.706"/>
          <path id="Trazado_787" data-name="Trazado 787" d="M427.9,726.026c3.584,1.3,7.215,2.511,10.859,3.619,4.233-4.993,8.3-10.14,12.238-15.384-8.2-2.314-16.22-4.985-24.185-8.065C426.97,712.814,427.358,719.429,427.9,726.026Z" transform="translate(-412.784 -706.196)" fill="none" stroke="#d1a943" stroke-miterlimit="10" stroke-width="1.706"/>
          <path id="Trazado_788" data-name="Trazado 788" d="M434.86,726.7c.389-1.333.584-2,.973-3.331" transform="translate(-409.853 -699.941)" fill="none" stroke="#d1a943" stroke-miterlimit="10" stroke-width="1.706"/>
          <path id="Trazado_789" data-name="Trazado 789" d="M426.876,724.029c.449-1.314.673-1.97,1.12-3.282" transform="translate(-412.761 -700.896)" fill="none" stroke="#d1a943" stroke-miterlimit="10" stroke-width="1.706"/>
          <path id="Trazado_790" data-name="Trazado 790" d="M426.789,741.837q2.744-8.662,5.487-17.321" transform="translate(-412.792 -699.524)" fill="none" stroke="#d1a943" stroke-miterlimit="10" stroke-width="0.829"/>
          <path id="Trazado_791" data-name="Trazado 791" d="M431.579,726.711l5.48-17.3" transform="translate(-411.048 -705.025)" fill="none" stroke="#d1a943" stroke-miterlimit="10" stroke-width="0.829"/>
        </g>
        <g id="Grupo_253" data-name="Grupo 253" transform="translate(9.333 1.331)">
          <path id="Trazado_792" data-name="Trazado 792" d="M396.291,705.87c3.275,2.128,6.625,4.173,10.009,6.11-.435,6.731-.719,13.451-.857,20.2a291.584,291.584,0,0,1-25.688-15.69Q388.153,711.375,396.291,705.87Z" transform="translate(-379.755 -683.18)" fill="none" stroke="#d1a943" stroke-miterlimit="10" stroke-width="1.706"/>
          <path id="Trazado_793" data-name="Trazado 793" d="M393.159,708.979c3.232,2.1,6.536,4.117,9.874,6.028,5.151-3.943,10.167-8.076,15.077-12.335a257.238,257.238,0,0,1-21.992-13.435C394.93,695.786,394,702.375,393.159,708.979Z" transform="translate(-374.873 -689.238)" fill="none" stroke="#d1a943" stroke-miterlimit="10" stroke-width="1.706"/>
          <path id="Trazado_794" data-name="Trazado 794" d="M399.213,711.163c.649-1.22.975-1.828,1.626-3.048" transform="translate(-372.668 -682.363)" fill="none" stroke="#d1a943" stroke-miterlimit="10" stroke-width="1.706"/>
          <path id="Trazado_795" data-name="Trazado 795" d="M391.952,706.711c.7-1.187,1.056-1.78,1.758-2.967" transform="translate(-375.313 -683.955)" fill="none" stroke="#d1a943" stroke-miterlimit="10" stroke-width="1.706"/>
          <path id="Trazado_796" data-name="Trazado 796" d="M389.016,723.909q4.436-7.874,8.871-15.751" transform="translate(-376.382 -682.347)" fill="none" stroke="#d1a943" stroke-miterlimit="10" stroke-width="0.829"/>
          <path id="Trazado_797" data-name="Trazado 797" d="M396.761,710.154l8.862-15.733" transform="translate(-373.561 -687.35)" fill="none" stroke="#d1a943" stroke-miterlimit="10" stroke-width="0.829"/>
        </g>
        <path id="Trazado_798" data-name="Trazado 798" d="M421.434,707.879c1.607,5.66,3.352,11.242,5.247,16.807-5.221,2.724-10.483,5.29-15.836,7.728-1.827-5.742-3.5-11.5-5.035-17.33C411.089,712.823,416.28,710.431,421.434,707.879Z" transform="translate(-360.933 -681.117)" fill="none" stroke="#d1a943" stroke-miterlimit="10" stroke-width="1.706"/>
        <path id="Trazado_799" data-name="Trazado 799" d="M455.184,719.285c2.7,5.181,5.521,10.258,8.483,15.285-4.566,3.783-9.2,7.421-13.949,10.956-2.928-5.2-5.712-10.454-8.375-15.807C446.052,726.358,450.652,722.895,455.184,719.285Z" transform="translate(-347.992 -676.963)" fill="none" stroke="#d1a943" stroke-miterlimit="10" stroke-width="1.706"/>
        <path id="Trazado_800" data-name="Trazado 800" d="M389.635,688.262c.4,5.955.95,11.863,1.651,17.788-5.656,1.438-11.316,2.7-17.042,3.812-.64-6.084-1.112-12.195-1.33-18.312C378.529,690.617,384.08,689.527,389.635,688.262Z" transform="translate(-372.914 -688.262)" fill="none" stroke="#d1a943" stroke-miterlimit="10" stroke-width="1.706"/>
      </g>
      <g id="Grupo_257" data-name="Grupo 257" transform="translate(29.435 102.969)">
        <g id="Grupo_255" data-name="Grupo 255" transform="translate(36.121 58.591)">
          <path id="Trazado_801" data-name="Trazado 801" d="M366.121,680.373c2.748,2.933,5.6,5.8,8.509,8.559q-2.7,9.826-4.953,19.755a285.173,285.173,0,0,1-21.837-21.976C353.987,684.756,360.086,682.68,366.121,680.373Z" transform="translate(-347.839 -659.025)" fill="none" stroke="#d1a943" stroke-miterlimit="10" stroke-width="1.706"/>
          <path id="Trazado_802" data-name="Trazado 802" d="M362.931,683.588c2.712,2.895,5.522,5.721,8.4,8.444,5.831-2.629,11.566-5.485,17.22-8.494a251.636,251.636,0,0,1-18.7-18.815Q366.178,674.082,362.931,683.588Z" transform="translate(-342.342 -664.724)" fill="none" stroke="#d1a943" stroke-miterlimit="10" stroke-width="1.706"/>
          <path id="Trazado_803" data-name="Trazado 803" d="M367.477,687.345l2.207-2.614" transform="translate(-340.687 -657.437)" fill="none" stroke="#d1a943" stroke-miterlimit="10" stroke-width="1.706"/>
          <path id="Trazado_804" data-name="Trazado 804" d="M361.3,681.107l2.32-2.5" transform="translate(-342.935 -659.667)" fill="none" stroke="#d1a943" stroke-miterlimit="10" stroke-width="1.706"/>
          <path id="Trazado_805" data-name="Trazado 805" d="M355.627,696.95q5.93-6.7,11.863-13.391" transform="translate(-345.003 -657.864)" fill="none" stroke="#d1a943" stroke-miterlimit="10" stroke-width="0.829"/>
          <path id="Trazado_806" data-name="Trazado 806" d="M365.984,685.255l11.85-13.376" transform="translate(-341.23 -662.118)" fill="none" stroke="#d1a943" stroke-miterlimit="10" stroke-width="0.829"/>
        </g>
        <g id="Grupo_256" data-name="Grupo 256" transform="translate(1.864 15.008)">
          <path id="Trazado_807" data-name="Trazado 807" d="M341.8,646.761c2.113,3.718,4.274,7.365,6.515,11q-4.641,9.172-8.869,18.533a292.164,292.164,0,0,1-16.718-28.247C329.1,647.87,335.461,647.412,341.8,646.761Z" transform="translate(-322.727 -627.683)" fill="none" stroke="#d1a943" stroke-miterlimit="10" stroke-width="1.706"/>
          <path id="Trazado_808" data-name="Trazado 808" d="M338.726,649.983c2.086,3.667,4.217,7.267,6.428,10.854,6.207-1.055,12.375-2.375,18.495-3.876a254.927,254.927,0,0,1-14.313-24.185Q343.833,641.26,338.726,649.983Z" transform="translate(-316.9 -632.776)" fill="none" stroke="#d1a943" stroke-miterlimit="10" stroke-width="1.706"/>
          <path id="Trazado_809" data-name="Trazado 809" d="M341.483,655.367l2.683-2.03" transform="translate(-315.896 -625.288)" fill="none" stroke="#d1a943" stroke-miterlimit="10" stroke-width="1.706"/>
          <path id="Trazado_810" data-name="Trazado 810" d="M336.755,647.351l2.771-1.885" transform="translate(-317.618 -628.154)" fill="none" stroke="#d1a943" stroke-miterlimit="10" stroke-width="1.706"/>
          <path id="Trazado_811" data-name="Trazado 811" d="M328.577,661.1l14.287-10.255" transform="translate(-320.596 -626.196)" fill="none" stroke="#d1a943" stroke-miterlimit="10" stroke-width="0.829"/>
          <path id="Trazado_812" data-name="Trazado 812" d="M341.05,652.141,355.321,641.9" transform="translate(-316.054 -629.453)" fill="none" stroke="#d1a943" stroke-miterlimit="10" stroke-width="0.829"/>
        </g>
        <path id="Trazado_813" data-name="Trazado 813" d="M363.877,661.914c-.879,6.027-1.509,12.1-1.973,18.17-5.812,0-11.578-.188-17.379-.557.6-6.255,1.378-12.5,2.4-18.694C352.579,661.378,358.2,661.738,363.877,661.914Z" transform="translate(-312.924 -607.549)" fill="none" stroke="#d1a943" stroke-miterlimit="10" stroke-width="1.706"/>
        <path id="Trazado_814" data-name="Trazado 814" d="M389.635,688.262c.4,5.955.95,11.863,1.651,17.788-5.656,1.438-11.316,2.7-17.042,3.812-.64-6.084-1.112-12.195-1.33-18.312C378.529,690.617,384.08,689.527,389.635,688.262Z" transform="translate(-302.585 -597.56)" fill="none" stroke="#d1a943" stroke-miterlimit="10" stroke-width="1.706"/>
        <path id="Trazado_815" data-name="Trazado 815" d="M343.836,627.948c-2.12,5.918-4.005,11.926-5.73,17.978-5.659-1.693-11.208-3.569-16.746-5.651,1.9-6.23,3.966-12.413,6.264-18.5C332.976,624.031,338.347,626.079,343.836,627.948Z" transform="translate(-321.361 -621.775)" fill="none" stroke="#d1a943" stroke-miterlimit="10" stroke-width="1.706"/>
      </g>
      <g id="Grupo_260" data-name="Grupo 260">
        <g id="Grupo_258" data-name="Grupo 258" transform="translate(8.596 64.033)">
          <path id="Trazado_816" data-name="Trazado 816" d="M324.836,606.083q1.834,6.779,4.016,13.45-6.421,8.118-12.466,16.519a336.484,336.484,0,0,1-10.3-34.535C312.295,603.241,318.524,604.8,324.836,606.083Z" transform="translate(-306.085 -590.217)" fill="none" stroke="#d1a943" stroke-miterlimit="10" stroke-width="1.706"/>
          <path id="Trazado_817" data-name="Trazado 817" d="M322.074,607.991q1.809,6.687,3.962,13.27c6.224.779,12.484,1.263,18.746,1.54a294.573,294.573,0,0,1-8.82-29.566Q328.843,600.447,322.074,607.991Z" transform="translate(-300.262 -593.234)" fill="none" stroke="#d1a943" stroke-miterlimit="10" stroke-width="1.706"/>
          <path id="Trazado_818" data-name="Trazado 818" d="M322.774,615.069c1.21-.52,1.814-.779,3.026-1.3" transform="translate(-300.007 -585.754)" fill="none" stroke="#d1a943" stroke-miterlimit="10" stroke-width="1.706"/>
          <path id="Trazado_819" data-name="Trazado 819" d="M319.858,605.267l3.079-1.117" transform="translate(-301.069 -589.258)" fill="none" stroke="#d1a943" stroke-miterlimit="10" stroke-width="1.706"/>
          <path id="Trazado_820" data-name="Trazado 820" d="M309.521,616.164l16-6.322" transform="translate(-304.834 -587.185)" fill="none" stroke="#d1a943" stroke-miterlimit="10" stroke-width="0.829"/>
          <path id="Trazado_821" data-name="Trazado 821" d="M323.485,610.643l15.976-6.314" transform="translate(-299.748 -589.193)" fill="none" stroke="#d1a943" stroke-miterlimit="10" stroke-width="0.829"/>
        </g>
        <g id="Grupo_259" data-name="Grupo 259">
          <path id="Trazado_822" data-name="Trazado 822" d="M316.942,557.882q.327,7.956,1.025,15.89-7.948,6.677-15.562,13.727c-1.555-13.574-2.4-27.14-2.621-40.8C305.395,550.624,311.091,554.342,316.942,557.882Z" transform="translate(-299.784 -546.151)" fill="none" stroke="#d1a943" stroke-miterlimit="10" stroke-width="1.706"/>
          <path id="Trazado_823" data-name="Trazado 823" d="M314.7,557.826q.323,7.852,1.011,15.679c5.862,2.78,11.769,5.4,17.814,7.725-1.322-11.627-2.042-23.23-2.243-34.935Q322.844,551.848,314.7,557.826Z" transform="translate(-294.35 -546.296)" fill="none" stroke="#d1a943" stroke-miterlimit="10" stroke-width="1.706"/>
          <path id="Trazado_824" data-name="Trazado 824" d="M313.112,566.654l3.2-.415" transform="translate(-294.93 -539.033)" fill="none" stroke="#d1a943" stroke-miterlimit="10" stroke-width="1.706"/>
          <path id="Trazado_825" data-name="Trazado 825" d="M312.366,555.072l3.217-.2" transform="translate(-295.202 -543.173)" fill="none" stroke="#d1a943" stroke-miterlimit="10" stroke-width="1.706"/>
          <path id="Trazado_826" data-name="Trazado 826" d="M300.344,562.382l16.818-1.615" transform="translate(-299.58 -541.026)" fill="none" stroke="#d1a943" stroke-miterlimit="10" stroke-width="0.829"/>
          <path id="Trazado_827" data-name="Trazado 827" d="M315.025,560.972l16.8-1.613" transform="translate(-294.233 -541.538)" fill="none" stroke="#d1a943" stroke-miterlimit="10" stroke-width="0.829"/>
        </g>
        <path id="Trazado_828" data-name="Trazado 828" d="M331.86,587.551c-3.285,5.625-6.356,11.384-9.275,17.22-5.181-3.479-10.233-7.18-15.066-11.159q4.751-9.008,9.916-17.742C322.041,580.017,326.882,583.9,331.86,587.551Z" transform="translate(-296.967 -535.525)" fill="none" stroke="#d1a943" stroke-miterlimit="10" stroke-width="1.706"/>
        <path id="Trazado_829" data-name="Trazado 829" d="M343.836,627.948c-2.12,5.918-4.005,11.926-5.73,17.978-5.659-1.693-11.208-3.569-16.746-5.651,1.9-6.23,3.966-12.413,6.264-18.5C332.976,624.031,338.347,626.079,343.836,627.948Z" transform="translate(-291.926 -518.806)" fill="none" stroke="#d1a943" stroke-miterlimit="10" stroke-width="1.706"/>
      </g>
    </g>
    <g id="Grupo_282" data-name="Grupo 282" transform="translate(308.38 370.06)">
      <g id="Grupo_263" data-name="Grupo 263" transform="translate(0 145.877)">
        <g id="Grupo_262" data-name="Grupo 262" transform="translate(0 17.834)">
          <path id="Trazado_830" data-name="Trazado 830" d="M328.851,506.584q-2.181,6.667-4.016,13.448c-6.314,1.247-12.544,2.843-18.75,4.566a336.223,336.223,0,0,1,10.3-34.534Q322.443,498.477,328.851,506.584Z" transform="translate(-306.085 -490.065)" fill="none" stroke="#d1a943" stroke-miterlimit="10" stroke-width="1.706"/>
          <path id="Trazado_831" data-name="Trazado 831" d="M326.036,503.529q-2.153,6.579-3.963,13.27,6.784,7.555,13.89,14.757a294.073,294.073,0,0,1,8.818-29.565C338.517,502.236,332.262,502.78,326.036,503.529Z" transform="translate(-300.262 -485.722)" fill="none" stroke="#d1a943" stroke-miterlimit="10" stroke-width="1.706"/>
          <path id="Trazado_832" data-name="Trazado 832" d="M319.829,512.032l3.08,1.116" transform="translate(-301.079 -482.064)" fill="none" stroke="#d1a943" stroke-miterlimit="10" stroke-width="1.706"/>
          <path id="Trazado_833" data-name="Trazado 833" d="M322.74,502.275c1.211.517,1.816.776,3.027,1.295" transform="translate(-300.019 -485.618)" fill="none" stroke="#d1a943" stroke-miterlimit="10" stroke-width="1.706"/>
          <path id="Trazado_834" data-name="Trazado 834" d="M309.521,502.42l16,6.322" transform="translate(-304.834 -485.565)" fill="none" stroke="#d1a943" stroke-miterlimit="10" stroke-width="0.829"/>
          <path id="Trazado_835" data-name="Trazado 835" d="M323.485,507.938l15.978,6.315" transform="translate(-299.748 -483.556)" fill="none" stroke="#d1a943" stroke-miterlimit="10" stroke-width="0.829"/>
        </g>
        <path id="Trazado_836" data-name="Trazado 836" d="M331.7,537.98c-4.988,3.666-9.765,7.644-14.379,11.8q-5.212-8.74-9.987-17.721c4.837-3.986,9.832-7.788,15.02-11.275C325.278,526.623,328.417,532.349,331.7,537.98Z" transform="translate(-305.629 -461.044)" fill="none" stroke="#d1a943" stroke-miterlimit="10" stroke-width="1.706"/>
        <path id="Trazado_837" data-name="Trazado 837" d="M344.013,494.975c-5.494,1.848-10.869,3.878-16.224,6.114-2.26-6.1-4.36-12.264-6.224-18.505,5.541-2.061,11.1-3.917,16.759-5.592C340.009,483.053,341.931,489.048,344.013,494.975Z" transform="translate(-300.447 -476.992)" fill="none" stroke="#d1a943" stroke-miterlimit="10" stroke-width="1.706"/>
      </g>
      <g id="Grupo_266" data-name="Grupo 266" transform="translate(21.118 57.926)">
        <g id="Grupo_264" data-name="Grupo 264" transform="translate(1.585 49.065)">
          <path id="Trazado_838" data-name="Trazado 838" d="M348.314,467.02c-2.241,3.634-4.4,7.284-6.515,11-6.337-.679-12.7-1.079-19.072-1.285a292.159,292.159,0,0,1,16.717-28.247Q343.682,457.863,348.314,467.02Z" transform="translate(-322.727 -448.487)" fill="none" stroke="#d1a943" stroke-miterlimit="10" stroke-width="1.706"/>
          <path id="Trazado_839" data-name="Trazado 839" d="M345.154,463.551c-2.211,3.586-4.344,7.187-6.428,10.854q5.118,8.736,10.609,17.207a255.1,255.1,0,0,1,14.313-24.185C357.533,465.9,351.356,464.634,345.154,463.551Z" transform="translate(-316.9 -443.001)" fill="none" stroke="#d1a943" stroke-miterlimit="10" stroke-width="1.706"/>
          <path id="Trazado_840" data-name="Trazado 840" d="M336.707,470.135l2.771,1.884" transform="translate(-317.635 -440.603)" fill="none" stroke="#d1a943" stroke-miterlimit="10" stroke-width="1.706"/>
          <path id="Trazado_841" data-name="Trazado 841" d="M341.431,462.154l2.685,2.029" transform="translate(-315.915 -443.509)" fill="none" stroke="#d1a943" stroke-miterlimit="10" stroke-width="1.706"/>
          <path id="Trazado_842" data-name="Trazado 842" d="M328.577,458.538l14.287,10.253" transform="translate(-320.596 -444.826)" fill="none" stroke="#d1a943" stroke-miterlimit="10" stroke-width="0.829"/>
          <path id="Trazado_843" data-name="Trazado 843" d="M341.05,467.489l14.271,10.242" transform="translate(-316.054 -441.566)" fill="none" stroke="#d1a943" stroke-miterlimit="10" stroke-width="0.829"/>
        </g>
        <g id="Grupo_265" data-name="Grupo 265" transform="translate(35.842 4.43)">
          <path id="Trazado_844" data-name="Trazado 844" d="M374.63,435.524c-2.913,2.76-5.761,5.626-8.51,8.559-6.023-2.331-12.135-4.385-18.282-6.338a285.448,285.448,0,0,1,21.838-21.977Q371.939,425.713,374.63,435.524Z" transform="translate(-347.838 -415.768)" fill="none" stroke="#d1a943" stroke-miterlimit="10" stroke-width="1.706"/>
          <path id="Trazado_845" data-name="Trazado 845" d="M371.326,432.154c-2.873,2.723-5.683,5.551-8.4,8.444q3.254,9.523,6.918,18.866a251.861,251.861,0,0,1,18.7-18.817C382.9,437.616,377.145,434.806,371.326,432.154Z" transform="translate(-342.341 -409.8)" fill="none" stroke="#d1a943" stroke-miterlimit="10" stroke-width="1.706"/>
          <path id="Trazado_846" data-name="Trazado 846" d="M361.239,436.524l2.322,2.5" transform="translate(-342.957 -408.209)" fill="none" stroke="#d1a943" stroke-miterlimit="10" stroke-width="1.706"/>
          <path id="Trazado_847" data-name="Trazado 847" d="M367.41,430.314l2.209,2.611" transform="translate(-340.71 -410.47)" fill="none" stroke="#d1a943" stroke-miterlimit="10" stroke-width="1.706"/>
          <path id="Trazado_848" data-name="Trazado 848" d="M355.626,423.521l11.865,13.392" transform="translate(-345.002 -412.944)" fill="none" stroke="#d1a943" stroke-miterlimit="10" stroke-width="0.829"/>
          <path id="Trazado_849" data-name="Trazado 849" d="M365.984,435.212l11.85,13.377" transform="translate(-341.229 -408.686)" fill="none" stroke="#d1a943" stroke-miterlimit="10" stroke-width="0.829"/>
        </g>
        <path id="Trazado_850" data-name="Trazado 850" d="M363.418,460.74c-5.675.206-11.3.6-16.948,1.175-1.022-6.2-1.872-12.436-2.475-18.7,5.8-.4,11.564-.618,17.376-.651C361.834,448.646,362.541,454.708,363.418,460.74Z" transform="translate(-313.396 -401.578)" fill="none" stroke="#d1a943" stroke-miterlimit="10" stroke-width="1.706"/>
        <path id="Trazado_851" data-name="Trazado 851" d="M344.013,494.975c-5.494,1.848-10.869,3.878-16.224,6.114-2.26-6.1-4.36-12.264-6.224-18.505,5.541-2.061,11.1-3.917,16.759-5.592C340.009,483.053,341.931,489.048,344.013,494.975Z" transform="translate(-321.565 -389.04)" fill="none" stroke="#d1a943" stroke-miterlimit="10" stroke-width="1.706"/>
        <path id="Trazado_852" data-name="Trazado 852" d="M389.955,434.157c-5.552-1.28-11.1-2.385-16.714-3.333.259-6.113.693-12.225,1.371-18.3,5.724,1.124,11.38,2.4,17.033,3.855C390.931,422.3,390.367,428.205,389.955,434.157Z" transform="translate(-302.744 -412.521)" fill="none" stroke="#d1a943" stroke-miterlimit="10" stroke-width="1.706"/>
      </g>
      <g id="Grupo_269" data-name="Grupo 269" transform="translate(91.615 8.831)">
        <g id="Grupo_267" data-name="Grupo 267" transform="translate(8.886 20.75)">
          <path id="Trazado_853" data-name="Trazado 853" d="M406.3,411.94c-3.383,1.937-6.732,3.981-10.008,6.11q-8.152-5.517-16.536-10.616a291.919,291.919,0,0,1,25.688-15.691C405.579,398.488,405.865,405.208,406.3,411.94Z" transform="translate(-379.755 -391.743)" fill="none" stroke="#d1a943" stroke-miterlimit="10" stroke-width="1.706"/>
          <path id="Trazado_854" data-name="Trazado 854" d="M403.035,408.768c-3.34,1.911-6.644,3.929-9.876,6.03.84,6.607,1.794,13.185,2.959,19.74A257.566,257.566,0,0,1,418.11,421.1C413.216,416.825,408.171,412.73,403.035,408.768Z" transform="translate(-374.873 -385.542)" fill="none" stroke="#d1a943" stroke-miterlimit="10" stroke-width="1.706"/>
          <path id="Trazado_855" data-name="Trazado 855" d="M391.876,411.027l1.761,2.966" transform="translate(-375.34 -384.72)" fill="none" stroke="#d1a943" stroke-miterlimit="10" stroke-width="1.706"/>
          <path id="Trazado_856" data-name="Trazado 856" d="M399.135,406.592c.651,1.22.977,1.828,1.628,3.048" transform="translate(-372.697 -386.335)" fill="none" stroke="#d1a943" stroke-miterlimit="10" stroke-width="1.706"/>
          <path id="Trazado_857" data-name="Trazado 857" d="M389.016,397.192q4.436,7.876,8.871,15.751" transform="translate(-376.382 -389.758)" fill="none" stroke="#d1a943" stroke-miterlimit="10" stroke-width="0.829"/>
          <path id="Trazado_858" data-name="Trazado 858" d="M396.761,410.943q4.43,7.866,8.862,15.733" transform="translate(-373.561 -384.75)" fill="none" stroke="#d1a943" stroke-miterlimit="10" stroke-width="0.829"/>
        </g>
        <g id="Grupo_268" data-name="Grupo 268" transform="translate(59.052)">
          <path id="Trazado_859" data-name="Trazado 859" d="M441.537,396.385c-3.693,1.121-7.374,2.349-11.006,3.668q-6.849-7.224-14-14.1c9.3-3.614,18.662-6.732,28.249-9.421Q442.935,386.429,441.537,396.385Z" transform="translate(-416.528 -376.533)" fill="none" stroke="#d1a943" stroke-miterlimit="10" stroke-width="1.706"/>
          <path id="Trazado_860" data-name="Trazado 860" d="M438.758,393.511c-3.644,1.108-7.275,2.319-10.858,3.621-.565,6.595-.906,13.212-1.089,19.83,7.963-3.08,15.98-5.753,24.185-8.067C447.076,403.636,442.974,398.52,438.758,393.511Z" transform="translate(-412.783 -370.35)" fill="none" stroke="#d1a943" stroke-miterlimit="10" stroke-width="1.706"/>
          <path id="Trazado_861" data-name="Trazado 861" d="M426.792,393.774c.449,1.312.674,1.969,1.121,3.281" transform="translate(-412.79 -370.254)" fill="none" stroke="#d1a943" stroke-miterlimit="10" stroke-width="1.706"/>
          <path id="Trazado_862" data-name="Trazado 862" d="M434.775,391.111l.975,3.33" transform="translate(-409.882 -371.224)" fill="none" stroke="#d1a943" stroke-miterlimit="10" stroke-width="1.706"/>
          <path id="Trazado_863" data-name="Trazado 863" d="M426.789,379.684q2.744,8.66,5.487,17.32" transform="translate(-412.791 -375.385)" fill="none" stroke="#d1a943" stroke-miterlimit="10" stroke-width="0.829"/>
          <path id="Trazado_864" data-name="Trazado 864" d="M431.579,394.8q2.74,8.652,5.481,17.3" transform="translate(-411.046 -369.879)" fill="none" stroke="#d1a943" stroke-miterlimit="10" stroke-width="0.829"/>
        </g>
        <path id="Trazado_865" data-name="Trazado 865" d="M420.775,415.864c-5.164-2.529-10.364-4.9-15.653-7.135,1.51-5.839,3.161-11.6,4.964-17.354,5.364,2.413,10.635,4.955,15.868,7.657C424.082,404.605,422.359,410.2,420.775,415.864Z" transform="translate(-361.63 -371.127)" fill="none" stroke="#d1a943" stroke-miterlimit="10" stroke-width="1.706"/>
        <path id="Trazado_866" data-name="Trazado 866" d="M389.955,434.157c-5.552-1.28-11.1-2.385-16.714-3.333.259-6.113.693-12.225,1.371-18.3,5.724,1.124,11.38,2.4,17.033,3.855C390.931,422.3,390.367,428.205,389.955,434.157Z" transform="translate(-373.241 -363.426)" fill="none" stroke="#d1a943" stroke-miterlimit="10" stroke-width="1.706"/>
        <path id="Trazado_867" data-name="Trazado 867" d="M455.569,404.536c-4.524-3.621-9.116-7.1-13.818-10.466,2.675-5.348,5.47-10.592,8.41-15.788,4.739,3.547,9.367,7.2,13.924,10.99C461.113,394.292,458.282,399.362,455.569,404.536Z" transform="translate(-348.289 -375.896)" fill="none" stroke="#d1a943" stroke-miterlimit="10" stroke-width="1.706"/>
      </g>
      <g id="Grupo_272" data-name="Grupo 272" transform="translate(185.077)">
        <g id="Grupo_270" data-name="Grupo 270" transform="translate(20.193)">
          <path id="Trazado_868" data-name="Trazado 868" d="M478.888,388.78c-3.839.308-7.685.716-11.5,1.221q-5.235-8.537-10.83-16.8c9.822-1.512,19.616-2.55,29.531-3.136Q482.276,379.344,478.888,388.78Z" transform="translate(-456.553 -370.06)" fill="none" stroke="#d1a943" stroke-miterlimit="10" stroke-width="1.706"/>
          <path id="Trazado_869" data-name="Trazado 869" d="M477.515,386.306c-3.788.3-7.584.707-11.352,1.2-1.889,6.32-3.563,12.709-5.084,19.133,8.41-1.281,16.8-2.17,25.284-2.683C483.6,397.982,480.621,392.1,477.515,386.306Z" transform="translate(-454.905 -364.143)" fill="none" stroke="#d1a943" stroke-miterlimit="10" stroke-width="1.706"/>
          <path id="Trazado_870" data-name="Trazado 870" d="M464.492,384.677c.172,1.379.258,2.068.431,3.447" transform="translate(-453.662 -364.736)" fill="none" stroke="#d1a943" stroke-miterlimit="10" stroke-width="1.706"/>
          <path id="Trazado_871" data-name="Trazado 871" d="M472.837,383.789c.112,1.386.166,2.079.278,3.465" transform="translate(-450.622 -365.06)" fill="none" stroke="#d1a943" stroke-miterlimit="10" stroke-width="1.706"/>
          <path id="Trazado_872" data-name="Trazado 872" d="M467.346,370.907q.925,9.055,1.853,18.107" transform="translate(-452.622 -369.752)" fill="none" stroke="#d1a943" stroke-miterlimit="10" stroke-width="0.829"/>
          <path id="Trazado_873" data-name="Trazado 873" d="M468.963,386.714l1.85,18.087" transform="translate(-452.033 -363.995)" fill="none" stroke="#d1a943" stroke-miterlimit="10" stroke-width="0.829"/>
        </g>
        <g id="Grupo_271" data-name="Grupo 271" transform="translate(74.588)">
          <path id="Trazado_874" data-name="Trazado 874" d="M516.54,390c-3.82-.5-7.667-.913-11.506-1.221q-3.393-9.454-7.2-18.72c9.916.587,19.709,1.625,29.532,3.135Q521.766,381.478,516.54,390Z" transform="translate(-495.912 -370.06)" fill="none" stroke="#d1a943" stroke-miterlimit="10" stroke-width="1.706"/>
          <path id="Trazado_875" data-name="Trazado 875" d="M516.626,387.511c-3.768-.5-7.565-.9-11.352-1.2-3.127,5.787-6.06,11.687-8.848,17.654,8.487.513,16.872,1.4,25.284,2.683C520.212,400.214,518.492,393.836,516.626,387.511Z" transform="translate(-496.426 -364.143)" fill="none" stroke="#d1a943" stroke-miterlimit="10" stroke-width="1.706"/>
          <path id="Trazado_876" data-name="Trazado 876" d="M503.187,383.782c-.11,1.386-.165,2.079-.276,3.464" transform="translate(-494.064 -365.062)" fill="none" stroke="#d1a943" stroke-miterlimit="10" stroke-width="1.706"/>
          <path id="Trazado_877" data-name="Trazado 877" d="M511.574,384.665l-.43,3.449" transform="translate(-491.066 -364.741)" fill="none" stroke="#d1a943" stroke-miterlimit="10" stroke-width="1.706"/>
          <path id="Trazado_878" data-name="Trazado 878" d="M509.188,370.907q-.927,9.055-1.853,18.107" transform="translate(-492.453 -369.752)" fill="none" stroke="#d1a943" stroke-miterlimit="10" stroke-width="0.829"/>
          <path id="Trazado_879" data-name="Trazado 879" d="M507.57,386.715q-.925,9.043-1.851,18.085" transform="translate(-493.041 -363.994)" fill="none" stroke="#d1a943" stroke-miterlimit="10" stroke-width="0.829"/>
        </g>
        <path id="Trazado_880" data-name="Trazado 880" d="M490.709,400.865c-3.708-4.488-7.509-8.847-11.438-13.128,3.685-4.677,7.469-9.226,11.382-13.7,3.933,4.457,7.734,8.99,11.439,13.65C498.18,391.986,494.4,396.362,490.709,400.865Z" transform="translate(-428.086 -368.611)" fill="none" stroke="#d1a943" stroke-miterlimit="10" stroke-width="1.706"/>
        <path id="Trazado_881" data-name="Trazado 881" d="M455.569,404.536c-4.524-3.621-9.116-7.1-13.818-10.466,2.675-5.348,5.47-10.592,8.41-15.788,4.739,3.547,9.367,7.2,13.924,10.99C461.113,394.292,458.282,399.362,455.569,404.536Z" transform="translate(-441.751 -367.065)" fill="none" stroke="#d1a943" stroke-miterlimit="10" stroke-width="1.706"/>
        <path id="Trazado_882" data-name="Trazado 882" d="M526.813,404.618c-2.7-5.181-5.52-10.258-8.481-15.285,4.566-3.783,9.2-7.423,13.949-10.957,2.928,5.2,5.712,10.454,8.375,15.808C535.945,397.543,531.347,401.008,526.813,404.618Z" transform="translate(-413.86 -367.031)" fill="none" stroke="#d1a943" stroke-miterlimit="10" stroke-width="1.706"/>
      </g>
      <g id="Grupo_275" data-name="Grupo 275" transform="translate(289.549 8.831)">
        <g id="Grupo_273" data-name="Grupo 273" transform="translate(17.963)">
          <path id="Trazado_883" data-name="Trazado 883" d="M553.049,400.053c-3.631-1.319-7.312-2.547-11.005-3.668q-1.4-9.974-3.24-19.852c9.586,2.689,18.949,5.807,28.247,9.421Q559.889,392.844,553.049,400.053Z" transform="translate(-528.839 -376.533)" fill="none" stroke="#d1a943" stroke-miterlimit="10" stroke-width="1.706"/>
          <path id="Trazado_884" data-name="Trazado 884" d="M554.6,397.132c-3.582-1.3-7.214-2.513-10.858-3.621-4.234,4.993-8.3,10.14-12.238,15.384,8.2,2.314,16.22,4.985,24.185,8.067C555.524,410.343,555.137,403.728,554.6,397.132Z" transform="translate(-531.499 -370.35)" fill="none" stroke="#d1a943" stroke-miterlimit="10" stroke-width="1.706"/>
          <path id="Trazado_885" data-name="Trazado 885" d="M541.439,391.085l-.974,3.33" transform="translate(-528.234 -371.233)" fill="none" stroke="#d1a943" stroke-miterlimit="10" stroke-width="1.706"/>
          <path id="Trazado_886" data-name="Trazado 886" d="M549.462,393.744c-.449,1.312-.673,1.969-1.12,3.282" transform="translate(-525.365 -370.265)" fill="none" stroke="#d1a943" stroke-miterlimit="10" stroke-width="1.706"/>
          <path id="Trazado_887" data-name="Trazado 887" d="M550.715,379.684q-2.744,8.66-5.487,17.32" transform="translate(-526.499 -375.385)" fill="none" stroke="#d1a943" stroke-miterlimit="10" stroke-width="0.829"/>
          <path id="Trazado_888" data-name="Trazado 888" d="M545.923,394.8q-2.74,8.652-5.481,17.3" transform="translate(-528.242 -369.879)" fill="none" stroke="#d1a943" stroke-miterlimit="10" stroke-width="0.829"/>
        </g>
        <g id="Grupo_274" data-name="Grupo 274" transform="translate(63.104 20.75)">
          <path id="Trazado_889" data-name="Trazado 889" d="M586.834,418.05c-3.274-2.13-6.623-4.173-10.008-6.112.435-6.731.719-13.451.855-20.2a291.274,291.274,0,0,1,25.688,15.691Q594.973,412.544,586.834,418.05Z" transform="translate(-560.132 -391.743)" fill="none" stroke="#d1a943" stroke-miterlimit="10" stroke-width="1.706"/>
          <path id="Trazado_890" data-name="Trazado 890" d="M589.542,414.8c-3.232-2.1-6.536-4.117-9.875-6.028-5.151,3.943-10.167,8.077-15.077,12.335a257.313,257.313,0,0,1,21.994,13.435C587.77,427.99,588.7,421.4,589.542,414.8Z" transform="translate(-564.589 -385.542)" fill="none" stroke="#d1a943" stroke-miterlimit="10" stroke-width="1.706"/>
          <path id="Trazado_891" data-name="Trazado 891" d="M577.26,406.547l-1.626,3.048" transform="translate(-560.566 -386.351)" fill="none" stroke="#d1a943" stroke-miterlimit="10" stroke-width="1.706"/>
          <path id="Trazado_892" data-name="Trazado 892" d="M584.557,410.978l-1.76,2.966" transform="translate(-557.958 -384.738)" fill="none" stroke="#d1a943" stroke-miterlimit="10" stroke-width="1.706"/>
          <path id="Trazado_893" data-name="Trazado 893" d="M589.392,397.192l-8.873,15.751" transform="translate(-558.787 -389.758)" fill="none" stroke="#d1a943" stroke-miterlimit="10" stroke-width="0.829"/>
          <path id="Trazado_894" data-name="Trazado 894" d="M581.644,410.943q-4.432,7.866-8.862,15.733" transform="translate(-561.605 -384.75)" fill="none" stroke="#d1a943" stroke-miterlimit="10" stroke-width="0.829"/>
        </g>
        <path id="Trazado_895" data-name="Trazado 895" d="M560.177,415.567c-1.607-5.66-3.352-11.242-5.248-16.806,5.222-2.726,10.484-5.292,15.837-7.728,1.827,5.741,3.5,11.5,5.034,17.33C570.521,410.623,565.331,413.014,560.177,415.567Z" transform="translate(-505.003 -371.252)" fill="none" stroke="#d1a943" stroke-miterlimit="10" stroke-width="1.706"/>
        <path id="Trazado_896" data-name="Trazado 896" d="M526.813,404.618c-2.7-5.181-5.52-10.258-8.481-15.285,4.566-3.783,9.2-7.423,13.949-10.957,2.928,5.2,5.712,10.454,8.375,15.808C535.945,397.543,531.347,401.008,526.813,404.618Z" transform="translate(-518.332 -375.862)" fill="none" stroke="#d1a943" stroke-miterlimit="10" stroke-width="1.706"/>
        <path id="Trazado_897" data-name="Trazado 897" d="M591.309,434.4c-.4-5.955-.949-11.863-1.652-17.788,5.657-1.438,11.317-2.7,17.043-3.812.64,6.086,1.11,12.195,1.33,18.312C602.415,432.046,596.863,433.136,591.309,434.4Z" transform="translate(-492.355 -363.324)" fill="none" stroke="#d1a943" stroke-miterlimit="10" stroke-width="1.706"/>
      </g>
      <g id="Grupo_278" data-name="Grupo 278" transform="translate(386.851 58.308)">
        <g id="Grupo_276" data-name="Grupo 276" transform="translate(6.376 4.048)">
          <path id="Trazado_898" data-name="Trazado 898" d="M617.071,444.083c-2.749-2.934-5.6-5.8-8.509-8.559q2.7-9.828,4.952-19.756a285.213,285.213,0,0,1,21.838,21.977C629.2,439.7,623.106,441.775,617.071,444.083Z" transform="translate(-589.148 -415.768)" fill="none" stroke="#d1a943" stroke-miterlimit="10" stroke-width="1.706"/>
          <path id="Trazado_899" data-name="Trazado 899" d="M619.947,440.6c-2.712-2.893-5.522-5.721-8.4-8.444-5.831,2.629-11.566,5.485-17.22,8.494a251.371,251.371,0,0,1,18.7,18.817Q616.7,450.106,619.947,440.6Z" transform="translate(-594.331 -409.8)" fill="none" stroke="#d1a943" stroke-miterlimit="10" stroke-width="1.706"/>
          <path id="Trazado_900" data-name="Trazado 900" d="M609.151,430.25c-.883,1.045-1.325,1.567-2.207,2.614" transform="translate(-589.737 -410.494)" fill="none" stroke="#d1a943" stroke-miterlimit="10" stroke-width="1.706"/>
          <path id="Trazado_901" data-name="Trazado 901" d="M615.354,436.456c-.928,1-1.391,1.5-2.319,2.5" transform="translate(-587.519 -408.233)" fill="none" stroke="#d1a943" stroke-miterlimit="10" stroke-width="1.706"/>
          <path id="Trazado_902" data-name="Trazado 902" d="M623.579,423.521q-5.932,6.7-11.863,13.392" transform="translate(-587.999 -412.944)" fill="none" stroke="#d1a943" stroke-miterlimit="10" stroke-width="0.829"/>
          <path id="Trazado_903" data-name="Trazado 903" d="M613.219,435.212l-11.849,13.377" transform="translate(-591.768 -408.686)" fill="none" stroke="#d1a943" stroke-miterlimit="10" stroke-width="0.829"/>
        </g>
        <g id="Grupo_277" data-name="Grupo 277" transform="translate(40.09 48.682)">
          <path id="Trazado_904" data-name="Trazado 904" d="M641.07,478.02c-2.113-3.716-4.274-7.365-6.514-11q4.641-9.17,8.869-18.533a292.354,292.354,0,0,1,16.718,28.249C653.774,476.911,647.41,477.369,641.07,478.02Z" transform="translate(-613.394 -448.486)" fill="none" stroke="#d1a943" stroke-miterlimit="10" stroke-width="1.706"/>
          <path id="Trazado_905" data-name="Trazado 905" d="M643.967,474.4c-2.086-3.667-4.218-7.267-6.43-10.854-6.206,1.055-12.373,2.376-18.493,3.876a255.584,255.584,0,0,1,14.313,24.185Q638.86,483.127,643.967,474.4Z" transform="translate(-619.044 -442.999)" fill="none" stroke="#d1a943" stroke-miterlimit="10" stroke-width="1.706"/>
          <path id="Trazado_906" data-name="Trazado 906" d="M635.272,462.071l-2.683,2.031" transform="translate(-614.111 -443.538)" fill="none" stroke="#d1a943" stroke-miterlimit="10" stroke-width="1.706"/>
          <path id="Trazado_907" data-name="Trazado 907" d="M640.022,470.049l-2.769,1.884" transform="translate(-612.412 -440.633)" fill="none" stroke="#d1a943" stroke-miterlimit="10" stroke-width="1.706"/>
          <path id="Trazado_908" data-name="Trazado 908" d="M651.276,458.538l-14.287,10.253" transform="translate(-612.508 -444.825)" fill="none" stroke="#d1a943" stroke-miterlimit="10" stroke-width="0.829"/>
          <path id="Trazado_909" data-name="Trazado 909" d="M638.8,467.489l-14.271,10.242" transform="translate(-617.047 -441.565)" fill="none" stroke="#d1a943" stroke-miterlimit="10" stroke-width="0.829"/>
        </g>
        <path id="Trazado_910" data-name="Trazado 910" d="M617.328,460.122c.877-6.027,1.509-12.1,1.971-18.171,5.812,0,11.578.19,17.379.558-.6,6.254-1.377,12.5-2.4,18.694C628.626,460.657,623,460.3,617.328,460.122Z" transform="translate(-579.579 -402.184)" fill="none" stroke="#d1a943" stroke-miterlimit="10" stroke-width="1.706"/>
        <path id="Trazado_911" data-name="Trazado 911" d="M591.309,434.4c-.4-5.955-.949-11.863-1.652-17.788,5.657-1.438,11.317-2.7,17.043-3.812.64,6.086,1.11,12.195,1.33,18.312C602.415,432.046,596.863,433.136,591.309,434.4Z" transform="translate(-589.657 -412.801)" fill="none" stroke="#d1a943" stroke-miterlimit="10" stroke-width="1.706"/>
        <path id="Trazado_912" data-name="Trazado 912" d="M638.2,495.4c2.119-5.917,4.005-11.925,5.728-17.978,5.659,1.694,11.21,3.57,16.746,5.651-1.9,6.23-3.966,12.413-6.263,18.5C649.062,499.312,643.691,497.265,638.2,495.4Z" transform="translate(-571.976 -389.267)" fill="none" stroke="#d1a943" stroke-miterlimit="10" stroke-width="1.706"/>
      </g>
      <g id="Grupo_281" data-name="Grupo 281" transform="translate(451.873 146.459)">
        <g id="Grupo_279" data-name="Grupo 279" transform="translate(0 17.253)">
          <path id="Trazado_913" data-name="Trazado 913" d="M657.281,520.033q-1.834-6.777-4.016-13.448,6.421-8.12,12.466-16.519a336.108,336.108,0,0,1,10.3,34.534C669.821,522.874,663.593,521.312,657.281,520.033Z" transform="translate(-631.513 -490.065)" fill="none" stroke="#d1a943" stroke-miterlimit="10" stroke-width="1.706"/>
          <path id="Trazado_914" data-name="Trazado 914" d="M660.027,516.8q-1.811-6.687-3.963-13.268c-6.222-.78-12.483-1.265-18.744-1.54a294.022,294.022,0,0,1,8.818,29.566Q653.259,524.341,660.027,516.8Z" transform="translate(-637.32 -485.722)" fill="none" stroke="#d1a943" stroke-miterlimit="10" stroke-width="1.706"/>
          <path id="Trazado_915" data-name="Trazado 915" d="M654.073,502.174l-3.026,1.3" transform="translate(-632.321 -485.655)" fill="none" stroke="#d1a943" stroke-miterlimit="10" stroke-width="1.706"/>
          <path id="Trazado_916" data-name="Trazado 916" d="M657,511.927l-3.08,1.117" transform="translate(-631.273 -482.103)" fill="none" stroke="#d1a943" stroke-miterlimit="10" stroke-width="1.706"/>
          <path id="Trazado_917" data-name="Trazado 917" d="M670.787,502.42l-16,6.322" transform="translate(-630.957 -485.565)" fill="none" stroke="#d1a943" stroke-miterlimit="10" stroke-width="0.829"/>
          <path id="Trazado_918" data-name="Trazado 918" d="M656.82,507.939l-15.978,6.315" transform="translate(-636.037 -483.555)" fill="none" stroke="#d1a943" stroke-miterlimit="10" stroke-width="0.829"/>
        </g>
        <g id="Grupo_280" data-name="Grupo 280" transform="translate(13.935 85.773)">
          <path id="Trazado_919" data-name="Trazado 919" d="M663.952,569.908q-.329-7.956-1.026-15.89,7.948-6.675,15.563-13.725c1.555,13.574,2.4,27.138,2.621,40.8C675.5,577.167,669.8,573.448,663.952,569.908Z" transform="translate(-641.93 -540.292)" fill="none" stroke="#d1a943" stroke-miterlimit="10" stroke-width="1.706"/>
          <path id="Trazado_920" data-name="Trazado 920" d="M666.36,568.4q-.323-7.85-1.011-15.679c-5.862-2.78-11.769-5.394-17.814-7.726,1.322,11.627,2.042,23.23,2.243,34.935Q658.221,574.375,666.36,568.4Z" transform="translate(-647.535 -538.58)" fill="none" stroke="#d1a943" stroke-miterlimit="10" stroke-width="1.706"/>
          <path id="Trazado_921" data-name="Trazado 921" d="M663.781,550.353l-3.2.415" transform="translate(-642.785 -536.628)" fill="none" stroke="#d1a943" stroke-miterlimit="10" stroke-width="1.706"/>
          <path id="Trazado_922" data-name="Trazado 922" d="M664.532,561.878l-3.217.2" transform="translate(-642.516 -532.43)" fill="none" stroke="#d1a943" stroke-miterlimit="10" stroke-width="1.706"/>
          <path id="Trazado_923" data-name="Trazado 923" d="M680.185,554.945l-16.818,1.615" transform="translate(-641.769 -534.955)" fill="none" stroke="#d1a943" stroke-miterlimit="10" stroke-width="0.829"/>
          <path id="Trazado_924" data-name="Trazado 924" d="M665.5,556.355l-16.8,1.613" transform="translate(-647.111 -534.442)" fill="none" stroke="#d1a943" stroke-miterlimit="10" stroke-width="0.829"/>
        </g>
        <path id="Trazado_925" data-name="Trazado 925" d="M650.678,537.06c3.285-5.625,6.356-11.384,9.275-17.219,5.18,3.477,10.232,7.178,15.065,11.158q-4.75,9.008-9.915,17.743C660.5,544.595,655.656,540.716,650.678,537.06Z" transform="translate(-632.455 -461.967)" fill="none" stroke="#d1a943" stroke-miterlimit="10" stroke-width="1.706"/>
        <path id="Trazado_926" data-name="Trazado 926" d="M638.2,495.4c2.119-5.917,4.005-11.925,5.728-17.978,5.659,1.694,11.21,3.57,16.746,5.651-1.9,6.23-3.966,12.413-6.263,18.5C649.062,499.312,643.691,497.265,638.2,495.4Z" transform="translate(-636.998 -477.418)" fill="none" stroke="#d1a943" stroke-miterlimit="10" stroke-width="1.706"/>
      </g>
    </g>
  </g>
</svg>
