<svg xmlns="http://www.w3.org/2000/svg" width="247.722" height="156.876" viewBox="0 0 247.722 156.876">
  <path id="Trazado_1" data-name="Trazado 1" d="M1355.7,710.618l14.507-28.819h45.329V640.415h-88.7l-12.56,28.819h-45.207l-12.567-28.819h-88.693V681.8h45.335l14.507,28.819h30.123V727.1h-30.123l-14.507,28.819h-45.335v41.376h88.693l12.566-28.811h43l15.078,28.811h88.384V755.915h-45.329L1355.7,727.1h-30.125V710.618Zm-7.743,29.042,14.507,28.819h40.507v16.247h-68.213l-15.078-28.812h-58.835l-12.566,28.812h-67.9V768.48h40.512L1235.4,739.66h34.948V698.053H1235.4l-14.507-28.819h-40.512V652.979h67.9l12.564,28.819h61.667l12.559-28.819h67.9v16.255h-40.507l-14.507,28.819h-34.946V739.66Z" transform="translate(-1167.814 -640.415)" fill="#d1a943"/>
</svg>
