<svg xmlns="http://www.w3.org/2000/svg" width="539.116" height="543.665" viewBox="0 0 539.116 543.665">
  <g id="Grupo_1698" data-name="Grupo 1698" transform="translate(-250.376 -320.414)">
    <g id="Grupo_225" data-name="Grupo 225" transform="translate(251.381 321.412)">
      <g id="Grupo_224" data-name="Grupo 224">
        <g id="Grupo_214" data-name="Grupo 214" transform="translate(0 184.622)">
          <path id="Trazado_544" data-name="Trazado 544" d="M287.516,544.926c-.219-.013-.444-.021-.661-.047-11.3-1.345-16.885-13.412-15.618-23.835,1.166-9.591,11.843-18.847,21.8-16.039.213.061.426.128.637.2,1-4.179,1.544-6.238,2.71-10.291l-.629-.224c-16.414-5.814-31.863,9.734-34.493,24.486-2.817,15.784,7.108,36.57,24.947,37.49.22.011.441.008.661.013C287.032,551.912,287.163,549.561,287.516,544.926Z" transform="translate(-249.996 -480.703)" fill="none" stroke="#063916" stroke-linejoin="round" stroke-width="1.994"/>
          <path id="Trazado_545" data-name="Trazado 545" d="M286.111,550.934c-1,5.339-5.327,10.77-10.922,10.691-6.647-.093-11.14-8.039-10.757-14.317a16.115,16.115,0,0,1,2.635-8.2" transform="translate(-249.462 -473.977)" fill="none" stroke="#063916" stroke-linejoin="round" stroke-width="1.994"/>
          <path id="Trazado_546" data-name="Trazado 546" d="M280.128,549.276c-.712,2.924-2.955,5.095-5.593,5.024-3.113-.085-5.594-3.381-5.44-7.3a7.986,7.986,0,0,1,1.106-3.821" transform="translate(-248.773 -473.377)" fill="none" stroke="#063916" stroke-linejoin="round" stroke-width="1.994"/>
          <path id="Trazado_547" data-name="Trazado 547" d="M267.862,541.377c-4.51,3.616-10.746,2.237-13.9-2.353-3.971-5.785-3.306-15.132,1.59-20.156a9.752,9.752,0,0,1,6.651-3.071" transform="translate(-251.381 -477.41)" fill="none" stroke="#063916" stroke-linejoin="round" stroke-width="1.994"/>
          <path id="Trazado_548" data-name="Trazado 548" d="M264.155,534.99a4.78,4.78,0,0,1-6.817-1.55,8.566,8.566,0,0,1,.807-10.192,5.208,5.208,0,0,1,3.037-1.614" transform="translate(-250.697 -476.551)" fill="none" stroke="#063916" stroke-linejoin="round" stroke-width="1.994"/>
          <path id="Trazado_549" data-name="Trazado 549" d="M294.715,495.559a12.344,12.344,0,0,0-7.507-12.577c-6.173-2.491-12.408,2.662-14.014,8.14a13.2,13.2,0,0,0,.224,7.935" transform="translate(-248.243 -482.337)" fill="none" stroke="#063916" stroke-linejoin="round" stroke-width="1.994"/>
          <path id="Trazado_550" data-name="Trazado 550" d="M288.7,493.9a6.1,6.1,0,0,0-3.9-6.151c-2.963-1.028-6.2.808-7.152,4.163a6.827,6.827,0,0,0-.027,3.634" transform="translate(-247.551 -481.582)" fill="none" stroke="#063916" stroke-linejoin="round" stroke-width="1.994"/>
          <path id="Trazado_551" data-name="Trazado 551" d="M274.685,497.561a10,10,0,0,0-13.795-2.9c-5.982,3.922-7.175,12.864-4.485,18.7a10.521,10.521,0,0,0,5.337,5.3" transform="translate(-250.842 -480.761)" fill="none" stroke="#063916" stroke-linejoin="round" stroke-width="1.994"/>
          <path id="Trazado_552" data-name="Trazado 552" d="M269.546,500.52a4.958,4.958,0,0,0-6.887-1.065,7.812,7.812,0,0,0-2.266,9.463,5.684,5.684,0,0,0,2.378,2.58" transform="translate(-250.161 -479.955)" fill="none" stroke="#063916" stroke-linejoin="round" stroke-width="1.994"/>
        </g>
        <g id="Grupo_215" data-name="Grupo 215" transform="translate(23.88 114.752)">
          <path id="Trazado_553" data-name="Trazado 553" d="M303.405,475.664c-.2-.088-.408-.176-.611-.272a18.389,18.389,0,0,1-8.055-25.3,17.373,17.373,0,0,1,25.054-5.985c.186.126.366.257.546.389,2.121-3.231,3.215-4.815,5.461-7.919l-.53-.412c-12.674-9.8-32.676-3.841-39.4,8.863-6.671,12.6-2.311,33.8,13.041,39.759l.622.244C301.005,481.223,301.781,479.349,303.405,475.664Z" transform="translate(-270.628 -419.986)" fill="none" stroke="#063916" stroke-linejoin="round" stroke-width="1.994"/>
          <path id="Trazado_554" data-name="Trazado 554" d="M299.573,480.861c-2.764,4.418-8.479,6.657-13.273,4.77-5.641-2.221-8.58-9.617-6.181-15.363a12.22,12.22,0,0,1,4.771-5.768" transform="translate(-271.153 -415.094)" fill="none" stroke="#063916" stroke-linejoin="round" stroke-width="1.994"/>
          <path id="Trazado_555" data-name="Trazado 555" d="M294.179,477.468a5.6,5.6,0,0,1-6.672,2.095,6.162,6.162,0,0,1-1-10.557" transform="translate(-270.465 -414.43)" fill="none" stroke="#063916" stroke-linejoin="round" stroke-width="1.994"/>
          <path id="Trazado_556" data-name="Trazado 556" d="M285.2,466.37a10.447,10.447,0,0,1-12.443-6.82c-1.829-5.775.891-13.74,7.165-16.164a10.464,10.464,0,0,1,7.127-.25" transform="translate(-272.196 -418.315)" fill="none" stroke="#063916" stroke-linejoin="round" stroke-width="1.994"/>
          <path id="Trazado_557" data-name="Trazado 557" d="M283.2,460a5.323,5.323,0,0,1-5.99-3.673,6.725,6.725,0,0,1,3.622-8.173,5.322,5.322,0,0,1,3.315-.282" transform="translate(-271.505 -417.563)" fill="none" stroke="#063916" stroke-linejoin="round" stroke-width="1.994"/>
          <path id="Trazado_558" data-name="Trazado 558" d="M323.3,437.205a11.789,11.789,0,0,0-3.5-13.533c-4.69-3.932-12.1-2.368-15.505,2.255a10.953,10.953,0,0,0-2.04,6.919" transform="translate(-267.771 -421.435)" fill="none" stroke="#063916" stroke-linejoin="round" stroke-width="1.994"/>
          <path id="Trazado_559" data-name="Trazado 559" d="M317.854,433.9a5.812,5.812,0,0,0-1.932-6.684,5.549,5.549,0,0,0-7.915,1.144,5.644,5.644,0,0,0-1.057,3.13" transform="translate(-267.078 -420.755)" fill="none" stroke="#063916" stroke-linejoin="round" stroke-width="1.994"/>
          <path id="Trazado_560" data-name="Trazado 560" d="M303.94,432a10.833,10.833,0,0,0-12.16-7.27c-6.529,1.177-10.41,8.5-9.515,14.365a10.521,10.521,0,0,0,3.527,6.326" transform="translate(-270.732 -420.976)" fill="none" stroke="#063916" stroke-linejoin="round" stroke-width="1.994"/>
          <path id="Trazado_561" data-name="Trazado 561" d="M297.975,432.944a5.417,5.417,0,0,0-6.178-3.3,6.426,6.426,0,0,0-4.812,7.267,5.624,5.624,0,0,0,1.51,3.015" transform="translate(-270.031 -420.245)" fill="none" stroke="#063916" stroke-linejoin="round" stroke-width="1.994"/>
        </g>
        <g id="Grupo_216" data-name="Grupo 216" transform="translate(71.2 58.313)">
          <path id="Trazado_562" data-name="Trazado 562" d="M338.227,421.817c-.166-.148-.334-.295-.5-.45-7.13-6.749-7.911-18.542-.268-25.418s19.288-4.846,25.334,2.859c.138.177.27.356.4.536,2.938-2.264,4.428-3.363,7.451-5.5-.127-.184-.255-.369-.381-.551-8.879-12.751-29.148-14.585-39.679-4.9-10.352,9.525-11.312,29.994.781,39.953.169.139.343.286.514.429C334.366,425.934,335.635,424.541,338.227,421.817Z" transform="translate(-312.099 -370.767)" fill="none" stroke="#063916" stroke-linejoin="round" stroke-width="1.994"/>
          <path id="Trazado_563" data-name="Trazado 563" d="M332.4,425.721a11.406,11.406,0,0,1-13.858-.4c-4.332-3.612-5.56-11.08-1.39-15.625a11.111,11.111,0,0,1,6.149-3.478" transform="translate(-313.274 -367.237)" fill="none" stroke="#063916" stroke-linejoin="round" stroke-width="1.994"/>
          <path id="Trazado_564" data-name="Trazado 564" d="M328.078,421.008a5.729,5.729,0,0,1-6.879-.455,5.6,5.6,0,0,1-.67-7.965A5.425,5.425,0,0,1,323.3,410.9" transform="translate(-312.599 -366.547)" fill="none" stroke="#063916" stroke-linejoin="round" stroke-width="1.994"/>
          <path id="Trazado_565" data-name="Trazado 565" d="M323.165,407.826c-5.331-.661-9.643-5.059-9.722-10.308-.087-5.835,5.078-12.027,11.414-12.079a11.027,11.027,0,0,1,6.771,2.161" transform="translate(-313.442 -370.297)" fill="none" stroke="#063916" stroke-linejoin="round" stroke-width="1.994"/>
          <path id="Trazado_566" data-name="Trazado 566" d="M322.849,401.672a5.552,5.552,0,0,1-4.567-5.315,6.046,6.046,0,0,1,5.771-6.107,5.567,5.567,0,0,1,3.2.862" transform="translate(-312.73 -369.589)" fill="none" stroke="#063916" stroke-linejoin="round" stroke-width="1.994"/>
          <path id="Trazado_567" data-name="Trazado 567" d="M367.364,394.161c3.407-3.85,3.265-9.546.632-13.657-3.216-5.023-10.558-6.178-15.273-2.918a10.158,10.158,0,0,0-3.933,5.708" transform="translate(-308.237 -371.723)" fill="none" stroke="#063916" stroke-linejoin="round" stroke-width="1.994"/>
          <path id="Trazado_568" data-name="Trazado 568" d="M362.964,389.537a5.74,5.74,0,0,0-7.673-8.307,5.239,5.239,0,0,0-1.906,2.54" transform="translate(-307.56 -371.061)" fill="none" stroke="#063916" stroke-linejoin="round" stroke-width="1.994"/>
          <path id="Trazado_569" data-name="Trazado 569" d="M350.738,383.033a11.191,11.191,0,0,0-9.33-10.661c-6.21-1.036-12.239,4.193-13.125,9.983a10.3,10.3,0,0,0,1.481,6.913" transform="translate(-311.272 -372.24)" fill="none" stroke="#063916" stroke-linejoin="round" stroke-width="1.994"/>
          <path id="Trazado_570" data-name="Trazado 570" d="M344.58,382.14a5.611,5.611,0,0,0-4.855-5.058,5.972,5.972,0,0,0-6.636,5.048,5.481,5.481,0,0,0,.545,3.244" transform="translate(-310.557 -371.534)" fill="none" stroke="#063916" stroke-linejoin="round" stroke-width="1.994"/>
        </g>
        <g id="Grupo_217" data-name="Grupo 217" transform="translate(129.293 18.991)">
          <path id="Trazado_571" data-name="Trazado 571" d="M386.068,384.508c-.115-.19-.231-.381-.341-.576-4.756-8.44-2.184-19.867,7.081-24.076s19.679,1.161,23.189,10.312c.08.209.153.419.227.629,3.442-1.286,5.175-1.9,8.662-3.051-.067-.212-.134-.428-.2-.638-4.7-14.656-22.435-22.228-36.205-16.5-14.493,6.035-18.047,25.736-10.785,37.885.111.186.243.375.364.563C381.227,387.174,382.83,386.264,386.068,384.508Z" transform="translate(-362.611 -336.386)" fill="none" stroke="#063916" stroke-linejoin="round" stroke-width="1.994"/>
          <path id="Trazado_572" data-name="Trazado 572" d="M378.763,386.8a11.535,11.535,0,0,1-12.981-4.747c-2.983-4.611-2.126-12.042,3.191-15.023a10.9,10.9,0,0,1,6.814-1.345" transform="translate(-364.078 -333.898)" fill="none" stroke="#063916" stroke-linejoin="round" stroke-width="1.994"/>
          <path id="Trazado_573" data-name="Trazado 573" d="M375.821,381.215a5.812,5.812,0,0,1-6.372-2.588,5.433,5.433,0,0,1,1.665-7.657,5.285,5.285,0,0,1,3.1-.715" transform="translate(-363.421 -333.213)" fill="none" stroke="#063916" stroke-linejoin="round" stroke-width="1.994"/>
          <path id="Trazado_574" data-name="Trazado 574" d="M375.247,367.108c-4.767-2.231-7.668-7.655-6.212-12.714,1.615-5.614,8.393-9.751,14.266-7.906a11.174,11.174,0,0,1,5.782,4.108" transform="translate(-363.404 -336.776)" fill="none" stroke="#063916" stroke-linejoin="round" stroke-width="1.994"/>
          <path id="Trazado_575" data-name="Trazado 575" d="M376.479,361.408a5.621,5.621,0,0,1-2.783-6.42,5.864,5.864,0,0,1,7.216-4,5.622,5.622,0,0,1,2.775,1.792" transform="translate(-362.692 -336.08)" fill="none" stroke="#063916" stroke-linejoin="round" stroke-width="1.994"/>
          <path id="Trazado_576" data-name="Trazado 576" d="M420.861,367.559c4.344-2.68,5.861-8.181,4.542-12.892-1.616-5.77-8.26-8.982-13.66-7.253a10.043,10.043,0,0,0-5.375,4.294" transform="translate(-357.851 -336.643)" fill="none" stroke="#063916" stroke-linejoin="round" stroke-width="1.994"/>
          <path id="Trazado_577" data-name="Trazado 577" d="M417.869,362a5.654,5.654,0,0,0,2.078-6.472,5.555,5.555,0,0,0-6.966-3.723,5.174,5.174,0,0,0-2.54,1.868" transform="translate(-357.251 -335.967)" fill="none" stroke="#063916" stroke-linejoin="round" stroke-width="1.994"/>
          <path id="Trazado_578" data-name="Trazado 578" d="M408.49,351.967a11.3,11.3,0,0,0-5.773-12.949c-5.511-2.794-12.757.281-15.3,5.585a10.3,10.3,0,0,0-.592,7.014" transform="translate(-360.781 -337.965)" fill="none" stroke="#063916" stroke-linejoin="round" stroke-width="1.994"/>
          <path id="Trazado_579" data-name="Trazado 579" d="M402.674,349.478a5.663,5.663,0,0,0-3.141-6.27,5.851,5.851,0,0,0-7.737,2.822,5.488,5.488,0,0,0-.42,3.25" transform="translate(-360.071 -337.272)" fill="none" stroke="#063916" stroke-linejoin="round" stroke-width="1.994"/>
        </g>
        <g id="Grupo_218" data-name="Grupo 218" transform="translate(196.475 0.361)">
          <path id="Trazado_580" data-name="Trazado 580" d="M442.282,363.271c-.054-.216-.109-.431-.157-.651-2.124-9.555,3.714-19.735,13.674-21.189s18.419,6.568,19.154,16.4c.017.224.025.446.036.669,3.657-.288,5.488-.4,9.152-.555,0-.224-.006-.45-.009-.671-.249-15.341-15.045-27.659-29.8-25.977-15.561,1.772-24.56,19.662-21.165,33.412.052.21.122.429.182.644C436.9,364.456,438.693,364.039,442.282,363.271Z" transform="translate(-421.192 -320.34)" fill="none" stroke="#063916" stroke-linejoin="round" stroke-width="1.994"/>
          <path id="Trazado_581" data-name="Trazado 581" d="M434,363.8a11.428,11.428,0,0,1-10.972-8.3c-1.517-5.316,1.486-12.171,7.358-13.5a10.748,10.748,0,0,1,6.865.659" transform="translate(-422.637 -318.783)" fill="none" stroke="#063916" stroke-linejoin="round" stroke-width="1.994"/>
          <path id="Trazado_582" data-name="Trazado 582" d="M432.589,357.749a5.758,5.758,0,0,1-5.312-4.318,5.471,5.471,0,0,1,3.787-6.873,5.211,5.211,0,0,1,3.155.2" transform="translate(-421.986 -318.093)" fill="none" stroke="#063916" stroke-linejoin="round" stroke-width="1.994"/>
          <path id="Trazado_583" data-name="Trazado 583" d="M436.343,343.824c-3.9-3.514-5.084-9.576-2.257-14.013,3.142-4.931,10.739-7.026,15.837-3.574a11.067,11.067,0,0,1,4.329,5.592" transform="translate(-421.181 -321.313)" fill="none" stroke="#063916" stroke-linejoin="round" stroke-width="1.994"/>
          <path id="Trazado_584" data-name="Trazado 584" d="M438.931,338.875a5.678,5.678,0,0,1-.8-6.975,5.811,5.811,0,0,1,8.01-1.806,5.569,5.569,0,0,1,2.128,2.511" transform="translate(-420.481 -320.627)" fill="none" stroke="#063916" stroke-linejoin="round" stroke-width="1.994"/>
          <path id="Trazado_585" data-name="Trazado 585" d="M479.421,357.13c4.9-1.387,7.942-6.239,8.041-11.194a10.9,10.9,0,0,0-10.97-10.761,10.115,10.115,0,0,0-6.362,2.659" transform="translate(-415.643 -319.747)" fill="none" stroke="#063916" stroke-linejoin="round" stroke-width="1.994"/>
          <path id="Trazado_586" data-name="Trazado 586" d="M478.062,351.071a5.771,5.771,0,0,0,3.845-5.675,5.468,5.468,0,0,0-5.587-5.511,5.2,5.2,0,0,0-2.961,1.1" transform="translate(-415.168 -319.054)" fill="none" stroke="#063916" stroke-linejoin="round" stroke-width="1.994"/>
          <path id="Trazado_587" data-name="Trazado 587" d="M472.363,338.563a11.372,11.372,0,0,0-1.8-14.107c-4.521-4.282-12.283-3.238-16.179,1.124a10.52,10.52,0,0,0-2.572,6.6" transform="translate(-418.341 -321.727)" fill="none" stroke="#063916" stroke-linejoin="round" stroke-width="1.994"/>
          <path id="Trazado_588" data-name="Trazado 588" d="M467.3,334.729a5.7,5.7,0,0,0-1.2-6.928,5.8,5.8,0,0,0-8.185.567,5.6,5.6,0,0,0-1.33,3.021" transform="translate(-417.638 -321.043)" fill="none" stroke="#063916" stroke-linejoin="round" stroke-width="1.994"/>
        </g>
        <g id="Grupo_219" data-name="Grupo 219" transform="translate(268.294)">
          <path id="Trazado_589" data-name="Trazado 589" d="M502.119,358.34c.01-.224.02-.446.036-.671.727-9.854,9.2-18.012,19.16-16.705S537.1,352.374,534.978,362c-.048.22-.1.438-.157.655,3.589.719,5.377,1.113,8.936,1.968l.182-.648c4.092-14.7-6.508-30.772-21.144-33.177-15.5-2.55-29.142,12.3-29.818,26.451-.01.216-.006.447-.01.671C496.631,358.018,498.462,358.1,502.119,358.34Z" transform="translate(-484.1 -320.073)" fill="none" stroke="#063916" stroke-linejoin="round" stroke-width="1.994"/>
          <path id="Trazado_590" data-name="Trazado 590" d="M493.349,357.04a11.248,11.248,0,0,1-8.11-11.014c.084-5.6,4.91-11.336,10.9-11.016a10.547,10.547,0,0,1,6.379,2.514" transform="translate(-485.238 -319.412)" fill="none" stroke="#063916" stroke-linejoin="round" stroke-width="1.994"/>
          <path id="Trazado_591" data-name="Trazado 591" d="M493.509,350.96a5.665,5.665,0,0,1-3.841-5.62,5.572,5.572,0,0,1,5.591-5.6,5.124,5.124,0,0,1,2.96,1.057" transform="translate(-484.586 -318.713)" fill="none" stroke="#063916" stroke-linejoin="round" stroke-width="1.994"/>
          <path id="Trazado_592" data-name="Trazado 592" d="M501.311,338.358a11.3,11.3,0,0,1,1.84-14.143c4.34-3.831,12.2-3.921,16.174.891a10.951,10.951,0,0,1,2.554,6.577" transform="translate(-483.118 -321.412)" fill="none" stroke="#063916" stroke-linejoin="round" stroke-width="1.994"/>
          <path id="Trazado_593" data-name="Trazado 593" d="M504.986,334.465a5.756,5.756,0,0,1,9.4-6.5,5.519,5.519,0,0,1,1.322,3.006" transform="translate(-482.428 -320.732)" fill="none" stroke="#063916" stroke-linejoin="round" stroke-width="1.994"/>
          <path id="Trazado_594" data-name="Trazado 594" d="M538.423,363.1c5.11,0,9.4-3.81,10.92-8.557a10.808,10.808,0,0,0-7.45-13.376,10.144,10.144,0,0,0-6.86.812" transform="translate(-477.905 -318.544)" fill="none" stroke="#063916" stroke-linejoin="round" stroke-width="1.994"/>
          <path id="Trazado_595" data-name="Trazado 595" d="M538.8,357a5.865,5.865,0,0,0,5.312-4.4,5.41,5.41,0,0,0-3.784-6.84,5.223,5.223,0,0,0-3.155.247" transform="translate(-477.591 -317.848)" fill="none" stroke="#063916" stroke-linejoin="round" stroke-width="1.994"/>
          <path id="Trazado_596" data-name="Trazado 596" d="M537.25,343.138a11.426,11.426,0,0,0,2.291-14.078c-3.172-5.47-10.948-6.441-15.826-3.361a10.725,10.725,0,0,0-4.343,5.663" transform="translate(-480.212 -321.036)" fill="none" stroke="#063916" stroke-linejoin="round" stroke-width="1.994"/>
          <path id="Trazado_597" data-name="Trazado 597" d="M533.293,338.229a5.678,5.678,0,1,0-9.317-6.156" transform="translate(-479.534 -320.356)" fill="none" stroke="#063916" stroke-linejoin="round" stroke-width="1.994"/>
        </g>
        <g id="Grupo_220" data-name="Grupo 220" transform="translate(339.938 18.054)">
          <path id="Trazado_598" data-name="Trazado 598" d="M561.375,370.106c.075-.212.148-.423.23-.634,3.543-9.2,13.959-14.722,23.215-10.574s11.784,15.616,7.011,24.143c-.11.2-.226.39-.341.582,3.233,1.74,4.833,2.644,8,4.518.12-.19.244-.382.364-.569,8.2-12.923,2.7-31.455-10.673-38-14.2-6.952-31.489,3.526-36.251,16.916-.072.205-.135.429-.2.642C556.206,368.251,557.937,368.848,561.375,370.106Z" transform="translate(-546.944 -335.645)" fill="none" stroke="#063916" stroke-linejoin="round" stroke-width="1.994"/>
          <path id="Trazado_599" data-name="Trazado 599" d="M552.8,366.905a11.168,11.168,0,0,1-4.589-12.846c1.7-5.345,7.93-9.53,13.633-7.527a10.415,10.415,0,0,1,5.392,4.213" transform="translate(-547.686 -335.842)" fill="none" stroke="#063916" stroke-linejoin="round" stroke-width="1.994"/>
          <path id="Trazado_600" data-name="Trazado 600" d="M554.484,361.271a5.807,5.807,0,0,1,4.921-10.283,5.077,5.077,0,0,1,2.533,1.849" transform="translate(-547.033 -335.148)" fill="none" stroke="#063916" stroke-linejoin="round" stroke-width="1.994"/>
          <path id="Trazado_601" data-name="Trazado 601" d="M565.832,351.19a11.344,11.344,0,0,1,5.84-13.053c5.2-2.414,12.809-.338,15.265,5.479a10.97,10.97,0,0,1,.555,7.044" transform="translate(-545.068 -337.148)" fill="none" stroke="#063916" stroke-linejoin="round" stroke-width="1.994"/>
          <path id="Trazado_602" data-name="Trazado 602" d="M570.256,348.662a5.772,5.772,0,0,1,10.9-3.555,5.51,5.51,0,0,1,.4,3.263" transform="translate(-544.379 -336.467)" fill="none" stroke="#063916" stroke-linejoin="round" stroke-width="1.994"/>
          <path id="Trazado_603" data-name="Trazado 603" d="M594.2,385.883c4.918,1.519,10.131-.875,12.963-4.962,3.407-4.917,1.588-12.12-3.264-15.066a10.147,10.147,0,0,0-6.818-1.246" transform="translate(-540.837 -333.125)" fill="none" stroke="#063916" stroke-linejoin="round" stroke-width="1.994"/>
          <path id="Trazado_604" data-name="Trazado 604" d="M596.148,380.207a5.843,5.843,0,0,0,6.375-2.65,5.461,5.461,0,0,0-1.644-7.691,5.226,5.226,0,0,0-3.1-.7" transform="translate(-540.55 -332.436)" fill="none" stroke="#063916" stroke-linejoin="round" stroke-width="1.994"/>
          <path id="Trazado_605" data-name="Trazado 605" d="M598.738,366.157a11.4,11.4,0,0,0,6.271-12.829c-1.465-6.2-8.687-9.38-14.222-7.847a10.729,10.729,0,0,0-5.8,4.174" transform="translate(-542.194 -335.978)" fill="none" stroke="#063916" stroke-linejoin="round" stroke-width="1.994"/>
          <path id="Trazado_606" data-name="Trazado 606" d="M596.218,360.45a5.7,5.7,0,1,0-7.164-8.621" transform="translate(-541.595 -335.289)" fill="none" stroke="#063916" stroke-linejoin="round" stroke-width="1.994"/>
        </g>
        <g id="Grupo_221" data-name="Grupo 221" transform="translate(404.244 57.128)">
          <path id="Trazado_607" data-name="Trazado 607" d="M613.967,398.336c.132-.181.264-.362.4-.541,6.059-7.784,17.7-9.908,25.328-3.006s6.84,18.8-.305,25.634c-.163.156-.33.305-.5.455,2.587,2.739,3.855,4.14,6.333,7.01.172-.146.355-.286.515-.435,10.506-9.756,12.564-29.946.84-40.306-11.578-10.232-31.2-6.4-39.674,5.141-.128.176-.253.372-.381.556C609.545,394.975,611.034,396.074,613.967,398.336Z" transform="translate(-603.328 -369.735)" fill="none" stroke="#063916" stroke-linejoin="round" stroke-width="1.994"/>
          <path id="Trazado_608" data-name="Trazado 608" d="M606.423,393.23a11.316,11.316,0,0,1-.7-13.73c3.158-4.613,10.348-6.812,15.255-3.153a10.7,10.7,0,0,1,3.964,5.7" transform="translate(-603.738 -370.722)" fill="none" stroke="#063916" stroke-linejoin="round" stroke-width="1.994"/>
          <path id="Trazado_609" data-name="Trazado 609" d="M609.43,388.5a5.7,5.7,0,0,1-.108-6.848,5.586,5.586,0,0,1,7.8-1.565,5.208,5.208,0,0,1,1.9,2.547" transform="translate(-603.076 -370.044)" fill="none" stroke="#063916" stroke-linejoin="round" stroke-width="1.994"/>
          <path id="Trazado_610" data-name="Trazado 610" d="M623.452,382.068c.2-5.378,4.178-10.112,9.37-10.779,5.766-.741,12.415,3.716,13.078,10.019a11.112,11.112,0,0,1-1.505,6.977" transform="translate(-600.836 -371.208)" fill="none" stroke="#063916" stroke-linejoin="round" stroke-width="1.994"/>
          <path id="Trazado_611" data-name="Trazado 611" d="M628.2,381.154a5.686,5.686,0,0,1,4.871-5.116,5.926,5.926,0,0,1,6.614,5.065,5.6,5.6,0,0,1-.556,3.273" transform="translate(-600.137 -370.504)" fill="none" stroke="#063916" stroke-linejoin="round" stroke-width="1.994"/>
          <path id="Trazado_612" data-name="Trazado 612" d="M640.881,424.894a11.545,11.545,0,0,0,13.854-.535c4.812-3.777,5.018-11.383,1.29-15.787a10.4,10.4,0,0,0-6.168-3.445" transform="translate(-598.269 -366.213)" fill="none" stroke="#063916" stroke-linejoin="round" stroke-width="1.994"/>
          <path id="Trazado_613" data-name="Trazado 613" d="M644.016,420.071a5.76,5.76,0,0,0,7.555-8.518,5.383,5.383,0,0,0-2.764-1.7" transform="translate(-597.807 -365.516)" fill="none" stroke="#063916" stroke-linejoin="round" stroke-width="1.994"/>
          <path id="Trazado_614" data-name="Trazado 614" d="M650.364,407.008a11.176,11.176,0,0,0,9.751-10.416c.384-6.371-5.474-11.884-11.366-12.172a10.418,10.418,0,0,0-6.778,2.2" transform="translate(-598.108 -369.264)" fill="none" stroke="#063916" stroke-linejoin="round" stroke-width="1.994"/>
          <path id="Trazado_615" data-name="Trazado 615" d="M649.516,400.8a5.623,5.623,0,0,0,4.583-5.371,6.039,6.039,0,0,0-5.749-6.153,5.545,5.545,0,0,0-3.2.875" transform="translate(-597.64 -368.548)" fill="none" stroke="#063916" stroke-linejoin="round" stroke-width="1.994"/>
        </g>
        <g id="Grupo_222" data-name="Grupo 222" transform="translate(456.341 113.04)">
          <path id="Trazado_616" data-name="Trazado 616" d="M655.731,443.158c.18-.133.36-.267.545-.395a17.242,17.242,0,0,1,25.058,5.951c4.956,9.167,1.47,21.027-7.963,25.584-.2.1-.406.187-.609.277,1.637,3.717,2.42,5.609,3.908,9.456.206-.083.422-.156.621-.248,13.859-6.435,20.606-26.254,12.892-40.212-7.559-13.676-27.369-17.608-39.4-8.8-.176.127-.351.279-.528.418C652.5,438.313,653.6,439.906,655.731,443.158Z" transform="translate(-648.987 -418.452)" fill="none" stroke="#063916" stroke-linejoin="round" stroke-width="1.994"/>
          <path id="Trazado_617" data-name="Trazado 617" d="M650.1,435.915a11.74,11.74,0,0,1,3.371-13.7c4.457-3.536,12.039-3.033,15.517,2.078a11.859,11.859,0,0,1,2.109,6.965" transform="translate(-649.149 -419.943)" fill="none" stroke="#063916" stroke-linejoin="round" stroke-width="1.994"/>
          <path id="Trazado_618" data-name="Trazado 618" d="M654.121,432.5a5.914,5.914,0,0,1,1.914-6.757,5.5,5.5,0,0,1,7.914,1.116,5.725,5.725,0,0,1,1.065,3.154" transform="translate(-648.474 -419.265)" fill="none" stroke="#063916" stroke-linejoin="round" stroke-width="1.994"/>
          <path id="Trazado_619" data-name="Trazado 619" d="M669.571,430.816c1.7-5.1,6.936-8.54,12.146-7.372,5.981,1.341,10.735,8.182,9.526,14.51a11.256,11.256,0,0,1-3.516,6.4" transform="translate(-646.142 -419.461)" fill="none" stroke="#063916" stroke-linejoin="round" stroke-width="1.994"/>
          <path id="Trazado_620" data-name="Trazado 620" d="M674.159,431.754a5.407,5.407,0,0,1,6.171-3.35,6.492,6.492,0,0,1,4.816,7.339,5.7,5.7,0,0,1-1.505,3.049" transform="translate(-645.466 -418.715)" fill="none" stroke="#063916" stroke-linejoin="round" stroke-width="1.994"/>
          <path id="Trazado_621" data-name="Trazado 621" d="M673.728,479.947a11.341,11.341,0,0,0,13.317,4.7c6.179-2.221,8.077-10.124,6.007-15.595a11.625,11.625,0,0,0-4.829-5.785" transform="translate(-645.53 -413.563)" fill="none" stroke="#063916" stroke-linejoin="round" stroke-width="1.994"/>
          <path id="Trazado_622" data-name="Trazado 622" d="M677.793,476.427a5.579,5.579,0,0,0,6.677,2.106,6.265,6.265,0,0,0,.96-10.674" transform="translate(-644.931 -412.887)" fill="none" stroke="#063916" stroke-linejoin="round" stroke-width="1.994"/>
          <path id="Trazado_623" data-name="Trazado 623" d="M687.467,465.541a10.537,10.537,0,0,0,12.421-6.893c2.193-6.176-1.433-13.831-7.187-16.354a9.859,9.859,0,0,0-7.124-.249" transform="translate(-643.785 -416.769)" fill="none" stroke="#063916" stroke-linejoin="round" stroke-width="1.994"/>
          <path id="Trazado_624" data-name="Trazado 624" d="M688.474,459.1a5.3,5.3,0,0,0,5.979-3.715,6.843,6.843,0,0,0-3.635-8.268,5.259,5.259,0,0,0-3.313-.285" transform="translate(-643.501 -416.005)" fill="none" stroke="#063916" stroke-linejoin="round" stroke-width="1.994"/>
        </g>
        <g id="Grupo_223" data-name="Grupo 223" transform="translate(490.368 183.598)">
          <path id="Trazado_625" data-name="Trazado 625" d="M681.677,504.42c.211-.069.422-.136.636-.2,10.064-2.882,20.672,6.631,21.863,16.223,1.292,10.416-4.124,22.723-15.487,24.079-.216.026-.441.033-.66.046.379,4.685.522,7.06.711,11.873l.662-.011c18.05-.461,26.786-22.714,24.735-37.866-2.2-16.23-18.89-29.72-34.587-24.771-.2.064-.419.151-.628.226C680.106,498.116,680.659,500.2,681.677,504.42Z" transform="translate(-678.792 -479.779)" fill="none" stroke="#063916" stroke-linejoin="round" stroke-width="1.994"/>
          <path id="Trazado_626" data-name="Trazado 626" d="M678.873,494.773c-.543-5.36,2.366-10.949,7.363-12.778,5.74-2.1,12.546,2.078,14.092,8.1a14.543,14.543,0,0,1-.135,8.03" transform="translate(-678.809 -481.445)" fill="none" stroke="#063916" stroke-linejoin="round" stroke-width="1.994"/>
          <path id="Trazado_627" data-name="Trazado 627" d="M683.476,493.025a6.141,6.141,0,0,1,3.874-6.22c2.957-1.042,6.2.812,7.165,4.206a6.983,6.983,0,0,1,.045,3.675" transform="translate(-678.123 -480.698)" fill="none" stroke="#063916" stroke-linejoin="round" stroke-width="1.994"/>
          <path id="Trazado_628" data-name="Trazado 628" d="M698.667,497.119c3.057-4.556,9.3-6.141,13.777-2.9,5.458,3.953,7.632,12.737,4.539,18.955a10.945,10.945,0,0,1-5.315,5.343" transform="translate(-675.884 -479.815)" fill="none" stroke="#063916" stroke-linejoin="round" stroke-width="1.994"/>
          <path id="Trazado_629" data-name="Trazado 629" d="M702.561,500.118a4.9,4.9,0,0,1,6.879-1.059,8.006,8.006,0,0,1,2.293,9.589,5.666,5.666,0,0,1-2.369,2.6" transform="translate(-675.311 -478.993)" fill="none" stroke="#063916" stroke-linejoin="round" stroke-width="1.994"/>
          <path id="Trazado_630" data-name="Trazado 630" d="M687.683,550.773c1.061,5.385,5.161,10.574,11.038,10.73,7.322.2,10.789-8.706,10.583-14.549a15.365,15.365,0,0,0-2.727-8.268" transform="translate(-677.502 -473.016)" fill="none" stroke="#063916" stroke-linejoin="round" stroke-width="1.994"/>
          <path id="Trazado_631" data-name="Trazado 631" d="M692.288,549c.727,2.958,2.982,5.156,5.617,5.088,3.11-.078,5.571-3.4,5.4-7.361a8.19,8.19,0,0,0-1.127-3.866" transform="translate(-676.824 -472.401)" fill="none" stroke="#063916" stroke-linejoin="round" stroke-width="1.994"/>
          <path id="Trazado_632" data-name="Trazado 632" d="M705.22,541.484a9.308,9.308,0,0,0,13.88-2.322c3.8-5.859,3.464-15.284-1.661-20.418a10.006,10.006,0,0,0-6.657-3.136" transform="translate(-674.919 -476.414)" fill="none" stroke="#063916" stroke-linejoin="round" stroke-width="1.994"/>
          <path id="Trazado_633" data-name="Trazado 633" d="M707.835,535.029a4.724,4.724,0,0,0,6.807-1.54,8.783,8.783,0,0,0-.842-10.324,5.226,5.226,0,0,0-3.041-1.646" transform="translate(-674.534 -475.544)" fill="none" stroke="#063916" stroke-linejoin="round" stroke-width="1.994"/>
        </g>
      </g>
    </g>
    <g id="Grupo_237" data-name="Grupo 237" transform="translate(252.01 593.18)">
      <g id="Grupo_236" data-name="Grupo 236" transform="translate(0 0)">
        <g id="Grupo_226" data-name="Grupo 226" transform="translate(489.212)">
          <path id="Trazado_634" data-name="Trazado 634" d="M687.924,580.31c.22.016.444.028.66.056,11.328,1.52,16.652,13.86,15.285,24.276-1.256,9.559-11.961,18.87-21.931,15.869-.212-.064-.423-.135-.633-.205-1.044,4.2-1.609,6.266-2.815,10.334.208.078.418.17.624.234,15.561,4.929,32.536-7.873,34.684-24.2,1.981-15.06-6.412-37.489-24.415-38.2-.217-.008-.441-.014-.661-.021C688.5,573.264,688.337,575.635,687.924,580.31Z" transform="translate(-678.328 -556.801)" fill="none" stroke="#063916" stroke-linejoin="round" stroke-width="1.994"/>
          <path id="Trazado_635" data-name="Trazado 635" d="M687.613,568.96c1.07-5.378,5.463-10.812,11.054-10.659,6.642.181,11.021,8.273,10.554,14.61a16.421,16.421,0,0,1-2.743,8.247" transform="translate(-676.984 -558.297)" fill="none" stroke="#063916" stroke-linejoin="round" stroke-width="1.994"/>
          <path id="Trazado_636" data-name="Trazado 636" d="M692.212,569.226c.749-2.945,3.019-5.109,5.654-5,3.108.126,5.542,3.49,5.336,7.443a8.141,8.141,0,0,1-1.155,3.844" transform="translate(-676.307 -557.425)" fill="none" stroke="#063916" stroke-linejoin="round" stroke-width="1.994"/>
          <path id="Trazado_637" data-name="Trazado 637" d="M705.02,579.518c4.552-3.589,10.761-2.106,13.844,2.579,3.886,5.9,3.091,15.336-1.861,20.335a9.661,9.661,0,0,1-6.676,3" transform="translate(-674.421 -555.466)" fill="none" stroke="#063916" stroke-linejoin="round" stroke-width="1.994"/>
          <path id="Trazado_638" data-name="Trazado 638" d="M707.587,584.271a4.742,4.742,0,0,1,6.784,1.665,8.734,8.734,0,0,1-.942,10.282,5.173,5.173,0,0,1-3.054,1.586" transform="translate(-674.043 -554.591)" fill="none" stroke="#063916" stroke-linejoin="round" stroke-width="1.994"/>
          <path id="Trazado_639" data-name="Trazado 639" d="M678.413,623.936a12.509,12.509,0,0,0,7.339,12.782c6.122,2.6,12.388-2.494,14.051-7.992a13.476,13.476,0,0,0-.128-8" transform="translate(-678.349 -549.105)" fill="none" stroke="#063916" stroke-linejoin="round" stroke-width="1.994"/>
          <path id="Trazado_640" data-name="Trazado 640" d="M683.018,624.577a6.176,6.176,0,0,0,3.82,6.256c2.94,1.079,6.188-.722,7.172-4.09a6.958,6.958,0,0,0,.07-3.663" transform="translate(-677.663 -548.758)" fill="none" stroke="#063916" stroke-linejoin="round" stroke-width="1.994"/>
          <path id="Trazado_641" data-name="Trazado 641" d="M698.094,623.374a9.915,9.915,0,0,0,13.715,3.133c6.01-3.864,7.316-12.869,4.708-18.8a10.582,10.582,0,0,0-5.253-5.428" transform="translate(-675.441 -551.821)" fill="none" stroke="#063916" stroke-linejoin="round" stroke-width="1.994"/>
          <path id="Trazado_642" data-name="Trazado 642" d="M702.009,618.825A4.911,4.911,0,0,0,708.86,620c2.805-1.9,3.891-6.237,2.378-9.514a5.728,5.728,0,0,0-2.339-2.641" transform="translate(-674.864 -551.001)" fill="none" stroke="#063916" stroke-linejoin="round" stroke-width="1.994"/>
        </g>
        <g id="Grupo_227" data-name="Grupo 227" transform="translate(454.989 86.856)">
          <path id="Trazado_643" data-name="Trazado 643" d="M672.219,648.662c.2.092.405.182.606.282,9.362,4.653,12.76,16.513,7.776,25.573a17.077,17.077,0,0,1-24.952,5.633c-.185-.13-.361-.264-.539-.4-2.133,3.214-3.231,4.789-5.484,7.872.174.14.345.291.523.421,11.864,8.647,31.848,5.643,39.225-8.295,7.342-13.874,1.267-33.757-12.59-40.209-.195-.091-.412-.169-.617-.255C674.662,643.1,673.871,644.977,672.219,648.662Z" transform="translate(-648.355 -633.227)" fill="none" stroke="#063916" stroke-linejoin="round" stroke-width="1.994"/>
          <path id="Trazado_644" data-name="Trazado 644" d="M673.186,639.347c2.8-4.408,8.514-6.582,13.267-4.61,5.592,2.321,8.437,9.821,5.989,15.569a12.176,12.176,0,0,1-4.808,5.734" transform="translate(-644.886 -634.005)" fill="none" stroke="#063916" stroke-linejoin="round" stroke-width="1.994"/>
          <path id="Trazado_645" data-name="Trazado 645" d="M677.245,641.43a5.528,5.528,0,0,1,6.666-2.011,6.118,6.118,0,0,1,3.013,7.935,6.015,6.015,0,0,1-2.126,2.711" transform="translate(-644.288 -633.271)" fill="none" stroke="#063916" stroke-linejoin="round" stroke-width="1.994"/>
          <path id="Trazado_646" data-name="Trazado 646" d="M686.67,654.443a10.437,10.437,0,0,1,12.311,7.061c1.762,5.844-1.024,13.814-7.284,16.15a10.293,10.293,0,0,1-7.089.135" transform="translate(-643.204 -631.036)" fill="none" stroke="#063916" stroke-linejoin="round" stroke-width="1.994"/>
          <path id="Trazado_647" data-name="Trazado 647" d="M687.622,659.359a5.328,5.328,0,0,1,5.923,3.793,6.753,6.753,0,0,1-3.683,8.166,5.235,5.235,0,0,1-3.3.231" transform="translate(-642.916 -630.281)" fill="none" stroke="#063916" stroke-linejoin="round" stroke-width="1.994"/>
          <path id="Trazado_648" data-name="Trazado 648" d="M649.425,682.136a11.98,11.98,0,0,0,3.383,13.64c4.629,4.018,11.994,2.567,15.411-2.022a11.02,11.02,0,0,0,2.079-6.917" transform="translate(-648.518 -626.918)" fill="none" stroke="#063916" stroke-linejoin="round" stroke-width="1.994"/>
          <path id="Trazado_649" data-name="Trazado 649" d="M653.459,684.5a5.91,5.91,0,0,0,1.871,6.741,5.457,5.457,0,0,0,7.868-1.026,5.668,5.668,0,0,0,1.073-3.126" transform="translate(-647.848 -626.57)" fill="none" stroke="#063916" stroke-linejoin="round" stroke-width="1.994"/>
          <path id="Trazado_650" data-name="Trazado 650" d="M668.605,688.288a10.856,10.856,0,0,0,12.022,7.5c6.5-1.075,10.415-8.372,9.577-14.281a10.706,10.706,0,0,0-3.45-6.417" transform="translate(-645.561 -627.956)" fill="none" stroke="#063916" stroke-linejoin="round" stroke-width="1.994"/>
          <path id="Trazado_651" data-name="Trazado 651" d="M673.175,686.079a5.417,5.417,0,0,0,6.111,3.418,6.4,6.4,0,0,0,4.842-7.224,5.724,5.724,0,0,0-1.475-3.055" transform="translate(-644.887 -627.348)" fill="none" stroke="#063916" stroke-linejoin="round" stroke-width="1.994"/>
        </g>
        <g id="Grupo_228" data-name="Grupo 228" transform="translate(402.56 153.626)">
          <path id="Trazado_652" data-name="Trazado 652" d="M637.831,701.293c.164.151.329.3.49.459,7.035,6.876,7.743,18.712.135,25.477s-19.129,4.554-25.089-3.249c-.137-.179-.266-.36-.4-.542-2.92,2.221-4.4,3.3-7.4,5.391.126.186.244.381.375.558,8.369,11.314,27.829,16,39.289,5.511,11.328-10.371,9.953-30.266-.561-40.057-.158-.148-.339-.293-.508-.439C641.685,697.223,640.417,698.6,637.831,701.293Z" transform="translate(-602.414 -691.882)" fill="none" stroke="#063916" stroke-linejoin="round" stroke-width="1.994"/>
          <path id="Trazado_653" data-name="Trazado 653" d="M639.787,694.265a11.229,11.229,0,0,1,13.751.615c4.277,3.691,5.445,11.205,1.28,15.7a10.862,10.862,0,0,1-6.12,3.39" transform="translate(-597.376 -692.205)" fill="none" stroke="#063916" stroke-linejoin="round" stroke-width="1.994"/>
          <path id="Trazado_654" data-name="Trazado 654" d="M642.917,697.682a5.744,5.744,0,0,1,7.438,8.564,5.3,5.3,0,0,1-2.754,1.649" transform="translate(-596.915 -691.53)" fill="none" stroke="#063916" stroke-linejoin="round" stroke-width="1.994"/>
          <path id="Trazado_655" data-name="Trazado 655" d="M648.9,712.447a11.036,11.036,0,0,1,9.585,10.489c.055,5.85-5.1,11.966-11.377,11.917a10.984,10.984,0,0,1-6.7-2.274" transform="translate(-597.285 -689.224)" fill="none" stroke="#063916" stroke-linejoin="round" stroke-width="1.994"/>
          <path id="Trazado_656" data-name="Trazado 656" d="M648,717.2a5.626,5.626,0,0,1,4.5,5.4,5.949,5.949,0,0,1-5.754,6.026,5.51,5.51,0,0,1-3.165-.914" transform="translate(-596.816 -688.524)" fill="none" stroke="#063916" stroke-linejoin="round" stroke-width="1.994"/>
          <path id="Trazado_657" data-name="Trazado 657" d="M605.4,724.963c-3.388,3.8-3.263,9.5-.669,13.652a11.037,11.037,0,0,0,15.112,3.152,9.989,9.989,0,0,0,3.912-5.648" transform="translate(-602.819 -687.381)" fill="none" stroke="#063916" stroke-linejoin="round" stroke-width="1.994"/>
          <path id="Trazado_658" data-name="Trazado 658" d="M608.425,728.467a5.679,5.679,0,0,0-.141,6.8A5.532,5.532,0,0,0,616,736.895a5.138,5.138,0,0,0,1.9-2.512" transform="translate(-602.171 -686.865)" fill="none" stroke="#063916" stroke-linejoin="round" stroke-width="1.994"/>
          <path id="Trazado_659" data-name="Trazado 659" d="M622.006,736.138a11.338,11.338,0,0,0,9.2,10.814c6.146,1.138,12.134-3.995,13.036-9.777a10.477,10.477,0,0,0-1.437-6.945" transform="translate(-599.994 -686.606)" fill="none" stroke="#063916" stroke-linejoin="round" stroke-width="1.994"/>
          <path id="Trazado_660" data-name="Trazado 660" d="M626.7,736.011a5.682,5.682,0,0,0,4.789,5.14,5.842,5.842,0,0,0,6.593-4.946,5.562,5.562,0,0,0-.526-3.256" transform="translate(-599.302 -686.206)" fill="none" stroke="#063916" stroke-linejoin="round" stroke-width="1.994"/>
        </g>
        <g id="Grupo_229" data-name="Grupo 229" transform="translate(338.842 199.399)">
          <path id="Trazado_661" data-name="Trazado 661" d="M590.621,737.136c.114.193.227.384.335.58,4.69,8.508,2.127,19.881-7.036,23.947s-19.448-1.439-22.914-10.62c-.08-.21-.151-.421-.224-.631-3.4,1.237-5.117,1.823-8.563,2.929.067.213.125.432.2.639,4.758,13.1,21.636,24.3,35.773,16.975,12.938-6.706,18.946-24.861,10.725-37.686-.117-.182-.239-.378-.358-.567C595.417,734.541,593.829,735.428,590.621,737.136Z" transform="translate(-546.552 -732.015)" fill="none" stroke="#063916" stroke-linejoin="round" stroke-width="1.994"/>
          <path id="Trazado_662" data-name="Trazado 662" d="M593.268,732.571A11.477,11.477,0,0,1,606.1,737.51c2.94,4.656,2.072,12.07-3.193,14.969a10.624,10.624,0,0,1-6.742,1.24" transform="translate(-540.507 -732.103)" fill="none" stroke="#063916" stroke-linejoin="round" stroke-width="1.994"/>
          <path id="Trazado_663" data-name="Trazado 663" d="M595.228,736.834a5.792,5.792,0,0,1,6.3,2.682,5.43,5.43,0,0,1-1.665,7.628,5.143,5.143,0,0,1-3.07.667" transform="translate(-540.219 -731.432)" fill="none" stroke="#063916" stroke-linejoin="round" stroke-width="1.994"/>
          <path id="Trazado_664" data-name="Trazado 664" d="M597.435,752.212c4.712,2.3,7.571,7.765,6.125,12.794-1.6,5.581-8.308,9.6-14.111,7.672a11.273,11.273,0,0,1-5.712-4.188" transform="translate(-541.911 -729.142)" fill="none" stroke="#063916" stroke-linejoin="round" stroke-width="1.994"/>
          <path id="Trazado_665" data-name="Trazado 665" d="M594.91,756.542a5.648,5.648,0,1,1-7.136,8.5" transform="translate(-541.316 -728.504)" fill="none" stroke="#063916" stroke-linejoin="round" stroke-width="1.994"/>
          <path id="Trazado_666" data-name="Trazado 666" d="M552.22,751.07c-4.293,2.616-5.79,8.082-4.485,12.8a11.078,11.078,0,0,0,13.5,7.42,9.739,9.739,0,0,0,5.311-4.207" transform="translate(-547.279 -729.31)" fill="none" stroke="#063916" stroke-linejoin="round" stroke-width="1.994"/>
          <path id="Trazado_667" data-name="Trazado 667" d="M553.948,755.34a5.77,5.77,0,0,0,4.83,10.236,5.005,5.005,0,0,0,2.509-1.826" transform="translate(-546.643 -728.681)" fill="none" stroke="#063916" stroke-linejoin="round" stroke-width="1.994"/>
          <path id="Trazado_668" data-name="Trazado 668" d="M564.812,765.961a11.467,11.467,0,0,0,5.7,13c5.443,2.867,12.6-.088,15.112-5.342a10.351,10.351,0,0,0,.589-6.99" transform="translate(-544.753 -727.117)" fill="none" stroke="#063916" stroke-linejoin="round" stroke-width="1.994"/>
          <path id="Trazado_669" data-name="Trazado 669" d="M569.174,767.587a5.753,5.753,0,0,0,3.1,6.3,5.7,5.7,0,0,0,7.645-2.7,5.508,5.508,0,0,0,.415-3.236" transform="translate(-544.072 -726.878)" fill="none" stroke="#063916" stroke-linejoin="round" stroke-width="1.994"/>
        </g>
        <g id="Grupo_230" data-name="Grupo 230" transform="translate(268.769 225.465)">
          <path id="Trazado_670" data-name="Trazado 670" d="M535.139,756.791c.053.216.108.431.156.65,2.1,9.552-3.641,19.616-13.469,20.942s-18.2-6.75-18.945-16.556c-.017-.224-.026-.445-.037-.668-3.61.249-5.418.34-9.037.457.006.223,0,.45.013.669.858,13.859,13.939,29.253,29.478,26.205,14.235-2.792,25.078-18.455,20.848-33.023-.061-.209-.121-.429-.18-.645C540.45,755.675,538.683,756.069,535.139,756.791Z" transform="translate(-485.081 -754.823)" fill="none" stroke="#063916" stroke-linejoin="round" stroke-width="1.994"/>
          <path id="Trazado_671" data-name="Trazado 671" d="M538.618,754.83a11.5,11.5,0,0,1,10.844,8.421c1.5,5.322-1.459,12.114-7.256,13.359a10.567,10.567,0,0,1-6.778-.746" transform="translate(-478.952 -754.822)" fill="none" stroke="#063916" stroke-linejoin="round" stroke-width="1.994"/>
          <path id="Trazado_672" data-name="Trazado 672" d="M539.072,759.5a5.8,5.8,0,0,1,5.25,4.374,5.384,5.384,0,0,1-3.734,6.8,5.127,5.127,0,0,1-3.116-.243" transform="translate(-478.651 -754.135)" fill="none" stroke="#063916" stroke-linejoin="round" stroke-width="1.994"/>
          <path id="Trazado_673" data-name="Trazado 673" d="M537.224,774.342c3.856,3.554,5.029,9.61,2.247,13.99-3.093,4.869-10.582,6.853-15.619,3.35a11.232,11.232,0,0,1-4.283-5.622" transform="translate(-481.287 -751.949)" fill="none" stroke="#063916" stroke-linejoin="round" stroke-width="1.994"/>
          <path id="Trazado_674" data-name="Trazado 674" d="M533.315,778.006a5.726,5.726,0,0,1,.806,6.959,5.67,5.67,0,0,1-10.008-.835" transform="translate(-480.618 -751.409)" fill="none" stroke="#063916" stroke-linejoin="round" stroke-width="1.994"/>
          <path id="Trazado_675" data-name="Trazado 675" d="M494.11,760.934c-4.833,1.33-7.826,6.128-7.908,11.058a10.988,10.988,0,0,0,10.859,10.824,9.791,9.791,0,0,0,6.271-2.575" transform="translate(-486.201 -753.923)" fill="none" stroke="#063916" stroke-linejoin="round" stroke-width="1.994"/>
          <path id="Trazado_676" data-name="Trazado 676" d="M494.353,765.6a5.65,5.65,0,0,0-3.779,5.609,5.507,5.507,0,0,0,5.53,5.544,5.043,5.043,0,0,0,2.92-1.064" transform="translate(-485.557 -753.236)" fill="none" stroke="#063916" stroke-linejoin="round" stroke-width="1.994"/>
          <path id="Trazado_677" data-name="Trazado 677" d="M501.745,778.853a11.44,11.44,0,0,0,1.816,14.058c4.471,4.314,12.122,3.372,15.956-.921a10.38,10.38,0,0,0,2.523-6.542" transform="translate(-484.151 -751.284)" fill="none" stroke="#063916" stroke-linejoin="round" stroke-width="1.994"/>
          <path id="Trazado_678" data-name="Trazado 678" d="M505.375,781.629a5.745,5.745,0,0,0,1.2,6.91,5.672,5.672,0,0,0,8.072-.465,5.527,5.527,0,0,0,1.307-2.991" transform="translate(-483.474 -750.876)" fill="none" stroke="#063916" stroke-linejoin="round" stroke-width="1.994"/>
        </g>
        <g id="Grupo_231" data-name="Grupo 231" transform="translate(197.741 225.13)">
          <path id="Trazado_679" data-name="Trazado 679" d="M476.047,761.1c-.009.221-.017.444-.032.667-.693,9.8-9.014,17.828-18.853,16.447s-15.632-11.462-13.588-21.008c.046-.219.1-.435.153-.651-3.55-.74-5.318-1.143-8.84-2.013-.059.215-.128.43-.177.643-3.063,13.534,5.283,31.849,21.033,33.128,14.487,1.176,29.3-10.816,29.335-26.037,0-.218,0-.446.008-.669C481.468,761.472,479.66,761.371,476.047,761.1Z" transform="translate(-422.847 -754.529)" fill="none" stroke="#063916" stroke-linejoin="round" stroke-width="1.994"/>
          <path id="Trazado_680" data-name="Trazado 680" d="M480.345,760.894a11.364,11.364,0,0,1,8.042,11.039c-.067,5.569-4.812,11.226-10.723,10.848a10.509,10.509,0,0,1-6.3-2.562" transform="translate(-417.357 -753.594)" fill="none" stroke="#063916" stroke-linejoin="round" stroke-width="1.994"/>
          <path id="Trazado_681" data-name="Trazado 681" d="M479.1,765.554a5.726,5.726,0,0,1,3.81,5.63,5.435,5.435,0,0,1-5.5,5.514,5.1,5.1,0,0,1-2.926-1.081" transform="translate(-416.897 -752.908)" fill="none" stroke="#063916" stroke-linejoin="round" stroke-width="1.994"/>
          <path id="Trazado_682" data-name="Trazado 682" d="M473.18,778.743c2.744,4.538,2.088,10.647-1.762,14.046-4.267,3.767-12.016,3.783-15.961-1.035a11.077,11.077,0,0,1-2.548-6.559" transform="translate(-420.074 -750.966)" fill="none" stroke="#063916" stroke-linejoin="round" stroke-width="1.994"/>
          <path id="Trazado_683" data-name="Trazado 683" d="M468.191,781.493a5.649,5.649,0,0,1-9.253,6.378,5.574,5.574,0,0,1-1.316-3" transform="translate(-419.38 -750.56)" fill="none" stroke="#063916" stroke-linejoin="round" stroke-width="1.994"/>
          <path id="Trazado_684" data-name="Trazado 684" d="M435.478,754.531c-5.049-.032-9.265,3.731-10.746,8.437a10.876,10.876,0,0,0,7.43,13.333,9.926,9.926,0,0,0,6.77-.762" transform="translate(-424.289 -754.531)" fill="none" stroke="#063916" stroke-linejoin="round" stroke-width="1.994"/>
          <path id="Trazado_685" data-name="Trazado 685" d="M434.169,759.209a5.717,5.717,0,0,0-5.225,4.344,5.442,5.442,0,0,0,3.772,6.819,5.118,5.118,0,0,0,3.115-.225" transform="translate(-423.634 -753.842)" fill="none" stroke="#063916" stroke-linejoin="round" stroke-width="1.994"/>
          <path id="Trazado_686" data-name="Trazado 686" d="M437.608,774a11.35,11.35,0,0,0-2.193,13.971c3.158,5.456,10.836,6.48,15.635,3.46a10.469,10.469,0,0,0,4.262-5.59" transform="translate(-422.87 -751.664)" fill="none" stroke="#063916" stroke-linejoin="round" stroke-width="1.994"/>
          <path id="Trazado_687" data-name="Trazado 687" d="M440.182,777.68a5.657,5.657,0,0,0,7.131,8.7,5.579,5.579,0,0,0,2.1-2.514" transform="translate(-422.187 -751.122)" fill="none" stroke="#063916" stroke-linejoin="round" stroke-width="1.994"/>
        </g>
        <g id="Grupo_232" data-name="Grupo 232" transform="translate(130.48 198.365)">
          <path id="Trazado_688" data-name="Trazado 688" d="M417.34,749.834c-.072.21-.143.42-.223.629-3.457,9.106-13.711,14.555-22.891,10.412s-11.773-15.521-7.1-23.973c.109-.2.221-.387.335-.577-3.214-1.732-4.8-2.632-7.953-4.494-.118.188-.249.374-.357.563-6.879,12.079-3.974,32.054,10.83,37.726,13.641,5.226,31.326-1.982,35.737-16.651.063-.209.132-.425.2-.637C422.462,751.7,420.746,751.1,417.34,749.834Z" transform="translate(-364.197 -731.109)" fill="none" stroke="#063916" stroke-linejoin="round" stroke-width="1.994"/>
          <path id="Trazado_689" data-name="Trazado 689" d="M421.849,750.5a11.217,11.217,0,0,1,4.606,12.784c-1.654,5.3-7.782,9.42-13.429,7.4a10.467,10.467,0,0,1-5.354-4.208" transform="translate(-359.475 -728.36)" fill="none" stroke="#063916" stroke-linejoin="round" stroke-width="1.994"/>
          <path id="Trazado_690" data-name="Trazado 690" d="M418.979,754.768a5.65,5.65,0,0,1,2.071,6.441,5.5,5.5,0,0,1-6.874,3.747,5.1,5.1,0,0,1-2.516-1.848" transform="translate(-358.888 -727.732)" fill="none" stroke="#063916" stroke-linejoin="round" stroke-width="1.994"/>
          <path id="Trazado_691" data-name="Trazado 691" d="M409.42,765.17c1.363,5.168-1.046,10.78-5.693,12.933-5.122,2.375-12.655.286-15.121-5.493a10.949,10.949,0,0,1-.6-6.993" transform="translate(-362.417 -726.2)" fill="none" stroke="#063916" stroke-linejoin="round" stroke-width="1.994"/>
          <path id="Trazado_692" data-name="Trazado 692" d="M403.68,766.75a5.683,5.683,0,0,1-3.1,6.265,5.746,5.746,0,0,1-7.65-2.778,5.516,5.516,0,0,1-.419-3.239" transform="translate(-361.719 -725.967)" fill="none" stroke="#063916" stroke-linejoin="round" stroke-width="1.994"/>
          <path id="Trazado_693" data-name="Trazado 693" d="M380.151,731.661c-4.882-1.512-10.028.86-12.8,4.911-3.336,4.875-1.478,12.017,3.348,14.943a10.075,10.075,0,0,0,6.759,1.244" transform="translate(-365.661 -731.202)" fill="none" stroke="#063916" stroke-linejoin="round" stroke-width="1.994"/>
          <path id="Trazado_694" data-name="Trazado 694" d="M377.317,735.935a5.737,5.737,0,0,0-6.293,2.624,5.444,5.444,0,0,0,1.686,7.629,5.2,5.2,0,0,0,3.072.694" transform="translate(-365.002 -730.532)" fill="none" stroke="#063916" stroke-linejoin="round" stroke-width="1.994"/>
          <path id="Trazado_695" data-name="Trazado 695" d="M376.516,751.12a11.215,11.215,0,0,0-6.11,12.717c1.494,6.153,8.659,9.317,14.123,7.809a10.462,10.462,0,0,0,5.709-4.126" transform="translate(-365.009 -728.269)" fill="none" stroke="#063916" stroke-linejoin="round" stroke-width="1.994"/>
          <path id="Trazado_696" data-name="Trazado 696" d="M377.759,755.462a5.639,5.639,0,0,0-2.737,6.419,5.774,5.774,0,0,0,7.144,3.949,5.573,5.573,0,0,0,2.741-1.8" transform="translate(-364.313 -727.629)" fill="none" stroke="#063916" stroke-linejoin="round" stroke-width="1.994"/>
        </g>
        <g id="Grupo_233" data-name="Grupo 233" transform="translate(72.508 152.288)">
          <path id="Trazado_697" data-name="Trazado 697" d="M364.741,722.454c-.13.179-.259.36-.395.537-5.939,7.736-17.457,9.841-25.09,3.024s-6.973-18.6.057-25.4c.161-.155.326-.3.489-.453-2.6-2.7-3.867-4.088-6.358-6.919-.169.145-.341.289-.507.433-11.788,10.156-11.146,30.564-.439,39.925,10.551,9.225,30.7,7.708,39.289-5.157.12-.18.249-.368.373-.552C369.152,725.783,367.668,724.695,364.741,722.454Z" transform="translate(-313.783 -690.714)" fill="none" stroke="#063916" stroke-linejoin="round" stroke-width="1.994"/>
          <path id="Trazado_698" data-name="Trazado 698" d="M368.809,723.968a11.238,11.238,0,0,1,.8,13.614c-3.092,4.573-10.195,6.753-15.088,3.129a10.726,10.726,0,0,1-3.974-5.64" transform="translate(-309.915 -686.19)" fill="none" stroke="#063916" stroke-linejoin="round" stroke-width="1.994"/>
          <path id="Trazado_699" data-name="Trazado 699" d="M364.537,727.472a5.66,5.66,0,0,1,.163,6.789,5.515,5.515,0,0,1-7.712,1.555,5.214,5.214,0,0,1-1.9-2.523" transform="translate(-309.247 -685.674)" fill="none" stroke="#063916" stroke-linejoin="round" stroke-width="1.994"/>
          <path id="Trazado_700" data-name="Trazado 700" d="M352.2,734.829c-.151,5.331-4.054,10.028-9.193,10.7-5.708.743-12.34-3.654-13.055-9.9a10.956,10.956,0,0,1,1.427-6.915" transform="translate(-312.959 -685.491)" fill="none" stroke="#063916" stroke-linejoin="round" stroke-width="1.994"/>
          <path id="Trazado_701" data-name="Trazado 701" d="M346.1,734.64a5.589,5.589,0,0,1-4.784,5.079,5.924,5.924,0,0,1-6.6-5,5.525,5.525,0,0,1,.522-3.244" transform="translate(-312.255 -685.085)" fill="none" stroke="#063916" stroke-linejoin="round" stroke-width="1.994"/>
          <path id="Trazado_702" data-name="Trazado 702" d="M333.9,693.052a11.488,11.488,0,0,0-13.759.593c-4.74,3.763-4.863,11.292-1.114,15.635a10.414,10.414,0,0,0,6.16,3.384" transform="translate(-314.946 -691.039)" fill="none" stroke="#063916" stroke-linejoin="round" stroke-width="1.994"/>
          <path id="Trazado_703" data-name="Trazado 703" d="M329.7,696.487a5.689,5.689,0,0,0-7.415,8.468,5.4,5.4,0,0,0,2.76,1.666" transform="translate(-314.281 -690.371)" fill="none" stroke="#063916" stroke-linejoin="round" stroke-width="1.994"/>
          <path id="Trazado_704" data-name="Trazado 704" d="M324.716,710.9a11,11,0,0,0-9.574,10.356c-.317,6.311,5.551,11.743,11.4,12.007a10.287,10.287,0,0,0,6.7-2.2" transform="translate(-315.13 -688.114)" fill="none" stroke="#063916" stroke-linejoin="round" stroke-width="1.994"/>
          <path id="Trazado_705" data-name="Trazado 705" d="M324.44,715.643a5.528,5.528,0,0,0-4.495,5.337,6.031,6.031,0,0,0,5.764,6.071,5.485,5.485,0,0,0,3.166-.879" transform="translate(-314.421 -687.416)" fill="none" stroke="#063916" stroke-linejoin="round" stroke-width="1.994"/>
        </g>
        <g id="Grupo_234" data-name="Grupo 234" transform="translate(25.163 86.373)">
          <path id="Trazado_706" data-name="Trazado 706" d="M322.217,679.1c-.178.133-.355.266-.537.395a17.26,17.26,0,0,1-25-5.719c-5.043-9.029-1.723-20.788,7.617-25.372.2-.1.4-.187.6-.278-1.675-3.666-2.479-5.531-4.01-9.325-.2.085-.412.168-.614.251-15.158,6.3-19.519,27.363-12.34,39.882,7,12.206,26.854,18.548,39.295,8.438.168-.136.347-.278.52-.417C325.478,683.881,324.371,682.31,322.217,679.1Z" transform="translate(-272.286 -632.815)" fill="none" stroke="#063916" stroke-linejoin="round" stroke-width="1.994"/>
          <path id="Trazado_707" data-name="Trazado 707" d="M325.164,681.44a11.553,11.553,0,0,1-3.2,13.576c-4.391,3.524-11.93,3.068-15.444-1.97a11.744,11.744,0,0,1-2.175-6.878" transform="translate(-269.374 -626.537)" fill="none" stroke="#063916" stroke-linejoin="round" stroke-width="1.994"/>
          <path id="Trazado_708" data-name="Trazado 708" d="M319.83,683.82a5.814,5.814,0,0,1-1.829,6.7,5.5,5.5,0,0,1-7.877-1.06,5.68,5.68,0,0,1-1.093-3.115" transform="translate(-268.683 -626.186)" fill="none" stroke="#063916" stroke-linejoin="round" stroke-width="1.994"/>
          <path id="Trazado_709" data-name="Trazado 709" d="M305.852,687.239c-1.634,5.055-6.8,8.5-11.991,7.38-5.965-1.284-10.776-8.009-9.652-14.278a11.059,11.059,0,0,1,3.421-6.358" transform="translate(-272.362 -627.635)" fill="none" stroke="#063916" stroke-linejoin="round" stroke-width="1.994"/>
          <path id="Trazado_710" data-name="Trazado 710" d="M299.892,685a5.356,5.356,0,0,1-6.1,3.358,6.455,6.455,0,0,1-4.879-7.222,5.605,5.605,0,0,1,1.46-3.028" transform="translate(-271.656 -627.027)" fill="none" stroke="#063916" stroke-linejoin="round" stroke-width="1.994"/>
          <path id="Trazado_711" data-name="Trazado 711" d="M300.905,638.783a11.374,11.374,0,0,0-13.333-4.53c-6.131,2.253-7.917,10.088-5.783,15.476a11.573,11.573,0,0,0,4.885,5.675" transform="translate(-272.822 -633.584)" fill="none" stroke="#063916" stroke-linejoin="round" stroke-width="1.994"/>
          <path id="Trazado_712" data-name="Trazado 712" d="M295.622,640.916a5.6,5.6,0,0,0-6.682-2.024,6,6,0,0,0-2.964,7.862,6.074,6.074,0,0,0,2.144,2.7" transform="translate(-272.149 -632.863)" fill="none" stroke="#063916" stroke-linejoin="round" stroke-width="1.994"/>
          <path id="Trazado_713" data-name="Trazado 713" d="M286.741,653.452a10.466,10.466,0,0,0-12.284,6.932c-2.1,6.126,1.607,13.658,7.366,16.1a9.883,9.883,0,0,0,7.093.186" transform="translate(-273.862 -630.7)" fill="none" stroke="#063916" stroke-linejoin="round" stroke-width="1.994"/>
          <path id="Trazado_714" data-name="Trazado 714" d="M284.826,658.329a5.263,5.263,0,0,0-5.908,3.727,6.774,6.774,0,0,0,3.725,8.142,5.29,5.29,0,0,0,3.3.254" transform="translate(-273.161 -629.95)" fill="none" stroke="#063916" stroke-linejoin="round" stroke-width="1.994"/>
        </g>
        <g id="Grupo_235" data-name="Grupo 235" transform="translate(0 0.192)">
          <path id="Trazado_715" data-name="Trazado 715" d="M294.714,619.936c-.21.069-.42.139-.632.2-9.943,2.928-20.7-6.263-22.041-15.808-1.457-10.356,3.866-22.537,15.147-23.995.217-.027.44-.038.66-.053-.44-4.631-.615-6.98-.867-11.741-.22.007-.441.006-.661.019-17.867,1.113-27.5,21.991-24.2,37.747,3.031,14.467,18.517,30.345,34.852,24.119.2-.077.416-.154.624-.229C296.363,626.155,295.786,624.1,294.714,619.936Z" transform="translate(-250.523 -556.98)" fill="none" stroke="#063916" stroke-linejoin="round" stroke-width="1.994"/>
          <path id="Trazado_716" data-name="Trazado 716" d="M295.836,623.468c.61,5.3-2.218,10.851-7.176,12.707-5.7,2.132-12.537-1.931-14.159-7.871a14.251,14.251,0,0,1,.025-7.94" transform="translate(-248.686 -549.349)" fill="none" stroke="#063916" stroke-linejoin="round" stroke-width="1.994"/>
          <path id="Trazado_717" data-name="Trazado 717" d="M289.889,624.173a6.046,6.046,0,0,1-3.781,6.189c-2.936,1.059-6.2-.741-7.2-4.086a6.843,6.843,0,0,1-.093-3.633" transform="translate(-248 -549.014)" fill="none" stroke="#063916" stroke-linejoin="round" stroke-width="1.994"/>
          <path id="Trazado_718" data-name="Trazado 718" d="M275.775,622.539c-2.989,4.538-9.192,6.173-13.707,3.019-5.5-3.842-7.8-12.493-4.8-18.676a10.843,10.843,0,0,1,5.23-5.346" transform="translate(-251.338 -552.122)" fill="none" stroke="#063916" stroke-linejoin="round" stroke-width="1.994"/>
          <path id="Trazado_719" data-name="Trazado 719" d="M270.573,618a4.918,4.918,0,0,1-6.849,1.126,7.877,7.877,0,0,1-2.426-9.45,5.623,5.623,0,0,1,2.329-2.6" transform="translate(-250.648 -551.307)" fill="none" stroke="#063916" stroke-linejoin="round" stroke-width="1.994"/>
          <path id="Trazado_720" data-name="Trazado 720" d="M286.264,568.948c-1.13-5.318-5.3-10.4-11.181-10.482-7.329-.1-10.674,8.753-10.388,14.53a15.1,15.1,0,0,0,2.843,8.141" transform="translate(-250.052 -558.464)" fill="none" stroke="#063916" stroke-linejoin="round" stroke-width="1.994"/>
          <path id="Trazado_721" data-name="Trazado 721" d="M280.314,569.293c-.768-2.918-3.051-5.065-5.686-4.965-3.109.117-5.526,3.437-5.3,7.35a8.038,8.038,0,0,0,1.179,3.81" transform="translate(-249.369 -557.602)" fill="none" stroke="#063916" stroke-linejoin="round" stroke-width="1.994"/>
          <path id="Trazado_722" data-name="Trazado 722" d="M268.2,579.02a9.358,9.358,0,0,0-13.842,2.476c-3.719,5.841-3.239,15.149,1.954,20.157A10.065,10.065,0,0,0,263,604.669" transform="translate(-251.929 -555.739)" fill="none" stroke="#063916" stroke-linejoin="round" stroke-width="1.994"/>
          <path id="Trazado_723" data-name="Trazado 723" d="M264.592,583.707a4.746,4.746,0,0,0-6.781,1.609,8.608,8.608,0,0,0,.989,10.193,5.256,5.256,0,0,0,3.062,1.589" transform="translate(-251.244 -554.867)" fill="none" stroke="#063916" stroke-linejoin="round" stroke-width="1.994"/>
        </g>
      </g>
    </g>
  </g>
</svg>
